<svg xmlns="http://www.w3.org/2000/svg" width="227.03" height="49.621" viewBox="0 0 227.03 49.621"><g transform="translate(-343.863 -5997.478)"><path d="M568.237,6000.928a2.662,2.662,0,1,0,2.656,2.659,2.644,2.644,0,0,0-2.656-2.659m0,4.957a2.3,2.3,0,1,1,2.294-2.3,2.3,2.3,0,0,1-2.294,2.3" fill="#404040"/><path d="M388.02,6037.636a27.064,27.064,0,0,0-5.195-.313,28.583,28.583,0,0,0-19.132,9.051c-.037.036-.079.079-.113.11-.049.078.031.094.076.1s.109.015.162.036a24.771,24.771,0,0,0,24.252-8.887.072.072,0,0,0,.026-.033c.036-.037.01-.042,0-.042a.622.622,0,0,0-.076-.021" fill="#404040"/><path d="M392.782,6027.238a13.22,13.22,0,0,0-6.8-2h-.123a.075.075,0,0,0-.081.078.533.533,0,0,0-.005.094,11.172,11.172,0,0,1-4.044,8.73l-.352.269a.875.875,0,0,1-.11.091c-.094.076.029.071.086.071a1.393,1.393,0,0,1,.235-.013,28.057,28.057,0,0,1,7.65.957c.07.024.138.05.209.073a.174.174,0,0,0,.209-.073,1,1,0,0,1,.091-.138,25.768,25.768,0,0,0,3.152-7.856.366.366,0,0,1,.026-.1c0-.024.005-.1-.039-.12a1,1,0,0,1-.1-.063" fill="#404040"/><path d="M353.778,6002.942c0,.024,0,.031,0,.039.016.037.027.047.074.01.026-.025.059-.049.088-.075,8.339-6.374,19-6.059,21.68,1.889a6.451,6.451,0,0,1-.094,4.266c-.045.1-.092.19-.139.276-.023.05-.054.157.073.1a2.574,2.574,0,0,1,.311-.076c4.717-1.069,12.247.577,15.543,3.037.036.026.067.055.1.076s.062.034.044-.016a.891.891,0,0,1-.05-.1,24.8,24.8,0,0,0-37.577-9.964c-.028.031-.052.034-.067.05s-.066.036-.058.083a.35.35,0,0,1,.015.107c.019.112.043.222.053.295" fill="#404040"/><path d="M384.394,6013.316a32.239,32.239,0,0,0-6.745-.72,27.1,27.1,0,0,0-6.581.775c-.059.013-.075.436,0,.415a10.018,10.018,0,0,1,4.293-.431,16.046,16.046,0,0,1,2.943.856,12.878,12.878,0,0,1,6.849,7.618,1.049,1.049,0,0,1,.062.186.094.094,0,0,0,.1.07c.023,0,.052.006.072.006a18.762,18.762,0,0,1,7.841,2.082c.021.018.063.039.081.059.037.016.091.047.107-.02,0-.024.008-.055.008-.081a11.281,11.281,0,0,0-.024-3.269c-.785-5.166-6.591-6.964-9.006-7.546" fill="#404040"/><path d="M355.5,6013.9a.16.16,0,0,0,.051-.037c.037-.024.021-.063.021-.078s-.015-.037-.021-.061c-1.33-5.424-2.128-9.932-2.275-10.752a.352.352,0,0,0-.015-.083c-.01-.029-.029-.039-.063,0-.013,0-.023.021-.042.026a25,25,0,0,0-9.3,19.378,24.479,24.479,0,0,0,.472,4.822c.008.039.016.076.024.117.01.081.049.058.059.024a.188.188,0,0,0,.029-.058,35.83,35.83,0,0,1,11.056-13.3" fill="#404040"/><path d="M365.957,6039.629c.013-.008-.013-.041-.049-.078-.021-.01-.052-.047-.078-.065-.718-.773-2.612-4.381-4.48-8.535a.182.182,0,0,0-.019-.057.063.063,0,0,0-.1-.029.276.276,0,0,0-.071.05,23.59,23.59,0,0,0-8.847,9.818.526.526,0,0,1-.042.091c-.019.063.013.089.024.089a1.152,1.152,0,0,1,.093.091,24.4,24.4,0,0,0,7.321,4.41.461.461,0,0,0,.152.073c.073.015.094.005.115-.016s.028-.057.046-.063a26.955,26.955,0,0,1,5.843-5.716c.026-.013.065-.05.088-.063" fill="#404040"/><path d="M359.774,6028.47a1.752,1.752,0,0,0,.268-.167c.107-.07.076-.2.048-.277-.76-1.831-1.465-3.689-2.01-5.356-.519-1.6-1-3.188-1.445-4.814a.322.322,0,0,1-.021-.063.066.066,0,0,0-.109-.026c-.189.131-.337.238-.52.389a41.591,41.591,0,0,0-10.465,13.015.112.112,0,0,0-.006.106c.006.019.016.076.016.076a21.949,21.949,0,0,0,4.54,7.352c.008.008.031.021.037.037.052.066.1.024.125-.018s.065-.107.094-.133c2.554-4.149,5.335-7.6,9.448-10.121" fill="#404040"/><path d="M406.235,6035.3h3.41v10.742h1.889V6035.3h3.416v-1.7h-8.715Z" fill="#404040"/><path d="M423.935,6041.758a2.665,2.665,0,0,1-.709,1.96,2.783,2.783,0,0,1-3.747,0,2.727,2.727,0,0,1-.684-1.96v-8.151h-1.883v8.235a4.045,4.045,0,0,0,1.26,3.1,4.4,4.4,0,0,0,3.186,1.19,4.479,4.479,0,0,0,3.209-1.19,4.087,4.087,0,0,0,1.25-3.1v-8.235h-1.882Z" fill="#404040"/><path d="M436.853,6039.384a3.313,3.313,0,0,0,.686-2.145,3.448,3.448,0,0,0-1.051-2.627,3.891,3.891,0,0,0-2.8-1h-4.817v12.433h1.887V6040.8l2.353-.01,2.61,5.252h2.2l-2.857-5.51a3.365,3.365,0,0,0,1.787-1.146m-6.092-.183v-3.9h2.792a2.241,2.241,0,0,1,1.539.525,1.891,1.891,0,0,1,.571,1.44,1.8,1.8,0,0,1-.584,1.427,2.237,2.237,0,0,1-1.526.511Z" fill="#404040"/><rect width="1.884" height="12.433" transform="translate(440.3 6033.607)" fill="#404040"/><path d="M451.224,6039.361a5.783,5.783,0,0,0-1.367-.35l-1.409-.2a2.663,2.663,0,0,1-1.383-.567,1.476,1.476,0,0,1-.485-1.163,1.825,1.825,0,0,1,.6-1.388,2.428,2.428,0,0,1,1.665-.551,4.817,4.817,0,0,1,1.5.219,3.152,3.152,0,0,1,1.2.741l1.216-1.184a5.462,5.462,0,0,0-3.862-1.422,4.424,4.424,0,0,0-3.04,1.009,3.418,3.418,0,0,0-1.114,2.636,3.061,3.061,0,0,0,.875,2.348,4.14,4.14,0,0,0,2.387,1.028l1.464.206a4.144,4.144,0,0,1,.84.193,2.64,2.64,0,0,1,.657.451,1.552,1.552,0,0,1,.361,1.174,1.614,1.614,0,0,1-.682,1.4,3.015,3.015,0,0,1-1.881.5,5.134,5.134,0,0,1-1.761-.271,3.611,3.611,0,0,1-1.417-.914l-1.265,1.248a5.124,5.124,0,0,0,1.923,1.252,7.1,7.1,0,0,0,2.484.376,5.108,5.108,0,0,0,3.238-.961,3.261,3.261,0,0,0,1.215-2.681,2.958,2.958,0,0,0-.709-2.289,4.523,4.523,0,0,0-1.253-.837" fill="#404040"/><path d="M461.228,6041.333l-3.621-7.73H455.72v12.438h1.887v-8.326l2.935,6.056h1.393l2.857-6.043v8.313h1.881V6033.6h-1.881Z" fill="#404040"/><path d="M477.271,6034.9a4.733,4.733,0,0,0-1.549-1.067,4.6,4.6,0,0,0-1.811-.344,4.008,4.008,0,0,0-3.013,1.095,4.1,4.1,0,0,0-1.266,2.072,19.287,19.287,0,0,0-.188,3.16,19.536,19.536,0,0,0,.188,3.178,4.21,4.21,0,0,0,1.266,2.056,4.089,4.089,0,0,0,3.013,1.075,4.475,4.475,0,0,0,3.285-1.315,3.437,3.437,0,0,0,1.02-1.8,20.8,20.8,0,0,0,.167-3.193,18.118,18.118,0,0,0-.188-3.17,3.171,3.171,0,0,0-.924-1.746m-.915,7.546a2.237,2.237,0,0,1-.522,1.148,2.526,2.526,0,0,1-.882.636,2.723,2.723,0,0,1-2.077.006,2.387,2.387,0,0,1-.884-.647,2.171,2.171,0,0,1-.528-1.127,24.722,24.722,0,0,1,.008-5.274,2.36,2.36,0,0,1,.52-1.16,2.684,2.684,0,0,1,.884-.632,2.772,2.772,0,0,1,1.036-.2,2.526,2.526,0,0,1,1.041.2,2.117,2.117,0,0,1,.814.567,2.422,2.422,0,0,1,.6,1.205,15.978,15.978,0,0,1,.128,2.651,16.552,16.552,0,0,1-.133,2.63" fill="#404040"/><path d="M569.367,6003.461a.864.864,0,0,0,.2-.563.946.946,0,0,0-.294-.7,1.072,1.072,0,0,0-.747-.258h-1.273v3.3h.507v-1.387h.623l.694,1.387h.582l-.76-1.469a.768.768,0,0,0,.473-.31m-1.612-.028v-1.052h.735a.612.612,0,0,1,.41.141.466.466,0,0,1,.156.376.476.476,0,0,1-.162.386.542.542,0,0,1-.4.149Z" fill="#404040"/><path d="M423.891,6011.369v-.138a5.823,5.823,0,0,0,2.615-5.354c0-4.448-3.017-6.922-8.037-6.922H407.787c-1.153,0-1.552.392-1.552,1.565v22.81c0,1.119.4,1.521,1.552,1.521h10.826c5.137,0,8.967-2.515,8.967-7.209,0-3.165-1.354-5.244-3.689-6.273m-10.453-6.553h3.544c1.453,0,2.207.625,2.207,2.053s-.754,1.956-2.207,1.956h-3.544Zm4.225,14.141h-4.225v-4.269h4.225c1.568,0,2.33.655,2.33,2.122,0,1.521-.762,2.147-2.33,2.147" fill="#404040"/><path d="M449.127,6024.849c1.2,0,1.455-.8.952-1.78l-3.282-6.236a9.769,9.769,0,0,0-.982-1.56c2.474-1.375,3.935-3.94,3.935-7.5,0-5.649-3.572-8.778-9.069-8.778H430.3c-1.171,0-1.578.4-1.578,1.526v22.81c0,1.119.407,1.519,1.578,1.519h4.112c1.159,0,1.534-.4,1.534-1.519v-7.079h.827a2.673,2.673,0,0,1,2.725,1.856l2.337,5c.588,1.271,1.428,1.746,3.358,1.746Zm-9.255-14.685H435.95v-4.806h3.922a2.174,2.174,0,0,1,2.4,2.375,2.217,2.217,0,0,1-2.4,2.431" fill="#404040"/><path d="M473.334,6015.2v-6.549c0-6.3-3.991-10.209-11.177-10.209-7.2,0-11.214,3.911-11.214,10.209v6.549c0,6.309,4.01,10.2,11.214,10.2,7.186,0,11.177-3.888,11.177-10.2m-15.18.324v-7.214c0-2.278,1.459-3.491,4-3.491,2.517,0,3.976,1.213,3.976,3.491v7.214c0,2.3-1.459,3.509-3.976,3.509-2.544,0-4-1.208-4-3.509" fill="#404040"/><path d="M486.266,6004.816c2.034,0,3.133.727,3.785,2.374.4,1.117.838,1.317,1.97.978l3.893-1.383c1.088-.349,1.346-.908.984-1.969-1.526-4.066-5.028-6.377-10.632-6.377-7.173,0-11.222,3.911-11.222,10.209v6.549c0,6.309,4.049,10.2,11.222,10.2,5.6,0,9.106-2.291,10.632-6.364.362-1.07.1-1.612-.984-1.962l-3.893-1.4c-1.1-.4-1.539-.148-1.97.987-.577,1.563-1.751,2.374-3.785,2.374-2.881,0-4-1.237-4-3.791v-6.63c0-2.549,1.12-3.793,4-3.793" fill="#404040"/><path d="M515.608,6013.968a7.355,7.355,0,0,0-2.215-2.807l6.622-10.562c.582-.95.216-1.6-.872-1.6H514.95c-1.9,0-2.223.214-2.914,1.349l-5.247,8.266H506v-8.089c0-1.124-.368-1.526-1.535-1.526h-4.117c-1.166,0-1.563.4-1.563,1.526v22.81c0,1.119.4,1.519,1.563,1.519h4.117c1.167,0,1.535-.4,1.535-1.519v-8.344h.655c1.383,0,1.9.644,2.479,1.824l3.175,6.52c.61,1.258,1.3,1.519,3.233,1.519h3.939c1.2,0,1.454-.8.937-1.78Z" fill="#404040"/><path d="M538.983,6018.48h-9.935v-3.494h7.676c1.171,0,1.557-.41,1.557-1.571v-3.275c0-1.124-.386-1.534-1.557-1.534h-7.676v-3.248h9.612c1.163,0,1.563-.4,1.563-1.552v-3.286c0-1.124-.4-1.526-1.563-1.526H523.4c-1.164,0-1.563.4-1.563,1.526v22.815c0,1.114.4,1.514,1.563,1.514h15.584c1.13,0,1.535-.4,1.535-1.514V6020c0-1.171-.405-1.523-1.535-1.523" fill="#404040"/><path d="M560.579,6016.833a8.8,8.8,0,0,0-.994-1.56c2.494-1.375,3.95-3.94,3.95-7.5,0-5.649-3.574-8.778-9.072-8.778H544.084c-1.166,0-1.568.4-1.568,1.526v22.81c0,1.119.4,1.519,1.568,1.519H548.2c1.164,0,1.526-.4,1.526-1.519v-7.079h.845a2.681,2.681,0,0,1,2.724,1.856l2.333,5c.587,1.271,1.425,1.746,3.358,1.746h3.924c1.206,0,1.466-.8.942-1.78Zm-6.924-6.669h-3.93v-4.806h3.93a2.178,2.178,0,0,1,2.4,2.375,2.221,2.221,0,0,1-2.4,2.431" fill="#404040"/></g></svg>