<svg id="Camada_1" data-name="Camada 1" xmlns="http://www.w3.org/2000/svg" viewBox="0 0 543.82 130.43"><defs><style>.cls-1{isolation:isolate;}.cls-2{fill:#303030;}.cls-3{fill:#e52a12;}</style></defs><g class="cls-1"><g class="cls-1"><path class="cls-2" d="M94.52,456.2a6.36,6.36,0,0,1-2.76-2.46,7.24,7.24,0,0,1-1-3.82,7.11,7.11,0,0,1,1-3.76,6.46,6.46,0,0,1,2.75-2.49,10.15,10.15,0,0,1,8.27,0,6.58,6.58,0,0,1,2.75,2.49,7.12,7.12,0,0,1,1,3.76,7.24,7.24,0,0,1-1,3.82,6.39,6.39,0,0,1-2.75,2.46,10.43,10.43,0,0,1-8.25,0Zm7.2-3.13a4.42,4.42,0,0,0,1.14-3.15,4.36,4.36,0,0,0-1.13-3.2,4.7,4.7,0,0,0-6.18,0,4.36,4.36,0,0,0-1.13,3.2,4.42,4.42,0,0,0,1.14,3.15,4.53,4.53,0,0,0,6.16,0Z" transform="translate(-46.16 -332.33)"/><path class="cls-2" d="M116,443.21h3.3V445a6.06,6.06,0,0,1,2.1-1.62,5.74,5.74,0,0,1,2.43-.56,5.19,5.19,0,0,1,2.52.52,3.27,3.27,0,0,1,1.43,1.55,5.86,5.86,0,0,1,2.16-1.54,6.65,6.65,0,0,1,2.54-.53,4.53,4.53,0,0,1,3.6,1.26,5.47,5.47,0,0,1,1.09,3.69v8.89h-3.38v-8.42a3,3,0,0,0-.57-2,2.43,2.43,0,0,0-1.84-.61,3.67,3.67,0,0,0-1.63.35,3.58,3.58,0,0,0-1.36,1.19c0,.59.06,1.08.06,1.45v8.08H125v-8.47a3.23,3.23,0,0,0-.48-2,2.16,2.16,0,0,0-1.73-.57,4.25,4.25,0,0,0-3.42,2.15v8.92H116Z" transform="translate(-46.16 -332.33)"/><path class="cls-2" d="M140.26,455.18a6.51,6.51,0,0,1-2.19-5.23,7.08,7.08,0,0,1,1.93-5.23,7.46,7.46,0,0,1,5.51-1.93,8.46,8.46,0,0,1,4,.89,6,6,0,0,1,2.5,2.45,7.32,7.32,0,0,1,.84,3.54v1.62H141.43c.24,2,2,3,5.2,3a15.82,15.82,0,0,0,2.63-.22,11.26,11.26,0,0,0,2.35-.62v2.72a11.75,11.75,0,0,1-2.45.64,17.6,17.6,0,0,1-3,.25A8.78,8.78,0,0,1,140.26,455.18Zm9.28-6.29a3.14,3.14,0,0,0-1.13-2.47,4.62,4.62,0,0,0-2.95-.86,4.42,4.42,0,0,0-2.91.89,3.19,3.19,0,0,0-1.12,2.44Z" transform="translate(-46.16 -332.33)"/><path class="cls-2" d="M154,436h3.52v20.67H154Z" transform="translate(-46.16 -332.33)"/><path class="cls-2" d="M159.13,436h3.53v9a6.32,6.32,0,0,1,4.92-2.12,5.24,5.24,0,0,1,4.06,1.47,5.58,5.58,0,0,1,1.34,3.9v8.47h-3.53v-8.14c0-1.95-.91-2.93-2.74-2.93a4.71,4.71,0,0,0-2.26.57,4.82,4.82,0,0,0-1.79,1.72v8.78h-3.53Z" transform="translate(-46.16 -332.33)"/><path class="cls-2" d="M177.24,456.2a6.39,6.39,0,0,1-2.75-2.46,7.89,7.89,0,0,1,0-7.58,6.55,6.55,0,0,1,2.76-2.49,10.13,10.13,0,0,1,8.26,0,6.55,6.55,0,0,1,2.76,2.49,7.12,7.12,0,0,1,1,3.76,7.24,7.24,0,0,1-1,3.82,6.36,6.36,0,0,1-2.76,2.46,10.43,10.43,0,0,1-8.25,0Zm7.2-3.13a5,5,0,0,0,0-6.35,4.7,4.7,0,0,0-6.18,0,4.36,4.36,0,0,0-1.14,3.2,4.42,4.42,0,0,0,1.15,3.15,4.51,4.51,0,0,0,6.15,0Z" transform="translate(-46.16 -332.33)"/><path class="cls-2" d="M190.32,443.21h3.41v2.15a4.71,4.71,0,0,1,2.31-1.62,10.28,10.28,0,0,1,3.42-.53v2.68a9.1,9.1,0,0,0-3.54.63,3.77,3.77,0,0,0-2.08,2v8.14h-3.52Z" transform="translate(-46.16 -332.33)"/><path class="cls-2" d="M208.93,440.3a1.88,1.88,0,0,1-.57-1.4,1.95,1.95,0,0,1,2-2,2,2,0,0,1,1.43.57,1.89,1.89,0,0,1,.59,1.41,1.86,1.86,0,0,1-.59,1.4,2,2,0,0,1-1.43.56A2,2,0,0,1,208.93,440.3Zm-.38,2.91h3.58v13.42h-3.58Z" transform="translate(-46.16 -332.33)"/><path class="cls-2" d="M214,443.21h3.41V445a5.83,5.83,0,0,1,2.26-1.7,7.23,7.23,0,0,1,2.77-.54,5.24,5.24,0,0,1,4.06,1.47,5.58,5.58,0,0,1,1.34,3.9v8.47h-3.52v-8.14c0-1.95-.92-2.93-2.75-2.93a4.71,4.71,0,0,0-2.26.57,4.82,4.82,0,0,0-1.79,1.72v8.78H214Z" transform="translate(-46.16 -332.33)"/><path class="cls-2" d="M227.54,443.21h3.55l3.64,9.28,3.64-9.28h3.55l-5.54,13.42h-3.3Z" transform="translate(-46.16 -332.33)"/><path class="cls-2" d="M243.51,455.18a6.53,6.53,0,0,1-2.18-5.23,7,7,0,0,1,1.93-5.23,7.44,7.44,0,0,1,5.51-1.93,8.42,8.42,0,0,1,4,.89,6.05,6.05,0,0,1,2.51,2.45,7.32,7.32,0,0,1,.83,3.54v1.62H244.69c.24,2,2,3,5.2,3a15.91,15.91,0,0,0,2.63-.22,11.61,11.61,0,0,0,2.35-.62v2.72a11.93,11.93,0,0,1-2.45.64,17.71,17.71,0,0,1-3,.25A8.8,8.8,0,0,1,243.51,455.18Zm9.29-6.29a3.15,3.15,0,0,0-1.14-2.47,4.61,4.61,0,0,0-2.95-.86,4.42,4.42,0,0,0-2.91.89,3.18,3.18,0,0,0-1.11,2.44Z" transform="translate(-46.16 -332.33)"/><path class="cls-2" d="M259.34,456.72a7.59,7.59,0,0,1-2.57-.93v-3a9.55,9.55,0,0,0,2.6,1.08,11,11,0,0,0,2.85.4,6.14,6.14,0,0,0,2-.23.88.88,0,0,0,.61-.88,1.09,1.09,0,0,0-.32-.83,3,3,0,0,0-1-.59c-.48-.17-1.21-.39-2.2-.66a14.14,14.14,0,0,1-2.64-1,3.65,3.65,0,0,1-1.45-1.28,3.61,3.61,0,0,1-.49-2,3.37,3.37,0,0,1,1.59-3,7.92,7.92,0,0,1,4.31-1,15.3,15.3,0,0,1,2.78.26,6.65,6.65,0,0,1,2.17.75v2.88a7.36,7.36,0,0,0-2-.81,9.78,9.78,0,0,0-2.47-.31,6.28,6.28,0,0,0-2.06.26,1,1,0,0,0-.7,1,1,1,0,0,0,.37.8,3.46,3.46,0,0,0,1,.5c.41.14,1.15.35,2.23.63a12.42,12.42,0,0,1,2.72,1,3.49,3.49,0,0,1,1.4,1.34,4.25,4.25,0,0,1,.41,2,3.34,3.34,0,0,1-1.52,2.87,7.64,7.64,0,0,1-4.4,1.07A15.92,15.92,0,0,1,259.34,456.72Z" transform="translate(-46.16 -332.33)"/><path class="cls-2" d="M271.09,455.82a4.86,4.86,0,0,1-1.15-3.47v-6.46h-2v-2.68h2v-4h3.52v4h3.22v2.68h-3.22v6a2.77,2.77,0,0,0,.48,1.83,2.24,2.24,0,0,0,1.73.54,4,4,0,0,0,1.71-.39v2.69a8.16,8.16,0,0,1-2.94.47A4.35,4.35,0,0,1,271.09,455.82Z" transform="translate(-46.16 -332.33)"/><path class="cls-2" d="M278.76,440.3a1.88,1.88,0,0,1-.57-1.4,1.92,1.92,0,0,1,.57-1.41,2.05,2.05,0,0,1,2.84,0,1.89,1.89,0,0,1,.59,1.41,1.86,1.86,0,0,1-.59,1.4,2.08,2.08,0,0,1-2.84,0Zm-.37,2.91H282v13.42h-3.58Z" transform="translate(-46.16 -332.33)"/><path class="cls-2" d="M283.84,443.21h3.3V445a6.06,6.06,0,0,1,2.1-1.62,5.74,5.74,0,0,1,2.43-.56,5.24,5.24,0,0,1,2.52.52,3.21,3.21,0,0,1,1.42,1.55,5.89,5.89,0,0,1,2.17-1.54,6.6,6.6,0,0,1,2.53-.53,4.55,4.55,0,0,1,3.61,1.26,5.47,5.47,0,0,1,1.09,3.69v8.89h-3.38v-8.42a2.91,2.91,0,0,0-.58-2,2.39,2.39,0,0,0-1.83-.61,3.64,3.64,0,0,0-1.63.35,3.58,3.58,0,0,0-1.36,1.19c0,.59.06,1.08.06,1.45v8.08h-3.42v-8.47a3.3,3.3,0,0,0-.47-2,2.19,2.19,0,0,0-1.74-.57,4.25,4.25,0,0,0-3.41,2.15v8.92h-3.41Z" transform="translate(-46.16 -332.33)"/><path class="cls-2" d="M308.14,455.18A6.53,6.53,0,0,1,306,450a7.08,7.08,0,0,1,1.93-5.23,7.44,7.44,0,0,1,5.51-1.93,8.42,8.42,0,0,1,4,.89,6.05,6.05,0,0,1,2.51,2.45,7.32,7.32,0,0,1,.84,3.54v1.62H309.32c.24,2,2,3,5.2,3a15.91,15.91,0,0,0,2.63-.22,11.43,11.43,0,0,0,2.35-.62v2.72a11.75,11.75,0,0,1-2.45.64,17.71,17.71,0,0,1-3,.25A8.8,8.8,0,0,1,308.14,455.18Zm9.29-6.29a3.17,3.17,0,0,0-1.13-2.47,4.64,4.64,0,0,0-2.95-.86,4.4,4.4,0,0,0-2.91.89,3.19,3.19,0,0,0-1.12,2.44Z" transform="translate(-46.16 -332.33)"/><path class="cls-2" d="M321.85,443.21h3.41V445a5.79,5.79,0,0,1,2.27-1.7,7.15,7.15,0,0,1,2.76-.54,5.23,5.23,0,0,1,4.06,1.47,5.58,5.58,0,0,1,1.34,3.9v8.47h-3.52v-8.14c0-1.95-.92-2.93-2.74-2.93a4.72,4.72,0,0,0-2.27.57,4.89,4.89,0,0,0-1.79,1.72v8.78h-3.52Z" transform="translate(-46.16 -332.33)"/><path class="cls-2" d="M339.24,455.82a4.9,4.9,0,0,1-1.14-3.47v-6.46h-2v-2.68h2v-4h3.52v4h3.22v2.68h-3.22v6a2.77,2.77,0,0,0,.48,1.83,2.22,2.22,0,0,0,1.73.54,4,4,0,0,0,1.71-.39v2.69a8.24,8.24,0,0,1-2.94.47A4.39,4.39,0,0,1,339.24,455.82Z" transform="translate(-46.16 -332.33)"/><path class="cls-2" d="M349.38,456.2a6.39,6.39,0,0,1-2.75-2.46,7.89,7.89,0,0,1,0-7.58,6.49,6.49,0,0,1,2.76-2.49,10.13,10.13,0,0,1,8.26,0,6.61,6.61,0,0,1,2.76,2.49,7.12,7.12,0,0,1,1,3.76,7.24,7.24,0,0,1-1,3.82,6.41,6.41,0,0,1-2.76,2.46,10.43,10.43,0,0,1-8.25,0Zm7.2-3.13a5,5,0,0,0,0-6.35,4.7,4.7,0,0,0-6.18,0,4.36,4.36,0,0,0-1.14,3.2,4.42,4.42,0,0,0,1.15,3.15,4.51,4.51,0,0,0,6.15,0Z" transform="translate(-46.16 -332.33)"/><path class="cls-2" d="M373.69,456.17a6.29,6.29,0,0,1-2.52-2.49,8.08,8.08,0,0,1,0-7.45,6.39,6.39,0,0,1,2.52-2.53,7.21,7.21,0,0,1,3.64-.91,7.46,7.46,0,0,1,5.21,1.73V436h3.52v20.67h-3.41v-1.56a7.36,7.36,0,0,1-2.38,1.52,8.33,8.33,0,0,1-2.94.46A7.4,7.4,0,0,1,373.69,456.17Zm7.2-2.7a4.29,4.29,0,0,0,1.65-2.18v-2.71a4.24,4.24,0,0,0-1.64-2.2,4.61,4.61,0,0,0-2.7-.82,4.21,4.21,0,0,0-4.36,4.39,4.17,4.17,0,0,0,1.23,3.13,4.29,4.29,0,0,0,3.13,1.2A4.64,4.64,0,0,0,380.89,453.47Z" transform="translate(-46.16 -332.33)"/><path class="cls-2" d="M390.47,456.2a6.36,6.36,0,0,1-2.76-2.46,7.24,7.24,0,0,1-1-3.82,7.11,7.11,0,0,1,1-3.76,6.46,6.46,0,0,1,2.75-2.49,10.15,10.15,0,0,1,8.27,0,6.58,6.58,0,0,1,2.75,2.49,7.12,7.12,0,0,1,1,3.76,7.24,7.24,0,0,1-1,3.82,6.39,6.39,0,0,1-2.75,2.46,10.43,10.43,0,0,1-8.25,0Zm7.2-3.13a4.42,4.42,0,0,0,1.14-3.15,4.36,4.36,0,0,0-1.13-3.2,4.7,4.7,0,0,0-6.18,0,5,5,0,0,0,0,6.35,4.52,4.52,0,0,0,6.16,0Z" transform="translate(-46.16 -332.33)"/><path class="cls-2" d="M414,456.72a7.59,7.59,0,0,1-2.57-.93v-3a9.55,9.55,0,0,0,2.6,1.08,10.93,10.93,0,0,0,2.85.4,6.18,6.18,0,0,0,2-.23.88.88,0,0,0,.61-.88,1.13,1.13,0,0,0-.32-.83,3,3,0,0,0-1-.59c-.48-.17-1.21-.39-2.2-.66a14.14,14.14,0,0,1-2.64-1,3.33,3.33,0,0,1-2-3.28,3.37,3.37,0,0,1,1.6-3,7.91,7.91,0,0,1,4.3-1,15.41,15.41,0,0,1,2.79.26,6.74,6.74,0,0,1,2.17.75v2.88a7.31,7.31,0,0,0-2.05-.81,9.64,9.64,0,0,0-2.46-.31,6.39,6.39,0,0,0-2.07.26,1,1,0,0,0-.7,1,1,1,0,0,0,.38.8,3.27,3.27,0,0,0,1,.5c.41.14,1.16.35,2.24.63a12.12,12.12,0,0,1,2.71,1,3.43,3.43,0,0,1,1.4,1.34,4.12,4.12,0,0,1,.42,2,3.37,3.37,0,0,1-1.52,2.87,7.68,7.68,0,0,1-4.41,1.07A15.82,15.82,0,0,1,414,456.72Z" transform="translate(-46.16 -332.33)"/><path class="cls-2" d="M425.77,455.18a6.53,6.53,0,0,1-2.18-5.23,7.08,7.08,0,0,1,1.93-5.23,7.46,7.46,0,0,1,5.51-1.93,8.46,8.46,0,0,1,4,.89,6,6,0,0,1,2.5,2.45,7.32,7.32,0,0,1,.84,3.54v1.62H427c.24,2,2,3,5.2,3a15.82,15.82,0,0,0,2.63-.22,11.26,11.26,0,0,0,2.35-.62v2.72a11.75,11.75,0,0,1-2.45.64,17.71,17.71,0,0,1-3,.25A8.82,8.82,0,0,1,425.77,455.18Zm9.29-6.29a3.17,3.17,0,0,0-1.13-2.47,4.62,4.62,0,0,0-2.95-.86,4.42,4.42,0,0,0-2.91.89,3.19,3.19,0,0,0-1.12,2.44Z" transform="translate(-46.16 -332.33)"/><path class="cls-2" d="M440.68,455.58a5.56,5.56,0,0,1-1.34-3.9v-8.47h3.52v8.14c0,1.95.92,2.93,2.74,2.93a4.72,4.72,0,0,0,2.27-.57,4.89,4.89,0,0,0,1.79-1.72v-8.78h3.52v13.42h-3.41v-1.82a5.83,5.83,0,0,1-2.26,1.7,7.23,7.23,0,0,1-2.77.54A5.24,5.24,0,0,1,440.68,455.58Z" transform="translate(-46.16 -332.33)"/><path class="cls-2" d="M465.24,455.82a4.86,4.86,0,0,1-1.15-3.47v-6.46h-2v-2.68h2v-4h3.52v4h3.22v2.68h-3.22v6a2.77,2.77,0,0,0,.48,1.83,2.24,2.24,0,0,0,1.73.54,4,4,0,0,0,1.71-.39v2.69a8.16,8.16,0,0,1-2.94.47A4.35,4.35,0,0,1,465.24,455.82Z" transform="translate(-46.16 -332.33)"/><path class="cls-2" d="M474,455.18a6.53,6.53,0,0,1-2.18-5.23,7,7,0,0,1,1.93-5.23,7.44,7.44,0,0,1,5.51-1.93,8.42,8.42,0,0,1,4,.89,6.05,6.05,0,0,1,2.51,2.45,7.43,7.43,0,0,1,.84,3.54v1.62H475.14c.24,2,2,3,5.2,3a15.91,15.91,0,0,0,2.63-.22,11.43,11.43,0,0,0,2.35-.62v2.72a11.93,11.93,0,0,1-2.45.64,17.71,17.71,0,0,1-3,.25A8.8,8.8,0,0,1,474,455.18Zm9.29-6.29a3.15,3.15,0,0,0-1.14-2.47,4.61,4.61,0,0,0-2.95-.86,4.42,4.42,0,0,0-2.91.89,3.18,3.18,0,0,0-1.11,2.44Z" transform="translate(-46.16 -332.33)"/><path class="cls-2" d="M487.67,443.21H491V445a5.94,5.94,0,0,1,2.09-1.62,5.79,5.79,0,0,1,2.44-.56,5.18,5.18,0,0,1,2.51.52,3.23,3.23,0,0,1,1.43,1.55,5.89,5.89,0,0,1,2.17-1.54,6.6,6.6,0,0,1,2.53-.53,4.55,4.55,0,0,1,3.61,1.26,5.53,5.53,0,0,1,1.09,3.69v8.89h-3.39v-8.42a3,3,0,0,0-.57-2,2.39,2.39,0,0,0-1.83-.61,3.71,3.71,0,0,0-1.64.35,3.66,3.66,0,0,0-1.36,1.19c0,.59.06,1.08.06,1.45v8.08H496.7v-8.47a3.23,3.23,0,0,0-.48-2,2.15,2.15,0,0,0-1.73-.57,4.22,4.22,0,0,0-3.41,2.15v8.92h-3.41Z" transform="translate(-46.16 -332.33)"/><path class="cls-2" d="M510.35,443.21h3.41v1.62a7.41,7.41,0,0,1,2.38-1.54,8.11,8.11,0,0,1,2.93-.5,7.44,7.44,0,0,1,3.65.88,6.35,6.35,0,0,1,2.52,2.49,8.08,8.08,0,0,1,0,7.45,6.45,6.45,0,0,1-2.52,2.53,7.24,7.24,0,0,1-3.65.91,9.4,9.4,0,0,1-2.89-.43,6.15,6.15,0,0,1-2.31-1.3v7.44h-3.52Zm11,9.84a4.27,4.27,0,0,0,1.23-3.16,4.19,4.19,0,0,0-1.23-3.13,4.31,4.31,0,0,0-3.13-1.2,4.62,4.62,0,0,0-2.69.81,4.33,4.33,0,0,0-1.65,2.18v2.71a4.2,4.2,0,0,0,1.64,2.2,4.61,4.61,0,0,0,2.7.82A4.25,4.25,0,0,0,521.34,453.05Z" transform="translate(-46.16 -332.33)"/><path class="cls-2" d="M529.72,456.2a6.36,6.36,0,0,1-2.76-2.46,7.24,7.24,0,0,1-1-3.82,7.11,7.11,0,0,1,1-3.76,6.46,6.46,0,0,1,2.75-2.49,10.15,10.15,0,0,1,8.27,0,6.58,6.58,0,0,1,2.75,2.49,7.12,7.12,0,0,1,1,3.76,7.24,7.24,0,0,1-1,3.82A6.39,6.39,0,0,1,538,456.2a10.43,10.43,0,0,1-8.25,0Zm7.2-3.13a4.42,4.42,0,0,0,1.14-3.15,4.36,4.36,0,0,0-1.13-3.2,4.7,4.7,0,0,0-6.18,0,5,5,0,0,0,0,6.35,4.53,4.53,0,0,0,6.16,0Z" transform="translate(-46.16 -332.33)"/></g></g><path class="cls-3" d="M127,419.34v-1.48c14.62,0,23.29-8.76,41.33-35l-25.14-37c-4.34-6.47-6.8-9-14.15-9v-1.48h53.93v1.48c-6.11,0-7.19,2.43-7.19,5.51,0,2.4,1.27,4.72,2.67,7l12.07,18c8-11.66,13.54-20,13.54-25.15,0-3.91-3-5.31-8.13-5.31v-1.48h30.89v1.48c-11.11,0-16.86,6.12-35.1,32.25l26.21,39c4.53,6.65,9.09,9.71,14.73,9.71v1.48H181v-1.48c4.65,0,6.32-1.74,6.32-4.63,0-1.93-1.43-4.55-3.39-7.35l-14.44-21.23c-10.32,15.2-13.18,20.05-13.18,24.38,0,5.15,4,8.83,11,8.83v1.48ZM518.5,369.62c.74-24.51,5.35-31.07,10.9-31.07s11.06,5.34,10.85,31.07Zm-31.07,6.43c0,35.35,36.5,53.17,68.08,37.67l-1-1c-20.69,6.9-35.31-8.31-35.31-36.68,0-1.31,0-2.57,0-3.8h50.54c0-24.74-14.26-39.92-39-39.92C507.34,332.34,487.43,352.13,487.43,376.05ZM338.27,344.41V343l38.58-9.1v13.36c8.56-6.3,17.67-13.3,27.41-13.3,10.35,0,17.21,4.83,19.77,13.95,8.81-6.45,18.21-13.95,28.29-13.95,13.36,0,20.9,8,20.88,23V408c0,7,1.49,8.33,6.46,8.33v1.44h-42v-1.44c4.47,0,6.13-2.12,6.13-7.36V352.69c0-10.1-10.38-8.79-19.19-2.32a36.33,36.33,0,0,1,.54,6.55V408c0,7,1.5,8.34,6.47,8.34v1.44h-42v-1.44c4.48,0,6.13-2.12,6.13-7.36v-56.3c0-10-10.12-8.82-18.86-2.55v60.32c0,4.58,2.82,5.89,6.46,5.89v1.44h-45v-1.44c6.13,0,9.11-4.4,9.11-11.11V353.93C347.38,347.57,341.15,344.41,338.27,344.41ZM266.79,398.8c0-10.68,4.68-21,20.09-24.52l.11,25.55c-.47,6.59-5.48,10.25-10.25,10.19-5.58-.07-9.95-3.57-9.95-11.22Zm-29.52,3.06c0,15.26,14.86,19,21.8,19,12.47,0,24.76-6.94,28.75-16.61,1.56,11.36,8.3,16.61,21.11,16.61,11.23,0,18.5-4.6,23.12-13.13L330.9,407c-6.11,5.25-14,1.31-14-9.36V358.52c0-19.73-25.31-29.9-48.32-21.88l.24,1.36c12.93.09,18.52,8.74,18.52,24l.05,10C250,376.47,237.27,386.39,237.27,401.86ZM78.79,369.62c.73-24.51,5.34-31.07,10.89-31.07s11.06,5.34,10.85,31.07ZM46.16,377.4c0,38.31,43.58,56.49,76.6,33.06l-1-1c-25.38,14.78-43.84.06-43.84-32.07q0-1.95,0-3.78h50.54c0-24.63-14.26-39.73-39-39.73C66.07,333.89,46.16,353.6,46.16,377.4ZM257.47,365a12.21,12.21,0,0,0,12.43-12.43A12.43,12.43,0,1,0,257.47,365ZM577.55,420.9A12.22,12.22,0,0,0,590,408.47a12.43,12.43,0,1,0-12.43,12.43Z" transform="translate(-46.16 -332.33)"/></svg>