<svg xmlns="http://www.w3.org/2000/svg" width="193.461" height="136.067" viewBox="0 0 193.461 136.067"><g transform="translate(-940.598 -5962.76)" opacity="0.3"><path d="M1047.29,5962.76h86.769v136.067H940.6V5962.76h104.121c-2.692,1.863-4.922,4.874-8.955,2.3-3.954-2.523-7.019-2.232-9.919,1.428a54.182,54.182,0,0,0-5.954,10.493c-1.215,2.55-1.855,5.372-2.953,8.676-1.189-1.581-1.952-2.711-2.832-3.742-2.492-2.92-4.728-6.155-7.618-8.619-5.69-4.851-12.818-2.846-15.646,4.1a18.346,18.346,0,0,0-1.213,4.614c-1.493,12.165,1.754,23.362,7.857,33.667a38.665,38.665,0,0,0,9.777,11.248c3.842,2.852,8.878,4.1,13.521,6.111a85.662,85.662,0,0,0-2.5-8.231c-.641-1.567-2.031-2.818-3.017-4.257-1.15-1.679-2.89-3.3-3.179-5.142-.418-2.666.113-5.517.5-8.253.118-.826,1.105-1.528,1.936-2.6l2.624,5,.9-.314c-.1-.736-.142-1.483-.3-2.2a53.413,53.413,0,0,1-1.37-6.174,2.729,2.729,0,0,1,1.658-2.111c3.386-.353,6.748-.643,9.812,1.712a20.053,20.053,0,0,0,14.745,4.322,45.572,45.572,0,0,0,10.674-3.074c3.842-1.469,5.12-.822,5.116,3.184,0,1.181.126,2.362.243,4.388l2.371-3.162c1.732,2.283,1.84,3.558-.952,4.775a86.353,86.353,0,0,0-13.056,6.779c-2.741,1.805-4.671,1.26-6.888-.327-.433-.309-.759-.81-1.226-1.02a10.085,10.085,0,0,0-1.907-.462c.191.715.157,1.669.615,2.1a43.463,43.463,0,0,0,3.938,3l-1.008-.7c-3.282,3.794-6.841,7.392-9.753,11.451a27.82,27.82,0,0,0-4.666,9.624c-1.106,4.824,1.891,7.477,6.726,6.276a119.58,119.58,0,0,0,12.428-4.2c1.88-.694,3.483-1.606,5.721-.695,1.025.417,2.857-.478,4.023-1.237a26.016,26.016,0,0,0,3.668-3.49c1.861,2.961,3.033,3.163,5.63.627,1.856-1.811,3.48-3.86,5.421-6.043.07.73.1,1.04.129,1.348q.259,2.362.521,4.726c1.745-.453,3.708-.553,5.173-1.457s2.505-2.587,3.641-4c.753-.934,1.35-1.993,1.969-2.924.532.245.694.275.7.33a14.038,14.038,0,0,1,.2,1.564c.211,4.446,1.422,5.1,5.329,2.846.922-.531,1.884-1.626,2.736-1.541,5.978.595,8.995-3.731,12.465-7.261.6-.611.685-1.728,1.008-2.611l1.162,1.178c.532,7.049,1.841,7.8,7.81,4.471,2.857,2.682,5.15,2.925,7.983-.1,2.954-3.152,5.936-5.977,10.2-7.157a3.124,3.124,0,0,0,1.586-1.046,7.7,7.7,0,0,0,.585-2.3l-5.572,2.476c-1.567-2.2-2.368-4.376-3.907-5.237-2.4-1.341-4.864-.07-6.544,1.947a57.614,57.614,0,0,0-3.718,5.579,40.735,40.735,0,0,1-2.821,4.252c-.536.632-1.612.806-2.443,1.188-.3-.848-.96-1.764-.817-2.529a20.868,20.868,0,0,1,1.517-3.695c.183-.453.437-1.087.255-1.417a1.432,1.432,0,0,0-1.305-.509,37.51,37.51,0,0,0-6.421,4.083c-2.5,2.244-4.619,4.9-7.817,6.1.854-1.99,2.018-3.651,2.85-5.464a2.8,2.8,0,0,0-.245-2.575,3.467,3.467,0,0,0-2.854-.606,6.281,6.281,0,0,0-4.459,6.691c.145,3.1-1.539,4.041-4.771,4.409l2.165-5.854c-2.166-.742-6.463.907-7.683,2.913-1.593,2.619-3.051,5.488-6.831,5.969a28.686,28.686,0,0,1,2.974-5.665,9.031,9.031,0,0,0,.643-2.122,10.381,10.381,0,0,0-2.292.158,13.113,13.113,0,0,0-2.461,1.165,11.242,11.242,0,0,0-3.092,1.829c-1.812,1.995-3.383,4.208-5.052,6.332l-.889-.481c.553-2.578,1.106-5.155,1.675-7.811-7.156-1.372-10.6,2.869-13.717,7.661-.514.788-.792,2.083-1.484,2.347-5.466,2.088-10.963,4.119-16.544,5.867a2.441,2.441,0,0,1-3.209-2.892c.389-2.451.907-5.309,2.436-7.068a184.774,184.774,0,0,1,13.1-13.09c.7-.66,2.15-.662,3.267-.721,2.873-.152,5.919.408,8.6-.361a72.312,72.312,0,0,0,13.551-5.374c2.627-1.375,2.8-4.947.7-5.409-3.936-.867-6.084-3.235-7.981-6.3-.144-.234-.668-.235-.811-.469-.306-.5-.807-1.264-.628-1.591a2.9,2.9,0,0,1,1.633-1.011,5.71,5.71,0,0,1,1.667-.033l.25-1.041-5.252-1.26c4.6-6.813,9.048-13.658,13.8-20.288,1.188-1.657,3.349-2.619,5.062-3.9q1.984,2.745,3.964,5.492a.946.946,0,0,1,.085.307c3.552,14-1.925,33.451-17.115,41a14.541,14.541,0,0,0-2.206,1.675l.435.744a14.462,14.462,0,0,0,2.253-.674c18.13-8.717,22.741-32.359,17.5-45.675-2.3-5.846-6.845-6.4-10.612-1.252-3.151,4.309-5.864,8.934-8.837,13.375a47.137,47.137,0,0,1-3.09,3.685c-1.8-6.616-3.336-12.579-5.051-18.491C1053.39,5970.3,1051.5,5965.81,1047.29,5962.76Zm-46.335,86.208-.976-.736c2.64-4.49,3.2-10.287,8.844-12.819l-2.013-3.534-9.022,7.684h3.472c-3.977,7.966-9.9,13-13.3,11.331a54.722,54.722,0,0,0,3.939-6.084c.439-.9-.157-2.3-.283-3.471-1.381.162-3.33-.179-4.018.6a11.143,11.143,0,0,0-2.248,5.117c-.735,3.739-3.337,5.956-7.54,5.7,3.041-2.7,4.671-5.593,1.5-9.036,2.9-3.693,6.526-7.156,4.16-12.114-2.037-4.267-6.314-2.33-9.911-2.469V6025c-1.015,1.2-1.729,1.652-1.825,2.214-.467,2.756-2.3,4.318-4.349,5.992-5.4,4.414-10.065,9.856-11.576,16.575s-4.627,10.384-11.314,11.381c-1.233.184-2.339,1.21-3.5,1.847l.6,1.308c1.709-.58,3.41-1.186,5.13-1.735,1.9-.608,3.819-1.165,5.856-1.782,0,3.626-.157,6.919.091,10.18a3.979,3.979,0,0,0,1.958,2.848c.569.256,2.228-.813,2.716-1.672a103.807,103.807,0,0,0,5.007-9.993c1.069-2.475,1.71-4.909,5.087-5.361,2.6-.349,5.313-2.468,7.583-1.979,3.552.766,6.252-.087,9.127-1.646.637-.344,1.826-.669,2.194-.35,2.463,2.13,4.706.908,6.75-.441a67.671,67.671,0,0,0,5.761-4.738l.686,3.737c1.254-.535,2.248-.869,3.152-1.368a30.512,30.512,0,0,0,2.559-1.749c2.646,3.411,4.788,3.9,7.817,1.134,1.988-1.812,3.336-4.332,4.928-6.565.955-1.339,1.7-2.843,2.767-4.082,1.51-1.76,3.225-3.345,4.852-5l-1.11-1.2-5.9,4.949c-4.59-3.18-7.334-2.639-10.329,2.028-.981,1.529-1.737,3.222-2.852,4.638C1004.077,6045.881,1002.457,6047.378,1000.955,6048.968Zm74.8,28.112c-1.611-3.565-3.429-6.321-4.1-9.331-1.341-6.052-4.839-9.782-10.5-11.857a6.764,6.764,0,0,1-2.88-1.825c-4.8-5.911-7.124-6.072-12.749-.877-1.041.962-2.393,2.089-3.681,2.2-6.578.56-12.591-.685-16.842-6.414a20.426,20.426,0,0,0-2.327-2.151c-.176,2.055-.393,3.478-.4,4.9-.038,5.743,1.26,11.406-.969,17.223-1.519,3.965.067,5.229,4.592,5.286,4.347.054,8.7.011,12.358.011,2.923,7.715,5.848,15.435,9.039,23.86,6.024-8.595,7.813-17.449,7.263-27.567C1061.381,6075.2,1067.911,6078.432,1075.758,6077.08Z" fill="#fff"/><path d="M1047.29,5962.76c4.207,3.05,6.1,7.541,7.475,12.279,1.715,5.912,3.253,11.875,5.051,18.491a47.137,47.137,0,0,0,3.09-3.685c2.973-4.441,5.686-9.066,8.837-13.375,3.767-5.151,8.312-4.594,10.612,1.252,5.238,13.316.627,36.958-17.5,45.675a14.462,14.462,0,0,1-2.253.674l-.435-.744a14.541,14.541,0,0,1,2.206-1.675c15.19-7.554,20.667-27,17.115-41a.946.946,0,0,0-.085-.307q-1.976-2.751-3.964-5.492c-1.713,1.282-3.874,2.244-5.062,3.9-4.755,6.63-9.207,13.475-13.8,20.288l5.252,1.26-.25,1.041a5.71,5.71,0,0,0-1.667.033,2.9,2.9,0,0,0-1.633,1.011c-.179.327.322,1.09.628,1.591.143.234.667.235.811.469,1.9,3.066,4.045,5.434,7.981,6.3,2.095.462,1.926,4.034-.7,5.409a72.312,72.312,0,0,1-13.551,5.374c-2.677.769-5.723.209-8.6.361-1.117.059-2.566.061-3.267.721a184.774,184.774,0,0,0-13.1,13.09c-1.529,1.759-2.047,4.617-2.436,7.068a2.441,2.441,0,0,0,3.209,2.892c5.581-1.748,11.078-3.779,16.544-5.867.692-.264.97-1.559,1.484-2.347,3.118-4.792,6.561-9.033,13.717-7.661-.569,2.656-1.122,5.233-1.675,7.811l.889.481c1.669-2.124,3.24-4.337,5.052-6.332a11.242,11.242,0,0,1,3.092-1.829,13.113,13.113,0,0,1,2.461-1.165,10.381,10.381,0,0,1,2.292-.158,9.031,9.031,0,0,1-.643,2.122,28.686,28.686,0,0,0-2.974,5.665c3.78-.481,5.238-3.35,6.831-5.969,1.22-2.006,5.517-3.655,7.683-2.913l-2.165,5.854c3.232-.368,4.916-1.314,4.771-4.409a6.281,6.281,0,0,1,4.459-6.691,3.467,3.467,0,0,1,2.854.606,2.8,2.8,0,0,1,.245,2.575c-.832,1.813-2,3.474-2.85,5.464,3.2-1.2,5.319-3.858,7.817-6.1a37.51,37.51,0,0,1,6.421-4.083,1.432,1.432,0,0,1,1.305.509c.182.33-.072.964-.255,1.417a20.868,20.868,0,0,0-1.517,3.695c-.143.765.518,1.681.817,2.529.831-.382,1.907-.556,2.443-1.188a40.735,40.735,0,0,0,2.821-4.252,57.614,57.614,0,0,1,3.718-5.579c1.68-2.017,4.147-3.288,6.544-1.947,1.539.861,2.34,3.038,3.907,5.237l5.572-2.476a7.7,7.7,0,0,1-.585,2.3,3.124,3.124,0,0,1-1.586,1.046c-4.269,1.18-7.251,4-10.2,7.157-2.833,3.023-5.126,2.78-7.983.1-5.969,3.327-7.278,2.578-7.81-4.471l-1.162-1.178c-.323.883-.407,2-1.008,2.611-3.47,3.53-6.487,7.856-12.465,7.261-.852-.085-1.814,1.01-2.736,1.541-3.907,2.251-5.118,1.6-5.329-2.846a14.038,14.038,0,0,0-.2-1.564c-.009-.055-.171-.085-.7-.33-.619.931-1.216,1.99-1.969,2.924-1.136,1.411-2.164,3.086-3.641,4s-3.428,1-5.173,1.457q-.261-2.364-.521-4.726c-.033-.308-.059-.618-.129-1.348-1.941,2.183-3.565,4.232-5.421,6.043-2.6,2.536-3.769,2.334-5.63-.627a26.016,26.016,0,0,1-3.668,3.49c-1.166.759-3,1.654-4.023,1.237-2.238-.911-3.841,0-5.721.695a119.58,119.58,0,0,1-12.428,4.2c-4.835,1.2-7.832-1.452-6.726-6.276a27.82,27.82,0,0,1,4.666-9.624c2.912-4.059,6.471-7.657,9.753-11.451l1.008.7a43.463,43.463,0,0,1-3.938-3c-.458-.43-.424-1.384-.615-2.1a10.085,10.085,0,0,1,1.907.462c.467.21.793.711,1.226,1.02,2.217,1.587,4.147,2.132,6.888.327a86.353,86.353,0,0,1,13.056-6.779c2.792-1.217,2.684-2.492.952-4.775l-2.371,3.162c-.117-2.026-.243-3.207-.243-4.388,0-4.006-1.274-4.653-5.116-3.184a45.572,45.572,0,0,1-10.674,3.074,20.053,20.053,0,0,1-14.745-4.322c-3.064-2.355-6.426-2.065-9.812-1.712a2.729,2.729,0,0,0-1.658,2.111,53.413,53.413,0,0,0,1.37,6.174c.163.721.207,1.468.3,2.2l-.9.314-2.624-5c-.831,1.072-1.818,1.774-1.936,2.6-.389,2.736-.92,5.587-.5,8.253.289,1.837,2.029,3.463,3.179,5.142.986,1.439,2.376,2.69,3.017,4.257a85.662,85.662,0,0,1,2.5,8.231c-4.643-2.009-9.679-3.259-13.521-6.111a38.665,38.665,0,0,1-9.777-11.248c-6.1-10.305-9.35-21.5-7.857-33.667a18.346,18.346,0,0,1,1.213-4.614c2.828-6.95,9.956-8.955,15.646-4.1,2.89,2.464,5.126,5.7,7.618,8.619.88,1.031,1.643,2.161,2.832,3.742,1.1-3.3,1.738-6.126,2.953-8.676a54.182,54.182,0,0,1,5.954-10.493c2.9-3.66,5.965-3.951,9.919-1.428,4.033,2.574,6.263-.437,8.955-2.3Zm-24.822,33.49c-5.036-6.669-9.9-13.135-14.806-19.575a10.421,10.421,0,0,0-1.859-1.76c-5.237-4.158-10.963-2.677-13.378,3.57a19.31,19.31,0,0,0-1.214,5.579c-.755,11.123,2.232,21.43,7.909,30.819a49.91,49.91,0,0,0,9.606,10.973c2.008,1.795,5.171,2.3,8.31,3.592-.024-3.844-.705-6.018-3.229-7.833a9.844,9.844,0,0,1-3.424-5.3,15.82,15.82,0,0,1,.067-7.3c.512-2.09,2.117-3.9,3.159-5.877a31.607,31.607,0,0,0,1.242-3.191c-1.244,0-1.759.039-2.265-.01-.531-.051-1.053-.186-1.578-.284l-.134-1.191Zm34.6-7.64c-2.332-6.87-4.26-13.5-6.857-19.865-1.758-4.308-3.883-4.629-7.78-2.056a6.131,6.131,0,0,1-6.634.429c-5.125-2.563-7.765-2.227-10.43,2.86a109.422,109.422,0,0,0-6.478,16.6c-.917,2.778,1.553,4.659,4.471,4.326q11.581-1.321,23.208-2.248C1049.717,5988.4,1052.9,5988.61,1057.072,5988.61Zm-31.889,6.8c8.407,9.791,24.325,9.971,31.962,1.066.42-.489.866-1.661.673-1.838a4,4,0,0,0-2.35-1.176c-6.4-.079-12.8-.23-19.186.07C1032.749,5993.7,1029.255,5994.692,1025.183,5995.411Zm23.037,23.06.511,1.49a31.49,31.49,0,0,0,17.569-4.406c.991-.6,1.474-2.041,2.191-3.093-1.291-.252-2.787-1.055-3.839-.664C1059.113,6013.856,1053.686,6016.216,1048.22,6018.471Zm68.39,3.417c-1.255,2.211-3.748,4.694-1.2,6.675,2.2,1.711,3.971-1.291,5.58-2.828a5.374,5.374,0,0,0,.793-1.492Zm-65.845,18.519c3.4.007,7.658-4.7,8.1-8.679C1055.213,6032.662,1051.763,6036.28,1050.765,6040.407Zm-27.428-46.913,26.775-2.943C1040.426,5989.868,1031.749,5990.336,1023.337,5993.494Zm94.742,26.5c1.9.838,3.269,2.906,5.4,1.195.451-.363.225-2.641-.346-3C1121.216,6016.982,1119.571,6017.865,1118.079,6020Z"/><path d="M1000.955,6048.968c1.5-1.59,3.122-3.087,4.469-4.8,1.115-1.416,1.871-3.109,2.852-4.638,2.995-4.667,5.739-5.208,10.329-2.028l5.9-4.949,1.11,1.2c-1.627,1.66-3.342,3.245-4.852,5-1.064,1.239-1.812,2.743-2.767,4.082-1.592,2.233-2.94,4.753-4.928,6.565-3.029,2.762-5.171,2.277-7.817-1.134a30.512,30.512,0,0,1-2.559,1.749c-.9.5-1.9.833-3.152,1.368l-.686-3.737a67.671,67.671,0,0,1-5.761,4.738c-2.044,1.349-4.287,2.571-6.75.441-.368-.319-1.557.006-2.194.35-2.875,1.559-5.575,2.412-9.127,1.646-2.27-.489-4.986,1.63-7.583,1.979-3.377.452-4.018,2.886-5.087,5.361a103.807,103.807,0,0,1-5.007,9.993c-.488.859-2.147,1.928-2.716,1.672a3.979,3.979,0,0,1-1.958-2.848c-.248-3.261-.091-6.554-.091-10.18-2.037.617-3.955,1.174-5.856,1.782-1.72.549-3.421,1.155-5.13,1.735l-.6-1.308c1.165-.637,2.271-1.663,3.5-1.847,6.687-1,9.8-4.669,11.314-11.381s6.174-12.161,11.576-16.575c2.047-1.674,3.882-3.236,4.349-5.992.1-.562.81-1.019,1.825-2.214v4.126c3.6.139,7.874-1.8,9.911,2.469,2.366,4.958-1.259,8.421-4.16,12.114,3.17,3.443,1.54,6.334-1.5,9.036,4.2.258,6.8-1.959,7.54-5.7a11.143,11.143,0,0,1,2.248-5.117c.688-.775,2.637-.434,4.018-.6.126,1.173.722,2.574.283,3.471a54.722,54.722,0,0,1-3.939,6.084c3.4,1.666,9.324-3.365,13.3-11.331h-3.472l9.022-7.684,2.013,3.534c-5.642,2.532-6.2,8.329-8.844,12.819Zm-31.11-8.595c2.784.672,5.158,1.766,7.477,1.659,2.336-.107,5.24-6.455,4.533-8.856-.665-2.258-3.513-3.035-7.254-1.628a5.662,5.662,0,0,0-2.739,2.671A46.286,46.286,0,0,0,969.845,6040.373Zm-4.578,15.057c3.219-1.15,5.887-1.922,8.388-3.061a13.742,13.742,0,0,0,4.348-3.112c.559-.61.187-2.069.237-3.144a11.225,11.225,0,0,0-2.8.164c-1.515.475-2.921,1.65-4.423,1.747C966.608,6048.307,966,6051.365,965.267,6055.43Zm-9.764,1.8c6.856-.388,8.033-1.547,8.91-8.128l-5.372-2.449Zm6,2.182-.853-1.031c-1.809.835-4.81,1.309-5.2,2.576-.968,3.182-.754,6.722-1.013,10.118l1.506.391Q958.725,6065.443,961.5,6059.416Zm54.3-17.43c-1.383.069-2.527.148-3.674.179-3.02.083-4.437,1.649-4.3,4.718.086,1.944,1.161,2.538,2.722,1.672A10.122,10.122,0,0,0,1015.8,6041.986Zm-53.077-1.02c5.356-.649,5.553-.866,6.058-6.37Zm5.608,5.737,6.7-2.449C969.457,6042.04,968.961,6042.232,968.331,6046.7Zm-6.79-2.349,0,1.293c1.237.253,2.641.971,3.654.606.74-.267.964-1.959,1.419-3.016l-.641-.571Z"/><path d="M1075.758,6077.08c-7.847,1.352-14.377-1.883-21.2-6.54.55,10.118-1.239,18.972-7.263,27.567-3.191-8.425-6.116-16.145-9.039-23.86-3.663,0-8.011.043-12.358-.011-4.525-.057-6.111-1.321-4.592-5.286,2.229-5.817.931-11.48.969-17.223.01-1.425.227-2.848.4-4.9a20.426,20.426,0,0,1,2.327,2.151c4.251,5.729,10.264,6.974,16.842,6.414,1.288-.11,2.64-1.237,3.681-2.2,5.625-5.195,7.953-5.034,12.749.877a6.764,6.764,0,0,0,2.88,1.825c5.661,2.075,9.159,5.8,10.5,11.857C1072.329,6070.759,1074.147,6073.515,1075.758,6077.08Zm-31.891-18.742-.125-.835c-7.042.115-13.891-.417-19.617-6.41-.528,7.971,1.118,13.978,8.359,17.528l-1.115,1.033-7.142-4.485c-.328.928-.72,1.871-1,2.848-1.083,3.827-.746,4.5,3.082,4.515s7.667-.354,11.492-.674a3.145,3.145,0,0,0,2.231-1.04c1.906-3.369,3.622-6.845,5.862-11.172l-12.16,4.373-.471-1.064c1.686-.849,3.339-1.776,5.068-2.528C1040.141,6059.643,1042.02,6059.027,1043.867,6058.338Zm4.244,34.468c5.375-7.98,6.327-22.543,1.345-28.141.27,2.415.53,4.129.624,5.852a6.708,6.708,0,0,1-.38,2.479,23.753,23.753,0,0,0-1.254,2.74,18.78,18.78,0,0,0-.053,3.553l-1.08.119a21.872,21.872,0,0,1-.642-8.6c.287-2.93.767-5.841,1.227-9.247C1039.352,6070.7,1039.5,6080.294,1048.111,6092.806Zm8.185-35.222c3.3,2.978,7.921,3.065,8.422,7.736l-4.408-3.289-.8,2.938-4.182-5.554c-3.287,6.225-3.33,6.808,1.008,9.817a56.948,56.948,0,0,0,9.81,5.283c1.811.785,4,.7,6.185,1.038a81.626,81.626,0,0,0-2.988-8.674,21.964,21.964,0,0,0-4.45-6.761A8.835,8.835,0,0,0,1056.3,6057.584Zm-4.108-1.327,3.978-.237c-.569-1.219-.842-2.772-1.766-3.59-2.423-2.146-4.948-1.2-6.956,2.135l4.744,4.5Z"/><path d="M1022.468,5996.25l-11.594,2.208.134,1.191c.525.1,1.047.233,1.578.284.506.049,1.021.01,2.265.01a31.607,31.607,0,0,1-1.242,3.191c-1.042,1.976-2.647,3.787-3.159,5.877a15.82,15.82,0,0,0-.067,7.3,9.844,9.844,0,0,0,3.424,5.3c2.524,1.815,3.205,3.989,3.229,7.833-3.139-1.291-6.3-1.8-8.31-3.592a49.91,49.91,0,0,1-9.606-10.973c-5.677-9.389-8.664-19.7-7.909-30.819a19.31,19.31,0,0,1,1.214-5.579c2.415-6.247,8.141-7.728,13.378-3.57a10.421,10.421,0,0,1,1.859,1.76C1012.565,5983.115,1017.432,5989.581,1022.468,5996.25Z" fill="#fff"/><path d="M1057.072,5988.61c-4.174,0-7.355-.211-10.5.041q-11.621.932-23.208,2.248c-2.918.333-5.388-1.548-4.471-4.326a109.422,109.422,0,0,1,6.478-16.6c2.665-5.087,5.305-5.423,10.43-2.86a6.131,6.131,0,0,0,6.634-.429c3.9-2.573,6.022-2.252,7.78,2.056C1052.812,5975.106,1054.74,5981.74,1057.072,5988.61Z" fill="#fff"/><path d="M1025.183,5995.411c4.072-.719,7.566-1.711,11.1-1.878,6.384-.3,12.791-.149,19.186-.07a4,4,0,0,1,2.35,1.176c.193.177-.253,1.349-.673,1.838C1049.508,6005.382,1033.59,6005.2,1025.183,5995.411Z" fill="#fff"/><path d="M1048.22,6018.471c5.466-2.255,10.893-4.615,16.432-6.673,1.052-.391,2.548.412,3.839.664-.717,1.052-1.2,2.489-2.191,3.093a31.49,31.49,0,0,1-17.569,4.406Z" fill="#fff"/><path d="M1116.61,6021.888l5.177,2.355a5.374,5.374,0,0,1-.793,1.492c-1.609,1.537-3.376,4.539-5.58,2.828C1112.862,6026.582,1115.355,6024.1,1116.61,6021.888Z" fill="#fff"/><path d="M1050.765,6040.407c1-4.127,4.448-7.745,8.1-8.679C1058.423,6035.705,1054.163,6040.414,1050.765,6040.407Z" fill="#fff"/><path d="M1023.337,5993.494c8.412-3.158,17.089-3.626,26.775-2.943Z" fill="#fff"/><path d="M1118.079,6020c1.492-2.133,3.137-3.016,5.053-1.806.571.36.8,2.638.346,3C1121.348,6022.9,1119.974,6020.836,1118.079,6020Z" fill="#fff"/><path d="M969.845,6040.373a46.286,46.286,0,0,1,2.017-6.154,5.662,5.662,0,0,1,2.739-2.671c3.741-1.407,6.589-.63,7.254,1.628.707,2.4-2.2,8.749-4.533,8.856C975,6042.139,972.629,6041.045,969.845,6040.373Z" fill="#fff"/><path d="M965.267,6055.43c.732-4.065,1.341-7.123,5.754-7.406,1.5-.1,2.908-1.272,4.423-1.747a11.225,11.225,0,0,1,2.8-.164c-.05,1.075.322,2.534-.237,3.144a13.742,13.742,0,0,1-4.348,3.112C971.154,6053.508,968.486,6054.28,965.267,6055.43Z" fill="#fff"/><path d="M955.5,6057.234l3.538-10.577,5.372,2.449C963.536,6055.687,962.359,6056.846,955.5,6057.234Z" fill="#fff"/><path d="M961.5,6059.416q-2.778,6.027-5.555,12.054l-1.506-.391c.259-3.4.045-6.936,1.013-10.118.385-1.267,3.386-1.741,5.2-2.576Z" fill="#fff"/><path d="M1015.8,6041.986a10.122,10.122,0,0,1-5.252,6.569c-1.561.866-2.636.272-2.722-1.672-.137-3.069,1.28-4.635,4.3-4.718C1013.273,6042.134,1014.417,6042.055,1015.8,6041.986Z" fill="#fff"/><path d="M962.723,6040.966l6.058-6.37C968.276,6040.1,968.079,6040.317,962.723,6040.966Z" fill="#fff"/><path d="M968.331,6046.7c.63-4.471,1.126-4.663,6.7-2.449Z" fill="#fff"/><path d="M961.541,6044.354l4.429-1.688.641.571c-.455,1.057-.679,2.749-1.419,3.016-1.013.365-2.417-.353-3.654-.606Z" fill="#fff"/><path d="M1043.867,6058.338c-1.847.689-3.726,1.305-5.532,2.089-1.729.752-3.382,1.679-5.068,2.528l.471,1.064,12.16-4.373c-2.24,4.327-3.956,7.8-5.862,11.172a3.145,3.145,0,0,1-2.231,1.04c-3.825.32-7.661.69-11.492.674s-4.165-.688-3.082-4.515c.276-.977.668-1.92,1-2.848l7.142,4.485,1.115-1.033c-7.241-3.55-8.887-9.557-8.359-17.528,5.726,5.993,12.575,6.525,19.617,6.41Z" fill="#fff"/><path d="M1048.111,6092.806c-8.609-12.512-8.759-22.11-.213-31.247-.46,3.406-.94,6.317-1.227,9.247a21.872,21.872,0,0,0,.642,8.6l1.08-.119a18.78,18.78,0,0,1,.053-3.553,23.753,23.753,0,0,1,1.254-2.74,6.708,6.708,0,0,0,.38-2.479c-.094-1.723-.354-3.437-.624-5.852C1054.438,6070.263,1053.486,6084.826,1048.111,6092.806Z" fill="#fff"/><path d="M1056.3,6057.584a8.835,8.835,0,0,1,8.595,2.534,21.964,21.964,0,0,1,4.45,6.761,81.626,81.626,0,0,1,2.988,8.674c-2.186-.335-4.374-.253-6.185-1.038a56.948,56.948,0,0,1-9.81-5.283c-4.338-3.009-4.3-3.592-1.008-9.817l4.182,5.554.8-2.938,4.408,3.289C1064.217,6060.649,1059.6,6060.562,1056.3,6057.584Z" fill="#fff"/><path d="M1052.188,6056.257v2.81l-4.744-4.5c2.008-3.33,4.533-4.281,6.956-2.135.924.818,1.2,2.371,1.766,3.59Z" fill="#fff"/></g></svg>