<svg xmlns="http://www.w3.org/2000/svg" width="166.686" height="164.765" viewBox="0 0 166.686 164.765"><g transform="translate(-1688.367 -5948.412)" opacity="0.3"><path d="M1855.053,6113.177H1688.367V5948.412h166.686Zm-119.791-77-4.73-.546v14.954h3.778V6045.4c1.975-.488,3.873-.629,5.437-1.417a4.79,4.79,0,0,0,1.485-7.215c-1.718-2.093-3.821-3.072-6.074-.5Zm76.2,9.1h-14.489a8.293,8.293,0,0,1,3.473-.962,25.3,25.3,0,0,1,4.136.7c-2.552-2.691-3.2-10.689-1.42-16.7,1.291.8,3.281,1.405,3.363,2.2.234,2.287-.3,4.651-.532,6.931-.246.03.251.017.725-.1,2.931-.693,5.064-2.09,4.575-5.517-.461-3.234-2.981-3.5-5.546-3.541-2.916-.048-5.834-.011-8.962-.011,2.142,3.779,1.9,13.5-.1,15.67l-7.812-10.848.1.1-6.3-9.893c7.305.627,7.724.389,7.97-4.035l-.084.115c1.073-5.97,6.688-5.923,10.887-7.877l-4.595,10.525c.676.212.931.389,1.123.337,2.372-.646,4.74-1.307,7.1-2,5.126-1.5,5.64-1.436,8.159,3.288,1.794,3.365,3.285,6.824,7.972,7.8-.408-18.3-7.958-32.712-23.767-42-17.549-10.313-35.588-9.888-52.709,1.171-13.728,8.867-20.779,21.867-21.762,38.517,4.939-1.034,9-2.185,10.647-7.039a14.64,14.64,0,0,1,2.02-3.478c1.186-1.707,2.508-2.405,4.577-.95,2.4,1.688,5.043,3.039,7.58,4.537l.544-.7-4.905-10.942,12.014,5.814-3.55-12.812,8.456,5.623c-3,1.625-3,1.625-1.108,6.178-5.053,5.462-2.511,12.237,4.647,18.7-.614.8-1.243,1.623-1.89,2.43l-4.574-.949v9.066h3.057l1.432-8.189c1.836-.755,2.939-.118,3.048,1.8.122,2.141.028,4.293.028,6.463h3.576c-.1-1.832-.186-3.541-.326-6.226l5.029,6.474c-12.86,2.307-25.6-.751-38.039,1.106l.048,1.5h41.9l-.015.972h-41.813l2.081,3.031h-9.308l1.224-2.919-2.877.139c6.588,19.317,28.779,32.718,50.34,30.61,18.29-1.788,38.8-17.373,40.322-31.16h-21.331l.03-1.1h22.581l.02-1.151c-1.011-.062-2.029-.074-3.033-.2-1.359-.168-2.708-.422-4.065-.645l9.245-.64a32.1,32.1,0,0,0-.574-5.082c-.336-1.267-1.112-3.243-1.956-3.387-1.76-.3-3.7.4-5.545.767-.033.007.146,1.048.206,1.463,1.367-.765,2.447-1.412,3.593-1.91.072-.031,1.088,1.46.938,1.636a18.861,18.861,0,0,1-2.684,2.336,1.646,1.646,0,0,1-.683.26C1811.094,6041.156,1810.186,6042.664,1811.462,6045.276Zm-90.928-12.239c.45-2.981.908-5.173,1.094-7.387,2.388-28.434,31.757-49.81,59.976-43.987,25.519,5.266,41.531,27.427,41,49.124-.067,2.687,1.019,4.026,3.783,3.975,2.2-13.429-3.987-35.641-23.535-48.722-18.139-12.139-42.385-12.6-60.666-.557-17.337,11.425-25.379,27.755-24.962,48.766Zm103.053,15.863c-2.684-1.026-4.139-.113-5.41,2.489-9.262,18.961-24.575,29.362-45.93,29.457-21.54.095-36.948-10.389-46.355-29.4-1.3-2.626-2.649-3.532-5.336-2.559,4.81,19.469,27.668,35.952,50.359,36.336C1794.708,6085.621,1817.475,6069.926,1823.587,6048.9Zm-105.488-4.7c-2.147-5.324-4.12-10.385-6.268-15.372a3.413,3.413,0,0,0-2.254-1.79,3.062,3.062,0,0,0-2.567,1.185c-2.507,5.248-4.812,10.59-7.218,15.991l2.993-.172c.47-2.88.238-5.774,4.715-5.943,4.96-.187,4.551,3.159,5.138,6.1Zm36.155-5.446c-1.426-3.587-3.825-4.647-6.76-3.414a5.257,5.257,0,0,0-3.069,6.563c1.2,3.093,4.373,3.921,9.124,2.087-3.685.2-6.162-.588-5.855-4.744Zm83.029,6.03v-13.749l-3.107.436v13.313Zm-114.072-14.342v13.823l2.947-.233v-14.241Zm104.609,14.308c-.106-1.9-.161-3.788-.326-5.666-.229-2.624-.69-2.885-3.111-2.236v7.9Zm10.265-5.381c1.908,2.593,2.467,6.026,6.454,5.706-.348-3.2-5.989-4.809-2.151-9.03Z" fill="#fff"/><path d="M1762.019,6036.531l1.873-2.444c-7.158-6.467-9.7-13.242-4.647-18.7-1.89-4.553-1.89-4.553,1.108-6.178l-8.456-5.623,3.55,12.812-12.014-5.814,4.905,10.942-.544.7c-2.537-1.5-5.18-2.849-7.58-4.537-2.069-1.455-3.391-.757-4.577.95a14.64,14.64,0,0,0-2.02,3.478c-1.646,4.854-5.708,6-10.647,7.039.983-16.65,8.034-29.65,21.762-38.517,17.121-11.059,35.16-11.484,52.709-1.171,15.809,9.291,23.359,23.707,23.767,42-4.687-.973-6.178-4.432-7.972-7.8-2.519-4.724-3.033-4.79-8.159-3.288-2.359.692-4.727,1.353-7.1,2-.192.052-.447-.125-1.123-.337l4.595-10.525c-4.2,1.954-9.814,1.907-10.888,7.88q-.855-3.691-1.707-7.388c.811-.291,2.129-.381,2.346-.911.894-2.18,1.453-4.493,2.181-6.909-4.431.969-5.585,3.664-4.9,7.478-1.867.716-4.51,2.081-5.242-.406-.853-2.9-2.468-2.27-4.262-2.15-2,.135-3.992.379-6.96.672.833,3.125,1.02,6.844,2.761,9.606,2.271,3.6,5.655,3.742,10.249,1.854.961,2.225,2.255,2.842,3.99.781a18.625,18.625,0,0,0,1.627-2.75c-.247,4.429-.666,4.667-7.971,4.04,2.259,3.548,4.279,6.721,6.306,9.9-3.726,1.536-.8-3.737-3.617-3.278v7.564c2.067-1.159,4.482-1.352,3.512-4.394l7.812,10.848c2-2.166,2.237-11.891.1-15.67,3.128,0,6.046-.037,8.962.011,2.565.042,5.085.307,5.546,3.541.489,3.427-1.644,4.824-4.575,5.517-.474.112-.971.125-.725.1.229-2.28.766-4.644.532-6.931-.082-.8-2.072-1.4-3.363-2.2-1.784,6.011-1.132,14.009,1.42,16.7a25.3,25.3,0,0,0-4.136-.7,8.293,8.293,0,0,0-3.473.962h14.489l-.117-.124c1.353.217,2.7.471,4.061.639,1,.125,2.022.137,3.033.2l-.02,1.151h-22.581l-.03,1.1h21.331c-1.523,13.787-22.032,29.372-40.322,31.16-21.561,2.108-43.752-11.293-50.34-30.61l2.877-.139-1.224,2.919h9.308l-2.081-3.031h41.813l.015-.972h-41.9l-.048-1.5c12.44-1.857,25.179,1.2,38.039-1.106l-5.029-6.474c.14,2.685.23,4.394.326,6.226h-3.576c0-2.17.094-4.322-.028-6.463-.109-1.917-1.212-2.554-3.048-1.8Zm1.629,18.437-1.483-.165-.687,3.107-1.578-2.721a32.532,32.532,0,0,1-4.672,3.325c-.27.135-1.522-1.651-2.32-2.55-.015,1.122.4,3.114.968,3.155,1.944.14,3.938-.4,6.275-.733l2.348.8Zm14.2-13.882c-1.785-1.569-3.181-2.8-4.584-4.027a31.019,31.019,0,0,0-2.692-2.217c-.1-.069-1.192.8-1.125,1.035a8.3,8.3,0,0,0,1.5,3.55,31.423,31.423,0,0,0,4.709,3.325Zm6.536,17.736,1.3.741c.62-1.156,1.549-2.272,1.711-3.488.065-.491-1.547-1.2-3.01-2.252Z"/><path d="M1720.534,6033.037l-3.313,1.212c-.417-21.011,7.625-37.341,24.962-48.766,18.281-12.047,42.527-11.582,60.666.557,19.548,13.081,25.731,35.293,23.535,48.722-2.764.051-3.85-1.288-3.783-3.975.534-21.7-15.478-43.858-41-49.124-28.219-5.823-57.588,15.553-59.976,43.987C1721.442,6027.864,1720.984,6030.056,1720.534,6033.037Z"/><path d="M1823.587,6048.9c-6.112,21.026-28.879,36.721-52.672,36.319-22.691-.384-45.549-16.867-50.359-36.336,2.687-.973,4.038-.067,5.336,2.559,9.407,19.015,24.815,29.5,46.355,29.4,21.355-.1,36.668-10.5,45.93-29.457C1819.448,6048.787,1820.9,6047.874,1823.587,6048.9Z"/><path d="M1718.1,6044.2h-5.461c-.587-2.942-.178-6.288-5.138-6.1-4.477.169-4.245,3.063-4.715,5.943l-2.993.172c2.406-5.4,4.711-10.743,7.218-15.991a3.062,3.062,0,0,1,2.567-1.185,3.413,3.413,0,0,1,2.254,1.79C1713.979,6033.819,1715.952,6038.88,1718.1,6044.2Zm-13.174-7.216h5.6l-2.652-7.212Z"/><path d="M1735.158,6036.269c2.253-2.57,4.356-1.591,6.074.5a4.79,4.79,0,0,1-1.485,7.215c-1.564.788-3.462.929-5.437,1.417v5.183h-3.778v-14.954c1.421.164,3.076.355,4.727.548a45.683,45.683,0,0,0-.988,6.608c-.01.373,2.088.8,3.211,1.2.43-1.689,1.251-3.394,1.181-5.063C1738.589,6037.152,1737.462,6035.69,1735.158,6036.269Z"/><path d="M1811.462,6045.276c-1.276-2.612-.368-4.12,2.419-4.687a1.646,1.646,0,0,0,.683-.26,18.861,18.861,0,0,0,2.684-2.336c.15-.176-.866-1.667-.938-1.636-1.146.5-2.226,1.145-3.593,1.91-.06-.415-.239-1.456-.206-1.463,1.848-.37,3.785-1.066,5.545-.767.844.144,1.62,2.12,1.956,3.387a32.1,32.1,0,0,1,.574,5.082c-2.963.205-6.1.422-9.243.643Z"/><path d="M1754.254,6038.758l-6.56.492c-.307,4.156,2.17,4.947,5.855,4.744-4.751,1.834-7.927,1.006-9.124-2.087a5.257,5.257,0,0,1,3.069-6.563C1750.429,6034.111,1752.828,6035.171,1754.254,6038.758Z"/><path d="M1837.283,6044.788h-3.107v-13.313l3.107-.436Z"/><path d="M1723.211,6030.446l2.947-.651v14.241l-2.947.233Z"/><path d="M1761.917,6036.445l-1.432,8.189h-3.057v-9.066c1.323.274,2.948.612,4.582.956Z"/><path d="M1827.82,6044.754h-3.437v-7.9c2.421-.649,2.882-.388,3.111,2.236C1827.659,6040.966,1827.714,6042.854,1827.82,6044.754Z"/><path d="M1838.085,6039.373l4.3-3.324c-3.838,4.221,1.8,5.831,2.151,9.03C1840.552,6045.4,1839.993,6041.966,1838.085,6039.373Z"/><path d="M1788.855,6012.013q.853,3.7,1.707,7.388l.086-.121a18.706,18.706,0,0,1-1.627,2.748c-1.735,2.061-3.029,1.444-3.99-.781-4.594,1.888-7.978,1.747-10.249-1.854-1.741-2.762-1.928-6.481-2.761-9.606,2.968-.293,4.96-.537,6.96-.672,1.794-.12,3.409-.746,4.262,2.15.732,2.487,3.375,1.122,5.242.406A2.793,2.793,0,0,0,1788.855,6012.013Z" fill="#fff"/><path d="M1788.855,6012.013a2.793,2.793,0,0,1-.37-.342c-.688-3.814.466-6.509,4.9-7.478-.728,2.416-1.287,4.729-2.181,6.909C1790.984,6011.632,1789.666,6011.722,1788.855,6012.013Z" fill="#fff"/><path d="M1763.648,6054.968l-1.149,4.218-2.348-.8c-2.337.333-4.331.873-6.275.733-.564-.041-.983-2.033-.968-3.155.8.9,2.05,2.685,2.32,2.55a32.532,32.532,0,0,0,4.672-3.325l1.578,2.721.687-3.107Z" fill="#fff"/><path d="M1777.844,6041.086l-2.189,1.666a31.423,31.423,0,0,1-4.709-3.325,8.3,8.3,0,0,1-1.5-3.55c-.067-.237,1.024-1.1,1.125-1.035a31.019,31.019,0,0,1,2.692,2.217C1774.663,6038.284,1776.059,6039.517,1777.844,6041.086Z" fill="#fff"/><path d="M1788.878,6033.109c.97,3.042-1.445,3.235-3.512,4.394v-7.564c2.82-.459-.109,4.814,3.617,3.278C1788.976,6033.211,1788.878,6033.109,1788.878,6033.109Z" fill="#fff"/><path d="M1784.38,6058.822v-5c1.463,1.052,3.075,1.761,3.01,2.252-.162,1.216-1.091,2.332-1.711,3.488Z" fill="#fff"/><path d="M1704.925,6036.988l2.951-7.212,2.652,7.212Z" fill="#fff"/><path d="M1735.158,6036.269c2.3-.579,3.431.883,3.505,2.657.07,1.669-.751,3.374-1.181,5.063-1.123-.4-3.221-.828-3.211-1.2a45.683,45.683,0,0,1,.988-6.608Z" fill="#fff"/></g></svg>