<svg xmlns="http://www.w3.org/2000/svg" width="164.909" height="164.909" viewBox="0 0 164.909 164.909"><g transform="translate(-1227.112 -5948.34)" opacity="0.3"><path d="M1392.021,6113.249H1227.112V5948.34h164.909ZM1268.953,6084.2l-4.706-1.254v8.59l5.057-1.016Zm23.227-20.19c0-6.236.2-11.971-.109-17.68a9.942,9.942,0,0,0-2.329-5.713c-6.377-7.073-13.028-13.9-19.553-20.839-3.39-3.605-3.429-4.629-.01-8.245q17.495-18.505,35.069-36.932c3.714-3.9,4.9-3.877,8.559,0q17.351,18.382,34.73,36.74c3.518,3.713,3.571,5.185.046,8.9q-9.837,10.362-19.689,20.709c-.736.779-1.839,1.708-1.859,2.588-.156,6.776-.086,13.558-.086,20.5,6.995,0,13.462.027,19.929-.008,5.692-.03,8.32-2.6,8.326-8.282q.044-39.946,0-79.893c-.006-5.635-2.668-8.3-8.333-8.312q-37.38-.048-74.762,0c-5.871.006-8.356,2.591-8.369,8.576-.022,10.384-.006,20.767-.007,31.151q0,24.371.012,48.742c.01,4.812,2.428,7.838,6.735,7.954C1277.545,6064.153,1284.617,6064.014,1292.18,6064.014Zm17.011-36.989c7.078,0,14.159.1,21.231-.1,1.223-.035,3.157-1.127,3.495-2.15,3.418-10.345,2.362-20.057-5.37-28.239a26.054,26.054,0,0,0-33.124-4.141c-10.487,6.714-15.13,20.668-10.474,32.193a4.974,4.974,0,0,0,3.745,2.329C1295.519,6027.149,1302.358,6027.025,1309.191,6027.025Zm-3.524,42.292c.517,3.983-.9,7.691,1.462,12.064,2.484-11.894,5.069-2.434,8.068-.424-.4-2.714-1.2-4.727-.842-6.5.816-4.008.291-5.047-3.717-5.133C1309.191,6069.291,1307.743,6069.317,1305.667,6069.317Zm-29.983,10.592.453,1.2c3.076-4.151,6.173-4.258,9.459-.431a68.29,68.29,0,0,0-3.106-9.672c-.262-.66-1.226-1.663-1.538-1.555a3.448,3.448,0,0,0-1.88,1.7C1277.842,6074.026,1276.8,6076.982,1275.684,6079.909Zm28.452.5c-1.348-3.533-2.452-6.6-3.72-9.608a2.684,2.684,0,0,0-1.739-1.356c-.389-.073-1.186.724-1.411,1.286-1.234,3.081-2.347,6.21-3.633,9.678C1298.264,6078.66,1299.028,6078.661,1304.136,6080.41Zm40.43.724.335-1.112c-1.157-3.118-2.235-6.268-3.5-9.342-.766-1.861-2.138-2.237-3.043-.2-1.381,3.117-2.426,6.383-3.614,9.586l.568,1.084C1338.336,6076.461,1341.433,6077.387,1344.566,6081.134Zm-18.244.03.525-1.253c-1.158-3.033-2.258-6.089-3.518-9.079a2.753,2.753,0,0,0-1.717-1.4c-.377-.085-1.2.705-1.426,1.262-1.236,3.084-2.349,6.218-3.505,9.335l.36,1.1C1320.176,6077.215,1323.277,6076.567,1326.322,6081.164Zm28.657-8.132c-.9-3.9-3.04-4.131-5.07-3.719-1.2.244-2.851,1.272-3.174,2.3-.867,2.763,1.514,3.332,3.485,4.1a20.4,20.4,0,0,1,2.954,1.741c-.31.472-.643,1.362-.923,1.345a18.358,18.358,0,0,1-3.678-.67,13.464,13.464,0,0,1-2.078-.943l-.6.993a12.586,12.586,0,0,0,2.927,2.24c2.491.933,5.1.8,6.193-2.021,1.234-3.187-1.352-3.9-3.693-4.515-.236-.061-.58-.007-.7-.152-.6-.711-1.14-1.47-1.7-2.213a9.634,9.634,0,0,1,2.913-.408C1352.641,6071.244,1353.348,6072,1354.979,6073.032Zm-80.7,3.162c-2.711,1.015-4.434,4.727-6.9,1.705a5.9,5.9,0,0,1-.592-5.029c1.823-4.458,4.635-.367,7.129-.123-1.132-3.235-2.74-4.15-5.816-3.47s-3.968,3.018-4.028,5.744a5.366,5.366,0,0,0,4.945,5.764C1271.679,6080.886,1273.647,6079.839,1274.276,6076.194Zm14.149-4.642c1.175,2.905-.98,6.334,1.249,8.806l1.152-.139v-8.337l3.649-1.571-.276-.525h-8.755l-.053.713Zm37.824-1.821-.115.755,3.261,1.124c1.312,2.859-1,6.347,2.405,8.618v-8.456l3.694-1.393-.163-.648Z" fill="#fff"/><path d="M1292.18,6064.014c-7.563,0-14.635.139-21.7-.052-4.307-.116-6.725-3.142-6.735-7.954q-.047-24.37-.012-48.742c0-10.384-.015-20.767.007-31.151.013-5.985,2.5-8.57,8.369-8.576q37.382-.04,74.762,0c5.665.008,8.327,2.677,8.333,8.312q.039,39.946,0,79.893c-.006,5.684-2.634,8.252-8.326,8.282-6.467.035-12.934.008-19.929.008,0-6.942-.07-13.724.086-20.5.02-.88,1.123-1.809,1.859-2.588q9.82-10.378,19.689-20.709c3.525-3.713,3.472-5.185-.046-8.9q-17.386-18.351-34.73-36.74c-3.656-3.873-4.845-3.9-8.559,0q-17.549,18.451-35.069,36.932c-3.419,3.616-3.38,4.64.01,8.245,6.525,6.941,13.176,13.766,19.553,20.839a9.942,9.942,0,0,1,2.329,5.713C1292.377,6052.043,1292.18,6057.778,1292.18,6064.014Z"/><path d="M1309.191,6027.025c-6.833,0-13.672.124-20.5-.108a4.974,4.974,0,0,1-3.745-2.329c-4.656-11.525-.013-25.479,10.474-32.193a26.054,26.054,0,0,1,33.124,4.141c7.732,8.182,8.788,17.894,5.37,28.239-.338,1.023-2.272,2.115-3.495,2.15C1323.35,6027.129,1316.269,6027.025,1309.191,6027.025Z"/><path d="M1305.667,6069.317c2.076,0,3.524-.026,4.971,0,4.008.086,4.533,1.125,3.717,5.133-.361,1.775.447,3.788.842,6.5-3-2.01-5.584-11.47-8.068.424C1304.769,6077.008,1306.184,6073.3,1305.667,6069.317Zm4.394,6.175,2.764-2.8c-.9-.616-1.753-1.6-2.715-1.72-.673-.084-2.1,1.012-2.1,1.586C1308.007,6073.344,1309.039,6074.13,1310.061,6075.492Z"/><path d="M1275.684,6079.909c1.113-2.927,2.158-5.883,3.388-8.761a3.448,3.448,0,0,1,1.88-1.7c.312-.108,1.276.9,1.538,1.555a68.29,68.29,0,0,1,3.106,9.672c-3.286-3.827-6.383-3.72-9.459.431Z"/><path d="M1304.136,6080.41c-5.108-1.749-5.872-1.75-10.5,0,1.286-3.468,2.4-6.6,3.633-9.678.225-.562,1.022-1.359,1.411-1.286a2.684,2.684,0,0,1,1.739,1.356C1301.684,6073.805,1302.788,6076.877,1304.136,6080.41Z"/><path d="M1344.566,6081.134c-3.133-3.747-6.23-4.673-9.255.021l-.568-1.084c1.188-3.2,2.233-6.469,3.614-9.586.9-2.042,2.277-1.666,3.043.2,1.266,3.074,2.344,6.224,3.5,9.342Z"/><path d="M1326.322,6081.164c-3.045-4.6-6.146-3.949-9.281-.033l-.36-1.1c1.156-3.117,2.269-6.251,3.505-9.335.223-.557,1.049-1.347,1.426-1.262a2.753,2.753,0,0,1,1.717,1.4c1.26,2.99,2.36,6.046,3.518,9.079Z"/><path d="M1354.979,6073.032c-1.631-1.037-2.338-1.788-3.146-1.921a9.634,9.634,0,0,0-2.913.408c.562.743,1.1,1.5,1.7,2.213.122.145.466.091.7.152,2.341.613,4.927,1.328,3.693,4.515-1.091,2.818-3.7,2.954-6.193,2.021a12.586,12.586,0,0,1-2.927-2.24l.6-.993a13.464,13.464,0,0,0,2.078.943,18.358,18.358,0,0,0,3.678.67c.28.017.613-.873.923-1.345a20.4,20.4,0,0,0-2.954-1.741c-1.971-.769-4.352-1.338-3.485-4.1.323-1.028,1.971-2.056,3.174-2.3C1351.939,6068.9,1354.083,6069.135,1354.979,6073.032Z"/><path d="M1274.276,6076.194c-.629,3.645-2.6,4.692-5.263,4.591a5.366,5.366,0,0,1-4.945-5.764c.06-2.726.961-5.066,4.028-5.744s4.684.235,5.816,3.47c-2.494-.244-5.306-4.335-7.129.123a5.9,5.9,0,0,0,.592,5.029C1269.842,6080.921,1271.565,6077.209,1274.276,6076.194Z"/><path d="M1288.425,6071.552l-3.034-1.053.053-.713h8.755l.276.525-3.649,1.571v8.337l-1.152.139C1287.445,6077.886,1289.6,6074.457,1288.425,6071.552Z"/><path d="M1326.249,6069.731h9.082l.163.648-3.694,1.393v8.456c-3.405-2.271-1.093-5.759-2.405-8.618l-3.261-1.124Z"/><path d="M1268.953,6084.2q.175,3.159.351,6.32h-4.132v-6.659Z" fill="#fff"/><path d="M1268.953,6084.2l-3.781-.339v6.659h4.132l-5.057,1.016v-8.59Z"/><path d="M1310.061,6075.492c-1.022-1.362-2.054-2.148-2.051-2.93,0-.574,1.427-1.67,2.1-1.586.962.119,1.815,1.1,2.715,1.72Z" fill="#fff"/></g></svg>