<svg xmlns="http://www.w3.org/2000/svg" width="221.598" height="98.309" viewBox="0 0 221.598 98.309"><g transform="translate(-651.47 -5973.14)" opacity="0.36"><path d="M651.47,6071.449V5973.14h221.6v98.309Zm21.493-23.387c1.16-.113,2.329-.173,3.479-.351a15.814,15.814,0,0,0,6.111-2.213,8.152,8.152,0,0,0,4.028-7.347,5.407,5.407,0,0,0-1.253-3.492A13.941,13.941,0,0,0,680.8,6031c-1.549-.8-3.133-1.524-4.7-2.283a17.421,17.421,0,0,1-3.492-2.094,8.687,8.687,0,0,1-1.35-1.321,2.681,2.681,0,0,1-.1-3.359,4.528,4.528,0,0,1,2.036-1.714,6.963,6.963,0,0,1,4-.409,14.772,14.772,0,0,1,5.633,2.187,4.992,4.992,0,0,0,.752.418,1.412,1.412,0,0,0,2.035-.88,3.876,3.876,0,0,0-2.158-4.678c-.36-.127-.725-.247-1.095-.34a25.067,25.067,0,0,0-8.435-.593,12.993,12.993,0,0,0-5.9,2.058c-2.464,1.575-3.288,3.96-3.226,6.708a6.468,6.468,0,0,0,1.99,4.344,12.9,12.9,0,0,0,3.173,2.451c1.193.649,2.407,1.267,3.641,1.834a26.073,26.073,0,0,1,5.164,2.979,7.489,7.489,0,0,1,.977.885,2.758,2.758,0,0,1,.783,1.627,3.856,3.856,0,0,1-1.616,3.759,6.634,6.634,0,0,1-1.094.625,9.068,9.068,0,0,1-5.282.661,13.367,13.367,0,0,1-7.723-3.6c-.582-.6-1.211-.442-1.532.323a1.74,1.74,0,0,0-.12.383,5.159,5.159,0,0,0,3.117,5.873A20.9,20.9,0,0,0,672.963,6048.062Zm71.247-8.922-.174,0c-.1-.2-.216-.389-.3-.6q-2.164-5.473-4.325-10.95a5.169,5.169,0,0,0-.412-.882,3.771,3.771,0,0,0-3.452-1.9,1.677,1.677,0,0,0-1.691,2.136,5.9,5.9,0,0,0,.382,1.137c.682,1.583,1.415,3.144,2.065,4.739,1.278,3.138,2.5,6.3,3.78,9.437a18.3,18.3,0,0,0,1.3,2.553,4.988,4.988,0,0,0,1.151,1.262,1.55,1.55,0,0,0,2.067,0,4.4,4.4,0,0,0,1.014-1.081,14.015,14.015,0,0,0,1.187-2.224c1.364-3.392,2.937-6.7,4.066-10.185a2.926,2.926,0,0,1,.266-.454c.126.3.212.489.284.68,1.133,3.01,2.252,6.025,3.405,9.027.363.945.8,1.863,1.242,2.775a4.243,4.243,0,0,0,1.163,1.483,1.663,1.663,0,0,0,2.21,0,4.525,4.525,0,0,0,.95-1.065,18.033,18.033,0,0,0,1.263-2.381c2.171-5.193,4.311-10.4,6.46-15.6a3.846,3.846,0,0,0,.178-.485,1.213,1.213,0,0,0-1.251-1.66,3.161,3.161,0,0,0-3.259,2.2c-.876,2.37-1.746,4.742-2.628,7.11q-.863,2.313-1.757,4.616c-.09.233-.135.519-.489.673-.15-.327-.31-.627-.43-.943q-1.937-5.07-3.866-10.142a9.34,9.34,0,0,0-.683-1.514,4.911,4.911,0,0,0-.984-1.182,1.9,1.9,0,0,0-2.534-.045,4.968,4.968,0,0,0-1.061,1.191,10.378,10.378,0,0,0-.835,1.7c-1.32,3.246-2.621,6.5-3.932,9.747C744.472,6038.6,744.335,6038.867,744.21,6039.14Zm98.976-12.764-.137.08-.419-.254c-.477-.283-.936-.6-1.434-.843a11.6,11.6,0,0,0-7.293-.8,10.536,10.536,0,0,0-8.541,10.4,12.111,12.111,0,0,0,1.517,6,10.822,10.822,0,0,0,10.881,5.857,5.725,5.725,0,0,0,3.423-1.588,3.5,3.5,0,0,0,.687-.978c.37-.825-.022-1.412-.917-1.451a1.093,1.093,0,0,0-.285.026c-.465.106-.934.2-1.391.332a5.528,5.528,0,0,1-4.5-.362,6.233,6.233,0,0,1-2.165-2.182,10.619,10.619,0,0,1-1.563-5.339,7.1,7.1,0,0,1,1.785-5.077,5.664,5.664,0,0,1,6.309-1.67,9.781,9.781,0,0,1,3.633,2.459,1.3,1.3,0,0,1,.422,1.012c-.017,2.3-.009,4.6-.008,6.9,0,1.936-.009,3.871.006,5.806a1.954,1.954,0,0,0,1.959,1.986c.287.008.575.008.862,0a1.953,1.953,0,0,0,1.942-1.939c.007-.191.005-.383.005-.575v-25.353c0-.21,0-.421-.007-.632a1.956,1.956,0,0,0-.737-1.435,3.216,3.216,0,0,0-3.311.025,2.08,2.08,0,0,0-.721,1.623c.006,2.433,0,4.867,0,7.3Zm-50.261,9.486v.6c0,1.572-.007,3.143,0,4.714a14.87,14.87,0,0,0,.093,1.661,3.914,3.914,0,0,0,2.071,3.126,8.141,8.141,0,0,0,3.633.945,2.986,2.986,0,0,0,2.124-.731,2.247,2.247,0,0,0,.887-1.9,1.062,1.062,0,0,0-1.054-1.072c-.324-.029-.647-.08-.972-.09a1.574,1.574,0,0,1-1.415-.926,3.627,3.627,0,0,1-.384-1.013,11.172,11.172,0,0,1-.2-1.822c-.024-1.935-.009-3.87-.008-5.805a3.712,3.712,0,0,1,.016-.46,9.714,9.714,0,0,0-.184-3.253,5.149,5.149,0,0,0-2.262-3.4,9.057,9.057,0,0,0-2.812-1.276,17.819,17.819,0,0,0-6.044-.378,4.659,4.659,0,0,0-2.019.6,4.12,4.12,0,0,0-2.2,3.768c.017.662.419.921,1.053.721.346-.109.677-.264,1.019-.387a13.653,13.653,0,0,1,4.924-.982,5.332,5.332,0,0,1,2.812.87,3.486,3.486,0,0,1,.765.686,1.134,1.134,0,0,1,.079,1.438,3.3,3.3,0,0,1-.608.681,3.993,3.993,0,0,1-1.719.9c-1.114.267-2.235.517-3.366.7a17.943,17.943,0,0,0-5.095,1.519,4.1,4.1,0,0,0-2.137,2.3,7.06,7.06,0,0,0-.288,4.289,6.165,6.165,0,0,0,4.142,4.355,11.478,11.478,0,0,0,6.28.442,3.479,3.479,0,0,0,2.48-1.886,1,1,0,0,0-.949-1.571,3.793,3.793,0,0,0-.854.069,7.477,7.477,0,0,1-2.967.033,3.882,3.882,0,0,1-2.783-1.929,2.572,2.572,0,0,1,1.166-3.639,19.74,19.74,0,0,1,2.26-.823,41.162,41.162,0,0,0,4.329-1.1C792.771,6035.807,792.815,6035.834,792.925,6035.862Zm-71.43,11.041c.967-.111,1.945-.163,2.9-.343a8.712,8.712,0,0,0,5.116-2.86,12.437,12.437,0,0,0,2.848-11.146c-.753-3.7-3.2-6.025-6.594-7.379a11.7,11.7,0,0,0-6.67-.4,8.923,8.923,0,0,0-5.152,2.908c-.191.215-.386.426-.571.646a11.369,11.369,0,0,0-2.7,6.646,11.882,11.882,0,0,0,2.949,8.806,7.76,7.76,0,0,0,2.625,2.012A12.749,12.749,0,0,0,721.495,6046.9Zm86.821-19.434a8.185,8.185,0,0,0-.115-.908,1.842,1.842,0,0,0-1.691-1.405c-1.387-.079-2.035.138-2.511,1.144a2.28,2.28,0,0,0-.15.952q-.012,8.651-.006,17.3c0,.1,0,.192,0,.287a1.789,1.789,0,0,0,1.592,1.748,5.9,5.9,0,0,0,1.256,0,1.631,1.631,0,0,0,1.435-1.159,2.92,2.92,0,0,0,.125-.957q.012-5.462.006-10.922c0-.268,0-.537.013-.8a4.6,4.6,0,0,1,4.247-4.234,5.7,5.7,0,0,1,3.913,1.211,3.878,3.878,0,0,1,1.517,2.365,6.547,6.547,0,0,1,.116,1.313q.013,5.4.005,10.806c0,.211,0,.422.007.632a1.76,1.76,0,0,0,1.345,1.724,5.031,5.031,0,0,0,1.247.117,1.981,1.981,0,0,0,2.182-2.166c0-.92,0-1.839,0-2.759,0-2.721-.016-5.442.007-8.162a13.558,13.558,0,0,0-.225-3.084,6.359,6.359,0,0,0-2.9-4.24,8.709,8.709,0,0,0-5.688-1.369,9.192,9.192,0,0,0-5.3,2.253C808.644,6027.249,808.518,6027.324,808.316,6027.469Zm-114.556,0c-.036-.272-.066-.469-.087-.666a1.824,1.824,0,0,0-1.764-1.648c-.287-.01-.576-.013-.863,0a1.809,1.809,0,0,0-1.728,1.682c-.013.172-.009.345-.01.517q0,8.535,0,17.07a5.551,5.551,0,0,0,.022.632,1.644,1.644,0,0,0,1.2,1.463,4.16,4.16,0,0,0,1.3.112,2.025,2.025,0,0,0,.828-.2,1.843,1.843,0,0,0,1.023-1.838q-.016-5.489,0-10.977a9.856,9.856,0,0,1,.1-1.488,3.78,3.78,0,0,1,1.44-2.466,5.258,5.258,0,0,1,7.1.47,3.178,3.178,0,0,1,.952,1.613,7.863,7.863,0,0,1,.211,1.642c.018,3.774.007,7.548.011,11.322a1.751,1.751,0,0,0,1.45,1.867,5.462,5.462,0,0,0,1.759.032,1.866,1.866,0,0,0,1.564-1.968c-.041-1.052-.011-2.107-.012-3.161,0-2.6.008-5.211-.007-7.816a19.605,19.605,0,0,0-.127-2.745,6.258,6.258,0,0,0-2.9-4.613,8.7,8.7,0,0,0-5.734-1.409,9.2,9.2,0,0,0-5.345,2.281C694.064,6027.266,693.951,6027.333,693.76,6027.47Zm84.767-21.147c.276-.162.528-.292.761-.451a76.835,76.835,0,0,0,7.262-5.636,86.194,86.194,0,0,0,11.151-11.659,3.727,3.727,0,0,1,.95-.814.816.816,0,0,1,1.253.226c.136.16.249.339.37.512.286.407.549.833.864,1.218a5.674,5.674,0,0,0,.924.939,2.1,2.1,0,0,0,3.026-.317,5.564,5.564,0,0,0,.641-.951c.37-.67.688-1.369,1.068-2.034.618-1.08,1.262-2.145,1.909-3.207a4.19,4.19,0,0,1,.483-.548c.146.114.24.178.322.253a3.683,3.683,0,0,0,1.4.877,2.057,2.057,0,0,0,2.714-1.387c.3-1.2.783-2.358,1.2-3.531.073-.207.19-.4.335-.7.176.238.3.376.39.53.349.572.689,1.15,1.034,1.725a51.839,51.839,0,0,0,4.514,6.582,19.748,19.748,0,0,0,4.6,4.215,11.09,11.09,0,0,0,2.974,1.342,1.341,1.341,0,1,0,.7-2.585,8.965,8.965,0,0,1-3.129-1.651,19.661,19.661,0,0,1-1.514-1.324,29.406,29.406,0,0,1-4.266-5.4c-.945-1.486-1.839-3.006-2.77-4.5a13.766,13.766,0,0,0-1.076-1.559,1.779,1.779,0,0,0-2.95-.013,5.566,5.566,0,0,0-.859,1.35c-.467,1.068-.864,2.167-1.291,3.252-.079.2-.165.4-.248.6l-.172.066a3.5,3.5,0,0,0-.286-.425,1.924,1.924,0,0,0-1.639-.667,2.2,2.2,0,0,0-1.53.7,13.667,13.667,0,0,0-1.579,1.962c-.836,1.373-1.573,2.806-2.353,4.212-.106.192-.228.375-.387.634-.2-.249-.355-.414-.482-.6-.252-.362-.471-.747-.738-1.1a3.449,3.449,0,0,0-4.16-1.313,5.2,5.2,0,0,0-2.237,1.656c-.692.87-1.372,1.75-2.1,2.593a86.29,86.29,0,0,1-13.709,12.811c-1.936,1.456-1.6.868-1.634,3.4a.971.971,0,0,0,.033.341A2.287,2.287,0,0,0,778.527,6006.323Zm-7.069,25.175q0,6.292,0,12.584c0,.268,0,.537.018.8a1.769,1.769,0,0,0,1.391,1.69,5.524,5.524,0,0,0,1.706.074,1.852,1.852,0,0,0,1.605-1.576,4.912,4.912,0,0,0,.072-.856q.006-12.727,0-25.455a4.3,4.3,0,0,0-.079-.855,1.766,1.766,0,0,0-1.471-1.5,4.871,4.871,0,0,0-1.536-.045,1.863,1.863,0,0,0-1.7,1.916c-.012.23-.008.46-.008.69Zm-19.142,28.068.168.01c.062.176.129.35.186.528.307.965.605,1.934.921,2.9.185.565.4.723.894.714.459-.01.66-.17.836-.714.317-.983.618-1.97.935-2.952.054-.168.058-.376.3-.509a1.965,1.965,0,0,1,.114.323c.156.962.3,1.926.461,2.887a2.075,2.075,0,0,0,.178.6.746.746,0,0,0,.892.349.653.653,0,0,0,.493-.686,5.34,5.34,0,0,0-.074-.855c-.173-1.037-.356-2.071-.54-3.106-.107-.6-.212-1.2-.342-1.8a.963.963,0,0,0-.86-.808.993.993,0,0,0-1.079.589,4.707,4.707,0,0,0-.28.69c-.268.8-.525,1.6-.791,2.4-.057.17-.133.333-.2.5l-.136,0c-.072-.185-.153-.368-.215-.556-.272-.816-.531-1.636-.812-2.449a3.137,3.137,0,0,0-.364-.775.989.989,0,0,0-1.466-.163,1.378,1.378,0,0,0-.372.687c-.292,1.519-.556,3.045-.82,4.57a6.79,6.79,0,0,0-.12,1.08.656.656,0,0,0,.78.7c.421-.021.668-.26.76-.788.13-.753.235-1.511.357-2.265C752.174,6060.293,752.248,6059.93,752.316,6059.566Zm16.324.456c0,.937-.007,1.875,0,2.812.006.621.253.871.867.88.688.01,1.378.017,2.066,0a3.1,3.1,0,0,0,2.81-1.767,4.264,4.264,0,0,0,.374-2.516,3.288,3.288,0,0,0-3.343-2.994c-.613,0-1.225-.006-1.838,0-.667.009-.932.276-.937.947C768.634,6058.262,768.639,6059.142,768.64,6060.022Zm11.641,3.694a3.278,3.278,0,0,0,3.4-2.435,4.485,4.485,0,0,0-.031-2.49,3.058,3.058,0,0,0-2.228-2.187,4.434,4.434,0,0,0-1.471-.153,3.211,3.211,0,0,0-3.026,2.246,4.411,4.411,0,0,0-.058,2.6A3.29,3.29,0,0,0,780.281,6063.716Zm-48.82-2.8a1.275,1.275,0,0,1-.779,1.211,1.832,1.832,0,0,1-2.537-.956,3.323,3.323,0,0,1-.2-1.23,1.972,1.972,0,0,1,3.118-1.718c.181.108.351.238.539.329a.641.641,0,0,0,.976-.667,1.127,1.127,0,0,0-.583-.872,3.544,3.544,0,0,0-1.561-.534,3.453,3.453,0,0,0-4.033,2.579,4.939,4.939,0,0,0-.089,1.649,3.144,3.144,0,0,0,2.209,2.811,5,5,0,0,0,1.466.192,3.119,3.119,0,0,0,3.126-3.332.8.8,0,0,0-.867-.924c-.572-.039-1.149-.015-1.724-.005a1.376,1.376,0,0,0-.39.093.572.572,0,0,0-.4.512.64.64,0,0,0,.656.808C730.726,6060.885,731.066,6060.893,731.461,6060.912Zm7.282-.119c.237-.106.371-.17.508-.226a1.971,1.971,0,0,0,1.189-2.142,2.15,2.15,0,0,0-2.214-1.986c-.632-.021-1.265-.007-1.9,0-.839,0-1.063.221-1.064,1.047q0,2.586,0,5.171a2.923,2.923,0,0,0,.017.459.668.668,0,0,0,.662.6.719.719,0,0,0,.851-.773c.022-.555,0-1.111.011-1.666a5.119,5.119,0,0,1,.085-.565c.28.34.472.568.658.8.515.642,1.016,1.3,1.547,1.926a.856.856,0,0,0,1.186.108.757.757,0,0,0-.02-1.122c-.086-.1-.18-.2-.271-.3Zm3.382,2.173c.019.381.1.562.355.683a.793.793,0,0,0,1.045-.313,2.761,2.761,0,0,0,.252-.638.466.466,0,0,1,.543-.382c.67.016,1.341.018,2.01,0a.5.5,0,0,1,.586.408,2.738,2.738,0,0,0,.325.728.813.813,0,0,0,.935.216.615.615,0,0,0,.355-.71,2.562,2.562,0,0,0-.15-.61q-.933-2.468-1.885-4.929a2.192,2.192,0,0,0-.3-.551,1.043,1.043,0,0,0-1.716.016,3.035,3.035,0,0,0-.365.71q-.89,2.3-1.759,4.609C742.261,6062.45,742.2,6062.711,742.125,6062.966Zm22.84-.645c.072.157.115.243.151.33a6.012,6.012,0,0,0,.307.739.754.754,0,0,0,.91.3c.32-.093.448-.292.408-.72a2.839,2.839,0,0,0-.166-.722q-.867-2.31-1.755-4.611a3.785,3.785,0,0,0-.291-.622,1.075,1.075,0,0,0-1.918,0,3.743,3.743,0,0,0-.293.622q-.871,2.277-1.73,4.558a3.932,3.932,0,0,0-.218.77.612.612,0,0,0,.6.742.721.721,0,0,0,.856-.511c.123-.275.22-.563.342-.877h2.8Zm90.023-18.2a2.544,2.544,0,1,0-2.541,2.551A2.477,2.477,0,0,0,854.988,6044.12Z" fill="#fff"/><path d="M672.963,6048.062a20.9,20.9,0,0,1-6.7-1.221,5.159,5.159,0,0,1-3.117-5.873,1.74,1.74,0,0,1,.12-.383c.321-.765.95-.921,1.532-.323a13.367,13.367,0,0,0,7.723,3.6,9.068,9.068,0,0,0,5.282-.661,6.634,6.634,0,0,0,1.094-.625,3.856,3.856,0,0,0,1.616-3.759,2.758,2.758,0,0,0-.783-1.627,7.489,7.489,0,0,0-.977-.885,26.073,26.073,0,0,0-5.164-2.979c-1.234-.567-2.448-1.185-3.641-1.834a12.9,12.9,0,0,1-3.173-2.451,6.468,6.468,0,0,1-1.99-4.344c-.062-2.748.762-5.133,3.226-6.708a12.993,12.993,0,0,1,5.9-2.058,25.067,25.067,0,0,1,8.435.593c.37.093.735.213,1.095.34a3.876,3.876,0,0,1,2.158,4.678,1.412,1.412,0,0,1-2.035.88,4.992,4.992,0,0,1-.752-.418,14.772,14.772,0,0,0-5.633-2.187,6.963,6.963,0,0,0-4,.409,4.528,4.528,0,0,0-2.036,1.714,2.681,2.681,0,0,0,.1,3.359,8.687,8.687,0,0,0,1.35,1.321,17.421,17.421,0,0,0,3.492,2.094c1.569.759,3.153,1.487,4.7,2.283a13.941,13.941,0,0,1,4.53,3.659,5.407,5.407,0,0,1,1.253,3.492,8.152,8.152,0,0,1-4.028,7.347,15.814,15.814,0,0,1-6.111,2.213C675.292,6047.889,674.123,6047.949,672.963,6048.062Z"/><path d="M744.21,6039.14c.125-.273.262-.543.374-.822,1.311-3.249,2.612-6.5,3.932-9.747a10.378,10.378,0,0,1,.835-1.7,4.968,4.968,0,0,1,1.061-1.191,1.9,1.9,0,0,1,2.534.045,4.911,4.911,0,0,1,.984,1.182,9.34,9.34,0,0,1,.683,1.514q1.94,5.069,3.866,10.142c.12.316.28.616.43.943.354-.154.4-.44.489-.673q.891-2.3,1.757-4.616c.882-2.368,1.752-4.74,2.628-7.11a3.161,3.161,0,0,1,3.259-2.2,1.213,1.213,0,0,1,1.251,1.66,3.846,3.846,0,0,1-.178.485c-2.149,5.2-4.289,10.409-6.46,15.6a18.033,18.033,0,0,1-1.263,2.381,4.525,4.525,0,0,1-.95,1.065,1.663,1.663,0,0,1-2.21,0,4.243,4.243,0,0,1-1.163-1.483c-.442-.912-.879-1.83-1.242-2.775-1.153-3-2.272-6.017-3.405-9.027-.072-.191-.158-.377-.284-.68a2.926,2.926,0,0,0-.266.454c-1.129,3.484-2.7,6.793-4.066,10.185a14.015,14.015,0,0,1-1.187,2.224,4.4,4.4,0,0,1-1.014,1.081,1.55,1.55,0,0,1-2.067,0,4.988,4.988,0,0,1-1.151-1.262,18.3,18.3,0,0,1-1.3-2.553c-1.282-3.137-2.5-6.3-3.78-9.437-.65-1.6-1.383-3.156-2.065-4.739a5.9,5.9,0,0,1-.382-1.137,1.677,1.677,0,0,1,1.691-2.136,3.771,3.771,0,0,1,3.452,1.9,5.169,5.169,0,0,1,.412.882q2.166,5.475,4.325,10.95c.081.206.2.4.3.6Z"/><path d="M843.186,6026.376v-.678c0-2.434.005-4.868,0-7.3a2.08,2.08,0,0,1,.721-1.623,3.216,3.216,0,0,1,3.311-.025,1.956,1.956,0,0,1,.737,1.435c.007.211.007.422.007.632v25.353c0,.192,0,.384-.005.575a1.953,1.953,0,0,1-1.942,1.939c-.287.009-.575.009-.862,0a1.954,1.954,0,0,1-1.959-1.986c-.015-1.935-.006-3.87-.006-5.806,0-2.3-.009-4.6.008-6.9a1.3,1.3,0,0,0-.422-1.012,9.781,9.781,0,0,0-3.633-2.459,5.664,5.664,0,0,0-6.309,1.67,7.1,7.1,0,0,0-1.785,5.077,10.619,10.619,0,0,0,1.563,5.339,6.233,6.233,0,0,0,2.165,2.182,5.528,5.528,0,0,0,4.5.362c.457-.132.926-.226,1.391-.332a1.093,1.093,0,0,1,.285-.026c.9.039,1.287.626.917,1.451a3.5,3.5,0,0,1-.687.978,5.725,5.725,0,0,1-3.423,1.588,10.822,10.822,0,0,1-10.881-5.857,12.111,12.111,0,0,1-1.517-6,10.536,10.536,0,0,1,8.541-10.4,11.6,11.6,0,0,1,7.293.8c.5.239.957.56,1.434.843l.419.254Z"/><path d="M792.925,6035.862c-.11-.028-.154-.055-.182-.043a41.162,41.162,0,0,1-4.329,1.1,19.74,19.74,0,0,0-2.26.823,2.572,2.572,0,0,0-1.166,3.639,3.882,3.882,0,0,0,2.783,1.929,7.477,7.477,0,0,0,2.967-.033,3.793,3.793,0,0,1,.854-.069,1,1,0,0,1,.949,1.571,3.479,3.479,0,0,1-2.48,1.886,11.478,11.478,0,0,1-6.28-.442,6.165,6.165,0,0,1-4.142-4.355,7.06,7.06,0,0,1,.288-4.289,4.1,4.1,0,0,1,2.137-2.3,17.943,17.943,0,0,1,5.095-1.519c1.131-.18,2.252-.43,3.366-.7a3.993,3.993,0,0,0,1.719-.9,3.3,3.3,0,0,0,.608-.681,1.134,1.134,0,0,0-.079-1.438,3.486,3.486,0,0,0-.765-.686,5.332,5.332,0,0,0-2.812-.87,13.653,13.653,0,0,0-4.924.982c-.342.123-.673.278-1.019.387-.634.2-1.036-.059-1.053-.721a4.12,4.12,0,0,1,2.2-3.768,4.659,4.659,0,0,1,2.019-.6,17.819,17.819,0,0,1,6.044.378,9.057,9.057,0,0,1,2.812,1.276,5.149,5.149,0,0,1,2.262,3.4,9.714,9.714,0,0,1,.184,3.253,3.712,3.712,0,0,0-.016.46c0,1.935-.016,3.87.008,5.805a11.172,11.172,0,0,0,.2,1.822,3.627,3.627,0,0,0,.384,1.013,1.574,1.574,0,0,0,1.415.926c.325.01.648.061.972.09a1.062,1.062,0,0,1,1.054,1.072,2.247,2.247,0,0,1-.887,1.9,2.986,2.986,0,0,1-2.124.731,8.141,8.141,0,0,1-3.633-.945,3.914,3.914,0,0,1-2.071-3.126,14.87,14.87,0,0,1-.093-1.661c-.011-1.571,0-3.142,0-4.714Z"/><path d="M721.495,6046.9a12.749,12.749,0,0,1-5.253-1.111,7.76,7.76,0,0,1-2.625-2.012,11.882,11.882,0,0,1-2.949-8.806,11.369,11.369,0,0,1,2.7-6.646c.185-.22.38-.431.571-.646a8.923,8.923,0,0,1,5.152-2.908,11.7,11.7,0,0,1,6.67.4c3.39,1.354,5.841,3.676,6.594,7.379a12.437,12.437,0,0,1-2.848,11.146,8.712,8.712,0,0,1-5.116,2.86C723.44,6046.74,722.462,6046.792,721.495,6046.9Zm.335-3.649c.474-.057.955-.081,1.421-.177a4.981,4.981,0,0,0,3.431-2.384,9.4,9.4,0,0,0-.71-10.573,4.711,4.711,0,0,0-2.253-1.619,5.729,5.729,0,0,0-3.5-.075,5.945,5.945,0,0,0-4.482,4.469,10.077,10.077,0,0,0,1.039,7.333A5.387,5.387,0,0,0,721.83,6043.254Z"/><path d="M808.316,6027.469c.2-.145.328-.22.435-.316a9.192,9.192,0,0,1,5.3-2.253,8.709,8.709,0,0,1,5.688,1.369,6.359,6.359,0,0,1,2.9,4.24,13.558,13.558,0,0,1,.225,3.084c-.023,2.72-.007,5.441-.007,8.162,0,.92,0,1.839,0,2.759a1.981,1.981,0,0,1-2.182,2.166,5.031,5.031,0,0,1-1.247-.117,1.76,1.76,0,0,1-1.345-1.724c-.01-.21-.007-.421-.007-.632q0-5.4-.005-10.806a6.547,6.547,0,0,0-.116-1.313,3.878,3.878,0,0,0-1.517-2.365,5.7,5.7,0,0,0-3.913-1.211,4.6,4.6,0,0,0-4.247,4.234c-.017.267-.013.536-.013.8q0,5.462-.006,10.922a2.92,2.92,0,0,1-.125.957,1.631,1.631,0,0,1-1.435,1.159,5.9,5.9,0,0,1-1.256,0,1.789,1.789,0,0,1-1.592-1.748c0-.095,0-.191,0-.287q0-8.651.006-17.3a2.28,2.28,0,0,1,.15-.952c.476-1.006,1.124-1.223,2.511-1.144a1.842,1.842,0,0,1,1.691,1.405A8.185,8.185,0,0,1,808.316,6027.469Z"/><path d="M693.76,6027.47c.191-.137.3-.2.4-.29a9.2,9.2,0,0,1,5.345-2.281,8.7,8.7,0,0,1,5.734,1.409,6.258,6.258,0,0,1,2.9,4.613,19.605,19.605,0,0,1,.127,2.745c.015,2.6.006,5.211.007,7.816,0,1.054-.029,2.109.012,3.161a1.866,1.866,0,0,1-1.564,1.968,5.462,5.462,0,0,1-1.759-.032,1.751,1.751,0,0,1-1.45-1.867c0-3.774.007-7.548-.011-11.322a7.863,7.863,0,0,0-.211-1.642,3.178,3.178,0,0,0-.952-1.613,5.258,5.258,0,0,0-7.1-.47,3.78,3.78,0,0,0-1.44,2.466,9.856,9.856,0,0,0-.1,1.488q-.014,5.488,0,10.977a1.843,1.843,0,0,1-1.023,1.838,2.025,2.025,0,0,1-.828.2,4.16,4.16,0,0,1-1.3-.112,1.644,1.644,0,0,1-1.2-1.463,5.551,5.551,0,0,1-.022-.632q0-8.535,0-17.07c0-.172,0-.345.01-.517a1.809,1.809,0,0,1,1.728-1.682c.287-.014.576-.011.863,0a1.824,1.824,0,0,1,1.764,1.648C693.694,6027,693.724,6027.2,693.76,6027.47Z"/><path d="M778.527,6006.323a2.287,2.287,0,0,1-.225-.369.971.971,0,0,1-.033-.341c.036-2.532-.3-1.944,1.634-3.4a86.29,86.29,0,0,0,13.709-12.811c.724-.843,1.4-1.723,2.1-2.593a5.2,5.2,0,0,1,2.237-1.656,3.449,3.449,0,0,1,4.16,1.313c.267.35.486.735.738,1.1.127.183.28.348.482.6.159-.259.281-.442.387-.634.78-1.406,1.517-2.839,2.353-4.212a13.667,13.667,0,0,1,1.579-1.962,2.2,2.2,0,0,1,1.53-.7,1.924,1.924,0,0,1,1.639.667,3.5,3.5,0,0,1,.286.425l.172-.066c.083-.2.169-.4.248-.6.427-1.085.824-2.184,1.291-3.252a5.566,5.566,0,0,1,.859-1.35,1.779,1.779,0,0,1,2.95.013,13.766,13.766,0,0,1,1.076,1.559c.931,1.5,1.825,3.016,2.77,4.5a29.406,29.406,0,0,0,4.266,5.4,19.661,19.661,0,0,0,1.514,1.324,8.965,8.965,0,0,0,3.129,1.651,1.341,1.341,0,1,1-.7,2.585,11.09,11.09,0,0,1-2.974-1.342,19.748,19.748,0,0,1-4.6-4.215,51.839,51.839,0,0,1-4.514-6.582c-.345-.575-.685-1.153-1.034-1.725-.094-.154-.214-.292-.39-.53-.145.3-.262.492-.335.7-.412,1.173-.9,2.329-1.2,3.531a2.057,2.057,0,0,1-2.714,1.387,3.683,3.683,0,0,1-1.4-.877c-.082-.075-.176-.139-.322-.253a4.19,4.19,0,0,0-.483.548c-.647,1.062-1.291,2.127-1.909,3.207-.38.665-.7,1.364-1.068,2.034a5.564,5.564,0,0,1-.641.951,2.1,2.1,0,0,1-3.026.317,5.674,5.674,0,0,1-.924-.939c-.315-.385-.578-.811-.864-1.218-.121-.173-.234-.352-.37-.512a.816.816,0,0,0-1.253-.226,3.727,3.727,0,0,0-.95.814,86.194,86.194,0,0,1-11.151,11.659,76.835,76.835,0,0,1-7.262,5.636C779.055,6006.031,778.8,6006.161,778.527,6006.323Z"/><path d="M771.458,6031.5v-12.526c0-.23,0-.46.008-.69a1.863,1.863,0,0,1,1.7-1.916,4.871,4.871,0,0,1,1.536.045,1.766,1.766,0,0,1,1.471,1.5,4.3,4.3,0,0,1,.079.855q.006,12.727,0,25.455a4.912,4.912,0,0,1-.072.856,1.852,1.852,0,0,1-1.605,1.576,5.524,5.524,0,0,1-1.706-.074,1.769,1.769,0,0,1-1.391-1.69c-.02-.267-.018-.536-.018-.8Q771.458,6037.791,771.458,6031.5Z"/><path d="M752.316,6059.566c-.068.364-.142.727-.2,1.092-.122.754-.227,1.512-.357,2.265-.092.528-.339.767-.76.788a.656.656,0,0,1-.78-.7,6.79,6.79,0,0,1,.12-1.08c.264-1.525.528-3.051.82-4.57a1.378,1.378,0,0,1,.372-.687.989.989,0,0,1,1.466.163,3.137,3.137,0,0,1,.364.775c.281.813.54,1.633.812,2.449.062.188.143.371.215.556l.136,0c.067-.166.143-.329.2-.5.266-.8.523-1.6.791-2.4a4.707,4.707,0,0,1,.28-.69.993.993,0,0,1,1.079-.589.963.963,0,0,1,.86.808c.13.6.235,1.2.342,1.8.184,1.035.367,2.069.54,3.106a5.34,5.34,0,0,1,.074.855.653.653,0,0,1-.493.686.746.746,0,0,1-.892-.349,2.075,2.075,0,0,1-.178-.6c-.159-.961-.3-1.925-.461-2.887a1.965,1.965,0,0,0-.114-.323c-.237.133-.241.341-.3.509-.317.982-.618,1.969-.935,2.952-.176.544-.377.7-.836.714-.492.009-.709-.149-.894-.714-.316-.962-.614-1.931-.921-2.9-.057-.178-.124-.352-.186-.528Z"/><path d="M768.639,6060.022c0-.88-.005-1.76,0-2.639.005-.671.27-.938.937-.947.613-.008,1.225,0,1.838,0a3.288,3.288,0,0,1,3.343,2.994,4.264,4.264,0,0,1-.374,2.516,3.1,3.1,0,0,1-2.81,1.767c-.688.02-1.378.013-2.066,0-.614-.009-.861-.259-.867-.88C768.633,6061.9,768.64,6060.959,768.639,6060.022Zm1.586,2.269c.427,0,.789.022,1.148,0a1.665,1.665,0,0,0,1.588-1.205,4.242,4.242,0,0,0,.148-1.413,1.813,1.813,0,0,0-1.9-1.814c-.134,0-.268,0-.4,0-.591.01-.624.036-.627.617q-.008,1.609,0,3.219C770.177,6061.858,770.2,6062.026,770.225,6062.291Z"/><path d="M780.281,6063.716a3.29,3.29,0,0,1-3.414-2.42,4.411,4.411,0,0,1,.058-2.6,3.211,3.211,0,0,1,3.026-2.246,4.434,4.434,0,0,1,1.471.153,3.058,3.058,0,0,1,2.228,2.187,4.485,4.485,0,0,1,.031,2.49A3.278,3.278,0,0,1,780.281,6063.716Zm-.032-1.418a1.732,1.732,0,0,0,1.737-1.168,2.78,2.78,0,0,0-.04-2.181,1.831,1.831,0,0,0-3.35.012,2.765,2.765,0,0,0-.008,2.235A1.706,1.706,0,0,0,780.249,6062.3Z"/><path d="M731.461,6060.912c-.4-.019-.735-.027-1.073-.054a.64.64,0,0,1-.656-.808.572.572,0,0,1,.4-.512,1.376,1.376,0,0,1,.39-.093c.575-.01,1.152-.034,1.724.005a.8.8,0,0,1,.867.924,3.119,3.119,0,0,1-3.126,3.332,5,5,0,0,1-1.466-.192,3.144,3.144,0,0,1-2.209-2.811,4.939,4.939,0,0,1,.089-1.649,3.453,3.453,0,0,1,4.033-2.579,3.544,3.544,0,0,1,1.561.534,1.127,1.127,0,0,1,.583.872.641.641,0,0,1-.976.667c-.188-.091-.358-.221-.539-.329a1.972,1.972,0,0,0-3.118,1.718,3.323,3.323,0,0,0,.2,1.23,1.832,1.832,0,0,0,2.537.956A1.275,1.275,0,0,0,731.461,6060.912Z"/><path d="M738.743,6060.793l1.248,1.328c.091.1.185.194.271.3a.757.757,0,0,1,.02,1.122.856.856,0,0,1-1.186-.108c-.531-.629-1.032-1.284-1.547-1.926-.186-.232-.378-.46-.658-.8a5.119,5.119,0,0,0-.085.565c-.008.555.011,1.111-.011,1.666a.719.719,0,0,1-.851.773.668.668,0,0,1-.662-.6,2.923,2.923,0,0,1-.017-.459q0-2.585,0-5.171c0-.826.225-1.043,1.064-1.047.632,0,1.265-.016,1.9,0a2.15,2.15,0,0,1,2.214,1.986,1.971,1.971,0,0,1-1.189,2.142C739.114,6060.623,738.98,6060.687,738.743,6060.793Zm-1.934-1.2c.24.025.371.048.5.051a7.092,7.092,0,0,0,.742-.008.9.9,0,0,0,.871-.89.891.891,0,0,0-.826-.874,7.222,7.222,0,0,0-.97-.007.294.294,0,0,0-.318.325C736.807,6058.643,736.809,6059.094,736.809,6059.594Z"/><path d="M742.125,6062.966c.076-.255.136-.516.23-.764q.871-2.309,1.759-4.609a3.035,3.035,0,0,1,.365-.71,1.043,1.043,0,0,1,1.716-.016,2.192,2.192,0,0,1,.3.551q.953,2.462,1.885,4.929a2.562,2.562,0,0,1,.15.61.615.615,0,0,1-.355.71.813.813,0,0,1-.935-.216,2.738,2.738,0,0,1-.325-.728.5.5,0,0,0-.586-.408c-.669.019-1.34.017-2.01,0a.466.466,0,0,0-.543.382,2.761,2.761,0,0,1-.252.638.793.793,0,0,1-1.045.313C742.23,6063.528,742.144,6063.347,742.125,6062.966Zm3.319-4.865a7.425,7.425,0,0,0-.934,2.7,3.553,3.553,0,0,0,1.724-.028A22.039,22.039,0,0,0,745.444,6058.1Z"/><path d="M764.965,6062.321h-2.8c-.122.314-.219.6-.342.877a.721.721,0,0,1-.856.511.612.612,0,0,1-.6-.742,3.932,3.932,0,0,1,.218-.77q.856-2.283,1.73-4.558a3.743,3.743,0,0,1,.293-.622,1.075,1.075,0,0,1,1.918,0,3.785,3.785,0,0,1,.291.622q.885,2.3,1.755,4.611a2.839,2.839,0,0,1,.166.722c.04.428-.088.627-.408.72a.754.754,0,0,1-.91-.3,6.012,6.012,0,0,1-.307-.739C765.08,6062.564,765.037,6062.478,764.965,6062.321Zm-2.312-1.478a4.782,4.782,0,0,0,1.812-.052,9.5,9.5,0,0,0-.909-2.689A18.686,18.686,0,0,0,762.653,6060.843Z"/><path d="M854.988,6044.12a2.544,2.544,0,1,1-5.087-.006,2.544,2.544,0,1,1,5.087.006Zm-2.512,2.2a2.219,2.219,0,0,0,2.223-2.232,2.248,2.248,0,1,0-4.5.049A2.22,2.22,0,0,0,852.476,6046.319Z"/><path d="M721.83,6043.254a5.387,5.387,0,0,1-5.057-3.026,10.077,10.077,0,0,1-1.039-7.333,5.945,5.945,0,0,1,4.482-4.469,5.729,5.729,0,0,1,3.5.075,4.711,4.711,0,0,1,2.253,1.619,9.4,9.4,0,0,1,.71,10.573,4.981,4.981,0,0,1-3.431,2.384C722.785,6043.173,722.3,6043.2,721.83,6043.254Z" fill="#fff"/><path d="M770.225,6062.291c-.022-.265-.048-.433-.048-.6q-.006-1.609,0-3.219c0-.581.036-.607.627-.617.134,0,.268,0,.4,0a1.813,1.813,0,0,1,1.9,1.814,4.242,4.242,0,0,1-.148,1.413,1.665,1.665,0,0,1-1.588,1.205C771.014,6062.313,770.652,6062.291,770.225,6062.291Z" fill="#fff"/><path d="M780.249,6062.3a1.706,1.706,0,0,1-1.661-1.1,2.765,2.765,0,0,1,.008-2.235,1.831,1.831,0,0,1,3.35-.012,2.78,2.78,0,0,1,.04,2.181A1.732,1.732,0,0,1,780.249,6062.3Z" fill="#fff"/><path d="M736.809,6059.594c0-.5,0-.951,0-1.4a.294.294,0,0,1,.318-.325,7.222,7.222,0,0,1,.97.007.891.891,0,0,1,.826.874.9.9,0,0,1-.871.89,7.092,7.092,0,0,1-.742.008C737.18,6059.642,737.049,6059.619,736.809,6059.594Z" fill="#fff"/><path d="M745.444,6058.1a22.039,22.039,0,0,1,.79,2.672,3.553,3.553,0,0,1-1.724.028A7.425,7.425,0,0,1,745.444,6058.1Z" fill="#fff"/><path d="M762.653,6060.843a18.686,18.686,0,0,1,.9-2.741,9.5,9.5,0,0,1,.909,2.689A4.782,4.782,0,0,1,762.653,6060.843Z" fill="#fff"/><path d="M852.476,6046.319a2.22,2.22,0,0,1-2.273-2.183,2.248,2.248,0,1,1,4.5-.049A2.219,2.219,0,0,1,852.476,6046.319Zm-1.068-.837c.362-.259.245-.531.276-.759.057-.425.3-.564.667-.334a1.614,1.614,0,0,1,.39.409c.126.167.209.369.344.528.06.071.2.074.307.108l.071-.1-.686-1.04a3.364,3.364,0,0,0,.42-.313.667.667,0,0,0-.217-1.094,2.634,2.634,0,0,0-1.572-.045Z" fill="#fff"/><path d="M851.408,6045.482v-2.641a2.634,2.634,0,0,1,1.572.045.667.667,0,0,1,.217,1.094,3.364,3.364,0,0,1-.42.313l.686,1.04-.071.1c-.105-.034-.247-.037-.307-.108-.135-.159-.218-.361-.344-.528a1.614,1.614,0,0,0-.39-.409c-.366-.23-.61-.091-.667.334C851.653,6044.951,851.77,6045.223,851.408,6045.482Zm.365-1.489a7.63,7.63,0,0,0,.823-.006.444.444,0,0,0,.436-.448.4.4,0,0,0-.38-.429,1.505,1.505,0,0,0-.821.021C851.569,6043.288,851.676,6043.638,851.773,6043.993Z"/><path d="M851.773,6043.993c-.1-.355-.2-.705.058-.862a1.505,1.505,0,0,1,.821-.021.4.4,0,0,1,.38.429.444.444,0,0,1-.436.448A7.63,7.63,0,0,1,851.773,6043.993Z" fill="#fff"/></g></svg>