<svg xmlns="http://www.w3.org/2000/svg" width="274.515" height="55.726" viewBox="0 0 274.515 55.726"><g transform="translate(-575.858 -6397.672)" opacity="0.36"><path d="M575.858,6453.4v-55.726H850.373V6453.4Zm96.82-18.629c-.413-.594-.652-.914-.866-1.25-5.394-8.433-10.917-16.788-16.1-25.351-1.632-2.7-3.37-3.886-6.484-3.493a63.932,63.932,0,0,1-6.444.077c-.364.009-.72.35-1.079.538a13.445,13.445,0,0,0,1.018.89c.123.09.357.02.539.033a3.467,3.467,0,0,1,3.326,3.5q.025,14.892-.016,29.783c0,.545-.191,1.384-.561,1.581-1.369.728-2.867,1.773-4.286,1.729a6.243,6.243,0,0,1-6.055-4.59c-3.781-10.667-7.806-21.248-11.587-31.914-.586-1.656-1.537-1.516-2.779-1.6-1.438-.1-1.336,1.009-1.58,1.791-3.229,10.366-6.4,20.75-9.66,31.107-.816,2.591-1.706,5.281-5.343,4.984-.275-.023-.829.534-.833.826s.46.7.81.884a2.474,2.474,0,0,0,1.08.077c2.79,0,5.581.02,8.372-.008.813-.008,2.026.284,2.033-.965.007-1.193-1.188-.859-1.945-.9-1.866-.1-2.415-.734-1.916-2.5.853-3.03,1.741-6.051,2.708-9.046a1.644,1.644,0,0,1,1.222-.9q5.281-.108,10.567,0a1.6,1.6,0,0,1,1.189.806c1.111,2.75,2.177,5.521,3.155,8.32.74,2.119-.212,3.368-2.459,3.441-.663.022-1.6-.129-1.491.861.038.349.978.643,1.542.874a2.775,2.775,0,0,0,.953.021c4.88.045,9.76-.057,14.641-.006,2.836.03,5.674.052,8.508-.037.545-.017,1.453-.485,1.534-.88.19-.925-.734-.737-1.332-.865-2.433-.52-3.923-1.022-3.875-4.386.14-9.7.049-19.4.049-29.1v-1.82c.436.653.639.944.829,1.243q5.173,8.166,10.345,16.335c3.891,6.138,7.822,12.252,11.647,18.432a1.94,1.94,0,0,0,2.505.975c.391-.14.561-1.127.674-1.757a10.946,10.946,0,0,0,.025-1.918q0-15.508,0-31.018c0-2.2.912-3.165,3.095-3.335.32-.025.7.067.944-.077a3.294,3.294,0,0,0,.71-.827c-.252-.2-.5-.571-.758-.573q-5.489-.055-10.979,0c-.259,0-.514.372-.771.571.21.263.371.624.644.764a3.542,3.542,0,0,0,1.074.151,3.622,3.622,0,0,1,3.452,3.583C672.684,6418.017,672.678,6426.206,672.678,6434.769Zm30.084-9.883c1.284-.092,2.238-.147,3.189-.231A10.154,10.154,0,0,0,715.1,6414.3a10.4,10.4,0,0,0-9.782-9.555c-6.953-.074-13.908-.032-20.862.006-.43,0-.858.4-1.287.617.438.281.855.763,1.317.812,2.939.31,3.71,1.111,3.711,4.088,0,8.83.026,17.66-.024,26.49a12.06,12.06,0,0,1-.6,4.252c-.536,1.371-2.137,1.34-3.434,1.611a1.179,1.179,0,0,0-.677.841c-.033.219.351.615.633.739a3.117,3.117,0,0,0,1.207.157c3.523.011,7.046.02,10.568,0,.832-.006,2.038.2,2.133-.92.1-1.2-1.162-.871-1.889-.992-2.1-.353-3.165-1.329-3.2-3.435-.072-4.436-.029-8.875-.01-13.313a1.05,1.05,0,0,1,.342-.787c1.122-.68,4.288.066,5.03,1.136,3.988,5.747,7.965,11.5,11.984,17.228a2.336,2.336,0,0,0,1.424,1.038c2.557.1,5.123.085,7.683.006.4-.013.792-.551,1.188-.846-.385-.287-.783-.837-1.154-.819-2.546.123-4.219-1.265-5.622-3.111-2.962-3.9-5.886-7.82-8.825-11.732C704.273,6426.908,703.6,6426,702.762,6424.886Zm33.839,20.145c6.461-.087,11.581-2.938,14.673-8.929a25.024,25.024,0,0,0,1.409-20.8,16.414,16.414,0,0,0-16.03-11.293c-6.831.032-12.755,3.043-15.808,10.919a25.807,25.807,0,0,0,.25,19.5C723.833,6441.281,728.9,6444.91,736.6,6445.031Zm-144.736-40.3H585.83c-1.6,0-3.2-.029-4.8.029-.307.011-.6.365-.9.56a6.9,6.9,0,0,0,.843.857c.154.113.444.039.671.057,2.567.2,3.485,1.183,3.486,3.732q0,14.2,0,28.393c0,2.775-.761,3.635-3.462,4.154-.491.1-.908.576-1.359.879.475.324.932.891,1.428.928,1.637.121,3.289.055,4.935.052,2.331,0,4.665.035,6.993-.063.467-.02.913-.572,1.368-.878a10.129,10.129,0,0,0-1.314-.9,4.368,4.368,0,0,0-1.078-.162,3,3,0,0,1-2.71-3.216c-.02-4.3.006-8.6-.061-12.893-.018-1.131.328-1.514,1.471-1.493,3.336.059,6.676.071,10.012,0,6.194-.123,10.77-4.511,10.674-10.156-.095-5.608-4.841-9.888-10.967-9.889Zm242.281,40.827.084.426a53.446,53.446,0,0,0,7.2-1.892c4.929-2.026,7.044-6.832,5.537-11.945-1.093-3.709-3.836-5.938-7.129-7.523-4.029-1.938-8.181-3.624-12.2-5.583a24.6,24.6,0,0,1-4.993-3.289,4.349,4.349,0,0,1-1.256-2.737,5.412,5.412,0,0,1,4.425-5.643,14.19,14.19,0,0,1,12.989,2.938,48.392,48.392,0,0,1,4.174,4.669,3.654,3.654,0,0,0,1.112.568c.106-.269.352-.573.295-.8-.686-2.74-1.374-5.482-2.179-8.188a1.76,1.76,0,0,0-1.284-.929,1.487,1.487,0,0,0-1.2.8c-.481,1.554-1.247,1.006-2.166.488a16.156,16.156,0,0,0-16.454-.163,7.006,7.006,0,0,0-3.761,7.731,10.975,10.975,0,0,0,5.828,8.04c2.937,1.644,6.1,2.878,9.155,4.323a70.119,70.119,0,0,1,7.351,3.635,6.937,6.937,0,0,1,3.421,7.128,6.379,6.379,0,0,1-5.723,5.169,25.906,25.906,0,0,1-7.73-.4c-4.855-1.027-8.051-4.436-10.741-8.391-.264-.388-.812-.585-1.227-.87a4.08,4.08,0,0,0-.257,1.492c.647,2.844,1.33,5.682,2.117,8.49.166.59.815,1.044,1.242,1.561a6.353,6.353,0,0,0,1.408-1.258c.724-1.2,1.274-1.468,2.4-.659A15.349,15.349,0,0,0,834.146,6445.553Zm-23.409-1.187v-.005c2.059,0,4.12.046,6.175-.04.39-.017.757-.56,1.135-.86-.363-.284-.694-.752-1.094-.823a5.675,5.675,0,0,1-4.7-3.887c-3.989-10.931-8.033-21.843-11.951-32.8-.554-1.55-1.573-1.112-2.586-1.239-1.066-.134-1.267.53-1.511,1.323q-3.825,12.426-7.7,24.839c-.939,3-1.9,6-3,8.943-.621,1.673-1.748,2.888-3.82,2.686-.68-.067-1.573,0-1.381.985.072.369.9.828,1.39.84,3.109.076,6.221.045,9.332.033.688,0,1.513.016,1.512-.955,0-1-.873-.952-1.529-.9-2.448.174-2.807-.85-2.184-3.084.772-2.768,1.677-5.5,2.444-8.268a1.34,1.34,0,0,1,1.536-1.158q5.077.049,10.156,0a1.348,1.348,0,0,1,1.517,1.015c.959,2.71,2.012,5.386,3.005,8.084.794,2.16-.124,3.459-2.446,3.519-.673.018-1.594-.107-1.491.865.036.348,1,.818,1.557.851C806.982,6444.432,808.861,6444.366,810.737,6444.366ZM774,6424.911c0-4.8-.01-9.608.005-14.412.006-2.062.651-2.654,2.714-2.738a10.948,10.948,0,0,1,8.852,3.583c1.116,1.2,2.024,2.591,3.112,3.819.286.324.893.365,1.353.536.1-.448.4-.975.261-1.331-1.153-2.98-2.346-5.946-3.62-8.875a1.469,1.469,0,0,0-2.259-.764,5.3,5.3,0,0,1-2.248.662q-10.224.076-20.45,0a4.877,4.877,0,0,1-2.326-.771c-1.145-.692-1.944-.557-2.532.708-.558,1.2-1.062,2.427-1.594,3.64-.661,1.505-1.4,2.982-1.951,4.525-.175.489.127,1.149.21,1.731a5.043,5.043,0,0,0,1.579-.734c.7-.71,1.2-1.615,1.845-2.38,2.167-2.556,4.742-4.484,8.224-4.659,2.645-.133,3.877.379,3.872,2.578-.023,9.791-.005,19.582-.014,29.372a3.012,3.012,0,0,1-2.985,3.244c-.507.063-.963.532-1.443.814.481.3.956.858,1.443.868q5.625.109,11.253,0c.491-.009.972-.558,1.457-.857-.484-.287-.945-.761-1.458-.827-2.147-.275-3.293-1.441-3.3-3.592C773.989,6434.336,774,6429.623,774,6424.911Z"/><path d="M672.678,6434.769c0-8.563.006-16.752,0-24.94a3.622,3.622,0,0,0-3.452-3.583,3.542,3.542,0,0,1-1.074-.151c-.273-.14-.434-.5-.644-.764.257-.2.512-.568.771-.571q5.49-.058,10.979,0c.255,0,.506.373.758.573a3.294,3.294,0,0,1-.71.827c-.244.144-.624.052-.944.077-2.183.17-3.093,1.137-3.095,3.335q-.008,15.51,0,31.018a10.946,10.946,0,0,1-.025,1.918c-.113.63-.283,1.617-.674,1.757a1.94,1.94,0,0,1-2.505-.975c-3.825-6.18-7.756-12.294-11.647-18.432q-5.175-8.166-10.345-16.335c-.19-.3-.393-.59-.829-1.243v1.82c0,9.7.091,19.4-.049,29.1-.048,3.364,1.442,3.866,3.875,4.386.6.128,1.522-.06,1.332.865-.081.4-.989.863-1.534.88-2.834.089-5.672.067-8.508.037-4.881-.051-9.761.051-14.641.006a2.775,2.775,0,0,1-.953-.021c-.564-.231-1.5-.525-1.542-.874-.106-.99.828-.839,1.491-.861,2.247-.073,3.2-1.322,2.459-3.441-.978-2.8-2.044-5.57-3.155-8.32a1.6,1.6,0,0,0-1.189-.806q-5.283-.1-10.567,0a1.644,1.644,0,0,0-1.222.9c-.967,3-1.855,6.016-2.708,9.046-.5,1.77.05,2.4,1.916,2.5.757.041,1.952-.293,1.945.9-.007,1.249-1.22.957-2.033.965-2.791.028-5.582.013-8.372.008a2.474,2.474,0,0,1-1.08-.077c-.35-.184-.814-.583-.81-.884s.558-.849.833-.826c3.637.3,4.527-2.393,5.343-4.984,3.259-10.357,6.431-20.741,9.66-31.107.244-.782.142-1.89,1.58-1.791,1.242.087,2.193-.053,2.779,1.6,3.781,10.666,7.806,21.247,11.587,31.914a6.243,6.243,0,0,0,6.055,4.59c1.419.044,2.917-1,4.286-1.729.37-.2.559-1.036.561-1.581q.049-14.891.016-29.783a3.467,3.467,0,0,0-3.326-3.5c-.182-.013-.416.057-.539-.033a13.445,13.445,0,0,1-1.018-.89c.359-.188.715-.529,1.079-.538a63.932,63.932,0,0,0,6.444-.077c3.114-.393,4.852.8,6.484,3.493,5.18,8.563,10.7,16.918,16.1,25.351C672.026,6433.855,672.265,6434.175,672.678,6434.769Zm-45.83-7.036-5.8-15.784-.28.058c-1.586,5.209-3.171,10.417-4.787,15.726Z" fill="#fff"/><path d="M702.762,6424.886c.836,1.117,1.511,2.022,2.189,2.925,2.939,3.912,5.863,7.836,8.825,11.732,1.4,1.846,3.076,3.234,5.622,3.111.371-.018.769.532,1.154.819-.4.295-.784.833-1.188.846-2.56.079-5.126.1-7.683-.006a2.336,2.336,0,0,1-1.424-1.038c-4.019-5.726-8-11.481-11.984-17.228-.742-1.07-3.908-1.816-5.03-1.136a1.05,1.05,0,0,0-.342.787c-.019,4.438-.062,8.877.01,13.313.035,2.106,1.1,3.082,3.2,3.435.727.121,1.991-.207,1.889.992-.095,1.12-1.3.914-2.133.92-3.522.023-7.045.014-10.568,0a3.117,3.117,0,0,1-1.207-.157c-.282-.124-.666-.52-.633-.739a1.179,1.179,0,0,1,.677-.841c1.3-.271,2.9-.24,3.434-1.611a12.06,12.06,0,0,0,.6-4.252c.05-8.83.027-17.66.024-26.49,0-2.977-.772-3.778-3.711-4.088-.462-.049-.879-.531-1.317-.812.429-.215.857-.615,1.287-.617,6.954-.038,13.909-.08,20.862-.006a10.4,10.4,0,0,1,9.782,9.555,10.154,10.154,0,0,1-9.148,10.352C705,6424.739,704.046,6424.794,702.762,6424.886Zm-4.217-3v-.1c1.828,0,3.663.1,5.482-.029a5.8,5.8,0,0,0,4.592-2.87c2.8-4.408.2-10.9-4.946-11.79a43.957,43.957,0,0,0-8.469-.2,2.321,2.321,0,0,0-2.176,2.4c-.068,3.839-.076,7.68-.159,11.519-.019.893.38,1.091,1.147,1.078C695.525,6421.87,697.035,6421.888,698.545,6421.888Z" fill="#fff"/><path d="M736.6,6445.031c-7.7-.121-12.768-3.75-15.506-10.6a25.807,25.807,0,0,1-.25-19.5c3.053-7.876,8.977-10.887,15.808-10.919a16.414,16.414,0,0,1,16.03,11.293,25.024,25.024,0,0,1-1.409,20.8C748.182,6442.093,743.062,6444.944,736.6,6445.031Zm-12.288-20.236a48.069,48.069,0,0,0,.455,5.582,24.872,24.872,0,0,0,1.754,5.86c2.078,4.42,5.794,6.46,10.61,6.348,4.707-.109,7.83-2.627,9.657-6.868a28.722,28.722,0,0,0,2.078-9.855,27.117,27.117,0,0,0-2.088-13.1,9.852,9.852,0,0,0-6.627-5.7c-5.872-1.563-10.838.683-13.556,6.143A25.546,25.546,0,0,0,724.313,6424.795Z" fill="#fff"/><path d="M591.865,6404.726h9.19c6.126,0,10.872,4.281,10.967,9.889.1,5.645-4.48,10.033-10.674,10.156-3.336.066-6.676.054-10.012,0-1.143-.021-1.489.362-1.471,1.493.067,4.3.041,8.6.061,12.893a3,3,0,0,0,2.71,3.216,4.368,4.368,0,0,1,1.078.162,10.129,10.129,0,0,1,1.314.9c-.455.306-.9.858-1.368.878-2.328.1-4.662.059-6.993.063-1.646,0-3.3.069-4.935-.052-.5-.037-.953-.6-1.428-.928.451-.3.868-.784,1.359-.879,2.7-.519,3.462-1.379,3.462-4.154q0-14.2,0-28.393c0-2.549-.919-3.528-3.486-3.732-.227-.018-.517.056-.671-.057a6.9,6.9,0,0,1-.843-.857c.3-.195.6-.549.9-.56,1.6-.058,3.2-.029,4.8-.029Zm-1.942,10.238h-.034c0,1.921.011,3.842-.007,5.763-.006.672.092,1.171.939,1.159,3.382-.045,6.769.012,10.147-.132a5.638,5.638,0,0,0,4.427-2.668c3-4.358.356-11.142-4.869-12.006a43.63,43.63,0,0,0-8.337-.2c-1.469.043-2.26,1.2-2.265,2.732C589.918,6411.4,589.923,6413.18,589.923,6414.964Z" fill="#fff"/><path d="M834.146,6445.553a15.349,15.349,0,0,1-9.555-2.817c-1.126-.809-1.676-.544-2.4.659a6.353,6.353,0,0,1-1.408,1.258c-.427-.517-1.076-.971-1.242-1.561-.787-2.808-1.47-5.646-2.117-8.49a4.08,4.08,0,0,1,.257-1.492c.415.285.963.482,1.227.87,2.69,3.955,5.886,7.364,10.741,8.391a25.906,25.906,0,0,0,7.73.4,6.379,6.379,0,0,0,5.723-5.169,6.937,6.937,0,0,0-3.421-7.128,70.119,70.119,0,0,0-7.351-3.635c-3.052-1.445-6.218-2.679-9.155-4.323a10.975,10.975,0,0,1-5.828-8.04,7.006,7.006,0,0,1,3.761-7.731,16.156,16.156,0,0,1,16.454.163c.919.518,1.685,1.066,2.166-.488a1.487,1.487,0,0,1,1.2-.8,1.76,1.76,0,0,1,1.284.929c.8,2.706,1.493,5.448,2.179,8.188.057.228-.189.532-.295.8a3.654,3.654,0,0,1-1.112-.568,48.392,48.392,0,0,0-4.174-4.669,14.19,14.19,0,0,0-12.989-2.938,5.412,5.412,0,0,0-4.425,5.643,4.349,4.349,0,0,0,1.256,2.737,24.6,24.6,0,0,0,4.993,3.289c4.018,1.959,8.17,3.645,12.2,5.583,3.293,1.585,6.036,3.814,7.129,7.523,1.507,5.113-.608,9.919-5.537,11.945a53.446,53.446,0,0,1-7.2,1.892Z" fill="#fff"/><path d="M810.737,6444.366c-1.876,0-3.755.066-5.625-.04-.56-.033-1.521-.5-1.557-.851-.1-.972.818-.847,1.491-.865,2.322-.06,3.24-1.359,2.446-3.519-.993-2.7-2.046-5.374-3.005-8.084a1.348,1.348,0,0,0-1.517-1.015q-5.077.042-10.156,0a1.34,1.34,0,0,0-1.536,1.158c-.767,2.77-1.672,5.5-2.444,8.268-.623,2.234-.264,3.258,2.184,3.084.656-.047,1.529-.1,1.529.9,0,.971-.824.952-1.512.955-3.111.012-6.223.043-9.332-.033-.492-.012-1.318-.471-1.39-.84-.192-.983.7-1.052,1.381-.985,2.072.2,3.2-1.013,3.82-2.686,1.1-2.946,2.06-5.943,3-8.943q3.887-12.408,7.7-24.839c.244-.793.445-1.457,1.511-1.323,1.013.127,2.032-.311,2.586,1.239,3.918,10.957,7.962,21.869,11.951,32.8a5.675,5.675,0,0,0,4.7,3.887c.4.071.731.539,1.094.823-.378.3-.745.843-1.135.86-2.055.086-4.116.04-6.175.04Zm-13.483-32.832L792.34,6427.7h10.853C801.216,6422.318,799.293,6417.084,797.254,6411.534Z" fill="#fff"/><path d="M774,6424.911c0,4.712-.007,9.425,0,14.137,0,2.151,1.15,3.317,3.3,3.592.513.066.974.54,1.458.827-.485.3-.966.848-1.457.857q-5.625.108-11.253,0c-.487-.01-.962-.565-1.443-.868.48-.282.936-.751,1.443-.814a3.012,3.012,0,0,0,2.985-3.244c.009-9.79-.009-19.581.014-29.372,0-2.2-1.227-2.711-3.872-2.578-3.482.175-6.057,2.1-8.224,4.659-.65.765-1.145,1.67-1.845,2.38a5.043,5.043,0,0,1-1.579.734c-.083-.582-.385-1.242-.21-1.731.555-1.543,1.29-3.02,1.951-4.525.532-1.213,1.036-2.439,1.594-3.64.588-1.265,1.387-1.4,2.532-.708a4.877,4.877,0,0,0,2.326.771q10.226.088,20.45,0a5.3,5.3,0,0,0,2.248-.662,1.469,1.469,0,0,1,2.259.764c1.274,2.929,2.467,5.9,3.62,8.875.138.356-.164.883-.261,1.331-.46-.171-1.067-.212-1.353-.536-1.088-1.228-2-2.619-3.112-3.819a10.948,10.948,0,0,0-8.852-3.583c-2.063.084-2.708.676-2.714,2.738C773.986,6415.3,774,6420.107,774,6424.911Z" fill="#fff"/><path d="M626.848,6427.733h-10.87c1.616-5.309,3.2-10.517,4.787-15.726l.28-.058Z"/><path d="M698.545,6421.888c-1.51,0-3.02-.018-4.529.007-.767.013-1.166-.185-1.147-1.078.083-3.839.091-7.68.159-11.519a2.321,2.321,0,0,1,2.176-2.4,43.957,43.957,0,0,1,8.469.2c5.148.889,7.744,7.382,4.946,11.79a5.8,5.8,0,0,1-4.592,2.87c-1.819.134-3.654.029-5.482.029Z"/><path d="M724.313,6424.795A25.546,25.546,0,0,1,726.6,6413.2c2.718-5.46,7.684-7.706,13.556-6.143a9.852,9.852,0,0,1,6.627,5.7,27.117,27.117,0,0,1,2.088,13.1,28.722,28.722,0,0,1-2.078,9.855c-1.827,4.241-4.95,6.759-9.657,6.868-4.816.112-8.532-1.928-10.61-6.348a24.872,24.872,0,0,1-1.754-5.86A48.069,48.069,0,0,1,724.313,6424.795Z"/><path d="M589.923,6414.964c0-1.784,0-3.567,0-5.351.005-1.534.8-2.689,2.265-2.732a43.63,43.63,0,0,1,8.337.2c5.225.864,7.87,7.648,4.869,12.006a5.638,5.638,0,0,1-4.427,2.668c-3.378.144-6.765.087-10.147.132-.847.012-.945-.487-.939-1.159.018-1.921.007-3.842.007-5.763Z"/><path d="M797.254,6411.534c2.039,5.55,3.962,10.784,5.939,16.162H792.34Z"/></g></svg>