<svg xmlns="http://www.w3.org/2000/svg" width="95.905" height="126.223" viewBox="0 0 95.905 126.223"><g transform="translate(-1480.796 -5967.683)" opacity="0.3"><path d="M1527.925,5967.683h2.058a5.537,5.537,0,0,0,.675.148c1.942.188,3.9.272,5.825.564a47.687,47.687,0,0,1,39.391,38.6c.36,2.117.556,4.263.827,6.4v4.324a6.714,6.714,0,0,0-.144.789,46.7,46.7,0,0,1-7.545,23.085c-.159.244-.291.506-.527.918h6.8v51.1h-92.943v-51.174h6.824a1.466,1.466,0,0,0-.06-.306c-.081-.15-.174-.294-.266-.438a47.674,47.674,0,0,1-6.959-34.447c3.4-20.717,21.083-37.22,41.886-39.157C1525.153,5967.957,1526.539,5967.818,1527.925,5967.683Zm20.612,33.579-.031-.025c.45.875.89,1.756,1.355,2.623.278.519.6,1.018.9,1.526l.467-.209a16.466,16.466,0,0,0-.558-2.526c-.631-1.636,1.031-2.676.956-4.141,1.631-1.314,1.693-2.94.9-4.708a.789.789,0,0,1,.391-1.173,2.808,2.808,0,0,0,.987-1,34.635,34.635,0,0,0,1.527-3.248,4.5,4.5,0,0,0,.222-3.394,1.644,1.644,0,1,0-3.179.785,2.127,2.127,0,0,1-.593,2.054,7.047,7.047,0,0,0-1.881,3.245,1.966,1.966,0,0,1-.707,1.093,3.255,3.255,0,0,0-1.3,3.252,5.071,5.071,0,0,1-.485,1.549c-.52-.882-.72-1.621-1.2-1.946a2.682,2.682,0,0,1-1.1-2.062c-.166-.992.032-1.253,1.091-1.3a3.023,3.023,0,0,0,.684-.213l-2.024-2.684c-.049.581.069,1.148-.158,1.484-.506.751-1.241.363-1.838.057a4.356,4.356,0,0,1-.9-.855l1.081-.771c-1.013-.318-1.977-.591-2.918-.929a9.422,9.422,0,0,1-1.251-.674l.929-1.3c-.525.236-.86.354-1.162.528-.932.537-3.387-.388-3.4-1.414-.012-.839-.514-.806-.976-1.033-.774-.381-1.449.453-1.968.308-1.208-.336-2.773.964-3.642-1.113a2.3,2.3,0,0,0,.934,2.783c.947.622.961.891.279,1.671l.687,1.08-.145.287-1.521-.25-1.454,1.028.03.04c-.333-.37-.607-.958-1.011-1.069-1.272-.347-1.541-.686-1.173-1.975-.722-.362-3.267.021-4.556.652.131.089.465.223.456.33a.9.9,0,0,1-.343.654,3.045,3.045,0,0,0-1.545,2.041,2.509,2.509,0,0,1-2.511,1.679,21.616,21.616,0,0,1,1.095-2.205,22.793,22.793,0,0,1,1.619-2,5.119,5.119,0,0,1-.807-.05c-.411-.111-.813-.258-1.219-.389.319-.345.578-.806.97-1.006.633-.323,1.373-.427,2.032-.709,1.121-.479,1.165-1.138.1-2-.257.3-.533.594-.774.913a4.388,4.388,0,0,1-2.483,1.51,32.549,32.549,0,0,0-3.775,1.457c-.237.1-.58.527-.526.65.452,1.027-.3,1.589-.759,2.288a4.771,4.771,0,0,0-.385,1.016,17.342,17.342,0,0,1-.8,2.132,1.065,1.065,0,0,1-.924.371c-.21-.035-.443-.48-.495-.772-.087-.5.038-1.041-.063-1.537a5.867,5.867,0,0,0-3.732-4.67,2.286,2.286,0,0,1-.929-.614c-.964-1.17-2.215-1.17-3.544-.99-.523.071-1.056.069-1.7.107.514-1.371,1.791-.447,2.418-1.092a2.58,2.58,0,0,0-2.767.074c-1.518.842-2.745,3.795-1.979,5.331a28.077,28.077,0,0,0,2.64,3.9,1.988,1.988,0,0,0,.956.567c.938.318,1.137.772.627,1.693-.314.57-.625,1.508-.367,1.942a3.168,3.168,0,0,0,1.972,1.488c1.966.221,3.351.764,2.994,3.336a6.413,6.413,0,0,1,.5-.448c.553-.359,1.14-.8,1.723-.117s.158,1.164-.367,1.657c-.314.295-.733.714-.727,1.071.022,1.2-.783,1.433-1.648,1.7-.612.191-.973-.008-.949-.64a11.145,11.145,0,0,1,.271-1.578,8.627,8.627,0,0,0-.877,4.841,59.727,59.727,0,0,0,.847,6.6,1.773,1.773,0,0,1-.494,1.655c-1.079,1.193-2.1,2.442-3.1,3.7a6.033,6.033,0,0,0-.575,1.156,4.084,4.084,0,0,0,.9-1.03,23.581,23.581,0,0,1,2.258-2.489c.5-.447,1.262-.78,1.507.382.016.077.174.152.278.177a4.641,4.641,0,0,1,3.221,4.286l-2.557-.88a13.224,13.224,0,0,0,1.814,1.129c.572.342,1.1.756,1.875,1.295l-4.552,1.181c3.443-.43,4.512-.307,5.028.831-2,.537-4.256.368-6.016,2.23,1.77-.939,3.341-1.727,5.126-1.014l.133.409-2.633,1.013h2.319c-.172,1.045-1.04.68-1.561.923-.57.266-1.178.451-1.769.671,1.257-.208,2.445-.7,4-.063l-2.792,2.05c1.321-.5,2.194-1.766,3.917-.889l-2.669,2.2c.255-.086.46-.3.7-.355a12.921,12.921,0,0,1,1.438-.172c.008.386.01.773.026,1.159.015.355-.083.93.088,1.029,1.222.706.938,1.852,1.007,2.923a2.2,2.2,0,0,0,.376,1.2,8.4,8.4,0,0,0,1.744,1.658,2.636,2.636,0,0,0,1.525.288c.187-.01.335-.522.524-.789a17.144,17.144,0,0,1,1.6-2.156c.363-.371.9-.308,1.055.4a4.855,4.855,0,0,0,.293.876c.676,1.582,1.229,1.919,2.919,1.705a.954.954,0,0,0,.66-.459c.458-1.07.863-1.167,1.6-.238.505.64.952.629,1.386,0,.6-.867,1.263-.747,2.028-.25a2.727,2.727,0,0,0,.933.325c.471.1.953.135,1.566.217,1-1.715,1.959-.339,2.975.463a7.431,7.431,0,0,1,.7-1.987,3.637,3.637,0,0,1,1.727-1.386c.5-.13,1.246.334,1.741.717.271.209.326.794.346,1.216.067,1.393.044,1.4,1.474,1.408.857.006,1.72-.065,2.571.006,1.593.132,3-.1,3.969-1.55a2.06,2.06,0,0,1,.638-.511c.628-.4,1.043-.2,1.214.5.375,1.544.37,1.567,1.911,1.542,2.342-.039,1.97.456,2.733-2.073.641-2.126,2.008-3.056,3.907-2.841a20.1,20.1,0,0,1-.81-2.84c-.049-.318.473-.874.859-1.057.26-.123.771.164,1.11.367.249.149.381.481.6.694a2.3,2.3,0,0,0,2.7.122c.516-.508,1.063-.985,1.592-1.471a4.356,4.356,0,0,0-2.4-2.406c-1.225-.665-1.9-.552-2.535.713a3.569,3.569,0,0,1-.911,1.205,1.272,1.272,0,0,1-1.095.187,1.147,1.147,0,0,1-.552-.946,13.032,13.032,0,0,1,.925-2.783,2.427,2.427,0,0,1,3.156-1.375,9.532,9.532,0,0,0,1.89.464,3.345,3.345,0,0,1,3.26,1.929c.449,1.151,1.4,2.5.139,3.81-.087.091-.039.323-.035.488.03,1.274-1.219,2.941-2.439,2.791-1.3-.16-2.135.747-3.383.79.637.491,1.155.877,1.659,1.282,1.51,1.213,1.611,1.2,2.739-.449a25.642,25.642,0,0,0,3.268-6.47,1.983,1.983,0,0,0-.1-1.912c-.733-1.172-.457-2.121.547-3.094a5.95,5.95,0,0,0,1.258-1.807c1.341-2.986,1.371-5.917-.691-8.625a3.189,3.189,0,0,1-.717-2.16c.046-1.623-.188-1.708-1.631-1.069a2.059,2.059,0,0,1-1.6-.079c-.214-.113-.129-.912-.067-1.386a5,5,0,0,1,.411-1.106l.2-.389c-2.839.972-2.792-1.111-3.306-2.619.157,1.514.124,3.04,1.739,3.843.2.1.267.893.1,1.209-.418.789-1.291.833-2.241.233a5.347,5.347,0,0,1-2.379-5.909c.286-1.587.12-2.67-1.467-3.273-.049-.019-.1-.021-.079-.016a6.054,6.054,0,0,1,.135,2.1c-.323,1.073-1.246-.056-1.869.3.107.323.218.644.319.967a2.522,2.522,0,0,1-1.116,3.163,3.446,3.446,0,0,1-3.854-.169,1.33,1.33,0,0,1,.115-2.247l1.09,1.555c.112-.279.257-.457.216-.565-.34-.887-.736-1.754-1.073-2.642s-.61-1.773-.925-2.656a2,2,0,0,0-.369-.789c-.831-.775-1.752-1.46-2.53-2.281-.2-.21,0-.8.019-1.214a3.662,3.662,0,0,1,.958.212C1547.461,6000.539,1547.991,6000.917,1548.537,6001.262Zm-47.717,25.3-.362-.1c.13-.941.372-1.9-.561-2.574-.1-.075,0-.454.031-.688a8.421,8.421,0,0,1,2.754-5.138,3.3,3.3,0,0,0,1.073-3.611.848.848,0,0,1-.017-.1c-.248-2.965-.706-5.933-.667-8.894a6.278,6.278,0,0,0-1.808-4.374,17.126,17.126,0,0,1-2-2.577c-.843-1.523-1.524-3.138-2.233-4.731-.41-.923-.743-1.88-1.161-2.949-.276.338-.475.557-.649.8a39.406,39.406,0,0,0-7.611,22.226,39.918,39.918,0,0,0,9.448,27.962,1.9,1.9,0,0,0,1.27.609c3.8.06,7.609.056,11.414.066.331,0,.663-.035,1.111-.059l-.988-7.334-4.035,3.324-.1-2.037c-.457.586-.745.913-.986,1.271-.727,1.081-1.433,2.175-2.153,3.261-.306.461-.662.8-1.315.369.483-3.247,2.357-5.787,4.373-8.256l-.209-.287-2.667.713-.845-1.738c.191-.449.48-1.1.745-1.764.1-.237.255-.66.174-.723-.7-.539-.2-1.075-.009-1.562a4.5,4.5,0,0,1,3.536-2.651c.351-.086.7-.157,1.059-.235a8.681,8.681,0,0,0-1.845-1.349c-1.7-1.059-1.7-1.067-2.887.538C1502.071,6024.829,1501.449,6025.7,1500.82,6026.566Zm3.152-43.9c.068,1.142,1.017.725,1.554,1.021,1.787.985,3.59,1.946,5.34,2.994.528.317.827.4,1.315-.049a19.412,19.412,0,0,1,13.185-5.335c3.2-.053,6.439-.349,9.59.611,1.3.4,2.642.663,3.936,1.08a15.183,15.183,0,0,1,6.248,3.362c.634.625,1.012.593,1.529-.122,1.6-2.209,3.486-3.973,6.477-3.868.019,0,.04-.052.06-.079C1540.757,5972.174,1518.884,5970.765,1503.972,5982.664Zm53.258,2.963a5.2,5.2,0,0,0-.261,1.4c.2,1.771-.8,3.214-1.233,4.807-.609,2.247-1.312,4.468-1.916,6.715a1.052,1.052,0,0,0,.376.917,25.715,25.715,0,0,1,6.646,5.767c2.768,3.206,5.357,6.568,8.026,9.86.37.457.764.895,1.229,1.436C1571.7,6008.036,1564.037,5989.664,1557.23,5985.627Zm-29.262,65.258c-.352-.6-.563-.936-.746-1.284-.464-.879-.859-1.8-1.4-2.627a1.669,1.669,0,0,0-1.115-.464c-.1-.012-.381.569-.387.88q-.054,2.931,0,5.864c.005.264.273.523.419.785.137-.27.386-.537.394-.811.04-1.4.013-2.811.022-4.217,0-.412.048-.823.073-1.235a17.765,17.765,0,0,1,1.664,2.674,13.057,13.057,0,0,0,.991,1.331,14.886,14.886,0,0,0,.987-1.362c.513-.892.966-1.819,1.445-2.731l.306.094c.02.322.054.643.055.965.007,1.406-.027,2.813.024,4.217a.606.606,0,1,0,.819.045c.038-1.817.043-3.636,0-5.452-.01-.371-.188-.945-.449-1.06-.582-.256-.994.125-1.265.7C1529.271,6048.343,1528.683,6049.46,1527.968,6050.885Zm20.013-.733c0,1.027-.046,2.058.029,3.08.022.292.4.8.6.8a17.916,17.916,0,0,0,3.659-.294c1.723-.392,2.6-1.872,2.529-3.842a3.371,3.371,0,0,0-2.817-3.211c-1.037-.178-2.107-.164-3.162-.245-.615-.047-.868.216-.849.838C1548,6048.233,1547.981,6049.193,1547.981,6050.152Zm-43.377.663c.393-.306.608-.472.822-.64a2.02,2.02,0,0,0,.754-2.2,1.739,1.739,0,0,0-1.635-1.349,27.258,27.258,0,0,0-2.863-.154c-.209,0-.594.323-.6.5-.041,2.195-.036,4.391-.009,6.587,0,.162.265.321.406.481.138-.165.369-.317.394-.5a10.581,10.581,0,0,0,.028-1.336c.01-1.155.839-1.647,1.87-1.089a2.141,2.141,0,0,1,.513.49c.594.664,1.146,1.371,1.785,1.988a4.165,4.165,0,0,0,1.124.558l.173-.275Zm-11.909-.43-.01.494a7.723,7.723,0,0,1,1.327.142c.307.085.74.289.816.533.364,1.174-.007,1.739-1.229,1.882a6.318,6.318,0,0,1-1.919-.05,3.025,3.025,0,0,1-2.27-2.957,3.146,3.146,0,0,1,1.88-3.216,4.872,4.872,0,0,1,3.5.183,2.394,2.394,0,0,0,.883-.046c-.219-.217-.415-.587-.662-.625a16.293,16.293,0,0,0-3.044-.283,3.562,3.562,0,0,0-3.455,3.428c-.184,2.05.863,3.774,2.783,4.075a14.465,14.465,0,0,0,3.74-.207.959.959,0,0,0,.657-.639,13.959,13.959,0,0,0,.015-2.257c-.008-.157-.212-.431-.335-.437C1494.48,6050.368,1493.587,6050.385,1492.695,6050.385Zm70.143-3.99c-2.468,0-3.716,1.3-3.766,3.818-.048,2.456,1.258,3.949,3.762,4.013,2.311.058,3.709-1.507,3.712-3.958C1566.549,6047.737,1565.267,6046.4,1562.838,6046.4Zm-44.345,7.795.408-.3c-.927-2.347-1.824-4.707-2.8-7.033a.885.885,0,0,0-1.614.115c-.415.938-.76,1.906-1.131,2.862q-.789,2.035-1.573,4.072l.342.244c.247-.3.633-.564.715-.9a1.673,1.673,0,0,1,2.164-1.431,2.292,2.292,0,0,0,.717,0,1.593,1.593,0,0,1,2.016,1.346C1517.841,6053.545,1518.232,6053.85,1518.493,6054.19Zm23.66.007.408-.293c-.926-2.348-1.837-4.7-2.805-7.032a.952.952,0,0,0-.814-.394,1.215,1.215,0,0,0-.811.587c-.493,1.09-.9,2.219-1.336,3.334-.456,1.165-.91,2.33-1.389,3.553.986.269,1.064-.443,1.175-.885a1.465,1.465,0,0,1,1.861-1.253,3.111,3.111,0,0,0,.923,0,1.6,1.6,0,0,1,2.02,1.344C1541.493,6053.546,1541.889,6053.853,1542.153,6054.2Zm-37.727-32.626.189.457,2.6-.149.126-.321c-.468-.341-.947-.967-1.4-.949C1505.421,6020.63,1504.928,6021.226,1504.426,6021.571Zm50.835-17.981c-.24-2.3-.24-2.3-1.591-2.705,1.208.643.678,1.107.218,1.549Zm-2.468-.95-.353.051c-.278.92.441,1.549.673,2.321l.3-.087Zm-.82,5.818.46-.23-.68-1.346-.439.218Z"/><path d="M1527.925,5967.683c-1.386.135-2.772.274-4.159.4-20.8,1.937-38.491,18.44-41.886,39.157a47.674,47.674,0,0,0,6.959,34.447c.092.144.185.288.266.438a1.466,1.466,0,0,1,.06.306h-6.824v51.174h92.943v-51.1h-6.8c.236-.412.368-.674.527-.918a46.7,46.7,0,0,0,7.545-23.085,6.714,6.714,0,0,1,.144-.789v76.187H1480.8V5967.683Z" fill="#fff"/><path d="M1576.7,6013.4c-.271-2.133-.467-4.279-.827-6.4a47.687,47.687,0,0,0-39.391-38.6c-1.926-.292-3.883-.376-5.825-.564a5.537,5.537,0,0,1-.675-.148H1576.7Z" fill="#fff"/><path d="M1527.534,5989.653l1.454-1.028,1.521.25.145-.287-.687-1.08c.682-.78.668-1.049-.279-1.671a2.3,2.3,0,0,1-.934-2.783c.869,2.077,2.434.777,3.642,1.113.519.145,1.194-.689,1.968-.308.462.227.964.194.976,1.033.015,1.026,2.47,1.951,3.4,1.414.3-.174.637-.292,1.162-.528l-.929,1.3a9.422,9.422,0,0,0,1.251.674c.941.338,1.905.611,2.918.929l-1.081.771a4.356,4.356,0,0,0,.9.855c.6.306,1.332.694,1.838-.057.227-.336.109-.9.158-1.484l2.024,2.684a3.023,3.023,0,0,1-.684.213c-1.059.044-1.257.3-1.091,1.3a2.682,2.682,0,0,0,1.1,2.062c.479.325.679,1.064,1.2,1.946a5.071,5.071,0,0,0,.485-1.549,3.255,3.255,0,0,1,1.3-3.252,1.966,1.966,0,0,0,.707-1.093,7.047,7.047,0,0,1,1.881-3.245,2.127,2.127,0,0,0,.593-2.054,1.644,1.644,0,1,1,3.179-.785,4.5,4.5,0,0,1-.222,3.394,34.635,34.635,0,0,1-1.527,3.248,2.808,2.808,0,0,1-.987,1,.789.789,0,0,0-.391,1.173c.791,1.768.729,3.394-.9,4.708.075,1.465-1.587,2.505-.956,4.141a16.466,16.466,0,0,1,.558,2.526l-.467.209c-.3-.508-.617-1.007-.9-1.526-.465-.867-.9-1.748-1.356-2.623.839-.059.92-.5.486-1.087-.782-1.059-1.613-2.082-2.4-3.136a1.388,1.388,0,0,1-.133-.553,2.362,2.362,0,0,0-2.541-1.944l.906,1.773a8.173,8.173,0,0,0-1.362-.893c-.618-.255-.995.072-1,.737a2.05,2.05,0,0,1-3.056,1.9c-1.537-.8-3.013-1.712-4.5-2.6-.466-.279-1.006-.617-1.324-.04-.173.313.064.922.249,1.339a1.242,1.242,0,0,0,.736.482,3.245,3.245,0,0,1,2.094,2.761c-.083,1.117-.4,2.218-.454,3.333a30.046,30.046,0,0,0,.228,3.362c.564-.232,1.107-.462,1.656-.675a1.942,1.942,0,0,1,.638-.165c1.15-.022,2.3-.026,3.45-.021.216,0,.574,0,.626.117.534,1.164,1.389.675,2.081.339a5.993,5.993,0,0,0,1.292-1.189c-.47-.33-.934-.669-1.415-.983a1.821,1.821,0,0,0-.5-.139,2.377,2.377,0,0,0,.044-3.539,11.755,11.755,0,0,1-1.094-1.73c1.819-.794,2.031-1.161,1.58-2.42l.83.749a5.217,5.217,0,0,0-.455.957c-.132.547.078,1.1.689.9.915-.313,1.208.226,1.584.8.353.541.73,1.066,1.1,1.6-.547-.346-1.077-.724-1.648-1.023a3.662,3.662,0,0,0-.958-.212c-.018.415-.218,1-.019,1.214.778.821,1.7,1.506,2.53,2.281a2,2,0,0,1,.369.789c.315.883.592,1.78.925,2.656s.733,1.755,1.073,2.642c.041.108-.1.286-.216.565l-1.09-1.555a1.33,1.33,0,0,0-.115,2.247,3.446,3.446,0,0,0,3.854.169,2.522,2.522,0,0,0,1.116-3.163c-.1-.323-.212-.644-.319-.967.623-.357,1.546.772,1.869-.3a6.054,6.054,0,0,0-.135-2.1c-.025,0,.03,0,.079.016,1.587.6,1.753,1.686,1.467,3.273a5.347,5.347,0,0,0,2.379,5.909c.95.6,1.823.556,2.241-.233.167-.316.1-1.11-.1-1.209-1.615-.8-1.582-2.329-1.739-3.843.514,1.508.467,3.591,3.306,2.619l-.2.389a5,5,0,0,0-.411,1.106c-.062.474-.147,1.273.067,1.386a2.059,2.059,0,0,0,1.6.079c1.443-.639,1.677-.554,1.631,1.069a3.189,3.189,0,0,0,.717,2.16c2.062,2.708,2.032,5.639.691,8.625a5.95,5.95,0,0,1-1.258,1.807c-1,.973-1.28,1.922-.547,3.094a1.983,1.983,0,0,1,.1,1.912,25.642,25.642,0,0,1-3.268,6.47c-1.128,1.647-1.229,1.662-2.739.449-.5-.4-1.022-.791-1.659-1.282,1.248-.043,2.085-.95,3.383-.79,1.22.15,2.469-1.517,2.439-2.791,0-.165-.052-.4.035-.488,1.257-1.311.31-2.659-.139-3.81a3.345,3.345,0,0,0-3.26-1.929,9.532,9.532,0,0,1-1.89-.464,2.427,2.427,0,0,0-3.156,1.375,13.032,13.032,0,0,0-.925,2.783,1.147,1.147,0,0,0,.552.946,1.272,1.272,0,0,0,1.095-.187,3.569,3.569,0,0,0,.911-1.205c.636-1.265,1.31-1.378,2.535-.713a4.356,4.356,0,0,1,2.4,2.406c-.529.486-1.076.963-1.592,1.471a2.3,2.3,0,0,1-2.7-.122c-.22-.213-.352-.545-.6-.694-.339-.2-.85-.49-1.11-.367-.386.183-.908.739-.859,1.057a20.1,20.1,0,0,0,.81,2.84c-1.9-.215-3.266.715-3.907,2.841-.763,2.529-.391,2.034-2.733,2.073-1.541.025-1.536,0-1.911-1.542-.171-.7-.586-.9-1.214-.5a2.06,2.06,0,0,0-.638.511c-.969,1.449-2.376,1.682-3.969,1.55-.851-.071-1.714,0-2.571-.006-1.43-.01-1.407-.015-1.474-1.408-.02-.422-.075-1.007-.346-1.216-.495-.383-1.244-.847-1.741-.717a3.637,3.637,0,0,0-1.727,1.386,7.431,7.431,0,0,0-.7,1.987c-1.016-.8-1.975-2.178-2.975-.463-.613-.082-1.095-.122-1.566-.217a2.727,2.727,0,0,1-.933-.325c-.765-.5-1.428-.617-2.028.25-.434.627-.881.638-1.386,0-.732-.929-1.137-.832-1.6.238a.954.954,0,0,1-.66.459c-1.69.214-2.243-.123-2.919-1.705a4.855,4.855,0,0,1-.293-.876c-.152-.705-.692-.768-1.055-.4a17.144,17.144,0,0,0-1.6,2.156c-.189.267-.337.779-.524.789a2.636,2.636,0,0,1-1.525-.288,8.4,8.4,0,0,1-1.744-1.658,2.2,2.2,0,0,1-.376-1.2c-.069-1.071.215-2.217-1.007-2.923-.171-.1-.073-.674-.088-1.029-.016-.386-.018-.773-.026-1.159a12.921,12.921,0,0,0-1.438.172c-.241.054-.446.269-.7.355l2.669-2.2c-1.723-.877-2.6.388-3.917.889l2.792-2.05c-1.551-.639-2.739-.145-4,.063.591-.22,1.2-.405,1.769-.671.521-.243,1.389.122,1.561-.923h-2.319l2.633-1.013-.133-.409c-1.785-.713-3.356.075-5.126,1.014,1.76-1.862,4.016-1.693,6.016-2.23-.516-1.138-1.585-1.261-5.028-.831l4.552-1.181c-.773-.539-1.3-.953-1.875-1.295a13.224,13.224,0,0,1-1.814-1.129l2.557.88a4.641,4.641,0,0,0-3.221-4.286c-.1-.025-.262-.1-.278-.177-.245-1.162-1.006-.829-1.507-.382a23.581,23.581,0,0,0-2.258,2.489,4.084,4.084,0,0,1-.9,1.03,6.033,6.033,0,0,1,.575-1.156c1.005-1.256,2.023-2.5,3.1-3.7a1.773,1.773,0,0,0,.494-1.655,59.727,59.727,0,0,1-.847-6.6,8.627,8.627,0,0,1,.877-4.841,11.145,11.145,0,0,0-.271,1.578c-.024.632.337.831.949.64.865-.27,1.67-.506,1.648-1.7-.006-.357.413-.776.727-1.071.525-.493.939-.989.367-1.657s-1.17-.242-1.723.117a6.413,6.413,0,0,0-.5.448c.357-2.572-1.028-3.115-2.994-3.336a3.168,3.168,0,0,1-1.972-1.488c-.258-.434.053-1.372.367-1.942.51-.921.311-1.375-.627-1.693a1.988,1.988,0,0,1-.956-.567,28.077,28.077,0,0,1-2.64-3.9c-.766-1.536.461-4.489,1.979-5.331a2.58,2.58,0,0,1,2.767-.074c-.627.645-1.9-.279-2.418,1.092.645-.038,1.178-.036,1.7-.107,1.329-.18,2.58-.18,3.544.99a2.286,2.286,0,0,0,.929.614,5.867,5.867,0,0,1,3.732,4.67c.1.5-.024,1.036.063,1.537.052.292.285.737.495.772a1.065,1.065,0,0,0,.924-.371,17.342,17.342,0,0,0,.8-2.132,4.771,4.771,0,0,1,.385-1.016c.456-.7,1.211-1.261.759-2.288-.054-.123.289-.549.526-.65a32.549,32.549,0,0,1,3.775-1.457,4.388,4.388,0,0,0,2.483-1.51c.241-.319.517-.612.774-.913,1.068.865,1.024,1.524-.1,2-.659.282-1.4.386-2.032.709-.392.2-.651.661-.97,1.006.406.131.808.278,1.219.389a5.119,5.119,0,0,0,.807.05,22.793,22.793,0,0,0-1.619,2,21.616,21.616,0,0,0-1.095,2.205,2.509,2.509,0,0,0,2.511-1.679,3.045,3.045,0,0,1,1.545-2.041.9.9,0,0,0,.343-.654c.009-.107-.325-.241-.456-.33,1.289-.631,3.834-1.014,4.556-.652-.368,1.289-.1,1.628,1.173,1.975.4.111.678.7,1.011,1.069l-1.192-.45c-.123.386-.445.849-.331,1.142.317.811.052,2.137,1.631,1.978-.159.33-.387.576-.34.75a10.135,10.135,0,0,0,.562,1.368,7.082,7.082,0,0,0,1.106-.582,5.911,5.911,0,0,0,.777-.823,13.093,13.093,0,0,0-.022-1.874c-.064-.425-.227-1.041-.527-1.179-.56-.258-.777.283-.883.777-.007.034-.112.047-.261.1Zm4.654,3.211c.417.12.872.4,1.238.311.289-.069.721-.693.641-.891-.135-.335-.6-.573-.967-.772-.524-.282-1.164-1-1.624-.162-.16.291.475,1.019.748,1.547-.568-.117-1.308-.7-1.46.426a2.261,2.261,0,0,0,.213,1.378,1.7,1.7,0,0,0,1.084.607c.122.022.514-.573.507-.879A7.089,7.089,0,0,0,1532.188,5992.864Zm13.829,15.817a2.052,2.052,0,0,0,.516.321c.415.107,1.045.36,1.221.185a2.375,2.375,0,0,0,.356-1.313,5.18,5.18,0,0,0-.132-.79c-.031-.643-.069-1.286-.928-1.3a1.405,1.405,0,0,0-1.3,1.53,12.245,12.245,0,0,0,.293,1.391,9.775,9.775,0,0,0-.7-1.231c-.14-.186-.452-.241-.686-.355-.119.257-.38.545-.331.764a4.713,4.713,0,0,0,.6,1.483c.305.479.638,1.256,1.392.757s-.116-.907-.241-1.361A.314.314,0,0,0,1546.017,6008.681Zm-32.927-3.535c.488.162.855,1,1.5.267a8.218,8.218,0,0,0,.212,1.43c.133.413.544.752.619,1.163a2.619,2.619,0,0,0,1.482,1.832,6,6,0,0,0,4.257.666c-.568,1.037-.965,2.216-2.409,2.435-.181.028-.482.795-.36,1.017.507.92.384,1.4-.671,1.687a15.511,15.511,0,0,1-1.761.255,2.863,2.863,0,0,0,2.98.756c.691-.245,1.04-.066,1.294.512.163.369.25.77.393,1.148.119.319.27.626.407.938a7.12,7.12,0,0,0,.77-.739,1.2,1.2,0,0,0,.24-.667c.025-.994.011-1.988.011-3.038l1.015.372a6,6,0,0,1-.5-2.223c.128-.637.8-1.163,1.261-1.769l-2.367-.779a3.2,3.2,0,0,0-1.061-4.571,7.712,7.712,0,0,0-5.845-.385l-.4-1.483.7.269c.219-.47.3-.956.581-1.19a4.879,4.879,0,0,0,1.88-4.41,5.013,5.013,0,0,0-.285-.977,3.791,3.791,0,0,0-1.128.5,2.589,2.589,0,0,0-.474.9c-.631-.029-1.342-.27-1.744-.017-.343.216-.4.991-.448,1.532a1,1,0,0,0,.372.833,1.144,1.144,0,0,0,.919-.166,15.222,15.222,0,0,0,1.407-1.114c.044.236.089.334.063.36q-1.777,1.779-3.568,3.546c-.135.133-.391.291-.373.4a.9.9,0,0,0,.367.552,2.167,2.167,0,0,0,.689.178c-.391.194-.946.289-1.135.6a5.97,5.97,0,0,0-.579,1.825c-.044.208.136.464.213.7.254-.117.673-.18.732-.36C1512.647,6007.025,1512.852,6006.08,1513.09,6005.146Zm16.261,2.612c.623-.645,1.221-1.317,1.877-1.925a1.161,1.161,0,0,0-.355-1.973c-.744-.2-.564-.521-.429-1.047.325-1.264.6-2.548-.574-3.606a3.875,3.875,0,0,1-.57-.906c.374-.084.747-.17,1.122-.249a.773.773,0,0,1,.2.013c.834.07,1.112-.565,1.155-1.152.051-.682-.561-.754-1.11-.7-.321.03-.638.1-1,.163.024-.753,1.206-1.474.165-2.171-.641.509-1.23.945-1.773,1.432a.709.709,0,0,0-.166.614c.344.988-.2,1.01-.937.977a10.88,10.88,0,0,0-2.53.065c-.407.079-.756.594-1.061.969a.715.715,0,0,0,.164.6,5.637,5.637,0,0,0,1.241.006c.989-.07,1.976-.16,3.152-.257a4.858,4.858,0,0,1-.314.734c-.885,1.181-.863,1.193.249,2.175a1.453,1.453,0,0,1,.361.985,2.954,2.954,0,0,0,.8,2.519.782.782,0,0,1-.253,1.363l.095-.879c-.464-.281-.829-.685-1.2-.7-1.2-.036-1.353.465-.663,1.155-.172.655-.616,1.571-.418,1.743a5.783,5.783,0,0,0,1.978.77c.081.027.195-.044.3-.07l-.463.829.159.236c.641-.164,1.277-.355,1.924-.484.623-.124.948-.458.755-1.073-.219-.693-.753-.695-1.327-.433C1529.71,6007.565,1529.532,6007.665,1529.351,6007.758Zm6,27.721c.2.688.334,1.23.516,1.757.19.551.47,1.1,1.167.618.616-.421,1.118-1.015,1.749-1.4,1.609-1,2.922-2.625,5.145-2.467l-1.245-2.17a8.1,8.1,0,0,1,1.621.184,20.638,20.638,0,0,1,2.1.98,7.588,7.588,0,0,0-2.27-5c-.8-.765-.81-1.242,0-1.927.285-.241.761-.243,1.133-.4a6.813,6.813,0,0,0,.79-.451c-.23-.208-.429-.539-.693-.6-1.42-.344-2.847-.676-4.289-.9a1.9,1.9,0,0,1-1.581-1.267,2.848,2.848,0,0,0-.388-.825.863.863,0,0,0-.7-.254c-.191.046-.477.389-.448.552.231,1.3.528,2.591.792,3.829-.567.2-1.341.433-2.082.747-.184.078-.26.412-.385.628.255.113.541.362.757.31.489-.117.928-.477,1.417-.557a5.1,5.1,0,0,1,1.4.152c-.274.369-.474.926-.837,1.069a28.509,28.509,0,0,1-3.046.871c-.561.152-1.045.356-.8,1.311l3.862-.8.1,2.234c-.543.187-1.35.253-1.776.691-.266.272.046,1.107.1,1.714-1.505-1.215-3.1-.866-4.791.211l.994.783-.723,1.955.365.253Zm-.37-16.182.386-.164c.638,1.107,1.381,2,2.808,1.571a7.035,7.035,0,0,1,.827-.149,6.862,6.862,0,0,0-.371-.975c-.186-.335-.492-.606-.665-.946a9.251,9.251,0,0,0-.49-1.252,1.738,1.738,0,0,1-.17-2c.154-.3.308-.784.174-1.024a14.449,14.449,0,0,0-1.522-2.17,1.7,1.7,0,0,0-.963-.512c-1.456-.249-1.458-.226-1.394-1.675.022-.477.123-1.06-.6-1.046-.679.013-.648.546-.627,1.057a2.872,2.872,0,0,1-.166.733c-.269-.09-.545-.162-.8-.276-.151-.067-.265-.27-.412-.289a6.455,6.455,0,0,0-.952,0,4.683,4.683,0,0,0,.189.816c.165.392.611.809.541,1.128a1.569,1.569,0,0,0,.727,1.747c.5.39.762.816.312,1.485a3.8,3.8,0,0,0-.3,1.3c1.286.223,1.284.223,1.28,1.307a1.242,1.242,0,0,0,.053.4c.409,1.181.78,2.38,1.271,3.528.137.321.636.488.969.725a3.411,3.411,0,0,0,.221-.977C1535.235,6020.856,1535.088,6020.078,1534.977,6019.3Zm31.28,3.536a2.377,2.377,0,0,0,1.2-3.051,5.663,5.663,0,0,0-2.732-3.927,3.106,3.106,0,0,0-1.454-.406,1.5,1.5,0,0,0-1.171.544c-.131.3.154.882.409,1.226a14.458,14.458,0,0,1,1.913,2.381,4.6,4.6,0,0,1,.305,2.937c-.218.716-1.166,1.317-1.92,1.736a3.8,3.8,0,0,0-1.981,1.934c-.161.436-.433,1.177-.264,1.321a2.554,2.554,0,0,0,1.671.69,5.583,5.583,0,0,0,4.042-2.706A1.972,1.972,0,0,0,1566.257,6022.833Zm-45.124.271c.18.636.179,1.216.468,1.535a26.649,26.649,0,0,0,2.381,2.206,27.685,27.685,0,0,1,2.412,2.03c.837.914,1,.914,1.89-.009a10.418,10.418,0,0,1,2.2-1.588,16.548,16.548,0,0,0,2.429-1.289,6.4,6.4,0,0,0,1.4-2.162c.109-.232-.268-.69-.423-1.045a3.061,3.061,0,0,0-.724.538,1.194,1.194,0,0,1-1.375.557,3.026,3.026,0,0,0-1.849.269,5.22,5.22,0,0,1-3.655.551C1524.644,6024.328,1523.059,6023.714,1521.133,6023.1Zm-9.951,9.137a5.662,5.662,0,0,1,1.195.462c.247.166.545.533.514.772-.052.408-.249,1-.553,1.138-1.121.488-1.435,1.018-.148,2.052a2.372,2.372,0,0,0,.876.234c.047-.3.116-.6.133-.908s-.153-.736-.005-.923c.555-.7,1.206-1.317,1.918-2.068.493.589,1.063,1.353,1.728,2.022a1.377,1.377,0,0,0,1.1.418,14.04,14.04,0,0,0,2.258-1.1,8.393,8.393,0,0,0,.977-.781,10.5,10.5,0,0,1-1.906-.3c-.335-.124-.859-.607-.807-.761.3-.884-.241-1-.847-1.152-.315-.077-.619-.194-.991-.313l.637-.771a6.67,6.67,0,0,0-.978-.62C1514.354,6028.86,1512.2,6029.929,1511.182,6032.241Zm32.134-25.457a4.758,4.758,0,0,0-.57-.067c-1.286.015-2.573.047-3.86.055-1.7.011-3.019.527-3.662,2.314-.579,1.607-.125,2.533,1.573,2.732C1540.35,6012.237,1542.383,6010.377,1543.316,6006.784Zm17.112,9.809a4.8,4.8,0,0,0-.946.532,6.979,6.979,0,0,0-2.331,6.279,7.668,7.668,0,0,0,1.5,3.058,1.393,1.393,0,0,0,1.234.275,1.067,1.067,0,0,0,.795-1.356c-.055-.233-.108-.467-.17-.7-.6-2.238-.96-4.44.923-6.317a.937.937,0,0,0,.157-.264C1561.959,6017.325,1561.53,6016.628,1560.428,6016.593Zm-19.3-23.525.307-.1c-.687-.884-1.4-1.753-2.047-2.663a1.173,1.173,0,0,1-.225-.915.935.935,0,0,0-.668-1.426c-.755-.236-1.658-.209-1.791-1.312-.015-.12-.324-.287-.5-.294-1.386-.052-2.773-.1-4.159-.07-.236,0-.464.382-.7.587.244.172.47.454.735.5,1.064.172,2.141.27,3.283.4l-.327,1.061c.524.135.983.229,1.426.373.707.229,1.438.433.931,1.485a1.157,1.157,0,0,0,.142.959,20.446,20.446,0,0,0,1.876,2.434c.155.168.771.09,1.047-.081C1540.764,5993.819,1540.915,5993.391,1541.131,5993.068Zm6.623,30.669,1.171.939c.275-.356.567-.7.816-1.075a1.237,1.237,0,0,0,.093-.5,18.493,18.493,0,0,1,1.509-6.332,9.2,9.2,0,0,0,.68-2.984,3.4,3.4,0,0,0-.376-1.272c-.327.254-.79.442-.954.777a4.693,4.693,0,0,0-.765,2.289c.217,1.837-.759,3.205-1.526,4.629a46.748,46.748,0,0,1-2.761,4.063Zm-22.429,11.791a3.769,3.769,0,0,0,2.911-.926,3.877,3.877,0,0,1,1.279-.518c.265-.1.524-.224.786-.336a3.876,3.876,0,0,0-.48-.727c-.634-.611-1.278-1.217-1.968-1.761-.2-.158-.694-.249-.843-.123a8.173,8.173,0,0,1-3.842,1.806c-.485.093-1.041.56-.529,1C1523.436,6034.636,1524.049,6035.794,1525.325,6035.528Zm-5.309-34.882a7,7,0,0,0,.044,1.916c.133.47.666.827,1.02,1.235.271-.526.856-1.131.747-1.56a2.823,2.823,0,0,1,.3-2.235c.174-.321.227-.991.029-1.178-.762-.719-.34-1.22.183-1.707.373-.347.859-.572,1.23-.92.271-.256.663-.686.6-.926a1.423,1.423,0,0,0-.876-.849c-.275-.073-.753.222-.988.487-.45.508-.742,1.154-1.187,1.668-1.111,1.285-1.131,1.268-1.116,2.47a13.8,13.8,0,0,0-1.769.875c-.1.069.079.86.161.865A9.517,9.517,0,0,0,1520.016,6000.646Zm-5.986-4.869a3.886,3.886,0,0,0-.364.814c-.1.594.2.955.792.9a1.6,1.6,0,0,0,.977-2.368c-.383-.459-.952-.765-1.32-1.233-.7-.894-.818-.9-1.5-.005a4.348,4.348,0,0,1-1.343,1.325c-.876.432-1.665.793-1.611,1.961.01.206-.185.431-.31.633-.516.83-1.063,1.642-1.533,2.5-.059.107.268.616.43.623a2.987,2.987,0,0,0,2.41-2.044c.173-1.615,1.233-2.595,2.3-3.614Zm39.734,22.6a3.95,3.95,0,0,0-.226-1.061c-.174-.323-.517-.815-.742-.792a1.373,1.373,0,0,0-1,.691c-.749,2.117-.939,4.214.742,6.043.545.593,1.018,1.669,2.017,1.052,1.094-.676.394-1.656-.016-2.444C1553.952,6020.745,1553.162,6019.7,1553.764,6018.381Zm-6.7,17.063a6.573,6.573,0,0,0,2.87,5.794.937.937,0,0,0,1.494-.624,4.27,4.27,0,0,0-.492-1.748c-.17-.426-.586-.783-.663-1.212A2.657,2.657,0,0,0,1547.065,6035.444Zm-13.416-29.148a8.012,8.012,0,0,0-.666.774c-.314.476-.4,1.2.221,1.2a3.178,3.178,0,0,0,1.764-1c.172-.156.022-.8-.13-1.156-.4-.932-.977-1.8-1.283-2.752-.132-.414.186-1,.384-1.479.1-.228.387-.375.59-.558a.92.92,0,0,0,.114-1.361c-.374-.554-.8-.389-1.248-.15a2.5,2.5,0,0,0-1.11,3.63c.161.315.319.631.38.752-.384.5-.852.825-.836,1.128C1531.885,6006.372,1532.941,6005.9,1533.649,6006.3Zm20.725,12.321.223.109c0,.273-.1.6.021.808a4.163,4.163,0,0,0,.958,1.122c.1.081.633-.149.751-.358.867-1.536,1.7-3.09,2.481-4.673.123-.249-.03-.9-.206-.97a1.35,1.35,0,0,0-1.13.129,14.447,14.447,0,0,0-2.149,2.031A9.208,9.208,0,0,0,1554.374,6018.617Zm-39.522,4.9a1.909,1.909,0,0,0,1.06-2.444c-.036-.137.156-.326.138-.478-.04-.325-.048-.788-.251-.927a3.018,3.018,0,0,0-1.141-.235c-.014.379-.04.757-.039,1.135s.159,1.032.025,1.1c-.939.447-.749,1.242-.778,2a1.631,1.631,0,0,0,1.538,1.774c.4.042.807.142,1.212.151.46.01.921-.052,1.382-.082a12.785,12.785,0,0,0-1.076-1.172c-.185-.161-.522-.134-.774-.233C1515.791,6023.962,1515.449,6023.786,1514.852,6023.512Zm12.433-20.369-1.213-.2c-.265-.637-.495-1.134-.674-1.649a1.015,1.015,0,0,1-.034-.674.761.761,0,0,0-.522-1.191.944.944,0,0,0-1.266.843,5.343,5.343,0,0,0,.232,1.765,12.035,12.035,0,0,0,.533,1.726c.147.373.351.949.614,1a2.23,2.23,0,0,0,1.5-.272C1526.8,6004.268,1526.946,6003.722,1527.285,6003.143Zm22.571,29.168c.059.116.131.5.342.607.262.128.817.157.937,0a27.24,27.24,0,0,0,2.252-3.357c.314-.584-.267-.861-.813-.759A4.256,4.256,0,0,0,1549.856,6032.311Zm14.145-11.19a1.533,1.533,0,0,0-1.342-1.532,2.375,2.375,0,0,0-1.877,1.907,1.715,1.715,0,0,0,1.6,1.674A2.054,2.054,0,0,0,1564,6021.121Zm-56.439-7.872c.066-1.057.158-1.969.152-2.881a.783.783,0,0,0-.563-.529c-.626.007-1.708,2.006-1.446,2.576.393.857.781,1.715,1.186,2.566.26.544.6.62,1.007.127A1.107,1.107,0,0,0,1507.562,6013.249Zm2.951-5.187a14.161,14.161,0,0,0-.626-1.725.837.837,0,0,0-.72-.369,1.072,1.072,0,0,0-.631.685c-.052.324.186.685.254,1.039.058.3.195.764.053.9-.935.9-.409,1.92-.3,2.893a.738.738,0,0,0,.489.521.815.815,0,0,0,.628-.393,3.413,3.413,0,0,0,.2-.975c.1-.6.189-1.211.32-1.808A4.471,4.471,0,0,1,1510.513,6008.062Zm38.942,6.03a21.993,21.993,0,0,0-.763-2.446c-.144-.338-.617-.535-.941-.8a5.348,5.348,0,0,0-.311,1.274c.007,1.175.064,2.354.18,3.523a3.116,3.116,0,0,0,.513.99c.316-.207.791-.347.913-.636A9.958,9.958,0,0,0,1549.455,6014.092Zm-37.168-21.746.273.443c.4-.126.816-.221,1.2-.385.551-.234,1.068-.546,1.62-.776.789-.329,1.536-.713,1.586-1.678a3.107,3.107,0,0,0-.358-1.066,3.914,3.914,0,0,0-.941.381c-.811.608-1.6,1.245-2.362,1.915A11.366,11.366,0,0,0,1512.287,5992.346Zm23.045,1c-.65.494-.332,1.033.351,1.558a12.337,12.337,0,0,0,1.073.939,3.376,3.376,0,0,0,1.058.229c.029-.373.215-.845.055-1.1a12.3,12.3,0,0,0-1.365-1.569,3.539,3.539,0,0,0-.456-1.581c-.08-.136-.553-.04-.846-.05Zm18.229,22.414c1.752-.012,2.595-.822,2.417-2.022-.113-.77-.547-1.01-1.205-.63a6.623,6.623,0,0,0-1.442.966,1.685,1.685,0,0,0-.511,1.186C1552.848,6015.508,1553.447,6015.69,1553.561,6015.76Zm-9.553-23.05c-.02-.071-.018-.2-.079-.261-.794-.818-1.582-1.644-2.417-2.419a.746.746,0,0,0-.688.182c-.138.255-.233.725-.092.908a18.711,18.711,0,0,0,1.964,2.189C1543.118,5993.706,1543.969,5993.286,1544.008,5992.71Zm13.455,40.329c-.115.91.562,1.11,1.267,1.174.858.079,1.4-.556,1.384-1.51a1.338,1.338,0,0,0-1.405-1.41C1557.983,6031.3,1557.457,6032.018,1557.463,6033.039Zm-35.545-40.337c-.277-.252-.467-.561-.712-.614-.324-.069-.865-.064-1.006.131a5.526,5.526,0,0,0-.789,1.7,8.893,8.893,0,0,0-.166,1.617c-.023.242-.052.484-.078.726.317-.011.774.1.92-.061a1.958,1.958,0,0,0,.607-1.256c-.085-.714-.181-1.266.647-1.577C1521.554,5993.288,1521.682,5992.984,1521.918,5992.7Zm21.651,18.057c-.2-.4-.271-.821-.458-.88a1.048,1.048,0,0,0-.893.2,24.977,24.977,0,0,0-2.185,2.419c-.195.25-.095.73-.129,1.1a3.728,3.728,0,0,0,1.038-.339,17.362,17.362,0,0,0,1.786-1.47A9.116,9.116,0,0,0,1543.569,6010.759Zm-29.321,25.822-.078.017a10.289,10.289,0,0,0,.332,1.473c.087.236.389.546.593.545a.854.854,0,0,0,.63-.517,6.421,6.421,0,0,0,.263-2.1c-.039-.386-.541-.725-.834-1.086-.3.385-.623.757-.894,1.163C1514.182,6036.2,1514.248,6036.411,1514.248,6036.581Zm37.9-.576c.2.485.256.964.461,1.04a1.32,1.32,0,0,0,1.006-.192,2.659,2.659,0,0,0,1-.992,1.247,1.247,0,0,0-.1-1.157,1.333,1.333,0,0,0-1.251-.144A6.092,6.092,0,0,0,1552.146,6036Zm-8.188-12.939c1.192.124,2.814-2.373,2.541-3.8C1545.324,6019.551,1543.868,6021.687,1543.958,6023.066Zm-2.83-9.439c-.129.1-.4.2-.466.381a.794.794,0,0,0,.14.63,6.034,6.034,0,0,0,1.179,1.4c.276.2,1.03.226,1.172.035.246-.333.4-1.171.215-1.308A13,13,0,0,0,1541.128,6013.627Zm-9.207-25.566c-.657.017-1.275.916-.854,1.363a8.508,8.508,0,0,0,1.95,1.36c.109.064.521-.165.618-.35C1533.9,5989.933,1532.5,5988.047,1531.921,5988.061Zm-5.9,3c-.68-.44-1.021-.822-1.409-.879-.829-.123-1.888.586-1.646.967a3.244,3.244,0,0,0,1.55,1.313C1524.77,5992.546,1525.324,5991.731,1526.018,5991.06Zm-13.481,20.411a12.173,12.173,0,0,0,1.143,1.752.961.961,0,0,0,.944-.023,1.222,1.222,0,0,0,.223-.948c-.038-.316-.346-.594-.4-.914-.09-.486-.173-.951-.793-.705A5.647,5.647,0,0,0,1512.537,6011.471Zm13.291-14.971c1,.346.888-.476.989-.941a10.047,10.047,0,0,0,.106-1.577,7.387,7.387,0,0,0-1.715.081c-.657.184-.6.657-.121,1.05a3.933,3.933,0,0,0,.741.379Zm-6.543,7.271a20.3,20.3,0,0,0-2.374-.844c-.3-.07-.73.209-1.021.433a.724.724,0,0,0,.005.692C1516.544,6004.931,1518.618,6004.763,1519.285,6003.771Zm-5.172,36.2a4.56,4.56,0,0,0-.369-1.275c-.169-.252-.662-.551-.853-.468a1.386,1.386,0,0,0-.793.884,1.906,1.906,0,0,0,.546,1.167,3.961,3.961,0,0,0,.975.633Zm-2.676-22.628c-.687.425-1.338.634-1.647,1.08-.244.352.783,1.059,1.5,1.043.671-.015,1.087-.386.995-1.014C1512.235,6018.1,1511.807,6017.8,1511.437,6017.341Zm30.208,1.078c.244-.214.548-.363.626-.59.053-.154-.159-.514-.343-.612a5.753,5.753,0,0,0-1.507-.578c-.234-.049-.528.2-.8.311.116.253.164.62.361.739A13.63,13.63,0,0,0,1541.645,6018.419Zm-28.5-16.362c-.381-.358-.591-.705-.879-.793-.5-.151-1.342.932-1.278,1.683.022.25.357.473.549.708Zm12.028,37.234c.922,1,3.717.686,4.724-.652Zm20.275-21.777c1.252.046,2.122-.849,1.854-1.737a1.383,1.383,0,0,0-.668-.648c-.1-.054-.463.145-.522.3C1545.867,6016.076,1545.688,6016.749,1545.452,6017.514Zm6.681-22.779c-1.2-.328-2.463.283-2.639,1.032-.047.2,0,.551.131.637a.766.766,0,0,0,.71.028C1550.912,5995.958,1551.43,5995.412,1552.133,5994.735Zm-31.064,46.947c.538-.538,1.078-.839,1.075-1.134,0-.4-.383-1.067-.682-1.115-.5-.08-1.279.062-1.209.866C1520.287,6040.693,1520.683,6041.056,1521.069,6041.682Zm24.19-22.274c-.6-.379-.987-.8-1.39-.815-.256-.011-.805.643-.746.881.1.409.574.726.891,1.081Zm2.183,8.14c.632-.311,1.267-.594,1.854-.953.066-.041-.1-.731-.21-.745a2.728,2.728,0,0,0-1.325.095C1547.174,6026.181,1547.014,6026.687,1547.442,6027.548Zm-7.642-5.082c.631.231,1.127.374,1.586.593.546.26.7-.044.731-.472.038-.553-.867-1.388-1.4-1.251C1540.071,6021.5,1539.619,6021.881,1539.8,6022.466Zm-15.444-34.527c-.782.239-1.509.286-1.43,1.14a1.247,1.247,0,0,0,.6.685,14.931,14.931,0,0,0,1.517-1.051Zm9.073,11.443a5.179,5.179,0,0,0,.857-1.373c.041-.2-.4-.686-.674-.73a.83.83,0,0,0-1,.962C1532.636,5998.542,1533.007,5998.816,1533.429,5999.382Zm9.931,15a1.149,1.149,0,0,0,1.637-.712,3.948,3.948,0,0,0,.033-1.408l-.4-.072Zm12.3,12.372c-.511-.365-.878-.768-1.019-.7a5.5,5.5,0,0,0-1.1.9c.263.209.558.62.781.584A4.936,4.936,0,0,0,1555.662,6026.753Zm-49.134-17.412c.832.045,1.21-.308,1.024-1.03s-.7-1.007-1.532-.723Zm7.42,17.046-.187.534c.774.333,1.543.681,2.331.978.092.035.343-.188.418-.341a.456.456,0,0,0-.192-.407C1515.536,6026.874,1514.74,6026.637,1513.948,6026.387Zm5.535-24.141-1.06-.964c-.225.274-.65.569-.624.817a1.293,1.293,0,0,0,.693.844C1518.638,6003.011,1519.012,6002.592,1519.483,6002.246Zm-.618,34.558c.009,1.416.8,1.969,1.939,1.493Zm27.685,1.664-.932-.732c-.231.3-.581.574-.645.905-.033.166.458.612.7.6S1546.165,6038.833,1546.55,6038.468Zm-25.451-49.176c.808.256,1.307.03,1.468-.7.03-.138-.29-.511-.429-.5C1521.46,5988.136,1520.993,5988.453,1521.1,5989.292Zm23.037,51.412c.3-.333.661-.576.63-.745-.047-.252-.373-.453-.58-.675a3.723,3.723,0,0,0-.656.734C1543.49,6040.092,1543.837,6040.374,1544.136,6040.7Zm4.7-43.8a6.8,6.8,0,0,0-.589,1.028c-.025.071.392.393.411.376a3.547,3.547,0,0,0,.689-.76C1549.38,5997.488,1549.109,5997.239,1548.834,5996.9Z" fill="#fff"/><path d="M1500.82,6026.566c.629-.866,1.251-1.737,1.887-2.6,1.186-1.605,1.186-1.6,2.887-.538a8.681,8.681,0,0,1,1.845,1.349c-.354.078-.708.149-1.059.235a4.5,4.5,0,0,0-3.536,2.651c-.187.487-.692,1.023.009,1.562.081.063-.079.486-.174.723-.265.663-.554,1.315-.745,1.764l.845,1.738,2.667-.713.209.287c-2.016,2.469-3.89,5.009-4.373,8.256.653.428,1.009.092,1.315-.369.72-1.086,1.426-2.18,2.153-3.261.241-.358.529-.685.986-1.271l.1,2.037,4.035-3.324.988,7.334c-.448.024-.78.059-1.111.059-3.805-.01-7.61-.006-11.414-.066a1.9,1.9,0,0,1-1.27-.609,39.918,39.918,0,0,1-9.448-27.962,39.406,39.406,0,0,1,7.611-22.226c.174-.239.373-.458.649-.8.418,1.069.751,2.026,1.161,2.949.709,1.593,1.39,3.208,2.233,4.731a17.126,17.126,0,0,0,2,2.577,6.278,6.278,0,0,1,1.808,4.374c-.039,2.961.419,5.929.667,8.894a.848.848,0,0,0,.017.1,3.3,3.3,0,0,1-1.073,3.611,8.421,8.421,0,0,0-2.754,5.138c-.031.234-.133.613-.031.688.933.674.691,1.633.561,2.574Z" fill="#fff"/><path d="M1503.972,5982.664c14.912-11.9,36.785-10.49,49.234-.385-.02.027-.041.08-.06.079-2.991-.1-4.881,1.659-6.477,3.868-.517.715-.895.747-1.529.122a15.183,15.183,0,0,0-6.248-3.362c-1.294-.417-2.635-.684-3.936-1.08-3.151-.96-6.387-.664-9.59-.611a19.412,19.412,0,0,0-13.185,5.335c-.488.451-.787.366-1.315.049-1.75-1.048-3.553-2.009-5.34-2.994C1504.989,5983.389,1504.04,5983.806,1503.972,5982.664Z" fill="#fff"/><path d="M1557.23,5985.627c6.807,4.037,14.467,22.409,12.867,30.9-.465-.541-.859-.979-1.229-1.436-2.669-3.292-5.258-6.654-8.026-9.86a25.715,25.715,0,0,0-6.646-5.767,1.052,1.052,0,0,1-.376-.917c.6-2.247,1.307-4.468,1.916-6.715.432-1.593,1.436-3.036,1.233-4.807A5.2,5.2,0,0,1,1557.23,5985.627Z" fill="#fff"/><path d="M1527.968,6050.885c.715-1.425,1.3-2.542,1.836-3.684.271-.579.683-.96,1.265-.7.261.115.439.689.449,1.06.045,1.816.04,3.635,0,5.452a.606.606,0,1,1-.819-.045c-.051-1.4-.017-2.811-.024-4.217,0-.322-.035-.643-.055-.965l-.306-.094c-.479.912-.932,1.839-1.445,2.731a14.886,14.886,0,0,1-.987,1.362,13.057,13.057,0,0,1-.991-1.331,17.765,17.765,0,0,0-1.664-2.674c-.025.412-.07.823-.073,1.235-.009,1.406.018,2.812-.022,4.217-.008.274-.257.541-.394.811-.146-.262-.414-.521-.419-.785q-.054-2.931,0-5.864c.006-.311.289-.892.387-.88a1.669,1.669,0,0,1,1.115.464c.542.826.937,1.748,1.4,2.627C1527.405,6049.949,1527.616,6050.282,1527.968,6050.885Z" fill="#fff"/><path d="M1547.981,6050.152c0-.959.021-1.919-.007-2.877-.019-.622.234-.885.849-.838,1.055.081,2.125.067,3.162.245a3.371,3.371,0,0,1,2.817,3.211c.075,1.97-.806,3.45-2.529,3.842a17.916,17.916,0,0,1-3.659.294c-.206,0-.582-.5-.6-.8C1547.935,6052.21,1547.981,6051.179,1547.981,6050.152Zm2.17,3.318c.471-.073.945-.127,1.411-.223a3.061,3.061,0,0,0,.163-5.925,14.166,14.166,0,0,0-1.925-.231c-.706-.067-.978.28-.966.973.023,1.368.049,2.739-.01,4.1C1548.781,6053.165,1549.147,6053.59,1550.151,6053.47Z" fill="#fff"/><path d="M1504.6,6050.815l2.764,3.064-.173.275a4.165,4.165,0,0,1-1.124-.558c-.639-.617-1.191-1.324-1.785-1.988a2.141,2.141,0,0,0-.513-.49c-1.031-.558-1.86-.066-1.87,1.089a10.581,10.581,0,0,1-.028,1.336c-.025.18-.256.332-.394.5-.141-.16-.4-.319-.406-.481-.027-2.2-.032-4.392.009-6.587,0-.18.389-.5.6-.5a27.258,27.258,0,0,1,2.863.154,1.739,1.739,0,0,1,1.635,1.349,2.02,2.02,0,0,1-.754,2.2C1505.212,6050.343,1505,6050.509,1504.6,6050.815Zm-2.7-2.2c0,1.684.013,1.707,1.122,1.718,1.481.015,2.328-.609,2.329-1.714,0-.994-.786-1.532-2.238-1.531C1501.936,6047.088,1501.9,6047.128,1501.9,6048.613Z" fill="#fff"/><path d="M1492.695,6050.385c.892,0,1.785-.017,2.676.02.123.006.327.28.335.437a13.959,13.959,0,0,1-.015,2.257.959.959,0,0,1-.657.639,14.465,14.465,0,0,1-3.74.207c-1.92-.3-2.967-2.025-2.783-4.075a3.562,3.562,0,0,1,3.455-3.428,16.293,16.293,0,0,1,3.044.283c.247.038.443.408.662.625a2.394,2.394,0,0,1-.883.046,4.872,4.872,0,0,0-3.5-.183,3.146,3.146,0,0,0-1.88,3.216,3.025,3.025,0,0,0,2.27,2.957,6.318,6.318,0,0,0,1.919.05c1.222-.143,1.593-.708,1.229-1.882-.076-.244-.509-.448-.816-.533a7.723,7.723,0,0,0-1.327-.142Z" fill="#fff"/><path d="M1562.838,6046.4c2.429,0,3.711,1.342,3.708,3.873,0,2.451-1.4,4.016-3.712,3.958-2.5-.064-3.81-1.557-3.762-4.013C1559.122,6047.7,1560.37,6046.392,1562.838,6046.4Zm2.84,3.836c0-2.03-1.106-3.3-2.866-3.3s-2.864,1.265-2.87,3.3c-.007,2.091,1.126,3.392,2.917,3.351C1564.619,6053.539,1565.681,6052.277,1565.678,6050.231Z" fill="#fff"/><path d="M1518.493,6054.19c-.261-.34-.652-.645-.756-1.028a1.593,1.593,0,0,0-2.016-1.346,2.292,2.292,0,0,1-.717,0,1.673,1.673,0,0,0-2.164,1.431c-.082.338-.468.6-.715.9l-.342-.244q.786-2.037,1.573-4.072c.371-.956.716-1.924,1.131-2.862a.885.885,0,0,1,1.614-.115c.976,2.326,1.873,4.686,2.8,7.033Zm-3-6.771-.393.03-1.4,3.652h3.2Z" fill="#fff"/><path d="M1542.153,6054.2c-.264-.344-.66-.651-.768-1.039a1.6,1.6,0,0,0-2.02-1.344,3.111,3.111,0,0,1-.923,0,1.465,1.465,0,0,0-1.861,1.253c-.111.442-.189,1.154-1.175.885.479-1.223.933-2.388,1.389-3.553.437-1.115.843-2.244,1.336-3.334a1.215,1.215,0,0,1,.811-.587.952.952,0,0,1,.814.394c.968,2.331,1.879,4.684,2.805,7.032Zm-3-6.781-.384,0-1.414,3.678h3.184Z" fill="#fff"/><path d="M1527.534,5989.653l.55,1.251c.149-.057.254-.07.261-.1.106-.494.323-1.035.883-.777.3.138.463.754.527,1.179a13.093,13.093,0,0,1,.022,1.874,5.911,5.911,0,0,1-.777.823,7.082,7.082,0,0,1-1.106.582,10.135,10.135,0,0,1-.562-1.368c-.047-.174.181-.42.34-.75-1.579.159-1.314-1.167-1.631-1.978-.114-.293.208-.756.331-1.142l1.192.45Z"/><path d="M1504.426,6021.571c.5-.345.995-.941,1.51-.962.454-.018.933.608,1.4.949l-.126.321-2.6.149Z" fill="#fff"/><path d="M1555.261,6003.59l-1.373-1.156c.46-.442.99-.906-.218-1.549C1555.021,6001.293,1555.021,6001.293,1555.261,6003.59Z" fill="#fff"/><path d="M1552.793,6002.64l.625,2.285-.3.087c-.232-.772-.951-1.4-.673-2.321Z" fill="#fff"/><path d="M1551.973,6008.458l-.659-1.358.439-.218.68,1.346Z" fill="#fff"/><path d="M1535.347,6035.479l-2.045,1.822-.365-.253.723-1.955-.994-.783c1.695-1.077,3.286-1.426,4.791-.211-.055-.607-.367-1.442-.1-1.714.426-.438,1.233-.5,1.776-.691l-.1-2.234-3.862.8c-.241-.955.243-1.159.8-1.311a28.509,28.509,0,0,0,3.046-.871c.363-.143.563-.7.837-1.069a5.1,5.1,0,0,0-1.4-.152c-.489.08-.928.44-1.417.557-.216.052-.5-.2-.757-.31.125-.216.2-.55.385-.628.741-.314,1.515-.55,2.082-.747-.264-1.238-.561-2.528-.792-3.829-.029-.163.257-.506.448-.552a.863.863,0,0,1,.7.254,2.848,2.848,0,0,1,.388.825,1.9,1.9,0,0,0,1.581,1.267c1.442.223,2.869.555,4.289.9.264.064.463.4.693.6a6.813,6.813,0,0,1-.79.451c-.372.154-.848.156-1.133.4-.813.685-.808,1.162,0,1.927a7.588,7.588,0,0,1,2.27,5,20.638,20.638,0,0,0-2.1-.98,8.1,8.1,0,0,0-1.621-.184l1.245,2.17c-2.223-.158-3.536,1.472-5.145,2.467-.631.39-1.133.984-1.749,1.4-.7.477-.977-.067-1.167-.618C1535.681,6036.709,1535.546,6036.167,1535.347,6035.479Zm9.561-4.468c-.667-1.388-1.3-1.68-2.278-1.038Zm-3.51-5.407-.1.456.938.339a2.139,2.139,0,0,0,.115-.415C1542.041,6025.838,1541.717,6025.725,1541.4,6025.6Z"/><path d="M1544.793,5996.261c.451,1.26.239,1.627-1.58,2.421a11.755,11.755,0,0,0,1.094,1.73,2.377,2.377,0,0,1-.044,3.539,1.821,1.821,0,0,1,.5.139c.481.314.945.653,1.415.983a5.993,5.993,0,0,1-1.292,1.189c-.692.336-1.547.825-2.081-.339-.052-.113-.41-.117-.626-.117-1.15-.005-2.3,0-3.45.021a1.942,1.942,0,0,0-.638.165c-.549.213-1.092.443-1.656.675a30.046,30.046,0,0,1-.228-3.362c.051-1.115.371-2.216.454-3.333a3.245,3.245,0,0,0-2.094-2.761,1.242,1.242,0,0,1-.736-.482c-.185-.417-.422-1.026-.249-1.339.318-.577.858-.239,1.324.04,1.488.888,2.964,1.8,4.5,2.6a2.05,2.05,0,0,0,3.056-1.9c0-.665.379-.992,1-.737a8.173,8.173,0,0,1,1.362.893Zm-2.454,8.36c-.345-.417-.664-.638-.726-.917a4.38,4.38,0,0,1,.055-1.208,4.1,4.1,0,0,1,1.057.183,3.338,3.338,0,0,1,.748.646c-.806-1.655-1.315-1.713-2.6-.454-.157.154-.426.189-.592.336-.191.17-.494.456-.45.6.094.3.342.722.6.779A9.7,9.7,0,0,0,1542.339,6004.621Zm-4.276-5.733c-.309,1.4-.309,1.4,1.889,1.966l.139-1.156-1.337.7Z"/><path d="M1534.977,6019.3c.111.781.258,1.559.318,2.344a3.411,3.411,0,0,1-.221.977c-.333-.237-.832-.4-.969-.725-.491-1.148-.862-2.347-1.271-3.528a1.242,1.242,0,0,1-.053-.4c0-1.084.006-1.084-1.28-1.307a3.8,3.8,0,0,1,.3-1.3c.45-.669.188-1.1-.312-1.485a1.569,1.569,0,0,1-.727-1.747c.07-.319-.376-.736-.541-1.128a4.683,4.683,0,0,1-.189-.816,6.455,6.455,0,0,1,.952,0c.147.019.261.222.412.289.258.114.534.186.8.276a2.872,2.872,0,0,0,.166-.733c-.021-.511-.052-1.044.627-1.057.724-.014.623.569.6,1.046-.064,1.449-.062,1.426,1.394,1.675a1.7,1.7,0,0,1,.963.512,14.449,14.449,0,0,1,1.522,2.17c.134.24-.02.721-.174,1.024a1.738,1.738,0,0,0,.17,2,9.251,9.251,0,0,1,.49,1.252c.173.34.479.611.665.946a6.862,6.862,0,0,1,.371.975,7.035,7.035,0,0,0-.827.149c-1.427.43-2.17-.464-2.808-1.571Z"/><path d="M1528.847,6008.406c-.1.026-.214.1-.3.07a5.783,5.783,0,0,1-1.978-.77c-.2-.172.246-1.088.418-1.743-.69-.69-.536-1.191.663-1.155.376.011.741.415,1.2.7l-.095.879a.782.782,0,0,0,.253-1.363,2.954,2.954,0,0,1-.8-2.519,1.453,1.453,0,0,0-.361-.985c-1.112-.982-1.134-.994-.249-2.175a4.858,4.858,0,0,0,.314-.734c-1.176.1-2.163.187-3.152.257a5.637,5.637,0,0,1-1.241-.006.715.715,0,0,1-.164-.6c.305-.375.654-.89,1.061-.969a10.88,10.88,0,0,1,2.53-.065c.735.033,1.281.011.937-.977a.709.709,0,0,1,.166-.614c.543-.487,1.132-.923,1.773-1.432,1.041.7-.141,1.418-.165,2.171.365-.061.682-.133,1-.163.549-.051,1.161.021,1.11.7-.043.587-.321,1.222-1.155,1.152a.773.773,0,0,0-.2-.013c-.375.079-.748.165-1.122.249a3.875,3.875,0,0,0,.57.906c1.175,1.058.9,2.342.574,3.606-.135.526-.315.848.429,1.047a1.161,1.161,0,0,1,.355,1.973c-.656.608-1.254,1.28-1.877,1.925Z"/><path d="M1566.257,6022.833a1.972,1.972,0,0,1,.013,2.679,5.583,5.583,0,0,1-4.042,2.706,2.554,2.554,0,0,1-1.671-.69c-.169-.144.1-.885.264-1.321a3.8,3.8,0,0,1,1.981-1.934c.754-.419,1.7-1.02,1.92-1.736a4.6,4.6,0,0,0-.305-2.937,14.458,14.458,0,0,0-1.913-2.381c-.255-.344-.54-.928-.409-1.226a1.5,1.5,0,0,1,1.171-.544,3.106,3.106,0,0,1,1.454.406,5.663,5.663,0,0,1,2.732,3.927A2.377,2.377,0,0,1,1566.257,6022.833Z"/><path d="M1521.133,6023.1c1.926.61,3.511,1.224,5.151,1.593a5.22,5.22,0,0,0,3.655-.551,3.026,3.026,0,0,1,1.849-.269,1.194,1.194,0,0,0,1.375-.557,3.061,3.061,0,0,1,.724-.538c.155.355.532.813.423,1.045a6.4,6.4,0,0,1-1.4,2.162,16.548,16.548,0,0,1-2.429,1.289,10.418,10.418,0,0,0-2.2,1.588c-.886.923-1.053.923-1.89.009a27.685,27.685,0,0,0-2.412-2.03,26.649,26.649,0,0,1-2.381-2.206C1521.312,6024.32,1521.313,6023.74,1521.133,6023.1Z"/><path d="M1511.182,6032.241c1.016-2.312,3.172-3.381,5.1-2.6a6.67,6.67,0,0,1,.978.62l-.637.771c.372.119.676.236.991.313.606.148,1.15.268.847,1.152-.052.154.472.637.807.761a10.5,10.5,0,0,0,1.906.3,8.393,8.393,0,0,1-.977.781,14.04,14.04,0,0,1-2.258,1.1,1.377,1.377,0,0,1-1.1-.418c-.665-.669-1.235-1.433-1.728-2.022-.712.751-1.363,1.371-1.918,2.068-.148.187.023.61.005.923s-.086.6-.133.908a2.372,2.372,0,0,1-.876-.234c-1.287-1.034-.973-1.564.148-2.052.3-.133.5-.73.553-1.138.031-.239-.267-.606-.514-.772A5.662,5.662,0,0,0,1511.182,6032.241Z"/><path d="M1543.316,6006.784c-.933,3.593-2.966,5.453-6.519,5.034-1.7-.2-2.152-1.125-1.573-2.732.643-1.787,1.958-2.3,3.662-2.314,1.287-.008,2.574-.04,3.86-.055A4.758,4.758,0,0,1,1543.316,6006.784Z"/><path d="M1514.559,6005.453a7.712,7.712,0,0,1,5.845.385,3.2,3.2,0,0,1,1.061,4.571l-.3.095a6,6,0,0,1-4.257-.666,2.619,2.619,0,0,1-1.482-1.832c-.075-.411-.486-.75-.619-1.163a8.218,8.218,0,0,1-.212-1.43Zm5.42,2.741a4.737,4.737,0,0,1-1.7.2c-.467-.129-.828-.649-1.235-1a2.631,2.631,0,0,0,1.115,1.2A1.316,1.316,0,0,0,1519.979,6008.194Z"/><path d="M1560.428,6016.593c1.1.035,1.531.732,1.166,1.508a.937.937,0,0,1-.157.264c-1.883,1.877-1.525,4.079-.923,6.317.062.232.115.466.17.7a1.067,1.067,0,0,1-.795,1.356,1.393,1.393,0,0,1-1.234-.275,7.668,7.668,0,0,1-1.5-3.058,6.979,6.979,0,0,1,2.331-6.279A4.8,4.8,0,0,1,1560.428,6016.593Z"/><path d="M1521.16,6010.5l.3-.095,2.367.779c-.458.606-1.133,1.132-1.261,1.769a6,6,0,0,0,.5,2.223l-1.015-.372c0,1.05.014,2.044-.011,3.038a1.2,1.2,0,0,1-.24.667,7.12,7.12,0,0,1-.77.739c-.137-.312-.288-.619-.407-.938-.143-.378-.23-.779-.393-1.148-.254-.578-.6-.757-1.294-.512a2.863,2.863,0,0,1-2.98-.756,15.511,15.511,0,0,0,1.761-.255c1.055-.287,1.178-.767.671-1.687-.122-.222.179-.989.36-1.017C1520.195,6012.72,1520.592,6011.541,1521.16,6010.5Z"/><path d="M1541.131,5993.068c-.216.323-.367.751-.667.938-.276.171-.892.249-1.047.081a20.446,20.446,0,0,1-1.876-2.434,1.157,1.157,0,0,1-.142-.959c.507-1.052-.224-1.256-.931-1.485-.443-.144-.9-.238-1.426-.373l.327-1.061c-1.142-.134-2.219-.232-3.283-.4-.265-.043-.491-.325-.735-.5.232-.205.46-.582.7-.587,1.386-.029,2.773.018,4.159.07.177.007.486.174.5.294.133,1.1,1.036,1.076,1.791,1.312a.935.935,0,0,1,.668,1.426,1.173,1.173,0,0,0,.225.915c.651.91,1.36,1.779,2.047,2.663Z"/><path d="M1547.754,6023.737l-2.113.534a46.748,46.748,0,0,0,2.761-4.063c.767-1.424,1.743-2.792,1.526-4.629a4.693,4.693,0,0,1,.765-2.289c.164-.335.627-.523.954-.777a3.4,3.4,0,0,1,.376,1.272,9.2,9.2,0,0,1-.68,2.984,18.493,18.493,0,0,0-1.509,6.332,1.237,1.237,0,0,1-.093.5c-.249.374-.541.719-.816,1.075Z"/><path d="M1525.325,6035.528c-1.276.266-1.889-.892-2.686-1.582-.512-.443.044-.91.529-1a8.173,8.173,0,0,0,3.842-1.806c.149-.126.642-.035.843.123.69.544,1.334,1.15,1.968,1.761a3.876,3.876,0,0,1,.48.727c-.262.112-.521.232-.786.336a3.877,3.877,0,0,0-1.279.518A3.769,3.769,0,0,1,1525.325,6035.528Z"/><path d="M1520.016,6000.646a9.517,9.517,0,0,1-1.622.141c-.082,0-.264-.8-.161-.865a13.8,13.8,0,0,1,1.769-.875c-.015-1.2.005-1.185,1.116-2.47.445-.514.737-1.16,1.187-1.668.235-.265.713-.56.988-.487a1.423,1.423,0,0,1,.876.849c.067.24-.325.67-.6.926-.371.348-.857.573-1.23.92-.523.487-.945.988-.183,1.707.2.187.145.857-.029,1.178a2.823,2.823,0,0,0-.3,2.235c.109.429-.476,1.034-.747,1.56-.354-.408-.887-.765-1.02-1.235A7,7,0,0,1,1520.016,6000.646Z"/><path d="M1514.03,5995.777l-1.074-.513c-1.065,1.019-2.125,2-2.3,3.614a2.987,2.987,0,0,1-2.41,2.044c-.162-.007-.489-.516-.43-.623.47-.854,1.017-1.666,1.533-2.5.125-.2.32-.427.31-.633-.054-1.168.735-1.529,1.611-1.961a4.348,4.348,0,0,0,1.343-1.325c.682-.894.8-.889,1.5.005.368.468.937.774,1.32,1.233a1.6,1.6,0,0,1-.977,2.368c-.595.056-.9-.305-.792-.9A3.886,3.886,0,0,1,1514.03,5995.777Z"/><path d="M1553.764,6018.381c-.6,1.315.188,2.364.774,3.489.41.788,1.11,1.768.016,2.444-1,.617-1.472-.459-2.017-1.052-1.681-1.829-1.491-3.926-.742-6.043a1.373,1.373,0,0,1,1-.691c.225-.023.568.469.742.792A3.95,3.95,0,0,1,1553.764,6018.381Z"/><path d="M1514.559,6005.453l.031-.04c-.645.728-1.012-.1-1.5-.267l.027.026a2.167,2.167,0,0,1-.689-.178.9.9,0,0,1-.367-.552c-.018-.111.238-.269.373-.4q1.787-1.772,3.568-3.546c.026-.026-.019-.124-.063-.36a15.222,15.222,0,0,1-1.407,1.114,1.144,1.144,0,0,1-.919.166,1,1,0,0,1-.372-.833c.053-.541.1-1.316.448-1.532.4-.253,1.113-.012,1.744.017a2.589,2.589,0,0,1,.474-.9,3.791,3.791,0,0,1,1.128-.5,5.013,5.013,0,0,1,.285.977,4.879,4.879,0,0,1-1.88,4.41c-.285.234-.362.72-.581,1.19l-.7-.269Z"/><path d="M1547.065,6035.444a2.657,2.657,0,0,1,3.209,2.21c.077.429.493.786.663,1.212a4.27,4.27,0,0,1,.492,1.748.937.937,0,0,1-1.494.624A6.573,6.573,0,0,1,1547.065,6035.444Z"/><path d="M1533.649,6006.3c-.708-.4-1.764.076-1.82-.973-.016-.3.452-.633.836-1.128-.061-.121-.219-.437-.38-.752a2.5,2.5,0,0,1,1.11-3.63c.444-.239.874-.4,1.248.15a.92.92,0,0,1-.114,1.361c-.2.183-.494.33-.59.558-.2.475-.516,1.065-.384,1.479.306.956.884,1.82,1.283,2.752.152.356.3,1,.13,1.156a3.178,3.178,0,0,1-1.764,1c-.621,0-.535-.722-.221-1.2A8.012,8.012,0,0,1,1533.649,6006.3Z"/><path d="M1554.374,6018.617a9.208,9.208,0,0,1,.949-1.8,14.447,14.447,0,0,1,2.149-2.031,1.35,1.35,0,0,1,1.13-.129c.176.067.329.721.206.97-.776,1.583-1.614,3.137-2.481,4.673-.118.209-.65.439-.751.358a4.163,4.163,0,0,1-.958-1.122c-.12-.2-.021-.535-.021-.808Z"/><path d="M1514.852,6023.512c.6.274.939.45,1.3.589.252.1.589.072.774.233a12.785,12.785,0,0,1,1.076,1.172c-.461.03-.922.092-1.382.082-.4-.009-.807-.109-1.212-.151a1.631,1.631,0,0,1-1.538-1.774c.029-.761-.161-1.556.778-2,.134-.065-.024-.717-.025-1.1s.025-.756.039-1.135a3.018,3.018,0,0,1,1.141.235c.2.139.211.6.251.927.018.152-.174.341-.138.478A1.909,1.909,0,0,1,1514.852,6023.512Z"/><path d="M1527.285,6003.143c-.339.579-.483,1.125-.832,1.345a2.23,2.23,0,0,1-1.5.272c-.263-.051-.467-.627-.614-1a12.035,12.035,0,0,1-.533-1.726,5.343,5.343,0,0,1-.232-1.765.944.944,0,0,1,1.266-.843.761.761,0,0,1,.522,1.191,1.015,1.015,0,0,0,.034.674c.179.515.409,1.012.674,1.649Z"/><path d="M1544.82,5996.29l-.906-1.773a2.362,2.362,0,0,1,2.541,1.944,1.388,1.388,0,0,0,.133.553c.79,1.054,1.621,2.077,2.4,3.136.434.589.353,1.028-.486,1.087l.032.025c-.366-.531-.743-1.056-1.1-1.6-.376-.576-.669-1.115-1.584-.8-.611.209-.821-.348-.689-.9a5.217,5.217,0,0,1,.455-.957l-.83-.749Z"/><path d="M1549.856,6032.311a4.256,4.256,0,0,1,2.718-3.511c.546-.1,1.127.175.813.759a27.24,27.24,0,0,1-2.252,3.357c-.12.159-.675.13-.937,0C1549.987,6032.814,1549.915,6032.427,1549.856,6032.311Z"/><path d="M1564,6021.121a2.054,2.054,0,0,1-1.618,2.049,1.715,1.715,0,0,1-1.6-1.674,2.375,2.375,0,0,1,1.877-1.907A1.533,1.533,0,0,1,1564,6021.121Z"/><path d="M1507.562,6013.249a1.107,1.107,0,0,1,.336,1.859c-.4.493-.747.417-1.007-.127-.405-.851-.793-1.709-1.186-2.566-.262-.57.82-2.569,1.446-2.576a.783.783,0,0,1,.563.529C1507.72,6011.28,1507.628,6012.192,1507.562,6013.249Z"/><path d="M1510.513,6008.062a4.471,4.471,0,0,0-.328.77c-.131.6-.215,1.205-.32,1.808a3.413,3.413,0,0,1-.2.975.815.815,0,0,1-.628.393.738.738,0,0,1-.489-.521c-.113-.973-.639-1.992.3-2.893.142-.138.005-.6-.053-.9-.068-.354-.306-.715-.254-1.039a1.072,1.072,0,0,1,.631-.685.837.837,0,0,1,.72.369A14.161,14.161,0,0,1,1510.513,6008.062Z"/><path d="M1549.455,6014.092a9.958,9.958,0,0,1-.409,1.909c-.122.289-.6.429-.913.636a3.116,3.116,0,0,1-.513-.99c-.116-1.169-.173-2.348-.18-3.523a5.348,5.348,0,0,1,.311-1.274c.324.261.8.458.941.8A21.993,21.993,0,0,1,1549.455,6014.092Z"/><path d="M1512.287,5992.346a11.366,11.366,0,0,1,1.019-1.166c.76-.67,1.551-1.307,2.362-1.915a3.914,3.914,0,0,1,.941-.381,3.107,3.107,0,0,1,.358,1.066c-.05.965-.8,1.349-1.586,1.678-.552.23-1.069.542-1.62.776-.385.164-.8.259-1.2.385Z"/><path d="M1546.042,6008.71a12.52,12.52,0,0,1-.292-1.392,1.405,1.405,0,0,1,1.3-1.53c.859.01.9.653.928,1.3a5.18,5.18,0,0,1,.132.79,2.375,2.375,0,0,1-.356,1.313c-.176.175-.806-.078-1.221-.185a2.052,2.052,0,0,1-.516-.321Z"/><path d="M1535.332,5993.346l-.13-1.572c.293.01.766-.086.846.05a3.539,3.539,0,0,1,.456,1.581,12.3,12.3,0,0,1,1.365,1.569c.16.253-.026.725-.055,1.1a3.376,3.376,0,0,1-1.058-.229,12.337,12.337,0,0,1-1.073-.939C1535,5994.379,1534.682,5993.84,1535.332,5993.346Z"/><path d="M1553.561,6015.76c-.114-.07-.713-.252-.741-.5a1.685,1.685,0,0,1,.511-1.186,6.623,6.623,0,0,1,1.442-.966c.658-.38,1.092-.14,1.205.63C1556.156,6014.938,1555.313,6015.748,1553.561,6015.76Z"/><path d="M1544.008,5992.71c-.039.576-.89,1-1.312.6a18.711,18.711,0,0,1-1.964-2.189c-.141-.183-.046-.653.092-.908a.746.746,0,0,1,.688-.182c.835.775,1.623,1.6,2.417,2.419C1543.99,5992.513,1543.988,5992.639,1544.008,5992.71Z"/><path d="M1557.463,6033.039c-.006-1.021.52-1.737,1.246-1.746a1.338,1.338,0,0,1,1.405,1.41c.016.954-.526,1.589-1.384,1.51C1558.025,6034.149,1557.348,6033.949,1557.463,6033.039Z"/><path d="M1521.918,5992.7c-.236.282-.364.586-.577.666-.828.311-.732.863-.647,1.577a1.958,1.958,0,0,1-.607,1.256c-.146.164-.6.05-.92.061.026-.242.055-.484.078-.726a8.893,8.893,0,0,1,.166-1.617,5.526,5.526,0,0,1,.789-1.7c.141-.2.682-.2,1.006-.131C1521.451,5992.141,1521.641,5992.45,1521.918,5992.7Z"/><path d="M1543.569,6010.759a9.116,9.116,0,0,1-.841,1.032,17.362,17.362,0,0,1-1.786,1.47,3.728,3.728,0,0,1-1.038.339c.034-.375-.066-.855.129-1.1a24.977,24.977,0,0,1,2.185-2.419,1.048,1.048,0,0,1,.893-.2C1543.3,6009.938,1543.372,6010.355,1543.569,6010.759Z"/><path d="M1514.248,6036.581c0-.17-.066-.384.012-.5.271-.406.592-.778.894-1.163.293.361.795.7.834,1.086a6.421,6.421,0,0,1-.263,2.1.854.854,0,0,1-.63.517c-.2,0-.506-.309-.593-.545a10.289,10.289,0,0,1-.332-1.473Z"/><path d="M1552.146,6036a6.092,6.092,0,0,1,1.111-1.445,1.333,1.333,0,0,1,1.251.144,1.247,1.247,0,0,1,.1,1.157,2.659,2.659,0,0,1-1,.992,1.32,1.32,0,0,1-1.006.192C1552.4,6036.969,1552.345,6036.49,1552.146,6036Z"/><path d="M1543.958,6023.066c-.09-1.379,1.366-3.515,2.541-3.8C1546.772,6020.693,1545.15,6023.19,1543.958,6023.066Z"/><path d="M1541.128,6013.627a13,13,0,0,1,2.24,1.141c.18.137.031.975-.215,1.308-.142.191-.9.168-1.172-.035a6.034,6.034,0,0,1-1.179-1.4.794.794,0,0,1-.14-.63C1540.731,6013.828,1541,6013.725,1541.128,6013.627Z"/><path d="M1531.921,5988.061c.58-.014,1.975,1.872,1.714,2.373-.1.185-.509.414-.618.35a8.508,8.508,0,0,1-1.95-1.36C1530.646,5988.977,1531.264,5988.078,1531.921,5988.061Z"/><path d="M1526.018,5991.06c-.694.671-1.248,1.486-1.505,1.4a3.244,3.244,0,0,1-1.55-1.313c-.242-.381.817-1.09,1.646-.967C1525,5990.238,1525.338,5990.62,1526.018,5991.06Z"/><path d="M1512.537,6011.471a5.647,5.647,0,0,1,1.113-.838c.62-.246.7.219.793.705.058.32.366.6.4.914a1.222,1.222,0,0,1-.223.948.961.961,0,0,1-.944.023A12.173,12.173,0,0,1,1512.537,6011.471Z"/><path d="M1532.224,5992.9c-.273-.528-.908-1.256-.748-1.547.46-.839,1.1-.12,1.624.162.369.2.832.437.967.772.08.2-.352.822-.641.891-.366.089-.821-.191-1.238-.311Z"/><path d="M1525.828,5996.5v-1.008a3.933,3.933,0,0,1-.741-.379c-.478-.393-.536-.866.121-1.05a7.387,7.387,0,0,1,1.715-.081,10.047,10.047,0,0,1-.106,1.577C1526.716,5996.024,1526.83,5996.846,1525.828,5996.5Z"/><path d="M1519.285,6003.771c-.667.992-2.741,1.16-3.39.281a.724.724,0,0,1-.005-.692c.291-.224.722-.5,1.021-.433A20.3,20.3,0,0,1,1519.285,6003.771Z"/><path d="M1514.113,6039.969l-.494.941a3.961,3.961,0,0,1-.975-.633,1.906,1.906,0,0,1-.546-1.167,1.386,1.386,0,0,1,.793-.884c.191-.083.684.216.853.468A4.56,4.56,0,0,1,1514.113,6039.969Z"/><path d="M1532.224,5992.9l-.036-.033a7.089,7.089,0,0,1,.38,1.565c.007.306-.385.9-.507.879a1.7,1.7,0,0,1-1.084-.607,2.261,2.261,0,0,1-.213-1.378C1530.916,5992.2,1531.656,5992.78,1532.224,5992.9Z"/><path d="M1546.017,6008.681a.314.314,0,0,1,.056.085c.125.454.983.869.241,1.361s-1.087-.278-1.392-.757a4.713,4.713,0,0,1-.6-1.483c-.049-.219.212-.507.331-.764.234.114.546.169.686.355a9.775,9.775,0,0,1,.7,1.231Z"/><path d="M1528.847,6008.406l.5-.648c.181-.093.359-.193.544-.277.574-.262,1.108-.26,1.327.433.193.615-.132.949-.755,1.073-.647.129-1.283.32-1.924.484l-.159-.236Z"/><path d="M1511.437,6017.341c.37.46.8.757.85,1.109.092.628-.324,1-.995,1.014-.719.016-1.746-.691-1.5-1.043C1510.1,6017.975,1510.75,6017.766,1511.437,6017.341Z"/><path d="M1513.09,6005.146c-.238.934-.443,1.879-.742,2.793-.059.18-.478.243-.732.36-.077-.234-.257-.49-.213-.7a5.97,5.97,0,0,1,.579-1.825c.189-.315.744-.41,1.135-.6Z"/><path d="M1541.645,6018.419a13.63,13.63,0,0,1-1.658-.73c-.2-.119-.245-.486-.361-.739.267-.113.561-.36.8-.311a5.753,5.753,0,0,1,1.507.578c.184.1.4.458.343.612C1542.193,6018.056,1541.889,6018.205,1541.645,6018.419Z"/><path d="M1513.149,6002.057l-1.608,1.6c-.192-.235-.527-.458-.549-.708-.064-.751.779-1.834,1.278-1.683C1512.558,6001.352,1512.768,6001.7,1513.149,6002.057Z"/><path d="M1525.177,6039.291l4.724-.652C1528.894,6039.977,1526.1,6040.288,1525.177,6039.291Z"/><path d="M1545.452,6017.514c.236-.765.415-1.438.664-2.085.059-.155.426-.354.522-.3a1.383,1.383,0,0,1,.668.648C1547.574,6016.665,1546.7,6017.56,1545.452,6017.514Z"/><path d="M1552.133,5994.735c-.7.677-1.221,1.223-1.8,1.7a.766.766,0,0,1-.71-.028c-.131-.086-.178-.436-.131-.637C1549.67,5995.018,1550.932,5994.407,1552.133,5994.735Z"/><path d="M1521.069,6041.682c-.386-.626-.782-.989-.816-1.383-.07-.8.711-.946,1.209-.866.3.048.679.72.682,1.115C1522.147,6040.843,1521.607,6041.144,1521.069,6041.682Z"/><path d="M1545.259,6019.408l-1.245,1.147c-.317-.355-.79-.672-.891-1.081-.059-.238.49-.892.746-.881C1544.272,6018.61,1544.658,6019.029,1545.259,6019.408Z"/><path d="M1547.442,6027.548c-.428-.861-.268-1.367.319-1.6a2.728,2.728,0,0,1,1.325-.095c.108.014.276.7.21.745C1548.709,6026.954,1548.074,6027.237,1547.442,6027.548Z"/><path d="M1539.8,6022.466c-.181-.585.271-.965.915-1.13.535-.137,1.44.7,1.4,1.251-.03.428-.185.732-.731.472C1540.927,6022.84,1540.431,6022.7,1539.8,6022.466Z"/><path d="M1524.356,5987.939l.688.774a14.931,14.931,0,0,1-1.517,1.051,1.247,1.247,0,0,1-.6-.685C1522.847,5988.225,1523.574,5988.178,1524.356,5987.939Z"/><path d="M1533.429,5999.382c-.422-.566-.793-.84-.816-1.141a.83.83,0,0,1,1-.962c.274.044.715.529.674.73A5.179,5.179,0,0,1,1533.429,5999.382Z"/><path d="M1543.36,6014.381l1.268-2.192.4.072a3.948,3.948,0,0,1-.033,1.408A1.149,1.149,0,0,1,1543.36,6014.381Z"/><path d="M1555.662,6026.753a4.936,4.936,0,0,1-1.338.782c-.223.036-.518-.375-.781-.584a5.5,5.5,0,0,1,1.1-.9C1554.784,6025.985,1555.151,6026.388,1555.662,6026.753Z"/><path d="M1506.528,6009.341l-.508-1.753c.834-.284,1.346,0,1.532.723S1507.36,6009.386,1506.528,6009.341Z"/><path d="M1513.948,6026.387c.792.25,1.588.487,2.37.764a.456.456,0,0,1,.192.407c-.075.153-.326.376-.418.341-.788-.3-1.557-.645-2.331-.978Z"/><path d="M1519.483,6002.246c-.471.346-.845.765-.991.7a1.293,1.293,0,0,1-.693-.844c-.026-.248.4-.543.624-.817Z"/><path d="M1518.865,6036.8l1.939,1.493C1519.661,6038.773,1518.874,6038.22,1518.865,6036.8Z"/><path d="M1546.55,6038.468c-.385.365-.624.771-.875.778s-.735-.439-.7-.6c.064-.331.414-.606.645-.905Z"/><path d="M1521.1,5989.292c-.106-.839.361-1.156,1.039-1.205.139-.01.459.363.429.5C1522.406,5989.322,1521.907,5989.548,1521.1,5989.292Z"/><path d="M1544.136,6040.7c-.3-.33-.646-.612-.606-.686a3.723,3.723,0,0,1,.656-.734c.207.222.533.423.58.675C1544.8,6040.128,1544.434,6040.371,1544.136,6040.7Z"/><path d="M1548.834,5996.9c.275.339.546.588.511.644a3.547,3.547,0,0,1-.689.76c-.019.017-.436-.305-.411-.376A6.8,6.8,0,0,1,1548.834,5996.9Z"/><path d="M1550.151,6053.47c-1,.12-1.37-.305-1.327-1.3.059-1.366.033-2.737.01-4.1-.012-.693.26-1.04.966-.973a14.166,14.166,0,0,1,1.925.231,3.061,3.061,0,0,1-.163,5.925C1551.1,6053.343,1550.622,6053.4,1550.151,6053.47Z"/><path d="M1501.9,6048.613c0-1.485.034-1.525,1.213-1.527,1.452,0,2.239.537,2.238,1.531,0,1.1-.848,1.729-2.329,1.714C1501.915,6050.32,1501.9,6050.3,1501.9,6048.613Z"/><path d="M1565.678,6050.231c0,2.046-1.059,3.308-2.819,3.348-1.791.041-2.924-1.26-2.917-3.351.006-2.032,1.108-3.3,2.87-3.3S1565.674,6048.2,1565.678,6050.231Z"/><path d="M1515.492,6047.419l1.4,3.682h-3.2l1.4-3.652Z"/><path d="M1539.153,6047.416l1.386,3.68h-3.184l1.414-3.678Z"/><path d="M1544.908,6031.011l-2.278-1.038C1543.6,6029.331,1544.241,6029.623,1544.908,6031.011Z" fill="#fff"/><path d="M1541.4,6025.6c.319.121.643.234.95.38a2.139,2.139,0,0,1-.115.415l-.938-.339Z" fill="#fff"/><path d="M1542.339,6004.621a9.7,9.7,0,0,1-1.915-.036c-.256-.057-.5-.476-.6-.779-.044-.143.259-.429.45-.6.166-.147.435-.182.592-.336,1.29-1.259,1.8-1.2,2.6.454a3.338,3.338,0,0,0-.748-.646,4.1,4.1,0,0,0-1.057-.183,4.38,4.38,0,0,0-.055,1.208C1541.675,6003.983,1541.994,6004.2,1542.339,6004.621Z" fill="#fff"/><path d="M1538.063,5998.888l.691,1.512,1.337-.7-.139,1.156C1537.754,6000.289,1537.754,6000.289,1538.063,5998.888Z" fill="#fff"/><path d="M1519.979,6008.194a1.316,1.316,0,0,1-1.816.4,2.631,2.631,0,0,1-1.115-1.2c.407.347.768.867,1.235,1A4.737,4.737,0,0,0,1519.979,6008.194Z" fill="#fff"/></g></svg>