<svg xmlns="http://www.w3.org/2000/svg" width="163.16" height="163.161" viewBox="0 0 163.16 163.161"><g transform="translate(-1916.279 -5949.214)" opacity="0.3"><path d="M2079.439,6112.37q-81.552.007-163.16,0V5949.214h163.16Zm-19.17-115.932c1.227-1.569,2.79-3.01,3.463-4.788.186-.493-2.267-1.987-3.509-3.021l-.682.578q.426,3.658.861,7.317c-.889-1.136-1.748-2.3-2.677-3.4-.615-.731-1.328-1.379-2.41-2.486l-.935,4.441-1.085,3.561-2.984,1.443c-4.962-2.189-6.5-6.382-6.223-11.454-3.871-.282-7.745.738-10.189-3.114l1.751-2.27c-2.491,1.22-3.77,2.848-1.823,5.381-.619.477-1.443.833-1.812,1.458a23.593,23.593,0,0,0-1.384,3.61c-3.8-3.614-1.385-6.906-.82-9.887-4.791-.8-8.419-4.253-13.5-3.992-6.985.359-14-2.393-21.051-.079-.21.069-.548-.256-.817-.392,2.76-6.984,1.979-11.743-2.289-14.352-3.836-2.344-10.391-1.619-12.979,1.824a9.9,9.9,0,0,0-1.982,5.637c.054,4.1,1.173,8,4.977,10.489-.459.362-.635.524-.833.654-6.658,4.352-7.688,8.208-4.615,15.385.512,1.194-.5,3.042-.815,4.588l-1.661.575-1.141-3.315c-2.709,2.343-.744,6.909-5.211,6.885-2.685-.015-5.37,0-8.055,0l-.079-.914c1.957-.379,4.149-.342,5.794-1.272a5.535,5.535,0,0,0,2.518-4.034c-.01-1.673.564-4.588-2.671-4.664-6.705-.157-13.417-.425-20.116-.249-3.7.1-5.526,3.465-3.7,6.751.955,1.72,3,2.832,4.408,4.086a19.236,19.236,0,0,0-4.177.065c-1.718.342-3.917.183-4.128,3.014-.481,6.45-1.023,12.9-1.818,19.319-.508,4.1-1.566,8.121-2.281,12.195-.646,3.678,2.877,9.4,6.064,9.577,3.577.194,7.177-.021,10.766-.078,2.96-.047,5.935.044,8.876-.227,4.3-.4,8.562-1.2,12.863-1.567,2.96-.254,5.958-.071,8.939-.074q6.269-.008,12.537,0l-.032,1.474a44.665,44.665,0,0,0-4.655-.283,40.351,40.351,0,0,0-8.905.852c-.63.171-.36,3.408-.636,5.212-.8,5.212-.487,5.339,5.033,5.411,7.179.093,14.352.616,21.531.882a48.158,48.158,0,0,0,5.019-.367l-1.73,4.293c-1.888-.588-3.726-1.847-5.081-1.451a94.749,94.749,0,0,0-10.268,4.173l2.92,3.5,2.254-1.945.576.444c-.492.864-.985,1.727-1.47,2.58l-2.824,7.935c-1.593,3.387-3.784,1.481-6.026.791l-.164,2.549c4.012,1.544,9.09-.966,12.114,3.75l-1.864,1.565a21.841,21.841,0,0,0,4.431.627,30.258,30.258,0,0,0,4.826-1.063c-.9-1.37-1.8-2.736-2.685-4.111-.172-.267-.286-.572-.522-1.054l9.91-.742c1.211.279,2.618.256,3.595.893,2.925,1.906,4.084.474,4.392-2.05-.878-1.464-2.209-3.47-1.671-4.459.882-1.622,2.977-2.583,4.713-3.942,1.006,1.514,1.509,2.329,2.07,3.1,1.037,1.43,2.108,2.837,3.164,4.253,1.242-1.053,3.164-1.876,3.611-3.2,2.506-7.414,10.276-6.386,15.16-9.889,1.515-1.088,3.292-2.338,3.987-3.933,1.381-3.165,1.681-6.773,4.78-9.12.872-.661,1.135-2.128,1.962-3.8l-7.641,1.166,6.46-9.556-.386-.26-2.439,1.888c.352-2.389.706-4.035.82-5.7.32-4.686.92-9.4.648-14.059-.145-2.483-1.857-4.833.314-7.255a1.994,1.994,0,0,0-.055-1.953c-2.5-2.329-1.877-8.066-7.538-7.014-.292.054-.714-.594-1.076-.916,4.974-1.375,1.9-4.113,1.1-6.452l3.352,4.464.624-5.862,2.94-1.915,3.905-1.553Zm-77.715,86.375a1.823,1.823,0,0,1,.655-.235l5.559-2.179a9.44,9.44,0,0,1-.226-1.647,9.149,9.149,0,0,0-3.128-7.3c-2.6-2.562-5.084-2.046-7.975-1.889-3.155.171-6.332-.059-9.5-.115-.331-1.009-.6-2.047-1.006-3.024-1.227-2.927-2.51-5.832-3.587-8.318l-5.694,3.73-.663-.7,3.495-4.45c-2.694.39-4.518.358-6.117.942-4.325,1.58-8.73,2.722-9.983,8.532-1.328,6.16-1.234,7.25,4.68,9.027l-5.88,1.042v4.579a37.856,37.856,0,0,0,5.162,1.812c3.37.7,6.954,1.979,10.158,1.4,3.136-.564,5.011-.027,6.812,2.2l2.6,1.26c-.648,1-1.087,2.278-1.981,2.949-3.191,2.4-6.669,2.347-10.9-.152,3.525,4,13.529,4.523,14.608,1.03,1.192-3.858,3.717-1.7,5.729-2.685l-3.3-.8c3.43-2.368,4.851-2.372,12.451-.053Zm68.043-100.9-.912-.086-5.439,2.974c1.452.732,3.22,1.187,4.48.584C2049.684,5984.93,2050,5983.123,2050.6,5981.917Z" fill="#fff"/><path d="M1998.182,6074.422l1.477-2.59-.576-.444-2.254,1.945-2.92-3.5a94.749,94.749,0,0,1,10.268-4.173c1.355-.4,3.193.863,5.081,1.451l1.73-4.293a48.158,48.158,0,0,1-5.019.367c-7.179-.266-14.352-.789-21.531-.882-5.52-.072-5.829-.2-5.033-5.411.276-1.8.006-5.041.636-5.212a40.351,40.351,0,0,1,8.905-.852,44.665,44.665,0,0,1,4.655.283l.032-1.474q-6.269,0-12.537,0c-2.981,0-5.979-.18-8.939.074-4.3.368-8.564,1.17-12.863,1.567-2.941.271-5.916.18-8.876.227-3.589.057-7.189.272-10.766.078-3.187-.173-6.71-5.9-6.064-9.577.715-4.074,1.773-8.1,2.281-12.195.795-6.417,1.337-12.869,1.818-19.319.211-2.831,2.41-2.672,4.128-3.014a19.236,19.236,0,0,1,4.177-.065c-1.4-1.254-3.453-2.366-4.408-4.086-1.826-3.286,0-6.654,3.7-6.751,6.7-.176,13.411.092,20.116.249,3.235.076,2.661,2.991,2.671,4.664a5.535,5.535,0,0,1-2.518,4.034c-1.645.93-3.837.893-5.794,1.272l.079.914c2.685,0,5.37-.012,8.055,0,4.467.024,2.5-4.542,5.211-6.885l1.141,3.315,1.661-.575c.311-1.546,1.327-3.394.815-4.588-3.073-7.177-2.043-11.033,4.615-15.385.2-.13.374-.292.833-.654-3.8-2.491-4.923-6.393-4.977-10.489a9.9,9.9,0,0,1,1.982-5.637c2.588-3.443,9.143-4.168,12.979-1.824,4.268,2.609,5.049,7.368,2.289,14.352.269.136.607.461.817.392,7.05-2.314,14.066.438,21.051.079,5.082-.261,8.71,3.193,13.5,3.992-.565,2.981-2.985,6.273.82,9.887a23.593,23.593,0,0,1,1.384-3.61c.369-.625,1.193-.981,1.8-1.473.373.392.758.8,1.142,1.207l-3.126,4.621,3.635-.765.223.886c-1.473.766-3,1.448-4.4,2.319-1.448.9-2.782,1.981-4.8,3.444,2.775.3,4.567.387,6.314.712,1.777.332,3.492,1,5.27,1.309.606.106,1.322-.416,1.988-.651l.424-1.536,2.952,2.274c.46,4.659-2.233,6.773-6.782,5.229-2.887-.98-5.718-2.119-9.228-3.431,2.875,10.822,10.7,8.006,17.92,7.269l-1.7,2.9,4.583-2.253,5.187,3.527.845-1.2a15.917,15.917,0,0,1-3.11-2.507c-.593-.775-.572-2.02-.823-3.057l-.075-.059c.362.322.784.97,1.076.916,5.661-1.052,5.036,4.685,7.538,7.014a1.994,1.994,0,0,1,.055,1.953c-2.171,2.422-.459,4.772-.314,7.255.272,4.658-.328,9.373-.648,14.059-.114,1.663-.468,3.309-.82,5.7l2.439-1.888.386.26-6.46,9.556,7.641-1.166c-.827,1.674-1.09,3.141-1.962,3.8-3.1,2.347-3.4,5.955-4.78,9.12-.7,1.595-2.472,2.845-3.987,3.933-4.884,3.5-12.654,2.475-15.16,9.889-.447,1.323-2.369,2.146-3.611,3.2-1.056-1.416-2.127-2.823-3.164-4.253-.561-.774-1.064-1.589-2.07-3.1-1.736,1.359-3.831,2.32-4.713,3.942-.538.989.793,3,1.671,4.459-.308,2.524-1.467,3.956-4.392,2.05-.977-.637-2.384-.614-3.595-.893l-.1.083c.718-.023,1.585.2,2.127-.117a42.886,42.886,0,0,0,3.794-2.794l-3.932-1.648-2.119-2.338c4.381-1.626,7.029-5.915,5.812-9.766-1.961,1.28-4.167,3.9-5.882,3.611-4.589-.775-7.016,2.367-10.242,4.11-.461-.941-1-2.715-1.37-2.681A31.872,31.872,0,0,0,1998.182,6074.422Zm-44.117-72.757c2.944,2.67,6.909,2,8.456-1.24l2.039,3.773.48-6.387-3.365.257-1.369,3.73-.292-3.816-.562-.018L1959,5999.3c-.682-.527-1.41-1.518-2.194-1.564-.679-.04-1.6.871-2.081,1.587a7.358,7.358,0,0,0-.608,2.431v-4.009c-1.415.312-2.811,1.1-3.845.768-5.683-1.833-6.453-1.422-6.48,4.164l3.386-3.049-.287,3.036c2.529,0,4.8,0,7.071-.042A6.575,6.575,0,0,0,1954.065,6001.665Zm38.072-22.521c-.121-.006-.3-.066-.354-.009-4.532,4.925-9.073,9.841-13.565,14.8-1.29,1.424-1.164,1.658.845,3.117a1.207,1.207,0,0,1,.451.82c.094,4.079,2.112,2.134,3.513,1.194l.775,1.866,2.195-2.172,1.247,2.263.96-.387c-.342-4.021,1.745-8.428-2.141-11.438,2.095-3.541,4.044-6.836,5.988-10.136.735-1.657,1.783-3.251,2.134-4.985.572-2.827-1.89-6.475-4.591-7.4-3.464-1.185-6.866-.126-8.538,2.839a5.722,5.722,0,0,0,.531,7.021c2.154,2.654,4.145.234,6.086-.124.656-.121,1.154-2.135,1.32-3.339.061-.439-1.112-1.52-1.615-1.457-.784.1-1.477.923-2.943,1.958h2.935c-.549.963-1.808,1.563-1.989,1.328-.583-.752-1.326-2.224-.995-2.674.818-1.112,2.143-2.44,3.364-2.546,2.546-.223,3.909,1.684,4.243,4.054A45.166,45.166,0,0,1,1992.137,5979.144Zm34.559,35.649,3.449-.237c-4.076-1.043-6.966-4.035-5.222-6.308,2.172-2.831.628-4.1-1.466-5.4-2.117-1.309-4.323-2.475-6.614-3.775-.336,2.176-.609,3.94-.881,5.7l-6.2-4.64c-2.653,4.006-5,4.384-6.462,1.6l3.079-2.52c.477,2.376,1.4,1.652,2.706.355,3.418-3.393,7.436-4.925,12.258-3.487.77.23,1.525.512,2.551.859a52.349,52.349,0,0,0,2.457-4.977,24.229,24.229,0,0,0,1.578-5.83c.347-3.342-2.919-2.446-4.587-3.329-.512-.27-1.664.672-3.045,1.294l-4.726-1.914c-.172-1.977-9.775-3.512-14.658-1.637l.891,2.571c-1.39-.875-2.106-1.268-2.758-1.747-2.134-1.572-4.823-1.763-5.995.37-3.337,6.074-5.667,12.542-3.447,20.1l5.955-.4-.1-.288,4.1.221c2.577,6.188,2.983,6.476,10.638,6.05a64.329,64.329,0,0,0,6.8-.838c.291-.048.457-.858.683-1.315a48.254,48.254,0,0,1,5.384,4.295,36.715,36.715,0,0,1,3.539,5.138l-3.216-1.386c.233,3.886.278,7.245.666,10.564.809,6.918,1.853,13.809,2.69,20.725a5.171,5.171,0,0,1-5.062,5.928c-3.521,0-7.04-.417-10.563-.589-1.67-.081-3.346-.013-5.02-.013l-.011,1.27c2.709,0,5.428.145,8.125-.038,3.2-.217,4.786,1.095,4.9,4.294a22,22,0,0,0,.666,2.958l1.063-3.564a9.315,9.315,0,0,1,.583,4.039c-.043,2.74-.506,5.763,2.367,7.383,3.462,1.952,6.941,4.85,11.21,1.446.595-.475,1.612-.42,2.427-.608-2.011,4.431-6.652,4.782-10.858,6.559l3.62,2.946,13.3-11.125-6.161,1.693c4.29-2.222,7.124-5.9,9.768-9.856-.554-.15-1.111-.3-1.684-.438-1.4-3.892,2.434-5.085,3.8-7.785a12.2,12.2,0,0,0-4.558,2.208c-.877.721-2.034,2.127-1.827,2.893.279,1.036,1.746,1.751,2.7,2.6l-5.33,2.92c-1.623-2.048-2.545-4.414-4.018-4.831-3.6-1.019-7.454-1.137-11.206-1.617l-.625-1.174c2.163-1.83,4.369-3.61,6.47-5.508,1.161-1.05,2.941-2.231,3.043-3.467.207-2.526.076-2.868,2.273-3.488.751-.211,2.011-1.129,1.935-1.356a44.226,44.226,0,0,0-2.095-4.724l2.952-1.13c-1.136-3.165-2.141-5.962-3.193-8.891l3.638-2.342-4.905-.5-.526-.933,3.819-3.375-5.588-2.191C2030.631,6015.344,2028.98,6017.572,2026.7,6014.793Zm18.453,3.642c2.158,1.315,4.2,1.857,4.417,2.813.957,4.206-3.666,2.7-5.677,5,1.512.671,2.783,1.175,3.993,1.8a15.89,15.89,0,0,1,1.924,1.365c-2.288,2.5.237,4.986.046,7.511-.255,3.363-.063,6.761-.063,10.144l1.524.73c1.553-1.706,3.7-3.172,4.507-5.178a22.9,22.9,0,0,0,1.192-8.2c.018-2.094-.749-4.194-1.213-6.526.059-.084.869-.7.826-1.258-.161-2.085-.65-4.141-.921-6.22-.285-2.186-.935-4.246-3.566-3.941C2049.907,6016.739,2047.756,6017.676,2045.149,6018.435Zm-50.216-3.921a6.1,6.1,0,0,0-.542-1.91,22.678,22.678,0,0,0-2.086-2.85,18.818,18.818,0,0,0-1.805,3.165,44.038,44.038,0,0,0-1.119,4.83,12.794,12.794,0,0,1-1.631-3.965,41.691,41.691,0,0,0-2.056-4.146c-.6,1.328-1.2,2.66-1.824,3.976-.073.154-.322.225-.685.461a21.967,21.967,0,0,0-1.077-3.027c-.288-.555-.946-1.258-1.446-1.266a1.938,1.938,0,0,0-1.407,1.254,80.581,80.581,0,0,0-1.071,8.24c-.04.556.873,1.181,1.347,1.774a14.323,14.323,0,0,0,1.275-1.738,9.876,9.876,0,0,0,.51-2.006l1.75,4.6,2.761-5.8.905,6.146,6.487-3.1,2.909,2.558-.261-3.286c2.024.893,4.219,1.983,6.521,2.755.374.126,1.715-1.132,1.744-1.79a18.277,18.277,0,0,0-.721-4.195l-1.131.221-.4,3.519-1.254.336c-.675-1.856-2.007-3.794-1.789-5.538.142-1.131,2.546-1.979,4.51-3.356-1.181-.248-2.8-1.109-3.483-.631A38.572,38.572,0,0,0,1994.933,6014.514Zm-33.281,4.233-.832.108c-.342-1.4-1.224-2.918-.931-4.165,1.181-5.033.568-5.772-4.993-4.824-.36,2.8-.857,5.657-1.022,8.533-.052.9.79,1.848,1.222,2.774a18.106,18.106,0,0,0,1.494-2.393,19.411,19.411,0,0,0,.685-3.149l1.339,5.231h5.409l.7-4.634c3.034,6.326,4.239,6.657,7.729,2.61l2.924,2.5.81-.484a63.6,63.6,0,0,0-1.343-7.331c-.418-1.41-1.6-2.594-2.434-3.879a24.218,24.218,0,0,0-2.274,3.9,32.5,32.5,0,0,0-1.024,4.907c-1.094-1.152-1.855-2.343-1.663-3.354,1.012-5.322.4-6.058-5.183-5.136-.083,1.349-.16,2.772-.26,4.193C1961.9,6015.681,1961.772,6017.214,1961.652,6018.747Zm10.5,5.585c-.336,4.692-.727,9.24-.914,13.795-.026.637,1,1.889,1.448,1.848a3.021,3.021,0,0,0,2.272-1.441,26.884,26.884,0,0,0,.708-5.1c2.845,2.262,1.212,8.379,7.53,6.548-1.29-2.684-2.494-5.19-3.7-7.7l.928.245c.379-2.016,1.672-4.471.956-5.96C1979.642,6022.949,1975.956,6023.912,1972.153,6024.332Zm21.424,15.322c4.231,1.525,8.611.989,9.734-1.446a5.636,5.636,0,0,0-1.554-7.154c0-2.214.544-5.036-.1-5.338-2.4-1.13-5.187-1.436-8.083-2.11Zm-22.765-7.84c.01-4.142-2.922-8.191-6.01-8.3-3.767-.133-7.729,4.289-7.659,8.548.078,4.663,3.283,8.4,7.218,8.406C1967.905,6040.477,1970.8,6036.593,1970.812,6031.814Zm33.127,8.339,1.161.951c.872-.764,1.794-1.48,2.6-2.311a11.769,11.769,0,0,0,1.219-1.831c.5.525.982,1.074,1.512,1.57.771.723,1.578,1.408,2.37,2.11.322-.977,1.068-2.038.892-2.915a109.055,109.055,0,0,0-2.875-11.571,3.614,3.614,0,0,0-2.9-1.806,3.411,3.411,0,0,0-2.446,2.206C2004.766,6031.06,2004.413,6035.616,2003.939,6040.153Zm-60.655-6.69a8.994,8.994,0,0,0,2.444-.05,11.832,11.832,0,0,0,2.52-1.316,9.761,9.761,0,0,0-2.385-1.29,16.487,16.487,0,0,0-3.373-.053l.455-3.657c1.8-1.927,5.016.65,6.373-3.206a65.972,65.972,0,0,0-7.508.09c-.913.112-2.328,1.127-2.448,1.9-.717,4.613-1.123,9.273-1.649,14.064C1942.926,6040.246,1940.927,6035.721,1943.284,6033.463Zm-2.576-23.8c.361,2.574.712,4.38.826,6.2.05.805-.6,1.659-.531,2.455a11.027,11.027,0,0,0,.935,2.684c.655-.647,1.669-1.19,1.89-1.961.5-1.73.421-3.627.938-5.348.287-.955,1.3-1.692,1.985-2.528l.847.632-.572,9.441,5.547-.292c-1.138-1.242-2.808-2.428-2.619-2.992.389-1.165,1.769-2,2.907-3.132-6.272-2.232-.247-3.348.808-5.16Zm74.1,15.227c0,1.863-.087,3.552.023,5.229.118,1.789.533,3.56.623,5.349.236,4.685,3.373,6.729,7.811,4.92a2.607,2.607,0,0,0,1.16-1.476c.063-.175-.786-1-1.168-.97-3.357.3-3.562-1.813-3.675-4.332-.1-2.274-.653-4.525-.908-6.8C2018.4,6024.4,2017.3,6023.637,2014.806,6024.885Zm-31.784-1.192-.942.966c2.76,4.224,4.14,8.7,3.305,13.736-.1.6,1.407,1.456,2.168,2.194.743-.847,2.271-1.917,2.1-2.507-1.349-4.778.072-9.021,2.442-13.169l-.993-.933-3.826,2.514Zm-29.974,14.136c.246-4.647.478-9.045.771-14.607-1.73,1.06-3.4,1.53-3.5,2.237-.728,4.8-1.127,9.652-1.633,14.493,7.693.559,7.693.559,8.63-1.75Zm61.213-27.767c-2.41-1.4-4.157.846-5.8,2.3l-2.315-1.995a9.473,9.473,0,0,0-.949,2.7,49.431,49.431,0,0,0,.275,6.5c.055.539.77,1.01,1.181,1.513a5.792,5.792,0,0,0,1.255-1.424,2.6,2.6,0,0,0,.2-1.26,47.3,47.3,0,0,0,5.429,2.5c.449.149,1.315-.953,1.989-1.479-3.4-.572-4.729-2.461-4.306-5.044C2011.464,6012.93,2013.052,6011.7,2014.261,6010.062Zm7.767,11.613.845-.832c-.832-3.129-1.582-6.286-2.563-9.368-.216-.679-1.254-1.1-1.914-1.634-.531.673-1.413,1.29-1.531,2.028a76.959,76.959,0,0,0-.774,7.9c-.032.585.536,1.2,1.385,2.954l1.588-3.348Zm-37.476,30.865-.247-.543c-.823.869-2.355,1.735-2.358,2.606-.017,6.654,4.915,1.522,7.774,3.749l-1.386-6.677-3.8,5.364-1.329-.7Zm17.151,5.669-1.45-5.443-.635.154v5.551l6.982-.748-1.789-5.266-1.117.124C2003.151,6054.116,2002.608,6055.652,2001.7,6058.209ZM1990.31,6002.5l-.368,1.164c1.962,3.507,3.255,3.888,8.519,1.5Zm-.207,50.21-.367,5.5,1.847-2.13,2.515,2.8v-5.663Zm-13.191-63.9,1.24,1.531,7.494-6.073-1.183-1.473Zm-1.1,18.307.624.417,5-3.933-2.44-3.592Zm36.6,51.257c-1.008-1.852,1.571-6.613-3.786-5.378l.886,6.106c.624-1.419.868-1.973,1.16-2.635Zm3.125.062,1.617-.78-2.39-3.8,1.073-.518-.965-.96c-.55.832-1.607,1.719-1.525,2.484C2013.456,6055.867,2014.46,6056.776,2015.54,6058.435Z"/><path d="M1965.316,6086.222c-1.8-2.226-3.676-2.763-6.812-2.2-3.2.576-6.788-.7-10.158-1.4a37.856,37.856,0,0,1-5.162-1.812v-4.579l5.88-1.042-.1.074a33.119,33.119,0,0,1,2.327,2.618c.731,1.008,1.038,2.517,1.975,3.142,2.571,1.718,8.178.561,9.806-2.1,1.868-3.057,3.314-6.372,4.943-9.576l-.077.1c3.168.056,6.345.286,9.5.115,2.891-.157,5.376-.673,7.975,1.889a9.149,9.149,0,0,1,3.128,7.3,9.44,9.44,0,0,0,.226,1.647l-5.553,2.177c-.438-.951-.646-2.387-1.379-2.743-1.287-.626-3.226-1.253-4.307-.711-3.187,1.6-6.762,1.23-8.977-1.567-.691-.871-1.35-1.767-2.023-2.652l-1.185.7,3.353,6.861a14.013,14.013,0,0,0-3.079,1.579C1965.2,6084.4,1965.4,6085.473,1965.316,6086.222Z"/><path d="M1949.064,6075.187c-5.914-1.777-6.008-2.867-4.68-9.027,1.253-5.81,5.658-6.952,9.983-8.532,1.6-.584,3.423-.552,6.117-.942l-3.495,4.45.663.7,5.694-3.73c1.077,2.486,2.36,5.391,3.587,8.318.41.977.675,2.015,1.006,3.024l.077-.1-3.039-1,1.23,2.737-.684.776c-2.249-1.747-4.6-3.382-6.711-5.281-1.278-1.151-5.9-1.469-5.907-.154-.023,4.579-3,3.055-6.361,2.752l2.421,6.094Z"/><path d="M2015.385,6084.659l-9.91.742c.236.482.35.787.522,1.054.887,1.375,1.789,2.741,2.685,4.111a30.258,30.258,0,0,1-4.826,1.063,21.841,21.841,0,0,1-4.431-.627l1.864-1.565c-3.024-4.716-8.1-2.206-12.114-3.75l.164-2.549c2.242.69,4.433,2.6,6.022-.784-.5,1.842-.076,2.757,1.832,1.555a36.3,36.3,0,0,0,3.566-2.9c.126,3.3,2.911,2.8,4.682,2.748,2.495-.07,4.965-.991,7.445-1.549l-.1-.437,4.625-1.705c-1.7,1.107-4.017,1.932-2.126,4.673Z"/><path d="M1965.316,6086.222c.082-.749-.114-1.826.3-2.178a14.013,14.013,0,0,1,3.079-1.579l-3.353-6.861,1.185-.7c.673.885,1.332,1.781,2.023,2.652,2.215,2.8,5.79,3.164,8.977,1.567,1.081-.542,3.02.085,4.307.711.733.356.941,1.792,1.379,2.743a1.852,1.852,0,0,0-.661.237c-.971.4-1.986,1.226-2.9,1.13-4.452-.468-8.383.489-11.731,3.539Z" fill="#fff"/><path d="M2034.959,5989.818c-.384-.407-.769-.815-1.142-1.207-1.937-2.518-.658-4.146,1.833-5.366l-1.751,2.27c2.444,3.852,6.318,2.832,10.189,3.114-.279,5.072,1.261,9.265,6.223,11.454l1.038,2.308c.8,2.353,3.88,5.091-1.094,6.466l.075.06c.681-3.516-3.463-4.545-3.863-7.5-.262-4.6-2.571-6.551-5.725-4.83.1-.693.192-1.388.312-2.078.256-1.471.529-2.938.8-4.407-1.469-.054-2.938-.1-4.407-.163C2036.614,5989.9,2035.787,5989.858,2034.959,5989.818Z"/><path d="M1967.919,6087.482c3.348-3.05,7.279-4.007,11.731-3.539.918.1,1.933-.729,2.9-1.13l1.975,4.955c-7.6-2.319-9.021-2.315-12.451.053l3.3.8c-2.012.989-4.537-1.173-5.729,2.685-1.079,3.493-11.083,2.973-14.608-1.03,4.231,2.5,7.709,2.548,10.9.152C1966.832,6089.76,1967.271,6088.482,1967.919,6087.482Z"/><path d="M2000.759,6081.012a36.3,36.3,0,0,1-3.566,2.9c-1.908,1.2-2.33.287-1.832-1.555q1.418-3.978,2.825-7.937a32.2,32.2,0,0,1,5.287-1.3c.37-.034.909,1.74,1.37,2.681Z" fill="#fff"/><path d="M2053.295,5998.64l1.085-3.561,1.785-1.644,2.109,5.657-2.94,1.915-2.547.673Z" fill="#fff"/><path d="M2060.4,5996.523l-.854-7.316.682-.578c1.242,1.034,3.7,2.528,3.509,3.021-.673,1.778-2.236,3.219-3.46,4.788Z"/><path d="M2058.274,5999.092l-2.109-5.657-1.785,1.644.935-4.441c1.082,1.107,1.8,1.755,2.41,2.486.929,1.1,1.788,2.264,2.674,3.4l-.127-.085c.491.285.986.57,1.907,1.1Z"/><path d="M2050.6,5981.917c-.6,1.206-.913,3.013-1.871,3.472-1.26.6-3.028.148-4.48-.584l5.439-2.974Z"/><path d="M2053.295,5998.64l-.508,3.04,2.547-.673-.624,5.862c-1.579-2.1-2.466-3.283-3.357-4.471q-.525-1.164-1.042-2.315Z"/><path d="M2017.668,6005.27c-.224.458-.39,1.268-.681,1.316a64.329,64.329,0,0,1-6.8.838c-7.655.426-8.061.138-10.638-6.05l-4.1-.221.1.288-5.955.4c-2.22-7.556.11-14.024,3.447-20.1,1.172-2.133,3.861-1.942,5.995-.37.652.479,1.368.872,2.758,1.747l-.891-2.571c4.883-1.875,14.486-.34,14.658,1.637l4.726,1.914c1.381-.622,2.533-1.564,3.045-1.294,1.668.883,4.934-.013,4.587,3.329a24.229,24.229,0,0,1-1.578,5.83,52.349,52.349,0,0,1-2.457,4.977c-1.026-.347-1.781-.629-2.551-.859-4.822-1.438-8.84.094-12.258,3.487-1.307,1.3-2.229,2.021-2.706-.355l-3.079,2.52c1.461,2.787,3.809,2.409,6.462-1.6l6.2,4.635C2016.522,6004.937,2017.095,6005.1,2017.668,6005.27Z" fill="#fff"/><path d="M2045.413,6056.88l1.668.45c-2.644,3.96-5.478,7.634-9.768,9.856l.108-.076c-.822.191-1.839.136-2.434.611-4.269,3.4-7.748.506-11.21-1.446-2.873-1.62-2.41-4.643-2.367-7.383a9.315,9.315,0,0,0-.583-4.039l-1.063,3.564a22,22,0,0,1-.666-2.958c-.11-3.2-1.693-4.511-4.9-4.294-2.7.183-5.416.038-8.125.038l.011-1.27c1.674,0,3.35-.068,5.02.013,3.523.172,7.042.586,10.563.589a5.171,5.171,0,0,0,5.062-5.928c-.837-6.916-1.881-13.807-2.69-20.725-.388-3.319-.433-6.678-.666-10.564l3.216,1.386a1.049,1.049,0,0,0,.1.089c2.284,2.779,3.935.551,5.463-.587l5.588,2.191-3.819,3.375.526.933,4.905.5-3.638,2.342c1.052,2.929,2.057,5.726,3.193,8.891l-2.952,1.13a44.226,44.226,0,0,1,2.095,4.724c.076.227-1.184,1.145-1.935,1.356-2.2.62-2.066.962-2.273,3.488-.1,1.236-1.882,2.417-3.043,3.467-2.1,1.9-4.307,3.678-6.47,5.508l.625,1.174c3.752.48,7.607.6,11.206,1.617,1.473.417,2.4,2.783,4.018,4.831l5.33-2.92Zm-9.166,2.506c-1-.8-1.953-1.757-2.088-1.652a9.626,9.626,0,0,0-2.466,2.633c-.15.258.916,1.223,1.422,1.863Z" fill="#fff"/><path d="M2045.149,6018.435c2.607-.759,4.758-1.7,6.989-1.955,2.631-.305,3.281,1.755,3.566,3.941.271,2.079.76,4.135.921,6.22.043.554-.767,1.174-.826,1.258.464,2.332,1.231,4.432,1.213,6.526a22.9,22.9,0,0,1-1.192,8.2c-.807,2.006-2.954,3.472-4.507,5.178l-1.524-.73c0-3.383-.192-6.781.063-10.144.191-2.525-2.334-5.014-.046-7.511a15.89,15.89,0,0,0-1.924-1.365c-1.21-.621-2.481-1.125-3.993-1.8,2.011-2.306,6.634-.8,5.677-5C2049.348,6020.292,2047.307,6019.75,2045.149,6018.435Z" fill="#fff"/><path d="M1994.933,6014.514a38.572,38.572,0,0,1,4.932-4.761c.683-.478,2.3.383,3.483.631-1.964,1.377-4.368,2.225-4.51,3.356-.218,1.744,1.114,3.682,1.789,5.538l1.254-.336.4-3.519,1.131-.221a18.277,18.277,0,0,1,.721,4.195c-.029.658-1.37,1.916-1.744,1.79-2.3-.772-4.5-1.862-6.521-2.755l.261,3.286-2.909-2.558-6.487,3.1-.905-6.146-2.761,5.8-1.75-4.6a9.876,9.876,0,0,1-.51,2.006,14.323,14.323,0,0,1-1.275,1.738c-.474-.593-1.387-1.218-1.347-1.774a80.581,80.581,0,0,1,1.071-8.24,1.938,1.938,0,0,1,1.407-1.254c.5.008,1.158.711,1.446,1.266a21.967,21.967,0,0,1,1.077,3.027c.363-.236.612-.307.685-.461.626-1.316,1.221-2.648,1.824-3.976a41.691,41.691,0,0,1,2.056,4.146,12.794,12.794,0,0,0,1.631,3.965,44.038,44.038,0,0,1,1.119-4.83,18.818,18.818,0,0,1,1.805-3.165,22.678,22.678,0,0,1,2.086,2.85A6.1,6.1,0,0,1,1994.933,6014.514Z" fill="#fff"/><path d="M1961.652,6018.747c.12-1.533.249-3.066.356-4.6.1-1.421.177-2.844.26-4.193,5.58-.922,6.2-.186,5.183,5.136-.192,1.011.569,2.2,1.663,3.354a32.5,32.5,0,0,1,1.024-4.907,24.218,24.218,0,0,1,2.274-3.9c.837,1.285,2.016,2.469,2.434,3.879a63.6,63.6,0,0,1,1.343,7.331l-.81.484-2.926-2.494c-3.488,4.046-4.693,3.715-7.727-2.611l-.7,4.634h-5.409l-1.339-5.231a19.411,19.411,0,0,1-.685,3.149,18.106,18.106,0,0,1-1.494,2.393c-.432-.926-1.274-1.876-1.222-2.774.165-2.876.662-5.733,1.022-8.533,5.561-.948,6.174-.209,4.993,4.824-.293,1.247.589,2.769.931,4.165Z" fill="#fff"/><path d="M2000.759,6081.012l4.084-5.212c3.226-1.743,5.653-4.885,10.242-4.11,1.715.29,3.921-2.331,5.882-3.611,1.217,3.851-1.431,8.14-5.812,9.766.635.7,1.377,1.519,2.118,2.338l.138-.114-4.625,1.705.1.437c-2.48.558-4.95,1.479-7.445,1.549C2003.67,6083.81,2000.885,6084.315,2000.759,6081.012Z" fill="#fff"/><path d="M2046.467,6001.414c.4,2.958,4.544,3.987,3.863,7.5.251,1.036.23,2.281.823,3.056a15.917,15.917,0,0,0,3.11,2.507l-.845,1.2-5.187-3.527-4.583,2.253,1.7-2.9c-7.22.737-15.045,3.553-17.92-7.269,3.51,1.312,6.341,2.451,9.228,3.431,4.549,1.544,7.242-.57,6.782-5.229Z" fill="#fff"/><path d="M1972.153,6024.332c3.8-.42,7.489-1.383,9.229,2.241.716,1.489-.577,3.944-.956,5.96l-.928-.245c1.2,2.506,2.409,5.012,3.7,7.7-6.318,1.831-4.685-4.286-7.53-6.548a26.884,26.884,0,0,1-.708,5.1,3.021,3.021,0,0,1-2.272,1.441c-.448.041-1.474-1.211-1.448-1.848C1971.426,6033.572,1971.817,6029.024,1972.153,6024.332Z" fill="#fff"/><path d="M1993.577,6039.654v-16.048c2.9.674,5.683.98,8.083,2.11.641.3.1,3.124.1,5.338a5.636,5.636,0,0,1,1.554,7.154C2002.188,6040.643,1997.808,6041.179,1993.577,6039.654Zm3.61-2.737,1.071.81c.767-1.052,2.139-2.117,2.118-3.153-.018-.9-1.613-1.766-3.189-3.312Z" fill="#fff"/><path d="M1970.812,6031.814c-.011,4.779-2.907,8.663-6.451,8.654-3.935-.011-7.14-3.743-7.218-8.406-.07-4.259,3.892-8.681,7.659-8.548C1967.89,6023.623,1970.822,6027.672,1970.812,6031.814Zm-2.14.247c-1.817-2.342-3-5.324-4.493-5.489-3.228-.356-3.238,2.913-3.345,5.276-.111,2.445.715,5.1,3.441,4.949C1965.63,6036.72,1966.842,6034.137,1968.672,6032.061Z" fill="#fff"/><path d="M2003.939,6040.153c.474-4.537.827-9.093,1.524-13.6a3.411,3.411,0,0,1,2.446-2.206,3.614,3.614,0,0,1,2.9,1.806,109.055,109.055,0,0,1,2.875,11.571c.176.877-.57,1.938-.892,2.915-.792-.7-1.6-1.387-2.37-2.11-.53-.5-1.01-1.045-1.512-1.57a11.769,11.769,0,0,1-1.219,1.831c-.8.831-1.724,1.547-2.6,2.311Z" fill="#fff"/><path d="M1992.056,5979.07l-5.993,10.131c3.886,3.01,1.8,7.417,2.141,11.438l-.96.387-1.247-2.263-2.195,2.172-.775-1.866c-1.4.94-3.419,2.885-3.513-1.194a1.207,1.207,0,0,0-.451-.82c-2.009-1.459-2.135-1.693-.845-3.117,4.492-4.962,9.033-9.878,13.565-14.8.053-.057.233,0,.354.009Z" fill="#fff"/><path d="M2034.959,5989.818c.828.04,1.655.085,2.483.118,1.469.059,2.938.109,4.407.163-.266,1.469-.539,2.936-.8,4.407-.12.69-.209,1.385-.312,2.078l.124-.15-6.267,2.647,5.458,2.612c-.666.235-1.382.757-1.988.651-1.778-.312-3.493-.977-5.27-1.309-1.747-.325-3.539-.412-6.314-.712,2.021-1.463,3.355-2.546,4.8-3.444,1.406-.871,2.93-1.553,4.4-2.319l-.223-.886-3.635.765Z" fill="#fff"/><path d="M1992.137,5979.144a45.166,45.166,0,0,0-.144-5.4c-.334-2.37-1.7-4.277-4.243-4.054-1.221.106-2.546,1.434-3.364,2.546-.331.45.412,1.922.995,2.674.181.235,1.44-.365,1.989-1.328h-2.935c1.466-1.035,2.159-1.859,2.943-1.958.5-.063,1.676,1.018,1.615,1.457-.166,1.2-.664,3.218-1.32,3.339-1.941.358-3.932,2.778-6.086.124a5.722,5.722,0,0,1-.531-7.021c1.672-2.965,5.074-4.024,8.538-2.839,2.7.923,5.163,4.571,4.591,7.4-.351,1.734-1.4,3.328-2.132,4.987Z" fill="#fff"/><path d="M1943.284,6033.463c-2.357,2.258-.358,6.783-5.571,6.479.526-4.791.932-9.451,1.649-14.064.12-.77,1.535-1.785,2.448-1.9a65.972,65.972,0,0,1,7.508-.09c-1.357,3.856-4.572,1.279-6.373,3.206l-.455,3.657a16.487,16.487,0,0,1,3.373.053,9.761,9.761,0,0,1,2.385,1.29,11.832,11.832,0,0,1-2.52,1.316A8.994,8.994,0,0,1,1943.284,6033.463Z" fill="#fff"/><path d="M1940.708,6009.658h12.961c-1.055,1.812-7.08,2.928-.808,5.16-1.138,1.134-2.518,1.967-2.907,3.132-.189.564,1.481,1.75,2.619,2.992l-5.547.292.572-9.441-.847-.632c-.686.836-1.7,1.573-1.985,2.528-.517,1.721-.44,3.618-.938,5.348-.221.771-1.235,1.314-1.89,1.961a11.027,11.027,0,0,1-.935-2.684c-.069-.8.581-1.65.531-2.455C1941.42,6014.038,1941.069,6012.232,1940.708,6009.658Z" fill="#fff"/><path d="M2014.806,6024.885c2.5-1.248,3.594-.49,3.866,1.923.255,2.272.807,4.523.908,6.8.113,2.519.318,4.628,3.675,4.332.382-.034,1.231.795,1.168.97a2.607,2.607,0,0,1-1.16,1.476c-4.438,1.809-7.575-.235-7.811-4.92-.09-1.789-.505-3.56-.623-5.349C2014.719,6028.437,2014.806,6026.748,2014.806,6024.885Z" fill="#fff"/><path d="M1983.022,6023.693l4.258,2.8,3.826-2.514.993.933c-2.37,4.148-3.791,8.391-2.442,13.169.167.59-1.361,1.66-2.1,2.507-.761-.738-2.266-1.6-2.168-2.194.835-5.038-.545-9.512-3.305-13.736Z" fill="#fff"/><path d="M1953.048,6037.829l4.264.373c-.937,2.309-.937,2.309-8.63,1.75.506-4.841.905-9.692,1.633-14.493.108-.707,1.774-1.177,3.5-2.237C1953.526,6028.784,1953.294,6033.182,1953.048,6037.829Z" fill="#fff"/><path d="M2014.261,6010.062c-1.209,1.639-2.8,2.868-3.035,4.318-.423,2.583.906,4.472,4.306,5.044-.674.526-1.54,1.628-1.989,1.479a47.3,47.3,0,0,1-5.429-2.5,2.6,2.6,0,0,1-.2,1.26,5.792,5.792,0,0,1-1.255,1.424c-.411-.5-1.126-.974-1.181-1.513a49.431,49.431,0,0,1-.275-6.5,9.473,9.473,0,0,1,.949-2.7l2.315,1.995C2010.1,6010.908,2011.851,6008.667,2014.261,6010.062Z" fill="#fff"/><path d="M2026.7,6014.793a1.049,1.049,0,0,1-.1-.089,36.715,36.715,0,0,0-3.539-5.138,48.166,48.166,0,0,0-5.385-4.295c-.574-.167-1.147-.334-1.714-.5.279-1.759.552-3.523.888-5.7,2.291,1.3,4.5,2.466,6.614,3.775,2.094,1.294,3.638,2.565,1.466,5.4-1.744,2.273,1.146,5.265,5.222,6.308Z" fill="#fff"/><path d="M2022.028,6021.675l-2.964-2.3-1.588,3.348c-.849-1.752-1.417-2.369-1.385-2.954a76.959,76.959,0,0,1,.774-7.9c.118-.738,1-1.355,1.531-2.028.66.538,1.7.955,1.914,1.634.981,3.082,1.731,6.239,2.563,9.368Z" fill="#fff"/><path d="M2037.313,6067.186l6.161-1.693-13.3,11.125-3.62-2.946c4.206-1.777,8.847-2.128,10.862-6.561Z" fill="#fff"/><path d="M1954.113,6001.754a7.381,7.381,0,0,1,.609-2.435c.479-.716,1.4-1.627,2.081-1.587.784.046,1.512,1.037,2.194,1.564l.455-1.332.562.018.292,3.816,1.369-3.73,3.365-.257-.48,6.387-2.039-3.773c-1.547,3.236-5.512,3.91-8.456,1.24Z" fill="#fff"/><path d="M1954.065,6001.665a6.575,6.575,0,0,1-.106.953c-2.271.047-4.542.042-7.071.042l.287-3.036-3.386,3.049c.027-5.586.8-6,6.48-4.164,1.034.334,2.43-.456,3.845-.768v4.011Z" fill="#fff"/><path d="M2046.467,6001.414l-3.034,1.017-2.952-2.274q.192-1.862.385-3.723l-.124.15C2043.9,5994.863,2046.2,5996.81,2046.467,6001.414Z" fill="#fff"/><path d="M1984.552,6052.54l-1.347,3.795,1.329.7,3.8-5.364,1.386,6.677c-2.859-2.227-7.791,2.9-7.774-3.749,0-.871,1.535-1.737,2.358-2.606Z" fill="#fff"/><path d="M2001.7,6058.209c.905-2.557,1.448-4.093,1.991-5.628l1.117-.124,1.789,5.266-6.982.748v-5.551l.635-.154Z" fill="#fff"/><path d="M2017.411,6080.069l-.138.114,3.933,1.648a42.886,42.886,0,0,1-3.794,2.794c-.542.321-1.409.094-2.127.117C2013.394,6082,2015.711,6081.176,2017.411,6080.069Z" fill="#fff"/><path d="M1990.31,6002.5l8.151,2.66c-5.264,2.392-6.557,2.011-8.519-1.5Z" fill="#fff"/><path d="M2045.515,6056.811c-.958-.852-2.425-1.567-2.7-2.6-.207-.766.95-2.172,1.827-2.893a12.2,12.2,0,0,1,4.558-2.208c-1.365,2.7-5.2,3.893-3.791,7.779Z" fill="#fff"/><path d="M1990.1,6052.711l3.995.506v5.663l-2.515-2.8-1.847,2.13Z" fill="#fff"/><path d="M1976.912,5988.809l7.551-6.015,1.183,1.473-7.494,6.073Z" fill="#fff"/><path d="M1975.813,6007.116l3.182-7.108,2.44,3.592-5,3.933Z" fill="#fff"/><path d="M2040.866,5996.434q-.193,1.861-.385,3.723l-.424,1.536-5.458-2.612Z"/><path d="M2012.415,6058.373l-1.74-1.907c-.292.662-.536,1.216-1.16,2.635l-.886-6.106C2013.986,6051.76,2011.407,6056.521,2012.415,6058.373Z" fill="#fff"/><path d="M2015.54,6058.435c-1.08-1.659-2.084-2.568-2.19-3.573-.082-.765.975-1.652,1.525-2.484l.965.96-1.073.518,2.39,3.8Z" fill="#fff"/><path d="M1948.965,6075.261l-2.421-6.094c3.358.3,6.338,1.827,6.361-2.752.007-1.315,4.629-1,5.907.154,2.112,1.9,4.462,3.534,6.711,5.281l.684-.776-1.23-2.737,3.039,1c-1.629,3.2-3.075,6.519-4.943,9.576-1.628,2.665-7.235,3.822-9.806,2.1-.937-.625-1.244-2.134-1.975-3.142A33.119,33.119,0,0,0,1948.965,6075.261Z" fill="#fff"/><path d="M2036.247,6059.386l-3.132,2.844c-.506-.64-1.572-1.6-1.422-1.863a9.626,9.626,0,0,1,2.466-2.633C2034.294,6057.629,2035.25,6058.583,2036.247,6059.386Z"/><path d="M1997.187,6036.917v-5.655c1.576,1.546,3.171,2.413,3.189,3.312.021,1.036-1.351,2.1-2.118,3.153Z"/><path d="M1968.672,6032.061c-1.83,2.076-3.042,4.659-4.4,4.736-2.726.155-3.552-2.5-3.441-4.949.107-2.363.117-5.632,3.345-5.276C1965.672,6026.737,1966.855,6029.719,1968.672,6032.061Z"/></g></svg>