<?xml version="1.0" encoding="UTF-8" standalone="no"?>
<!-- Created with Inkscape (http://www.inkscape.org/) -->

<svg
   xmlns:dc="http://purl.org/dc/elements/1.1/"
   xmlns:cc="http://creativecommons.org/ns#"
   xmlns:rdf="http://www.w3.org/1999/02/22-rdf-syntax-ns#"
   xmlns:svg="http://www.w3.org/2000/svg"
   xmlns="http://www.w3.org/2000/svg"
   xmlns:sodipodi="http://sodipodi.sourceforge.net/DTD/sodipodi-0.dtd"
   xmlns:inkscape="http://www.inkscape.org/namespaces/inkscape"
   width="799.99994"
   height="600"
   viewBox="0 0 211.66664 158.75"
   version="1.1"
   id="svg8"
   inkscape:version="0.92.3 (2405546, 2018-03-11)"
   sodipodi:docname="placeholder.svg">
  <defs
     id="defs2" />
  <sodipodi:namedview
     id="base"
     pagecolor="#ffffff"
     bordercolor="#666666"
     borderopacity="1.0"
     inkscape:pageopacity="0.0"
     inkscape:pageshadow="2"
     inkscape:zoom="0.98994949"
     inkscape:cx="410.16048"
     inkscape:cy="279.30321"
     inkscape:document-units="mm"
     inkscape:current-layer="layer1"
     showgrid="false"
     units="px"
     inkscape:pagecheckerboard="true"
     showborder="true"
     inkscape:showpageshadow="false"
     fit-margin-top="0"
     fit-margin-left="0"
     fit-margin-right="0"
     fit-margin-bottom="0"
     inkscape:window-width="1920"
     inkscape:window-height="1017"
     inkscape:window-x="1912"
     inkscape:window-y="-8"
     inkscape:window-maximized="1" />
  <metadata
     id="metadata5">
    <rdf:RDF>
      <cc:Work
         rdf:about="">
        <dc:format>image/svg+xml</dc:format>
        <dc:type
           rdf:resource="http://purl.org/dc/dcmitype/StillImage" />
        <dc:title></dc:title>
      </cc:Work>
    </rdf:RDF>
  </metadata>
  <g
     inkscape:label="Camada 1"
     inkscape:groupmode="layer"
     id="layer1"
     transform="translate(-0.37797621,-138.77914)">
    <rect
       style="opacity:1;fill:#fafafa;fill-opacity:1;stroke:none;stroke-width:0.26395559;stroke-linecap:round;stroke-linejoin:round;stroke-miterlimit:4;stroke-dasharray:none;stroke-dashoffset:0;stroke-opacity:1"
       id="rect4518"
       width="211.66666"
       height="158.75"
       x="0.37797621"
       y="138.77914" />
    <g
       id="g4629"
       transform="matrix(0.90971667,0,0,0.90971667,79.829521,191.77236)"
       style="fill:#a5a5a5;fill-opacity:1">
      <g
         id="g4571"
         style="fill:#a5a5a5;fill-opacity:1">
	<path
   id="path4565"
   d="M 57,6 H 1 C 0.448,6 0,6.447 0,7 v 44 c 0,0.553 0.448,1 1,1 h 56 c 0.552,0 1,-0.447 1,-1 V 7 C 58,6.447 57.552,6 57,6 Z M 56,50 H 2 V 8 h 54 z"
   inkscape:connector-curvature="0"
   style="fill:#a5a5a5;fill-opacity:1" />

	<path
   id="path4567"
   d="m 16,28.138 c 3.071,0 5.569,-2.498 5.569,-5.568 C 21.569,19.498 19.071,17 16,17 c -3.071,0 -5.569,2.498 -5.569,5.569 0,3.071 2.498,5.569 5.569,5.569 z M 16,19 c 1.968,0 3.569,1.602 3.569,3.569 0,1.967 -1.601,3.569 -3.569,3.569 -1.968,0 -3.569,-1.601 -3.569,-3.568 C 12.431,20.603 14.032,19 16,19 Z"
   inkscape:connector-curvature="0"
   style="fill:#a5a5a5;fill-opacity:1" />

	<path
   id="path4569"
   d="m 7,46 c 0.234,0 0.47,-0.082 0.66,-0.249 L 23.973,31.389 34.275,41.69 c 0.391,0.391 1.023,0.391 1.414,0 0.391,-0.391 0.391,-1.023 0,-1.414 l -4.807,-4.807 9.181,-10.054 11.261,10.323 c 0.407,0.373 1.04,0.345 1.413,-0.062 0.373,-0.407 0.346,-1.04 -0.062,-1.413 l -12,-11 c -0.196,-0.179 -0.457,-0.268 -0.72,-0.262 -0.265,0.012 -0.515,0.129 -0.694,0.325 L 29.467,34.053 24.724,29.31 C 24.35,28.937 23.752,28.918 23.356,29.266 L 6.339,44.249 C 5.924,44.614 5.884,45.246 6.249,45.661 6.447,45.886 6.723,46 7,46 Z"
   inkscape:connector-curvature="0"
   style="fill:#a5a5a5;fill-opacity:1" />

</g>
      <g
         id="g4573"
         style="fill:#a5a5a5;fill-opacity:1">
</g>
      <g
         id="g4575"
         style="fill:#a5a5a5;fill-opacity:1">
</g>
      <g
         id="g4577"
         style="fill:#a5a5a5;fill-opacity:1">
</g>
      <g
         id="g4579"
         style="fill:#a5a5a5;fill-opacity:1">
</g>
      <g
         id="g4581"
         style="fill:#a5a5a5;fill-opacity:1">
</g>
      <g
         id="g4583"
         style="fill:#a5a5a5;fill-opacity:1">
</g>
      <g
         id="g4585"
         style="fill:#a5a5a5;fill-opacity:1">
</g>
      <g
         id="g4587"
         style="fill:#a5a5a5;fill-opacity:1">
</g>
      <g
         id="g4589"
         style="fill:#a5a5a5;fill-opacity:1">
</g>
      <g
         id="g4591"
         style="fill:#a5a5a5;fill-opacity:1">
</g>
      <g
         id="g4593"
         style="fill:#a5a5a5;fill-opacity:1">
</g>
      <g
         id="g4595"
         style="fill:#a5a5a5;fill-opacity:1">
</g>
      <g
         id="g4597"
         style="fill:#a5a5a5;fill-opacity:1">
</g>
      <g
         id="g4599"
         style="fill:#a5a5a5;fill-opacity:1">
</g>
      <g
         id="g4601"
         style="fill:#a5a5a5;fill-opacity:1">
</g>
    </g>
  </g>
</svg>
