<?xml version="1.0" encoding="UTF-8" standalone="no"?>
<!-- Generator: Adobe Illustrator 19.0.0, SVG Export Plug-In . SVG Version: 6.00 Build 0)  -->

<svg
   xmlns:dc="http://purl.org/dc/elements/1.1/"
   xmlns:cc="http://creativecommons.org/ns#"
   xmlns:rdf="http://www.w3.org/1999/02/22-rdf-syntax-ns#"
   xmlns:svg="http://www.w3.org/2000/svg"
   xmlns="http://www.w3.org/2000/svg"
   xmlns:sodipodi="http://sodipodi.sourceforge.net/DTD/sodipodi-0.dtd"
   xmlns:inkscape="http://www.inkscape.org/namespaces/inkscape"
   version="1.1"
   id="Capa_1"
   x="0px"
   y="0px"
   viewBox="0 0 512 512"
   style="enable-background:new 0 0 512 512;"
   xml:space="preserve"
   sodipodi:docname="favicon.svg"
   inkscape:version="0.92.4 (5da689c313, 2019-01-14)"><metadata
   id="metadata47"><rdf:RDF><cc:Work
       rdf:about=""><dc:format>image/svg+xml</dc:format><dc:type
         rdf:resource="http://purl.org/dc/dcmitype/StillImage" /><dc:title></dc:title></cc:Work></rdf:RDF></metadata><defs
   id="defs45">
	

		
	
			
			
		</defs><sodipodi:namedview
   pagecolor="#ffffff"
   bordercolor="#666666"
   borderopacity="1"
   objecttolerance="10"
   gridtolerance="10"
   guidetolerance="10"
   inkscape:pageopacity="0"
   inkscape:pageshadow="2"
   inkscape:window-width="1920"
   inkscape:window-height="1017"
   id="namedview43"
   showgrid="false"
   inkscape:zoom="0.4609375"
   inkscape:cx="256"
   inkscape:cy="256"
   inkscape:window-x="1358"
   inkscape:window-y="-8"
   inkscape:window-maximized="1"
   inkscape:current-layer="Capa_1" />
<path
   inkscape:connector-curvature="0"
   id="path2"
   d="M 512,455.11125 C 512,486.52875 486.5275,512 455.11125,512 H 56.88875 C 25.4725,512 0,486.5275 0,455.11125 V 56.88875 C 0,25.4725 25.4725,0 56.88875,0 h 398.2225 C 486.5275,0 512,25.4725 512,56.88875 Z"
   style="fill:#2e334d;stroke-width:1.25;fill-opacity:1" /><path
   inkscape:connector-curvature="0"
   id="path4"
   d="m 177.9625,132.86375 c 0,-18.07625 12.345,-34.38875 34.40375,-34.38875 H 325.2475 c 19.41375,0 29.55375,14.99 29.55375,30.42125 0,14.99 -9.71375,30.42125 -29.55375,30.42125 H 244.11 v 64.38375 h 68.36625 c 21.1625,0 31.74375,14.99 31.74375,29.995 0,15.43125 -10.58125,30.8625 -31.74375,30.8625 H 244.11 v 96.1275 c 0,22.05875 -14.10875,34.38875 -33.06625,34.38875 -18.9725,0 -33.08125,-12.33125 -33.08125,-34.38875 z"
   style="fill:#ffffff;stroke-width:1.25" />
<g
   id="g12">
</g>
<g
   id="g14">
</g>
<g
   id="g16">
</g>
<g
   id="g18">
</g>
<g
   id="g20">
</g>
<g
   id="g22">
</g>
<g
   id="g24">
</g>
<g
   id="g26">
</g>
<g
   id="g28">
</g>
<g
   id="g30">
</g>
<g
   id="g32">
</g>
<g
   id="g34">
</g>
<g
   id="g36">
</g>
<g
   id="g38">
</g>
<g
   id="g40">
</g>
</svg>