<svg xmlns="http://www.w3.org/2000/svg" xmlns:xlink="http://www.w3.org/1999/xlink" width="648.362" height="272.014" viewBox="0 0 648.362 272.014"><defs><clipPath id="a"><rect width="648.362" height="272.014"/></clipPath><clipPath id="t"><rect width="648.362" height="272.014" transform="translate(0 0)"/></clipPath></defs><g transform="translate(49 134.912)"><g transform="translate(-49 -134.912)" clip-path="url(#a)"><path d="M897.468,33.171a6.778,6.778,0,1,1,6.772-6.777,6.781,6.781,0,0,1-6.772,6.777m0-12.634a5.843,5.843,0,1,0,5.819,5.858,5.872,5.872,0,0,0-5.819-5.858" transform="translate(-306.995 76.371)" fill="#34394b"/></g><g transform="translate(-49 -134.912)" clip-path="url(#a)"><path d="M902.957,27.641a2.277,2.277,0,0,0,.487-1.417,2.329,2.329,0,0,0-.755-1.767,2.586,2.586,0,0,0-1.891-.683h-3.227v8.384h1.273V28.616h1.59l1.76,3.542h1.478l-1.936-3.72a2.106,2.106,0,0,0,1.22-.8m-4.113-.094V24.911h1.883a1.539,1.539,0,0,1,1.036.356,1.14,1.14,0,0,1,.375.957,1.175,1.175,0,0,1-.4.973,1.4,1.4,0,0,1-1.009.351Z" transform="translate(-309.597 74.796)" fill="#34394b"/></g><g transform="translate(-49 -134.912)" clip-path="url(#a)"><path d="M283.452,43.127V42.76c4.74-3.244,6.672-7.416,6.672-13.61,0-11.3-7.681-17.589-20.451-17.589H242.529c-2.949,0-3.968,1.01-3.968,3.98V73.514c0,2.862,1.019,3.867,3.968,3.867h27.5c13.064,0,22.79-6.379,22.79-18.336,0-8.041-3.433-13.32-9.367-15.918m-26.56-16.665h8.981c3.7,0,5.64,1.569,5.64,5.193,0,3.6-1.94,4.988-5.64,4.988h-8.981Zm10.736,35.943H256.891V51.554h10.736c3.973,0,5.926,1.666,5.926,5.373,0,3.885-1.953,5.478-5.926,5.478" transform="translate(-59.939 79.422)" fill="#34394b"/></g><g transform="translate(-49 -134.912)" clip-path="url(#a)"><path d="M376.575,57.065a24.518,24.518,0,0,0-2.506-3.976c6.3-3.505,9.991-10.006,9.991-19.055,0-14.362-9.051-22.326-23.04-22.326H334.625c-2.967,0-3.981,1.02-3.981,3.889V73.569c0,2.862,1.014,3.867,3.981,3.867H345.1c2.954,0,3.885-1.005,3.885-3.867V55.589h2.124c3.793,0,5.364,1.572,6.931,4.728l5.934,12.677c1.48,3.235,3.621,4.442,8.529,4.442h9.986c3.055,0,3.705-2.028,2.41-4.525ZM358.986,40.122h-10V27.913h10c3.973,0,6.1,2.309,6.1,6.015,0,3.793-2.221,6.194-6.1,6.194" transform="translate(-94.824 79.367)" fill="#34394b"/></g><g transform="translate(-49 -134.912)" clip-path="url(#a)"><path d="M450.072,9.475c-18.339,0-28.518,9.909-28.518,25.929V52.061c0,16.028,10.178,25.92,28.518,25.92,18.238,0,28.426-9.893,28.426-25.92V35.4c0-16.019-10.188-25.929-28.426-25.929m10.091,43.42c0,5.827-3.7,8.893-10.091,8.893-6.479,0-10.183-3.067-10.183-8.893V34.554c0-5.816,3.7-8.882,10.183-8.882,6.387,0,10.091,3.066,10.091,8.882Z" transform="translate(-129.264 80.213)" fill="#34394b"/></g><g transform="translate(-49 -134.912)" clip-path="url(#a)"><path d="M548.72,25.672c5.174,0,7.958,1.849,9.625,6.027,1.023,2.855,2.134,3.334,5.009,2.491l9.9-3.518c2.77-.906,3.429-2.311,2.5-5-3.884-10.365-12.787-16.2-27.034-16.2-18.238,0-28.518,9.909-28.518,25.929V52.061c0,16.028,10.28,25.921,28.518,25.921,14.248,0,23.15-5.834,27.034-16.193.927-2.684.268-4.076-2.5-5l-9.9-3.516c-2.788-1.03-3.9-.378-5.009,2.49-1.483,3.986-4.451,6.025-9.625,6.025-7.313,0-10.185-3.147-10.185-9.628V35.3c0-6.473,2.872-9.629,10.185-9.629" transform="translate(-166.635 80.213)" fill="#34394b"/></g><g transform="translate(-49 -134.912)" clip-path="url(#a)"><path d="M660.121,49.768a18.474,18.474,0,0,0-5.644-7.135l16.851-26.857c1.485-2.4.55-4.069-2.225-4.069H658.454c-4.811,0-5.644.562-7.4,3.425l-13.33,21.013h-2.037V15.6c0-2.869-.926-3.888-3.888-3.888h-10.46c-2.964,0-3.982,1.02-3.982,3.888V73.569c0,2.862,1.018,3.867,3.982,3.867h10.46c2.963,0,3.888-1.005,3.888-3.867V52.349h1.673c3.507,0,4.815,1.668,6.294,4.633l8.063,16.587c1.563,3.231,3.319,3.867,8.23,3.867h10c3.047,0,3.7-2.028,2.405-4.525Z" transform="translate(-203.44 79.367)" fill="#34394b"/></g><g transform="translate(-49 -134.912)" clip-path="url(#a)"><path d="M755.29,61.238H730.016V52.349h19.528c2.972,0,3.976-1.011,3.976-3.976V40.05c0-2.884-1-3.9-3.976-3.9H730.016V27.913h24.448c2.95,0,3.969-1.016,3.969-3.985V15.6c0-2.869-1.019-3.888-3.969-3.888h-38.8c-2.967,0-3.981,1.02-3.981,3.888V73.569c0,2.862,1.014,3.867,3.981,3.867H755.29c2.87,0,3.89-1.005,3.89-3.867V65.122c0-2.954-1.019-3.885-3.889-3.885" transform="translate(-239.175 79.367)" fill="#34394b"/></g><g transform="translate(-49 -134.912)" clip-path="url(#a)"><path d="M850.578,72.91,842.25,57.065a23.936,23.936,0,0,0-2.506-3.976c6.3-3.505,10.012-10.006,10.012-19.055,0-14.362-9.071-22.326-23.066-22.326H800.314c-2.968,0-3.99,1.02-3.99,3.889V73.569c0,2.862,1.022,3.867,3.99,3.867h10.463c2.96,0,3.877-1.005,3.877-3.867V55.589H816.8c3.788,0,5.372,1.572,6.935,4.728l5.93,12.677c1.479,3.235,3.608,4.442,8.528,4.442h9.981c3.074,0,3.728-2.027,2.407-4.525m-25.92-32.788h-10V27.913h10c3.985,0,6.11,2.309,6.11,6.015,0,3.793-2.217,6.194-6.11,6.194" transform="translate(-271.241 79.367)" fill="#34394b"/></g><g transform="translate(-49 -134.912)" clip-path="url(#a)"><path d="M140.057,163.18a62.05,62.05,0,0,0-12.392-.763c-16.992.632-35.611,10.012-45.634,21.587-.081.092-.17.184-.248.272-.143.176.061.211.16.237.125.022.262.048.391.079a59.166,59.166,0,0,0,57.853-21.17.669.669,0,0,0,.055-.084c.088-.1.027-.122,0-.127-.061-.014-.125-.023-.18-.032" transform="translate(-0.527 22.29)" fill="#34394b"/></g><g transform="translate(-49 -134.912)" clip-path="url(#a)"><path d="M177.128,120.806a29.523,29.523,0,0,0-6.461-3.082,28.53,28.53,0,0,0-9.754-1.708c-.112,0-.21.013-.316.022-.062.009-.18.013-.187.18-.006.075-.006.149-.006.224-.092,7.813-3.171,15.657-9.66,20.806,0,0-.421.347-.822.663-.1.083-.2.163-.285.232-.211.154.079.137.217.137.184-.013.37-.013.557-.022a66.161,66.161,0,0,1,18.253,2.313c.167.043.327.092.5.136.34.088.432-.075.489-.153.068-.114.143-.237.216-.347a60.738,60.738,0,0,0,7.524-18.734c.012-.079.03-.158.048-.25a.247.247,0,0,0-.068-.268c-.073-.048-.153-.1-.242-.149" transform="translate(-26.223 39.859)" fill="#b4232d"/></g><g transform="translate(-49 -134.912)" clip-path="url(#a)"><path d="M44.061,22.481a.326.326,0,0,1,.013.1c.017.075.048.106.16.02.075-.061.15-.112.217-.166C64.335,7.231,89.77,7.982,96.17,26.925c.726,2.138,1.363,6.58-.235,10.179-.1.224-.211.439-.323.657-.068.119-.136.366.18.255a6.682,6.682,0,0,1,.731-.18c11.252-2.535,29.21,1.345,37.077,7.25.081.061.163.122.248.193.061.044.142.061.1-.05-.038-.081-.075-.173-.112-.262A59.188,59.188,0,0,0,44.19,21.21a1.012,1.012,0,0,1-.147.112c-.037.033-.156.1-.137.2.012.08.031.171.042.259.045.255.088.522.112.7" transform="translate(13.804 80.22)" fill="#a3bd31"/></g><g transform="translate(-49 -134.912)" clip-path="url(#a)"><path d="M142.251,69.221a75.654,75.654,0,0,0-16.074-1.738c-1.754,0-10.067.127-15.695,1.852-.149.042-.18,1.045-.013,1a23.917,23.917,0,0,1,10.236-1.022,37.518,37.518,0,0,1,7.035,2.027C135.3,74.73,140.881,80.9,144.059,89.5c.05.149.112.3.161.452a.227.227,0,0,0,.223.187c.068.007.137.012.2.019,6.864.549,13.131,1.822,18.681,4.956.068.044.142.08.211.123s.206.132.23-.031c.011-.061.024-.122.03-.193a27.059,27.059,0,0,0-.055-7.832c-1.861-12.285-15.721-16.6-21.488-17.957" transform="translate(-11.37 58.237)" fill="#db9600"/></g><g transform="translate(-49 -134.912)" clip-path="url(#a)"><path d="M33.833,56.463a1.57,1.57,0,0,0,.136-.1.143.143,0,0,0,.044-.178,1.121,1.121,0,0,0-.038-.156c-3.167-12.936-5.094-23.694-5.434-25.645-.013-.074-.024-.143-.03-.191-.018-.081-.061-.1-.156-.02-.037.024-.061.055-.1.081A59.242,59.242,0,0,0,7.21,87.976c.017.092.03.18.055.272.043.2.119.127.149.057.017-.044.043-.08.061-.132a85.185,85.185,0,0,1,26.358-31.71" transform="translate(28.133 72.391)" fill="#a3bd31"/></g><g transform="translate(-49 -134.912)" clip-path="url(#a)"><path d="M71.018,158.546c.031-.03-.024-.088-.122-.175a1.9,1.9,0,0,1-.18-.184c-1.723-1.849-6.24-10.421-10.684-20.35-.011-.035-.035-.083-.048-.127a.152.152,0,0,0-.228-.07,1.723,1.723,0,0,0-.169.1c-7.973,4.6-17.51,14.713-21.1,23.431-.033.07-.064.145-.088.211-.057.149.007.206.037.232.081.066.16.136.235.2a59.086,59.086,0,0,0,17.448,10.547c.125.048.241.092.366.137.18.074.229.03.272-.027s.075-.106.112-.153A64.538,64.538,0,0,1,70.815,158.7c.061-.044.142-.106.2-.149" transform="translate(15.9 31.669)" fill="#b4232d"/></g><g transform="translate(-49 -134.912)" clip-path="url(#a)"><path d="M46.431,112.857c.2-.132.425-.242.626-.386a.574.574,0,0,0,.122-.681c-1.815-4.376-3.494-8.775-4.8-12.766-1.251-3.828-2.386-7.62-3.451-11.5-.013-.031-.03-.119-.043-.154-.05-.142-.224-.1-.266-.07-.441.317-.8.591-1.24.931C28.3,95.252,19.124,106.654,12.412,119.3a.294.294,0,0,0-.011.259c.011.031.037.149.048.18,2.063,6.535,6.823,13.019,10.82,17.509.017.017.079.08.1.1.123.153.229.065.3-.039s.162-.246.224-.329c6.1-9.894,12.738-18.116,22.542-24.125" transform="translate(25.748 50.741)" fill="#db9600"/></g><g transform="translate(-49 -134.912)" clip-path="url(#a)"><path d="M239.24,154.125h8.16v25.617h4.493V154.125h8.155v-4.047H239.24Z" transform="translate(-60.196 26.947)" fill="#34394b"/></g><g transform="translate(-49 -134.912)" clip-path="url(#a)"><path d="M297,169.51a6.411,6.411,0,0,1-1.685,4.684,5.994,5.994,0,0,1-4.46,1.721,5.922,5.922,0,0,1-4.475-1.721,6.527,6.527,0,0,1-1.641-4.684V150.078h-4.5v19.629a9.714,9.714,0,0,0,3.018,7.392,11.61,11.61,0,0,0,15.236,0,9.716,9.716,0,0,0,3.011-7.392V150.078H297Z" transform="translate(-75.728 26.947)" fill="#34394b"/></g><g transform="translate(-49 -134.912)" clip-path="url(#a)"><path d="M345.233,163.835a7.944,7.944,0,0,0,1.636-5.11,8.187,8.187,0,0,0-2.516-6.255,9.282,9.282,0,0,0-6.674-2.392H326.192v29.664h4.492V167.214l5.625,0,6.228,12.532h5.248l-6.821-13.151a8,8,0,0,0,4.269-2.755m-14.549-.4v-9.31h6.661a5.281,5.281,0,0,1,3.667,1.238,4.446,4.446,0,0,1,1.37,3.424,4.292,4.292,0,0,1-1.394,3.41,5.284,5.284,0,0,1-3.643,1.238h-6.661Z" transform="translate(-93.137 26.947)" fill="#34394b"/></g><g transform="translate(-49 -134.912)" clip-path="url(#t)"><rect width="4.497" height="29.664" transform="translate(260.307 177.025)" fill="#34394b"/></g><g transform="translate(-49 -134.912)" clip-path="url(#a)"><path d="M402,163.622a14.721,14.721,0,0,0-3.259-.812l-3.371-.5a6.3,6.3,0,0,1-3.31-1.352,3.535,3.535,0,0,1-1.146-2.77,4.3,4.3,0,0,1,1.438-3.3,5.715,5.715,0,0,1,3.972-1.312,11.661,11.661,0,0,1,3.579.518,7.666,7.666,0,0,1,2.875,1.765l2.87-2.818a12.938,12.938,0,0,0-9.2-3.384,10.366,10.366,0,0,0-7.242,2.414,8.063,8.063,0,0,0-2.665,6.286,7.3,7.3,0,0,0,2.081,5.583,10.149,10.149,0,0,0,5.706,2.462l3.489.487a7.853,7.853,0,0,1,2,.465,5.634,5.634,0,0,1,1.567,1.058,3.691,3.691,0,0,1,.857,2.809,3.933,3.933,0,0,1-1.611,3.345,7.431,7.431,0,0,1-4.506,1.19,12.511,12.511,0,0,1-4.187-.65,8.679,8.679,0,0,1-3.388-2.182l-2.994,2.949a12,12,0,0,0,4.574,3.024,17.6,17.6,0,0,0,5.91.891,12.065,12.065,0,0,0,7.714-2.322,7.723,7.723,0,0,0,2.937-6.369q0-3.951-1.709-5.461a11.541,11.541,0,0,0-2.98-2.014" transform="translate(-115.626 27.107)" fill="#34394b"/></g><g transform="translate(-49 -134.912)" clip-path="url(#a)"><path d="M442.434,168.5l-8.645-18.427h-4.5v29.664h4.5V159.866l7,14.454,3.313.009,6.817-14.415v19.827h4.491V150.078h-4.491Z" transform="translate(-132.193 26.947)" fill="#34394b"/></g><g transform="translate(-49 -134.912)" clip-path="url(#a)"><path d="M502.869,157.156a7.522,7.522,0,0,0-2.206-4.13,11.3,11.3,0,0,0-3.692-2.577,11.475,11.475,0,0,0-4.315-.794,9.679,9.679,0,0,0-7.192,2.594,9.8,9.8,0,0,0-3.017,4.938,46.582,46.582,0,0,0-.434,7.537,46.842,46.842,0,0,0,.434,7.581,10.12,10.12,0,0,0,10.209,7.483,10.628,10.628,0,0,0,7.827-3.16,8.186,8.186,0,0,0,2.443-4.275,51.258,51.258,0,0,0,.388-7.628,45.607,45.607,0,0,0-.446-7.568m-4.381,13.836a5.38,5.38,0,0,1-1.252,2.761,5.99,5.99,0,0,1-2.1,1.506,6.508,6.508,0,0,1-4.951.013,5.913,5.913,0,0,1-2.108-1.536,5.457,5.457,0,0,1-1.271-2.708,42.311,42.311,0,0,1-.314-6.3,38.457,38.457,0,0,1,.348-6.254,5.579,5.579,0,0,1,1.237-2.779,6.063,6.063,0,0,1,2.108-1.484,6.218,6.218,0,0,1,2.47-.505,6.423,6.423,0,0,1,2.48.479,5.359,5.359,0,0,1,1.934,1.352,5.87,5.87,0,0,1,1.431,2.884,40.446,40.446,0,0,1,.316,6.307,40.127,40.127,0,0,1-.329,6.268" transform="translate(-152.168 27.107)" fill="#34394b"/></g></g></svg>