<?xml version="1.0" encoding="UTF-8" standalone="no"?>
<svg
   xmlns:dc="http://purl.org/dc/elements/1.1/"
   xmlns:cc="http://creativecommons.org/ns#"
   xmlns:rdf="http://www.w3.org/1999/02/22-rdf-syntax-ns#"
   xmlns:svg="http://www.w3.org/2000/svg"
   xmlns="http://www.w3.org/2000/svg"
   xmlns:sodipodi="http://sodipodi.sourceforge.net/DTD/sodipodi-0.dtd"
   xmlns:inkscape="http://www.inkscape.org/namespaces/inkscape"
   width="150"
   height="150"
   viewBox="0 0 39.6875 39.687502"
   version="1.1"
   id="svg8"
   inkscape:version="1.0 (4035a4fb49, 2020-05-01)"
   sodipodi:docname="desenhando.svg">
  <defs
     id="defs2" />
  <sodipodi:namedview
     id="base"
     pagecolor="#ffffff"
     bordercolor="#666666"
     borderopacity="1.0"
     inkscape:pageopacity="0.0"
     inkscape:pageshadow="2"
     inkscape:zoom="1.979899"
     inkscape:cx="41.549989"
     inkscape:cy="110.08218"
     inkscape:document-units="mm"
     inkscape:current-layer="g131"
     inkscape:document-rotation="0"
     showgrid="false"
     fit-margin-top="0"
     fit-margin-left="0"
     fit-margin-right="0"
     fit-margin-bottom="0"
     inkscape:window-width="1366"
     inkscape:window-height="705"
     inkscape:window-x="-8"
     inkscape:window-y="-8"
     inkscape:window-maximized="1"
     units="px" />
  <metadata
     id="metadata5">
    <rdf:RDF>
      <cc:Work
         rdf:about="">
        <dc:format>image/svg+xml</dc:format>
        <dc:type
           rdf:resource="http://purl.org/dc/dcmitype/StillImage" />
        <dc:title></dc:title>
      </cc:Work>
    </rdf:RDF>
  </metadata>
  <g
     inkscape:label="Layer 1"
     inkscape:groupmode="layer"
     id="layer1"
     transform="translate(-132.34069,-147.13204)">
    <g
       id="g54"
       transform="matrix(0.26458333,0,0,0.26458333,87.017094,74.652916)">
      <g
         id="g131"
         transform="translate(-3449.1275,206.76278)">
        <g
           transform="matrix(1.7567871,0,0,1.7567871,-3104.1067,-106.89913)"
           id="g1033">
          <path
             style="stroke-width:2.00095"
             d="m 3883.1553,168.63578 h -26.8587 a 1.41367,1.41367 0 0 0 0,2.82734 h 26.8587 a 1.41367,1.41367 0 0 0 0,-2.82734 z m 0,0 m 25.444,-38.16807 a 4.2400078,4.2400078 0 0 0 4.2401,-4.24002 v -22.6107 a 4.2400078,4.2400078 0 0 0 -4.2401,-4.240005 h -22.6107 a 4.2420087,4.2420087 0 0 0 -4.242,4.240005 v 22.6107 a 4.2420087,4.2420087 0 0 0 4.242,4.24002 h 9.8947 v 4.26001 c -0.052,0 -0.1,-0.02 -0.1521,-0.02 h -63.4581 a 4.2420087,4.2420087 0 0 0 -4.2419,4.24202 v 33.92606 a 4.2420087,4.2420087 0 0 0 4.2419,4.24 h 4.3681 a 8.4720119,8.4720119 0 0 0 16.7079,0 h 32.7676 a 8.4720119,8.4720119 0 0 0 16.7079,0 h 5.7807 a 4.2400078,4.2400078 0 0 0 4.24,-4.24 v -13.32433 a 4.2360059,4.2360059 0 0 0 -0.6443,-2.24907 l -12.874,-20.60975 a 4.2019898,4.2019898 0 0 0 -0.6163,-0.75236 v -5.47259 z m -63.6101,50.8881 a 5.6546777,5.6546777 0 1 1 5.6527,-5.65469 5.6546777,5.6546777 0 0 1 -5.6527,5.65469 z m 49.4755,0 a 5.6546777,5.6546777 0 1 1 5.6526,-5.65469 5.6546777,5.6546777 0 0 1 -5.6526,5.65469 z m 15.3332,-22.55469 a 1.4146699,1.4146699 0 0 1 0.2141,0.75036 v 9.0823 h -4.24 a 1.41367,1.41367 0 0 0 0,2.82734 h 4.24 v 1.41467 a 1.412669,1.412669 0 0 1 -1.4127,1.41267 h -5.7807 a 8.4720119,8.4720119 0 0 0 -16.7079,0 h -32.7675 a 8.4720119,8.4720119 0 0 0 -16.7079,0 h -4.3681 a 1.4146699,1.4146699 0 0 1 -1.4147,-1.41267 v -1.41467 h 2.8273 a 1.41367,1.41367 0 1 0 0,-2.82734 h -2.8273 v -29.68205 a 1.412669,1.412669 0 0 1 1.4147,-1.41467 h 63.458 a 1.4006633,1.4006633 0 0 1 1.2005,0.6643 z m -23.8113,-31.16075 a 1.4146699,1.4146699 0 0 1 -1.4146,-1.41268 v -22.6107 a 1.4146699,1.4146699 0 0 1 1.4146,-1.41266 h 22.6107 a 1.412669,1.412669 0 0 1 1.4127,1.41266 v 22.6107 a 1.412669,1.412669 0 0 1 -1.4127,1.41268 z m 0,0 m 19.2551,-10.99721 -6.5371,-5.22848 v -4.97635 a 1.4146699,1.4146699 0 0 0 -2.8273,0 v 4.97635 l -6.537,5.23048 a 1.412669,1.412669 0 1 0 1.7668,2.20104 l 4.7702,-3.8198 v 6.37101 l -1.0005,1.00047 a 1.4149065,1.4149065 0 1 0 2.001,2.00096 l 0.4142,-0.4142 0.4141,0.4142 a 1.4149065,1.4149065 0 0 0 2.001,-2.00096 l -1.0005,-1.00047 v -6.37101 l 4.7703,3.8178 a 1.412669,1.412669 0 1 0 1.7669,-2.20104 z m 0,0 m -13.6044,42.09794 h -2.8273 a 1.4146699,1.4146699 0 1 0 0,2.82733 h 2.8273 a 1.4146699,1.4146699 0 0 0 0,-2.82733 z m 0,0 m -25.4441,0 a 1.4146699,1.4146699 0 1 0 0,2.82733 h 2.8274 a 1.4146699,1.4146699 0 0 0 0,-2.82733 z m 0,0 m -19.7913,0 h -2.8273 a 1.4146699,1.4146699 0 0 0 0,2.82733 h 2.8273 a 1.4146699,1.4146699 0 1 0 0,-2.82733 z m 0,0 m 4.24,-18.37671 h -11.3074 a 2.8273389,2.8273389 0 0 0 -2.8273,2.82734 v 8.48603 a 2.8273389,2.8273389 0 0 0 2.8273,2.82733 h 11.3094 a 2.8253379,2.8253379 0 0 0 2.8253,-2.82733 v -8.48202 a 2.8273389,2.8273389 0 0 0 -2.8273,-2.82735 z m 0,11.30936 h -11.3074 v -8.48202 h 11.3094 v 8.48603 z m 0,0 m 11.3094,2.82733 h 11.3093 a 2.8293398,2.8293398 0 0 0 2.8274,-2.82733 v -8.48202 a 2.8293398,2.8293398 0 0 0 -2.8274,-2.82734 h -11.3093 a 2.8273389,2.8273389 0 0 0 -2.8274,2.82734 v 8.48603 a 2.8273389,2.8273389 0 0 0 2.8274,2.82733 z m 0,-11.30935 h 11.3093 v 8.48603 h -11.3093 z m 0,0 m 32.5134,-2.82734 h -8.4821 a 2.8273389,2.8273389 0 0 0 -2.8273,2.82734 v 8.48603 a 2.8273389,2.8273389 0 0 0 2.8273,2.82733 h 15.5494 a 1.412669,1.412669 0 0 0 1.2005,-2.16303 l -7.0673,-11.30935 a 1.412669,1.412669 0 0 0 -1.2005,-0.66432 z m -8.4821,11.30936 v -8.48202 h 7.6976 l 5.3005,8.48202 z m 0,0"
             id="path1031" />
        </g>
      </g>
    </g>
  </g>
</svg>
