<svg width="30" height="33.835" viewBox="0 0 7.938 8.952" xmlns="http://www.w3.org/2000/svg">
  <g fill="#5fc3e2">
    <path d="M5.193 5.885l.052-.085c.784-1.298 1.179-2.433 1.173-3.374a2.45 2.45 0 00-4.899 0c-.005.941.389 2.076 1.173 3.374.017.03.034.057.052.085C1.094 6.09 0 6.68 0 7.38c0 .88 1.743 1.568 3.968 1.568s3.97-.688 3.97-1.568c0-.7-1.095-1.29-2.745-1.494zm-3.41-3.459a2.185 2.185 0 114.371.001c.011 1.876-1.742 4.189-2.185 4.743-.444-.554-2.197-2.867-2.186-4.744zM3.97 8.683c-2.216 0-3.705-.674-3.705-1.305C.264 6.82 1.368 6.3 2.9 6.132a13.974 13.974 0 00.967 1.332.132.132 0 00.201 0 13.945 13.945 0 00.969-1.332c1.532.169 2.636.688 2.636 1.246 0 .63-1.49 1.305-3.705 1.305z"/>
    <path d="M2.889 7.918c-.586-.075-1.056-.207-1.324-.372a.132.132 0 10-.138.225c.299.184.806.33 1.429.409a.135.135 0 00.016.001.132.132 0 00.017-.263zm1.301.063a9.498 9.498 0 01-.562-.003.132.132 0 00-.01.263c.116.005.234.007.35.007q.116 0 .229-.003a.132.132 0 00.129-.135.13.13 0 00-.136-.129zm.894-5.555a1.115 1.115 0 10-1.115 1.115 1.115 1.115 0 001.115-1.115zm-1.966 0a.851.851 0 11.85.851.851.851 0 01-.85-.85z"/>
  </g>
</svg>
