<svg xmlns="http://www.w3.org/2000/svg" width="36.013" height="36.013" viewBox="0 0 36.013 36.013"><g transform="translate(-4054.676 -123.682)"><path d="M4080.377,139.121a7.12,7.12,0,0,0-.2-3.3h0l-.385-1.269a2.755,2.755,0,0,0-5.217,0l-.386,1.269a7.123,7.123,0,0,0-.2,3.3,3.1,3.1,0,0,0,1.6,2.164l-.432,9.647a1.9,1.9,0,0,0,.48,1.478,2.1,2.1,0,0,0,2.962.132,1.875,1.875,0,0,0,.613-1.57l-.434-9.689A3.1,3.1,0,0,0,4080.377,139.121Zm-1.183-.209a1.9,1.9,0,0,1-1.245,1.434.6.6,0,0,0-.388.589l.456,10.132a.7.7,0,0,1-.18.544.927.927,0,0,1-1.3,0,.724.724,0,0,1-.177-.584l.453-10.092a.6.6,0,0,0-.388-.589,1.9,1.9,0,0,1-1.246-1.434,5.926,5.926,0,0,1,.165-2.741l.386-1.269a1.557,1.557,0,0,1,2.919,0l.385,1.269h0A5.916,5.916,0,0,1,4079.194,138.912Z" fill="#666"/><path d="M4071.306,139.112a.6.6,0,0,0,.176-.425v-5.4a.6.6,0,1,0-1.2,0v5.154l-1.625,1.625a.6.6,0,0,0-.176.454l.525,10.5a.814.814,0,0,1-.227.612.845.845,0,0,1-1.2.005l0-.005a.818.818,0,0,1-.227-.612l.529-10.5a.6.6,0,0,0-.176-.454l-1.625-1.625v-5.154a.6.6,0,0,0-1.2,0v5.4a.6.6,0,0,0,.175.425l1.613,1.613-.512,10.239a2.027,2.027,0,1,0,4.05.2c0-.066,0-.131,0-.2l-.512-10.239Z" fill="#666"/><path d="M4067.281,138.687a.6.6,0,0,0,.6-.6v-4.8a.6.6,0,0,0-1.2,0v4.8A.6.6,0,0,0,4067.281,138.687Z" fill="#666"/><path d="M4068.481,133.285v4.8a.6.6,0,1,0,1.2,0v-4.8a.6.6,0,1,0-1.2,0Z" fill="#666"/><path d="M4072.683,123.682a18.007,18.007,0,1,0,18.006,18.007A18.007,18.007,0,0,0,4072.683,123.682Zm0,34.813a16.806,16.806,0,1,1,16.806-16.806A16.807,16.807,0,0,1,4072.683,158.495Z" fill="#666"/><path d="M4081.018,133.882a.6.6,0,0,0-.072.846,10.8,10.8,0,0,1-.637,14.613.6.6,0,0,0,.848.851,12.006,12.006,0,0,0,.709-16.238.6.6,0,0,0-.846-.074Z" fill="#666"/><path d="M4068.657,131.616a.631.631,0,0,0,.212-.039,10.91,10.91,0,0,1,6.363-.391.6.6,0,1,0,.282-1.166,12.1,12.1,0,0,0-7.065.434.6.6,0,0,0,.211,1.162Z" fill="#666"/><path d="M4061.878,141.689a10.732,10.732,0,0,1,2.066-6.356.6.6,0,0,0-.96-.721l-.01.014a12,12,0,0,0,1.2,15.535.6.6,0,1,0,.85-.85h0A10.74,10.74,0,0,1,4061.878,141.689Z" fill="#666"/></g></svg>