<svg xmlns="http://www.w3.org/2000/svg" width="37.824" height="36.874" viewBox="0 0 37.824 36.874"><g transform="translate(-4440.146 -119.715)"><path d="M4447.309,119.716c-.964.025-2.768.54-4.02,3.728l-.039.1a19.227,19.227,0,0,0-1.057,7.163c.013.491.04.97.086,1.439l-.03.014a3.63,3.63,0,0,0-1.807,4.725l3.8,8.834a4.693,4.693,0,0,0,2.643,2.543l21.2,8.106a3.315,3.315,0,0,0,4.28-1.912l5.39-14.095a3.318,3.318,0,0,0-1.913-4.28l-21.2-8.106a4.587,4.587,0,0,0-1.885-.3,16.988,16.988,0,0,0-1.237-4.45c-1.417-3.1-3.244-3.534-4.208-3.509Zm10.5,28.291a2.87,2.87,0,1,1,3.706-1.656,2.877,2.877,0,0,1-3.706,1.656Zm7.882.4a.7.7,0,0,1-.953-.264l-5.787-10.282a.7.7,0,1,1,1.218-.69l5.787,10.282a.7.7,0,0,1-.265.954Zm3.05-7.406a2.87,2.87,0,1,1-1.656-3.705,2.876,2.876,0,0,1,1.656,3.705Zm-18.552-10.5a18.736,18.736,0,0,1-.383,4.416c.058.022.113.034.171.056a2.746,2.746,0,1,1-1.719-.079,19.272,19.272,0,0,0,.334-4.158c-.012-.516-.043-1-.089-1.474L4445,130.886c0-.085,0-.169-.011-.256a16.65,16.65,0,0,1,.873-6.094l.028-.073c.6-1.536,1.241-1.953,1.494-1.957.775-.014,2.675,2.68,2.81,8Zm0,0" fill="#666"/></g></svg>