<svg xmlns="http://www.w3.org/2000/svg" width="34.694" height="29.223" viewBox="0 0 34.694 29.223"><g transform="translate(-4260.13 -125.367)"><path d="M4291.031,129.275H4283.4v-1.029a2.882,2.882,0,0,0-2.879-2.879h-6.087a2.882,2.882,0,0,0-2.879,2.879v1.029h-7.632a3.8,3.8,0,0,0-3.792,3.792V150.8a3.8,3.8,0,0,0,3.792,3.792h27.109a3.8,3.8,0,0,0,3.793-3.792V133.067a3.8,3.8,0,0,0-3.793-3.792Zm-17.74-1.029a1.143,1.143,0,0,1,1.142-1.142h6.087a1.143,1.143,0,0,1,1.142,1.142v1.029h-8.371Zm-9.369,2.766h27.109a2.058,2.058,0,0,1,2.056,2.055v15.841h-.052a3.739,3.739,0,0,0-3.735,3.735c0,.07,0,.141.007.211h-23.66c0-.07.006-.141.006-.211a3.738,3.738,0,0,0-3.734-3.735h-.052V133.067a2.057,2.057,0,0,1,2.055-2.055Zm-2.055,19.786v-.152l.052,0a2,2,0,0,1,2,2,2.021,2.021,0,0,1-.011.211,2.057,2.057,0,0,1-2.038-2.055Zm29.182,2.055c-.007-.07-.012-.14-.012-.211a2,2,0,0,1,2-2l.052,0v.152a2.059,2.059,0,0,1-2.038,2.055Zm0,0" fill="#666"/><path d="M4266.974,147.479a1.543,1.543,0,0,0,2.01.859l1.871-.751a4.516,4.516,0,1,0,2.125-6.244l-1.216-3.03a1.545,1.545,0,0,0-2.009-.858l-4.426,1.776a1.544,1.544,0,0,0-.859,2.009Zm7.863-4.8a2.779,2.779,0,1,1-2.353,4.253l.926-.371a1.546,1.546,0,0,0,.858-2.009l-.641-1.6a2.749,2.749,0,0,1,1.21-.276Zm-4.614-3.542-1.708,7.517-2.361-5.883Zm0,0" fill="#666"/><path d="M4282.833,144.18a.868.868,0,0,0,1.133.475l4.847-1.984a3.487,3.487,0,0,0-1.885-6.669,3.488,3.488,0,0,0-6.079,3.331Zm-.371-6.845a1.75,1.75,0,0,1,3.234.014.869.869,0,0,0,1.133.475,1.75,1.75,0,1,1,1.326,3.24l-4.044,1.654-1.655-4.043a1.737,1.737,0,0,1,.006-1.34Zm0,0" fill="#666"/></g></svg>