<svg xmlns="http://www.w3.org/2000/svg" width="34.24" height="34.271" viewBox="0 0 34.24 34.271"><g transform="translate(-3653.176 -126.507)"><path d="M3661.579,136.808a8.413,8.413,0,0,0-8.4,8.4c0,2.877,1.369,5.97,4.068,9.193.4.479.8.923,1.184,1.327-1.743.476-2.789,1.331-2.789,2.328,0,1.766,3.06,2.719,5.94,2.719s5.94-.953,5.94-2.719c0-1-1.046-1.851-2.788-2.327a27.318,27.318,0,0,0,2.155-2.563.5.5,0,0,0-.809-.6,26.958,26.958,0,0,1-2.6,3,.507.507,0,0,0-.219.218c-.726.713-1.336,1.242-1.683,1.531-.342-.287-.944-.808-1.66-1.512a.5.5,0,0,0-.252-.25c-2.276-2.29-5.486-6.246-5.486-10.348a7.4,7.4,0,0,1,14.8,0,11.325,11.325,0,0,1-1.8,5.718.5.5,0,1,0,.863.514,12.3,12.3,0,0,0,1.946-6.232A8.413,8.413,0,0,0,3661.579,136.808Zm0,21.663a.5.5,0,0,0,.308-.1,25.823,25.823,0,0,0,2.02-1.8c1.7.346,2.607,1.011,2.607,1.49,0,.358-.491.78-1.28,1.1a10.028,10.028,0,0,1-3.655.612c-3.013,0-4.935-1.015-4.935-1.714,0-.48.912-1.145,2.608-1.49a25.141,25.141,0,0,0,2.02,1.8A.5.5,0,0,0,3661.579,158.471Z" fill="#666"/><path d="M3658.689,143.857a.5.5,0,0,0-.622.344,3.655,3.655,0,1,0,1.326-1.918.5.5,0,0,0,.6.8,2.639,2.639,0,1,1-.962,1.391A.5.5,0,0,0,3658.689,143.857Z" fill="#666"/><path d="M3685.523,142.956c0-.8-.748-1.46-2.043-1.849.255-.275.519-.57.783-.886,2.092-2.5,3.153-4.9,3.153-7.14a6.576,6.576,0,0,0-12.632-2.559.5.5,0,0,0,.926.391,5.57,5.57,0,0,1,10.7,2.168c0,4.153-4.36,8.132-5.569,9.155-.267-.225-.686-.594-1.178-1.076a.507.507,0,0,0-.224-.222c-1.735-1.747-4.168-4.75-4.168-7.857a.5.5,0,1,0-1,0c0,2.239,1.061,4.641,3.154,7.14.264.316.527.611.782.885-1.295.39-2.043,1.052-2.043,1.85,0,.673.546,1.266,1.537,1.67a9.509,9.509,0,0,0,6.289,0C3684.977,144.222,3685.523,143.629,3685.523,142.956Zm-4.681,1.2c-2.379,0-3.677-.793-3.677-1.2,0-.266.59-.751,1.851-1.019a19.933,19.933,0,0,0,1.518,1.347.5.5,0,0,0,.615,0,19.688,19.688,0,0,0,1.518-1.347,4.586,4.586,0,0,1,1.389.5c.289.176.462.37.462.517C3684.518,143.363,3683.22,144.156,3680.842,144.156Z" fill="#666"/><path d="M3683.766,133.081a2.925,2.925,0,1,0-2.924,2.924A2.928,2.928,0,0,0,3683.766,133.081Zm-4.843,0a1.919,1.919,0,1,1,1.919,1.919A1.921,1.921,0,0,1,3678.923,133.081Z" fill="#666"/><path d="M3674.323,143.458a.5.5,0,0,0,0-1h-.229a3.786,3.786,0,0,0-.5.033.5.5,0,0,0,.066,1,.516.516,0,0,0,.067,0,2.789,2.789,0,0,1,.367-.025Z" fill="#666"/><path d="M3672.662,157.531h0l-.664,0a.5.5,0,0,0,0,1.005h0l.664,0a.5.5,0,0,0,0-1Z" fill="#666"/><path d="M3674.919,149.968a.5.5,0,1,0,0-1.005h-.663a.5.5,0,1,0,0,1.005Z" fill="#666"/><path d="M3671.155,144.722a.5.5,0,0,0,.7-.115,2.759,2.759,0,0,1,.372-.42.5.5,0,0,0-.682-.739,3.824,3.824,0,0,0-.506.573A.5.5,0,0,0,3671.155,144.722Z" fill="#666"/><path d="M3675.317,157.519h0l-.663,0a.5.5,0,0,0,0,1h0l.664,0a.5.5,0,0,0,0-1.005Z" fill="#666"/><path d="M3670.007,157.543h0l-.664,0a.5.5,0,0,0,0,1h0l.664,0a.5.5,0,0,0,0-1.005Z" fill="#666"/><path d="M3672.359,149.468a.5.5,0,0,0,.269-.928,2.781,2.781,0,0,1-.442-.345.5.5,0,0,0-.7.724,3.742,3.742,0,0,0,.6.471A.5.5,0,0,0,3672.359,149.468Z" fill="#666"/><path d="M3671.392,146.74a2.735,2.735,0,0,1-.051-.529v-.028a.5.5,0,0,0-.5-.509h-.006a.5.5,0,0,0-.5.5v.04a3.808,3.808,0,0,0,.07.722.5.5,0,0,0,.492.406.535.535,0,0,0,.1-.009A.5.5,0,0,0,3671.392,146.74Z" fill="#666"/><path d="M3677.574,149.968a.5.5,0,1,0,0-1.005h-.663a.5.5,0,1,0,0,1.005Z" fill="#666"/><path d="M3685.331,150.883a.5.5,0,0,0,.312-.9,4.874,4.874,0,0,0-.615-.413.5.5,0,0,0-.494.876,3.777,3.777,0,0,1,.486.326A.5.5,0,0,0,3685.331,150.883Z" fill="#666"/><path d="M3683.211,157.45a3.634,3.634,0,0,1-.5.035h-.094a.5.5,0,0,0,0,1.005h.1a4.939,4.939,0,0,0,.634-.044.5.5,0,1,0-.137-1Z" fill="#666"/><path d="M3685.285,156.448a3.736,3.736,0,0,1-.454.37.5.5,0,0,0,.287.916.5.5,0,0,0,.286-.09,4.772,4.772,0,0,0,.574-.468.5.5,0,0,0-.693-.728Z" fill="#666"/><path d="M3686.973,154.025a.5.5,0,0,0-.586.4,3.754,3.754,0,0,1-.153.564.5.5,0,0,0,.305.642.49.49,0,0,0,.168.029.5.5,0,0,0,.474-.333,4.663,4.663,0,0,0,.193-.716A.5.5,0,0,0,3686.973,154.025Z" fill="#666"/><path d="M3686.344,151.472a.5.5,0,0,0-.243.668,3.777,3.777,0,0,1,.2.547.5.5,0,0,0,.483.364.481.481,0,0,0,.139-.02.5.5,0,0,0,.344-.621,4.744,4.744,0,0,0-.26-.7A.5.5,0,0,0,3686.344,151.472Z" fill="#666"/><path d="M3680.229,149.968a.5.5,0,1,0,0-1.005h-.663a.5.5,0,1,0,0,1.005Z" fill="#666"/><path d="M3677.972,157.507h0l-.663,0a.5.5,0,0,0,0,1.005h0l.664,0a.5.5,0,0,0,0-1Z" fill="#666"/><path d="M3682.693,149.968c.057,0,.113,0,.169,0h.023a.5.5,0,0,0,.022-1c-.071,0-.143-.005-.214-.005h-.472a.5.5,0,1,0,0,1.005Z" fill="#666"/><path d="M3680.627,157.495h0l-.663,0a.5.5,0,0,0,0,1.005h0l.664,0a.5.5,0,0,0,0-1.005Z" fill="#666"/></g></svg>