<svg xmlns="http://www.w3.org/2000/svg" width="64.464" height="40.669" viewBox="0 0 64.464 40.669"><path d="M672.041,10476.655a.987.987,0,0,0,.8-1.145l-1.113-6.212a3.091,3.091,0,0,0-3.585-2.5l-53.833,9.645a3.092,3.092,0,0,0-2.5,3.587l1.113,6.209a.985.985,0,0,0,1.144.8,5.324,5.324,0,1,1,1.878,10.481.986.986,0,0,0-.8,1.146l1.112,6.21a3.094,3.094,0,0,0,3.587,2.5l53.833-9.644a3.094,3.094,0,0,0,2.5-3.586l-1.113-6.213a.985.985,0,0,0-1.145-.795,5.325,5.325,0,0,1-1.878-10.482Zm-6.242,6.527a7.307,7.307,0,0,0,7.486,6l.951,5.3a1.118,1.118,0,0,1-.9,1.3l-10.421,1.867c0-.021-.005-.044-.008-.064l-.371-2.071a.986.986,0,1,0-1.942.348l.371,2.071c0,.021.01.042.015.063l-41.477,7.433a1.119,1.119,0,0,1-1.3-.9l-.951-5.307a7.3,7.3,0,0,0-2.55-14.231l-.951-5.309a1.121,1.121,0,0,1,.9-1.3l41.478-7.431c0,.022,0,.044.008.066l.37,2.069a.986.986,0,1,0,1.941-.348l-.371-2.07a.494.494,0,0,0-.015-.065l10.421-1.867a1.124,1.124,0,0,1,1.3.906l.951,5.3a7.307,7.307,0,0,0-4.937,8.229Zm0,0" transform="translate(-611.762 -10466.755)" fill="#666"/><path d="M656.487,10481.409a.987.987,0,0,0-.8,1.146l.371,2.068a.986.986,0,0,0,1.942-.347l-.371-2.07a.984.984,0,0,0-1.145-.8Zm0,0" transform="translate(-609.086 -10465.861)" fill="#666"/><path d="M655.438,10475.553a.988.988,0,0,0-.8,1.146l.37,2.071a.986.986,0,0,0,1.942-.348l-.371-2.071a.989.989,0,0,0-1.145-.8Zm0,0" transform="translate(-609.15 -10466.219)" fill="#666"/><path d="M657.536,10487.264a.986.986,0,0,0-.8,1.145l.372,2.07a.986.986,0,1,0,1.941-.35l-.371-2.068a.984.984,0,0,0-1.145-.8Zm0,0" transform="translate(-609.022 -10465.505)" fill="#666"/><path d="M649.85,10475.8l-23.81,4.267a2.041,2.041,0,0,0-1.647,2.365l2.6,14.492a2.041,2.041,0,0,0,2.365,1.648l23.811-4.266a2.04,2.04,0,0,0,1.647-2.366l-2.6-14.492a2.04,2.04,0,0,0-2.366-1.648Zm3.022,16.488a.068.068,0,0,1-.054.078l-23.811,4.265a.066.066,0,0,1-.076-.054l-2.6-14.493a.067.067,0,0,1,.053-.076l23.811-4.264a.064.064,0,0,1,.076.051Zm0,0" transform="translate(-610.994 -10466.203)" fill="#666"/><path d="M646.471,10482.355l-15.529,2.783a.985.985,0,1,0,.348,1.939l15.529-2.782a.986.986,0,1,0-.348-1.94Zm0,0" transform="translate(-610.643 -10465.804)" fill="#666"/><path d="M634.747,10488.357l-3.105.556a.986.986,0,0,0,.347,1.941l3.106-.557a.986.986,0,1,0-.348-1.94Zm0,0" transform="translate(-610.6 -10465.438)" fill="#666"/><path d="M646.753,10486.259l-8.282,1.484a.987.987,0,0,0,.348,1.942l8.282-1.484a.987.987,0,0,0-.348-1.942Zm0,0" transform="translate(-610.184 -10465.566)" fill="#666"/></svg>