<svg xmlns="http://www.w3.org/2000/svg" width="42.387" height="42.386" viewBox="0 0 42.387 42.386"><g transform="translate(-3846.716 -118.059)"><path d="M3879.92,138.546h-4.239a1.413,1.413,0,0,0-1.413,1.413V144.2a1.413,1.413,0,0,0,1.413,1.413h7.771a.706.706,0,0,0,.6-1.081l-3.532-5.652a.706.706,0,0,0-.6-.332Zm-4.239,5.652v-4.239h3.847l2.649,4.239Zm0,0" fill="#666"/><path d="M3863.671,145.611h5.652a1.414,1.414,0,0,0,1.413-1.413v-4.239a1.414,1.414,0,0,0-1.413-1.413h-5.652a1.413,1.413,0,0,0-1.413,1.413V144.2a1.413,1.413,0,0,0,1.413,1.413Zm0-5.652h5.652V144.2h-5.652Zm0,0" fill="#666"/><path d="M3858.019,138.546h-5.651a1.413,1.413,0,0,0-1.413,1.413V144.2a1.413,1.413,0,0,0,1.413,1.413h5.652a1.412,1.412,0,0,0,1.412-1.413v-4.239a1.413,1.413,0,0,0-1.413-1.413Zm0,5.652h-5.651v-4.239h5.652V144.2Zm0,0" fill="#666"/><path d="M3855.9,147.73h-1.413a.707.707,0,0,0,0,1.413h1.413a.707.707,0,1,0,0-1.413Zm0,0" fill="#666"/><path d="M3865.791,147.73a.707.707,0,1,0,0,1.413h1.413a.707.707,0,0,0,0-1.413Zm0,0" fill="#666"/><path d="M3878.507,147.73h-1.413a.707.707,0,1,0,0,1.413h1.413a.707.707,0,0,0,0-1.413Zm0,0" fill="#666"/><path d="M3885.306,126.691l-3.267-2.613v-2.487a.707.707,0,0,0-1.413,0v2.487l-3.267,2.614a.706.706,0,1,0,.883,1.1l2.384-1.909v3.184l-.5.5a.707.707,0,1,0,1,1l.207-.207.207.207a.706.706,0,0,0,1-1l-.5-.5v-3.184l2.384,1.908a.706.706,0,1,0,.883-1.1Zm0,0" fill="#666"/><path d="M3886.984,133.6a2.119,2.119,0,0,0,2.119-2.119v-11.3a2.119,2.119,0,0,0-2.119-2.119h-11.3a2.12,2.12,0,0,0-2.12,2.119v11.3a2.12,2.12,0,0,0,2.12,2.119h4.945v2.129c-.026,0-.05-.01-.076-.01h-31.714a2.12,2.12,0,0,0-2.12,2.12v16.955a2.12,2.12,0,0,0,2.12,2.119h2.183a4.234,4.234,0,0,0,8.35,0h16.376a4.234,4.234,0,0,0,8.35,0h2.889a2.119,2.119,0,0,0,2.119-2.119v-6.659a2.117,2.117,0,0,0-.322-1.124l-6.434-10.3a2.1,2.1,0,0,0-.308-.376V133.6Zm-31.79,25.432a2.826,2.826,0,1,1,2.825-2.826,2.826,2.826,0,0,1-2.825,2.826Zm24.726,0a2.826,2.826,0,1,1,2.825-2.826,2.826,2.826,0,0,1-2.825,2.826Zm7.663-11.272a.707.707,0,0,1,.107.375v4.539h-2.119a.706.706,0,0,0,0,1.413h2.119v.707a.706.706,0,0,1-.706.706h-2.889a4.234,4.234,0,0,0-8.35,0h-16.376a4.234,4.234,0,0,0-8.35,0h-2.183a.707.707,0,0,1-.707-.706v-.707h1.413a.706.706,0,1,0,0-1.413h-1.413V137.84a.706.706,0,0,1,.707-.707h31.714a.7.7,0,0,1,.6.332Zm-11.9-15.573a.707.707,0,0,1-.707-.706v-11.3a.707.707,0,0,1,.707-.706h11.3a.706.706,0,0,1,.706.706v11.3a.706.706,0,0,1-.706.706Zm0,0" fill="#666"/><path d="M3874.268,152.675h-13.423a.706.706,0,0,0,0,1.413h13.423a.706.706,0,0,0,0-1.413Zm0,0" fill="#666"/></g></svg>