<svg xmlns="http://www.w3.org/2000/svg" width="111.37" height="83.608" viewBox="0 0 111.37 83.608"><g transform="translate(-1194.326 -1690.998)" opacity="0.46"><path d="M1294.162,1718.45H1237.9a9.894,9.894,0,0,0-9.914,9.8v35.24a9.894,9.894,0,0,0,9.914,9.8h56.264a9.894,9.894,0,0,0,9.913-9.8v-35.24a9.865,9.865,0,0,0-9.913-9.8Zm4.577,45.177a3.587,3.587,0,0,1-3.6,3.554h-57.358a3.587,3.587,0,0,1-3.594-3.554v-24.8h64.548Zm0-34.137h-64.548v-1.347a3.587,3.587,0,0,1,3.594-3.555h57.358a3.587,3.587,0,0,1,3.6,3.555Zm0,0" transform="translate(0.12 -0.191)" fill="none" stroke="#7b7b7b" stroke-miterlimit="10" stroke-width="3"/><path d="M1237.3,1712.209h34.9l-7.1-14.219a9.985,9.985,0,0,0-13.307-4.439l-50.414,24.642a9.774,9.774,0,0,0-4.489,13.159l15.808,31.6a9.972,9.972,0,0,0,11.5,5.122,14.641,14.641,0,0,1-2.1-7.573v-33.232a15.158,15.158,0,0,1,15.2-15.058Zm0,0" transform="translate(0 0)" fill="none" stroke="#7b7b7b" stroke-miterlimit="10" stroke-width="3"/><path d="M1244.289,1763.694a6.357,6.357,0,0,1,9.7,0,6.406,6.406,0,0,0,0-12.813,6.355,6.355,0,0,1-9.7,0,6.406,6.406,0,0,0,0,12.813Zm0,0" fill="#7b7b7b"/></g></svg>