<svg xmlns="http://www.w3.org/2000/svg" width="73.248" height="91.085" viewBox="0 0 73.248 91.085"><g transform="translate(-575.356 -1684.766)"><path d="M606.96,1743.217a5.244,5.244,0,0,1-3.447,1.28,5.521,5.521,0,0,1-1.675-.271,5.342,5.342,0,0,1-3.6-3.841l-1.576-6.378-6.354.443L578.2,1763.188l12.337-5.393c.049-.025.074-.025.123-.049a2.447,2.447,0,0,1,3.177,1.428l4.753,12.608,10.712-25.389-1.6-3.792Z" fill="none" stroke="#7b7b7b" stroke-miterlimit="10" stroke-width="3" opacity="0.5"/><path d="M611.984,1700.59a12.338,12.338,0,1,0,12.362,12.362A12.349,12.349,0,0,0,611.984,1700.59Z" fill="none" stroke="#7b7b7b" stroke-miterlimit="10" stroke-width="3" opacity="0.5"/><path d="M613.585,1733.859l6.6,5.565a.429.429,0,0,0,.443.1.458.458,0,0,0,.321-.345l2.068-8.373a2.453,2.453,0,0,1,2.561-1.871l8.595.615a.2.2,0,0,0,.172,0l.049-.024a.388.388,0,0,0,.271-.246.484.484,0,0,0,0-.37l-3.251-8a2.47,2.47,0,0,1,.985-3l7.339-4.556a.484.484,0,0,0,.222-.419.418.418,0,0,0-.222-.394l-7.314-4.58a2.459,2.459,0,0,1-.985-3l3.226-8a.534.534,0,0,0,.025-.2.44.44,0,0,0-.493-.443l-8.619.591a2.5,2.5,0,0,1-2.561-1.872l-2.068-8.372a.5.5,0,0,0-.321-.345.487.487,0,0,0-.443.1l-6.624,5.565a2.491,2.491,0,0,1-3.177,0l-6.6-5.565a.428.428,0,0,0-.444-.1.42.42,0,0,0-.32.345l-2.068,8.372a2.5,2.5,0,0,1-2.561,1.872l-8.619-.591a.536.536,0,0,0-.2.025.471.471,0,0,0-.271.615l3.226,8a2.47,2.47,0,0,1-.985,3l-7.314,4.58a.418.418,0,0,0-.222.394.484.484,0,0,0,.222.419l7.314,4.556a2.46,2.46,0,0,1,.985,3l-3.226,7.979a.481.481,0,0,0,0,.369.534.534,0,0,0,.271.246l.049.025h.172l8.595-.616h.172a2.45,2.45,0,0,1,2.389,1.872l2.068,8.372a.5.5,0,0,0,.32.345.419.419,0,0,0,.444-.074l6.624-5.565A2.491,2.491,0,0,1,613.585,1733.859ZM594.7,1712.952a17.287,17.287,0,1,1,17.287,17.262A17.293,17.293,0,0,1,594.7,1712.952Z" fill="none" stroke="#7b7b7b" stroke-miterlimit="10" stroke-width="3" opacity="0.5"/><path d="M633.654,1734.425l-6.353-.443-1.576,6.378a5.408,5.408,0,0,1-8.717,2.832l-5.024-4.162-.345.271,2.709,6.427,11.008,26.079,4.752-12.608c.025-.05.025-.074.05-.124a2.465,2.465,0,0,1,3.25-1.28l12.362,5.344Z" fill="none" stroke="#7b7b7b" stroke-miterlimit="10" stroke-width="3" opacity="0.5"/></g></svg>