<svg xmlns="http://www.w3.org/2000/svg" width="69.018" height="89.924" viewBox="0 0 69.018 89.924"><g transform="translate(-1852.433 -1689.742)" opacity="0.5"><path d="M1858.655,1730.911h4.982a24.619,24.619,0,0,0,42.518,7.493h6.405a2.152,2.152,0,0,0,2.152-2.152v-5.341h.97a4.239,4.239,0,0,0,4.234-4.233v-10.823a4.241,4.241,0,0,0-3.44-4.158,26.678,26.678,0,0,0-10.11-15.776,31.844,31.844,0,0,0-19.406-6.179c-14.908,0-26.666,8.83-29.54,22.063a4.242,4.242,0,0,0-3,4.05v10.823a4.239,4.239,0,0,0,4.234,4.233Zm.07-4.3v-10.682h4.639a24.535,24.535,0,0,0-1.034,7.064,24.817,24.817,0,0,0,.266,3.618Zm28.235,16.709a20.346,20.346,0,1,1,17.012-9.216h-18.261a2.152,2.152,0,1,0,0,4.3h14.484a20.24,20.24,0,0,1-13.235,4.912Zm23.448-9.216h-1.471a24.354,24.354,0,0,0,1.346-3.189h.125Zm5.2-7.493h-4.287a24.679,24.679,0,0,0-.768-10.682h5.055Zm-28.651-32.561c12.4,0,22.222,6.981,25.067,17.576h-3.222a24.622,24.622,0,0,0-43.69,0h-3.222c2.84-10.589,12.679-17.576,25.067-17.576Zm0,0" fill="#7b7b7b"/><path d="M1909.062,1748.567h-44.24a12.4,12.4,0,0,0-12.389,12.389v16.558a2.152,2.152,0,0,0,4.3,0v-16.558a8.094,8.094,0,0,1,8.085-8.085h44.24a8.094,8.094,0,0,1,8.085,8.085v16.558a2.152,2.152,0,0,0,4.3,0v-16.558a12.4,12.4,0,0,0-12.389-12.389Zm0,0" fill="#7b7b7b"/></g></svg>