<?xml version="1.0" encoding="UTF-8"?>
<!-- Generator: Adobe Illustrator 19.0.0, SVG Export Plug-In . SVG Version: 6.00 Build 0)  -->
<svg width="514" height="514" version="1.1" viewBox="0 0 514 514" xml:space="preserve" xmlns="http://www.w3.org/2000/svg" xmlns:cc="http://creativecommons.org/ns#" xmlns:dc="http://purl.org/dc/elements/1.1/" xmlns:rdf="http://www.w3.org/1999/02/22-rdf-syntax-ns#"><metadata><rdf:RDF><cc:Work rdf:about=""><dc:format>image/svg+xml</dc:format><dc:type rdf:resource="http://purl.org/dc/dcmitype/StillImage"/><dc:title/></cc:Work></rdf:RDF></metadata>
<path d="m513 456.11c0 31.418-25.472 56.889-56.889 56.889h-398.22c-31.416 0-56.889-25.472-56.889-56.889v-398.22c0-31.416 25.472-56.889 56.889-56.889h398.22c31.416 0 56.889 25.472 56.889 56.889z" fill="#2e334d" stroke-width="1.25"/><path d="m220.42 251.17h44.971c27.79 0 45.426-20.281 45.426-46.749 0-26.454-17.635-46.734-45.426-46.734h-44.971zm-66.148-117.3c0-20.721 12.345-34.389 34.404-34.389h78.038c64.839 0 112.9 42.34 112.9 105.39 0 64.384-49.835 104.52-110.25 104.52h-48.939v72.32c0 22.059-14.109 34.389-33.081 34.389-18.959 0-33.066-12.331-33.066-34.389z" fill="#fff" stroke-width="1.25"/>
</svg>
