<?xml version="1.0" encoding="UTF-8"?>
<svg width="59.246mm" height="6.6099mm" version="1.1" viewBox="0 0 59.246 6.6099" xmlns="http://www.w3.org/2000/svg" xmlns:cc="http://creativecommons.org/ns#" xmlns:dc="http://purl.org/dc/elements/1.1/" xmlns:rdf="http://www.w3.org/1999/02/22-rdf-syntax-ns#">
 <metadata>
  <rdf:RDF>
   <cc:Work rdf:about="">
    <dc:format>image/svg+xml</dc:format>
    <dc:type rdf:resource="http://purl.org/dc/dcmitype/StillImage"/>
    <dc:title/>
   </cc:Work>
  </rdf:RDF>
 </metadata>
 <g transform="translate(-60.917 -204.78)" fill="#323232" stroke-width=".21401">
  <g style="font-feature-settings:normal;font-variant-caps:normal;font-variant-ligatures:normal;font-variant-numeric:normal" aria-label="Portal">
   <path d="m62.267 209.13v2.0649h-1.3501v-5.994h2.115q2.2655 0 2.2655 1.9102 0 0.90286-0.65207 1.463-0.64789 0.55593-1.7347 0.55593zm0-2.8925v1.8684h0.53085q1.0784 0 1.0784-0.94466 0-0.92377-1.0784-0.92377z" style="font-feature-settings:normal;font-variant-caps:normal;font-variant-ligatures:normal;font-variant-numeric:normal"/>
   <path d="m67.843 211.3q-1.0701 0-1.6845-0.59773-0.61027-0.60191-0.61027-1.6302 0-1.0617 0.63535-1.6594 0.63535-0.60191 1.718-0.60191 1.0659 0 1.672 0.60191 0.60609 0.59773 0.60609 1.5842 0 1.0659-0.62699 1.6845-0.62281 0.61863-1.7096 0.61863zm0.03344-3.4777q-0.46815 0-0.72731 0.32185-0.25916 0.32186-0.25916 0.91123 0 1.2331 0.99482 1.2331 0.94884 0 0.94884-1.2665 0-1.1996-0.9572-1.1996z" style="font-feature-settings:normal;font-variant-caps:normal;font-variant-ligatures:normal;font-variant-numeric:normal"/>
   <path d="m73.829 208.11q-0.23826-0.12957-0.55593-0.12957-0.43053 0-0.67297 0.31767-0.24244 0.3135-0.24244 0.85689v2.044h-1.3209v-4.2802h1.3209v0.79419h0.01672q0.3135-0.86943 1.1286-0.86943 0.209 0 0.32604 0.0502z" style="font-feature-settings:normal;font-variant-caps:normal;font-variant-ligatures:normal;font-variant-numeric:normal"/>
   <path d="m77.286 211.14q-0.2926 0.15465-0.88197 0.15465-1.3961 0-1.3961-1.4504v-1.9604h-0.69387v-0.97393h0.69387v-0.92376l1.3167-0.3762v1.3h0.96138v0.97393h-0.96138v1.7305q0 0.66879 0.53085 0.66879 0.209 0 0.43053-0.12122z" style="font-feature-settings:normal;font-variant-caps:normal;font-variant-ligatures:normal;font-variant-numeric:normal"/>
   <path d="m81.587 211.19h-1.2498v-0.61445h-0.01672q-0.43053 0.71895-1.2749 0.71895-0.62281 0-0.98228-0.35111-0.35529-0.3553-0.35529-0.94467 0-1.2456 1.4755-1.4379l1.162-0.15466q0-0.70223-0.76075-0.70223-0.76493 0-1.4546 0.45561v-0.99482q0.27588-0.14212 0.75239-0.2508 0.48069-0.10868 0.87361-0.10868 1.8308 0 1.8308 1.8266zm-1.2414-1.7388v-0.28841l-0.77747 0.10031q-0.64371 0.0836-0.64371 0.58102 0 0.22571 0.15466 0.37201 0.15884 0.14212 0.42635 0.14212 0.37201 0 0.60609-0.25498 0.23408-0.25915 0.23408-0.65207z" style="font-feature-settings:normal;font-variant-caps:normal;font-variant-ligatures:normal;font-variant-numeric:normal"/>
   <path d="m83.961 211.19h-1.3209v-6.3368h1.3209z" style="font-feature-settings:normal;font-variant-caps:normal;font-variant-ligatures:normal;font-variant-numeric:normal"/>
  </g>
  <g style="font-feature-settings:normal;font-variant-caps:normal;font-variant-ligatures:normal;font-variant-numeric:normal" aria-label="Gramado">
   <path d="m90.84 210.85q-0.94466 0.53503-1.9938 0.53503-0.84434 0-1.4964-0.38037-0.65206-0.38456-1.0074-1.091-0.35529-0.71058-0.35529-1.626 0-0.92376 0.38455-1.6678 0.38873-0.74821 1.0993-1.1704 0.71476-0.42635 1.6302-0.42635 0.87778 0 1.6134 0.32604v0.58936q-0.81926-0.43053-1.6803-0.43053-0.72312 0-1.2958 0.35111-0.57265 0.34694-0.88614 0.96974-0.30931 0.62281-0.30931 1.4044 0 1.2331 0.63535 1.952 0.63952 0.71477 1.7514 0.71477 0.78164 0 1.3794-0.33439v-1.9144h-1.4128v-0.48905h1.9437z" style="font-feature-settings:normal;font-variant-caps:normal;font-variant-ligatures:normal;font-variant-numeric:normal"/>
   <path d="m94.317 207.41q-0.18392-0.14212-0.48905-0.14212-0.51413 0-0.83598 0.52667-0.32185 0.52249-0.32185 1.3543v2.1276h-0.50159v-4.3931h0.50159v0.94884h0.01672q0.15466-0.48905 0.46815-0.75656 0.31767-0.2717 0.73566-0.2717 0.24661 0 0.42635 0.0669z" style="font-feature-settings:normal;font-variant-caps:normal;font-variant-ligatures:normal;font-variant-numeric:normal"/>
   <path d="m97.682 211.28v-0.80672h-0.01672q-0.21318 0.43053-0.58937 0.67296-0.37619 0.24244-0.8527 0.24244-0.62281 0-0.999-0.34276-0.37201-0.34693-0.37201-0.91121 0-1.1871 1.4922-1.4044l1.3376-0.19646q0-1.3041-1.0032-1.3041-0.74402 0-1.4212 0.56847v-0.56429q0.69804-0.44725 1.4671-0.44725 0.71894 0 1.091 0.41381 0.37619 0.40963 0.37619 1.2247v2.8549zm-2.3031-1.1746q0 0.37201 0.25079 0.60608 0.25497 0.2299 0.67714 0.2299 0.58937 0 0.98228-0.42635 0.39291-0.43053 0.39291-1.1077v-0.43471l-1.1495 0.16302q-0.65206 0.092-0.90286 0.31349-0.25079 0.22154-0.25079 0.65625z" style="font-feature-settings:normal;font-variant-caps:normal;font-variant-ligatures:normal;font-variant-numeric:normal"/>
   <path d="m105.03 211.28v-2.5957q0-0.7691-0.24243-1.1118-0.24243-0.34276-0.79-0.34276-0.32603 0-0.61027 0.20064-0.28005 0.19645-0.44307 0.54757-0.16301 0.34693-0.16301 0.75238v2.5497h-0.50995v-2.6459q0-1.4044-1.0492-1.4044-0.52249 0-0.86107 0.42635-0.33857 0.42217-0.33857 1.1035v2.5205h-0.50995v-4.3931h0.50995v0.71894h0.0167q0.45143-0.81926 1.3501-0.81926 0.45561 0 0.79836 0.26752 0.34693 0.26333 0.46815 0.70222 0.22571-0.47233 0.59773-0.71894 0.37201-0.2508 0.84016-0.2508 1.4462 0 1.4462 1.7848v2.7086z" style="font-feature-settings:normal;font-variant-caps:normal;font-variant-ligatures:normal;font-variant-numeric:normal"/>
   <path d="m109.42 211.28v-0.80672h-0.0167q-0.21317 0.43053-0.58936 0.67296-0.37619 0.24244-0.8527 0.24244-0.62281 0-0.999-0.34276-0.37201-0.34693-0.37201-0.91121 0-1.1871 1.4922-1.4044l1.3376-0.19646q0-1.3041-1.0032-1.3041-0.74403 0-1.4212 0.56847v-0.56429q0.69804-0.44725 1.4672-0.44725 0.71894 0 1.091 0.41381 0.37619 0.40963 0.37619 1.2247v2.8549zm-2.3031-1.1746q0 0.37201 0.25079 0.60608 0.25497 0.2299 0.67714 0.2299 0.58937 0 0.98228-0.42635 0.39291-0.43053 0.39291-1.1077v-0.43471l-1.1495 0.16302q-0.65207 0.092-0.90286 0.31349-0.25079 0.22154-0.25079 0.65625z" style="font-feature-settings:normal;font-variant-caps:normal;font-variant-ligatures:normal;font-variant-numeric:normal"/>
   <path d="m114.34 211.28v-0.77746h-0.0167q-0.22154 0.41799-0.63117 0.65206-0.40545 0.23408-0.92376 0.23408-0.82762 0-1.3292-0.59773t-0.50158-1.6218q0-0.69805 0.25079-1.2414 0.25079-0.54339 0.71476-0.84016 0.46397-0.30096 1.0492-0.30096 0.9572 0 1.371 0.76911h0.0167v-2.7755h0.50995v6.4998zm0-2.6542q0-0.59773-0.38455-0.99482-0.38455-0.40127-0.9781-0.40127-0.67297 0-1.091 0.51413t-0.41799 1.3919q0 0.83598 0.3762 1.3208 0.37619 0.48487 1.0157 0.48487 0.66879 0 1.0742-0.43889 0.40545-0.44307 0.40545-1.1244z" style="font-feature-settings:normal;font-variant-caps:normal;font-variant-ligatures:normal;font-variant-numeric:normal"/>
   <path d="m118.05 211.39q-0.62698 0-1.1077-0.28006-0.47651-0.28005-0.73567-0.79418-0.25915-0.51831-0.25915-1.1954 0-1.0742 0.58101-1.7012 0.58518-0.63117 1.5925-0.63117 0.94884 0 1.4964 0.61027t0.54756 1.6887q0 1.0366-0.56846 1.672-0.56847 0.63117-1.5466 0.63117zm0.0376-4.159q-0.73984 0-1.1746 0.50159-0.43471 0.49741-0.43471 1.3836 0 0.84016 0.43053 1.3334t1.1662 0.49323q0.7482 0 1.1536-0.48905 0.40964-0.48905 0.40964-1.3626 0-0.90704-0.40128-1.3836-0.40127-0.47651-1.1495-0.47651z" style="font-feature-settings:normal;font-variant-caps:normal;font-variant-ligatures:normal;font-variant-numeric:normal"/>
  </g>
 </g>
</svg>
