<svg width="198.26" height="44.812" enable-background="new 0 0 198.3 34.5" version="1.1" viewBox="0 0 198.26 44.812" xml:space="preserve" xmlns="http://www.w3.org/2000/svg">
<style type="text/css">
	.st0{fill:none;stroke:#000000;stroke-width:0.5;stroke-miterlimit:22.93;}
</style>
<title>logo-svg</title>

<g transform="matrix(.91136 0 0 .91136 7.849 8.1038)"><g fill="#1b1b1b">
<path d="m114.1 7c3.3 3.3 3.3 8.7 0 12-3 3-7.8 3.3-11.2 0.7h8.3c0.6 0 1.2-0.1 1.7-0.5 0.3-0.2 0.6-0.5 0.9-0.8 0.3-0.4 0.5-0.7 0.6-1.1 0.2-0.6 0.3-1.2 0.3-1.9 0-0.6-0.1-1.1-0.3-1.6s-0.5-0.8-0.9-1.2c-0.4-0.3-0.9-0.5-1.4-0.7-0.6-0.2-1.1-0.2-1.7-0.2h-3.1c-1.1 0-1.6-0.4-1.6-1.1v-0.4c0.1-0.6 0.7-0.9 1.7-0.9h6.7zm-6.2-2.7c2.2 0 4.2 0.8 5.8 2.3h-7c-3.1 0-4.6 1.4-4.6 4.2 0 0.6 0.1 1.2 0.3 1.8 0.2 0.5 0.5 0.9 0.9 1.1 0.4 0.3 0.8 0.4 1.3 0.5s0.8 0.1 1.1 0.1h4c1.2 0 1.8 0.4 1.8 1.3s-0.6 1.3-1.8 1.3h-7.2v2.3c-3.6-3-4-8.4-1-12 1.4-1.8 3.8-3 6.4-2.9z"/>
<path d="m0 2.4h3.5v3.2h-3.5zm0 4.7h3.5v12.7h-3.5z"/>
<path d="m9.7 19.7h-3.3v-12.6h6.3c1 0 2 0.1 2.9 0.4 0.7 0.3 1.4 0.8 1.8 1.4 0.5 0.9 0.7 1.8 0.7 2.8v8h-3.4v-8.3c0-0.3-0.1-0.5-0.1-0.7-0.1-0.3-0.3-0.5-0.6-0.6-0.5-0.2-0.9-0.2-1.4-0.2h-2.9z"/>
<path d="m27.1 17.1h2.1v-7.3h-1.8c-0.7 0-1.3 0.1-2 0.2-0.5 0.1-0.9 0.3-1.3 0.7-0.3 0.3-0.5 0.6-0.6 1s-0.2 0.7-0.2 1.1v0.8c-0.1 1.2 0.4 2.3 1.3 3 0.3 0.2 0.6 0.4 1 0.4 0.6 0 1.1 0.1 1.5 0.1m-0.5-10h6.1v12.1c0 1-0.2 1.9-0.5 2.8-0.3 0.7-0.9 1.3-1.5 1.7-0.9 0.4-1.8 0.6-2.8 0.5h-6.6v-2.6h6c1 0.1 1.9-0.5 2-1.5v-0.5h-3c-0.7 0-1.2 0-1.6-0.1-0.5-0.1-0.9-0.2-1.4-0.4-0.6-0.3-1.1-0.6-1.5-1.1-0.6-0.6-1-1.2-1.3-2-0.3-0.9-0.5-1.8-0.5-2.7 0-2.1 0.4-3.5 1.3-4.3 0.6-0.6 1.3-1.1 2-1.5 0.5-0.2 1-0.4 1.5-0.4 0.5-0.1 0.9-0.1 1.2-0.1z"/>
<path d="m38.7 19.7h-3.3v-12.6h5.6c0.8 0 1.6 0.1 2.3 0.4 0.5 0.2 0.8 0.7 1 1.2 0.2 0.7 0.2 1.4 0.2 2.1v1.6h-3.2v-1c0-0.4 0-0.9-0.1-1.3-0.1-0.2-0.2-0.4-0.5-0.4l-0.6-0.1h-1.5z"/>
<path d="m57.2 17.1v2.6h-4.9c-1.8 0.1-3.5-0.5-4.8-1.7-1.1-1.3-1.7-2.9-1.6-4.6-0.1-1.5 0.3-3 1.2-4.2 0.6-0.8 1.5-1.4 2.5-1.7 0.9-0.2 1.8-0.4 2.7-0.4h4.9v2.6h-4.4c-0.6 0-1.1 0-1.7 0.2-0.4 0.1-0.8 0.4-1 0.7-0.3 0.5-0.5 1-0.4 1.5h7.5v2.7h-7.5c0 0.5 0.1 1 0.3 1.5 0.2 0.3 0.6 0.6 1 0.7 0.6 0.1 1.2 0.2 1.8 0.1z"/>
<path d="m67.7 19.7h-8.6v-2.6h7c1.2 0 1.8-0.4 1.8-1.3s-0.6-1.2-1.8-1.2h-3.9s-0.6-0.1-1-0.1c-0.4-0.1-0.8-0.2-1.2-0.5s-0.7-0.7-0.8-1.1c-0.2-0.6-0.3-1.2-0.3-1.8 0-2.7 1.5-4 4.5-4h7.2v2.5h-6.6c-1 0-1.6 0.3-1.7 0.8v0.4c0 0.7 0.5 1.1 1.6 1.1h3c0.6 0 1.1 0.1 1.7 0.2 0.5 0.1 0.9 0.3 1.3 0.6s0.7 0.7 0.9 1.1c0.2 0.5 0.3 1 0.3 1.6s-0.1 1.2-0.3 1.8c-0.2 0.4-0.4 0.8-0.6 1.1-0.3 0.3-0.6 0.6-0.9 0.8-0.5 0.5-1.1 0.6-1.6 0.6"/>
<path d="m82 19.7h-8.6v-2.6h7c1.2 0 1.8-0.4 1.8-1.3s-0.6-1.2-1.8-1.2h-3.9s-0.6-0.1-1-0.1c-0.4-0.1-0.9-0.2-1.2-0.5-0.4-0.3-0.7-0.7-0.8-1.1-0.2-0.6-0.3-1.2-0.3-1.8 0-2.7 1.5-4 4.5-4h7.2v2.5h-6.5c-1 0-1.6 0.3-1.7 0.8v0.4c0 0.7 0.5 1.1 1.6 1.1h3c0.6 0 1.1 0.1 1.7 0.2 0.5 0.1 0.9 0.4 1.3 0.6 0.4 0.3 0.7 0.7 0.9 1.1 0.2 0.5 0.3 1 0.3 1.6s-0.1 1.2-0.3 1.8c-0.2 0.4-0.4 0.8-0.6 1.1-0.3 0.3-0.6 0.6-0.9 0.8-0.6 0.5-1.1 0.6-1.7 0.6"/>
<path d="m92.6 17c0.2 0.1 0.3 0.1 0.5 0.1h0.6c0.7 0 1.3-0.2 1.9-0.6 0.5-0.4 0.9-0.9 1.1-1.5s0.3-1.2 0.3-1.8c0-0.8-0.1-1.5-0.5-2.2-0.3-0.6-0.8-1.1-1.5-1.3-0.4-0.1-0.8-0.2-1.2-0.2s-0.9 0.1-1.3 0.3-0.8 0.5-1.1 0.8-0.5 0.7-0.7 1.2-0.2 1.1-0.2 1.6c0 0.8 0.1 1.5 0.5 2.2 0.3 0.7 0.9 1.2 1.6 1.4m6 1.2c-0.5 0.5-1.2 0.9-1.9 1.2-0.5 0.2-1.1 0.4-1.6 0.5-0.4 0.1-0.9 0.1-1.3 0.1-0.9 0-1.8-0.2-2.6-0.5s-1.6-0.7-2.2-1.3c-0.5-0.5-1-1.1-1.3-1.8-0.2-0.5-0.4-1.1-0.5-1.6-0.1-0.4-0.2-0.9-0.2-1.3 0-0.8 0.1-1.6 0.4-2.3 0.2-0.5 0.4-1 0.7-1.5 0.3-0.4 0.6-0.8 1-1.2 0.6-0.5 1.2-0.9 1.9-1.2 1.7-0.6 3.6-0.6 5.3 0 0.7 0.2 1.4 0.6 2 1.1 0.4 0.4 0.7 0.8 1 1.2 0.3 0.5 0.5 0.9 0.7 1.4 0.3 0.8 0.4 1.6 0.4 2.4 0 0.9-0.1 1.8-0.4 2.6s-0.8 1.6-1.4 2.2z"/>
<rect x="116.2" y="16.7" width="2.9" height="3"/>
<path d="m127.9 17h3.9v2.7h-4.5c-0.9 0-1.8-0.1-2.6-0.3s-1.5-0.6-2.2-1.2c-0.6-0.6-1.1-1.3-1.4-2.2-0.3-0.8-0.5-1.7-0.5-2.6 0-0.6 0.1-1.2 0.2-1.7 0.1-0.6 0.4-1.1 0.7-1.7 0.3-0.5 0.6-1 1-1.5 0.5-0.5 1.1-0.9 1.7-1.1 0.5-0.2 1.1-0.3 1.7-0.3 0.5-0.1 1-0.1 1.4-0.1h4.5v2.7h-4.3c-0.8 0-1.6 0.2-2.3 0.6s-1.1 1.4-1.1 3 0.4 2.5 1.1 2.9c0.9 0.6 1.8 0.8 2.7 0.8"/>
<path d="m138.8 17c0.2 0.1 0.3 0.1 0.5 0.1h0.6c0.7 0 1.3-0.2 1.9-0.6 0.5-0.4 0.9-0.9 1.1-1.5s0.3-1.2 0.3-1.8c0-0.8-0.1-1.5-0.5-2.2-0.3-0.6-0.8-1.1-1.5-1.4-0.4-0.1-0.8-0.2-1.2-0.2s-0.9 0.1-1.3 0.3-0.8 0.5-1.1 0.8-0.5 0.7-0.6 1.2c-0.2 0.5-0.2 1.1-0.2 1.6 0 0.8 0.2 1.5 0.5 2.2 0.3 0.8 0.9 1.3 1.5 1.5m6 1.2c-0.5 0.5-1.2 0.9-1.9 1.2-0.5 0.2-1.1 0.4-1.6 0.5-0.4 0.1-0.9 0.1-1.4 0.2-0.9 0-1.8-0.2-2.6-0.5s-1.6-0.7-2.2-1.3c-0.5-0.5-1-1.1-1.3-1.8-0.2-0.5-0.4-1.1-0.5-1.6-0.1-0.4-0.1-0.9-0.1-1.4 0-0.8 0.1-1.6 0.4-2.3 0.2-0.5 0.4-1 0.7-1.5 0.3-0.4 0.6-0.8 1-1.2 0.6-0.5 1.3-0.9 2-1.2 1.7-0.6 3.6-0.6 5.3 0 0.7 0.2 1.4 0.6 2 1.1 0.4 0.4 0.7 0.8 1.1 1.2 0.2 0.4 0.4 0.9 0.6 1.4 0.3 0.8 0.4 1.6 0.4 2.4 0 0.9-0.2 1.8-0.5 2.6s-0.8 1.6-1.4 2.2z"/>
<path d="m152 19.7h-3.3v-12.6h12.8c0.8 0 1.5 0.1 2.3 0.2 0.6 0.2 1.1 0.4 1.6 0.8 0.4 0.4 0.8 0.8 1 1.4 0.3 0.7 0.4 1.5 0.4 2.2v8h-3.3v-7.6c0-0.5-0.1-1-0.2-1.5-0.1-0.3-0.4-0.6-0.7-0.7-0.4-0.1-0.8-0.2-1.2-0.2h-1.9v9.9h-3.5v-9.8h-4z"/>
<rect x="169.3" y="16.7" width="2.9" height="3"/>
<path d="m174.5 19.7v-17.3h3.3v4.6h2.9c1 0 1.9 0.1 2.8 0.4 0.8 0.3 1.5 0.8 2 1.4s0.9 1.3 1.2 2.1c0.2 0.7 0.3 1.5 0.3 2.3v0.5c0 0.4 0 0.9-0.1 1.3-0.1 0.5-0.3 1-0.5 1.5-0.3 0.6-0.6 1.2-1.1 1.7s-1.2 0.9-1.9 1.2c-0.8 0.3-1.7 0.4-2.6 0.4zm5.4-9.9h-2.1v7.2h2c0.9 0 1.8-0.1 2.6-0.5 0.7-0.5 1.1-1.3 1.1-2.2v-0.8c0-0.7-0.1-1.5-0.4-2.1-0.2-0.4-0.5-0.8-0.9-1-0.3-0.2-0.6-0.3-1-0.4-0.4-0.2-0.9-0.2-1.3-0.2z"/>
<path d="m192.5 19.7h-3.3v-12.6h5.6c0.8 0 1.6 0.1 2.3 0.4 0.5 0.2 0.8 0.7 1 1.2 0.2 0.7 0.2 1.4 0.2 2.1v1.6h-3.2v-1c0-0.4 0-0.9-0.1-1.3-0.1-0.2-0.2-0.4-0.5-0.4-0.2 0-0.4-0.1-0.6-0.1h-1.5v10.1z"/>
</g><path class="st0" d="m97.6 5.6c4.8-7.2 16.3-7.2 21.4 0.1" fill="none" stroke="#1b1b1b" stroke-miterlimit="22.93" stroke-width=".5"/><path class="st0" d="m97.7 20.6c4.8 7.2 16.3 7.1 21.3-0.1" fill="none" stroke="#1b1b1b" stroke-miterlimit="22.93" stroke-width=".5"/><polygon points="116.2 32 114.4 22 122.5 27.8 119.9 28.7 122.9 33.2 121.2 34.5 118 30" fill="#1b1b1b"/></g>
</svg>
