<?xml version="1.0" encoding="UTF-8" standalone="no"?>
<svg
   xmlns:dc="http://purl.org/dc/elements/1.1/"
   xmlns:cc="http://creativecommons.org/ns#"
   xmlns:rdf="http://www.w3.org/1999/02/22-rdf-syntax-ns#"
   xmlns:svg="http://www.w3.org/2000/svg"
   xmlns="http://www.w3.org/2000/svg"
   xmlns:sodipodi="http://sodipodi.sourceforge.net/DTD/sodipodi-0.dtd"
   xmlns:inkscape="http://www.inkscape.org/namespaces/inkscape"
   id="svg8"
   version="1.1"
   viewBox="0 0 360.29443 68.363694"
   height="68.363693mm"
   width="360.29443mm"
   sodipodi:docname="terminais_cdi.svg"
   inkscape:version="0.92.4 (5da689c313, 2019-01-14)">
  <sodipodi:namedview
     pagecolor="#ffffff"
     bordercolor="#666666"
     borderopacity="1"
     objecttolerance="10"
     gridtolerance="10"
     guidetolerance="10"
     inkscape:pageopacity="0"
     inkscape:pageshadow="2"
     inkscape:window-width="1366"
     inkscape:window-height="705"
     id="namedview51"
     showgrid="false"
     inkscape:zoom="0.3946422"
     inkscape:cx="359.25158"
     inkscape:cy="192.82883"
     inkscape:window-x="-8"
     inkscape:window-y="305"
     inkscape:window-maximized="1"
     inkscape:current-layer="svg8" />
  <defs
     id="defs2" />
  <metadata
     id="metadata5">
    <rdf:RDF>
      <cc:Work
         rdf:about="">
        <dc:format>image/svg+xml</dc:format>
        <dc:type
           rdf:resource="http://purl.org/dc/dcmitype/StillImage" />
        <dc:title />
      </cc:Work>
    </rdf:RDF>
  </metadata>
  <g
     id="g2867"
     transform="matrix(0.18040523,0,0,0.18040523,-232.08443,109.64341)" />
  <g
     id="g2869"
     transform="matrix(0.18040523,0,0,0.18040523,-232.08443,109.64341)" />
  <g
     id="g2871"
     transform="matrix(0.18040523,0,0,0.18040523,-232.08443,109.64341)" />
  <g
     id="g2873"
     transform="matrix(0.18040523,0,0,0.18040523,-232.08443,109.64341)" />
  <g
     id="g2875"
     transform="matrix(0.18040523,0,0,0.18040523,-232.08443,109.64341)" />
  <g
     id="g2877"
     transform="matrix(0.18040523,0,0,0.18040523,-232.08443,109.64341)" />
  <g
     id="g2879"
     transform="matrix(0.18040523,0,0,0.18040523,-232.08443,109.64341)" />
  <g
     id="g2881"
     transform="matrix(0.18040523,0,0,0.18040523,-232.08443,109.64341)" />
  <g
     id="g2883"
     transform="matrix(0.18040523,0,0,0.18040523,-232.08443,109.64341)" />
  <g
     id="g2885"
     transform="matrix(0.18040523,0,0,0.18040523,-232.08443,109.64341)" />
  <g
     id="g2887"
     transform="matrix(0.18040523,0,0,0.18040523,-232.08443,109.64341)" />
  <g
     id="g2889"
     transform="matrix(0.18040523,0,0,0.18040523,-232.08443,109.64341)" />
  <g
     id="g2891"
     transform="matrix(0.18040523,0,0,0.18040523,-232.08443,109.64341)" />
  <g
     id="g2893"
     transform="matrix(0.18040523,0,0,0.18040523,-232.08443,109.64341)" />
  <g
     id="g2895"
     transform="matrix(0.18040523,0,0,0.18040523,-232.08443,109.64341)" />
  <g
     aria-label="TERMINAIS"
     style="font-style:normal;font-variant:normal;font-weight:800;font-stretch:normal;font-size:42.43613434px;line-height:1.25;font-family:Nunito;-inkscape-font-specification:'Nunito, Ultra-Bold';font-variant-ligatures:normal;font-variant-caps:normal;font-variant-numeric:normal;font-feature-settings:normal;text-align:start;letter-spacing:0px;word-spacing:0px;writing-mode:lr-tb;text-anchor:start;fill:#060606;fill-opacity:1;stroke:none;stroke-width:2.44834304"
     id="text2752-9"
     transform="translate(-776.39595,-85.129567)">
    <path
       inkscape:connector-curvature="0"
       d="m 794.72089,134.48234 q -1.48526,0 -2.41886,-0.89116 -0.89116,-0.89116 -0.89116,-2.37642 v -21.47269 h -6.87465 q -3.14027,0 -3.14027,-2.71591 0,-2.67348 3.14027,-2.67348 h 20.36934 q 3.14028,0 3.14028,2.67348 0,2.71591 -3.14028,2.71591 h -6.87465 v 21.47269 q 0,1.48526 -0.89116,2.37642 -0.89116,0.89116 -2.41886,0.89116 z"
       style="font-style:normal;font-variant:normal;font-weight:800;font-stretch:normal;font-size:42.43613434px;font-family:Nunito;-inkscape-font-specification:'Nunito, Ultra-Bold';font-variant-ligatures:normal;font-variant-caps:normal;font-variant-numeric:normal;font-feature-settings:normal;text-align:start;writing-mode:lr-tb;text-anchor:start;fill:#060606;fill-opacity:1;stroke-width:2.44834304"
       id="path855" />
    <path
       inkscape:connector-curvature="0"
       d="m 813.94844,134.27016 q -1.48527,0 -2.29155,-0.80629 -0.80629,-0.80629 -0.80629,-2.29155 v -23.7218 q 0,-1.48526 0.80629,-2.29155 0.80628,-0.80629 2.29155,-0.80629 h 15.02239 q 3.14027,0 3.14027,2.54617 0,2.5886 -3.14027,2.5886 h -11.66994 v 7.00197 h 10.82122 q 3.14027,0 3.14027,2.5886 0,2.54617 -3.14027,2.54617 h -10.82122 v 7.51119 h 11.66994 q 3.14027,0 3.14027,2.58861 0,2.54617 -3.14027,2.54617 z"
       style="font-style:normal;font-variant:normal;font-weight:800;font-stretch:normal;font-size:42.43613434px;font-family:Nunito;-inkscape-font-specification:'Nunito, Ultra-Bold';font-variant-ligatures:normal;font-variant-caps:normal;font-variant-numeric:normal;font-feature-settings:normal;text-align:start;writing-mode:lr-tb;text-anchor:start;fill:#060606;fill-opacity:1;stroke-width:2.44834304"
       id="path857" />
    <path
       inkscape:connector-curvature="0"
       d="m 860.57514,130.06898 q 0.63654,0.93359 0.63654,1.82475 0,1.18822 -0.97603,1.95207 -0.93359,0.76385 -2.20668,0.76385 -0.80628,0 -1.57013,-0.38193 -0.76385,-0.38192 -1.27309,-1.18821 l -5.60157,-8.31748 q -0.72141,-1.10334 -1.5277,-1.57014 -0.80628,-0.50923 -2.03693,-0.50923 h -3.43733 v 8.5721 q 0,1.5277 -0.89116,2.41885 -0.84872,0.89116 -2.33399,0.89116 -1.5277,0 -2.41886,-0.89116 -0.89115,-0.89115 -0.89115,-2.41885 v -23.76424 q 0,-1.48526 0.80628,-2.29155 0.80629,-0.80629 2.29155,-0.80629 h 10.65147 q 5.26208,0 7.93556,2.33399 2.71591,2.29155 2.71591,6.66247 0,3.43733 -1.90962,5.72888 -1.90963,2.29155 -5.38939,3.01297 1.27308,0.25461 2.24911,1.01846 1.01847,0.72142 1.95207,2.12181 z m -11.75481,-12.43379 q 2.84322,0 4.11631,-0.97603 1.27308,-1.01847 1.27308,-3.14027 0,-2.16425 -1.27308,-3.14028 -1.27309,-0.97603 -4.11631,-0.97603 h -6.32298 v 8.23261 z"
       style="font-style:normal;font-variant:normal;font-weight:800;font-stretch:normal;font-size:42.43613434px;font-family:Nunito;-inkscape-font-specification:'Nunito, Ultra-Bold';font-variant-ligatures:normal;font-variant-caps:normal;font-variant-numeric:normal;font-feature-settings:normal;text-align:start;writing-mode:lr-tb;text-anchor:start;fill:#060606;fill-opacity:1;stroke-width:2.44834304"
       id="path859" />
    <path
       inkscape:connector-curvature="0"
       d="m 892.3671,104.1405 q 1.40039,0 2.24912,0.9336 0.89115,0.89116 0.89115,2.33398 v 24.10373 q 0,1.40039 -0.80628,2.20668 -0.80629,0.80628 -2.12181,0.80628 -1.27308,0 -2.07937,-0.80628 -0.80629,-0.80629 -0.80629,-2.20668 v -14.97996 l -6.02593,11.33045 q -0.5941,1.10334 -1.31552,1.61257 -0.67898,0.50924 -1.65501,0.50924 -0.93359,0 -1.65501,-0.50924 -0.72141,-0.50923 -1.31552,-1.61257 l -6.02593,-11.11827 v 14.76778 q 0,1.35795 -0.80628,2.20668 -0.80629,0.80628 -2.12181,0.80628 -1.27308,0 -2.07937,-0.80628 -0.80629,-0.80629 -0.80629,-2.20668 v -24.10373 q 0,-1.44282 0.84872,-2.33398 0.89116,-0.9336 2.29156,-0.9336 2.03693,0 3.09783,2.16424 l 8.61454,16.33792 8.5721,-16.33792 q 1.14577,-2.16424 3.0554,-2.16424 z"
       style="font-style:normal;font-variant:normal;font-weight:800;font-stretch:normal;font-size:42.43613434px;font-family:Nunito;-inkscape-font-specification:'Nunito, Ultra-Bold';font-variant-ligatures:normal;font-variant-caps:normal;font-variant-numeric:normal;font-feature-settings:normal;text-align:start;writing-mode:lr-tb;text-anchor:start;fill:#060606;fill-opacity:1;stroke-width:2.44834304"
       id="path861" />
    <path
       inkscape:connector-curvature="0"
       d="m 904.8347,134.52477 q -1.5277,0 -2.41886,-0.89116 -0.89116,-0.89115 -0.89116,-2.41885 v -23.80668 q 0,-1.48526 0.89116,-2.37642 0.89116,-0.89116 2.41886,-0.89116 1.5277,0 2.41886,0.89116 0.89116,0.89116 0.89116,2.37642 v 23.80668 q 0,1.5277 -0.89116,2.41885 -0.89116,0.89116 -2.41886,0.89116 z"
       style="font-style:normal;font-variant:normal;font-weight:800;font-stretch:normal;font-size:42.43613434px;font-family:Nunito;-inkscape-font-specification:'Nunito, Ultra-Bold';font-variant-ligatures:normal;font-variant-caps:normal;font-variant-numeric:normal;font-feature-settings:normal;text-align:start;writing-mode:lr-tb;text-anchor:start;fill:#060606;fill-opacity:1;stroke-width:2.44834304"
       id="path863" />
    <path
       inkscape:connector-curvature="0"
       d="m 936.95356,104.1405 q 1.40039,0 2.24911,0.9336 0.89116,0.89116 0.89116,2.33398 v 23.80668 q 0,1.48526 -0.89116,2.41885 -0.84872,0.89116 -2.24911,0.89116 -1.5277,0 -2.4613,-1.10334 l -14.2161,-18.2051 v 15.99843 q 0,1.48526 -0.84872,2.41885 -0.80629,0.89116 -2.20668,0.89116 -1.4004,0 -2.24912,-0.89116 -0.84872,-0.93359 -0.84872,-2.41885 v -23.80668 q 0,-1.44282 0.84872,-2.33398 0.89116,-0.9336 2.29155,-0.9336 1.57014,0 2.41886,1.10334 l 14.21611,18.07779 v -15.91355 q 0,-1.44282 0.84872,-2.33398 0.84872,-0.9336 2.20668,-0.9336 z"
       style="font-style:normal;font-variant:normal;font-weight:800;font-stretch:normal;font-size:42.43613434px;font-family:Nunito;-inkscape-font-specification:'Nunito, Ultra-Bold';font-variant-ligatures:normal;font-variant-caps:normal;font-variant-numeric:normal;font-feature-settings:normal;text-align:start;writing-mode:lr-tb;text-anchor:start;fill:#060606;fill-opacity:1;stroke-width:2.44834304"
       id="path865" />
    <path
       inkscape:connector-curvature="0"
       d="m 973.91343,130.23872 q 0.33949,0.76385 0.33949,1.35796 0,1.18821 -0.97603,2.03693 -0.93359,0.80629 -2.16424,0.80629 -0.80629,0 -1.5277,-0.42436 -0.72142,-0.4668 -1.10334,-1.35796 l -2.24912,-5.00746 h -14.38585 l -2.24911,5.00746 q -0.38193,0.89116 -1.10334,1.35796 -0.67898,0.42436 -1.5277,0.42436 -1.23065,0 -2.20668,-0.80629 -0.97603,-0.84872 -0.97603,-2.03693 0,-0.59411 0.33949,-1.35796 l 11.45775,-24.06128 q 0.4668,-1.01847 1.40039,-1.5277 0.9336,-0.55167 1.9945,-0.55167 1.10334,0 2.03694,0.55167 0.93359,0.55166 1.44283,1.5277 z m -19.81767,-7.59606 h 9.88762 l -4.92259,-11.0334 z"
       style="font-style:normal;font-variant:normal;font-weight:800;font-stretch:normal;font-size:42.43613434px;font-family:Nunito;-inkscape-font-specification:'Nunito, Ultra-Bold';font-variant-ligatures:normal;font-variant-caps:normal;font-variant-numeric:normal;font-feature-settings:normal;text-align:start;writing-mode:lr-tb;text-anchor:start;fill:#060606;fill-opacity:1;stroke-width:2.44834304"
       id="path867" />
    <path
       inkscape:connector-curvature="0"
       d="m 981.2529,134.52477 q -1.5277,0 -2.41886,-0.89116 -0.89116,-0.89115 -0.89116,-2.41885 v -23.80668 q 0,-1.48526 0.89116,-2.37642 0.89116,-0.89116 2.41886,-0.89116 1.5277,0 2.41886,0.89116 0.89116,0.89116 0.89116,2.37642 v 23.80668 q 0,1.5277 -0.89116,2.41885 -0.89116,0.89116 -2.41886,0.89116 z"
       style="font-style:normal;font-variant:normal;font-weight:800;font-stretch:normal;font-size:42.43613434px;font-family:Nunito;-inkscape-font-specification:'Nunito, Ultra-Bold';font-variant-ligatures:normal;font-variant-caps:normal;font-variant-numeric:normal;font-feature-settings:normal;text-align:start;writing-mode:lr-tb;text-anchor:start;fill:#060606;fill-opacity:1;stroke-width:2.44834304"
       id="path869" />
    <path
       inkscape:connector-curvature="0"
       d="m 1001.3199,134.65208 q -3.35246,0 -6.23812,-0.76385 -2.88565,-0.80628 -4.71041,-2.24911 -0.63654,-0.4668 -0.93359,-0.97603 -0.25462,-0.55167 -0.25462,-1.35796 0,-1.0609 0.63654,-1.86719 0.67898,-0.80629 1.5277,-0.80629 0.4668,0 0.89116,0.16975 0.4668,0.12731 1.10334,0.50923 1.82476,1.14578 3.69195,1.69745 1.86719,0.50923 4.11635,0.50923 2.8007,0 4.286,-0.9336 1.4853,-0.93359 1.4853,-2.67347 0,-1.31552 -1.4004,-2.12181 -1.358,-0.80628 -4.8802,-1.5277 -3.94654,-0.80629 -6.32297,-1.95206 -2.33398,-1.14578 -3.43732,-2.84322 -1.06091,-1.69745 -1.06091,-4.11631 0,-2.67347 1.5277,-4.79528 1.57014,-2.16424 4.28605,-3.35246 2.75835,-1.23064 6.19565,-1.23064 6.026,0 9.9301,3.01296 0.6365,0.50924 0.8911,1.06091 0.2971,0.50923 0.2971,1.27308 0,1.0609 -0.679,1.86719 -0.6365,0.80629 -1.4852,0.80629 -0.4668,0 -0.8912,-0.12731 -0.3819,-0.12731 -1.1033,-0.55167 -1.7399,-1.10334 -3.2252,-1.65501 -1.4428,-0.55167 -3.6919,-0.55167 -2.58864,0 -4.0739,1.01847 -1.48527,0.97603 -1.48527,2.71591 0,1.01847 0.55167,1.69744 0.59411,0.63655 1.90963,1.14578 1.35797,0.50923 3.81927,1.0609 5.7713,1.27309 8.275,3.26759 2.5462,1.99449 2.5462,5.47426 0,2.71591 -1.5277,4.79528 -1.4853,2.07937 -4.2436,3.22515 -2.7159,1.14577 -6.323,1.14577 z"
       style="font-style:normal;font-variant:normal;font-weight:800;font-stretch:normal;font-size:42.43613434px;font-family:Nunito;-inkscape-font-specification:'Nunito, Ultra-Bold';font-variant-ligatures:normal;font-variant-caps:normal;font-variant-numeric:normal;font-feature-settings:normal;text-align:start;writing-mode:lr-tb;text-anchor:start;fill:#060606;fill-opacity:1;stroke-width:2.44834304"
       id="path871" />
  </g>
  <g
     id="g4260"
     transform="matrix(2.2255061,0,0,2.2255061,-47.48906,-1.831136)" />
  <g
     id="g4262"
     transform="matrix(2.2255061,0,0,2.2255061,-47.48906,-1.831136)" />
  <g
     id="g4264"
     transform="matrix(2.2255061,0,0,2.2255061,-47.48906,-1.831136)" />
  <g
     id="g4266"
     transform="matrix(2.2255061,0,0,2.2255061,-47.48906,-1.831136)" />
  <g
     id="g4268"
     transform="matrix(2.2255061,0,0,2.2255061,-47.48906,-1.831136)" />
  <g
     id="g4270"
     transform="matrix(2.2255061,0,0,2.2255061,-47.48906,-1.831136)" />
  <g
     id="g4272"
     transform="matrix(2.2255061,0,0,2.2255061,-47.48906,-1.831136)" />
  <g
     id="g4274"
     transform="matrix(2.2255061,0,0,2.2255061,-47.48906,-1.831136)" />
  <g
     id="g4276"
     transform="matrix(2.2255061,0,0,2.2255061,-47.48906,-1.831136)" />
  <g
     id="g4278"
     transform="matrix(2.2255061,0,0,2.2255061,-47.48906,-1.831136)" />
  <g
     id="g4280"
     transform="matrix(2.2255061,0,0,2.2255061,-47.48906,-1.831136)" />
  <g
     id="g4282"
     transform="matrix(2.2255061,0,0,2.2255061,-47.48906,-1.831136)" />
  <g
     id="g4284"
     transform="matrix(2.2255061,0,0,2.2255061,-47.48906,-1.831136)" />
  <g
     id="g4286"
     transform="matrix(2.2255061,0,0,2.2255061,-47.48906,-1.831136)" />
  <g
     id="g4288"
     transform="matrix(2.2255061,0,0,2.2255061,-47.48906,-1.831136)" />
  <path
     inkscape:connector-curvature="0"
     style="opacity:1;fill:#2e334d;fill-opacity:1;fill-rule:evenodd;stroke:#a8a8a8;stroke-width:0.09414255;stroke-linecap:round;stroke-linejoin:round;stroke-miterlimit:4;stroke-dasharray:none;stroke-dashoffset:0;stroke-opacity:1"
     d="m 253.72832,5.049472 h 87.31113 c 2.32315,0 4.19338,2.110218 4.19338,4.731431 v 48.80189 c 0,2.62122 -1.87023,4.73143 -4.19338,4.73143 h -87.31113 c -2.32324,0 -4.19347,-2.11021 -4.19347,-4.73143 V 9.780903 c 0,-2.621213 1.87023,-4.731431 4.19347,-4.731431 z"
     id="rect4569" />
  <g
     aria-label="CDI"
     style="font-style:normal;font-variant:normal;font-weight:800;font-stretch:normal;font-size:44.79572296px;line-height:1.25;font-family:Nunito;-inkscape-font-specification:'Nunito, Ultra-Bold';font-variant-ligatures:normal;font-variant-caps:normal;font-variant-numeric:normal;font-feature-settings:normal;text-align:start;letter-spacing:0px;word-spacing:0px;writing-mode:lr-tb;text-anchor:start;fill:#ffffff;fill-opacity:1;stroke:none;stroke-width:2.58446169"
     id="text2752-9-0"
     transform="matrix(0.90735513,0,0,0.92681211,-682.68238,-76.397421)">
    <path
       inkscape:connector-curvature="0"
       d="m 1056.9857,135.50507 q -4.6588,0 -8.1528,-1.97101 -3.4941,-1.97101 -5.3755,-5.64426 -1.8814,-3.67325 -1.8814,-8.60078 0,-4.92753 1.8814,-8.55598 1.8814,-3.67325 5.3755,-5.64426 3.494,-1.97101 8.1528,-1.97101 5.8682,0 10.1238,3.22529 0.672,0.53755 0.9407,1.0751 0.2688,0.53755 0.2688,1.34387 0,1.16469 -0.6719,2.01581 -0.6272,0.80632 -1.5679,0.80632 -0.6271,0 -1.1199,-0.13439 -0.4479,-0.17918 -1.0303,-0.58234 -1.7918,-1.16469 -3.3148,-1.65744 -1.5231,-0.53755 -3.2701,-0.53755 -4.3004,0 -6.4954,2.68774 -2.1502,2.64295 -2.1502,7.92884 0,10.66139 8.6456,10.66139 1.6574,0 3.1357,-0.49276 1.4782,-0.53755 3.4492,-1.70224 0.672,-0.40316 1.1199,-0.53754 0.448,-0.17919 1.0303,-0.17919 0.9407,0 1.5679,0.85112 0.6719,0.80633 0.6719,1.97101 0,0.80633 -0.3136,1.38867 -0.2687,0.53755 -0.8959,1.0303 -4.2556,3.22529 -10.1238,3.22529 z"
       style="font-style:normal;font-variant:normal;font-weight:800;font-stretch:normal;font-size:44.79572296px;font-family:Nunito;-inkscape-font-specification:'Nunito, Ultra-Bold';font-variant-ligatures:normal;font-variant-caps:normal;font-variant-numeric:normal;font-feature-settings:normal;text-align:start;writing-mode:lr-tb;text-anchor:start;fill:#ffffff;fill-opacity:1;stroke-width:2.58446169"
       id="path847" />
    <path
       inkscape:connector-curvature="0"
       d="m 1076.1016,135.10191 q -1.5679,0 -2.419,-0.85112 -0.8511,-0.85111 -0.8511,-2.41896 v -25.04081 q 0,-1.56785 0.8511,-2.41897 0.8511,-0.85112 2.419,-0.85112 h 9.0039 q 5.1515,0 8.8696,1.88142 3.718,1.88142 5.689,5.42028 1.971,3.53886 1.971,8.46639 0,4.92753 -1.971,8.51119 -1.9262,3.53886 -5.6442,5.42028 -3.7181,1.88142 -8.9144,1.88142 z m 8.5112,-5.64426 q 10.079,0 10.079,-10.16863 0,-10.12383 -10.079,-10.12383 h -4.7932 v 20.29246 z"
       style="font-style:normal;font-variant:normal;font-weight:800;font-stretch:normal;font-size:44.79572296px;font-family:Nunito;-inkscape-font-specification:'Nunito, Ultra-Bold';font-variant-ligatures:normal;font-variant-caps:normal;font-variant-numeric:normal;font-feature-settings:normal;text-align:start;writing-mode:lr-tb;text-anchor:start;fill:#ffffff;fill-opacity:1;stroke-width:2.58446169"
       id="path849" />
    <path
       inkscape:connector-curvature="0"
       d="m 1110.5348,135.37069 q -1.6127,0 -2.5534,-0.94071 -0.9407,-0.94071 -0.9407,-2.55336 v -25.1304 q 0,-1.56785 0.9407,-2.50856 0.9407,-0.94071 2.5534,-0.94071 1.6126,0 2.5533,0.94071 0.9407,0.94071 0.9407,2.50856 v 25.1304 q 0,1.61265 -0.9407,2.55336 -0.9407,0.94071 -2.5533,0.94071 z"
       style="font-style:normal;font-variant:normal;font-weight:800;font-stretch:normal;font-size:44.79572296px;font-family:Nunito;-inkscape-font-specification:'Nunito, Ultra-Bold';font-variant-ligatures:normal;font-variant-caps:normal;font-variant-numeric:normal;font-feature-settings:normal;text-align:start;writing-mode:lr-tb;text-anchor:start;fill:#ffffff;fill-opacity:1;stroke-width:2.58446169"
       id="path851" />
  </g>
</svg>
