<?xml version="1.0" standalone="no"?>
<!DOCTYPE svg PUBLIC "-//W3C//DTD SVG 1.1//EN" "http://www.w3.org/Graphics/SVG/1.1/DTD/svg11.dtd" >
<svg xmlns="http://www.w3.org/2000/svg" xmlns:xlink="http://www.w3.org/1999/xlink" version="1.1">
<metadata>
Created by FontForge 20170731 at Fri Jun 24 01:07:07 2016
 By Aleksey,,,
Copyright (c) 2015 by Mateusz Machalski. All rights reserved.
</metadata>
<defs>
<font id="Migrena_Grotesque-Semibolditalic" horiz-adv-x="2242" >
  <font-face 
    font-family="Migrena_Grotesque Semibold"
    font-weight="700"
    font-style="italic"
    font-stretch="normal"
    units-per-em="4000"
    panose-1="0 0 8 0 0 0 0 0 0 0"
    ascent="3200"
    descent="-800"
    x-height="1829"
    cap-height="2440"
    bbox="-2153.11 -1239.9 4975.87 3636.57"
    underline-thickness="50"
    underline-position="-200"
    slope="-8"
    unicode-range="U+0020-25CA"
  />
<missing-glyph horiz-adv-x="1609" 
d="M1319 2560v-3217h-1020v3217h1020zM1071 2344h-531v-106h210v-119h-213v-106h534v106h-212v119h212v106zM859 1929h-322v-334h534v109h-212v225zM750 1820v-116h-107v116h107zM1071 1508h-534v-106h213v-119h-213v-106h322v225h212v106zM1071 1315h-106v-212h-428v-110
h534v322zM1071 923h-321v-181h109v74h106v-151h-322v258h-106v-364h534v364zM1071 366h-534v-364h534v364zM965 260v-151h-322v151h322zM1071 -72h-534v-106h225l-225 -151v-106h534v106h-328l225 151h103v106z" />
    <glyph glyph-name=".notdef" horiz-adv-x="1609" 
d="M1319 2560v-3217h-1020v3217h1020zM1071 2344h-531v-106h210v-119h-213v-106h534v106h-212v119h212v106zM859 1929h-322v-334h534v109h-212v225zM750 1820v-116h-107v116h107zM1071 1508h-534v-106h213v-119h-213v-106h322v225h212v106zM1071 1315h-106v-212h-428v-110
h534v322zM1071 923h-321v-181h109v74h106v-151h-322v258h-106v-364h534v364zM1071 366h-534v-364h534v364zM965 260v-151h-322v151h322zM1071 -72h-534v-106h225l-225 -151v-106h534v106h-328l225 151h103v106z" />
    <glyph glyph-name=".null" horiz-adv-x="0" 
 />
    <glyph glyph-name="nonmarkingreturn" horiz-adv-x="1333" 
 />
    <glyph glyph-name="space" unicode=" " horiz-adv-x="702" 
 />
    <glyph glyph-name="exclam" unicode="!" horiz-adv-x="1008" 
d="M413 2371q3 32 24 50.5t54 18.5h460q33 0 49 -18.5t10 -50.5l-285 -1516q-13 -68 -78 -68h-317q-31 0 -46.5 18t-12.5 50zM367 -40q-120 0 -199.5 81.5t-79.5 201.5q0 144 111.5 251t256.5 107q121 0 200 -82t79 -202q0 -144 -111.5 -250.5t-256.5 -106.5z" />
    <glyph glyph-name="quotedbl" unicode="&#x22;" horiz-adv-x="1559" 
d="M392 2441q2 32 23.5 50.5t54.5 18.5h366q33 0 49.5 -18.5t9.5 -50.5l-172 -816q-14 -68 -79 -68h-257q-64 0 -59 68zM1094 2441q2 32 23.5 50.5t54.5 18.5h366q33 0 49.5 -18.5t9.5 -50.5l-172 -816q-14 -68 -79 -68h-257q-64 0 -59 68z" />
    <glyph glyph-name="numbersign" unicode="#" horiz-adv-x="2781" 
d="M2659 1803q36 0 51.5 -20.5t7.5 -56.5l-64 -281q-8 -36 -33.5 -56.5t-61.5 -20.5h-282l-114 -476h273q36 0 52 -20.5t8 -56.5l-64 -281q-8 -36 -33.5 -56.5t-61.5 -20.5h-279l-93 -388q-8 -32 -30 -50.5t-54 -18.5h-416q-32 0 -46.5 18.5t-6.5 50.5l93 388h-490l-93 -388
q-8 -32 -30 -50.5t-54 -18.5h-416q-32 0 -46 18.5t-7 50.5l93 388h-278q-36 0 -52.5 20.5t-8.5 56.5l66 281q8 36 33 56.5t61 20.5h283l115 476h-275q-36 0 -52 20.5t-8 56.5l64 281q7 36 33 56.5t63 20.5h279l93 388q18 69 85 69h416q32 0 46 -18.5t7 -50.5l-93 -388h490
l93 388q8 32 30 50.5t54 18.5h416q32 0 46.5 -18.5t6.5 -50.5l-93 -388h277zM1610 892l114 476h-490l-114 -476h490z" />
    <glyph glyph-name="dollar" unicode="$" horiz-adv-x="2301" 
d="M1389 2028q-215 0 -321 -73t-106 -182q0 -48 29.5 -86t93.5 -69t123.5 -52t160.5 -52q98 -30 151 -47.5t147 -55t148 -71t123 -89.5t106 -116t64 -144.5t27 -182.5q0 -143 -47 -266.5t-129 -216t-196.5 -163.5t-247 -115.5t-282.5 -66.5l-58 -411q-5 -29 -27.5 -49
t-50.5 -20h-302q-28 0 -45.5 20.5t-13.5 48.5l56 398q-382 32 -705 228q-58 39 -19 104l185 311q41 69 104 37q177 -95 254 -126q184 -73 404 -73q209 0 325 61.5t116 178.5q0 48 -24.5 88.5t-59.5 69t-98.5 57.5t-115 47.5t-136.5 46.5q-92 30 -141 47.5t-136 54t-135.5 68
t-111.5 84t-96 108.5t-57 133.5t-24 167.5q0 310 218.5 527.5t604.5 279.5l56 404q5 29 27.5 49t50.5 20h302q28 0 45.5 -20.5t13.5 -48.5l-55 -389q360 -30 652 -203q61 -36 20 -102l-178 -296q-42 -72 -115 -30q-62 37 -103.5 58t-119.5 53.5t-166 49t-185 16.5z" />
    <glyph glyph-name="percent" unicode="%" horiz-adv-x="3661" 
d="M2783 2506q23 -12 29.5 -39t-9.5 -53l-1561 -2534q-16 -25 -44.5 -35t-51.5 2l-181 90q-24 13 -30.5 39.5t9.5 52.5l1561 2534q15 25 44 35t53 -1zM1611 1709q-33 -235 -149.5 -414t-282 -271.5t-354.5 -92.5q-140 0 -256 54.5t-194 153t-110.5 246t-7.5 324.5
q25 178 98.5 326t179 246.5t236.5 153t272 54.5t257 -54.5t193.5 -153t110 -246.5t7.5 -326zM880 1323q109 0 179 104t95 282q15 116 5.5 202.5t-53 136t-117.5 49.5q-108 0 -179 -105t-96 -283q-25 -176 16.5 -281t149.5 -105zM2922 1509q141 0 257 -54.5t193.5 -153
t109.5 -246.5t7 -325q-33 -236 -149.5 -415t-282 -271.5t-354.5 -92.5q-141 0 -256.5 54.5t-193.5 153t-110.5 246.5t-7.5 325t98.5 325t179.5 246.5t237 153t272 54.5zM2758 343q109 0 179 104.5t95 282.5q15 116 5.5 202t-53 136t-117.5 50q-108 0 -178.5 -105t-96.5 -283
q-25 -176 16.5 -281.5t149.5 -105.5z" />
    <glyph glyph-name="ampersand" unicode="&#x26;" horiz-adv-x="2544" 
d="M2390 1330q29 -5 42 -27.5t3 -52.5q-133 -409 -386 -714l289 -378q23 -35 18.5 -70t-36.5 -61.5t-76 -26.5h-416q-50 0 -82 42l-106 134q-348 -216 -764 -216q-229 0 -407 75.5t-279.5 219.5t-101.5 334q0 114 30 219t81.5 191.5t127.5 168t159.5 147t186.5 129.5
q-86 166 -86 330q0 142 50 261t135.5 201.5t200.5 140.5t244.5 85t268.5 27q311 0 568 -145q22 -13 27 -37t-9 -49l-149 -278q-18 -33 -49 -43t-60 7q-85 49 -159.5 74.5t-167.5 25.5q-148 0 -228.5 -67t-80.5 -179q0 -37 14.5 -81.5t28 -74t51.5 -84.5t50.5 -71.5
t58.5 -76.5l370 -485q118 179 195 405q10 30 35.5 46t54.5 11zM981 431q190 0 374 106l-449 569q-123 -98 -175.5 -192t-52.5 -211q0 -123 76 -197.5t227 -74.5z" />
    <glyph glyph-name="quotesingle" unicode="'" horiz-adv-x="857" 
d="M392 2441q2 32 23.5 50.5t54.5 18.5h366q33 0 49.5 -18.5t9.5 -50.5l-172 -816q-14 -68 -79 -68h-257q-64 0 -59 68z" />
    <glyph glyph-name="parenleft" unicode="(" horiz-adv-x="1087" 
d="M533 568q0 -283 49.5 -577.5t152.5 -530.5q13 -29 0 -56.5t-45 -40.5l-155 -61q-48 -18 -70 20q-145 261 -224.5 601.5t-79.5 689.5q0 1012 759 1951q15 18 36.5 23.5t39.5 -3.5l138 -61q29 -13 34 -40.5t-16 -56.5q-149 -209 -262 -424t-179.5 -400t-107.5 -376.5
t-55.5 -344.5t-14.5 -313z" />
    <glyph glyph-name="parenright" unicode=")" horiz-adv-x="1087" 
d="M630 2564q143 -270 223 -612.5t80 -690.5q0 -525 -198.5 -1016t-559.5 -923q-33 -38 -76 -20l-138 61q-28 13 -33.5 41t14.5 56q150 209 262.5 424t179.5 400t108 376.5t55.5 344.5t14.5 313q0 282 -50 576.5t-153 531.5q-12 28 1 56t45 41l155 61q50 19 70 -20z" />
    <glyph glyph-name="asterisk" unicode="*" horiz-adv-x="1788" 
d="M1814 2378q4 -27 -10.5 -50t-42.5 -32l-406 -126l194 -330q13 -23 5 -48.5t-33 -41.5l-198 -132q-24 -16 -49.5 -11.5t-38.5 27.5l-194 329l-286 -329q-20 -23 -46.5 -27.5t-46.5 11.5l-161 132q-20 16 -21 41.5t19 48.5l287 330l-371 126q-25 9 -33.5 32t3.5 50l99 211
q12 26 36.5 38t49.5 3l371 -126l58 409q4 28 25 46t49 18h222q28 0 43.5 -18t11.5 -46l-57 -409l406 126q28 9 49.5 -3t26.5 -38z" />
    <glyph glyph-name="plus" unicode="+" horiz-adv-x="2146" 
d="M1941 1309q36 0 53.5 -20.5t12.5 -56.5l-37 -267q-4 -36 -28 -56.5t-60 -20.5h-602l-85 -602q-5 -36 -28.5 -56.5t-59.5 -20.5h-267q-36 0 -53.5 20.5t-12.5 56.5l84 602h-601q-36 0 -54 20.5t-13 56.5l37 267q5 36 29 56.5t60 20.5h602l84 602q5 37 28.5 57.5t59.5 20.5
h267q36 0 54 -20.5t13 -57.5l-85 -602h602z" />
    <glyph glyph-name="comma" unicode="," horiz-adv-x="979" 
d="M431 614q52 0 100 -17t90 -51t67 -94t25 -137q0 -146 -90 -320.5t-233.5 -322t-299.5 -228.5q-24 -12 -46 -7t-33 22l-32 44q-14 20 -9 46.5t29 47.5q42 37 59.5 52.5t52.5 52.5t51 63.5t30 65t14 76.5q0 42 -17.5 71.5t-53.5 65.5q-81 80 -81 199q0 152 113.5 261.5
t263.5 109.5z" />
    <glyph glyph-name="hyphen" unicode="-" horiz-adv-x="1989" 
d="M232 716q-36 0 -53.5 20.5t-12.5 56.5l45 324q5 37 28.5 57.5t59.5 20.5h1469q36 0 54 -20.5t13 -57.5l-46 -324q-4 -36 -28 -56.5t-60 -20.5h-1469z" />
    <glyph glyph-name="period" unicode="." horiz-adv-x="1010" 
d="M371 -40q-123 0 -203.5 83.5t-80.5 205.5q0 147 113.5 256t261.5 109q123 0 204 -83.5t81 -206.5q0 -147 -114 -255.5t-262 -108.5z" />
    <glyph glyph-name="slash" unicode="/" horiz-adv-x="1603" 
d="M1501 2660q15 26 43.5 36t53.5 -3l180 -90q24 -13 30 -40t-9 -52l-1596 -2631q-16 -25 -45 -35t-51 2l-182 90q-24 13 -30 39.5t10 52.5z" />
    <glyph glyph-name="zero" unicode="0" horiz-adv-x="2459" 
d="M1451 2489q183 0 340 -56t275.5 -163t196 -262t101.5 -353t-7 -435q-33 -232 -115 -434t-201.5 -354t-268.5 -261t-321.5 -164.5t-355.5 -55.5t-340 56t-275.5 163t-196 262t-101.5 353t7 435q40 290 157.5 530.5t285.5 401t379 249t440 88.5zM1167 465q144 0 255.5 97.5
t179.5 264t100 393.5q26 167 18 306t-44.5 238.5t-112 155t-184.5 55.5q-142 0 -253.5 -97t-181 -264.5t-101.5 -393.5q-26 -167 -17 -306t46 -238.5t112.5 -155t182.5 -55.5z" />
    <glyph glyph-name="one" unicode="1" horiz-adv-x="1913" 
d="M1632 2440q28 0 45.5 -20.5t13.5 -48.5l-324 -2302q-4 -28 -27 -48.5t-51 -20.5h-489q-28 0 -45.5 20.5t-13.5 48.5l254 1798l-401 -179q-28 -13 -54.5 -3.5t-34.5 37.5l-103 318q-9 27 4.5 54t42.5 39l648 287q46 20 95 20h440z" />
    <glyph glyph-name="two" unicode="2" horiz-adv-x="2224" 
d="M2146 1738q-47 -330 -301.5 -626t-768.5 -642h880q28 0 45.5 -20t13.5 -48l-47 -333q-4 -28 -27 -48.5t-51 -20.5h-1792q-36 0 -53.5 20.5t-12.5 56.5l16 118q9 70 46 94q330 224 575 411t398.5 326.5t250.5 260.5t138.5 209t53.5 176q23 161 -54 243t-251 82
q-88 0 -172.5 -21t-164.5 -62.5t-142 -82.5t-142 -102q-19 -14 -35 -17.5t-29.5 4.5t-22 17t-21.5 26l-162 228q-12 17 -14.5 32t6 29.5t19 25.5t28.5 26q465 389 1030 389q214 0 373 -56t250.5 -157t127 -237t12.5 -301z" />
    <glyph glyph-name="three" unicode="3" horiz-adv-x="2299" 
d="M1742 1260q400 -154 400 -520q0 -236 -141.5 -416t-393.5 -276.5t-577 -96.5q-142 0 -266 20t-219.5 54t-181 85t-149.5 106t-126 124q-20 22 -27.5 36t-4.5 34t25 43l234 239q24 25 40 36t36 11.5t40 -17.5q48 -43 68.5 -61.5t66.5 -55.5t76 -54t79 -42t93.5 -36.5
t103 -20.5t122.5 -9q205 0 338 79.5t133 220.5q0 56 -30.5 107t-93.5 94.5t-173 71t-255 32.5q-31 1 -48 20.5t-12 48.5l32 231q4 29 26.5 48.5t53.5 21.5q161 6 280 39t184.5 84t95.5 108.5t30 122.5q0 107 -85 166t-244 59q-91 0 -174.5 -17.5t-165.5 -55.5t-138.5 -70.5
t-142.5 -87.5q-26 -16 -45.5 -16t-32 10.5t-29.5 35.5l-152 220q-12 17 -14 32.5t7 30t19 25t28 25.5q213 171 474.5 265.5t549.5 94.5q193 0 343.5 -44.5t244 -123t142 -182t48.5 -226.5q0 -212 -126 -379t-366 -274z" />
    <glyph glyph-name="four" unicode="4" horiz-adv-x="2405" 
d="M2244 938q36 0 54 -20.5t13 -56.5l-40 -281q-5 -36 -28.5 -56.5t-59.5 -20.5h-289l-61 -434q-4 -28 -27.5 -48.5t-51.5 -20.5h-445q-28 0 -45.5 20.5t-13.5 48.5l61 434h-1218q-37 0 -54.5 20.5t-12.5 56.5l30 218q3 18 18 35l1474 1561q43 46 99 46h450q28 0 45.5 -20.5
t13.5 -48.5l-202 -1433h290zM724 938h648l113 802z" />
    <glyph glyph-name="five" unicode="5" horiz-adv-x="2335" 
d="M2085 1957h-1017l-123 -480q169 68 428 68q175 -3 319 -46t252.5 -124.5t168.5 -210.5t60 -295q0 -269 -141.5 -478t-396.5 -324.5t-582 -115.5q-172 0 -315.5 25.5t-258 75.5t-203.5 113.5t-171 149.5q-20 21 -28 35.5t-5 35t25 42.5l235 240q25 25 40 35.5t35 11
t41 -16.5q74 -64 127.5 -102.5t128 -77.5t160.5 -57t190 -18q135 0 244 45t173.5 133t64.5 203q0 128 -96 212t-287 84q-257 0 -464 -96q-25 -10 -48 1l-274 165q-36 20 -25 62l281 1111q16 77 89 77h1441q28 0 45.5 -20t13.5 -49l-49 -346q-4 -28 -27 -48t-51 -20z" />
    <glyph glyph-name="six" unicode="6" horiz-adv-x="2297" 
d="M1462 1563q143 0 262.5 -41t202 -114t136 -170t71 -211t0.5 -235q-25 -181 -121 -338t-240.5 -267t-333.5 -173t-395 -63q-220 0 -399 71.5t-299.5 202.5t-172 328.5t-17.5 438.5q37 261 133.5 486.5t257 410.5t374.5 316.5t497 205t614 77.5q32 1 49.5 -19t13.5 -51
l-47 -329q-4 -30 -26 -49.5t-52 -20.5q-440 -11 -718 -179.5t-423 -528.5q249 252 633 252zM1104 404q174 0 289 109.5t137 260.5q10 73 -5 139t-53.5 118t-107 83t-157.5 31q-177 0 -293 -109t-138 -262q-10 -72 5.5 -137.5t54.5 -118t108.5 -83.5t159.5 -31z" />
    <glyph glyph-name="seven" unicode="7" horiz-adv-x="2288" 
d="M406 0q-50 0 -68 37.5t10 83.5l1118 1805h-1168q-28 0 -45.5 20.5t-13.5 48.5l53 376q3 28 26 48.5t52 20.5h1898q36 0 54 -20.5t13 -56.5l-16 -118q-7 -41 -44 -94l-1295 -2116q-22 -35 -60 -35h-514z" />
    <glyph glyph-name="eight" unicode="8" horiz-adv-x="2364" 
d="M1810 1296q174 -71 276 -216t102 -334q0 -130 -47.5 -248.5t-143 -218.5t-230 -173t-320 -114t-401.5 -41q-185 0 -339 32.5t-264 90.5t-186.5 138.5t-113 177t-36.5 205.5q0 239 153 425t400 276q-139 62 -224.5 185.5t-85.5 289.5q0 147 71 277t202.5 228.5t333 155.5
t446.5 57q211 0 379 -45.5t274.5 -125t162 -185t55.5 -229.5q0 -109 -37 -207t-102 -173.5t-147 -132.5t-178 -95zM1344 2067q-167 0 -280 -89t-113 -223q0 -111 86.5 -181t227.5 -70q167 0 280 89t113 224q0 110 -86.5 180t-227.5 70zM1112 417q203 0 326 104.5t123 262.5
q0 128 -94 208t-263 80q-203 0 -326 -104.5t-123 -262.5q0 -128 94 -208t263 -80z" />
    <glyph glyph-name="nine" unicode="9" horiz-adv-x="2297" 
d="M1339 2488q220 0 399 -71.5t299.5 -202.5t172 -328.5t17.5 -437.5q-37 -261 -133 -482.5t-255.5 -400.5t-373.5 -304.5t-495 -193t-612 -67.5q-32 0 -49.5 19.5t-13.5 50.5l46 330q5 29 27 48.5t53 20.5q220 5 392.5 43t314.5 115.5t246.5 201t177.5 297.5
q-249 -249 -631 -249q-178 0 -318 63.5t-223 170.5t-118 246t-14 291q34 241 187.5 433.5t390.5 299.5t513 107zM1175 1295q90 0 168 31t131.5 83t88 117.5t44.5 138.5q14 97 -16.5 179.5t-111 136.5t-199.5 54q-175 0 -290 -109.5t-137 -260.5q-10 -73 5 -138.5
t53.5 -117.5t106.5 -83t157 -31z" />
    <glyph glyph-name="colon" unicode=":" horiz-adv-x="1015" 
d="M553 1216q-123 0 -203.5 83.5t-80.5 205.5q0 147 113.5 256t261.5 109q123 0 204 -83.5t81 -206.5q0 -147 -114 -255.5t-262 -108.5zM371 -40q-123 0 -203.5 83.5t-80.5 205.5q0 147 113.5 256t261.5 109q123 0 204 -83.5t81 -206.5q0 -147 -114 -255.5t-262 -108.5z" />
    <glyph glyph-name="semicolon" unicode=";" horiz-adv-x="979" 
d="M513 1216q-123 0 -203.5 83.5t-80.5 205.5q0 147 113.5 256t261.5 109q123 0 204 -83.5t81 -206.5q0 -147 -114 -255.5t-262 -108.5zM431 614q52 0 100 -17t90 -51t67 -94t25 -137q0 -146 -90 -320.5t-233.5 -322t-299.5 -228.5q-24 -12 -46 -7t-33 22l-32 44
q-14 20 -9 46.5t29 47.5q42 37 59.5 52.5t52.5 52.5t51 63.5t30 65t14 76.5q0 42 -17.5 71.5t-53.5 65.5q-81 80 -81 199q0 152 113.5 261.5t263.5 109.5z" />
    <glyph glyph-name="less" unicode="&#x3c;" horiz-adv-x="2146" 
d="M2062 1615q-3 -23 -17 -38t-27.5 -21.5t-44.5 -17.5l-1241 -486l1105 -486q21 -9 29.5 -13t20.5 -13.5t15.5 -21.5t0.5 -29l-46 -328q-5 -38 -30.5 -59t-55.5 -7l-1528 700q-73 31 -64 91l46 332q5 34 28.5 55t62.5 36l1724 700q34 14 53.5 -7t14.5 -59z" />
    <glyph glyph-name="equal" unicode="=" horiz-adv-x="2310" 
d="M370 1290q-36 0 -54 20.5t-13 56.5l38 267q4 36 28 56.5t60 20.5h1625q36 0 54 -20.5t13 -56.5l-38 -267q-5 -36 -28.5 -56.5t-59.5 -20.5h-1625zM256 481q-36 0 -54 20.5t-13 56.5l38 267q4 36 28 56.5t60 20.5h1625q37 0 54.5 -20.5t12.5 -56.5l-37 -267
q-5 -36 -28.5 -56.5t-59.5 -20.5h-1626z" />
    <glyph glyph-name="greater" unicode="&#x3e;" horiz-adv-x="2146" 
d="M281 1615l46 328q5 38 30.5 59t56.5 7l1527 -700q74 -32 65 -91l-47 -332q-9 -60 -90 -91l-1724 -700q-34 -14 -53.5 7t-14.5 59l46 328q3 23 17 38.5t27 21.5t44 17l1242 486l-1105 486q-21 9 -30 13t-21 13t-15.5 21.5t-0.5 29.5z" />
    <glyph glyph-name="question" unicode="?" horiz-adv-x="1891" 
d="M1369 1790q0 220 -289 220q-80 0 -153 -16.5t-138.5 -49t-109.5 -61t-103 -72.5q-39 -25 -59.5 -18t-48.5 48l-150 218q-8 12 -8.5 24.5t2 20.5t14.5 21t18 18t24 19q410 327 894 327q336 0 538.5 -151t202.5 -419q0 -99 -23.5 -183.5t-64 -147.5t-93 -117.5t-112.5 -100
t-121 -88.5t-119.5 -88.5t-107 -94.5t-85 -113t-51.5 -137q-14 -62 -71 -62l-322 1q-49 0 -49 68q0 86 32.5 165.5t84 143.5t113.5 124.5t124.5 119t114 116t84 126t32.5 139.5zM899 -40q-120 0 -199 81.5t-79 201.5q0 144 111 250.5t256 106.5q121 0 200.5 -82t79.5 -202
q0 -144 -111.5 -250t-257.5 -106z" />
    <glyph glyph-name="at" unicode="@" horiz-adv-x="3293" 
d="M2194 -475q-1 -22 -15.5 -37.5t-36.5 -20.5q-297 -55 -585 -55q-285 0 -522 67.5t-405 187.5t-284.5 286.5t-172 364.5t-55.5 421q0 241 65 461.5t181.5 399.5t281 325.5t360.5 245.5t422.5 153t465.5 54q392 0 683.5 -141t452 -412.5t160.5 -643.5q0 -166 -35 -325.5
t-103.5 -296.5t-162.5 -241t-220.5 -163.5t-268.5 -59.5q-187 0 -305 68t-152 203q-96 -135 -225 -203t-271 -68q-111 0 -210 38.5t-178.5 114t-126 200.5t-46.5 285q0 283 120 510t337.5 356t492.5 129q241 0 509 -75q24 -7 37 -26t11 -43l-87 -984q-9 -103 32 -152
t113 -49q71 0 129.5 49t97 127.5t65 180.5t38 204.5t11.5 202.5q0 885 -925 885q-234 0 -443 -59.5t-374 -173t-285 -270.5t-184 -358.5t-64 -429.5q0 -172 34 -319.5t114.5 -279t202.5 -223.5t308.5 -146t422.5 -54q250 0 516 52q42 8 70 -16.5t24 -66.5zM1539 387
q154 0 275 140t144 404l40 471q-108 37 -219 37q-96 0 -177.5 -38.5t-139 -104.5t-98 -153.5t-59.5 -185.5t-19 -201q0 -186 71.5 -277.5t181.5 -91.5z" />
    <glyph glyph-name="A" unicode="A" horiz-adv-x="2696" 
d="M2549 91q12 -42 -8 -66.5t-63 -24.5h-530q-66 0 -79 60l-110 416h-965l-228 -416q-32 -60 -97 -60h-506q-43 0 -56.5 24.5t9.5 66.5l1353 2314q34 58 96 58h418q64 0 82 -58zM1026 900h621l-202 766z" />
    <glyph glyph-name="B" unicode="B" horiz-adv-x="2545" 
d="M1908 1240q99 -14 184.5 -53t152 -101t105 -153t38.5 -200q0 -153 -70 -286.5t-199 -233t-325.5 -156.5t-436.5 -57h-827h-413q-28 0 -45.5 20.5t-13.5 48.5l324 2302q3 28 26.5 48.5t51.5 20.5h488h666q203 0 362 -43t259.5 -120.5t152 -180.5t51.5 -226
q0 -128 -42 -236.5t-116 -185t-168 -129t-205 -79.5zM1325 1443q108 0 191.5 18.5t133.5 47.5t82 70.5t43.5 82t11.5 87.5q0 33 -8 62.5t-32 61t-62 54t-102.5 37t-148.5 14.5h-482l-76 -535h449zM1307 462q105 0 185.5 19.5t128 50t77.5 73t40.5 82t10.5 83.5
q0 109 -91.5 173.5t-296.5 64.5h-546l-77 -546h569z" />
    <glyph glyph-name="C" unicode="C" horiz-adv-x="2694" 
d="M2488 679q31 -15 37 -42.5t-17 -63.5q-105 -161 -240 -282.5t-285.5 -194.5t-309.5 -109t-327 -36q-194 0 -370 48.5t-320.5 144t-251 227.5t-165 308.5t-58.5 378.5q0 215 59 411t163 351.5t248 282.5t312.5 211t357 129.5t381.5 45.5q168 0 317 -36t279.5 -109
t231.5 -194.5t161 -282.5q13 -35 -1 -62.5t-49 -43.5l-394 -176q-70 -30 -101 38q-70 175 -204 263.5t-312 88.5q-223 0 -404 -112.5t-284 -312t-103 -446.5q0 -287 156 -463t423 -176q178 0 336 88.5t279 263.5q50 69 112 38z" />
    <glyph glyph-name="D" unicode="D" horiz-adv-x="2747" 
d="M1490 2440q248 0 460 -71.5t368.5 -204t245.5 -334t89 -448.5q0 -214 -56.5 -405.5t-158 -342t-241.5 -271t-307.5 -200t-356 -121.5t-386.5 -42h-780h-250q-28 0 -45.5 20.5t-13.5 48.5l324 2302q3 28 26.5 48.5t51.5 20.5h488h542zM1176 496q177 0 328.5 60.5
t259.5 168.5t169 264.5t61 341.5q0 283 -164.5 448t-450.5 165h-432l-204 -1448h433z" />
    <glyph glyph-name="E" unicode="E" horiz-adv-x="2322" 
d="M2292 2440q32 0 47.5 -18.5t11.5 -50.5l-50 -359q-5 -32 -26 -50t-53 -18h-1275l-67 -472h1115q32 0 48 -18.5t11 -50.5l-45 -324q-5 -32 -26 -50t-53 -18h-1114l-73 -515h1315q32 0 47.5 -18t11.5 -50l-50 -359q-5 -33 -25.5 -51t-52.5 -18h-1558h-314q-28 0 -45.5 20.5
t-13.5 48.5l324 2302q3 28 26.5 48.5t51.5 20.5h488h1344z" />
    <glyph glyph-name="F" unicode="F" horiz-adv-x="2223" 
d="M2252 2440q32 0 47.5 -18.5t11.5 -50.5l-50 -359q-5 -32 -26 -50t-53 -18h-1235l-83 -592h1154q32 0 48 -18.5t11 -50.5l-47 -341q-5 -32 -26 -50.5t-52 -18.5h-1156l-113 -804q-4 -29 -27 -49t-51 -20h-488q-28 0 -45.5 20.5t-13.5 48.5l324 2302q3 28 26.5 48.5
t51.5 20.5h488h1304z" />
    <glyph glyph-name="G" unicode="G" horiz-adv-x="2760" 
d="M2527 1106q39 0 57.5 -20.5t13.5 -56.5l-104 -746q-229 -149 -522 -240.5t-626 -91.5q-194 0 -370 48.5t-320.5 144t-251 227.5t-165 308.5t-58.5 378.5q0 215 59 411t163 351.5t248 282.5t312.5 211t357 129.5t381.5 45.5q167 0 312.5 -31.5t274.5 -97.5t232 -177
t171 -262q14 -36 0 -63t-49 -43l-394 -176q-69 -30 -102 38q-83 157 -212 227.5t-305 70.5q-223 0 -404 -112.5t-284 -312t-103 -446.5q0 -287 156 -463t423 -176q298 0 548 106l64 458q5 36 28.5 56.5t59.5 20.5h409z" />
    <glyph glyph-name="H" unicode="H" horiz-adv-x="2767" 
d="M2736 2440q28 0 45.5 -20t13.5 -49l-324 -2302q-4 -29 -27 -49t-51 -20h-488q-28 0 -45.5 20.5t-13.5 48.5l130 924h-1163l-130 -924q-4 -29 -27 -49t-51 -20h-488q-28 0 -45.5 20.5t-13.5 48.5l324 2302q3 28 26.5 48.5t51.5 20.5h488q28 0 45.5 -20t13.5 -49l-124 -882
h1162l124 882q4 28 27.5 48.5t51.5 20.5h488z" />
    <glyph glyph-name="I" unicode="I" horiz-adv-x="979" 
d="M382 2371q4 28 27 48.5t51 20.5h488q29 0 46 -20.5t13 -48.5l-324 -2302q-4 -29 -27 -49t-51 -20h-488q-28 0 -45.5 20.5t-13.5 48.5z" />
    <glyph glyph-name="J" unicode="J" horiz-adv-x="2047" 
d="M2008 2440q36 0 53.5 -20.5t12.5 -56.5l-217 -1546q-29 -202 -126 -367t-240.5 -273t-325 -167t-381.5 -59q-131 0 -247.5 27t-202.5 71.5t-155 103t-111.5 118.5t-65.5 122q-27 71 50 104l376 165q37 16 58.5 7.5t40.5 -42.5q21 -40 42.5 -68.5t57 -58.5t87.5 -45.5
t119 -15.5q172 0 277 99.5t133 301.5l214 1523q5 36 28.5 56.5t59.5 20.5h463z" />
    <glyph glyph-name="K" unicode="K" horiz-adv-x="2671" 
d="M948 2440q29 0 46 -20.5t13 -48.5l-324 -2302q-3 -28 -26 -48.5t-52 -20.5h-488q-28 0 -45.5 20.5t-13.5 48.5l324 2302q4 28 27 48.5t51 20.5h488zM2481 93q23 -38 4.5 -65.5t-66.5 -27.5h-556q-58 0 -87 46l-765 1194l1094 1154q40 46 100 46h517q49 0 60 -27t-25 -66
l-1034 -1078z" />
    <glyph glyph-name="L" unicode="L" horiz-adv-x="2123" 
d="M1936 514q32 0 48 -18.5t11 -50.5l-53 -376q-5 -32 -25.5 -50.5t-52.5 -18.5h-1747q-28 0 -45.5 20.5t-13.5 48.5l324 2302q4 28 27 48.5t51 20.5h488q29 0 46.5 -20.5t13.5 -48.5l-262 -1857h1190z" />
    <glyph glyph-name="M" unicode="M" horiz-adv-x="3150" 
d="M2770 2417q43 46 103 46h240q36 0 54 -21t13 -57l-325 -2308q-4 -36 -28 -56.5t-60 -20.5h-471q-36 0 -53.5 20.5t-12.5 56.5l166 1186l-849 -932q-28 -30 -58.5 -29.5t-50.5 29.5l-587 932l-166 -1186q-5 -36 -28.5 -56.5t-59.5 -20.5h-471q-36 0 -54 20.5t-13 56.5
l325 2308q5 36 28 57t60 21h204q56 0 89 -46l842 -1283z" />
    <glyph glyph-name="N" unicode="N" horiz-adv-x="2789" 
d="M2750 2440q36 0 53.5 -20.5t12.5 -56.5l-324 -2308q-5 -36 -28.5 -57t-59.5 -21h-127q-58 0 -93 34l-1318 1354l-181 -1288q-5 -36 -28.5 -56.5t-59.5 -20.5h-471q-36 0 -54 20.5t-13 56.5l325 2308q5 36 28 57t60 21h127q58 0 92 -34l1318 -1357l182 1291
q5 36 28.5 56.5t59.5 20.5h471z" />
    <glyph glyph-name="O" unicode="O" horiz-adv-x="2962" 
d="M1702 2489q194 0 370 -48.5t321 -144t251.5 -227.5t165 -308.5t58.5 -378.5q0 -215 -59 -411t-163.5 -351.5t-248 -282.5t-312.5 -211t-357.5 -129.5t-381.5 -45.5q-194 0 -370 48.5t-320.5 144t-251 227.5t-165 308.5t-58.5 378.5q0 215 59 411t163 351.5t248 282.5
t312.5 211t357 129.5t381.5 45.5zM1418 465q167 0 314 66t251.5 181t165 277t60.5 347q0 287 -156 463t-423 176q-223 0 -404 -112.5t-284 -312t-103 -446.5q0 -287 156 -463t423 -176z" />
    <glyph glyph-name="P" unicode="P" horiz-adv-x="2394" 
d="M1536 2440q215 0 385.5 -56.5t278.5 -156t164.5 -232t56.5 -288.5q0 -153 -47.5 -292.5t-142.5 -257t-227.5 -203.5t-313 -134.5t-389.5 -48.5h-519l-99 -702q-4 -29 -27 -49t-51 -20h-488q-28 0 -45.5 20.5t-13.5 48.5l324 2302q3 28 26.5 48.5t51.5 20.5h488h588z
M1253 1249q141 0 244.5 33.5t161.5 92t85 128t27 151.5q0 137 -99.5 222t-318.5 85h-404l-100 -712h404z" />
    <glyph glyph-name="Q" unicode="Q" horiz-adv-x="2962" 
d="M2868 1382q0 -227 -65 -432t-181.5 -366.5t-272 -286.5t-341.5 -207q102 -227 375 -232q65 -2 56 -67l-51 -359q-5 -37 -25 -52.5t-60 -15.5q-279 0 -475.5 159.5t-245.5 444.5q-121 -17 -236 -17q-194 0 -370 48.5t-320.5 144t-251 227.5t-165 308.5t-58.5 378.5
q0 215 59 411t163 351.5t248 282.5t312.5 211t357 129.5t381.5 45.5q194 0 370 -48.5t321 -144t251.5 -227.5t165 -308.5t58.5 -378.5zM1418 465q167 0 314 66t251.5 181t165 277t60.5 347q0 287 -156 463t-423 176q-223 0 -404 -112.5t-284 -312t-103 -446.5
q0 -287 156 -463t423 -176z" />
    <glyph glyph-name="R" unicode="R" horiz-adv-x="2498" 
d="M1826 904l356 -758q24 -55 -9 -100.5t-95 -45.5h-477q-18 0 -33 10t-22 26l-340 768h-420l-103 -735q-4 -29 -27 -49t-51 -20h-488q-28 0 -45.5 20.5t-13.5 48.5l324 2302q3 28 26.5 48.5t51.5 20.5h488h556q217 0 387.5 -54t279.5 -150.5t165.5 -226.5t56.5 -286
q0 -273 -147.5 -489.5t-419.5 -329.5zM949 1961l-95 -679h364q525 0 525 390q0 289 -430 289h-364z" />
    <glyph glyph-name="S" unicode="S" horiz-adv-x="2303" 
d="M962 1773q0 -48 29.5 -86t93.5 -69t123.5 -52t160.5 -52q98 -30 151 -47.5t147 -55t148 -71t123 -89.5t106 -116t64 -144.5t27 -182.5q0 -169 -65.5 -310.5t-177.5 -239.5t-263.5 -166t-322.5 -100t-356 -32q-476 0 -863 235q-58 39 -19 104l185 311q41 69 104 37
q177 -95 254 -126q184 -73 404 -73q209 0 325 61.5t116 178.5q0 48 -24.5 88.5t-59.5 69t-98.5 57.5t-115 47.5t-136.5 46.5q-92 30 -141 47.5t-136 54t-135.5 68t-111.5 84t-96 108.5t-57 133.5t-24 167.5q0 179 76.5 331.5t217 262.5t350 172.5t464.5 62.5q456 0 807 -210
q61 -36 20 -102l-178 -296q-42 -72 -115 -30q-62 37 -103.5 58t-119.5 53.5t-166 49t-185 16.5q-215 0 -321 -73t-106 -182z" />
    <glyph glyph-name="T" unicode="T" horiz-adv-x="2497" 
d="M2526 2440q29 0 46.5 -20.5t13.5 -48.5l-53 -376q-5 -28 -27.5 -48.5t-50.5 -20.5h-751l-261 -1857q-5 -29 -27.5 -49t-50.5 -20h-489q-28 0 -45.5 20.5t-13.5 48.5l261 1857h-750q-28 0 -45.5 20.5t-13.5 48.5l53 376q3 28 26 48.5t52 20.5h1307h819z" />
    <glyph glyph-name="U" unicode="U" horiz-adv-x="2727" 
d="M2696 2440q28 0 45.5 -20t13.5 -49l-187 -1331q-31 -217 -115 -395.5t-207.5 -304.5t-284.5 -212.5t-344.5 -127t-387.5 -40.5t-376 40.5t-308.5 127t-225 212.5t-122.5 304.5t-3 395.5l188 1331q3 28 26.5 48.5t51.5 20.5h488q28 0 45.5 -20t13.5 -49l-169 -1199
q-47 -334 64.5 -516t398.5 -182q146 0 261 48t195 140t130.5 219t73.5 291l168 1199q4 28 27.5 48.5t51.5 20.5h488z" />
    <glyph glyph-name="V" unicode="V" horiz-adv-x="2643" 
d="M2766 2440q43 0 57 -24.5t-10 -66.5l-1333 -2314q-35 -58 -98 -58h-331q-61 0 -81 58l-736 2314q-13 41 7 66t63 25h534q64 0 80 -60l424 -1532l819 1532q31 60 97 60h508z" />
    <glyph glyph-name="W" unicode="W" horiz-adv-x="3609" 
d="M3735 2440q42 0 54 -24t-9 -67l-1125 -2314q-27 -58 -97 -58h-287q-67 0 -81 58l-316 1380l-698 -1380q-27 -58 -97 -58h-293q-68 0 -80 58l-475 2314q-8 43 10.5 67t60.5 24h512q69 0 79 -60l240 -1406l631 1246q28 60 97 60h275q68 0 80 -60l287 -1246l644 1406
q28 60 95 60h493z" />
    <glyph glyph-name="X" unicode="X" horiz-adv-x="2992" 
d="M2852 2440q48 0 57.5 -28t-24.5 -67l-1013 -1111l713 -1141q24 -39 6.5 -66t-65.5 -27h-567q-56 0 -87 46l-467 748l-629 -748q-38 -46 -100 -46h-521q-48 0 -58.5 27.5t23.5 67.5l1008 1143l-694 1110q-24 38 -6.5 65t65.5 27h567q57 0 86 -46l452 -723l634 723
q41 46 99 46h521z" />
    <glyph glyph-name="Y" unicode="Y" horiz-adv-x="2568" 
d="M2688 2440q43 0 58.5 -27t-10.5 -65l-1149 -1537l-104 -742q-4 -28 -27.5 -48.5t-51.5 -20.5h-488q-28 0 -45.5 20.5t-13.5 48.5l103 735l-724 1545q-18 37 5 64t66 27h532q30 0 48 -15t31 -45l446 -1041l729 1041q39 60 98 60h497z" />
    <glyph glyph-name="Z" unicode="Z" horiz-adv-x="2601" 
d="M85 0q-36 0 -53.5 20.5t-12.5 56.5l16 118q9 56 47 94l1534 1637h-1168q-28 0 -46 20.5t-14 48.5l54 376q3 28 26 48.5t52 20.5h2050q36 0 53.5 -20.5t12.5 -56.5l-16 -118q-8 -55 -45 -94l-1528 -1637h1303q28 0 46 -20.5t14 -48.5l-53 -376q-4 -28 -27.5 -48.5
t-51.5 -20.5h-2193z" />
    <glyph glyph-name="bracketleft" unicode="[" horiz-adv-x="1194" 
d="M1175 2300h-452l-381 -2714h451q37 0 54.5 -20.5t12.5 -56.5l-21 -149q-5 -36 -28.5 -56.5t-59.5 -20.5h-735q-28 0 -45.5 20t-13.5 48l448 3184q3 28 26 48t52 20h735q36 0 53.5 -20.5t12.5 -56.5l-21 -149q-5 -36 -28.5 -56.5t-59.5 -20.5z" />
    <glyph glyph-name="backslash" unicode="\" horiz-adv-x="2322" 
d="M561 2660l1596 -2631q16 -26 10 -52.5t-30 -39.5l-182 -90q-22 -12 -51 -2t-45 35l-1596 2631q-15 25 -9 52t30 40l180 90q25 13 53.5 3t43.5 -36z" />
    <glyph glyph-name="bracketright" unicode="]" horiz-adv-x="1195" 
d="M1187 2603q28 0 45.5 -20t13.5 -48l-447 -3184q-5 -28 -27.5 -48t-50.5 -20h-735q-37 0 -54.5 20.5t-12.5 56.5l21 149q4 36 28 56.5t60 20.5h451l382 2714h-452q-36 0 -53.5 20.5t-12.5 56.5l21 149q4 36 28 56.5t60 20.5h735z" />
    <glyph glyph-name="asciicircum" unicode="^" horiz-adv-x="1786" 
d="M1880 1878q27 -49 -3.5 -95t-89.5 -46h-257q-33 0 -47 28l-371 711l-570 -711q-22 -28 -55 -28h-257q-59 0 -76 46t23 95l758 896q21 26 52 26h342q31 0 45 -26z" />
    <glyph glyph-name="underscore" unicode="_" horiz-adv-x="1674" 
d="M73 -422q-36 0 -53.5 21t-12.5 57l37 267q5 36 28.5 56.5t59.5 20.5h1469q36 0 53.5 -20.5t12.5 -56.5l-37 -267q-4 -36 -28 -57t-60 -21h-1469z" />
    <glyph glyph-name="grave" unicode="`" horiz-adv-x="1007" 
d="M798 2024l-734 349q-29 13 -34 44t14 61l170 256q18 28 50 38t60 -6l665 -445q25 -17 31.5 -49t-10.5 -59l-101 -155q-18 -28 -50 -38t-61 4z" />
    <glyph glyph-name="a" unicode="a" horiz-adv-x="2291" 
d="M2232 1761l-159 -1135q-15 -108 -15.5 -195.5t7.5 -140.5t27 -147q15 -80 -63 -103l-346 -93q-53 -16 -84 18q-45 48 -83.5 130.5t-52.5 171.5q-230 -316 -605 -316q-225 0 -398 103t-267.5 289t-94.5 426q0 158 36.5 304.5t103 268t161 222t208 169.5t247 107t275.5 38
q340 0 486 -257l20 140q4 32 25 50t53 18h460q32 0 47.5 -18t11.5 -50zM1071 439q98 0 186 39.5t154 110.5t105 176t39 229q0 182 -96.5 289.5t-253.5 107.5q-94 0 -181 -38t-154.5 -107t-108 -176t-40.5 -235q0 -185 98.5 -290.5t251.5 -105.5z" />
    <glyph glyph-name="b" unicode="b" horiz-adv-x="2310" 
d="M1432 1878q225 0 398 -102.5t267.5 -288.5t94.5 -427q0 -188 -52 -360t-146.5 -307t-221.5 -235t-284 -153.5t-327 -53.5q-339 0 -487 258l-19 -140q-5 -32 -25.5 -50.5t-52.5 -18.5h-460q-32 0 -48 18.5t-11 50.5l341 2422q4 32 25 50.5t53 18.5h459q32 0 48 -18.5
t12 -50.5l-123 -870q220 257 559 257zM1085 439q94 0 181 38t154.5 107t108 175.5t40.5 234.5q0 185 -98.5 291t-251.5 106q-98 0 -186 -39.5t-154 -110.5t-105 -176t-39 -229q0 -183 96.5 -290t253.5 -107z" />
    <glyph glyph-name="c" unicode="c" horiz-adv-x="2104" 
d="M1882 497q36 -19 39.5 -45.5t-18.5 -58.5q-38 -59 -93 -117t-138.5 -118t-180 -105t-223.5 -73.5t-263 -28.5q-186 0 -347.5 57.5t-281 162.5t-188.5 264.5t-69 352.5q0 199 63 374.5t173 304.5t256 223t316 141t348 47q136 0 255 -28.5t202.5 -73t150 -104.5t105.5 -118
t61 -117q14 -33 3.5 -59t-52.5 -45l-364 -166q-27 -15 -47 -10.5t-30 14.5t-22 31q-21 40 -44 70t-58.5 59t-86 44.5t-113.5 15.5q-224 0 -359.5 -150.5t-135.5 -412.5q0 -185 97.5 -287t269.5 -102q63 0 117 15.5t96.5 44.5t73 58.5t62.5 69.5q13 16 23.5 25.5t23.5 16
t28.5 4.5t33.5 -11z" />
    <glyph glyph-name="d" unicode="d" horiz-adv-x="2309" 
d="M2295 2560q32 0 48 -18.5t12 -50.5l-341 -2422q-5 -32 -25.5 -50.5t-52.5 -18.5h-460q-32 0 -48 18.5t-11 50.5l20 139q-221 -257 -559 -257q-225 0 -398 103t-267.5 289t-94.5 426q0 158 36.5 304.5t103 268t161 222t208 169.5t247 107t275.5 38q339 0 487 -257l122 870
q5 32 25.5 50.5t52.5 18.5h459zM1091 439q98 0 186 39.5t154 110.5t105 176t39 229q0 182 -96.5 289.5t-253.5 107.5q-94 0 -181 -38t-154.5 -107t-108 -176t-40.5 -235q0 -185 98.5 -290.5t251.5 -105.5z" />
    <glyph glyph-name="e" unicode="e" horiz-adv-x="2212" 
d="M1270 1878q131 0 245.5 -25.5t215 -79t174 -136.5t123 -198.5t60.5 -265.5t-12 -336h-1378q1 -105 32.5 -188t85 -133.5t120 -76.5t142.5 -26q253 0 388 181q28 35 51 43t58 -8l300 -156q65 -34 20 -104q-121 -188 -367 -303t-535 -115q-189 0 -349.5 57t-277 162
t-182 262.5t-65.5 349.5q0 201 61 376.5t168.5 306t252 224.5t315.5 141.5t354 47.5zM1204 1463q-140 0 -259.5 -82t-185.5 -229h756q-6 86 -33.5 148t-72 96.5t-95 50.5t-110.5 16z" />
    <glyph glyph-name="f" unicode="f" horiz-adv-x="1550" 
d="M1814 2526q19 -15 26.5 -28t5 -32.5t-18.5 -46.5l-138 -217q-42 -68 -111 -33q-56 31 -104 47.5t-108 16.5q-248 0 -296 -339l-9 -65h504q36 0 54 -20.5t13 -56.5l-46 -324q-5 -36 -28.5 -56.5t-59.5 -20.5h-505l-179 -1274q-4 -36 -27.5 -56.5t-59.5 -20.5h-443
q-36 0 -54 20.5t-13 56.5l180 1274h-180q-36 0 -54 20.5t-13 56.5l46 324q5 36 28.5 56.5t59.5 20.5h180l20 140q19 134 71 248.5t129 199.5t174.5 145t209.5 90.5t233 30.5q160 0 298 -47t215 -110z" />
    <glyph glyph-name="g" unicode="g" horiz-adv-x="2212" 
d="M2231 1970q30 0 42 -12t8 -40l-51 -361q-6 -51 -57 -51q-125 0 -212 -81q7 -38 7 -96q0 -139 -69 -262.5t-189.5 -213t-293.5 -142t-372 -52.5h-273q-95 0 -141.5 -34.5t-46.5 -93.5q0 -46 39 -73t116 -27h426q385 0 589 -138t204 -380q0 -110 -35 -207.5t-114.5 -185
t-197.5 -150t-295 -99.5t-396 -37q-437 0 -660.5 131.5t-223.5 348.5q0 242 253 398q-99 43 -152.5 124.5t-53.5 186.5q0 146 91 257.5t265 175.5q-71 67 -109.5 159t-38.5 193q0 139 69 262.5t189.5 213t294 142t372.5 52.5q329 0 532 -147q98 117 223.5 178t260.5 61z
M1097 1035q135 0 232 71.5t97 187.5q0 95 -75 151.5t-189 56.5q-135 0 -232 -71.5t-97 -187.5q0 -95 75 -151.5t189 -56.5zM1412 -172q0 87 -97 139.5t-291 52.5q-220 0 -333.5 -64.5t-113.5 -167.5q0 -91 96.5 -141.5t291.5 -50.5q225 0 336 62t111 170z" />
    <glyph glyph-name="h" unicode="h" 
d="M1555 1869q167 0 285 -48t181 -137t85 -215.5t-3 -283.5l-157 -1116q-5 -32 -25.5 -50.5t-52.5 -18.5h-460q-32 0 -48 18.5t-11 50.5l128 908q30 211 -32 303.5t-213 92.5q-175 0 -301.5 -121.5t-156.5 -336.5l-119 -846q-5 -32 -25.5 -50.5t-52.5 -18.5h-460
q-32 0 -48 18.5t-11 50.5l341 2422q4 32 25 50.5t53 18.5h459q32 0 48 -18.5t12 -50.5l-133 -942q121 150 297 235t395 85z" />
    <glyph glyph-name="i" unicode="i" horiz-adv-x="1009" 
d="M661 2025q-123 0 -203.5 83.5t-80.5 206.5q0 147 113.5 255.5t262.5 108.5q122 0 202.5 -83.5t80.5 -205.5q0 -147 -113.5 -256t-261.5 -109zM324 1761q4 32 25 50t53 18h460q32 0 47.5 -18t11.5 -50l-238 -1692q-5 -32 -25.5 -50.5t-52.5 -18.5h-460q-32 0 -48 18.5
t-11 50.5z" />
    <glyph glyph-name="j" unicode="j" horiz-adv-x="982" 
d="M633 2025q-123 0 -204 83.5t-81 206.5q0 147 114 255.5t262 108.5q123 0 203.5 -83.5t80.5 -205.5q0 -147 -113.5 -256t-261.5 -109zM-294 -731q-34 0 -52 18t-13 53l42 304q8 54 73 69q32 8 49 13t50 18.5t53 29.5t47.5 45.5t45.5 66.5t35 92t27 122l233 1661
q4 32 25.5 50t53.5 18h459q32 0 48 -18t12 -50l-237 -1679q-25 -182 -98 -330t-190 -256.5t-286 -167.5t-377 -59z" />
    <glyph glyph-name="k" unicode="k" horiz-adv-x="2155" 
d="M399 2491q4 32 25 50.5t53 18.5h459q32 0 48 -18.5t12 -50.5l-341 -2422q-5 -32 -25.5 -50.5t-52.5 -18.5h-460q-32 0 -48 18.5t-11 50.5zM1393 0q-64 0 -86 50l-461 927l657 805q37 47 102 47h488q46 0 54.5 -28.5t-21.5 -63.5l-649 -757l474 -887q20 -41 3.5 -67
t-63.5 -26h-498z" />
    <glyph glyph-name="l" unicode="l" horiz-adv-x="950" 
d="M399 2491q4 32 25 50.5t53 18.5h460q32 0 47.5 -18.5t11.5 -50.5l-341 -2422q-5 -32 -25.5 -50.5t-52.5 -18.5h-460q-32 0 -48 18.5t-11 50.5z" />
    <glyph glyph-name="m" unicode="m" horiz-adv-x="3408" 
d="M2751 1869q309 0 436 -184.5t80 -516.5l-154 -1091q-5 -36 -28 -56.5t-60 -20.5h-442q-36 0 -54 20.5t-13 56.5l127 903q56 393 -218 393q-70 0 -138 -30.5t-126.5 -87.5t-101 -147t-57.5 -200l-117 -831q-5 -36 -28.5 -56.5t-59.5 -20.5h-443q-36 0 -53.5 20.5
t-12.5 56.5l127 903q55 393 -218 393q-148 0 -270.5 -124t-153.5 -341l-118 -839q-5 -32 -25.5 -50.5t-52.5 -18.5h-460q-32 0 -48 18.5t-11 50.5l238 1692q4 32 25 50t53 18h460q32 0 47.5 -18t11.5 -50l-30 -212q273 320 658 320q226 0 355 -100t162 -286
q143 195 330.5 290.5t382.5 95.5z" />
    <glyph glyph-name="n" unicode="n" 
d="M1555 1869q167 0 285 -48t181 -137t85 -215.5t-3 -283.5l-157 -1116q-5 -32 -25.5 -50.5t-52.5 -18.5h-460q-32 0 -48 18.5t-11 50.5l128 908q30 211 -32 303.5t-213 92.5q-175 0 -301.5 -121.5t-156.5 -336.5l-119 -846q-5 -32 -25.5 -50.5t-52.5 -18.5h-460
q-32 0 -48 18.5t-11 50.5l238 1692q4 32 25 50t53 18h460q32 0 47.5 -18t11.5 -50l-30 -212q121 150 297 235t395 85z" />
    <glyph glyph-name="o" unicode="o" horiz-adv-x="2314" 
d="M1293 1878q190 0 354.5 -57.5t286 -163t191.5 -264.5t70 -353q0 -199 -63.5 -374t-174.5 -304t-259 -222.5t-321 -141t-355 -47.5q-190 0 -355 57.5t-286.5 163t-191.5 264.5t-70 353q0 166 45 316.5t124.5 269t189.5 214t240.5 158.5t276.5 97t298 34zM1090 439
q94 0 181 38t154.5 107t108 175.5t40.5 234.5q0 185 -98.5 291t-251.5 106q-94 0 -180.5 -38t-154.5 -107t-108.5 -176t-40.5 -235q0 -185 98.5 -290.5t251.5 -105.5z" />
    <glyph glyph-name="p" unicode="p" horiz-adv-x="2309" 
d="M1431 1878q169 0 311 -60t240.5 -166.5t153.5 -259t55 -332.5q0 -235 -81 -442t-219 -353t-328 -230t-402 -84q-339 0 -487 257l-122 -870q-5 -32 -25.5 -50.5t-52.5 -18.5h-460q-32 0 -48 18.5t-11 50.5l341 2423q4 32 24.5 50t52.5 18h460q32 0 48 -18t12 -50l-20 -140
q220 257 558 257zM1085 439q94 0 180.5 38t154.5 107t108.5 175.5t40.5 234.5q0 185 -98.5 291t-251.5 106q-98 0 -186.5 -39.5t-154.5 -110.5t-104.5 -176t-38.5 -229q0 -183 96 -290t254 -107z" />
    <glyph glyph-name="q" unicode="q" horiz-adv-x="2310" 
d="M2193 1825q32 0 47.5 -18t11.5 -50l-341 -2423q-4 -32 -25 -50.5t-53 -18.5h-460q-32 0 -47.5 18.5t-11.5 50.5l123 871q-220 -258 -559 -258q-225 0 -398 102.5t-267.5 288.5t-94.5 427q0 158 36.5 304.5t103 268t161 222t208 169.5t247 107t275.5 38q339 0 487 -258
l19 141q4 32 25 50t53 18h460zM1091 435q98 0 186 39.5t154 110t105 175.5t39 229q0 183 -96.5 290t-254.5 107q-94 0 -180.5 -38t-154 -106.5t-108 -175.5t-40.5 -235q0 -185 98.5 -290.5t251.5 -105.5z" />
    <glyph glyph-name="r" unicode="r" horiz-adv-x="1413" 
d="M1400 1864q40 0 55.5 -16t10.5 -53l-69 -489q-5 -31 -23 -45.5t-52 -21.5q-53 -10 -95 -20.5t-99.5 -31.5t-102.5 -47t-94 -67t-84 -91t-62.5 -121t-39.5 -155l-90 -637q-5 -32 -25.5 -50.5t-52.5 -18.5h-460q-32 0 -48 18.5t-11 50.5l238 1692q4 32 25 50t53 18h460
q32 0 47.5 -18t11.5 -50l-41 -292q106 183 266 289t282 106z" />
    <glyph glyph-name="s" unicode="s" horiz-adv-x="1898" 
d="M838 1317q0 -38 30.5 -68t81.5 -51.5t117.5 -42t140 -43t147 -49.5t140 -67.5t117.5 -91t81.5 -125t30.5 -165.5q0 -132 -48 -241.5t-133 -186.5t-202 -130.5t-253.5 -79t-288.5 -25.5q-216 0 -414.5 50.5t-322.5 135.5q-60 41 -22 102l153 255q23 38 52.5 48t57.5 -7
q94 -53 154.5 -81.5t155 -52.5t194.5 -24q124 0 198 34t74 104q0 47 -47.5 83.5t-123 63.5t-167 56t-183.5 71t-167.5 96.5t-123 143.5t-47.5 202q0 200 110.5 347.5t309.5 223.5t463 76q196 0 369 -45.5t288 -119.5q60 -40 23 -102l-144 -238q-42 -74 -105 -37
q-211 130 -427 130q-125 0 -197 -40.5t-72 -108.5z" />
    <glyph glyph-name="t" unicode="t" horiz-adv-x="1757" 
d="M1627 1829q37 0 54.5 -20.5t12.5 -56.5l-46 -324q-5 -36 -28 -56.5t-60 -20.5h-521l-83 -593q-23 -165 14.5 -246.5t164.5 -81.5q104 0 243 72q79 40 102 -33l82 -254q22 -68 -46 -104q-290 -160 -604 -160q-319 0 -467.5 181t-103.5 499l101 720h-225q-36 0 -54 20.5
t-13 56.5l46 324q5 36 28.5 56.5t59.5 20.5h225l39 274q9 63 89 86l447 126q47 13 67.5 -2t15.5 -53l-61 -431h521z" />
    <glyph glyph-name="u" unicode="u" 
d="M2125 1829q32 0 47.5 -18t11.5 -50l-238 -1692q-5 -32 -25.5 -50.5t-52.5 -18.5h-460q-32 0 -47.5 18.5t-11.5 50.5l30 211q-120 -150 -297 -235t-395 -85q-167 0 -285 48t-181 137t-85 215.5t3 283.5l157 1117q4 32 25 50t53 18h460q32 0 47.5 -18t11.5 -50l-128 -909
q-29 -211 32.5 -303.5t212.5 -92.5q175 0 301.5 122t156.5 337l119 846q4 32 25 50t53 18h460z" />
    <glyph glyph-name="v" unicode="v" horiz-adv-x="2135" 
d="M2156 1829q55 0 76 -41.5t-10 -92.5l-1072 -1676q-25 -42 -74 -42h-277q-48 0 -63 42l-604 1676q-17 49 15.5 91.5t89.5 42.5h500q23 0 38 -12.5t19 -31.5l272 -963l542 963q23 44 72 44h476z" />
    <glyph glyph-name="w" unicode="w" horiz-adv-x="2969" 
d="M2994 1829q52 0 72 -39.5t-6 -89.5l-880 -1679q-24 -44 -73 -44h-225q-49 0 -62 42l-329 938l-593 -937q-14 -24 -31 -33.5t-43 -9.5h-225q-48 0 -61 44l-409 1679q-12 50 19.5 89.5t83.5 39.5h468q23 0 38.5 -12.5t19.5 -33.5l178 -890l468 766q24 47 76 47h231
q54 0 64 -47l252 -766l434 890q9 21 28 33.5t42 12.5h463z" />
    <glyph glyph-name="x" unicode="x" horiz-adv-x="2165" 
d="M2142 1829q48 0 58.5 -27.5t-25.5 -66.5l-750 -801l527 -839q24 -39 5.5 -67t-66.5 -28h-547q-57 0 -86 46l-274 445l-379 -443q-41 -48 -100 -48h-496q-48 0 -57.5 28t26.5 67l749 812l-511 830q-23 40 -6 66t65 26h530q58 0 87 -46l270 -430l369 428q40 48 99 48h512z
" />
    <glyph glyph-name="y" unicode="y" horiz-adv-x="2112" 
d="M2133 1829q55 0 76 -41t-10 -93l-959 -1551q-151 -244 -280 -401.5t-280 -268t-321.5 -158t-389.5 -47.5q-34 0 -52 18t-13 53l43 304q7 62 72 69q124 14 220 66t202 167.5t246 324.5l-554 1424q-19 51 14.5 92.5t89.5 41.5h490q44 0 57 -44l301 -869l513 869
q24 44 72 44h463z" />
    <glyph glyph-name="z" unicode="z" horiz-adv-x="2085" 
d="M35 0q-36 0 -53.5 19.5t-13.5 53.5l4 27q8 52 44 94l1017 1148h-700q-29 0 -46 20.5t-13 48.5l49 350q4 28 27 48t51 20h1568q37 0 54.5 -18t12.5 -52l-4 -29q-8 -50 -45 -95l-1041 -1165h843q28 0 45.5 -20t13.5 -48l-47 -333q-4 -28 -27 -48.5t-51 -20.5h-1688z" />
    <glyph glyph-name="braceleft" unicode="{" horiz-adv-x="1022" 
d="M1028 2322q-111 -21 -162 -100t-51 -254q0 -50 4 -189.5t4 -196.5q0 -279 -90.5 -434t-282.5 -205q238 -68 238 -370q0 -90 -30 -215.5t-66 -228.5t-66 -212t-30 -169q0 -75 33 -121.5t111 -62.5q24 -5 37 -21t9 -40l-21 -154q-5 -29 -26.5 -47.5t-49.5 -17.5
q-231 8 -350.5 104.5t-119.5 300.5q0 82 30.5 202t67 223t67 224t30.5 204q0 129 -48 195t-140 85q-23 5 -35 21.5t-9 38.5l17 122q4 23 20 39.5t40 20.5q97 17 159.5 70.5t99 170t36.5 299.5q0 52 -4 185.5t-4 184.5q0 167 40.5 287t121 193t190.5 108.5t258 39.5
q28 1 44.5 -18t12.5 -47l-22 -154q-3 -24 -20.5 -40t-42.5 -21z" />
    <glyph glyph-name="bar" unicode="|" horiz-adv-x="705" 
d="M452 2871q4 28 27 48.5t52 20.5h214q28 0 45.5 -20.5t13.5 -48.5l-465 -3302q-4 -28 -27 -48.5t-51 -20.5h-214q-29 0 -46.5 20.5t-13.5 48.5z" />
    <glyph glyph-name="braceright" unicode="}" horiz-adv-x="1022" 
d="M905 1064q22 -4 34 -20.5t9 -39.5l-17 -122q-3 -22 -19.5 -38.5t-40.5 -21.5q-73 -14 -125 -46.5t-91.5 -94t-59 -161t-19.5 -238.5q0 -52 4 -185.5t4 -184.5q0 -167 -40.5 -286.5t-121 -192.5t-190 -108.5t-258.5 -40.5q-28 -1 -44.5 17.5t-12.5 47.5l22 154
q3 24 20.5 40t43.5 21q110 21 161 100.5t51 254.5q0 49 -4 188.5t-4 196.5q0 280 90 434.5t283 204.5q-239 68 -239 370q0 90 30 215.5t66.5 228.5t66.5 212t30 169q0 75 -33 121.5t-111 62.5q-24 5 -37 21t-9 40l21 154q5 29 26.5 47.5t49.5 17.5q231 -6 351 -103t120 -302
q0 -82 -31 -202t-67.5 -223.5t-67.5 -224.5t-31 -204q0 -130 49 -196t141 -83z" />
    <glyph glyph-name="asciitilde" unicode="~" horiz-adv-x="2291" 
d="M2133 1327q20 -11 25 -32t-6 -44q-57 -124 -133.5 -218.5t-160 -150.5t-167.5 -84t-166 -28q-94 0 -176.5 16.5t-138.5 41.5t-114 54.5t-104.5 54.5t-108 41.5t-126.5 16.5q-97 0 -182 -50.5t-150 -132.5q-21 -25 -47.5 -32.5t-50.5 6.5l-119 73q-19 11 -24 32t5 44
q57 123 134 218t160 151t167 84t166 28q94 0 176.5 -16.5t138.5 -41.5t114 -54.5t104.5 -54.5t108 -41.5t126.5 -16.5q97 0 182 50.5t150 132.5q21 25 47 32.5t51 -6.5z" />
    <glyph glyph-name="exclamdown" unicode="&#xa1;" horiz-adv-x="1008" 
d="M642 1878q120 0 199.5 -81.5t79.5 -201.5q0 -144 -111.5 -251t-256.5 -107q-121 0 -200 82t-79 202q0 144 111.5 250.5t256.5 106.5zM596 -533q-3 -32 -24 -50.5t-54 -18.5h-460q-33 0 -49 18.5t-10 50.5l285 1516q13 68 78 68h317q31 0 46.5 -18t12.5 -50z" />
    <glyph glyph-name="cent" unicode="&#xa2;" horiz-adv-x="2104" 
d="M2049 1437q14 -33 3.5 -59t-52.5 -45l-364 -166q-27 -15 -47 -10.5t-30 14.5t-22 31q-21 40 -44 70t-58.5 59t-86 44.5t-113.5 15.5q-224 0 -359.5 -150.5t-135.5 -412.5q0 -185 97.5 -287t269.5 -102q63 0 117 15.5t96.5 44.5t73 58.5t62.5 69.5q13 16 23.5 25.5
t23.5 16t28.5 4.5t33.5 -11l317 -165q36 -19 39.5 -45.5t-18.5 -58.5q-40 -63 -102 -125.5t-148 -123.5t-202.5 -108.5t-245.5 -68.5l-56 -398q-4 -28 -27 -48.5t-51 -20.5h-301q-29 0 -46.5 20.5t-13.5 48.5l58 407q-142 32 -260.5 101.5t-205.5 171t-135 240t-48 299.5
q0 172 47.5 327t131.5 276t199 216.5t250 157t285 90.5l57 403q4 28 27 48.5t51 20.5h301q28 0 46 -20.5t14 -48.5l-56 -396q122 -21 225 -68.5t171.5 -108.5t113 -123t67.5 -125z" />
    <glyph glyph-name="sterling" unicode="&#xa3;" horiz-adv-x="2396" 
d="M2374 2100q19 -21 27 -34.5t5.5 -35t-25.5 -43.5l-226 -228q-17 -17 -28 -26t-27 -17t-31 -4.5t-30 17.5q-64 61 -114 102t-118.5 82.5t-147 62.5t-166.5 21q-177 0 -292 -86t-137 -245q-20 -144 -7 -314h563q30 0 47 -20t13 -50l-30 -212q-5 -30 -27 -50t-53 -20h-492
q-9 -142 -88.5 -274.5t-272.5 -286.5q138 41 281.5 45.5t269 -14t251 -38t271.5 -19t285 35.5q44 11 71 -10.5t21 -64.5l-46 -322q-2 -23 -22 -41.5t-51 -25.5q-151 -31 -303 -38.5t-279 3.5t-252.5 29t-243 34.5t-231 24.5t-236 -5.5t-238.5 -52.5q-28 -10 -53 -0.5
t-30 34.5l-54 244q-6 29 16 55q136 160 213 287.5t101.5 216t21.5 183.5h-261q-31 0 -48.5 20t-12.5 50l30 212q4 30 27 50t53 20h170q-18 185 10 380q23 164 101.5 302.5t204.5 239.5t305.5 158t393.5 57q568 0 921 -389z" />
    <glyph glyph-name="currency" unicode="&#xa4;" horiz-adv-x="2897" 
d="M2898 2120q22 -26 15 -58.5t-39 -53.5l-408 -268q87 -141 121.5 -311t8.5 -354q-52 -369 -317 -666l332 -268q26 -20 24.5 -53t-30.5 -59l-238 -209q-28 -26 -61.5 -23t-49.5 32l-215 369q-162 -114 -348 -176t-378 -62t-360.5 62t-299.5 176l-319 -369
q-25 -29 -58.5 -32t-55.5 23l-178 209q-22 26 -14.5 59t39.5 53l408 268q-182 297 -130 666q52 368 317 665l-333 268q-26 21 -24.5 53.5t30.5 58.5l238 209q28 26 61.5 23.5t49.5 -32.5l216 -369q162 114 348 176t378 62t360.5 -62t299.5 -176l318 369q25 30 58.5 32.5
t55.5 -23.5zM1379 419q269 0 472.5 183t244.5 473q20 144 -11 267t-102 208t-179 133t-240 48q-177 0 -330.5 -81.5t-257 -232t-129.5 -342.5q-21 -144 9.5 -267.5t102 -208t180 -132.5t240.5 -48z" />
    <glyph glyph-name="yen" unicode="&#xa5;" horiz-adv-x="2568" 
d="M2688 2440q43 0 58.5 -27t-10.5 -65l-879 -1176h227q36 0 54 -20.5t13 -56.5l-23 -161q-4 -36 -28 -56.5t-60 -20.5h-418l-35 -46l-19 -139h446q36 0 54 -20.5t13 -56.5l-23 -161q-5 -36 -28.5 -56.5t-59.5 -20.5h-447l-40 -288q-4 -28 -27.5 -48.5t-51.5 -20.5h-488
q-28 0 -45.5 20.5t-13.5 48.5l40 288h-465q-37 0 -54.5 20.5t-12.5 56.5l23 161q4 36 28 56.5t60 20.5h466l18 132l-25 53h-433q-37 0 -54.5 20.5t-12.5 56.5l23 161q4 36 28 56.5t60 20.5h242l-552 1177q-18 37 5 64t66 27h532q30 0 48 -15t31 -45l446 -1041l729 1041
q39 60 98 60h497z" />
    <glyph glyph-name="brokenbar" unicode="&#xa6;" horiz-adv-x="705" 
d="M452 2871q4 28 27 48.5t52 20.5h214q28 0 45.5 -20.5t13.5 -48.5l-147 -1046q-4 -28 -27 -48t-51 -20h-215q-28 0 -45.5 20t-13.5 48zM135 615q4 28 27 48t51 20h215q28 0 45.5 -20t13.5 -48l-148 -1046q-4 -28 -27 -48.5t-51 -20.5h-214q-29 0 -46.5 20.5t-13.5 48.5z
" />
    <glyph glyph-name="section" unicode="&#xa7;" horiz-adv-x="2356" 
d="M2369 2113q1 -36 -24 -60.5t-61 -24.5h-382q-23 0 -37.5 13.5t-18.5 36.5q-50 338 -446 338q-213 0 -349.5 -96t-159.5 -261q-18 -128 135 -226q91 -59 328 -148q264 -100 367 -150q289 -139 396 -321q199 -342 -165 -932q149 -171 113 -423q-26 -185 -126 -337
t-252.5 -253.5t-349.5 -156.5t-418 -55q-433 0 -673 193t-256 552q-1 35 23.5 60t60.5 25h382q24 0 39 -14t18 -38q23 -178 135.5 -265.5t330.5 -87.5q216 0 364 96.5t172 259.5q18 129 -134 230q-90 60 -323 153q-259 103 -362 154q-285 144 -391 329q-197 344 154 930
q-152 168 -116 422q34 239 188 418t394.5 272.5t534.5 93.5q417 0 654 -190t255 -537zM1626 508q32 89 41.5 167t0 139t-39.5 116.5t-69 97t-97.5 81.5t-115 69t-131.5 61.5t-138.5 56.5t-143.5 56t-139 59q-42 -108 -48 -200.5t15.5 -160.5t75.5 -129.5t114.5 -103
t151.5 -86t167.5 -74.5t181 -73t174.5 -76z" />
    <glyph glyph-name="dieresis" unicode="&#xa8;" horiz-adv-x="1563" 
d="M320 2061q-107 0 -177.5 73t-70.5 180q0 129 99.5 224.5t229.5 95.5q108 0 178.5 -73t70.5 -181q0 -129 -99.5 -224t-230.5 -95zM1161 2061q-108 0 -178.5 73t-70.5 180q0 129 99.5 224.5t229.5 95.5q108 0 179 -73.5t71 -180.5q0 -129 -100 -224t-230 -95z" />
    <glyph glyph-name="copyright" unicode="&#xa9;" horiz-adv-x="2780" 
d="M1608 2460q230 0 431.5 -86t343 -233t222.5 -349t81 -429q0 -185 -54 -363.5t-149.5 -330t-230.5 -280t-291.5 -218.5t-337 -140.5t-364.5 -50.5q-230 0 -431.5 85.5t-343 232.5t-222.5 349.5t-81 429.5q0 184 54 363t149.5 330t230.5 280t291.5 219t337 140.5
t364.5 50.5zM1286 166q186 0 366.5 60t331 170t266 254.5t180 324t64.5 367.5q0 193 -68.5 365t-188.5 297t-290 198t-365 73q-155 0 -308 -43t-285.5 -119.5t-246.5 -186t-195.5 -238.5t-127.5 -281t-46 -309q0 -193 69 -365t188.5 -296.5t290 -197.5t365.5 -73zM2032 910
q37 -20 11 -61q-118 -180 -291 -267t-371 -87q-185 0 -335 75t-239.5 220t-89.5 336q0 146 47.5 276.5t130.5 227.5t192.5 168t237 107t259.5 36q198 0 347 -87t216 -267q15 -41 -28 -61l-225 -100q-39 -17 -57 22q-40 100 -116 150t-178 50q-194 0 -322.5 -141t-128.5 -355
q0 -163 89 -263.5t241 -100.5q101 0 191.5 50.5t158.5 149.5q29 41 64 22z" />
    <glyph glyph-name="guillemotleft" unicode="&#xab;" horiz-adv-x="2084" 
d="M967 561q21 -19 18 -45l-29 -201q-8 -56 -54.5 -79t-87.5 11l-630 518q-19 16 -16 44l34 238q5 28 28 44l776 518q49 34 90 11t33 -79l-28 -201q-4 -25 -31 -45l-492 -367zM1866 1609q50 34 91 11t33 -79l-29 -201q-3 -25 -30 -45l-492 -367l389 -367q21 -20 17 -45
l-28 -201q-8 -56 -54.5 -79t-87.5 11l-630 518q-19 16 -16 44l34 238q3 27 28 44z" />
    <glyph glyph-name="logicalnot" unicode="&#xac;" horiz-adv-x="2169" 
d="M1965 1309q36 0 53.5 -20.5t12.5 -56.5l-94 -661q-4 -32 -25 -50.5t-53 -18.5h-301q-32 0 -48 18.5t-11 50.5l44 317h-1286q-36 0 -54 20.5t-13 56.5l37 267q5 36 29 56.5t60 20.5h1649z" />
    <glyph glyph-name="registered" unicode="&#xae;" horiz-adv-x="2780" 
d="M1608 2460q230 0 431.5 -86t343 -233t222.5 -349t81 -429q0 -185 -54 -363.5t-149.5 -330t-230.5 -280t-291.5 -218.5t-337 -140.5t-364.5 -50.5q-230 0 -431.5 85.5t-343 232.5t-222.5 349.5t-81 429.5q0 184 54 363t149.5 330t230.5 280t291.5 219t337 140.5
t364.5 50.5zM1286 166q186 0 366.5 60t331 170t266 254.5t180 324t64.5 367.5q0 193 -68.5 365t-188.5 297t-290 198t-365 73q-155 0 -308 -43t-285.5 -119.5t-246.5 -186t-195.5 -238.5t-127.5 -281t-46 -309q0 -193 69 -365t188.5 -296.5t290 -197.5t365.5 -73zM2098 1505
q0 -156 -84 -279t-239 -188l203 -432q13 -31 -5.5 -57t-53.5 -26h-272q-22 0 -31 21l-194 437h-239l-59 -419q-2 -16 -15 -27.5t-29 -11.5h-278q-16 0 -26 11.5t-8 27.5l185 1312q1 16 14.5 27.5t29.5 11.5h278h317q245 0 375.5 -112.5t130.5 -295.5zM1276 1640l-55 -387
h208q299 0 299 223q0 164 -245 164h-207z" />
    <glyph glyph-name="macron" unicode="&#xaf;" horiz-adv-x="1300" 
d="M12 2431q5 32 31 55t58 23h1149q32 0 52 -23t15 -55l-30 -208q-4 -31 -29.5 -54t-57.5 -23h-1150q-32 0 -51.5 23t-15.5 54z" />
    <glyph glyph-name="degree" unicode="&#xb0;" horiz-adv-x="1054" 
d="M627 1628q-186 0 -312 125.5t-126 309.5q0 145 82.5 272.5t215.5 201t278 73.5q186 0 312 -127t126 -311q0 -145 -82 -271.5t-215 -199.5t-279 -73zM675 1964q71 0 122.5 52t51.5 121q0 58 -36.5 98t-94.5 40q-71 0 -122 -53t-51 -123q0 -57 36 -96t94 -39z" />
    <glyph glyph-name="plusminus" unicode="&#xb1;" horiz-adv-x="2146" 
d="M1986 1622q36 0 53.5 -20.5t12.5 -56.5l-38 -267q-4 -36 -28 -56.5t-60 -20.5h-602l-84 -602q-5 -36 -29 -56.5t-60 -20.5h-267q-36 0 -53.5 20.5t-12.5 56.5l85 602h-602q-36 0 -54 20.5t-13 56.5l38 267q4 36 28 56.5t60 20.5h602l85 602q4 36 28 57t60 21h266
q37 0 54.5 -21t12.5 -57l-84 -602h602zM1817 422q36 0 53.5 -21t12.5 -57l-37 -267q-5 -36 -28.5 -56.5t-59.5 -20.5h-1626q-36 0 -54 20.5t-13 56.5l38 267q4 36 28 57t60 21h1626z" />
    <glyph glyph-name="acute" unicode="&#xb4;" horiz-adv-x="1060" 
d="M146 2024q-33 -14 -61.5 -4t-39.5 38l-58 155q-9 27 6 59t45 49l791 445q31 16 60 6t40 -38l98 -256q11 -31 -2.5 -61.5t-46.5 -43.5z" />
    <glyph glyph-name="paragraph" unicode="&#xb6;" horiz-adv-x="2177" 
d="M2146 2440q28 0 45.5 -20.5t13.5 -48.5l-394 -2802q-5 -29 -27.5 -49t-50.5 -20h-60q-28 0 -45.5 20.5t-13.5 48.5l376 2679h-846l-377 -2679q-4 -28 -26.5 -48.5t-50.5 -20.5h-60q-29 0 -46.5 20.5t-13.5 48.5l193 1374q-255 25 -419 211.5t-164 448.5q0 167 72 322.5
t190.5 267.5t276.5 179.5t324 67.5h1043h60z" />
    <glyph glyph-name="periodcentered" unicode="&#xb7;" horiz-adv-x="1009" 
d="M460 599q-123 0 -203.5 83.5t-80.5 205.5q0 147 113.5 256t261.5 109q123 0 204 -83.5t81 -206.5q0 -147 -114 -255.5t-262 -108.5z" />
    <glyph glyph-name="cedilla" unicode="&#xb8;" horiz-adv-x="2440" 
d="M319 -880q-181 0 -297 79q-54 38 -19 105l30 56q37 72 111 40q90 -45 164 -45q86 0 145 43.5t59 127.5q0 26 -7.5 45.5t-25 31.5t-34.5 20t-46.5 10t-51 3t-57.5 -3t-56.5 -6.5t-57.5 -7.5q-5 -1 -7 -1q-53 -6 -69.5 11.5t6.5 64.5l184 346h279l-112 -205
q198 30 316.5 -42t118.5 -227q0 -107 -47 -193t-126.5 -140.5t-182 -83.5t-217.5 -29z" />
    <glyph glyph-name="guillemotright" unicode="&#xbb;" horiz-adv-x="2084" 
d="M1026 809q-5 -27 -29 -44l-775 -518q-50 -34 -91 -11t-33 79l29 201q3 25 31 45l492 367l-389 367q-22 20 -18 45l28 201q7 56 54.5 78.5t87.5 -10.5l630 -518q19 -15 16 -44l-16 -119zM1904 1091q19 -16 16 -44l-16 -119l-18 -119q-3 -27 -28 -44l-775 -518
q-50 -34 -91 -11t-33 79l29 201q3 25 31 45l492 367l-389 367q-22 20 -18 45l28 201q8 56 54.5 78.5t87.5 -10.5z" />
    <glyph glyph-name="onequarter" unicode="&#xbc;" horiz-adv-x="3789" 
d="M2423 2583q13 25 41 35t53 -2l166 -80q24 -11 32 -38t-5 -53l-1437 -2631q-14 -25 -42 -35t-52 2l-166 79q-25 13 -33 40t6 52zM1222 2397q18 0 29.5 -13t9.5 -32l-213 -1514q-2 -19 -17.5 -32t-33.5 -13h-322q-18 0 -29.5 13t-9.5 32l167 1183l-263 -118
q-19 -8 -36.5 -2t-22.5 24l-68 209q-6 18 3 35.5t28 25.5l426 189q30 13 63 13h289zM3609 617q24 0 36 -13.5t8 -37.5l-26 -185q-3 -23 -18.5 -36.5t-39.5 -13.5h-190l-40 -286q-2 -19 -17.5 -32t-34.5 -13h-292q-19 0 -30 13t-9 32l40 286h-801q-24 0 -36 13.5t-8 36.5
l20 144q1 11 12 23l969 1026q27 30 65 30h296q18 0 29.5 -13t9.5 -32l-133 -942h190zM2610 617h426l74 527z" />
    <glyph glyph-name="onehalf" unicode="&#xbd;" horiz-adv-x="3856" 
d="M2683 2536q24 -11 32 -38t-5 -53l-1437 -2631q-14 -25 -42 -35t-52 2l-166 79q-25 13 -33 40t6 52l1437 2631q13 25 41 35t53 -2zM1048 838q-2 -19 -17.5 -32t-33.5 -13h-322q-18 0 -29.5 13t-9.5 32l167 1183l-263 -118q-19 -8 -36.5 -2t-22.5 24l-68 209q-6 18 3 35.5
t28 25.5l426 189q30 13 63 13h289q18 0 29.5 -13t9.5 -32zM3710 1136q-31 -217 -198.5 -411.5t-505.5 -422.5h579q18 0 29.5 -13t9.5 -32l-31 -219q-2 -19 -17.5 -32t-33.5 -13h-1179q-23 0 -35 13.5t-8 37.5l11 77q5 46 30 62q217 147 378 270t262 215t165 171.5t91 137
t35 115.5q30 214 -201 214q-109 0 -203 -46t-205 -130q-13 -9 -23.5 -11.5t-19 2.5t-14.5 11t-14 18l-107 149q-8 11 -9.5 21t4 19.5t12.5 17t19 17.5q307 256 677 256q278 0 405 -135.5t97 -358.5z" />
    <glyph glyph-name="threequarters" unicode="&#xbe;" horiz-adv-x="4084" 
d="M2679 2583q13 25 41 35t53 -2l166 -80q24 -11 32 -38t-5 -53l-1437 -2631q-14 -25 -42 -35t-52 2l-166 79q-25 13 -33 40t6 52zM1256 1621q263 -101 263 -341q0 -156 -93 -274t-258.5 -181.5t-379.5 -63.5q-221 0 -366 67.5t-253 188.5q-13 14 -18 23t-3 22.5t16 28.5
l154 157q16 16 26.5 23.5t23.5 7.5t26 -11q43 -39 63.5 -56.5t63.5 -47.5t77.5 -43.5t86.5 -25t110 -11.5q135 0 222 52.5t87 145.5q0 79 -88.5 136.5t-273.5 63.5q-20 1 -31.5 13.5t-8.5 31.5l21 152q2 19 17 31.5t36 14.5q106 4 184.5 26t121 55.5t62.5 71t20 80.5
q0 70 -56.5 109t-160.5 39q-78 0 -155.5 -24t-127.5 -51.5t-125 -76.5q-28 -14 -41 -9t-29 29l-100 145q-8 11 -9 21t4.5 19.5t12 16.5t18.5 17q140 113 312 175t361 62q250 0 381 -106t131 -273q0 -140 -83 -250t-241 -180zM3865 617q24 0 36 -13.5t8 -37.5l-26 -185
q-3 -23 -18.5 -36.5t-39.5 -13.5h-190l-40 -286q-2 -19 -17.5 -32t-34.5 -13h-292q-19 0 -30 13t-9 32l40 286h-801q-24 0 -36 13.5t-8 36.5l20 144q1 11 12 23l969 1026q27 30 65 30h296q18 0 29.5 -13t9.5 -32l-133 -942h190zM2866 617h426l74 527z" />
    <glyph glyph-name="questiondown" unicode="&#xbf;" horiz-adv-x="1772" 
d="M996 1878q120 0 199 -81.5t79 -201.5q0 -144 -111 -250.5t-256 -106.5q-121 0 -200.5 82t-79.5 202q0 144 111.5 250t257.5 106zM526 48q0 -220 289 -220q80 0 153 16.5t138.5 49t109.5 61t103 72.5q39 25 59.5 18t48.5 -48l150 -218q8 -12 8.5 -24.5t-2 -20.5t-14.5 -21
t-18 -18t-24 -19q-410 -327 -894 -327q-336 0 -538.5 151t-202.5 419q0 99 23.5 183.5t64 147.5t93 117.5t112.5 100t121 88.5t119.5 88.5t107 94.5t85 113t51.5 137q14 62 71 62l322 -1q49 0 49 -68q0 -86 -32.5 -165.5t-84 -143.5t-114 -124.5t-124.5 -119t-113.5 -116
t-84 -126t-32.5 -139.5z" />
    <glyph glyph-name="Agrave" unicode="&#xc0;" horiz-adv-x="2696" 
d="M984 2984q-29 13 -34 44t14 61l170 256q18 28 50 38t60 -6l665 -445q25 -17 31.5 -49t-10.5 -59l-101 -155q-18 -28 -50 -38t-61 4zM2549 91q12 -42 -8 -66.5t-63 -24.5h-530q-66 0 -79 60l-110 416h-965l-228 -416q-32 -60 -97 -60h-506q-43 0 -56.5 24.5t9.5 66.5
l1353 2314q34 58 96 58h418q64 0 82 -58zM1026 900h621l-202 766z" />
    <glyph glyph-name="Aacute" unicode="&#xc1;" horiz-adv-x="2696" 
d="M1313 2669l-58 155q-9 27 6 59t45 49l791 445q31 16 60 6t40 -38l98 -256q11 -31 -2.5 -61.5t-46.5 -43.5l-832 -349q-33 -14 -61.5 -4t-39.5 38zM2549 91q12 -42 -8 -66.5t-63 -24.5h-530q-66 0 -79 60l-110 416h-965l-228 -416q-32 -60 -97 -60h-506q-43 0 -56.5 24.5
t9.5 66.5l1353 2314q34 58 96 58h418q64 0 82 -58zM1026 900h621l-202 766z" />
    <glyph glyph-name="Acircumflex" unicode="&#xc2;" horiz-adv-x="2696" 
d="M1024 2663q-51 0 -59.5 28.5t31.5 66.5l485 459q44 41 102 41h219q58 0 91 -41l356 -459q29 -38 12.5 -66.5t-66.5 -28.5h-330q-61 0 -88 50l-129 223l-193 -223q-42 -50 -102 -50h-329zM2549 91q12 -42 -8 -66.5t-63 -24.5h-530q-66 0 -79 60l-110 416h-965l-228 -416
q-32 -60 -97 -60h-506q-43 0 -56.5 24.5t9.5 66.5l1353 2314q34 58 96 58h418q64 0 82 -58zM1026 900h621l-202 766z" />
    <glyph glyph-name="Atilde" unicode="&#xc3;" horiz-adv-x="2696" 
d="M995 2677q-38 0 -55.5 21.5t-8.5 60.5q52 240 190 365.5t312 125.5q82 0 146.5 -21.5t104 -52.5t74 -62t75.5 -52.5t89 -21.5q139 0 189 138q29 72 93 72h106q37 0 53 -33.5t0 -92.5q-30 -114 -81.5 -201.5t-117 -140t-139.5 -79t-154 -26.5q-82 0 -146.5 22t-104 53.5
t-73.5 62.5t-75.5 53t-89.5 22q-71 0 -119 -39.5t-70 -101.5q-29 -72 -93 -72h-105zM2549 91q12 -42 -8 -66.5t-63 -24.5h-530q-66 0 -79 60l-110 416h-965l-228 -416q-32 -60 -97 -60h-506q-43 0 -56.5 24.5t9.5 66.5l1353 2314q34 58 96 58h418q64 0 82 -58zM1026 900h621
l-202 766z" />
    <glyph glyph-name="Adieresis" unicode="&#xc4;" horiz-adv-x="2696" 
d="M1189 2672q-107 0 -177.5 73t-70.5 180q0 129 99.5 224.5t229.5 95.5q108 0 178.5 -73t70.5 -181q0 -129 -99.5 -224t-230.5 -95zM2030 2672q-108 0 -178.5 73t-70.5 180q0 129 99.5 224.5t229.5 95.5q108 0 179 -73.5t71 -180.5q0 -129 -100 -224t-230 -95zM2549 91
q12 -42 -8 -66.5t-63 -24.5h-530q-66 0 -79 60l-110 416h-965l-228 -416q-32 -60 -97 -60h-506q-43 0 -56.5 24.5t9.5 66.5l1353 2314q34 58 96 58h418q64 0 82 -58zM1026 900h621l-202 766z" />
    <glyph glyph-name="Aring" unicode="&#xc5;" horiz-adv-x="2696" 
d="M2549 91q12 -42 -8 -66.5t-63 -24.5h-530q-66 0 -79 60l-110 416h-965l-228 -416q-32 -60 -97 -60h-506q-43 0 -56.5 24.5t9.5 66.5l1323 2263q-132 127 -132 316q0 145 82.5 272t215.5 200.5t278 73.5q187 0 312.5 -126.5t125.5 -311.5q0 -128 -64.5 -241.5
t-173.5 -191.5zM1641 2917q-87 0 -150 -65.5t-63 -150.5q0 -69 44.5 -117.5t115.5 -48.5q87 0 149.5 64t62.5 148q0 71 -44 120.5t-115 49.5zM1026 900h621l-202 766z" />
    <glyph glyph-name="AE" unicode="&#xc6;" horiz-adv-x="3723" 
d="M3693 2440q32 0 47.5 -18.5t11.5 -50.5l-50 -359q-5 -32 -26 -50t-53 -18h-1275l-67 -472h1115q32 0 48 -18.5t11 -50.5l-45 -324q-5 -32 -26 -50t-53 -18h-1114l-73 -515h1315q32 0 47.5 -18t11.5 -50l-50 -359q-5 -33 -25.5 -51t-52.5 -18h-1558h-314q-28 0 -45.5 20.5
t-13.5 48.5l57 407h-681l-282 -423q-34 -53 -101 -53h-490q-44 0 -56.5 27.5t15.5 70.5l1579 2291q35 51 102 51h257h2h488h1344zM1119 900h457l122 868z" />
    <glyph glyph-name="Ccedilla" unicode="&#xc7;" horiz-adv-x="2694" 
d="M2691 1867q13 -35 -1 -62.5t-49 -43.5l-394 -176q-70 -30 -101 38q-70 175 -204 263.5t-312 88.5q-223 0 -404 -112.5t-284 -312t-103 -446.5q0 -287 156 -463t423 -176q178 0 336 88.5t279 263.5q50 69 112 38l343 -176q31 -15 37 -42.5t-17 -63.5
q-186 -284 -451.5 -436t-573.5 -180l-67 -122q198 30 316.5 -42t118.5 -227q0 -107 -47 -193t-126.5 -140.5t-182 -83.5t-217.5 -29q-181 0 -297 79q-54 38 -19 105l30 56q37 72 111 40q90 -45 164 -45q86 0 145 43.5t59 127.5q0 26 -7.5 45.5t-25 31.5t-34.5 20t-46.5 10
t-51 3t-57.5 -3t-56.5 -6.5t-57.5 -7.5q-5 -1 -7 -1q-53 -6 -69.5 11.5t6.5 64.5l140 264q-218 21 -405 107t-324.5 224.5t-216 337t-78.5 431.5q0 215 59 411t163 351.5t248 282.5t312.5 211t357 129.5t381.5 45.5q168 0 317 -36t279.5 -109t231.5 -194.5t161 -282.5z" />
    <glyph glyph-name="Egrave" unicode="&#xc8;" horiz-adv-x="2322" 
d="M817 2984q-29 13 -34 44t14 61l170 256q19 28 51 38t59 -6l665 -445q25 -17 31.5 -49t-10.5 -59l-101 -155q-18 -28 -50 -38t-61 4zM2292 2440q32 0 47.5 -18.5t11.5 -50.5l-50 -359q-5 -32 -26 -50t-53 -18h-1275l-67 -472h1115q32 0 48 -18.5t11 -50.5l-45 -324
q-5 -32 -26 -50t-53 -18h-1114l-73 -515h1315q32 0 47.5 -18t11.5 -50l-50 -359q-5 -33 -25.5 -51t-52.5 -18h-1558h-314q-28 0 -45.5 20.5t-13.5 48.5l324 2302q3 28 26.5 48.5t51.5 20.5h488h1344z" />
    <glyph glyph-name="Eacute" unicode="&#xc9;" horiz-adv-x="2322" 
d="M1146 2669l-58 155q-9 27 6 59t45 49l791 445q31 16 60 6t40 -38l98 -256q11 -31 -2.5 -61.5t-46.5 -43.5l-832 -349q-33 -14 -61.5 -4t-39.5 38zM2292 2440q32 0 47.5 -18.5t11.5 -50.5l-50 -359q-5 -32 -26 -50t-53 -18h-1275l-67 -472h1115q32 0 48 -18.5t11 -50.5
l-45 -324q-5 -32 -26 -50t-53 -18h-1114l-73 -515h1315q32 0 47.5 -18t11.5 -50l-50 -359q-5 -33 -25.5 -51t-52.5 -18h-1558h-314q-28 0 -45.5 20.5t-13.5 48.5l324 2302q3 28 26.5 48.5t51.5 20.5h488h1344z" />
    <glyph glyph-name="Ecircumflex" unicode="&#xca;" horiz-adv-x="2322" 
d="M857 2663q-51 0 -59.5 28.5t31.5 66.5l485 459q44 41 102 41h219q58 0 91 -41l356 -459q29 -38 12.5 -66.5t-66.5 -28.5h-330q-61 0 -88 50l-129 223l-193 -223q-42 -50 -102 -50h-329zM2292 2440q32 0 47.5 -18.5t11.5 -50.5l-50 -359q-5 -32 -26 -50t-53 -18h-1275
l-67 -472h1115q32 0 48 -18.5t11 -50.5l-45 -324q-5 -32 -26 -50t-53 -18h-1114l-73 -515h1315q32 0 47.5 -18t11.5 -50l-50 -359q-5 -33 -25.5 -51t-52.5 -18h-1558h-314q-28 0 -45.5 20.5t-13.5 48.5l324 2302q3 28 26.5 48.5t51.5 20.5h488h1344z" />
    <glyph glyph-name="Edieresis" unicode="&#xcb;" horiz-adv-x="2322" 
d="M1022 2672q-107 0 -177.5 73t-70.5 180q0 129 99.5 224.5t229.5 95.5q108 0 178.5 -73t70.5 -181q0 -129 -99.5 -224t-230.5 -95zM1863 2672q-108 0 -178.5 73t-70.5 180q0 129 99.5 224.5t229.5 95.5q108 0 179 -73.5t71 -180.5q0 -129 -100 -224t-230 -95zM2292 2440
q32 0 47.5 -18.5t11.5 -50.5l-50 -359q-5 -32 -26 -50t-53 -18h-1275l-67 -472h1115q32 0 48 -18.5t11 -50.5l-45 -324q-5 -32 -26 -50t-53 -18h-1114l-73 -515h1315q32 0 47.5 -18t11.5 -50l-50 -359q-5 -33 -25.5 -51t-52.5 -18h-1558h-314q-28 0 -45.5 20.5t-13.5 48.5
l324 2302q3 28 26.5 48.5t51.5 20.5h488h1344z" />
    <glyph glyph-name="Igrave" unicode="&#xcc;" horiz-adv-x="979" 
d="M844 2635l-734 349q-29 13 -34 44t14 61l170 256q18 28 50 38t60 -6l665 -445q25 -17 31.5 -49t-10.5 -59l-101 -155q-18 -28 -50 -38t-61 4zM382 2371q4 28 27 48.5t51 20.5h488q29 0 46 -20.5t13 -48.5l-324 -2302q-4 -29 -27 -49t-51 -20h-488q-28 0 -45.5 20.5
t-13.5 48.5z" />
    <glyph glyph-name="Iacute" unicode="&#xcd;" horiz-adv-x="979" 
d="M540 2635q-33 -14 -61.5 -4t-39.5 38l-58 155q-9 27 6 59t45 49l791 445q31 16 60 6t40 -38l98 -256q11 -31 -2.5 -61.5t-46.5 -43.5zM382 2371q4 28 27 48.5t51 20.5h488q29 0 46 -20.5t13 -48.5l-324 -2302q-4 -29 -27 -49t-51 -20h-488q-28 0 -45.5 20.5t-13.5 48.5z
" />
    <glyph glyph-name="Icircumflex" unicode="&#xce;" horiz-adv-x="979" 
d="M903 2713l-129 223l-193 -223q-42 -50 -102 -50h-329q-51 0 -59.5 28.5t31.5 66.5l485 459q44 41 102 41h219q58 0 91 -41l356 -459q29 -38 12.5 -66.5t-66.5 -28.5h-330q-61 0 -88 50zM382 2371q4 28 27 48.5t51 20.5h488q29 0 46 -20.5t13 -48.5l-324 -2302
q-4 -29 -27 -49t-51 -20h-488q-28 0 -45.5 20.5t-13.5 48.5z" />
    <glyph glyph-name="Idieresis" unicode="&#xcf;" horiz-adv-x="979" 
d="M315 2672q-107 0 -177.5 73t-70.5 180q0 129 99.5 224.5t229.5 95.5q108 0 178.5 -73t70.5 -181q0 -129 -99.5 -224t-230.5 -95zM1156 2672q-108 0 -178.5 73t-70.5 180q0 129 99.5 224.5t229.5 95.5q108 0 179 -73.5t71 -180.5q0 -129 -100 -224t-230 -95zM382 2371
q4 28 27 48.5t51 20.5h488q29 0 46 -20.5t13 -48.5l-324 -2302q-4 -29 -27 -49t-51 -20h-488q-28 0 -45.5 20.5t-13.5 48.5z" />
    <glyph glyph-name="Eth" unicode="&#xd0;" horiz-adv-x="2747" 
d="M1490 2440q248 0 460 -71.5t368.5 -204t245.5 -334t89 -448.5q0 -214 -56.5 -405.5t-158 -342t-241.5 -271t-307.5 -200t-356 -121.5t-386.5 -42h-780h-250q-28 0 -45.5 20.5t-13.5 48.5l133 944h-234q-36 0 -53.5 20.5t-12.5 56.5l32 232q5 36 28.5 57t59.5 21h234
l137 971q3 28 26.5 48.5t51.5 20.5h488h542zM1176 496q177 0 328.5 60.5t259.5 168.5t169 264.5t61 341.5q0 283 -164.5 448t-450.5 165h-432l-77 -544h506q36 0 53.5 -21t12.5 -57l-32 -232q-5 -36 -28.5 -56.5t-59.5 -20.5h-506l-73 -517h433z" />
    <glyph glyph-name="Ntilde" unicode="&#xd1;" horiz-adv-x="2789" 
d="M1067 2677q-38 0 -55.5 21.5t-8.5 60.5q52 240 190 365.5t312 125.5q82 0 146.5 -21.5t104 -52.5t74 -62t75.5 -52.5t89 -21.5q139 0 189 138q29 72 93 72h106q37 0 53 -33.5t0 -92.5q-30 -114 -81.5 -201.5t-117 -140t-139.5 -79t-154 -26.5q-82 0 -146.5 22t-104 53.5
t-73.5 62.5t-75.5 53t-89.5 22q-71 0 -119 -39.5t-70 -101.5q-29 -72 -93 -72h-105zM2750 2440q36 0 53.5 -20.5t12.5 -56.5l-324 -2308q-5 -36 -28.5 -57t-59.5 -21h-127q-58 0 -93 34l-1318 1354l-181 -1288q-5 -36 -28.5 -56.5t-59.5 -20.5h-471q-36 0 -54 20.5t-13 56.5
l325 2308q5 36 28 57t60 21h127q58 0 92 -34l1318 -1357l182 1291q5 36 28.5 56.5t59.5 20.5h471z" />
    <glyph glyph-name="Ograve" unicode="&#xd2;" horiz-adv-x="2962" 
d="M1835 2635l-734 349q-29 13 -34 44t14 61l170 256q19 28 51 38t59 -6l665 -445q25 -17 31.5 -49t-10.5 -59l-101 -155q-18 -28 -50 -38t-61 4zM1702 2489q194 0 370 -48.5t321 -144t251.5 -227.5t165 -308.5t58.5 -378.5q0 -215 -59 -411t-163.5 -351.5t-248 -282.5
t-312.5 -211t-357.5 -129.5t-381.5 -45.5q-194 0 -370 48.5t-320.5 144t-251 227.5t-165 308.5t-58.5 378.5q0 215 59 411t163 351.5t248 282.5t312.5 211t357 129.5t381.5 45.5zM1418 465q167 0 314 66t251.5 181t165 277t60.5 347q0 287 -156 463t-423 176
q-223 0 -404 -112.5t-284 -312t-103 -446.5q0 -287 156 -463t423 -176z" />
    <glyph glyph-name="Oacute" unicode="&#xd3;" horiz-adv-x="2962" 
d="M1531 2635q-33 -14 -61.5 -4t-39.5 38l-58 155q-9 27 6 59t45 49l791 445q31 16 60 6t40 -38l98 -256q11 -31 -2.5 -61.5t-46.5 -43.5zM1702 2489q194 0 370 -48.5t321 -144t251.5 -227.5t165 -308.5t58.5 -378.5q0 -215 -59 -411t-163.5 -351.5t-248 -282.5t-312.5 -211
t-357.5 -129.5t-381.5 -45.5q-194 0 -370 48.5t-320.5 144t-251 227.5t-165 308.5t-58.5 378.5q0 215 59 411t163 351.5t248 282.5t312.5 211t357 129.5t381.5 45.5zM1418 465q167 0 314 66t251.5 181t165 277t60.5 347q0 287 -156 463t-423 176q-223 0 -404 -112.5
t-284 -312t-103 -446.5q0 -287 156 -463t423 -176z" />
    <glyph glyph-name="Ocircumflex" unicode="&#xd4;" horiz-adv-x="2962" 
d="M1894 2713l-129 223l-193 -223q-42 -50 -102 -50h-329q-51 0 -59.5 28.5t31.5 66.5l485 459q44 41 102 41h219q58 0 91 -41l356 -459q29 -38 12.5 -66.5t-66.5 -28.5h-330q-61 0 -88 50zM1702 2489q194 0 370 -48.5t321 -144t251.5 -227.5t165 -308.5t58.5 -378.5
q0 -215 -59 -411t-163.5 -351.5t-248 -282.5t-312.5 -211t-357.5 -129.5t-381.5 -45.5q-194 0 -370 48.5t-320.5 144t-251 227.5t-165 308.5t-58.5 378.5q0 215 59 411t163 351.5t248 282.5t312.5 211t357 129.5t381.5 45.5zM1418 465q167 0 314 66t251.5 181t165 277
t60.5 347q0 287 -156 463t-423 176q-223 0 -404 -112.5t-284 -312t-103 -446.5q0 -287 156 -463t423 -176z" />
    <glyph glyph-name="Otilde" unicode="&#xd5;" horiz-adv-x="2962" 
d="M1112 2677q-38 0 -55.5 21.5t-8.5 60.5q52 240 190 365.5t312 125.5q82 0 146.5 -21.5t104 -52.5t74 -62t75.5 -52.5t89 -21.5q139 0 189 138q29 72 93 72h106q37 0 53 -33.5t0 -92.5q-30 -114 -81.5 -201.5t-117 -140t-139.5 -79t-154 -26.5q-82 0 -146.5 22t-104 53.5
t-73.5 62.5t-75.5 53t-89.5 22q-71 0 -119 -39.5t-70 -101.5q-29 -72 -93 -72h-105zM1702 2489q194 0 370 -48.5t321 -144t251.5 -227.5t165 -308.5t58.5 -378.5q0 -215 -59 -411t-163.5 -351.5t-248 -282.5t-312.5 -211t-357.5 -129.5t-381.5 -45.5q-194 0 -370 48.5
t-320.5 144t-251 227.5t-165 308.5t-58.5 378.5q0 215 59 411t163 351.5t248 282.5t312.5 211t357 129.5t381.5 45.5zM1418 465q167 0 314 66t251.5 181t165 277t60.5 347q0 287 -156 463t-423 176q-223 0 -404 -112.5t-284 -312t-103 -446.5q0 -287 156 -463t423 -176z" />
    <glyph glyph-name="Odieresis" unicode="&#xd6;" horiz-adv-x="2962" 
d="M1306 2672q-107 0 -177.5 73t-70.5 180q0 129 99.5 224.5t229.5 95.5q108 0 178.5 -73t70.5 -181q0 -129 -99.5 -224t-230.5 -95zM2147 2672q-108 0 -178.5 73t-70.5 180q0 129 99.5 224.5t229.5 95.5q108 0 179 -73.5t71 -180.5q0 -129 -100 -224t-230 -95zM1702 2489
q194 0 370 -48.5t321 -144t251.5 -227.5t165 -308.5t58.5 -378.5q0 -215 -59 -411t-163.5 -351.5t-248 -282.5t-312.5 -211t-357.5 -129.5t-381.5 -45.5q-194 0 -370 48.5t-320.5 144t-251 227.5t-165 308.5t-58.5 378.5q0 215 59 411t163 351.5t248 282.5t312.5 211
t357 129.5t381.5 45.5zM1418 465q167 0 314 66t251.5 181t165 277t60.5 347q0 287 -156 463t-423 176q-223 0 -404 -112.5t-284 -312t-103 -446.5q0 -287 156 -463t423 -176z" />
    <glyph glyph-name="multiply" unicode="&#xd7;" horiz-adv-x="2147" 
d="M2053 1725q46 -54 -16 -110l-646 -567l486 -566q22 -26 18 -55t-33 -54l-215 -190q-29 -25 -58 -25t-52 26l-486 566l-647 -567q-63 -53 -110 0l-162 190q-46 54 15 109l647 567l-487 566q-22 27 -18 55.5t33 54.5l216 189q29 26 58 26t51 -26l487 -567l647 567
q29 26 58 26t51 -26z" />
    <glyph glyph-name="Oslash" unicode="&#xd8;" horiz-adv-x="2962" 
d="M2921 2327q47 -53 -15 -109l-226 -198q188 -272 188 -638q0 -215 -59 -411t-163.5 -351.5t-248 -282.5t-312.5 -211t-357.5 -129.5t-381.5 -45.5q-216 0 -409 61t-346 176l-206 -180q-63 -55 -109 -1l-110 129q-47 54 16 109l192 168q-193 274 -193 645q0 215 59 411
t163 351.5t248 282.5t312.5 211t357 129.5t381.5 45.5q219 0 414.5 -62t347.5 -180l238 208q30 25 58.5 25t50.5 -25zM839 1104q0 -134 37 -250l1130 991q-150 130 -376 130q-223 0 -404 -112.5t-284 -312t-103 -446.5zM2209 1336q0 128 -34 241l-1127 -988
q151 -124 370 -124q167 0 314 66t251.5 181t165 277t60.5 347z" />
    <glyph glyph-name="Ugrave" unicode="&#xd9;" horiz-adv-x="2727" 
d="M1718 2635l-734 349q-29 13 -34 44t14 61l170 256q18 28 50 38t60 -6l665 -445q25 -17 31.5 -49t-10.5 -59l-101 -155q-18 -28 -50 -38t-61 4zM2696 2440q28 0 45.5 -20t13.5 -49l-187 -1331q-31 -217 -115 -395.5t-207.5 -304.5t-284.5 -212.5t-344.5 -127t-387.5 -40.5
t-376 40.5t-308.5 127t-225 212.5t-122.5 304.5t-3 395.5l188 1331q3 28 26.5 48.5t51.5 20.5h488q28 0 45.5 -20t13.5 -49l-169 -1199q-47 -334 64.5 -516t398.5 -182q146 0 261 48t195 140t130.5 219t73.5 291l168 1199q4 28 27.5 48.5t51.5 20.5h488z" />
    <glyph glyph-name="Uacute" unicode="&#xda;" horiz-adv-x="2727" 
d="M1414 2635q-33 -14 -61.5 -4t-39.5 38l-58 155q-9 27 6 59t45 49l791 445q31 16 60 6t40 -38l98 -256q11 -31 -2.5 -61.5t-46.5 -43.5zM2696 2440q28 0 45.5 -20t13.5 -49l-187 -1331q-31 -217 -115 -395.5t-207.5 -304.5t-284.5 -212.5t-344.5 -127t-387.5 -40.5
t-376 40.5t-308.5 127t-225 212.5t-122.5 304.5t-3 395.5l188 1331q3 28 26.5 48.5t51.5 20.5h488q28 0 45.5 -20t13.5 -49l-169 -1199q-47 -334 64.5 -516t398.5 -182q146 0 261 48t195 140t130.5 219t73.5 291l168 1199q4 28 27.5 48.5t51.5 20.5h488z" />
    <glyph glyph-name="Ucircumflex" unicode="&#xdb;" horiz-adv-x="2727" 
d="M1777 2713l-129 223l-193 -223q-42 -50 -102 -50h-329q-51 0 -59.5 28.5t31.5 66.5l485 459q44 41 102 41h219q58 0 91 -41l356 -459q29 -38 12.5 -66.5t-66.5 -28.5h-330q-61 0 -88 50zM2696 2440q28 0 45.5 -20t13.5 -49l-187 -1331q-31 -217 -115 -395.5
t-207.5 -304.5t-284.5 -212.5t-344.5 -127t-387.5 -40.5t-376 40.5t-308.5 127t-225 212.5t-122.5 304.5t-3 395.5l188 1331q3 28 26.5 48.5t51.5 20.5h488q28 0 45.5 -20t13.5 -49l-169 -1199q-47 -334 64.5 -516t398.5 -182q146 0 261 48t195 140t130.5 219t73.5 291
l168 1199q4 28 27.5 48.5t51.5 20.5h488z" />
    <glyph glyph-name="Udieresis" unicode="&#xdc;" horiz-adv-x="2727" 
d="M1189 2672q-107 0 -177.5 73t-70.5 180q0 129 99.5 224.5t229.5 95.5q108 0 178.5 -73t70.5 -181q0 -129 -99.5 -224t-230.5 -95zM2030 2672q-108 0 -178.5 73t-70.5 180q0 129 99.5 224.5t229.5 95.5q108 0 179 -73.5t71 -180.5q0 -129 -100 -224t-230 -95zM2696 2440
q28 0 45.5 -20t13.5 -49l-187 -1331q-31 -217 -115 -395.5t-207.5 -304.5t-284.5 -212.5t-344.5 -127t-387.5 -40.5t-376 40.5t-308.5 127t-225 212.5t-122.5 304.5t-3 395.5l188 1331q3 28 26.5 48.5t51.5 20.5h488q28 0 45.5 -20t13.5 -49l-169 -1199q-47 -334 64.5 -516
t398.5 -182q146 0 261 48t195 140t130.5 219t73.5 291l168 1199q4 28 27.5 48.5t51.5 20.5h488z" />
    <glyph glyph-name="Yacute" unicode="&#xdd;" horiz-adv-x="2568" 
d="M1245 2669l-58 155q-9 27 6 59t45 49l791 445q31 16 60 6t40 -38l98 -256q11 -31 -2.5 -61.5t-46.5 -43.5l-832 -349q-33 -14 -61.5 -4t-39.5 38zM2688 2440q43 0 58.5 -27t-10.5 -65l-1149 -1537l-104 -742q-4 -28 -27.5 -48.5t-51.5 -20.5h-488q-28 0 -45.5 20.5
t-13.5 48.5l103 735l-724 1545q-18 37 5 64t66 27h532q30 0 48 -15t31 -45l446 -1041l729 1041q39 60 98 60h497z" />
    <glyph glyph-name="Thorn" unicode="&#xde;" horiz-adv-x="2395" 
d="M1481 2055q216 0 387 -56.5t279 -156t164.5 -232t56.5 -288.5q0 -192 -76 -361.5t-216 -298t-354.5 -203t-474.5 -74.5h-519l-45 -316q-3 -28 -26 -48.5t-52 -20.5h-488q-28 0 -45.5 20.5t-13.5 48.5l324 2302q4 28 27 48.5t51 20.5h488q29 0 46.5 -20.5t13.5 -48.5
l-45 -316h518zM1200 864q141 0 244.5 33.5t161.5 92t85 128t27 150.5q0 137 -100.5 222.5t-318.5 85.5h-404l-99 -712h404z" />
    <glyph glyph-name="germandbls" unicode="&#xdf;" horiz-adv-x="2464" 
d="M1806 1368q0 -56 30 -100.5t78 -77t106 -65.5t116 -75.5t106 -96t78 -138.5t30 -193q0 -133 -45 -245t-122 -189.5t-180.5 -131.5t-218.5 -79.5t-238 -25.5q-192 0 -372 58t-276 137q-50 42 -18 102l137 255q41 76 96 40q70 -45 104.5 -65t94 -49t114 -40.5t115.5 -11.5
q117 0 182.5 48t65.5 120q0 41 -25 76t-66 60.5t-93.5 55t-107.5 57.5t-107.5 69.5t-93.5 89.5t-66 119.5t-25 157.5q0 78 21.5 148t53 119t69 103t69 101t53 113t21.5 138q0 132 -65 206.5t-180 74.5q-128 0 -221 -91t-115 -248l-256 -1825q-5 -32 -25.5 -50.5t-52.5 -18.5
h-460q-32 0 -48 18.5t-11 50.5l261 1856q22 158 84 285t151.5 214.5t206.5 146t247 85.5t275 27q362 0 572.5 -171.5t210.5 -461.5q0 -104 -27 -194.5t-65 -153t-76 -117t-65 -110t-27 -107.5z" />
    <glyph glyph-name="agrave" unicode="&#xe0;" horiz-adv-x="2291" 
d="M758 2373q-29 13 -34 44t14 61l170 256q18 28 50 38t60 -6l665 -445q25 -17 31.5 -49t-10.5 -59l-101 -155q-18 -28 -50 -38t-61 4zM2232 1761l-159 -1135q-15 -108 -15.5 -195.5t7.5 -140.5t27 -147q15 -80 -63 -103l-346 -93q-53 -16 -84 18q-45 48 -83.5 130.5
t-52.5 171.5q-230 -316 -605 -316q-225 0 -398 103t-267.5 289t-94.5 426q0 158 36.5 304.5t103 268t161 222t208 169.5t247 107t275.5 38q340 0 486 -257l20 140q4 32 25 50t53 18h460q32 0 47.5 -18t11.5 -50zM1071 439q98 0 186 39.5t154 110.5t105 176t39 229
q0 182 -96.5 289.5t-253.5 107.5q-94 0 -181 -38t-154.5 -107t-108 -176t-40.5 -235q0 -185 98.5 -290.5t251.5 -105.5z" />
    <glyph glyph-name="aacute" unicode="&#xe1;" horiz-adv-x="2291" 
d="M1087 2058l-58 155q-9 27 6 59t45 49l791 445q31 16 60 6t40 -38l98 -256q11 -31 -2.5 -61.5t-46.5 -43.5l-832 -349q-33 -14 -61.5 -4t-39.5 38zM2232 1761l-159 -1135q-15 -108 -15.5 -195.5t7.5 -140.5t27 -147q15 -80 -63 -103l-346 -93q-53 -16 -84 18
q-45 48 -83.5 130.5t-52.5 171.5q-230 -316 -605 -316q-225 0 -398 103t-267.5 289t-94.5 426q0 158 36.5 304.5t103 268t161 222t208 169.5t247 107t275.5 38q340 0 486 -257l20 140q4 32 25 50t53 18h460q32 0 47.5 -18t11.5 -50zM1071 439q98 0 186 39.5t154 110.5
t105 176t39 229q0 182 -96.5 289.5t-253.5 107.5q-94 0 -181 -38t-154.5 -107t-108 -176t-40.5 -235q0 -185 98.5 -290.5t251.5 -105.5z" />
    <glyph glyph-name="acircumflex" unicode="&#xe2;" horiz-adv-x="2291" 
d="M798 2052q-51 0 -59.5 29t31.5 66l485 459q44 41 102 41h219q58 0 91 -41l356 -459q29 -37 12.5 -66t-66.5 -29h-330q-61 0 -88 50l-129 223l-193 -223q-42 -50 -102 -50h-329zM2232 1761l-159 -1135q-15 -108 -15.5 -195.5t7.5 -140.5t27 -147q15 -80 -63 -103l-346 -93
q-53 -16 -84 18q-45 48 -83.5 130.5t-52.5 171.5q-230 -316 -605 -316q-225 0 -398 103t-267.5 289t-94.5 426q0 158 36.5 304.5t103 268t161 222t208 169.5t247 107t275.5 38q340 0 486 -257l20 140q4 32 25 50t53 18h460q32 0 47.5 -18t11.5 -50zM1071 439q98 0 186 39.5
t154 110.5t105 176t39 229q0 182 -96.5 289.5t-253.5 107.5q-94 0 -181 -38t-154.5 -107t-108 -176t-40.5 -235q0 -185 98.5 -290.5t251.5 -105.5z" />
    <glyph glyph-name="atilde" unicode="&#xe3;" horiz-adv-x="2291" 
d="M769 2066q-38 0 -55.5 21.5t-8.5 60.5q52 240 190 365.5t312 125.5q82 0 146.5 -21.5t104 -52.5t74 -62t75.5 -52.5t89 -21.5q139 0 189 138q29 72 93 72h106q37 0 53 -33.5t0 -92.5q-30 -114 -81.5 -201.5t-117 -140t-139.5 -79t-154 -26.5q-82 0 -146.5 22t-104 53
t-73.5 62.5t-75.5 53.5t-89.5 22q-71 0 -119 -39.5t-70 -101.5q-29 -72 -93 -72h-105zM2232 1761l-159 -1135q-15 -108 -15.5 -195.5t7.5 -140.5t27 -147q15 -80 -63 -103l-346 -93q-53 -16 -84 18q-45 48 -83.5 130.5t-52.5 171.5q-230 -316 -605 -316q-225 0 -398 103
t-267.5 289t-94.5 426q0 158 36.5 304.5t103 268t161 222t208 169.5t247 107t275.5 38q340 0 486 -257l20 140q4 32 25 50t53 18h460q32 0 47.5 -18t11.5 -50zM1071 439q98 0 186 39.5t154 110.5t105 176t39 229q0 182 -96.5 289.5t-253.5 107.5q-94 0 -181 -38t-154.5 -107
t-108 -176t-40.5 -235q0 -185 98.5 -290.5t251.5 -105.5z" />
    <glyph glyph-name="adieresis" unicode="&#xe4;" horiz-adv-x="2291" 
d="M963 2061q-107 0 -177.5 73t-70.5 180q0 129 99.5 224.5t229.5 95.5q108 0 178.5 -73t70.5 -181q0 -129 -99.5 -224t-230.5 -95zM1804 2061q-108 0 -178.5 73t-70.5 180q0 129 99.5 224.5t229.5 95.5q108 0 179 -73.5t71 -180.5q0 -129 -100 -224t-230 -95zM2232 1761
l-159 -1135q-15 -108 -15.5 -195.5t7.5 -140.5t27 -147q15 -80 -63 -103l-346 -93q-53 -16 -84 18q-45 48 -83.5 130.5t-52.5 171.5q-230 -316 -605 -316q-225 0 -398 103t-267.5 289t-94.5 426q0 158 36.5 304.5t103 268t161 222t208 169.5t247 107t275.5 38
q340 0 486 -257l20 140q4 32 25 50t53 18h460q32 0 47.5 -18t11.5 -50zM1071 439q98 0 186 39.5t154 110.5t105 176t39 229q0 182 -96.5 289.5t-253.5 107.5q-94 0 -181 -38t-154.5 -107t-108 -176t-40.5 -235q0 -185 98.5 -290.5t251.5 -105.5z" />
    <glyph glyph-name="aring" unicode="&#xe5;" horiz-adv-x="2291" 
d="M1365 2011q-186 0 -312 126t-126 310q0 145 82.5 272t215.5 200.5t278 73.5q187 0 312.5 -126.5t125.5 -311.5q0 -145 -82 -271.5t-215 -199.5t-279 -73zM1461 2694q-87 0 -150 -65.5t-63 -150.5q0 -69 44.5 -117.5t115.5 -48.5q87 0 149.5 64t62.5 148q0 71 -44 120.5
t-115 49.5zM2232 1761l-159 -1135q-15 -108 -15.5 -195.5t7.5 -140.5t27 -147q15 -80 -63 -103l-346 -93q-53 -16 -84 18q-45 48 -83.5 130.5t-52.5 171.5q-230 -316 -605 -316q-225 0 -398 103t-267.5 289t-94.5 426q0 158 36.5 304.5t103 268t161 222t208 169.5t247 107
t275.5 38q340 0 486 -257l20 140q4 32 25 50t53 18h460q32 0 47.5 -18t11.5 -50zM1071 439q98 0 186 39.5t154 110.5t105 176t39 229q0 182 -96.5 289.5t-253.5 107.5q-94 0 -181 -38t-154.5 -107t-108 -176t-40.5 -235q0 -185 98.5 -290.5t251.5 -105.5z" />
    <glyph glyph-name="ae" unicode="&#xe6;" horiz-adv-x="3315" 
d="M2374 1878q131 0 245.5 -25.5t215 -79t174 -136.5t123 -198.5t60.5 -265.5t-12 -336h-1378q1 -105 32.5 -188t85 -133.5t120 -76.5t142.5 -26q253 0 388 181q28 35 51 43t58 -8l300 -156q65 -34 20 -104q-121 -188 -367 -303t-535 -115q-254 0 -453 100.5t-309 286.5
q-130 -174 -333.5 -280.5t-440.5 -106.5q-103 0 -188.5 25t-146 69t-102 104.5t-61.5 130.5t-20 148q0 164 79 302.5t232 233.5t376 126.5t511 -19.5l-37 -264l41 287q25 176 -43.5 245t-250.5 69q-116 0 -218.5 -23t-231.5 -71q-74 -26 -97 40l-83 257q-23 71 51 102
q163 76 365.5 120.5t404.5 44.5q387 0 527 -213q148 104 329 158.5t376 54.5zM2308 1463q-140 0 -259.5 -82t-185.5 -229h756q-6 86 -33.5 148t-72 96.5t-95 50.5t-110.5 16zM803 367q140 0 253.5 97.5t132.5 236.5l7 48q-163 35 -276 33.5t-183 -39t-101.5 -89.5
t-31.5 -117q0 -81 55.5 -125.5t143.5 -44.5z" />
    <glyph glyph-name="ccedilla" unicode="&#xe7;" horiz-adv-x="2104" 
d="M2049 1437q14 -33 3.5 -59t-52.5 -45l-364 -166q-27 -15 -47 -10.5t-30 14.5t-22 31q-21 40 -44 70t-58.5 59t-86 44.5t-113.5 15.5q-224 0 -359.5 -150.5t-135.5 -412.5q0 -185 97.5 -287t269.5 -102q63 0 117 15.5t96.5 44.5t73 58.5t62.5 69.5q13 16 23.5 25.5
t23.5 16t28.5 4.5t33.5 -11l317 -165q36 -19 39.5 -45.5t-18.5 -58.5q-43 -67 -109.5 -132.5t-159 -129t-219.5 -110t-267 -62.5l-68 -124q198 30 316.5 -42t118.5 -227q0 -107 -47 -193t-126.5 -140.5t-182 -83.5t-217.5 -29q-181 0 -297 79q-54 38 -19 105l30 56
q37 72 111 40q90 -45 164 -45q86 0 145 43.5t59 127.5q0 26 -7.5 45.5t-25 31.5t-34.5 20t-46.5 10t-51 3t-57.5 -3t-56.5 -6.5t-57.5 -7.5q-5 -1 -7 -1q-53 -6 -69.5 11.5t6.5 64.5l141 265q-162 20 -298.5 85t-237.5 169t-158 252t-57 323q0 199 63 374.5t173 304.5
t256 223t316 141t348 47q136 0 255 -28.5t202.5 -73t150 -104.5t105.5 -118t61 -117z" />
    <glyph glyph-name="egrave" unicode="&#xe8;" horiz-adv-x="2212" 
d="M635 2373q-29 13 -34 44t14 61l170 256q19 28 51 38t59 -6l665 -445q25 -17 31.5 -49t-10.5 -59l-101 -155q-18 -28 -50 -38t-61 4zM1270 1878q131 0 245.5 -25.5t215 -79t174 -136.5t123 -198.5t60.5 -265.5t-12 -336h-1378q1 -105 32.5 -188t85 -133.5t120 -76.5
t142.5 -26q253 0 388 181q28 35 51 43t58 -8l300 -156q65 -34 20 -104q-121 -188 -367 -303t-535 -115q-189 0 -349.5 57t-277 162t-182 262.5t-65.5 349.5q0 201 61 376.5t168.5 306t252 224.5t315.5 141.5t354 47.5zM1204 1463q-140 0 -259.5 -82t-185.5 -229h756
q-6 86 -33.5 148t-72 96.5t-95 50.5t-110.5 16z" />
    <glyph glyph-name="eacute" unicode="&#xe9;" horiz-adv-x="2212" 
d="M964 2058l-58 155q-9 27 6 59t45 49l791 445q31 16 60 6t40 -38l98 -256q11 -31 -2.5 -61.5t-46.5 -43.5l-832 -349q-33 -14 -61.5 -4t-39.5 38zM1270 1878q131 0 245.5 -25.5t215 -79t174 -136.5t123 -198.5t60.5 -265.5t-12 -336h-1378q1 -105 32.5 -188t85 -133.5
t120 -76.5t142.5 -26q253 0 388 181q28 35 51 43t58 -8l300 -156q65 -34 20 -104q-121 -188 -367 -303t-535 -115q-189 0 -349.5 57t-277 162t-182 262.5t-65.5 349.5q0 201 61 376.5t168.5 306t252 224.5t315.5 141.5t354 47.5zM1204 1463q-140 0 -259.5 -82t-185.5 -229
h756q-6 86 -33.5 148t-72 96.5t-95 50.5t-110.5 16z" />
    <glyph glyph-name="ecircumflex" unicode="&#xea;" horiz-adv-x="2212" 
d="M675 2052q-51 0 -59.5 29t31.5 66l485 459q44 41 102 41h219q58 0 91 -41l356 -459q29 -37 12.5 -66t-66.5 -29h-330q-61 0 -88 50l-129 223l-193 -223q-42 -50 -102 -50h-329zM1270 1878q131 0 245.5 -25.5t215 -79t174 -136.5t123 -198.5t60.5 -265.5t-12 -336h-1378
q1 -105 32.5 -188t85 -133.5t120 -76.5t142.5 -26q253 0 388 181q28 35 51 43t58 -8l300 -156q65 -34 20 -104q-121 -188 -367 -303t-535 -115q-189 0 -349.5 57t-277 162t-182 262.5t-65.5 349.5q0 201 61 376.5t168.5 306t252 224.5t315.5 141.5t354 47.5zM1204 1463
q-140 0 -259.5 -82t-185.5 -229h756q-6 86 -33.5 148t-72 96.5t-95 50.5t-110.5 16z" />
    <glyph glyph-name="edieresis" unicode="&#xeb;" horiz-adv-x="2212" 
d="M840 2061q-107 0 -177.5 73t-70.5 180q0 129 99.5 224.5t229.5 95.5q108 0 178.5 -73t70.5 -181q0 -129 -99.5 -224t-230.5 -95zM1681 2061q-108 0 -178.5 73t-70.5 180q0 129 99.5 224.5t229.5 95.5q108 0 179 -73.5t71 -180.5q0 -129 -100 -224t-230 -95zM1270 1878
q131 0 245.5 -25.5t215 -79t174 -136.5t123 -198.5t60.5 -265.5t-12 -336h-1378q1 -105 32.5 -188t85 -133.5t120 -76.5t142.5 -26q253 0 388 181q28 35 51 43t58 -8l300 -156q65 -34 20 -104q-121 -188 -367 -303t-535 -115q-189 0 -349.5 57t-277 162t-182 262.5
t-65.5 349.5q0 201 61 376.5t168.5 306t252 224.5t315.5 141.5t354 47.5zM1204 1463q-140 0 -259.5 -82t-185.5 -229h756q-6 86 -33.5 148t-72 96.5t-95 50.5t-110.5 16z" />
    <glyph glyph-name="igrave" unicode="&#xec;" horiz-adv-x="951" 
d="M745 2024l-734 349q-29 13 -34 44t14 61l170 256q19 28 51 38t59 -6l665 -445q25 -17 31.5 -49t-10.5 -59l-101 -155q-18 -28 -50 -38t-61 4zM296 1761q4 32 25 50t53 18h460q32 0 47.5 -18t11.5 -50l-238 -1692q-5 -32 -25.5 -50.5t-52.5 -18.5h-460q-32 0 -48 18.5
t-11 50.5z" />
    <glyph glyph-name="iacute" unicode="&#xed;" horiz-adv-x="951" 
d="M441 2024q-33 -14 -61.5 -4t-39.5 38l-58 155q-9 27 6 59t45 49l791 445q31 16 60 6t40 -38l98 -256q11 -31 -2.5 -61.5t-46.5 -43.5zM296 1761q4 32 25 50t53 18h460q32 0 47.5 -18t11.5 -50l-238 -1692q-5 -32 -25.5 -50.5t-52.5 -18.5h-460q-32 0 -48 18.5t-11 50.5z
" />
    <glyph glyph-name="icircumflex" unicode="&#xee;" horiz-adv-x="951" 
d="M804 2102l-129 223l-193 -223q-42 -50 -102 -50h-329q-51 0 -59.5 29t31.5 66l485 459q44 41 102 41h219q58 0 91 -41l356 -459q29 -37 12.5 -66t-66.5 -29h-330q-61 0 -88 50zM296 1761q4 32 25 50t53 18h460q32 0 47.5 -18t11.5 -50l-238 -1692q-5 -32 -25.5 -50.5
t-52.5 -18.5h-460q-32 0 -48 18.5t-11 50.5z" />
    <glyph glyph-name="idieresis" unicode="&#xef;" horiz-adv-x="951" 
d="M216 2061q-107 0 -177.5 73t-70.5 180q0 129 99.5 224.5t229.5 95.5q108 0 178.5 -73t70.5 -181q0 -129 -99.5 -224t-230.5 -95zM1057 2061q-108 0 -178.5 73t-70.5 180q0 129 99.5 224.5t229.5 95.5q108 0 179 -73.5t71 -180.5q0 -129 -100 -224t-230 -95zM296 1761
q4 32 25 50t53 18h460q32 0 47.5 -18t11.5 -50l-238 -1692q-5 -32 -25.5 -50.5t-52.5 -18.5h-460q-32 0 -48 18.5t-11 50.5z" />
    <glyph glyph-name="eth" unicode="&#xf0;" horiz-adv-x="2227" 
d="M1395 2478q152 -80 271 -188.5t194 -222t125.5 -245.5t73.5 -250t29.5 -246t0.5 -223.5t-19 -190.5q-31 -224 -132.5 -407t-249 -303.5t-330.5 -185.5t-382 -65q-206 0 -378.5 64.5t-288.5 179.5t-169 282t-25 363q37 261 187.5 465t373.5 314t478 110q193 0 340 -88
q-94 293 -358 469l-139 -197q-20 -28 -46 -35t-52 9l-73 46q-25 16 -28.5 41t16.5 53l131 186q-78 35 -168 63q-35 12 -45 42.5t10 63.5l132 219q29 48 86 34q120 -27 233 -68l132 187q19 28 45.5 34.5t52.5 -9.5l73 -46q54 -32 12 -94zM1045 439q160 0 281 113.5t145 287.5
q25 174 -64 287.5t-249 113.5t-281 -113.5t-145 -287.5q-25 -174 64 -287.5t249 -113.5z" />
    <glyph glyph-name="ntilde" unicode="&#xf1;" 
d="M724 2066q-38 0 -55.5 21.5t-8.5 60.5q52 240 190 365.5t312 125.5q82 0 146.5 -21.5t104 -52.5t74 -62t75.5 -52.5t89 -21.5q139 0 189 138q29 72 93 72h106q37 0 53 -33.5t0 -92.5q-30 -114 -81.5 -201.5t-117 -140t-139.5 -79t-154 -26.5q-82 0 -146.5 22t-104 53
t-73.5 62.5t-75.5 53.5t-89.5 22q-71 0 -119 -39.5t-70 -101.5q-29 -72 -93 -72h-105zM1555 1869q167 0 285 -48t181 -137t85 -215.5t-3 -283.5l-157 -1116q-5 -32 -25.5 -50.5t-52.5 -18.5h-460q-32 0 -48 18.5t-11 50.5l128 908q30 211 -32 303.5t-213 92.5
q-175 0 -301.5 -121.5t-156.5 -336.5l-119 -846q-5 -32 -25.5 -50.5t-52.5 -18.5h-460q-32 0 -48 18.5t-11 50.5l238 1692q4 32 25 50t53 18h460q32 0 47.5 -18t11.5 -50l-30 -212q121 150 297 235t395 85z" />
    <glyph glyph-name="ograve" unicode="&#xf2;" horiz-adv-x="2314" 
d="M1426 2024l-734 349q-29 13 -34 44t14 61l170 256q18 28 50 38t60 -6l665 -445q25 -17 31.5 -49t-10.5 -59l-101 -155q-18 -28 -50 -38t-61 4zM1293 1878q190 0 354.5 -57.5t286 -163t191.5 -264.5t70 -353q0 -199 -63.5 -374t-174.5 -304t-259 -222.5t-321 -141
t-355 -47.5q-190 0 -355 57.5t-286.5 163t-191.5 264.5t-70 353q0 166 45 316.5t124.5 269t189.5 214t240.5 158.5t276.5 97t298 34zM1090 439q94 0 181 38t154.5 107t108 175.5t40.5 234.5q0 185 -98.5 291t-251.5 106q-94 0 -180.5 -38t-154.5 -107t-108.5 -176
t-40.5 -235q0 -185 98.5 -290.5t251.5 -105.5z" />
    <glyph glyph-name="oacute" unicode="&#xf3;" horiz-adv-x="2314" 
d="M1122 2024q-33 -14 -61.5 -4t-39.5 38l-58 155q-9 27 6 59t45 49l791 445q31 16 60 6t40 -38l98 -256q11 -31 -2.5 -61.5t-46.5 -43.5zM1293 1878q190 0 354.5 -57.5t286 -163t191.5 -264.5t70 -353q0 -199 -63.5 -374t-174.5 -304t-259 -222.5t-321 -141t-355 -47.5
q-190 0 -355 57.5t-286.5 163t-191.5 264.5t-70 353q0 166 45 316.5t124.5 269t189.5 214t240.5 158.5t276.5 97t298 34zM1090 439q94 0 181 38t154.5 107t108 175.5t40.5 234.5q0 185 -98.5 291t-251.5 106q-94 0 -180.5 -38t-154.5 -107t-108.5 -176t-40.5 -235
q0 -185 98.5 -290.5t251.5 -105.5z" />
    <glyph glyph-name="ocircumflex" unicode="&#xf4;" horiz-adv-x="2314" 
d="M1485 2102l-129 223l-193 -223q-42 -50 -102 -50h-329q-51 0 -59.5 29t31.5 66l485 459q44 41 102 41h219q58 0 91 -41l356 -459q29 -37 12.5 -66t-66.5 -29h-330q-61 0 -88 50zM1293 1878q190 0 354.5 -57.5t286 -163t191.5 -264.5t70 -353q0 -199 -63.5 -374
t-174.5 -304t-259 -222.5t-321 -141t-355 -47.5q-190 0 -355 57.5t-286.5 163t-191.5 264.5t-70 353q0 166 45 316.5t124.5 269t189.5 214t240.5 158.5t276.5 97t298 34zM1090 439q94 0 181 38t154.5 107t108 175.5t40.5 234.5q0 185 -98.5 291t-251.5 106q-94 0 -180.5 -38
t-154.5 -107t-108.5 -176t-40.5 -235q0 -185 98.5 -290.5t251.5 -105.5z" />
    <glyph glyph-name="otilde" unicode="&#xf5;" horiz-adv-x="2314" 
d="M703 2066q-38 0 -55.5 21.5t-8.5 60.5q52 240 190 365.5t312 125.5q82 0 146.5 -21.5t104 -52.5t74 -62t75.5 -52.5t89 -21.5q139 0 189 138q29 72 93 72h106q37 0 53 -33.5t0 -92.5q-30 -114 -81.5 -201.5t-117 -140t-139.5 -79t-154 -26.5q-82 0 -146.5 22t-104 53
t-73.5 62.5t-75.5 53.5t-89.5 22q-71 0 -119 -39.5t-70 -101.5q-29 -72 -93 -72h-105zM1293 1878q190 0 354.5 -57.5t286 -163t191.5 -264.5t70 -353q0 -199 -63.5 -374t-174.5 -304t-259 -222.5t-321 -141t-355 -47.5q-190 0 -355 57.5t-286.5 163t-191.5 264.5t-70 353
q0 166 45 316.5t124.5 269t189.5 214t240.5 158.5t276.5 97t298 34zM1090 439q94 0 181 38t154.5 107t108 175.5t40.5 234.5q0 185 -98.5 291t-251.5 106q-94 0 -180.5 -38t-154.5 -107t-108.5 -176t-40.5 -235q0 -185 98.5 -290.5t251.5 -105.5z" />
    <glyph glyph-name="odieresis" unicode="&#xf6;" horiz-adv-x="2314" 
d="M897 2061q-107 0 -177.5 73t-70.5 180q0 129 99.5 224.5t229.5 95.5q108 0 178.5 -73t70.5 -181q0 -129 -99.5 -224t-230.5 -95zM1738 2061q-108 0 -178.5 73t-70.5 180q0 129 99.5 224.5t229.5 95.5q108 0 179 -73.5t71 -180.5q0 -129 -100 -224t-230 -95zM1293 1878
q190 0 354.5 -57.5t286 -163t191.5 -264.5t70 -353q0 -199 -63.5 -374t-174.5 -304t-259 -222.5t-321 -141t-355 -47.5q-190 0 -355 57.5t-286.5 163t-191.5 264.5t-70 353q0 166 45 316.5t124.5 269t189.5 214t240.5 158.5t276.5 97t298 34zM1090 439q94 0 181 38
t154.5 107t108 175.5t40.5 234.5q0 185 -98.5 291t-251.5 106q-94 0 -180.5 -38t-154.5 -107t-108.5 -176t-40.5 -235q0 -185 98.5 -290.5t251.5 -105.5z" />
    <glyph glyph-name="divide" unicode="&#xf7;" horiz-adv-x="2146" 
d="M1941 1309q36 0 53.5 -20.5t12.5 -56.5l-37 -267q-4 -36 -28 -56.5t-60 -20.5h-747q-87 -53 -178 -53q-83 0 -138 53h-562q-36 0 -54 20.5t-13 56.5l37 267q5 36 29 56.5t60 20.5h609q87 54 179 54q85 0 139 -54h698z" />
    <glyph glyph-name="oslash" unicode="&#xf8;" horiz-adv-x="2331" 
d="M2256 1770q22 -25 18 -54t-34 -54l-174 -152q133 -200 133 -470q0 -199 -63.5 -374t-174.5 -304t-259 -222.5t-321 -141t-355 -47.5q-324 0 -558 157l-219 -192q-63 -53 -110 -1l-110 129q-22 25 -18 54t34 55l203 178q-125 195 -125 458q0 166 45 316.5t124.5 269
t189.5 214t240.5 158.5t276.5 97t298 34q315 0 545 -149l194 170q29 26 57.5 26t50.5 -26zM700 825q0 -49 6 -92l738 646q-91 55 -210 55q-105 0 -200 -39t-170 -112.5t-119.5 -192t-44.5 -265.5zM1623 1005q0 59 -9 108l-747 -655q93 -63 222 -63q105 0 200 39t170 112.5
t119.5 192t44.5 266.5z" />
    <glyph glyph-name="ugrave" unicode="&#xf9;" 
d="M1389 2024l-734 349q-29 13 -34 44t14 61l170 256q19 28 51 38t59 -6l665 -445q25 -17 31.5 -49t-10.5 -59l-101 -155q-18 -28 -50 -38t-61 4zM2125 1829q32 0 47.5 -18t11.5 -50l-238 -1692q-5 -32 -25.5 -50.5t-52.5 -18.5h-460q-32 0 -47.5 18.5t-11.5 50.5l30 211
q-120 -150 -297 -235t-395 -85q-167 0 -285 48t-181 137t-85 215.5t3 283.5l157 1117q4 32 25 50t53 18h460q32 0 47.5 -18t11.5 -50l-128 -909q-29 -211 32.5 -303.5t212.5 -92.5q175 0 301.5 122t156.5 337l119 846q4 32 25 50t53 18h460z" />
    <glyph glyph-name="uacute" unicode="&#xfa;" 
d="M1085 2024q-33 -14 -61.5 -4t-39.5 38l-58 155q-9 27 6 59t45 49l791 445q31 16 60 6t40 -38l98 -256q11 -31 -2.5 -61.5t-46.5 -43.5zM2125 1829q32 0 47.5 -18t11.5 -50l-238 -1692q-5 -32 -25.5 -50.5t-52.5 -18.5h-460q-32 0 -47.5 18.5t-11.5 50.5l30 211
q-120 -150 -297 -235t-395 -85q-167 0 -285 48t-181 137t-85 215.5t3 283.5l157 1117q4 32 25 50t53 18h460q32 0 47.5 -18t11.5 -50l-128 -909q-29 -211 32.5 -303.5t212.5 -92.5q175 0 301.5 122t156.5 337l119 846q4 32 25 50t53 18h460z" />
    <glyph glyph-name="ucircumflex" unicode="&#xfb;" 
d="M1448 2102l-129 223l-193 -223q-42 -50 -102 -50h-329q-51 0 -59.5 29t31.5 66l485 459q44 41 102 41h219q58 0 91 -41l356 -459q29 -37 12.5 -66t-66.5 -29h-330q-61 0 -88 50zM2125 1829q32 0 47.5 -18t11.5 -50l-238 -1692q-5 -32 -25.5 -50.5t-52.5 -18.5h-460
q-32 0 -47.5 18.5t-11.5 50.5l30 211q-120 -150 -297 -235t-395 -85q-167 0 -285 48t-181 137t-85 215.5t3 283.5l157 1117q4 32 25 50t53 18h460q32 0 47.5 -18t11.5 -50l-128 -909q-29 -211 32.5 -303.5t212.5 -92.5q175 0 301.5 122t156.5 337l119 846q4 32 25 50t53 18
h460z" />
    <glyph glyph-name="udieresis" unicode="&#xfc;" 
d="M860 2061q-107 0 -177.5 73t-70.5 180q0 129 99.5 224.5t229.5 95.5q108 0 178.5 -73t70.5 -181q0 -129 -99.5 -224t-230.5 -95zM1701 2061q-108 0 -178.5 73t-70.5 180q0 129 99.5 224.5t229.5 95.5q108 0 179 -73.5t71 -180.5q0 -129 -100 -224t-230 -95zM2125 1829
q32 0 47.5 -18t11.5 -50l-238 -1692q-5 -32 -25.5 -50.5t-52.5 -18.5h-460q-32 0 -47.5 18.5t-11.5 50.5l30 211q-120 -150 -297 -235t-395 -85q-167 0 -285 48t-181 137t-85 215.5t3 283.5l157 1117q4 32 25 50t53 18h460q32 0 47.5 -18t11.5 -50l-128 -909
q-29 -211 32.5 -303.5t212.5 -92.5q175 0 301.5 122t156.5 337l119 846q4 32 25 50t53 18h460z" />
    <glyph glyph-name="yacute" unicode="&#xfd;" horiz-adv-x="2112" 
d="M897 2058l-58 155q-9 27 6 59t45 49l791 445q31 16 60 6t40 -38l98 -256q11 -31 -2.5 -61.5t-46.5 -43.5l-832 -349q-33 -14 -61.5 -4t-39.5 38zM2133 1829q55 0 76 -41t-10 -93l-959 -1551q-151 -244 -280 -401.5t-280 -268t-321.5 -158t-389.5 -47.5q-34 0 -52 18
t-13 53l43 304q7 62 72 69q124 14 220 66t202 167.5t246 324.5l-554 1424q-19 51 14.5 92.5t89.5 41.5h490q44 0 57 -44l301 -869l513 869q24 44 72 44h463z" />
    <glyph glyph-name="thorn" unicode="&#xfe;" horiz-adv-x="2311" 
d="M1432 1878q226 0 399 -102.5t267.5 -288.5t94.5 -427q0 -188 -52 -360t-146.5 -307t-221.5 -235t-284 -153.5t-327 -53.5q-339 0 -487 257l-122 -870q-5 -32 -25.5 -50.5t-52.5 -18.5h-460q-32 0 -48 18.5t-11 50.5l443 3153q4 32 25 50.5t53 18.5h459q32 0 48 -18.5
t12 -50.5l-122 -869q220 256 558 256zM1442 815q50 134 13 252t-149 207q-145 59 -274.5 -17t-167.5 -242q-53 -126 -17 -249.5t153 -210.5q67 -31 138 -25t131.5 37.5t107 96.5t65.5 151z" />
    <glyph glyph-name="ydieresis" unicode="&#xff;" horiz-adv-x="2112" 
d="M773 2061q-107 0 -177.5 73t-70.5 180q0 129 99.5 224.5t229.5 95.5q108 0 178.5 -73t70.5 -181q0 -129 -99.5 -224t-230.5 -95zM1614 2061q-108 0 -178.5 73t-70.5 180q0 129 99.5 224.5t229.5 95.5q108 0 179 -73.5t71 -180.5q0 -129 -100 -224t-230 -95zM2133 1829
q55 0 76 -41t-10 -93l-959 -1551q-151 -244 -280 -401.5t-280 -268t-321.5 -158t-389.5 -47.5q-34 0 -52 18t-13 53l43 304q7 62 72 69q124 14 220 66t202 167.5t246 324.5l-554 1424q-19 51 14.5 92.5t89.5 41.5h490q44 0 57 -44l301 -869l513 869q24 44 72 44h463z" />
    <glyph glyph-name="Amacron" unicode="&#x100;" horiz-adv-x="2696" 
d="M1048 2757q-32 0 -51.5 23t-15.5 54l29 208q5 32 31 55t58 23h1149q32 0 52 -23t15 -55l-30 -208q-4 -31 -29.5 -54t-57.5 -23h-1150zM2549 91q12 -42 -8 -66.5t-63 -24.5h-530q-66 0 -79 60l-110 416h-965l-228 -416q-32 -60 -97 -60h-506q-43 0 -56.5 24.5t9.5 66.5
l1353 2314q34 58 96 58h418q64 0 82 -58zM1026 900h621l-202 766z" />
    <glyph glyph-name="amacron" unicode="&#x101;" horiz-adv-x="2291" 
d="M822 2146q-32 0 -51.5 23t-15.5 54l29 208q5 32 31 55t58 23h1149q32 0 52 -23t15 -55l-30 -208q-4 -31 -29.5 -54t-57.5 -23h-1150zM2232 1761l-159 -1135q-15 -108 -15.5 -195.5t7.5 -140.5t27 -147q15 -80 -63 -103l-346 -93q-53 -16 -84 18q-45 48 -83.5 130.5
t-52.5 171.5q-230 -316 -605 -316q-225 0 -398 103t-267.5 289t-94.5 426q0 158 36.5 304.5t103 268t161 222t208 169.5t247 107t275.5 38q340 0 486 -257l20 140q4 32 25 50t53 18h460q32 0 47.5 -18t11.5 -50zM1071 439q98 0 186 39.5t154 110.5t105 176t39 229
q0 182 -96.5 289.5t-253.5 107.5q-94 0 -181 -38t-154.5 -107t-108 -176t-40.5 -235q0 -185 98.5 -290.5t251.5 -105.5z" />
    <glyph glyph-name="Abreve" unicode="&#x102;" horiz-adv-x="2696" 
d="M1603 2623q-262 0 -428 151t-166 377q0 78 20.5 112.5t68.5 34.5h200q76 0 81 -67q14 -236 276 -236q269 0 346 243q21 60 97 60h200q64 0 64 -61q0 -93 -38 -184t-108.5 -167.5t-163.5 -136t-209.5 -93t-239.5 -33.5zM2549 91q12 -42 -8 -66.5t-63 -24.5h-530
q-66 0 -79 60l-110 416h-965l-228 -416q-32 -60 -97 -60h-506q-43 0 -56.5 24.5t9.5 66.5l1353 2314q34 58 96 58h418q64 0 82 -58zM1026 900h621l-202 766z" />
    <glyph glyph-name="abreve" unicode="&#x103;" horiz-adv-x="2291" 
d="M1377 2012q-262 0 -428 151t-166 377q0 78 20.5 112.5t68.5 34.5h200q76 0 81 -67q14 -236 276 -236q269 0 346 243q21 60 97 60h200q64 0 64 -61q0 -93 -38 -184t-108.5 -167.5t-163.5 -136t-209.5 -93t-239.5 -33.5zM2232 1761l-159 -1135q-15 -108 -15.5 -195.5
t7.5 -140.5t27 -147q15 -80 -63 -103l-346 -93q-53 -16 -84 18q-45 48 -83.5 130.5t-52.5 171.5q-230 -316 -605 -316q-225 0 -398 103t-267.5 289t-94.5 426q0 158 36.5 304.5t103 268t161 222t208 169.5t247 107t275.5 38q340 0 486 -257l20 140q4 32 25 50t53 18h460
q32 0 47.5 -18t11.5 -50zM1071 439q98 0 186 39.5t154 110.5t105 176t39 229q0 182 -96.5 289.5t-253.5 107.5q-94 0 -181 -38t-154.5 -107t-108 -176t-40.5 -235q0 -185 98.5 -290.5t251.5 -105.5z" />
    <glyph glyph-name="Aogonek" unicode="&#x104;" horiz-adv-x="2696" 
d="M2549 91q12 -42 -8 -66.5t-63 -24.5h-261q-122 -77 -199 -174t-77 -202q0 -63 38 -98.5t112 -35.5q39 0 92 12q38 9 56 -5t13 -51l-26 -183q-6 -55 -63 -80q-116 -46 -260 -46q-190 0 -298 97t-108 250q0 170 102 323t270 254l-110 415h-965l-228 -416q-32 -60 -97 -60
h-506q-43 0 -56.5 24.5t9.5 66.5l1353 2314q34 58 96 58h418q64 0 82 -58zM1026 900h621l-202 766z" />
    <glyph glyph-name="aogonek" unicode="&#x105;" horiz-adv-x="2290" 
d="M2232 1761l-159 -1135q-15 -108 -15.5 -195.5t7 -140t26.5 -147.5q6 -27 -2 -47t-20 -29.5t-38 -25.5q-321 -192 -350 -399q-11 -76 24.5 -118t117.5 -42q40 0 93 12q38 9 55.5 -5.5t12.5 -50.5l-26 -183q-8 -57 -63 -80q-122 -46 -261 -46q-208 0 -313.5 116.5
t-80.5 291.5q19 139 107 259t220 214q-83 131 -103 258q-231 -317 -606 -317q-225 0 -398 103t-267.5 289t-94.5 426q0 158 36.5 304.5t103 268t161 222t208 169.5t247 107t275.5 38q340 0 486 -257l20 140q4 32 25 50t53 18h460q32 0 47.5 -18t11.5 -50zM1071 439
q98 0 186 39.5t154 110.5t105 176t39 229q0 182 -96.5 289.5t-253.5 107.5q-94 0 -181 -38t-154.5 -107t-108 -176t-40.5 -235q0 -185 98.5 -290.5t251.5 -105.5z" />
    <glyph glyph-name="Cacute" unicode="&#x106;" horiz-adv-x="2694" 
d="M1531 2635q-33 -14 -61.5 -4t-39.5 38l-58 155q-9 27 6 59t45 49l791 445q31 16 60 6t40 -38l98 -256q11 -31 -2.5 -61.5t-46.5 -43.5zM2488 679q31 -15 37 -42.5t-17 -63.5q-105 -161 -240 -282.5t-285.5 -194.5t-309.5 -109t-327 -36q-194 0 -370 48.5t-320.5 144
t-251 227.5t-165 308.5t-58.5 378.5q0 215 59 411t163 351.5t248 282.5t312.5 211t357 129.5t381.5 45.5q168 0 317 -36t279.5 -109t231.5 -194.5t161 -282.5q13 -35 -1 -62.5t-49 -43.5l-394 -176q-70 -30 -101 38q-70 175 -204 263.5t-312 88.5q-223 0 -404 -112.5
t-284 -312t-103 -446.5q0 -287 156 -463t423 -176q178 0 336 88.5t279 263.5q50 69 112 38z" />
    <glyph glyph-name="cacute" unicode="&#x107;" horiz-adv-x="2104" 
d="M1109 2024q-33 -14 -61.5 -4t-39.5 38l-58 155q-9 27 6 59t45 49l791 445q31 16 60 6t40 -38l98 -256q11 -31 -2.5 -61.5t-46.5 -43.5zM1882 497q36 -19 39.5 -45.5t-18.5 -58.5q-38 -59 -93 -117t-138.5 -118t-180 -105t-223.5 -73.5t-263 -28.5q-186 0 -347.5 57.5
t-281 162.5t-188.5 264.5t-69 352.5q0 199 63 374.5t173 304.5t256 223t316 141t348 47q136 0 255 -28.5t202.5 -73t150 -104.5t105.5 -118t61 -117q14 -33 3.5 -59t-52.5 -45l-364 -166q-27 -15 -47 -10.5t-30 14.5t-22 31q-21 40 -44 70t-58.5 59t-86 44.5t-113.5 15.5
q-224 0 -359.5 -150.5t-135.5 -412.5q0 -185 97.5 -287t269.5 -102q63 0 117 15.5t96.5 44.5t73 58.5t62.5 69.5q13 16 23.5 25.5t23.5 16t28.5 4.5t33.5 -11z" />
    <glyph glyph-name="Cdotaccent" unicode="&#x10a;" horiz-adv-x="2694" 
d="M1723 2636q-123 0 -203.5 83.5t-80.5 206.5q0 147 113.5 255.5t261.5 108.5q123 0 204 -83.5t81 -205.5q0 -147 -114 -256t-262 -109zM2488 679q31 -15 37 -42.5t-17 -63.5q-105 -161 -240 -282.5t-285.5 -194.5t-309.5 -109t-327 -36q-194 0 -370 48.5t-320.5 144
t-251 227.5t-165 308.5t-58.5 378.5q0 215 59 411t163 351.5t248 282.5t312.5 211t357 129.5t381.5 45.5q168 0 317 -36t279.5 -109t231.5 -194.5t161 -282.5q13 -35 -1 -62.5t-49 -43.5l-394 -176q-70 -30 -101 38q-70 175 -204 263.5t-312 88.5q-223 0 -404 -112.5
t-284 -312t-103 -446.5q0 -287 156 -463t423 -176q178 0 336 88.5t279 263.5q50 69 112 38z" />
    <glyph glyph-name="cdotaccent" unicode="&#x10b;" horiz-adv-x="2104" 
d="M1301 2025q-123 0 -203.5 83.5t-80.5 206.5q0 147 113.5 255.5t261.5 108.5q123 0 204 -83.5t81 -205.5q0 -147 -114 -256t-262 -109zM1882 497q36 -19 39.5 -45.5t-18.5 -58.5q-38 -59 -93 -117t-138.5 -118t-180 -105t-223.5 -73.5t-263 -28.5q-186 0 -347.5 57.5
t-281 162.5t-188.5 264.5t-69 352.5q0 199 63 374.5t173 304.5t256 223t316 141t348 47q136 0 255 -28.5t202.5 -73t150 -104.5t105.5 -118t61 -117q14 -33 3.5 -59t-52.5 -45l-364 -166q-27 -15 -47 -10.5t-30 14.5t-22 31q-21 40 -44 70t-58.5 59t-86 44.5t-113.5 15.5
q-224 0 -359.5 -150.5t-135.5 -412.5q0 -185 97.5 -287t269.5 -102q63 0 117 15.5t96.5 44.5t73 58.5t62.5 69.5q13 16 23.5 25.5t23.5 16t28.5 4.5t33.5 -11z" />
    <glyph glyph-name="Ccaron" unicode="&#x10c;" horiz-adv-x="2694" 
d="M1964 3208q42 50 102 50h329q51 0 59.5 -29t-31.5 -66l-484 -459q-44 -41 -102 -41h-220q-58 0 -91 41l-356 459q-29 37 -12.5 66t66.5 29h330q61 0 88 -50l130 -223zM2488 679q31 -15 37 -42.5t-17 -63.5q-105 -161 -240 -282.5t-285.5 -194.5t-309.5 -109t-327 -36
q-194 0 -370 48.5t-320.5 144t-251 227.5t-165 308.5t-58.5 378.5q0 215 59 411t163 351.5t248 282.5t312.5 211t357 129.5t381.5 45.5q168 0 317 -36t279.5 -109t231.5 -194.5t161 -282.5q13 -35 -1 -62.5t-49 -43.5l-394 -176q-70 -30 -101 38q-70 175 -204 263.5
t-312 88.5q-223 0 -404 -112.5t-284 -312t-103 -446.5q0 -287 156 -463t423 -176q178 0 336 88.5t279 263.5q50 69 112 38z" />
    <glyph glyph-name="ccaron" unicode="&#x10d;" horiz-adv-x="2104" 
d="M1542 2597q42 50 102 50h329q51 0 59.5 -28.5t-31.5 -66.5l-484 -459q-44 -41 -102 -41h-220q-58 0 -91 41l-356 459q-29 38 -12.5 66.5t66.5 28.5h330q61 0 88 -50l130 -223zM1882 497q36 -19 39.5 -45.5t-18.5 -58.5q-38 -59 -93 -117t-138.5 -118t-180 -105
t-223.5 -73.5t-263 -28.5q-186 0 -347.5 57.5t-281 162.5t-188.5 264.5t-69 352.5q0 199 63 374.5t173 304.5t256 223t316 141t348 47q136 0 255 -28.5t202.5 -73t150 -104.5t105.5 -118t61 -117q14 -33 3.5 -59t-52.5 -45l-364 -166q-27 -15 -47 -10.5t-30 14.5t-22 31
q-21 40 -44 70t-58.5 59t-86 44.5t-113.5 15.5q-224 0 -359.5 -150.5t-135.5 -412.5q0 -185 97.5 -287t269.5 -102q63 0 117 15.5t96.5 44.5t73 58.5t62.5 69.5q13 16 23.5 25.5t23.5 16t28.5 4.5t33.5 -11z" />
    <glyph glyph-name="Dcaron" unicode="&#x10e;" horiz-adv-x="2747" 
d="M1311 2704l-356 459q-29 37 -12.5 66t66.5 29h330q61 0 88 -50l130 -223l192 223q42 50 102 50h329q51 0 59.5 -29t-31.5 -66l-484 -459q-44 -41 -102 -41h-220q-58 0 -91 41zM1490 2440q248 0 460 -71.5t368.5 -204t245.5 -334t89 -448.5q0 -214 -56.5 -405.5t-158 -342
t-241.5 -271t-307.5 -200t-356 -121.5t-386.5 -42h-780h-250q-28 0 -45.5 20.5t-13.5 48.5l324 2302q3 28 26.5 48.5t51.5 20.5h488h542zM1176 496q177 0 328.5 60.5t259.5 168.5t169 264.5t61 341.5q0 283 -164.5 448t-450.5 165h-432l-204 -1448h433z" />
    <glyph glyph-name="dcaron" unicode="&#x10f;" horiz-adv-x="2919" 
d="M2830 2616q46 0 88 -15t78.5 -44.5t58.5 -82t22 -119.5q0 -128 -78.5 -280t-204 -281t-261.5 -200q-21 -10 -40.5 -5.5t-28.5 19.5l-28 38q-12 18 -8 41t25 41q38 34 52 46.5t45.5 45.5t45 55.5t26 56.5t12.5 67q0 37 -15 62t-47 57q-71 70 -71 174q0 133 99 228.5
t230 95.5zM2295 2560q32 0 48 -18.5t12 -50.5l-341 -2422q-5 -32 -25.5 -50.5t-52.5 -18.5h-460q-32 0 -48 18.5t-11 50.5l20 139q-221 -257 -559 -257q-225 0 -398 103t-267.5 289t-94.5 426q0 158 36.5 304.5t103 268t161 222t208 169.5t247 107t275.5 38q339 0 487 -257
l122 870q5 32 25.5 50.5t52.5 18.5h459zM1091 439q98 0 186 39.5t154 110.5t105 176t39 229q0 182 -96.5 289.5t-253.5 107.5q-94 0 -181 -38t-154.5 -107t-108 -176t-40.5 -235q0 -185 98.5 -290.5t251.5 -105.5z" />
    <glyph glyph-name="Dcroat" unicode="&#x110;" horiz-adv-x="2747" 
d="M1490 2440q248 0 460 -71.5t368.5 -204t245.5 -334t89 -448.5q0 -214 -56.5 -405.5t-158 -342t-241.5 -271t-307.5 -200t-356 -121.5t-386.5 -42h-780h-250q-28 0 -45.5 20.5t-13.5 48.5l133 944h-234q-36 0 -53.5 20.5t-12.5 56.5l32 232q5 36 28.5 57t59.5 21h234
l137 971q3 28 26.5 48.5t51.5 20.5h488h542zM1176 496q177 0 328.5 60.5t259.5 168.5t169 264.5t61 341.5q0 283 -164.5 448t-450.5 165h-432l-77 -544h506q36 0 53.5 -21t12.5 -57l-32 -232q-5 -36 -28.5 -56.5t-59.5 -20.5h-506l-73 -517h433z" />
    <glyph glyph-name="dcroat" unicode="&#x111;" horiz-adv-x="2465" 
d="M2569 2277q36 0 53.5 -20.5t12.5 -56.5l-14 -100q-5 -36 -28.5 -56.5t-59.5 -20.5h-244l-275 -1954q-5 -32 -25.5 -50.5t-52.5 -18.5h-460q-32 0 -48 18.5t-11 50.5l20 139q-221 -257 -559 -257q-225 0 -398 103t-267.5 289t-94.5 426q0 158 36.5 304.5t103 268t161 222
t208 169.5t247 107t275.5 38q339 0 487 -257l56 402h-433q-36 0 -54 20.5t-13 56.5l14 100q5 36 28.5 56.5t59.5 20.5h434l30 214q5 32 25.5 50.5t52.5 18.5h459q32 0 48 -18.5t12 -50.5l-30 -214h244zM1091 439q98 0 186 39.5t154 110.5t105 176t39 229q0 182 -96.5 289.5
t-253.5 107.5q-94 0 -181 -38t-154.5 -107t-108 -176t-40.5 -235q0 -185 98.5 -290.5t251.5 -105.5z" />
    <glyph glyph-name="Emacron" unicode="&#x112;" horiz-adv-x="2322" 
d="M881 2757q-32 0 -51.5 23t-15.5 54l29 208q5 32 31 55t58 23h1149q32 0 52 -23t15 -55l-30 -208q-4 -31 -29.5 -54t-57.5 -23h-1150zM2292 2440q32 0 47.5 -18.5t11.5 -50.5l-50 -359q-5 -32 -26 -50t-53 -18h-1275l-67 -472h1115q32 0 48 -18.5t11 -50.5l-45 -324
q-5 -32 -26 -50t-53 -18h-1114l-73 -515h1315q32 0 47.5 -18t11.5 -50l-50 -359q-5 -33 -25.5 -51t-52.5 -18h-1558h-314q-28 0 -45.5 20.5t-13.5 48.5l324 2302q3 28 26.5 48.5t51.5 20.5h488h1344z" />
    <glyph glyph-name="emacron" unicode="&#x113;" horiz-adv-x="2212" 
d="M699 2146q-32 0 -51.5 23t-15.5 54l29 208q5 32 31 55t58 23h1149q32 0 52 -23t15 -55l-30 -208q-4 -31 -29.5 -54t-57.5 -23h-1150zM1270 1878q131 0 245.5 -25.5t215 -79t174 -136.5t123 -198.5t60.5 -265.5t-12 -336h-1378q1 -105 32.5 -188t85 -133.5t120 -76.5
t142.5 -26q253 0 388 181q28 35 51 43t58 -8l300 -156q65 -34 20 -104q-121 -188 -367 -303t-535 -115q-189 0 -349.5 57t-277 162t-182 262.5t-65.5 349.5q0 201 61 376.5t168.5 306t252 224.5t315.5 141.5t354 47.5zM1204 1463q-140 0 -259.5 -82t-185.5 -229h756
q-6 86 -33.5 148t-72 96.5t-95 50.5t-110.5 16z" />
    <glyph glyph-name="Edotaccent" unicode="&#x116;" horiz-adv-x="2322" 
d="M1439 2636q-123 0 -203.5 83.5t-80.5 206.5q0 147 113.5 255.5t261.5 108.5q123 0 204 -83.5t81 -205.5q0 -147 -114 -256t-262 -109zM2292 2440q32 0 47.5 -18.5t11.5 -50.5l-50 -359q-5 -32 -26 -50t-53 -18h-1275l-67 -472h1115q32 0 48 -18.5t11 -50.5l-45 -324
q-5 -32 -26 -50t-53 -18h-1114l-73 -515h1315q32 0 47.5 -18t11.5 -50l-50 -359q-5 -33 -25.5 -51t-52.5 -18h-1558h-314q-28 0 -45.5 20.5t-13.5 48.5l324 2302q3 28 26.5 48.5t51.5 20.5h488h1344z" />
    <glyph glyph-name="edotaccent" unicode="&#x117;" horiz-adv-x="2212" 
d="M1257 2025q-123 0 -203.5 83.5t-80.5 206.5q0 147 113.5 255.5t261.5 108.5q123 0 204 -83.5t81 -205.5q0 -147 -114 -256t-262 -109zM1270 1878q131 0 245.5 -25.5t215 -79t174 -136.5t123 -198.5t60.5 -265.5t-12 -336h-1378q1 -105 32.5 -188t85 -133.5t120 -76.5
t142.5 -26q253 0 388 181q28 35 51 43t58 -8l300 -156q65 -34 20 -104q-121 -188 -367 -303t-535 -115q-189 0 -349.5 57t-277 162t-182 262.5t-65.5 349.5q0 201 61 376.5t168.5 306t252 224.5t315.5 141.5t354 47.5zM1204 1463q-140 0 -259.5 -82t-185.5 -229h756
q-6 86 -33.5 148t-72 96.5t-95 50.5t-110.5 16z" />
    <glyph glyph-name="Eogonek" unicode="&#x118;" horiz-adv-x="2322" 
d="M2292 2440q32 0 47.5 -18.5t11.5 -50.5l-50 -359q-5 -32 -26 -50t-53 -18h-1275l-67 -472h1115q32 0 48 -18.5t11 -50.5l-45 -324q-5 -32 -26 -50t-53 -18h-1114l-73 -515h1315q32 0 47.5 -18t11.5 -50l-50 -359q-5 -33 -25.5 -51t-52.5 -18h-97q-132 -77 -218 -179.5
t-86 -213.5q0 -63 38 -98.5t112 -35.5q39 0 92 12q38 9 56 -5t13 -51l-26 -183q-6 -55 -63 -80q-116 -46 -260 -46q-190 0 -298 97t-108 250q0 152 83 291.5t223 241.5h-1019h-314q-28 0 -45.5 20.5t-13.5 48.5l324 2302q3 28 26.5 48.5t51.5 20.5h488h1344z" />
    <glyph glyph-name="eogonek" unicode="&#x119;" horiz-adv-x="2212" 
d="M1270 1878q131 0 245.5 -25.5t215 -79t174 -136.5t123 -198.5t60.5 -265.5t-12 -336h-1378q1 -105 32.5 -188t85 -133.5t120 -76.5t142.5 -26q253 0 388 181q28 35 51 43t58 -8l300 -156q65 -34 20 -104q-142 -219 -442 -335q-136 -104 -192.5 -197.5t-56.5 -203.5
q0 -75 46 -117.5t129 -42.5q40 0 91 12q76 20 76 -56v-183q0 -57 -52 -80q-111 -46 -254 -46q-210 0 -335.5 112t-125.5 285q0 124 49 235t137 199q-184 4 -339 63t-267.5 164t-176 260t-63.5 344q0 201 61 376.5t168.5 306t252 224.5t315.5 141.5t354 47.5zM1204 1463
q-140 0 -259.5 -82t-185.5 -229h756q-6 86 -33.5 148t-72 96.5t-95 50.5t-110.5 16z" />
    <glyph glyph-name="Ecaron" unicode="&#x11a;" horiz-adv-x="2322" 
d="M1242 2704l-356 459q-29 37 -12.5 66t66.5 29h330q61 0 88 -50l130 -223l192 223q42 50 102 50h329q51 0 59.5 -29t-31.5 -66l-484 -459q-44 -41 -102 -41h-220q-58 0 -91 41zM2292 2440q32 0 47.5 -18.5t11.5 -50.5l-50 -359q-5 -32 -26 -50t-53 -18h-1275l-67 -472
h1115q32 0 48 -18.5t11 -50.5l-45 -324q-5 -32 -26 -50t-53 -18h-1114l-73 -515h1315q32 0 47.5 -18t11.5 -50l-50 -359q-5 -33 -25.5 -51t-52.5 -18h-1558h-314q-28 0 -45.5 20.5t-13.5 48.5l324 2302q3 28 26.5 48.5t51.5 20.5h488h1344z" />
    <glyph glyph-name="ecaron" unicode="&#x11b;" horiz-adv-x="2212" 
d="M1060 2093l-356 459q-29 38 -12.5 66.5t66.5 28.5h330q61 0 88 -50l130 -223l192 223q42 50 102 50h329q51 0 59.5 -28.5t-31.5 -66.5l-484 -459q-44 -41 -102 -41h-220q-58 0 -91 41zM1270 1878q131 0 245.5 -25.5t215 -79t174 -136.5t123 -198.5t60.5 -265.5t-12 -336
h-1378q1 -105 32.5 -188t85 -133.5t120 -76.5t142.5 -26q253 0 388 181q28 35 51 43t58 -8l300 -156q65 -34 20 -104q-121 -188 -367 -303t-535 -115q-189 0 -349.5 57t-277 162t-182 262.5t-65.5 349.5q0 201 61 376.5t168.5 306t252 224.5t315.5 141.5t354 47.5z
M1204 1463q-140 0 -259.5 -82t-185.5 -229h756q-6 86 -33.5 148t-72 96.5t-95 50.5t-110.5 16z" />
    <glyph glyph-name="Gbreve" unicode="&#x11e;" horiz-adv-x="2760" 
d="M1693 2623q-262 0 -428 151t-166 377q0 78 20.5 112.5t68.5 34.5h200q76 0 81 -67q14 -236 276 -236q269 0 346 243q21 60 97 60h200q64 0 64 -61q0 -93 -38 -184t-108.5 -167.5t-163.5 -136t-209.5 -93t-239.5 -33.5zM2692 1921q14 -36 0 -63t-49 -43l-394 -176
q-69 -30 -102 38q-83 157 -212 227.5t-305 70.5q-223 0 -404 -112.5t-284 -312t-103 -446.5q0 -287 156 -463t423 -176q298 0 548 106l64 458q5 36 28.5 56.5t59.5 20.5h409q39 0 57.5 -20.5t13.5 -56.5l-104 -746q-229 -149 -522 -240.5t-626 -91.5q-194 0 -370 48.5
t-320.5 144t-251 227.5t-165 308.5t-58.5 378.5q0 215 59 411t163 351.5t248 282.5t312.5 211t357 129.5t381.5 45.5q167 0 312.5 -31.5t274.5 -97.5t232 -177t171 -262z" />
    <glyph glyph-name="gbreve" unicode="&#x11f;" horiz-adv-x="2212" 
d="M1256 2012q-262 0 -428 151t-166 377q0 78 20.5 112.5t68.5 34.5h200q76 0 81 -67q14 -236 276 -236q269 0 346 243q21 60 97 60h200q64 0 64 -61q0 -93 -38 -184t-108.5 -167.5t-163.5 -136t-209.5 -93t-239.5 -33.5zM2231 1970q30 0 42 -12t8 -40l-51 -361
q-6 -51 -57 -51q-125 0 -212 -81q7 -38 7 -96q0 -139 -69 -262.5t-189.5 -213t-293.5 -142t-372 -52.5h-273q-95 0 -141.5 -34.5t-46.5 -93.5q0 -46 39 -73t116 -27h426q385 0 589 -138t204 -380q0 -110 -35 -207.5t-114.5 -185t-197.5 -150t-295 -99.5t-396 -37
q-437 0 -660.5 131.5t-223.5 348.5q0 242 253 398q-99 43 -152.5 124.5t-53.5 186.5q0 146 91 257.5t265 175.5q-71 67 -109.5 159t-38.5 193q0 139 69 262.5t189.5 213t294 142t372.5 52.5q329 0 532 -147q98 117 223.5 178t260.5 61zM1097 1035q135 0 232 71.5t97 187.5
q0 95 -75 151.5t-189 56.5q-135 0 -232 -71.5t-97 -187.5q0 -95 75 -151.5t189 -56.5zM1024 20q-220 0 -333.5 -64.5t-113.5 -167.5q0 -91 96.5 -141.5t291.5 -50.5q225 0 336 62t111 170q0 87 -97 139.5t-291 52.5z" />
    <glyph glyph-name="Gdotaccent" unicode="&#x120;" horiz-adv-x="2760" 
d="M1696 2636q-123 0 -203.5 83.5t-80.5 206.5q0 147 113.5 255.5t261.5 108.5q123 0 204 -83.5t81 -205.5q0 -147 -114 -256t-262 -109zM2527 1106q39 0 57.5 -20.5t13.5 -56.5l-104 -746q-229 -149 -522 -240.5t-626 -91.5q-194 0 -370 48.5t-320.5 144t-251 227.5
t-165 308.5t-58.5 378.5q0 215 59 411t163 351.5t248 282.5t312.5 211t357 129.5t381.5 45.5q167 0 312.5 -31.5t274.5 -97.5t232 -177t171 -262q14 -36 0 -63t-49 -43l-394 -176q-69 -30 -102 38q-83 157 -212 227.5t-305 70.5q-223 0 -404 -112.5t-284 -312t-103 -446.5
q0 -287 156 -463t423 -176q298 0 548 106l64 458q5 36 28.5 56.5t59.5 20.5h409z" />
    <glyph glyph-name="gdotaccent" unicode="&#x121;" horiz-adv-x="2212" 
d="M1259 2025q-123 0 -203.5 83.5t-80.5 206.5q0 147 113.5 255.5t261.5 108.5q123 0 204 -83.5t81 -205.5q0 -147 -114 -256t-262 -109zM2231 1970q30 0 42 -12t8 -40l-51 -361q-6 -51 -57 -51q-125 0 -212 -81q7 -38 7 -96q0 -139 -69 -262.5t-189.5 -213t-293.5 -142
t-372 -52.5h-273q-95 0 -141.5 -34.5t-46.5 -93.5q0 -46 39 -73t116 -27h426q385 0 589 -138t204 -380q0 -110 -35 -207.5t-114.5 -185t-197.5 -150t-295 -99.5t-396 -37q-437 0 -660.5 131.5t-223.5 348.5q0 242 253 398q-99 43 -152.5 124.5t-53.5 186.5q0 146 91 257.5
t265 175.5q-71 67 -109.5 159t-38.5 193q0 139 69 262.5t189.5 213t294 142t372.5 52.5q329 0 532 -147q98 117 223.5 178t260.5 61zM1097 1035q135 0 232 71.5t97 187.5q0 95 -75 151.5t-189 56.5q-135 0 -232 -71.5t-97 -187.5q0 -95 75 -151.5t189 -56.5zM1412 -172
q0 87 -97 139.5t-291 52.5q-220 0 -333.5 -64.5t-113.5 -167.5q0 -91 96.5 -141.5t291.5 -50.5q225 0 336 62t111 170z" />
    <glyph glyph-name="Gcommaaccent" unicode="&#x122;" horiz-adv-x="2760" 
d="M2527 1106q39 0 57.5 -20.5t13.5 -56.5l-104 -746q-229 -149 -522 -240.5t-626 -91.5q-194 0 -370 48.5t-320.5 144t-251 227.5t-165 308.5t-58.5 378.5q0 215 59 411t163 351.5t248 282.5t312.5 211t357 129.5t381.5 45.5q167 0 312.5 -31.5t274.5 -97.5t232 -177
t171 -262q14 -36 0 -63t-49 -43l-394 -176q-69 -30 -102 38q-83 157 -212 227.5t-305 70.5q-223 0 -404 -112.5t-284 -312t-103 -446.5q0 -287 156 -463t423 -176q298 0 548 106l64 458q5 36 28.5 56.5t59.5 20.5h409zM1233 -220q35 0 68.5 -8.5t65.5 -28.5t56 -49.5
t38.5 -73.5t14.5 -98q0 -95 -46 -207.5t-121 -215t-173 -191.5t-199 -141q-21 -10 -40 -5.5t-29 19.5l-26 37q-12 17 -7.5 40t24.5 40q38 34 52 47t46 46.5t45 56t25.5 56.5t12.5 67q0 36 -15 61.5t-47 56.5q-69 69 -69 172q0 130 98 224.5t226 94.5z" />
    <glyph glyph-name="gcommaaccent" unicode="&#x123;" horiz-adv-x="2212" 
d="M1254 2026q-35 0 -68.5 8.5t-65.5 28.5t-56 49.5t-38.5 73.5t-14.5 98q0 95 46 207.5t121 215t173 191.5t199 141q21 10 40 5.5t29 -19.5l26 -37q12 -17 7.5 -40t-24.5 -40q-38 -34 -52 -47t-46 -46.5t-45 -56t-25.5 -56.5t-12.5 -67q0 -36 15 -61.5t47 -56.5
q69 -69 69 -172q0 -130 -98 -224.5t-226 -94.5zM2231 1970q30 0 42 -12t8 -40l-51 -361q-6 -51 -57 -51q-125 0 -212 -81q7 -38 7 -96q0 -139 -69 -262.5t-189.5 -213t-293.5 -142t-372 -52.5h-273q-95 0 -141.5 -34.5t-46.5 -93.5q0 -46 39 -73t116 -27h426q385 0 589 -138
t204 -380q0 -110 -35 -207.5t-114.5 -185t-197.5 -150t-295 -99.5t-396 -37q-437 0 -660.5 131.5t-223.5 348.5q0 242 253 398q-99 43 -152.5 124.5t-53.5 186.5q0 146 91 257.5t265 175.5q-71 67 -109.5 159t-38.5 193q0 139 69 262.5t189.5 213t294 142t372.5 52.5
q329 0 532 -147q98 117 223.5 178t260.5 61zM1097 1035q135 0 232 71.5t97 187.5q0 95 -75 151.5t-189 56.5q-135 0 -232 -71.5t-97 -187.5q0 -95 75 -151.5t189 -56.5zM1412 -172q0 87 -97 139.5t-291 52.5q-220 0 -333.5 -64.5t-113.5 -167.5q0 -91 96.5 -141.5
t291.5 -50.5q225 0 336 62t111 170z" />
    <glyph glyph-name="Hbar" unicode="&#x126;" horiz-adv-x="2847" 
d="M2976 2138q36 0 53.5 -20.5t12.5 -56.5l-28 -198q-4 -36 -28 -56.5t-60 -20.5h-173l-242 -1717q-4 -29 -27 -49t-51 -20h-488q-28 0 -45.5 20.5t-13.5 48.5l130 924h-1163l-130 -924q-4 -29 -27 -49t-51 -20h-488q-28 0 -45.5 20.5t-13.5 48.5l242 1717h-175
q-36 0 -54 20.5t-13 56.5l28 198q5 36 28.5 56.5t59.5 20.5h175l33 233q3 28 26.5 48.5t51.5 20.5h488q28 0 45.5 -20t13.5 -49l-33 -233h1162l33 233q4 28 27.5 48.5t51.5 20.5h488q28 0 45.5 -20t13.5 -49l-33 -233h174zM2085 1489l42 297h-1162l-42 -297h1162z" />
    <glyph glyph-name="hbar" unicode="&#x127;" horiz-adv-x="2413" 
d="M1726 1869q167 0 285 -48t181 -137t85 -215.5t-3 -283.5l-157 -1116q-5 -32 -25.5 -50.5t-52.5 -18.5h-460q-32 0 -48 18.5t-11 50.5l128 908q30 211 -32 303.5t-213 92.5q-175 0 -301.5 -121.5t-156.5 -336.5l-119 -846q-5 -32 -25.5 -50.5t-52.5 -18.5h-460
q-32 0 -48 18.5t-11 50.5l275 1954h-259q-36 0 -54 20.5t-13 56.5l14 100q5 36 29 56.5t60 20.5h259l30 214q4 32 25 50.5t53 18.5h459q32 0 48 -18.5t12 -50.5l-30 -214h418q36 0 53.5 -20.5t12.5 -56.5l-14 -100q-5 -36 -28.5 -56.5t-59.5 -20.5h-418l-67 -474
q121 150 297 235t395 85z" />
    <glyph glyph-name="Imacron" unicode="&#x12a;" horiz-adv-x="979" 
d="M136 3042q5 32 31 55t58 23h1149q32 0 52 -23t15 -55l-30 -208q-4 -31 -29.5 -54t-57.5 -23h-1150q-32 0 -51.5 23t-15.5 54zM382 2371q4 28 27 48.5t51 20.5h488q29 0 46 -20.5t13 -48.5l-324 -2302q-4 -29 -27 -49t-51 -20h-488q-28 0 -45.5 20.5t-13.5 48.5z" />
    <glyph glyph-name="imacron" unicode="&#x12b;" horiz-adv-x="951" 
d="M37 2431q5 32 31 55t58 23h1149q32 0 52 -23t15 -55l-30 -208q-4 -31 -29.5 -54t-57.5 -23h-1150q-32 0 -51.5 23t-15.5 54zM296 1761q4 32 25 50t53 18h460q32 0 47.5 -18t11.5 -50l-238 -1692q-5 -32 -25.5 -50.5t-52.5 -18.5h-460q-32 0 -48 18.5t-11 50.5z" />
    <glyph glyph-name="Iogonek" unicode="&#x12e;" horiz-adv-x="979" 
d="M948 2440q29 0 46 -20.5t13 -48.5l-324 -2302q-4 -29 -27 -49t-51 -20h-244q-132 -77 -218 -179.5t-86 -213.5q0 -63 38 -98.5t112 -35.5q39 0 92 12q38 9 56 -5t13 -51l-26 -183q-6 -55 -63 -80q-116 -46 -260 -46q-190 0 -298 97t-108 250q0 190 125 356t322 261
l322 2287q4 28 27 48.5t51 20.5h488z" />
    <glyph glyph-name="iogonek" unicode="&#x12f;" horiz-adv-x="951" 
d="M724 2679q123 0 204 -83.5t81 -205.5q0 -147 -114 -256t-262 -109q-123 0 -203.5 83.5t-80.5 206.5q0 147 113.5 255.5t261.5 108.5zM834 1829q32 0 47.5 -18t11.5 -50l-238 -1692q-5 -32 -25.5 -50.5t-52.5 -18.5h-202q-132 -77 -218 -179.5t-86 -213.5q0 -63 38 -98.5
t112 -35.5q39 0 92 12q38 9 56 -5t13 -51l-26 -183q-6 -55 -63 -80q-116 -46 -260 -46q-190 0 -298 97t-108 250q0 186 120.5 350t311.5 260l237 1684q4 32 25 50t53 18h460z" />
    <glyph glyph-name="Idotaccent" unicode="&#x130;" horiz-adv-x="979" 
d="M732 2636q-123 0 -203.5 83.5t-80.5 206.5q0 147 113.5 255.5t261.5 108.5q123 0 204 -83.5t81 -205.5q0 -147 -114 -256t-262 -109zM382 2371q4 28 27 48.5t51 20.5h488q29 0 46 -20.5t13 -48.5l-324 -2302q-4 -29 -27 -49t-51 -20h-488q-28 0 -45.5 20.5t-13.5 48.5z
" />
    <glyph glyph-name="dotlessi" unicode="&#x131;" horiz-adv-x="951" 
d="M296 1761q4 32 25 50t53 18h460q32 0 47.5 -18t11.5 -50l-238 -1692q-5 -32 -25.5 -50.5t-52.5 -18.5h-460q-32 0 -48 18.5t-11 50.5z" />
    <glyph glyph-name="Kcommaaccent" unicode="&#x136;" horiz-adv-x="2671" 
d="M948 2440q29 0 46 -20.5t13 -48.5l-324 -2302q-3 -28 -26 -48.5t-52 -20.5h-488q-28 0 -45.5 20.5t-13.5 48.5l324 2302q4 28 27 48.5t51 20.5h488zM2481 93q23 -38 4.5 -65.5t-66.5 -27.5h-556q-58 0 -87 46l-765 1194l1094 1154q40 46 100 46h517q49 0 60 -27t-25 -66
l-1034 -1078zM1139 -220q35 0 68.5 -8.5t65.5 -28.5t56 -49.5t38.5 -73.5t14.5 -98q0 -95 -46 -207.5t-121 -215t-173 -191.5t-199 -141q-21 -10 -40 -5.5t-29 19.5l-26 37q-12 17 -7.5 40t24.5 40q38 34 52 47t46 46.5t45 56t25.5 56.5t12.5 67q0 36 -15 61.5t-47 56.5
q-69 69 -69 172q0 130 98 224.5t226 94.5z" />
    <glyph glyph-name="kcommaaccent" unicode="&#x137;" horiz-adv-x="2155" 
d="M399 2491q4 32 25 50.5t53 18.5h459q32 0 48 -18.5t12 -50.5l-341 -2422q-5 -32 -25.5 -50.5t-52.5 -18.5h-460q-32 0 -48 18.5t-11 50.5zM1393 0q-64 0 -86 50l-461 927l657 805q37 47 102 47h488q46 0 54.5 -28.5t-21.5 -63.5l-649 -757l474 -887q20 -41 3.5 -67
t-63.5 -26h-498zM901 -220q35 0 68.5 -8.5t65.5 -28.5t56 -49.5t38.5 -73.5t14.5 -98q0 -95 -46 -207.5t-121 -215t-173 -191.5t-199 -141q-21 -10 -40 -5.5t-29 19.5l-26 37q-12 17 -7.5 40t24.5 40q38 34 52 47t46 46.5t45 56t25.5 56.5t12.5 67q0 36 -15 61.5t-47 56.5
q-69 69 -69 172q0 130 98 224.5t226 94.5z" />
    <glyph glyph-name="Lacute" unicode="&#x139;" horiz-adv-x="2123" 
d="M540 2635q-33 -14 -61.5 -4t-39.5 38l-58 155q-9 27 6 59t45 49l791 445q31 16 60 6t40 -38l98 -256q11 -31 -2.5 -61.5t-46.5 -43.5zM1936 514q32 0 48 -18.5t11 -50.5l-53 -376q-5 -32 -25.5 -50.5t-52.5 -18.5h-1747q-28 0 -45.5 20.5t-13.5 48.5l324 2302
q4 28 27 48.5t51 20.5h488q29 0 46.5 -20.5t13.5 -48.5l-262 -1857h1190z" />
    <glyph glyph-name="lacute" unicode="&#x13a;" horiz-adv-x="950" 
d="M544 2755q-33 -14 -61.5 -4t-39.5 38l-58 155q-9 27 6 59t45 49l791 445q31 16 60 6t40 -38l98 -256q11 -31 -2.5 -61.5t-46.5 -43.5zM399 2491q4 32 25 50.5t53 18.5h460q32 0 47.5 -18.5t11.5 -50.5l-341 -2422q-5 -32 -25.5 -50.5t-52.5 -18.5h-460q-32 0 -48 18.5
t-11 50.5z" />
    <glyph glyph-name="Lcommaaccent" unicode="&#x13b;" horiz-adv-x="2123" 
d="M1936 514q32 0 48 -18.5t11 -50.5l-53 -376q-5 -32 -25.5 -50.5t-52.5 -18.5h-1747q-28 0 -45.5 20.5t-13.5 48.5l324 2302q4 28 27 48.5t51 20.5h488q29 0 46.5 -20.5t13.5 -48.5l-262 -1857h1190zM931 -220q35 0 68.5 -8.5t65.5 -28.5t56 -49.5t38.5 -73.5t14.5 -98
q0 -95 -46 -207.5t-121 -215t-173 -191.5t-199 -141q-21 -10 -40 -5.5t-29 19.5l-26 37q-12 17 -7.5 40t24.5 40q38 34 52 47t46 46.5t45 56t25.5 56.5t12.5 67q0 36 -15 61.5t-47 56.5q-69 69 -69 172q0 130 98 224.5t226 94.5z" />
    <glyph glyph-name="lcommaaccent" unicode="&#x13c;" horiz-adv-x="950" 
d="M399 2491q4 32 25 50.5t53 18.5h460q32 0 47.5 -18.5t11.5 -50.5l-341 -2422q-5 -32 -25.5 -50.5t-52.5 -18.5h-460q-32 0 -48 18.5t-11 50.5zM299 -220q35 0 68.5 -8.5t65.5 -28.5t56 -49.5t38.5 -73.5t14.5 -98q0 -95 -46 -207.5t-121 -215t-173 -191.5t-199 -141
q-21 -10 -40 -5.5t-29 19.5l-26 37q-12 17 -7.5 40t24.5 40q38 34 52 47t46 46.5t45 56t25.5 56.5t12.5 67q0 36 -15 61.5t-47 56.5q-69 69 -69 172q0 130 98 224.5t226 94.5z" />
    <glyph glyph-name="Lcaron" unicode="&#x13d;" horiz-adv-x="2123" 
d="M1710 2616q46 0 88 -15t78.5 -44.5t58.5 -82t22 -119.5q0 -128 -78.5 -280t-204 -281t-261.5 -200q-21 -10 -40.5 -5.5t-28.5 19.5l-28 38q-12 18 -8 41t25 41q38 34 52 46.5t45.5 45.5t45 55.5t26 56.5t12.5 67q0 37 -15 62t-47 57q-71 70 -71 174q0 133 99 228.5
t230 95.5zM1936 514q32 0 48 -18.5t11 -50.5l-53 -376q-5 -32 -25.5 -50.5t-52.5 -18.5h-1747q-28 0 -45.5 20.5t-13.5 48.5l324 2302q4 28 27 48.5t51 20.5h488q29 0 46.5 -20.5t13.5 -48.5l-262 -1857h1190z" />
    <glyph glyph-name="lcaron" unicode="&#x13e;" horiz-adv-x="1563" 
d="M1474 2616q46 0 88 -15t78.5 -44.5t58.5 -82t22 -119.5q0 -128 -78.5 -280t-204 -281t-261.5 -200q-21 -10 -40.5 -5.5t-28.5 19.5l-28 38q-12 18 -8 41t25 41q38 34 52 46.5t45.5 45.5t45 55.5t26 56.5t12.5 67q0 37 -15 62t-47 57q-71 70 -71 174q0 133 99 228.5
t230 95.5zM399 2491q4 32 25 50.5t53 18.5h460q32 0 47.5 -18.5t11.5 -50.5l-341 -2422q-5 -32 -25.5 -50.5t-52.5 -18.5h-460q-32 0 -48 18.5t-11 50.5z" />
    <glyph glyph-name="Lslash" unicode="&#x141;" horiz-adv-x="2403" 
d="M2215 514q32 0 48 -18.5t11 -50.5l-53 -376q-5 -32 -25.5 -50.5t-52.5 -18.5h-1747q-28 0 -45.5 20.5t-13.5 48.5l104 740l-239 -107q-35 -16 -61.5 -6.5t-36.5 42.5l-80 241q-11 32 2.5 59.5t48.5 43.5l432 193l154 1096q4 28 27 48.5t51 20.5h488q29 0 46.5 -20.5
t13.5 -48.5l-112 -797l699 313q35 16 61.5 6t37.5 -42l80 -241q10 -33 -3.5 -60.5t-48.5 -42.5l-892 -399l-84 -594h1190z" />
    <glyph glyph-name="lslash" unicode="&#x142;" horiz-adv-x="1394" 
d="M1456 1468q11 -32 -2.5 -59.5t-48.5 -43.5l-359 -160l-160 -1136q-5 -32 -25.5 -50.5t-52.5 -18.5h-460q-32 0 -48 18.5t-11 50.5l120 851l-171 -76q-35 -16 -61.5 -6.5t-37.5 42.5l-80 241q-11 32 3 59.5t49 42.5l363 163l156 1105q4 32 25 50.5t53 18.5h460
q32 0 47.5 -18.5t11.5 -50.5l-115 -820l165 74q36 16 62.5 6.5t37.5 -42.5z" />
    <glyph glyph-name="Nacute" unicode="&#x143;" horiz-adv-x="2789" 
d="M1486 2635q-33 -14 -61.5 -4t-39.5 38l-58 155q-9 27 6 59t45 49l791 445q31 16 60 6t40 -38l98 -256q11 -31 -2.5 -61.5t-46.5 -43.5zM2750 2440q36 0 53.5 -20.5t12.5 -56.5l-324 -2308q-5 -36 -28.5 -57t-59.5 -21h-127q-58 0 -93 34l-1318 1354l-181 -1288
q-5 -36 -28.5 -56.5t-59.5 -20.5h-471q-36 0 -54 20.5t-13 56.5l325 2308q5 36 28 57t60 21h127q58 0 92 -34l1318 -1357l182 1291q5 36 28.5 56.5t59.5 20.5h471z" />
    <glyph glyph-name="nacute" unicode="&#x144;" 
d="M1143 2024q-33 -14 -61.5 -4t-39.5 38l-58 155q-9 27 6 59t45 49l791 445q31 16 60 6t40 -38l98 -256q11 -31 -2.5 -61.5t-46.5 -43.5zM1555 1869q167 0 285 -48t181 -137t85 -215.5t-3 -283.5l-157 -1116q-5 -32 -25.5 -50.5t-52.5 -18.5h-460q-32 0 -48 18.5t-11 50.5
l128 908q30 211 -32 303.5t-213 92.5q-175 0 -301.5 -121.5t-156.5 -336.5l-119 -846q-5 -32 -25.5 -50.5t-52.5 -18.5h-460q-32 0 -48 18.5t-11 50.5l238 1692q4 32 25 50t53 18h460q32 0 47.5 -18t11.5 -50l-30 -212q121 150 297 235t395 85z" />
    <glyph glyph-name="Ncommaaccent" unicode="&#x145;" horiz-adv-x="2789" 
d="M2750 2440q36 0 53.5 -20.5t12.5 -56.5l-324 -2308q-5 -36 -28.5 -57t-59.5 -21h-127q-58 0 -93 34l-1318 1354l-181 -1288q-5 -36 -28.5 -56.5t-59.5 -20.5h-471q-36 0 -54 20.5t-13 56.5l325 2308q5 36 28 57t60 21h127q58 0 92 -34l1318 -1357l182 1291
q5 36 28.5 56.5t59.5 20.5h471zM1258 -220q35 0 68.5 -8.5t65.5 -28.5t56 -49.5t38.5 -73.5t14.5 -98q0 -95 -46 -207.5t-121 -215t-173 -191.5t-199 -141q-21 -10 -40 -5.5t-29 19.5l-26 37q-12 17 -7.5 40t24.5 40q38 34 52 47t46 46.5t45 56t25.5 56.5t12.5 67
q0 36 -15 61.5t-47 56.5q-69 69 -69 172q0 130 98 224.5t226 94.5z" />
    <glyph glyph-name="ncommaaccent" unicode="&#x146;" 
d="M1555 1869q167 0 285 -48t181 -137t85 -215.5t-3 -283.5l-157 -1116q-5 -32 -25.5 -50.5t-52.5 -18.5h-460q-32 0 -48 18.5t-11 50.5l128 908q30 211 -32 303.5t-213 92.5q-175 0 -301.5 -121.5t-156.5 -336.5l-119 -846q-5 -32 -25.5 -50.5t-52.5 -18.5h-460
q-32 0 -48 18.5t-11 50.5l238 1692q4 32 25 50t53 18h460q32 0 47.5 -18t11.5 -50l-30 -212q121 150 297 235t395 85zM944 -220q35 0 68.5 -8.5t65.5 -28.5t56 -49.5t38.5 -73.5t14.5 -98q0 -95 -46 -207.5t-121 -215t-173 -191.5t-199 -141q-21 -10 -40 -5.5t-29 19.5
l-26 37q-12 17 -7.5 40t24.5 40q38 34 52 47t46 46.5t45 56t25.5 56.5t12.5 67q0 36 -15 61.5t-47 56.5q-69 69 -69 172q0 130 98 224.5t226 94.5z" />
    <glyph glyph-name="Ncaron" unicode="&#x147;" horiz-adv-x="2789" 
d="M1919 3208q42 50 102 50h329q51 0 59.5 -29t-31.5 -66l-484 -459q-44 -41 -102 -41h-220q-58 0 -91 41l-356 459q-29 37 -12.5 66t66.5 29h330q61 0 88 -50l130 -223zM2750 2440q36 0 53.5 -20.5t12.5 -56.5l-324 -2308q-5 -36 -28.5 -57t-59.5 -21h-127q-58 0 -93 34
l-1318 1354l-181 -1288q-5 -36 -28.5 -56.5t-59.5 -20.5h-471q-36 0 -54 20.5t-13 56.5l325 2308q5 36 28 57t60 21h127q58 0 92 -34l1318 -1357l182 1291q5 36 28.5 56.5t59.5 20.5h471z" />
    <glyph glyph-name="ncaron" unicode="&#x148;" 
d="M1576 2597q42 50 102 50h329q51 0 59.5 -28.5t-31.5 -66.5l-484 -459q-44 -41 -102 -41h-220q-58 0 -91 41l-356 459q-29 38 -12.5 66.5t66.5 28.5h330q61 0 88 -50l130 -223zM1555 1869q167 0 285 -48t181 -137t85 -215.5t-3 -283.5l-157 -1116q-5 -32 -25.5 -50.5
t-52.5 -18.5h-460q-32 0 -48 18.5t-11 50.5l128 908q30 211 -32 303.5t-213 92.5q-175 0 -301.5 -121.5t-156.5 -336.5l-119 -846q-5 -32 -25.5 -50.5t-52.5 -18.5h-460q-32 0 -48 18.5t-11 50.5l238 1692q4 32 25 50t53 18h460q32 0 47.5 -18t11.5 -50l-30 -212
q121 150 297 235t395 85z" />
    <glyph glyph-name="Eng" unicode="&#x14a;" horiz-adv-x="2790" 
d="M2750 2440q36 0 53.5 -20.5t12.5 -56.5l-317 -2259q-25 -181 -95.5 -327.5t-186.5 -256t-287 -169t-385 -59.5q-31 0 -49 20t-14 50l38 269q4 27 24 45.5t49 23.5q256 36 307 387l24 177l-1058 1101l-181 -1288q-5 -36 -28.5 -56.5t-59.5 -20.5h-471q-36 0 -54 20.5
t-13 56.5l325 2308q5 36 28 57t60 21h127q59 0 92 -34l1318 -1357l182 1291q5 36 28.5 56.5t59.5 20.5h471z" />
    <glyph glyph-name="eng" unicode="&#x14b;" 
d="M1555 1869q167 0 285 -48t181 -137t85 -215.5t-3 -283.5l-152 -1081q-25 -181 -95.5 -327.5t-186.5 -256t-287 -169t-385 -59.5q-31 0 -49 20t-14 50l38 269q4 27 24 45.5t49 23.5q258 37 307 387l125 890q29 212 -32.5 304t-212.5 92q-175 0 -301.5 -121.5
t-156.5 -336.5l-119 -846q-5 -32 -25.5 -50.5t-52.5 -18.5h-460q-32 0 -48 18.5t-11 50.5l238 1692q4 32 25 50t53 18h460q32 0 47.5 -18t11.5 -50l-30 -212q121 150 297 235t395 85z" />
    <glyph glyph-name="Omacron" unicode="&#x14c;" horiz-adv-x="2962" 
d="M1127 3042q5 32 31 55t58 23h1149q32 0 52 -23t15 -55l-30 -208q-4 -31 -29.5 -54t-57.5 -23h-1150q-32 0 -51.5 23t-15.5 54zM1702 2489q194 0 370 -48.5t321 -144t251.5 -227.5t165 -308.5t58.5 -378.5q0 -215 -59 -411t-163.5 -351.5t-248 -282.5t-312.5 -211
t-357.5 -129.5t-381.5 -45.5q-194 0 -370 48.5t-320.5 144t-251 227.5t-165 308.5t-58.5 378.5q0 215 59 411t163 351.5t248 282.5t312.5 211t357 129.5t381.5 45.5zM1418 465q167 0 314 66t251.5 181t165 277t60.5 347q0 287 -156 463t-423 176q-223 0 -404 -112.5
t-284 -312t-103 -446.5q0 -287 156 -463t423 -176z" />
    <glyph glyph-name="omacron" unicode="&#x14d;" horiz-adv-x="2314" 
d="M718 2431q5 32 31 55t58 23h1149q32 0 52 -23t15 -55l-30 -208q-4 -31 -29.5 -54t-57.5 -23h-1150q-32 0 -51.5 23t-15.5 54zM1293 1878q190 0 354.5 -57.5t286 -163t191.5 -264.5t70 -353q0 -199 -63.5 -374t-174.5 -304t-259 -222.5t-321 -141t-355 -47.5
q-190 0 -355 57.5t-286.5 163t-191.5 264.5t-70 353q0 166 45 316.5t124.5 269t189.5 214t240.5 158.5t276.5 97t298 34zM1090 439q94 0 181 38t154.5 107t108 175.5t40.5 234.5q0 185 -98.5 291t-251.5 106q-94 0 -180.5 -38t-154.5 -107t-108.5 -176t-40.5 -235
q0 -185 98.5 -290.5t251.5 -105.5z" />
    <glyph glyph-name="Ohungarumlaut" unicode="&#x150;" horiz-adv-x="2962" 
d="M1471 2662q-23 -29 -56 -37t-57 8l-138 88q-23 16 -27 48.5t15 62.5l486 765q18 28 51.5 36.5t57.5 -6.5l232 -144q26 -18 30.5 -48t-18.5 -59zM2045 2635q-34 -14 -62.5 -4t-39.5 38l-58 155q-9 27 6.5 59t45.5 49l791 445q31 16 60 6t40 -38l98 -256q10 -31 -3 -61.5
t-46 -43.5zM1702 2489q194 0 370 -48.5t321 -144t251.5 -227.5t165 -308.5t58.5 -378.5q0 -215 -59 -411t-163.5 -351.5t-248 -282.5t-312.5 -211t-357.5 -129.5t-381.5 -45.5q-194 0 -370 48.5t-320.5 144t-251 227.5t-165 308.5t-58.5 378.5q0 215 59 411t163 351.5
t248 282.5t312.5 211t357 129.5t381.5 45.5zM1418 465q167 0 314 66t251.5 181t165 277t60.5 347q0 287 -156 463t-423 176q-223 0 -404 -112.5t-284 -312t-103 -446.5q0 -287 156 -463t423 -176z" />
    <glyph glyph-name="ohungarumlaut" unicode="&#x151;" horiz-adv-x="2314" 
d="M1062 2051q-23 -29 -56 -37t-57 8l-138 88q-23 16 -27 48.5t15 62.5l486 765q18 28 51.5 36.5t57.5 -6.5l232 -144q26 -18 30.5 -48t-18.5 -59zM1636 2024q-34 -14 -62.5 -4t-39.5 38l-58 155q-9 27 6.5 59t45.5 49l791 445q31 16 60 6t40 -38l98 -256q10 -31 -3 -61.5
t-46 -43.5zM1293 1878q190 0 354.5 -57.5t286 -163t191.5 -264.5t70 -353q0 -199 -63.5 -374t-174.5 -304t-259 -222.5t-321 -141t-355 -47.5q-190 0 -355 57.5t-286.5 163t-191.5 264.5t-70 353q0 166 45 316.5t124.5 269t189.5 214t240.5 158.5t276.5 97t298 34zM1090 439
q94 0 181 38t154.5 107t108 175.5t40.5 234.5q0 185 -98.5 291t-251.5 106q-94 0 -180.5 -38t-154.5 -107t-108.5 -176t-40.5 -235q0 -185 98.5 -290.5t251.5 -105.5z" />
    <glyph glyph-name="OE" unicode="&#x152;" horiz-adv-x="3888" 
d="M3857 2440q32 0 48 -18.5t12 -50.5l-51 -359q-4 -32 -25.5 -50t-53.5 -18h-1118q98 -210 101 -472h791q32 0 48 -18.5t11 -50.5l-46 -324q-4 -32 -25 -50t-53 -18h-785q-81 -293 -251 -515h1164q32 0 47.5 -18t11.5 -50l-51 -359q-5 -32 -25.5 -50.5t-52.5 -18.5h-1847
q-175 -45 -367 -45q-177 0 -339.5 39t-299.5 114.5t-245 185t-176 250.5t-93.5 312t2.5 368q27 193 100.5 367.5t181.5 312.5t247 250t296.5 186t331 113.5t350.5 39.5q206 0 383 -53h1778zM843 1224q-31 -221 28.5 -392.5t200 -267t340.5 -95.5q149 0 283 55.5t235.5 154.5
t170.5 239.5t92 305.5q31 220 -28.5 392t-200.5 267.5t-340 95.5q-150 0 -284 -55.5t-235.5 -154.5t-170 -239.5t-91.5 -305.5z" />
    <glyph glyph-name="oe" unicode="&#x153;" horiz-adv-x="3706" 
d="M2765 1878q131 0 245.5 -25.5t215 -79t174 -136.5t123 -198.5t60.5 -265.5t-12 -336h-1378q1 -105 32.5 -188t85 -133.5t120 -76.5t142.5 -26q253 0 388 181q28 35 51 43t58 -8l300 -156q65 -34 20 -104q-121 -188 -367 -303t-535 -115q-210 0 -384 69.5t-292 199.5
q-160 -130 -365 -199.5t-425 -69.5q-190 0 -355 57.5t-286.5 163t-191.5 264.5t-70 353q0 166 45 316.5t124.5 269t189.5 214t240.5 158.5t276.5 97t298 34q211 0 390 -69.5t302 -200.5q156 131 357.5 200.5t422.5 69.5zM2699 1463q-140 0 -259.5 -82t-185.5 -229h756
q-6 86 -33.5 148t-72 96.5t-95 50.5t-110.5 16zM1090 439q94 0 181 38t154.5 107t108 175.5t40.5 234.5q0 185 -98.5 291t-251.5 106q-94 0 -180.5 -38t-154.5 -107t-108.5 -176t-40.5 -235q0 -185 98.5 -290.5t251.5 -105.5z" />
    <glyph glyph-name="Racute" unicode="&#x154;" horiz-adv-x="2498" 
d="M1122 2669l-58 155q-9 27 6 59t45 49l791 445q31 16 60 6t40 -38l98 -256q11 -31 -2.5 -61.5t-46.5 -43.5l-832 -349q-33 -14 -61.5 -4t-39.5 38zM1826 904l356 -758q24 -55 -9 -100.5t-95 -45.5h-477q-18 0 -33 10t-22 26l-340 768h-420l-103 -735q-4 -29 -27 -49
t-51 -20h-488q-28 0 -45.5 20.5t-13.5 48.5l324 2302q3 28 26.5 48.5t51.5 20.5h488h556q217 0 387.5 -54t279.5 -150.5t165.5 -226.5t56.5 -286q0 -273 -147.5 -489.5t-419.5 -329.5zM949 1961l-95 -679h364q525 0 525 390q0 289 -430 289h-364z" />
    <glyph glyph-name="racute" unicode="&#x155;" horiz-adv-x="1413" 
d="M672 2024q-33 -14 -61.5 -4t-39.5 38l-58 155q-9 27 6 59t45 49l791 445q31 16 60 6t40 -38l98 -256q11 -31 -2.5 -61.5t-46.5 -43.5zM1400 1864q40 0 55.5 -16t10.5 -53l-69 -489q-5 -31 -23 -45.5t-52 -21.5q-53 -10 -95 -20.5t-99.5 -31.5t-102.5 -47t-94 -67t-84 -91
t-62.5 -121t-39.5 -155l-90 -637q-5 -32 -25.5 -50.5t-52.5 -18.5h-460q-32 0 -48 18.5t-11 50.5l238 1692q4 32 25 50t53 18h460q32 0 47.5 -18t11.5 -50l-41 -292q106 183 266 289t282 106z" />
    <glyph glyph-name="Rcommaaccent" unicode="&#x156;" horiz-adv-x="2498" 
d="M1826 904l356 -758q24 -55 -9 -100.5t-95 -45.5h-477q-18 0 -33 10t-22 26l-340 768h-420l-103 -735q-4 -29 -27 -49t-51 -20h-488q-28 0 -45.5 20.5t-13.5 48.5l324 2302q3 28 26.5 48.5t51.5 20.5h488h556q217 0 387.5 -54t279.5 -150.5t165.5 -226.5t56.5 -286
q0 -273 -147.5 -489.5t-419.5 -329.5zM949 1961l-95 -679h364q525 0 525 390q0 289 -430 289h-364zM995 -220q35 0 68.5 -8.5t65.5 -28.5t56 -49.5t38.5 -73.5t14.5 -98q0 -95 -46 -207.5t-121 -215t-173 -191.5t-199 -141q-21 -10 -40 -5.5t-29 19.5l-26 37q-12 17 -7.5 40
t24.5 40q38 34 52 47t46 46.5t45 56t25.5 56.5t12.5 67q0 36 -15 61.5t-47 56.5q-69 69 -69 172q0 130 98 224.5t226 94.5z" />
    <glyph glyph-name="rcommaaccent" unicode="&#x157;" horiz-adv-x="1413" 
d="M1400 1864q40 0 55.5 -16t10.5 -53l-69 -489q-5 -31 -23 -45.5t-52 -21.5q-53 -10 -95 -20.5t-99.5 -31.5t-102.5 -47t-94 -67t-84 -91t-62.5 -121t-39.5 -155l-90 -637q-5 -32 -25.5 -50.5t-52.5 -18.5h-460q-32 0 -48 18.5t-11 50.5l238 1692q4 32 25 50t53 18h460
q32 0 47.5 -18t11.5 -50l-41 -292q106 183 266 289t282 106zM283 -220q35 0 68.5 -8.5t65.5 -28.5t56 -49.5t38.5 -73.5t14.5 -98q0 -95 -46 -207.5t-121 -215t-173 -191.5t-199 -141q-21 -10 -40 -5.5t-29 19.5l-26 37q-12 17 -7.5 40t24.5 40q38 34 52 47t46 46.5t45 56
t25.5 56.5t12.5 67q0 36 -15 61.5t-47 56.5q-69 69 -69 172q0 130 98 224.5t226 94.5z" />
    <glyph glyph-name="Rcaron" unicode="&#x158;" horiz-adv-x="2498" 
d="M1218 2704l-356 459q-29 37 -12.5 66t66.5 29h330q61 0 88 -50l130 -223l192 223q42 50 102 50h329q51 0 59.5 -29t-31.5 -66l-484 -459q-44 -41 -102 -41h-220q-58 0 -91 41zM1826 904l356 -758q24 -55 -9 -100.5t-95 -45.5h-477q-18 0 -33 10t-22 26l-340 768h-420
l-103 -735q-4 -29 -27 -49t-51 -20h-488q-28 0 -45.5 20.5t-13.5 48.5l324 2302q3 28 26.5 48.5t51.5 20.5h488h556q217 0 387.5 -54t279.5 -150.5t165.5 -226.5t56.5 -286q0 -273 -147.5 -489.5t-419.5 -329.5zM949 1961l-95 -679h364q525 0 525 390q0 289 -430 289h-364z
" />
    <glyph glyph-name="rcaron" unicode="&#x159;" horiz-adv-x="1413" 
d="M1105 2597q42 50 102 50h329q51 0 59.5 -28.5t-31.5 -66.5l-484 -459q-44 -41 -102 -41h-220q-58 0 -91 41l-356 459q-29 38 -12.5 66.5t66.5 28.5h330q61 0 88 -50l130 -223zM1400 1864q40 0 55.5 -16t10.5 -53l-69 -489q-5 -31 -23 -45.5t-52 -21.5q-53 -10 -95 -20.5
t-99.5 -31.5t-102.5 -47t-94 -67t-84 -91t-62.5 -121t-39.5 -155l-90 -637q-5 -32 -25.5 -50.5t-52.5 -18.5h-460q-32 0 -48 18.5t-11 50.5l238 1692q4 32 25 50t53 18h460q32 0 47.5 -18t11.5 -50l-41 -292q106 183 266 289t282 106z" />
    <glyph glyph-name="Sacute" unicode="&#x15a;" horiz-adv-x="2303" 
d="M1221 2635q-33 -14 -61.5 -4t-39.5 38l-58 155q-9 27 6 59t45 49l791 445q31 16 60 6t40 -38l98 -256q11 -31 -2.5 -61.5t-46.5 -43.5zM962 1773q0 -48 29.5 -86t93.5 -69t123.5 -52t160.5 -52q98 -30 151 -47.5t147 -55t148 -71t123 -89.5t106 -116t64 -144.5t27 -182.5
q0 -169 -65.5 -310.5t-177.5 -239.5t-263.5 -166t-322.5 -100t-356 -32q-476 0 -863 235q-58 39 -19 104l185 311q41 69 104 37q177 -95 254 -126q184 -73 404 -73q209 0 325 61.5t116 178.5q0 48 -24.5 88.5t-59.5 69t-98.5 57.5t-115 47.5t-136.5 46.5q-92 30 -141 47.5
t-136 54t-135.5 68t-111.5 84t-96 108.5t-57 133.5t-24 167.5q0 179 76.5 331.5t217 262.5t350 172.5t464.5 62.5q456 0 807 -210q61 -36 20 -102l-178 -296q-42 -72 -115 -30q-62 37 -103.5 58t-119.5 53.5t-166 49t-185 16.5q-215 0 -321 -73t-106 -182z" />
    <glyph glyph-name="sacute" unicode="&#x15b;" horiz-adv-x="1898" 
d="M903 2024q-33 -14 -61.5 -4t-39.5 38l-58 155q-9 27 6 59t45 49l791 445q31 16 60 6t40 -38l98 -256q11 -31 -2.5 -61.5t-46.5 -43.5zM838 1317q0 -38 30.5 -68t81.5 -51.5t117.5 -42t140 -43t147 -49.5t140 -67.5t117.5 -91t81.5 -125t30.5 -165.5q0 -132 -48 -241.5
t-133 -186.5t-202 -130.5t-253.5 -79t-288.5 -25.5q-216 0 -414.5 50.5t-322.5 135.5q-60 41 -22 102l153 255q23 38 52.5 48t57.5 -7q94 -53 154.5 -81.5t155 -52.5t194.5 -24q124 0 198 34t74 104q0 47 -47.5 83.5t-123 63.5t-167 56t-183.5 71t-167.5 96.5t-123 143.5
t-47.5 202q0 200 110.5 347.5t309.5 223.5t463 76q196 0 369 -45.5t288 -119.5q60 -40 23 -102l-144 -238q-42 -74 -105 -37q-211 130 -427 130q-125 0 -197 -40.5t-72 -108.5z" />
    <glyph glyph-name="Scedilla" unicode="&#x15e;" horiz-adv-x="2303" 
d="M1389 2028q-215 0 -321 -73t-106 -182q0 -48 29.5 -86t93.5 -69t123.5 -52t160.5 -52q98 -30 151 -47.5t147 -55t148 -71t123 -89.5t106 -116t64 -144.5t27 -182.5q0 -152 -53 -281.5t-144.5 -224t-218.5 -165.5t-272.5 -111.5t-307.5 -56.5l-73 -134q198 30 316.5 -42
t118.5 -227q0 -107 -47 -193t-126.5 -140.5t-182 -83.5t-217.5 -29q-181 0 -297 79q-54 38 -19 105l30 56q37 72 111 40q90 -45 164 -45q86 0 145 43.5t59 127.5q0 26 -7.5 45.5t-25 31.5t-34.5 20t-46.5 10t-51 3t-57.5 -3t-56.5 -6.5t-57.5 -7.5q-5 -1 -7 -1
q-53 -6 -69.5 11.5t6.5 64.5l143 268q-421 21 -771 233q-58 39 -19 104l185 311q41 69 104 37q177 -95 254 -126q184 -73 404 -73q209 0 325 61.5t116 178.5q0 48 -24.5 88.5t-59.5 69t-98.5 57.5t-115 47.5t-136.5 46.5q-92 30 -141 47.5t-136 54t-135.5 68t-111.5 84
t-96 108.5t-57 133.5t-24 167.5q0 179 76.5 331.5t217 262.5t350 172.5t464.5 62.5q456 0 807 -210q61 -36 20 -102l-178 -296q-42 -72 -115 -30q-62 37 -103.5 58t-119.5 53.5t-166 49t-185 16.5z" />
    <glyph glyph-name="scedilla" unicode="&#x15f;" horiz-adv-x="1898" 
d="M1107 1466q-125 0 -197 -40.5t-72 -108.5q0 -38 30.5 -68t81.5 -51.5t117.5 -42t140 -43t147 -49.5t140 -67.5t117.5 -91t81.5 -125t30.5 -165.5q0 -148 -60.5 -268t-168 -200t-247.5 -127.5t-307 -61.5l-67 -122q198 30 316.5 -42t118.5 -227q0 -107 -47 -193
t-126.5 -140.5t-182 -83.5t-217.5 -29q-181 0 -297 79q-54 38 -19 105l30 56q37 72 111 40q90 -45 164 -45q86 0 145 43.5t59 127.5q0 26 -7.5 45.5t-25 31.5t-34.5 20t-46.5 10t-51 3t-57.5 -3t-56.5 -6.5t-57.5 -7.5q-5 -1 -7 -1q-53 -6 -69.5 11.5t6.5 64.5l140 262
q-179 14 -338 62t-263 119q-60 41 -22 102l153 255q23 38 52.5 48t57.5 -7q94 -53 154.5 -81.5t155 -52.5t194.5 -24q124 0 198 34t74 104q0 47 -47.5 83.5t-123 63.5t-167 56t-183.5 71t-167.5 96.5t-123 143.5t-47.5 202q0 200 110.5 347.5t309.5 223.5t463 76
q196 0 369 -45.5t288 -119.5q60 -40 23 -102l-144 -238q-42 -74 -105 -37q-211 130 -427 130z" />
    <glyph glyph-name="Scaron" unicode="&#x160;" horiz-adv-x="2303" 
d="M1654 3208q42 50 102 50h329q51 0 59.5 -29t-31.5 -66l-484 -459q-44 -41 -102 -41h-220q-58 0 -91 41l-356 459q-29 37 -12.5 66t66.5 29h330q61 0 88 -50l130 -223zM962 1773q0 -48 29.5 -86t93.5 -69t123.5 -52t160.5 -52q98 -30 151 -47.5t147 -55t148 -71t123 -89.5
t106 -116t64 -144.5t27 -182.5q0 -169 -65.5 -310.5t-177.5 -239.5t-263.5 -166t-322.5 -100t-356 -32q-476 0 -863 235q-58 39 -19 104l185 311q41 69 104 37q177 -95 254 -126q184 -73 404 -73q209 0 325 61.5t116 178.5q0 48 -24.5 88.5t-59.5 69t-98.5 57.5t-115 47.5
t-136.5 46.5q-92 30 -141 47.5t-136 54t-135.5 68t-111.5 84t-96 108.5t-57 133.5t-24 167.5q0 179 76.5 331.5t217 262.5t350 172.5t464.5 62.5q456 0 807 -210q61 -36 20 -102l-178 -296q-42 -72 -115 -30q-62 37 -103.5 58t-119.5 53.5t-166 49t-185 16.5
q-215 0 -321 -73t-106 -182z" />
    <glyph glyph-name="scaron" unicode="&#x161;" horiz-adv-x="1898" 
d="M1336 2597q42 50 102 50h329q51 0 59.5 -28.5t-31.5 -66.5l-484 -459q-44 -41 -102 -41h-220q-58 0 -91 41l-356 459q-29 38 -12.5 66.5t66.5 28.5h330q61 0 88 -50l130 -223zM838 1317q0 -38 30.5 -68t81.5 -51.5t117.5 -42t140 -43t147 -49.5t140 -67.5t117.5 -91
t81.5 -125t30.5 -165.5q0 -132 -48 -241.5t-133 -186.5t-202 -130.5t-253.5 -79t-288.5 -25.5q-216 0 -414.5 50.5t-322.5 135.5q-60 41 -22 102l153 255q23 38 52.5 48t57.5 -7q94 -53 154.5 -81.5t155 -52.5t194.5 -24q124 0 198 34t74 104q0 47 -47.5 83.5t-123 63.5
t-167 56t-183.5 71t-167.5 96.5t-123 143.5t-47.5 202q0 200 110.5 347.5t309.5 223.5t463 76q196 0 369 -45.5t288 -119.5q60 -40 23 -102l-144 -238q-42 -74 -105 -37q-211 130 -427 130q-125 0 -197 -40.5t-72 -108.5z" />
    <glyph glyph-name="uni0162" unicode="&#x162;" horiz-adv-x="2497" 
d="M2526 2440q29 0 46.5 -20.5t13.5 -48.5l-53 -376q-5 -28 -27.5 -48.5t-50.5 -20.5h-751l-261 -1857q-5 -29 -27.5 -49t-50.5 -20h-91l-90 -165q198 30 316.5 -42t118.5 -227q0 -107 -47 -193t-126.5 -140.5t-182 -83.5t-217.5 -29q-181 0 -297 79q-54 38 -19 105l30 56
q37 72 111 40q90 -45 164 -45q86 0 145 43.5t59 127.5q0 26 -7.5 45.5t-25 31.5t-34.5 20t-46.5 10t-51 3t-57.5 -3t-56.5 -6.5t-57.5 -7.5q-5 -1 -7 -1q-53 -6 -69.5 11.5t6.5 64.5l163 306h-120q-28 0 -45.5 20.5t-13.5 48.5l261 1857h-750q-28 0 -45.5 20.5t-13.5 48.5
l53 376q3 28 26 48.5t52 20.5h1307h819z" />
    <glyph glyph-name="uni0163" unicode="&#x163;" horiz-adv-x="1757" 
d="M1627 1829q37 0 54.5 -20.5t12.5 -56.5l-46 -324q-5 -36 -28 -56.5t-60 -20.5h-521l-83 -593q-23 -165 14.5 -246.5t164.5 -81.5q104 0 243 72q79 40 102 -33l82 -254q22 -68 -46 -104q-250 -138 -515 -157l-65 -119q198 30 316.5 -42t118.5 -227q0 -107 -47 -193
t-126.5 -140.5t-182 -83.5t-217.5 -29q-181 0 -297 79q-54 38 -19 105l30 56q37 72 111 40q90 -45 164 -45q86 0 145 43.5t59 127.5q0 26 -7.5 45.5t-25 31.5t-34.5 20t-46.5 10t-51 3t-57.5 -3t-56.5 -6.5t-57.5 -7.5q-5 -1 -7 -1q-53 -6 -69.5 11.5t6.5 64.5l146 275
q-226 49 -327 221.5t-63 440.5l101 720h-225q-36 0 -54 20.5t-13 56.5l46 324q5 36 28.5 56.5t59.5 20.5h225l39 274q9 63 89 86l447 126q47 13 67.5 -2t15.5 -53l-61 -431h521z" />
    <glyph glyph-name="Tcaron" unicode="&#x164;" horiz-adv-x="2497" 
d="M1294 2704l-356 459q-29 37 -12.5 66t66.5 29h330q61 0 88 -50l130 -223l192 223q42 50 102 50h329q51 0 59.5 -29t-31.5 -66l-484 -459q-44 -41 -102 -41h-220q-58 0 -91 41zM2526 2440q29 0 46.5 -20.5t13.5 -48.5l-53 -376q-5 -28 -27.5 -48.5t-50.5 -20.5h-751
l-261 -1857q-5 -29 -27.5 -49t-50.5 -20h-489q-28 0 -45.5 20.5t-13.5 48.5l261 1857h-750q-28 0 -45.5 20.5t-13.5 48.5l53 376q3 28 26 48.5t52 20.5h1307h819z" />
    <glyph glyph-name="tcaron" unicode="&#x165;" horiz-adv-x="2246" 
d="M2193 2616q46 0 88 -15t78.5 -44.5t58.5 -82t22 -119.5q0 -128 -78.5 -280t-204 -281t-261.5 -200q-21 -10 -40.5 -5.5t-28.5 19.5l-28 38q-12 18 -8 41t25 41q38 34 52 46.5t45.5 45.5t45 55.5t26 56.5t12.5 67q0 37 -15 62t-47 57q-71 70 -71 174q0 133 99 228.5
t230 95.5zM1627 1829q37 0 54.5 -20.5t12.5 -56.5l-46 -324q-5 -36 -28 -56.5t-60 -20.5h-521l-83 -593q-23 -165 14.5 -246.5t164.5 -81.5q104 0 243 72q79 40 102 -33l82 -254q22 -68 -46 -104q-290 -160 -604 -160q-319 0 -467.5 181t-103.5 499l101 720h-225
q-36 0 -54 20.5t-13 56.5l46 324q5 36 28.5 56.5t59.5 20.5h225l39 274q9 63 89 86l447 126q47 13 67.5 -2t15.5 -53l-61 -431h521z" />
    <glyph glyph-name="Tbar" unicode="&#x166;" horiz-adv-x="2497" 
d="M2526 2440q29 0 46.5 -20.5t13.5 -48.5l-53 -376q-5 -28 -27.5 -48.5t-50.5 -20.5h-751l-57 -400h361q36 0 53.5 -21t12.5 -57l-32 -232q-5 -36 -28.5 -56.5t-59.5 -20.5h-361l-150 -1070q-5 -29 -27.5 -49t-50.5 -20h-489q-28 0 -45.5 20.5t-13.5 48.5l151 1070h-379
q-36 0 -53.5 20.5t-12.5 56.5l32 232q5 36 28.5 57t59.5 21h379l56 400h-750q-28 0 -45.5 20.5t-13.5 48.5l53 376q3 28 26 48.5t52 20.5h1307h819z" />
    <glyph glyph-name="tbar" unicode="&#x167;" horiz-adv-x="1757" 
d="M1627 1829q37 0 54.5 -20.5t12.5 -56.5l-46 -324q-5 -36 -28 -56.5t-60 -20.5h-521l-27 -194h459q36 0 53.5 -21t12.5 -57l-14 -100q-5 -36 -28 -56.5t-60 -20.5h-459l-20 -144q-23 -165 14.5 -246.5t164.5 -81.5q104 0 243 72q79 40 102 -33l82 -254q22 -68 -46 -104
q-290 -160 -604 -160q-319 0 -467.5 181t-103.5 499l38 271h-218q-36 0 -53.5 20.5t-12.5 56.5l14 100q4 36 28 57t60 21h218l27 194h-225q-36 0 -54 20.5t-13 56.5l46 324q5 36 28.5 56.5t59.5 20.5h225l39 274q9 63 89 86l447 126q47 13 67.5 -2t15.5 -53l-61 -431h521z
" />
    <glyph glyph-name="Umacron" unicode="&#x16a;" horiz-adv-x="2727" 
d="M1010 3042q5 32 31 55t58 23h1149q32 0 52 -23t15 -55l-30 -208q-4 -31 -29.5 -54t-57.5 -23h-1150q-32 0 -51.5 23t-15.5 54zM2696 2440q28 0 45.5 -20t13.5 -49l-187 -1331q-31 -217 -115 -395.5t-207.5 -304.5t-284.5 -212.5t-344.5 -127t-387.5 -40.5t-376 40.5
t-308.5 127t-225 212.5t-122.5 304.5t-3 395.5l188 1331q3 28 26.5 48.5t51.5 20.5h488q28 0 45.5 -20t13.5 -49l-169 -1199q-47 -334 64.5 -516t398.5 -182q146 0 261 48t195 140t130.5 219t73.5 291l168 1199q4 28 27.5 48.5t51.5 20.5h488z" />
    <glyph glyph-name="umacron" unicode="&#x16b;" 
d="M681 2431q5 32 31 55t58 23h1149q32 0 52 -23t15 -55l-30 -208q-4 -31 -29.5 -54t-57.5 -23h-1150q-32 0 -51.5 23t-15.5 54zM2125 1829q32 0 47.5 -18t11.5 -50l-238 -1692q-5 -32 -25.5 -50.5t-52.5 -18.5h-460q-32 0 -47.5 18.5t-11.5 50.5l30 211
q-120 -150 -297 -235t-395 -85q-167 0 -285 48t-181 137t-85 215.5t3 283.5l157 1117q4 32 25 50t53 18h460q32 0 47.5 -18t11.5 -50l-128 -909q-29 -211 32.5 -303.5t212.5 -92.5q175 0 301.5 122t156.5 337l119 846q4 32 25 50t53 18h460z" />
    <glyph glyph-name="Uring" unicode="&#x16e;" horiz-adv-x="2727" 
d="M1591 2622q-186 0 -312 126t-126 310q0 145 82.5 272t215.5 200.5t278 73.5q187 0 312.5 -126.5t125.5 -311.5q0 -145 -82 -271.5t-215 -199.5t-279 -73zM1634 2923q87 0 149.5 64t62.5 148q0 71 -44 120.5t-115 49.5q-87 0 -150 -65.5t-63 -150.5q0 -69 44.5 -117.5
t115.5 -48.5zM2696 2440q28 0 45.5 -20t13.5 -49l-187 -1331q-31 -217 -115 -395.5t-207.5 -304.5t-284.5 -212.5t-344.5 -127t-387.5 -40.5t-376 40.5t-308.5 127t-225 212.5t-122.5 304.5t-3 395.5l188 1331q3 28 26.5 48.5t51.5 20.5h488q28 0 45.5 -20t13.5 -49
l-169 -1199q-47 -334 64.5 -516t398.5 -182q146 0 261 48t195 140t130.5 219t73.5 291l168 1199q4 28 27.5 48.5t51.5 20.5h488z" />
    <glyph glyph-name="uring" unicode="&#x16f;" 
d="M1262 2011q-186 0 -312 126t-126 310q0 145 82.5 272t215.5 200.5t278 73.5q187 0 312.5 -126.5t125.5 -311.5q0 -145 -82 -271.5t-215 -199.5t-279 -73zM1305 2312q87 0 149.5 64t62.5 148q0 71 -44 120.5t-115 49.5q-87 0 -150 -65.5t-63 -150.5q0 -69 44.5 -117.5
t115.5 -48.5zM2125 1829q32 0 47.5 -18t11.5 -50l-238 -1692q-5 -32 -25.5 -50.5t-52.5 -18.5h-460q-32 0 -47.5 18.5t-11.5 50.5l30 211q-120 -150 -297 -235t-395 -85q-167 0 -285 48t-181 137t-85 215.5t3 283.5l157 1117q4 32 25 50t53 18h460q32 0 47.5 -18t11.5 -50
l-128 -909q-29 -211 32.5 -303.5t212.5 -92.5q175 0 301.5 122t156.5 337l119 846q4 32 25 50t53 18h460z" />
    <glyph glyph-name="Uhungarumlaut" unicode="&#x170;" horiz-adv-x="2727" 
d="M1354 2662q-23 -29 -56 -37t-57 8l-138 88q-23 16 -27 48.5t15 62.5l486 765q18 28 51.5 36.5t57.5 -6.5l232 -144q26 -18 30.5 -48t-18.5 -59zM1928 2635q-34 -14 -62.5 -4t-39.5 38l-58 155q-9 27 6.5 59t45.5 49l791 445q31 16 60 6t40 -38l98 -256q10 -31 -3 -61.5
t-46 -43.5zM2696 2440q28 0 45.5 -20t13.5 -49l-187 -1331q-31 -217 -115 -395.5t-207.5 -304.5t-284.5 -212.5t-344.5 -127t-387.5 -40.5t-376 40.5t-308.5 127t-225 212.5t-122.5 304.5t-3 395.5l188 1331q3 28 26.5 48.5t51.5 20.5h488q28 0 45.5 -20t13.5 -49
l-169 -1199q-47 -334 64.5 -516t398.5 -182q146 0 261 48t195 140t130.5 219t73.5 291l168 1199q4 28 27.5 48.5t51.5 20.5h488z" />
    <glyph glyph-name="uhungarumlaut" unicode="&#x171;" 
d="M1025 2051q-23 -29 -56 -37t-57 8l-138 88q-23 16 -27 48.5t15 62.5l486 765q18 28 51.5 36.5t57.5 -6.5l232 -144q26 -18 30.5 -48t-18.5 -59zM1599 2024q-34 -14 -62.5 -4t-39.5 38l-58 155q-9 27 6.5 59t45.5 49l791 445q31 16 60 6t40 -38l98 -256q10 -31 -3 -61.5
t-46 -43.5zM2125 1829q32 0 47.5 -18t11.5 -50l-238 -1692q-5 -32 -25.5 -50.5t-52.5 -18.5h-460q-32 0 -47.5 18.5t-11.5 50.5l30 211q-120 -150 -297 -235t-395 -85q-167 0 -285 48t-181 137t-85 215.5t3 283.5l157 1117q4 32 25 50t53 18h460q32 0 47.5 -18t11.5 -50
l-128 -909q-29 -211 32.5 -303.5t212.5 -92.5q175 0 301.5 122t156.5 337l119 846q4 32 25 50t53 18h460z" />
    <glyph glyph-name="Uogonek" unicode="&#x172;" horiz-adv-x="2727" 
d="M2696 2440q28 0 45.5 -20t13.5 -49l-187 -1331q-32 -224 -119.5 -406t-219.5 -310t-297 -211t-361 -121q-127 -77 -208.5 -177.5t-81.5 -207.5q0 -63 38 -98.5t112 -35.5q39 0 92 12q38 9 56 -5t13 -51l-26 -183q-6 -55 -63 -80q-116 -46 -260 -46q-190 0 -298 97
t-108 250q0 139 69.5 268t190.5 230q-182 13 -333.5 62t-271.5 136t-195 212.5t-104 291.5t1 373l188 1331q3 28 26.5 48.5t51.5 20.5h488q28 0 45.5 -20t13.5 -49l-169 -1199q-47 -334 64.5 -516t398.5 -182q146 0 261 48t195 140t130.5 219t73.5 291l168 1199
q4 28 27.5 48.5t51.5 20.5h488z" />
    <glyph glyph-name="uogonek" unicode="&#x173;" 
d="M2125 1829q32 0 47.5 -18t11.5 -50l-238 -1692q-5 -32 -25.5 -50.5t-52.5 -18.5h-178q-132 -77 -218.5 -180t-86.5 -214q0 -63 38 -98.5t112 -35.5q39 0 92 12q38 9 56 -5t13 -51l-26 -183q-6 -55 -63 -80q-116 -46 -260 -46q-190 0 -298 97t-108 250q0 179 113 339
t294 258q1 2 1 6l30 211q-120 -150 -297 -235t-395 -85q-167 0 -285 48t-181 137t-85 215.5t3 283.5l157 1117q4 32 25 50t53 18h460q32 0 47.5 -18t11.5 -50l-128 -909q-29 -211 32.5 -303.5t212.5 -92.5q175 0 301.5 122t156.5 337l119 846q4 32 25 50t53 18h460z" />
    <glyph glyph-name="Wcircumflex" unicode="&#x174;" horiz-adv-x="3609" 
d="M1477 2663q-51 0 -59.5 28.5t31.5 66.5l485 459q44 41 102 41h219q58 0 91 -41l356 -459q29 -38 12.5 -66.5t-66.5 -28.5h-330q-61 0 -88 50l-129 223l-193 -223q-42 -50 -102 -50h-329zM3735 2440q42 0 54 -24t-9 -67l-1125 -2314q-27 -58 -97 -58h-287q-67 0 -81 58
l-316 1380l-698 -1380q-27 -58 -97 -58h-293q-68 0 -80 58l-475 2314q-8 43 10.5 67t60.5 24h512q69 0 79 -60l240 -1406l631 1246q28 60 97 60h275q68 0 80 -60l287 -1246l644 1406q28 60 95 60h493z" />
    <glyph glyph-name="wcircumflex" unicode="&#x175;" horiz-adv-x="2969" 
d="M1061 2052q-51 0 -59.5 29t31.5 66l485 459q44 41 102 41h219q58 0 91 -41l356 -459q29 -37 12.5 -66t-66.5 -29h-330q-61 0 -88 50l-129 223l-193 -223q-42 -50 -102 -50h-329zM2994 1829q52 0 72 -39.5t-6 -89.5l-880 -1679q-24 -44 -73 -44h-225q-49 0 -62 42
l-329 938l-593 -937q-14 -24 -31 -33.5t-43 -9.5h-225q-48 0 -61 44l-409 1679q-12 50 19.5 89.5t83.5 39.5h468q23 0 38.5 -12.5t19.5 -33.5l178 -890l468 766q24 47 76 47h231q54 0 64 -47l252 -766l434 890q9 21 28 33.5t42 12.5h463z" />
    <glyph glyph-name="Ycircumflex" unicode="&#x176;" horiz-adv-x="2568" 
d="M956 2663q-51 0 -59.5 28.5t31.5 66.5l485 459q44 41 102 41h219q58 0 91 -41l356 -459q29 -38 12.5 -66.5t-66.5 -28.5h-330q-61 0 -88 50l-129 223l-193 -223q-42 -50 -102 -50h-329zM2688 2440q43 0 58.5 -27t-10.5 -65l-1149 -1537l-104 -742q-4 -28 -27.5 -48.5
t-51.5 -20.5h-488q-28 0 -45.5 20.5t-13.5 48.5l103 735l-724 1545q-18 37 5 64t66 27h532q30 0 48 -15t31 -45l446 -1041l729 1041q39 60 98 60h497z" />
    <glyph glyph-name="ycircumflex" unicode="&#x177;" horiz-adv-x="2112" 
d="M608 2052q-51 0 -59.5 29t31.5 66l485 459q44 41 102 41h219q58 0 91 -41l356 -459q29 -37 12.5 -66t-66.5 -29h-330q-61 0 -88 50l-129 223l-193 -223q-42 -50 -102 -50h-329zM2133 1829q55 0 76 -41t-10 -93l-959 -1551q-151 -244 -280 -401.5t-280 -268t-321.5 -158
t-389.5 -47.5q-34 0 -52 18t-13 53l43 304q7 62 72 69q124 14 220 66t202 167.5t246 324.5l-554 1424q-19 51 14.5 92.5t89.5 41.5h490q44 0 57 -44l301 -869l513 869q24 44 72 44h463z" />
    <glyph glyph-name="Ydieresis" unicode="&#x178;" horiz-adv-x="2568" 
d="M1121 2672q-107 0 -177.5 73t-70.5 180q0 129 99.5 224.5t229.5 95.5q108 0 178.5 -73t70.5 -181q0 -129 -99.5 -224t-230.5 -95zM1962 2672q-108 0 -178.5 73t-70.5 180q0 129 99.5 224.5t229.5 95.5q108 0 179 -73.5t71 -180.5q0 -129 -100 -224t-230 -95zM2688 2440
q43 0 58.5 -27t-10.5 -65l-1149 -1537l-104 -742q-4 -28 -27.5 -48.5t-51.5 -20.5h-488q-28 0 -45.5 20.5t-13.5 48.5l103 735l-724 1545q-18 37 5 64t66 27h532q30 0 48 -15t31 -45l446 -1041l729 1041q39 60 98 60h497z" />
    <glyph glyph-name="Zacute" unicode="&#x179;" horiz-adv-x="2601" 
d="M1400 2635q-33 -14 -61.5 -4t-39.5 38l-58 155q-9 27 6 59t45 49l791 445q31 16 60 6t40 -38l98 -256q11 -31 -2.5 -61.5t-46.5 -43.5zM85 0q-36 0 -53.5 20.5t-12.5 56.5l16 118q9 56 47 94l1534 1637h-1168q-28 0 -46 20.5t-14 48.5l54 376q3 28 26 48.5t52 20.5h2050
q36 0 53.5 -20.5t12.5 -56.5l-16 -118q-8 -55 -45 -94l-1528 -1637h1303q28 0 46 -20.5t14 -48.5l-53 -376q-4 -28 -27.5 -48.5t-51.5 -20.5h-2193z" />
    <glyph glyph-name="zacute" unicode="&#x17a;" horiz-adv-x="2085" 
d="M1020 2024q-33 -14 -61.5 -4t-39.5 38l-58 155q-9 27 6 59t45 49l791 445q31 16 60 6t40 -38l98 -256q11 -31 -2.5 -61.5t-46.5 -43.5zM35 0q-36 0 -53.5 19.5t-13.5 53.5l4 27q8 52 44 94l1017 1148h-700q-29 0 -46 20.5t-13 48.5l49 350q4 28 27 48t51 20h1568
q37 0 54.5 -18t12.5 -52l-4 -29q-8 -50 -45 -95l-1041 -1165h843q28 0 45.5 -20t13.5 -48l-47 -333q-4 -28 -27 -48.5t-51 -20.5h-1688z" />
    <glyph glyph-name="Zdotaccent" unicode="&#x17b;" horiz-adv-x="2601" 
d="M1592 2636q-123 0 -203.5 83.5t-80.5 206.5q0 147 113.5 255.5t261.5 108.5q123 0 204 -83.5t81 -205.5q0 -147 -114 -256t-262 -109zM85 0q-36 0 -53.5 20.5t-12.5 56.5l16 118q9 56 47 94l1534 1637h-1168q-28 0 -46 20.5t-14 48.5l54 376q3 28 26 48.5t52 20.5h2050
q36 0 53.5 -20.5t12.5 -56.5l-16 -118q-8 -55 -45 -94l-1528 -1637h1303q28 0 46 -20.5t14 -48.5l-53 -376q-4 -28 -27.5 -48.5t-51.5 -20.5h-2193z" />
    <glyph glyph-name="zdotaccent" unicode="&#x17c;" horiz-adv-x="2085" 
d="M1212 2025q-123 0 -203.5 83.5t-80.5 206.5q0 147 113.5 255.5t261.5 108.5q123 0 204 -83.5t81 -205.5q0 -147 -114 -256t-262 -109zM35 0q-36 0 -53.5 19.5t-13.5 53.5l4 27q8 52 44 94l1017 1148h-700q-29 0 -46 20.5t-13 48.5l49 350q4 28 27 48t51 20h1568
q37 0 54.5 -18t12.5 -52l-4 -29q-8 -50 -45 -95l-1041 -1165h843q28 0 45.5 -20t13.5 -48l-47 -333q-4 -28 -27 -48.5t-51 -20.5h-1688z" />
    <glyph glyph-name="Zcaron" unicode="&#x17d;" horiz-adv-x="2601" 
d="M1833 3208q42 50 102 50h329q51 0 59.5 -29t-31.5 -66l-484 -459q-44 -41 -102 -41h-220q-58 0 -91 41l-356 459q-29 37 -12.5 66t66.5 29h330q61 0 88 -50l130 -223zM85 0q-36 0 -53.5 20.5t-12.5 56.5l16 118q9 56 47 94l1534 1637h-1168q-28 0 -46 20.5t-14 48.5
l54 376q3 28 26 48.5t52 20.5h2050q36 0 53.5 -20.5t12.5 -56.5l-16 -118q-8 -55 -45 -94l-1528 -1637h1303q28 0 46 -20.5t14 -48.5l-53 -376q-4 -28 -27.5 -48.5t-51.5 -20.5h-2193z" />
    <glyph glyph-name="zcaron" unicode="&#x17e;" horiz-adv-x="2085" 
d="M1453 2597q42 50 102 50h329q51 0 59.5 -28.5t-31.5 -66.5l-484 -459q-44 -41 -102 -41h-220q-58 0 -91 41l-356 459q-29 38 -12.5 66.5t66.5 28.5h330q61 0 88 -50l130 -223zM35 0q-36 0 -53.5 19.5t-13.5 53.5l4 27q8 52 44 94l1017 1148h-700q-29 0 -46 20.5t-13 48.5
l49 350q4 28 27 48t51 20h1568q37 0 54.5 -18t12.5 -52l-4 -29q-8 -50 -45 -95l-1041 -1165h843q28 0 45.5 -20t13.5 -48l-47 -333q-4 -28 -27 -48.5t-51 -20.5h-1688z" />
    <glyph glyph-name="Scommaaccent" unicode="&#x218;" horiz-adv-x="2303" 
d="M962 1773q0 -48 29.5 -86t93.5 -69t123.5 -52t160.5 -52q98 -30 151 -47.5t147 -55t148 -71t123 -89.5t106 -116t64 -144.5t27 -182.5q0 -169 -65.5 -310.5t-177.5 -239.5t-263.5 -166t-322.5 -100t-356 -32q-476 0 -863 235q-58 39 -19 104l185 311q41 69 104 37
q177 -95 254 -126q184 -73 404 -73q209 0 325 61.5t116 178.5q0 48 -24.5 88.5t-59.5 69t-98.5 57.5t-115 47.5t-136.5 46.5q-92 30 -141 47.5t-136 54t-135.5 68t-111.5 84t-96 108.5t-57 133.5t-24 167.5q0 179 76.5 331.5t217 262.5t350 172.5t464.5 62.5q456 0 807 -210
q61 -36 20 -102l-178 -296q-42 -72 -115 -30q-62 37 -103.5 58t-119.5 53.5t-166 49t-185 16.5q-215 0 -321 -73t-106 -182zM953 -220q35 0 68.5 -8.5t65.5 -28.5t56 -49.5t38.5 -73.5t14.5 -98q0 -95 -46 -207.5t-121 -215t-173 -191.5t-199 -141q-21 -10 -40 -5.5
t-29 19.5l-26 37q-12 17 -7.5 40t24.5 40q38 34 52 47t46 46.5t45 56t25.5 56.5t12.5 67q0 36 -15 61.5t-47 56.5q-69 69 -69 172q0 130 98 224.5t226 94.5z" />
    <glyph glyph-name="scommaaccent" unicode="&#x219;" horiz-adv-x="1898" 
d="M838 1317q0 -38 30.5 -68t81.5 -51.5t117.5 -42t140 -43t147 -49.5t140 -67.5t117.5 -91t81.5 -125t30.5 -165.5q0 -132 -48 -241.5t-133 -186.5t-202 -130.5t-253.5 -79t-288.5 -25.5q-216 0 -414.5 50.5t-322.5 135.5q-60 41 -22 102l153 255q23 38 52.5 48t57.5 -7
q94 -53 154.5 -81.5t155 -52.5t194.5 -24q124 0 198 34t74 104q0 47 -47.5 83.5t-123 63.5t-167 56t-183.5 71t-167.5 96.5t-123 143.5t-47.5 202q0 200 110.5 347.5t309.5 223.5t463 76q196 0 369 -45.5t288 -119.5q60 -40 23 -102l-144 -238q-42 -74 -105 -37
q-211 130 -427 130q-125 0 -197 -40.5t-72 -108.5zM761 -220q35 0 68.5 -8.5t65.5 -28.5t56 -49.5t38.5 -73.5t14.5 -98q0 -95 -46 -207.5t-121 -215t-173 -191.5t-199 -141q-21 -10 -40 -5.5t-29 19.5l-26 37q-12 17 -7.5 40t24.5 40q38 34 52 47t46 46.5t45 56t25.5 56.5
t12.5 67q0 36 -15 61.5t-47 56.5q-69 69 -69 172q0 130 98 224.5t226 94.5z" />
    <glyph glyph-name="uni021A" unicode="&#x21a;" horiz-adv-x="2497" 
d="M2526 2440q29 0 46.5 -20.5t13.5 -48.5l-53 -376q-5 -28 -27.5 -48.5t-50.5 -20.5h-751l-261 -1857q-5 -29 -27.5 -49t-50.5 -20h-489q-28 0 -45.5 20.5t-13.5 48.5l261 1857h-750q-28 0 -45.5 20.5t-13.5 48.5l53 376q3 28 26 48.5t52 20.5h1307h819zM1071 -220
q35 0 68.5 -8.5t65.5 -28.5t56 -49.5t38.5 -73.5t14.5 -98q0 -95 -46 -207.5t-121 -215t-173 -191.5t-199 -141q-21 -10 -40 -5.5t-29 19.5l-26 37q-12 17 -7.5 40t24.5 40q38 34 52 47t46 46.5t45 56t25.5 56.5t12.5 67q0 36 -15 61.5t-47 56.5q-69 69 -69 172
q0 130 98 224.5t226 94.5z" />
    <glyph glyph-name="uni021B" unicode="&#x21b;" horiz-adv-x="1757" 
d="M1627 1829q37 0 54.5 -20.5t12.5 -56.5l-46 -324q-5 -36 -28 -56.5t-60 -20.5h-521l-83 -593q-23 -165 14.5 -246.5t164.5 -81.5q104 0 243 72q79 40 102 -33l82 -254q22 -68 -46 -104q-290 -160 -604 -160q-319 0 -467.5 181t-103.5 499l101 720h-225q-36 0 -54 20.5
t-13 56.5l46 324q5 36 28.5 56.5t59.5 20.5h225l39 274q9 63 89 86l447 126q47 13 67.5 -2t15.5 -53l-61 -431h521zM823 -220q35 0 68.5 -8.5t65.5 -28.5t56 -49.5t38.5 -73.5t14.5 -98q0 -95 -46 -207.5t-121 -215t-173 -191.5t-199 -141q-21 -10 -40 -5.5t-29 19.5l-26 37
q-12 17 -7.5 40t24.5 40q38 34 52 47t46 46.5t45 56t25.5 56.5t12.5 67q0 36 -15 61.5t-47 56.5q-69 69 -69 172q0 130 98 224.5t226 94.5z" />
    <glyph glyph-name="circumflex" unicode="&#x2c6;" horiz-adv-x="1306" 
d="M815 2102l-129 223l-193 -223q-42 -50 -102 -50h-329q-51 0 -59.5 29t31.5 66l485 459q44 41 102 41h219q58 0 91 -41l356 -459q29 -37 12.5 -66t-66.5 -29h-330q-61 0 -88 50z" />
    <glyph glyph-name="caron" unicode="&#x2c7;" horiz-adv-x="1306" 
d="M813 2597q42 50 102 50h329q51 0 59.5 -28.5t-31.5 -66.5l-484 -459q-44 -41 -102 -41h-220q-58 0 -91 41l-356 459q-29 38 -12.5 66.5t66.5 28.5h330q61 0 88 -50l130 -223z" />
    <glyph glyph-name="breve" unicode="&#x2d8;" horiz-adv-x="2408" 
d="M1292 2687q64 0 64 -61q0 -93 -38 -184t-108.5 -167.5t-163.5 -136t-209.5 -93t-239.5 -33.5q-262 0 -428 151t-166 377q0 78 20.5 112.5t68.5 34.5h200q76 0 81 -67q14 -236 276 -236q269 0 346 243q21 60 97 60h200z" />
    <glyph glyph-name="dotaccent" unicode="&#x2d9;" horiz-adv-x="1014" 
d="M461 2025q-123 0 -203.5 83.5t-80.5 206.5q0 147 113.5 255.5t261.5 108.5q123 0 204 -83.5t81 -205.5q0 -147 -114 -256t-262 -109z" />
    <glyph glyph-name="ring" unicode="&#x2da;" horiz-adv-x="990" 
d="M426 1925q-186 0 -312 126t-126 310q0 145 82.5 272t215.5 200.5t278 73.5q187 0 312.5 -126.5t125.5 -311.5q0 -145 -82 -271.5t-215 -199.5t-279 -73zM469 2226q87 0 149.5 64t62.5 148q0 71 -44 120.5t-115 49.5q-87 0 -150 -65.5t-63 -150.5q0 -69 44.5 -117.5
t115.5 -48.5z" />
    <glyph glyph-name="ogonek" unicode="&#x2db;" horiz-adv-x="1711" 
d="M408 -880q-190 0 -298 97t-108 250q0 197 134.5 368.5t342.5 262.5l274 -96q-133 -77 -220 -180.5t-87 -214.5q0 -63 38 -98.5t112 -35.5q39 0 92 12q38 9 56 -5t13 -51l-26 -183q-6 -55 -63 -80q-116 -46 -260 -46z" />
    <glyph glyph-name="tilde" unicode="&#x2dc;" horiz-adv-x="2471" 
d="M1469 2639q37 0 53 -33.5t0 -92.5q-30 -114 -81.5 -201.5t-117 -140t-139.5 -79t-154 -26.5q-82 0 -146.5 22t-104 53t-73.5 62.5t-75.5 53.5t-89.5 22q-71 0 -119 -39.5t-70 -101.5q-29 -72 -93 -72h-105q-38 0 -55.5 21.5t-8.5 60.5q52 240 190 365.5t312 125.5
q82 0 146.5 -21.5t104 -52.5t74 -62t75.5 -52.5t89 -21.5q139 0 189 138q29 72 93 72h106z" />
    <glyph glyph-name="hungarumlaut" unicode="&#x2dd;" horiz-adv-x="1725" 
d="M268 2051q-23 -29 -56 -37t-57 8l-138 88q-23 16 -27 48.5t15 62.5l486 765q18 28 51.5 36.5t57.5 -6.5l232 -144q26 -18 30.5 -48t-18.5 -59zM842 2024q-34 -14 -62.5 -4t-39.5 38l-58 155q-9 27 6.5 59t45.5 49l791 445q31 16 60 6t40 -38l98 -256q10 -31 -3 -61.5
t-46 -43.5z" />
    <glyph glyph-name="uni0326" unicode="&#x326;" horiz-adv-x="0" 
d="M-1752 -220q35 0 68.5 -8.5t65.5 -28.5t56 -49.5t38.5 -73.5t14.5 -98q0 -95 -46 -207.5t-121 -215t-173 -191.5t-199 -141q-21 -10 -40 -5.5t-29 19.5l-26 37q-12 17 -7.5 40t24.5 40q38 34 52 47t46 46.5t45 56t25.5 56.5t12.5 67q0 36 -15 61.5t-47 56.5
q-69 69 -69 172q0 130 98 224.5t226 94.5z" />
    <glyph glyph-name="uni0335" unicode="&#x335;" horiz-adv-x="0" 
 />
    <glyph glyph-name="uni0336" unicode="&#x336;" horiz-adv-x="0" 
d="M-2086 1242q-36 0 -53.5 20.5t-12.5 56.5l32 232q5 36 28.5 57t59.5 21h1365q36 0 53.5 -21t12.5 -57l-32 -232q-5 -36 -28.5 -56.5t-59.5 -20.5h-1365z" />
    <glyph glyph-name="uni0337" unicode="&#x337;" horiz-adv-x="0" 
 />
    <glyph glyph-name="Wgrave" unicode="&#x1e80;" horiz-adv-x="3609" 
d="M1437 2984q-29 13 -34 44t14 61l170 256q19 28 51 38t59 -6l665 -445q25 -17 31.5 -49t-10.5 -59l-101 -155q-18 -28 -50 -38t-61 4zM3735 2440q42 0 54 -24t-9 -67l-1125 -2314q-27 -58 -97 -58h-287q-67 0 -81 58l-316 1380l-698 -1380q-27 -58 -97 -58h-293
q-68 0 -80 58l-475 2314q-8 43 10.5 67t60.5 24h512q69 0 79 -60l240 -1406l631 1246q28 60 97 60h275q68 0 80 -60l287 -1246l644 1406q28 60 95 60h493z" />
    <glyph glyph-name="wgrave" unicode="&#x1e81;" horiz-adv-x="2969" 
d="M1021 2373q-29 13 -34 44t14 61l170 256q19 28 51 38t59 -6l665 -445q25 -17 31.5 -49t-10.5 -59l-101 -155q-18 -28 -50 -38t-61 4zM2994 1829q52 0 72 -39.5t-6 -89.5l-880 -1679q-24 -44 -73 -44h-225q-49 0 -62 42l-329 938l-593 -937q-14 -24 -31 -33.5t-43 -9.5
h-225q-48 0 -61 44l-409 1679q-12 50 19.5 89.5t83.5 39.5h468q23 0 38.5 -12.5t19.5 -33.5l178 -890l468 766q24 47 76 47h231q54 0 64 -47l252 -766l434 890q9 21 28 33.5t42 12.5h463z" />
    <glyph glyph-name="Wacute" unicode="&#x1e82;" horiz-adv-x="3609" 
d="M1766 2669l-58 155q-9 27 6 59t45 49l791 445q31 16 60 6t40 -38l98 -256q11 -31 -2.5 -61.5t-46.5 -43.5l-832 -349q-33 -14 -61.5 -4t-39.5 38zM3735 2440q42 0 54 -24t-9 -67l-1125 -2314q-27 -58 -97 -58h-287q-67 0 -81 58l-316 1380l-698 -1380q-27 -58 -97 -58
h-293q-68 0 -80 58l-475 2314q-8 43 10.5 67t60.5 24h512q69 0 79 -60l240 -1406l631 1246q28 60 97 60h275q68 0 80 -60l287 -1246l644 1406q28 60 95 60h493z" />
    <glyph glyph-name="wacute" unicode="&#x1e83;" horiz-adv-x="2969" 
d="M1350 2058l-58 155q-9 27 6 59t45 49l791 445q31 16 60 6t40 -38l98 -256q11 -31 -2.5 -61.5t-46.5 -43.5l-832 -349q-33 -14 -61.5 -4t-39.5 38zM2994 1829q52 0 72 -39.5t-6 -89.5l-880 -1679q-24 -44 -73 -44h-225q-49 0 -62 42l-329 938l-593 -937q-14 -24 -31 -33.5
t-43 -9.5h-225q-48 0 -61 44l-409 1679q-12 50 19.5 89.5t83.5 39.5h468q23 0 38.5 -12.5t19.5 -33.5l178 -890l468 766q24 47 76 47h231q54 0 64 -47l252 -766l434 890q9 21 28 33.5t42 12.5h463z" />
    <glyph glyph-name="Wdieresis" unicode="&#x1e84;" horiz-adv-x="3609" 
d="M1642 2672q-107 0 -177.5 73t-70.5 180q0 129 99.5 224.5t229.5 95.5q108 0 178.5 -73t70.5 -181q0 -129 -99.5 -224t-230.5 -95zM2483 2672q-108 0 -178.5 73t-70.5 180q0 129 99.5 224.5t229.5 95.5q108 0 179 -73.5t71 -180.5q0 -129 -100 -224t-230 -95zM3735 2440
q42 0 54 -24t-9 -67l-1125 -2314q-27 -58 -97 -58h-287q-67 0 -81 58l-316 1380l-698 -1380q-27 -58 -97 -58h-293q-68 0 -80 58l-475 2314q-8 43 10.5 67t60.5 24h512q69 0 79 -60l240 -1406l631 1246q28 60 97 60h275q68 0 80 -60l287 -1246l644 1406q28 60 95 60h493z
" />
    <glyph glyph-name="wdieresis" unicode="&#x1e85;" horiz-adv-x="2969" 
d="M1226 2061q-107 0 -177.5 73t-70.5 180q0 129 99.5 224.5t229.5 95.5q108 0 178.5 -73t70.5 -181q0 -129 -99.5 -224t-230.5 -95zM2067 2061q-108 0 -178.5 73t-70.5 180q0 129 99.5 224.5t229.5 95.5q108 0 179 -73.5t71 -180.5q0 -129 -100 -224t-230 -95zM2994 1829
q52 0 72 -39.5t-6 -89.5l-880 -1679q-24 -44 -73 -44h-225q-49 0 -62 42l-329 938l-593 -937q-14 -24 -31 -33.5t-43 -9.5h-225q-48 0 -61 44l-409 1679q-12 50 19.5 89.5t83.5 39.5h468q23 0 38.5 -12.5t19.5 -33.5l178 -890l468 766q24 47 76 47h231q54 0 64 -47l252 -766
l434 890q9 21 28 33.5t42 12.5h463z" />
    <glyph glyph-name="Ygrave" unicode="&#x1ef2;" horiz-adv-x="2568" 
d="M916 2984q-29 13 -34 44t14 61l170 256q18 28 50 38t60 -6l665 -445q25 -17 31.5 -49t-10.5 -59l-101 -155q-18 -28 -50 -38t-61 4zM2688 2440q43 0 58.5 -27t-10.5 -65l-1149 -1537l-104 -742q-4 -28 -27.5 -48.5t-51.5 -20.5h-488q-28 0 -45.5 20.5t-13.5 48.5l103 735
l-724 1545q-18 37 5 64t66 27h532q30 0 48 -15t31 -45l446 -1041l729 1041q39 60 98 60h497z" />
    <glyph glyph-name="ygrave" unicode="&#x1ef3;" horiz-adv-x="2112" 
d="M568 2373q-29 13 -34 44t14 61l170 256q18 28 50 38t60 -6l665 -445q25 -17 31.5 -49t-10.5 -59l-101 -155q-18 -28 -50 -38t-61 4zM2133 1829q55 0 76 -41t-10 -93l-959 -1551q-151 -244 -280 -401.5t-280 -268t-321.5 -158t-389.5 -47.5q-34 0 -52 18t-13 53l43 304
q7 62 72 69q124 14 220 66t202 167.5t246 324.5l-554 1424q-19 51 14.5 92.5t89.5 41.5h490q44 0 57 -44l301 -869l513 869q24 44 72 44h463z" />
    <glyph glyph-name="endash" unicode="&#x2013;" horiz-adv-x="2165" 
d="M119 745q-36 0 -54 20.5t-13 56.5l37 267q5 36 29 56.5t60 20.5h1869q36 0 53.5 -20.5t12.5 -56.5l-37 -267q-5 -36 -28.5 -56.5t-59.5 -20.5h-1869z" />
    <glyph glyph-name="emdash" unicode="&#x2014;" horiz-adv-x="3365" 
d="M119 745q-36 0 -54 20.5t-13 56.5l37 267q5 36 29 56.5t60 20.5h3069q36 0 53.5 -20.5t12.5 -56.5l-37 -267q-5 -36 -28.5 -56.5t-59.5 -20.5h-3069z" />
    <glyph glyph-name="quoteleft" unicode="&#x2018;" horiz-adv-x="978" 
d="M587 1499q-52 0 -100 17t-90 51t-67 94t-25 137q0 146 90 320.5t233.5 322t299.5 228.5q24 12 46 7t33 -22l32 -44q14 -20 9 -46.5t-29 -47.5q-42 -37 -59.5 -52.5t-52.5 -52.5t-51 -63.5t-30 -65t-14 -76.5q0 -42 17.5 -71.5t53.5 -65.5q81 -80 81 -199
q0 -152 -113.5 -261.5t-263.5 -109.5z" />
    <glyph glyph-name="quoteright" unicode="&#x2019;" horiz-adv-x="978" 
d="M711 2609q52 0 100 -17t90 -51t67 -94t25 -137q0 -146 -90 -320.5t-233.5 -322t-299.5 -228.5q-24 -12 -46 -7t-33 22l-32 44q-14 20 -9 46.5t29 47.5q42 37 59.5 52.5t52.5 52.5t51 63.5t30 65t14 76.5q0 42 -17.5 71.5t-53.5 65.5q-81 80 -81 199q0 152 113.5 261.5
t263.5 109.5z" />
    <glyph glyph-name="quotesinglbase" unicode="&#x201a;" horiz-adv-x="979" 
d="M431 614q52 0 100 -17t90 -51t67 -94t25 -137q0 -146 -90 -320.5t-233.5 -322t-299.5 -228.5q-24 -12 -46 -7t-33 22l-32 44q-14 20 -9 46.5t29 47.5q42 37 59.5 52.5t52.5 52.5t51 63.5t30 65t14 76.5q0 42 -17.5 71.5t-53.5 65.5q-81 80 -81 199q0 152 113.5 261.5
t263.5 109.5z" />
    <glyph glyph-name="quotedblleft" unicode="&#x201c;" horiz-adv-x="1751" 
d="M587 1499q-52 0 -100 17t-90 51t-67 94t-25 137q0 146 90 320.5t233.5 322t299.5 228.5q24 12 46 7t33 -22l32 -44q14 -20 9 -46.5t-29 -47.5q-42 -37 -59.5 -52.5t-52.5 -52.5t-51 -63.5t-30 -65t-14 -76.5q0 -42 17.5 -71.5t53.5 -65.5q81 -80 81 -199
q0 -152 -113.5 -261.5t-263.5 -109.5zM1361 1499q-52 0 -100 17t-90 51t-67 94t-25 137q0 146 90 320.5t233.5 322t299.5 228.5q24 12 46 7t33 -22l32 -44q14 -20 9 -46.5t-29 -47.5q-42 -37 -59.5 -52.5t-52.5 -52.5t-51 -63.5t-30 -65t-14 -76.5q0 -42 17.5 -71.5
t53.5 -65.5q81 -80 81 -199q0 -152 -113.5 -261.5t-263.5 -109.5z" />
    <glyph glyph-name="quotedblright" unicode="&#x201d;" horiz-adv-x="1752" 
d="M711 2609q52 0 100 -17t90 -51t67 -94t25 -137q0 -146 -90 -320.5t-233.5 -322t-299.5 -228.5q-24 -12 -46 -7t-33 22l-32 44q-14 20 -9 46.5t29 47.5q42 37 59.5 52.5t52.5 52.5t51 63.5t30 65t14 76.5q0 42 -17.5 71.5t-53.5 65.5q-81 80 -81 199q0 152 113.5 261.5
t263.5 109.5zM1485 2609q52 0 100 -17t90 -51t67 -94t25 -137q0 -146 -90 -320.5t-233.5 -322t-299.5 -228.5q-24 -12 -46 -7t-33 22l-32 44q-14 20 -9 46.5t29 47.5q42 37 59.5 52.5t52.5 52.5t51 63.5t30 65t14 76.5q0 42 -17.5 71.5t-53.5 65.5q-81 80 -81 199
q0 152 113.5 261.5t263.5 109.5z" />
    <glyph glyph-name="quotedblbase" unicode="&#x201e;" horiz-adv-x="1752" 
d="M431 614q52 0 100 -17t90 -51t67 -94t25 -137q0 -146 -90 -320.5t-233.5 -322t-299.5 -228.5q-24 -12 -46 -7t-33 22l-32 44q-14 20 -9 46.5t29 47.5q42 37 59.5 52.5t52.5 52.5t51 63.5t30 65t14 76.5q0 42 -17.5 71.5t-53.5 65.5q-81 80 -81 199q0 152 113.5 261.5
t263.5 109.5zM1205 614q52 0 100 -17t90 -51t67 -94t25 -137q0 -146 -90 -320.5t-233.5 -322t-299.5 -228.5q-24 -12 -46 -7t-33 22l-32 44q-14 20 -9 46.5t29 47.5q42 37 59.5 52.5t52.5 52.5t51 63.5t30 65t14 76.5q0 42 -17.5 71.5t-53.5 65.5q-81 80 -81 199
q0 152 113.5 261.5t263.5 109.5z" />
    <glyph glyph-name="dagger" unicode="&#x2020;" horiz-adv-x="1857" 
d="M1823 2049q36 0 53.5 -20.5t12.5 -56.5l-35 -247q-4 -36 -28 -56.5t-60 -20.5h-496l-250 -1779q-4 -32 -25.5 -50.5t-53.5 -18.5h-339q-32 0 -47.5 18.5t-10.5 50.5l250 1779h-497q-36 0 -53.5 20.5t-12.5 56.5l35 247q5 36 28.5 56.5t59.5 20.5h496l90 642
q5 32 25.5 50.5t52.5 18.5h339q32 0 48 -18.5t11 -50.5l-90 -642h497z" />
    <glyph glyph-name="daggerdbl" unicode="&#x2021;" horiz-adv-x="1857" 
d="M1822 2049q36 0 53.5 -20.5t12.5 -56.5l-34 -247q-4 -36 -28 -56.5t-60 -20.5h-496l-104 -736h497q36 0 53.5 -20.5t12.5 -56.5l-35 -247q-5 -36 -28 -56.5t-60 -20.5h-496l-90 -642q-4 -32 -25.5 -50.5t-53.5 -18.5h-339q-32 0 -48 18.5t-11 50.5l90 642h-495
q-37 0 -54.5 20.5t-12.5 56.5l35 247q5 36 28.5 56.5t59.5 20.5h496l103 736h-496q-36 0 -53.5 20.5t-12.5 56.5l34 247q5 36 28.5 56.5t59.5 20.5h497l90 642q5 32 25.5 50.5t52.5 18.5h339q32 0 48 -18.5t11 -50.5l-90 -642h496z" />
    <glyph glyph-name="bullet" unicode="&#x2022;" horiz-adv-x="1308" 
d="M593 452q-181 0 -300.5 123t-119.5 303q0 143 78 268t205.5 198t270.5 73q182 0 301 -123.5t119 -304.5q0 -143 -78 -267.5t-205.5 -197t-270.5 -72.5z" />
    <glyph glyph-name="ellipsis" unicode="&#x2026;" horiz-adv-x="2761" 
d="M371 -40q-123 0 -203.5 83.5t-80.5 205.5q0 147 113.5 256t261.5 109q123 0 204 -83.5t81 -206.5q0 -147 -114 -255.5t-262 -108.5zM1246 -40q-123 0 -203.5 83.5t-80.5 205.5q0 147 113.5 256t261.5 109q123 0 204 -83.5t81 -206.5q0 -147 -114 -255.5t-262 -108.5z
M2122 -40q-123 0 -203.5 83.5t-80.5 205.5q0 147 113.5 256t261.5 109q123 0 204 -83.5t81 -206.5q0 -147 -114 -255.5t-262 -108.5z" />
    <glyph glyph-name="perthousand" unicode="&#x2030;" horiz-adv-x="5136" 
d="M2783 2506q23 -12 29.5 -39t-9.5 -53l-1561 -2534q-16 -25 -44.5 -35t-51.5 2l-181 90q-24 13 -30.5 39.5t9.5 52.5l1561 2534q15 25 44 35t53 -1zM1611 1709q-33 -235 -149.5 -414t-282 -271.5t-354.5 -92.5q-140 0 -256 54.5t-194 153t-110.5 246t-7.5 324.5
q25 178 98.5 326t179 246.5t236.5 153t272 54.5t257 -54.5t193.5 -153t110 -246.5t7.5 -326zM880 1323q109 0 179 104t95 282q15 116 5.5 202.5t-53 136t-117.5 49.5q-108 0 -179 -105t-96 -283q-25 -176 16.5 -281t149.5 -105zM2922 1509q141 0 257 -54.5t193.5 -153
t109.5 -246.5t7 -325q-33 -236 -149.5 -415t-282 -271.5t-354.5 -92.5q-141 0 -256.5 54.5t-193.5 153t-110.5 246.5t-7.5 325t98.5 325t179.5 246.5t237 153t272 54.5zM4397 1509q141 0 257 -54.5t193.5 -153t110 -246.5t7.5 -325t-98.5 -325t-179 -246.5t-236.5 -153
t-272 -54.5t-257 54.5t-193.5 153t-110 246.5t-7.5 325t98.5 325t179 246.5t236.5 153t272 54.5zM2758 343q109 0 179 104.5t95 282.5q15 116 5.5 202t-53 136t-117.5 50q-108 0 -178.5 -105t-96.5 -283q-25 -176 16.5 -281.5t149.5 -105.5zM4233 343q110 0 180 104.5
t95 282.5q25 179 -15.5 283.5t-150.5 104.5q-108 0 -178.5 -105.5t-95.5 -282.5q-14 -115 -4 -201t53.5 -136t115.5 -50z" />
    <glyph glyph-name="guilsinglleft" unicode="&#x2039;" horiz-adv-x="1224" 
d="M1006 1609q49 34 90 11t33 -79l-28 -201q-4 -25 -31 -45l-492 -367l389 -367q21 -19 18 -45l-29 -201q-8 -56 -54.5 -79t-87.5 11l-630 518q-19 16 -16 44l34 238q5 28 28 44z" />
    <glyph glyph-name="guilsinglright" unicode="&#x203a;" horiz-adv-x="1224" 
d="M1043 1091q19 -15 16 -44l-16 -119l-17 -119q-5 -27 -29 -44l-775 -518q-50 -34 -91 -11t-33 79l29 201q3 25 31 45l492 367l-389 367q-22 20 -18 45l28 201q7 56 54.5 78.5t87.5 -10.5z" />
    <glyph glyph-name="fraction" unicode="&#x2044;" horiz-adv-x="1405" 
d="M1436 2526q13 25 41 35t53 -2l166 -80q24 -11 32 -38t-5 -53l-1437 -2631q-14 -25 -42 -35t-52 2l-166 79q-25 13 -33 40t6 52z" />
    <glyph glyph-name="Euro" unicode="&#x20ac;" horiz-adv-x="2917" 
d="M2914 1867q14 -35 -0.5 -62.5t-49.5 -43.5l-394 -176q-70 -31 -101 38q-70 175 -204 263.5t-312 88.5q-207 0 -378.5 -98t-277.5 -271h801l-206 -272h-705q-25 -114 -25 -230v-4h761l-202 -271h-513q62 -171 200.5 -267.5t333.5 -96.5q178 0 335.5 88.5t278.5 263.5
q50 69 112 38l344 -176q31 -15 37 -42.5t-17 -63.5q-106 -161 -241 -282.5t-285.5 -194.5t-309.5 -109t-327 -36q-214 0 -406 60.5t-343 171.5t-254.5 277t-141.5 369h-319l38 271h262q3 124 25 234h-254l38 272h298q86 204 235.5 371.5t335.5 279t402.5 172t440.5 60.5
q168 0 317 -36t279 -109t231 -194.5t161 -282.5z" />
    <glyph glyph-name="trademark" unicode="&#x2122;" horiz-adv-x="3615" 
d="M3607 2456q23 0 34 -13t7 -35l-201 -1433q-3 -22 -17.5 -35t-37.5 -13h-292q-23 0 -34 13t-7 35l103 736l-527 -578q-17 -19 -36.5 -18.5t-31.5 18.5l-365 578l-103 -736q-3 -22 -17.5 -35t-36.5 -13h-293q-23 0 -34 13t-7 35l201 1433q3 22 17.5 35t37.5 13h127
q34 0 55 -28l523 -797l722 797q27 28 64 28h149zM1694 2442q18 0 29 -12.5t9 -30.5l-33 -233q-3 -17 -17.5 -30t-31.5 -13h-466l-162 -1153q-3 -18 -17 -30.5t-31 -12.5h-304q-17 0 -28 12.5t-9 30.5l162 1153h-465q-17 0 -28 13t-9 30l33 233q1 18 15.5 30.5t32.5 12.5h812
h508z" />
    <glyph glyph-name="oneeighth" unicode="&#x215b;" horiz-adv-x="4188" 
d="M2683 2536q24 -11 32 -38t-5 -53l-1437 -2631q-14 -25 -42 -35t-52 2l-166 79q-25 13 -33 40t6 52l1437 2631q13 25 41 35t53 -2zM1048 838q-2 -19 -17.5 -32t-33.5 -13h-322q-18 0 -29.5 13t-9.5 32l167 1183l-263 -118q-19 -8 -36.5 -2t-22.5 24l-68 209q-6 18 3 35.5
t28 25.5l426 189q30 13 63 13h289q18 0 29.5 -13t9.5 -32zM3449 852q115 -46 182 -142t67 -220q0 -107 -50 -201.5t-143 -166t-237 -113t-321 -41.5q-151 0 -270.5 32.5t-194.5 90.5t-114 134t-39 166q0 158 100.5 280t263.5 181q-91 41 -147.5 122t-56.5 190q0 97 47 182.5
t133 150.5t218.5 102.5t293.5 37.5q275 0 424 -108.5t149 -276.5q0 -140 -86 -243.5t-219 -156.5zM3143 1359q-110 0 -184.5 -58.5t-74.5 -146.5q0 -73 57 -119t150 -46q110 0 184 58.5t74 147.5q0 72 -57 118t-149 46zM2990 274q134 0 214.5 68.5t80.5 172.5
q0 85 -61.5 137.5t-172.5 52.5q-134 0 -215 -68.5t-81 -172.5q0 -85 62 -137.5t173 -52.5z" />
    <glyph glyph-name="threeeighths" unicode="&#x215c;" horiz-adv-x="4147" 
d="M2944 2536q24 -11 32 -38t-5 -53l-1437 -2631q-14 -25 -42 -35t-52 2l-166 79q-25 13 -33 40t6 52l1437 2631q13 25 41 35t53 -2zM1519 1280q0 -156 -93 -274t-258.5 -181.5t-379.5 -63.5q-221 0 -366 67.5t-253 188.5q-13 14 -18 23t-3 22.5t16 28.5l154 157
q16 16 26.5 23.5t23.5 7.5t26 -11q43 -39 63.5 -56.5t63.5 -47.5t77.5 -43.5t86.5 -25t110 -11.5q135 0 222 52.5t87 145.5q0 79 -88.5 136.5t-273.5 63.5q-20 1 -31.5 13.5t-8.5 31.5l21 152q2 19 17 31.5t36 14.5q106 4 184.5 26t121 55.5t62.5 71t20 80.5q0 70 -56.5 109
t-160.5 39q-78 0 -155.5 -24t-127.5 -51.5t-125 -76.5q-28 -14 -41 -9t-29 29l-100 145q-8 11 -9 21t4.5 19.5t12 16.5t18.5 17q140 113 312 175t361 62q250 0 381 -106t131 -273q0 -140 -83 -250t-241 -180q263 -101 263 -341zM3710 852q115 -46 182 -142t67 -220
q0 -107 -50 -201.5t-143 -166t-237 -113t-321 -41.5q-151 0 -270.5 32.5t-194.5 90.5t-114 134t-39 166q0 158 100.5 280t263.5 181q-91 41 -147.5 122t-56.5 190q0 97 47 182.5t133 150.5t218.5 102.5t293.5 37.5q275 0 424 -108.5t149 -276.5q0 -140 -86 -243.5
t-219 -156.5zM3404 1359q-110 0 -184.5 -58.5t-74.5 -146.5q0 -73 57 -119t150 -46q110 0 184 58.5t74 147.5q0 72 -57 118t-149 46zM3251 274q134 0 214.5 68.5t80.5 172.5q0 85 -61.5 137.5t-172.5 52.5q-134 0 -215 -68.5t-81 -172.5q0 -85 62 -137.5t173 -52.5z" />
    <glyph glyph-name="fiveeighths" unicode="&#x215d;" horiz-adv-x="4167" 
d="M2944 2536q24 -11 32 -38t-5 -53l-1437 -2631q-14 -25 -42 -35t-52 2l-166 79q-25 13 -33 40t6 52l1437 2631q13 25 41 35t53 -2zM1547 1364q0 -176 -93 -313.5t-261 -213.5t-383 -76q-218 0 -365.5 61.5t-257.5 177.5q-13 14 -18.5 23.5t-3 23t16.5 27.5l154 158
q16 16 26.5 23.5t23.5 7.5t27 -11q65 -57 111.5 -88t121.5 -55.5t165 -24.5q136 0 226.5 68.5t90.5 182.5q0 84 -63 139t-189 55q-169 0 -305 -63q-17 -6 -32 1l-180 108q-24 14 -16 41l185 731q10 50 58 50h948q19 0 30 -13t8 -32l-32 -228q-2 -18 -17.5 -31t-33.5 -13
h-669l-81 -316q111 45 282 45q237 -5 381.5 -117.5t144.5 -327.5zM3710 852q115 -46 182 -142t67 -220q0 -107 -50 -201.5t-143 -166t-237 -113t-321 -41.5q-151 0 -270.5 32.5t-194.5 90.5t-114 134t-39 166q0 158 100.5 280t263.5 181q-91 41 -147.5 122t-56.5 190
q0 97 47 182.5t133 150.5t218.5 102.5t293.5 37.5q275 0 424 -108.5t149 -276.5q0 -140 -86 -243.5t-219 -156.5zM3404 1359q-110 0 -184.5 -58.5t-74.5 -146.5q0 -73 57 -119t150 -46q110 0 184 58.5t74 147.5q0 72 -57 118t-149 46zM3251 274q134 0 214.5 68.5t80.5 172.5
q0 85 -61.5 137.5t-172.5 52.5q-134 0 -215 -68.5t-81 -172.5q0 -85 62 -137.5t173 -52.5z" />
    <glyph glyph-name="seveneighths" unicode="&#x215e;" horiz-adv-x="3935" 
d="M2700 2536q24 -11 32 -38t-5 -53l-1437 -2631q-14 -25 -42 -35t-52 2l-166 79q-25 13 -33 40t6 52l1437 2631q13 25 41 35t53 -2zM1622 2269q-4 -27 -29 -62l-852 -1391q-15 -23 -39 -23h-338q-33 0 -45 24.5t7 55.5l735 1186h-768q-18 0 -29.5 13.5t-9.5 32.5l35 247
q2 19 17 32t34 13h1248q24 0 35.5 -13.5t8.5 -36.5zM3466 852q115 -46 182 -142t67 -220q0 -107 -50 -201.5t-143 -166t-237 -113t-321 -41.5q-151 0 -270.5 32.5t-194.5 90.5t-114 134t-39 166q0 158 100.5 280t263.5 181q-91 41 -147.5 122t-56.5 190q0 97 47 182.5
t133 150.5t218.5 102.5t293.5 37.5q275 0 424 -108.5t149 -276.5q0 -140 -86 -243.5t-219 -156.5zM3160 1359q-110 0 -184.5 -58.5t-74.5 -146.5q0 -73 57 -119t150 -46q110 0 184 58.5t74 147.5q0 72 -57 118t-149 46zM3007 274q134 0 214.5 68.5t80.5 172.5
q0 85 -61.5 137.5t-172.5 52.5q-134 0 -215 -68.5t-81 -172.5q0 -85 62 -137.5t173 -52.5z" />
    <glyph glyph-name="partialdiff" unicode="&#x2202;" horiz-adv-x="2195" 
d="M959 2635q190 -44 348 -115.5t271.5 -157t202.5 -192t144.5 -213t92.5 -227t52.5 -227t19 -220t-2.5 -200t-18 -171.5q-31 -223 -132 -406.5t-248.5 -304t-330.5 -185.5t-382 -65q-206 0 -378.5 64.5t-288.5 179.5t-169 282t-25 363q27 196 121.5 363t234 282
t316.5 179.5t367 64.5q192 0 339 -88q-147 454 -716 635q-35 12 -45 42.5t10 63.5l131 219q31 48 86 34zM1045 439q159 0 280 113.5t146 287.5t-64.5 287.5t-249.5 113.5t-280.5 -113.5t-144.5 -287.5q-25 -174 64 -287.5t249 -113.5z" />
    <glyph glyph-name="emptyset" unicode="&#x2205;" horiz-adv-x="2885" 
d="M2890 2129q20 -26 12.5 -56t-37.5 -56l-374 -323q150 -280 103 -619q-25 -181 -106 -351.5t-204.5 -307.5t-276.5 -240t-332.5 -159.5t-361.5 -56.5q-345 0 -604 193l-374 -324q-31 -27 -61 -30t-53 21l-179 209q-20 27 -12.5 57t37.5 55l376 325q-144 277 -98 609
q32 226 150.5 432.5t290.5 355.5t392.5 237.5t448.5 88.5q338 0 594 -185l376 325q31 27 61 30.5t53 -20.5zM845 1075q-19 -137 7 -255l982 849q-121 62 -272 62q-176 0 -330 -81.5t-257 -232t-130 -342.5zM2094 1075q21 144 -10 267l-988 -855q124 -68 282 -68
q176 0 329.5 81.5t256.5 232t130 342.5z" />
    <glyph glyph-name="product" unicode="&#x220f;" horiz-adv-x="2209" 
d="M2248 2940q28 0 45.5 -20.5t13.5 -48.5l-464 -3302q-4 -28 -27 -48.5t-51 -20.5h-258q-28 0 -45.5 20.5t-13.5 48.5l421 3000h-1065l-421 -3000q-4 -28 -27 -48.5t-51 -20.5h-258q-29 0 -46.5 20.5t-13.5 48.5l465 3302q4 29 27 49t51 20h1583h135z" />
    <glyph glyph-name="summation" unicode="&#x2211;" horiz-adv-x="2166" 
d="M2273 2642q-6 -36 -29.5 -56.5t-59.5 -20.5h-1197l652 -1311q16 -34 -10 -68l-1021 -1315h1197q37 0 54.5 -20.5t12.5 -56.5l-31 -217q-5 -36 -28 -56.5t-60 -20.5h-1662q-36 0 -54 20.5t-13 56.5l20 137q12 79 53 131l1089 1375l-704 1370q-26 53 -16 131l20 137
q5 36 28 57t60 21h1662q36 0 54 -21t13 -57z" />
    <glyph glyph-name="minus" unicode="&#x2212;" horiz-adv-x="2146" 
d="M257 888q-36 0 -54 20.5t-13 56.5l37 267q5 36 29 56.5t60 20.5h1625q36 0 53.5 -20.5t12.5 -56.5l-37 -267q-4 -36 -28 -56.5t-60 -20.5h-1625z" />
    <glyph glyph-name="radical" unicode="&#x221a;" horiz-adv-x="2448" 
d="M2147 2915q19 45 67 45h418q44 0 62.5 -32t-2.5 -74l-1393 -2812q-21 -42 -66 -42h-413q-42 0 -53 38l-347 1267h-284q-30 0 -47 20t-12 50l36 264q4 31 27 50.5t53 19.5h674q44 0 54 -42l208 -993z" />
    <glyph glyph-name="infinity" unicode="&#x221e;" horiz-adv-x="2959" 
d="M2125 1759q138 0 260 -47.5t212.5 -132.5t143 -211t52.5 -276t-52.5 -276t-143 -211t-212.5 -132.5t-260 -47.5q-198 0 -342 96t-278 287q-135 -191 -279 -287t-342 -96q-138 0 -260 47.5t-212.5 132.5t-143 211t-52.5 276t52.5 276t143 211t212.5 132.5t260 47.5
q198 0 342 -96t279 -287q134 191 278 287t342 96zM890 812q43 0 84 15.5t71.5 37t65 60t57.5 68.5t57 79q9 13 14 20q-91 128 -130 170q-103 110 -219 110q-99 0 -160.5 -81.5t-61.5 -198.5t61.5 -198.5t160.5 -81.5zM2119 812q99 0 160.5 81.5t61.5 198.5t-61.5 198.5
t-160.5 81.5q-43 0 -84 -15.5t-71.5 -37t-65 -60t-57.5 -68.5t-57 -79q-9 -13 -14 -20q91 -128 130 -170q103 -110 219 -110z" />
    <glyph glyph-name="integral" unicode="&#x222b;" horiz-adv-x="1771" 
d="M2086 2882q27 -23 31 -43t-19 -63l-138 -217q-40 -69 -111 -33q-38 21 -63.5 32.5t-66 21.5t-82.5 10q-247 0 -296 -339l-317 -2267q-31 -221 -150.5 -385.5t-292 -247t-375.5 -82.5q-160 0 -299 47.5t-214 110.5q-19 15 -26.5 28t-5 32.5t18.5 46.5l138 217
q41 67 111 33q56 -31 104 -47.5t108 -16.5q248 0 296 339l318 2266q23 167 97.5 303t184 225.5t247 138t288.5 48.5q160 0 299.5 -47.5t214.5 -110.5z" />
    <glyph glyph-name="approxequal" unicode="&#x2248;" horiz-adv-x="2292" 
d="M2189 1723q20 -11 25 -32t-6 -44q-57 -124 -134 -218.5t-160 -150.5t-167 -84t-166 -28q-94 0 -176.5 16.5t-138.5 41.5t-114 54.5t-104.5 54.5t-108 41.5t-126.5 16.5q-97 0 -182 -50.5t-150 -132.5q-21 -25 -47.5 -32.5t-50.5 6.5l-119 73q-19 11 -24.5 32t5.5 44
q57 123 134 218t160 151t167 84t166 28q94 0 176.5 -16.5t138.5 -41.5t114 -54.5t104.5 -54.5t108 -41.5t126.5 -16.5q97 0 182 50.5t150 132.5q21 25 47 32.5t51 -6.5zM2078 931q19 -11 24 -32t-5 -44q-57 -123 -134 -218t-160.5 -151t-167 -84t-165.5 -28q-111 0 -205 23
t-159.5 56t-126 66.5t-131.5 56.5t-147 23q-97 0 -182 -50.5t-149 -132.5q-21 -25 -47 -32.5t-51 6.5l-120 73q-18 11 -23.5 32t4.5 44q57 124 134 218.5t160.5 150.5t167.5 84t166 28q94 0 176.5 -16.5t138.5 -41.5t114 -54.5t104.5 -54.5t108 -41.5t126.5 -16.5
q97 0 182 50.5t150 132.5q20 25 46.5 32.5t51.5 -6.5z" />
    <glyph glyph-name="notequal" unicode="&#x2260;" horiz-adv-x="2145" 
d="M1997 1711q36 0 54 -20.5t13 -56.5l-38 -267q-4 -36 -28 -56.5t-60 -20.5h-514l-235 -388h695q36 0 53.5 -20.5t12.5 -56.5l-37 -267q-5 -36 -28.5 -56.5t-59.5 -20.5h-891l-321 -531q-15 -25 -44 -35t-52 1l-181 91q-24 12 -30 39.5t9 52.5l231 382h-347q-36 0 -54 20.5
t-13 56.5l38 267q4 36 28 56.5t60 20.5h543l234 388h-722q-36 0 -54 20.5t-13 56.5l38 267q5 36 28.5 56.5t59.5 20.5h918l308 510q15 25 44 34.5t53 -1.5l181 -91q24 -12 30 -39.5t-9 -52.5l-218 -360h318z" />
    <glyph glyph-name="lessequal" unicode="&#x2264;" horiz-adv-x="2145" 
d="M2102 1901q-3 -23 -17 -38t-27.5 -21.5t-43.5 -17.5l-1242 -486l1105 -486q47 -21 57 -34q13 -16 9 -43l-46 -329q-5 -37 -30.5 -58.5t-55.5 -7.5l-1527 700q-35 16 -52 37t-13 55l47 332q7 58 90 91l1724 700q33 14 52.5 -7.5t14.5 -58.5zM112 -143q-36 0 -54 20.5
t-13 56.5l37 267q5 36 28.5 56.5t60.5 20.5h1625q36 0 53.5 -20.5t12.5 -56.5l-37 -267q-5 -36 -28.5 -56.5t-59.5 -20.5h-1625z" />
    <glyph glyph-name="greaterequal" unicode="&#x2265;" horiz-adv-x="2146" 
d="M322 1901l46 328q5 37 31 58.5t56 7.5l1526 -700q36 -16 53 -37t12 -54l-46 -332q-9 -59 -91 -92l-1724 -700q-34 -14 -53.5 7t-14.5 59l46 329q3 17 9 29t22.5 21.5t23.5 12.5t34 14l1241 486l-1104 486q-21 9 -30 13t-21 13t-15.5 21.5t-0.5 29.5zM1738 -143h-1626
q-36 0 -54 20.5t-13 56.5l38 267q4 36 28 56.5t60 20.5h1626q36 0 53.5 -20.5t12.5 -56.5l-37 -267q-5 -36 -28.5 -56.5t-59.5 -20.5z" />
    <glyph glyph-name="lozenge" unicode="&#x25ca;" horiz-adv-x="2331" 
d="M1354 2711q30 35 68.5 35t58.5 -35l728 -1274q22 -36 -10 -74l-1086 -1274q-31 -35 -69 -35t-59 35l-727 1274q-21 38 10 74zM1134 695l561 705l-363 705l-561 -705z" />
    <glyph glyph-name="i.loclTRK" horiz-adv-x="951" 
d="M633 2025q-123 0 -203.5 83.5t-80.5 206.5q0 147 113.5 255.5t261.5 108.5q123 0 204 -83.5t81 -205.5q0 -147 -114 -256t-262 -109zM296 1761q4 32 25 50t53 18h460q32 0 47.5 -18t11.5 -50l-238 -1692q-5 -32 -25.5 -50.5t-52.5 -18.5h-460q-32 0 -48 18.5t-11 50.5z
" />
    <glyph glyph-name="zero.osf" horiz-adv-x="2304" 
d="M1301 1978q168 0 314.5 -41.5t263.5 -126t195 -204t108.5 -284t3.5 -357.5t-103.5 -357.5t-188 -284t-252.5 -204.5t-299.5 -126.5t-325.5 -41.5t-314 41.5t-264 126.5t-195 204.5t-108.5 284t-3.5 357.5t103.5 357.5t188.5 284t252.5 204t299 126t325.5 41.5zM1085 439
q177 0 312.5 135t171.5 391q18 130 0 232t-66 165.5t-116.5 96t-153.5 32.5q-177 0 -312 -135.5t-172 -390.5q-18 -130 0 -232.5t66 -165.5t116.5 -95.5t153.5 -32.5z" />
    <glyph glyph-name="one.osf" horiz-adv-x="1774" 
d="M1470 1929q28 0 46 -20t14 -48l-253 -1792q-3 -28 -26 -48.5t-51 -20.5h-460q-28 0 -46 20.5t-14 48.5l182 1287l-400 -179q-29 -13 -55 -3.5t-35 37.5l-102 319q-9 27 4.5 53.5t42.5 39.5l647 286q46 20 95 20h411z" />
    <glyph glyph-name="two.osf" horiz-adv-x="2084" 
d="M1772 440q28 0 45.5 -20.5t13.5 -48.5l-42 -302q-4 -28 -27.5 -48.5t-51.5 -20.5h-1652q-36 0 -53.5 20.5t-12.5 56.5l13 100q11 67 65 99q552 342 712 451q290 196 396 328q95 120 95 245q0 191 -243 191q-78 0 -154.5 -19t-151 -56t-132.5 -73t-131 -89
q-38 -24 -58.5 -17t-49.5 47l-162 229q-12 17 -14.5 32t5 29t18.5 25t31 27q210 171 460.5 261.5t511.5 90.5q328 0 521.5 -144.5t193.5 -406.5q0 -279 -209 -523.5t-656 -463.5h719z" />
    <glyph glyph-name="three.osf" horiz-adv-x="2144" 
d="M1502 765q416 -161 416 -518q0 -224 -138.5 -398.5t-382.5 -269.5t-552 -95q-160 0 -297.5 27.5t-246 80t-192.5 116.5t-158 147q-21 24 -29 38t-4.5 33.5t25.5 41.5l233 231q26 25 40.5 35.5t34.5 11t41 -17.5q62 -53 99 -83t96.5 -69t109.5 -59t118 -35t143 -15
q121 0 218 32t157 100.5t60 164.5q0 45 -18 83t-45 64t-70.5 47.5t-81 34t-90.5 23t-85.5 15t-80 10t-61.5 7.5q-69 11 -61 70l33 231q4 29 25.5 48t54.5 22q131 11 185 21q318 59 358 261q6 29 6 59q0 105 -78 165.5t-216 60.5q-44 0 -91 -7t-84 -16t-83.5 -27t-74.5 -30
t-73.5 -37t-62.5 -35t-60 -36.5t-50 -30.5q-39 -22 -61 -15.5t-47 45.5l-145 220q-12 17 -14 32.5t7 30t18.5 24.5t27.5 26q207 167 463 257.5t521 90.5q177 0 318 -44.5t230.5 -122.5t136.5 -181.5t47 -224.5q0 -209 -124.5 -371t-364.5 -269z" />
    <glyph glyph-name="four.osf" horiz-adv-x="2232" 
d="M2003 440q36 0 54 -20.5t13 -57.5l-40 -285q-5 -36 -28.5 -56.5t-59.5 -20.5h-290l-57 -408q-4 -28 -27 -48.5t-51 -20.5h-416q-28 0 -46 20.5t-14 48.5l57 408h-1078q-36 0 -53.5 20.5t-12.5 56.5l33 238l1398 1569q40 45 98 45h371q28 0 46 -20t14 -48l-200 -1421h289z
M602 440h558l104 740z" />
    <glyph glyph-name="five.osf" horiz-adv-x="2345" 
d="M2076 1929q28 0 45.5 -20t13.5 -48l-48 -346q-4 -28 -28 -48.5t-51 -20.5h-990l-119 -457q169 68 412 68q135 -2 251 -29t213 -81t165.5 -132t106.5 -188t38 -243q0 -261 -138 -466t-387 -320t-567 -115q-165 0 -304 25.5t-250.5 75t-198.5 111t-170 144.5
q-20 20 -28.5 34.5t-5 35t25.5 43.5l234 239q25 25 40.5 36t35 11t40.5 -17q63 -53 101 -82.5t97.5 -67.5t111 -57t122.5 -33t150 -14q200 0 331 102t131 270q0 128 -90 210.5t-276 82.5q-125 0 -230 -22t-216 -74q-28 -11 -49 1l-265 165q-36 20 -25 62l278 1088
q18 77 89 77h1404z" />
    <glyph glyph-name="six.osf" horiz-adv-x="2354" 
d="M1395 1523q138 0 253 -40.5t193 -111t128 -165t66.5 -205.5t-0.5 -229q-33 -237 -180 -424.5t-375.5 -292t-496.5 -104.5q-212 0 -384 70t-287 198.5t-163 322t-15 430.5q45 322 185 584.5t366.5 453t551.5 297t724 110.5q31 0 49 -20t13 -50l-46 -330q-4 -29 -26 -49
t-53 -21q-219 -6 -388 -44t-307.5 -116.5t-239.5 -203t-171 -301.5q239 241 603 241zM1041 395q83 0 155.5 31t121.5 82.5t80 115t41 130.5q13 93 -13.5 173t-100 133t-183.5 53q-161 0 -269 -107t-128 -252q-10 -67 4 -130.5t49 -115t98 -82.5t145 -31z" />
    <glyph glyph-name="seven.osf" horiz-adv-x="1990" 
d="M229 -477q-50 0 -68 37.5t10 83.5l1105 1798h-1122q-28 0 -45 20.5t-13 48.5l48 350q4 28 27.5 48t51.5 20h1821q35 0 53 -20.5t13 -56.5l-16 -117q-5 -38 -44 -95l-1291 -2082q-21 -35 -59 -35h-471z" />
    <glyph glyph-name="eight.osf" horiz-adv-x="2269" 
d="M1734 1280q174 -70 276 -213.5t102 -329.5q0 -161 -75.5 -303t-214.5 -249.5t-352 -170.5t-471 -63q-221 0 -397 50t-287.5 137.5t-170 202.5t-58.5 250q0 235 153 417.5t400 271.5q-139 62 -225.5 185t-86.5 284q0 112 44 215.5t132 191t209.5 152.5t285.5 101.5
t352 36.5q202 0 365 -45.5t266.5 -124.5t158.5 -182t55 -222q0 -104 -37 -198.5t-101.5 -168.5t-146 -130.5t-176.5 -94.5zM1291 2029q-158 0 -269.5 -86.5t-111.5 -211.5q0 -105 85.5 -174t220.5 -69q158 0 269.5 86.5t111.5 211.5q0 105 -86 174t-220 69zM1065 417
q195 0 316.5 103t121.5 256q0 125 -92.5 205t-254.5 80q-195 0 -317 -103.5t-122 -256.5q0 -125 92.5 -204.5t255.5 -79.5z" />
    <glyph glyph-name="nine.osf" horiz-adv-x="2232" 
d="M1234 1978q175 0 324 -44.5t263 -130t189 -211t101 -287.5t0 -359q-46 -326 -187.5 -589t-372 -452.5t-560 -294.5t-736.5 -109q-31 0 -49 20t-14 50l46 330q5 29 27.5 49t52.5 21q221 5 393 43t313.5 115.5t245.5 201.5t176 299q-246 -246 -627 -246q-142 0 -259.5 40.5
t-198.5 111.5t-133.5 167t-69.5 209t0 234q25 181 119.5 336.5t237 264t328.5 170t391 61.5zM1072 794q89 0 165.5 30.5t130 82.5t88 118t44.5 139q13 97 -17 179.5t-110 136.5t-197 54q-87 0 -163 -31t-128.5 -83.5t-86 -118t-43.5 -137.5q-14 -98 15 -181t107.5 -136
t194.5 -53z" />
    <glyph glyph-name="zero.dnom" horiz-adv-x="1717" 
d="M959 1630q150 0 272.5 -58t203.5 -164t114 -264t6 -349q-36 -253 -157.5 -444.5t-296 -290.5t-376.5 -99q-150 0 -272.5 58t-203.5 163.5t-114 263.5t-6 349t104 349t187.5 264t249.5 164t289 58zM772 299q141 0 230.5 134t121.5 362q19 149 6.5 259.5t-68.5 174
t-150 63.5q-140 0 -230.5 -134.5t-122.5 -362.5q-19 -148 -5.5 -258.5t69.5 -174t149 -63.5z" />
    <glyph glyph-name="one.dnom" horiz-adv-x="1485" 
d="M1110 1604q18 0 29.5 -13t9.5 -32l-213 -1514q-2 -19 -17.5 -32t-33.5 -13h-322q-18 0 -29.5 13t-9.5 32l167 1183l-263 -118q-19 -8 -36.5 -2t-22.5 24l-68 209q-6 18 3 35.5t28 25.5l426 189q30 13 63 13h289z" />
    <glyph glyph-name="two.dnom" horiz-adv-x="1557" 
d="M1414 1136q-31 -217 -198.5 -411.5t-505.5 -422.5h579q18 0 29.5 -13t9.5 -32l-31 -219q-2 -19 -17.5 -32t-33.5 -13h-1179q-23 0 -35 13.5t-8 37.5l11 77q5 46 30 62q217 147 378 270t262 215t165 171.5t91 137t35 115.5q30 214 -201 214q-109 0 -203 -46t-205 -130
q-13 -9 -23.5 -11.5t-19 2.5t-14.5 11t-14 18l-107 149q-8 11 -9.5 21t4 19.5t12.5 17t19 17.5q307 256 677 256q278 0 405 -135.5t97 -358.5z" />
    <glyph glyph-name="three.dnom" horiz-adv-x="1597" 
d="M1143 821q263 -101 263 -341q0 -156 -93 -274t-258.5 -181.5t-379.5 -63.5q-221 0 -366 67.5t-253 188.5q-13 14 -18 23t-3 22.5t16 28.5l154 157q16 16 26.5 23.5t23.5 7.5t26 -11q43 -39 63.5 -56.5t63.5 -47.5t77.5 -43.5t86.5 -25t110 -11.5q135 0 222 52.5t87 145.5
q0 79 -88.5 136.5t-273.5 63.5q-20 1 -31.5 13.5t-8.5 31.5l21 152q2 19 17 31.5t36 14.5q106 4 184.5 26t121 55.5t62.5 71t20 80.5q0 70 -56.5 109t-160.5 39q-78 0 -155.5 -24t-127.5 -51.5t-125 -76.5q-28 -14 -41 -9t-29 29l-100 145q-8 11 -9 21t4.5 19.5t12 16.5
t18.5 17q140 113 312 175t361 62q250 0 381 -106t131 -273q0 -140 -83 -250t-241 -180z" />
    <glyph glyph-name="four.dnom" horiz-adv-x="1636" 
d="M1456 617q24 0 36 -13.5t8 -37.5l-26 -185q-3 -23 -18.5 -36.5t-39.5 -13.5h-190l-40 -286q-2 -19 -17.5 -32t-34.5 -13h-292q-19 0 -30 13t-9 32l40 286h-801q-24 0 -36 13.5t-8 36.5l20 144q1 11 12 23l969 1026q27 30 65 30h296q18 0 29.5 -13t9.5 -32l-133 -942h190z
M457 617h426l74 527z" />
    <glyph glyph-name="five.dnom" horiz-adv-x="1635" 
d="M1377 1287h-669l-81 -316q111 45 282 45q237 -5 381.5 -117.5t144.5 -327.5q0 -176 -93 -313.5t-261 -213.5t-383 -76q-218 0 -365.5 61.5t-257.5 177.5q-13 14 -18.5 23.5t-3 23t16.5 27.5l154 158q16 16 26.5 23.5t23.5 7.5t27 -11q65 -57 111.5 -88t121.5 -55.5
t165 -24.5q136 0 226.5 68.5t90.5 182.5q0 84 -63 139t-189 55q-169 0 -305 -63q-17 -6 -32 1l-180 108q-24 14 -16 41l185 731q10 50 58 50h948q19 0 30 -13t8 -32l-32 -228q-2 -18 -17.5 -31t-33.5 -13z" />
    <glyph glyph-name="six.dnom" horiz-adv-x="1609" 
d="M967 1028q155 0 264 -72t153 -186.5t25 -248.5q-34 -241 -237.5 -397t-479.5 -156q-145 0 -262.5 47t-196.5 133t-112.5 216t-11.5 288q30 216 123.5 393t245.5 309t372.5 205.5t491.5 76.5q21 1 32.5 -12.5t8.5 -33.5l-30 -216q-3 -20 -17.5 -33t-34.5 -14
q-289 -6 -472 -117t-278 -348q163 166 416 166zM732 266q115 0 190.5 71.5t89.5 171.5q14 101 -41.5 172.5t-170.5 71.5q-116 0 -193 -71.5t-91 -172.5q-14 -99 42.5 -171t173.5 -72z" />
    <glyph glyph-name="seven.dnom" horiz-adv-x="1588" 
d="M253 0q-33 0 -45 24.5t7 55.5l735 1186h-768q-18 0 -29.5 13.5t-9.5 32.5l35 247q2 19 17 32t34 13h1248q24 0 35.5 -13.5t8.5 -36.5l-10 -78q-4 -27 -29 -62l-852 -1391q-15 -23 -39 -23h-338z" />
    <glyph glyph-name="eight.dnom" horiz-adv-x="1654" 
d="M1196 852q115 -46 182 -142t67 -220q0 -107 -50 -201.5t-143 -166t-237 -113t-321 -41.5q-151 0 -270.5 32.5t-194.5 90.5t-114 134t-39 166q0 158 100.5 280t263.5 181q-91 41 -147.5 122t-56.5 190q0 97 47 182.5t133 150.5t218.5 102.5t293.5 37.5q275 0 424 -108.5
t149 -276.5q0 -140 -86 -243.5t-219 -156.5zM890 1359q-110 0 -184.5 -58.5t-74.5 -146.5q0 -73 57 -119t150 -46q110 0 184 58.5t74 147.5q0 72 -57 118t-149 46zM737 274q134 0 214.5 68.5t80.5 172.5q0 85 -61.5 137.5t-172.5 52.5q-134 0 -215 -68.5t-81 -172.5
q0 -85 62 -137.5t173 -52.5z" />
    <glyph glyph-name="nine.dnom" horiz-adv-x="1609" 
d="M886 1636q145 0 262.5 -47t197 -133t113 -216t11.5 -288q-30 -215 -123 -389t-244.5 -300t-371 -194.5t-490.5 -68.5q-20 0 -32 13t-9 33l30 217q3 20 18 32.5t35 12.5q292 8 471 108.5t273 325.5q-163 -165 -415 -165q-117 0 -209.5 41.5t-147 112t-77.5 162t-9 191.5
q34 240 237.5 396t479.5 156zM779 851q116 0 193 71.5t91 172.5q14 99 -42.5 171t-172.5 72q-115 0 -190.5 -72t-90.5 -171q-14 -101 41 -172.5t171 -71.5z" />
    <glyph glyph-name="zero.numr" horiz-adv-x="1716" 
d="M1071 2430q150 0 272.5 -58t203.5 -164t114 -264t6 -349q-36 -253 -157.5 -444.5t-296 -290.5t-376.5 -99q-150 0 -272.5 58t-203.5 163.5t-114 263.5t-6 349t104 349t187.5 264t249.5 164t289 58zM884 1099q141 0 230.5 134t121.5 362q19 149 6.5 259.5t-68.5 174
t-150 63.5q-140 0 -230.5 -134.5t-122.5 -362.5q-19 -148 -5.5 -258.5t69.5 -174t149 -63.5z" />
    <glyph glyph-name="one.numr" horiz-adv-x="1485" 
d="M1222 2397q18 0 29.5 -13t9.5 -32l-213 -1514q-2 -19 -17.5 -32t-33.5 -13h-322q-18 0 -29.5 13t-9.5 32l167 1183l-263 -118q-19 -8 -36.5 -2t-22.5 24l-68 209q-6 18 3 35.5t28 25.5l426 189q30 13 63 13h289z" />
    <glyph glyph-name="two.numr" horiz-adv-x="1558" 
d="M1527 1936q-31 -217 -198.5 -411.5t-505.5 -422.5h579q18 0 29.5 -13t9.5 -32l-31 -219q-2 -19 -17.5 -32t-33.5 -13h-1179q-23 0 -35 13.5t-8 37.5l11 77q5 46 30 62q217 147 378 270t262 215t165 171.5t91 137t35 115.5q30 214 -201 214q-109 0 -203 -46t-205 -130
q-13 -9 -23.5 -11.5t-19 2.5t-14.5 11t-14 18l-107 149q-8 11 -9.5 21t4 19.5t12.5 17t19 17.5q307 256 677 256q278 0 405 -135.5t97 -358.5z" />
    <glyph glyph-name="three.numr" horiz-adv-x="1597" 
d="M1256 1621q263 -101 263 -341q0 -156 -93 -274t-258.5 -181.5t-379.5 -63.5q-221 0 -366 67.5t-253 188.5q-13 14 -18 23t-3 22.5t16 28.5l154 157q16 16 26.5 23.5t23.5 7.5t26 -11q43 -39 63.5 -56.5t63.5 -47.5t77.5 -43.5t86.5 -25t110 -11.5q135 0 222 52.5
t87 145.5q0 79 -88.5 136.5t-273.5 63.5q-20 1 -31.5 13.5t-8.5 31.5l21 152q2 19 17 31.5t36 14.5q106 4 184.5 26t121 55.5t62.5 71t20 80.5q0 70 -56.5 109t-160.5 39q-78 0 -155.5 -24t-127.5 -51.5t-125 -76.5q-28 -14 -41 -9t-29 29l-100 145q-8 11 -9 21t4.5 19.5
t12 16.5t18.5 17q140 113 312 175t361 62q250 0 381 -106t131 -273q0 -140 -83 -250t-241 -180z" />
    <glyph glyph-name="four.numr" horiz-adv-x="1636" 
d="M1567 1410q24 0 36 -13.5t8 -37.5l-26 -185q-3 -23 -18.5 -36.5t-39.5 -13.5h-190l-40 -286q-2 -19 -17.5 -32t-34.5 -13h-292q-19 0 -30 13t-9 32l40 286h-801q-24 0 -36 13.5t-8 36.5l20 144q1 11 12 23l969 1026q27 30 65 30h296q18 0 29.5 -13t9.5 -32l-133 -942h190
zM568 1410h426l74 527z" />
    <glyph glyph-name="five.numr" horiz-adv-x="1635" 
d="M1489 2080h-669l-81 -316q111 45 282 45q237 -5 381.5 -117.5t144.5 -327.5q0 -176 -93 -313.5t-261 -213.5t-383 -76q-218 0 -365.5 61.5t-257.5 177.5q-13 14 -18.5 23.5t-3 23t16.5 27.5l154 158q16 16 26.5 23.5t23.5 7.5t27 -11q65 -57 111.5 -88t121.5 -55.5
t165 -24.5q136 0 226.5 68.5t90.5 182.5q0 84 -63 139t-189 55q-169 0 -305 -63q-17 -6 -32 1l-180 108q-24 14 -16 41l185 731q10 50 58 50h948q19 0 30 -13t8 -32l-32 -228q-2 -18 -17.5 -31t-33.5 -13z" />
    <glyph glyph-name="six.numr" horiz-adv-x="1610" 
d="M1079 1821q155 0 264 -72t153 -186.5t25 -248.5q-34 -241 -237.5 -397t-479.5 -156q-145 0 -262.5 47t-196.5 133t-112.5 216t-11.5 288q30 216 123.5 393t245.5 309t372.5 205.5t491.5 76.5q21 1 32.5 -12.5t8.5 -33.5l-30 -216q-3 -20 -17.5 -33t-34.5 -14
q-289 -6 -472 -117t-278 -348q163 166 416 166zM844 1059q115 0 190.5 71.5t89.5 171.5q14 101 -41.5 172.5t-170.5 71.5q-116 0 -193 -71.5t-91 -172.5q-14 -99 42.5 -171t173.5 -72z" />
    <glyph glyph-name="seven.numr" horiz-adv-x="1588" 
d="M364 793q-33 0 -45 24.5t7 55.5l735 1186h-768q-18 0 -29.5 13.5t-9.5 32.5l35 247q2 19 17 32t34 13h1248q24 0 35.5 -13.5t8.5 -36.5l-10 -78q-4 -27 -29 -62l-852 -1391q-15 -23 -39 -23h-338z" />
    <glyph glyph-name="eight.numr" horiz-adv-x="1654" 
d="M1307 1645q115 -46 182 -142t67 -220q0 -107 -50 -201.5t-143 -166t-237 -113t-321 -41.5q-151 0 -270.5 32.5t-194.5 90.5t-114 134t-39 166q0 158 100.5 280t263.5 181q-91 41 -147.5 122t-56.5 190q0 97 47 182.5t133 150.5t218.5 102.5t293.5 37.5q275 0 424 -108.5
t149 -276.5q0 -140 -86 -243.5t-219 -156.5zM1001 2152q-110 0 -184.5 -58.5t-74.5 -146.5q0 -73 57 -119t150 -46q110 0 184 58.5t74 147.5q0 72 -57 118t-149 46zM848 1067q134 0 214.5 68.5t80.5 172.5q0 85 -61.5 137.5t-172.5 52.5q-134 0 -215 -68.5t-81 -172.5
q0 -85 62 -137.5t173 -52.5z" />
    <glyph glyph-name="nine.numr" horiz-adv-x="1610" 
d="M997 2429q145 0 262.5 -47t197 -133t113 -216t11.5 -288q-30 -215 -123 -389t-244.5 -300t-371 -194.5t-490.5 -68.5q-20 0 -32 13t-9 33l30 217q3 20 18 32.5t35 12.5q292 8 471 108.5t273 325.5q-163 -165 -415 -165q-117 0 -209.5 41.5t-147 112t-77.5 162t-9 191.5
q34 240 237.5 396t479.5 156zM890 1644q116 0 193 71.5t91 172.5q14 99 -42.5 171t-172.5 72q-115 0 -190.5 -72t-90.5 -171q-14 -101 41 -172.5t171 -71.5z" />
    </font>
</defs>
</svg>
