<?xml version="1.0" standalone="no"?>
<!DOCTYPE svg PUBLIC "-//W3C//DTD SVG 1.1//EN" "http://www.w3.org/Graphics/SVG/1.1/DTD/svg11.dtd" >
<svg xmlns="http://www.w3.org/2000/svg" xmlns:xlink="http://www.w3.org/1999/xlink" version="1.1">
<metadata>
Created by FontForge 20170731 at Fri Jun 24 01:07:06 2016
 By Aleksey,,,
Copyright (c) 2015 by Mateusz Machalski. All rights reserved.
</metadata>
<defs>
<font id="Migrena_Grotesque-Italic" horiz-adv-x="2515" >
  <font-face 
    font-family="Migrena_Grotesque"
    font-weight="500"
    font-style="italic"
    font-stretch="normal"
    units-per-em="4000"
    panose-1="0 0 6 0 0 0 0 0 0 0"
    ascent="3200"
    descent="-800"
    x-height="1728"
    cap-height="2440"
    bbox="-2192.6 -1039.14 4620.65 3544.57"
    underline-thickness="50"
    underline-position="-200"
    slope="-8"
    unicode-range="U+0020-25CA"
  />
<missing-glyph horiz-adv-x="1640" 
d="M1345 2560v-3280h-1040v3280h1040zM1092 2340h-541v-108h213v-121h-216v-109h544v109h-216v121h216v108zM876 1917h-328v-341h544v112h-216v229zM764 1806v-118h-108v118h108zM1092 1487h-544v-108h216v-121h-216v-108h328v229h216v108zM1092 1291h-108v-217h-436v-111
h544v328zM1092 890h-328v-183h112v75h108v-154h-328v262h-108v-370h544v370zM1092 323h-544v-371h544v371zM984 215v-154h-328v154h328zM1092 -123h-544v-108h229l-229 -154v-109h544v109h-334l229 154h105v108z" />
    <glyph glyph-name=".notdef" horiz-adv-x="1640" 
d="M1345 2560v-3280h-1040v3280h1040zM1092 2340h-541v-108h213v-121h-216v-109h544v109h-216v121h216v108zM876 1917h-328v-341h544v112h-216v229zM764 1806v-118h-108v118h108zM1092 1487h-544v-108h216v-121h-216v-108h328v229h216v108zM1092 1291h-108v-217h-436v-111
h544v328zM1092 890h-328v-183h112v75h108v-154h-328v262h-108v-370h544v370zM1092 323h-544v-371h544v371zM984 215v-154h-328v154h328zM1092 -123h-544v-108h229l-229 -154v-109h544v109h-334l229 154h105v108z" />
    <glyph glyph-name=".null" horiz-adv-x="0" 
 />
    <glyph glyph-name="nonmarkingreturn" horiz-adv-x="1333" 
 />
    <glyph glyph-name="space" unicode=" " horiz-adv-x="750" 
 />
    <glyph glyph-name="exclam" unicode="!" horiz-adv-x="859" 
d="M490 2390q2 22 18 36t39 14h213q23 0 34.5 -14t7.5 -36l-276 -1670q-4 -23 -19 -36.5t-37 -13.5h-131q-22 0 -34 13.5t-9 36.5zM303 -36q-77 0 -127.5 52.5t-50.5 129.5q0 91 71.5 159t163.5 68q77 0 127.5 -52.5t50.5 -129.5q0 -91 -71.5 -159t-163.5 -68z" />
    <glyph glyph-name="quotedbl" unicode="&#x22;" horiz-adv-x="1265" 
d="M450 2460q3 22 18.5 36t38.5 14h173q23 0 35 -14t8 -36l-141 -771q-5 -22 -20.5 -36t-36.5 -14h-116q-21 0 -32.5 14t-9.5 36zM990 2460q3 22 18.5 36t38.5 14h173q23 0 35 -14t8 -36l-141 -771q-5 -22 -20.5 -36t-36.5 -14h-116q-21 0 -32.5 14t-9.5 36z" />
    <glyph glyph-name="numbersign" unicode="#" horiz-adv-x="2682" 
d="M2532 1720q22 0 32.5 -13.5t5.5 -36.5l-42 -181q-5 -22 -21.5 -35.5t-38.5 -13.5h-369l-148 -620h350q22 0 32.5 -13.5t5.5 -35.5l-41 -181q-5 -22 -22 -36t-39 -14h-353l-118 -490q-4 -22 -21 -36t-40 -14h-213q-22 0 -33 13.5t-6 36.5l118 490h-663l-118 -490
q-5 -22 -22 -36t-40 -14h-213q-22 0 -32.5 13.5t-5.5 36.5l118 490h-369q-22 0 -32.5 14t-6.5 36l42 181q6 22 23 35.5t39 13.5h371l148 620h-352q-23 0 -33.5 13.5t-5.5 35.5l41 181q4 22 21.5 36t40.5 14h355l118 490q5 23 22 36.5t39 13.5h214q22 0 32.5 -14t5.5 -36
l-118 -490h663l118 490q5 22 22 36t39 14h214q22 0 32.5 -13.5t5.5 -36.5l-118 -490h366zM1638 820l148 620h-663l-148 -620h663z" />
    <glyph glyph-name="dollar" unicode="$" horiz-adv-x="2235" 
d="M2153 2256q41 -24 14 -68l-111 -183q-29 -46 -77 -12q-47 33 -82.5 55t-100.5 54.5t-126.5 52.5t-148 34.5t-178.5 14.5q-157 0 -279.5 -34.5t-198 -94.5t-114 -137.5t-38.5 -168.5q0 -82 45 -145t120.5 -104t174 -75t207 -65t217 -66t207 -86t174 -117t120.5 -167
t45 -229q0 -137 -48.5 -253.5t-133 -201t-200.5 -146.5t-249.5 -97t-282.5 -47l-58 -405q-3 -20 -19.5 -35t-36.5 -15h-148q-20 0 -33.5 15t-10.5 35l57 402q-222 14 -398 81t-334 176q-40 26 -15 68l103 173q14 21 33 27t40 -6q72 -48 116.5 -75t119 -63.5t140.5 -56
t159.5 -33.5t197.5 -14q296 0 471.5 106.5t175.5 310.5q0 81 -34.5 146.5t-82.5 108.5t-136 83t-155.5 63t-180.5 57q-98 29 -148.5 45.5t-138 50.5t-135.5 63t-110 76.5t-94 99t-55 123t-23 155.5q0 288 221.5 490.5t613.5 244.5l57 399q3 20 20 34.5t36 14.5h148
q20 0 33.5 -15t10.5 -34l-55 -391q121 -5 227 -25.5t194.5 -56.5t143 -64.5t127.5 -72.5z" />
    <glyph glyph-name="percent" unicode="%" horiz-adv-x="3451" 
d="M2645 2494q17 -9 21 -29t-7 -37l-1550 -2534q-11 -18 -32 -25.5t-38 1.5l-125 63q-17 8 -21.5 28t6.5 38l1549 2534q11 18 32.5 25t38.5 -1zM1513 1705q-25 -175 -92 -321t-161.5 -244t-212.5 -152t-245 -54t-230 54t-170.5 152t-94 244t-1.5 321q24 175 91.5 321
t162.5 244t213 152t245 54q260 0 401.5 -210.5t93.5 -560.5zM837 1189q161 0 262 138.5t134 377.5q34 239 -28 377.5t-223 138.5q-158 0 -260.5 -139t-135.5 -377t29.5 -377t221.5 -139zM2750 1506q127 0 229.5 -54t170 -152t94 -244t1.5 -321t-92 -321t-161.5 -244
t-212.5 -152t-245 -54t-230 54t-170.5 152t-94 244t-1.5 321t92 321t162 244t213 152t245 54zM2569 219q161 0 262 138.5t134 377.5q34 239 -28 377.5t-223 138.5q-158 0 -260.5 -139t-135.5 -377t29.5 -377t221.5 -139z" />
    <glyph glyph-name="ampersand" unicode="&#x26;" horiz-adv-x="2345" 
d="M2196 1243q20 -5 28.5 -21t1.5 -37q-144 -413 -374 -703l280 -366q28 -37 4.5 -76.5t-73.5 -39.5h-199q-34 0 -58 30l-174 223q-349 -293 -790 -293q-324 0 -517.5 162t-193.5 423q0 141 47.5 267t136.5 230t195 187.5t245 163.5q-136 218 -136 414q0 128 44 237.5
t120.5 187.5t178.5 134t218.5 83t239.5 27q144 0 263.5 -37.5t236.5 -112.5q17 -10 20 -28t-8 -37l-94 -156q-13 -22 -35 -28t-41 5q-98 66 -186 98.5t-201 32.5q-204 0 -315.5 -101t-111.5 -265q0 -112 55.5 -221t154.5 -238l525 -685q156 223 263 541q7 23 26.5 35t42.5 7
zM896 244q317 0 572 219l-564 722q-230 -138 -325.5 -269t-95.5 -313q0 -164 105 -261.5t308 -97.5z" />
    <glyph glyph-name="quotesingle" unicode="'" horiz-adv-x="725" 
d="M450 2460q3 22 18.5 36t38.5 14h173q23 0 35 -14t8 -36l-141 -771q-5 -22 -20.5 -36t-36.5 -14h-116q-21 0 -32.5 14t-9.5 36z" />
    <glyph glyph-name="parenleft" unicode="(" horiz-adv-x="1082" 
d="M477 570q0 -290 54.5 -588.5t159.5 -529.5q8 -17 0.5 -34.5t-26.5 -26.5l-112 -54q-35 -17 -52 13q-139 250 -212 584.5t-73 671.5q0 991 732 1924q25 30 56 13l96 -54q17 -10 19.5 -27t-10.5 -34q-319 -436 -475.5 -905.5t-156.5 -952.5z" />
    <glyph glyph-name="parenright" unicode=")" horiz-adv-x="1083" 
d="M602 2530q135 -266 209.5 -605.5t74.5 -673.5q0 -500 -189.5 -992.5t-541.5 -908.5q-25 -30 -55 -13l-97 54q-17 9 -19.5 26.5t10.5 34.5q322 431 477 902t155 950q0 293 -54 592t-159 532q-8 17 -1 34t26 27l113 54q36 17 51 -13z" />
    <glyph glyph-name="asterisk" unicode="*" horiz-adv-x="1755" 
d="M1282 2917l-65 -456l-139 -166l-196 -55l-414 140q-16 6 -22 21.5t2 33.5l66 140q8 18 24 25.5t33 1.5l414 -141l64 456q2 18 16.5 30.5t32.5 12.5h148q18 0 28 -12t8 -31zM1747 2435q4 -18 -6.5 -33.5t-28.5 -21.5l-453 -140h1l216 -369q8 -15 2.5 -31.5t-21.5 -27.5
l-131 -87q-16 -11 -33 -8t-26 18l-216 368l-319 -368q-13 -15 -31 -18t-31 8l-107 87q-13 11 -14 27.5t12 31.5l322 369l195 55l140 166l454 141q18 6 32.5 -2t17.5 -25z" />
    <glyph glyph-name="plus" unicode="+" horiz-adv-x="2068" 
d="M1859 1205q22 0 33.5 -14t8.5 -36l-21 -149q-3 -22 -18.5 -35.5t-37.5 -13.5h-653l-92 -653q-3 -22 -18.5 -36t-37.5 -14h-149q-22 0 -34 14t-9 36l92 653h-652q-22 0 -34 13.5t-9 35.5l21 149q3 22 19 36t38 14h652l92 652q3 23 18.5 36.5t37.5 13.5h148q23 0 35 -14
t9 -36l-92 -652h653z" />
    <glyph glyph-name="comma" unicode="," horiz-adv-x="843" 
d="M344 373q30 0 58.5 -9.5t56 -30t44 -60t16.5 -92.5q0 -160 -137 -371t-306 -317q-20 -10 -37 -6t-26 18l-8 15q-19 35 15 66q201 171 201 327q0 31 -11.5 50.5t-40.5 46.5q-61 55 -61 132q0 94 71.5 162.5t164.5 68.5z" />
    <glyph glyph-name="hyphen" unicode="-" horiz-adv-x="1829" 
d="M255 841q-22 0 -34 13.5t-9 35.5l25 181q3 22 18.5 36t38.5 14h1313q22 0 34 -13.5t9 -36.5l-25 -181q-3 -22 -19 -35.5t-38 -13.5h-1313z" />
    <glyph glyph-name="period" unicode="." horiz-adv-x="859" 
d="M303 -36q-77 0 -127.5 52.5t-50.5 129.5q0 91 71.5 159t163.5 68q77 0 127.5 -52.5t50.5 -129.5q0 -91 -71.5 -159t-163.5 -68z" />
    <glyph glyph-name="slash" unicode="/" horiz-adv-x="1564" 
d="M1537 2646q11 18 32 25.5t39 -1.5l125 -63q16 -8 21 -28t-6 -38l-1607 -2647q-11 -18 -32 -25t-37 1l-126 63q-17 8 -21.5 28t6.5 38z" />
    <glyph glyph-name="zero" unicode="0" horiz-adv-x="2288" 
d="M1371 2476q206 0 370 -87t267.5 -250t143.5 -395.5t-1 -523.5q-41 -286 -146 -523t-254.5 -397t-338 -248t-394.5 -88t-370 87t-268 250t-144 395.5t2 523.5q40 286 145.5 523t255 397t338 248t394.5 88zM1057 244q123 0 230 46t190.5 131t149.5 206t110 269.5t69 323.5
q33 217 18.5 396.5t-69 308.5t-162.5 200t-262 71q-151 0 -278 -71t-220 -200.5t-156 -307.5t-94 -397q-33 -217 -17.5 -396.5t70.5 -308.5t162.5 -200t258.5 -71z" />
    <glyph glyph-name="one" unicode="1" horiz-adv-x="1668" 
d="M1364 2440q20 0 32.5 -15t10.5 -35l-329 -2340q-3 -20 -20 -35t-37 -15h-230q-20 0 -32.5 15t-9.5 35l288 2053l-461 -218q-21 -10 -40.5 -3t-25.5 27l-50 156q-7 18 2 37t29 28l612 296q31 14 64 14h197z" />
    <glyph glyph-name="two" unicode="2" horiz-adv-x="2123" 
d="M1995 1787q-21 -151 -87 -296t-167.5 -280.5t-262.5 -289.5t-344 -302t-441 -339h1112q20 0 32.5 -15t10.5 -35l-25 -180q-3 -20 -20 -35t-37 -15h-1653q-22 0 -34 13.5t-9 36.5l7 51q6 44 29 60q431 307 722.5 543t469.5 425t260.5 336t102.5 291q30 212 -74.5 326
t-335.5 114q-104 0 -201 -24t-185 -70t-161 -98t-155 -123q-19 -16 -34 -16t-21.5 6t-18.5 22l-105 143q-11 10 -6 23t12.5 21t20.5 19q3 3 5 4q95 83 185 144t203.5 116t247.5 84t283 29q132 0 241 -24.5t186 -69t133 -107.5t83.5 -139.5t37 -164.5t-6.5 -184z" />
    <glyph glyph-name="three" unicode="3" horiz-adv-x="2190" 
d="M1522 1257q474 -123 474 -526q0 -227 -123.5 -401t-353.5 -270t-534 -96q-133 0 -248.5 20.5t-201 53.5t-164 83.5t-133.5 100.5t-112 115q-13 14 -19 22t-6.5 20.5t11.5 24.5l156 159q26 26 40 29t37 -17q58 -62 99 -101t107 -87.5t129.5 -76t153 -47t191.5 -19.5
q185 0 328.5 52.5t227 157t83.5 247.5q0 63 -19 119.5t-68.5 112t-126.5 96t-203 67.5t-288 30q-23 1 -35.5 15t-9.5 36l18 131q3 22 20 36t40 15q174 4 311 35.5t223 80t142 114t78.5 132t22.5 139.5q0 160 -114 248t-335 88q-102 0 -193 -19t-177 -59.5t-155 -83
t-160 -109.5q-31 -19 -44 -15.5t-30 28.5l-97 142q-20 29 32 67q420 329 899 329q148 0 267.5 -30t199.5 -81t134 -121.5t78 -149.5t24 -168q0 -222 -147 -397.5t-429 -271.5z" />
    <glyph glyph-name="four" unicode="4" horiz-adv-x="2266" 
d="M2075 826q22 0 34 -13.5t9 -35.5l-25 -181q-3 -22 -18.5 -36t-38.5 -14h-338l-70 -496q-3 -20 -20 -35t-37 -15h-230q-20 0 -32.5 15t-9.5 35l70 496h-1266q-22 0 -34 14t-9 36l23 166q3 15 14 27l1546 1621q30 30 65 30h205q20 0 32.5 -15t10.5 -35l-220 -1564h339z
M490 826h917l160 1134z" />
    <glyph glyph-name="five" unicode="5" horiz-adv-x="2223" 
d="M2055 2440q20 0 32.5 -15t9.5 -35l-25 -180q-3 -20 -20 -35t-37 -15h-1113l-191 -752q133 59 261.5 82.5t282.5 23.5q164 -5 301.5 -47.5t243 -122t165 -206t59.5 -288.5q0 -197 -75.5 -362.5t-211 -280.5t-328 -179t-420.5 -64q-156 0 -285 25.5t-230.5 76t-177.5 110
t-153 141.5q-13 13 -19 21.5t-6.5 21t11.5 24.5l156 159q26 26 40 29t37 -17q72 -74 131.5 -123t140.5 -95.5t179 -69.5t216 -23q137 0 257 38.5t210.5 108.5t142.5 177.5t52 237.5q0 195 -140 321.5t-388 126.5q-161 0 -302.5 -34.5t-288.5 -115.5q-20 -11 -39 -3l-150 67
q-30 13 -22 48l298 1174q3 22 18.5 36t38.5 14h1339z" />
    <glyph glyph-name="six" unicode="6" horiz-adv-x="2176" 
d="M1275 1566q234 0 406 -108t248 -290.5t45 -401.5q-22 -162 -108 -308.5t-217 -255.5t-309.5 -173.5t-374.5 -64.5q-199 0 -357 68.5t-259 192.5t-141.5 304.5t-10.5 397.5q52 371 200 665.5t369 487t504 294t611 101.5q23 0 35.5 -14t9.5 -36l-26 -178q-3 -22 -18.5 -36
t-37.5 -15q-231 -5 -423 -61t-354.5 -169t-285.5 -295t-204 -430q132 150 311 237.5t387 87.5zM1005 244q127 0 239 42.5t190.5 115t129 166.5t65.5 198q12 83 0 160t-49 142.5t-94.5 114t-142.5 76t-188 27.5q-127 0 -240.5 -44t-194.5 -116.5t-133.5 -166t-66.5 -193.5
q-15 -104 11 -198t86 -166.5t160.5 -115t227.5 -42.5z" />
    <glyph glyph-name="seven" unicode="7" horiz-adv-x="2195" 
d="M522 0q-37 0 -50 27.5t8 61.5l1276 2071h-1388q-20 0 -32.5 15t-9.5 35l24 180q3 20 20 35t37 15h1753q22 0 34 -13.5t9 -36.5l-7 -51q-4 -33 -28 -60l-1391 -2255q-16 -24 -43 -24h-212z" />
    <glyph glyph-name="eight" unicode="8" horiz-adv-x="2189" 
d="M1556 1294q185 -71 302.5 -215t117.5 -347q0 -130 -46 -247.5t-134 -212t-209.5 -164t-280 -107t-338.5 -37.5q-380 0 -597 170.5t-217 444.5q0 136 49.5 254.5t136 205.5t189.5 150t224 105q-159 61 -260 184t-101 301q0 138 66 264t184 222.5t294.5 153.5t384.5 57
q178 0 322.5 -45t237 -123.5t142 -180.5t49.5 -218q0 -118 -43 -220.5t-117.5 -177t-163 -128.5t-192.5 -89zM712 1778q0 -154 128 -254t333 -100q158 0 289 56.5t207 156.5t76 221q0 154 -127 256t-334 102q-160 0 -292 -59t-206 -159t-74 -220zM1007 244q290 0 467 141
t177 363q0 180 -137.5 289.5t-379.5 109.5q-289 0 -466 -141.5t-177 -362.5q0 -180 137 -289.5t379 -109.5z" />
    <glyph glyph-name="nine" unicode="9" horiz-adv-x="2164" 
d="M1305 2475q198 0 354.5 -68.5t257 -192.5t141 -304t9.5 -397q-51 -365 -196.5 -652.5t-364.5 -475.5t-501 -286.5t-611 -98.5q-22 0 -34.5 14t-9.5 37l24 178q4 21 20 35t38 15q231 5 421 58t350 161t281 282.5t201 414.5q-131 -149 -308 -235.5t-382 -86.5
q-232 0 -402.5 108t-246 290.5t-44.5 401.5q22 162 108 308.5t216 255.5t307 173.5t372 64.5zM1115 1153q125 0 238 44t193 117t132.5 166t66.5 193q15 104 -10.5 198t-85 166.5t-159.5 115t-225 42.5q-126 0 -236.5 -42.5t-188.5 -115t-128 -166.5t-65 -198q-12 -83 0 -160
t48 -142.5t93 -114t141 -76t186 -27.5z" />
    <glyph glyph-name="colon" unicode=":" horiz-adv-x="859" 
d="M499 1356q-77 0 -127.5 52.5t-50.5 129.5q0 91 71.5 159t163.5 68q77 0 127.5 -52.5t50.5 -129.5q0 -91 -71.5 -159t-163.5 -68zM303 -36q-77 0 -127.5 52.5t-50.5 129.5q0 91 71.5 159t163.5 68q77 0 127.5 -52.5t50.5 -129.5q0 -91 -71.5 -159t-163.5 -68z" />
    <glyph glyph-name="semicolon" unicode=";" horiz-adv-x="843" 
d="M478 1356q-77 0 -127.5 52.5t-50.5 129.5q0 91 71.5 159t163.5 68q77 0 127.5 -52.5t50.5 -129.5q0 -91 -71.5 -159t-163.5 -68zM344 373q30 0 58.5 -9.5t56 -30t44 -60t16.5 -92.5q0 -160 -137 -371t-306 -317q-20 -10 -37 -6t-26 18l-8 15q-19 35 15 66
q201 171 201 327q0 31 -11.5 50.5t-40.5 46.5q-61 55 -61 132q0 94 71.5 162.5t164.5 68.5z" />
    <glyph glyph-name="less" unicode="&#x3c;" horiz-adv-x="2069" 
d="M1973 1665q-1 -11 -5 -18.5t-15 -14t-15.5 -8.5t-21.5 -9l-1383 -574l1222 -575q13 -6 18.5 -8.5t13.5 -9t10 -14t1 -18.5l-30 -205q-3 -23 -19 -33t-35 -1l-1455 700q-46 24 -41 58l30 211q5 35 57 59l1652 700q22 9 35 -1t10 -33z" />
    <glyph glyph-name="equal" unicode="=" horiz-adv-x="2204" 
d="M361 1331q-22 0 -34 13.5t-9 35.5l22 149q3 23 18.5 36.5t37.5 13.5h1553q22 0 34 -14t9 -36l-22 -149q-3 -22 -18.5 -35.5t-37.5 -13.5h-1553zM255 574q-22 0 -34 14t-9 36l21 149q3 22 19 35.5t38 13.5h1553q22 0 33.5 -13.5t8.5 -35.5l-21 -149q-3 -22 -18.5 -36
t-37.5 -14h-1553z" />
    <glyph glyph-name="greater" unicode="&#x3e;" horiz-adv-x="2068" 
d="M320 1665l29 206q4 23 20 33t35 1l1454 -700q47 -23 42 -59l-29 -211q-3 -21 -17.5 -33.5t-40.5 -24.5l-1652 -700q-22 -9 -35 1t-10 33l29 205q2 14 11 24t18 14.5t28 11.5l1384 575l-1222 574q-15 7 -19 9t-13 8.5t-11 14t-1 18.5z" />
    <glyph glyph-name="question" unicode="?" horiz-adv-x="1795" 
d="M1548 1877q0 319 -393 319q-178 0 -326 -65.5t-291 -183.5q-15 -12 -26.5 -16.5t-20.5 1t-13 10t-13 17.5l-100 135q-16 24 21 57q2 2 8 7l5 4q366 314 810 314q314 0 496 -154t182 -405q0 -110 -26 -203.5t-70.5 -162t-102.5 -128.5t-124 -110t-133 -97.5t-130.5 -99.5
t-116 -109t-91.5 -132.5t-54 -163.5q-3 -18 -16.5 -29.5t-30.5 -11.5l-149 2q-15 0 -24.5 14t-9.5 35q6 87 35 167t73 143.5t100 123t115.5 112.5t119 105.5t113 108.5t94.5 114.5t65 130.5t24 151zM833 -36q-77 0 -127.5 52.5t-50.5 129.5q0 91 71.5 159t163.5 68
q77 0 127.5 -52.5t50.5 -129.5q0 -91 -71.5 -159t-163.5 -68z" />
    <glyph glyph-name="at" unicode="@" horiz-adv-x="3249" 
d="M2086 -588q-2 -17 -13 -29t-28 -14q-268 -47 -520 -47q-205 0 -383 38t-316 105.5t-250 163.5t-190 210.5t-130.5 246.5t-77 271.5t-24.5 286.5q0 233 60.5 447.5t169 389.5t263 318.5t339.5 241.5t401.5 151t446.5 53q389 0 673 -142t434.5 -409t150.5 -633
q0 -161 -29.5 -315t-89 -289.5t-143.5 -237.5t-200.5 -161t-251.5 -59q-199 0 -299.5 90.5t-111.5 244.5q-90 -146 -241.5 -240.5t-308.5 -94.5q-88 0 -168 22.5t-151 72t-123.5 122t-83 178t-30.5 233.5q0 210 68 393t188.5 315t293 208t372.5 76q237 -2 480 -67
q37 -10 34 -50l-89 -999q-14 -150 41 -220t159 -70q87 0 159.5 49.5t121 132t82 190.5t48.5 222.5t15 232.5q0 480 -255.5 728.5t-762.5 248.5q-239 0 -454 -62t-387.5 -181.5t-298.5 -284t-194.5 -378.5t-68.5 -456q0 -126 16.5 -240.5t55.5 -227.5t99 -207t150.5 -175
t206 -137.5t270 -88.5t337.5 -32q219 0 482 47q29 5 48 -12t16 -46zM1462 197q93 0 181.5 39.5t163 114t125 194t62.5 267.5l47 557q-148 52 -293 52q-121 0 -225 -45.5t-176 -122t-123.5 -177t-76 -211t-24.5 -223.5q0 -117 27 -205t74.5 -139t107 -76t130.5 -25z" />
    <glyph glyph-name="A" unicode="A" 
d="M2348 59q9 -27 -4 -43t-41 -16h-274q-44 0 -52 37l-180 615h-1130l-363 -615q-23 -37 -62 -37h-269q-28 0 -38 15.5t6 43.5l1454 2384q24 37 62 37h89q41 0 53 -37zM823 916h897l-297 1015z" />
    <glyph glyph-name="B" unicode="B" horiz-adv-x="2412" 
d="M1741 1244q100 -11 186.5 -50t152 -102t103 -155.5t37.5 -203.5q0 -141 -68 -272.5t-189.5 -234t-307.5 -164.5t-405 -62h-932h-163q-20 0 -33.5 15t-9.5 35l328 2340q3 20 20.5 35t37.5 15h229h802q150 0 275 -29.5t213 -81.5t149 -123.5t90 -154.5t29 -175
q0 -130 -43.5 -238.5t-120 -185t-172 -128.5t-208.5 -80zM1935 1826q0 52 -13.5 98t-49.5 90.5t-92 75.5t-147 50.5t-208 19.5h-688l-110 -784h655q179 0 309 35t203.5 98.5t107 141.5t33.5 175zM1224 280q149 0 264.5 26.5t187.5 70t119 104.5t65 124.5t18 136.5
q0 354 -571 354h-719l-115 -816h751z" />
    <glyph glyph-name="C" unicode="C" horiz-adv-x="2635" 
d="M2409 669q44 -22 13 -69q-407 -636 -1110 -636q-175 0 -336.5 48.5t-297 143t-236 225t-156.5 305t-56 372.5q0 211 58 405.5t159 348t238.5 280t296.5 210t334 129t349 45.5q706 0 932 -636q17 -47 -33 -69l-189 -85q-48 -21 -66 27q-174 483 -684 483
q-143 0 -278.5 -38t-251 -107.5t-212 -170.5t-164 -223.5t-105 -270.5t-37.5 -308q0 -246 95.5 -435.5t271.5 -294t408 -104.5q506 0 818 483q31 48 74 27z" />
    <glyph glyph-name="D" unicode="D" horiz-adv-x="2638" 
d="M1413 2440q185 0 350.5 -44.5t301.5 -133t235 -213.5t153.5 -294.5t54.5 -366.5q0 -215 -54.5 -407.5t-152 -343t-232 -272t-294.5 -201t-339 -122t-366 -42.5h-768h-147q-20 0 -33.5 15t-9.5 35l328 2340q3 20 20.5 35t37.5 15h229h686zM1076 280q233 0 433.5 77.5
t344.5 216.5t225.5 342t81.5 445q0 370 -220.5 584.5t-599.5 214.5h-604l-264 -1880h603z" />
    <glyph glyph-name="E" unicode="E" horiz-adv-x="2269" 
d="M2215 2440q22 0 33.5 -13.5t9.5 -36.5l-25 -180q-4 -22 -19.5 -36t-37.5 -14h-1439l-107 -764h1278q22 0 34 -13.5t9 -35.5l-25 -181q-4 -23 -20 -36.5t-38 -13.5h-1278l-117 -836h1478q22 0 34 -14t9 -36l-25 -180q-4 -23 -19.5 -36.5t-37.5 -13.5h-1622h-135
q-20 0 -33.5 15t-9.5 35l328 2340q3 20 20.5 35t37.5 15h229h1488z" />
    <glyph glyph-name="F" unicode="F" horiz-adv-x="2170" 
d="M2175 2440q22 0 33.5 -13.5t9.5 -36.5l-25 -180q-4 -22 -19.5 -36t-37.5 -14h-1399l-124 -884h1318q22 0 34 -13.5t9 -35.5l-25 -181q-4 -23 -19.5 -36.5t-37.5 -13.5h-1318l-133 -946q-4 -20 -20.5 -35t-36.5 -15h-229q-20 0 -33.5 15t-9.5 35l328 2340q3 20 20.5 35
t37.5 15h229h1448z" />
    <glyph glyph-name="G" unicode="G" horiz-adv-x="2700" 
d="M2453 1076q22 0 34 -13.5t9 -36.5l-104 -738q-507 -324 -1080 -324q-175 0 -336.5 48.5t-297 143t-236 225t-156.5 305t-56 372.5q0 211 58 405.5t159 348t238.5 280t296.5 210t334 129t349 45.5q338 0 566.5 -130.5t370.5 -427.5q11 -22 0.5 -40.5t-32.5 -28.5l-189 -85
q-50 -21 -67 27q-109 217 -279 311t-410 94q-143 0 -278.5 -38t-251 -107.5t-212 -170.5t-164 -223.5t-105 -270.5t-37.5 -308q0 -246 95.5 -435.5t271.5 -294t408 -104.5q219 0 399.5 44t362.5 136l85 602q3 22 18.5 36t38.5 14h197z" />
    <glyph glyph-name="H" unicode="H" horiz-adv-x="2629" 
d="M2575 2440q20 0 32.5 -15t9.5 -35l-328 -2340q-4 -20 -20.5 -35t-36.5 -15h-229q-20 0 -33.5 15t-9.5 35l149 1066h-1519l-149 -1066q-4 -20 -20.5 -35t-36.5 -15h-229q-20 0 -33.5 15t-9.5 35l328 2340q3 20 20.5 35t37.5 15h229q20 0 32.5 -15t9.5 -35l-139 -994h1519
l139 994q3 20 20.5 35t37.5 15h229z" />
    <glyph glyph-name="I" unicode="I" horiz-adv-x="781" 
d="M440 2390q3 20 20.5 35t37.5 15h229q20 0 32.5 -15t9.5 -35l-328 -2340q-4 -20 -20.5 -35t-36.5 -15h-229q-20 0 -33.5 15t-9.5 35z" />
    <glyph glyph-name="J" unicode="J" horiz-adv-x="1909" 
d="M1855 2440q22 0 34 -13.5t9 -36.5l-226 -1606q-55 -383 -308 -601.5t-639 -218.5q-268 0 -445.5 120.5t-250.5 317.5q-16 44 33 67l199 88q43 20 63 -23q21 -49 44.5 -87.5t60.5 -78t81.5 -65.5t108.5 -42.5t141 -16.5q255 0 401 141t187 431l221 1574q3 22 18.5 36
t38.5 14h229z" />
    <glyph glyph-name="K" unicode="K" horiz-adv-x="2441" 
d="M728 2440q20 0 32.5 -15t9.5 -35l-329 -2340q-2 -20 -19 -35t-37 -15h-230q-20 0 -33 15t-10 35l329 2340q3 20 20 35t37 15h230zM2198 60q17 -22 5.5 -41t-43.5 -19h-294q-37 0 -59 27l-930 1213l1257 1173q26 27 65 27h272q33 0 39.5 -17t-19.5 -43l-1201 -1124z" />
    <glyph glyph-name="L" unicode="L" horiz-adv-x="2039" 
d="M1822 280q22 0 34 -14t8 -36l-25 -180q-3 -22 -18.5 -36t-38.5 -14h-1627q-20 0 -33 15t-10 35l329 2340q3 20 20 35t37 15h230q20 0 33 -15t9 -35l-296 -2110h1348z" />
    <glyph glyph-name="M" unicode="M" horiz-adv-x="3030" 
d="M2823 2446q30 34 67 34h90q22 0 34 -13.5t9 -36.5l-334 -2380q-4 -23 -19.5 -36.5t-37.5 -13.5h-229q-23 0 -35 14t-8 36l237 1689l-1113 -1339q-20 -23 -38.5 -22.5t-30.5 22.5l-737 1339l-237 -1689q-4 -23 -19.5 -36.5t-37.5 -13.5h-229q-23 0 -35 14t-8 36l334 2380
q3 22 18.5 36t38.5 14h74q37 0 58 -34l885 -1555z" />
    <glyph glyph-name="N" unicode="N" horiz-adv-x="2669" 
d="M2615 2440q22 0 33.5 -13.5t8.5 -36.5l-334 -2380q-4 -23 -19.5 -36.5t-37.5 -13.5h-13q-41 0 -61 24l-1505 1820l-246 -1754q-4 -23 -19.5 -36.5t-37.5 -13.5h-229q-23 0 -35 14t-8 36l334 2380q3 22 18.5 36t38.5 14h13q39 0 61 -24l1505 -1820l246 1754q3 22 19 36
t39 14h229z" />
    <glyph glyph-name="O" unicode="O" horiz-adv-x="2876" 
d="M1665 2476q175 0 336.5 -48.5t297 -143t236 -225t156.5 -305t56 -372.5q0 -211 -58 -405.5t-159 -348t-238.5 -280t-296.5 -210t-334 -129t-349 -45.5q-175 0 -336.5 48.5t-297 143t-236 225t-156.5 305t-56 372.5q0 211 58 405.5t159 348t238.5 280t296.5 210t334 129
t349 45.5zM1352 244q143 0 278.5 38t251 107.5t211.5 170.5t164 223.5t105.5 270.5t37.5 308q0 246 -95.5 435.5t-271.5 294t-408 104.5q-143 0 -278.5 -38t-251 -107.5t-212 -170.5t-164 -223.5t-105 -270.5t-37.5 -308q0 -246 95.5 -435.5t271.5 -294t408 -104.5z" />
    <glyph glyph-name="P" unicode="P" horiz-adv-x="2284" 
d="M1441 2440q168 0 307 -34.5t237 -96.5t166 -148.5t100 -189t32 -218.5q0 -143 -43 -273.5t-131.5 -241t-213.5 -192.5t-298 -128t-377 -46h-664l-115 -822q-4 -20 -20.5 -35t-36.5 -15h-229q-20 0 -33.5 15t-9.5 35l328 2340q3 20 20.5 35t37.5 15h229h714zM1195 1152
q163 0 291.5 31.5t211.5 84t137.5 127.5t77 156.5t22.5 175.5t-32 170t-100 136.5t-186.5 93.5t-279.5 33h-600l-142 -1008h600z" />
    <glyph glyph-name="Q" unicode="Q" horiz-adv-x="2876" 
d="M2747 1382q0 -193 -48 -371.5t-133.5 -324.5t-203 -269t-255.5 -212.5t-293 -147.5q101 -300 428 -300q50 0 43 -50l-31 -218q-4 -29 -17.5 -39t-42.5 -10q-89 0 -172 20.5t-158.5 64.5t-136.5 107.5t-105 154t-63 199.5q-129 -22 -247 -22q-175 0 -336.5 48.5t-297 143
t-236 225t-156.5 305t-56 372.5q0 211 58 405.5t159 348t238.5 280t296.5 210t334 129t349 45.5q175 0 336.5 -48.5t297 -143t236 -225t156.5 -305t56 -372.5zM1352 244q143 0 278.5 38t251 107.5t211.5 170.5t164 223.5t105.5 270.5t37.5 308q0 246 -95.5 435.5t-271.5 294
t-408 104.5q-143 0 -278.5 -38t-251 -107.5t-212 -170.5t-164 -223.5t-105 -270.5t-37.5 -308q0 -246 95.5 -435.5t271.5 -294t408 -104.5z" />
    <glyph glyph-name="R" unicode="R" horiz-adv-x="2416" 
d="M2246 1772q0 -297 -182.5 -519t-520.5 -302l455 -852q19 -36 -2.5 -67.5t-64.5 -31.5h-235q-24 0 -36 22l-464 890h-11h-623l-121 -862q-4 -20 -20.5 -35t-36.5 -15h-229q-20 0 -33.5 15t-9.5 35l328 2340q3 20 20.5 35t37.5 15h229h674q210 0 373 -50.5t265 -141
t154.5 -211t52.5 -265.5zM1160 1192q138 0 250 19.5t192 57t138 86.5t92 112.5t50 131.5t16 146q0 93 -32 166.5t-101 130.5t-187.5 87.5t-280.5 30.5h-560l-136 -968h559z" />
    <glyph glyph-name="S" unicode="S" horiz-adv-x="2239" 
d="M713 1769q0 -82 45 -145t120.5 -104t174 -75t207 -65t217 -66t207 -86t174 -117t120.5 -167t45 -229q0 -150 -58 -275.5t-157.5 -212t-235 -147t-288.5 -88.5t-319 -28q-261 0 -461 69t-376 191q-40 26 -15 68l103 173q14 21 33 27t40 -6q72 -48 116.5 -75t119 -63.5
t140.5 -56t159.5 -33.5t197.5 -14q296 0 471.5 106.5t175.5 310.5q0 81 -34.5 146.5t-82.5 108.5t-136 83t-155.5 63t-180.5 57q-98 29 -148.5 45.5t-138 50.5t-135.5 63t-110 76.5t-94 99t-55 123t-23 155.5q0 156 69 291.5t196.5 236.5t322 158.5t432.5 57.5
q136 0 253 -19t213 -56t155 -67.5t136 -77.5q41 -24 14 -68l-111 -183q-29 -46 -77 -12q-47 33 -82.5 55t-100.5 54.5t-126.5 52.5t-148 34.5t-178.5 14.5q-157 0 -279.5 -34.5t-198 -94.5t-114 -137.5t-38.5 -168.5z" />
    <glyph glyph-name="T" unicode="T" horiz-adv-x="2452" 
d="M2458 2440q20 0 32.5 -15t10.5 -35l-25 -180q-3 -20 -20 -35t-37 -15h-846l-297 -2110q-3 -20 -19.5 -35t-36.5 -15h-230q-20 0 -33 15t-10 35l297 2110h-846q-20 0 -32.5 15t-9.5 35l24 180q3 20 20 35t37 15h1125h896z" />
    <glyph glyph-name="U" unicode="U" horiz-adv-x="2590" 
d="M2535 2440q20 0 32.5 -15t9.5 -35l-190 -1358q-30 -213 -107 -389t-189 -301.5t-257.5 -212t-313 -128t-353.5 -41.5t-341.5 42t-277 127t-197.5 213t-104 300.5t3 389.5l190 1358q3 20 20.5 35t37.5 15h229q20 0 32.5 -15t9.5 -35l-181 -1294q-31 -198 -7 -356.5
t95.5 -269.5t205.5 -170.5t325 -59.5t341.5 59t255 171.5t170 268.5t93.5 357l181 1294q3 20 20.5 35t37.5 15h229z" />
    <glyph glyph-name="V" unicode="V" horiz-adv-x="2435" 
d="M2562 2440q28 0 37.5 -16t-5.5 -44l-1387 -2383q-23 -37 -63 -37h-89q-40 0 -52 37l-735 2384q-9 27 4 43t41 16h284q42 0 52 -37l528 -1888l1058 1888q22 37 62 37h265z" />
    <glyph glyph-name="W" unicode="W" horiz-adv-x="3408" 
d="M3539 2440q28 0 35.5 -16t-6.5 -43l-1177 -2384q-19 -37 -62 -37h-64q-40 0 -51 37l-397 1672l-858 -1672q-20 -37 -62 -37h-73q-42 0 -50 37l-508 2383q-6 28 6 44t39 16h261q42 0 52 -37l346 -1805l836 1653q18 37 62 37h63q42 0 51 -37l397 -1653l841 1805
q18 37 62 37h257z" />
    <glyph glyph-name="X" unicode="X" horiz-adv-x="2749" 
d="M2620 2440q31 0 37.5 -17t-16.5 -43l-1065 -1136l762 -1184q16 -26 4.5 -43t-42.5 -17h-296q-38 0 -59 30l-612 952l-870 -952q-26 -30 -65 -30h-269q-31 0 -38 17.5t17 43.5l1075 1153l-749 1165q-16 26 -4 43.5t43 17.5h295q22 0 34.5 -6.5t23.5 -24.5l600 -932
l860 933q29 30 67 30h267z" />
    <glyph glyph-name="Y" unicode="Y" horiz-adv-x="2359" 
d="M2484 2440q28 0 39 -17t-7 -43l-1172 -1523l-113 -807q-2 -20 -19 -35t-37 -15h-230q-20 0 -32.5 15t-10.5 35l112 797l-745 1534q-12 24 2.5 41.5t42.5 17.5h270q20 0 31 -8.5t20 -28.5l584 -1256l945 1256q29 37 63 37h257z" />
    <glyph glyph-name="Z" unicode="Z" horiz-adv-x="2491" 
d="M114 0q-23 0 -34.5 14t-7.5 36l7 51q5 36 29 60l1837 1999h-1435q-20 0 -33 15t-10 35l26 180q2 20 19 35t37 15h1893q22 0 34 -13.5t9 -36.5l-7 -51q-5 -36 -29 -60l-1837 -1999h1579q20 0 32.5 -15t10.5 -35l-25 -180q-4 -20 -21 -35t-37 -15h-2037z" />
    <glyph glyph-name="bracketleft" unicode="[" horiz-adv-x="1139" 
d="M1111 2344h-429l-394 -2808h428q22 0 34.5 -14t8.5 -36l-16 -117q-3 -22 -18.5 -35.5t-37.5 -13.5h-628q-20 0 -33 14.5t-10 34.5l441 3141q3 20 20 35t37 15h628q22 0 34 -14t9 -36l-17 -116q-3 -22 -18.5 -36t-38.5 -14z" />
    <glyph glyph-name="backslash" unicode="\" horiz-adv-x="2294" 
d="M506 2646l1606 -2647q11 -18 6.5 -38t-21.5 -28l-126 -63q-16 -8 -37 -1t-32 25l-1607 2647q-11 18 -6 38t21 28l125 63q18 9 39 1.5t32 -25.5z" />
    <glyph glyph-name="bracketright" unicode="]" horiz-adv-x="1140" 
d="M1103 2560q20 0 32.5 -15t9.5 -35l-441 -3141q-3 -20 -20 -34.5t-37 -14.5h-627q-23 0 -35 13.5t-9 35.5l17 117q3 22 18.5 36t37.5 14h429l395 2808h-429q-22 0 -33.5 13.5t-8.5 36.5l15 116q4 23 20 36.5t38 13.5h628z" />
    <glyph glyph-name="asciicircum" unicode="^" horiz-adv-x="1777" 
d="M1853 1849q21 -35 -1.5 -70t-66.5 -35h-129q-24 0 -34 18l-486 861l-729 -861q-14 -18 -38 -18h-130q-44 0 -56.5 35t18.5 70l820 933q15 18 37 18h206q22 0 32 -18z" />
    <glyph glyph-name="underscore" unicode="_" horiz-adv-x="1481" 
d="M47 -248q-22 0 -34 13.5t-9 36.5l21 148q3 22 18.5 36t38.5 14h1353q22 0 33.5 -14t8.5 -36l-20 -148q-4 -23 -19.5 -36.5t-37.5 -13.5h-1353z" />
    <glyph glyph-name="grave" unicode="`" horiz-adv-x="842" 
d="M682 1947l-649 403q-18 9 -20 30.5t9 35.5l123 170q12 15 33.5 20t38.5 -4l607 -455q15 -13 17.5 -33.5t-8.5 -35.5l-78 -112q-13 -17 -35 -23t-38 4z" />
    <glyph glyph-name="a" unicode="a" horiz-adv-x="2146" 
d="M2044 1679l-152 -1079q-17 -116 -16 -211t9.5 -149.5t31.5 -156.5q11 -52 -39 -70l-162 -53q-24 -9 -42 7q-37 47 -72.5 136.5t-45.5 191.5q-119 -158 -284 -244.5t-366 -86.5q-211 0 -384.5 96t-276.5 276.5t-103 411.5q0 177 57 338t155.5 283t227 212t277.5 137
t300 47q192 0 328.5 -81t212.5 -229l31 224q3 22 18.5 35.5t37.5 13.5h214q22 0 34 -13.5t9 -35.5zM978 244q136 0 260 53t216.5 145.5t147 225t54.5 282.5q0 238 -139.5 386t-364.5 148q-130 0 -251.5 -50t-217 -139t-153 -224.5t-57.5 -295.5q0 -243 143.5 -387
t361.5 -144z" />
    <glyph glyph-name="b" unicode="b" horiz-adv-x="2175" 
d="M1249 1765q158 0 298 -56.5t243 -157t163 -249t60 -322.5q0 -148 -40 -285.5t-110.5 -248t-167.5 -202t-209.5 -152.5t-238 -94.5t-251.5 -33.5q-192 0 -328 80.5t-212 228.5l-31 -223q-4 -23 -19.5 -36.5t-37.5 -13.5h-213q-23 0 -35 14t-8 36l345 2460q4 23 19.5 36.5
t37.5 13.5h213q23 0 35 -14t8 -36l-146 -1044q118 143 276.5 221t348.5 78zM1003 244q130 0 252 50t217 139t152.5 224.5t57.5 295.5q0 122 -39 223t-107 168t-160 103.5t-198 36.5q-137 0 -261 -53t-216 -145.5t-146.5 -224.5t-54.5 -282q0 -239 139.5 -387t363.5 -148z
" />
    <glyph glyph-name="c" unicode="c" horiz-adv-x="2016" 
d="M1771 469q43 -21 14 -67q-45 -71 -102 -133t-134 -119t-164.5 -97.5t-197 -64.5t-227.5 -24q-229 0 -410 96t-284.5 275t-103.5 412q0 178 55.5 338.5t155 283t231 212.5t288 137t322.5 47q118 0 220 -24t178 -64.5t137 -97.5t100.5 -119.5t65.5 -133.5q17 -44 -34 -66
l-198 -89q-43 -19 -64 24q-122 289 -435 289q-196 0 -352.5 -85.5t-248 -249.5t-91.5 -379q0 -244 143.5 -385t381.5 -141q304 0 510 290q31 43 69 23z" />
    <glyph glyph-name="d" unicode="d" horiz-adv-x="2175" 
d="M2137 2560q22 0 34 -13.5t9 -36.5l-346 -2460q-3 -23 -18.5 -36.5t-37.5 -13.5h-214q-22 0 -34 14t-9 36l31 214q-118 -144 -276.5 -222t-349.5 -78q-211 0 -384.5 96t-276.5 276.5t-103 411.5q0 177 57 338t155.5 283t227 212t277.5 137t300 47q192 0 328.5 -81
t212.5 -229l147 1055q4 23 19.5 36.5t37.5 13.5h213zM998 244q136 0 260 53t216.5 145.5t147 225t54.5 282.5q0 238 -139.5 386t-364.5 148q-130 0 -251.5 -50t-217 -139t-153 -224.5t-57.5 -295.5q0 -243 143.5 -387t361.5 -144z" />
    <glyph glyph-name="e" unicode="e" horiz-adv-x="2077" 
d="M1905 831h-1410q-2 -36 -2 -56q0 -243 143.5 -387t361.5 -144q336 0 515 274q31 43 70 23l175 -88q43 -22 14 -67q-135 -210 -351.5 -316t-478.5 -106q-167 0 -311.5 56t-247.5 156.5t-162 247.5t-59 321q0 178 54 338.5t150 283t224 213t281.5 138t316.5 47.5
q143 0 263 -33.5t218.5 -104t158 -180.5t83.5 -263.5t-6 -352.5zM1150 1501q-195 0 -362 -118.5t-243 -319.5h1026q3 96 -18.5 172.5t-60.5 125.5t-95 81t-117 45.5t-130 13.5z" />
    <glyph glyph-name="f" unicode="f" horiz-adv-x="1358" 
d="M1630 2497q20 -18 21.5 -33.5t-11.5 -37.5l-89 -134q-27 -45 -74 -18q-65 44 -125.5 67t-137.5 23q-170 0 -264.5 -112.5t-121.5 -307.5l-30 -216h593q22 0 34 -13.5t9 -35.5l-25 -181q-3 -22 -18.5 -36t-37.5 -14h-595l-196 -1398q-4 -23 -19.5 -36.5t-37.5 -13.5h-213
q-23 0 -35 14t-8 36l197 1398h-214q-22 0 -34 13.5t-9 36.5l25 181q3 22 19 35.5t38 13.5h214l35 248q42 294 238 473t463 179q121 0 234.5 -38t174.5 -93z" />
    <glyph glyph-name="g" unicode="g" horiz-adv-x="2017" 
d="M2018 1805q24 0 32 -8.5t5 -31.5l-29 -204q-5 -39 -44 -39q-79 0 -146.5 -33t-111.5 -96q27 -70 27 -158q0 -179 -104.5 -329t-289.5 -238t-410 -88h-261q-134 0 -203 -51t-69 -131q0 -64 55 -102.5t171 -38.5h321q380 0 579 -131.5t199 -363.5q0 -104 -34 -196.5
t-107.5 -171.5t-181 -136t-262 -89.5t-343.5 -32.5q-199 0 -352 35.5t-247 99t-141.5 146.5t-47.5 181q0 154 97.5 272t266.5 194q-133 27 -197 99t-64 178q0 138 92 237t277 146q-89 65 -138.5 167t-49.5 218q0 179 105 329.5t290.5 238.5t410.5 88q159 0 287 -47t213 -132
q79 106 186 162.5t219 56.5zM981 828q118 0 222 47.5t168.5 136.5t64.5 198q0 137 -102 222t-256 85q-118 0 -222 -48t-168.5 -136.5t-64.5 -197.5q0 -136 102 -221.5t256 -85.5zM1436 -280q0 127 -127.5 208t-382.5 81q-279 0 -439 -101.5t-160 -251.5q0 -132 127 -210
t382 -78q300 0 450 96.5t150 255.5z" />
    <glyph glyph-name="h" unicode="h" horiz-adv-x="2080" 
d="M1332 1768q133 0 236.5 -32t169.5 -92t106.5 -144t47.5 -188.5t-8 -226.5l-145 -1035q-4 -23 -19.5 -36.5t-37.5 -13.5h-213q-23 0 -35 14t-8 36l128 910q38 273 -51 400.5t-307 127.5q-240 0 -423 -161.5t-229 -424.5l-119 -852q-3 -22 -18.5 -36t-38.5 -14h-213
q-22 0 -34 13.5t-9 36.5l346 2460q3 22 18.5 36t37.5 14h214q22 0 34 -14t9 -36l-155 -1099q125 160 310.5 258.5t405.5 98.5z" />
    <glyph glyph-name="i" unicode="i" horiz-adv-x="862" 
d="M592 2012q-76 0 -126.5 53t-50.5 129q0 91 71.5 159t163.5 68q76 0 126.5 -53t50.5 -129q0 -91 -71.5 -159t-163.5 -68zM388 1679q3 22 18.5 35.5t37.5 13.5h213q23 0 35 -13.5t8 -35.5l-229 -1629q-3 -22 -18.5 -36t-37.5 -14h-214q-22 0 -34 14t-9 36z" />
    <glyph glyph-name="j" unicode="j" horiz-adv-x="823" 
d="M554 2012q-77 0 -127.5 52.5t-50.5 129.5q0 91 71.5 159t163.5 68q77 0 127.5 -52.5t50.5 -129.5q0 -91 -71.5 -159t-163.5 -68zM-300 -832q-57 0 -49 50l21 157q6 39 54 49q43 6 77.5 17t74.5 31.5t72 54.5t61.5 83t51.5 122t35 165l251 1782q3 22 18.5 35.5t37.5 13.5
h214q22 0 34 -13.5t9 -35.5l-252 -1790q-45 -322 -239 -521.5t-471 -199.5z" />
    <glyph glyph-name="k" unicode="k" horiz-adv-x="1854" 
d="M457 2510q3 22 18.5 36t38.5 14h213q22 0 34 -13.5t9 -36.5l-345 -2460q-4 -23 -19.5 -36.5t-37.5 -13.5h-213q-23 0 -35 14t-8 36zM1352 0q-36 0 -57 30l-631 914l814 758q27 26 67 26h257q31 0 36.5 -18t-18.5 -41l-790 -733l608 -876q17 -26 6.5 -43t-41.5 -17h-251z
" />
    <glyph glyph-name="l" unicode="l" horiz-adv-x="765" 
d="M458 2510q3 22 18.5 36t38.5 14h213q22 0 34 -13.5t9 -36.5l-346 -2460q-3 -22 -18.5 -36t-38.5 -14h-213q-22 0 -34 13.5t-9 36.5z" />
    <glyph glyph-name="m" unicode="m" horiz-adv-x="3222" 
d="M2510 1768q124 0 220.5 -32.5t159 -92t100.5 -144t44.5 -189t-8.5 -226.5l-145 -1034q-3 -22 -18.5 -36t-38.5 -14h-213q-22 0 -34 13.5t-9 36.5l128 912q74 526 -321 526q-100 0 -200.5 -44t-183.5 -121t-142.5 -191.5t-78.5 -247.5l-117 -834q-3 -22 -18.5 -36
t-38.5 -14h-213q-22 0 -34 13.5t-9 36.5l128 912q37 257 -42 391.5t-279 134.5q-100 0 -200.5 -44t-183.5 -121t-142.5 -191.5t-78.5 -247.5l-117 -834q-3 -22 -18.5 -36t-38.5 -14h-213q-22 0 -34 13.5t-9 36.5l229 1629q3 22 19 35.5t38 13.5h213q22 0 34 -13.5t9 -35.5
l-38 -273q125 163 294 262.5t372 99.5q234 0 362.5 -111t154.5 -311q124 193 315 307.5t396 114.5z" />
    <glyph glyph-name="n" unicode="n" horiz-adv-x="2082" 
d="M1334 1768q133 0 236.5 -32t169.5 -92t106.5 -144t47.5 -188.5t-8 -226.5l-145 -1035q-4 -23 -19.5 -36.5t-37.5 -13.5h-213q-23 0 -35 14t-9 36l129 910q38 273 -51 400.5t-307 127.5q-246 0 -432.5 -169t-224.5 -438l-116 -831q-3 -22 -18.5 -36t-38.5 -14h-213
q-22 0 -34 13.5t-9 36.5l229 1629q3 22 19 35.5t38 13.5h213q22 0 34 -13.5t9 -35.5l-38 -273q123 161 309.5 261.5t408.5 100.5z" />
    <glyph glyph-name="o" unicode="o" horiz-adv-x="2170" 
d="M1212 1765q168 0 314.5 -56.5t252.5 -157.5t167 -249t61 -323q0 -177 -56.5 -337.5t-156.5 -282.5t-231.5 -212t-287 -136.5t-317.5 -46.5q-168 0 -314.5 56.5t-253 157.5t-167.5 248.5t-61 322.5q0 177 56.5 337.5t156.5 282.5t232 212t287.5 137t317.5 47zM998 244
q129 0 250.5 50t217 139t153 224.5t57.5 295.5q0 122 -39 223t-107 168t-160 103.5t-198 36.5q-103 0 -202 -31t-185 -92.5t-151.5 -145.5t-103 -198t-37.5 -242q0 -243 143.5 -387t361.5 -144z" />
    <glyph glyph-name="p" unicode="p" horiz-adv-x="2175" 
d="M1249 1765q157 0 297 -56.5t243.5 -157t163.5 -249t60 -322.5q0 -177 -57 -338t-155.5 -282.5t-227.5 -212t-277.5 -137t-300.5 -46.5q-192 0 -328 80.5t-212 228.5l-148 -1055q-3 -23 -18.5 -36.5t-37.5 -13.5h-214q-22 0 -34 14t-9 36l346 2461q3 22 19 35.5t38 13.5
h213q22 0 34 -13.5t9 -35.5l-30 -214q118 144 276.5 222t349.5 78zM1003 244q130 0 251.5 50t216.5 139t152.5 224.5t57.5 295.5q0 122 -39 223t-107 168t-160 103.5t-198 36.5q-182 0 -337 -90t-248 -252.5t-93 -362.5q0 -239 139.5 -387t364.5 -148z" />
    <glyph glyph-name="q" unicode="q" horiz-adv-x="2175" 
d="M2020 1722q22 0 34 -14t9 -36l-346 -2460q-3 -22 -19 -36t-38 -14h-214q-22 0 -33.5 14t-8.5 36l147 1046q-118 -144 -276.5 -222t-349.5 -78q-157 0 -297 56.5t-243.5 157t-163.5 248.5t-60 322q0 177 57 338t155.5 282.5t227.5 212t277.5 137t300.5 46.5
q192 0 328 -80.5t212 -229.5l31 224q3 22 18.5 36t37.5 14h214zM997 238q136 0 260 53t216.5 145.5t147 224.5t54.5 282q0 239 -139.5 387t-364.5 148q-130 0 -251.5 -50t-216.5 -139t-152.5 -224.5t-57.5 -295.5q0 -162 67.5 -284t181 -184.5t255.5 -62.5z" />
    <glyph glyph-name="r" unicode="r" horiz-adv-x="1248" 
d="M1232 1765q30 0 40.5 -10.5t6.5 -39.5l-34 -241q-3 -22 -15.5 -33.5t-40.5 -16.5q-81 -11 -159.5 -36t-163 -73.5t-150.5 -114.5t-116.5 -166.5t-67.5 -221.5l-107 -762q-3 -22 -18.5 -36t-38.5 -14h-213q-22 0 -34 13.5t-9 36.5l229 1629q3 22 19 35.5t38 13.5h213
q22 0 34 -13.5t9 -35.5l-47 -340q116 186 301 306t324 120z" />
    <glyph glyph-name="s" unicode="s" horiz-adv-x="1734" 
d="M583 1245q0 -53 32 -93.5t85.5 -67t123.5 -48.5t147.5 -43t154.5 -45t147 -59t123.5 -80t85.5 -114.5t32 -156.5q0 -118 -42.5 -214.5t-114.5 -162.5t-170.5 -111t-207.5 -65.5t-227 -20.5q-177 0 -345.5 49.5t-309.5 143.5q-37 25 -14 66l95 158q11 21 30.5 29t40.5 -3
q137 -87 256 -133t274 -46q85 0 154.5 13t125.5 40.5t87 74.5t31 111q0 54 -31.5 96.5t-84 71.5t-121 54t-144.5 49t-152 50t-144.5 63.5t-121 84t-84 116t-31.5 155.5q0 176 95 303t264 191t394 64q303 0 549 -152q39 -23 14 -67l-99 -163q-26 -45 -66 -20
q-211 138 -432 138q-176 0 -287.5 -70t-111.5 -186z" />
    <glyph glyph-name="t" unicode="t" horiz-adv-x="1587" 
d="M1456 1728q22 0 34 -13.5t9 -35.5l-26 -181q-3 -23 -18.5 -36.5t-37.5 -13.5h-595l-112 -800q-15 -122 -7 -211.5t65.5 -141t167.5 -51.5q137 0 293 93q53 27 68 -19l49 -150q16 -44 -30 -71q-226 -133 -468 -133q-547 0 -455 652l117 832h-278q-22 0 -34 13.5t-9 36.5
l25 181q3 22 19 35.5t38 13.5h279l47 337q5 35 56 50l211 59q36 10 47 -1t8 -37l-57 -408h594z" />
    <glyph glyph-name="u" unicode="u" horiz-adv-x="2081" 
d="M1926 1728q22 0 34 -13.5t9 -35.5l-229 -1629q-4 -23 -19.5 -36.5t-37.5 -13.5h-213q-22 0 -34 13.5t-9 36.5l39 273q-124 -161 -311 -262t-409 -101q-133 0 -236 32t-169.5 92t-106.5 144t-47 188.5t8 226.5l145 1036q3 22 19 35.5t38 13.5h213q22 0 34 -13.5t9 -35.5
l-127 -911q-39 -272 49.5 -400t306.5 -128q246 0 433 169.5t225 438.5l116 831q3 22 18.5 35.5t37.5 13.5h214z" />
    <glyph glyph-name="v" unicode="v" horiz-adv-x="1796" 
d="M1837 1728q36 0 49 -27t-9 -62l-1058 -1665q-9 -14 -30 -14h-31q-21 0 -26 14l-595 1664q-12 33 7.5 61.5t58.5 28.5h239q28 0 37 -28l375 -1182l705 1182q17 28 49 28h229z" />
    <glyph glyph-name="w" unicode="w" horiz-adv-x="2657" 
d="M2702 1728q33 0 44.5 -25.5t-5.5 -57.5l-883 -1671q-9 -14 -30 -14h-31q-21 0 -27 14l-414 1084l-720 -1083q-7 -11 -11.5 -13t-17.5 -2h-31q-21 0 -26 14l-415 1671q-8 32 11 57.5t53 25.5h232q30 0 37 -31l259 -1131l655 1002q13 22 32 22h34q19 0 26 -22l374 -1002
l582 1131q17 31 46 31h226z" />
    <glyph glyph-name="x" unicode="x" horiz-adv-x="1880" 
d="M1844 1728q31 0 38 -17t-16 -43l-738 -779l537 -829q16 -27 4 -43.5t-42 -16.5h-281q-38 0 -56 30l-394 607l-550 -607q-28 -30 -66 -30h-273q-30 0 -35.5 17.5t18.5 43.5l757 807l-519 800q-16 28 -4 44t41 16h281q40 0 58 -30l375 -580l530 580q25 30 64 30h271z" />
    <glyph glyph-name="y" unicode="y" horiz-adv-x="1814" 
d="M1855 1728q35 0 47.5 -27t-8.5 -62l-1000 -1637q-134 -220 -248 -369.5t-237 -257.5t-251.5 -157.5t-276.5 -49.5q-28 0 -41 11t-9 39l22 157q5 45 54 49q121 10 231.5 87.5t241 244.5t313.5 465l-554 1418q-15 34 6 61.5t58 27.5h236q27 0 38 -28l414 -1151l691 1151
q16 28 50 28h223z" />
    <glyph glyph-name="z" unicode="z" horiz-adv-x="1947" 
d="M64 0q-22 0 -33.5 11.5t-9.5 31.5l1 9q6 34 29 60l1217 1336h-908q-19 0 -32 15t-11 35l25 181q4 20 21 34.5t37 14.5h1393q23 0 35 -10t9 -30l-2 -12q-5 -33 -29 -60l-1221 -1336h1024q20 0 32.5 -15t10.5 -35l-25 -180q-3 -20 -20 -35t-37 -15h-1506z" />
    <glyph glyph-name="braceleft" unicode="{" horiz-adv-x="1024" 
d="M1008 2356q-82 -9 -133.5 -42.5t-84 -113.5t-36.5 -213q-3 -55 -2 -204.5t-1 -205.5q-5 -277 -86 -431t-259 -206q211 -68 211 -363q0 -91 -29 -221t-64.5 -238t-64.5 -221t-29 -174q0 -92 43 -140.5t137 -59.5q17 -2 26.5 -13.5t6.5 -27.5l-16 -116q-2 -19 -16.5 -31.5
t-33.5 -11.5q-198 5 -303 98.5t-105 269.5q0 67 29.5 185.5t65.5 229t65.5 241t29.5 218.5q0 259 -185 290q-17 2 -26.5 13.5t-7.5 27.5l12 87q6 37 45 42q70 9 121.5 42.5t91.5 100t61.5 177.5t24.5 266q1 49 1 202t2 193q14 535 533 551q19 1 29.5 -11.5t8.5 -31.5
l-16 -116q-6 -35 -46 -42z" />
    <glyph glyph-name="bar" unicode="|" horiz-adv-x="701" 
d="M511 2890q3 20 20 35t37 15h149q20 0 32.5 -15t9.5 -35l-467 -3321q-2 -19 -19 -34t-37 -15h-149q-20 0 -33 14.5t-10 34.5z" />
    <glyph glyph-name="braceright" unicode="}" horiz-adv-x="1025" 
d="M872 1025q18 -2 27 -13.5t6 -28.5l-12 -87q-5 -36 -45 -41q-70 -11 -121 -44t-91 -99t-61.5 -176.5t-24.5 -266.5q-1 -48 -1.5 -196.5t-2.5 -198.5q-7 -273 -143.5 -408.5t-388.5 -142.5q-19 -1 -29.5 11.5t-8.5 31.5l16 116q7 36 45 41q125 14 186.5 94.5t67.5 274.5
q3 55 2.5 204t1.5 206q5 277 86 431.5t259 206.5q-212 67 -212 363q0 91 29.5 221t64.5 237.5t64.5 220.5t29.5 174q0 93 -43 141.5t-137 58.5q-39 7 -33 42l15 116q3 19 17.5 31.5t33.5 11.5q198 -5 303 -99t105 -270q0 -66 -30 -184.5t-65.5 -229t-65.5 -241.5t-30 -219
q0 -264 186 -289z" />
    <glyph glyph-name="asciitilde" unicode="~" horiz-adv-x="2237" 
d="M2063 1275q14 -8 18 -24t-5 -33q-99 -199 -253 -304.5t-313 -105.5q-107 0 -199 25.5t-157 62t-125.5 73t-132.5 62t-151 25.5q-107 0 -202.5 -61t-157.5 -157q-15 -21 -35.5 -27.5t-39.5 4.5l-78 46q-32 19 -14 57q66 134 162.5 228.5t198.5 138t205 43.5
q107 0 199 -25.5t157 -62t125 -73t132.5 -62t150.5 -25.5q108 0 203 61t159 157q14 21 34.5 28t40.5 -4z" />
    <glyph glyph-name="exclamdown" unicode="&#xa1;" horiz-adv-x="859" 
d="M556 1764q77 0 127.5 -52.5t50.5 -129.5q0 -91 -71.5 -159t-163.5 -68q-77 0 -127.5 52.5t-50.5 129.5q0 91 71.5 159t163.5 68zM369 -662q-2 -22 -18 -36t-39 -14h-213q-23 0 -34.5 14t-7.5 36l276 1670q4 23 19 36.5t37 13.5h131q22 0 34 -13.5t9 -36.5z" />
    <glyph glyph-name="cent" unicode="&#xa2;" horiz-adv-x="2016" 
d="M1915 1326q17 -44 -34 -66l-198 -89q-43 -19 -64 24q-122 289 -435 289q-196 0 -352.5 -85.5t-248 -249.5t-91.5 -379q0 -244 143.5 -385t381.5 -141q304 0 510 290q31 43 69 23l175 -88q43 -21 14 -67q-52 -81 -120.5 -151t-157 -130.5t-202.5 -100t-240 -51.5l-57 -404
q-4 -20 -20.5 -35t-36.5 -15h-148q-20 0 -33.5 15t-9.5 35l57 409q-293 44 -474 252t-181 521q0 202 72 381t196 307.5t288.5 212.5t350.5 108l53 382q3 20 19.5 35t36.5 15h149q20 0 32.5 -15t10.5 -35l-53 -378q122 -12 224 -51.5t174 -100t121 -130.5t79 -152z" />
    <glyph glyph-name="sterling" unicode="&#xa3;" horiz-adv-x="2332" 
d="M2269 2103q25 -28 26 -41t-13 -26l-145 -143q-15 -15 -24 -21.5t-24 -6.5t-29 16q-62 71 -120.5 122.5t-133.5 98t-165.5 70.5t-194.5 24q-235 0 -389.5 -119.5t-183.5 -328.5q-12 -85 -12.5 -173.5t5.5 -149t17 -141.5h736q21 0 33.5 -14t9.5 -36l-21 -147
q-3 -22 -19 -36.5t-38 -14.5h-671q5 -91 -8 -170.5t-53 -174.5t-122.5 -202.5t-208.5 -227.5q115 37 243.5 46t240 -4.5t239.5 -30.5t241.5 -30.5t247.5 -6t256 43.5q31 9 51.5 -7t15.5 -47l-25 -180q-2 -17 -17.5 -30.5t-37.5 -18.5q-146 -35 -290.5 -45.5t-263.5 -1
t-236.5 27.5t-227 35t-215.5 25.5t-222 -3.5t-228 -50q-19 -7 -37 -0.5t-22 24.5l-37 161q-4 18 14 38q126 151 205.5 272t115.5 219.5t45 173.5t1 164h-317q-22 0 -34.5 14.5t-9.5 36.5l20 147q4 22 20.5 36t37.5 14h250q-32 243 3 495q21 146 90 271t180.5 221
t275.5 150.5t361 54.5q120 0 226.5 -20t188.5 -53t157 -83t130.5 -101t111.5 -116z" />
    <glyph glyph-name="currency" unicode="&#xa4;" horiz-adv-x="2788" 
d="M2755 2082q15 -18 10.5 -41t-26.5 -39l-410 -294q99 -142 139.5 -316t13.5 -364t-116 -364t-228 -316l327 -294q18 -15 16.5 -38.5t-21.5 -41.5l-144 -127q-20 -19 -43.5 -17.5t-36.5 22.5l-243 368q-160 -122 -346.5 -189t-379.5 -67q-192 0 -359.5 67t-292.5 189
l-347 -368q-19 -21 -42 -22.5t-39 17.5l-108 127q-15 18 -10 41.5t27 38.5l409 294q-99 142 -139.5 316t-13.5 364q26 190 116 364t228 315l-326 295q-18 16 -16.5 39t21.5 41l144 127q20 19 43.5 17.5t35.5 -22.5l244 -368q160 122 346.5 189t378.5 67t359.5 -67
t293.5 -189l347 368q19 21 42 22.5t39 -17.5zM2185 1028q24 172 -14.5 321t-125.5 254t-220.5 165t-294.5 60q-215 0 -404.5 -102t-316.5 -285.5t-159 -412.5q-24 -172 14 -321t125.5 -253.5t221 -164.5t294.5 -60q160 0 310.5 60t267.5 164.5t197.5 253.5t104.5 321z" />
    <glyph glyph-name="yen" unicode="&#xa5;" horiz-adv-x="2359" 
d="M2484 2440q28 0 39 -17t-7 -43l-997 -1295h333q22 0 34 -14t9 -36l-15 -109q-3 -22 -19 -35.5t-38 -13.5h-464l-15 -20l-35 -253h475q23 0 35 -14t9 -36l-16 -108q-3 -22 -18.5 -36t-38.5 -14h-476l-48 -346q-2 -20 -19 -35t-37 -15h-230q-20 0 -32.5 15t-10.5 35l48 346
h-484q-23 0 -35 14t-8 36l15 108q4 23 19.5 36.5t37.5 13.5h485l34 243l-15 30h-466q-22 0 -34 13.5t-8 35.5l15 109q3 22 18.5 36t37.5 14h336l-629 1296q-12 24 2.5 41.5t42.5 17.5h270q20 0 31 -8.5t20 -28.5l584 -1256l945 1256q29 37 63 37h257z" />
    <glyph glyph-name="brokenbar" unicode="&#xa6;" horiz-adv-x="701" 
d="M511 2890q3 20 20 35t37 15h149q20 0 32.5 -15t9.5 -35l-146 -1040q-2 -20 -19 -35t-37 -15h-149q-20 0 -33 15t-10 35zM190 610q3 20 20.5 35t36.5 15h150q19 0 32 -15t10 -35l-147 -1041q-2 -19 -19 -34t-37 -15h-149q-20 0 -33 14.5t-10 34.5z" />
    <glyph glyph-name="section" unicode="&#xa7;" horiz-adv-x="2219" 
d="M2201 2144q1 -27 -17 -45.5t-45 -18.5h-214q-35 0 -41 37q-19 222 -140.5 340.5t-376.5 118.5q-273 0 -443 -135.5t-202 -366.5q-11 -81 17 -151.5t71.5 -118.5t134.5 -101t156.5 -83t186.5 -80q108 -45 163.5 -69.5t152.5 -74.5t144.5 -88.5t113 -103.5t85.5 -127.5
t35 -152.5t-10.5 -187t-80.5 -221.5t-147 -265.5q180 -177 142 -444q-33 -237 -176 -412t-361 -264.5t-483 -89.5q-392 0 -607 181.5t-229 514.5q-1 28 17 46t44 18h214q36 0 41 -37q10 -109 43.5 -190.5t98 -143t168.5 -93.5t247 -32q278 0 449.5 135t204.5 367
q11 81 -17.5 151.5t-68.5 116.5t-134 99t-152.5 79t-184.5 78q-107 44 -162 68t-152 73t-144.5 87.5t-113 103t-86.5 128t-36.5 154t8.5 189.5t77 226.5t143 271.5q-179 177 -141 443q33 237 175.5 412t358.5 264.5t477 89.5q370 0 576.5 -182t220.5 -514zM1556 387
q58 114 84.5 212.5t25 175t-28 143.5t-69.5 116.5t-106 96.5t-129.5 81t-149 71t-156 66.5t-158 68.5t-147.5 75q-58 -114 -85 -212.5t-25.5 -174.5t28 -143t69 -117t106 -96.5t130 -81t149.5 -71.5t156 -66.5t158 -68.5t148 -75z" />
    <glyph glyph-name="dieresis" unicode="&#xa8;" horiz-adv-x="1181" 
d="M193 2014q-73 0 -121 50t-48 122q0 88 68 153t156 65q73 0 121.5 -50t48.5 -123q0 -87 -68.5 -152t-156.5 -65zM933 2014q-73 0 -121 50t-48 122q0 88 68 153t156 65q73 0 121.5 -50t48.5 -123q0 -87 -68.5 -152t-156.5 -65z" />
    <glyph glyph-name="copyright" unicode="&#xa9;" horiz-adv-x="2865" 
d="M1657 2460q230 0 431.5 -86t343 -233t222.5 -349t81 -429q0 -185 -54 -363.5t-149.5 -330t-230.5 -280t-291.5 -218.5t-337 -140.5t-364.5 -50.5q-230 0 -431.5 85.5t-343 232.5t-222.5 349.5t-81 429.5q0 184 54 363t149.5 330t230.5 280t291.5 219t337 140.5
t364.5 50.5zM1326 99q165 0 327.5 45.5t303.5 127t262 198t207.5 253t135.5 298.5t49 329q0 164 -46.5 315t-133.5 273.5t-205 213.5t-268.5 140.5t-316.5 49.5q-165 0 -327.5 -46t-303.5 -127t-262.5 -198t-208 -253.5t-135.5 -298.5t-49 -329q0 -205 73 -388t200.5 -315.5
t309 -210t388.5 -77.5zM2079 888q26 -15 8 -42q-244 -382 -667 -382q-131 0 -249 46.5t-207 129.5t-141 208t-52 273q0 151 49 287.5t133.5 237.5t194 175.5t234 112.5t250.5 38q424 0 560 -382q10 -28 -20 -41l-114 -51q-28 -12 -39 16q-105 290 -411 290
q-129 0 -245 -50.5t-200.5 -138.5t-134 -213.5t-49.5 -268.5q0 -224 127.5 -362.5t337.5 -138.5q304 0 491 290q19 29 45 17z" />
    <glyph glyph-name="guillemotleft" unicode="&#xab;" horiz-adv-x="1978" 
d="M464 897l476 -426q12 -12 10 -30l-18 -129q-5 -37 -36 -51.5t-59 7.5l-625 515q-14 12 -11 29l12 85l12 84q3 19 19 29l771 515q33 22 60 7.5t22 -51.5l-19 -129q-3 -19 -19 -30zM1776 1525q33 22 59.5 7.5t21.5 -51.5l-18 -129q-3 -18 -19 -30l-596 -425l476 -426
q13 -12 10 -30l-18 -129q-5 -37 -35.5 -51.5t-58.5 7.5l-625 515q-14 11 -11 29l11 85l12 84q3 18 20 29z" />
    <glyph glyph-name="logicalnot" unicode="&#xac;" horiz-adv-x="2102" 
d="M1893 1205q22 0 33.5 -14t8.5 -36l-73 -519q-3 -22 -18.5 -36t-37.5 -14h-174q-22 0 -34 14t-9 36l45 321h-1363q-22 0 -34 13.5t-9 35.5l21 149q3 22 19 36t38 14h1587z" />
    <glyph glyph-name="registered" unicode="&#xae;" horiz-adv-x="2865" 
d="M1657 2460q230 0 431.5 -86t343 -233t222.5 -349t81 -429q0 -185 -54 -363.5t-149.5 -330t-230.5 -280t-291.5 -218.5t-337 -140.5t-364.5 -50.5q-230 0 -431.5 85.5t-343 232.5t-222.5 349.5t-81 429.5q0 184 54 363t149.5 330t230.5 280t291.5 219t337 140.5
t364.5 50.5zM1326 99q165 0 327.5 45.5t303.5 127t262 198t207.5 253t135.5 298.5t49 329q0 164 -46.5 315t-133.5 273.5t-205 213.5t-268.5 140.5t-316.5 49.5q-165 0 -327.5 -46t-303.5 -127t-262.5 -198t-208 -253.5t-135.5 -298.5t-49 -329q0 -205 73 -388t200.5 -315.5
t309 -210t388.5 -77.5zM1620 1950q248 0 377.5 -110.5t129.5 -289.5t-109.5 -312.5t-312.5 -180.5l273 -512q12 -22 -1 -40.5t-39 -18.5h-141q-15 0 -22 13l-278 534h-7h-373l-73 -517q-2 -12 -12 -21t-23 -9h-137q-12 0 -20 9t-6 21l197 1404q1 12 12 21t23 9h137h405z
M1475 1201q123 0 211.5 26t137.5 73t71.5 104.5t22.5 128.5q0 249 -361 249h-335l-82 -581h335z" />
    <glyph glyph-name="macron" unicode="&#xaf;" horiz-adv-x="1114" 
d="M-11 2287q3 20 20.5 35t37.5 15h1053q20 0 32.5 -15t9.5 -35l-18 -129q-2 -20 -19 -35t-37 -15h-1053q-20 0 -33 15t-11 35z" />
    <glyph glyph-name="degree" unicode="&#xb0;" horiz-adv-x="917" 
d="M583 1755q-153 0 -254 104.5t-101 257.5q0 121 66 226.5t174.5 167t229.5 61.5q154 0 255 -104.5t101 -257.5q0 -121 -66 -226.5t-175 -167t-230 -61.5zM615 1977q87 0 150 63t63 147q0 71 -44.5 119t-115.5 48q-87 0 -150 -63.5t-63 -149.5q0 -69 44.5 -116.5
t115.5 -47.5z" />
    <glyph glyph-name="plusminus" unicode="&#xb1;" horiz-adv-x="2068" 
d="M1876 1323q22 0 33.5 -13.5t8.5 -35.5l-21 -149q-3 -23 -18.5 -36.5t-37.5 -13.5h-653l-92 -652q-3 -23 -18.5 -36.5t-37.5 -13.5h-149q-22 0 -34 14t-9 36l92 652h-652q-22 0 -34 14t-9 36l21 149q3 22 19 35.5t38 13.5h652l92 653q3 22 18.5 36t37.5 14h149
q22 0 34 -14t9 -36l-92 -653h653zM1725 248q22 0 33.5 -14t8.5 -36l-21 -148q-3 -23 -18.5 -36.5t-37.5 -13.5h-1553q-22 0 -34 13.5t-9 36.5l20 148q4 23 20 36.5t38 13.5h1553z" />
    <glyph glyph-name="acute" unicode="&#xb4;" horiz-adv-x="925" 
d="M118 1947q-20 -10 -39.5 -4t-27.5 23l-49 112q-5 15 3 35.5t26 33.5l736 455q19 9 39 4t28 -20l75 -170q7 -16 -0.5 -36.5t-27.5 -29.5z" />
    <glyph glyph-name="paragraph" unicode="&#xb6;" horiz-adv-x="2180" 
d="M2125 2440q20 0 33 -15t10 -35l-397 -2821q-3 -20 -20 -34.5t-36 -14.5h-53q-20 0 -33 15t-10 34l383 2727h-828l-383 -2727q-3 -20 -20 -34.5t-36 -14.5h-53q-20 0 -33.5 15t-9.5 34l193 1373q-174 12 -312 102t-214.5 237t-76.5 322q0 167 72 322.5t190.5 267.5
t276.5 179.5t324 67.5h980h53z" />
    <glyph glyph-name="periodcentered" unicode="&#xb7;" horiz-adv-x="858" 
d="M404 684q-77 0 -127.5 52.5t-50.5 129.5q0 91 71.5 159t163.5 68q77 0 127.5 -52.5t50.5 -129.5q0 -91 -71.5 -159t-163.5 -68z" />
    <glyph glyph-name="cedilla" unicode="&#xb8;" horiz-adv-x="2103" 
d="M314 -864q-184 0 -296 84q-36 27 -10 70l31 51q28 46 73 23q62 -31 109.5 -46t103.5 -15q103 0 172 53.5t69 152.5q0 41 -16.5 69t-48 42t-69 20t-87 3t-93.5 -9.5t-97 -17.5q-33 -6 -43.5 5.5t4.5 44.5l182 368h183l-124 -252q95 21 176.5 13t141 -37t93.5 -86t34 -133
q0 -123 -71 -217t-180.5 -140t-236.5 -46z" />
    <glyph glyph-name="guillemotright" unicode="&#xbb;" horiz-adv-x="1979" 
d="M1002 812q-1 -16 -19 -29l-771 -515q-33 -22 -60 -7.5t-22 51.5l19 129q1 17 19 30l595 426h1l-476 425q-14 12 -11 30l18 129q5 37 36 51.5t58 -7.5l626 -515q14 -10 11 -29l-11 -84zM1776 1010q13 -10 11 -29l-12 -84l-12 -85q-3 -18 -20 -29l-770 -515
q-33 -22 -60 -7.5t-22 51.5l18 129q3 19 20 30l595 426l-476 425q-12 12 -11 30l18 129q5 37 36.5 51.5t57.5 -7.5z" />
    <glyph glyph-name="onequarter" unicode="&#xbc;" horiz-adv-x="3608" 
d="M2461 2528q11 18 31.5 25.5t37.5 -1.5l105 -52q16 -8 21 -28t-6 -38l-1607 -2647q-11 -18 -32 -25.5t-38 0.5l-104 52q-17 9 -21.5 29t6.5 37zM1065 2397q13 0 21 -10t7 -23l-216 -1538q-2 -13 -13.5 -23t-24.5 -10h-151q-13 0 -21 10t-7 23l190 1350l-303 -144
q-14 -6 -27 -1.5t-17 17.5l-33 103q-4 12 2 24.5t19 17.5l402 195q19 9 42 9h130zM3393 543q15 0 23 -9t6 -23l-17 -119q-1 -15 -11.5 -24t-25.5 -9h-223l-46 -326q-1 -13 -12.5 -23t-24.5 -10h-151q-13 0 -21.5 10t-6.5 23l46 326h-832q-14 0 -22 9t-7 24l16 109q2 11 9 18
l1016 1066q21 19 43 19h135q13 0 21.5 -9.5t6.5 -23.5l-145 -1028h223zM2351 543h603l105 746z" />
    <glyph glyph-name="onehalf" unicode="&#xbd;" horiz-adv-x="3663" 
d="M2635 2500q16 -8 21 -28t-6 -38l-1607 -2647q-11 -18 -32 -25.5t-38 0.5l-104 52q-17 9 -21.5 29t6.5 37l1607 2648q11 18 31.5 25.5t37.5 -1.5zM877 826q-2 -13 -13.5 -23t-24.5 -10h-151q-13 0 -21 10t-7 23l190 1350l-303 -144q-14 -6 -27 -1.5t-17 17.5l-33 103
q-4 12 2 24.5t19 17.5l402 195q19 9 42 9h130q13 0 21 -10t7 -23zM3469 1168q-18 -124 -77 -239t-172 -237t-253.5 -239.5t-353.5 -275.5h731q13 0 21.5 -9.5t6.5 -23.5l-16 -118q-2 -13 -13.5 -23t-24.5 -10h-1087q-14 0 -22 9t-6 24l5 33q4 29 19 40q283 202 475 357
t309 279.5t171 221t67 191.5q20 139 -48.5 214t-220.5 75q-130 0 -239.5 -54.5t-222.5 -152.5q-13 -11 -23 -11t-14 4.5t-12 14.5l-69 94q-3 4 -4 7t0 7t2 6.5t4.5 6.5t5.5 5.5t7 6t6 5.5q133 115 275.5 180t329.5 65q129 0 223 -35t145 -97.5t69.5 -143t5.5 -177.5z" />
    <glyph glyph-name="threequarters" unicode="&#xbe;" horiz-adv-x="3921" 
d="M2741 2528q11 18 31.5 25.5t37.5 -1.5l105 -52q16 -8 21 -28t-6 -38l-1607 -2647q-11 -18 -32 -25.5t-38 0.5l-104 52q-17 9 -21.5 29t6.5 37zM1128 1619q311 -80 311 -345q0 -228 -181 -366.5t-483 -138.5q-108 0 -197 19t-156.5 56t-115.5 77t-96 94q-9 9 -13 14.5
t-4 13.5t8 16l102 104q17 17 26.5 19t24.5 -11q38 -41 65 -66.5t70 -57.5t85 -50.5t101 -31t126 -12.5q186 0 303 80t117 221q0 42 -12.5 78.5t-45 73t-83 63.5t-133 44.5t-189.5 19.5q-15 1 -23.5 10.5t-6.5 23.5l12 86q1 14 12.5 23.5t26.5 10.5q115 2 205 23t146.5 52.5
t93.5 75t51.5 87t14.5 91.5q0 105 -75 163t-220 58q-127 0 -227 -44t-223 -134q-21 -12 -29.5 -10t-19.5 18l-64 94q-12 17 21 44q277 216 591 216q121 0 212.5 -29.5t144.5 -81t79 -114.5t26 -137q0 -146 -96.5 -261.5t-281.5 -178.5zM3674 543q15 0 23 -9t6 -23l-17 -119
q-1 -15 -11.5 -24t-25.5 -9h-223l-46 -326q-1 -13 -12.5 -23t-24.5 -10h-151q-13 0 -21.5 10t-6.5 23l46 326h-832q-14 0 -22 9t-7 24l16 109q2 11 9 18l1016 1066q21 19 43 19h135q13 0 21.5 -9.5t6.5 -23.5l-145 -1028h223zM2632 543h603l105 746z" />
    <glyph glyph-name="questiondown" unicode="&#xbf;" horiz-adv-x="1659" 
d="M966 1764q77 0 127.5 -52.5t50.5 -129.5q0 -91 -71.5 -159t-163.5 -68q-77 0 -127.5 52.5t-50.5 129.5q0 91 71.5 159t163.5 68zM251 -149q0 -319 393 -319q178 0 326 65.5t291 183.5q15 12 26.5 16.5t20.5 -1t13 -10t13 -17.5l100 -135q16 -24 -21 -57q-2 -2 -8 -7
l-5 -4q-366 -314 -810 -314q-314 0 -496 154t-182 405q0 110 26 203.5t70.5 162t102.5 128.5t124 110t133 97.5t130.5 99.5t116 109t91.5 132.5t54 163.5q3 18 16.5 29.5t30.5 11.5l149 -2q15 0 24.5 -14t9.5 -35q-6 -87 -35 -167t-73 -143.5t-100 -123t-115.5 -112.5
t-119 -105.5t-113 -108.5t-94.5 -114.5t-65 -130.5t-24 -151z" />
    <glyph glyph-name="Agrave" unicode="&#xc0;" 
d="M940 3062q-18 9 -20 30.5t9 35.5l123 170q12 15 33.5 20t38.5 -4l607 -455q15 -13 17.5 -33.5t-8.5 -35.5l-78 -112q-13 -17 -35 -23t-38 4zM2348 59q9 -27 -4 -43t-41 -16h-274q-44 0 -52 37l-180 615h-1130l-363 -615q-23 -37 -62 -37h-269q-28 0 -38 15.5t6 43.5
l1454 2384q24 37 62 37h89q41 0 53 -37zM823 916h897l-297 1015z" />
    <glyph glyph-name="Aacute" unicode="&#xc1;" 
d="M1319 2678l-49 112q-5 15 3 35.5t26 33.5l736 455q19 9 39 4t28 -20l75 -170q7 -16 -0.5 -36.5t-27.5 -29.5l-763 -403q-20 -10 -39.5 -4t-27.5 23zM2348 59q9 -27 -4 -43t-41 -16h-274q-44 0 -52 37l-180 615h-1130l-363 -615q-23 -37 -62 -37h-269q-28 0 -38 15.5
t6 43.5l1454 2384q24 37 62 37h89q41 0 53 -37zM823 916h897l-297 1015z" />
    <glyph glyph-name="Acircumflex" unicode="&#xc2;" 
d="M989 2680q-32 0 -38 18.5t19 42.5l485 458q26 26 66 26h158q39 0 60 -26l355 -458q19 -24 8 -42.5t-43 -18.5h-235q-41 0 -60 30l-196 282l-275 -282q-30 -30 -68 -30h-236zM2348 59q9 -27 -4 -43t-41 -16h-274q-44 0 -52 37l-180 615h-1130l-363 -615q-23 -37 -62 -37
h-269q-28 0 -38 15.5t6 43.5l1454 2384q24 37 62 37h89q41 0 53 -37zM823 916h897l-297 1015z" />
    <glyph glyph-name="Atilde" unicode="&#xc3;" 
d="M971 2714q-23 0 -33.5 14t-6.5 39q19 105 60 185t97 128.5t120.5 72.5t136.5 24q77 0 137 -24t97 -58.5t69.5 -69t73.5 -58.5t90 -24q156 0 198 184q12 50 60 50h84q23 0 32.5 -22t-0.5 -61q-39 -190 -151 -285t-256 -95q-77 0 -136.5 24.5t-96.5 59t-69.5 69.5
t-73.5 59.5t-90 24.5q-156 0 -199 -187q-11 -50 -60 -50h-83zM2348 59q9 -27 -4 -43t-41 -16h-274q-44 0 -52 37l-180 615h-1130l-363 -615q-23 -37 -62 -37h-269q-28 0 -38 15.5t6 43.5l1454 2384q24 37 62 37h89q41 0 53 -37zM823 916h897l-297 1015z" />
    <glyph glyph-name="Adieresis" unicode="&#xc4;" 
d="M1161 2726q-73 0 -121 50t-48 122q0 88 68 153t156 65q73 0 121.5 -50t48.5 -123q0 -87 -68.5 -152t-156.5 -65zM1901 2726q-73 0 -121 50t-48 122q0 88 68 153t156 65q73 0 121.5 -50t48.5 -123q0 -87 -68.5 -152t-156.5 -65zM2348 59q9 -27 -4 -43t-41 -16h-274
q-44 0 -52 37l-180 615h-1130l-363 -615q-23 -37 -62 -37h-269q-28 0 -38 15.5t6 43.5l1454 2384q24 37 62 37h89q41 0 53 -37zM823 916h897l-297 1015z" />
    <glyph glyph-name="Aring" unicode="&#xc5;" 
d="M2348 59q9 -27 -4 -43t-41 -16h-274q-44 0 -52 37l-180 615h-1130l-363 -615q-23 -37 -62 -37h-269q-28 0 -38 15.5t6 43.5l1423 2333q-103 38 -165 130t-62 209q0 121 66 226.5t175 167.5t230 62q153 0 254 -104.5t101 -258.5q0 -151 -99.5 -273t-247.5 -164zM1582 3005
q-104 0 -179 -76t-75 -178q0 -82 53.5 -139t137.5 -57q103 0 178 75t75 176q0 84 -52.5 141.5t-137.5 57.5zM823 916h897l-297 1015z" />
    <glyph glyph-name="AE" unicode="&#xc6;" horiz-adv-x="3564" 
d="M3510 2440q22 0 33.5 -13.5t9.5 -36.5l-25 -180q-4 -22 -19.5 -36t-37.5 -14h-1439l-107 -764h1278q22 0 34 -13.5t9 -35.5l-25 -181q-4 -23 -20 -36.5t-38 -13.5h-1278l-117 -836h1478q22 0 34 -14t9 -36l-25 -180q-4 -23 -19.5 -36.5t-37.5 -13.5h-1622h-135
q-20 0 -33.5 15t-9.5 35l84 602h-755l-446 -625q-13 -17 -25 -22t-34 -5h-253q-29 0 -41 20.5t7 48.5l1688 2344q20 27 61 27h104h225h1488zM925 916h603l148 1052z" />
    <glyph glyph-name="Ccedilla" unicode="&#xc7;" horiz-adv-x="2635" 
d="M2597 1840q17 -47 -33 -69l-189 -85q-48 -21 -66 27q-174 483 -684 483q-143 0 -278.5 -38t-251 -107.5t-212 -170.5t-164 -223.5t-105 -270.5t-37.5 -308q0 -246 95.5 -435.5t271.5 -294t408 -104.5q506 0 818 483q31 48 74 27l165 -85q44 -22 13 -69
q-382 -599 -1027 -634l-91 -184q95 21 176.5 13t141 -37t93.5 -86t34 -133q0 -123 -71 -217t-180.5 -140t-236.5 -46q-184 0 -296 84q-36 27 -10 70l31 51q28 46 73 23q62 -31 109.5 -46t103.5 -15q103 0 172 53.5t69 152.5q0 41 -16.5 69t-48 42t-69 20t-87 3t-93.5 -9.5
t-97 -17.5q-33 -6 -43.5 5.5t4.5 44.5l149 302q-203 17 -381.5 101t-312 221.5t-211 336t-77.5 431.5q0 211 58 405.5t159 348t238.5 280t296.5 210t334 129t349 45.5q706 0 932 -636z" />
    <glyph glyph-name="Egrave" unicode="&#xc8;" horiz-adv-x="2269" 
d="M826 3062q-18 9 -20 30.5t9 35.5l123 170q12 15 33.5 20t38.5 -4l607 -455q15 -13 17.5 -33.5t-8.5 -35.5l-78 -112q-13 -17 -35 -23t-38 4zM2215 2440q22 0 33.5 -13.5t9.5 -36.5l-25 -180q-4 -22 -19.5 -36t-37.5 -14h-1439l-107 -764h1278q22 0 34 -13.5t9 -35.5
l-25 -181q-4 -23 -20 -36.5t-38 -13.5h-1278l-117 -836h1478q22 0 34 -14t9 -36l-25 -180q-4 -23 -19.5 -36.5t-37.5 -13.5h-1622h-135q-20 0 -33.5 15t-9.5 35l328 2340q3 20 20.5 35t37.5 15h229h1488z" />
    <glyph glyph-name="Eacute" unicode="&#xc9;" horiz-adv-x="2269" 
d="M1205 2678l-49 112q-5 15 3 35.5t26 33.5l736 455q19 9 39 4t28 -20l75 -170q7 -16 -0.5 -36.5t-27.5 -29.5l-763 -403q-20 -10 -39.5 -4t-27.5 23zM2215 2440q22 0 33.5 -13.5t9.5 -36.5l-25 -180q-4 -22 -19.5 -36t-37.5 -14h-1439l-107 -764h1278q22 0 34 -13.5
t9 -35.5l-25 -181q-4 -23 -20 -36.5t-38 -13.5h-1278l-117 -836h1478q22 0 34 -14t9 -36l-25 -180q-4 -23 -19.5 -36.5t-37.5 -13.5h-1622h-135q-20 0 -33.5 15t-9.5 35l328 2340q3 20 20.5 35t37.5 15h229h1488z" />
    <glyph glyph-name="Ecircumflex" unicode="&#xca;" horiz-adv-x="2269" 
d="M875 2680q-32 0 -38 18.5t19 42.5l485 458q26 26 66 26h158q39 0 60 -26l355 -458q19 -24 8 -42.5t-43 -18.5h-235q-40 0 -60 30l-196 282l-275 -282q-30 -30 -68 -30h-236zM2215 2440q22 0 33.5 -13.5t9.5 -36.5l-25 -180q-4 -22 -19.5 -36t-37.5 -14h-1439l-107 -764
h1278q22 0 34 -13.5t9 -35.5l-25 -181q-4 -23 -20 -36.5t-38 -13.5h-1278l-117 -836h1478q22 0 34 -14t9 -36l-25 -180q-4 -23 -19.5 -36.5t-37.5 -13.5h-1622h-135q-20 0 -33.5 15t-9.5 35l328 2340q3 20 20.5 35t37.5 15h229h1488z" />
    <glyph glyph-name="Edieresis" unicode="&#xcb;" horiz-adv-x="2269" 
d="M1047 2726q-73 0 -121 50t-48 122q0 88 68 153t156 65q73 0 121.5 -50t48.5 -123q0 -87 -68.5 -152t-156.5 -65zM1787 2726q-73 0 -121 50t-48 122q0 88 68 153t156 65q73 0 121.5 -50t48.5 -123q0 -87 -68.5 -152t-156.5 -65zM2215 2440q22 0 33.5 -13.5t9.5 -36.5
l-25 -180q-4 -22 -19.5 -36t-37.5 -14h-1439l-107 -764h1278q22 0 34 -13.5t9 -35.5l-25 -181q-4 -23 -20 -36.5t-38 -13.5h-1278l-117 -836h1478q22 0 34 -14t9 -36l-25 -180q-4 -23 -19.5 -36.5t-37.5 -13.5h-1622h-135q-20 0 -33.5 15t-9.5 35l328 2340q3 20 20.5 35
t37.5 15h229h1488z" />
    <glyph glyph-name="Igrave" unicode="&#xcc;" horiz-adv-x="781" 
d="M710 2659l-649 403q-18 9 -20 30.5t9 35.5l123 170q12 15 33.5 20t38.5 -4l607 -455q15 -13 17.5 -33.5t-8.5 -35.5l-78 -112q-13 -17 -35 -23t-38 4zM440 2390q3 20 20.5 35t37.5 15h229q20 0 32.5 -15t9.5 -35l-328 -2340q-4 -20 -20.5 -35t-36.5 -15h-229
q-20 0 -33.5 15t-9.5 35z" />
    <glyph glyph-name="Iacute" unicode="&#xcd;" horiz-adv-x="781" 
d="M507 2659q-20 -10 -39.5 -4t-27.5 23l-49 112q-5 15 3 35.5t26 33.5l736 455q19 9 39 4t28 -20l75 -170q7 -16 -0.5 -36.5t-27.5 -29.5zM440 2390q3 20 20.5 35t37.5 15h229q20 0 32.5 -15t9.5 -35l-328 -2340q-4 -20 -20.5 -35t-36.5 -15h-229q-20 0 -33.5 15t-9.5 35z
" />
    <glyph glyph-name="Icircumflex" unicode="&#xce;" horiz-adv-x="781" 
d="M885 2710l-196 282l-275 -282q-30 -30 -68 -30h-236q-32 0 -38 18.5t19 42.5l485 458q26 26 66 26h158q39 0 60 -26l355 -458q19 -24 8 -42.5t-43 -18.5h-235q-41 0 -60 30zM440 2390q3 20 20.5 35t37.5 15h229q20 0 32.5 -15t9.5 -35l-328 -2340q-4 -20 -20.5 -35
t-36.5 -15h-229q-20 0 -33.5 15t-9.5 35z" />
    <glyph glyph-name="Idieresis" unicode="&#xcf;" horiz-adv-x="781" 
d="M282 2726q-73 0 -121 50t-48 122q0 88 68 153t156 65q73 0 121.5 -50t48.5 -123q0 -87 -68.5 -152t-156.5 -65zM1022 2726q-73 0 -121 50t-48 122q0 88 68 153t156 65q73 0 121.5 -50t48.5 -123q0 -87 -68.5 -152t-156.5 -65zM440 2390q3 20 20.5 35t37.5 15h229
q20 0 32.5 -15t9.5 -35l-328 -2340q-4 -20 -20.5 -35t-36.5 -15h-229q-20 0 -33.5 15t-9.5 35z" />
    <glyph glyph-name="Eth" unicode="&#xd0;" horiz-adv-x="2638" 
d="M1413 2440q185 0 350.5 -44.5t301.5 -133t235 -213.5t153.5 -294.5t54.5 -366.5q0 -215 -54.5 -407.5t-152 -343t-232 -272t-294.5 -201t-339 -122t-366 -42.5h-768h-147q-20 0 -33.5 15t-9.5 35l145 1038h-290q-22 0 -34 13.5t-9 36.5l20 148q3 22 19 36t38 14h291
l148 1054q3 20 20.5 35t37.5 15h229h686zM1076 280q233 0 433.5 77.5t344.5 216.5t225.5 342t81.5 445q0 370 -220.5 584.5t-599.5 214.5h-604l-116 -824h670q22 0 33.5 -13.5t8.5 -36.5l-20 -148q-3 -22 -18.5 -36t-38.5 -14h-670l-113 -808h603z" />
    <glyph glyph-name="Ntilde" unicode="&#xd1;" horiz-adv-x="2669" 
d="M1076 2714q-23 0 -33.5 14t-6.5 39q19 105 60 185t97 128.5t120.5 72.5t136.5 24q77 0 137 -24t97 -58.5t69.5 -69t73.5 -58.5t90 -24q156 0 198 184q12 50 60 50h84q23 0 32.5 -22t-0.5 -61q-39 -190 -151 -285t-256 -95q-77 0 -136.5 24.5t-96.5 59t-69.5 69.5
t-73.5 59.5t-90 24.5q-156 0 -199 -187q-11 -50 -60 -50h-83zM2615 2440q22 0 33.5 -13.5t8.5 -36.5l-334 -2380q-4 -23 -19.5 -36.5t-37.5 -13.5h-13q-41 0 -61 24l-1505 1820l-246 -1754q-4 -23 -19.5 -36.5t-37.5 -13.5h-229q-23 0 -35 14t-8 36l334 2380q3 22 18.5 36
t38.5 14h13q39 0 61 -24l1505 -1820l246 1754q3 22 19 36t39 14h229z" />
    <glyph glyph-name="Ograve" unicode="&#xd2;" horiz-adv-x="2876" 
d="M1758 2659l-649 403q-18 9 -20 30.5t9 35.5l123 170q12 15 33.5 20t38.5 -4l607 -455q15 -13 17.5 -33.5t-8.5 -35.5l-78 -112q-13 -17 -35 -23t-38 4zM1665 2476q175 0 336.5 -48.5t297 -143t236 -225t156.5 -305t56 -372.5q0 -211 -58 -405.5t-159 -348t-238.5 -280
t-296.5 -210t-334 -129t-349 -45.5q-175 0 -336.5 48.5t-297 143t-236 225t-156.5 305t-56 372.5q0 211 58 405.5t159 348t238.5 280t296.5 210t334 129t349 45.5zM1352 244q143 0 278.5 38t251 107.5t211.5 170.5t164 223.5t105.5 270.5t37.5 308q0 246 -95.5 435.5
t-271.5 294t-408 104.5q-143 0 -278.5 -38t-251 -107.5t-212 -170.5t-164 -223.5t-105 -270.5t-37.5 -308q0 -246 95.5 -435.5t271.5 -294t408 -104.5z" />
    <glyph glyph-name="Oacute" unicode="&#xd3;" horiz-adv-x="2876" 
d="M1555 2659q-20 -10 -39.5 -4t-27.5 23l-49 112q-5 15 3 35.5t26 33.5l736 455q19 9 39 4t28 -20l75 -170q7 -16 -0.5 -36.5t-27.5 -29.5zM1665 2476q175 0 336.5 -48.5t297 -143t236 -225t156.5 -305t56 -372.5q0 -211 -58 -405.5t-159 -348t-238.5 -280t-296.5 -210
t-334 -129t-349 -45.5q-175 0 -336.5 48.5t-297 143t-236 225t-156.5 305t-56 372.5q0 211 58 405.5t159 348t238.5 280t296.5 210t334 129t349 45.5zM1352 244q143 0 278.5 38t251 107.5t211.5 170.5t164 223.5t105.5 270.5t37.5 308q0 246 -95.5 435.5t-271.5 294
t-408 104.5q-143 0 -278.5 -38t-251 -107.5t-212 -170.5t-164 -223.5t-105 -270.5t-37.5 -308q0 -246 95.5 -435.5t271.5 -294t408 -104.5z" />
    <glyph glyph-name="Ocircumflex" unicode="&#xd4;" horiz-adv-x="2876" 
d="M1933 2710l-196 282l-275 -282q-30 -30 -68 -30h-236q-32 0 -38 18.5t19 42.5l485 458q26 26 66 26h158q39 0 60 -26l355 -458q19 -24 8 -42.5t-43 -18.5h-235q-41 0 -60 30zM1665 2476q175 0 336.5 -48.5t297 -143t236 -225t156.5 -305t56 -372.5q0 -211 -58 -405.5
t-159 -348t-238.5 -280t-296.5 -210t-334 -129t-349 -45.5q-175 0 -336.5 48.5t-297 143t-236 225t-156.5 305t-56 372.5q0 211 58 405.5t159 348t238.5 280t296.5 210t334 129t349 45.5zM1352 244q143 0 278.5 38t251 107.5t211.5 170.5t164 223.5t105.5 270.5t37.5 308
q0 246 -95.5 435.5t-271.5 294t-408 104.5q-143 0 -278.5 -38t-251 -107.5t-212 -170.5t-164 -223.5t-105 -270.5t-37.5 -308q0 -246 95.5 -435.5t271.5 -294t408 -104.5z" />
    <glyph glyph-name="Otilde" unicode="&#xd5;" horiz-adv-x="2876" 
d="M1140 2714q-23 0 -33.5 14t-6.5 39q19 105 60 185t97 128.5t120.5 72.5t136.5 24q77 0 137 -24t97 -58.5t69.5 -69t73.5 -58.5t90 -24q156 0 198 184q12 50 60 50h84q23 0 32.5 -22t-0.5 -61q-39 -190 -151 -285t-256 -95q-77 0 -136.5 24.5t-96.5 59t-69.5 69.5
t-73.5 59.5t-90 24.5q-156 0 -199 -187q-11 -50 -60 -50h-83zM1665 2476q175 0 336.5 -48.5t297 -143t236 -225t156.5 -305t56 -372.5q0 -211 -58 -405.5t-159 -348t-238.5 -280t-296.5 -210t-334 -129t-349 -45.5q-175 0 -336.5 48.5t-297 143t-236 225t-156.5 305
t-56 372.5q0 211 58 405.5t159 348t238.5 280t296.5 210t334 129t349 45.5zM1352 244q143 0 278.5 38t251 107.5t211.5 170.5t164 223.5t105.5 270.5t37.5 308q0 246 -95.5 435.5t-271.5 294t-408 104.5q-143 0 -278.5 -38t-251 -107.5t-212 -170.5t-164 -223.5t-105 -270.5
t-37.5 -308q0 -246 95.5 -435.5t271.5 -294t408 -104.5z" />
    <glyph glyph-name="Odieresis" unicode="&#xd6;" horiz-adv-x="2876" 
d="M1330 2726q-73 0 -121 50t-48 122q0 88 68 153t156 65q73 0 121.5 -50t48.5 -123q0 -87 -68.5 -152t-156.5 -65zM2070 2726q-73 0 -121 50t-48 122q0 88 68 153t156 65q73 0 121.5 -50t48.5 -123q0 -87 -68.5 -152t-156.5 -65zM1665 2476q175 0 336.5 -48.5t297 -143
t236 -225t156.5 -305t56 -372.5q0 -211 -58 -405.5t-159 -348t-238.5 -280t-296.5 -210t-334 -129t-349 -45.5q-175 0 -336.5 48.5t-297 143t-236 225t-156.5 305t-56 372.5q0 211 58 405.5t159 348t238.5 280t296.5 210t334 129t349 45.5zM1352 244q143 0 278.5 38
t251 107.5t211.5 170.5t164 223.5t105.5 270.5t37.5 308q0 246 -95.5 435.5t-271.5 294t-408 104.5q-143 0 -278.5 -38t-251 -107.5t-212 -170.5t-164 -223.5t-105 -270.5t-37.5 -308q0 -246 95.5 -435.5t271.5 -294t408 -104.5z" />
    <glyph glyph-name="multiply" unicode="&#xd7;" horiz-adv-x="2005" 
d="M1899 1703q14 -16 11 -35t-22 -35l-687 -602l518 -603q14 -16 11.5 -35.5t-20.5 -34.5l-121 -106q-18 -16 -37.5 -16t-32.5 16l-518 603l-688 -603q-17 -16 -36.5 -16t-33.5 16l-90 106q-30 35 10 70l687 602l-518 603q-13 17 -10 36t20 34l120 106q41 34 70 0l518 -603
l688 603q18 16 37.5 15.5t32.5 -15.5z" />
    <glyph glyph-name="Oslash" unicode="&#xd8;" horiz-adv-x="2876" 
d="M2819 2296q14 -15 11.5 -34.5t-21.5 -35.5l-243 -213q181 -270 181 -631q0 -211 -58 -405.5t-159 -348t-238.5 -280t-296.5 -210t-334 -129t-349 -45.5q-216 0 -411 74.5t-343 213.5l-211 -185q-18 -16 -37.5 -15.5t-32.5 15.5l-91 106q-14 15 -11.5 34.5t21.5 35.5
l213 187q-179 269 -179 628q0 211 58 405.5t159 348t238.5 280t296.5 210t334 129t349 45.5q216 0 410 -74t341 -212l242 212q18 16 37.5 15.5t32.5 -15.5zM577 1078q0 -239 90 -422l1508 1323q-211 217 -550 217q-143 0 -278.5 -38t-251 -107.5t-212 -170.5t-164 -223.5
t-105 -270.5t-37.5 -308zM2400 1362q0 238 -91 425l-1510 -1323q212 -220 553 -220q143 0 278.5 38t251 107.5t211.5 170.5t164 223.5t105.5 270.5t37.5 308z" />
    <glyph glyph-name="Ugrave" unicode="&#xd9;" horiz-adv-x="2590" 
d="M1614 2659l-649 403q-18 9 -20 30.5t9 35.5l123 170q12 15 33.5 20t38.5 -4l607 -455q15 -13 17.5 -33.5t-8.5 -35.5l-78 -112q-13 -17 -35 -23t-38 4zM2535 2440q20 0 32.5 -15t9.5 -35l-190 -1358q-30 -213 -107 -389t-189 -301.5t-257.5 -212t-313 -128t-353.5 -41.5
t-341.5 42t-277 127t-197.5 213t-104 300.5t3 389.5l190 1358q3 20 20.5 35t37.5 15h229q20 0 32.5 -15t9.5 -35l-181 -1294q-31 -198 -7 -356.5t95.5 -269.5t205.5 -170.5t325 -59.5t341.5 59t255 171.5t170 268.5t93.5 357l181 1294q3 20 20.5 35t37.5 15h229z" />
    <glyph glyph-name="Uacute" unicode="&#xda;" horiz-adv-x="2590" 
d="M1411 2659q-20 -10 -39.5 -4t-27.5 23l-49 112q-5 15 3 35.5t26 33.5l736 455q19 9 39 4t28 -20l75 -170q7 -16 -0.5 -36.5t-27.5 -29.5zM2535 2440q20 0 32.5 -15t9.5 -35l-190 -1358q-30 -213 -107 -389t-189 -301.5t-257.5 -212t-313 -128t-353.5 -41.5t-341.5 42
t-277 127t-197.5 213t-104 300.5t3 389.5l190 1358q3 20 20.5 35t37.5 15h229q20 0 32.5 -15t9.5 -35l-181 -1294q-31 -198 -7 -356.5t95.5 -269.5t205.5 -170.5t325 -59.5t341.5 59t255 171.5t170 268.5t93.5 357l181 1294q3 20 20.5 35t37.5 15h229z" />
    <glyph glyph-name="Ucircumflex" unicode="&#xdb;" horiz-adv-x="2590" 
d="M1789 2710l-196 282l-275 -282q-30 -30 -68 -30h-236q-32 0 -38 18.5t19 42.5l485 458q26 26 66 26h158q39 0 60 -26l355 -458q19 -24 8 -42.5t-43 -18.5h-235q-41 0 -60 30zM2535 2440q20 0 32.5 -15t9.5 -35l-190 -1358q-30 -213 -107 -389t-189 -301.5t-257.5 -212
t-313 -128t-353.5 -41.5t-341.5 42t-277 127t-197.5 213t-104 300.5t3 389.5l190 1358q3 20 20.5 35t37.5 15h229q20 0 32.5 -15t9.5 -35l-181 -1294q-31 -198 -7 -356.5t95.5 -269.5t205.5 -170.5t325 -59.5t341.5 59t255 171.5t170 268.5t93.5 357l181 1294q3 20 20.5 35
t37.5 15h229z" />
    <glyph glyph-name="Udieresis" unicode="&#xdc;" horiz-adv-x="2590" 
d="M1186 2726q-73 0 -121 50t-48 122q0 88 68 153t156 65q73 0 121.5 -50t48.5 -123q0 -87 -68.5 -152t-156.5 -65zM1926 2726q-73 0 -121 50t-48 122q0 88 68 153t156 65q73 0 121.5 -50t48.5 -123q0 -87 -68.5 -152t-156.5 -65zM2535 2440q20 0 32.5 -15t9.5 -35
l-190 -1358q-30 -213 -107 -389t-189 -301.5t-257.5 -212t-313 -128t-353.5 -41.5t-341.5 42t-277 127t-197.5 213t-104 300.5t3 389.5l190 1358q3 20 20.5 35t37.5 15h229q20 0 32.5 -15t9.5 -35l-181 -1294q-31 -198 -7 -356.5t95.5 -269.5t205.5 -170.5t325 -59.5
t341.5 59t255 171.5t170 268.5t93.5 357l181 1294q3 20 20.5 35t37.5 15h229z" />
    <glyph glyph-name="Yacute" unicode="&#xdd;" horiz-adv-x="2359" 
d="M1240 2678l-49 112q-5 15 3 35.5t26 33.5l736 455q19 9 39 4t28 -20l75 -170q7 -16 -0.5 -36.5t-27.5 -29.5l-763 -403q-20 -10 -39.5 -4t-27.5 23zM2484 2440q28 0 39 -17t-7 -43l-1172 -1523l-113 -807q-2 -20 -19 -35t-37 -15h-230q-20 0 -32.5 15t-10.5 35l112 797
l-745 1534q-12 24 2.5 41.5t42.5 17.5h270q20 0 31 -8.5t20 -28.5l584 -1256l945 1256q29 37 63 37h257z" />
    <glyph glyph-name="Thorn" unicode="&#xde;" horiz-adv-x="2286" 
d="M1380 2008q168 0 307 -34.5t237.5 -96.5t166.5 -148.5t100 -189t32 -218.5q0 -143 -43 -273t-131.5 -241t-213 -192.5t-298 -128t-377.5 -46.5h-664l-55 -390q-2 -20 -19 -35t-37 -15h-230q-20 0 -33 15t-10 35l329 2340q3 20 20 35t37 15h230q20 0 33 -15t9 -35
l-53 -382h663zM1135 720q163 0 292 31.5t212 84t137.5 127.5t77 156.5t22.5 175.5t-32 170t-100.5 136.5t-187 93.5t-280.5 33h-599l-141 -1008h599z" />
    <glyph glyph-name="germandbls" unicode="&#xdf;" horiz-adv-x="2180" 
d="M1467 1294q0 -54 19 -97.5t51.5 -74.5t74 -57.5t88 -51t92.5 -51.5t87.5 -63t74 -80.5t51.5 -109.5t19 -145q0 -119 -41.5 -219t-111.5 -169t-161.5 -118t-191 -71.5t-200.5 -22.5q-163 0 -322.5 55t-262.5 138q-35 27 -12 67l88 157q12 21 28.5 29t35.5 -3
q122 -88 226 -133.5t234 -45.5q172 0 278.5 79.5t106.5 208.5q0 51 -20 93t-54 71.5t-78 55t-93 49.5t-97.5 50t-92.5 60.5t-78 76.5t-54 103.5t-20 136.5q0 70 17.5 132.5t46 110.5t62.5 94t68 93.5t62.5 98t46 118t17.5 143.5q0 170 -84 266t-240 96q-175 0 -292.5 -116.5
t-143.5 -303.5l-266 -1894q-3 -22 -18.5 -36t-38.5 -14h-213q-22 0 -34 13.5t-9 36.5l270 1926q22 154 93 279t175.5 206t233 124t269.5 43q277 0 446.5 -157t169.5 -428q0 -82 -16.5 -155t-43.5 -127t-59 -102.5t-64 -91.5t-59 -84.5t-43.5 -89.5t-16.5 -99z" />
    <glyph glyph-name="agrave" unicode="&#xe0;" horiz-adv-x="2146" 
d="M717 2350q-18 9 -20 30.5t9 35.5l123 170q12 15 33.5 20t38.5 -4l607 -455q15 -13 17.5 -33.5t-8.5 -35.5l-78 -112q-13 -17 -35 -23t-38 4zM2044 1679l-152 -1079q-17 -116 -16 -211t9.5 -149.5t31.5 -156.5q11 -52 -39 -70l-162 -53q-24 -9 -42 7q-37 47 -72.5 136.5
t-45.5 191.5q-119 -158 -284 -244.5t-366 -86.5q-211 0 -384.5 96t-276.5 276.5t-103 411.5q0 177 57 338t155.5 283t227 212t277.5 137t300 47q192 0 328.5 -81t212.5 -229l31 224q3 22 18.5 35.5t37.5 13.5h214q22 0 34 -13.5t9 -35.5zM978 244q136 0 260 53t216.5 145.5
t147 225t54.5 282.5q0 238 -139.5 386t-364.5 148q-130 0 -251.5 -50t-217 -139t-153 -224.5t-57.5 -295.5q0 -243 143.5 -387t361.5 -144z" />
    <glyph glyph-name="aacute" unicode="&#xe1;" horiz-adv-x="2146" 
d="M1096 1966l-49 112q-5 15 3 35.5t26 33.5l736 455q19 9 39 4t28 -20l75 -170q7 -16 -0.5 -36.5t-27.5 -29.5l-763 -403q-20 -10 -39.5 -4t-27.5 23zM2044 1679l-152 -1079q-17 -116 -16 -211t9.5 -149.5t31.5 -156.5q11 -52 -39 -70l-162 -53q-24 -9 -42 7
q-37 47 -72.5 136.5t-45.5 191.5q-119 -158 -284 -244.5t-366 -86.5q-211 0 -384.5 96t-276.5 276.5t-103 411.5q0 177 57 338t155.5 283t227 212t277.5 137t300 47q192 0 328.5 -81t212.5 -229l31 224q3 22 18.5 35.5t37.5 13.5h214q22 0 34 -13.5t9 -35.5zM978 244
q136 0 260 53t216.5 145.5t147 225t54.5 282.5q0 238 -139.5 386t-364.5 148q-130 0 -251.5 -50t-217 -139t-153 -224.5t-57.5 -295.5q0 -243 143.5 -387t361.5 -144z" />
    <glyph glyph-name="acircumflex" unicode="&#xe2;" horiz-adv-x="2146" 
d="M766 1968q-32 0 -38 18.5t19 42.5l485 458q26 26 66 26h158q39 0 60 -26l355 -458q19 -24 8 -42.5t-43 -18.5h-235q-41 0 -60 30l-196 282l-275 -282q-30 -30 -68 -30h-236zM2044 1679l-152 -1079q-17 -116 -16 -211t9.5 -149.5t31.5 -156.5q11 -52 -39 -70l-162 -53
q-24 -9 -42 7q-37 47 -72.5 136.5t-45.5 191.5q-119 -158 -284 -244.5t-366 -86.5q-211 0 -384.5 96t-276.5 276.5t-103 411.5q0 177 57 338t155.5 283t227 212t277.5 137t300 47q192 0 328.5 -81t212.5 -229l31 224q3 22 18.5 35.5t37.5 13.5h214q22 0 34 -13.5t9 -35.5z
M978 244q136 0 260 53t216.5 145.5t147 225t54.5 282.5q0 238 -139.5 386t-364.5 148q-130 0 -251.5 -50t-217 -139t-153 -224.5t-57.5 -295.5q0 -243 143.5 -387t361.5 -144z" />
    <glyph glyph-name="atilde" unicode="&#xe3;" horiz-adv-x="2146" 
d="M748 2002q-23 0 -33.5 14t-6.5 39q19 105 60 185t97 128.5t120.5 72.5t136.5 24q77 0 137 -24t97 -58.5t69.5 -69t73.5 -58.5t90 -24q156 0 198 184q12 50 60 50h84q23 0 32.5 -22t-0.5 -61q-39 -190 -151 -285t-256 -95q-77 0 -136.5 24.5t-96.5 59t-69.5 69.5
t-73.5 59.5t-90 24.5q-156 0 -199 -187q-11 -50 -60 -50h-83zM2044 1679l-152 -1079q-17 -116 -16 -211t9.5 -149.5t31.5 -156.5q11 -52 -39 -70l-162 -53q-24 -9 -42 7q-37 47 -72.5 136.5t-45.5 191.5q-119 -158 -284 -244.5t-366 -86.5q-211 0 -384.5 96t-276.5 276.5
t-103 411.5q0 177 57 338t155.5 283t227 212t277.5 137t300 47q192 0 328.5 -81t212.5 -229l31 224q3 22 18.5 35.5t37.5 13.5h214q22 0 34 -13.5t9 -35.5zM978 244q136 0 260 53t216.5 145.5t147 225t54.5 282.5q0 238 -139.5 386t-364.5 148q-130 0 -251.5 -50t-217 -139
t-153 -224.5t-57.5 -295.5q0 -243 143.5 -387t361.5 -144z" />
    <glyph glyph-name="adieresis" unicode="&#xe4;" horiz-adv-x="2146" 
d="M938 2014q-73 0 -121 50t-48 122q0 88 68 153t156 65q73 0 121.5 -50t48.5 -123q0 -87 -68.5 -152t-156.5 -65zM1678 2014q-73 0 -121 50t-48 122q0 88 68 153t156 65q73 0 121.5 -50t48.5 -123q0 -87 -68.5 -152t-156.5 -65zM2044 1679l-152 -1079q-17 -116 -16 -211
t9.5 -149.5t31.5 -156.5q11 -52 -39 -70l-162 -53q-24 -9 -42 7q-37 47 -72.5 136.5t-45.5 191.5q-119 -158 -284 -244.5t-366 -86.5q-211 0 -384.5 96t-276.5 276.5t-103 411.5q0 177 57 338t155.5 283t227 212t277.5 137t300 47q192 0 328.5 -81t212.5 -229l31 224
q3 22 18.5 35.5t37.5 13.5h214q22 0 34 -13.5t9 -35.5zM978 244q136 0 260 53t216.5 145.5t147 225t54.5 282.5q0 238 -139.5 386t-364.5 148q-130 0 -251.5 -50t-217 -139t-153 -224.5t-57.5 -295.5q0 -243 143.5 -387t361.5 -144z" />
    <glyph glyph-name="aring" unicode="&#xe5;" horiz-adv-x="2146" 
d="M1293 1908q-154 0 -255 104t-101 257q0 121 66 226.5t175 167.5t230 62q153 0 254 -104.5t101 -258.5q0 -121 -66 -226t-174.5 -166.5t-229.5 -61.5zM1382 2543q-104 0 -179 -76t-75 -178q0 -82 53.5 -139t137.5 -57q103 0 178 75t75 176q0 84 -52.5 141.5t-137.5 57.5z
M2044 1679l-152 -1079q-17 -116 -16 -211t9.5 -149.5t31.5 -156.5q11 -52 -39 -70l-162 -53q-24 -9 -42 7q-37 47 -72.5 136.5t-45.5 191.5q-119 -158 -284 -244.5t-366 -86.5q-211 0 -384.5 96t-276.5 276.5t-103 411.5q0 177 57 338t155.5 283t227 212t277.5 137t300 47
q192 0 328.5 -81t212.5 -229l31 224q3 22 18.5 35.5t37.5 13.5h214q22 0 34 -13.5t9 -35.5zM978 244q136 0 260 53t216.5 145.5t147 225t54.5 282.5q0 238 -139.5 386t-364.5 148q-130 0 -251.5 -50t-217 -139t-153 -224.5t-57.5 -295.5q0 -243 143.5 -387t361.5 -144z" />
    <glyph glyph-name="ae" unicode="&#xe6;" horiz-adv-x="3203" 
d="M3031 831h-1410q-2 -36 -2 -56q0 -243 143.5 -387t361.5 -144q336 0 515 274q31 43 70 23l175 -88q43 -22 14 -67q-135 -210 -351.5 -316t-478.5 -106q-243 0 -430 113.5t-278 314.5q-120 -187 -326 -307.5t-437 -120.5q-237 0 -371.5 127t-134.5 325q0 224 152.5 384
t421.5 215.5t636 -19.5l9 66q32 231 -42.5 326.5t-284.5 95.5q-128 0 -246 -30t-257 -91q-20 -8 -39 -0.5t-25 27.5l-50 157q-7 22 2.5 40.5t30.5 26.5q341 151 655 151q234 0 361.5 -75t170.5 -218q142 140 331 216.5t397 76.5q143 0 263 -33.5t218.5 -104t158 -180.5
t83.5 -263.5t-6 -352.5zM2276 1501q-195 0 -362 -118.5t-243 -319.5h1026q3 96 -18.5 172.5t-60.5 125.5t-95 81t-117 45.5t-130 13.5zM717 228q134 0 253 64t194.5 167t91.5 221l14 101q-176 42 -321 45.5t-240.5 -24.5t-160.5 -80t-93.5 -115.5t-28.5 -136.5
q0 -115 81 -178.5t210 -63.5z" />
    <glyph glyph-name="ccedilla" unicode="&#xe7;" horiz-adv-x="2016" 
d="M1915 1326q17 -44 -34 -66l-198 -89q-43 -19 -64 24q-122 289 -435 289q-196 0 -352.5 -85.5t-248 -249.5t-91.5 -379q0 -244 143.5 -385t381.5 -141q304 0 510 290q31 43 69 23l175 -88q43 -21 14 -67q-53 -83 -123.5 -154.5t-162 -132t-209.5 -100t-249 -48.5l-91 -185
q95 21 176.5 13t141 -37t93.5 -86t34 -133q0 -123 -71 -217t-180.5 -140t-236.5 -46q-184 0 -296 84q-36 27 -10 70l31 51q28 46 73 23q62 -31 109.5 -46t103.5 -15q103 0 172 53.5t69 152.5q0 41 -16.5 69t-48 42t-69 20t-87 3t-93.5 -9.5t-97 -17.5q-33 -6 -43.5 5.5
t4.5 44.5l150 303q-152 16 -280.5 78t-221 161.5t-144 238t-51.5 300.5q0 178 55.5 338.5t155 283t231 212.5t288 137t322.5 47q118 0 220 -24t178 -64.5t137 -97.5t100.5 -119.5t65.5 -133.5z" />
    <glyph glyph-name="egrave" unicode="&#xe8;" horiz-adv-x="2077" 
d="M603 2350q-18 9 -20 30.5t9 35.5l123 170q12 15 33.5 20t38.5 -4l607 -455q15 -13 17.5 -33.5t-8.5 -35.5l-78 -112q-13 -17 -35 -23t-38 4zM1905 831h-1410q-2 -36 -2 -56q0 -243 143.5 -387t361.5 -144q336 0 515 274q31 43 70 23l175 -88q43 -22 14 -67
q-135 -210 -351.5 -316t-478.5 -106q-167 0 -311.5 56t-247.5 156.5t-162 247.5t-59 321q0 178 54 338.5t150 283t224 213t281.5 138t316.5 47.5q143 0 263 -33.5t218.5 -104t158 -180.5t83.5 -263.5t-6 -352.5zM1150 1501q-195 0 -362 -118.5t-243 -319.5h1026
q3 96 -18.5 172.5t-60.5 125.5t-95 81t-117 45.5t-130 13.5z" />
    <glyph glyph-name="eacute" unicode="&#xe9;" horiz-adv-x="2077" 
d="M982 1966l-49 112q-5 15 3 35.5t26 33.5l736 455q19 9 39 4t28 -20l75 -170q7 -16 -0.5 -36.5t-27.5 -29.5l-763 -403q-20 -10 -39.5 -4t-27.5 23zM1905 831h-1410q-2 -36 -2 -56q0 -243 143.5 -387t361.5 -144q336 0 515 274q31 43 70 23l175 -88q43 -22 14 -67
q-135 -210 -351.5 -316t-478.5 -106q-167 0 -311.5 56t-247.5 156.5t-162 247.5t-59 321q0 178 54 338.5t150 283t224 213t281.5 138t316.5 47.5q143 0 263 -33.5t218.5 -104t158 -180.5t83.5 -263.5t-6 -352.5zM1150 1501q-195 0 -362 -118.5t-243 -319.5h1026
q3 96 -18.5 172.5t-60.5 125.5t-95 81t-117 45.5t-130 13.5z" />
    <glyph glyph-name="ecircumflex" unicode="&#xea;" horiz-adv-x="2077" 
d="M652 1968q-32 0 -38 18.5t19 42.5l485 458q26 26 66 26h158q39 0 60 -26l355 -458q19 -24 8 -42.5t-43 -18.5h-235q-40 0 -60 30l-196 282l-275 -282q-30 -30 -68 -30h-236zM1905 831h-1410q-2 -36 -2 -56q0 -243 143.5 -387t361.5 -144q336 0 515 274q31 43 70 23
l175 -88q43 -22 14 -67q-135 -210 -351.5 -316t-478.5 -106q-167 0 -311.5 56t-247.5 156.5t-162 247.5t-59 321q0 178 54 338.5t150 283t224 213t281.5 138t316.5 47.5q143 0 263 -33.5t218.5 -104t158 -180.5t83.5 -263.5t-6 -352.5zM1150 1501q-195 0 -362 -118.5
t-243 -319.5h1026q3 96 -18.5 172.5t-60.5 125.5t-95 81t-117 45.5t-130 13.5z" />
    <glyph glyph-name="edieresis" unicode="&#xeb;" horiz-adv-x="2077" 
d="M824 2014q-73 0 -121 50t-48 122q0 88 68 153t156 65q73 0 121.5 -50t48.5 -123q0 -87 -68.5 -152t-156.5 -65zM1564 2014q-73 0 -121 50t-48 122q0 88 68 153t156 65q73 0 121.5 -50t48.5 -123q0 -87 -68.5 -152t-156.5 -65zM1905 831h-1410q-2 -36 -2 -56
q0 -243 143.5 -387t361.5 -144q336 0 515 274q31 43 70 23l175 -88q43 -22 14 -67q-135 -210 -351.5 -316t-478.5 -106q-167 0 -311.5 56t-247.5 156.5t-162 247.5t-59 321q0 178 54 338.5t150 283t224 213t281.5 138t316.5 47.5q143 0 263 -33.5t218.5 -104t158 -180.5
t83.5 -263.5t-6 -352.5zM1150 1501q-195 0 -362 -118.5t-243 -319.5h1026q3 96 -18.5 172.5t-60.5 125.5t-95 81t-117 45.5t-130 13.5z" />
    <glyph glyph-name="igrave" unicode="&#xec;" horiz-adv-x="766" 
d="M604 1947l-649 403q-18 9 -20 30.5t9 35.5l123 170q12 15 33.5 20t38.5 -4l607 -455q15 -13 17.5 -33.5t-8.5 -35.5l-78 -112q-13 -17 -35 -23t-38 4zM341 1679q3 22 18.5 35.5t37.5 13.5h214q22 0 34 -13.5t9 -35.5l-229 -1629q-3 -22 -18.5 -36t-38.5 -14h-213
q-22 0 -34 13.5t-9 36.5z" />
    <glyph glyph-name="iacute" unicode="&#xed;" horiz-adv-x="766" 
d="M401 1947q-20 -10 -39.5 -4t-27.5 23l-49 112q-5 15 3 35.5t26 33.5l736 455q19 9 39 4t28 -20l75 -170q7 -16 -0.5 -36.5t-27.5 -29.5zM341 1679q3 22 18.5 35.5t37.5 13.5h214q22 0 34 -13.5t9 -35.5l-229 -1629q-3 -22 -18.5 -36t-38.5 -14h-213q-22 0 -34 13.5
t-9 36.5z" />
    <glyph glyph-name="icircumflex" unicode="&#xee;" horiz-adv-x="766" 
d="M779 1998l-196 282l-275 -282q-30 -30 -68 -30h-236q-32 0 -38 18.5t19 42.5l485 458q26 26 66 26h158q39 0 60 -26l355 -458q19 -24 8 -42.5t-43 -18.5h-235q-41 0 -60 30zM341 1679q3 22 18.5 35.5t37.5 13.5h214q22 0 34 -13.5t9 -35.5l-229 -1629q-3 -22 -18.5 -36
t-38.5 -14h-213q-22 0 -34 13.5t-9 36.5z" />
    <glyph glyph-name="idieresis" unicode="&#xef;" horiz-adv-x="766" 
d="M176 2014q-73 0 -121 50t-48 122q0 88 68 153t156 65q73 0 121.5 -50t48.5 -123q0 -87 -68.5 -152t-156.5 -65zM916 2014q-73 0 -121 50t-48 122q0 88 68 153t156 65q73 0 121.5 -50t48.5 -123q0 -87 -68.5 -152t-156.5 -65zM341 1679q3 22 18.5 35.5t37.5 13.5h214
q22 0 34 -13.5t9 -35.5l-229 -1629q-3 -22 -18.5 -36t-38.5 -14h-213q-22 0 -34 13.5t-9 36.5z" />
    <glyph glyph-name="eth" unicode="&#xf0;" horiz-adv-x="2118" 
d="M1344 2429q131 -76 234 -180.5t167 -215.5t107 -241t61.5 -248.5t22.5 -246.5t-2.5 -227t-20.5 -198q-28 -204 -122.5 -377t-229 -288t-300.5 -179t-340 -64q-173 0 -324 64.5t-256 176.5t-154.5 276t-23.5 351q35 250 176.5 450t348 309t437.5 109q321 0 488 -214
q-65 494 -425 726l-162 -225q-14 -19 -33 -24t-37 6l-48 30q-17 11 -19.5 29.5t11.5 38.5l156 217q-109 49 -229 79q-26 8 -34.5 29.5t6.5 46.5l69 119q22 35 59 27q149 -32 281 -88l157 218q13 19 33 24.5t38 -5.5l47 -30q19 -10 21 -29.5t-12 -38.5zM961 244
q152 0 287 71.5t228.5 207t118.5 309.5q18 131 -10 242t-92 186.5t-158.5 117.5t-208.5 42q-152 0 -287 -71.5t-229 -207t-118 -309.5q-18 -131 9.5 -242t91.5 -186.5t159 -117.5t209 -42z" />
    <glyph glyph-name="ntilde" unicode="&#xf1;" horiz-adv-x="2082" 
d="M1866 2465q23 0 32.5 -22t-0.5 -61q-39 -190 -151 -285t-256 -95q-77 0 -136.5 24.5t-96.5 59t-69.5 69.5t-73.5 59.5t-90 24.5q-156 0 -199 -187q-11 -50 -60 -50h-83q-23 0 -33.5 14t-6.5 39q19 105 60 185t97 128.5t120.5 72.5t136.5 24q77 0 137 -24t97 -58.5
t69.5 -69t73.5 -58.5t90 -24q156 0 198 184q12 50 60 50h84zM1334 1768q133 0 236.5 -32t169.5 -92t106.5 -144t47.5 -188.5t-8 -226.5l-145 -1035q-4 -23 -19.5 -36.5t-37.5 -13.5h-213q-23 0 -35 14t-9 36l129 910q38 273 -51 400.5t-307 127.5q-246 0 -432.5 -169
t-224.5 -438l-116 -831q-3 -22 -18.5 -36t-38.5 -14h-213q-22 0 -34 13.5t-9 36.5l229 1629q3 22 19 35.5t38 13.5h213q22 0 34 -13.5t9 -35.5l-38 -273q123 161 309.5 261.5t408.5 100.5z" />
    <glyph glyph-name="ograve" unicode="&#xf2;" horiz-adv-x="2170" 
d="M1304 1947l-649 403q-18 9 -20 30.5t9 35.5l123 170q12 15 33.5 20t38.5 -4l607 -455q15 -13 17.5 -33.5t-8.5 -35.5l-78 -112q-13 -17 -35 -23t-38 4zM1212 1765q168 0 314.5 -56.5t252.5 -157.5t167 -249t61 -323q0 -177 -56.5 -337.5t-156.5 -282.5t-231.5 -212
t-287 -136.5t-317.5 -46.5q-168 0 -314.5 56.5t-253 157.5t-167.5 248.5t-61 322.5q0 177 56.5 337.5t156.5 282.5t232 212t287.5 137t317.5 47zM998 244q129 0 250.5 50t217 139t153 224.5t57.5 295.5q0 122 -39 223t-107 168t-160 103.5t-198 36.5q-103 0 -202 -31
t-185 -92.5t-151.5 -145.5t-103 -198t-37.5 -242q0 -243 143.5 -387t361.5 -144z" />
    <glyph glyph-name="oacute" unicode="&#xf3;" horiz-adv-x="2170" 
d="M1101 1947q-20 -10 -39.5 -4t-27.5 23l-49 112q-5 15 3 35.5t26 33.5l736 455q19 9 39 4t28 -20l75 -170q7 -16 -0.5 -36.5t-27.5 -29.5zM1212 1765q168 0 314.5 -56.5t252.5 -157.5t167 -249t61 -323q0 -177 -56.5 -337.5t-156.5 -282.5t-231.5 -212t-287 -136.5
t-317.5 -46.5q-168 0 -314.5 56.5t-253 157.5t-167.5 248.5t-61 322.5q0 177 56.5 337.5t156.5 282.5t232 212t287.5 137t317.5 47zM998 244q129 0 250.5 50t217 139t153 224.5t57.5 295.5q0 122 -39 223t-107 168t-160 103.5t-198 36.5q-103 0 -202 -31t-185 -92.5
t-151.5 -145.5t-103 -198t-37.5 -242q0 -243 143.5 -387t361.5 -144z" />
    <glyph glyph-name="ocircumflex" unicode="&#xf4;" horiz-adv-x="2170" 
d="M1479 1998l-196 282l-275 -282q-30 -30 -68 -30h-236q-32 0 -38 18.5t19 42.5l485 458q26 26 66 26h158q39 0 60 -26l355 -458q19 -24 8 -42.5t-43 -18.5h-235q-40 0 -60 30zM1212 1765q168 0 314.5 -56.5t252.5 -157.5t167 -249t61 -323q0 -177 -56.5 -337.5
t-156.5 -282.5t-231.5 -212t-287 -136.5t-317.5 -46.5q-168 0 -314.5 56.5t-253 157.5t-167.5 248.5t-61 322.5q0 177 56.5 337.5t156.5 282.5t232 212t287.5 137t317.5 47zM998 244q129 0 250.5 50t217 139t153 224.5t57.5 295.5q0 122 -39 223t-107 168t-160 103.5
t-198 36.5q-103 0 -202 -31t-185 -92.5t-151.5 -145.5t-103 -198t-37.5 -242q0 -243 143.5 -387t361.5 -144z" />
    <glyph glyph-name="otilde" unicode="&#xf5;" horiz-adv-x="2170" 
d="M686 2002q-23 0 -33.5 14t-6.5 39q19 105 60 185t97 128.5t120.5 72.5t136.5 24q77 0 137 -24t97 -58.5t69.5 -69t73.5 -58.5t90 -24q156 0 198 184q12 50 60 50h84q23 0 32.5 -22t-0.5 -61q-39 -190 -151 -285t-256 -95q-77 0 -136.5 24.5t-96.5 59t-69.5 69.5
t-73.5 59.5t-90 24.5q-156 0 -199 -187q-11 -50 -60 -50h-83zM1212 1765q168 0 314.5 -56.5t252.5 -157.5t167 -249t61 -323q0 -177 -56.5 -337.5t-156.5 -282.5t-231.5 -212t-287 -136.5t-317.5 -46.5q-168 0 -314.5 56.5t-253 157.5t-167.5 248.5t-61 322.5
q0 177 56.5 337.5t156.5 282.5t232 212t287.5 137t317.5 47zM998 244q129 0 250.5 50t217 139t153 224.5t57.5 295.5q0 122 -39 223t-107 168t-160 103.5t-198 36.5q-103 0 -202 -31t-185 -92.5t-151.5 -145.5t-103 -198t-37.5 -242q0 -243 143.5 -387t361.5 -144z" />
    <glyph glyph-name="odieresis" unicode="&#xf6;" horiz-adv-x="2170" 
d="M876 2014q-73 0 -121 50t-48 122q0 88 68 153t156 65q73 0 121.5 -50t48.5 -123q0 -87 -68.5 -152t-156.5 -65zM1616 2014q-73 0 -121 50t-48 122q0 88 68 153t156 65q73 0 121.5 -50t48.5 -123q0 -87 -68.5 -152t-156.5 -65zM1212 1765q168 0 314.5 -56.5t252.5 -157.5
t167 -249t61 -323q0 -177 -56.5 -337.5t-156.5 -282.5t-231.5 -212t-287 -136.5t-317.5 -46.5q-168 0 -314.5 56.5t-253 157.5t-167.5 248.5t-61 322.5q0 177 56.5 337.5t156.5 282.5t232 212t287.5 137t317.5 47zM998 244q129 0 250.5 50t217 139t153 224.5t57.5 295.5
q0 122 -39 223t-107 168t-160 103.5t-198 36.5q-103 0 -202 -31t-185 -92.5t-151.5 -145.5t-103 -198t-37.5 -242q0 -243 143.5 -387t361.5 -144z" />
    <glyph glyph-name="divide" unicode="&#xf7;" horiz-adv-x="2068" 
d="M1005 1445q-60 0 -97.5 40t-37.5 99q0 85 74 151.5t161 66.5q60 0 97.5 -40t37.5 -99q0 -85 -74 -151.5t-161 -66.5zM271 957q-22 0 -34 13.5t-9 35.5l21 149q3 22 19 36t38 14h1553q22 0 33.5 -14t8.5 -36l-21 -149q-3 -22 -18.5 -35.5t-37.5 -13.5h-1553zM853 360
q-60 0 -97.5 40t-37.5 100q0 85 73.5 151t160.5 66q60 0 97.5 -39.5t37.5 -99.5q0 -85 -73.5 -151.5t-160.5 -66.5z" />
    <glyph glyph-name="oslash" unicode="&#xf8;" horiz-adv-x="2194" 
d="M2116 1671q30 -35 -10 -71l-211 -185q118 -190 118 -436q0 -177 -56.5 -337.5t-156.5 -282.5t-231.5 -212t-287 -136.5t-317.5 -46.5q-308 0 -524 176l-200 -176q-18 -15 -37 -15t-33 15l-92 106q-13 16 -10 35t21 35l198 173q-119 189 -119 436q0 177 56.5 337.5
t156.5 282.5t231.5 212t287 137t317.5 47q307 0 523 -175l214 187q41 34 70 0zM499 775q0 -129 44 -236l955 838q-131 107 -320 107q-130 0 -252 -50t-217 -139t-152.5 -224.5t-57.5 -295.5zM1682 953q0 129 -44 236l-956 -837q134 -108 321 -108q130 0 252 50t217 139
t152.5 224.5t57.5 295.5z" />
    <glyph glyph-name="ugrave" unicode="&#xf9;" horiz-adv-x="2081" 
d="M1260 1947l-649 403q-18 9 -20 30.5t9 35.5l123 170q12 15 33.5 20t38.5 -4l607 -455q15 -13 17.5 -33.5t-8.5 -35.5l-78 -112q-13 -17 -35 -23t-38 4zM1926 1728q22 0 34 -13.5t9 -35.5l-229 -1629q-4 -23 -19.5 -36.5t-37.5 -13.5h-213q-22 0 -34 13.5t-9 36.5l39 273
q-124 -161 -311 -262t-409 -101q-133 0 -236 32t-169.5 92t-106.5 144t-47 188.5t8 226.5l145 1036q3 22 19 35.5t38 13.5h213q22 0 34 -13.5t9 -35.5l-127 -911q-39 -272 49.5 -400t306.5 -128q246 0 433 169.5t225 438.5l116 831q3 22 18.5 35.5t37.5 13.5h214z" />
    <glyph glyph-name="uacute" unicode="&#xfa;" horiz-adv-x="2081" 
d="M1057 1947q-20 -10 -39.5 -4t-27.5 23l-49 112q-5 15 3 35.5t26 33.5l736 455q19 9 39 4t28 -20l75 -170q7 -16 -0.5 -36.5t-27.5 -29.5zM1926 1728q22 0 34 -13.5t9 -35.5l-229 -1629q-4 -23 -19.5 -36.5t-37.5 -13.5h-213q-22 0 -34 13.5t-9 36.5l39 273
q-124 -161 -311 -262t-409 -101q-133 0 -236 32t-169.5 92t-106.5 144t-47 188.5t8 226.5l145 1036q3 22 19 35.5t38 13.5h213q22 0 34 -13.5t9 -35.5l-127 -911q-39 -272 49.5 -400t306.5 -128q246 0 433 169.5t225 438.5l116 831q3 22 18.5 35.5t37.5 13.5h214z" />
    <glyph glyph-name="ucircumflex" unicode="&#xfb;" horiz-adv-x="2081" 
d="M1435 1998l-196 282l-275 -282q-30 -30 -68 -30h-236q-32 0 -38 18.5t19 42.5l485 458q26 26 66 26h158q39 0 60 -26l355 -458q19 -24 8 -42.5t-43 -18.5h-235q-41 0 -60 30zM1926 1728q22 0 34 -13.5t9 -35.5l-229 -1629q-4 -23 -19.5 -36.5t-37.5 -13.5h-213
q-22 0 -34 13.5t-9 36.5l39 273q-124 -161 -311 -262t-409 -101q-133 0 -236 32t-169.5 92t-106.5 144t-47 188.5t8 226.5l145 1036q3 22 19 35.5t38 13.5h213q22 0 34 -13.5t9 -35.5l-127 -911q-39 -272 49.5 -400t306.5 -128q246 0 433 169.5t225 438.5l116 831
q3 22 18.5 35.5t37.5 13.5h214z" />
    <glyph glyph-name="udieresis" unicode="&#xfc;" horiz-adv-x="2081" 
d="M832 2014q-73 0 -121 50t-48 122q0 88 68 153t156 65q73 0 121.5 -50t48.5 -123q0 -87 -68.5 -152t-156.5 -65zM1572 2014q-73 0 -121 50t-48 122q0 88 68 153t156 65q73 0 121.5 -50t48.5 -123q0 -87 -68.5 -152t-156.5 -65zM1926 1728q22 0 34 -13.5t9 -35.5
l-229 -1629q-4 -23 -19.5 -36.5t-37.5 -13.5h-213q-22 0 -34 13.5t-9 36.5l39 273q-124 -161 -311 -262t-409 -101q-133 0 -236 32t-169.5 92t-106.5 144t-47 188.5t8 226.5l145 1036q3 22 19 35.5t38 13.5h213q22 0 34 -13.5t9 -35.5l-127 -911q-39 -272 49.5 -400
t306.5 -128q246 0 433 169.5t225 438.5l116 831q3 22 18.5 35.5t37.5 13.5h214z" />
    <glyph glyph-name="yacute" unicode="&#xfd;" horiz-adv-x="1814" 
d="M849 1966l-49 112q-5 15 3 35.5t26 33.5l736 455q19 9 39 4t28 -20l75 -170q7 -16 -0.5 -36.5t-27.5 -29.5l-763 -403q-20 -10 -39.5 -4t-27.5 23zM1855 1728q35 0 47.5 -27t-8.5 -62l-1000 -1637q-134 -220 -248 -369.5t-237 -257.5t-251.5 -157.5t-276.5 -49.5
q-28 0 -41 11t-9 39l22 157q5 45 54 49q121 10 231.5 87.5t241 244.5t313.5 465l-554 1418q-15 34 6 61.5t58 27.5h236q27 0 38 -28l414 -1151l691 1151q16 28 50 28h223z" />
    <glyph glyph-name="thorn" unicode="&#xfe;" horiz-adv-x="2176" 
d="M1250 1765q158 0 298 -56.5t243 -157t163 -249t60 -322.5q0 -148 -40 -285.5t-110.5 -248t-167.5 -202t-209.5 -152.5t-238 -94.5t-251.5 -33.5q-192 0 -328 80t-212 228l-148 -1054q-3 -22 -18.5 -36t-37.5 -14h-214q-22 0 -34 13.5t-9 36.5l462 3292q3 23 18.5 36.5
t37.5 13.5h213q23 0 35 -14t9 -36l-147 -1045q118 144 276.5 222t349.5 78zM1004 244q130 0 252 50t217 139t152.5 224.5t57.5 295.5q0 122 -39 223t-107 168t-160 103.5t-198 36.5q-182 0 -337 -90t-248 -252.5t-93 -362.5q0 -239 139 -387t364 -148z" />
    <glyph glyph-name="ydieresis" unicode="&#xff;" horiz-adv-x="1814" 
d="M691 2014q-73 0 -121 50t-48 122q0 88 68 153t156 65q73 0 121.5 -50t48.5 -123q0 -87 -68.5 -152t-156.5 -65zM1431 2014q-73 0 -121 50t-48 122q0 88 68 153t156 65q73 0 121.5 -50t48.5 -123q0 -87 -68.5 -152t-156.5 -65zM1855 1728q35 0 47.5 -27t-8.5 -62
l-1000 -1637q-134 -220 -248 -369.5t-237 -257.5t-251.5 -157.5t-276.5 -49.5q-28 0 -41 11t-9 39l22 157q5 45 54 49q121 10 231.5 87.5t241 244.5t313.5 465l-554 1418q-15 34 6 61.5t58 27.5h236q27 0 38 -28l414 -1151l691 1151q16 28 50 28h223z" />
    <glyph glyph-name="Amacron" unicode="&#x100;" 
d="M1018 2820q-20 0 -33 15t-11 35l18 129q3 20 20.5 35t37.5 15h1053q20 0 32.5 -15t9.5 -35l-18 -129q-2 -20 -19 -35t-37 -15h-1053zM2348 59q9 -27 -4 -43t-41 -16h-274q-44 0 -52 37l-180 615h-1130l-363 -615q-23 -37 -62 -37h-269q-28 0 -38 15.5t6 43.5l1454 2384
q24 37 62 37h89q41 0 53 -37zM823 916h897l-297 1015z" />
    <glyph glyph-name="amacron" unicode="&#x101;" horiz-adv-x="2146" 
d="M795 2108q-20 0 -33 15t-11 35l18 129q3 20 20.5 35t37.5 15h1053q20 0 32.5 -15t9.5 -35l-18 -129q-2 -20 -19 -35t-37 -15h-1053zM2044 1679l-152 -1079q-17 -116 -16 -211t9.5 -149.5t31.5 -156.5q11 -52 -39 -70l-162 -53q-24 -9 -42 7q-37 47 -72.5 136.5
t-45.5 191.5q-119 -158 -284 -244.5t-366 -86.5q-211 0 -384.5 96t-276.5 276.5t-103 411.5q0 177 57 338t155.5 283t227 212t277.5 137t300 47q192 0 328.5 -81t212.5 -229l31 224q3 22 18.5 35.5t37.5 13.5h214q22 0 34 -13.5t9 -35.5zM978 244q136 0 260 53t216.5 145.5
t147 225t54.5 282.5q0 238 -139.5 386t-364.5 148q-130 0 -251.5 -50t-217 -139t-153 -224.5t-57.5 -295.5q0 -243 143.5 -387t361.5 -144z" />
    <glyph glyph-name="Abreve" unicode="&#x102;" 
d="M1520 2648q-229 0 -376.5 132.5t-147.5 343.5q0 65 14.5 91t45.5 26h135q50 0 50 -58q0 -91 45 -154t114 -90t157 -27q91 0 169.5 29t141 96t85.5 164q5 19 23 29.5t39 10.5h136q40 0 40 -42q0 -147 -91.5 -274.5t-246.5 -202t-333 -74.5zM2348 59q9 -27 -4 -43t-41 -16
h-274q-44 0 -52 37l-180 615h-1130l-363 -615q-23 -37 -62 -37h-269q-28 0 -38 15.5t6 43.5l1454 2384q24 37 62 37h89q41 0 53 -37zM823 916h897l-297 1015z" />
    <glyph glyph-name="abreve" unicode="&#x103;" horiz-adv-x="2146" 
d="M1297 1936q-229 0 -376.5 132.5t-147.5 343.5q0 65 14.5 91t45.5 26h135q50 0 50 -58q0 -91 45 -154t114 -90t157 -27q91 0 169.5 29t141 96t85.5 164q5 19 23 29.5t39 10.5h136q40 0 40 -42q0 -147 -91.5 -274.5t-246.5 -202t-333 -74.5zM2044 1679l-152 -1079
q-17 -116 -16 -211t9.5 -149.5t31.5 -156.5q11 -52 -39 -70l-162 -53q-24 -9 -42 7q-37 47 -72.5 136.5t-45.5 191.5q-119 -158 -284 -244.5t-366 -86.5q-211 0 -384.5 96t-276.5 276.5t-103 411.5q0 177 57 338t155.5 283t227 212t277.5 137t300 47q192 0 328.5 -81
t212.5 -229l31 224q3 22 18.5 35.5t37.5 13.5h214q22 0 34 -13.5t9 -35.5zM978 244q136 0 260 53t216.5 145.5t147 225t54.5 282.5q0 238 -139.5 386t-364.5 148q-130 0 -251.5 -50t-217 -139t-153 -224.5t-57.5 -295.5q0 -243 143.5 -387t361.5 -144z" />
    <glyph glyph-name="Aogonek" unicode="&#x104;" 
d="M2348 59q9 -27 -4 -43t-41 -16h-97q-380 -218 -380 -474q0 -82 49 -130t141 -48q69 0 123 19q29 8 43 -2t10 -38l-14 -98q-4 -39 -42 -55q-98 -38 -213 -38q-179 0 -267.5 86t-88.5 223q0 175 114 335t295 260l-179 612h-1130l-363 -615q-23 -37 -62 -37h-269
q-28 0 -38 15.5t6 43.5l1454 2384q24 37 62 37h89q41 0 53 -37zM823 916h897l-297 1015z" />
    <glyph glyph-name="aogonek" unicode="&#x105;" horiz-adv-x="2145" 
d="M2044 1679l-152 -1079q-17 -117 -16.5 -211.5t9.5 -150t31 -155.5q6 -26 -3.5 -41t-31.5 -28q-80 -46 -143 -90.5t-125 -100.5t-100 -120t-48 -132q-14 -100 29 -155.5t147 -55.5q64 0 121 20q29 8 42.5 -2.5t9.5 -37.5l-14 -98q-6 -41 -42 -55q-96 -38 -211 -38
q-101 0 -174 30.5t-111 83.5t-51 118.5t-2 141.5q39 284 415 515q-57 122 -69 256q-118 -158 -283 -244t-366 -86q-211 0 -384.5 96t-276.5 276.5t-103 411.5q0 177 57 338t155.5 283t227 212t277.5 137t300 47q192 0 328.5 -81t212.5 -229l31 224q3 22 18.5 35.5t37.5 13.5
h214q22 0 34 -13.5t9 -35.5zM978 244q136 0 260 54t216.5 146.5t147 224.5t54.5 281q0 236 -140 385t-364 149q-130 0 -251.5 -50t-217 -139t-153 -224.5t-57.5 -295.5q0 -243 143.5 -387t361.5 -144z" />
    <glyph glyph-name="Cacute" unicode="&#x106;" horiz-adv-x="2635" 
d="M1555 2659q-20 -10 -39.5 -4t-27.5 23l-49 112q-5 15 3 35.5t26 33.5l736 455q19 9 39 4t28 -20l75 -170q7 -16 -0.5 -36.5t-27.5 -29.5zM2409 669q44 -22 13 -69q-407 -636 -1110 -636q-175 0 -336.5 48.5t-297 143t-236 225t-156.5 305t-56 372.5q0 211 58 405.5
t159 348t238.5 280t296.5 210t334 129t349 45.5q706 0 932 -636q17 -47 -33 -69l-189 -85q-48 -21 -66 27q-174 483 -684 483q-143 0 -278.5 -38t-251 -107.5t-212 -170.5t-164 -223.5t-105 -270.5t-37.5 -308q0 -246 95.5 -435.5t271.5 -294t408 -104.5q506 0 818 483
q31 48 74 27z" />
    <glyph glyph-name="cacute" unicode="&#x107;" horiz-adv-x="2016" 
d="M1109 1947q-20 -10 -39.5 -4t-27.5 23l-49 112q-5 15 3 35.5t26 33.5l736 455q19 9 39 4t28 -20l75 -170q7 -16 -0.5 -36.5t-27.5 -29.5zM1771 469q43 -21 14 -67q-45 -71 -102 -133t-134 -119t-164.5 -97.5t-197 -64.5t-227.5 -24q-229 0 -410 96t-284.5 275t-103.5 412
q0 178 55.5 338.5t155 283t231 212.5t288 137t322.5 47q118 0 220 -24t178 -64.5t137 -97.5t100.5 -119.5t65.5 -133.5q17 -44 -34 -66l-198 -89q-43 -19 -64 24q-122 289 -435 289q-196 0 -352.5 -85.5t-248 -249.5t-91.5 -379q0 -244 143.5 -385t381.5 -141q304 0 510 290
q31 43 69 23z" />
    <glyph glyph-name="Cdotaccent" unicode="&#x10a;" horiz-adv-x="2635" 
d="M1700 2724q-77 0 -127.5 52.5t-50.5 129.5q0 91 71.5 159t163.5 68q77 0 127.5 -52.5t50.5 -129.5q0 -91 -71.5 -159t-163.5 -68zM2409 669q44 -22 13 -69q-407 -636 -1110 -636q-175 0 -336.5 48.5t-297 143t-236 225t-156.5 305t-56 372.5q0 211 58 405.5t159 348
t238.5 280t296.5 210t334 129t349 45.5q706 0 932 -636q17 -47 -33 -69l-189 -85q-48 -21 -66 27q-174 483 -684 483q-143 0 -278.5 -38t-251 -107.5t-212 -170.5t-164 -223.5t-105 -270.5t-37.5 -308q0 -246 95.5 -435.5t271.5 -294t408 -104.5q506 0 818 483q31 48 74 27z
" />
    <glyph glyph-name="cdotaccent" unicode="&#x10b;" horiz-adv-x="2016" 
d="M1254 2012q-77 0 -127.5 52.5t-50.5 129.5q0 91 71.5 159t163.5 68q77 0 127.5 -52.5t50.5 -129.5q0 -91 -71.5 -159t-163.5 -68zM1771 469q43 -21 14 -67q-45 -71 -102 -133t-134 -119t-164.5 -97.5t-197 -64.5t-227.5 -24q-229 0 -410 96t-284.5 275t-103.5 412
q0 178 55.5 338.5t155 283t231 212.5t288 137t322.5 47q118 0 220 -24t178 -64.5t137 -97.5t100.5 -119.5t65.5 -133.5q17 -44 -34 -66l-198 -89q-43 -19 -64 24q-122 289 -435 289q-196 0 -352.5 -85.5t-248 -249.5t-91.5 -379q0 -244 143.5 -385t381.5 -141q304 0 510 290
q31 43 69 23z" />
    <glyph glyph-name="Ccaron" unicode="&#x10c;" horiz-adv-x="2635" 
d="M2001 3195q29 30 68 30h235q32 0 38 -18.5t-19 -42.5l-484 -458q-26 -26 -67 -26h-158q-40 0 -60 26l-355 458q-19 24 -7.5 42.5t43.5 18.5h235q39 0 60 -30l196 -282zM2409 669q44 -22 13 -69q-407 -636 -1110 -636q-175 0 -336.5 48.5t-297 143t-236 225t-156.5 305
t-56 372.5q0 211 58 405.5t159 348t238.5 280t296.5 210t334 129t349 45.5q706 0 932 -636q17 -47 -33 -69l-189 -85q-48 -21 -66 27q-174 483 -684 483q-143 0 -278.5 -38t-251 -107.5t-212 -170.5t-164 -223.5t-105 -270.5t-37.5 -308q0 -246 95.5 -435.5t271.5 -294
t408 -104.5q506 0 818 483q31 48 74 27z" />
    <glyph glyph-name="ccaron" unicode="&#x10d;" horiz-adv-x="2016" 
d="M1555 2483q29 30 68 30h235q32 0 38 -18.5t-19 -42.5l-484 -458q-26 -26 -67 -26h-158q-40 0 -60 26l-355 458q-19 24 -7.5 42.5t43.5 18.5h235q39 0 60 -30l196 -282zM1771 469q43 -21 14 -67q-45 -71 -102 -133t-134 -119t-164.5 -97.5t-197 -64.5t-227.5 -24
q-229 0 -410 96t-284.5 275t-103.5 412q0 178 55.5 338.5t155 283t231 212.5t288 137t322.5 47q118 0 220 -24t178 -64.5t137 -97.5t100.5 -119.5t65.5 -133.5q17 -44 -34 -66l-198 -89q-43 -19 -64 24q-122 289 -435 289q-196 0 -352.5 -85.5t-248 -249.5t-91.5 -379
q0 -244 143.5 -385t381.5 -141q304 0 510 290q31 43 69 23z" />
    <glyph glyph-name="Dcaron" unicode="&#x10e;" horiz-adv-x="2638" 
d="M1324 2706l-355 458q-19 24 -7.5 42.5t43.5 18.5h235q39 0 60 -30l196 -282l275 282q29 30 68 30h235q32 0 38 -18.5t-19 -42.5l-484 -458q-26 -26 -67 -26h-158q-40 0 -60 26zM1413 2440q185 0 350.5 -44.5t301.5 -133t235 -213.5t153.5 -294.5t54.5 -366.5
q0 -215 -54.5 -407.5t-152 -343t-232 -272t-294.5 -201t-339 -122t-366 -42.5h-768h-147q-20 0 -33.5 15t-9.5 35l328 2340q3 20 20.5 35t37.5 15h229h686zM1076 280q233 0 433.5 77.5t344.5 216.5t225.5 342t81.5 445q0 370 -220.5 584.5t-599.5 214.5h-604l-264 -1880h603
z" />
    <glyph glyph-name="dcaron" unicode="&#x10f;" horiz-adv-x="2618" 
d="M2589 2601q63 0 112.5 -42.5t49.5 -135.5q0 -149 -127 -344.5t-284 -293.5q-19 -10 -34.5 -6t-23.5 17l-7 14q-19 33 14 61q186 160 186 303q0 29 -11 47.5t-37 42.5q-57 52 -57 123q0 86 66.5 150t152.5 64zM2137 2560q22 0 34 -13.5t9 -36.5l-346 -2460
q-3 -23 -18.5 -36.5t-37.5 -13.5h-214q-22 0 -34 14t-9 36l31 214q-118 -144 -276.5 -222t-349.5 -78q-211 0 -384.5 96t-276.5 276.5t-103 411.5q0 177 57 338t155.5 283t227 212t277.5 137t300 47q192 0 328.5 -81t212.5 -229l147 1055q4 23 19.5 36.5t37.5 13.5h213z
M998 244q136 0 260 53t216.5 145.5t147 225t54.5 282.5q0 238 -139.5 386t-364.5 148q-130 0 -251.5 -50t-217 -139t-153 -224.5t-57.5 -295.5q0 -243 143.5 -387t361.5 -144z" />
    <glyph glyph-name="Dcroat" unicode="&#x110;" horiz-adv-x="2638" 
d="M1413 2440q185 0 350.5 -44.5t301.5 -133t235 -213.5t153.5 -294.5t54.5 -366.5q0 -215 -54.5 -407.5t-152 -343t-232 -272t-294.5 -201t-339 -122t-366 -42.5h-768h-147q-20 0 -33.5 15t-9.5 35l145 1038h-290q-22 0 -34 13.5t-9 36.5l20 148q3 22 19 36t38 14h291
l148 1054q3 20 20.5 35t37.5 15h229h686zM1076 280q233 0 433.5 77.5t344.5 216.5t225.5 342t81.5 445q0 370 -220.5 584.5t-599.5 214.5h-604l-116 -824h670q22 0 33.5 -13.5t8.5 -36.5l-20 -148q-3 -22 -18.5 -36t-38.5 -14h-670l-113 -808h603z" />
    <glyph glyph-name="dcroat" unicode="&#x111;" horiz-adv-x="2302" 
d="M2420 2196q22 0 33.5 -13.5t8.5 -35.5l-12 -85q-3 -22 -18.5 -35.5t-37.5 -13.5h-284l-276 -1963q-3 -23 -18.5 -36.5t-37.5 -13.5h-214q-22 0 -34 14t-9 36l31 214q-118 -144 -276.5 -222t-349.5 -78q-211 0 -384.5 96t-276.5 276.5t-103 411.5q0 177 57 338t155.5 283
t227 212t277.5 137t300 47q192 0 328.5 -81t212.5 -229l78 558h-534q-22 0 -34 13.5t-9 35.5l12 85q3 22 19 35.5t38 13.5h533l44 314q4 23 19.5 36.5t37.5 13.5h213q22 0 34 -13.5t9 -36.5l-44 -314h284zM998 244q136 0 260 53t216.5 145.5t147 225t54.5 282.5
q0 238 -139.5 386t-364.5 148q-130 0 -251.5 -50t-217 -139t-153 -224.5t-57.5 -295.5q0 -243 143.5 -387t361.5 -144z" />
    <glyph glyph-name="Emacron" unicode="&#x112;" horiz-adv-x="2269" 
d="M904 2820q-20 0 -33 15t-11 35l18 129q3 20 20.5 35t37.5 15h1053q20 0 32.5 -15t9.5 -35l-18 -129q-2 -20 -19 -35t-37 -15h-1053zM2215 2440q22 0 33.5 -13.5t9.5 -36.5l-25 -180q-4 -22 -19.5 -36t-37.5 -14h-1439l-107 -764h1278q22 0 34 -13.5t9 -35.5l-25 -181
q-4 -23 -20 -36.5t-38 -13.5h-1278l-117 -836h1478q22 0 34 -14t9 -36l-25 -180q-4 -23 -19.5 -36.5t-37.5 -13.5h-1622h-135q-20 0 -33.5 15t-9.5 35l328 2340q3 20 20.5 35t37.5 15h229h1488z" />
    <glyph glyph-name="emacron" unicode="&#x113;" horiz-adv-x="2077" 
d="M681 2108q-20 0 -33 15t-11 35l18 129q3 20 20.5 35t37.5 15h1053q20 0 32.5 -15t9.5 -35l-18 -129q-2 -20 -19 -35t-37 -15h-1053zM1905 831h-1410q-2 -36 -2 -56q0 -243 143.5 -387t361.5 -144q336 0 515 274q31 43 70 23l175 -88q43 -22 14 -67q-135 -210 -351.5 -316
t-478.5 -106q-167 0 -311.5 56t-247.5 156.5t-162 247.5t-59 321q0 178 54 338.5t150 283t224 213t281.5 138t316.5 47.5q143 0 263 -33.5t218.5 -104t158 -180.5t83.5 -263.5t-6 -352.5zM1150 1501q-195 0 -362 -118.5t-243 -319.5h1026q3 96 -18.5 172.5t-60.5 125.5
t-95 81t-117 45.5t-130 13.5z" />
    <glyph glyph-name="Edotaccent" unicode="&#x116;" horiz-adv-x="2269" 
d="M1417 2724q-77 0 -127.5 52.5t-50.5 129.5q0 91 71.5 159t163.5 68q77 0 127.5 -52.5t50.5 -129.5q0 -91 -71.5 -159t-163.5 -68zM2215 2440q22 0 33.5 -13.5t9.5 -36.5l-25 -180q-4 -22 -19.5 -36t-37.5 -14h-1439l-107 -764h1278q22 0 34 -13.5t9 -35.5l-25 -181
q-4 -23 -20 -36.5t-38 -13.5h-1278l-117 -836h1478q22 0 34 -14t9 -36l-25 -180q-4 -23 -19.5 -36.5t-37.5 -13.5h-1622h-135q-20 0 -33.5 15t-9.5 35l328 2340q3 20 20.5 35t37.5 15h229h1488z" />
    <glyph glyph-name="edotaccent" unicode="&#x117;" horiz-adv-x="2077" 
d="M1194 2012q-77 0 -127.5 52.5t-50.5 129.5q0 91 71.5 159t163.5 68q77 0 127.5 -52.5t50.5 -129.5q0 -91 -71.5 -159t-163.5 -68zM1905 831h-1410q-2 -36 -2 -56q0 -243 143.5 -387t361.5 -144q336 0 515 274q31 43 70 23l175 -88q43 -22 14 -67q-135 -210 -351.5 -316
t-478.5 -106q-167 0 -311.5 56t-247.5 156.5t-162 247.5t-59 321q0 178 54 338.5t150 283t224 213t281.5 138t316.5 47.5q143 0 263 -33.5t218.5 -104t158 -180.5t83.5 -263.5t-6 -352.5zM1150 1501q-195 0 -362 -118.5t-243 -319.5h1026q3 96 -18.5 172.5t-60.5 125.5
t-95 81t-117 45.5t-130 13.5z" />
    <glyph glyph-name="Eogonek" unicode="&#x118;" horiz-adv-x="2269" 
d="M2215 2440q22 0 33.5 -13.5t9.5 -36.5l-25 -180q-4 -22 -19.5 -36t-37.5 -14h-1439l-107 -764h1278q22 0 34 -13.5t9 -35.5l-25 -181q-4 -23 -20 -36.5t-38 -13.5h-1278l-117 -836h1478q22 0 34 -14t9 -36l-25 -180q-4 -23 -19.5 -36.5t-37.5 -13.5h-84
q-380 -218 -380 -474q0 -82 49 -130t141 -48q69 0 123 19q29 8 43 -2t10 -38l-14 -98q-4 -39 -42 -55q-98 -38 -213 -38q-179 0 -267.5 86t-88.5 223q0 158 94 305t249 250h-1242h-135q-20 0 -33.5 15t-9.5 35l328 2340q3 20 20.5 35t37.5 15h229h1488z" />
    <glyph glyph-name="eogonek" unicode="&#x119;" horiz-adv-x="2077" 
d="M1905 831h-1410q-2 -36 -2 -56q0 -243 143.5 -387t361.5 -144q336 0 515 274q31 43 70 23l175 -88q43 -22 14 -67q-164 -255 -454 -360q-156 -108 -231.5 -216t-75.5 -242q0 -98 56 -155.5t161 -57.5q69 0 120 20q58 17 58 -40v-98q0 -41 -34 -55q-89 -38 -208 -38
q-102 0 -180.5 28.5t-126 78.5t-71 113.5t-23.5 138.5q0 131 57.5 250.5t158.5 211.5q-13 -1 -37 -1q-167 0 -311.5 56t-247.5 156.5t-162 247.5t-59 321q0 178 54 338.5t150 283t224 213t281.5 138t316.5 47.5q143 0 263 -33.5t218.5 -104t158 -180.5t83.5 -263.5
t-6 -352.5zM1150 1501q-195 0 -362 -118.5t-243 -319.5h1026q3 96 -18.5 172.5t-60.5 125.5t-95 81t-117 45.5t-130 13.5z" />
    <glyph glyph-name="Ecaron" unicode="&#x11a;" horiz-adv-x="2269" 
d="M1271 2706l-355 458q-19 24 -7.5 42.5t43.5 18.5h235q39 0 60 -30l196 -282l275 282q28 30 68 30h235q32 0 38 -18.5t-19 -42.5l-484 -458q-26 -26 -67 -26h-158q-40 0 -60 26zM2215 2440q22 0 33.5 -13.5t9.5 -36.5l-25 -180q-4 -22 -19.5 -36t-37.5 -14h-1439
l-107 -764h1278q22 0 34 -13.5t9 -35.5l-25 -181q-4 -23 -20 -36.5t-38 -13.5h-1278l-117 -836h1478q22 0 34 -14t9 -36l-25 -180q-4 -23 -19.5 -36.5t-37.5 -13.5h-1622h-135q-20 0 -33.5 15t-9.5 35l328 2340q3 20 20.5 35t37.5 15h229h1488z" />
    <glyph glyph-name="ecaron" unicode="&#x11b;" horiz-adv-x="2077" 
d="M1048 1994l-355 458q-19 24 -7.5 42.5t43.5 18.5h235q39 0 60 -30l196 -282l275 282q29 30 68 30h235q32 0 38 -18.5t-19 -42.5l-484 -458q-26 -26 -67 -26h-158q-40 0 -60 26zM1905 831h-1410q-2 -36 -2 -56q0 -243 143.5 -387t361.5 -144q336 0 515 274q31 43 70 23
l175 -88q43 -22 14 -67q-135 -210 -351.5 -316t-478.5 -106q-167 0 -311.5 56t-247.5 156.5t-162 247.5t-59 321q0 178 54 338.5t150 283t224 213t281.5 138t316.5 47.5q143 0 263 -33.5t218.5 -104t158 -180.5t83.5 -263.5t-6 -352.5zM1150 1501q-195 0 -362 -118.5
t-243 -319.5h1026q3 96 -18.5 172.5t-60.5 125.5t-95 81t-117 45.5t-130 13.5z" />
    <glyph glyph-name="Gbreve" unicode="&#x11e;" horiz-adv-x="2700" 
d="M1661 2648q-229 0 -376.5 132.5t-147.5 343.5q0 65 14.5 91t45.5 26h135q50 0 50 -58q0 -91 45 -154t114 -90t157 -27q91 0 169.5 29t141 96t85.5 164q5 19 23 29.5t39 10.5h136q40 0 40 -42q0 -147 -91.5 -274.5t-246.5 -202t-333 -74.5zM2602 1918q11 -22 0.5 -40.5
t-32.5 -28.5l-189 -85q-50 -21 -67 27q-109 217 -279 311t-410 94q-143 0 -278.5 -38t-251 -107.5t-212 -170.5t-164 -223.5t-105 -270.5t-37.5 -308q0 -246 95.5 -435.5t271.5 -294t408 -104.5q219 0 399.5 44t362.5 136l85 602q3 22 18.5 36t38.5 14h197q22 0 34 -13.5
t9 -36.5l-104 -738q-507 -324 -1080 -324q-175 0 -336.5 48.5t-297 143t-236 225t-156.5 305t-56 372.5q0 211 58 405.5t159 348t238.5 280t296.5 210t334 129t349 45.5q338 0 566.5 -130.5t370.5 -427.5z" />
    <glyph glyph-name="gbreve" unicode="&#x11f;" horiz-adv-x="2017" 
d="M1147 1936q-229 0 -376.5 132.5t-147.5 343.5q0 65 14.5 91t45.5 26h135q50 0 50 -58q0 -91 45 -154t114 -90t157 -27q91 0 169.5 29t141 96t85.5 164q5 19 23 29.5t39 10.5h136q40 0 40 -42q0 -147 -91.5 -274.5t-246.5 -202t-333 -74.5zM2018 1805q24 0 32 -8.5
t5 -31.5l-29 -204q-5 -39 -44 -39q-79 0 -146.5 -33t-111.5 -96q27 -70 27 -158q0 -179 -104.5 -329t-289.5 -238t-410 -88h-261q-134 0 -203 -51t-69 -131q0 -64 55 -102.5t171 -38.5h321q380 0 579 -131.5t199 -363.5q0 -104 -34 -196.5t-107.5 -171.5t-181 -136
t-262 -89.5t-343.5 -32.5q-199 0 -352 35.5t-247 99t-141.5 146.5t-47.5 181q0 154 97.5 272t266.5 194q-133 27 -197 99t-64 178q0 138 92 237t277 146q-89 65 -138.5 167t-49.5 218q0 179 105 329.5t290.5 238.5t410.5 88q159 0 287 -47t213 -132q79 106 186 162.5
t219 56.5zM981 828q118 0 222 47.5t168.5 136.5t64.5 198q0 137 -102 222t-256 85q-118 0 -222 -48t-168.5 -136.5t-64.5 -197.5q0 -136 102 -221.5t256 -85.5zM926 9q-279 0 -439 -101.5t-160 -251.5q0 -132 127 -210t382 -78q300 0 450 96.5t150 255.5q0 127 -127.5 208
t-382.5 81z" />
    <glyph glyph-name="Gdotaccent" unicode="&#x120;" horiz-adv-x="2700" 
d="M1672 2724q-77 0 -127.5 52.5t-50.5 129.5q0 91 71.5 159t163.5 68q77 0 127.5 -52.5t50.5 -129.5q0 -91 -71.5 -159t-163.5 -68zM2453 1076q22 0 34 -13.5t9 -36.5l-104 -738q-507 -324 -1080 -324q-175 0 -336.5 48.5t-297 143t-236 225t-156.5 305t-56 372.5
q0 211 58 405.5t159 348t238.5 280t296.5 210t334 129t349 45.5q338 0 566.5 -130.5t370.5 -427.5q11 -22 0.5 -40.5t-32.5 -28.5l-189 -85q-50 -21 -67 27q-109 217 -279 311t-410 94q-143 0 -278.5 -38t-251 -107.5t-212 -170.5t-164 -223.5t-105 -270.5t-37.5 -308
q0 -246 95.5 -435.5t271.5 -294t408 -104.5q219 0 399.5 44t362.5 136l85 602q3 22 18.5 36t38.5 14h197z" />
    <glyph glyph-name="gdotaccent" unicode="&#x121;" horiz-adv-x="2017" 
d="M1158 2012q-77 0 -127.5 52.5t-50.5 129.5q0 91 71.5 159t163.5 68q77 0 127.5 -52.5t50.5 -129.5q0 -91 -71.5 -159t-163.5 -68zM2018 1805q24 0 32 -8.5t5 -31.5l-29 -204q-5 -39 -44 -39q-79 0 -146.5 -33t-111.5 -96q27 -70 27 -158q0 -179 -104.5 -329t-289.5 -238
t-410 -88h-261q-134 0 -203 -51t-69 -131q0 -64 55 -102.5t171 -38.5h321q380 0 579 -131.5t199 -363.5q0 -104 -34 -196.5t-107.5 -171.5t-181 -136t-262 -89.5t-343.5 -32.5q-199 0 -352 35.5t-247 99t-141.5 146.5t-47.5 181q0 154 97.5 272t266.5 194q-133 27 -197 99
t-64 178q0 138 92 237t277 146q-89 65 -138.5 167t-49.5 218q0 179 105 329.5t290.5 238.5t410.5 88q159 0 287 -47t213 -132q79 106 186 162.5t219 56.5zM981 828q118 0 222 47.5t168.5 136.5t64.5 198q0 137 -102 222t-256 85q-118 0 -222 -48t-168.5 -136.5t-64.5 -197.5
q0 -136 102 -221.5t256 -85.5zM1436 -280q0 127 -127.5 208t-382.5 81q-279 0 -439 -101.5t-160 -251.5q0 -132 127 -210t382 -78q300 0 450 96.5t150 255.5z" />
    <glyph glyph-name="Gcommaaccent" unicode="&#x122;" horiz-adv-x="2700" 
d="M2453 1076q22 0 34 -13.5t9 -36.5l-104 -738q-507 -324 -1080 -324q-175 0 -336.5 48.5t-297 143t-236 225t-156.5 305t-56 372.5q0 211 58 405.5t159 348t238.5 280t296.5 210t334 129t349 45.5q338 0 566.5 -130.5t370.5 -427.5q11 -22 0.5 -40.5t-32.5 -28.5l-189 -85
q-50 -21 -67 27q-109 217 -279 311t-410 94q-143 0 -278.5 -38t-251 -107.5t-212 -170.5t-164 -223.5t-105 -270.5t-37.5 -308q0 -246 95.5 -435.5t271.5 -294t408 -104.5q219 0 399.5 44t362.5 136l85 602q3 22 18.5 36t38.5 14h197zM1185 -223q62 0 111.5 -42t49.5 -133
q0 -97 -58 -221.5t-152.5 -237t-196.5 -175.5q-19 -10 -34 -6t-23 18l-8 13q-8 12 -4.5 29.5t18.5 30.5q186 158 186 303q0 28 -11 46.5t-38 42.5q-55 50 -55 122q0 85 65.5 147.5t149.5 62.5z" />
    <glyph glyph-name="gcommaaccent" unicode="&#x123;" horiz-adv-x="2017" 
d="M1147 2011q-62 0 -111.5 42t-49.5 133q0 97 58 221.5t152.5 237t196.5 175.5q19 10 34 6t23 -18l8 -13q8 -12 4.5 -29.5t-18.5 -30.5q-186 -158 -186 -303q0 -28 11 -46.5t38 -42.5q55 -50 55 -122q0 -85 -65.5 -147.5t-149.5 -62.5zM2018 1805q24 0 32 -8.5t5 -31.5
l-29 -204q-5 -39 -44 -39q-79 0 -146.5 -33t-111.5 -96q27 -70 27 -158q0 -179 -104.5 -329t-289.5 -238t-410 -88h-261q-134 0 -203 -51t-69 -131q0 -64 55 -102.5t171 -38.5h321q380 0 579 -131.5t199 -363.5q0 -104 -34 -196.5t-107.5 -171.5t-181 -136t-262 -89.5
t-343.5 -32.5q-199 0 -352 35.5t-247 99t-141.5 146.5t-47.5 181q0 154 97.5 272t266.5 194q-133 27 -197 99t-64 178q0 138 92 237t277 146q-89 65 -138.5 167t-49.5 218q0 179 105 329.5t290.5 238.5t410.5 88q159 0 287 -47t213 -132q79 106 186 162.5t219 56.5zM981 828
q118 0 222 47.5t168.5 136.5t64.5 198q0 137 -102 222t-256 85q-118 0 -222 -48t-168.5 -136.5t-64.5 -197.5q0 -136 102 -221.5t256 -85.5zM1436 -280q0 127 -127.5 208t-382.5 81q-279 0 -439 -101.5t-160 -251.5q0 -132 127 -210t382 -78q300 0 450 96.5t150 255.5z" />
    <glyph glyph-name="Hbar" unicode="&#x126;" horiz-adv-x="2705" 
d="M2818 2032q23 0 35 -13.5t9 -35.5l-22 -149q-3 -22 -18.5 -36t-37.5 -14h-214l-243 -1734q-4 -20 -20.5 -35t-36.5 -15h-229q-20 0 -33.5 15t-9.5 35l149 1066h-1519l-149 -1066q-4 -20 -20.5 -35t-36.5 -15h-229q-20 0 -33.5 15t-9.5 35l243 1734h-215q-22 0 -34 14
t-9 36l22 149q3 22 18.5 35.5t37.5 13.5h215l50 358q3 20 20.5 35t37.5 15h229q20 0 32.5 -15t9.5 -35l-50 -358h1519l50 358q3 20 20.5 35t37.5 15h229q20 0 32.5 -15t9.5 -35l-50 -358h213zM2187 1396l54 388h-1519l-54 -388h1519z" />
    <glyph glyph-name="hbar" unicode="&#x127;" horiz-adv-x="2224" 
d="M1476 1768q133 0 236.5 -32t169.5 -92t106.5 -144t47.5 -188.5t-8 -226.5l-145 -1035q-4 -23 -19.5 -36.5t-37.5 -13.5h-213q-23 0 -35 14t-8 36l128 910q38 273 -51 400.5t-307 127.5q-240 0 -423 -161.5t-229 -424.5l-119 -852q-3 -22 -18.5 -36t-38.5 -14h-213
q-22 0 -34 13.5t-9 36.5l276 1963h-300q-23 0 -35 13.5t-8 35.5l11 85q4 22 20 35.5t38 13.5h300l44 314q3 22 18.5 36t37.5 14h214q22 0 34 -14t9 -36l-44 -314h516q22 0 34 -13.5t9 -35.5l-12 -85q-3 -22 -19 -35.5t-38 -13.5h-516l-85 -602q125 160 310.5 258.5
t405.5 98.5z" />
    <glyph glyph-name="Imacron" unicode="&#x12a;" horiz-adv-x="781" 
d="M113 2999q3 20 20.5 35t37.5 15h1053q20 0 32.5 -15t9.5 -35l-18 -129q-2 -20 -19 -35t-37 -15h-1053q-20 0 -33 15t-11 35zM440 2390q3 20 20.5 35t37.5 15h229q20 0 32.5 -15t9.5 -35l-328 -2340q-4 -20 -20.5 -35t-36.5 -15h-229q-20 0 -33.5 15t-9.5 35z" />
    <glyph glyph-name="imacron" unicode="&#x12b;" horiz-adv-x="766" 
d="M7 2287q3 20 20.5 35t37.5 15h1053q20 0 32.5 -15t9.5 -35l-18 -129q-2 -20 -19 -35t-37 -15h-1053q-20 0 -33 15t-11 35zM341 1679q3 22 18.5 35.5t37.5 13.5h214q22 0 34 -13.5t9 -35.5l-229 -1629q-3 -22 -18.5 -36t-38.5 -14h-213q-22 0 -34 13.5t-9 36.5z" />
    <glyph glyph-name="Iogonek" unicode="&#x12e;" horiz-adv-x="781" 
d="M727 2440q20 0 32.5 -15t9.5 -35l-328 -2340q-4 -20 -20.5 -35t-36.5 -15h-79q-380 -218 -380 -474q0 -82 49 -130t141 -48q69 0 123 19q29 8 43 -2t10 -38l-14 -98q-4 -39 -42 -55q-98 -38 -213 -38q-179 0 -267.5 86t-88.5 223q0 184 125.5 351t321.5 264l327 2330
q3 20 20.5 35t37.5 15h229z" />
    <glyph glyph-name="iogonek" unicode="&#x12f;" horiz-adv-x="766" 
d="M603 2421q77 0 127.5 -52.5t50.5 -129.5q0 -91 -71.5 -159t-163.5 -68q-77 0 -127.5 52.5t-50.5 129.5q0 91 71.5 159t163.5 68zM611 1728q22 0 34 -13.5t9 -35.5l-229 -1629q-3 -22 -18.5 -36t-38.5 -14h-59q-380 -218 -380 -474q0 -82 49 -130t141 -48q69 0 123 19
q29 8 43 -2t10 -38l-14 -98q-4 -39 -42 -55q-98 -38 -213 -38q-179 0 -267.5 86t-88.5 223q0 184 124.5 350t318.5 263l228 1621q3 22 18.5 35.5t37.5 13.5h214z" />
    <glyph glyph-name="Idotaccent" unicode="&#x130;" horiz-adv-x="781" 
d="M652 2724q-77 0 -127.5 52.5t-50.5 129.5q0 91 71.5 159t163.5 68q77 0 127.5 -52.5t50.5 -129.5q0 -91 -71.5 -159t-163.5 -68zM440 2390q3 20 20.5 35t37.5 15h229q20 0 32.5 -15t9.5 -35l-328 -2340q-4 -20 -20.5 -35t-36.5 -15h-229q-20 0 -33.5 15t-9.5 35z" />
    <glyph glyph-name="dotlessi" unicode="&#x131;" horiz-adv-x="766" 
d="M341 1679q3 22 18.5 35.5t37.5 13.5h214q22 0 34 -13.5t9 -35.5l-229 -1629q-3 -22 -18.5 -36t-38.5 -14h-213q-22 0 -34 13.5t-9 36.5z" />
    <glyph glyph-name="Kcommaaccent" unicode="&#x136;" horiz-adv-x="2441" 
d="M728 2440q20 0 32.5 -15t9.5 -35l-329 -2340q-2 -20 -19 -35t-37 -15h-230q-20 0 -33 15t-10 35l329 2340q3 20 20 35t37 15h230zM2198 60q17 -22 5.5 -41t-43.5 -19h-294q-37 0 -59 27l-930 1213l1257 1173q26 27 65 27h272q33 0 39.5 -17t-19.5 -43l-1201 -1124z
M1008 -223q62 0 111.5 -42t49.5 -133q0 -97 -58 -221.5t-152.5 -237t-196.5 -175.5q-19 -10 -34 -6t-23 18l-8 13q-8 12 -4.5 29.5t18.5 30.5q186 158 186 303q0 28 -11 46.5t-38 42.5q-55 50 -55 122q0 85 65.5 147.5t149.5 62.5z" />
    <glyph glyph-name="kcommaaccent" unicode="&#x137;" horiz-adv-x="1854" 
d="M457 2510q3 22 18.5 36t38.5 14h213q22 0 34 -13.5t9 -36.5l-345 -2460q-4 -23 -19.5 -36.5t-37.5 -13.5h-213q-23 0 -35 14t-8 36zM1352 0q-36 0 -57 30l-631 914l814 758q27 26 67 26h257q31 0 36.5 -18t-18.5 -41l-790 -733l608 -876q17 -26 6.5 -43t-41.5 -17h-251z
M736 -223q62 0 111.5 -42t49.5 -133q0 -97 -58 -221.5t-152.5 -237t-196.5 -175.5q-19 -10 -34 -6t-23 18l-8 13q-8 12 -4.5 29.5t18.5 30.5q186 158 186 303q0 28 -11 46.5t-38 42.5q-55 50 -55 122q0 85 65.5 147.5t149.5 62.5z" />
    <glyph glyph-name="Lacute" unicode="&#x139;" horiz-adv-x="2039" 
d="M508 2659q-20 -10 -39.5 -4t-27.5 23l-49 112q-5 15 3 35.5t26 33.5l736 455q19 9 39 4t28 -20l75 -170q7 -16 -0.5 -36.5t-27.5 -29.5zM1822 280q22 0 34 -14t8 -36l-25 -180q-3 -22 -18.5 -36t-38.5 -14h-1627q-20 0 -33 15t-10 35l329 2340q3 20 20 35t37 15h230
q20 0 33 -15t9 -35l-296 -2110h1348z" />
    <glyph glyph-name="lacute" unicode="&#x13a;" horiz-adv-x="765" 
d="M515 2755q-20 -10 -39.5 -4t-27.5 23l-49 112q-5 15 3 35.5t26 33.5l736 455q19 9 39 4t28 -20l75 -170q7 -16 -0.5 -36.5t-27.5 -29.5zM458 2510q3 22 18.5 36t38.5 14h213q22 0 34 -13.5t9 -36.5l-346 -2460q-3 -22 -18.5 -36t-38.5 -14h-213q-22 0 -34 13.5t-9 36.5z
" />
    <glyph glyph-name="Lcommaaccent" unicode="&#x13b;" horiz-adv-x="2039" 
d="M1822 280q22 0 34 -14t8 -36l-25 -180q-3 -22 -18.5 -36t-38.5 -14h-1627q-20 0 -33 15t-10 35l329 2340q3 20 20 35t37 15h230q20 0 33 -15t9 -35l-296 -2110h1348zM886 -223q62 0 111.5 -42t49.5 -133q0 -97 -58 -221.5t-152.5 -237t-196.5 -175.5q-19 -10 -34 -6
t-23 18l-8 13q-8 12 -4.5 29.5t18.5 30.5q186 158 186 303q0 28 -11 46.5t-38 42.5q-55 50 -55 122q0 85 65.5 147.5t149.5 62.5z" />
    <glyph glyph-name="lcommaaccent" unicode="&#x13c;" horiz-adv-x="765" 
d="M458 2510q3 22 18.5 36t38.5 14h213q22 0 34 -13.5t9 -36.5l-346 -2460q-3 -22 -18.5 -36t-38.5 -14h-213q-22 0 -34 13.5t-9 36.5zM191 -223q62 0 111.5 -42t49.5 -133q0 -97 -58 -221.5t-152.5 -237t-196.5 -175.5q-19 -10 -34 -6t-23 18l-8 13q-8 12 -4.5 29.5
t18.5 30.5q186 158 186 303q0 28 -11 46.5t-38 42.5q-55 50 -55 122q0 85 65.5 147.5t149.5 62.5z" />
    <glyph glyph-name="Lcaron" unicode="&#x13d;" horiz-adv-x="2039" 
d="M1535 2601q63 0 112.5 -42.5t49.5 -135.5q0 -149 -127 -344.5t-284 -293.5q-19 -10 -34.5 -6t-23.5 17l-7 14q-19 33 14 61q186 160 186 303q0 29 -11 47.5t-37 42.5q-57 52 -57 123q0 86 66.5 150t152.5 64zM1822 280q22 0 34 -14t8 -36l-25 -180q-3 -22 -18.5 -36
t-38.5 -14h-1627q-20 0 -33 15t-10 35l329 2340q3 20 20 35t37 15h230q20 0 33 -15t9 -35l-296 -2110h1348z" />
    <glyph glyph-name="lcaron" unicode="&#x13e;" horiz-adv-x="1211" 
d="M1181 2601q63 0 112.5 -42.5t49.5 -135.5q0 -149 -127 -344.5t-284 -293.5q-19 -10 -34.5 -6t-23.5 17l-7 14q-19 33 14 61q186 160 186 303q0 29 -11 47.5t-37 42.5q-57 52 -57 123q0 86 66.5 150t152.5 64zM458 2510q3 22 18.5 36t38.5 14h213q22 0 34 -13.5t9 -36.5
l-346 -2460q-3 -22 -18.5 -36t-38.5 -14h-213q-22 0 -34 13.5t-9 36.5z" />
    <glyph glyph-name="Lslash" unicode="&#x141;" horiz-adv-x="2278" 
d="M2061 280q22 0 34 -14t8 -36l-25 -180q-3 -22 -18.5 -36t-38.5 -14h-1627q-20 0 -33 15t-10 35l124 882l-336 -160q-22 -10 -39.5 -3.5t-24.5 26.5l-46 133q-15 45 32 67l453 215l166 1180q3 20 20 35t37 15h230q20 0 33 -15t9 -35l-142 -1012l866 411q22 10 39.5 3.5
t24.5 -26.5l46 -133q7 -20 -1.5 -38.5t-30.5 -28.5l-983 -467l-115 -819h1348z" />
    <glyph glyph-name="lslash" unicode="&#x142;" horiz-adv-x="1114" 
d="M1180 1464q8 -20 -1 -38t-31 -28l-365 -172l-165 -1176q-3 -22 -18.5 -36t-38.5 -14h-213q-22 0 -34 13.5t-9 36.5l143 1018l-268 -126q-22 -10 -39.5 -4.5t-24.5 25.5l-46 134q-6 20 2.5 38.5t30.5 27.5l384 181l164 1166q3 22 18.5 36t38.5 14h213q22 0 34 -13.5
t9 -36.5l-142 -1007l247 116q23 11 41 5t25 -26z" />
    <glyph glyph-name="Nacute" unicode="&#x143;" horiz-adv-x="2669" 
d="M1491 2659q-20 -10 -39.5 -4t-27.5 23l-49 112q-5 15 3 35.5t26 33.5l736 455q19 9 39 4t28 -20l75 -170q7 -16 -0.5 -36.5t-27.5 -29.5zM2615 2440q22 0 33.5 -13.5t8.5 -36.5l-334 -2380q-4 -23 -19.5 -36.5t-37.5 -13.5h-13q-41 0 -61 24l-1505 1820l-246 -1754
q-4 -23 -19.5 -36.5t-37.5 -13.5h-229q-23 0 -35 14t-8 36l334 2380q3 22 18.5 36t38.5 14h13q39 0 61 -24l1505 -1820l246 1754q3 22 19 36t39 14h229z" />
    <glyph glyph-name="nacute" unicode="&#x144;" horiz-adv-x="2082" 
d="M1098 1947q-20 -10 -39.5 -4t-27.5 23l-49 112q-5 15 3 35.5t26 33.5l736 455q19 9 39 4t28 -20l75 -170q7 -16 -0.5 -36.5t-27.5 -29.5zM1334 1768q133 0 236.5 -32t169.5 -92t106.5 -144t47.5 -188.5t-8 -226.5l-145 -1035q-4 -23 -19.5 -36.5t-37.5 -13.5h-213
q-23 0 -35 14t-9 36l129 910q38 273 -51 400.5t-307 127.5q-246 0 -432.5 -169t-224.5 -438l-116 -831q-3 -22 -18.5 -36t-38.5 -14h-213q-22 0 -34 13.5t-9 36.5l229 1629q3 22 19 35.5t38 13.5h213q22 0 34 -13.5t9 -35.5l-38 -273q123 161 309.5 261.5t408.5 100.5z" />
    <glyph glyph-name="Ncommaaccent" unicode="&#x145;" horiz-adv-x="2669" 
d="M2615 2440q22 0 33.5 -13.5t8.5 -36.5l-334 -2380q-4 -23 -19.5 -36.5t-37.5 -13.5h-13q-41 0 -61 24l-1505 1820l-246 -1754q-4 -23 -19.5 -36.5t-37.5 -13.5h-229q-23 0 -35 14t-8 36l334 2380q3 22 18.5 36t38.5 14h13q39 0 61 -24l1505 -1820l246 1754q3 22 19 36
t39 14h229zM1181 -223q62 0 111.5 -42t49.5 -133q0 -97 -58 -221.5t-152.5 -237t-196.5 -175.5q-19 -10 -34 -6t-23 18l-8 13q-8 12 -4.5 29.5t18.5 30.5q186 158 186 303q0 28 -11 46.5t-38 42.5q-55 50 -55 122q0 85 65.5 147.5t149.5 62.5z" />
    <glyph glyph-name="ncommaaccent" unicode="&#x146;" horiz-adv-x="2082" 
d="M1334 1768q133 0 236.5 -32t169.5 -92t106.5 -144t47.5 -188.5t-8 -226.5l-145 -1035q-4 -23 -19.5 -36.5t-37.5 -13.5h-213q-23 0 -35 14t-9 36l129 910q38 273 -51 400.5t-307 127.5q-246 0 -432.5 -169t-224.5 -438l-116 -831q-3 -22 -18.5 -36t-38.5 -14h-213
q-22 0 -34 13.5t-9 36.5l229 1629q3 22 19 35.5t38 13.5h213q22 0 34 -13.5t9 -35.5l-38 -273q123 161 309.5 261.5t408.5 100.5zM848 -223q62 0 111.5 -42t49.5 -133q0 -97 -58 -221.5t-152.5 -237t-196.5 -175.5q-19 -10 -34 -6t-23 18l-8 13q-8 12 -4.5 29.5t18.5 30.5
q186 158 186 303q0 28 -11 46.5t-38 42.5q-55 50 -55 122q0 85 65.5 147.5t149.5 62.5z" />
    <glyph glyph-name="Ncaron" unicode="&#x147;" horiz-adv-x="2669" 
d="M1937 3195q29 30 68 30h235q32 0 38 -18.5t-19 -42.5l-484 -458q-26 -26 -67 -26h-158q-40 0 -60 26l-355 458q-19 24 -7.5 42.5t43.5 18.5h235q39 0 60 -30l196 -282zM2615 2440q22 0 33.5 -13.5t8.5 -36.5l-334 -2380q-4 -23 -19.5 -36.5t-37.5 -13.5h-13q-41 0 -61 24
l-1505 1820l-246 -1754q-4 -23 -19.5 -36.5t-37.5 -13.5h-229q-23 0 -35 14t-8 36l334 2380q3 22 18.5 36t38.5 14h13q39 0 61 -24l1505 -1820l246 1754q3 22 19 36t39 14h229z" />
    <glyph glyph-name="ncaron" unicode="&#x148;" horiz-adv-x="2082" 
d="M1544 2483q28 30 68 30h235q32 0 38 -18.5t-19 -42.5l-484 -458q-26 -26 -67 -26h-158q-40 0 -60 26l-355 458q-19 24 -7.5 42.5t43.5 18.5h235q39 0 60 -30l196 -282zM1334 1768q133 0 236.5 -32t169.5 -92t106.5 -144t47.5 -188.5t-8 -226.5l-145 -1035
q-4 -23 -19.5 -36.5t-37.5 -13.5h-213q-23 0 -35 14t-9 36l129 910q38 273 -51 400.5t-307 127.5q-246 0 -432.5 -169t-224.5 -438l-116 -831q-3 -22 -18.5 -36t-38.5 -14h-213q-22 0 -34 13.5t-9 36.5l229 1629q3 22 19 35.5t38 13.5h213q22 0 34 -13.5t9 -35.5l-38 -273
q123 161 309.5 261.5t408.5 100.5z" />
    <glyph glyph-name="Eng" unicode="&#x14a;" horiz-adv-x="2670" 
d="M2615 2440q23 0 34.5 -14t7.5 -36l-345 -2463q-23 -158 -81.5 -289.5t-148.5 -227.5t-214 -149.5t-270 -53.5q-22 0 -35.5 14t-10.5 36l21 148q3 20 18 34t36 16q165 16 253 136t119 336l33 238l-1345 1639l-246 -1754q-4 -23 -19.5 -36.5t-37.5 -13.5h-229q-23 0 -35 14
t-8 36l334 2380q3 22 18.5 36t38.5 14h13q42 0 60 -23l1506 -1821l246 1754q4 23 20 36.5t38 13.5h229z" />
    <glyph glyph-name="eng" unicode="&#x14b;" horiz-adv-x="2081" 
d="M1334 1768q133 0 236 -32t169.5 -92t106.5 -144t47.5 -188.5t-7.5 -226.5l-162 -1158q-23 -158 -81.5 -289.5t-148.5 -227.5t-214 -149.5t-270 -53.5q-23 0 -36 14t-10 36l21 148q2 20 17.5 34t35.5 16q165 16 253 135.5t120 336.5l145 1033q38 273 -51 400.5t-307 127.5
q-161 0 -301 -75t-235.5 -214.5t-120.5 -317.5l-116 -831q-4 -23 -19.5 -36.5t-37.5 -13.5h-213q-23 0 -35 14t-8 36l229 1629q3 22 18.5 35.5t37.5 13.5h214q22 0 34 -13.5t9 -35.5l-38 -273q123 161 309.5 261.5t408.5 100.5z" />
    <glyph glyph-name="Omacron" unicode="&#x14c;" horiz-adv-x="2876" 
d="M1161 2999q3 20 20.5 35t37.5 15h1053q20 0 32.5 -15t9.5 -35l-18 -129q-2 -20 -19 -35t-37 -15h-1053q-20 0 -33 15t-11 35zM1665 2476q175 0 336.5 -48.5t297 -143t236 -225t156.5 -305t56 -372.5q0 -211 -58 -405.5t-159 -348t-238.5 -280t-296.5 -210t-334 -129
t-349 -45.5q-175 0 -336.5 48.5t-297 143t-236 225t-156.5 305t-56 372.5q0 211 58 405.5t159 348t238.5 280t296.5 210t334 129t349 45.5zM1352 244q143 0 278.5 38t251 107.5t211.5 170.5t164 223.5t105.5 270.5t37.5 308q0 246 -95.5 435.5t-271.5 294t-408 104.5
q-143 0 -278.5 -38t-251 -107.5t-212 -170.5t-164 -223.5t-105 -270.5t-37.5 -308q0 -246 95.5 -435.5t271.5 -294t408 -104.5z" />
    <glyph glyph-name="omacron" unicode="&#x14d;" horiz-adv-x="2170" 
d="M707 2287q3 20 20.5 35t37.5 15h1053q20 0 32.5 -15t9.5 -35l-18 -129q-2 -20 -19 -35t-37 -15h-1053q-20 0 -33 15t-11 35zM1212 1765q168 0 314.5 -56.5t252.5 -157.5t167 -249t61 -323q0 -177 -56.5 -337.5t-156.5 -282.5t-231.5 -212t-287 -136.5t-317.5 -46.5
q-168 0 -314.5 56.5t-253 157.5t-167.5 248.5t-61 322.5q0 177 56.5 337.5t156.5 282.5t232 212t287.5 137t317.5 47zM998 244q129 0 250.5 50t217 139t153 224.5t57.5 295.5q0 122 -39 223t-107 168t-160 103.5t-198 36.5q-103 0 -202 -31t-185 -92.5t-151.5 -145.5
t-103 -198t-37.5 -242q0 -243 143.5 -387t361.5 -144z" />
    <glyph glyph-name="Ohungarumlaut" unicode="&#x150;" horiz-adv-x="2876" 
d="M1450 2677q-13 -18 -35 -23.5t-38 5.5l-101 65q-13 10 -16 30t8 40l467 725q12 17 34 23t37 -2l156 -98q14 -10 17.5 -29t-10.5 -39zM1994 2659q-20 -10 -39.5 -4t-27.5 23l-49 112q-5 16 3 36.5t26 32.5l735 455q19 10 39.5 4.5t28.5 -20.5l75 -170q7 -16 -1 -36.5
t-28 -29.5zM1665 2476q175 0 336.5 -48.5t297 -143t236 -225t156.5 -305t56 -372.5q0 -211 -58 -405.5t-159 -348t-238.5 -280t-296.5 -210t-334 -129t-349 -45.5q-175 0 -336.5 48.5t-297 143t-236 225t-156.5 305t-56 372.5q0 211 58 405.5t159 348t238.5 280t296.5 210
t334 129t349 45.5zM1352 244q143 0 278.5 38t251 107.5t211.5 170.5t164 223.5t105.5 270.5t37.5 308q0 246 -95.5 435.5t-271.5 294t-408 104.5q-143 0 -278.5 -38t-251 -107.5t-212 -170.5t-164 -223.5t-105 -270.5t-37.5 -308q0 -246 95.5 -435.5t271.5 -294t408 -104.5z
" />
    <glyph glyph-name="ohungarumlaut" unicode="&#x151;" horiz-adv-x="2170" 
d="M996 1965q-13 -18 -35 -23.5t-38 5.5l-101 65q-13 10 -16 30t8 40l467 725q12 17 34 23t37 -2l156 -98q14 -10 17.5 -29t-10.5 -39zM1540 1947q-20 -10 -39.5 -4t-27.5 23l-49 112q-5 16 3 36.5t26 32.5l735 455q19 10 39.5 4.5t28.5 -20.5l75 -170q7 -16 -1 -36.5
t-28 -29.5zM1212 1765q168 0 314.5 -56.5t252.5 -157.5t167 -249t61 -323q0 -177 -56.5 -337.5t-156.5 -282.5t-231.5 -212t-287 -136.5t-317.5 -46.5q-168 0 -314.5 56.5t-253 157.5t-167.5 248.5t-61 322.5q0 177 56.5 337.5t156.5 282.5t232 212t287.5 137t317.5 47z
M998 244q129 0 250.5 50t217 139t153 224.5t57.5 295.5q0 122 -39 223t-107 168t-160 103.5t-198 36.5q-103 0 -202 -31t-185 -92.5t-151.5 -145.5t-103 -198t-37.5 -242q0 -243 143.5 -387t361.5 -144z" />
    <glyph glyph-name="OE" unicode="&#x152;" horiz-adv-x="3857" 
d="M3804 2440q22 0 34 -14t9 -36l-26 -180q-3 -22 -18.5 -36t-38.5 -14h-1325q131 -143 200 -336.5t63 -427.5h795q22 0 34 -13.5t9 -35.5l-26 -181q-3 -23 -18.5 -36.5t-37.5 -13.5h-790q-55 -258 -185.5 -470.5t-317.5 -365.5h1375q22 0 34 -13.5t9 -36.5l-26 -180
q-3 -22 -18.5 -36t-37.5 -14h-1908q-145 -32 -287 -32q-160 0 -309 39t-276.5 114t-229.5 184t-167 248.5t-89.5 308t3.5 362.5q27 190 99 362t176 308.5t236.5 248t281 185t308.5 113t320 39.5t309 -40h1836zM1346 248q259 0 480.5 122.5t368.5 345.5t187 508
q30 213 -12 395.5t-143 309.5t-257.5 199t-350.5 72q-259 0 -480.5 -122.5t-368.5 -345.5t-187 -508q-30 -213 12 -395.5t143 -309.5t257.5 -199t350.5 -72z" />
    <glyph glyph-name="oe" unicode="&#x153;" horiz-adv-x="3589" 
d="M3418 831h-1410q-2 -36 -2 -56q0 -243 143.5 -387t361.5 -144q336 0 515 274q31 43 70 23l175 -88q43 -22 14 -67q-135 -210 -351.5 -316t-478.5 -106q-225 0 -403.5 98t-276.5 274q-149 -176 -365 -274t-452 -98q-168 0 -314.5 56.5t-253 157.5t-167.5 248.5t-61 322.5
q0 177 56.5 337.5t156.5 282.5t232 212t287.5 137t317.5 47q225 0 406 -98t283 -273q145 176 354.5 273.5t445.5 97.5q143 0 263 -33.5t218.5 -104t158 -180.5t83.5 -263.5t-6 -352.5zM2663 1501q-195 0 -362 -118.5t-243 -319.5h1026q3 96 -18.5 172.5t-60.5 125.5t-95 81
t-117 45.5t-130 13.5zM998 244q129 0 250.5 50t217 139t153 224.5t57.5 295.5q0 122 -39 223t-107 168t-160 103.5t-198 36.5q-103 0 -202 -31t-185 -92.5t-151.5 -145.5t-103 -198t-37.5 -242q0 -243 143.5 -387t361.5 -144z" />
    <glyph glyph-name="Racute" unicode="&#x154;" horiz-adv-x="2416" 
d="M1147 2678l-49 112q-5 15 3 35.5t26 33.5l736 455q19 9 39 4t28 -20l75 -170q7 -16 -0.5 -36.5t-27.5 -29.5l-763 -403q-20 -10 -39.5 -4t-27.5 23zM2246 1772q0 -297 -182.5 -519t-520.5 -302l455 -852q19 -36 -2.5 -67.5t-64.5 -31.5h-235q-24 0 -36 22l-464 890h-11
h-623l-121 -862q-4 -20 -20.5 -35t-36.5 -15h-229q-20 0 -33.5 15t-9.5 35l328 2340q3 20 20.5 35t37.5 15h229h674q210 0 373 -50.5t265 -141t154.5 -211t52.5 -265.5zM1160 1192q138 0 250 19.5t192 57t138 86.5t92 112.5t50 131.5t16 146q0 93 -32 166.5t-101 130.5
t-187.5 87.5t-280.5 30.5h-560l-136 -968h559z" />
    <glyph glyph-name="racute" unicode="&#x155;" horiz-adv-x="1248" 
d="M643 1947q-20 -10 -39.5 -4t-27.5 23l-49 112q-5 15 3 35.5t26 33.5l736 455q19 9 39 4t28 -20l75 -170q7 -16 -0.5 -36.5t-27.5 -29.5zM1232 1765q30 0 40.5 -10.5t6.5 -39.5l-34 -241q-3 -22 -15.5 -33.5t-40.5 -16.5q-81 -11 -159.5 -36t-163 -73.5t-150.5 -114.5
t-116.5 -166.5t-67.5 -221.5l-107 -762q-3 -22 -18.5 -36t-38.5 -14h-213q-22 0 -34 13.5t-9 36.5l229 1629q3 22 19 35.5t38 13.5h213q22 0 34 -13.5t9 -35.5l-47 -340q116 186 301 306t324 120z" />
    <glyph glyph-name="Rcommaaccent" unicode="&#x156;" horiz-adv-x="2416" 
d="M2246 1772q0 -297 -182.5 -519t-520.5 -302l455 -852q19 -36 -2.5 -67.5t-64.5 -31.5h-235q-24 0 -36 22l-464 890h-11h-623l-121 -862q-4 -20 -20.5 -35t-36.5 -15h-229q-20 0 -33.5 15t-9.5 35l328 2340q3 20 20.5 35t37.5 15h229h674q210 0 373 -50.5t265 -141
t154.5 -211t52.5 -265.5zM1160 1192q138 0 250 19.5t192 57t138 86.5t92 112.5t50 131.5t16 146q0 93 -32 166.5t-101 130.5t-187.5 87.5t-280.5 30.5h-560l-136 -968h559zM904 -223q62 0 111.5 -42t49.5 -133q0 -97 -58 -221.5t-152.5 -237t-196.5 -175.5q-19 -10 -34 -6
t-23 18l-8 13q-8 12 -4.5 29.5t18.5 30.5q186 158 186 303q0 28 -11 46.5t-38 42.5q-55 50 -55 122q0 85 65.5 147.5t149.5 62.5z" />
    <glyph glyph-name="rcommaaccent" unicode="&#x157;" horiz-adv-x="1248" 
d="M1232 1765q30 0 40.5 -10.5t6.5 -39.5l-34 -241q-3 -22 -15.5 -33.5t-40.5 -16.5q-81 -11 -159.5 -36t-163 -73.5t-150.5 -114.5t-116.5 -166.5t-67.5 -221.5l-107 -762q-3 -22 -18.5 -36t-38.5 -14h-213q-22 0 -34 13.5t-9 36.5l229 1629q3 22 19 35.5t38 13.5h213
q22 0 34 -13.5t9 -35.5l-47 -340q116 186 301 306t324 120zM201 -221q62 0 111.5 -42t49.5 -133q0 -97 -58 -221.5t-152.5 -237t-196.5 -175.5q-19 -10 -34 -6t-23 18l-8 13q-8 12 -4.5 29.5t18.5 30.5q186 158 186 303q0 28 -11 46.5t-38 42.5q-55 50 -55 122
q0 85 65.5 147.5t149.5 62.5z" />
    <glyph glyph-name="Rcaron" unicode="&#x158;" horiz-adv-x="2416" 
d="M1213 2706l-355 458q-19 24 -7.5 42.5t43.5 18.5h235q39 0 60 -30l196 -282l275 282q28 30 68 30h235q32 0 38 -18.5t-19 -42.5l-484 -458q-26 -26 -67 -26h-158q-40 0 -60 26zM2246 1772q0 -297 -182.5 -519t-520.5 -302l455 -852q19 -36 -2.5 -67.5t-64.5 -31.5h-235
q-24 0 -36 22l-464 890h-11h-623l-121 -862q-4 -20 -20.5 -35t-36.5 -15h-229q-20 0 -33.5 15t-9.5 35l328 2340q3 20 20.5 35t37.5 15h229h674q210 0 373 -50.5t265 -141t154.5 -211t52.5 -265.5zM1160 1192q138 0 250 19.5t192 57t138 86.5t92 112.5t50 131.5t16 146
q0 93 -32 166.5t-101 130.5t-187.5 87.5t-280.5 30.5h-560l-136 -968h559z" />
    <glyph glyph-name="rcaron" unicode="&#x159;" horiz-adv-x="1248" 
d="M1089 2483q29 30 68 30h235q32 0 38 -18.5t-19 -42.5l-484 -458q-26 -26 -67 -26h-158q-40 0 -60 26l-355 458q-19 24 -7.5 42.5t43.5 18.5h235q39 0 60 -30l196 -282zM1232 1765q30 0 40.5 -10.5t6.5 -39.5l-34 -241q-3 -22 -15.5 -33.5t-40.5 -16.5q-81 -11 -159.5 -36
t-163 -73.5t-150.5 -114.5t-116.5 -166.5t-67.5 -221.5l-107 -762q-3 -22 -18.5 -36t-38.5 -14h-213q-22 0 -34 13.5t-9 36.5l229 1629q3 22 19 35.5t38 13.5h213q22 0 34 -13.5t9 -35.5l-47 -340q116 186 301 306t324 120z" />
    <glyph glyph-name="Sacute" unicode="&#x15a;" horiz-adv-x="2239" 
d="M1254 2659q-20 -10 -39.5 -4t-27.5 23l-49 112q-5 15 3 35.5t26 33.5l736 455q19 9 39 4t28 -20l75 -170q7 -16 -0.5 -36.5t-27.5 -29.5zM713 1769q0 -82 45 -145t120.5 -104t174 -75t207 -65t217 -66t207 -86t174 -117t120.5 -167t45 -229q0 -150 -58 -275.5
t-157.5 -212t-235 -147t-288.5 -88.5t-319 -28q-261 0 -461 69t-376 191q-40 26 -15 68l103 173q14 21 33 27t40 -6q72 -48 116.5 -75t119 -63.5t140.5 -56t159.5 -33.5t197.5 -14q296 0 471.5 106.5t175.5 310.5q0 81 -34.5 146.5t-82.5 108.5t-136 83t-155.5 63t-180.5 57
q-98 29 -148.5 45.5t-138 50.5t-135.5 63t-110 76.5t-94 99t-55 123t-23 155.5q0 156 69 291.5t196.5 236.5t322 158.5t432.5 57.5q136 0 253 -19t213 -56t155 -67.5t136 -77.5q41 -24 14 -68l-111 -183q-29 -46 -77 -12q-47 33 -82.5 55t-100.5 54.5t-126.5 52.5t-148 34.5
t-178.5 14.5q-157 0 -279.5 -34.5t-198 -94.5t-114 -137.5t-38.5 -168.5z" />
    <glyph glyph-name="sacute" unicode="&#x15b;" horiz-adv-x="1734" 
d="M872 1947q-20 -10 -39.5 -4t-27.5 23l-49 112q-5 15 3 35.5t26 33.5l736 455q19 9 39 4t28 -20l75 -170q7 -16 -0.5 -36.5t-27.5 -29.5zM583 1245q0 -53 32 -93.5t85.5 -67t123.5 -48.5t147.5 -43t154.5 -45t147 -59t123.5 -80t85.5 -114.5t32 -156.5
q0 -118 -42.5 -214.5t-114.5 -162.5t-170.5 -111t-207.5 -65.5t-227 -20.5q-177 0 -345.5 49.5t-309.5 143.5q-37 25 -14 66l95 158q11 21 30.5 29t40.5 -3q137 -87 256 -133t274 -46q85 0 154.5 13t125.5 40.5t87 74.5t31 111q0 54 -31.5 96.5t-84 71.5t-121 54t-144.5 49
t-152 50t-144.5 63.5t-121 84t-84 116t-31.5 155.5q0 176 95 303t264 191t394 64q303 0 549 -152q39 -23 14 -67l-99 -163q-26 -45 -66 -20q-211 138 -432 138q-176 0 -287.5 -70t-111.5 -186z" />
    <glyph glyph-name="Scedilla" unicode="&#x15e;" horiz-adv-x="2239" 
d="M2153 2256q41 -24 14 -68l-111 -183q-29 -46 -77 -12q-47 33 -82.5 55t-100.5 54.5t-126.5 52.5t-148 34.5t-178.5 14.5q-157 0 -279.5 -34.5t-198 -94.5t-114 -137.5t-38.5 -168.5q0 -82 45 -145t120.5 -104t174 -75t207 -65t217 -66t207 -86t174 -117t120.5 -167
t45 -229q0 -142 -52 -262t-142.5 -205.5t-214 -147t-264 -94t-296.5 -40.5l-91 -184q95 21 176.5 13t141 -37t93.5 -86t34 -133q0 -123 -71 -217t-180.5 -140t-236.5 -46q-184 0 -296 84q-36 27 -10 70l31 51q28 46 73 23q62 -31 109.5 -46t103.5 -15q103 0 172 53.5
t69 152.5q0 41 -16.5 69t-48 42t-69 20t-87 3t-93.5 -9.5t-97 -17.5q-33 -6 -43.5 5.5t4.5 44.5l149 301q-226 12 -404.5 79t-338.5 178q-40 26 -15 68l103 173q14 21 33 27t40 -6q72 -48 116.5 -75t119 -63.5t140.5 -56t159.5 -33.5t197.5 -14q296 0 471.5 106.5
t175.5 310.5q0 81 -34.5 146.5t-82.5 108.5t-136 83t-155.5 63t-180.5 57q-98 29 -148.5 45.5t-138 50.5t-135.5 63t-110 76.5t-94 99t-55 123t-23 155.5q0 156 69 291.5t196.5 236.5t322 158.5t432.5 57.5q136 0 253 -19t213 -56t155 -67.5t136 -77.5z" />
    <glyph glyph-name="scedilla" unicode="&#x15f;" horiz-adv-x="1734" 
d="M982 1501q-176 0 -287.5 -70t-111.5 -186q0 -53 32 -93.5t85.5 -67t123.5 -48.5t147.5 -43t154.5 -45t147 -59t123.5 -80t85.5 -114.5t32 -156.5q0 -112 -38.5 -205t-104 -158t-156 -111t-191.5 -70t-213 -29l-90 -183q95 21 176.5 13t141 -37t93.5 -86t34 -133
q0 -123 -71 -217t-180.5 -140t-236.5 -46q-184 0 -296 84q-36 27 -10 70l31 51q28 46 73 23q62 -31 109.5 -46t103.5 -15q103 0 172 53.5t69 152.5q0 41 -16.5 69t-48 42t-69 20t-87 3t-93.5 -9.5t-97 -17.5q-33 -6 -43.5 5.5t4.5 44.5l150 304q-294 29 -533 187
q-37 25 -14 66l95 158q11 21 30.5 29t40.5 -3q137 -87 256 -133t274 -46q85 0 154.5 13t125.5 40.5t87 74.5t31 111q0 54 -31.5 96.5t-84 71.5t-121 54t-144.5 49t-152 50t-144.5 63.5t-121 84t-84 116t-31.5 155.5q0 176 95 303t264 191t394 64q303 0 549 -152
q39 -23 14 -67l-99 -163q-26 -45 -66 -20q-211 138 -432 138z" />
    <glyph glyph-name="Scaron" unicode="&#x160;" horiz-adv-x="2239" 
d="M1700 3195q28 30 68 30h235q32 0 38 -18.5t-19 -42.5l-484 -458q-26 -26 -67 -26h-158q-40 0 -60 26l-355 458q-19 24 -7.5 42.5t43.5 18.5h235q39 0 60 -30l196 -282zM713 1769q0 -82 45 -145t120.5 -104t174 -75t207 -65t217 -66t207 -86t174 -117t120.5 -167t45 -229
q0 -150 -58 -275.5t-157.5 -212t-235 -147t-288.5 -88.5t-319 -28q-261 0 -461 69t-376 191q-40 26 -15 68l103 173q14 21 33 27t40 -6q72 -48 116.5 -75t119 -63.5t140.5 -56t159.5 -33.5t197.5 -14q296 0 471.5 106.5t175.5 310.5q0 81 -34.5 146.5t-82.5 108.5t-136 83
t-155.5 63t-180.5 57q-98 29 -148.5 45.5t-138 50.5t-135.5 63t-110 76.5t-94 99t-55 123t-23 155.5q0 156 69 291.5t196.5 236.5t322 158.5t432.5 57.5q136 0 253 -19t213 -56t155 -67.5t136 -77.5q41 -24 14 -68l-111 -183q-29 -46 -77 -12q-47 33 -82.5 55t-100.5 54.5
t-126.5 52.5t-148 34.5t-178.5 14.5q-157 0 -279.5 -34.5t-198 -94.5t-114 -137.5t-38.5 -168.5z" />
    <glyph glyph-name="scaron" unicode="&#x161;" horiz-adv-x="1734" 
d="M1318 2483q28 30 68 30h235q32 0 38 -18.5t-19 -42.5l-484 -458q-26 -26 -67 -26h-158q-40 0 -60 26l-355 458q-19 24 -7.5 42.5t43.5 18.5h235q39 0 60 -30l196 -282zM583 1245q0 -53 32 -93.5t85.5 -67t123.5 -48.5t147.5 -43t154.5 -45t147 -59t123.5 -80t85.5 -114.5
t32 -156.5q0 -118 -42.5 -214.5t-114.5 -162.5t-170.5 -111t-207.5 -65.5t-227 -20.5q-177 0 -345.5 49.5t-309.5 143.5q-37 25 -14 66l95 158q11 21 30.5 29t40.5 -3q137 -87 256 -133t274 -46q85 0 154.5 13t125.5 40.5t87 74.5t31 111q0 54 -31.5 96.5t-84 71.5t-121 54
t-144.5 49t-152 50t-144.5 63.5t-121 84t-84 116t-31.5 155.5q0 176 95 303t264 191t394 64q303 0 549 -152q39 -23 14 -67l-99 -163q-26 -45 -66 -20q-211 138 -432 138q-176 0 -287.5 -70t-111.5 -186z" />
    <glyph glyph-name="uni0162" unicode="&#x162;" horiz-adv-x="2452" 
d="M2458 2440q20 0 32.5 -15t10.5 -35l-25 -180q-3 -20 -20 -35t-37 -15h-846l-297 -2110q-3 -20 -19.5 -35t-36.5 -15h-21l-107 -218q95 21 176.5 13t141 -37t93.5 -86t34 -133q0 -123 -71 -217t-180.5 -140t-236.5 -46q-184 0 -296 84q-36 27 -10 70l31 51q28 46 73 23
q62 -31 109.5 -46t103.5 -15q103 0 172 53.5t69 152.5q0 41 -16.5 69t-48 42t-69 20t-87 3t-93.5 -9.5t-97 -17.5q-33 -6 -43.5 5.5t4.5 44.5l165 334h-26q-20 0 -33 15t-10 35l297 2110h-846q-20 0 -32.5 15t-9.5 35l24 180q3 20 20 35t37 15h1125h896z" />
    <glyph glyph-name="uni0163" unicode="&#x163;" horiz-adv-x="1587" 
d="M1456 1728q22 0 34 -13.5t9 -35.5l-26 -181q-3 -23 -18.5 -36.5t-37.5 -13.5h-595l-112 -800q-15 -122 -7 -211.5t65.5 -141t167.5 -51.5q137 0 293 93q53 27 68 -19l49 -150q16 -44 -30 -71q-203 -119 -420 -132l-90 -183q95 21 176.5 13t141 -37t93.5 -86t34 -133
q0 -123 -71 -217t-180.5 -140t-236.5 -46q-184 0 -296 84q-36 27 -10 70l31 51q28 46 73 23q62 -31 109.5 -46t103.5 -15q103 0 172 53.5t69 152.5q0 41 -16.5 69t-48 42t-69 20t-87 3t-93.5 -9.5t-97 -17.5q-33 -6 -43.5 5.5t4.5 44.5l153 309q-406 73 -325 641l117 832
h-278q-22 0 -34 13.5t-9 36.5l25 181q3 22 19 35.5t38 13.5h279l47 337q5 35 56 50l211 59q36 10 47 -1t8 -37l-57 -408h594z" />
    <glyph glyph-name="Tcaron" unicode="&#x164;" horiz-adv-x="2452" 
d="M1341 2706l-355 458q-19 24 -7.5 42.5t43.5 18.5h235q39 0 60 -30l196 -282l275 282q28 30 68 30h235q32 0 38 -18.5t-19 -42.5l-484 -458q-26 -26 -67 -26h-158q-40 0 -60 26zM2458 2440q20 0 32.5 -15t10.5 -35l-25 -180q-3 -20 -20 -35t-37 -15h-846l-297 -2110
q-3 -20 -19.5 -35t-36.5 -15h-230q-20 0 -33 15t-10 35l297 2110h-846q-20 0 -32.5 15t-9.5 35l24 180q3 20 20 35t37 15h1125h896z" />
    <glyph glyph-name="tcaron" unicode="&#x165;" horiz-adv-x="1892" 
d="M1930 2601q63 0 112.5 -42.5t49.5 -135.5q0 -149 -127 -344.5t-284 -293.5q-19 -10 -34.5 -6t-23.5 17l-7 14q-19 33 14 61q186 160 186 303q0 29 -11 47.5t-37 42.5q-57 52 -57 123q0 86 66.5 150t152.5 64zM1456 1728q22 0 34 -13.5t9 -35.5l-26 -181
q-3 -23 -18.5 -36.5t-37.5 -13.5h-595l-112 -800q-15 -122 -7 -211.5t65.5 -141t167.5 -51.5q137 0 293 93q53 27 68 -19l49 -150q16 -44 -30 -71q-226 -133 -468 -133q-547 0 -455 652l117 832h-278q-22 0 -34 13.5t-9 36.5l25 181q3 22 19 35.5t38 13.5h279l47 337
q5 35 56 50l211 59q36 10 47 -1t8 -37l-57 -408h594z" />
    <glyph glyph-name="Tbar" unicode="&#x166;" horiz-adv-x="2452" 
d="M2458 2440q20 0 32.5 -15t10.5 -35l-25 -180q-3 -20 -20 -35t-37 -15h-846l-85 -600h475q22 0 33.5 -13.5t8.5 -36.5l-20 -148q-3 -22 -18.5 -36t-38.5 -14h-475l-177 -1262q-3 -20 -19.5 -35t-36.5 -15h-230q-20 0 -33 15t-10 35l177 1262h-485q-22 0 -34 13.5t-9 36.5
l20 148q3 22 19 36t38 14h486l85 600h-846q-20 0 -32.5 15t-9.5 35l24 180q3 20 20 35t37 15h1125h896z" />
    <glyph glyph-name="tbar" unicode="&#x167;" horiz-adv-x="1587" 
d="M1456 1728q22 0 34 -13.5t9 -35.5l-26 -181q-3 -23 -18.5 -36.5t-37.5 -13.5h-595l-42 -304h554q22 0 33.5 -13.5t8.5 -36.5l-12 -84q-3 -22 -18.5 -35.5t-37.5 -13.5h-554l-44 -313q-15 -122 -7 -211.5t65.5 -141t167.5 -51.5q137 0 293 93q53 27 68 -19l49 -150
q16 -44 -30 -71q-226 -133 -468 -133q-547 0 -455 652l49 345h-264q-22 0 -34 13.5t-9 35.5l12 84q3 22 18.5 36t38.5 14h263l43 304h-278q-22 0 -34 13.5t-9 36.5l25 181q3 22 19 35.5t38 13.5h279l47 337q5 35 56 50l211 59q36 10 47 -1t8 -37l-57 -408h594z" />
    <glyph glyph-name="Umacron" unicode="&#x16a;" horiz-adv-x="2590" 
d="M1017 2999q3 20 20.5 35t37.5 15h1053q20 0 32.5 -15t9.5 -35l-18 -129q-2 -20 -19 -35t-37 -15h-1053q-20 0 -33 15t-11 35zM2535 2440q20 0 32.5 -15t9.5 -35l-190 -1358q-30 -213 -107 -389t-189 -301.5t-257.5 -212t-313 -128t-353.5 -41.5t-341.5 42t-277 127
t-197.5 213t-104 300.5t3 389.5l190 1358q3 20 20.5 35t37.5 15h229q20 0 32.5 -15t9.5 -35l-181 -1294q-31 -198 -7 -356.5t95.5 -269.5t205.5 -170.5t325 -59.5t341.5 59t255 171.5t170 268.5t93.5 357l181 1294q3 20 20.5 35t37.5 15h229z" />
    <glyph glyph-name="umacron" unicode="&#x16b;" horiz-adv-x="2081" 
d="M663 2287q3 20 20.5 35t37.5 15h1053q20 0 32.5 -15t9.5 -35l-18 -129q-2 -20 -19 -35t-37 -15h-1053q-20 0 -33 15t-11 35zM1926 1728q22 0 34 -13.5t9 -35.5l-229 -1629q-4 -23 -19.5 -36.5t-37.5 -13.5h-213q-22 0 -34 13.5t-9 36.5l39 273q-124 -161 -311 -262
t-409 -101q-133 0 -236 32t-169.5 92t-106.5 144t-47 188.5t8 226.5l145 1036q3 22 19 35.5t38 13.5h213q22 0 34 -13.5t9 -35.5l-127 -911q-39 -272 49.5 -400t306.5 -128q246 0 433 169.5t225 438.5l116 831q3 22 18.5 35.5t37.5 13.5h214z" />
    <glyph glyph-name="Uring" unicode="&#x16e;" horiz-adv-x="2590" 
d="M1541 2620q-154 0 -255 104t-101 257q0 121 66 226.5t175 167.5t230 62q153 0 254 -104.5t101 -258.5q0 -121 -66 -226t-174.5 -166.5t-229.5 -61.5zM1567 2805q103 0 178 75t75 176q0 84 -52.5 141.5t-137.5 57.5q-104 0 -179 -76t-75 -178q0 -82 53.5 -139t137.5 -57z
M2535 2440q20 0 32.5 -15t9.5 -35l-190 -1358q-30 -213 -107 -389t-189 -301.5t-257.5 -212t-313 -128t-353.5 -41.5t-341.5 42t-277 127t-197.5 213t-104 300.5t3 389.5l190 1358q3 20 20.5 35t37.5 15h229q20 0 32.5 -15t9.5 -35l-181 -1294q-31 -198 -7 -356.5
t95.5 -269.5t205.5 -170.5t325 -59.5t341.5 59t255 171.5t170 268.5t93.5 357l181 1294q3 20 20.5 35t37.5 15h229z" />
    <glyph glyph-name="uring" unicode="&#x16f;" horiz-adv-x="2081" 
d="M1187 1908q-154 0 -255 104t-101 257q0 121 66 226.5t175 167.5t230 62q153 0 254 -104.5t101 -258.5q0 -121 -66 -226t-174.5 -166.5t-229.5 -61.5zM1213 2093q103 0 178 75t75 176q0 84 -52.5 141.5t-137.5 57.5q-104 0 -179 -76t-75 -178q0 -82 53.5 -139t137.5 -57z
M1926 1728q22 0 34 -13.5t9 -35.5l-229 -1629q-4 -23 -19.5 -36.5t-37.5 -13.5h-213q-22 0 -34 13.5t-9 36.5l39 273q-124 -161 -311 -262t-409 -101q-133 0 -236 32t-169.5 92t-106.5 144t-47 188.5t8 226.5l145 1036q3 22 19 35.5t38 13.5h213q22 0 34 -13.5t9 -35.5
l-127 -911q-39 -272 49.5 -400t306.5 -128q246 0 433 169.5t225 438.5l116 831q3 22 18.5 35.5t37.5 13.5h214z" />
    <glyph glyph-name="Uhungarumlaut" unicode="&#x170;" horiz-adv-x="2590" 
d="M1306 2677q-13 -18 -35 -23.5t-38 5.5l-101 65q-13 10 -16 30t8 40l467 725q12 17 34 23t37 -2l156 -98q14 -10 17.5 -29t-10.5 -39zM1850 2659q-20 -10 -39.5 -4t-27.5 23l-49 112q-5 16 3 36.5t26 32.5l735 455q19 10 39.5 4.5t28.5 -20.5l75 -170q7 -16 -1 -36.5
t-28 -29.5zM2535 2440q20 0 32.5 -15t9.5 -35l-190 -1358q-30 -213 -107 -389t-189 -301.5t-257.5 -212t-313 -128t-353.5 -41.5t-341.5 42t-277 127t-197.5 213t-104 300.5t3 389.5l190 1358q3 20 20.5 35t37.5 15h229q20 0 32.5 -15t9.5 -35l-181 -1294
q-31 -198 -7 -356.5t95.5 -269.5t205.5 -170.5t325 -59.5t341.5 59t255 171.5t170 268.5t93.5 357l181 1294q3 20 20.5 35t37.5 15h229z" />
    <glyph glyph-name="uhungarumlaut" unicode="&#x171;" horiz-adv-x="2081" 
d="M952 1965q-13 -18 -35 -23.5t-38 5.5l-101 65q-13 10 -16 30t8 40l467 725q12 17 34 23t37 -2l156 -98q14 -10 17.5 -29t-10.5 -39zM1496 1947q-20 -10 -39.5 -4t-27.5 23l-49 112q-5 16 3 36.5t26 32.5l735 455q19 10 39.5 4.5t28.5 -20.5l75 -170q7 -16 -1 -36.5
t-28 -29.5zM1926 1728q22 0 34 -13.5t9 -35.5l-229 -1629q-4 -23 -19.5 -36.5t-37.5 -13.5h-213q-22 0 -34 13.5t-9 36.5l39 273q-124 -161 -311 -262t-409 -101q-133 0 -236 32t-169.5 92t-106.5 144t-47 188.5t8 226.5l145 1036q3 22 19 35.5t38 13.5h213q22 0 34 -13.5
t9 -35.5l-127 -911q-39 -272 49.5 -400t306.5 -128q246 0 433 169.5t225 438.5l116 831q3 22 18.5 35.5t37.5 13.5h214z" />
    <glyph glyph-name="Uogonek" unicode="&#x172;" horiz-adv-x="2590" 
d="M2535 2440q20 0 32.5 -15t9.5 -35l-190 -1358q-31 -219 -110.5 -397.5t-198 -306t-267.5 -211.5t-325 -123q-369 -215 -369 -468q0 -82 49 -130t141 -48q69 0 123 19q29 8 43 -2t10 -38l-14 -98q-4 -39 -42 -55q-98 -38 -213 -38q-179 0 -267.5 86t-88.5 223
q0 144 77.5 278.5t210.5 236.5q-183 2 -335 45.5t-270.5 129t-192.5 213t-101.5 298.5t3.5 386l190 1358q3 20 20.5 35t37.5 15h229q20 0 32.5 -15t9.5 -35l-181 -1294q-31 -198 -7 -356.5t95.5 -269.5t205.5 -170.5t325 -59.5t341.5 59t255 171.5t170 268.5t93.5 357
l181 1294q3 20 20.5 35t37.5 15h229z" />
    <glyph glyph-name="uogonek" unicode="&#x173;" horiz-adv-x="2081" 
d="M1926 1728q22 0 34 -13.5t9 -35.5l-229 -1629q-4 -23 -19.5 -36.5t-37.5 -13.5h-45q-381 -218 -381 -475q0 -82 49 -130t141 -48q69 0 123 19q29 8 43 -2t10 -38l-14 -98q-4 -39 -42 -55q-98 -38 -213 -38q-179 0 -267.5 86t-88.5 223q0 180 120 343.5t309 262.5l39 273
q-124 -161 -311 -262t-409 -101q-133 0 -236 32t-169.5 92t-106.5 144t-47 188.5t8 226.5l145 1036q3 22 19 35.5t38 13.5h213q22 0 34 -13.5t9 -35.5l-127 -911q-39 -272 49.5 -400t306.5 -128q246 0 433 169.5t225 438.5l116 831q3 22 18.5 35.5t37.5 13.5h214z" />
    <glyph glyph-name="Wcircumflex" unicode="&#x174;" horiz-adv-x="3408" 
d="M1435 2680q-32 0 -38 18.5t19 42.5l485 458q26 26 66 26h158q39 0 60 -26l355 -458q19 -24 8 -42.5t-43 -18.5h-235q-40 0 -60 30l-196 282l-275 -282q-30 -30 -68 -30h-236zM3539 2440q28 0 35.5 -16t-6.5 -43l-1177 -2384q-19 -37 -62 -37h-64q-40 0 -51 37l-397 1672
l-858 -1672q-20 -37 -62 -37h-73q-42 0 -50 37l-508 2383q-6 28 6 44t39 16h261q42 0 52 -37l346 -1805l836 1653q18 37 62 37h63q42 0 51 -37l397 -1653l841 1805q18 37 62 37h257z" />
    <glyph glyph-name="wcircumflex" unicode="&#x175;" horiz-adv-x="2657" 
d="M952 1968q-32 0 -38 18.5t19 42.5l485 458q26 26 66 26h158q39 0 60 -26l355 -458q19 -24 8 -42.5t-43 -18.5h-235q-41 0 -60 30l-196 282l-275 -282q-30 -30 -68 -30h-236zM2702 1728q33 0 44.5 -25.5t-5.5 -57.5l-883 -1671q-9 -14 -30 -14h-31q-21 0 -27 14l-414 1084
l-720 -1083q-7 -11 -11.5 -13t-17.5 -2h-31q-21 0 -26 14l-415 1671q-8 32 11 57.5t53 25.5h232q30 0 37 -31l259 -1131l655 1002q13 22 32 22h34q19 0 26 -22l374 -1002l582 1131q17 31 46 31h226z" />
    <glyph glyph-name="Ycircumflex" unicode="&#x176;" horiz-adv-x="2359" 
d="M910 2680q-32 0 -38 18.5t19 42.5l485 458q26 26 66 26h158q39 0 60 -26l355 -458q19 -24 8 -42.5t-43 -18.5h-235q-41 0 -60 30l-196 282l-275 -282q-30 -30 -68 -30h-236zM2484 2440q28 0 39 -17t-7 -43l-1172 -1523l-113 -807q-2 -20 -19 -35t-37 -15h-230
q-20 0 -32.5 15t-10.5 35l112 797l-745 1534q-12 24 2.5 41.5t42.5 17.5h270q20 0 31 -8.5t20 -28.5l584 -1256l945 1256q29 37 63 37h257z" />
    <glyph glyph-name="ycircumflex" unicode="&#x177;" horiz-adv-x="1814" 
d="M519 1968q-32 0 -38 18.5t19 42.5l485 458q26 26 66 26h158q39 0 60 -26l355 -458q19 -24 8 -42.5t-43 -18.5h-235q-40 0 -60 30l-196 282l-275 -282q-30 -30 -68 -30h-236zM1855 1728q35 0 47.5 -27t-8.5 -62l-1000 -1637q-134 -220 -248 -369.5t-237 -257.5
t-251.5 -157.5t-276.5 -49.5q-28 0 -41 11t-9 39l22 157q5 45 54 49q121 10 231.5 87.5t241 244.5t313.5 465l-554 1418q-15 34 6 61.5t58 27.5h236q27 0 38 -28l414 -1151l691 1151q16 28 50 28h223z" />
    <glyph glyph-name="Ydieresis" unicode="&#x178;" horiz-adv-x="2359" 
d="M1082 2726q-73 0 -121 50t-48 122q0 88 68 153t156 65q73 0 121.5 -50t48.5 -123q0 -87 -68.5 -152t-156.5 -65zM1822 2726q-73 0 -121 50t-48 122q0 88 68 153t156 65q73 0 121.5 -50t48.5 -123q0 -87 -68.5 -152t-156.5 -65zM2484 2440q28 0 39 -17t-7 -43l-1172 -1523
l-113 -807q-2 -20 -19 -35t-37 -15h-230q-20 0 -32.5 15t-10.5 35l112 797l-745 1534q-12 24 2.5 41.5t42.5 17.5h270q20 0 31 -8.5t20 -28.5l584 -1256l945 1256q29 37 63 37h257z" />
    <glyph glyph-name="Zacute" unicode="&#x179;" horiz-adv-x="2491" 
d="M1401 2659q-20 -10 -39.5 -4t-27.5 23l-49 112q-5 15 3 35.5t26 33.5l736 455q19 9 39 4t28 -20l75 -170q7 -16 -0.5 -36.5t-27.5 -29.5zM114 0q-23 0 -34.5 14t-7.5 36l7 51q5 36 29 60l1837 1999h-1435q-20 0 -33 15t-10 35l26 180q2 20 19 35t37 15h1893
q22 0 34 -13.5t9 -36.5l-7 -51q-5 -36 -29 -60l-1837 -1999h1579q20 0 32.5 -15t10.5 -35l-25 -180q-4 -20 -21 -35t-37 -15h-2037z" />
    <glyph glyph-name="zacute" unicode="&#x17a;" horiz-adv-x="1947" 
d="M985 1947q-20 -10 -39.5 -4t-27.5 23l-49 112q-5 15 3 35.5t26 33.5l736 455q19 9 39 4t28 -20l75 -170q7 -16 -0.5 -36.5t-27.5 -29.5zM64 0q-22 0 -33.5 11.5t-9.5 31.5l1 9q6 34 29 60l1217 1336h-908q-19 0 -32 15t-11 35l25 181q4 20 21 34.5t37 14.5h1393
q23 0 35 -10t9 -30l-2 -12q-5 -33 -29 -60l-1221 -1336h1024q20 0 32.5 -15t10.5 -35l-25 -180q-3 -20 -20 -35t-37 -15h-1506z" />
    <glyph glyph-name="Zdotaccent" unicode="&#x17b;" horiz-adv-x="2491" 
d="M1546 2724q-77 0 -127.5 52.5t-50.5 129.5q0 91 71.5 159t163.5 68q77 0 127.5 -52.5t50.5 -129.5q0 -91 -71.5 -159t-163.5 -68zM114 0q-23 0 -34.5 14t-7.5 36l7 51q5 36 29 60l1837 1999h-1435q-20 0 -33 15t-10 35l26 180q2 20 19 35t37 15h1893q22 0 34 -13.5
t9 -36.5l-7 -51q-5 -36 -29 -60l-1837 -1999h1579q20 0 32.5 -15t10.5 -35l-25 -180q-4 -20 -21 -35t-37 -15h-2037z" />
    <glyph glyph-name="zdotaccent" unicode="&#x17c;" horiz-adv-x="1947" 
d="M1130 2012q-77 0 -127.5 52.5t-50.5 129.5q0 91 71.5 159t163.5 68q77 0 127.5 -52.5t50.5 -129.5q0 -91 -71.5 -159t-163.5 -68zM64 0q-22 0 -33.5 11.5t-9.5 31.5l1 9q6 34 29 60l1217 1336h-908q-19 0 -32 15t-11 35l25 181q4 20 21 34.5t37 14.5h1393q23 0 35 -10
t9 -30l-2 -12q-5 -33 -29 -60l-1221 -1336h1024q20 0 32.5 -15t10.5 -35l-25 -180q-3 -20 -20 -35t-37 -15h-1506z" />
    <glyph glyph-name="Zcaron" unicode="&#x17d;" horiz-adv-x="2491" 
d="M1847 3195q29 30 68 30h235q32 0 38 -18.5t-19 -42.5l-484 -458q-26 -26 -67 -26h-158q-40 0 -60 26l-355 458q-19 24 -7.5 42.5t43.5 18.5h235q39 0 60 -30l196 -282zM114 0q-23 0 -34.5 14t-7.5 36l7 51q5 36 29 60l1837 1999h-1435q-20 0 -33 15t-10 35l26 180
q2 20 19 35t37 15h1893q22 0 34 -13.5t9 -36.5l-7 -51q-5 -36 -29 -60l-1837 -1999h1579q20 0 32.5 -15t10.5 -35l-25 -180q-4 -20 -21 -35t-37 -15h-2037z" />
    <glyph glyph-name="zcaron" unicode="&#x17e;" horiz-adv-x="1947" 
d="M1431 2483q29 30 68 30h235q32 0 38 -18.5t-19 -42.5l-484 -458q-26 -26 -67 -26h-158q-40 0 -60 26l-355 458q-19 24 -7.5 42.5t43.5 18.5h235q39 0 60 -30l196 -282zM64 0q-22 0 -33.5 11.5t-9.5 31.5l1 9q6 34 29 60l1217 1336h-908q-19 0 -32 15t-11 35l25 181
q4 20 21 34.5t37 14.5h1393q23 0 35 -10t9 -30l-2 -12q-5 -33 -29 -60l-1221 -1336h1024q20 0 32.5 -15t10.5 -35l-25 -180q-3 -20 -20 -35t-37 -15h-1506z" />
    <glyph glyph-name="Scommaaccent" unicode="&#x218;" horiz-adv-x="2239" 
d="M713 1769q0 -82 45 -145t120.5 -104t174 -75t207 -65t217 -66t207 -86t174 -117t120.5 -167t45 -229q0 -150 -58 -275.5t-157.5 -212t-235 -147t-288.5 -88.5t-319 -28q-261 0 -461 69t-376 191q-40 26 -15 68l103 173q14 21 33 27t40 -6q72 -48 116.5 -75t119 -63.5
t140.5 -56t159.5 -33.5t197.5 -14q296 0 471.5 106.5t175.5 310.5q0 81 -34.5 146.5t-82.5 108.5t-136 83t-155.5 63t-180.5 57q-98 29 -148.5 45.5t-138 50.5t-135.5 63t-110 76.5t-94 99t-55 123t-23 155.5q0 156 69 291.5t196.5 236.5t322 158.5t432.5 57.5
q136 0 253 -19t213 -56t155 -67.5t136 -77.5q41 -24 14 -68l-111 -183q-29 -46 -77 -12q-47 33 -82.5 55t-100.5 54.5t-126.5 52.5t-148 34.5t-178.5 14.5q-157 0 -279.5 -34.5t-198 -94.5t-114 -137.5t-38.5 -168.5zM904 -223q62 0 111.5 -42t49.5 -133q0 -97 -58 -221.5
t-152.5 -237t-196.5 -175.5q-19 -10 -34 -6t-23 18l-8 13q-8 12 -4.5 29.5t18.5 30.5q186 158 186 303q0 28 -11 46.5t-38 42.5q-55 50 -55 122q0 85 65.5 147.5t149.5 62.5z" />
    <glyph glyph-name="scommaaccent" unicode="&#x219;" horiz-adv-x="1734" 
d="M583 1245q0 -53 32 -93.5t85.5 -67t123.5 -48.5t147.5 -43t154.5 -45t147 -59t123.5 -80t85.5 -114.5t32 -156.5q0 -118 -42.5 -214.5t-114.5 -162.5t-170.5 -111t-207.5 -65.5t-227 -20.5q-177 0 -345.5 49.5t-309.5 143.5q-37 25 -14 66l95 158q11 21 30.5 29t40.5 -3
q137 -87 256 -133t274 -46q85 0 154.5 13t125.5 40.5t87 74.5t31 111q0 54 -31.5 96.5t-84 71.5t-121 54t-144.5 49t-152 50t-144.5 63.5t-121 84t-84 116t-31.5 155.5q0 176 95 303t264 191t394 64q303 0 549 -152q39 -23 14 -67l-99 -163q-26 -45 -66 -20
q-211 138 -432 138q-176 0 -287.5 -70t-111.5 -186zM662 -223q62 0 111.5 -42t49.5 -133q0 -97 -58 -221.5t-152.5 -237t-196.5 -175.5q-19 -10 -34 -6t-23 18l-8 13q-8 12 -4.5 29.5t18.5 30.5q186 158 186 303q0 28 -11 46.5t-38 42.5q-55 50 -55 122q0 85 65.5 147.5
t149.5 62.5z" />
    <glyph glyph-name="uni021A" unicode="&#x21a;" horiz-adv-x="2452" 
d="M2458 2440q20 0 32.5 -15t10.5 -35l-25 -180q-3 -20 -20 -35t-37 -15h-846l-297 -2110q-3 -20 -19.5 -35t-36.5 -15h-230q-20 0 -33 15t-10 35l297 2110h-846q-20 0 -32.5 15t-9.5 35l24 180q3 20 20 35t37 15h1125h896zM1033 -223q62 0 111.5 -42t49.5 -133
q0 -97 -58 -221.5t-152.5 -237t-196.5 -175.5q-19 -10 -34 -6t-23 18l-8 13q-8 12 -4.5 29.5t18.5 30.5q186 158 186 303q0 28 -11 46.5t-38 42.5q-55 50 -55 122q0 85 65.5 147.5t149.5 62.5z" />
    <glyph glyph-name="uni021B" unicode="&#x21b;" horiz-adv-x="1587" 
d="M1456 1728q22 0 34 -13.5t9 -35.5l-26 -181q-3 -23 -18.5 -36.5t-37.5 -13.5h-595l-112 -800q-15 -122 -7 -211.5t65.5 -141t167.5 -51.5q137 0 293 93q53 27 68 -19l49 -150q16 -44 -30 -71q-226 -133 -468 -133q-547 0 -455 652l117 832h-278q-22 0 -34 13.5t-9 36.5
l25 181q3 22 19 35.5t38 13.5h279l47 337q5 35 56 50l211 59q36 10 47 -1t8 -37l-57 -408h594zM747 -223q62 0 111.5 -42t49.5 -133q0 -97 -58 -221.5t-152.5 -237t-196.5 -175.5q-19 -10 -34 -6t-23 18l-8 13q-8 12 -4.5 29.5t18.5 30.5q186 158 186 303q0 28 -11 46.5
t-38 42.5q-55 50 -55 122q0 85 65.5 147.5t149.5 62.5z" />
    <glyph glyph-name="circumflex" unicode="&#x2c6;" horiz-adv-x="1155" 
d="M814 1998l-196 282l-275 -282q-30 -30 -68 -30h-236q-32 0 -38 18.5t19 42.5l485 458q26 26 66 26h158q39 0 60 -26l355 -458q19 -24 8 -42.5t-43 -18.5h-235q-40 0 -60 30z" />
    <glyph glyph-name="caron" unicode="&#x2c7;" horiz-adv-x="1155" 
d="M813 2483q28 30 68 30h235q32 0 38 -18.5t-19 -42.5l-484 -458q-26 -26 -67 -26h-158q-40 0 -60 26l-355 458q-19 24 -7.5 42.5t43.5 18.5h235q39 0 60 -30l196 -282z" />
    <glyph glyph-name="breve" unicode="&#x2d8;" horiz-adv-x="2406" 
d="M1177 2529q40 0 40 -42q0 -147 -91.5 -274.5t-246.5 -202t-333 -74.5q-229 0 -376.5 132.5t-147.5 343.5q0 65 14.5 91t45.5 26h135q50 0 50 -58q0 -91 45 -154t114 -90t157 -27q91 0 169.5 29t141 96t85.5 164q5 19 23 29.5t39 10.5h136z" />
    <glyph glyph-name="dotaccent" unicode="&#x2d9;" horiz-adv-x="863" 
d="M404 2012q-77 0 -127.5 52.5t-50.5 129.5q0 91 71.5 159t163.5 68q77 0 127.5 -52.5t50.5 -129.5q0 -91 -71.5 -159t-163.5 -68z" />
    <glyph glyph-name="ring" unicode="&#x2da;" horiz-adv-x="872" 
d="M379 1908q-154 0 -255 104t-101 257q0 121 66 226.5t175 167.5t230 62q153 0 254 -104.5t101 -258.5q0 -121 -66 -226t-174.5 -166.5t-229.5 -61.5zM405 2093q103 0 178 75t75 176q0 84 -52.5 141.5t-137.5 57.5q-104 0 -179 -76t-75 -178q0 -82 53.5 -139t137.5 -57z
" />
    <glyph glyph-name="ogonek" unicode="&#x2db;" horiz-adv-x="2036" 
d="M367 -864q-179 0 -267.5 86t-88.5 223q0 186 128 354.5t327 264.5l189 -61q-385 -218 -385 -477q0 -82 49 -130t141 -48q69 0 123 19q29 8 43 -2t10 -38l-14 -98q-4 -39 -42 -55q-98 -38 -213 -38z" />
    <glyph glyph-name="tilde" unicode="&#x2dc;" horiz-adv-x="2187" 
d="M1316 2465q23 0 32.5 -22t-0.5 -61q-39 -190 -151 -285t-256 -95q-77 0 -136.5 24.5t-96.5 59t-69.5 69.5t-73.5 59.5t-90 24.5q-156 0 -199 -187q-11 -50 -60 -50h-83q-23 0 -33.5 14t-6.5 39q19 105 60 185t97 128.5t120.5 72.5t136.5 24q77 0 137 -24t97 -58.5
t69.5 -69t73.5 -58.5t90 -24q156 0 198 184q12 50 60 50h84z" />
    <glyph glyph-name="hungarumlaut" unicode="&#x2dd;" horiz-adv-x="1560" 
d="M212 1965q-13 -18 -35 -23.5t-38 5.5l-101 65q-13 10 -16 30t8 40l467 725q12 17 34 23t37 -2l156 -98q14 -10 17.5 -29t-10.5 -39zM756 1947q-20 -10 -39.5 -4t-27.5 23l-49 112q-5 16 3 36.5t26 32.5l735 455q19 10 39.5 4.5t28.5 -20.5l75 -170q7 -16 -1 -36.5
t-28 -29.5z" />
    <glyph glyph-name="uni0326" unicode="&#x326;" horiz-adv-x="0" 
d="M-1461 -223q62 0 111.5 -42t49.5 -133q0 -97 -58 -221.5t-152.5 -237t-196.5 -175.5q-19 -10 -34 -6t-23 18l-8 13q-8 12 -4.5 29.5t18.5 30.5q186 158 186 303q0 28 -11 46.5t-38 42.5q-55 50 -55 122q0 85 65.5 147.5t149.5 62.5z" />
    <glyph glyph-name="uni0335" unicode="&#x335;" horiz-adv-x="0" 
 />
    <glyph glyph-name="uni0336" unicode="&#x336;" horiz-adv-x="0" 
d="M-2149 1297q-22 0 -34 13.5t-9 36.5l20 148q3 22 19 36t38 14h1290q22 0 33.5 -13.5t8.5 -36.5l-20 -148q-3 -22 -18.5 -36t-38.5 -14h-1289z" />
    <glyph glyph-name="uni0337" unicode="&#x337;" horiz-adv-x="0" 
 />
    <glyph glyph-name="Wgrave" unicode="&#x1e80;" horiz-adv-x="3408" 
d="M1386 3062q-18 9 -20 30.5t9 35.5l123 170q12 15 33.5 20t38.5 -4l607 -455q15 -13 17.5 -33.5t-8.5 -35.5l-78 -112q-13 -17 -35 -23t-38 4zM3539 2440q28 0 35.5 -16t-6.5 -43l-1177 -2384q-19 -37 -62 -37h-64q-40 0 -51 37l-397 1672l-858 -1672q-20 -37 -62 -37h-73
q-42 0 -50 37l-508 2383q-6 28 6 44t39 16h261q42 0 52 -37l346 -1805l836 1653q18 37 62 37h63q42 0 51 -37l397 -1653l841 1805q18 37 62 37h257z" />
    <glyph glyph-name="wgrave" unicode="&#x1e81;" horiz-adv-x="2657" 
d="M903 2350q-18 9 -20 30.5t9 35.5l123 170q12 15 33.5 20t38.5 -4l607 -455q15 -13 17.5 -33.5t-8.5 -35.5l-78 -112q-13 -17 -35 -23t-38 4zM2702 1728q33 0 44.5 -25.5t-5.5 -57.5l-883 -1671q-9 -14 -30 -14h-31q-21 0 -27 14l-414 1084l-720 -1083q-7 -11 -11.5 -13
t-17.5 -2h-31q-21 0 -26 14l-415 1671q-8 32 11 57.5t53 25.5h232q30 0 37 -31l259 -1131l655 1002q13 22 32 22h34q19 0 26 -22l374 -1002l582 1131q17 31 46 31h226z" />
    <glyph glyph-name="Wacute" unicode="&#x1e82;" horiz-adv-x="3408" 
d="M1765 2678l-49 112q-5 15 3 35.5t26 33.5l736 455q19 9 39 4t28 -20l75 -170q7 -16 -0.5 -36.5t-27.5 -29.5l-763 -403q-20 -10 -39.5 -4t-27.5 23zM3539 2440q28 0 35.5 -16t-6.5 -43l-1177 -2384q-19 -37 -62 -37h-64q-40 0 -51 37l-397 1672l-858 -1672
q-20 -37 -62 -37h-73q-42 0 -50 37l-508 2383q-6 28 6 44t39 16h261q42 0 52 -37l346 -1805l836 1653q18 37 62 37h63q42 0 51 -37l397 -1653l841 1805q18 37 62 37h257z" />
    <glyph glyph-name="wacute" unicode="&#x1e83;" horiz-adv-x="2657" 
d="M1282 1966l-49 112q-5 15 3 35.5t26 33.5l736 455q19 9 39 4t28 -20l75 -170q7 -16 -0.5 -36.5t-27.5 -29.5l-763 -403q-20 -10 -39.5 -4t-27.5 23zM2702 1728q33 0 44.5 -25.5t-5.5 -57.5l-883 -1671q-9 -14 -30 -14h-31q-21 0 -27 14l-414 1084l-720 -1083
q-7 -11 -11.5 -13t-17.5 -2h-31q-21 0 -26 14l-415 1671q-8 32 11 57.5t53 25.5h232q30 0 37 -31l259 -1131l655 1002q13 22 32 22h34q19 0 26 -22l374 -1002l582 1131q17 31 46 31h226z" />
    <glyph glyph-name="Wdieresis" unicode="&#x1e84;" horiz-adv-x="3408" 
d="M1607 2726q-73 0 -121 50t-48 122q0 88 68 153t156 65q73 0 121.5 -50t48.5 -123q0 -87 -68.5 -152t-156.5 -65zM2347 2726q-73 0 -121 50t-48 122q0 88 68 153t156 65q73 0 121.5 -50t48.5 -123q0 -87 -68.5 -152t-156.5 -65zM3539 2440q28 0 35.5 -16t-6.5 -43
l-1177 -2384q-19 -37 -62 -37h-64q-40 0 -51 37l-397 1672l-858 -1672q-20 -37 -62 -37h-73q-42 0 -50 37l-508 2383q-6 28 6 44t39 16h261q42 0 52 -37l346 -1805l836 1653q18 37 62 37h63q42 0 51 -37l397 -1653l841 1805q18 37 62 37h257z" />
    <glyph glyph-name="wdieresis" unicode="&#x1e85;" horiz-adv-x="2657" 
d="M1124 2014q-73 0 -121 50t-48 122q0 88 68 153t156 65q73 0 121.5 -50t48.5 -123q0 -87 -68.5 -152t-156.5 -65zM1864 2014q-73 0 -121 50t-48 122q0 88 68 153t156 65q73 0 121.5 -50t48.5 -123q0 -87 -68.5 -152t-156.5 -65zM2702 1728q33 0 44.5 -25.5t-5.5 -57.5
l-883 -1671q-9 -14 -30 -14h-31q-21 0 -27 14l-414 1084l-720 -1083q-7 -11 -11.5 -13t-17.5 -2h-31q-21 0 -26 14l-415 1671q-8 32 11 57.5t53 25.5h232q30 0 37 -31l259 -1131l655 1002q13 22 32 22h34q19 0 26 -22l374 -1002l582 1131q17 31 46 31h226z" />
    <glyph glyph-name="Ygrave" unicode="&#x1ef2;" horiz-adv-x="2359" 
d="M861 3062q-18 9 -20 30.5t9 35.5l123 170q12 15 33.5 20t38.5 -4l607 -455q15 -13 17.5 -33.5t-8.5 -35.5l-78 -112q-13 -17 -35 -23t-38 4zM2484 2440q28 0 39 -17t-7 -43l-1172 -1523l-113 -807q-2 -20 -19 -35t-37 -15h-230q-20 0 -32.5 15t-10.5 35l112 797
l-745 1534q-12 24 2.5 41.5t42.5 17.5h270q20 0 31 -8.5t20 -28.5l584 -1256l945 1256q29 37 63 37h257z" />
    <glyph glyph-name="ygrave" unicode="&#x1ef3;" horiz-adv-x="1814" 
d="M470 2350q-18 9 -20 30.5t9 35.5l123 170q12 15 33.5 20t38.5 -4l607 -455q15 -13 17.5 -33.5t-8.5 -35.5l-78 -112q-13 -17 -35 -23t-38 4zM1855 1728q35 0 47.5 -27t-8.5 -62l-1000 -1637q-134 -220 -248 -369.5t-237 -257.5t-251.5 -157.5t-276.5 -49.5q-28 0 -41 11
t-9 39l22 157q5 45 54 49q121 10 231.5 87.5t241 244.5t313.5 465l-554 1418q-15 34 6 61.5t58 27.5h236q27 0 38 -28l414 -1151l691 1151q16 28 50 28h223z" />
    <glyph glyph-name="endash" unicode="&#x2013;" horiz-adv-x="2010" 
d="M112 857q-23 0 -35 13.5t-9 35.5l21 149q3 22 19 36t38 14h1753q22 0 33.5 -14t8.5 -36l-20 -149q-3 -22 -19 -35.5t-38 -13.5h-1752z" />
    <glyph glyph-name="emdash" unicode="&#x2014;" horiz-adv-x="3210" 
d="M112 857q-23 0 -35 13.5t-9 35.5l21 149q3 22 19 36t38 14h2953q22 0 33.5 -14t8.5 -36l-20 -149q-3 -22 -19 -35.5t-38 -13.5h-2952z" />
    <glyph glyph-name="quoteleft" unicode="&#x2018;" horiz-adv-x="842" 
d="M556 1766q-30 0 -58.5 9.5t-56 30t-44 60t-16.5 92.5q0 160 137 371t306 317q20 10 37 6t26 -18l8 -15q19 -35 -15 -66q-201 -171 -201 -327q0 -31 11.5 -50.5t40.5 -46.5q61 -55 61 -132q0 -94 -71.5 -162.5t-164.5 -68.5z" />
    <glyph glyph-name="quoteright" unicode="&#x2019;" horiz-adv-x="842" 
d="M656 2597q30 0 58.5 -9.5t56 -30t44 -60t16.5 -92.5q0 -160 -137 -371t-306 -317q-20 -10 -37 -6t-26 18l-8 15q-19 35 15 66q201 171 201 327q0 31 -11.5 50.5t-40.5 46.5q-61 55 -61 132q0 94 71.5 162.5t164.5 68.5z" />
    <glyph glyph-name="quotesinglbase" unicode="&#x201a;" horiz-adv-x="843" 
d="M344 373q30 0 58.5 -9.5t56 -30t44 -60t16.5 -92.5q0 -160 -137 -371t-306 -317q-20 -10 -37 -6t-26 18l-8 15q-19 35 15 66q201 171 201 327q0 31 -11.5 50.5t-40.5 46.5q-61 55 -61 132q0 94 71.5 162.5t164.5 68.5z" />
    <glyph glyph-name="quotedblleft" unicode="&#x201c;" horiz-adv-x="1384" 
d="M556 1766q-30 0 -58.5 9.5t-56 30t-44 60t-16.5 92.5q0 160 137 371t306 317q20 10 37 6t26 -18l8 -15q19 -35 -15 -66q-201 -171 -201 -327q0 -31 11.5 -50.5t40.5 -46.5q61 -55 61 -132q0 -94 -71.5 -162.5t-164.5 -68.5zM1098 1766q-30 0 -58.5 9.5t-56 30t-44 60
t-16.5 92.5q0 160 137 371t306 317q20 10 37 6t26 -18l8 -15q19 -35 -15 -66q-201 -171 -201 -327q0 -31 11.5 -50.5t40.5 -46.5q61 -55 61 -132q0 -94 -71.5 -162.5t-164.5 -68.5z" />
    <glyph glyph-name="quotedblright" unicode="&#x201d;" horiz-adv-x="1384" 
d="M656 2597q30 0 58.5 -9.5t56 -30t44 -60t16.5 -92.5q0 -160 -137 -371t-306 -317q-20 -10 -37 -6t-26 18l-8 15q-19 35 15 66q201 171 201 327q0 31 -11.5 50.5t-40.5 46.5q-61 55 -61 132q0 94 71.5 162.5t164.5 68.5zM1198 2597q30 0 58.5 -9.5t56 -30t44 -60
t16.5 -92.5q0 -160 -137 -371t-306 -317q-20 -10 -37 -6t-26 18l-8 15q-19 35 15 66q201 171 201 327q0 31 -11.5 50.5t-40.5 46.5q-61 55 -61 132q0 94 71.5 162.5t164.5 68.5z" />
    <glyph glyph-name="quotedblbase" unicode="&#x201e;" horiz-adv-x="1385" 
d="M344 373q30 0 58.5 -9.5t56 -30t44 -60t16.5 -92.5q0 -160 -137 -371t-306 -317q-20 -10 -37 -6t-26 18l-8 15q-19 35 15 66q201 171 201 327q0 31 -11.5 50.5t-40.5 46.5q-61 55 -61 132q0 94 71.5 162.5t164.5 68.5zM886 373q30 0 58.5 -9.5t56 -30t44 -60t16.5 -92.5
q0 -160 -137 -371t-306 -317q-20 -10 -37 -6t-26 18l-8 15q-19 35 15 66q201 171 201 327q0 31 -11.5 50.5t-40.5 46.5q-61 55 -61 132q0 94 71.5 162.5t164.5 68.5z" />
    <glyph glyph-name="dagger" unicode="&#x2020;" horiz-adv-x="1745" 
d="M1691 2014q22 0 33.5 -14t8.5 -36l-18 -133q-3 -22 -18.5 -35.5t-37.5 -13.5h-525l-271 -1932q-3 -22 -19 -36t-39 -14h-165q-22 0 -33.5 13.5t-8.5 36.5l272 1932h-525q-22 0 -34 13.5t-9 35.5l19 133q3 22 18.5 36t37.5 14h525l98 696q3 23 18.5 36.5t37.5 13.5h165
q23 0 35 -14t8 -36l-98 -696h525z" />
    <glyph glyph-name="daggerdbl" unicode="&#x2021;" horiz-adv-x="1745" 
d="M1691 2014q22 0 33.5 -14t8.5 -36l-18 -133q-3 -22 -19 -35.5t-38 -13.5h-524l-141 -1004h524q22 0 33.5 -13.5t8.5 -35.5l-18 -133q-3 -22 -18.5 -36t-37.5 -14h-524l-98 -696q-4 -23 -20 -36.5t-38 -13.5h-165q-22 0 -33.5 13.5t-8.5 36.5l98 696h-525q-22 0 -34 14
t-9 36l19 133q3 22 19 35.5t38 13.5h524l142 1004h-525q-22 0 -34 13.5t-9 35.5l18 133q3 22 19 36t38 14h525l98 696q3 23 18.5 36.5t37.5 13.5h165q23 0 35 -14t8 -36l-98 -696h525z" />
    <glyph glyph-name="bullet" unicode="&#x2022;" horiz-adv-x="1111" 
d="M543 556q-137 0 -228 95t-91 232q0 107 59.5 202t157 150.5t205.5 55.5q138 0 229 -94.5t91 -232.5q0 -107 -59.5 -202t-157.5 -150.5t-206 -55.5z" />
    <glyph glyph-name="ellipsis" unicode="&#x2026;" horiz-adv-x="2300" 
d="M303 -36q-77 0 -127.5 52.5t-50.5 129.5q0 91 71.5 159t163.5 68q77 0 127.5 -52.5t50.5 -129.5q0 -91 -71.5 -159t-163.5 -68zM1024 -36q-77 0 -127.5 52.5t-50.5 129.5q0 91 71.5 159t163.5 68q77 0 127.5 -52.5t50.5 -129.5q0 -91 -71.5 -159t-163.5 -68zM1745 -36
q-77 0 -127.5 52.5t-50.5 129.5q0 91 71.5 159t163.5 68q77 0 127.5 -52.5t50.5 -129.5q0 -91 -71.5 -159t-163.5 -68z" />
    <glyph glyph-name="perthousand" unicode="&#x2030;" horiz-adv-x="4815" 
d="M2645 2494q17 -9 21 -29t-7 -37l-1550 -2534q-11 -18 -32 -25.5t-38 1.5l-125 63q-17 8 -21.5 28t6.5 38l1549 2534q11 18 32.5 25t38.5 -1zM1513 1705q-25 -175 -92 -321t-161.5 -244t-212.5 -152t-245 -54t-230 54t-170.5 152t-94 244t-1.5 321q24 175 91.5 321
t162.5 244t213 152t245 54q260 0 401.5 -210.5t93.5 -560.5zM837 1189q161 0 262 138.5t134 377.5q34 239 -28 377.5t-223 138.5q-158 0 -260.5 -139t-135.5 -377t29.5 -377t221.5 -139zM2750 1506q127 0 229.5 -54t170 -152t94 -244t1.5 -321t-92 -321t-161.5 -244
t-212.5 -152t-245 -54t-230 54t-170.5 152t-94 244t-1.5 321t92 321t162 244t213 152t245 54zM4114 1506q101 0 188 -34.5t152 -100t107.5 -159.5t54.5 -214t-7 -263q-25 -175 -92 -321t-161.5 -244t-212.5 -152t-245 -54t-230 54t-170.5 152t-94 244t-1.5 321t92.5 321
t162 244t212.5 152t245 54zM2569 219q161 0 262 138.5t134 377.5q34 239 -28 377.5t-223 138.5q-158 0 -260.5 -139t-135.5 -377t29.5 -377t221.5 -139zM3933 219q161 0 262 138.5t134 377.5q20 156 4 270.5t-81 180t-173 65.5q-159 0 -261 -139t-136 -377q-33 -238 30 -377
t221 -139z" />
    <glyph glyph-name="guilsinglleft" unicode="&#x2039;" horiz-adv-x="1218" 
d="M1015 1525q33 22 60 7.5t22 -51.5l-19 -129q-3 -19 -19 -30l-595 -425l476 -426q12 -12 10 -30l-18 -129q-5 -37 -36 -51.5t-59 7.5l-625 515q-14 12 -11 29l12 85l12 84q3 19 19 29z" />
    <glyph glyph-name="guilsinglright" unicode="&#x203a;" horiz-adv-x="1218" 
d="M1015 1010q14 -10 11 -29l-11 -84l-13 -85q-1 -16 -19 -29l-771 -515q-33 -22 -60 -7.5t-22 51.5l19 129q1 17 19 30l595 426h1l-476 425q-14 12 -11 30l18 129q5 37 36 51.5t58 -7.5z" />
    <glyph glyph-name="fraction" unicode="&#x2044;" horiz-adv-x="1468" 
d="M1561 2448q11 18 31.5 25.5t37.5 -1.5l105 -52q16 -8 21 -28t-6 -38l-1607 -2647q-11 -18 -32 -25.5t-38 0.5l-104 52q-17 9 -21.5 29t6.5 37z" />
    <glyph glyph-name="Euro" unicode="&#x20ac;" horiz-adv-x="2929" 
d="M2892 1840q16 -48 -34 -69l-189 -85q-48 -21 -65 27q-178 483 -684 483q-305 0 -556 -162.5t-382 -439.5h1095l-172 -208h-997q-37 -150 -37 -308v-31h1025l-169 -208h-830q63 -274 262 -434.5t487 -160.5q509 0 819 483q31 48 74 27l165 -85q44 -22 13 -69
q-405 -636 -1110 -636q-194 0 -371.5 61t-318.5 171.5t-239.5 276.5t-133.5 366h-381l29 208h333v11q0 169 37 328h-322l29 208h359q83 202 227 369.5t321 279t378.5 172.5t404.5 61q706 0 933 -636z" />
    <glyph glyph-name="trademark" unicode="&#x2122;" horiz-adv-x="3501" 
d="M3468 2467q30 0 27 -31l-207 -1478q-7 -31 -36 -31h-142q-14 0 -21.5 8.5t-5.5 22.5l147 1049l-691 -832q-25 -29 -42 0l-458 832l-147 -1049q-5 -31 -36 -31h-142q-14 0 -21.5 8.5t-4.5 22.5l207 1478q1 13 11 22t24 9h46q24 0 36 -21l550 -966l809 966q18 21 41 21h56z
M1673 2442q12 0 20 -9t7 -22l-16 -112q-1 -13 -11.5 -22t-23.5 -9h-525l-185 -1310q-1 -13 -11.5 -22t-23.5 -9h-142q-12 0 -20 9t-7 22l184 1310h-525q-12 0 -19.5 9t-6.5 22l15 112q1 13 12 22t23 9h699h556z" />
    <glyph glyph-name="oneeighth" unicode="&#x215b;" horiz-adv-x="3993" 
d="M2635 2500q16 -8 21 -28t-6 -38l-1607 -2647q-11 -18 -32 -25.5t-38 0.5l-104 52q-17 9 -21.5 29t6.5 37l1607 2648q11 18 31.5 25.5t37.5 -1.5zM877 826q-2 -13 -13.5 -23t-24.5 -10h-151q-13 0 -21 10t-7 23l190 1350l-303 -144q-14 -6 -27 -1.5t-17 17.5l-33 103
q-4 12 2 24.5t19 17.5l402 195q19 9 42 9h130q13 0 21 -10t7 -23zM3183 851q122 -46 199 -141t77 -229q0 -219 -183 -362t-480 -143q-250 0 -392.5 112.5t-142.5 292.5q0 89 32.5 167t89.5 135t124.5 98.5t147.5 69.5q-104 39 -170.5 120t-66.5 199q0 91 43.5 174t121 146
t193.5 100.5t253 37.5q231 0 362 -107t131 -266q0 -78 -28 -145t-77 -116t-107.5 -84.5t-126.5 -58.5zM2628 1169q0 -101 84 -167t219 -66q159 0 267.5 82t108.5 204q0 101 -83.5 168t-219.5 67q-160 0 -268 -84t-108 -204zM2822 160q191 0 307.5 93t116.5 239
q0 118 -90.5 190t-249.5 72q-191 0 -307 -92.5t-116 -238.5q0 -119 90 -191t249 -72z" />
    <glyph glyph-name="threeeighths" unicode="&#x215c;" horiz-adv-x="3965" 
d="M2915 2500q16 -8 21 -28t-6 -38l-1607 -2647q-11 -18 -32 -25.5t-38 0.5l-104 52q-17 9 -21.5 29t6.5 37l1607 2648q11 18 31.5 25.5t37.5 -1.5zM1439 1274q0 -228 -181 -366.5t-483 -138.5q-108 0 -197 19t-156.5 56t-115.5 77t-96 94q-9 9 -13 14.5t-4 13.5t8 16
l102 104q17 17 26.5 19t24.5 -11q38 -41 65 -66.5t70 -57.5t85 -50.5t101 -31t126 -12.5q186 0 303 80t117 221q0 42 -12.5 78.5t-45 73t-83 63.5t-133 44.5t-189.5 19.5q-15 1 -23.5 10.5t-6.5 23.5l12 86q1 14 12.5 23.5t26.5 10.5q115 2 205 23t146.5 52.5t93.5 75
t51.5 87t14.5 91.5q0 105 -75 163t-220 58q-127 0 -227 -44t-223 -134q-21 -12 -29.5 -10t-19.5 18l-64 94q-12 17 21 44q277 216 591 216q121 0 212.5 -29.5t144.5 -81t79 -114.5t26 -137q0 -146 -96.5 -261.5t-281.5 -178.5q311 -80 311 -345zM3464 851q122 -46 199 -141
t77 -229q0 -219 -183 -362t-480 -143q-250 0 -392.5 112.5t-142.5 292.5q0 89 32.5 167t89.5 135t124.5 98.5t147.5 69.5q-104 39 -170.5 120t-66.5 199q0 91 43.5 174t121 146t193.5 100.5t253 37.5q231 0 362 -107t131 -266q0 -78 -28 -145t-77 -116t-107.5 -84.5
t-126.5 -58.5zM2909 1169q0 -101 84 -167t219 -66q159 0 267.5 82t108.5 204q0 101 -83.5 168t-219.5 67q-160 0 -268 -84t-108 -204zM3103 160q191 0 307.5 93t116.5 239q0 118 -90.5 190t-249.5 72q-191 0 -307 -92.5t-116 -238.5q0 -119 90 -191t249 -72z" />
    <glyph glyph-name="fiveeighths" unicode="&#x215d;" horiz-adv-x="3985" 
d="M2915 2500q16 -8 21 -28t-6 -38l-1607 -2647q-11 -18 -32 -25.5t-38 0.5l-104 52q-17 9 -21.5 29t6.5 37l1607 2648q11 18 31.5 25.5t37.5 -1.5zM1465 1352q0 -262 -188 -422.5t-493 -160.5q-196 0 -323.5 60t-232.5 172q-27 27 -9 44l102 105q17 17 26.5 19t24.5 -11
q47 -49 86 -81t92.5 -63t118 -46t142.5 -15q186 0 310.5 100t124.5 270q0 129 -92 212t-255 83q-210 0 -389 -99q-12 -7 -26 -2l-98 44q-20 8 -15 32l196 771q5 33 38 33h880q13 0 21 -10t7 -23l-17 -118q-1 -13 -12 -23t-25 -10h-732l-126 -494q157 69 358 69
q108 -3 198.5 -31t160 -80t108.5 -135t39 -190zM3464 851q122 -46 199 -141t77 -229q0 -219 -183 -362t-480 -143q-250 0 -392.5 112.5t-142.5 292.5q0 89 32.5 167t89.5 135t124.5 98.5t147.5 69.5q-104 39 -170.5 120t-66.5 199q0 91 43.5 174t121 146t193.5 100.5
t253 37.5q231 0 362 -107t131 -266q0 -78 -28 -145t-77 -116t-107.5 -84.5t-126.5 -58.5zM2909 1169q0 -101 84 -167t219 -66q159 0 267.5 82t108.5 204q0 101 -83.5 168t-219.5 67q-160 0 -268 -84t-108 -204zM3103 160q191 0 307.5 93t116.5 239q0 118 -90.5 190
t-249.5 72q-191 0 -307 -92.5t-116 -238.5q0 -119 90 -191t249 -72z" />
    <glyph glyph-name="seveneighths" unicode="&#x215e;" horiz-adv-x="3784" 
d="M2696 2500q16 -8 21 -28t-6 -38l-1607 -2647q-11 -18 -32 -25.5t-38 0.5l-104 52q-17 9 -21.5 29t6.5 37l1607 2648q11 18 31.5 25.5t37.5 -1.5zM1560 2331q-3 -22 -19 -40l-914 -1482q-11 -16 -28 -16h-140q-25 0 -33 18.5t6 40.5l839 1361h-913q-13 0 -21 10t-7 23
l16 118q2 14 13.5 23.5t24.5 9.5h1152q15 0 22.5 -9t5.5 -24zM3244 851q122 -46 199 -141t77 -229q0 -219 -183 -362t-480 -143q-250 0 -392.5 112.5t-142.5 292.5q0 89 32.5 167t89.5 135t124.5 98.5t147.5 69.5q-104 39 -170.5 120t-66.5 199q0 91 43.5 174t121 146
t193.5 100.5t253 37.5q231 0 362 -107t131 -266q0 -78 -28 -145t-77 -116t-107.5 -84.5t-126.5 -58.5zM2689 1169q0 -101 84 -167t219 -66q159 0 267.5 82t108.5 204q0 101 -83.5 168t-219.5 67q-160 0 -268 -84t-108 -204zM2883 160q191 0 307.5 93t116.5 239
q0 118 -90.5 190t-249.5 72q-191 0 -307 -92.5t-116 -238.5q0 -119 90 -191t249 -72z" />
    <glyph glyph-name="partialdiff" unicode="&#x2202;" horiz-adv-x="2080" 
d="M927 2585q171 -37 313.5 -103t244 -148t181 -185.5t129 -209.5t82 -226.5t46 -229t15 -224.5t-5 -206.5t-19.5 -180.5q-23 -164 -88.5 -309t-161.5 -253.5t-215 -187t-253.5 -118.5t-273.5 -40q-173 0 -324 64.5t-256 176.5t-154.5 276t-23.5 351q26 188 115 351
t218.5 275.5t293 177t335.5 64.5q320 0 486 -212q-96 691 -784 875q-26 8 -34 29.5t6 46.5l69 119q22 35 59 27zM961 244q152 0 287 71.5t228.5 207t118.5 309.5q18 131 -10 242t-92 186.5t-159 117.5t-209 42q-233 0 -414.5 -163t-218.5 -425t99 -425t370 -163z" />
    <glyph glyph-name="emptyset" unicode="&#x2205;" horiz-adv-x="2786" 
d="M2754 2082q14 -19 9.5 -40t-25.5 -40l-383 -334q177 -287 127 -640q-24 -173 -102 -335.5t-195.5 -293t-263 -229.5t-314.5 -152.5t-340 -53.5q-178 0 -335.5 58t-280.5 164l-384 -334q-51 -42 -81 -5l-108 127q-14 18 -9 40t26 40l383 334q-177 287 -127 640
q24 173 102 335.5t195.5 293t263 229.5t314.5 152.5t340 53.5q178 0 335.5 -58t280.5 -164l384 334q49 43 81 5zM649 1028q-36 -249 57 -443l1259 1096q-177 147 -436 147q-215 0 -404.5 -102t-316.5 -285.5t-159 -412.5zM2184 1028q34 247 -57 443l-1259 -1096
q177 -146 436 -146q161 0 311 60t267 164.5t197.5 253.5t104.5 321z" />
    <glyph glyph-name="product" unicode="&#x220f;" horiz-adv-x="2105" 
d="M2121 2940q20 0 33 -15t10 -35l-467 -3321q-2 -19 -19.5 -34t-37.5 -15h-149q-19 0 -32 14.5t-11 34.5l441 3139h-1155l-442 -3139q-2 -20 -19 -34.5t-37 -14.5h-149q-20 0 -33 14.5t-10 34.5l467 3321q3 20 19.5 35t36.5 15h1467h87z" />
    <glyph glyph-name="summation" unicode="&#x2211;" horiz-adv-x="2078" 
d="M2158 2758q-4 -22 -19.5 -36t-37.5 -14h-1340l662 -1456q9 -21 -6 -45l-1071 -1455h1339q22 0 34 -13.5t9 -36.5l-19 -133q-3 -22 -18.5 -35.5t-37.5 -13.5h-1585q-22 0 -34 13.5t-9 35.5l18 133q9 55 36 90l1072 1438l-668 1437q-17 36 -10 91l19 132q3 23 18.5 36.5
t37.5 13.5h1585q22 0 34 -13.5t9 -36.5z" />
    <glyph glyph-name="minus" unicode="&#x2212;" horiz-adv-x="2068" 
d="M271 957q-22 0 -34 13.5t-9 35.5l21 149q3 22 19 36t38 14h1553q22 0 33.5 -14t8.5 -36l-21 -149q-3 -22 -18.5 -35.5t-37.5 -13.5h-1553z" />
    <glyph glyph-name="radical" unicode="&#x221a;" horiz-adv-x="2237" 
d="M2164 2928q13 32 48 32h214q32 0 45 -23t-2 -53l-1396 -2853q-15 -31 -47 -31h-183q-30 0 -38 28l-359 1333h-306q-22 0 -34 14t-9 36l20 147q3 22 19.5 36t38.5 14h513q32 0 39 -30l270 -1163z" />
    <glyph glyph-name="infinity" unicode="&#x221e;" horiz-adv-x="2805" 
d="M2034 1635q159 0 292 -76t211.5 -212.5t78.5 -302.5t-78.5 -302.5t-211.5 -212.5t-292 -76q-87 0 -162 21t-131.5 54t-114 91t-100 114t-98.5 141q-56 -85 -98.5 -141t-100 -114t-114 -91t-131.5 -54t-162 -21q-159 0 -292 76t-211.5 212.5t-78.5 302.5t78.5 302.5
t211.5 212.5t292 76q87 0 162 -21t131.5 -54t114 -91t100 -114t98.5 -141q56 85 98.5 141t100 114t114 91t131.5 54t162 21zM813 696q59 0 114.5 19.5t98 47.5t92 79t82 92t83.5 110q-51 69 -83.5 110t-82 92t-92 79t-98 47.5t-114.5 19.5q-131 0 -216.5 -102t-85.5 -246
t85.5 -246t216.5 -102zM2043 696q131 0 216.5 102t85.5 246t-85.5 246t-216.5 102q-59 0 -114.5 -19.5t-98 -47.5t-92 -79t-82 -92t-83.5 -110q51 -69 83.5 -110t82 -92t92 -79t98 -47.5t114.5 -19.5z" />
    <glyph glyph-name="integral" unicode="&#x222b;" horiz-adv-x="1628" 
d="M1958 2909q20 -18 21.5 -33.5t-12.5 -37.5l-88 -134q-27 -45 -75 -19q-64 44 -124.5 67.5t-137.5 23.5q-87 0 -155.5 -31t-114.5 -88t-74.5 -132t-42.5 -169l-355 -2535q-42 -294 -238 -473.5t-463 -179.5q-122 0 -236 38t-173 93q-21 19 -22.5 34.5t12.5 37.5l88 134
q28 45 74 18q65 -44 126 -67.5t137 -23.5q116 0 198.5 55.5t126 146.5t61.5 219l356 2535q42 294 238.5 473t463.5 179q121 0 234.5 -38t174.5 -93z" />
    <glyph glyph-name="approxequal" unicode="&#x2248;" horiz-adv-x="2237" 
d="M2115 1643q31 -19 13 -57q-98 -198 -253 -304t-313 -106q-107 0 -199 25.5t-157 62t-125.5 73t-132.5 62t-151 25.5q-108 0 -203 -61t-157 -157q-15 -21 -35.5 -27.5t-39.5 4.5l-79 46q-32 20 -13 57q98 199 252.5 304.5t313.5 105.5q107 0 199 -25.5t156.5 -62t125 -73
t132.5 -62t151 -25.5q108 0 203 61t158 157q14 21 34.5 28t40.5 -4zM2012 911q14 -8 17.5 -24t-4.5 -33q-99 -199 -253 -304.5t-313 -105.5q-107 0 -199 25.5t-157 62t-125.5 73t-132.5 62t-151 25.5q-107 0 -202.5 -61t-157.5 -157q-15 -21 -35.5 -28t-39.5 5l-79 46
q-14 8 -17.5 24t4.5 33q98 198 253 304t313 106q107 0 199 -25.5t156.5 -62t125 -73t132.5 -62t151 -25.5q108 0 203 61t158 157q14 21 34.5 28t40.5 -4z" />
    <glyph glyph-name="notequal" unicode="&#x2260;" horiz-adv-x="2068" 
d="M1911 1579q22 0 34 -13.5t9 -36.5l-21 -149q-3 -22 -19 -35.5t-38 -13.5h-498l-301 -509h728q22 0 33.5 -13.5t8.5 -35.5l-20 -149q-3 -22 -19 -36t-38 -14h-840l-332 -561q-11 -17 -32 -24.5t-38 0.5l-126 63q-16 9 -20.5 29t6.5 37l269 456h-440q-22 0 -34 14t-9 36
l21 149q3 22 19 35.5t38 13.5h552l300 509h-781q-22 0 -34 13.5t-9 35.5l22 149q3 23 18.5 36.5t37.5 13.5h893l321 544q11 17 32.5 24.5t38.5 -0.5l126 -63q17 -8 21.5 -28t-6.5 -38l-260 -439h387z" />
    <glyph glyph-name="lessequal" unicode="&#x2264;" horiz-adv-x="2068" 
d="M1991 1794q-2 -14 -11.5 -24t-17 -14t-27.5 -12l-1384 -575l1222 -574l19 -9.5t13 -8.5t10 -13.5t0 -18.5l-28 -206q-3 -22 -19.5 -32.5t-34.5 -0.5l-1455 700q-47 22 -42 58l30 211q5 36 58 58l1651 700q22 9 35 -1t10 -33zM126 -81q-23 0 -35 14t-9 36l21 149
q3 22 19 35.5t38 13.5h1553q22 0 33.5 -13.5t8.5 -35.5l-20 -149q-3 -22 -18.5 -36t-38.5 -14h-1552z" />
    <glyph glyph-name="greaterequal" unicode="&#x2265;" horiz-adv-x="2069" 
d="M339 1794l29 205q3 23 19 33t35 1l1454 -700q48 -22 43 -58l-30 -211q-5 -36 -58 -58l-1652 -700q-21 -10 -34.5 0.5t-10.5 32.5l29 206q2 14 11.5 24t17.5 14t29 12l1383 574l-1222 575l-19 9.5t-13 8.5t-10 13.5t-1 18.5zM1678 -81h-1552q-23 0 -35 14t-9 36l21 149
q3 22 19 35.5t38 13.5h1553q22 0 33.5 -13.5t8.5 -35.5l-20 -149q-3 -22 -18.5 -36t-38.5 -14z" />
    <glyph glyph-name="lozenge" unicode="&#x25ca;" horiz-adv-x="2225" 
d="M1325 2726q23 28 53 28t45 -28l666 -1301q12 -24 -7 -50l-1032 -1301q-22 -28 -52.5 -28t-45.5 28l-665 1301q-13 26 7 50zM1050 417l754 983l-479 983l-754 -983z" />
    <glyph glyph-name="i.loclTRK" horiz-adv-x="766" 
d="M546 2012q-77 0 -127.5 52.5t-50.5 129.5q0 91 71.5 159t163.5 68q77 0 127.5 -52.5t50.5 -129.5q0 -91 -71.5 -159t-163.5 -68zM341 1679q3 22 18.5 35.5t37.5 13.5h214q22 0 34 -13.5t9 -35.5l-229 -1629q-3 -22 -18.5 -36t-38.5 -14h-213q-22 0 -34 13.5t-9 36.5z" />
    <glyph glyph-name="zero.osf" horiz-adv-x="2161" 
d="M1221 1865q149 0 279.5 -41.5t233 -123t171 -194.5t94 -265.5t1.5 -326.5q-31 -217 -129 -398t-239.5 -300.5t-316.5 -185.5t-361 -66t-342.5 66t-264.5 185.5t-155.5 300.5t-16.5 398q24 174 92.5 326.5t168.5 265.5t225.5 194.5t268 123t291.5 41.5zM994 244
q118 0 229 43.5t203 126t157 211.5t88 289t-6 289.5t-98.5 211.5t-168 125.5t-216.5 43.5q-119 0 -229.5 -43.5t-203 -125.5t-157.5 -211.5t-88 -289.5t6 -289t98.5 -211.5t168 -126t217.5 -43.5z" />
    <glyph glyph-name="one.osf" horiz-adv-x="1542" 
d="M1201 1828q20 0 33 -14.5t10 -34.5l-243 -1729q-2 -20 -19 -35t-37 -15h-214q-20 0 -33 15t-10 35l203 1441l-461 -218q-21 -10 -40.5 -3t-25.5 28l-51 155q-6 19 3 37.5t29 28.5l612 295q29 14 63 14h181z" />
    <glyph glyph-name="two.osf" horiz-adv-x="1917" 
d="M1559 280q20 0 32.5 -15t10.5 -35l-26 -180q-3 -20 -20 -35t-37 -15h-1439q-22 0 -33.5 13.5t-8.5 36.5l7 51q6 46 29 60q618 386 819 527q264 185 362 314q89 119 97 267q1 18 1 38q0 142 -85 209.5t-241 67.5q-290 0 -613 -271q-25 -21 -38.5 -19t-35.5 32l-105 142
q-6 8 -6.5 16t5.5 17t13.5 16.5t20.5 18.5q191 163 401 246t423 83q287 0 442 -137.5t155 -364.5q0 -292 -241.5 -548t-763.5 -535h875z" />
    <glyph glyph-name="three.osf" horiz-adv-x="1982" 
d="M1224 668q483 -136 483 -518q0 -213 -119 -379.5t-336 -259.5t-496 -93q-140 0 -260 25.5t-214.5 73t-168 105t-139.5 132.5q-14 16 -19.5 24.5t-5.5 20.5t11 23l156 158q26 27 39 30t38 -17q66 -68 124.5 -115.5t133.5 -91.5t164.5 -66t191.5 -22q117 0 219.5 28.5
t181.5 82t124.5 139t45.5 192.5q0 54 -17 101t-43 82t-68.5 64.5t-82 49.5t-95 37t-96 26.5t-97.5 17.5t-87.5 11.5t-75.5 7.5q-26 4 -37.5 15t-7.5 35l18 131q3 21 19.5 35.5t40.5 15.5q38 1 83 5t116 17.5t136.5 34t134.5 58.5t119 86.5t82.5 122t32.5 161.5
q0 151 -105 240.5t-286 89.5q-95 0 -189 -23.5t-177.5 -66.5t-137 -76.5t-117.5 -80.5q-26 -18 -41.5 -16.5t-33.5 29.5l-89 142q-18 28 33 68q189 151 407.5 228t428.5 77q128 0 234.5 -30t180 -81.5t124 -121.5t74 -149t23.5 -164q0 -217 -144 -385t-414 -266z" />
    <glyph glyph-name="four.osf" horiz-adv-x="2056" 
d="M1810 280q22 0 34 -14t9 -36l-25 -180q-4 -22 -20 -36t-37 -14h-339l-70 -497q-2 -19 -19 -34t-37 -15h-214q-19 0 -32 14.5t-11 34.5l70 497h-1102q-23 0 -35 14t-8 36l25 180l1425 1568q28 30 65 30h149q20 0 32.5 -14.5t10.5 -34.5l-210 -1499h339zM364 280h794
l145 1029z" />
    <glyph glyph-name="five.osf" horiz-adv-x="2225" 
d="M1946 1828q19 0 32 -15t10 -34l-25 -181q-3 -20 -20.5 -35t-36.5 -15h-1057l-185 -706q133 60 252.5 82.5t266.5 22.5q158 -5 288.5 -46.5t229 -120t153.5 -203t55 -283.5q0 -257 -122 -455t-348 -308t-523 -110q-145 0 -267 25.5t-219.5 75t-173 108.5t-152.5 140
q-13 13 -19 22t-6 21.5t11 24.5l156 158q18 18 28.5 24.5t22.5 4.5t26 -16q72 -73 131 -122t136.5 -95t168 -68t197.5 -22q176 0 316 65t222.5 191t82.5 292q0 93 -30.5 171.5t-89.5 138t-153.5 93.5t-213.5 34q-152 0 -283.5 -34t-280.5 -115q-20 -11 -39 -3l-150 67
q-30 13 -22 48l291 1129q4 22 20 35.5t38 13.5h1282z" />
    <glyph glyph-name="six.osf" horiz-adv-x="2283" 
d="M1201 1526q168 0 305 -63t221.5 -169t121 -248.5t14.5 -299.5q-21 -155 -103 -297t-207 -249.5t-296.5 -171.5t-359.5 -64q-251 0 -429 117t-255.5 331.5t-38.5 494.5q41 292 141 532.5t248 416t339.5 295.5t417.5 179t481 59q22 0 34.5 -14t9.5 -36l-25 -179
q-3 -21 -19 -35.5t-38 -15.5q-228 -5 -410.5 -53.5t-338 -152t-271.5 -275.5t-193 -414q125 144 292 228t359 84zM937 244q120 0 224.5 42t177 113t119 160.5t60.5 186.5q14 98 -7 187t-73 159t-144.5 112t-212.5 42q-116 0 -221 -43.5t-179.5 -114.5t-122.5 -160t-61 -182
q-14 -97 9 -186.5t77 -160t146 -113t208 -42.5z" />
    <glyph glyph-name="seven.osf" horiz-adv-x="1803" 
d="M238 -546q-38 0 -50.5 27t9.5 62l1267 2005h-1298q-20 0 -32.5 15t-9.5 35l24 181q2 19 19.5 34t37.5 15h1664q21 0 33.5 -13.5t9.5 -35.5l-7 -52q-6 -35 -29 -60l-1383 -2189q-16 -24 -42 -24h-213z" />
    <glyph glyph-name="eight.osf" horiz-adv-x="2125" 
d="M1513 1267q182 -72 299 -214.5t117 -339.5q0 -158 -72 -296t-200.5 -238t-315 -157.5t-405.5 -57.5q-187 0 -339 45.5t-253.5 126t-156 191.5t-54.5 242q0 106 33 201.5t88.5 170.5t132.5 138.5t161 109t178 78.5q-156 59 -258 181.5t-102 290.5q0 130 65.5 251
t182 213.5t290 148t375.5 55.5q174 0 317 -44.5t234.5 -121t141 -175.5t49.5 -210q0 -110 -42.5 -207t-116 -169t-161 -125t-188.5 -88zM686 1736q0 -144 127 -242t324 -98q150 0 278.5 55.5t203.5 149.5t75 204q0 145 -125.5 243.5t-325.5 98.5q-153 0 -281.5 -56
t-202 -150.5t-73.5 -204.5zM975 244q279 0 454 137.5t175 349.5q0 173 -135.5 280.5t-369.5 107.5q-279 0 -454.5 -138t-175.5 -349q0 -173 135.5 -280.5t370.5 -107.5z" />
    <glyph glyph-name="nine.osf" horiz-adv-x="2121" 
d="M1197 1865q198 0 354.5 -68.5t256.5 -192.5t140 -303.5t10 -394.5q-42 -296 -144 -538.5t-253 -417t-348 -293.5t-428 -176.5t-494 -57.5q-22 0 -34.5 14t-9.5 37l25 178q3 21 19 35t38 15q185 4 340 34.5t296 96.5t253.5 167.5t204 249.5t154.5 341
q-130 -148 -307 -234.5t-381 -86.5q-140 0 -260 40.5t-207 114t-144.5 172t-78 219t-2.5 250.5q22 160 107.5 306t215 255t306.5 173.5t371 64.5zM1009 550q125 0 237.5 44t192 116.5t131.5 165t66 190.5q14 102 -11 195.5t-84 165.5t-158.5 114.5t-224.5 42.5
q-126 0 -236.5 -42.5t-188 -114.5t-127.5 -165t-64 -196q-12 -82 -0.5 -158t48 -141t93.5 -113.5t140.5 -76t185.5 -27.5z" />
    <glyph glyph-name="zero.dnom" horiz-adv-x="1634" 
d="M923 1621q277 0 421 -224.5t92 -601.5q-35 -250 -143.5 -439t-264.5 -288t-337 -99q-277 0 -421 224.5t-92 601.5q35 250 143.5 439t264.5 288t337 99zM717 153q101 0 185 46.5t144.5 132.5t101.5 202.5t61 260.5q22 143 12.5 261t-45 202.5t-107 131.5t-172.5 47
q-196 0 -323 -173.5t-169 -468.5q-24 -193 -2.5 -335.5t102 -224.5t212.5 -82z" />
    <glyph glyph-name="one.dnom" horiz-adv-x="1358" 
d="M954 1604q13 0 21 -10t7 -23l-216 -1538q-2 -13 -13.5 -23t-24.5 -10h-151q-13 0 -21 10t-7 23l190 1350l-303 -144q-14 -6 -27 -1.5t-17 17.5l-33 103q-4 12 2 24.5t19 17.5l402 195q19 9 42 9h130z" />
    <glyph glyph-name="two.dnom" horiz-adv-x="1522" 
d="M1332 1168q-18 -124 -77 -239t-172 -237t-253.5 -239.5t-353.5 -275.5h731q13 0 21.5 -9.5t6.5 -23.5l-16 -118q-2 -13 -13.5 -23t-24.5 -10h-1087q-14 0 -22 9t-6 24l5 33q4 29 19 40q283 202 475 357t309 279.5t171 221t67 191.5q20 139 -48.5 214t-220.5 75
q-130 0 -239.5 -54.5t-222.5 -152.5q-13 -11 -23 -11t-14 4.5t-12 14.5l-69 94q-3 4 -4 7t0 7t2 6.5t4.5 6.5t5.5 5.5t7 6t6 5.5q133 115 275.5 180t329.5 65q129 0 223 -35t145 -97.5t69.5 -143t5.5 -177.5z" />
    <glyph glyph-name="three.dnom" horiz-adv-x="1555" 
d="M1016 819q311 -80 311 -345q0 -228 -181 -366.5t-483 -138.5q-108 0 -197 19t-156.5 56t-115.5 77t-96 94q-9 9 -13 14.5t-4 13.5t8 16l102 104q17 17 26.5 19t24.5 -11q38 -41 65 -66.5t70 -57.5t85 -50.5t101 -31t126 -12.5q186 0 303 80t117 221q0 42 -12.5 78.5
t-45 73t-83 63.5t-133 44.5t-189.5 19.5q-15 1 -23.5 10.5t-6.5 23.5l12 86q1 14 12.5 23.5t26.5 10.5q115 2 205 23t146.5 52.5t93.5 75t51.5 87t14.5 91.5q0 105 -75 163t-220 58q-127 0 -227 -44t-223 -134q-21 -12 -29.5 -10t-19.5 18l-64 94q-12 17 21 44
q277 216 591 216q121 0 212.5 -29.5t144.5 -81t79 -114.5t26 -137q0 -146 -96.5 -261.5t-281.5 -178.5z" />
    <glyph glyph-name="four.dnom" horiz-adv-x="1571" 
d="M1356 543q15 0 23 -9t6 -23l-17 -119q-1 -15 -11.5 -24t-25.5 -9h-223l-46 -326q-1 -13 -12.5 -23t-24.5 -10h-151q-13 0 -21.5 10t-6.5 23l46 326h-832q-14 0 -22 9t-7 24l16 109q2 11 9 18l1016 1066q21 19 43 19h135q13 0 21.5 -9.5t6.5 -23.5l-145 -1028h223z
M314 543h603l105 746z" />
    <glyph glyph-name="five.dnom" horiz-adv-x="1591" 
d="M1374 1604q13 0 21 -10t7 -23l-17 -118q-1 -13 -12 -23t-25 -10h-732l-126 -494q157 69 358 69q108 -3 198.5 -31t160 -80t108.5 -135t39 -190q0 -262 -188 -422.5t-493 -160.5q-196 0 -323.5 60t-232.5 172q-27 27 -9 44l102 105q17 17 26.5 19t24.5 -11q47 -49 86 -81
t92.5 -63t118 -46t142.5 -15q186 0 310.5 100t124.5 270q0 129 -92 212t-255 83q-210 0 -389 -99q-12 -7 -26 -2l-98 44q-20 8 -15 32l196 771q5 33 38 33h880z" />
    <glyph glyph-name="six.dnom" horiz-adv-x="1559" 
d="M861 1030q154 0 267 -71t163 -191t30 -264q-15 -107 -71.5 -203t-142.5 -168t-203.5 -114.5t-246.5 -42.5q-265 0 -404.5 173t-99.5 461q34 244 131.5 437.5t242.5 320t331 193t402 66.5q15 0 23 -9t6 -24l-17 -117q-1 -14 -11.5 -23t-25.5 -10q-309 -7 -519 -157
t-314 -471q87 99 205 156.5t254 57.5zM684 160q166 0 278 100.5t132 243.5t-62.5 242.5t-249.5 99.5q-165 0 -281.5 -102t-135.5 -240q-20 -142 66.5 -243t252.5 -101z" />
    <glyph glyph-name="seven.dnom" horiz-adv-x="1560" 
d="M348 0q-25 0 -33 18t6 41l839 1361h-913q-13 0 -21 10t-7 23l16 118q2 14 13.5 23.5t24.5 9.5h1152q15 0 22.5 -9t5.5 -24l-4 -33q-3 -22 -19 -40l-914 -1482q-11 -16 -28 -16h-140z" />
    <glyph glyph-name="eight.dnom" horiz-adv-x="1568" 
d="M1046 851q122 -46 199 -141t77 -229q0 -219 -183 -362t-480 -143q-250 0 -392.5 112.5t-142.5 292.5q0 89 32.5 167t89.5 135t124.5 98.5t147.5 69.5q-104 39 -170.5 120t-66.5 199q0 91 43.5 174t121 146t193.5 100.5t253 37.5q231 0 362 -107t131 -266q0 -78 -28 -145
t-77 -116t-107.5 -84.5t-126.5 -58.5zM491 1169q0 -101 84 -167t219 -66q159 0 267.5 82t108.5 204q0 101 -83.5 168t-219.5 67q-160 0 -268 -84t-108 -204zM685 160q191 0 307.5 93t116.5 239q0 118 -90.5 190t-249.5 72q-191 0 -307 -92.5t-116 -238.5q0 -119 90 -191
t249 -72z" />
    <glyph glyph-name="nine.dnom" horiz-adv-x="1551" 
d="M881 1627q264 0 403 -172.5t98 -459.5q-45 -319 -197.5 -545t-382.5 -338t-520 -112q-15 0 -23 9.5t-6 24.5l16 117q2 14 12.5 23t25.5 9q152 3 277 38t230.5 106.5t185 186t131.5 271.5q-86 -97 -203 -154t-251 -57q-153 0 -265 71t-161.5 191t-28.5 264
q19 142 108.5 262t235 192.5t315.5 72.5zM756 758q163 0 278.5 102t135.5 240q13 91 -19 168.5t-109.5 126t-186.5 48.5q-164 0 -275.5 -100t-131.5 -243q-9 -69 6 -130.5t52.5 -109t102 -75t147.5 -27.5z" />
    <glyph glyph-name="zero.numr" horiz-adv-x="1634" 
d="M1035 2421q277 0 421 -224.5t92 -601.5q-35 -250 -143.5 -439t-264.5 -288t-337 -99q-277 0 -421 224.5t-92 601.5q35 250 143.5 439t264.5 288t337 99zM829 953q101 0 185 46.5t144.5 132.5t101.5 202.5t61 260.5q22 143 12.5 261t-45 202.5t-107 131.5t-172.5 47
q-196 0 -323 -173.5t-169 -468.5q-24 -193 -2.5 -335.5t102 -224.5t212.5 -82z" />
    <glyph glyph-name="one.numr" horiz-adv-x="1357" 
d="M1065 2397q13 0 21 -10t7 -23l-216 -1538q-2 -13 -13.5 -23t-24.5 -10h-151q-13 0 -21 10t-7 23l190 1350l-303 -144q-14 -6 -27 -1.5t-17 17.5l-33 103q-4 12 2 24.5t19 17.5l402 195q19 9 42 9h130z" />
    <glyph glyph-name="two.numr" horiz-adv-x="1523" 
d="M1445 1968q-18 -124 -77 -239t-172 -237t-253.5 -239.5t-353.5 -275.5h731q13 0 21.5 -9.5t6.5 -23.5l-16 -118q-2 -13 -13.5 -23t-24.5 -10h-1087q-14 0 -22 9t-6 24l5 33q4 29 19 40q283 202 475 357t309 279.5t171 221t67 191.5q20 139 -48.5 214t-220.5 75
q-130 0 -239.5 -54.5t-222.5 -152.5q-13 -11 -23 -11t-14 4.5t-12 14.5l-69 94q-3 4 -4 7t0 7t2 6.5t4.5 6.5t5.5 5.5t7 6t6 5.5q133 115 275.5 180t329.5 65q129 0 223 -35t145 -97.5t69.5 -143t5.5 -177.5z" />
    <glyph glyph-name="three.numr" horiz-adv-x="1555" 
d="M1128 1619q311 -80 311 -345q0 -228 -181 -366.5t-483 -138.5q-108 0 -197 19t-156.5 56t-115.5 77t-96 94q-9 9 -13 14.5t-4 13.5t8 16l102 104q17 17 26.5 19t24.5 -11q38 -41 65 -66.5t70 -57.5t85 -50.5t101 -31t126 -12.5q186 0 303 80t117 221q0 42 -12.5 78.5
t-45 73t-83 63.5t-133 44.5t-189.5 19.5q-15 1 -23.5 10.5t-6.5 23.5l12 86q1 14 12.5 23.5t26.5 10.5q115 2 205 23t146.5 52.5t93.5 75t51.5 87t14.5 91.5q0 105 -75 163t-220 58q-127 0 -227 -44t-223 -134q-21 -12 -29.5 -10t-19.5 18l-64 94q-12 17 21 44
q277 216 591 216q121 0 212.5 -29.5t144.5 -81t79 -114.5t26 -137q0 -146 -96.5 -261.5t-281.5 -178.5z" />
    <glyph glyph-name="four.numr" horiz-adv-x="1570" 
d="M1468 1336q15 0 23 -9t6 -23l-17 -119q-1 -15 -11.5 -24t-25.5 -9h-223l-46 -326q-1 -13 -12.5 -23t-24.5 -10h-151q-13 0 -21.5 10t-6.5 23l46 326h-832q-14 0 -22 9t-7 24l16 109q2 11 9 18l1016 1066q21 19 43 19h135q13 0 21.5 -9.5t6.5 -23.5l-145 -1028h223z
M426 1336h603l105 746z" />
    <glyph glyph-name="five.numr" horiz-adv-x="1591" 
d="M1485 2397q13 0 21 -10t7 -23l-17 -118q-1 -13 -12 -23t-25 -10h-732l-126 -494q157 69 358 69q108 -3 198.5 -31t160 -80t108.5 -135t39 -190q0 -262 -188 -422.5t-493 -160.5q-196 0 -323.5 60t-232.5 172q-27 27 -9 44l102 105q17 17 26.5 19t24.5 -11q47 -49 86 -81
t92.5 -63t118 -46t142.5 -15q186 0 310.5 100t124.5 270q0 129 -92 212t-255 83q-210 0 -389 -99q-12 -7 -26 -2l-98 44q-20 8 -15 32l196 771q5 33 38 33h880z" />
    <glyph glyph-name="six.numr" horiz-adv-x="1560" 
d="M972 1823q154 0 267 -71t163 -191t30 -264q-15 -107 -71.5 -203t-142.5 -168t-203.5 -114.5t-246.5 -42.5q-265 0 -404.5 173t-99.5 461q34 244 131.5 437.5t242.5 320t331 193t402 66.5q15 0 23 -9t6 -24l-17 -117q-1 -14 -11.5 -23t-25.5 -10q-309 -7 -519 -157
t-314 -471q87 99 205 156.5t254 57.5zM795 953q166 0 278 100.5t132 243.5t-62.5 242.5t-249.5 99.5q-165 0 -281.5 -102t-135.5 -240q-20 -142 66.5 -243t252.5 -101z" />
    <glyph glyph-name="seven.numr" horiz-adv-x="1560" 
d="M459 793q-25 0 -33 18.5t6 40.5l839 1361h-913q-13 0 -21 10t-7 23l16 118q2 14 13.5 23.5t24.5 9.5h1152q15 0 22.5 -9t5.5 -24l-4 -33q-3 -22 -19 -40l-914 -1482q-11 -16 -28 -16h-140z" />
    <glyph glyph-name="eight.numr" horiz-adv-x="1568" 
d="M1157 1644q122 -46 199 -141t77 -229q0 -219 -183 -362t-480 -143q-250 0 -392.5 112.5t-142.5 292.5q0 89 32.5 167t89.5 135t124.5 98.5t147.5 69.5q-104 39 -170.5 120t-66.5 199q0 91 43.5 174t121 146t193.5 100.5t253 37.5q231 0 362 -107t131 -266q0 -78 -28 -145
t-77 -116t-107.5 -84.5t-126.5 -58.5zM602 1962q0 -101 84 -167t219 -66q159 0 267.5 82t108.5 204q0 101 -83.5 168t-219.5 67q-160 0 -268 -84t-108 -204zM796 953q191 0 307.5 93t116.5 239q0 118 -90.5 190t-249.5 72q-191 0 -307 -92.5t-116 -238.5q0 -119 90 -191
t249 -72z" />
    <glyph glyph-name="nine.numr" horiz-adv-x="1552" 
d="M992 2420q264 0 403 -172.5t98 -459.5q-45 -319 -197.5 -545t-382.5 -338t-520 -112q-15 0 -23 9.5t-6 24.5l16 117q2 14 12.5 23t25.5 9q152 3 277 38t230.5 106.5t185 186t131.5 271.5q-86 -97 -203 -154t-251 -57q-153 0 -265 71t-161.5 191t-28.5 264
q19 142 108.5 262t235 192.5t315.5 72.5zM867 1551q163 0 278.5 102t135.5 240q13 91 -19 168.5t-109.5 126t-186.5 48.5q-164 0 -275.5 -100t-131.5 -243q-9 -69 6 -130.5t52.5 -109t102 -75t147.5 -27.5z" />
    </font>
</defs>
</svg>
