<?xml version="1.0" standalone="no"?>
<!DOCTYPE svg PUBLIC "-//W3C//DTD SVG 1.1//EN" "http://www.w3.org/Graphics/SVG/1.1/DTD/svg11.dtd" >
<svg xmlns="http://www.w3.org/2000/svg" xmlns:xlink="http://www.w3.org/1999/xlink" version="1.1">
<metadata>
Created by FontForge 20170731 at Fri Jun 24 01:07:06 2016
 By Aleksey,,,
Copyright (c) 2015 by Mateusz Machalski. All rights reserved.
</metadata>
<defs>
<font id="Migrena_Grotesque-UltraLightitalic" horiz-adv-x="1970" >
  <font-face 
    font-family="Migrena_Grotesque UltraLight"
    font-weight="300"
    font-style="italic"
    font-stretch="normal"
    units-per-em="4000"
    panose-1="0 0 4 0 0 0 0 0 0 0"
    ascent="3200"
    descent="-800"
    x-height="1640"
    cap-height="2440"
    bbox="-2087.17 -960 4301.92 3420.29"
    underline-thickness="50"
    underline-position="-200"
    slope="-8"
    unicode-range="U+0020-25CA"
  />
<missing-glyph horiz-adv-x="1668" 
d="M1367 2560v-3335h-1057v3335h1057zM1111 2337h-551v-110h217v-124h-220v-110h554v110h-221v124h221v110zM890 1906h-333v-346h554v113h-221v233zM777 1793v-120h-110v120h110zM1111 1469h-554v-110h220v-123h-220v-110h333v233h221v110zM1111 1269h-110v-220h-444v-113
h554v333zM1111 862h-334v-186h113v76h111v-156h-334v266h-110v-376h554v376zM1111 286h-554v-377h554v377zM1001 175v-156h-334v156h334zM1111 -168h-554v-110h233l-233 -157v-110h554v110h-341l234 157h107v110z" />
    <glyph glyph-name=".notdef" horiz-adv-x="1668" 
d="M1367 2560v-3335h-1057v3335h1057zM1111 2337h-551v-110h217v-124h-220v-110h554v110h-221v124h221v110zM890 1906h-333v-346h554v113h-221v233zM777 1793v-120h-110v120h110zM1111 1469h-554v-110h220v-123h-220v-110h333v233h221v110zM1111 1269h-110v-220h-444v-113
h554v333zM1111 862h-334v-186h113v76h111v-156h-334v266h-110v-376h554v376zM1111 286h-554v-377h554v377zM1001 175v-156h-334v156h334zM1111 -168h-554v-110h233l-233 -157v-110h554v110h-341l234 157h107v110z" />
    <glyph glyph-name=".null" horiz-adv-x="0" 
 />
    <glyph glyph-name="nonmarkingreturn" horiz-adv-x="1333" 
 />
    <glyph glyph-name="space" unicode=" " horiz-adv-x="750" 
 />
    <glyph glyph-name="exclam" unicode="!" horiz-adv-x="680" 
d="M500 2419q1 9 8 15t16 6h82q9 0 14 -6t4 -15l-271 -1811q-1 -9 -8 -15t-15 -6h-51q-8 0 -13.5 6t-4.5 15zM221 -25q-38 0 -64 27t-26 66q0 46 36.5 81t83.5 35q38 0 64.5 -27.5t26.5 -65.5q0 -46 -37 -81t-84 -35z" />
    <glyph glyph-name="quotedbl" unicode="&#x22;" horiz-adv-x="1109" 
d="M477 2489q1 9 8 15t16 6h70q9 0 14 -6t4 -15l-114 -718q-5 -20 -25 -20h-45q-9 0 -14 6t-3 14zM989 2489q1 9 8 15t16 6h70q9 0 14 -6t4 -15l-114 -718q-5 -20 -25 -20h-45q-9 0 -14 6t-3 14z" />
    <glyph glyph-name="numbersign" unicode="#" horiz-adv-x="2515" 
d="M2363 1606q9 0 14 -6t3 -14l-17 -70q-1 -9 -8.5 -15t-16.5 -6h-432l-175 -730h414q9 0 13.5 -6t2.5 -15l-15 -70q-5 -20 -26 -20h-415l-152 -633q-5 -21 -26 -21h-83q-20 0 -15 21l152 633h-786l-152 -633q-1 -9 -9 -15t-17 -6h-83q-20 0 -15 21l152 633h-432q-9 0 -14 6
t-3 14l16 70q5 21 26 21h433l175 730h-416q-8 0 -12.5 6t-3.5 15l16 70q5 20 26 20h416l152 633q5 21 26 21h82q9 0 13.5 -6t2.5 -15l-152 -633h786l152 633q5 21 26 21h82q9 0 13.5 -6t2.5 -15l-152 -633h431zM1607 765l175 730h-786l-175 -730h786z" />
    <glyph glyph-name="dollar" unicode="$" horiz-adv-x="2179" 
d="M2085 2245q18 -12 5 -33l-40 -65q-14 -20 -36 -5q-63 44 -124.5 77.5t-145 67t-187.5 51.5t-220 18q-376 0 -585 -157.5t-209 -416.5q0 -64 20 -118.5t49 -94t83 -75.5t100.5 -59.5t123.5 -49.5t130.5 -41t141.5 -38q106 -28 160 -43t148 -47.5t145 -61t117.5 -76
t100.5 -99.5t58.5 -125t24.5 -159q0 -144 -50.5 -262.5t-136 -199.5t-203.5 -138t-248 -85t-274 -34l-57 -398q-2 -9 -8.5 -15.5t-15.5 -6.5h-58q-8 0 -14 7t-5 15l56 397q-472 10 -786 272q-20 16 -8 35l38 61q16 21 35 7q158 -128 336.5 -196t438.5 -68q131 0 249 20.5
t224 65.5t182.5 112t121.5 166t45 221q0 114 -48 200t-128.5 140t-185.5 94.5t-220.5 71t-231 61.5t-220.5 73.5t-185.5 99.5t-128.5 148.5t-48 210.5q0 301 231.5 489.5t638.5 204.5l51 362q4 20 23 20h60q8 0 13.5 -6t4.5 -14l-51 -361q230 -5 395.5 -64.5t307.5 -155.5z
" />
    <glyph glyph-name="percent" unicode="%" horiz-adv-x="3189" 
d="M2457 2496q7 -3 9 -11.5t-3 -15.5l-1525 -2545q-12 -19 -29 -11l-53 27q-16 9 -6 27l1525 2545q12 19 30 10zM1436 1701q-49 -349 -230.5 -557t-427.5 -208q-247 0 -370.5 208t-73.5 557q48 348 230 556t428 208q247 0 370 -207.5t74 -556.5zM791 1038q207 0 347.5 178
t184.5 485q43 306 -48 484t-297 178t-347 -178t-184 -484q-44 -307 47 -485t297 -178zM2524 1504q247 0 370.5 -208t73.5 -556q-48 -349 -230 -557t-428 -208q-247 0 -370 208t-74 557t230.5 556.5t427.5 207.5zM2324 77q206 0 347 178t184 485q43 306 -48 484t-297 178
t-347 -178t-184 -484q-43 -307 48 -485t297 -178z" />
    <glyph glyph-name="ampersand" unicode="&#x26;" horiz-adv-x="2259" 
d="M2069 1166q18 -5 12 -25q-156 -411 -374 -690l325 -402q11 -16 2 -32.5t-29 -16.5h-75q-15 0 -24 12l-280 344q-361 -396 -832 -396q-291 0 -465.5 151t-174.5 399q0 138 47 260t137.5 225t207.5 189.5t272 168.5q-177 250 -177 489q0 149 56.5 269t154 196.5t225 117
t273.5 40.5q142 0 257.5 -44.5t241.5 -139.5q15 -10 3 -28l-41 -60q-14 -20 -31 -8q-106 93 -212.5 133.5t-235.5 40.5q-253 0 -407 -131.5t-154 -368.5q0 -252 219 -521l647 -801q193 253 337 627q6 21 29 17zM814 72q413 0 744 368l-677 832q-204 -109 -331 -216.5
t-193 -237.5t-66 -287q0 -210 139.5 -334.5t383.5 -124.5z" />
    <glyph glyph-name="quotesingle" unicode="'" horiz-adv-x="597" 
d="M477 2489q1 9 8 15t16 6h70q9 0 14 -6t4 -15l-114 -718q-5 -20 -25 -20h-45q-9 0 -14 6t-3 14z" />
    <glyph glyph-name="parenleft" unicode="(" horiz-adv-x="1023" 
d="M350 611q0 -309 71 -616.5t201 -559.5q4 -8 1 -15.5t-11 -11.5l-46 -24q-18 -8 -24 5q-147 248 -223 574.5t-76 664.5q0 528 190.5 1001.5t551.5 916.5q13 13 26 5l39 -23q17 -10 3 -27q-352 -445 -527.5 -907t-175.5 -983z" />
    <glyph glyph-name="parenright" unicode=")" horiz-adv-x="1025" 
d="M523 2546q143 -266 219.5 -596.5t76.5 -666.5q0 -519 -183.5 -1004.5t-555.5 -889.5q-12 -12 -26 -5l-39 24q-7 4 -8 12t5 15q700 827 700 1866q0 319 -69 632t-200 568q-10 16 10 27l46 23q15 9 24 -5z" />
    <glyph glyph-name="asterisk" unicode="*" horiz-adv-x="1664" 
d="M1659 2510q1 -7 -3.5 -14.5t-12.5 -9.5l-519 -162l247 -422q4 -6 1 -14t-9 -12l-55 -36q-17 -12 -26 4l-247 422l-366 -422q-13 -15 -27 -4l-44 36q-6 4 -6.5 12t4.5 14l367 422l-474 162q-17 5 -8 24l27 58q3 7 10.5 11t14.5 2l473 -162l74 522q2 19 22 19h62
q17 0 15 -19l-73 -522l-59 -69l60 69l519 162q7 2 14 -2t8 -11z" />
    <glyph glyph-name="plus" unicode="+" horiz-adv-x="2046" 
d="M1835 1105q20 0 18 -21l-8 -60q-1 -9 -8.5 -15t-16.5 -6h-721l-101 -721q-4 -21 -24 -21h-60q-20 0 -17 21l101 721h-721q-9 0 -14 6t-4 15l8 60q1 9 8 15t16 6h722l101 721q2 21 23 21h60q20 0 18 -21l-101 -721h721z" />
    <glyph glyph-name="comma" unicode="," horiz-adv-x="690" 
d="M259 184q37 0 62.5 -25.5t25.5 -77.5q0 -109 -78.5 -259t-204.5 -249q-17 -13 -29 3l-9 10q-8 15 7 29q77 68 127.5 157t50.5 166q0 19 -7.5 30.5t-26.5 23.5q-39 25 -39 73t37 83.5t84 35.5z" />
    <glyph glyph-name="hyphen" unicode="-" horiz-adv-x="1696" 
d="M263 898q-9 0 -14.5 6t-4.5 15l10 70q3 20 25 20h1193q20 0 17 -20l-9 -70q-2 -21 -23 -21h-1194z" />
    <glyph glyph-name="period" unicode="." horiz-adv-x="680" 
d="M221 -25q-38 0 -64 27t-26 66q0 46 36.5 81t83.5 35q38 0 64.5 -27.5t26.5 -65.5q0 -46 -37 -81t-84 -35z" />
    <glyph glyph-name="slash" unicode="/" horiz-adv-x="1474" 
d="M1560 2616q10 19 30 11l52 -27q7 -3 9 -11.5t-2 -15.5l-1608 -2649q-10 -19 -30 -11l-52 27q-7 3 -9.5 11.5t2.5 15.5z" />
    <glyph glyph-name="zero" unicode="0" horiz-adv-x="2200" 
d="M1331 2465q197 0 350 -87t246 -248.5t127 -392t-8 -517.5q-40 -283 -137.5 -516.5t-236.5 -393.5t-316.5 -247.5t-374.5 -87.5t-350 87t-246 248.5t-127 392t8 517.5q40 283 137.5 516.5t236.5 393.5t316.5 247.5t374.5 87.5zM997 86q232 0 423 140.5t317.5 396.5
t174.5 597t-7 597t-206.5 396.5t-383.5 140.5q-231 0 -422 -140.5t-318 -396.5t-175 -597t7 -597t207 -396.5t383 -140.5z" />
    <glyph glyph-name="one" unicode="1" horiz-adv-x="1485" 
d="M1199 2440q8 0 13.5 -6.5t4.5 -14.5l-337 -2398q-1 -8 -8.5 -14.5t-15.5 -6.5h-87q-8 0 -13.5 6.5t-4.5 14.5l321 2287l-537 -262q-9 -5 -17 -2t-11 12l-20 61q-5 17 14 28l595 288q15 7 33 7h70z" />
    <glyph glyph-name="two" unicode="2" horiz-adv-x="2059" 
d="M1908 1822q-21 -151 -98.5 -306t-201.5 -309t-317.5 -332.5t-420 -358.5t-535.5 -405h1400q8 0 13.5 -6.5t4.5 -14.5l-9 -69q-1 -8 -8.5 -14.5t-15.5 -6.5h-1606q-20 0 -17 21l4 27q2 21 12 27q419 299 714 538t503.5 452.5t316 395.5t130.5 352q36 252 -92 396.5
t-419 144.5q-391 0 -763 -357q-18 -17 -34 5l-37 50q-11 12 14 32q85 82 172 145.5t193 119.5t230 86t257 30q175 0 303 -48t200.5 -134.5t99.5 -203t7 -257.5z" />
    <glyph glyph-name="three" unicode="3" horiz-adv-x="2085" 
d="M1282 1259q298 -43 443.5 -183.5t145.5 -365.5q0 -226 -116 -393t-324.5 -254.5t-483.5 -87.5q-518 0 -808 381q-18 20 -5 32l55 55q22 22 36 5q275 -362 730 -362q236 0 412 70t275.5 209.5t99.5 332.5q0 114 -43.5 203.5t-136 158.5t-248.5 107t-368 39q-9 0 -14 6
t-4 15l7 50q1 9 8 15t16 6q216 1 386 52.5t275.5 139t160 200.5t54.5 243q0 203 -133.5 312t-400.5 109q-219 0 -402.5 -87.5t-352.5 -242.5q-20 -15 -34 5l-36 50q-9 13 15 33q384 353 844 353q314 0 471.5 -137t157.5 -372q0 -258 -177 -444t-505 -253z" />
    <glyph glyph-name="four" unicode="4" horiz-adv-x="2183" 
d="M1997 732q20 0 18 -21l-9 -69q-4 -21 -25 -21h-411l-85 -600q-1 -8 -8.5 -14.5t-15.5 -6.5h-87q-8 0 -13.5 6.5t-4.5 14.5l85 600h-1328q-9 0 -14 6t-4 15l9 63q0 5 6 13l1588 1710q10 12 33 12h73q8 0 13.5 -6.5t4.5 -14.5l-238 -1687h413zM269 732h1186l213 1511z" />
    <glyph glyph-name="five" unicode="5" horiz-adv-x="2123" 
d="M1984 2440q8 0 13.5 -6.5t4.5 -14.5l-10 -69q-1 -8 -8 -14.5t-15 -6.5h-1175l-262 -1028q159 81 306.5 117t310.5 36q160 -2 295.5 -44t238 -121t160.5 -203t58 -279q0 -157 -50 -292t-138.5 -233t-209.5 -168t-265.5 -104.5t-303.5 -34.5q-144 0 -264 26t-213 76.5
t-164.5 113t-136.5 145.5q-18 20 -5 32l55 55q21 21 36 5q124 -163 292 -252.5t409 -89.5q134 0 256 28t226.5 86t181.5 141t120.5 198.5t43.5 251.5q0 172 -84.5 299.5t-231.5 193t-338 65.5q-315 0 -636 -170q-8 -5 -15 -1l-65 29q-12 6 -9 20l302 1192q1 9 8 15t16 6
h1266z" />
    <glyph glyph-name="six" unicode="6" horiz-adv-x="2079" 
d="M1179 1527q229 0 396 -100t241.5 -276t43.5 -396q-23 -165 -105.5 -309.5t-206 -248t-286.5 -163t-341 -59.5q-239 0 -413.5 104t-254 293.5t-45.5 431.5q54 384 186 690.5t334 522.5t479 332t612 116q21 0 18 -21l-9 -69q-4 -21 -23 -21q-554 -3 -914 -333t-510 -946
q125 202 337 327t461 125zM936 86q200 0 372 88.5t282 241t136 339.5q27 189 -35 339t-206 236t-347 86q-150 0 -292 -56t-247 -147.5t-175.5 -211.5t-88.5 -246q-26 -187 40.5 -339.5t214 -241t346.5 -88.5z" />
    <glyph glyph-name="seven" unicode="7" horiz-adv-x="2067" 
d="M518 0q-15 0 -20 11.5t3 25.5l1395 2292h-1511q-8 0 -13.5 6.5t-3.5 14.5l9 69q1 8 8.5 14.5t15.5 6.5h1650q20 0 18 -21l-4 -27q-1 -15 -13 -27l-1431 -2355q-7 -10 -18 -10h-85z" />
    <glyph glyph-name="eight" unicode="8" horiz-adv-x="2105" 
d="M1363 1282q101 -22 189 -65.5t161.5 -110.5t116.5 -166.5t43 -219.5q0 -221 -119 -391t-332.5 -262t-488.5 -92q-348 0 -550 158.5t-202 428.5q0 127 41 236.5t107.5 187t158 139t186 99t197.5 58.5q-69 16 -132 43t-122 70.5t-101.5 98t-68.5 128.5t-26 159
q0 139 63 264t174.5 218t274 147.5t351.5 54.5q160 0 291 -42.5t217 -117.5t133 -175t47 -216q0 -109 -37 -205t-96.5 -164t-140.5 -122.5t-164 -88t-171 -52.5zM547 1786q0 -133 73.5 -236t205 -159t299.5 -56q196 0 359.5 70t261 198.5t97.5 290.5q0 98 -40 183.5
t-112.5 148t-181.5 98.5t-240 36q-154 0 -289.5 -45.5t-230 -123.5t-148.5 -183t-54 -222zM949 86q231 0 412.5 80.5t282.5 225t101 328.5q0 227 -171.5 364.5t-465.5 137.5q-231 0 -412 -80t-282 -225t-101 -329q0 -226 171.5 -364t464.5 -138z" />
    <glyph glyph-name="nine" unicode="9" horiz-adv-x="2034" 
d="M1248 2465q174 0 315 -61t232 -169t129.5 -263t13.5 -337q-40 -286 -126.5 -533t-223.5 -450.5t-316 -348t-413 -224t-506 -79.5q-21 0 -18 21l9 69q4 21 24 21q278 1 509 90t402 253.5t291.5 390t192.5 511.5q-124 -199 -329.5 -321.5t-443.5 -122.5q-222 0 -383.5 100
t-233.5 276.5t-41 396.5q23 165 104 309.5t201.5 248t279 163t331.5 59.5zM1031 1024q145 0 282 56t239.5 147.5t172 211.5t86.5 246q26 187 -38 339.5t-206 241t-334 88.5q-193 0 -360 -88.5t-274 -241t-133 -339.5q-27 -189 32.5 -339t198.5 -236t334 -86z" />
    <glyph glyph-name="colon" unicode=":" horiz-adv-x="680" 
d="M429 1455q-38 0 -64 27t-26 66q0 46 36.5 81t83.5 35q38 0 64.5 -27.5t26.5 -65.5q0 -46 -37 -81t-84 -35zM221 -25q-38 0 -64 27t-26 66q0 46 36.5 81t83.5 35q38 0 64.5 -27.5t26.5 -65.5q0 -46 -37 -81t-84 -35z" />
    <glyph glyph-name="semicolon" unicode=";" horiz-adv-x="690" 
d="M437 1455q-38 0 -64 27t-26 66q0 46 36.5 81t83.5 35q38 0 64.5 -27.5t26.5 -65.5q0 -46 -37 -81t-84 -35zM259 184q37 0 62.5 -25.5t25.5 -77.5q0 -109 -78.5 -259t-204.5 -249q-17 -13 -29 3l-9 10q-8 15 7 29q77 68 127.5 157t50.5 166q0 19 -7.5 30.5t-26.5 23.5
q-39 25 -39 73t37 83.5t84 35.5z" />
    <glyph glyph-name="less" unicode="&#x3c;" horiz-adv-x="2046" 
d="M1941 1708q-2 -11 -25 -21l-1534 -650l1351 -649l8 -4t6 -3.5t5 -6t0 -7.5l-12 -81q-2 -9 -8.5 -14.5t-13.5 -1.5l-1446 700q-19 11 -17 25l12 85q2 14 23 25l1643 700q9 4 14.5 -1.5t3.5 -14.5z" />
    <glyph glyph-name="equal" unicode="=" horiz-adv-x="2159" 
d="M351 1361q-9 0 -14 6t-4 15l8 59q2 9 8.5 15t15.5 6h1544q9 0 14 -6t4 -15l-9 -59q-2 -21 -23 -21h-1544zM250 643q-9 0 -14.5 6t-4.5 15l9 60q4 21 24 21h1544q20 0 17 -21l-7 -60q-1 -9 -8 -15t-16 -6h-1544z" />
    <glyph glyph-name="greater" unicode="&#x3e;" horiz-adv-x="2047" 
d="M355 1708l12 81q2 9 9 14.5t14 1.5l1446 -700q19 -11 17 -25l-12 -85q-1 -14 -24 -25l-1642 -700q-9 -4 -15 1.5t-5 14.5l12 81q2 12 25 21l1534 649l-1352 650q-20 10 -19 21z" />
    <glyph glyph-name="question" unicode="?" horiz-adv-x="1695" 
d="M1643 1936q0 201 -124.5 309.5t-366.5 108.5q-363 0 -685 -275q-21 -17 -35 5l-34 51q-9 14 14 33q177 141 359.5 219t408.5 78q283 0 439 -138.5t156 -378.5q0 -107 -25 -198.5t-68 -162t-99.5 -133t-122 -118.5t-133 -111.5t-134 -119.5t-123 -134.5t-102.5 -164.5
t-71 -201q-3 -18 -21 -18l-62 1q-7 0 -11.5 5.5t-3.5 13.5q28 137 90 255.5t138 203t162 162.5t165.5 151.5t145 152t104.5 181.5t39 223zM776 -25q-38 0 -64 27t-26 66q0 46 36.5 81t83.5 35q38 0 64.5 -27.5t26.5 -65.5q0 -46 -37 -81t-84 -35z" />
    <glyph glyph-name="at" unicode="@" horiz-adv-x="3191" 
d="M2017 -544q-2 -16 -17 -18q-316 -70 -566 -70q-186 0 -348 35.5t-288.5 99t-229.5 153.5t-175 197.5t-120.5 232.5t-71.5 257.5t-23 272.5q0 224 58 431t162.5 376t253 308t326.5 233.5t386 145.5t429 51q218 0 404.5 -45t337.5 -137t257.5 -226t164 -318t57.5 -406
q0 -149 -25.5 -295t-78.5 -278.5t-127 -234t-178 -161.5t-224 -60q-386 0 -356 488q-18 -58 -55 -122.5t-95 -130t-126.5 -117.5t-156.5 -85t-179 -33q-87 0 -162.5 20t-143 66t-115.5 114.5t-75.5 171.5t-27.5 231q0 205 63 385.5t174 311.5t272 206.5t347 74.5
q168 -1 454 -75q16 -3 14 -21l-88 -925q-22 -231 38 -350t227 -119q85 0 160 39t130.5 107t99.5 158.5t71.5 195t41.5 214t14 218.5q0 263 -79 463t-227 326.5t-352 190t-461 63.5q-206 0 -399.5 -48t-359.5 -136t-303.5 -218t-235 -288t-151 -351.5t-53.5 -404.5
q0 -131 20 -252.5t63.5 -237.5t108 -215.5t158.5 -183t210.5 -142.5t268 -92t326.5 -34q239 -1 551 67q12 3 20 -4t7 -19zM1430 88q111 0 216.5 52t189 144.5t140 227.5t71.5 293l60 624q-210 66 -373 66q-164 0 -303 -70.5t-233 -191.5t-147 -283t-53 -343
q0 -113 22.5 -202.5t61.5 -148t95 -97t118 -55t135 -16.5z" />
    <glyph glyph-name="A" unicode="A" horiz-adv-x="2415" 
d="M2230 24q7 -24 -20 -24h-101q-19 0 -23 17l-244 837h-1247l-489 -837q-10 -17 -28 -17h-102q-12 0 -16.5 5.5t1.5 18.5l1444 2439q10 17 27 17h41q19 0 24 -17zM657 960h1154l-385 1318z" />
    <glyph glyph-name="B" unicode="B" horiz-adv-x="2274" 
d="M1487 1255q167 -6 296 -69t205 -183t76 -280q0 -118 -36.5 -225t-113 -198t-187 -157.5t-267 -104.5t-344.5 -38h-910h-58q-8 0 -13.5 6.5t-3.5 14.5l336 2398q1 8 8.5 14.5t15.5 6.5h87h806q194 0 341.5 -39t238.5 -110t136 -167.5t45 -215.5q0 -148 -54.5 -270
t-147 -201.5t-209 -125.5t-247.5 -56zM583 2329l-143 -1022h811q195 0 342 42.5t237.5 121t135 183.5t44.5 237q0 99 -36 177t-113 137.5t-206.5 91.5t-305.5 32h-766zM1112 111q175 0 315 32.5t233 88t155 134.5t89 168t27 192q0 218 -166 345.5t-510 127.5h-830
l-152 -1088h839z" />
    <glyph glyph-name="C" unicode="C" horiz-adv-x="2600" 
d="M2372 639q20 -8 6 -29q-406 -635 -1080 -635q-217 0 -407 76t-330.5 213.5t-221.5 341t-81 445.5q0 210 54 402.5t149.5 346t227.5 279.5t286 210.5t326 130t347 45.5q670 0 901 -635q8 -21 -13 -29l-72 -32q-20 -10 -28 11q-206 574 -804 574q-160 0 -315.5 -42.5
t-292 -121t-253 -194.5t-200 -256.5t-130.5 -314.5t-47 -362q0 -218 69.5 -401.5t192 -309.5t292 -196t366.5 -70q594 0 965 574q13 21 32 11z" />
    <glyph glyph-name="D" unicode="D" horiz-adv-x="2499" 
d="M1279 2440q231 0 427.5 -70.5t340.5 -202t225 -330t81 -443.5q0 -215 -53 -408t-147.5 -345t-226 -273.5t-289 -202t-335.5 -123t-366 -42.5h-734h-54q-8 0 -13.5 6.5t-3.5 14.5l336 2398q1 8 8.5 14.5t15.5 6.5h87h701zM942 111q207 0 398 55.5t350.5 164.5t277.5 260.5
t184 354t66 434.5q0 220 -71.5 399.5t-199.5 299.5t-305 185t-388 65h-671l-310 -2218h669z" />
    <glyph glyph-name="E" unicode="E" horiz-adv-x="2124" 
d="M2088 2440q20 0 18 -21l-9 -69q-5 -21 -24 -21h-1490l-140 -999h1329q9 0 14 -6t4 -15l-9 -70q-5 -20 -24 -20h-1329l-155 -1108h1528q20 0 18 -21l-9 -69q-5 -21 -25 -21h-1581h-56q-8 0 -13.5 6.5t-3.5 14.5l336 2398q1 8 8.5 14.5t15.5 6.5h87h1510z" />
    <glyph glyph-name="F" unicode="F" horiz-adv-x="2025" 
d="M2048 2440q20 0 18 -21l-9 -69q-5 -21 -24 -21h-1450l-156 -1119h1368q9 0 14 -6t4 -15l-9 -70q-5 -20 -24 -20h-1369l-151 -1078q-1 -8 -9 -14.5t-16 -6.5h-87q-8 0 -13.5 6.5t-3.5 14.5l336 2398q1 8 8.5 14.5t15.5 6.5h87h1470z" />
    <glyph glyph-name="G" unicode="G" horiz-adv-x="2651" 
d="M2422 1065q19 0 17 -21l-108 -767q-258 -159 -500 -230.5t-533 -71.5q-217 0 -407 76t-330.5 213.5t-221.5 341t-81 445.5q0 210 54 402.5t149.5 346t227.5 279.5t286 210.5t326 130t347 45.5q330 0 543 -135.5t356 -426.5q9 -19 -14 -30l-72 -31q-19 -10 -28 11
q-128 262 -318.5 381.5t-482.5 119.5q-160 0 -315.5 -42.5t-292 -121t-253 -194.5t-200 -256.5t-130.5 -314.5t-47 -362q0 -218 69.5 -401.5t192 -309.5t292 -196t366.5 -70q251 0 461 55.5t444 187.5l101 715q1 9 8 15t16 6h78z" />
    <glyph glyph-name="H" unicode="H" horiz-adv-x="2484" 
d="M2448 2440q8 0 13.5 -6.5t4.5 -14.5l-336 -2398q-1 -8 -9 -14.5t-16 -6.5h-87q-8 0 -13.5 6.5t-3.5 14.5l168 1198h-1741l-168 -1198q-1 -8 -9 -14.5t-16 -6.5h-87q-8 0 -13.5 6.5t-3.5 14.5l336 2398q1 8 8.5 14.5t15.5 6.5h87q8 0 13.5 -6.5t4.5 -14.5l-153 -1089h1741
l153 1089q1 8 8.5 14.5t15.5 6.5h87z" />
    <glyph glyph-name="I" unicode="I" horiz-adv-x="614" 
d="M467 2419q1 8 8.5 14.5t15.5 6.5h87q8 0 13.5 -6.5t4.5 -14.5l-336 -2398q-1 -8 -9 -14.5t-16 -6.5h-87q-8 0 -13.5 6.5t-3.5 14.5z" />
    <glyph glyph-name="J" unicode="J" horiz-adv-x="1773" 
d="M1737 2440q9 0 14 -6t4 -15l-236 -1679q-53 -373 -270 -569t-567 -196q-468 0 -631 443q-9 21 12 31l76 33q20 8 28 -12q68 -186 194.5 -285t332.5 -99q604 0 697 664l235 1669q4 21 24 21h87z" />
    <glyph glyph-name="K" unicode="K" horiz-adv-x="2237" 
d="M580 2440q8 0 13.5 -6.5t3.5 -14.5l-337 -2398q-1 -8 -8 -14.5t-15 -6.5h-88q-8 0 -13.5 6.5t-4.5 14.5l337 2398q1 8 8.5 14.5t15.5 6.5h88zM1959 27q8 -11 3 -19t-19 -8h-110q-19 0 -31 14l-1023 1228l1359 1184q15 14 35 14h104q12 0 14.5 -7.5t-10.5 -19.5
l-1339 -1170z" />
    <glyph glyph-name="L" unicode="L" horiz-adv-x="1923" 
d="M1700 111q9 0 14 -6t3 -15l-9 -69q-1 -9 -8 -15t-15 -6h-1536q-8 0 -13.5 6.5t-4.5 14.5l337 2398q1 8 8.5 14.5t15.5 6.5h88q8 0 13.5 -6.5t3.5 -14.5l-325 -2308h1428z" />
    <glyph glyph-name="M" unicode="M" horiz-adv-x="2885" 
d="M2790 2461q15 19 33 19h31q20 0 18 -21l-342 -2438q-4 -21 -25 -21h-87q-20 0 -17 21l303 2156l-1290 -1674q-20 -25 -33 0l-819 1674l-302 -2156q-4 -21 -25 -21h-87q-20 0 -17 21l342 2438q1 9 8 15t16 6h25q17 0 28 -19l875 -1766z" />
    <glyph glyph-name="N" unicode="N" horiz-adv-x="2524" 
d="M2488 2440q20 0 18 -21l-342 -2438q-4 -21 -24 -21h-7q-20 0 -28 12l-1538 2239l-307 -2190q-4 -21 -25 -21h-87q-20 0 -17 21l342 2438q1 9 8 15t16 6h7q17 0 27 -12l1538 -2239l308 2190q1 9 8 15t16 6h87z" />
    <glyph glyph-name="O" unicode="O" horiz-adv-x="2833" 
d="M1648 2465q217 0 407 -76t330 -213.5t221 -341t81 -445.5q0 -210 -54 -402.5t-149.5 -346t-227.5 -279.5t-285.5 -210.5t-325.5 -130t-347 -45.5q-217 0 -407 76t-330.5 213.5t-221.5 341t-81 445.5q0 210 54 402.5t149.5 346t227.5 279.5t286 210.5t326 130t347 45.5z
M1314 86q160 0 315.5 42.5t292 121t253 194.5t200 256.5t130.5 314.5t47 362q0 218 -69.5 401.5t-192 309.5t-292 196t-366.5 70q-160 0 -315.5 -42.5t-292 -121t-253 -194.5t-200 -256.5t-130.5 -314.5t-47 -362q0 -218 69.5 -401.5t192 -309.5t292 -196t366.5 -70z" />
    <glyph glyph-name="P" unicode="P" horiz-adv-x="2145" 
d="M1329 2440q166 0 302 -34.5t228.5 -94t155 -142t91 -177t28.5 -200.5q0 -129 -37.5 -248.5t-118.5 -226t-197.5 -186t-286 -125.5t-372.5 -46h-730l-132 -939q-1 -8 -9 -14.5t-16 -6.5h-87q-8 0 -13.5 6.5t-3.5 14.5l336 2398q1 8 8.5 14.5t15.5 6.5h87h751zM1117 1072
q187 0 338.5 40.5t251 108t167 160t96.5 192.5t29 209q0 89 -23 168t-76.5 149.5t-133.5 120.5t-200.5 79.5t-271.5 29.5h-711l-176 -1257h710z" />
    <glyph glyph-name="Q" unicode="Q" horiz-adv-x="2833" 
d="M2687 1389q0 -206 -52 -395.5t-145 -342.5t-220.5 -277.5t-278 -211t-317.5 -134.5q21 -133 95 -228t174 -138.5t215 -43.5q22 0 18 -21l-12 -81q-3 -21 -25 -21q-78 0 -153.5 19.5t-145 61t-124.5 100.5t-93 143t-50 184q-140 -28 -275 -28q-217 0 -407 76t-330.5 213.5
t-221.5 341t-81 445.5q0 210 54 402.5t149.5 346t227.5 279.5t286 210.5t326 130t347 45.5q217 0 407 -76t330 -213.5t221 -341t81 -445.5zM1314 86q160 0 315.5 42.5t292 121t253 194.5t200 256.5t130.5 314.5t47 362q0 218 -69.5 401.5t-192 309.5t-292 196t-366.5 70
q-160 0 -315.5 -42.5t-292 -121t-253 -194.5t-200 -256.5t-130.5 -314.5t-47 -362q0 -218 69.5 -401.5t192 -309.5t292 -196t366.5 -70z" />
    <glyph glyph-name="R" unicode="R" horiz-adv-x="2286" 
d="M2097 1811q0 -141 -46 -268t-136 -234t-237 -183.5t-337 -106.5l512 -977q7 -15 -2 -28.5t-27 -13.5h-86q-12 0 -20 15l-516 989q-49 -4 -115 -4h-690l-137 -979q-1 -8 -9 -14.5t-16 -6.5h-87q-8 0 -13.5 6.5t-3.5 14.5l336 2398q1 8 8.5 14.5t15.5 6.5h87h711
q208 0 366 -49.5t253 -137t142 -199t47 -243.5zM1083 1112q157 0 288.5 26t226 74t165.5 111.5t114 141.5t63.5 161t20.5 174q0 89 -23.5 166t-77 144.5t-134 115.5t-201 75.5t-271.5 27.5h-671l-170 -1217h670z" />
    <glyph glyph-name="S" unicode="S" horiz-adv-x="2180" 
d="M543 1782q0 -64 20 -118.5t49 -94t83 -75.5t100.5 -59.5t123.5 -49.5t130.5 -41t141.5 -38q106 -28 160 -43t148 -47.5t145 -61t117.5 -76t100.5 -99.5t58.5 -125t24.5 -159q0 -151 -55.5 -273.5t-148.5 -204.5t-220 -137.5t-265.5 -80t-289.5 -24.5q-496 0 -821 272
q-20 16 -8 35l38 61q16 21 35 7q158 -128 336.5 -196t438.5 -68q131 0 249 20.5t224 65.5t182.5 112t121.5 166t45 221q0 114 -48 200t-128.5 140t-185.5 94.5t-220.5 71t-231 61.5t-220.5 73.5t-185.5 99.5t-128.5 148.5t-48 210.5q0 154 64 282.5t182.5 220t295.5 142
t396 50.5q128 0 241.5 -18.5t204 -52.5t156.5 -68.5t134 -80.5q18 -12 5 -33l-40 -65q-14 -20 -36 -5q-63 44 -124.5 77.5t-145 67t-187.5 51.5t-220 18q-376 0 -585 -157.5t-209 -416.5z" />
    <glyph glyph-name="T" unicode="T" horiz-adv-x="2375" 
d="M2398 2440q8 0 14 -6.5t5 -14.5l-10 -69q-2 -8 -9 -14.5t-15 -6.5h-920l-323 -2308q-1 -8 -9 -14.5t-16 -6.5h-87q-8 0 -13.5 6.5t-3.5 14.5l323 2308h-919q-8 0 -13.5 6.5t-3.5 14.5l9 69q1 8 8.5 14.5t15.5 6.5h1027h940z" />
    <glyph glyph-name="U" unicode="U" horiz-adv-x="2445" 
d="M2408 2440q8 0 13.5 -6.5t4.5 -14.5l-198 -1409q-47 -336 -199.5 -573t-388.5 -357t-539 -120q-459 0 -680.5 273t-151.5 777l198 1409q1 8 8.5 14.5t15.5 6.5h87q8 0 13.5 -6.5t4.5 -14.5l-195 -1389q-64 -459 117.5 -709t597.5 -250q417 0 669.5 250t316.5 709
l195 1389q1 8 8.5 14.5t15.5 6.5h87z" />
    <glyph glyph-name="V" unicode="V" horiz-adv-x="2332" 
d="M2469 2440q11 0 16 -6t-1 -19l-1379 -2438q-10 -17 -29 -17h-40q-18 0 -23 17l-715 2439q-8 24 20 24h104q18 0 23 -17l639 -2259l1259 2259q9 17 28 17h98z" />
    <glyph glyph-name="W" unicode="W" horiz-adv-x="3238" 
d="M3376 2440q27 0 15 -24l-1120 -2439q-9 -17 -28 -17h-31q-18 0 -23 17l-394 2090l-975 -2090q-9 -17 -28 -17h-34q-19 0 -23 17l-439 2438q-5 25 21 25h94q21 0 23 -17l380 -2225l970 2095q8 17 27 17h32q18 0 22 -17l393 -2095l999 2226q7 16 26 16h93z" />
    <glyph glyph-name="X" unicode="X" horiz-adv-x="2627" 
d="M2492 2440q33 0 8 -27l-1106 -1181l789 -1205q8 -13 3 -20t-19 -7h-105q-21 0 -31 15l-731 1117l-1044 -1120q-11 -12 -28 -12h-94q-14 0 -17.5 7t9.5 23l1115 1192l-777 1188q-9 16 -2.5 23t21.5 7h99q13 0 19.5 -3.5t13.5 -15.5l720 -1099l1026 1103q14 15 35 15h96z
" />
    <glyph glyph-name="Y" unicode="Y" horiz-adv-x="2254" 
d="M2390 2440q12 0 17 -6t-3 -18l-1197 -1535l-121 -860q-1 -8 -8 -14.5t-15 -6.5h-87q-8 0 -14 6.5t-5 14.5l120 859l-779 1536q-5 11 1.5 17.5t18.5 6.5h100q16 0 23 -17l718 -1425l1107 1425q14 17 29 17h95z" />
    <glyph glyph-name="Z" unicode="Z" horiz-adv-x="2352" 
d="M108 0q-20 0 -17 21l3 27q1 13 12 27l2046 2254h-1647q-8 0 -13.5 6.5t-4.5 14.5l10 69q1 8 8.5 14.5t15.5 6.5h1817q9 0 14 -6t4 -15l-3 -27q-4 -16 -13 -27l-2045 -2254h1746q8 0 13.5 -6.5t4.5 -14.5l-9 -69q-1 -8 -9 -14.5t-16 -6.5h-1917z" />
    <glyph glyph-name="bracketleft" unicode="[" horiz-adv-x="923" 
d="M931 2469h-352l-422 -3002h352q9 0 14 -6t4 -15l-7 -50q-1 -9 -8 -15t-15 -6h-436q-8 0 -14 6.5t-5 14.5l442 3143q1 8 8.5 14.5t15.5 6.5h436q20 0 17 -21l-6 -50q-1 -8 -8 -14t-16 -6z" />
    <glyph glyph-name="backslash" unicode="\" horiz-adv-x="2212" 
d="M410 2616l1608 -2649q5 -7 2.5 -15.5t-9.5 -11.5l-52 -27q-20 -8 -30 11l-1608 2649q-4 7 -2 15.5t9 11.5l52 27q20 8 30 -11z" />
    <glyph glyph-name="bracketright" unicode="]" horiz-adv-x="923" 
d="M904 2560q8 0 13.5 -6.5t3.5 -14.5l-441 -3143q-2 -8 -8.5 -14.5t-14.5 -6.5h-436q-9 0 -14.5 6t-4.5 15l8 50q4 21 24 21h352l422 3002h-352q-9 0 -14 6t-4 14l6 50q4 21 25 21h435z" />
    <glyph glyph-name="asciicircum" unicode="^" horiz-adv-x="1635" 
d="M1704 1855q9 -15 -0.5 -30t-27.5 -15h-57q-10 0 -15 8l-519 905l-774 -905q-6 -8 -16 -8h-57q-19 0 -24.5 15t7.5 30l814 936q6 9 16 9h90q9 0 13 -9z" />
    <glyph glyph-name="underscore" unicode="_" horiz-adv-x="1397" 
d="M19 -101q-9 0 -14 6t-3 15l8 59q1 9 8 15t16 6h1343q9 0 14 -6t4 -15l-7 -59q-4 -21 -25 -21h-1344z" />
    <glyph glyph-name="grave" unicode="`" horiz-adv-x="652" 
d="M577 1887l-525 445q-18 12 -3 29l48 60q5 7 14 8.5t16 -3.5l512 -461q15 -13 2 -30l-33 -42q-16 -18 -31 -6z" />
    <glyph glyph-name="a" unicode="a" horiz-adv-x="2072" 
d="M1941 1619l-143 -1019q-14 -99 -17.5 -178t5 -149t18 -116t29.5 -122q5 -23 -16 -31l-57 -20q-15 -6 -22 5q-94 216 -84 444q-122 -210 -326.5 -334t-447.5 -124q-200 0 -362.5 90t-257.5 258.5t-95 385.5q0 140 37 269t102.5 233t155.5 190t195.5 143.5t224 89
t238.5 31.5q241 0 408 -131t229 -353l62 438q2 9 8.5 15t15.5 6h82q9 0 14 -6t4 -15zM906 86q162 0 312 65t261 174.5t177 263t66 321.5q0 185 -75.5 331t-215 229t-318.5 83q-157 0 -305 -60t-261.5 -166.5t-182.5 -265t-69 -341.5q0 -143 47 -262.5t129 -200.5t194 -126
t241 -45z" />
    <glyph glyph-name="b" unicode="b" horiz-adv-x="2091" 
d="M1191 1665q200 0 362.5 -90t257.5 -258.5t95 -386.5q0 -167 -52.5 -318t-144 -265.5t-211.5 -199t-260 -128.5t-284 -44q-241 0 -408 131t-230 352l-61 -437q-1 -9 -8.5 -15t-16.5 -6h-82q-20 0 -17 21l353 2518q4 21 24 21h82q9 0 14 -6t4 -15l-186 -1325
q122 208 325 329.5t444 121.5zM960 86q125 0 245.5 38t223.5 111t181 173t122.5 232.5t44.5 279.5q0 143 -47 262.5t-129 200t-194.5 125.5t-241.5 45q-162 0 -312 -64.5t-260.5 -174t-177 -263t-66.5 -321.5q0 -185 76 -331.5t215.5 -229.5t319.5 -83z" />
    <glyph glyph-name="c" unicode="c" horiz-adv-x="1911" 
d="M1666 449q17 -9 5 -29q-122 -209 -313.5 -327t-443.5 -118q-209 0 -374.5 89.5t-260.5 257.5t-95 386q0 167 51.5 318t143 266t213 200t265.5 129t295 44q251 0 410 -118.5t222 -327.5q8 -19 -14 -28l-75 -33q-19 -8 -27 10q-56 184 -189 284.5t-339 100.5
q-165 0 -315.5 -60.5t-263.5 -167.5t-180 -265t-67 -343q0 -286 173.5 -458.5t448.5 -172.5q400 0 634 386q15 18 30 10z" />
    <glyph glyph-name="d" unicode="d" horiz-adv-x="2092" 
d="M2073 2560q20 0 18 -21l-354 -2518q-2 -9 -8.5 -15t-15.5 -6h-82q-9 0 -14.5 6t-4.5 15l57 405q-122 -207 -325 -329t-444 -122q-200 0 -362.5 90t-257.5 258.5t-95 385.5q0 140 37 269t102.5 233t155.5 190t195.5 143.5t224 89t238.5 31.5q241 0 408 -131t230 -353
l191 1358q3 21 23 21h83zM926 86q162 0 312 65t261 174.5t177 263t66 321.5q0 185 -75.5 331t-215 229t-318.5 83q-157 0 -305 -60t-261.5 -166.5t-182.5 -265t-69 -341.5q0 -143 47 -262.5t129 -200.5t194 -126t241 -45z" />
    <glyph glyph-name="e" unicode="e" horiz-adv-x="1943" 
d="M1760 862h-1434q-11 -72 -11 -142q0 -143 47 -262.5t129 -200.5t194 -126t241 -45q410 0 636 381q12 18 31 10l65 -33q18 -9 6 -29q-127 -216 -320.5 -328t-438.5 -112q-152 0 -284.5 52.5t-229 147t-151.5 232.5t-55 301q0 207 77.5 388t207 304.5t300.5 194t357 70.5
q163 0 292.5 -54.5t214 -155.5t118.5 -253.5t8 -339.5zM1112 1558q-266 0 -480 -164.5t-287 -435.5h1288q24 282 -120 441t-401 159z" />
    <glyph glyph-name="f" unicode="f" horiz-adv-x="1361" 
d="M1563 2456q20 -16 5 -36l-37 -49q-14 -18 -37 -3q-129 121 -312 121q-106 0 -189 -36.5t-137.5 -103t-87 -150.5t-47.5 -189l-52 -370h701q20 0 18 -21l-9 -70q-1 -9 -8.5 -15t-16.5 -6h-701l-211 -1507q-4 -21 -24 -21h-83q-8 0 -13 6t-4 15l212 1507h-310q-20 0 -17 21
l9 70q1 9 8 15t16 6h310l53 380q17 125 63.5 229t119.5 181.5t176.5 121t227.5 43.5q112 0 212 -39.5t165 -99.5z" />
    <glyph glyph-name="g" unicode="g" horiz-adv-x="1860" 
d="M1855 1705q20 0 17 -19l-11 -76q-2 -17 -19 -17q-100 0 -183 -50t-122 -138q70 -107 70 -250q0 -125 -57.5 -240.5t-154.5 -201t-233.5 -137t-286.5 -51.5h-208q-208 0 -311.5 -72.5t-103.5 -183.5q0 -190 353 -190h265q335 0 514.5 -120t179.5 -328q0 -122 -54.5 -224.5
t-158 -177.5t-262.5 -117t-359 -42q-337 0 -517 119t-180 319q0 170 130.5 296t339.5 191q-103 5 -176 26.5t-114 56t-59 76t-18 93.5q0 66 27 123.5t81 104t140.5 77.5t199.5 41q-134 58 -210.5 177t-76.5 264q0 125 58 241t155.5 201.5t234.5 137t288 51.5
q143 0 259 -47.5t194 -131.5q57 100 157 159.5t212 59.5zM886 626q120 0 230.5 42t190.5 112t127.5 165.5t47.5 199.5q0 181 -129 299.5t-335 118.5q-120 0 -230.5 -43t-190.5 -113.5t-127.5 -166t-47.5 -196.5q0 -178 127.5 -298t336.5 -120zM1443 -385q0 166 -150.5 264.5
t-437.5 98.5q-184 0 -343.5 -55.5t-258.5 -160t-99 -234.5q0 -168 150.5 -265t436.5 -97q337 0 519.5 122t182.5 327z" />
    <glyph glyph-name="h" unicode="h" horiz-adv-x="1963" 
d="M1226 1680q127 0 224.5 -32t160 -91.5t100 -143.5t43.5 -188t-9 -226l-137 -978q-4 -21 -23 -21h-83q-9 0 -14.5 6t-4.5 15l133 939q41 293 -64 450.5t-371 157.5q-176 0 -343 -81.5t-285.5 -220t-164.5 -303.5l-133 -942q-2 -21 -23 -21h-83q-8 0 -13.5 6t-4.5 15
l354 2518q2 9 8.5 15t15.5 6h83q8 0 13 -6t4 -15l-186 -1321q49 81 125 158.5t177 147.5t232.5 113t268.5 43z" />
    <glyph glyph-name="i" unicode="i" horiz-adv-x="695" 
d="M517 2023q-39 0 -65 27t-26 66q0 46 37 81t83 35q39 0 65 -27t26 -66q0 -46 -37 -81t-83 -35zM398 1619q2 21 23 21h82q9 0 14.5 -6t4.5 -15l-225 -1598q-2 -9 -8.5 -15t-15.5 -6h-82q-9 0 -14 6t-4 15z" />
    <glyph glyph-name="j" unicode="j" horiz-adv-x="684" 
d="M506 2023q-39 0 -65 27t-26 66q0 46 36.5 81t83.5 35q39 0 65 -27t26 -66q0 -46 -37 -81t-83 -35zM-298 -920q-11 0 -16.5 5t-4.5 15l8 62q3 18 24 21q173 5 269.5 126t133.5 382l271 1928q2 9 8.5 15t15.5 6h83q20 0 17 -21l-271 -1930q-20 -140 -60.5 -249.5t-105 -191
t-159 -125t-213.5 -43.5z" />
    <glyph glyph-name="k" unicode="k" horiz-adv-x="1674" 
d="M484 2539q1 9 8 15t16 6h82q20 0 18 -21l-353 -2518q-1 -9 -8.5 -15t-16.5 -6h-82q-20 0 -17 21zM1339 0q-17 0 -29 15l-724 885l904 729q14 11 29 11h107q12 0 15 -7.5t-7 -16.5l-897 -721l708 -868q8 -12 3.5 -19.5t-18.5 -7.5h-91z" />
    <glyph glyph-name="l" unicode="l" horiz-adv-x="610" 
d="M485 2539q1 9 8 15t16 6h82q20 0 18 -21l-354 -2518q-2 -9 -8.5 -15t-15.5 -6h-82q-9 0 -14 6t-4 15z" />
    <glyph glyph-name="m" unicode="m" horiz-adv-x="3110" 
d="M2399 1680q124 0 218 -32.5t153.5 -92t94 -144t39 -189t-10.5 -226.5l-137 -975q-4 -21 -24 -21h-82q-9 0 -14 6t-4 15l131 937q86 610 -410 610q-169 0 -328 -94.5t-266 -252.5t-132 -337l-121 -863q-4 -21 -24 -21h-82q-9 0 -14.5 6t-4.5 15l132 937q86 610 -410 610
q-169 0 -328 -94.5t-266 -252.5t-132 -337l-122 -863q-2 -21 -23 -21h-83q-8 0 -13.5 6t-4.5 15l225 1598q4 21 24 21h82q9 0 14 -6t4 -15l-60 -422q36 65 83 127.5t116.5 128.5t146.5 115t177.5 80.5t205.5 31.5q132 0 229.5 -36.5t156.5 -105.5t87.5 -162.5t28.5 -212.5
q47 95 119 184t166 165t215 122t248 46z" />
    <glyph glyph-name="n" unicode="n" 
d="M1234 1680q127 0 224.5 -32t160 -91.5t100 -143.5t43.5 -188t-9 -226l-137 -978q-4 -21 -24 -21h-82q-9 0 -14.5 6t-4.5 15l132 939q85 608 -435 608q-143 0 -283.5 -56t-250 -149.5t-184.5 -219.5t-94 -260l-121 -862q-2 -21 -23 -21h-83q-8 0 -13.5 6t-4.5 15l225 1598
q4 21 24 21h82q9 0 14 -6t4 -15l-60 -422q35 63 88.5 127t131.5 129t166 115t200.5 81t227.5 31z" />
    <glyph glyph-name="o" unicode="o" horiz-adv-x="2058" 
d="M1148 1665q205 0 369.5 -90t260.5 -258.5t96 -386.5q0 -167 -52.5 -317.5t-144.5 -265.5t-213 -199.5t-263.5 -128.5t-290.5 -44q-153 0 -286 53t-230 147.5t-153 232.5t-56 302q0 167 52.5 317.5t144.5 265.5t213 199.5t263 128.5t290 44zM926 86q123 0 243 38
t223.5 111t182 173t124 232.5t45.5 279.5q0 143 -47 262.5t-129 200t-194 125.5t-241 45q-124 0 -243.5 -37.5t-223 -111t-182.5 -173t-124 -232t-45 -279.5q0 -143 47 -262.5t129 -200.5t194 -126t241 -45z" />
    <glyph glyph-name="p" unicode="p" horiz-adv-x="2092" 
d="M1191 1665q150 0 281.5 -53t227.5 -147t151.5 -233t55.5 -302q0 -167 -52.5 -318t-144 -265.5t-211.5 -199t-260.5 -128.5t-284.5 -44q-241 0 -408 131t-230 353l-191 -1359q-3 -20 -23 -20h-83q-20 0 -18 20l354 2519q2 9 8.5 15t15.5 6h82q9 0 14 -6t4 -15l-58 -407
q122 209 325.5 331t444.5 122zM959 86q157 0 305 60.5t261.5 166.5t182.5 265t69 342q0 143 -47 262.5t-129 200t-194 125.5t-241 45q-162 0 -312 -64.5t-261 -174t-177 -263t-66 -321.5q0 -138 44.5 -257.5t123.5 -204.5t193 -133.5t248 -48.5z" />
    <glyph glyph-name="q" unicode="q" horiz-adv-x="2092" 
d="M1943 1638q20 0 18 -21l-354 -2519q-1 -8 -8 -14t-16 -6h-82q-9 0 -14.5 6t-3.5 14l186 1325q-122 -207 -325.5 -328.5t-443.5 -121.5q-200 0 -362.5 90t-257.5 258.5t-95 385.5q0 140 37 269t102.5 233t155.5 190t195.5 143.5t224 89t238.5 31.5q241 0 408 -131.5
t229 -354.5l62 440q1 9 8 15t16 6h82zM926 84q162 0 312 65t261 174.5t177 263t66 321.5q0 185 -75.5 331t-215 229t-319.5 83q-157 0 -305 -60t-261.5 -166.5t-182.5 -265t-69 -341.5q0 -143 47 -262.5t129.5 -200.5t194.5 -126t241 -45z" />
    <glyph glyph-name="r" unicode="r" horiz-adv-x="1098" 
d="M1086 1679q23 0 19 -21l-12 -89q-2 -17 -24 -20q-99 -4 -213 -59t-213.5 -142t-173.5 -209.5t-92 -249.5l-122 -868q-3 -21 -23 -21h-83q-8 0 -13.5 6t-4.5 15l225 1598q4 21 24 21h82q9 0 14 -6t4 -15l-63 -451q38 89 115.5 181.5t169.5 165t195.5 118.5t188.5 46z" />
    <glyph glyph-name="s" unicode="s" horiz-adv-x="1621" 
d="M418 1197q0 -67 33 -117.5t88.5 -82t127 -56t151.5 -44.5t159.5 -41t151 -52.5t127 -73t88.5 -106.5t33 -150q0 -110 -40 -197.5t-105 -143t-153.5 -92t-179 -51.5t-187.5 -15q-317 0 -602 184q-17 11 -6 29l37 59q13 22 31 11q261 -177 550 -177q75 0 143.5 9.5t140 35
t123 65t84.5 106t33 151.5q0 63 -27 113.5t-65 82.5t-106 61.5t-121 45.5t-139 39q-98 26 -148.5 41.5t-129 50t-118 70.5t-70.5 95.5t-31 133.5q0 149 83.5 260t229 167.5t332.5 56.5q284 0 530 -172q17 -12 6 -30l-37 -60q-12 -19 -29 -9q-117 83 -232 123.5t-251 40.5
q-224 0 -364.5 -98.5t-140.5 -262.5z" />
    <glyph glyph-name="t" unicode="t" horiz-adv-x="1478" 
d="M1389 1640q9 0 14.5 -6t4.5 -15l-10 -70q-4 -21 -24 -21h-701l-136 -968q-65 -474 281 -474q186 0 358 131q23 13 32 -6l20 -54q7 -19 -15 -35q-207 -147 -426 -147q-455 0 -375 575l138 978h-330q-20 0 -17 21l9 70q1 9 8 15t16 6h329l56 396q1 16 24 22l82 23
q14 4 18.5 -0.5t3.5 -15.5l-60 -425h700z" />
    <glyph glyph-name="u" unicode="u" 
d="M1821 1640q9 0 14.5 -6t4.5 -15l-225 -1598q-2 -9 -8.5 -15t-15.5 -6h-82q-20 0 -18 21l59 422q-35 -63 -88.5 -127t-131 -129t-166 -115t-201 -81t-227.5 -31q-127 0 -224.5 32t-160 91.5t-99.5 143.5t-43 188t9 226l137 978q2 9 8.5 15t15.5 6h82q9 0 14 -6t4 -15
l-132 -939q-85 -609 435 -609q143 0 284 56.5t250 149.5t184.5 219.5t94.5 260.5l121 862q4 21 23 21h82z" />
    <glyph glyph-name="v" unicode="v" horiz-adv-x="1592" 
d="M1664 1640q15 0 19 -12t-5 -27l-975 -1631q-6 -10 -18 -10h-18q-12 0 -15 10l-518 1631q-5 14 2 26.5t23 12.5h87q16 0 21 -17l440 -1450l844 1450q11 17 27 17h86z" />
    <glyph glyph-name="w" unicode="w" horiz-adv-x="2560" 
d="M2633 1640q15 0 18.5 -11.5t-4.5 -25.5l-836 -1633q-6 -10 -18 -10h-20q-12 0 -15 10l-418 1275l-777 -1275q-6 -10 -18 -10h-17q-12 0 -15 10l-379 1633q-5 14 2 25.5t22 11.5h85q16 0 21 -18l320 -1434l753 1244q11 18 22 18h17q13 0 19 -18l404 -1244l723 1434
q11 18 27 18h84z" />
    <glyph glyph-name="x" unicode="x" horiz-adv-x="1718" 
d="M1677 1640q13 0 15.5 -6.5t-10.5 -20.5l-755 -777l562 -809q8 -13 3.5 -20t-16.5 -7h-106q-17 0 -25 12l-506 730l-691 -727q-14 -15 -36 -15h-98q-12 0 -16 7t9 23l770 800l-543 783q-8 13 -3.5 20t15.5 7h103q20 0 30 -15l487 -702l673 702q12 15 31 15h107z" />
    <glyph glyph-name="y" unicode="y" horiz-adv-x="1601" 
d="M1674 1640q14 0 18 -12t-6 -27l-941 -1609q-115 -196 -203 -331t-181 -252.5t-176.5 -185.5t-175 -105.5t-190.5 -37.5q-23 0 -20 20l8 62q4 20 24 21q95 3 183 51t187 159t202.5 265.5t245.5 397.5l-514 1545q-6 15 1.5 27t23.5 12h86q14 0 21 -17l458 -1436l835 1436
q9 17 31 17h83z" />
    <glyph glyph-name="z" unicode="z" horiz-adv-x="1825" 
d="M59 0q-9 0 -14.5 5.5t-4.5 13.5l2 11q4 16 13 27l1423 1471h-1134q-8 0 -14 6.5t-5 14.5l10 70q1 8 9 14.5t16 6.5h1317q21 0 18 -18l-2 -12q-1 -15 -12 -27l-1424 -1472h1225q8 0 13.5 -6.5t4.5 -14.5l-9 -69q-1 -8 -8.5 -14.5t-15.5 -6.5h-1408z" />
    <glyph glyph-name="braceleft" unicode="{" horiz-adv-x="995" 
d="M1007 2470q-79 -4 -140 -26.5t-112 -68t-83.5 -124.5t-44.5 -190q-9 -78 -12.5 -306t-10.5 -289q-21 -209 -93 -328.5t-206 -169.5q178 -77 178 -345q0 -94 -44.5 -268t-89 -343t-44.5 -251q0 -149 71.5 -218.5t207.5 -77.5q18 -2 16 -18l-7 -44q-2 -19 -22 -19
q-178 2 -276 92.5t-98 274.5q0 69 28 192t61.5 236t61.5 237.5t28 196.5q0 264 -192 314q-16 3 -14 18l6 45q3 16 20 18q265 52 301 468q7 62 11 287.5t13 303.5q25 246 154.5 364t341.5 120q8 1 13 -4.5t3 -13.5l-6 -44q-2 -17 -20 -19z" />
    <glyph glyph-name="bar" unicode="|" horiz-adv-x="590" 
d="M538 2919q1 8 8 14.5t15 6.5h63q8 0 13.5 -6.5t4.5 -14.5l-467 -3323q-2 -8 -9 -14.5t-15 -6.5h-63q-8 0 -13.5 6.5t-3.5 14.5z" />
    <glyph glyph-name="braceright" unicode="}" horiz-adv-x="996" 
d="M853 1008q16 -2 14 -18l-6 -45q-3 -15 -20 -18q-263 -54 -301 -468q-7 -62 -11 -287.5t-13 -303.5q-25 -245 -155 -363.5t-341 -120.5q-18 0 -16 19l6 44q2 16 20 18q79 5 140 27t112 68t83.5 125t44.5 189q9 77 12.5 305t11.5 291q20 209 92 328t206 170
q-179 77 -179 344q0 75 28 201.5t61.5 239.5t61.5 234t28 187q0 149 -71.5 218.5t-207.5 77.5q-18 2 -15 19l6 44q1 8 7 13.5t14 4.5q178 -2 276.5 -92.5t98.5 -274.5q0 -69 -28 -192t-61.5 -236t-61.5 -237.5t-28 -196.5q0 -145 52.5 -220.5t139.5 -93.5z" />
    <glyph glyph-name="asciitilde" unicode="~" horiz-adv-x="2182" 
d="M1994 1198q14 -9 6 -23q-69 -145 -210.5 -245t-297.5 -100q-83 0 -158 22.5t-127.5 55.5t-110 72.5t-106.5 72.5t-116 55.5t-139 22.5q-127 0 -245.5 -79.5t-175.5 -187.5q-14 -22 -33 -11l-34 19q-13 8 -5 23q69 145 210.5 245t297.5 100q83 0 158 -22.5t127.5 -55.5
t110 -72.5t106.5 -72.5t116 -55.5t139 -22.5q128 0 246 79.5t175 187.5q13 21 33 11z" />
    <glyph glyph-name="exclamdown" unicode="&#xa1;" horiz-adv-x="680" 
d="M459 1665q38 0 64 -27t26 -66q0 -46 -36.5 -81t-83.5 -35q-38 0 -64.5 27.5t-26.5 65.5q0 46 37 81t84 35zM180 -779q-1 -9 -8 -15t-16 -6h-82q-9 0 -14 6t-4 15l271 1811q1 9 8 15t15 6h51q8 0 13.5 -6t4.5 -15z" />
    <glyph glyph-name="cent" unicode="&#xa2;" horiz-adv-x="1911" 
d="M1784 1219q8 -19 -14 -28l-75 -33q-19 -8 -27 10q-56 184 -189 284.5t-339 100.5q-165 0 -315.5 -60.5t-263.5 -167.5t-180 -265t-67 -343q0 -286 173.5 -458.5t448.5 -172.5q400 0 634 386q15 18 30 10l66 -33q17 -9 5 -29q-118 -201 -300.5 -318.5t-420.5 -125.5
l-56 -398q-2 -9 -9 -15.5t-16 -6.5h-58q-8 0 -14 7t-5 15l57 399q-144 11 -267 68t-211 150.5t-137.5 225.5t-49.5 287q0 199 73.5 374t197.5 297t288 197t344 87l50 357q1 8 7.5 14.5t14.5 6.5h60q8 0 13.5 -6.5t4.5 -14.5l-50 -356q236 -8 386 -126t211 -319z" />
    <glyph glyph-name="sterling" unicode="&#xa3;" horiz-adv-x="2254" 
d="M2185 2084q17 -22 5 -32l-51 -50q-23 -21 -37 -5q-265 357 -662 357q-294 0 -478 -147.5t-218 -396.5q-11 -77 -10.5 -159.5t6 -135t18 -144t16.5 -131.5h846q9 0 14.5 -6.5t3.5 -14.5l-8 -59q-4 -21 -24 -21h-825q5 -102 -8 -200.5t-52 -224.5t-119.5 -279t-202.5 -330
q110 38 226 49.5t218.5 2t208 -27.5t211 -35t209.5 -24.5t221 7.5t230 57q14 4 22.5 -2t6.5 -20l-9 -67q-2 -15 -21 -20q-129 -44 -258 -59.5t-238 -7.5t-218 26t-215.5 36.5t-211 28.5t-224 -1.5t-237.5 -50.5q-19 -7 -24 7l-25 62q-3 8 4 18q122 188 202.5 346t118 285.5
t49 224.5t5.5 199h-381q-9 0 -14.5 6t-4.5 15l9 59q1 8 8 14.5t16 6.5h358q-3 26 -16 126.5t-17 147.5t-4 135t12 171q20 140 84.5 257.5t167.5 204t249.5 135t321.5 48.5q133 0 249 -30t206.5 -85.5t159.5 -119.5t131 -146z" />
    <glyph glyph-name="currency" unicode="&#xa4;" horiz-adv-x="2747" 
d="M2705 2065q14 -17 -5 -33l-442 -363q102 -138 144.5 -311t15.5 -363q-26 -190 -117.5 -363t-231.5 -310l338 -364q8 -7 7 -16.5t-9 -16.5l-57 -50q-18 -18 -32 1l-312 387q-160 -136 -353.5 -212t-395.5 -76q-203 0 -374.5 75.5t-293.5 211.5l-421 -386q-7 -8 -17 -8.5
t-16 7.5l-41 50q-7 7 -5 16.5t10 16.5l441 364q-102 137 -144.5 310t-15.5 363t118 362.5t232 310.5l-339 364q-17 15 3 33l56 50q20 18 33 -2l312 -386q160 136 353.5 212t395.5 76t374 -75.5t294 -211.5l421 385q17 20 33 2zM2299 995q26 186 -22 354.5t-152 290
t-260 193.5t-339 72q-182 0 -358.5 -72t-315 -193.5t-233.5 -290t-121 -354.5t22 -355t151.5 -290.5t260 -193.5t338.5 -72t359 72t315 193.5t233.5 290.5t121.5 355z" />
    <glyph glyph-name="yen" unicode="&#xa5;" horiz-adv-x="2254" 
d="M2390 2440q12 0 17 -6t-3 -18l-1116 -1431h419q9 0 14 -6t4 -15l-6 -48q-4 -20 -24 -20h-477l-11 -15l-45 -321h486q9 0 14 -6t4 -15l-7 -47q-2 -9 -8.5 -15t-15.5 -6h-486l-63 -450q-1 -8 -8 -14.5t-15 -6.5h-87q-8 0 -14 6.5t-5 14.5l63 450h-488q-9 0 -14 6t-4 15
l7 47q2 9 8.5 15t15.5 6h488l44 320l-8 16h-477q-9 0 -14.5 6t-3.5 14l7 48q3 21 23 21h420l-726 1431q-5 11 1.5 17.5t18.5 6.5h100q16 0 23 -17l718 -1425l1107 1425q14 17 29 17h95z" />
    <glyph glyph-name="brokenbar" unicode="&#xa6;" horiz-adv-x="590" 
d="M538 2919q1 8 8 14.5t15 6.5h63q8 0 13.5 -6.5t4.5 -14.5l-154 -1098q-1 -8 -8.5 -14.5t-15.5 -6.5h-63q-8 0 -13.5 6.5t-3.5 14.5zM225 694q2 8 9 14.5t15 6.5h62q8 0 14 -6.5t5 -14.5l-155 -1098q-2 -8 -9 -14.5t-15 -6.5h-63q-8 0 -13.5 6.5t-3.5 14.5z" />
    <glyph glyph-name="section" unicode="&#xa7;" horiz-adv-x="2204" 
d="M2157 2113q1 -15 -6.5 -24t-19.5 -9h-81q-17 0 -18 20q-11 634 -643 634q-342 0 -560 -172.5t-260 -469.5q-12 -82 2 -153.5t39 -123.5t83 -102t104 -81t134 -69.5t140.5 -58t154.5 -55.5q109 -38 164.5 -59t152 -64t143.5 -77t112 -93t86 -118t38.5 -145t-4 -181.5
t-69.5 -220t-130 -267.5q169 -169 131 -436q-48 -346 -315 -547t-680 -201q-384 0 -586 189.5t-206 538.5q-1 14 6.5 23t18.5 9h82q17 0 17 -20q6 -307 174.5 -471t508.5 -164q362 0 585.5 172.5t265.5 470.5q36 253 -157 408q-115 93 -369 186q-43 15 -130 46
q-258 89 -370 146q-230 118 -301 287q-121 286 171 800q-162 167 -125 431q32 228 162 398t337 260t466 90q373 0 560.5 -188t191.5 -539zM1646 286q82 155 121 285t36.5 225t-37.5 174.5t-94 134t-140.5 103t-170 81.5t-189 70t-191.5 68.5t-183.5 76.5t-158.5 94
q-244 -455 -113 -707q78 -149 307 -258q97 -46 350 -135q257 -90 376 -157q48 -26 87 -55z" />
    <glyph glyph-name="dieresis" unicode="&#xa8;" horiz-adv-x="890" 
d="M96 2024q-38 0 -63.5 26.5t-25.5 63.5q0 45 35.5 79t81.5 34q37 0 62.5 -26.5t25.5 -64.5q0 -45 -35.5 -78.5t-80.5 -33.5zM766 2024q-37 0 -62.5 26.5t-25.5 63.5q0 45 35.5 79t81.5 34q37 0 62.5 -26.5t25.5 -64.5q0 -45 -36 -78.5t-81 -33.5z" />
    <glyph glyph-name="copyright" unicode="&#xa9;" horiz-adv-x="2909" 
d="M1685 2460q230 0 431.5 -86t343 -233t222.5 -349t81 -429q0 -185 -54 -363.5t-149.5 -330t-230.5 -280t-291.5 -218.5t-337 -140.5t-364.5 -50.5q-230 0 -431.5 85.5t-343 232.5t-222.5 349.5t-81 429.5q0 184 54 363t149.5 330t230.5 280t291.5 219t337 140.5
t364.5 50.5zM1344 31q175 0 347.5 48.5t322 134.5t278 210t220 269t143.5 316.5t52 348.5q0 217 -77.5 411t-212.5 335t-327 223.5t-412 82.5q-175 0 -347.5 -48.5t-322 -135t-278 -210t-220 -269t-143.5 -317t-52 -348.5q0 -217 77.5 -411t212.5 -335t327 -223t412 -82z
M2108 860q11 -5 3 -18q-250 -391 -666 -391q-134 0 -251.5 47t-204 131.5t-136.5 210t-50 274.5q0 193 73 359t193 277t274.5 174t317.5 63q413 0 556 -392q4 -13 -8 -18l-45 -20q-12 -5 -17 7q-127 354 -496 354q-148 0 -286.5 -58.5t-244.5 -161t-169.5 -253t-63.5 -323.5
q0 -270 160 -436.5t408 -166.5q366 0 595 354q7 12 20 7z" />
    <glyph glyph-name="guillemotleft" unicode="&#xab;" horiz-adv-x="1814" 
d="M866 383q6 -5 4 -14l-7 -50q-1 -16 -15 -21.5t-26 4.5l-586 498q-7 5 -7 13l10 64q0 8 9 13l728 498q14 10 26 4.5t10 -21.5l-7 -50q-2 -9 -10 -14l-664 -462zM1625 1388q14 10 26 4.5t10 -21.5l-7 -50q0 -8 -9 -14l-664 -462l534 -462q5 -4 5 -14l-7 -50
q-2 -16 -15.5 -21.5t-26.5 4.5l-586 498q-8 5 -6 13l5 32l4 32q2 8 10 13z" />
    <glyph glyph-name="logicalnot" unicode="&#xac;" horiz-adv-x="2058" 
d="M1847 1105q8 0 13 -6t4 -15l-64 -461q-4 -20 -24 -20h-70q-9 0 -14.5 6t-3.5 14l53 380h-1464q-9 0 -14 6t-4 15l8 60q1 9 8 15t16 6h1556z" />
    <glyph glyph-name="registered" unicode="&#xae;" horiz-adv-x="2909" 
d="M1685 2460q230 0 431.5 -86t343 -233t222.5 -349t81 -429q0 -185 -54 -363.5t-149.5 -330t-230.5 -280t-291.5 -218.5t-337 -140.5t-364.5 -50.5q-230 0 -431.5 85.5t-343 232.5t-222.5 349.5t-81 429.5q0 184 54 363t149.5 330t230.5 280t291.5 219t337 140.5
t364.5 50.5zM1344 31q175 0 347.5 48.5t322 134.5t278 210t220 269t143.5 316.5t52 348.5q0 217 -77.5 411t-212.5 335t-327 223.5t-412 82.5q-175 0 -347.5 -48.5t-322 -135t-278 -210t-220 -269t-143.5 -317t-52 -348.5q0 -217 77.5 -411t212.5 -335t327 -223t412 -82z
M1634 1972q128 0 226 -30.5t156.5 -85t87.5 -123t29 -150.5q0 -87 -28.5 -165t-84 -144t-146.5 -113t-208 -66l316 -603q5 -9 -0.5 -17.5t-17.5 -8.5h-53q-7 0 -12 9l-318 610q-46 -2 -71 -2h-426l-85 -604q-2 -13 -15 -13h-54q-5 0 -8 4t-2 9l207 1480q1 5 5.5 9t9.5 4h54
h438zM1507 1152q116 0 209 23.5t154 63t102 94.5t59 115.5t18 128.5q0 69 -24 126t-74 103t-136 71.5t-202 25.5h-414l-105 -751h413z" />
    <glyph glyph-name="macron" unicode="&#xaf;" horiz-adv-x="1009" 
d="M-1 2149q1 8 8.5 14.5t15.5 6.5h977q8 0 13.5 -6.5t4.5 -14.5l-7 -53q-2 -8 -9 -14.5t-15 -6.5h-978q-8 0 -13 6.5t-4 14.5z" />
    <glyph glyph-name="degree" unicode="&#xb0;" horiz-adv-x="899" 
d="M579 1742q-142 0 -235.5 95.5t-93.5 236.5q0 111 61.5 209t162 155t211.5 57q141 0 234.5 -97t93.5 -239q0 -111 -61 -207.5t-161 -153t-212 -56.5zM592 1834q131 0 228 94.5t97 223.5q0 107 -68.5 179t-176.5 72q-132 0 -228.5 -94.5t-96.5 -225.5q0 -106 68.5 -177.5
t176.5 -71.5z" />
    <glyph glyph-name="plusminus" unicode="&#xb1;" horiz-adv-x="2047" 
d="M1841 1141q9 0 14 -6t3 -15l-8 -59q-2 -21 -23 -21h-722l-101 -722q-1 -8 -8 -14t-16 -6h-59q-9 0 -14 6t-4 14l101 722h-721q-9 0 -14.5 6t-4.5 15l9 59q2 9 8.5 15t15.5 6h722l101 721q4 21 24 21h59q9 0 14 -6t4 -15l-101 -721h721zM1695 101q9 0 14 -6t3 -15l-7 -59
q-2 -9 -8.5 -15t-15.5 -6h-1544q-9 0 -14.5 6t-4.5 15l9 59q2 9 8.5 15t15.5 6h1544z" />
    <glyph glyph-name="acute" unicode="&#xb4;" horiz-adv-x="767" 
d="M59 1887q-17 -12 -28 6l-23 42q-7 17 11 30l642 461q19 12 29 -5l31 -60q10 -17 -10 -29z" />
    <glyph glyph-name="paragraph" unicode="&#xb6;" horiz-adv-x="2114" 
d="M2078 2440q8 0 13.5 -6.5t4.5 -14.5l-397 -2823q-1 -8 -8 -14.5t-15 -6.5h-33q-8 0 -13.5 6.5t-4.5 14.5l389 2775h-850l-390 -2775q-2 -8 -8.5 -14.5t-14.5 -6.5h-33q-8 0 -13.5 6.5t-4.5 14.5l189 1344q-181 5 -326 94.5t-225.5 239t-80.5 329.5q0 167 72 322.5
t190.5 267.5t276.5 179.5t324 67.5h925h33z" />
    <glyph glyph-name="periodcentered" unicode="&#xb7;" horiz-adv-x="680" 
d="M330 750q-38 0 -64 27t-26 66q0 46 36.5 81t83.5 35q38 0 64.5 -27.5t26.5 -65.5q0 -46 -37 -81t-84 -35z" />
    <glyph glyph-name="cedilla" unicode="&#xb8;" horiz-adv-x="1155" 
d="M318 -820q-171 0 -308 84q-15 12 -4 30l16 27q12 20 32 10q69 -37 130 -55.5t141 -18.5q120 0 196.5 68t76.5 178q0 86 -58.5 132t-155.5 46.5t-222 -32.5q-17 -4 -20.5 2t4.5 22l171 344h84l-142 -286q87 25 166.5 21.5t140.5 -28.5t97 -79.5t36 -129.5q0 -99 -52 -176
t-138.5 -118t-190.5 -41z" />
    <glyph glyph-name="guillemotright" unicode="&#xbb;" horiz-adv-x="1814" 
d="M933 813q-2 -8 -10 -13l-726 -498q-14 -10 -26.5 -4.5t-10.5 21.5l7 50q0 8 9 14l665 462l-534 462q-6 5 -6 14l7 50q2 16 16 21.5t25 -4.5l588 -498q7 -5 5 -13l-5 -32zM1586 890q6 -5 6 -13l-10 -64q0 -8 -9 -13l-727 -498q-14 -10 -26 -4.5t-11 21.5l7 50q2 8 10 14
l664 462h1l-535 462q-7 5 -5 14l7 50q1 16 15 21.5t25 -4.5z" />
    <glyph glyph-name="onequarter" unicode="&#xbc;" horiz-adv-x="3522" 
d="M2423 2397q11 19 29 10l40 -20q7 -4 9 -12t-2 -15l-1608 -2650q-5 -8 -13.5 -11t-15.5 1l-40 20q-18 9 -7 28zM964 2397q14 0 12 -14l-221 -1576q-1 -5 -6 -9.5t-10 -4.5h-57q-6 0 -9.5 4.5t-2.5 9.5l211 1504l-353 -173q-13 -7 -19 7l-13 40q-3 11 9 18l392 190
q9 4 21 4h46zM3308 481q14 0 12 -14l-6 -45q-2 -14 -16 -14h-271l-56 -394q0 -5 -5 -9.5t-10 -4.5h-58q-5 0 -8.5 4.5t-2.5 9.5l55 394h-873q-14 0 -12 14l6 42q0 2 4 8l1044 1124q7 8 22 8h48q5 0 9 -4t3 -10l-157 -1109h272zM2172 481h780l140 994z" />
    <glyph glyph-name="onehalf" unicode="&#xbd;" horiz-adv-x="3588" 
d="M2492 2387q7 -4 9 -12t-2 -15l-1608 -2650q-5 -8 -13.5 -11t-15.5 1l-40 20q-18 9 -7 28l1608 2649q11 19 29 10zM964 2397q14 0 12 -14l-221 -1576q-1 -5 -6 -9.5t-10 -4.5h-57q-6 0 -9.5 4.5t-2.5 9.5l211 1504l-353 -173q-13 -7 -19 7l-13 40q-3 11 9 18l392 190
q9 4 21 4h46zM3379 1191q-14 -100 -65 -201.5t-132.5 -203t-209 -219t-276.5 -235.5t-352 -266h921q12 0 12 -14l-6 -45q-4 -14 -16 -14h-1056q-6 0 -9 4t-2 10l2 18q3 13 8 17q551 393 808 658t286 485q24 166 -60 261t-276 95q-257 0 -501 -235q-11 -10 -23 3l-24 33
q-8 8 9 21q262 251 560 251q152 0 250 -55.5t133.5 -149t18.5 -218.5z" />
    <glyph glyph-name="threequarters" unicode="&#xbe;" horiz-adv-x="3785" 
d="M980 1621q196 -29 291.5 -121.5t95.5 -239.5q0 -224 -166 -353.5t-441 -129.5q-341 0 -532 250q-12 13 -3 21l36 36q15 15 24 4q179 -238 480 -238q235 0 376 106t141 296q0 154 -125.5 243t-397.5 91q-14 0 -12 14l5 33q0 13 16 13q142 1 253.5 35t181 91.5t105.5 132
t36 159.5q0 133 -88.5 205t-263.5 72q-259 0 -496 -217q-13 -9 -22 3l-24 33q-5 9 10 22q253 232 555 232q206 0 309.5 -90t103.5 -245q0 -170 -116.5 -292t-331.5 -166zM2648 2397q11 19 29 10l40 -20q7 -4 9 -12t-2 -15l-1608 -2650q-5 -8 -13.5 -11t-15.5 1l-40 20
q-18 9 -7 28zM3533 481q14 0 12 -14l-6 -45q-2 -14 -16 -14h-271l-56 -394q0 -5 -5 -9.5t-10 -4.5h-58q-5 0 -8.5 4.5t-2.5 9.5l55 394h-873q-14 0 -12 14l6 42q0 2 4 8l1044 1124q7 8 22 8h48q5 0 9 -4t3 -10l-157 -1109h272zM2397 481h780l140 994z" />
    <glyph glyph-name="questiondown" unicode="&#xbf;" horiz-adv-x="1556" 
d="M920 1665q38 0 64 -27t26 -66q0 -46 -36.5 -81t-83.5 -35q-38 0 -64.5 27.5t-26.5 65.5q0 46 37 81t84 35zM53 -296q0 -201 124.5 -309.5t366.5 -108.5q363 0 685 275q21 17 35 -5l34 -51q9 -14 -14 -33q-177 -141 -359.5 -219t-408.5 -78q-283 0 -439 138.5t-156 378.5
q0 107 25 198.5t68 162t99.5 133t122 118.5t133 111.5t134 119.5t123 134.5t102.5 164.5t71 201q3 18 21 18l62 -1q7 0 11.5 -5.5t3.5 -13.5q-28 -137 -90 -255.5t-138 -203t-162 -162.5t-165.5 -151.5t-145 -152t-104.5 -181.5t-39 -223z" />
    <glyph glyph-name="Agrave" unicode="&#xc0;" horiz-adv-x="2415" 
d="M1012 3132q-18 12 -3 29l48 60q5 7 14 8.5t16 -3.5l512 -461q15 -13 2 -30l-33 -42q-16 -18 -31 -6zM2230 24q7 -24 -20 -24h-101q-19 0 -23 17l-244 837h-1247l-489 -837q-10 -17 -28 -17h-102q-12 0 -16.5 5.5t1.5 18.5l1444 2439q10 17 27 17h41q19 0 24 -17zM657 960
h1154l-385 1318z" />
    <glyph glyph-name="Aacute" unicode="&#xc1;" horiz-adv-x="2415" 
d="M1387 2693l-23 42q-7 17 11 30l642 461q19 12 29 -5l31 -60q10 -17 -10 -29l-652 -445q-17 -12 -28 6zM2230 24q7 -24 -20 -24h-101q-19 0 -23 17l-244 837h-1247l-489 -837q-10 -17 -28 -17h-102q-12 0 -16.5 5.5t1.5 18.5l1444 2439q10 17 27 17h41q19 0 24 -17z
M657 960h1154l-385 1318z" />
    <glyph glyph-name="Acircumflex" unicode="&#xc2;" horiz-adv-x="2415" 
d="M1005 2680q-13 0 -16.5 6t8.5 18l491 467q11 11 32 11h60q19 0 29 -11l359 -467q8 -12 3.5 -18t-17.5 -6h-86q-21 0 -29 11l-302 400l-414 -400q-12 -11 -29 -11h-89zM2230 24q7 -24 -20 -24h-101q-19 0 -23 17l-244 837h-1247l-489 -837q-10 -17 -28 -17h-102
q-12 0 -16.5 5.5t1.5 18.5l1444 2439q10 17 27 17h41q19 0 24 -17zM657 960h1154l-385 1318z" />
    <glyph glyph-name="Atilde" unicode="&#xc3;" horiz-adv-x="2415" 
d="M968 2729q-20 0 -17 21q12 175 109.5 272.5t240.5 97.5q51 0 92.5 -16.5t70 -42.5t53 -57.5t47.5 -63t47 -57.5t58.5 -42.5t75.5 -16.5q199 0 258 275q5 21 25 21h37q20 0 14 -32q-12 -169 -110 -264t-237 -95q-51 0 -93 16.5t-70 42.5t-53 57.5t-47.5 63.5t-47 58
t-59 42.5t-75.5 16.5q-200 0 -258 -277q-5 -20 -24 -20h-37zM2230 24q7 -24 -20 -24h-101q-19 0 -23 17l-244 837h-1247l-489 -837q-10 -17 -28 -17h-102q-12 0 -16.5 5.5t1.5 18.5l1444 2439q10 17 27 17h41q19 0 24 -17zM657 960h1154l-385 1318z" />
    <glyph glyph-name="Adieresis" unicode="&#xc4;" horiz-adv-x="2415" 
d="M1167 2824q-38 0 -63.5 26.5t-25.5 63.5q0 45 35.5 79t81.5 34q37 0 62.5 -26.5t25.5 -64.5q0 -45 -35.5 -78.5t-80.5 -33.5zM1837 2824q-37 0 -62.5 26.5t-25.5 63.5q0 45 35.5 79t81.5 34q37 0 62.5 -26.5t25.5 -64.5q0 -45 -36 -78.5t-81 -33.5zM2230 24
q7 -24 -20 -24h-101q-19 0 -23 17l-244 837h-1247l-489 -837q-10 -17 -28 -17h-102q-12 0 -16.5 5.5t1.5 18.5l1444 2439q10 17 27 17h41q19 0 24 -17zM657 960h1154l-385 1318z" />
    <glyph glyph-name="Aring" unicode="&#xc5;" horiz-adv-x="2415" 
d="M2230 24q7 -24 -20 -24h-101q-19 0 -23 17l-244 837h-1247l-489 -837q-10 -17 -28 -17h-102q-12 0 -16.5 5.5t1.5 18.5l1430 2416q-116 23 -188 112.5t-72 212.5q0 111 61.5 208.5t162 154.5t211.5 57q141 0 234.5 -97t93.5 -238q0 -157 -115 -276.5t-274 -137.5z
M1212 2772q0 -111 72.5 -187t186.5 -76q138 0 240 99.5t102 235.5q0 113 -72 189.5t-186 76.5q-139 0 -241 -100t-102 -238zM657 960h1154l-385 1318z" />
    <glyph glyph-name="AE" unicode="&#xc6;" horiz-adv-x="3430" 
d="M3394 2440q20 0 18 -21l-9 -69q-5 -21 -24 -21h-1490l-140 -999h1329q9 0 14 -6t4 -15l-9 -70q-5 -20 -24 -20h-1329l-155 -1108h1528q20 0 18 -21l-9 -69q-5 -21 -25 -21h-1581h-56q-8 0 -13.5 6.5t-3.5 14.5l117 833h-835l-616 -841q-10 -13 -28 -13h-97q-12 0 -18 7.5
t2 20.5l1767 2399q9 13 28 13h38h2h87h1510zM797 960h772l182 1301z" />
    <glyph glyph-name="Ccedilla" unicode="&#xc7;" horiz-adv-x="2600" 
d="M2549 1830q8 -21 -13 -29l-72 -32q-20 -10 -28 11q-206 574 -804 574q-160 0 -315.5 -42.5t-292 -121t-253 -194.5t-200 -256.5t-130.5 -314.5t-47 -362q0 -218 69.5 -401.5t192 -309.5t292 -196t366.5 -70q594 0 965 574q13 21 32 11l61 -32q20 -8 6 -29
q-396 -619 -1048 -635l-121 -244q87 25 166.5 21.5t140.5 -28.5t97 -79.5t36 -129.5q0 -99 -52 -176t-138.5 -118t-190.5 -41q-171 0 -308 84q-15 12 -4 30l16 27q12 20 32 10q69 -37 130 -55.5t141 -18.5q120 0 196.5 68t76.5 178q0 86 -58.5 132t-155.5 46.5t-222 -32.5
q-17 -4 -20.5 2t4.5 22l151 303q-208 9 -389 89t-314 216.5t-209.5 335.5t-76.5 434q0 210 54 402.5t149.5 346t227.5 279.5t286 210.5t326 130t347 45.5q670 0 901 -635z" />
    <glyph glyph-name="Egrave" unicode="&#xc8;" horiz-adv-x="2124" 
d="M877 3132q-18 12 -3 29l48 60q5 7 14 8.5t16 -3.5l512 -461q15 -13 2 -30l-33 -42q-16 -18 -31 -6zM2088 2440q20 0 18 -21l-9 -69q-5 -21 -24 -21h-1490l-140 -999h1329q9 0 14 -6t4 -15l-9 -70q-5 -20 -24 -20h-1329l-155 -1108h1528q20 0 18 -21l-9 -69
q-5 -21 -25 -21h-1581h-56q-8 0 -13.5 6.5t-3.5 14.5l336 2398q1 8 8.5 14.5t15.5 6.5h87h1510z" />
    <glyph glyph-name="Eacute" unicode="&#xc9;" horiz-adv-x="2124" 
d="M1252 2693l-23 42q-7 17 11 30l642 461q19 12 29 -5l31 -60q10 -17 -10 -29l-652 -445q-17 -12 -28 6zM2088 2440q20 0 18 -21l-9 -69q-5 -21 -24 -21h-1490l-140 -999h1329q9 0 14 -6t4 -15l-9 -70q-5 -20 -24 -20h-1329l-155 -1108h1528q20 0 18 -21l-9 -69
q-5 -21 -25 -21h-1581h-56q-8 0 -13.5 6.5t-3.5 14.5l336 2398q1 8 8.5 14.5t15.5 6.5h87h1510z" />
    <glyph glyph-name="Ecircumflex" unicode="&#xca;" horiz-adv-x="2124" 
d="M870 2680q-13 0 -16.5 6t8.5 18l491 467q11 11 32 11h60q19 0 29 -11l359 -467q8 -12 3.5 -18t-17.5 -6h-86q-21 0 -29 11l-302 400l-414 -400q-12 -11 -29 -11h-89zM2088 2440q20 0 18 -21l-9 -69q-5 -21 -24 -21h-1490l-140 -999h1329q9 0 14 -6t4 -15l-9 -70
q-5 -20 -24 -20h-1329l-155 -1108h1528q20 0 18 -21l-9 -69q-5 -21 -25 -21h-1581h-56q-8 0 -13.5 6.5t-3.5 14.5l336 2398q1 8 8.5 14.5t15.5 6.5h87h1510z" />
    <glyph glyph-name="Edieresis" unicode="&#xcb;" horiz-adv-x="2124" 
d="M1032 2824q-38 0 -63.5 26.5t-25.5 63.5q0 45 35.5 79t81.5 34q37 0 62.5 -26.5t25.5 -64.5q0 -45 -35.5 -78.5t-80.5 -33.5zM1702 2824q-37 0 -62.5 26.5t-25.5 63.5q0 45 35.5 79t81.5 34q37 0 62.5 -26.5t25.5 -64.5q0 -45 -36 -78.5t-81 -33.5zM2088 2440
q20 0 18 -21l-9 -69q-5 -21 -24 -21h-1490l-140 -999h1329q9 0 14 -6t4 -15l-9 -70q-5 -20 -24 -20h-1329l-155 -1108h1528q20 0 18 -21l-9 -69q-5 -21 -25 -21h-1581h-56q-8 0 -13.5 6.5t-3.5 14.5l336 2398q1 8 8.5 14.5t15.5 6.5h87h1510z" />
    <glyph glyph-name="Igrave" unicode="&#xcc;" horiz-adv-x="614" 
d="M624 2687l-525 445q-18 12 -3 29l48 60q5 7 14 8.5t16 -3.5l512 -461q15 -13 2 -30l-33 -42q-16 -18 -31 -6zM467 2419q1 8 8.5 14.5t15.5 6.5h87q8 0 13.5 -6.5t4.5 -14.5l-336 -2398q-1 -8 -9 -14.5t-16 -6.5h-87q-8 0 -13.5 6.5t-3.5 14.5z" />
    <glyph glyph-name="Iacute" unicode="&#xcd;" horiz-adv-x="614" 
d="M502 2687q-17 -12 -28 6l-23 42q-7 17 11 30l642 461q19 12 29 -5l31 -60q10 -17 -10 -29zM467 2419q1 8 8.5 14.5t15.5 6.5h87q8 0 13.5 -6.5t4.5 -14.5l-336 -2398q-1 -8 -9 -14.5t-16 -6.5h-87q-8 0 -13.5 6.5t-3.5 14.5z" />
    <glyph glyph-name="Icircumflex" unicode="&#xce;" horiz-adv-x="614" 
d="M926 2691l-302 400l-414 -400q-12 -11 -29 -11h-89q-13 0 -16.5 6t8.5 18l491 467q11 11 32 11h60q19 0 29 -11l359 -467q8 -12 3.5 -18t-17.5 -6h-86q-21 0 -29 11zM467 2419q1 8 8.5 14.5t15.5 6.5h87q8 0 13.5 -6.5t4.5 -14.5l-336 -2398q-1 -8 -9 -14.5t-16 -6.5h-87
q-8 0 -13.5 6.5t-3.5 14.5z" />
    <glyph glyph-name="Idieresis" unicode="&#xcf;" horiz-adv-x="614" 
d="M254 2824q-38 0 -63.5 26.5t-25.5 63.5q0 45 35.5 79t81.5 34q37 0 62.5 -26.5t25.5 -64.5q0 -45 -35.5 -78.5t-80.5 -33.5zM924 2824q-37 0 -62.5 26.5t-25.5 63.5q0 45 35.5 79t81.5 34q37 0 62.5 -26.5t25.5 -64.5q0 -45 -36 -78.5t-81 -33.5zM467 2419q1 8 8.5 14.5
t15.5 6.5h87q8 0 13.5 -6.5t4.5 -14.5l-336 -2398q-1 -8 -9 -14.5t-16 -6.5h-87q-8 0 -13.5 6.5t-3.5 14.5z" />
    <glyph glyph-name="Eth" unicode="&#xd0;" horiz-adv-x="2499" 
d="M1279 2440q231 0 427.5 -70.5t340.5 -202t225 -330t81 -443.5q0 -215 -53 -408t-147.5 -345t-226 -273.5t-289 -202t-335.5 -123t-366 -42.5h-734h-54q-8 0 -13.5 6.5t-3.5 14.5l161 1148h-311q-9 0 -14 6t-4 15l8 59q1 9 8 15t16 6h311l161 1149q1 8 8.5 14.5t15.5 6.5
h87h701zM942 111q207 0 398 55.5t350.5 164.5t277.5 260.5t184 354t66 434.5q0 220 -71.5 399.5t-199.5 299.5t-305 185t-388 65h-671l-148 -1059h663q20 0 18 -21l-8 -59q-4 -21 -24 -21h-663l-148 -1058h669z" />
    <glyph glyph-name="Ntilde" unicode="&#xd1;" horiz-adv-x="2524" 
d="M1050 2729q-20 0 -17 21q12 175 109.5 272.5t240.5 97.5q51 0 92.5 -16.5t70 -42.5t53 -57.5t47.5 -63t47 -57.5t58.5 -42.5t75.5 -16.5q199 0 258 275q5 21 25 21h37q20 0 14 -32q-12 -169 -110 -264t-237 -95q-51 0 -93 16.5t-70 42.5t-53 57.5t-47.5 63.5t-47 58
t-59 42.5t-75.5 16.5q-200 0 -258 -277q-5 -20 -24 -20h-37zM2488 2440q20 0 18 -21l-342 -2438q-4 -21 -24 -21h-7q-20 0 -28 12l-1538 2239l-307 -2190q-4 -21 -25 -21h-87q-20 0 -17 21l342 2438q1 9 8 15t16 6h7q17 0 27 -12l1538 -2239l308 2190q1 9 8 15t16 6h87z" />
    <glyph glyph-name="Ograve" unicode="&#xd2;" horiz-adv-x="2833" 
d="M1734 2687l-525 445q-18 12 -3 29l48 60q5 7 14 8.5t16 -3.5l512 -461q15 -13 2 -30l-33 -42q-16 -18 -31 -6zM1648 2465q217 0 407 -76t330 -213.5t221 -341t81 -445.5q0 -210 -54 -402.5t-149.5 -346t-227.5 -279.5t-285.5 -210.5t-325.5 -130t-347 -45.5
q-217 0 -407 76t-330.5 213.5t-221.5 341t-81 445.5q0 210 54 402.5t149.5 346t227.5 279.5t286 210.5t326 130t347 45.5zM1314 86q160 0 315.5 42.5t292 121t253 194.5t200 256.5t130.5 314.5t47 362q0 218 -69.5 401.5t-192 309.5t-292 196t-366.5 70q-160 0 -315.5 -42.5
t-292 -121t-253 -194.5t-200 -256.5t-130.5 -314.5t-47 -362q0 -218 69.5 -401.5t192 -309.5t292 -196t366.5 -70z" />
    <glyph glyph-name="Oacute" unicode="&#xd3;" horiz-adv-x="2833" 
d="M1612 2687q-17 -12 -28 6l-23 42q-7 17 11 30l642 461q19 12 29 -5l31 -60q10 -17 -10 -29zM1648 2465q217 0 407 -76t330 -213.5t221 -341t81 -445.5q0 -210 -54 -402.5t-149.5 -346t-227.5 -279.5t-285.5 -210.5t-325.5 -130t-347 -45.5q-217 0 -407 76t-330.5 213.5
t-221.5 341t-81 445.5q0 210 54 402.5t149.5 346t227.5 279.5t286 210.5t326 130t347 45.5zM1314 86q160 0 315.5 42.5t292 121t253 194.5t200 256.5t130.5 314.5t47 362q0 218 -69.5 401.5t-192 309.5t-292 196t-366.5 70q-160 0 -315.5 -42.5t-292 -121t-253 -194.5
t-200 -256.5t-130.5 -314.5t-47 -362q0 -218 69.5 -401.5t192 -309.5t292 -196t366.5 -70z" />
    <glyph glyph-name="Ocircumflex" unicode="&#xd4;" horiz-adv-x="2833" 
d="M2036 2691l-302 400l-414 -400q-12 -11 -29 -11h-89q-13 0 -16.5 6t8.5 18l491 467q11 11 32 11h60q19 0 29 -11l359 -467q8 -12 3.5 -18t-17.5 -6h-86q-21 0 -29 11zM1648 2465q217 0 407 -76t330 -213.5t221 -341t81 -445.5q0 -210 -54 -402.5t-149.5 -346
t-227.5 -279.5t-285.5 -210.5t-325.5 -130t-347 -45.5q-217 0 -407 76t-330.5 213.5t-221.5 341t-81 445.5q0 210 54 402.5t149.5 346t227.5 279.5t286 210.5t326 130t347 45.5zM1314 86q160 0 315.5 42.5t292 121t253 194.5t200 256.5t130.5 314.5t47 362
q0 218 -69.5 401.5t-192 309.5t-292 196t-366.5 70q-160 0 -315.5 -42.5t-292 -121t-253 -194.5t-200 -256.5t-130.5 -314.5t-47 -362q0 -218 69.5 -401.5t192 -309.5t292 -196t366.5 -70z" />
    <glyph glyph-name="Otilde" unicode="&#xd5;" horiz-adv-x="2833" 
d="M1165 2729q-9 0 -14 6t-3 15q12 175 109.5 272.5t240.5 97.5q51 0 92.5 -16.5t70 -42.5t53 -57.5t47.5 -63t47 -57.5t58.5 -42.5t75.5 -16.5q199 0 258 275q5 21 25 21h37q20 0 14 -32q-12 -169 -110 -264t-237 -95q-51 0 -93 16.5t-70 42.5t-53 57.5t-47.5 63.5t-47 58
t-59 42.5t-75.5 16.5q-200 0 -258 -277q-5 -20 -24 -20h-37zM1648 2465q217 0 407 -76t330 -213.5t221 -341t81 -445.5q0 -210 -54 -402.5t-149.5 -346t-227.5 -279.5t-285.5 -210.5t-325.5 -130t-347 -45.5q-217 0 -407 76t-330.5 213.5t-221.5 341t-81 445.5
q0 210 54 402.5t149.5 346t227.5 279.5t286 210.5t326 130t347 45.5zM1314 86q160 0 315.5 42.5t292 121t253 194.5t200 256.5t130.5 314.5t47 362q0 218 -69.5 401.5t-192 309.5t-292 196t-366.5 70q-160 0 -315.5 -42.5t-292 -121t-253 -194.5t-200 -256.5t-130.5 -314.5
t-47 -362q0 -218 69.5 -401.5t192 -309.5t292 -196t366.5 -70z" />
    <glyph glyph-name="Odieresis" unicode="&#xd6;" horiz-adv-x="2833" 
d="M1364 2824q-38 0 -63.5 26.5t-25.5 63.5q0 45 35.5 79t81.5 34q37 0 62.5 -26.5t25.5 -64.5q0 -45 -35.5 -78.5t-80.5 -33.5zM2034 2824q-37 0 -62.5 26.5t-25.5 63.5q0 45 35.5 79t81.5 34q37 0 62.5 -26.5t25.5 -64.5q0 -45 -36 -78.5t-81 -33.5zM1648 2465
q217 0 407 -76t330 -213.5t221 -341t81 -445.5q0 -210 -54 -402.5t-149.5 -346t-227.5 -279.5t-285.5 -210.5t-325.5 -130t-347 -45.5q-217 0 -407 76t-330.5 213.5t-221.5 341t-81 445.5q0 210 54 402.5t149.5 346t227.5 279.5t286 210.5t326 130t347 45.5zM1314 86
q160 0 315.5 42.5t292 121t253 194.5t200 256.5t130.5 314.5t47 362q0 218 -69.5 401.5t-192 309.5t-292 196t-366.5 70q-160 0 -315.5 -42.5t-292 -121t-253 -194.5t-200 -256.5t-130.5 -314.5t-47 -362q0 -218 69.5 -401.5t192 -309.5t292 -196t366.5 -70z" />
    <glyph glyph-name="multiply" unicode="&#xd7;" horiz-adv-x="1919" 
d="M1805 1684q11 -15 -5 -29l-742 -651l559 -651q12 -16 -4 -30l-48 -43q-18 -14 -29 0l-560 652l-743 -652q-18 -14 -29 0l-37 43q-13 15 4 30l743 651l-560 651q-6 6 -4.5 15t8.5 14l49 43q16 14 29 0l560 -651l743 651q15 15 29 0z" />
    <glyph glyph-name="Oslash" unicode="&#xd8;" horiz-adv-x="2833" 
d="M2723 2288q5 -5 4 -13.5t-9 -15.5l-232 -203q201 -279 201 -667q0 -210 -54 -402.5t-149.5 -346t-227.5 -279.5t-285.5 -210.5t-325.5 -130t-347 -45.5q-238 0 -442.5 90t-346.5 256l-246 -215q-15 -14 -29 0l-37 43q-12 16 5 30l248 218q-192 275 -192 654
q0 210 54 402.5t149.5 346t227.5 279.5t286 210.5t326 130t347 45.5q233 0 434.5 -87t344.5 -248l229 201q17 14 30 0zM394 1063q0 -333 157 -578l1778 1559q-126 149 -305 229.5t-392 80.5q-160 0 -315.5 -42.5t-292 -121t-253 -194.5t-200 -256.5t-130.5 -314.5t-47 -362z
M2552 1377q0 341 -166 591l-1779 -1560q125 -155 307.5 -238.5t399.5 -83.5q160 0 315.5 42.5t292 121t253 194.5t200 256.5t130.5 314.5t47 362z" />
    <glyph glyph-name="Ugrave" unicode="&#xd9;" horiz-adv-x="2445" 
d="M1539 2687l-525 445q-18 12 -3 29l48 60q5 7 14 8.5t16 -3.5l512 -461q15 -13 2 -30l-33 -42q-16 -18 -31 -6zM2408 2440q8 0 13.5 -6.5t4.5 -14.5l-198 -1409q-47 -336 -199.5 -573t-388.5 -357t-539 -120q-459 0 -680.5 273t-151.5 777l198 1409q1 8 8.5 14.5t15.5 6.5
h87q8 0 13.5 -6.5t4.5 -14.5l-195 -1389q-64 -459 117.5 -709t597.5 -250q417 0 669.5 250t316.5 709l195 1389q1 8 8.5 14.5t15.5 6.5h87z" />
    <glyph glyph-name="Uacute" unicode="&#xda;" horiz-adv-x="2445" 
d="M1417 2687q-17 -12 -28 6l-23 42q-7 17 11 30l642 461q19 12 29 -5l31 -60q10 -17 -10 -29zM2408 2440q8 0 13.5 -6.5t4.5 -14.5l-198 -1409q-47 -336 -199.5 -573t-388.5 -357t-539 -120q-459 0 -680.5 273t-151.5 777l198 1409q1 8 8.5 14.5t15.5 6.5h87q8 0 13.5 -6.5
t4.5 -14.5l-195 -1389q-64 -459 117.5 -709t597.5 -250q417 0 669.5 250t316.5 709l195 1389q1 8 8.5 14.5t15.5 6.5h87z" />
    <glyph glyph-name="Ucircumflex" unicode="&#xdb;" horiz-adv-x="2445" 
d="M1841 2691l-302 400l-414 -400q-12 -11 -29 -11h-89q-13 0 -16.5 6t8.5 18l491 467q11 11 32 11h60q19 0 29 -11l359 -467q8 -12 3.5 -18t-17.5 -6h-86q-21 0 -29 11zM2408 2440q8 0 13.5 -6.5t4.5 -14.5l-198 -1409q-47 -336 -199.5 -573t-388.5 -357t-539 -120
q-459 0 -680.5 273t-151.5 777l198 1409q1 8 8.5 14.5t15.5 6.5h87q8 0 13.5 -6.5t4.5 -14.5l-195 -1389q-64 -459 117.5 -709t597.5 -250q417 0 669.5 250t316.5 709l195 1389q1 8 8.5 14.5t15.5 6.5h87z" />
    <glyph glyph-name="Udieresis" unicode="&#xdc;" horiz-adv-x="2445" 
d="M1169 2824q-38 0 -63.5 26.5t-25.5 63.5q0 45 35.5 79t81.5 34q37 0 62.5 -26.5t25.5 -64.5q0 -45 -35.5 -78.5t-80.5 -33.5zM1839 2824q-37 0 -62.5 26.5t-25.5 63.5q0 45 35.5 79t81.5 34q37 0 62.5 -26.5t25.5 -64.5q0 -45 -36 -78.5t-81 -33.5zM2408 2440
q8 0 13.5 -6.5t4.5 -14.5l-198 -1409q-47 -336 -199.5 -573t-388.5 -357t-539 -120q-459 0 -680.5 273t-151.5 777l198 1409q1 8 8.5 14.5t15.5 6.5h87q8 0 13.5 -6.5t4.5 -14.5l-195 -1389q-64 -459 117.5 -709t597.5 -250q417 0 669.5 250t316.5 709l195 1389
q1 8 8.5 14.5t15.5 6.5h87z" />
    <glyph glyph-name="Yacute" unicode="&#xdd;" horiz-adv-x="2254" 
d="M1304 2693l-23 42q-7 17 11 30l642 461q19 12 29 -5l31 -60q10 -17 -10 -29l-652 -445q-17 -12 -28 6zM2390 2440q12 0 17 -6t-3 -18l-1197 -1535l-121 -860q-1 -8 -8 -14.5t-15 -6.5h-87q-8 0 -14 6.5t-5 14.5l120 859l-779 1536q-5 11 1.5 17.5t18.5 6.5h100
q16 0 23 -17l718 -1425l1107 1425q14 17 29 17h95z" />
    <glyph glyph-name="Thorn" unicode="&#xde;" horiz-adv-x="2147" 
d="M1265 1975q166 0 301.5 -34.5t228 -94t155 -142t91 -177t28.5 -200.5q0 -129 -37.5 -248.5t-118 -226t-197.5 -186t-286.5 -125.5t-372.5 -46h-730l-67 -474q-1 -8 -8 -14.5t-15 -6.5h-88q-8 0 -13.5 6.5t-4.5 14.5l337 2398q1 8 8.5 14.5t15.5 6.5h88q8 0 13.5 -6.5
t3.5 -14.5l-62 -444h730zM1053 606q187 0 338.5 40.5t251 108t167 160.5t96.5 193t29 209q0 89 -23 168t-76.5 149.5t-133.5 120.5t-200.5 79.5t-271.5 29.5h-711l-176 -1258h710z" />
    <glyph glyph-name="germandbls" unicode="&#xdf;" horiz-adv-x="1955" 
d="M1221 1270q0 -71 19 -127t51 -93.5t73.5 -67.5t87.5 -54.5t92 -49.5t87.5 -58t73.5 -73.5t51 -102t19 -138.5q0 -114 -41.5 -207.5t-107 -152t-151.5 -98.5t-170 -56.5t-168 -16.5q-146 0 -275 49t-223 135q-16 14 -6 30l35 58q14 21 29 10q107 -88 214 -132t234 -44
q67 0 133.5 12t135 41.5t120.5 74t85 116.5t33 161q0 67 -19 119.5t-51.5 87.5t-75 63t-89 52t-93 49t-89 58.5t-75 75.5t-51.5 106t-19 145q0 79 18.5 146t48.5 115.5t65.5 94t71.5 92t66 98t48.5 123.5t18.5 158q0 198 -97 309t-285 111q-211 0 -345.5 -134t-165.5 -345
l-279 -1989q-2 -21 -23 -21h-83q-8 0 -13.5 6t-4.5 15l281 1999q36 255 212 415t432 160q235 0 365.5 -137.5t130.5 -376.5q0 -88 -18.5 -162.5t-47.5 -128t-64.5 -101t-70.5 -92t-64 -90.5t-47.5 -106.5t-18.5 -130.5z" />
    <glyph glyph-name="agrave" unicode="&#xe0;" horiz-adv-x="2072" 
d="M715 2332q-18 12 -3 29l48 60q5 7 14 8.5t16 -3.5l512 -461q15 -13 2 -30l-33 -42q-16 -18 -31 -6zM1941 1619l-143 -1019q-14 -99 -17.5 -178t5 -149t18 -116t29.5 -122q5 -23 -16 -31l-57 -20q-15 -6 -22 5q-94 216 -84 444q-122 -210 -326.5 -334t-447.5 -124
q-200 0 -362.5 90t-257.5 258.5t-95 385.5q0 140 37 269t102.5 233t155.5 190t195.5 143.5t224 89t238.5 31.5q241 0 408 -131t229 -353l62 438q2 9 8.5 15t15.5 6h82q9 0 14 -6t4 -15zM906 86q162 0 312 65t261 174.5t177 263t66 321.5q0 185 -75.5 331t-215 229t-318.5 83
q-157 0 -305 -60t-261.5 -166.5t-182.5 -265t-69 -341.5q0 -143 47 -262.5t129 -200.5t194 -126t241 -45z" />
    <glyph glyph-name="aacute" unicode="&#xe1;" horiz-adv-x="2072" 
d="M1090 1893l-23 42q-7 17 11 30l642 461q19 12 29 -5l31 -60q10 -17 -10 -29l-652 -445q-17 -12 -28 6zM1941 1619l-143 -1019q-14 -99 -17.5 -178t5 -149t18 -116t29.5 -122q5 -23 -16 -31l-57 -20q-15 -6 -22 5q-94 216 -84 444q-122 -210 -326.5 -334t-447.5 -124
q-200 0 -362.5 90t-257.5 258.5t-95 385.5q0 140 37 269t102.5 233t155.5 190t195.5 143.5t224 89t238.5 31.5q241 0 408 -131t229 -353l62 438q2 9 8.5 15t15.5 6h82q9 0 14 -6t4 -15zM906 86q162 0 312 65t261 174.5t177 263t66 321.5q0 185 -75.5 331t-215 229t-318.5 83
q-157 0 -305 -60t-261.5 -166.5t-182.5 -265t-69 -341.5q0 -143 47 -262.5t129 -200.5t194 -126t241 -45z" />
    <glyph glyph-name="acircumflex" unicode="&#xe2;" horiz-adv-x="2072" 
d="M708 1880q-13 0 -16.5 6t8.5 18l491 467q11 11 32 11h60q19 0 29 -11l359 -467q8 -12 3.5 -18t-17.5 -6h-86q-21 0 -29 11l-302 400l-414 -400q-12 -11 -29 -11h-89zM1941 1619l-143 -1019q-14 -99 -17.5 -178t5 -149t18 -116t29.5 -122q5 -23 -16 -31l-57 -20
q-15 -6 -22 5q-94 216 -84 444q-122 -210 -326.5 -334t-447.5 -124q-200 0 -362.5 90t-257.5 258.5t-95 385.5q0 140 37 269t102.5 233t155.5 190t195.5 143.5t224 89t238.5 31.5q241 0 408 -131t229 -353l62 438q2 9 8.5 15t15.5 6h82q9 0 14 -6t4 -15zM906 86
q162 0 312 65t261 174.5t177 263t66 321.5q0 185 -75.5 331t-215 229t-318.5 83q-157 0 -305 -60t-261.5 -166.5t-182.5 -265t-69 -341.5q0 -143 47 -262.5t129 -200.5t194 -126t241 -45z" />
    <glyph glyph-name="atilde" unicode="&#xe3;" horiz-adv-x="2072" 
d="M671 1929q-9 0 -14 6t-3 15q12 175 109.5 272.5t240.5 97.5q51 0 92.5 -16.5t70 -42.5t53 -57.5t47.5 -63t47 -57.5t58.5 -42.5t75.5 -16.5q199 0 258 275q5 21 25 21h37q20 0 14 -32q-12 -169 -110 -264t-237 -95q-51 0 -93 16.5t-70 42.5t-53 57.5t-47.5 63.5t-47 58
t-59 42.5t-75.5 16.5q-200 0 -258 -277q-5 -20 -24 -20h-37zM1941 1619l-143 -1019q-14 -99 -17.5 -178t5 -149t18 -116t29.5 -122q5 -23 -16 -31l-57 -20q-15 -6 -22 5q-94 216 -84 444q-122 -210 -326.5 -334t-447.5 -124q-200 0 -362.5 90t-257.5 258.5t-95 385.5
q0 140 37 269t102.5 233t155.5 190t195.5 143.5t224 89t238.5 31.5q241 0 408 -131t229 -353l62 438q2 9 8.5 15t15.5 6h82q9 0 14 -6t4 -15zM906 86q162 0 312 65t261 174.5t177 263t66 321.5q0 185 -75.5 331t-215 229t-318.5 83q-157 0 -305 -60t-261.5 -166.5
t-182.5 -265t-69 -341.5q0 -143 47 -262.5t129 -200.5t194 -126t241 -45z" />
    <glyph glyph-name="adieresis" unicode="&#xe4;" horiz-adv-x="2072" 
d="M870 2024q-38 0 -63.5 26.5t-25.5 63.5q0 45 35.5 79t81.5 34q37 0 62.5 -26.5t25.5 -64.5q0 -45 -35.5 -78.5t-80.5 -33.5zM1540 2024q-37 0 -62.5 26.5t-25.5 63.5q0 45 35.5 79t81.5 34q37 0 62.5 -26.5t25.5 -64.5q0 -45 -36 -78.5t-81 -33.5zM1941 1619l-143 -1019
q-14 -99 -17.5 -178t5 -149t18 -116t29.5 -122q5 -23 -16 -31l-57 -20q-15 -6 -22 5q-94 216 -84 444q-122 -210 -326.5 -334t-447.5 -124q-200 0 -362.5 90t-257.5 258.5t-95 385.5q0 140 37 269t102.5 233t155.5 190t195.5 143.5t224 89t238.5 31.5q241 0 408 -131
t229 -353l62 438q2 9 8.5 15t15.5 6h82q9 0 14 -6t4 -15zM906 86q162 0 312 65t261 174.5t177 263t66 321.5q0 185 -75.5 331t-215 229t-318.5 83q-157 0 -305 -60t-261.5 -166.5t-182.5 -265t-69 -341.5q0 -143 47 -262.5t129 -200.5t194 -126t241 -45z" />
    <glyph glyph-name="aring" unicode="&#xe5;" horiz-adv-x="2072" 
d="M1176 1817q-142 0 -235.5 95.5t-93.5 236.5q0 111 61.5 208.5t162 154.5t211.5 57q141 0 234.5 -97t93.5 -238q0 -111 -61 -208t-161 -153t-212 -56zM1271 2494q-139 0 -241 -100t-102 -238q0 -111 72.5 -187t186.5 -76q138 0 240 99.5t102 235.5q0 113 -72 189.5
t-186 76.5zM1941 1619l-143 -1019q-14 -99 -17.5 -178t5 -149t18 -116t29.5 -122q5 -23 -16 -31l-57 -20q-15 -6 -22 5q-94 216 -84 444q-122 -210 -326.5 -334t-447.5 -124q-200 0 -362.5 90t-257.5 258.5t-95 385.5q0 140 37 269t102.5 233t155.5 190t195.5 143.5t224 89
t238.5 31.5q241 0 408 -131t229 -353l62 438q2 9 8.5 15t15.5 6h82q9 0 14 -6t4 -15zM906 86q162 0 312 65t261 174.5t177 263t66 321.5q0 185 -75.5 331t-215 229t-318.5 83q-157 0 -305 -60t-261.5 -166.5t-182.5 -265t-69 -341.5q0 -143 47 -262.5t129 -200.5t194 -126
t241 -45z" />
    <glyph glyph-name="ae" unicode="&#xe6;" horiz-adv-x="3096" 
d="M2913 862h-1434q-11 -72 -11 -142q0 -143 47 -262.5t129 -200.5t194 -126t241 -45q410 0 636 381q12 18 31 10l65 -33q18 -9 6 -29q-127 -216 -320.5 -328t-438.5 -112q-259 0 -448.5 143.5t-248.5 389.5q-62 -144 -180 -264.5t-279 -194.5t-328 -74q-212 0 -335.5 117
t-123.5 298q0 209 148.5 359.5t423 202t663.5 -43.5l19 136q12 95 12 174t-23 141t-67.5 105.5t-121 66t-183.5 22.5q-146 0 -272 -39t-295 -120q-22 -9 -29 11l-18 60q-8 20 15 29q182 88 323.5 129.5t302.5 41.5q133 0 227 -29.5t148.5 -86t79.5 -131t27 -173.5
q129 196 338 308t447 112q163 0 292.5 -54.5t214 -155.5t118.5 -253.5t8 -339.5zM2265 1558q-266 0 -480 -164.5t-287 -435.5h1288q24 282 -120 441t-401 159zM614 81q131 0 256 52.5t216.5 136.5t153 189t76.5 210l21 147q-270 68 -474 63t-341.5 -71t-207 -170.5
t-69.5 -233.5q0 -146 99.5 -234.5t269.5 -88.5z" />
    <glyph glyph-name="ccedilla" unicode="&#xe7;" horiz-adv-x="1911" 
d="M1784 1219q8 -19 -14 -28l-75 -33q-19 -8 -27 10q-56 184 -189 284.5t-339 100.5q-165 0 -315.5 -60.5t-263.5 -167.5t-180 -265t-67 -343q0 -286 173.5 -458.5t448.5 -172.5q400 0 634 386q15 18 30 10l66 -33q17 -9 5 -29q-121 -208 -311.5 -326t-440.5 -119l-121 -244
q87 25 166.5 21.5t140.5 -28.5t97 -79.5t36 -129.5q0 -99 -52 -176t-138.5 -118t-190.5 -41q-171 0 -308 84q-15 12 -4 30l16 27q12 20 32 10q69 -37 130 -55.5t141 -18.5q120 0 196.5 68t76.5 178q0 86 -58.5 132t-155.5 46.5t-222 -32.5q-17 -4 -20.5 2t4.5 22l152 305
q-142 13 -262.5 70.5t-207 151t-135 224.5t-48.5 284q0 167 51.5 318t143 266t213 200t265.5 129t295 44q251 0 410 -118.5t222 -327.5z" />
    <glyph glyph-name="egrave" unicode="&#xe8;" horiz-adv-x="1943" 
d="M645 2332q-18 12 -3 29l48 60q5 7 14 8.5t16 -3.5l512 -461q15 -13 2 -30l-33 -42q-16 -18 -31 -6zM1760 862h-1434q-11 -72 -11 -142q0 -143 47 -262.5t129 -200.5t194 -126t241 -45q410 0 636 381q12 18 31 10l65 -33q18 -9 6 -29q-127 -216 -320.5 -328t-438.5 -112
q-152 0 -284.5 52.5t-229 147t-151.5 232.5t-55 301q0 207 77.5 388t207 304.5t300.5 194t357 70.5q163 0 292.5 -54.5t214 -155.5t118.5 -253.5t8 -339.5zM1112 1558q-266 0 -480 -164.5t-287 -435.5h1288q24 282 -120 441t-401 159z" />
    <glyph glyph-name="eacute" unicode="&#xe9;" horiz-adv-x="1943" 
d="M1020 1893l-23 42q-7 17 11 30l642 461q19 12 29 -5l31 -60q10 -17 -10 -29l-652 -445q-17 -12 -28 6zM1760 862h-1434q-11 -72 -11 -142q0 -143 47 -262.5t129 -200.5t194 -126t241 -45q410 0 636 381q12 18 31 10l65 -33q18 -9 6 -29q-127 -216 -320.5 -328
t-438.5 -112q-152 0 -284.5 52.5t-229 147t-151.5 232.5t-55 301q0 207 77.5 388t207 304.5t300.5 194t357 70.5q163 0 292.5 -54.5t214 -155.5t118.5 -253.5t8 -339.5zM1112 1558q-266 0 -480 -164.5t-287 -435.5h1288q24 282 -120 441t-401 159z" />
    <glyph glyph-name="ecircumflex" unicode="&#xea;" horiz-adv-x="1943" 
d="M638 1880q-13 0 -16.5 6t8.5 18l491 467q11 11 32 11h60q19 0 29 -11l359 -467q8 -12 3.5 -18t-17.5 -6h-86q-21 0 -29 11l-302 400l-414 -400q-12 -11 -29 -11h-89zM1760 862h-1434q-11 -72 -11 -142q0 -143 47 -262.5t129 -200.5t194 -126t241 -45q410 0 636 381
q12 18 31 10l65 -33q18 -9 6 -29q-127 -216 -320.5 -328t-438.5 -112q-152 0 -284.5 52.5t-229 147t-151.5 232.5t-55 301q0 207 77.5 388t207 304.5t300.5 194t357 70.5q163 0 292.5 -54.5t214 -155.5t118.5 -253.5t8 -339.5zM1112 1558q-266 0 -480 -164.5t-287 -435.5
h1288q24 282 -120 441t-401 159z" />
    <glyph glyph-name="edieresis" unicode="&#xeb;" horiz-adv-x="1943" 
d="M800 2024q-38 0 -63.5 26.5t-25.5 63.5q0 45 35.5 79t81.5 34q37 0 62.5 -26.5t25.5 -64.5q0 -45 -35.5 -78.5t-80.5 -33.5zM1470 2024q-37 0 -62.5 26.5t-25.5 63.5q0 45 35.5 79t81.5 34q37 0 62.5 -26.5t25.5 -64.5q0 -45 -36 -78.5t-81 -33.5zM1760 862h-1434
q-11 -72 -11 -142q0 -143 47 -262.5t129 -200.5t194 -126t241 -45q410 0 636 381q12 18 31 10l65 -33q18 -9 6 -29q-127 -216 -320.5 -328t-438.5 -112q-152 0 -284.5 52.5t-229 147t-151.5 232.5t-55 301q0 207 77.5 388t207 304.5t300.5 194t357 70.5q163 0 292.5 -54.5
t214 -155.5t118.5 -253.5t8 -339.5zM1112 1558q-266 0 -480 -164.5t-287 -435.5h1288q24 282 -120 441t-401 159z" />
    <glyph glyph-name="igrave" unicode="&#xec;" horiz-adv-x="610" 
d="M510 1887l-525 445q-18 12 -3 29l48 60q5 7 14 8.5t16 -3.5l512 -461q15 -13 2 -30l-33 -42q-16 -18 -31 -6zM356 1619q2 21 23 21h83q8 0 13.5 -6t4.5 -15l-225 -1598q-2 -9 -8.5 -15t-15.5 -6h-82q-9 0 -14 6t-4 15z" />
    <glyph glyph-name="iacute" unicode="&#xed;" horiz-adv-x="610" 
d="M388 1887q-17 -12 -28 6l-23 42q-7 17 11 30l642 461q19 12 29 -5l31 -60q10 -17 -10 -29zM356 1619q2 21 23 21h83q8 0 13.5 -6t4.5 -15l-225 -1598q-2 -9 -8.5 -15t-15.5 -6h-82q-9 0 -14 6t-4 15z" />
    <glyph glyph-name="icircumflex" unicode="&#xee;" horiz-adv-x="610" 
d="M812 1891l-302 400l-414 -400q-12 -11 -29 -11h-89q-13 0 -16.5 6t8.5 18l491 467q11 11 32 11h60q19 0 29 -11l359 -467q8 -12 3.5 -18t-17.5 -6h-86q-21 0 -29 11zM356 1619q2 21 23 21h83q8 0 13.5 -6t4.5 -15l-225 -1598q-2 -9 -8.5 -15t-15.5 -6h-82q-9 0 -14 6
t-4 15z" />
    <glyph glyph-name="idieresis" unicode="&#xef;" horiz-adv-x="610" 
d="M140 2024q-38 0 -63.5 26.5t-25.5 63.5q0 45 35.5 79t81.5 34q37 0 62.5 -26.5t25.5 -64.5q0 -45 -35.5 -78.5t-80.5 -33.5zM810 2024q-37 0 -62.5 26.5t-25.5 63.5q0 45 35.5 79t81.5 34q37 0 62.5 -26.5t25.5 -64.5q0 -45 -36 -78.5t-81 -33.5zM356 1619q2 21 23 21h83
q8 0 13.5 -6t4.5 -15l-225 -1598q-2 -9 -8.5 -15t-15.5 -6h-82q-9 0 -14 6t-4 15z" />
    <glyph glyph-name="eth" unicode="&#xf0;" horiz-adv-x="2057" 
d="M1286 2415q123 -74 220.5 -177.5t159.5 -216t104.5 -244t62 -255t24.5 -254t-1.5 -237t-20.5 -209.5q-21 -151 -82.5 -285.5t-152 -236t-203.5 -175.5t-241 -112t-260 -38q-165 0 -306.5 61t-239 168t-142.5 265t-19 341t113 341t212 265.5t282 168t322 60.5
q216 0 378 -101.5t238 -282.5q-5 158 -32.5 301.5t-84 287.5t-157 268t-237.5 210l-224 -312q-5 -8 -14 -10t-15 2l-25 16q-7 5 -8 13t4 15l223 310q-146 79 -330 115q-13 4 -16.5 14t4.5 21l25 42q9 15 27 12q195 -36 352 -118l196 274q11 18 29 8l25 -16q17 -8 4 -28z
M912 86q190 0 360 88t288.5 255t148.5 381q23 161 -13.5 298t-118 229.5t-201 144.5t-261.5 52t-276 -52t-241.5 -144.5t-182.5 -229.5t-97 -298q-23 -161 13.5 -298t118 -229.5t201 -144.5t261.5 -52z" />
    <glyph glyph-name="ntilde" unicode="&#xf1;" 
d="M1760 2320q20 0 14 -32q-12 -169 -110 -264t-237 -95q-51 0 -93 16.5t-70 42.5t-53 57.5t-47.5 63.5t-47 58t-59 42.5t-75.5 16.5q-200 0 -258 -277q-5 -20 -24 -20h-37q-9 0 -14 6t-3 15q12 175 109.5 272.5t240.5 97.5q51 0 92.5 -16.5t70 -42.5t53 -57.5t47.5 -63
t47 -57.5t58.5 -42.5t75.5 -16.5q199 0 258 275q5 21 25 21h37zM1234 1680q127 0 224.5 -32t160 -91.5t100 -143.5t43.5 -188t-9 -226l-137 -978q-4 -21 -24 -21h-82q-9 0 -14.5 6t-4.5 15l132 939q85 608 -435 608q-143 0 -283.5 -56t-250 -149.5t-184.5 -219.5t-94 -260
l-121 -862q-2 -21 -23 -21h-83q-8 0 -13.5 6t-4.5 15l225 1598q4 21 24 21h82q9 0 14 -6t4 -15l-60 -422q35 63 88.5 127t131.5 129t166 115t200.5 81t227.5 31z" />
    <glyph glyph-name="ograve" unicode="&#xf2;" horiz-adv-x="2058" 
d="M1233 1887l-525 445q-18 12 -3 29l48 60q5 7 14 8.5t16 -3.5l512 -461q15 -13 2 -30l-33 -42q-16 -18 -31 -6zM1148 1665q205 0 369.5 -90t260.5 -258.5t96 -386.5q0 -167 -52.5 -317.5t-144.5 -265.5t-213 -199.5t-263.5 -128.5t-290.5 -44q-153 0 -286 53t-230 147.5
t-153 232.5t-56 302q0 167 52.5 317.5t144.5 265.5t213 199.5t263 128.5t290 44zM926 86q123 0 243 38t223.5 111t182 173t124 232.5t45.5 279.5q0 143 -47 262.5t-129 200t-194 125.5t-241 45q-124 0 -243.5 -37.5t-223 -111t-182.5 -173t-124 -232t-45 -279.5
q0 -143 47 -262.5t129 -200.5t194 -126t241 -45z" />
    <glyph glyph-name="oacute" unicode="&#xf3;" horiz-adv-x="2058" 
d="M1111 1887q-17 -12 -28 6l-23 42q-7 17 11 30l642 461q19 12 29 -5l31 -60q10 -17 -10 -29zM1148 1665q205 0 369.5 -90t260.5 -258.5t96 -386.5q0 -167 -52.5 -317.5t-144.5 -265.5t-213 -199.5t-263.5 -128.5t-290.5 -44q-153 0 -286 53t-230 147.5t-153 232.5t-56 302
q0 167 52.5 317.5t144.5 265.5t213 199.5t263 128.5t290 44zM926 86q123 0 243 38t223.5 111t182 173t124 232.5t45.5 279.5q0 143 -47 262.5t-129 200t-194 125.5t-241 45q-124 0 -243.5 -37.5t-223 -111t-182.5 -173t-124 -232t-45 -279.5q0 -143 47 -262.5t129 -200.5
t194 -126t241 -45z" />
    <glyph glyph-name="ocircumflex" unicode="&#xf4;" horiz-adv-x="2058" 
d="M1535 1891l-302 400l-414 -400q-12 -11 -29 -11h-89q-13 0 -16.5 6t8.5 18l491 467q11 11 32 11h60q19 0 29 -11l359 -467q8 -12 3.5 -18t-17.5 -6h-86q-21 0 -29 11zM1148 1665q205 0 369.5 -90t260.5 -258.5t96 -386.5q0 -167 -52.5 -317.5t-144.5 -265.5t-213 -199.5
t-263.5 -128.5t-290.5 -44q-153 0 -286 53t-230 147.5t-153 232.5t-56 302q0 167 52.5 317.5t144.5 265.5t213 199.5t263 128.5t290 44zM926 86q123 0 243 38t223.5 111t182 173t124 232.5t45.5 279.5q0 143 -47 262.5t-129 200t-194 125.5t-241 45q-124 0 -243.5 -37.5
t-223 -111t-182.5 -173t-124 -232t-45 -279.5q0 -143 47 -262.5t129 -200.5t194 -126t241 -45z" />
    <glyph glyph-name="otilde" unicode="&#xf5;" horiz-adv-x="2058" 
d="M664 1929q-20 0 -17 21q12 175 109.5 272.5t240.5 97.5q51 0 92.5 -16.5t70 -42.5t53 -57.5t47.5 -63t47 -57.5t58.5 -42.5t75.5 -16.5q199 0 258 275q5 21 25 21h37q20 0 14 -32q-12 -169 -110 -264t-237 -95q-51 0 -93 16.5t-70 42.5t-53 57.5t-47.5 63.5t-47 58
t-59 42.5t-75.5 16.5q-200 0 -258 -277q-5 -20 -24 -20h-37zM1148 1665q205 0 369.5 -90t260.5 -258.5t96 -386.5q0 -167 -52.5 -317.5t-144.5 -265.5t-213 -199.5t-263.5 -128.5t-290.5 -44q-153 0 -286 53t-230 147.5t-153 232.5t-56 302q0 167 52.5 317.5t144.5 265.5
t213 199.5t263 128.5t290 44zM926 86q123 0 243 38t223.5 111t182 173t124 232.5t45.5 279.5q0 143 -47 262.5t-129 200t-194 125.5t-241 45q-124 0 -243.5 -37.5t-223 -111t-182.5 -173t-124 -232t-45 -279.5q0 -143 47 -262.5t129 -200.5t194 -126t241 -45z" />
    <glyph glyph-name="odieresis" unicode="&#xf6;" horiz-adv-x="2058" 
d="M863 2024q-38 0 -63.5 26.5t-25.5 63.5q0 45 35.5 79t81.5 34q37 0 62.5 -26.5t25.5 -64.5q0 -45 -35.5 -78.5t-80.5 -33.5zM1533 2024q-37 0 -62.5 26.5t-25.5 63.5q0 45 35.5 79t81.5 34q37 0 62.5 -26.5t25.5 -64.5q0 -45 -36 -78.5t-81 -33.5zM1148 1665
q205 0 369.5 -90t260.5 -258.5t96 -386.5q0 -167 -52.5 -317.5t-144.5 -265.5t-213 -199.5t-263.5 -128.5t-290.5 -44q-153 0 -286 53t-230 147.5t-153 232.5t-56 302q0 167 52.5 317.5t144.5 265.5t213 199.5t263 128.5t290 44zM926 86q123 0 243 38t223.5 111t182 173
t124 232.5t45.5 279.5q0 143 -47 262.5t-129 200t-194 125.5t-241 45q-124 0 -243.5 -37.5t-223 -111t-182.5 -173t-124 -232t-45 -279.5q0 -143 47 -262.5t129 -200.5t194 -126t241 -45z" />
    <glyph glyph-name="divide" unicode="&#xf7;" horiz-adv-x="2046" 
d="M986 1455q-32 0 -52.5 22t-20.5 54q0 46 40 81.5t87 35.5q32 0 52.5 -22t20.5 -54q0 -46 -40 -81.5t-87 -35.5zM277 1003q-9 0 -14 6t-4 15l8 60q1 9 8 15t16 6h1544q20 0 18 -21l-8 -60q-1 -9 -8.5 -15t-16.5 -6h-1543zM846 460q-32 0 -52.5 22t-20.5 54q0 46 40 81.5
t87 35.5q32 0 52.5 -22t20.5 -54q0 -46 -40 -81.5t-87 -35.5z" />
    <glyph glyph-name="oslash" unicode="&#xf8;" horiz-adv-x="2066" 
d="M1951 1585q13 -15 -5 -29l-205 -180q134 -188 134 -446q0 -167 -52.5 -317.5t-144.5 -265.5t-213 -199.5t-263 -128.5t-290 -44q-157 0 -293 55t-234 157l-208 -182q-7 -6 -15.5 -6t-13.5 6l-36 42q-14 16 4 29l208 183q-137 189 -137 451q0 167 52.5 317.5t144.5 265.5
t213 199.5t263 128.5t290 44q159 0 295.5 -56t235.5 -160l204 179q16 13 28 0zM316 720q0 -216 106 -376l1163 1021q-83 90 -199.5 139t-251.5 49q-157 0 -305 -60t-261.5 -166.5t-182.5 -265t-69 -341.5zM1746 920q0 213 -103 371l-1163 -1021q83 -89 198.5 -136.5
t249.5 -47.5q157 0 304.5 60.5t261.5 166.5t183 265t69 342z" />
    <glyph glyph-name="ugrave" unicode="&#xf9;" 
d="M1191 1887l-525 445q-18 12 -3 29l48 60q5 7 14 8.5t16 -3.5l512 -461q15 -13 2 -30l-33 -42q-16 -18 -31 -6zM1821 1640q9 0 14.5 -6t4.5 -15l-225 -1598q-2 -9 -8.5 -15t-15.5 -6h-82q-20 0 -18 21l59 422q-35 -63 -88.5 -127t-131 -129t-166 -115t-201 -81t-227.5 -31
q-127 0 -224.5 32t-160 91.5t-99.5 143.5t-43 188t9 226l137 978q2 9 8.5 15t15.5 6h82q9 0 14 -6t4 -15l-132 -939q-85 -609 435 -609q143 0 284 56.5t250 149.5t184.5 219.5t94.5 260.5l121 862q4 21 23 21h82z" />
    <glyph glyph-name="uacute" unicode="&#xfa;" 
d="M1069 1887q-17 -12 -28 6l-23 42q-7 17 11 30l642 461q19 12 29 -5l31 -60q10 -17 -10 -29zM1821 1640q9 0 14.5 -6t4.5 -15l-225 -1598q-2 -9 -8.5 -15t-15.5 -6h-82q-20 0 -18 21l59 422q-35 -63 -88.5 -127t-131 -129t-166 -115t-201 -81t-227.5 -31q-127 0 -224.5 32
t-160 91.5t-99.5 143.5t-43 188t9 226l137 978q2 9 8.5 15t15.5 6h82q9 0 14 -6t4 -15l-132 -939q-85 -609 435 -609q143 0 284 56.5t250 149.5t184.5 219.5t94.5 260.5l121 862q4 21 23 21h82z" />
    <glyph glyph-name="ucircumflex" unicode="&#xfb;" 
d="M1493 1891l-302 400l-414 -400q-12 -11 -29 -11h-89q-13 0 -16.5 6t8.5 18l491 467q11 11 32 11h60q19 0 29 -11l359 -467q8 -12 3.5 -18t-17.5 -6h-86q-21 0 -29 11zM1821 1640q9 0 14.5 -6t4.5 -15l-225 -1598q-2 -9 -8.5 -15t-15.5 -6h-82q-20 0 -18 21l59 422
q-35 -63 -88.5 -127t-131 -129t-166 -115t-201 -81t-227.5 -31q-127 0 -224.5 32t-160 91.5t-99.5 143.5t-43 188t9 226l137 978q2 9 8.5 15t15.5 6h82q9 0 14 -6t4 -15l-132 -939q-85 -609 435 -609q143 0 284 56.5t250 149.5t184.5 219.5t94.5 260.5l121 862q4 21 23 21
h82z" />
    <glyph glyph-name="udieresis" unicode="&#xfc;" 
d="M821 2024q-38 0 -63.5 26.5t-25.5 63.5q0 45 35.5 79t81.5 34q37 0 62.5 -26.5t25.5 -64.5q0 -45 -35.5 -78.5t-80.5 -33.5zM1491 2024q-37 0 -62.5 26.5t-25.5 63.5q0 45 35.5 79t81.5 34q37 0 62.5 -26.5t25.5 -64.5q0 -45 -36 -78.5t-81 -33.5zM1821 1640q9 0 14.5 -6
t4.5 -15l-225 -1598q-2 -9 -8.5 -15t-15.5 -6h-82q-20 0 -18 21l59 422q-35 -63 -88.5 -127t-131 -129t-166 -115t-201 -81t-227.5 -31q-127 0 -224.5 32t-160 91.5t-99.5 143.5t-43 188t9 226l137 978q2 9 8.5 15t15.5 6h82q9 0 14 -6t4 -15l-132 -939q-85 -609 435 -609
q143 0 284 56.5t250 149.5t184.5 219.5t94.5 260.5l121 862q4 21 23 21h82z" />
    <glyph glyph-name="yacute" unicode="&#xfd;" horiz-adv-x="1601" 
d="M851 1893l-23 42q-7 17 11 30l642 461q19 12 29 -5l31 -60q10 -17 -10 -29l-652 -445q-17 -12 -28 6zM1674 1640q14 0 18 -12t-6 -27l-941 -1609q-115 -196 -203 -331t-181 -252.5t-176.5 -185.5t-175 -105.5t-190.5 -37.5q-23 0 -20 20l8 62q4 20 24 21q95 3 183 51
t187 159t202.5 265.5t245.5 397.5l-514 1545q-6 15 1.5 27t23.5 12h86q14 0 21 -17l458 -1436l835 1436q9 17 31 17h83z" />
    <glyph glyph-name="thorn" unicode="&#xfe;" horiz-adv-x="2092" 
d="M1192 1665q200 0 362.5 -90t257.5 -258.5t95 -386.5q0 -167 -52.5 -318t-144 -265.5t-211.5 -199t-260.5 -128.5t-284.5 -44q-242 0 -409 131.5t-228 354.5l-191 -1361q-3 -20 -24 -20h-82q-21 0 -18 20l483 3439q1 9 8 15t15 6h83q20 0 18 -21l-187 -1327
q122 209 325.5 331t444.5 122zM960 86q157 0 305 60.5t261.5 166.5t182.5 265t69 342q0 143 -47 262.5t-129 200t-194.5 125.5t-241.5 45q-162 0 -312 -64.5t-260.5 -174t-177 -263t-66.5 -321.5q0 -138 44.5 -257t123.5 -204.5t193 -134t249 -48.5z" />
    <glyph glyph-name="ydieresis" unicode="&#xff;" horiz-adv-x="1601" 
d="M631 2024q-38 0 -63.5 26.5t-25.5 63.5q0 45 35.5 79t81.5 34q37 0 62.5 -26.5t25.5 -64.5q0 -45 -35.5 -78.5t-80.5 -33.5zM1301 2024q-37 0 -62.5 26.5t-25.5 63.5q0 45 35.5 79t81.5 34q37 0 62.5 -26.5t25.5 -64.5q0 -45 -36 -78.5t-81 -33.5zM1674 1640q14 0 18 -12
t-6 -27l-941 -1609q-115 -196 -203 -331t-181 -252.5t-176.5 -185.5t-175 -105.5t-190.5 -37.5q-23 0 -20 20l8 62q4 20 24 21q95 3 183 51t187 159t202.5 265.5t245.5 397.5l-514 1545q-6 15 1.5 27t23.5 12h86q14 0 21 -17l458 -1436l835 1436q9 17 31 17h83z" />
    <glyph glyph-name="Amacron" unicode="&#x100;" horiz-adv-x="2415" 
d="M1020 2875q-8 0 -13 6.5t-4 14.5l7 53q1 8 8.5 14.5t15.5 6.5h977q8 0 13.5 -6.5t4.5 -14.5l-7 -53q-2 -8 -9 -14.5t-15 -6.5h-978zM2230 24q7 -24 -20 -24h-101q-19 0 -23 17l-244 837h-1247l-489 -837q-10 -17 -28 -17h-102q-12 0 -16.5 5.5t1.5 18.5l1444 2439
q10 17 27 17h41q19 0 24 -17zM657 960h1154l-385 1318z" />
    <glyph glyph-name="amacron" unicode="&#x101;" horiz-adv-x="2072" 
d="M723 2075q-8 0 -13 6.5t-4 14.5l7 53q1 8 8.5 14.5t15.5 6.5h977q8 0 13.5 -6.5t4.5 -14.5l-7 -53q-2 -8 -9 -14.5t-15 -6.5h-978zM1941 1619l-143 -1019q-14 -99 -17.5 -178t5 -149t18 -116t29.5 -122q5 -23 -16 -31l-57 -20q-15 -6 -22 5q-94 216 -84 444
q-122 -210 -326.5 -334t-447.5 -124q-200 0 -362.5 90t-257.5 258.5t-95 385.5q0 140 37 269t102.5 233t155.5 190t195.5 143.5t224 89t238.5 31.5q241 0 408 -131t229 -353l62 438q2 9 8.5 15t15.5 6h82q9 0 14 -6t4 -15zM906 86q162 0 312 65t261 174.5t177 263t66 321.5
q0 185 -75.5 331t-215 229t-318.5 83q-157 0 -305 -60t-261.5 -166.5t-182.5 -265t-69 -341.5q0 -143 47 -262.5t129 -200.5t194 -126t241 -45z" />
    <glyph glyph-name="Abreve" unicode="&#x102;" horiz-adv-x="2415" 
d="M1481 2670q-118 0 -215 45.5t-156.5 134.5t-59.5 205q0 44 7 59t21 15h55q9 0 13 -10.5t4 -42.5q0 -142 101 -222.5t244 -80.5q98 0 187.5 37.5t158 116t91.5 184.5q5 18 25 18h56q17 0 17 -18q0 -123 -80 -226t-205.5 -159t-263.5 -56zM2230 24q7 -24 -20 -24h-101
q-19 0 -23 17l-244 837h-1247l-489 -837q-10 -17 -28 -17h-102q-12 0 -16.5 5.5t1.5 18.5l1444 2439q10 17 27 17h41q19 0 24 -17zM657 960h1154l-385 1318z" />
    <glyph glyph-name="abreve" unicode="&#x103;" horiz-adv-x="2072" 
d="M1184 1870q-118 0 -215 45.5t-156.5 134.5t-59.5 205q0 44 7 59t21 15h55q9 0 13 -10.5t4 -42.5q0 -142 101 -222.5t244 -80.5q98 0 187.5 37.5t158 116t91.5 184.5q5 18 25 18h56q17 0 17 -18q0 -123 -80 -226t-205.5 -159t-263.5 -56zM1941 1619l-143 -1019
q-14 -99 -17.5 -178t5 -149t18 -116t29.5 -122q5 -23 -16 -31l-57 -20q-15 -6 -22 5q-94 216 -84 444q-122 -210 -326.5 -334t-447.5 -124q-200 0 -362.5 90t-257.5 258.5t-95 385.5q0 140 37 269t102.5 233t155.5 190t195.5 143.5t224 89t238.5 31.5q241 0 408 -131
t229 -353l62 438q2 9 8.5 15t15.5 6h82q9 0 14 -6t4 -15zM906 86q162 0 312 65t261 174.5t177 263t66 321.5q0 185 -75.5 331t-215 229t-318.5 83q-157 0 -305 -60t-261.5 -166.5t-182.5 -265t-69 -341.5q0 -143 47 -262.5t129 -200.5t194 -126t241 -45z" />
    <glyph glyph-name="Aogonek" unicode="&#x104;" horiz-adv-x="2415" 
d="M2230 24q7 -24 -20 -24h-38q-436 -237 -436 -527q0 -95 52 -150t149 -55q107 0 194 39q30 9 27 -15l-5 -39q-3 -19 -23 -28q-105 -45 -225 -45q-132 0 -202.5 73.5t-70.5 193.5q0 160 123.5 317.5t328.5 258.5l-242 831h-1247l-489 -837q-10 -17 -28 -17h-102
q-12 0 -16.5 5.5t1.5 18.5l1444 2439q10 17 27 17h41q19 0 24 -17zM657 960h1154l-385 1318z" />
    <glyph glyph-name="aogonek" unicode="&#x105;" horiz-adv-x="2071" 
d="M1941 1619l-143 -1019q-14 -99 -17.5 -178t4.5 -149t17.5 -116t29.5 -122q5 -20 -15 -31q-452 -254 -486 -493q-35 -239 180 -239q98 0 187 39q14 5 21.5 1t6.5 -16l-6 -39q-3 -19 -23 -28q-95 -45 -218 -45q-146 0 -209 85t-43 227q38 273 491 527q-71 196 -61 416
q-122 -213 -327 -338.5t-450 -125.5q-200 0 -362.5 90t-257.5 258.5t-95 385.5q0 140 37 269t102.5 233t155.5 190t195.5 143.5t224 89t238.5 31.5q241 0 408 -131t229 -353l62 438q2 9 8.5 15t15.5 6h82q9 0 14 -6t4 -15zM906 86q161 0 312 67t261 178t176.5 263.5
t66.5 315.5q0 178 -75.5 324t-215.5 232.5t-318 86.5q-157 0 -305 -60t-261.5 -166.5t-182.5 -265t-69 -341.5q0 -143 47 -262.5t129 -200.5t194 -126t241 -45z" />
    <glyph glyph-name="Cacute" unicode="&#x106;" horiz-adv-x="2600" 
d="M1612 2687q-17 -12 -28 6l-23 42q-7 17 11 30l642 461q19 12 29 -5l31 -60q10 -17 -10 -29zM2372 639q20 -8 6 -29q-406 -635 -1080 -635q-217 0 -407 76t-330.5 213.5t-221.5 341t-81 445.5q0 210 54 402.5t149.5 346t227.5 279.5t286 210.5t326 130t347 45.5
q670 0 901 -635q8 -21 -13 -29l-72 -32q-20 -10 -28 11q-206 574 -804 574q-160 0 -315.5 -42.5t-292 -121t-253 -194.5t-200 -256.5t-130.5 -314.5t-47 -362q0 -218 69.5 -401.5t192 -309.5t292 -196t366.5 -70q594 0 965 574q13 21 32 11z" />
    <glyph glyph-name="cacute" unicode="&#x107;" horiz-adv-x="1911" 
d="M1119 1887q-17 -12 -28 6l-23 42q-7 17 11 30l642 461q19 12 29 -5l31 -60q10 -17 -10 -29zM1666 449q17 -9 5 -29q-122 -209 -313.5 -327t-443.5 -118q-209 0 -374.5 89.5t-260.5 257.5t-95 386q0 167 51.5 318t143 266t213 200t265.5 129t295 44q251 0 410 -118.5
t222 -327.5q8 -19 -14 -28l-75 -33q-19 -8 -27 10q-56 184 -189 284.5t-339 100.5q-165 0 -315.5 -60.5t-263.5 -167.5t-180 -265t-67 -343q0 -286 173.5 -458.5t448.5 -172.5q400 0 634 386q15 18 30 10z" />
    <glyph glyph-name="Cdotaccent" unicode="&#x10a;" horiz-adv-x="2600" 
d="M1699 2823q-39 0 -65 27t-26 66q0 46 37 81t83 35q39 0 65 -27t26 -66q0 -46 -36.5 -81t-83.5 -35zM2372 639q20 -8 6 -29q-406 -635 -1080 -635q-217 0 -407 76t-330.5 213.5t-221.5 341t-81 445.5q0 210 54 402.5t149.5 346t227.5 279.5t286 210.5t326 130t347 45.5
q670 0 901 -635q8 -21 -13 -29l-72 -32q-20 -10 -28 11q-206 574 -804 574q-160 0 -315.5 -42.5t-292 -121t-253 -194.5t-200 -256.5t-130.5 -314.5t-47 -362q0 -218 69.5 -401.5t192 -309.5t292 -196t366.5 -70q594 0 965 574q13 21 32 11z" />
    <glyph glyph-name="cdotaccent" unicode="&#x10b;" horiz-adv-x="1911" 
d="M1206 2023q-39 0 -65 27t-26 66q0 46 37 81t83 35q39 0 65 -27t26 -66q0 -46 -36.5 -81t-83.5 -35zM1666 449q17 -9 5 -29q-122 -209 -313.5 -327t-443.5 -118q-209 0 -374.5 89.5t-260.5 257.5t-95 386q0 167 51.5 318t143 266t213 200t265.5 129t295 44
q251 0 410 -118.5t222 -327.5q8 -19 -14 -28l-75 -33q-19 -8 -27 10q-56 184 -189 284.5t-339 100.5q-165 0 -315.5 -60.5t-263.5 -167.5t-180 -265t-67 -343q0 -286 173.5 -458.5t448.5 -172.5q400 0 634 386q15 18 30 10z" />
    <glyph glyph-name="Ccaron" unicode="&#x10c;" horiz-adv-x="2600" 
d="M2103 3167q12 12 32 12h86q13 0 16 -6.5t-8 -17.5l-491 -468q-12 -10 -33 -10h-59q-21 0 -29 10l-360 468q-8 11 -3 17.5t18 6.5h89q17 0 26 -12l302 -399zM2372 639q20 -8 6 -29q-406 -635 -1080 -635q-217 0 -407 76t-330.5 213.5t-221.5 341t-81 445.5q0 210 54 402.5
t149.5 346t227.5 279.5t286 210.5t326 130t347 45.5q670 0 901 -635q8 -21 -13 -29l-72 -32q-20 -10 -28 11q-206 574 -804 574q-160 0 -315.5 -42.5t-292 -121t-253 -194.5t-200 -256.5t-130.5 -314.5t-47 -362q0 -218 69.5 -401.5t192 -309.5t292 -196t366.5 -70
q594 0 965 574q13 21 32 11z" />
    <glyph glyph-name="ccaron" unicode="&#x10d;" horiz-adv-x="1911" 
d="M1610 2367q12 12 32 12h86q13 0 16 -6.5t-8 -17.5l-491 -468q-13 -10 -33 -10h-59q-21 0 -29 10l-360 468q-8 11 -3 17.5t18 6.5h89q17 0 26 -12l302 -399zM1666 449q17 -9 5 -29q-122 -209 -313.5 -327t-443.5 -118q-209 0 -374.5 89.5t-260.5 257.5t-95 386
q0 167 51.5 318t143 266t213 200t265.5 129t295 44q251 0 410 -118.5t222 -327.5q8 -19 -14 -28l-75 -33q-19 -8 -27 10q-56 184 -189 284.5t-339 100.5q-165 0 -315.5 -60.5t-263.5 -167.5t-180 -265t-67 -343q0 -286 173.5 -458.5t448.5 -172.5q400 0 634 386q15 18 30 10
z" />
    <glyph glyph-name="Dcaron" unicode="&#x10e;" horiz-adv-x="2499" 
d="M1340 2687l-360 468q-8 11 -3 17.5t18 6.5h89q17 0 26 -12l302 -399l414 399q12 12 32 12h86q13 0 16 -6.5t-8 -17.5l-491 -468q-13 -10 -33 -10h-59q-21 0 -29 10zM1279 2440q231 0 427.5 -70.5t340.5 -202t225 -330t81 -443.5q0 -215 -53 -408t-147.5 -345t-226 -273.5
t-289 -202t-335.5 -123t-366 -42.5h-734h-54q-8 0 -13.5 6.5t-3.5 14.5l336 2398q1 8 8.5 14.5t15.5 6.5h87h701zM942 111q207 0 398 55.5t350.5 164.5t277.5 260.5t184 354t66 434.5q0 220 -71.5 399.5t-199.5 299.5t-305 185t-388 65h-671l-310 -2218h669z" />
    <glyph glyph-name="dcaron" unicode="&#x10f;" horiz-adv-x="2444" 
d="M2426 2591q36 0 61 -25t25 -76q0 -106 -76 -253t-200 -243q-17 -13 -29 3l-9 9q-7 16 7 29q75 66 124.5 153t49.5 162q0 19 -7 30t-26 23q-38 25 -38 72t36 81.5t82 34.5zM2073 2560q20 0 18 -21l-354 -2518q-2 -9 -8.5 -15t-15.5 -6h-82q-9 0 -14.5 6t-4.5 15l57 405
q-122 -207 -325 -329t-444 -122q-200 0 -362.5 90t-257.5 258.5t-95 385.5q0 140 37 269t102.5 233t155.5 190t195.5 143.5t224 89t238.5 31.5q241 0 408 -131t230 -353l191 1358q3 21 23 21h83zM926 86q162 0 312 65t261 174.5t177 263t66 321.5q0 185 -75.5 331t-215 229
t-318.5 83q-157 0 -305 -60t-261.5 -166.5t-182.5 -265t-69 -341.5q0 -143 47 -262.5t129 -200.5t194 -126t241 -45z" />
    <glyph glyph-name="Dcroat" unicode="&#x110;" horiz-adv-x="2499" 
d="M1279 2440q231 0 427.5 -70.5t340.5 -202t225 -330t81 -443.5q0 -215 -53 -408t-147.5 -345t-226 -273.5t-289 -202t-335.5 -123t-366 -42.5h-734h-54q-8 0 -13.5 6.5t-3.5 14.5l161 1148h-311q-9 0 -14 6t-4 15l8 59q1 9 8 15t16 6h311l161 1149q1 8 8.5 14.5t15.5 6.5
h87h701zM942 111q207 0 398 55.5t350.5 164.5t277.5 260.5t184 354t66 434.5q0 220 -71.5 399.5t-199.5 299.5t-305 185t-388 65h-671l-148 -1059h663q20 0 18 -21l-8 -59q-4 -21 -24 -21h-663l-148 -1058h669z" />
    <glyph glyph-name="dcroat" unicode="&#x111;" horiz-adv-x="2188" 
d="M2332 2130q9 0 14 -6t4 -15l-6 -40q-4 -21 -23 -21h-299l-285 -2027q-2 -9 -8.5 -15t-15.5 -6h-82q-9 0 -14.5 6t-4.5 15l57 405q-122 -207 -325 -329t-444 -122q-200 0 -362.5 90t-257.5 258.5t-95 385.5q0 140 37 269t102.5 233t155.5 190t195.5 143.5t224 89
t238.5 31.5q241 0 408 -131t230 -353l122 867h-520q-9 0 -14.5 6t-4.5 15l6 40q2 9 8.5 15t15.5 6h520l58 409q3 21 23 21h83q20 0 18 -21l-58 -409h299zM926 86q162 0 312 65t261 174.5t177 263t66 321.5q0 185 -75.5 331t-215 229t-318.5 83q-157 0 -305 -60
t-261.5 -166.5t-182.5 -265t-69 -341.5q0 -143 47 -262.5t129 -200.5t194 -126t241 -45z" />
    <glyph glyph-name="Emacron" unicode="&#x112;" horiz-adv-x="2124" 
d="M885 2875q-8 0 -13 6.5t-4 14.5l7 53q1 8 8.5 14.5t15.5 6.5h977q8 0 13.5 -6.5t4.5 -14.5l-7 -53q-2 -8 -9 -14.5t-15 -6.5h-978zM2088 2440q20 0 18 -21l-9 -69q-5 -21 -24 -21h-1490l-140 -999h1329q9 0 14 -6t4 -15l-9 -70q-5 -20 -24 -20h-1329l-155 -1108h1528
q20 0 18 -21l-9 -69q-5 -21 -25 -21h-1581h-56q-8 0 -13.5 6.5t-3.5 14.5l336 2398q1 8 8.5 14.5t15.5 6.5h87h1510z" />
    <glyph glyph-name="emacron" unicode="&#x113;" horiz-adv-x="1943" 
d="M653 2075q-8 0 -13 6.5t-4 14.5l7 53q1 8 8.5 14.5t15.5 6.5h977q8 0 13.5 -6.5t4.5 -14.5l-7 -53q-2 -8 -9 -14.5t-15 -6.5h-978zM1760 862h-1434q-11 -72 -11 -142q0 -143 47 -262.5t129 -200.5t194 -126t241 -45q410 0 636 381q12 18 31 10l65 -33q18 -9 6 -29
q-127 -216 -320.5 -328t-438.5 -112q-152 0 -284.5 52.5t-229 147t-151.5 232.5t-55 301q0 207 77.5 388t207 304.5t300.5 194t357 70.5q163 0 292.5 -54.5t214 -155.5t118.5 -253.5t8 -339.5zM1112 1558q-266 0 -480 -164.5t-287 -435.5h1288q24 282 -120 441t-401 159z
" />
    <glyph glyph-name="Edotaccent" unicode="&#x116;" horiz-adv-x="2124" 
d="M1367 2823q-39 0 -65 27t-26 66q0 46 37 81t83 35q39 0 65 -27t26 -66q0 -46 -36.5 -81t-83.5 -35zM2088 2440q20 0 18 -21l-9 -69q-5 -21 -24 -21h-1490l-140 -999h1329q9 0 14 -6t4 -15l-9 -70q-5 -20 -24 -20h-1329l-155 -1108h1528q20 0 18 -21l-9 -69
q-5 -21 -25 -21h-1581h-56q-8 0 -13.5 6.5t-3.5 14.5l336 2398q1 8 8.5 14.5t15.5 6.5h87h1510z" />
    <glyph glyph-name="edotaccent" unicode="&#x117;" horiz-adv-x="1943" 
d="M1135 2023q-39 0 -65 27t-26 66q0 46 37 81t83 35q39 0 65 -27t26 -66q0 -46 -36.5 -81t-83.5 -35zM1760 862h-1434q-11 -72 -11 -142q0 -143 47 -262.5t129 -200.5t194 -126t241 -45q410 0 636 381q12 18 31 10l65 -33q18 -9 6 -29q-127 -216 -320.5 -328t-438.5 -112
q-152 0 -284.5 52.5t-229 147t-151.5 232.5t-55 301q0 207 77.5 388t207 304.5t300.5 194t357 70.5q163 0 292.5 -54.5t214 -155.5t118.5 -253.5t8 -339.5zM1112 1558q-266 0 -480 -164.5t-287 -435.5h1288q24 282 -120 441t-401 159z" />
    <glyph glyph-name="Eogonek" unicode="&#x118;" horiz-adv-x="2124" 
d="M2088 2440q20 0 18 -21l-9 -69q-5 -21 -24 -21h-1490l-140 -999h1329q9 0 14 -6t4 -15l-9 -70q-5 -20 -24 -20h-1329l-155 -1108h1528q20 0 18 -21l-9 -69q-5 -21 -25 -21h-94q-436 -237 -436 -527q0 -95 52 -150t149 -55q107 0 194 39q30 9 27 -15l-5 -39
q-3 -19 -23 -28q-105 -45 -225 -45q-132 0 -202.5 73.5t-70.5 193.5q0 150 110.5 300t296.5 253h-1354h-56q-8 0 -13.5 6.5t-3.5 14.5l336 2398q1 8 8.5 14.5t15.5 6.5h87h1510z" />
    <glyph glyph-name="eogonek" unicode="&#x119;" horiz-adv-x="1943" 
d="M1760 862h-1434q-11 -72 -11 -142q0 -143 47 -262.5t129 -200.5t194 -126t241 -45q410 0 636 381q12 18 31 10l65 -33q18 -9 6 -29q-165 -281 -440 -384q-352 -216 -352 -487q0 -114 60.5 -180t170.5 -66q108 0 190 39q29 10 29 -15v-39q0 -19 -19 -28q-95 -45 -219 -45
q-148 0 -230.5 87t-82.5 228q0 122 69.5 243.5t193.5 214.5q-67 -8 -129 -8q-152 0 -284.5 52.5t-229 147t-151.5 232.5t-55 301q0 207 77.5 388t207 304.5t300.5 194t357 70.5q163 0 292.5 -54.5t214 -155.5t118.5 -253.5t8 -339.5zM1112 1558q-266 0 -480 -164.5
t-287 -435.5h1288q24 282 -120 441t-401 159z" />
    <glyph glyph-name="Ecaron" unicode="&#x11a;" horiz-adv-x="2124" 
d="M1285 2687l-360 468q-8 11 -3 17.5t18 6.5h89q17 0 26 -12l302 -399l414 399q12 12 32 12h86q13 0 16 -6.5t-8 -17.5l-491 -468q-13 -10 -33 -10h-59q-21 0 -29 10zM2088 2440q20 0 18 -21l-9 -69q-5 -21 -24 -21h-1490l-140 -999h1329q9 0 14 -6t4 -15l-9 -70
q-5 -20 -24 -20h-1329l-155 -1108h1528q20 0 18 -21l-9 -69q-5 -21 -25 -21h-1581h-56q-8 0 -13.5 6.5t-3.5 14.5l336 2398q1 8 8.5 14.5t15.5 6.5h87h1510z" />
    <glyph glyph-name="ecaron" unicode="&#x11b;" horiz-adv-x="1943" 
d="M1053 1887l-360 468q-8 11 -3 17.5t18 6.5h89q17 0 26 -12l302 -399l414 399q12 12 32 12h86q13 0 16 -6.5t-8 -17.5l-491 -468q-12 -10 -33 -10h-59q-21 0 -29 10zM1760 862h-1434q-11 -72 -11 -142q0 -143 47 -262.5t129 -200.5t194 -126t241 -45q410 0 636 381
q12 18 31 10l65 -33q18 -9 6 -29q-127 -216 -320.5 -328t-438.5 -112q-152 0 -284.5 52.5t-229 147t-151.5 232.5t-55 301q0 207 77.5 388t207 304.5t300.5 194t357 70.5q163 0 292.5 -54.5t214 -155.5t118.5 -253.5t8 -339.5zM1112 1558q-266 0 -480 -164.5t-287 -435.5
h1288q24 282 -120 441t-401 159z" />
    <glyph glyph-name="Gbreve" unicode="&#x11e;" horiz-adv-x="2651" 
d="M1655 2670q-118 0 -215 45.5t-156.5 134.5t-59.5 205q0 44 7 59t21 15h55q9 0 13 -10.5t4 -42.5q0 -142 101 -222.5t244 -80.5q98 0 187.5 37.5t158 116t91.5 184.5q5 18 25 18h56q17 0 17 -18q0 -123 -80 -226t-205.5 -159t-263.5 -56zM2547 1903q9 -19 -14 -30l-72 -31
q-19 -10 -28 11q-128 262 -318.5 381.5t-482.5 119.5q-160 0 -315.5 -42.5t-292 -121t-253 -194.5t-200 -256.5t-130.5 -314.5t-47 -362q0 -218 69.5 -401.5t192 -309.5t292 -196t366.5 -70q251 0 461 55.5t444 187.5l101 715q1 9 8 15t16 6h78q19 0 17 -21l-108 -767
q-258 -159 -500 -230.5t-533 -71.5q-217 0 -407 76t-330.5 213.5t-221.5 341t-81 445.5q0 210 54 402.5t149.5 346t227.5 279.5t286 210.5t326 130t347 45.5q330 0 543 -135.5t356 -426.5z" />
    <glyph glyph-name="gbreve" unicode="&#x11f;" horiz-adv-x="1860" 
d="M1065 1870q-118 0 -215 45.5t-156.5 134.5t-59.5 205q0 44 7 59t21 15h55q9 0 13 -10.5t4 -42.5q0 -142 101 -222.5t244 -80.5q98 0 187.5 37.5t158 116t91.5 184.5q5 18 25 18h56q17 0 17 -18q0 -123 -80 -226t-205.5 -159t-263.5 -56zM1855 1705q20 0 17 -19l-11 -76
q-2 -17 -19 -17q-100 0 -183 -50t-122 -138q70 -107 70 -250q0 -125 -57.5 -240.5t-154.5 -201t-233.5 -137t-286.5 -51.5h-208q-208 0 -311.5 -72.5t-103.5 -183.5q0 -190 353 -190h265q335 0 514.5 -120t179.5 -328q0 -122 -54.5 -224.5t-158 -177.5t-262.5 -117t-359 -42
q-337 0 -517 119t-180 319q0 170 130.5 296t339.5 191q-103 5 -176 26.5t-114 56t-59 76t-18 93.5q0 66 27 123.5t81 104t140.5 77.5t199.5 41q-134 58 -210.5 177t-76.5 264q0 125 58 241t155.5 201.5t234.5 137t288 51.5q143 0 259 -47.5t194 -131.5q57 100 157 159.5
t212 59.5zM886 626q120 0 230.5 42t190.5 112t127.5 165.5t47.5 199.5q0 181 -129 299.5t-335 118.5q-120 0 -230.5 -43t-190.5 -113.5t-127.5 -166t-47.5 -196.5q0 -178 127.5 -298t336.5 -120zM855 -22q-184 0 -343.5 -55.5t-258.5 -160t-99 -234.5q0 -168 150.5 -265
t436.5 -97q337 0 519.5 122t182.5 327q0 166 -150.5 264.5t-437.5 98.5z" />
    <glyph glyph-name="Gdotaccent" unicode="&#x120;" horiz-adv-x="2651" 
d="M1676 2823q-39 0 -65 27t-26 66q0 46 37 81t83 35q39 0 65 -27t26 -66q0 -46 -36.5 -81t-83.5 -35zM2422 1065q19 0 17 -21l-108 -767q-258 -159 -500 -230.5t-533 -71.5q-217 0 -407 76t-330.5 213.5t-221.5 341t-81 445.5q0 210 54 402.5t149.5 346t227.5 279.5
t286 210.5t326 130t347 45.5q330 0 543 -135.5t356 -426.5q9 -19 -14 -30l-72 -31q-19 -10 -28 11q-128 262 -318.5 381.5t-482.5 119.5q-160 0 -315.5 -42.5t-292 -121t-253 -194.5t-200 -256.5t-130.5 -314.5t-47 -362q0 -218 69.5 -401.5t192 -309.5t292 -196t366.5 -70
q251 0 461 55.5t444 187.5l101 715q1 9 8 15t16 6h78z" />
    <glyph glyph-name="gdotaccent" unicode="&#x121;" horiz-adv-x="1860" 
d="M1086 2023q-39 0 -65 27t-26 66q0 46 37 81t83 35q39 0 65 -27t26 -66q0 -46 -36.5 -81t-83.5 -35zM1855 1705q20 0 17 -19l-11 -76q-2 -17 -19 -17q-100 0 -183 -50t-122 -138q70 -107 70 -250q0 -125 -57.5 -240.5t-154.5 -201t-233.5 -137t-286.5 -51.5h-208
q-208 0 -311.5 -72.5t-103.5 -183.5q0 -190 353 -190h265q335 0 514.5 -120t179.5 -328q0 -122 -54.5 -224.5t-158 -177.5t-262.5 -117t-359 -42q-337 0 -517 119t-180 319q0 170 130.5 296t339.5 191q-103 5 -176 26.5t-114 56t-59 76t-18 93.5q0 66 27 123.5t81 104
t140.5 77.5t199.5 41q-134 58 -210.5 177t-76.5 264q0 125 58 241t155.5 201.5t234.5 137t288 51.5q143 0 259 -47.5t194 -131.5q57 100 157 159.5t212 59.5zM886 626q120 0 230.5 42t190.5 112t127.5 165.5t47.5 199.5q0 181 -129 299.5t-335 118.5q-120 0 -230.5 -43
t-190.5 -113.5t-127.5 -166t-47.5 -196.5q0 -178 127.5 -298t336.5 -120zM1443 -385q0 166 -150.5 264.5t-437.5 98.5q-184 0 -343.5 -55.5t-258.5 -160t-99 -234.5q0 -168 150.5 -265t436.5 -97q337 0 519.5 122t182.5 327z" />
    <glyph glyph-name="Gcommaaccent" unicode="&#x122;" horiz-adv-x="2651" 
d="M2422 1065q19 0 17 -21l-108 -767q-258 -159 -500 -230.5t-533 -71.5q-217 0 -407 76t-330.5 213.5t-221.5 341t-81 445.5q0 210 54 402.5t149.5 346t227.5 279.5t286 210.5t326 130t347 45.5q330 0 543 -135.5t356 -426.5q9 -19 -14 -30l-72 -31q-19 -10 -28 11
q-128 262 -318.5 381.5t-482.5 119.5q-160 0 -315.5 -42.5t-292 -121t-253 -194.5t-200 -256.5t-130.5 -314.5t-47 -362q0 -218 69.5 -401.5t192 -309.5t292 -196t366.5 -70q251 0 461 55.5t444 187.5l101 715q1 9 8 15t16 6h78zM1162 -276q36 0 60.5 -24.5t24.5 -73.5
q0 -105 -75 -250t-197 -242q-17 -12 -29 4l-7 9q-10 14 5 27q75 66 125 153.5t50 162.5q0 30 -34 51q-37 23 -37 69t35 80t79 34z" />
    <glyph glyph-name="gcommaaccent" unicode="&#x123;" horiz-adv-x="1860" 
d="M1085 2020q-36 0 -60.5 24.5t-24.5 73.5q0 105 75 250t197 242q17 12 29 -4l7 -9q10 -14 -5 -27q-75 -66 -125 -153.5t-50 -162.5q0 -30 34 -51q37 -23 37 -69t-35 -80t-79 -34zM1855 1705q20 0 17 -19l-11 -76q-2 -17 -19 -17q-100 0 -183 -50t-122 -138
q70 -107 70 -250q0 -125 -57.5 -240.5t-154.5 -201t-233.5 -137t-286.5 -51.5h-208q-208 0 -311.5 -72.5t-103.5 -183.5q0 -190 353 -190h265q335 0 514.5 -120t179.5 -328q0 -122 -54.5 -224.5t-158 -177.5t-262.5 -117t-359 -42q-337 0 -517 119t-180 319q0 170 130.5 296
t339.5 191q-103 5 -176 26.5t-114 56t-59 76t-18 93.5q0 66 27 123.5t81 104t140.5 77.5t199.5 41q-134 58 -210.5 177t-76.5 264q0 125 58 241t155.5 201.5t234.5 137t288 51.5q143 0 259 -47.5t194 -131.5q57 100 157 159.5t212 59.5zM886 626q120 0 230.5 42t190.5 112
t127.5 165.5t47.5 199.5q0 181 -129 299.5t-335 118.5q-120 0 -230.5 -43t-190.5 -113.5t-127.5 -166t-47.5 -196.5q0 -178 127.5 -298t336.5 -120zM1443 -385q0 166 -150.5 264.5t-437.5 98.5q-184 0 -343.5 -55.5t-258.5 -160t-99 -234.5q0 -168 150.5 -265t436.5 -97
q337 0 519.5 122t182.5 327z" />
    <glyph glyph-name="Hbar" unicode="&#x126;" horiz-adv-x="2549" 
d="M2687 1955q9 0 14 -6t4 -15l-8 -60q-2 -9 -8.5 -15t-15.5 -6h-254l-257 -1832q-1 -8 -9 -14.5t-16 -6.5h-87q-8 0 -13.5 6.5t-3.5 14.5l168 1198h-1741l-168 -1198q-1 -8 -9 -14.5t-16 -6.5h-87q-8 0 -13.5 6.5t-3.5 14.5l257 1832h-254q-9 0 -14 6t-4 15l8 60
q4 21 24 21h254l65 464q1 8 8.5 14.5t15.5 6.5h87q8 0 13.5 -6.5t4.5 -14.5l-65 -464h1741l65 464q1 8 8.5 14.5t15.5 6.5h87q8 0 13.5 -6.5t4.5 -14.5l-65 -464h254zM2216 1330l74 523h-1741l-74 -523h1741z" />
    <glyph glyph-name="hbar" unicode="&#x127;" horiz-adv-x="2096" 
d="M1359 1680q127 0 224.5 -32t160 -91.5t100 -143.5t43.5 -188t-9 -226l-137 -978q-1 -9 -8 -15t-15 -6h-83q-9 0 -14.5 6t-4.5 15l133 939q41 293 -64 450.5t-371 157.5q-176 0 -343 -81.5t-285.5 -220t-164.5 -303.5l-133 -942q-2 -21 -23 -21h-83q-8 0 -13.5 6t-4.5 15
l285 2027h-335q-9 0 -14 6t-4 15l6 40q2 21 23 21h335l58 409q4 21 24 21h83q8 0 13 -6t4 -15l-58 -409h484q9 0 14 -6t4 -15l-5 -40q-2 -9 -8.5 -15t-15.5 -6h-484l-117 -830q49 81 125 158.5t177 147.5t232.5 113t268.5 43z" />
    <glyph glyph-name="Imacron" unicode="&#x12a;" horiz-adv-x="614" 
d="M97 2949q1 8 8.5 14.5t15.5 6.5h977q8 0 13.5 -6.5t4.5 -14.5l-7 -53q-2 -8 -9 -14.5t-15 -6.5h-978q-8 0 -13 6.5t-4 14.5zM467 2419q1 8 8.5 14.5t15.5 6.5h87q8 0 13.5 -6.5t4.5 -14.5l-336 -2398q-1 -8 -9 -14.5t-16 -6.5h-87q-8 0 -13.5 6.5t-3.5 14.5z" />
    <glyph glyph-name="imacron" unicode="&#x12b;" horiz-adv-x="610" 
d="M-17 2149q1 8 8.5 14.5t15.5 6.5h977q8 0 13.5 -6.5t4.5 -14.5l-7 -53q-2 -8 -9 -14.5t-15 -6.5h-978q-8 0 -13 6.5t-4 14.5zM356 1619q2 21 23 21h83q8 0 13.5 -6t4.5 -15l-225 -1598q-2 -9 -8.5 -15t-15.5 -6h-82q-9 0 -14 6t-4 15z" />
    <glyph glyph-name="Iogonek" unicode="&#x12e;" horiz-adv-x="614" 
d="M578 2440q8 0 13.5 -6.5t4.5 -14.5l-336 -2398q-1 -8 -9 -14.5t-16 -6.5h-24q-436 -237 -436 -527q0 -95 52 -150t149 -55q107 0 194 39q30 9 27 -15l-5 -39q-3 -19 -23 -28q-105 -45 -225 -45q-132 0 -202.5 73.5t-70.5 193.5q0 161 126 320.5t335 260.5l335 2391
q1 8 8.5 14.5t15.5 6.5h87z" />
    <glyph glyph-name="iogonek" unicode="&#x12f;" horiz-adv-x="610" 
d="M504 2232q39 0 65 -27t26 -66q0 -46 -36.5 -81t-83.5 -35q-39 0 -65 27t-26 66q0 46 37 81t83 35zM462 1640q8 0 13.5 -6t4.5 -15l-225 -1598q-2 -9 -8.5 -15t-15.5 -6h-18q-436 -237 -436 -527q0 -95 52 -150t149 -55q107 0 194 39q30 9 27 -15l-5 -39q-3 -19 -23 -28
q-105 -45 -225 -45q-132 0 -202.5 73.5t-70.5 193.5q0 161 125.5 320t333.5 260l224 1592q2 21 23 21h83z" />
    <glyph glyph-name="Idotaccent" unicode="&#x130;" horiz-adv-x="614" 
d="M589 2823q-39 0 -65 27t-26 66q0 46 37 81t83 35q39 0 65 -27t26 -66q0 -46 -36.5 -81t-83.5 -35zM467 2419q1 8 8.5 14.5t15.5 6.5h87q8 0 13.5 -6.5t4.5 -14.5l-336 -2398q-1 -8 -9 -14.5t-16 -6.5h-87q-8 0 -13.5 6.5t-3.5 14.5z" />
    <glyph glyph-name="dotlessi" unicode="&#x131;" horiz-adv-x="610" 
d="M356 1619q2 21 23 21h83q8 0 13.5 -6t4.5 -15l-225 -1598q-2 -9 -8.5 -15t-15.5 -6h-82q-9 0 -14 6t-4 15z" />
    <glyph glyph-name="Kcommaaccent" unicode="&#x136;" horiz-adv-x="2237" 
d="M580 2440q8 0 13.5 -6.5t3.5 -14.5l-337 -2398q-1 -8 -8 -14.5t-15 -6.5h-88q-8 0 -13.5 6.5t-4.5 14.5l337 2398q1 8 8.5 14.5t15.5 6.5h88zM1959 27q8 -11 3 -19t-19 -8h-110q-19 0 -31 14l-1023 1228l1359 1184q15 14 35 14h104q12 0 14.5 -7.5t-10.5 -19.5
l-1339 -1170zM908 -276q36 0 60.5 -24.5t24.5 -73.5q0 -105 -75 -250t-197 -242q-17 -12 -29 4l-7 9q-10 14 5 27q75 66 125 153.5t50 162.5q0 30 -34 51q-37 23 -37 69t35 80t79 34z" />
    <glyph glyph-name="kcommaaccent" unicode="&#x137;" horiz-adv-x="1674" 
d="M484 2539q1 9 8 15t16 6h82q20 0 18 -21l-353 -2518q-1 -9 -8.5 -15t-16.5 -6h-82q-20 0 -17 21zM1339 0q-17 0 -29 15l-724 885l904 729q14 11 29 11h107q12 0 15 -7.5t-7 -16.5l-897 -721l708 -868q8 -12 3.5 -19.5t-18.5 -7.5h-91zM647 -276q36 0 60.5 -24.5
t24.5 -73.5q0 -105 -75 -250t-197 -242q-17 -12 -29 4l-7 9q-10 14 5 27q75 66 125 153.5t50 162.5q0 30 -34 51q-37 23 -37 69t35 80t79 34z" />
    <glyph glyph-name="Lacute" unicode="&#x139;" horiz-adv-x="1923" 
d="M503 2687q-17 -12 -28 6l-23 42q-7 17 11 30l642 461q19 12 29 -5l31 -60q10 -17 -10 -29zM1700 111q9 0 14 -6t3 -15l-9 -69q-1 -9 -8 -15t-15 -6h-1536q-8 0 -13.5 6.5t-4.5 14.5l337 2398q1 8 8.5 14.5t15.5 6.5h88q8 0 13.5 -6.5t3.5 -14.5l-325 -2308h1428z" />
    <glyph glyph-name="lacute" unicode="&#x13a;" horiz-adv-x="610" 
d="M505 2717q-17 -12 -28 6l-23 42q-7 17 11 30l642 461q19 12 29 -5l31 -60q10 -17 -10 -29zM485 2539q1 9 8 15t16 6h82q20 0 18 -21l-354 -2518q-2 -9 -8.5 -15t-15.5 -6h-82q-9 0 -14 6t-4 15z" />
    <glyph glyph-name="Lcommaaccent" unicode="&#x13b;" horiz-adv-x="1923" 
d="M1700 111q9 0 14 -6t3 -15l-9 -69q-1 -9 -8 -15t-15 -6h-1536q-8 0 -13.5 6.5t-4.5 14.5l337 2398q1 8 8.5 14.5t15.5 6.5h88q8 0 13.5 -6.5t3.5 -14.5l-325 -2308h1428zM823 -276q36 0 60.5 -24.5t24.5 -73.5q0 -105 -75 -250t-197 -242q-17 -12 -29 4l-7 9q-10 14 5 27
q75 66 125 153.5t50 162.5q0 30 -34 51q-37 23 -37 69t35 80t79 34z" />
    <glyph glyph-name="lcommaaccent" unicode="&#x13c;" horiz-adv-x="610" 
d="M485 2539q1 9 8 15t16 6h82q20 0 18 -21l-354 -2518q-2 -9 -8.5 -15t-15.5 -6h-82q-9 0 -14 6t-4 15zM110 -276q36 0 60.5 -24.5t24.5 -73.5q0 -105 -75 -250t-197 -242q-17 -12 -29 4l-7 9q-10 14 5 27q75 66 125 153.5t50 162.5q0 30 -34 51q-37 23 -37 69t35 80t79 34
z" />
    <glyph glyph-name="Lcaron" unicode="&#x13d;" horiz-adv-x="1923" 
d="M1389 2591q36 0 61 -25t25 -76q0 -106 -76 -253t-200 -243q-17 -13 -29 3l-9 9q-7 16 7 29q75 66 124.5 153t49.5 162q0 19 -7 30t-26 23q-38 25 -38 72t36 81.5t82 34.5zM1700 111q9 0 14 -6t3 -15l-9 -69q-1 -9 -8 -15t-15 -6h-1536q-8 0 -13.5 6.5t-4.5 14.5l337 2398
q1 8 8.5 14.5t15.5 6.5h88q8 0 13.5 -6.5t3.5 -14.5l-325 -2308h1428z" />
    <glyph glyph-name="lcaron" unicode="&#x13e;" horiz-adv-x="959" 
d="M941 2591q36 0 61 -25t25 -76q0 -106 -76 -253t-200 -243q-17 -13 -29 3l-9 9q-7 16 7 29q75 66 124.5 153t49.5 162q0 19 -7 30t-26 23q-38 25 -38 72t36 81.5t82 34.5zM485 2539q1 9 8 15t16 6h82q20 0 18 -21l-354 -2518q-2 -9 -8.5 -15t-15.5 -6h-82q-9 0 -14 6
t-4 15z" />
    <glyph glyph-name="Lslash" unicode="&#x141;" horiz-adv-x="2156" 
d="M1933 111q9 0 14 -6t3 -15l-9 -69q-1 -9 -8 -15t-15 -6h-1536q-8 0 -13.5 6.5t-4.5 14.5l139 990l-444 -235q-20 -8 -27 9l-20 54q-9 17 13 28l495 262l181 1290q1 8 8.5 14.5t15.5 6.5h88q8 0 13.5 -6.5t3.5 -14.5l-171 -1217l1000 529q20 10 27 -8l20 -54
q6 -19 -13 -28l-1051 -556l-137 -974h1428z" />
    <glyph glyph-name="lslash" unicode="&#x142;" horiz-adv-x="901" 
d="M970 1457q8 -17 -13 -28l-360 -189l-171 -1219q-4 -21 -24 -21h-82q-9 0 -14 6t-4 15l162 1149l-345 -181q-19 -9 -26 9l-20 53q-7 17 13 28l394 207l176 1253q1 9 8 15t16 6h82q20 0 18 -21l-166 -1183l309 163q21 9 28 -9z" />
    <glyph glyph-name="Nacute" unicode="&#x143;" horiz-adv-x="2524" 
d="M1497 2687q-17 -12 -28 6l-23 42q-7 17 11 30l642 461q19 12 29 -5l31 -60q10 -17 -10 -29zM2488 2440q20 0 18 -21l-342 -2438q-4 -21 -24 -21h-7q-20 0 -28 12l-1538 2239l-307 -2190q-4 -21 -25 -21h-87q-20 0 -17 21l342 2438q1 9 8 15t16 6h7q17 0 27 -12
l1538 -2239l308 2190q1 9 8 15t16 6h87z" />
    <glyph glyph-name="nacute" unicode="&#x144;" 
d="M1110 1887q-17 -12 -28 6l-23 42q-7 17 11 30l642 461q19 12 29 -5l31 -60q10 -17 -10 -29zM1234 1680q127 0 224.5 -32t160 -91.5t100 -143.5t43.5 -188t-9 -226l-137 -978q-4 -21 -24 -21h-82q-9 0 -14.5 6t-4.5 15l132 939q85 608 -435 608q-143 0 -283.5 -56
t-250 -149.5t-184.5 -219.5t-94 -260l-121 -862q-2 -21 -23 -21h-83q-8 0 -13.5 6t-4.5 15l225 1598q4 21 24 21h82q9 0 14 -6t4 -15l-60 -422q35 63 88.5 127t131.5 129t166 115t200.5 81t227.5 31z" />
    <glyph glyph-name="Ncommaaccent" unicode="&#x145;" horiz-adv-x="2524" 
d="M2488 2440q20 0 18 -21l-342 -2438q-4 -21 -24 -21h-7q-20 0 -28 12l-1538 2239l-307 -2190q-4 -21 -25 -21h-87q-20 0 -17 21l342 2438q1 9 8 15t16 6h7q17 0 27 -12l1538 -2239l308 2190q1 9 8 15t16 6h87zM1107 -276q36 0 60.5 -24.5t24.5 -73.5q0 -105 -75 -250
t-197 -242q-17 -12 -29 4l-7 9q-10 14 5 27q75 66 125 153.5t50 162.5q0 30 -34 51q-37 23 -37 69t35 80t79 34z" />
    <glyph glyph-name="ncommaaccent" unicode="&#x146;" 
d="M1234 1680q127 0 224.5 -32t160 -91.5t100 -143.5t43.5 -188t-9 -226l-137 -978q-4 -21 -24 -21h-82q-9 0 -14.5 6t-4.5 15l132 939q85 608 -435 608q-143 0 -283.5 -56t-250 -149.5t-184.5 -219.5t-94 -260l-121 -862q-2 -21 -23 -21h-83q-8 0 -13.5 6t-4.5 15l225 1598
q4 21 24 21h82q9 0 14 -6t4 -15l-60 -422q35 63 88.5 127t131.5 129t166 115t200.5 81t227.5 31zM792 -276q36 0 60.5 -24.5t24.5 -73.5q0 -105 -75 -250t-197 -242q-17 -12 -29 4l-7 9q-10 14 5 27q75 66 125 153.5t50 162.5q0 30 -34 51q-37 23 -37 69t35 80t79 34z" />
    <glyph glyph-name="Ncaron" unicode="&#x147;" horiz-adv-x="2524" 
d="M1988 3167q12 12 32 12h86q13 0 16 -6.5t-8 -17.5l-491 -468q-13 -10 -33 -10h-59q-21 0 -29 10l-360 468q-8 11 -3 17.5t18 6.5h89q17 0 26 -12l302 -399zM2488 2440q20 0 18 -21l-342 -2438q-4 -21 -24 -21h-7q-20 0 -28 12l-1538 2239l-307 -2190q-4 -21 -25 -21h-87
q-20 0 -17 21l342 2438q1 9 8 15t16 6h7q17 0 27 -12l1538 -2239l308 2190q1 9 8 15t16 6h87z" />
    <glyph glyph-name="ncaron" unicode="&#x148;" 
d="M1601 2367q12 12 32 12h86q13 0 16 -6.5t-8 -17.5l-491 -468q-12 -10 -33 -10h-59q-21 0 -29 10l-360 468q-8 11 -3 17.5t18 6.5h89q17 0 26 -12l302 -399zM1234 1680q127 0 224.5 -32t160 -91.5t100 -143.5t43.5 -188t-9 -226l-137 -978q-4 -21 -24 -21h-82
q-9 0 -14.5 6t-4.5 15l132 939q85 608 -435 608q-143 0 -283.5 -56t-250 -149.5t-184.5 -219.5t-94 -260l-121 -862q-2 -21 -23 -21h-83q-8 0 -13.5 6t-4.5 15l225 1598q4 21 24 21h82q9 0 14 -6t4 -15l-60 -422q35 63 88.5 127t131.5 129t166 115t200.5 81t227.5 31z" />
    <glyph glyph-name="Eng" unicode="&#x14a;" horiz-adv-x="2525" 
d="M2488 2440q9 0 14 -6t4 -15l-378 -2696q-87 -609 -540 -609q-9 0 -14.5 5.5t-4.5 14.5l8 60q2 19 23 21q182 5 275 131t129 377l44 317l-1481 2171l-307 -2190q-4 -21 -25 -21h-87q-20 0 -17 21l342 2438q1 9 8 15t16 6h7q18 0 26 -10l1539 -2241l308 2190q2 9 8.5 15
t15.5 6h87z" />
    <glyph glyph-name="eng" unicode="&#x14b;" 
d="M1233 1680q127 0 224.5 -32t160 -91.5t100 -143.5t43.5 -188t-9 -226l-179 -1276q-86 -609 -540 -609q-9 0 -14.5 5.5t-4.5 14.5l8 60q2 19 23 21q124 3 207.5 65.5t128.5 170t68 272.5l173 1237q42 293 -63 450.5t-371 157.5q-191 0 -370.5 -95t-298 -253t-143.5 -337
l-121 -862q-1 -9 -8.5 -15t-16.5 -6h-82q-20 0 -17 21l224 1598q3 21 23 21h83q9 0 14 -6t4 -15l-59 -422q35 63 88.5 127t131 129t166 115t200.5 81t227 31z" />
    <glyph glyph-name="Omacron" unicode="&#x14c;" horiz-adv-x="2833" 
d="M1207 2949q1 8 8.5 14.5t15.5 6.5h977q8 0 13.5 -6.5t4.5 -14.5l-7 -53q-2 -8 -9 -14.5t-15 -6.5h-978q-8 0 -13 6.5t-4 14.5zM1648 2465q217 0 407 -76t330 -213.5t221 -341t81 -445.5q0 -210 -54 -402.5t-149.5 -346t-227.5 -279.5t-285.5 -210.5t-325.5 -130
t-347 -45.5q-217 0 -407 76t-330.5 213.5t-221.5 341t-81 445.5q0 210 54 402.5t149.5 346t227.5 279.5t286 210.5t326 130t347 45.5zM1314 86q160 0 315.5 42.5t292 121t253 194.5t200 256.5t130.5 314.5t47 362q0 218 -69.5 401.5t-192 309.5t-292 196t-366.5 70
q-160 0 -315.5 -42.5t-292 -121t-253 -194.5t-200 -256.5t-130.5 -314.5t-47 -362q0 -218 69.5 -401.5t192 -309.5t292 -196t366.5 -70z" />
    <glyph glyph-name="omacron" unicode="&#x14d;" horiz-adv-x="2058" 
d="M706 2149q1 8 8.5 14.5t15.5 6.5h977q8 0 13.5 -6.5t4.5 -14.5l-7 -53q-2 -8 -9 -14.5t-15 -6.5h-978q-8 0 -13 6.5t-4 14.5zM1148 1665q205 0 369.5 -90t260.5 -258.5t96 -386.5q0 -167 -52.5 -317.5t-144.5 -265.5t-213 -199.5t-263.5 -128.5t-290.5 -44
q-153 0 -286 53t-230 147.5t-153 232.5t-56 302q0 167 52.5 317.5t144.5 265.5t213 199.5t263 128.5t290 44zM926 86q123 0 243 38t223.5 111t182 173t124 232.5t45.5 279.5q0 143 -47 262.5t-129 200t-194 125.5t-241 45q-124 0 -243.5 -37.5t-223 -111t-182.5 -173
t-124 -232t-45 -279.5q0 -143 47 -262.5t129 -200.5t194 -126t241 -45z" />
    <glyph glyph-name="Ohungarumlaut" unicode="&#x150;" horiz-adv-x="2833" 
d="M1432 2693q-4 -8 -13.5 -11t-16.5 2l-41 24q-16 9 -6 29l408 671q5 8 14 11t16 -1l59 -34q16 -10 4 -29zM1922 2687q-8 -5 -16 -3.5t-13 9.5l-21 42q-9 16 9 30l642 461q21 12 30 -5l30 -60q11 -17 -10 -29zM1648 2465q217 0 407 -76t330 -213.5t221 -341t81 -445.5
q0 -210 -54 -402.5t-149.5 -346t-227.5 -279.5t-285.5 -210.5t-325.5 -130t-347 -45.5q-217 0 -407 76t-330.5 213.5t-221.5 341t-81 445.5q0 210 54 402.5t149.5 346t227.5 279.5t286 210.5t326 130t347 45.5zM1314 86q160 0 315.5 42.5t292 121t253 194.5t200 256.5
t130.5 314.5t47 362q0 218 -69.5 401.5t-192 309.5t-292 196t-366.5 70q-160 0 -315.5 -42.5t-292 -121t-253 -194.5t-200 -256.5t-130.5 -314.5t-47 -362q0 -218 69.5 -401.5t192 -309.5t292 -196t366.5 -70z" />
    <glyph glyph-name="ohungarumlaut" unicode="&#x151;" horiz-adv-x="2058" 
d="M931 1893q-4 -8 -13.5 -11t-16.5 2l-41 24q-16 9 -6 29l408 671q5 8 14 11t16 -1l59 -34q16 -10 4 -29zM1421 1887q-8 -5 -16 -3.5t-13 9.5l-21 42q-9 16 9 30l642 461q21 12 30 -5l30 -60q11 -17 -10 -29zM1148 1665q205 0 369.5 -90t260.5 -258.5t96 -386.5
q0 -167 -52.5 -317.5t-144.5 -265.5t-213 -199.5t-263.5 -128.5t-290.5 -44q-153 0 -286 53t-230 147.5t-153 232.5t-56 302q0 167 52.5 317.5t144.5 265.5t213 199.5t263 128.5t290 44zM926 86q123 0 243 38t223.5 111t182 173t124 232.5t45.5 279.5q0 143 -47 262.5
t-129 200t-194 125.5t-241 45q-124 0 -243.5 -37.5t-223 -111t-182.5 -173t-124 -232t-45 -279.5q0 -143 47 -262.5t129 -200.5t194 -126t241 -45z" />
    <glyph glyph-name="OE" unicode="&#x152;" horiz-adv-x="3853" 
d="M3817 2440q9 0 14 -6t4 -15l-10 -69q-1 -9 -8 -15t-16 -6h-1610q243 -141 371 -399t103 -600h836q20 0 18 -21l-10 -70q-3 -20 -23 -20h-833q-55 -383 -267 -671t-522 -437h1666q9 0 14 -6t4 -15l-10 -69q-4 -21 -24 -21h-1990q-115 -21 -232 -21q-191 0 -362.5 55.5
t-306.5 163.5t-226 256.5t-126.5 347t-3.5 422.5q26 187 94.5 357t167.5 306t226 246t270 183.5t300.5 113t316.5 39.5q136 0 264 -29h1911zM2533 1224q35 251 -19.5 465t-178.5 359.5t-307.5 227.5t-401.5 82q-174 0 -342 -51.5t-314.5 -151t-264 -236t-197 -315.5
t-107.5 -380q-35 -251 19.5 -465t178.5 -359.5t307.5 -227.5t401.5 -82t424 82t371 227.5t279.5 359.5t150.5 465z" />
    <glyph glyph-name="oe" unicode="&#x153;" horiz-adv-x="3497" 
d="M3314 862h-1434q-11 -72 -11 -142q0 -143 47 -262.5t129 -200.5t194 -126t241 -45q410 0 636 381q12 18 31 10l65 -33q18 -9 6 -29q-127 -216 -320.5 -328t-438.5 -112q-253 0 -440.5 137.5t-251.5 374.5q-124 -236 -357 -374t-500 -138q-153 0 -286 53t-230 147.5
t-153 232.5t-56 302q0 167 52.5 317.5t144.5 265.5t213 199.5t263 128.5t290 44q253 0 441.5 -137t254.5 -371q120 235 346 371.5t491 136.5q163 0 292.5 -54.5t214 -155.5t118.5 -253.5t8 -339.5zM2666 1558q-266 0 -480 -164.5t-287 -435.5h1288q24 282 -120 441t-401 159
zM926 86q123 0 243 38t223.5 111t182 173t124 232.5t45.5 279.5q0 143 -47 262.5t-129 200t-194 125.5t-241 45q-124 0 -243.5 -37.5t-223 -111t-182.5 -173t-124 -232t-45 -279.5q0 -143 47 -262.5t129 -200.5t194 -126t241 -45z" />
    <glyph glyph-name="Racute" unicode="&#x154;" horiz-adv-x="2286" 
d="M1201 2693l-23 42q-7 17 11 30l642 461q19 12 29 -5l31 -60q10 -17 -10 -29l-652 -445q-17 -12 -28 6zM2097 1811q0 -141 -46 -268t-136 -234t-237 -183.5t-337 -106.5l512 -977q7 -15 -2 -28.5t-27 -13.5h-86q-12 0 -20 15l-516 989q-49 -4 -115 -4h-690l-137 -979
q-1 -8 -9 -14.5t-16 -6.5h-87q-8 0 -13.5 6.5t-3.5 14.5l336 2398q1 8 8.5 14.5t15.5 6.5h87h711q208 0 366 -49.5t253 -137t142 -199t47 -243.5zM1083 1112q157 0 288.5 26t226 74t165.5 111.5t114 141.5t63.5 161t20.5 174q0 89 -23.5 166t-77 144.5t-134 115.5t-201 75.5
t-271.5 27.5h-671l-170 -1217h670z" />
    <glyph glyph-name="racute" unicode="&#x155;" horiz-adv-x="1098" 
d="M638 1887q-17 -12 -28 6l-23 42q-7 17 11 30l642 461q19 12 29 -5l31 -60q10 -17 -10 -29zM1086 1679q23 0 19 -21l-12 -89q-2 -17 -24 -20q-99 -4 -213 -59t-213.5 -142t-173.5 -209.5t-92 -249.5l-122 -868q-3 -21 -23 -21h-83q-8 0 -13.5 6t-4.5 15l225 1598
q4 21 24 21h82q9 0 14 -6t4 -15l-63 -451q38 89 115.5 181.5t169.5 165t195.5 118.5t188.5 46z" />
    <glyph glyph-name="Rcommaaccent" unicode="&#x156;" horiz-adv-x="2286" 
d="M2097 1811q0 -141 -46 -268t-136 -234t-237 -183.5t-337 -106.5l512 -977q7 -15 -2 -28.5t-27 -13.5h-86q-12 0 -20 15l-516 989q-49 -4 -115 -4h-690l-137 -979q-1 -8 -9 -14.5t-16 -6.5h-87q-8 0 -13.5 6.5t-3.5 14.5l336 2398q1 8 8.5 14.5t15.5 6.5h87h711
q208 0 366 -49.5t253 -137t142 -199t47 -243.5zM1083 1112q157 0 288.5 26t226 74t165.5 111.5t114 141.5t63.5 161t20.5 174q0 89 -23.5 166t-77 144.5t-134 115.5t-201 75.5t-271.5 27.5h-671l-170 -1217h670zM839 -276q36 0 60.5 -24.5t24.5 -73.5q0 -105 -75 -250
t-197 -242q-17 -12 -29 4l-7 9q-10 14 5 27q75 66 125 153.5t50 162.5q0 30 -34 51q-37 23 -37 69t35 80t79 34z" />
    <glyph glyph-name="rcommaaccent" unicode="&#x157;" horiz-adv-x="1098" 
d="M1086 1679q23 0 19 -21l-12 -89q-2 -17 -24 -20q-99 -4 -213 -59t-213.5 -142t-173.5 -209.5t-92 -249.5l-122 -868q-3 -21 -23 -21h-83q-8 0 -13.5 6t-4.5 15l225 1598q4 21 24 21h82q9 0 14 -6t4 -15l-63 -451q38 89 115.5 181.5t169.5 165t195.5 118.5t188.5 46z
M115 -270q36 0 60.5 -24.5t24.5 -73.5q0 -105 -75 -250t-197 -242q-17 -12 -29 4l-7 9q-10 14 5 27q75 66 125 153.5t50 162.5q0 30 -34 51q-37 23 -37 69t35 80t79 34z" />
    <glyph glyph-name="Rcaron" unicode="&#x158;" horiz-adv-x="2286" 
d="M1234 2687l-360 468q-8 11 -3 17.5t18 6.5h89q17 0 26 -12l302 -399l414 399q12 12 32 12h86q13 0 16 -6.5t-8 -17.5l-491 -468q-13 -10 -33 -10h-59q-21 0 -29 10zM2097 1811q0 -141 -46 -268t-136 -234t-237 -183.5t-337 -106.5l512 -977q7 -15 -2 -28.5t-27 -13.5h-86
q-12 0 -20 15l-516 989q-49 -4 -115 -4h-690l-137 -979q-1 -8 -9 -14.5t-16 -6.5h-87q-8 0 -13.5 6.5t-3.5 14.5l336 2398q1 8 8.5 14.5t15.5 6.5h87h711q208 0 366 -49.5t253 -137t142 -199t47 -243.5zM1083 1112q157 0 288.5 26t226 74t165.5 111.5t114 141.5t63.5 161
t20.5 174q0 89 -23.5 166t-77 144.5t-134 115.5t-201 75.5t-271.5 27.5h-671l-170 -1217h670z" />
    <glyph glyph-name="rcaron" unicode="&#x159;" horiz-adv-x="1098" 
d="M1129 2367q12 12 32 12h86q13 0 16 -6.5t-8 -17.5l-491 -468q-12 -10 -33 -10h-59q-21 0 -29 10l-360 468q-8 11 -3 17.5t18 6.5h89q17 0 26 -12l302 -399zM1086 1679q23 0 19 -21l-12 -89q-2 -17 -24 -20q-99 -4 -213 -59t-213.5 -142t-173.5 -209.5t-92 -249.5
l-122 -868q-3 -21 -23 -21h-83q-8 0 -13.5 6t-4.5 15l225 1598q4 21 24 21h82q9 0 14 -6t4 -15l-63 -451q38 89 115.5 181.5t169.5 165t195.5 118.5t188.5 46z" />
    <glyph glyph-name="Sacute" unicode="&#x15a;" horiz-adv-x="2180" 
d="M1302 2687q-17 -12 -28 6l-23 42q-7 17 11 30l642 461q19 12 29 -5l31 -60q10 -17 -10 -29zM543 1782q0 -64 20 -118.5t49 -94t83 -75.5t100.5 -59.5t123.5 -49.5t130.5 -41t141.5 -38q106 -28 160 -43t148 -47.5t145 -61t117.5 -76t100.5 -99.5t58.5 -125t24.5 -159
q0 -151 -55.5 -273.5t-148.5 -204.5t-220 -137.5t-265.5 -80t-289.5 -24.5q-496 0 -821 272q-20 16 -8 35l38 61q16 21 35 7q158 -128 336.5 -196t438.5 -68q131 0 249 20.5t224 65.5t182.5 112t121.5 166t45 221q0 114 -48 200t-128.5 140t-185.5 94.5t-220.5 71t-231 61.5
t-220.5 73.5t-185.5 99.5t-128.5 148.5t-48 210.5q0 154 64 282.5t182.5 220t295.5 142t396 50.5q128 0 241.5 -18.5t204 -52.5t156.5 -68.5t134 -80.5q18 -12 5 -33l-40 -65q-14 -20 -36 -5q-63 44 -124.5 77.5t-145 67t-187.5 51.5t-220 18q-376 0 -585 -157.5
t-209 -416.5z" />
    <glyph glyph-name="sacute" unicode="&#x15b;" horiz-adv-x="1621" 
d="M883 1887q-17 -12 -28 6l-23 42q-7 17 11 30l642 461q19 12 29 -5l31 -60q10 -17 -10 -29zM418 1197q0 -67 33 -117.5t88.5 -82t127 -56t151.5 -44.5t159.5 -41t151 -52.5t127 -73t88.5 -106.5t33 -150q0 -110 -40 -197.5t-105 -143t-153.5 -92t-179 -51.5t-187.5 -15
q-317 0 -602 184q-17 11 -6 29l37 59q13 22 31 11q261 -177 550 -177q75 0 143.5 9.5t140 35t123 65t84.5 106t33 151.5q0 63 -27 113.5t-65 82.5t-106 61.5t-121 45.5t-139 39q-98 26 -148.5 41.5t-129 50t-118 70.5t-70.5 95.5t-31 133.5q0 149 83.5 260t229 167.5
t332.5 56.5q284 0 530 -172q17 -12 6 -30l-37 -60q-12 -19 -29 -9q-117 83 -232 123.5t-251 40.5q-224 0 -364.5 -98.5t-140.5 -262.5z" />
    <glyph glyph-name="Scedilla" unicode="&#x15e;" horiz-adv-x="2180" 
d="M2085 2245q18 -12 5 -33l-40 -65q-14 -20 -36 -5q-63 44 -124.5 77.5t-145 67t-187.5 51.5t-220 18q-376 0 -585 -157.5t-209 -416.5q0 -64 20 -118.5t49 -94t83 -75.5t100.5 -59.5t123.5 -49.5t130.5 -41t141.5 -38q106 -28 160 -43t148 -47.5t145 -61t117.5 -76
t100.5 -99.5t58.5 -125t24.5 -159q0 -149 -54.5 -271t-146 -203.5t-216.5 -137.5t-262 -81.5t-286 -26.5l-121 -244q87 25 166.5 21.5t140.5 -28.5t97 -79.5t36 -129.5q0 -99 -52 -176t-138.5 -118t-190.5 -41q-171 0 -308 84q-15 12 -4 30l16 27q12 20 32 10
q69 -37 130 -55.5t141 -18.5q120 0 196.5 68t76.5 178q0 86 -58.5 132t-155.5 46.5t-222 -32.5q-17 -4 -20.5 2t4.5 22l151 303q-449 18 -752 271q-20 16 -8 35l38 61q16 21 35 7q158 -128 336.5 -196t438.5 -68q131 0 249 20.5t224 65.5t182.5 112t121.5 166t45 221
q0 114 -48 200t-128.5 140t-185.5 94.5t-220.5 71t-231 61.5t-220.5 73.5t-185.5 99.5t-128.5 148.5t-48 210.5q0 154 64 282.5t182.5 220t295.5 142t396 50.5q128 0 241.5 -18.5t204 -52.5t156.5 -68.5t134 -80.5z" />
    <glyph glyph-name="scedilla" unicode="&#x15f;" horiz-adv-x="1621" 
d="M1466 1493q17 -12 6 -30l-37 -60q-12 -19 -29 -9q-117 83 -232 123.5t-251 40.5q-224 0 -364.5 -98.5t-140.5 -262.5q0 -67 33 -117.5t88.5 -82t127 -56t151.5 -44.5t159.5 -41t151 -52.5t127 -73t88.5 -106.5t33 -150q0 -110 -40 -197.5t-104.5 -142.5t-152.5 -92
t-178.5 -52t-187.5 -15l-121 -244q87 25 166.5 21.5t140.5 -28.5t97 -79.5t36 -129.5q0 -99 -52 -176t-138.5 -118t-190.5 -41q-171 0 -308 84q-15 12 -4 30l16 27q12 20 32 10q69 -37 130 -55.5t141 -18.5q120 0 196.5 68t76.5 178q0 86 -58.5 132t-155.5 46.5t-222 -32.5
q-17 -4 -20.5 2t4.5 22l152 305q-272 20 -522 181q-17 11 -6 29l37 59q13 22 31 11q261 -177 550 -177q75 0 143.5 9.5t140 35t123 65t84.5 106t33 151.5q0 63 -27 113.5t-65 82.5t-106 61.5t-121 45.5t-139 39q-98 26 -148.5 41.5t-129 50t-118 70.5t-70.5 95.5t-31 133.5
q0 149 83.5 260t229 167.5t332.5 56.5q284 0 530 -172z" />
    <glyph glyph-name="Scaron" unicode="&#x160;" horiz-adv-x="2180" 
d="M1793 3167q12 12 32 12h86q13 0 16 -6.5t-8 -17.5l-491 -468q-12 -10 -33 -10h-59q-21 0 -29 10l-360 468q-8 11 -3 17.5t18 6.5h89q17 0 26 -12l302 -399zM543 1782q0 -64 20 -118.5t49 -94t83 -75.5t100.5 -59.5t123.5 -49.5t130.5 -41t141.5 -38q106 -28 160 -43
t148 -47.5t145 -61t117.5 -76t100.5 -99.5t58.5 -125t24.5 -159q0 -151 -55.5 -273.5t-148.5 -204.5t-220 -137.5t-265.5 -80t-289.5 -24.5q-496 0 -821 272q-20 16 -8 35l38 61q16 21 35 7q158 -128 336.5 -196t438.5 -68q131 0 249 20.5t224 65.5t182.5 112t121.5 166
t45 221q0 114 -48 200t-128.5 140t-185.5 94.5t-220.5 71t-231 61.5t-220.5 73.5t-185.5 99.5t-128.5 148.5t-48 210.5q0 154 64 282.5t182.5 220t295.5 142t396 50.5q128 0 241.5 -18.5t204 -52.5t156.5 -68.5t134 -80.5q18 -12 5 -33l-40 -65q-14 -20 -36 -5
q-63 44 -124.5 77.5t-145 67t-187.5 51.5t-220 18q-376 0 -585 -157.5t-209 -416.5z" />
    <glyph glyph-name="scaron" unicode="&#x161;" horiz-adv-x="1621" 
d="M1374 2367q12 12 32 12h86q13 0 16 -6.5t-8 -17.5l-491 -468q-13 -10 -33 -10h-59q-21 0 -29 10l-360 468q-8 11 -3 17.5t18 6.5h89q17 0 26 -12l302 -399zM418 1197q0 -67 33 -117.5t88.5 -82t127 -56t151.5 -44.5t159.5 -41t151 -52.5t127 -73t88.5 -106.5t33 -150
q0 -110 -40 -197.5t-105 -143t-153.5 -92t-179 -51.5t-187.5 -15q-317 0 -602 184q-17 11 -6 29l37 59q13 22 31 11q261 -177 550 -177q75 0 143.5 9.5t140 35t123 65t84.5 106t33 151.5q0 63 -27 113.5t-65 82.5t-106 61.5t-121 45.5t-139 39q-98 26 -148.5 41.5t-129 50
t-118 70.5t-70.5 95.5t-31 133.5q0 149 83.5 260t229 167.5t332.5 56.5q284 0 530 -172q17 -12 6 -30l-37 -60q-12 -19 -29 -9q-117 83 -232 123.5t-251 40.5q-224 0 -364.5 -98.5t-140.5 -262.5z" />
    <glyph glyph-name="uni0162" unicode="&#x162;" horiz-adv-x="2375" 
d="M2398 2440q8 0 14 -6.5t5 -14.5l-10 -69q-2 -8 -9 -14.5t-15 -6.5h-920l-323 -2308q-1 -8 -9 -14.5t-16 -6.5h-2l-134 -269q87 25 166.5 21.5t140.5 -28.5t97 -79.5t36 -129.5q0 -99 -52 -176t-138.5 -118t-190.5 -41q-171 0 -308 84q-15 12 -4 30l16 27q12 20 32 10
q69 -37 130 -55.5t141 -18.5q120 0 196.5 68t76.5 178q0 86 -58.5 132t-155.5 46.5t-222 -32.5q-17 -4 -20.5 2t4.5 22l163 327h-1q-8 0 -13.5 6.5t-3.5 14.5l323 2308h-919q-8 0 -13.5 6.5t-3.5 14.5l9 69q1 8 8.5 14.5t15.5 6.5h1027h940z" />
    <glyph glyph-name="uni0163" unicode="&#x163;" horiz-adv-x="1478" 
d="M1389 1640q9 0 14.5 -6t4.5 -15l-10 -70q-4 -21 -24 -21h-701l-136 -968q-65 -474 281 -474q186 0 358 131q23 13 32 -6l20 -54q7 -19 -15 -35q-201 -143 -413 -147l-121 -244q87 25 166.5 21.5t140.5 -28.5t97 -79.5t36 -129.5q0 -99 -52 -176t-138.5 -118t-190.5 -41
q-171 0 -308 84q-15 12 -4 30l16 27q12 20 32 10q69 -37 130 -55.5t141 -18.5q120 0 196.5 68t76.5 178q0 86 -58.5 132t-155.5 46.5t-222 -32.5q-17 -4 -20.5 2t4.5 22l152 306q-380 42 -306 571l138 978h-330q-20 0 -17 21l9 70q1 9 8 15t16 6h329l56 396q1 16 24 22
l82 23q14 4 18.5 -0.5t3.5 -15.5l-60 -425h700z" />
    <glyph glyph-name="Tcaron" unicode="&#x164;" horiz-adv-x="2375" 
d="M1387 2687l-360 468q-8 11 -3 17.5t18 6.5h89q17 0 26 -12l302 -399l414 399q12 12 32 12h86q13 0 16 -6.5t-8 -17.5l-491 -468q-12 -10 -33 -10h-59q-21 0 -29 10zM2398 2440q8 0 14 -6.5t5 -14.5l-10 -69q-2 -8 -9 -14.5t-15 -6.5h-920l-323 -2308q-1 -8 -9 -14.5
t-16 -6.5h-87q-8 0 -13.5 6.5t-3.5 14.5l323 2308h-919q-8 0 -13.5 6.5t-3.5 14.5l9 69q1 8 8.5 14.5t15.5 6.5h1027h940z" />
    <glyph glyph-name="tcaron" unicode="&#x165;" horiz-adv-x="1585" 
d="M1715 2591q36 0 61 -25t25 -76q0 -106 -76 -253t-200 -243q-17 -13 -29 3l-9 9q-7 16 7 29q75 66 124.5 153t49.5 162q0 19 -7 30t-26 23q-38 25 -38 72t36 81.5t82 34.5zM1389 1640q9 0 14.5 -6t4.5 -15l-10 -70q-4 -21 -24 -21h-701l-136 -968q-65 -474 281 -474
q186 0 358 131q23 13 32 -6l20 -54q7 -19 -15 -35q-207 -147 -426 -147q-455 0 -375 575l138 978h-330q-20 0 -17 21l9 70q1 9 8 15t16 6h329l56 396q1 16 24 22l82 23q14 4 18.5 -0.5t3.5 -15.5l-60 -425h700z" />
    <glyph glyph-name="Tbar" unicode="&#x166;" horiz-adv-x="2375" 
d="M2398 2440q8 0 14 -6.5t5 -14.5l-10 -69q-2 -8 -9 -14.5t-15 -6.5h-920l-107 -769h487q20 0 18 -21l-8 -59q-2 -9 -8.5 -15t-15.5 -6h-488l-201 -1438q-1 -8 -9 -14.5t-16 -6.5h-87q-8 0 -13.5 6.5t-3.5 14.5l201 1438h-486q-9 0 -14 6t-4 15l8 59q1 9 8 15t16 6h487
l107 769h-919q-8 0 -13.5 6.5t-3.5 14.5l9 69q1 8 8.5 14.5t15.5 6.5h1027h940z" />
    <glyph glyph-name="tbar" unicode="&#x167;" horiz-adv-x="1478" 
d="M1389 1640q9 0 14.5 -6t4.5 -15l-10 -70q-4 -21 -24 -21h-701l-60 -428h543q9 0 14 -6t4 -15l-6 -40q-4 -21 -23 -21h-543l-65 -458q-65 -474 281 -474q186 0 358 131q23 13 32 -6l20 -54q7 -19 -15 -35q-207 -147 -426 -147q-455 0 -375 575l66 468h-276q-9 0 -14.5 6
t-4.5 15l6 40q2 9 8.5 15t15.5 6h276l61 428h-330q-20 0 -17 21l9 70q1 9 8 15t16 6h329l56 396q1 16 24 22l82 23q14 4 18.5 -0.5t3.5 -15.5l-60 -425h700z" />
    <glyph glyph-name="Umacron" unicode="&#x16a;" horiz-adv-x="2445" 
d="M1012 2949q1 8 8.5 14.5t15.5 6.5h977q8 0 13.5 -6.5t4.5 -14.5l-7 -53q-2 -8 -9 -14.5t-15 -6.5h-978q-8 0 -13 6.5t-4 14.5zM2408 2440q8 0 13.5 -6.5t4.5 -14.5l-198 -1409q-47 -336 -199.5 -573t-388.5 -357t-539 -120q-459 0 -680.5 273t-151.5 777l198 1409
q1 8 8.5 14.5t15.5 6.5h87q8 0 13.5 -6.5t4.5 -14.5l-195 -1389q-64 -459 117.5 -709t597.5 -250q417 0 669.5 250t316.5 709l195 1389q1 8 8.5 14.5t15.5 6.5h87z" />
    <glyph glyph-name="umacron" unicode="&#x16b;" 
d="M664 2149q1 8 8.5 14.5t15.5 6.5h977q8 0 13.5 -6.5t4.5 -14.5l-7 -53q-2 -8 -9 -14.5t-15 -6.5h-978q-8 0 -13 6.5t-4 14.5zM1821 1640q9 0 14.5 -6t4.5 -15l-225 -1598q-2 -9 -8.5 -15t-15.5 -6h-82q-20 0 -18 21l59 422q-35 -63 -88.5 -127t-131 -129t-166 -115
t-201 -81t-227.5 -31q-127 0 -224.5 32t-160 91.5t-99.5 143.5t-43 188t9 226l137 978q2 9 8.5 15t15.5 6h82q9 0 14 -6t4 -15l-132 -939q-85 -609 435 -609q143 0 284 56.5t250 149.5t184.5 219.5t94.5 260.5l121 862q4 21 23 21h82z" />
    <glyph glyph-name="Uring" unicode="&#x16e;" horiz-adv-x="2445" 
d="M1475 2617q-142 0 -235.5 95.5t-93.5 236.5q0 111 61.5 208.5t162 154.5t211.5 57q141 0 234.5 -97t93.5 -238q0 -111 -61 -208t-161 -153t-212 -56zM1486 2693q138 0 240 99.5t102 235.5q0 113 -72 189.5t-186 76.5q-139 0 -241 -100t-102 -238q0 -111 72.5 -187
t186.5 -76zM2408 2440q8 0 13.5 -6.5t4.5 -14.5l-198 -1409q-47 -336 -199.5 -573t-388.5 -357t-539 -120q-459 0 -680.5 273t-151.5 777l198 1409q1 8 8.5 14.5t15.5 6.5h87q8 0 13.5 -6.5t4.5 -14.5l-195 -1389q-64 -459 117.5 -709t597.5 -250q417 0 669.5 250t316.5 709
l195 1389q1 8 8.5 14.5t15.5 6.5h87z" />
    <glyph glyph-name="uring" unicode="&#x16f;" 
d="M1127 1817q-142 0 -235.5 95.5t-93.5 236.5q0 111 61.5 208.5t162 154.5t211.5 57q141 0 234.5 -97t93.5 -238q0 -111 -61 -208t-161 -153t-212 -56zM1138 1893q138 0 240 99.5t102 235.5q0 113 -72 189.5t-186 76.5q-139 0 -241 -100t-102 -238q0 -111 72.5 -187
t186.5 -76zM1821 1640q9 0 14.5 -6t4.5 -15l-225 -1598q-2 -9 -8.5 -15t-15.5 -6h-82q-20 0 -18 21l59 422q-35 -63 -88.5 -127t-131 -129t-166 -115t-201 -81t-227.5 -31q-127 0 -224.5 32t-160 91.5t-99.5 143.5t-43 188t9 226l137 978q2 9 8.5 15t15.5 6h82q9 0 14 -6
t4 -15l-132 -939q-85 -609 435 -609q143 0 284 56.5t250 149.5t184.5 219.5t94.5 260.5l121 862q4 21 23 21h82z" />
    <glyph glyph-name="Uhungarumlaut" unicode="&#x170;" horiz-adv-x="2445" 
d="M1237 2693q-4 -8 -13.5 -11t-16.5 2l-41 24q-16 9 -6 29l408 671q5 8 14 11t16 -1l59 -34q16 -10 4 -29zM1727 2687q-8 -5 -16 -3.5t-13 9.5l-21 42q-9 16 9 30l642 461q21 12 30 -5l30 -60q11 -17 -10 -29zM2408 2440q8 0 13.5 -6.5t4.5 -14.5l-198 -1409
q-47 -336 -199.5 -573t-388.5 -357t-539 -120q-459 0 -680.5 273t-151.5 777l198 1409q1 8 8.5 14.5t15.5 6.5h87q8 0 13.5 -6.5t4.5 -14.5l-195 -1389q-64 -459 117.5 -709t597.5 -250q417 0 669.5 250t316.5 709l195 1389q1 8 8.5 14.5t15.5 6.5h87z" />
    <glyph glyph-name="uhungarumlaut" unicode="&#x171;" 
d="M889 1893q-4 -8 -13.5 -11t-16.5 2l-41 24q-16 9 -6 29l408 671q5 8 14 11t16 -1l59 -34q16 -10 4 -29zM1379 1887q-8 -5 -16 -3.5t-13 9.5l-21 42q-9 16 9 30l642 461q21 12 30 -5l30 -60q11 -17 -10 -29zM1821 1640q9 0 14.5 -6t4.5 -15l-225 -1598q-2 -9 -8.5 -15
t-15.5 -6h-82q-20 0 -18 21l59 422q-35 -63 -88.5 -127t-131 -129t-166 -115t-201 -81t-227.5 -31q-127 0 -224.5 32t-160 91.5t-99.5 143.5t-43 188t9 226l137 978q2 9 8.5 15t15.5 6h82q9 0 14 -6t4 -15l-132 -939q-85 -609 435 -609q143 0 284 56.5t250 149.5
t184.5 219.5t94.5 260.5l121 862q4 21 23 21h82z" />
    <glyph glyph-name="Uogonek" unicode="&#x172;" horiz-adv-x="2445" 
d="M2408 2440q8 0 13.5 -6.5t4.5 -14.5l-198 -1409q-59 -423 -281 -685t-569 -337q-198 -111 -306.5 -241t-108.5 -274q0 -95 52 -150t149 -55q107 0 194 39q30 9 27 -15l-5 -39q-3 -19 -23 -28q-105 -45 -225 -45q-132 0 -202.5 73.5t-70.5 193.5q0 137 93 275.5t253 241.5
q-45 -4 -104 -4q-459 0 -680.5 273t-151.5 777l198 1409q1 8 8.5 14.5t15.5 6.5h87q8 0 13.5 -6.5t4.5 -14.5l-195 -1389q-64 -459 117.5 -709t597.5 -250q417 0 669.5 250t316.5 709l195 1389q1 8 8.5 14.5t15.5 6.5h87z" />
    <glyph glyph-name="uogonek" unicode="&#x173;" 
d="M1821 1640q9 0 14.5 -6t4.5 -15l-225 -1598q-2 -9 -8.5 -15t-15.5 -6h-14q-436 -237 -436 -527q0 -95 52 -150t149 -55q107 0 194 39q30 9 27 -15l-5 -39q-3 -19 -23 -28q-105 -45 -225 -45q-132 0 -202.5 73.5t-70.5 193.5q0 160 124 318.5t330 259.5l59 418
q-35 -63 -88.5 -127t-131 -129t-166 -115t-201 -81t-227.5 -31q-127 0 -224.5 32t-160 91.5t-99.5 143.5t-43 188t9 226l137 978q2 9 8.5 15t15.5 6h82q9 0 14 -6t4 -15l-132 -939q-85 -609 435 -609q143 0 284 56.5t250 149.5t184.5 219.5t94.5 260.5l121 862q4 21 23 21
h82z" />
    <glyph glyph-name="Wcircumflex" unicode="&#x174;" horiz-adv-x="3238" 
d="M1416 2680q-13 0 -16.5 6t8.5 18l491 467q11 11 32 11h60q19 0 29 -11l359 -467q8 -12 3.5 -18t-17.5 -6h-86q-21 0 -29 11l-302 400l-414 -400q-12 -11 -29 -11h-89zM3376 2440q27 0 15 -24l-1120 -2439q-9 -17 -28 -17h-31q-18 0 -23 17l-394 2090l-975 -2090
q-9 -17 -28 -17h-34q-19 0 -23 17l-439 2438q-5 25 21 25h94q21 0 23 -17l380 -2225l970 2095q8 17 27 17h32q18 0 22 -17l393 -2095l999 2226q7 16 26 16h93z" />
    <glyph glyph-name="wcircumflex" unicode="&#x175;" horiz-adv-x="2560" 
d="M953 1880q-13 0 -16.5 6t8.5 18l491 467q11 11 32 11h60q19 0 29 -11l359 -467q8 -12 3.5 -18t-17.5 -6h-86q-21 0 -29 11l-302 400l-414 -400q-12 -11 -29 -11h-89zM2633 1640q15 0 18.5 -11.5t-4.5 -25.5l-836 -1633q-6 -10 -18 -10h-20q-12 0 -15 10l-418 1275
l-777 -1275q-6 -10 -18 -10h-17q-12 0 -15 10l-379 1633q-5 14 2 25.5t22 11.5h85q16 0 21 -18l320 -1434l753 1244q11 18 22 18h17q13 0 19 -18l404 -1244l723 1434q11 18 27 18h84z" />
    <glyph glyph-name="Ycircumflex" unicode="&#x176;" horiz-adv-x="2254" 
d="M922 2680q-13 0 -16.5 6t8.5 18l491 467q11 11 32 11h60q19 0 29 -11l359 -467q8 -12 3.5 -18t-17.5 -6h-86q-21 0 -29 11l-302 400l-414 -400q-12 -11 -29 -11h-89zM2390 2440q12 0 17 -6t-3 -18l-1197 -1535l-121 -860q-1 -8 -8 -14.5t-15 -6.5h-87q-8 0 -14 6.5
t-5 14.5l120 859l-779 1536q-5 11 1.5 17.5t18.5 6.5h100q16 0 23 -17l718 -1425l1107 1425q14 17 29 17h95z" />
    <glyph glyph-name="ycircumflex" unicode="&#x177;" horiz-adv-x="1601" 
d="M469 1880q-13 0 -16.5 6t8.5 18l491 467q11 11 32 11h60q19 0 29 -11l359 -467q8 -12 3.5 -18t-17.5 -6h-86q-21 0 -29 11l-302 400l-414 -400q-12 -11 -29 -11h-89zM1674 1640q14 0 18 -12t-6 -27l-941 -1609q-115 -196 -203 -331t-181 -252.5t-176.5 -185.5
t-175 -105.5t-190.5 -37.5q-23 0 -20 20l8 62q4 20 24 21q95 3 183 51t187 159t202.5 265.5t245.5 397.5l-514 1545q-6 15 1.5 27t23.5 12h86q14 0 21 -17l458 -1436l835 1436q9 17 31 17h83z" />
    <glyph glyph-name="Ydieresis" unicode="&#x178;" horiz-adv-x="2254" 
d="M1084 2824q-38 0 -63.5 26.5t-25.5 63.5q0 45 35.5 79t81.5 34q37 0 62.5 -26.5t25.5 -64.5q0 -45 -35.5 -78.5t-80.5 -33.5zM1754 2824q-37 0 -62.5 26.5t-25.5 63.5q0 45 35.5 79t81.5 34q37 0 62.5 -26.5t25.5 -64.5q0 -45 -36 -78.5t-81 -33.5zM2390 2440q12 0 17 -6
t-3 -18l-1197 -1535l-121 -860q-1 -8 -8 -14.5t-15 -6.5h-87q-8 0 -14 6.5t-5 14.5l120 859l-779 1536q-5 11 1.5 17.5t18.5 6.5h100q16 0 23 -17l718 -1425l1107 1425q14 17 29 17h95z" />
    <glyph glyph-name="Zacute" unicode="&#x179;" horiz-adv-x="2352" 
d="M1402 2687q-17 -12 -28 6l-23 42q-7 17 11 30l642 461q19 12 29 -5l31 -60q10 -17 -10 -29zM108 0q-20 0 -17 21l3 27q1 13 12 27l2046 2254h-1647q-8 0 -13.5 6.5t-4.5 14.5l10 69q1 8 8.5 14.5t15.5 6.5h1817q9 0 14 -6t4 -15l-3 -27q-4 -16 -13 -27l-2045 -2254h1746
q8 0 13.5 -6.5t4.5 -14.5l-9 -69q-1 -8 -9 -14.5t-16 -6.5h-1917z" />
    <glyph glyph-name="zacute" unicode="&#x17a;" horiz-adv-x="1825" 
d="M991 1887q-17 -12 -28 6l-23 42q-7 17 11 30l642 461q19 12 29 -5l31 -60q10 -17 -10 -29zM59 0q-9 0 -14.5 5.5t-4.5 13.5l2 11q4 16 13 27l1423 1471h-1134q-8 0 -14 6.5t-5 14.5l10 70q1 8 9 14.5t16 6.5h1317q21 0 18 -18l-2 -12q-1 -15 -12 -27l-1424 -1472h1225
q8 0 13.5 -6.5t4.5 -14.5l-9 -69q-1 -8 -8.5 -14.5t-15.5 -6.5h-1408z" />
    <glyph glyph-name="Zdotaccent" unicode="&#x17b;" horiz-adv-x="2352" 
d="M1489 2823q-39 0 -65 27t-26 66q0 46 37 81t83 35q39 0 65 -27t26 -66q0 -46 -36.5 -81t-83.5 -35zM108 0q-20 0 -17 21l3 27q1 13 12 27l2046 2254h-1647q-8 0 -13.5 6.5t-4.5 14.5l10 69q1 8 8.5 14.5t15.5 6.5h1817q9 0 14 -6t4 -15l-3 -27q-4 -16 -13 -27
l-2045 -2254h1746q8 0 13.5 -6.5t4.5 -14.5l-9 -69q-1 -8 -9 -14.5t-16 -6.5h-1917z" />
    <glyph glyph-name="zdotaccent" unicode="&#x17c;" horiz-adv-x="1825" 
d="M1078 2023q-39 0 -65 27t-26 66q0 46 37 81t83 35q39 0 65 -27t26 -66q0 -46 -36.5 -81t-83.5 -35zM59 0q-9 0 -14.5 5.5t-4.5 13.5l2 11q4 16 13 27l1423 1471h-1134q-8 0 -14 6.5t-5 14.5l10 70q1 8 9 14.5t16 6.5h1317q21 0 18 -18l-2 -12q-1 -15 -12 -27l-1424 -1472
h1225q8 0 13.5 -6.5t4.5 -14.5l-9 -69q-1 -8 -8.5 -14.5t-15.5 -6.5h-1408z" />
    <glyph glyph-name="Zcaron" unicode="&#x17d;" horiz-adv-x="2352" 
d="M1893 3167q12 12 32 12h86q13 0 16 -6.5t-8 -17.5l-491 -468q-12 -10 -33 -10h-59q-21 0 -29 10l-360 468q-8 11 -3 17.5t18 6.5h89q17 0 26 -12l302 -399zM108 0q-20 0 -17 21l3 27q1 13 12 27l2046 2254h-1647q-8 0 -13.5 6.5t-4.5 14.5l10 69q1 8 8.5 14.5t15.5 6.5
h1817q9 0 14 -6t4 -15l-3 -27q-4 -16 -13 -27l-2045 -2254h1746q8 0 13.5 -6.5t4.5 -14.5l-9 -69q-1 -8 -9 -14.5t-16 -6.5h-1917z" />
    <glyph glyph-name="zcaron" unicode="&#x17e;" horiz-adv-x="1825" 
d="M1482 2367q12 12 32 12h86q13 0 16 -6.5t-8 -17.5l-491 -468q-13 -10 -33 -10h-59q-21 0 -29 10l-360 468q-8 11 -3 17.5t18 6.5h89q17 0 26 -12l302 -399zM59 0q-9 0 -14.5 5.5t-4.5 13.5l2 11q4 16 13 27l1423 1471h-1134q-8 0 -14 6.5t-5 14.5l10 70q1 8 9 14.5
t16 6.5h1317q21 0 18 -18l-2 -12q-1 -15 -12 -27l-1424 -1472h1225q8 0 13.5 -6.5t4.5 -14.5l-9 -69q-1 -8 -8.5 -14.5t-15.5 -6.5h-1408z" />
    <glyph glyph-name="Scommaaccent" unicode="&#x218;" horiz-adv-x="2180" 
d="M543 1782q0 -64 20 -118.5t49 -94t83 -75.5t100.5 -59.5t123.5 -49.5t130.5 -41t141.5 -38q106 -28 160 -43t148 -47.5t145 -61t117.5 -76t100.5 -99.5t58.5 -125t24.5 -159q0 -151 -55.5 -273.5t-148.5 -204.5t-220 -137.5t-265.5 -80t-289.5 -24.5q-496 0 -821 272
q-20 16 -8 35l38 61q16 21 35 7q158 -128 336.5 -196t438.5 -68q131 0 249 20.5t224 65.5t182.5 112t121.5 166t45 221q0 114 -48 200t-128.5 140t-185.5 94.5t-220.5 71t-231 61.5t-220.5 73.5t-185.5 99.5t-128.5 148.5t-48 210.5q0 154 64 282.5t182.5 220t295.5 142
t396 50.5q128 0 241.5 -18.5t204 -52.5t156.5 -68.5t134 -80.5q18 -12 5 -33l-40 -65q-14 -20 -36 -5q-63 44 -124.5 77.5t-145 67t-187.5 51.5t-220 18q-376 0 -585 -157.5t-209 -416.5zM872 -276q36 0 60.5 -24.5t24.5 -73.5q0 -105 -75 -250t-197 -242q-17 -12 -29 4
l-7 9q-10 14 5 27q75 66 125 153.5t50 162.5q0 30 -34 51q-37 23 -37 69t35 80t79 34z" />
    <glyph glyph-name="scommaaccent" unicode="&#x219;" horiz-adv-x="1621" 
d="M418 1197q0 -67 33 -117.5t88.5 -82t127 -56t151.5 -44.5t159.5 -41t151 -52.5t127 -73t88.5 -106.5t33 -150q0 -110 -40 -197.5t-105 -143t-153.5 -92t-179 -51.5t-187.5 -15q-317 0 -602 184q-17 11 -6 29l37 59q13 22 31 11q261 -177 550 -177q75 0 143.5 9.5t140 35
t123 65t84.5 106t33 151.5q0 63 -27 113.5t-65 82.5t-106 61.5t-121 45.5t-139 39q-98 26 -148.5 41.5t-129 50t-118 70.5t-70.5 95.5t-31 133.5q0 149 83.5 260t229 167.5t332.5 56.5q284 0 530 -172q17 -12 6 -30l-37 -60q-12 -19 -29 -9q-117 83 -232 123.5t-251 40.5
q-224 0 -364.5 -98.5t-140.5 -262.5zM606 -276q36 0 60.5 -24.5t24.5 -73.5q0 -105 -75 -250t-197 -242q-17 -12 -29 4l-7 9q-10 14 5 27q75 66 125 153.5t50 162.5q0 30 -34 51q-37 23 -37 69t35 80t79 34z" />
    <glyph glyph-name="uni021A" unicode="&#x21a;" horiz-adv-x="2375" 
d="M2398 2440q8 0 14 -6.5t5 -14.5l-10 -69q-2 -8 -9 -14.5t-15 -6.5h-920l-323 -2308q-1 -8 -9 -14.5t-16 -6.5h-87q-8 0 -13.5 6.5t-3.5 14.5l323 2308h-919q-8 0 -13.5 6.5t-3.5 14.5l9 69q1 8 8.5 14.5t15.5 6.5h1027h940zM992 -276q36 0 60.5 -24.5t24.5 -73.5
q0 -105 -75 -250t-197 -242q-17 -12 -29 4l-7 9q-10 14 5 27q75 66 125 153.5t50 162.5q0 30 -34 51q-37 23 -37 69t35 80t79 34z" />
    <glyph glyph-name="uni021B" unicode="&#x21b;" horiz-adv-x="1478" 
d="M1389 1640q9 0 14.5 -6t4.5 -15l-10 -70q-4 -21 -24 -21h-701l-136 -968q-65 -474 281 -474q186 0 358 131q23 13 32 -6l20 -54q7 -19 -15 -35q-207 -147 -426 -147q-455 0 -375 575l138 978h-330q-20 0 -17 21l9 70q1 9 8 15t16 6h329l56 396q1 16 24 22l82 23
q14 4 18.5 -0.5t3.5 -15.5l-60 -425h700zM692 -276q36 0 60.5 -24.5t24.5 -73.5q0 -105 -75 -250t-197 -242q-17 -12 -29 4l-7 9q-10 14 5 27q75 66 125 153.5t50 162.5q0 30 -34 51q-37 23 -37 69t35 80t79 34z" />
    <glyph glyph-name="circumflex" unicode="&#x2c6;" horiz-adv-x="986" 
d="M852 1891l-302 400l-414 -400q-12 -11 -29 -11h-89q-13 0 -16.5 6t8.5 18l491 467q11 11 32 11h60q19 0 29 -11l359 -467q8 -12 3.5 -18t-17.5 -6h-86q-21 0 -29 11z" />
    <glyph glyph-name="caron" unicode="&#x2c7;" horiz-adv-x="986" 
d="M851 2367q12 12 32 12h86q13 0 16 -6.5t-8 -17.5l-491 -468q-13 -10 -33 -10h-59q-21 0 -29 10l-360 468q-8 11 -3 17.5t18 6.5h89q17 0 26 -12l302 -399z" />
    <glyph glyph-name="breve" unicode="&#x2d8;" horiz-adv-x="2405" 
d="M1025 2329q17 0 17 -18q0 -123 -80 -226t-205.5 -159t-263.5 -56q-118 0 -215 45.5t-156.5 134.5t-59.5 205q0 44 7 59t21 15h55q9 0 13 -10.5t4 -42.5q0 -142 101 -222.5t244 -80.5q98 0 187.5 37.5t158 116t91.5 184.5q5 18 25 18h56z" />
    <glyph glyph-name="dotaccent" unicode="&#x2d9;" horiz-adv-x="687" 
d="M332 2023q-39 0 -65 27t-26 66q0 46 37 81t83 35q39 0 65 -27t26 -66q0 -46 -36.5 -81t-83.5 -35z" />
    <glyph glyph-name="ring" unicode="&#x2da;" horiz-adv-x="827" 
d="M361 1817q-142 0 -235.5 95.5t-93.5 236.5q0 111 61.5 208.5t162 154.5t211.5 57q141 0 234.5 -97t93.5 -238q0 -111 -61 -208t-161 -153t-212 -56zM372 1893q138 0 240 99.5t102 235.5q0 113 -72 189.5t-186 76.5q-139 0 -241 -100t-102 -238q0 -111 72.5 -187
t186.5 -76z" />
    <glyph glyph-name="ogonek" unicode="&#x2db;" horiz-adv-x="1000" 
d="M306 -820q-132 0 -202.5 73.5t-70.5 193.5q0 163 128 323.5t340 260.5l74 -30q-209 -113 -323.5 -246.5t-114.5 -281.5q0 -95 52 -150t149 -55q107 0 194 39q30 9 27 -15l-5 -39q-3 -19 -23 -28q-105 -45 -225 -45z" />
    <glyph glyph-name="tilde" unicode="&#x2dc;" horiz-adv-x="1415" 
d="M1143 2320q20 0 14 -32q-12 -169 -110 -264t-237 -95q-51 0 -93 16.5t-70 42.5t-53 57.5t-47.5 63.5t-47 58t-59 42.5t-75.5 16.5q-200 0 -258 -277q-5 -20 -24 -20h-37q-20 0 -17 21q12 175 109.5 272.5t240.5 97.5q51 0 92.5 -16.5t70 -42.5t53 -57.5t47.5 -63
t47 -57.5t58.5 -42.5t75.5 -16.5q199 0 258 275q5 21 25 21h37z" />
    <glyph glyph-name="hungarumlaut" unicode="&#x2dd;" horiz-adv-x="1401" 
d="M204 1893q-4 -8 -13.5 -11t-16.5 2l-41 24q-16 9 -6 29l408 671q5 8 14 11t16 -1l59 -34q16 -10 4 -29zM694 1887q-8 -5 -16 -3.5t-13 9.5l-21 42q-9 16 9 30l642 461q21 12 30 -5l30 -60q11 -17 -10 -29z" />
    <glyph glyph-name="uni0326" unicode="&#x326;" horiz-adv-x="0" 
d="M-705 -276q36 0 60.5 -24.5t24.5 -73.5q0 -105 -75 -250t-197 -242q-17 -12 -29 4l-7 9q-10 14 5 27q75 66 125 153.5t50 162.5q0 30 -34 51q-37 23 -37 69t35 80t79 34z" />
    <glyph glyph-name="uni0335" unicode="&#x335;" horiz-adv-x="0" 
 />
    <glyph glyph-name="uni0336" unicode="&#x336;" horiz-adv-x="0" 
d="M-2069 1233q-9 0 -14 6t-4 15l8 59q1 9 8 15t16 6h1103q20 0 18 -21l-8 -59q-4 -21 -24 -21h-1103z" />
    <glyph glyph-name="uni0337" unicode="&#x337;" horiz-adv-x="0" 
 />
    <glyph glyph-name="Wgrave" unicode="&#x1e80;" horiz-adv-x="3238" 
d="M1423 3132q-18 12 -3 29l48 60q5 7 14 8.5t16 -3.5l512 -461q15 -13 2 -30l-33 -42q-16 -18 -31 -6zM3376 2440q27 0 15 -24l-1120 -2439q-9 -17 -28 -17h-31q-18 0 -23 17l-394 2090l-975 -2090q-9 -17 -28 -17h-34q-19 0 -23 17l-439 2438q-5 25 21 25h94q21 0 23 -17
l380 -2225l970 2095q8 17 27 17h32q18 0 22 -17l393 -2095l999 2226q7 16 26 16h93z" />
    <glyph glyph-name="wgrave" unicode="&#x1e81;" horiz-adv-x="2560" 
d="M960 2332q-18 12 -3 29l48 60q5 7 14 8.5t16 -3.5l512 -461q15 -13 2 -30l-33 -42q-16 -18 -31 -6zM2633 1640q15 0 18.5 -11.5t-4.5 -25.5l-836 -1633q-6 -10 -18 -10h-20q-12 0 -15 10l-418 1275l-777 -1275q-6 -10 -18 -10h-17q-12 0 -15 10l-379 1633q-5 14 2 25.5
t22 11.5h85q16 0 21 -18l320 -1434l753 1244q11 18 22 18h17q13 0 19 -18l404 -1244l723 1434q11 18 27 18h84z" />
    <glyph glyph-name="Wacute" unicode="&#x1e82;" horiz-adv-x="3238" 
d="M1798 2693l-23 42q-7 17 11 30l642 461q19 12 29 -5l31 -60q10 -17 -10 -29l-652 -445q-17 -12 -28 6zM3376 2440q27 0 15 -24l-1120 -2439q-9 -17 -28 -17h-31q-18 0 -23 17l-394 2090l-975 -2090q-9 -17 -28 -17h-34q-19 0 -23 17l-439 2438q-5 25 21 25h94
q21 0 23 -17l380 -2225l970 2095q8 17 27 17h32q18 0 22 -17l393 -2095l999 2226q7 16 26 16h93z" />
    <glyph glyph-name="wacute" unicode="&#x1e83;" horiz-adv-x="2560" 
d="M1335 1893l-23 42q-7 17 11 30l642 461q19 12 29 -5l31 -60q10 -17 -10 -29l-652 -445q-17 -12 -28 6zM2633 1640q15 0 18.5 -11.5t-4.5 -25.5l-836 -1633q-6 -10 -18 -10h-20q-12 0 -15 10l-418 1275l-777 -1275q-6 -10 -18 -10h-17q-12 0 -15 10l-379 1633
q-5 14 2 25.5t22 11.5h85q16 0 21 -18l320 -1434l753 1244q11 18 22 18h17q13 0 19 -18l404 -1244l723 1434q11 18 27 18h84z" />
    <glyph glyph-name="Wdieresis" unicode="&#x1e84;" horiz-adv-x="3238" 
d="M1578 2824q-38 0 -63.5 26.5t-25.5 63.5q0 45 35.5 79t81.5 34q37 0 62.5 -26.5t25.5 -64.5q0 -45 -35.5 -78.5t-80.5 -33.5zM2248 2824q-37 0 -62.5 26.5t-25.5 63.5q0 45 35.5 79t81.5 34q37 0 62.5 -26.5t25.5 -64.5q0 -45 -36 -78.5t-81 -33.5zM3376 2440
q27 0 15 -24l-1120 -2439q-9 -17 -28 -17h-31q-18 0 -23 17l-394 2090l-975 -2090q-9 -17 -28 -17h-34q-19 0 -23 17l-439 2438q-5 25 21 25h94q21 0 23 -17l380 -2225l970 2095q8 17 27 17h32q18 0 22 -17l393 -2095l999 2226q7 16 26 16h93z" />
    <glyph glyph-name="wdieresis" unicode="&#x1e85;" horiz-adv-x="2560" 
d="M1115 2024q-38 0 -63.5 26.5t-25.5 63.5q0 45 35.5 79t81.5 34q37 0 62.5 -26.5t25.5 -64.5q0 -45 -35.5 -78.5t-80.5 -33.5zM1785 2024q-37 0 -62.5 26.5t-25.5 63.5q0 45 35.5 79t81.5 34q37 0 62.5 -26.5t25.5 -64.5q0 -45 -36 -78.5t-81 -33.5zM2633 1640
q15 0 18.5 -11.5t-4.5 -25.5l-836 -1633q-6 -10 -18 -10h-20q-12 0 -15 10l-418 1275l-777 -1275q-6 -10 -18 -10h-17q-12 0 -15 10l-379 1633q-5 14 2 25.5t22 11.5h85q16 0 21 -18l320 -1434l753 1244q11 18 22 18h17q13 0 19 -18l404 -1244l723 1434q11 18 27 18h84z" />
    <glyph glyph-name="Ygrave" unicode="&#x1ef2;" horiz-adv-x="2254" 
d="M929 3132q-18 12 -3 29l48 60q5 7 14 8.5t16 -3.5l512 -461q15 -13 2 -30l-33 -42q-16 -18 -31 -6zM2390 2440q12 0 17 -6t-3 -18l-1197 -1535l-121 -860q-1 -8 -8 -14.5t-15 -6.5h-87q-8 0 -14 6.5t-5 14.5l120 859l-779 1536q-5 11 1.5 17.5t18.5 6.5h100q16 0 23 -17
l718 -1425l1107 1425q14 17 29 17h95z" />
    <glyph glyph-name="ygrave" unicode="&#x1ef3;" horiz-adv-x="1601" 
d="M476 2332q-18 12 -3 29l48 60q5 7 14 8.5t16 -3.5l512 -461q15 -13 2 -30l-33 -42q-16 -18 -31 -6zM1674 1640q14 0 18 -12t-6 -27l-941 -1609q-115 -196 -203 -331t-181 -252.5t-176.5 -185.5t-175 -105.5t-190.5 -37.5q-23 0 -20 20l8 62q4 20 24 21q95 3 183 51
t187 159t202.5 265.5t245.5 397.5l-514 1545q-6 15 1.5 27t23.5 12h86q14 0 21 -17l458 -1436l835 1436q9 17 31 17h83z" />
    <glyph glyph-name="endash" unicode="&#x2013;" horiz-adv-x="1837" 
d="M40 903q-9 0 -14.5 6t-4.5 15l8 60q1 9 8.5 15t16.5 6h1744q20 0 17 -21l-8 -60q-2 -21 -23 -21h-1744z" />
    <glyph glyph-name="emdash" unicode="&#x2014;" horiz-adv-x="3037" 
d="M40 903q-9 0 -14.5 6t-4.5 15l8 60q1 9 8.5 15t16.5 6h2944q20 0 17 -21l-8 -60q-2 -21 -23 -21h-2944z" />
    <glyph glyph-name="quoteleft" unicode="&#x2018;" horiz-adv-x="690" 
d="M509 2013q-37 0 -62.5 25.5t-25.5 77.5q0 109 78.5 259t204.5 249q17 13 29 -3l9 -10q8 -15 -7 -29q-77 -68 -127.5 -157t-50.5 -166q0 -19 7.5 -30.5t26.5 -23.5q39 -25 39 -73t-37 -83.5t-84 -35.5z" />
    <glyph glyph-name="quoteright" unicode="&#x2019;" horiz-adv-x="690" 
d="M597 2585q37 0 62.5 -25.5t25.5 -77.5q0 -109 -78.5 -259t-204.5 -249q-17 -13 -29 3l-9 10q-8 15 7 29q77 68 127.5 157t50.5 166q0 19 -7.5 30.5t-26.5 23.5q-39 25 -39 73t37 83.5t84 35.5z" />
    <glyph glyph-name="quotesinglbase" unicode="&#x201a;" horiz-adv-x="690" 
d="M259 184q37 0 62.5 -25.5t25.5 -77.5q0 -109 -78.5 -259t-204.5 -249q-17 -13 -29 3l-9 10q-8 15 7 29q77 68 127.5 157t50.5 166q0 19 -7.5 30.5t-26.5 23.5q-39 25 -39 73t37 83.5t84 35.5z" />
    <glyph glyph-name="quotedblleft" unicode="&#x201c;" horiz-adv-x="1070" 
d="M509 2013q-37 0 -62.5 25.5t-25.5 77.5q0 109 78.5 259t204.5 249q17 13 29 -3l9 -10q8 -15 -7 -29q-77 -68 -127.5 -157t-50.5 -166q0 -19 7.5 -30.5t26.5 -23.5q39 -25 39 -73t-37 -83.5t-84 -35.5zM889 2013q-37 0 -62.5 25.5t-25.5 77.5q0 109 78.5 259t204.5 249
q17 13 29 -3l9 -10q8 -15 -7 -29q-77 -68 -127.5 -157t-50.5 -166q0 -19 7.5 -30.5t26.5 -23.5q39 -25 39 -73t-37 -83.5t-84 -35.5z" />
    <glyph glyph-name="quotedblright" unicode="&#x201d;" horiz-adv-x="1070" 
d="M597 2585q37 0 62.5 -25.5t25.5 -77.5q0 -109 -78.5 -259t-204.5 -249q-17 -13 -29 3l-9 10q-8 15 7 29q77 68 127.5 157t50.5 166q0 19 -7.5 30.5t-26.5 23.5q-39 25 -39 73t37 83.5t84 35.5zM977 2585q37 0 62.5 -25.5t25.5 -77.5q0 -109 -78.5 -259t-204.5 -249
q-17 -13 -29 3l-9 10q-8 15 7 29q77 68 127.5 157t50.5 166q0 19 -7.5 30.5t-26.5 23.5q-39 25 -39 73t37 83.5t84 35.5z" />
    <glyph glyph-name="quotedblbase" unicode="&#x201e;" horiz-adv-x="1070" 
d="M259 184q37 0 62.5 -25.5t25.5 -77.5q0 -109 -78.5 -259t-204.5 -249q-17 -13 -29 3l-9 10q-8 15 7 29q77 68 127.5 157t50.5 166q0 19 -7.5 30.5t-26.5 23.5q-39 25 -39 73t37 83.5t84 35.5zM639 184q37 0 62.5 -25.5t25.5 -77.5q0 -109 -78.5 -259t-204.5 -249
q-17 -13 -29 3l-9 10q-8 15 7 29q77 68 127.5 157t50.5 166q0 19 -7.5 30.5t-26.5 23.5q-39 25 -39 73t37 83.5t84 35.5z" />
    <glyph glyph-name="dagger" unicode="&#x2020;" horiz-adv-x="1601" 
d="M1566 2024q9 0 14 -6t4 -15l-7 -55q-2 -9 -8.5 -15t-15.5 -6h-542l-296 -2106q-1 -9 -8 -15t-16 -6h-68q-8 0 -13 6t-4 15l296 2106h-542q-9 0 -14.5 6t-4.5 15l8 55q2 9 8.5 15t15.5 6h543l100 715q1 9 8 15t15 6h68q20 0 18 -21l-100 -715h541z" />
    <glyph glyph-name="daggerdbl" unicode="&#x2021;" horiz-adv-x="1601" 
d="M1566 2024q20 0 18 -21l-7 -55q-1 -9 -8.5 -15t-16.5 -6h-541l-182 -1294h541q20 0 18 -21l-7 -55q-2 -9 -8.5 -15t-15.5 -6h-542l-100 -715q-1 -9 -8.5 -15t-16.5 -6h-67q-9 0 -14 6t-3 15l100 715h-543q-8 0 -13 6t-4 15l7 55q2 9 8.5 15t15.5 6h543l181 1294h-542
q-9 0 -14 6t-4 15l8 55q2 21 23 21h543l100 715q1 9 8 15t16 6h67q9 0 14.5 -6t4.5 -15l-100 -715h541z" />
    <glyph glyph-name="bullet" unicode="&#x2022;" horiz-adv-x="912" 
d="M465 629q-96 0 -162 69t-66 166q0 117 92.5 205t211.5 88q96 0 163 -69t67 -166q0 -117 -93.5 -205t-212.5 -88z" />
    <glyph glyph-name="ellipsis" unicode="&#x2026;" horiz-adv-x="1789" 
d="M221 -25q-38 0 -64 27t-26 66q0 46 36.5 81t83.5 35q38 0 64.5 -27.5t26.5 -65.5q0 -46 -37 -81t-84 -35zM775 -25q-38 0 -64 27t-26 66q0 46 36.5 81t83.5 35q38 0 64.5 -27.5t26.5 -65.5q0 -46 -37 -81t-84 -35zM1329 -25q-38 0 -64 27t-26 66q0 46 36.5 81t83.5 35
q38 0 64.5 -27.5t26.5 -65.5q0 -46 -37 -81t-84 -35z" />
    <glyph glyph-name="perthousand" unicode="&#x2030;" horiz-adv-x="4509" 
d="M2457 2496q7 -3 9 -11.5t-3 -15.5l-1525 -2545q-12 -19 -29 -11l-53 27q-16 9 -6 27l1525 2545q12 19 30 10zM1436 1701q-49 -349 -230.5 -557t-427.5 -208q-247 0 -370.5 208t-73.5 557q48 348 230 556t428 208q247 0 370 -207.5t74 -556.5zM791 1038q207 0 347.5 178
t184.5 485q43 306 -48 484t-297 178t-347 -178t-184 -484q-44 -307 47 -485t297 -178zM2524 1504q247 0 370.5 -208t73.5 -556q-48 -349 -230 -557t-428 -208q-247 0 -370 208t-74 557t230.5 556.5t427.5 207.5zM3844 1504q246 0 369.5 -208t74.5 -556q-49 -349 -230.5 -557
t-428.5 -208q-246 0 -369 208t-75 557q50 349 231.5 556.5t427.5 207.5zM2855 740q43 306 -48 484t-297 178t-347 -178t-184 -484q-43 -307 48 -485t297 -178t347 178t184 485zM3644 77q206 0 347 178t184 485q43 306 -48 484t-297 178t-347 -178t-184 -484
q-43 -307 48 -485t297 -178z" />
    <glyph glyph-name="guilsinglleft" unicode="&#x2039;" horiz-adv-x="1165" 
d="M976 1388q14 10 26 4.5t10 -21.5l-7 -50q-2 -9 -10 -14l-664 -462l535 -462q6 -5 4 -14l-7 -50q-1 -16 -15 -21.5t-26 4.5l-586 498q-7 5 -7 13l10 64q0 8 9 13z" />
    <glyph glyph-name="guilsinglright" unicode="&#x203a;" horiz-adv-x="1165" 
d="M937 890q7 -5 5 -13l-5 -32l-4 -32q-2 -8 -10 -13l-726 -498q-14 -10 -26.5 -4.5t-10.5 21.5l7 50q0 8 9 14l665 462l-534 462q-6 5 -6 14l7 50q2 16 16 21.5t25 -4.5z" />
    <glyph glyph-name="fraction" unicode="&#x2044;" horiz-adv-x="1333" 
d="M1523 2372q11 19 29 10l40 -20q7 -4 9 -12t-2 -15l-1608 -2650q-5 -8 -13.5 -11t-15.5 1l-40 20q-18 9 -7 28z" />
    <glyph glyph-name="Euro" unicode="&#x20ac;" horiz-adv-x="2987" 
d="M2935 1830q8 -21 -13 -29l-72 -32q-19 -10 -27 11q-111 297 -312.5 435.5t-492.5 138.5q-247 0 -475 -97t-406 -280.5t-270 -426.5h1293l-84 -91h-1239q-57 -189 -57 -396q0 -28 2 -80h1194l-83 -89h-1102q51 -369 300.5 -588.5t608.5 -219.5q604 0 965 574q13 21 32 11
l62 -32q7 -3 9 -10t-4 -19q-398 -635 -1080 -635q-199 0 -376.5 64.5t-313.5 181.5t-225.5 290.5t-114.5 382.5h-461l13 89h441q-2 44 -2 68q0 210 56 408h-428l13 91h444q100 278 303.5 487.5t463 318.5t537.5 109q668 0 901 -635z" />
    <glyph glyph-name="trademark" unicode="&#x2122;" horiz-adv-x="3401" 
d="M3377 2467q13 0 11 -13l-212 -1514q-2 -13 -16 -13h-54q-12 0 -10 13l188 1339l-801 -1040q-12 -15 -21 0l-508 1040l-188 -1339q-2 -13 -15 -13h-54q-13 0 -11 13l213 1514q0 13 15 13h15q11 0 17 -12l544 -1096l847 1096q10 12 21 12h19zM1645 2442q12 0 12 -13l-6 -43
q-4 -13 -15 -13h-572l-200 -1433q-2 -13 -16 -13h-54q-5 0 -8 4t-2 9l200 1433h-570q-13 0 -11 13l6 43q0 5 5 9t10 4h637h584z" />
    <glyph glyph-name="oneeighth" unicode="&#x215b;" horiz-adv-x="3903" 
d="M2492 2387q7 -4 9 -12t-2 -15l-1608 -2650q-5 -8 -13.5 -11t-15.5 1l-40 20q-18 9 -7 28l1608 2649q11 19 29 10zM964 2397q14 0 12 -14l-221 -1576q-1 -5 -6 -9.5t-10 -4.5h-57q-6 0 -9.5 4.5t-2.5 9.5l211 1504l-353 -173q-13 -7 -19 7l-13 40q-3 11 9 18l392 190
q9 4 21 4h46zM3022 843q66 -15 124 -43.5t106.5 -72.5t76.5 -109.5t28 -144.5q0 -145 -78 -256.5t-218.5 -172t-321.5 -60.5q-229 0 -361.5 104t-132.5 282q0 103 40 188t107.5 140.5t144 91t162.5 53.5q-58 13 -108.5 38.5t-94 65t-68.5 97.5t-25 127q0 188 159.5 319
t407.5 131q209 0 331 -103t122 -260q0 -72 -24.5 -134.5t-63.5 -107.5t-92.5 -81t-108 -57.5t-112.5 -34.5zM2486 1174q0 -132 106 -214t274 -82q129 0 236.5 46t171.5 130.5t64 190.5q0 133 -103 220t-275 87q-204 0 -339 -110t-135 -268zM2750 57q230 0 376.5 116.5
t146.5 299.5q0 150 -112.5 240t-305.5 90q-231 0 -377 -116t-146 -300q0 -149 112.5 -239.5t305.5 -90.5z" />
    <glyph glyph-name="threeeighths" unicode="&#x215c;" horiz-adv-x="3825" 
d="M1367 1260q0 -224 -166 -353.5t-441 -129.5q-341 0 -532 250q-12 13 -3 21l36 36q15 15 24 4q179 -238 480 -238q235 0 376 106t141 296q0 154 -125.5 243t-397.5 91q-14 0 -12 14l5 33q0 13 16 13q142 1 253.5 35t181 91.5t105.5 132t36 159.5q0 133 -88.5 205
t-263.5 72q-259 0 -496 -217q-13 -9 -22 3l-24 33q-5 9 10 22q253 232 555 232q206 0 309.5 -90t103.5 -245q0 -170 -116.5 -292t-331.5 -166q196 -29 291.5 -121.5t95.5 -239.5zM2717 2387q7 -4 9 -12t-2 -15l-1608 -2650q-5 -8 -13.5 -11t-15.5 1l-40 20q-18 9 -7 28
l1608 2649q11 19 29 10zM3247 843q66 -15 124 -43.5t106.5 -72.5t76.5 -109.5t28 -144.5q0 -145 -78 -256.5t-218.5 -172t-321.5 -60.5q-229 0 -361.5 104t-132.5 282q0 103 40 188t107.5 140.5t144 91t162.5 53.5q-58 13 -108.5 38.5t-94 65t-68.5 97.5t-25 127
q0 188 159.5 319t407.5 131q209 0 331 -103t122 -260q0 -72 -24.5 -134.5t-63.5 -107.5t-92.5 -81t-108 -57.5t-112.5 -34.5zM2711 1174q0 -132 106 -214t274 -82q129 0 236.5 46t171.5 130.5t64 190.5q0 133 -103 220t-275 87q-204 0 -339 -110t-135 -268zM2975 57
q230 0 376.5 116.5t146.5 299.5q0 150 -112.5 240t-305.5 90q-231 0 -377 -116t-146 -300q0 -149 112.5 -239.5t305.5 -90.5z" />
    <glyph glyph-name="fiveeighths" unicode="&#x215d;" horiz-adv-x="3845" 
d="M2717 2387q7 -4 9 -12t-2 -15l-1608 -2650q-5 -8 -13.5 -11t-15.5 1l-40 20q-18 9 -7 28l1608 2649q11 19 29 10zM1394 1324q0 -171 -87.5 -297t-230 -188t-318.5 -62q-124 0 -223.5 32t-164.5 81.5t-123 123.5q-13 13 -4 21l36 36q15 13 24 3q82 -107 192 -165.5
t269 -58.5q111 0 208 30t172.5 86.5t119.5 146t44 200.5q0 171 -119 269t-311 98q-207 0 -418 -112q-5 -3 -10 0l-42 19q-9 3 -6 13l198 783q2 14 16 14h832q6 0 9.5 -4t2.5 -10l-6 -45q-2 -14 -15 -14h-773l-172 -676q198 101 405 101q141 -2 251 -48.5t177 -144t67 -232.5
zM3247 843q66 -15 124 -43.5t106.5 -72.5t76.5 -109.5t28 -144.5q0 -145 -78 -256.5t-218.5 -172t-321.5 -60.5q-229 0 -361.5 104t-132.5 282q0 103 40 188t107.5 140.5t144 91t162.5 53.5q-58 13 -108.5 38.5t-94 65t-68.5 97.5t-25 127q0 188 159.5 319t407.5 131
q209 0 331 -103t122 -260q0 -72 -24.5 -134.5t-63.5 -107.5t-92.5 -81t-108 -57.5t-112.5 -34.5zM2711 1174q0 -132 106 -214t274 -82q129 0 236.5 46t171.5 130.5t64 190.5q0 133 -103 220t-275 87q-204 0 -339 -110t-135 -268zM2975 57q230 0 376.5 116.5t146.5 299.5
q0 150 -112.5 240t-305.5 90q-231 0 -377 -116t-146 -300q0 -149 112.5 -239.5t305.5 -90.5z" />
    <glyph glyph-name="seveneighths" unicode="&#x215e;" horiz-adv-x="3582" 
d="M2441 2387q7 -4 9 -12t-2 -15l-1608 -2650q-5 -8 -13.5 -11t-15.5 1l-40 20q-18 9 -7 28l1608 2649q11 19 29 10zM1482 2366q-1 -10 -9 -18l-941 -1548q-4 -7 -12 -7h-55q-10 0 -13.5 7.5t1.5 16.5l918 1507h-994q-5 0 -8.5 4.5t-2.5 9.5l6 45q2 14 16 14h1085
q13 0 11 -14zM2971 843q66 -15 124 -43.5t106.5 -72.5t76.5 -109.5t28 -144.5q0 -145 -78 -256.5t-218.5 -172t-321.5 -60.5q-229 0 -361.5 104t-132.5 282q0 103 40 188t107.5 140.5t144 91t162.5 53.5q-58 13 -108.5 38.5t-94 65t-68.5 97.5t-25 127q0 188 159.5 319
t407.5 131q209 0 331 -103t122 -260q0 -72 -24.5 -134.5t-63.5 -107.5t-92.5 -81t-108 -57.5t-112.5 -34.5zM2435 1174q0 -132 106 -214t274 -82q129 0 236.5 46t171.5 130.5t64 190.5q0 133 -103 220t-275 87q-204 0 -339 -110t-135 -268zM2699 57q230 0 376.5 116.5
t146.5 299.5q0 150 -112.5 240t-305.5 90q-231 0 -377 -116t-146 -300q0 -149 112.5 -239.5t305.5 -90.5z" />
    <glyph glyph-name="partialdiff" unicode="&#x2202;" horiz-adv-x="2025" 
d="M874 2566q162 -30 298 -92t234.5 -142.5t176 -184t127 -212t83 -231t48 -237t17.5 -234.5t-3.5 -218t-19.5 -193q-21 -151 -83 -285.5t-152.5 -236t-203.5 -175.5t-241 -112t-260 -38q-165 0 -306.5 61t-239 168t-142 265t-18.5 341q25 183 112 341t212.5 265t282.5 168
t322 61q216 0 377.5 -101t238.5 -282q-5 112 -20 216.5t-46.5 215t-78 207.5t-117.5 189.5t-160.5 165.5t-211.5 131t-266 90q-13 4 -16.5 14t4.5 21l25 42q9 15 27 12zM912 86q190 0 360 88t288.5 255t148.5 381q23 161 -13.5 298t-118 229.5t-201 144.5t-261.5 52
t-276 -52t-241.5 -144.5t-182.5 -229.5t-97 -298q-23 -161 13.5 -298t118 -229.5t201 -144.5t261.5 -52z" />
    <glyph glyph-name="emptyset" unicode="&#x2205;" horiz-adv-x="2747" 
d="M2705 2065q13 -16 -6 -33l-436 -371q99 -137 140.5 -307.5t14.5 -358.5q-29 -207 -137 -396t-264 -325.5t-356 -217.5t-407 -81q-196 0 -363.5 71t-289.5 200l-435 -370q-20 -17 -33 -1l-42 50q-14 15 6 33l436 371q-99 137 -140.5 307.5t-14.5 358.5q29 207 137 396
t264 325.5t356 217.5t407 81q196 0 364 -71.5t290 -200.5l434 370q20 18 34 2zM497 995q-23 -165 11.5 -315t118.5 -271l1475 1255q-106 114 -254.5 177.5t-321.5 63.5q-183 0 -359.5 -72t-314.5 -193.5t-233.5 -290t-121.5 -354.5zM2299 995q23 165 -11.5 315t-118.5 271
l-1475 -1256q107 -115 255 -178t321 -63q182 0 359 72t315 193.5t233.5 290.5t121.5 355z" />
    <glyph glyph-name="product" unicode="&#x220f;" horiz-adv-x="1922" 
d="M1956 2940q8 0 13.5 -6.5t4.5 -14.5l-467 -3323q-1 -8 -8 -14.5t-15 -6.5h-63q-8 0 -13.5 6.5t-4.5 14.5l456 3248h-1228l-456 -3248q-1 -8 -8 -14.5t-15 -6.5h-63q-8 0 -13.5 6.5t-4.5 14.5l467 3323q1 8 8 14.5t15 6.5h1359h36z" />
    <glyph glyph-name="summation" unicode="&#x2211;" horiz-adv-x="2000" 
d="M2085 2865q-2 -9 -8.5 -15t-15.5 -6h-1420l709 -1577q4 -7 -2 -19l-1153 -1576h1420q9 0 14 -6t4 -15l-8 -55q-2 -21 -23 -21h-1526q-9 0 -14.5 6t-4.5 15l8 48q2 23 15 39l1157 1575l-715 1574q-7 15 -4 39l6 48q4 21 24 21h1526q9 0 14 -6t4 -15z" />
    <glyph glyph-name="minus" unicode="&#x2212;" horiz-adv-x="2046" 
d="M277 1003q-9 0 -14 6t-4 15l8 60q1 9 8 15t16 6h1544q20 0 18 -21l-8 -60q-1 -9 -8.5 -15t-16.5 -6h-1543z" />
    <glyph glyph-name="radical" unicode="&#x221a;" horiz-adv-x="2196" 
d="M2300 2947q6 13 21 13h81q13 0 18.5 -9t-0.5 -23l-1429 -2915q-7 -13 -20 -13h-66q-13 0 -16 11l-388 1407h-376q-8 0 -13.5 6.5t-4.5 14.5l9 59q1 9 8 15.5t16 6.5h453q14 0 16 -13l355 -1331z" />
    <glyph glyph-name="infinity" unicode="&#x221e;" horiz-adv-x="2803" 
d="M2067 1594q225 0 379.5 -156.5t154.5 -382.5t-154.5 -382.5t-379.5 -156.5q-88 0 -166 22.5t-141 61.5t-122 98.5t-106.5 125.5t-96.5 151q-49 -85 -96.5 -151t-106.5 -125.5t-122 -98.5t-141 -61.5t-166 -22.5q-225 0 -379.5 156.5t-154.5 382.5t154.5 382.5
t379.5 156.5q88 0 166 -22.5t141 -61.5t122 -98.5t106.5 -125.5t96.5 -151q49 85 96.5 151t106.5 125.5t122 98.5t141 61.5t166 22.5zM800 615q120 0 225 56t186.5 149t164.5 235q-83 142 -164.5 235t-186.5 149t-225 56q-119 0 -216 -60t-150.5 -160.5t-53.5 -219.5
t53.5 -219.5t150.5 -160.5t216 -60zM2070 615q119 0 216 60t150.5 160.5t53.5 219.5t-53.5 219.5t-150.5 160.5t-216 60q-120 0 -225 -56t-186.5 -149t-164.5 -235q83 -142 164.5 -235t186.5 -149t225 -56z" />
    <glyph glyph-name="integral" unicode="&#x222b;" horiz-adv-x="1647" 
d="M1912 2901q19 -18 3 -35l-36 -50q-14 -18 -37 -3q-132 121 -312 121q-106 0 -189 -36t-137 -102.5t-87 -150.5t-48 -189l-393 -2802q-17 -125 -64 -229t-119.5 -181.5t-176 -120.5t-227.5 -43q-113 0 -214.5 39t-163.5 99q-18 18 -3 36l36 49q14 20 36 3
q133 -120 313 -120q106 0 189 36t137 102.5t87 150.5t47 189l394 2801q17 125 63.5 229t119.5 181.5t176.5 121t227.5 43.5q113 0 214.5 -39t163.5 -100z" />
    <glyph glyph-name="approxequal" unicode="&#x2248;" horiz-adv-x="2182" 
d="M2046 1560q12 -8 5 -23q-70 -145 -211 -244.5t-297 -99.5q-98 0 -183.5 31t-149 75t-125 88t-138.5 75t-162 31q-127 0 -245.5 -79.5t-174.5 -187.5q-13 -22 -33 -11l-34 20q-13 7 -5 23q69 144 210.5 244t297.5 100q83 0 157.5 -22.5t127 -55.5t110.5 -72.5t107 -72.5
t116 -55.5t139 -22.5q127 0 245 80t175 188q14 21 34 10zM1945 850q14 -9 6 -23q-69 -144 -210.5 -244t-297.5 -100q-98 0 -183.5 31t-149 75t-124.5 88t-138 75t-162 31q-127 0 -245.5 -79.5t-175.5 -187.5q-14 -21 -33 -10l-34 19q-13 8 -5 23q69 144 211 244t297 100
q83 0 158 -22.5t127.5 -55.5t110 -72.5t106.5 -72.5t116 -55.5t139 -22.5q127 0 245.5 80t175.5 188q14 21 33 10z" />
    <glyph glyph-name="notequal" unicode="&#x2260;" horiz-adv-x="2047" 
d="M1885 1462q9 0 14 -6t4 -15l-8 -59q-1 -9 -8 -15t-16 -6h-572l-334 -616h820q9 0 14 -6t3 -15l-8 -60q-2 -21 -23 -21h-861l-295 -544q-4 -8 -12.5 -11t-16.5 1l-53 25q-16 9 -6 28l271 501h-571q-9 0 -14.5 6t-4.5 15l8 60q4 21 25 21h612l334 616h-860q-20 0 -18 21
l9 59q4 21 23 21h900l274 506q11 19 30 10l53 -25q7 -3 9.5 -11t-2.5 -17l-251 -463h531z" />
    <glyph glyph-name="lessequal" unicode="&#x2264;" horiz-adv-x="2047" 
d="M1946 1748q-1 -12 -23 -21l-1534 -650l1352 -650q19 -9 17 -20l-11 -81q-1 -9 -8.5 -14.5t-14.5 -1.5l-1446 700q-19 10 -18 25l12 84q2 16 25 25l1642 700q9 4 15 -1.5t4 -14.5zM133 -26q-9 0 -14.5 6t-4.5 15l8 59q4 21 25 21h1544q9 0 14 -6t3 -15l-8 -59
q-2 -21 -23 -21h-1544z" />
    <glyph glyph-name="greaterequal" unicode="&#x2265;" horiz-adv-x="2047" 
d="M360 1748l12 80q2 9 9 14.5t14 1.5l1446 -700q19 -10 17 -25l-12 -84q-1 -15 -24 -25l-1642 -700q-9 -4 -14.5 1.5t-4.5 14.5l11 81q2 11 25 20l1534 650l-1352 650q-20 10 -19 21zM1677 -26h-1544q-9 0 -14.5 6t-4.5 15l8 59q4 21 25 21h1544q9 0 14 -6t3 -15l-8 -59
q-2 -21 -23 -21z" />
    <glyph glyph-name="lozenge" unicode="&#x25ca;" horiz-adv-x="2201" 
d="M1353 2767q11 12 23.5 12t18.5 -12l656 -1357q5 -10 -3 -20l-1037 -1357q-10 -12 -22.5 -12t-19.5 12l-656 1357q-4 11 3 20zM1011 173l925 1227l-581 1227l-927 -1227z" />
    <glyph glyph-name="i.loclTRK" horiz-adv-x="610" 
d="M475 2023q-39 0 -65 27t-26 66q0 46 37 81t83 35q39 0 65 -27t26 -66q0 -46 -36.5 -81t-83.5 -35zM356 1619q2 21 23 21h83q8 0 13.5 -6t4.5 -15l-225 -1598q-2 -9 -8.5 -15t-15.5 -6h-82q-9 0 -14 6t-4 15z" />
    <glyph glyph-name="zero.osf" horiz-adv-x="2049" 
d="M1157 1765q170 0 312.5 -62t241 -174.5t141.5 -283t14 -375.5t-120 -375.5t-221 -283t-289.5 -174.5t-329.5 -62t-312.5 62t-241 174.5t-141.5 283t-14 375.5q28 205 119 375.5t221 283t290 174.5t330 62zM922 86q144 0 278.5 53t245 150.5t188 248t103.5 332.5t-9.5 332
t-118.5 247.5t-203 150.5t-264 53t-279 -53t-245.5 -150.5t-188 -247.5t-103.5 -332t10 -332.5t119 -248t203 -150.5t264 -53z" />
    <glyph glyph-name="one.osf" horiz-adv-x="1370" 
d="M1036 1740q8 0 13.5 -6.5t4.5 -14.5l-239 -1698q-1 -8 -8.5 -14.5t-15.5 -6.5h-82q-8 0 -13.5 6.5t-4.5 14.5l223 1586l-537 -262q-21 -10 -28 10l-21 61q-5 19 14 28l596 288q13 8 32 8h66z" />
    <glyph glyph-name="two.osf" horiz-adv-x="1794" 
d="M1431 111q8 0 13.5 -6.5t4.5 -14.5l-9 -69q-1 -8 -9 -14.5t-16 -6.5h-1352q-9 0 -14 6t-3 15l3 27q2 20 12 27q221 131 372.5 224t297.5 187.5t237.5 161.5t175.5 139t129 128.5t80 120.5t47 124.5t12 131.5q0 168 -107.5 264.5t-318.5 96.5q-340 0 -652 -302
q-12 -9 -19 -8t-16 13l-38 50q-4 10 -1 15.5t16 17.5q335 326 745 326q255 0 388.5 -125t133.5 -330q0 -102 -25.5 -190.5t-88.5 -180t-154.5 -178t-237.5 -190.5t-323 -212.5t-425 -247.5h1142z" />
    <glyph glyph-name="three.osf" horiz-adv-x="1827" 
d="M983 586q256 -45 397 -185t141 -355q0 -160 -65 -292t-178.5 -218.5t-266 -134t-327.5 -47.5q-230 0 -411 87.5t-298 240.5q-17 21 -5 33l55 55q21 20 35 5q112 -146 276.5 -228t365.5 -82q113 0 215 23t189 70.5t151 115t100 162.5t36 207q0 119 -56 212.5t-155.5 152.5
t-230.5 91t-287 34q-22 2 -19 21l7 50q4 19 25 21q114 0 226 24.5t215 74.5t181.5 120.5t125.5 171t47 217.5q0 189 -129 304.5t-342 115.5q-180 0 -351.5 -80.5t-313.5 -213.5q-22 -16 -35 5l-33 50q-8 13 15 32q165 153 360 236t391 83q261 0 414 -143t153 -367
q0 -247 -168 -421.5t-450 -247.5z" />
    <glyph glyph-name="four.osf" horiz-adv-x="2021" 
d="M1775 111q9 0 14 -6t4 -15l-9 -69q-4 -21 -24 -21h-412l-84 -600q-1 -8 -9 -14.5t-16 -6.5h-82q-8 0 -13.5 6.5t-3.5 14.5l84 600h-1209q-8 0 -13 6t-4 15l10 69l1475 1637q11 13 32 13h56q8 0 13.5 -6.5t4.5 -14.5l-225 -1608h411zM160 111h1080l199 1419z" />
    <glyph glyph-name="five.osf" horiz-adv-x="2075" 
d="M1823 1740q8 0 13.5 -6.5t4.5 -14.5l-9 -70q-1 -8 -8.5 -14.5t-15.5 -6.5h-1097l-254 -968q161 82 300 117.5t298 35.5q150 -2 274.5 -43t214.5 -118t140 -195.5t50 -267.5q0 -191 -69.5 -347t-191.5 -259t-286.5 -158.5t-356.5 -55.5q-173 0 -312 44.5t-234.5 117.5
t-182.5 184q-18 19 -5 32l55 55q21 21 36 5q121 -159 277.5 -243t373.5 -84q162 0 300.5 45.5t242.5 131.5t163.5 219t59.5 298q0 249 -155.5 391.5t-425.5 142.5q-154 0 -297 -41t-318 -129q-8 -5 -15 -1l-65 30q-12 6 -9 19l294 1133q2 9 8.5 15t15.5 6h1186z" />
    <glyph glyph-name="six.osf" horiz-adv-x="2091" 
d="M1110 1487q219 0 377 -99.5t227.5 -270.5t39.5 -382q-22 -158 -100 -298t-195.5 -241.5t-273.5 -161t-327 -59.5q-170 0 -308 60.5t-226 166.5t-125.5 256.5t-13.5 325.5q53 377 177 669t317 495t461 308.5t602 105.5q10 0 15.5 -6t3.5 -15l-10 -69q-4 -21 -24 -21
q-553 -3 -891 -304t-480 -897q119 195 320 316t434 121zM874 86q142 0 272.5 51.5t228 139t162.5 206.5t84 252q25 180 -32 325t-192 230.5t-327 85.5q-142 0 -276 -55.5t-233 -145.5t-165.5 -205.5t-83.5 -234.5q-19 -133 13 -252t104.5 -206.5t188 -139t256.5 -51.5z" />
    <glyph glyph-name="seven.osf" horiz-adv-x="1670" 
d="M235 -621q-15 0 -20 11.5t4 25.5l1383 2212h-1448q-8 0 -13.5 6.5t-3.5 14.5l9 70q1 8 8.5 14.5t15.5 6.5h1587q9 0 14.5 -6t4.5 -15l-4 -27q-3 -17 -13 -27l-1420 -2276q-8 -10 -19 -10h-85z" />
    <glyph glyph-name="eight.osf" horiz-adv-x="2029" 
d="M1317 1233q76 -18 145 -47t134 -76t112.5 -106t76 -140t28.5 -174q0 -160 -68.5 -294.5t-189.5 -226.5t-291 -143.5t-369 -51.5q-339 0 -538 153.5t-199 414.5q0 121 40.5 226t106.5 179.5t155.5 134t180 95t188.5 56.5q-82 21 -156.5 60t-139 97.5t-103 143.5t-38.5 185
q0 135 62.5 255t172 207t266.5 137.5t339 50.5q310 0 492.5 -147.5t182.5 -378.5q0 -103 -37 -195t-95.5 -158t-137.5 -119t-158.5 -86t-161.5 -52zM518 1723q0 -190 159.5 -313t402.5 -123q186 0 345.5 68.5t256 192.5t96.5 275q0 194 -153.5 317.5t-407.5 123.5
q-197 0 -357.5 -71t-251 -194.5t-90.5 -275.5zM911 85q222 0 398.5 76t276.5 214.5t100 315.5q0 216 -169.5 349.5t-452.5 133.5q-221 0 -397.5 -77t-276.5 -216t-100 -313q0 -218 169 -350.5t452 -132.5z" />
    <glyph glyph-name="nine.osf" horiz-adv-x="1979" 
d="M1122 1765q232 0 399.5 -103.5t243 -289.5t42.5 -422q-71 -506 -268.5 -856.5t-526 -536t-774.5 -185.5q-9 0 -14.5 6.5t-4.5 15.5l10 68q3 21 24 21q553 3 895.5 304t486.5 895q-122 -196 -325.5 -318t-440.5 -122q-221 0 -381.5 99.5t-231 272t-40.5 386.5
q22 159 101.5 300.5t198 243.5t276.5 161.5t330 59.5zM909 354q144 0 280.5 55.5t237.5 146t168.5 207t84.5 237.5q19 134 -13.5 254.5t-106.5 208t-191.5 139t-261.5 51.5t-276 -51.5t-231 -139t-165 -208t-85 -254.5q-26 -182 32 -328.5t195.5 -232t331.5 -85.5z" />
    <glyph glyph-name="zero.dnom" horiz-adv-x="1590" 
d="M907 1614q130 0 230.5 -57t162 -163.5t83.5 -258t-6 -340.5q-53 -374 -245 -596t-455 -222t-392.5 221.5t-77.5 596.5q53 375 245 597t455 222zM688 50q229 0 391 202.5t210 542.5q31 225 -4.5 393t-135.5 260.5t-252 92.5q-229 0 -391.5 -203t-210.5 -543
q-31 -224 5 -392.5t136 -260.5t252 -92z" />
    <glyph glyph-name="one.dnom" horiz-adv-x="1249" 
d="M853 1604q14 0 12 -14l-221 -1576q-1 -5 -6 -9.5t-10 -4.5h-57q-6 0 -9.5 4.5t-2.5 9.5l211 1504l-353 -173q-13 -7 -19 7l-13 40q-3 11 9 18l392 190q9 4 21 4h46z" />
    <glyph glyph-name="two.dnom" horiz-adv-x="1494" 
d="M1286 1191q-14 -100 -65 -201.5t-132.5 -203t-209 -219t-276.5 -235.5t-352 -266h921q12 0 12 -14l-6 -45q-4 -14 -16 -14h-1056q-14 0 -11 14l2 18q3 13 8 17q551 393 808 658t286 485q24 166 -60 261t-276 95q-257 0 -501 -235q-11 -10 -23 3l-24 33q-8 8 9 21
q262 251 560 251q152 0 250 -55.5t133.5 -149t18.5 -218.5z" />
    <glyph glyph-name="three.dnom" horiz-adv-x="1501" 
d="M868 821q196 -29 291.5 -121.5t95.5 -239.5q0 -224 -166 -353.5t-441 -129.5q-341 0 -532 250q-12 13 -3 21l36 36q15 15 24 4q179 -238 480 -238q235 0 376 106t141 296q0 154 -125.5 243t-397.5 91q-14 0 -12 14l5 33q0 13 16 13q142 1 253.5 35t181 91.5t105.5 132
t36 159.5q0 133 -88.5 205t-263.5 72q-259 0 -496 -217q-13 -9 -22 3l-24 33q-5 9 10 22q253 232 555 232q206 0 309.5 -90t103.5 -245q0 -170 -116.5 -292t-331.5 -166z" />
    <glyph glyph-name="four.dnom" horiz-adv-x="1530" 
d="M1315 481q14 0 12 -14l-6 -45q-2 -14 -16 -14h-271l-56 -394q0 -5 -5 -9.5t-10 -4.5h-58q-5 0 -8.5 4.5t-2.5 9.5l55 394h-873q-14 0 -12 14l6 42q0 2 4 8l1044 1124q7 8 22 8h48q5 0 9 -4t3 -10l-157 -1109h272zM179 481h780l140 994z" />
    <glyph glyph-name="five.dnom" horiz-adv-x="1540" 
d="M1337 1604q15 0 12 -14l-6 -45q-2 -14 -15 -14h-773l-172 -676q198 101 405 101q141 -2 251 -48.5t177 -144t67 -232.5q0 -171 -87.5 -297t-230 -188t-318.5 -62q-124 0 -223.5 32t-164.5 81.5t-123 123.5q-13 13 -4 21l36 36q15 13 24 3q82 -107 192 -165.5t269 -58.5
q111 0 208 30t172.5 86.5t119.5 146t44 200.5q0 171 -119 269t-311 98q-207 0 -418 -112q-5 -3 -10 0l-42 19q-9 3 -6 13l198 783q2 14 16 14h832z" />
    <glyph glyph-name="six.dnom" horiz-adv-x="1511" 
d="M808 1004q229 0 354 -144t94 -364t-205.5 -366t-411.5 -146q-240 0 -371.5 151.5t-97.5 393.5q47 337 183 581t359.5 377.5t516.5 133.5q14 0 12 -14l-6 -45q-2 -14 -15 -14q-365 -3 -601.5 -219.5t-335.5 -622.5q82 133 222 215.5t303 82.5zM648 57q199 0 346 126
t174 313q27 190 -79.5 312.5t-307.5 122.5q-99 0 -192 -36.5t-162 -97t-115.5 -139.5t-58.5 -162q-26 -187 85 -313t310 -126z" />
    <glyph glyph-name="seven.dnom" horiz-adv-x="1488" 
d="M354 0q-10 0 -13.5 7.5t1.5 16.5l918 1507h-994q-5 0 -8.5 4.5t-2.5 9.5l6 45q2 14 16 14h1085q13 0 11 -14l-2 -17q-1 -10 -9 -18l-941 -1548q-3 -7 -12 -7h-55z" />
    <glyph glyph-name="eight.dnom" horiz-adv-x="1528" 
d="M929 843q66 -15 124 -43.5t106.5 -72.5t76.5 -109.5t28 -144.5q0 -145 -78 -256.5t-218.5 -172t-321.5 -60.5q-229 0 -361.5 104t-132.5 282q0 103 40 188t107.5 140.5t144 91t162.5 53.5q-58 13 -108.5 38.5t-94 65t-68.5 97.5t-25 127q0 188 159.5 319t407.5 131
q209 0 331 -103t122 -260q0 -72 -24.5 -134.5t-63.5 -107.5t-92.5 -81t-108 -57.5t-112.5 -34.5zM393 1174q0 -132 106 -214t274 -82q129 0 236.5 46t171.5 130.5t64 190.5q0 133 -103 220t-275 87q-204 0 -339 -110t-135 -268zM657 57q230 0 376.5 116.5t146.5 299.5
q0 150 -112.5 240t-305.5 90q-231 0 -377 -116t-146 -300q0 -149 112.5 -239.5t305.5 -90.5z" />
    <glyph glyph-name="nine.dnom" horiz-adv-x="1481" 
d="M854 1621q232 0 359.5 -152t93.5 -394q-26 -188 -83 -350.5t-147 -296.5t-207.5 -228.5t-271.5 -147t-333 -52.5q-14 0 -12 14l6 45q2 14 16 14q183 1 334.5 59.5t264 167t192 256.5t126.5 336q-81 -131 -216 -211.5t-292 -80.5q-146 0 -252.5 65.5t-153.5 181.5t-27 261
q31 220 202 366.5t401 146.5zM711 673q126 0 240 62.5t186 162t87 210.5q26 187 -81.5 313.5t-298.5 126.5q-192 0 -335.5 -126.5t-169.5 -313.5q-27 -190 75.5 -312.5t296.5 -122.5z" />
    <glyph glyph-name="zero.numr" horiz-adv-x="1590" 
d="M1019 2414q130 0 230.5 -57t162 -163.5t83.5 -258t-6 -340.5q-53 -374 -245 -596t-455 -222t-392.5 221.5t-77.5 596.5q53 375 245 597t455 222zM800 850q229 0 391 202.5t210 542.5q31 225 -4.5 393t-135.5 260.5t-252 92.5q-229 0 -391.5 -203t-210.5 -543
q-31 -224 5 -392.5t136 -260.5t252 -92z" />
    <glyph glyph-name="one.numr" horiz-adv-x="1248" 
d="M964 2397q14 0 12 -14l-221 -1576q-1 -5 -6 -9.5t-10 -4.5h-57q-6 0 -9.5 4.5t-2.5 9.5l211 1504l-353 -173q-13 -7 -19 7l-13 40q-3 11 9 18l392 190q9 4 21 4h46z" />
    <glyph glyph-name="two.numr" horiz-adv-x="1495" 
d="M1398 1991q-14 -100 -65 -201.5t-132.5 -203t-209 -219t-276.5 -235.5t-352 -266h921q12 0 12 -14l-6 -45q-4 -14 -16 -14h-1056q-14 0 -11 14l2 18q3 13 8 17q551 393 808 658t286 485q24 166 -60 261t-276 95q-257 0 -501 -235q-11 -10 -23 3l-24 33q-8 8 9 21
q262 251 560 251q152 0 250 -55.5t133.5 -149t18.5 -218.5z" />
    <glyph glyph-name="three.numr" horiz-adv-x="1501" 
d="M980 1621q196 -29 291.5 -121.5t95.5 -239.5q0 -224 -166 -353.5t-441 -129.5q-341 0 -532 250q-12 13 -3 21l36 36q15 15 24 4q179 -238 480 -238q235 0 376 106t141 296q0 154 -125.5 243t-397.5 91q-14 0 -12 14l5 33q0 13 16 13q142 1 253.5 35t181 91.5t105.5 132
t36 159.5q0 133 -88.5 205t-263.5 72q-259 0 -496 -217q-13 -9 -22 3l-24 33q-5 9 10 22q253 232 555 232q206 0 309.5 -90t103.5 -245q0 -170 -116.5 -292t-331.5 -166z" />
    <glyph glyph-name="four.numr" horiz-adv-x="1529" 
d="M1427 1274q14 0 12 -14l-6 -45q-2 -14 -16 -14h-271l-56 -394q0 -5 -5 -9.5t-10 -4.5h-58q-5 0 -8.5 4.5t-2.5 9.5l55 394h-873q-14 0 -12 14l6 42q0 2 4 8l1044 1124q7 8 22 8h48q5 0 9 -4t3 -10l-157 -1109h272zM291 1274h780l140 994z" />
    <glyph glyph-name="five.numr" horiz-adv-x="1540" 
d="M1448 2397q6 0 9.5 -4t2.5 -10l-6 -45q-2 -14 -15 -14h-773l-172 -676q198 101 405 101q141 -2 251 -48.5t177 -144t67 -232.5q0 -171 -87.5 -297t-230 -188t-318.5 -62q-124 0 -223.5 32t-164.5 81.5t-123 123.5q-13 13 -4 21l36 36q15 13 24 3q82 -107 192 -165.5
t269 -58.5q111 0 208 30t172.5 86.5t119.5 146t44 200.5q0 171 -119 269t-311 98q-207 0 -418 -112q-5 -3 -10 0l-42 19q-9 3 -6 13l198 783q2 14 16 14h832z" />
    <glyph glyph-name="six.numr" horiz-adv-x="1511" 
d="M919 1797q229 0 354 -144t94 -364t-205.5 -366t-411.5 -146q-240 0 -371.5 151.5t-97.5 393.5q47 337 183 581t359.5 377.5t516.5 133.5q14 0 12 -14l-6 -45q-2 -14 -15 -14q-365 -3 -601.5 -219.5t-335.5 -622.5q82 133 222 215.5t303 82.5zM759 850q199 0 346 126
t174 313q27 190 -79.5 312.5t-307.5 122.5q-99 0 -192 -36.5t-162 -97t-115.5 -139.5t-58.5 -162q-26 -187 85 -313t310 -126z" />
    <glyph glyph-name="seven.numr" horiz-adv-x="1487" 
d="M465 793q-10 0 -13.5 7.5t1.5 16.5l918 1507h-994q-5 0 -8.5 4.5t-2.5 9.5l6 45q2 14 16 14h1085q13 0 11 -14l-2 -17q-1 -10 -9 -18l-941 -1548q-4 -7 -12 -7h-55z" />
    <glyph glyph-name="eight.numr" horiz-adv-x="1527" 
d="M1040 1636q66 -15 124 -43.5t106.5 -72.5t76.5 -109.5t28 -144.5q0 -145 -78 -256.5t-218.5 -172t-321.5 -60.5q-229 0 -361.5 104t-132.5 282q0 103 40 188t107.5 140.5t144 91t162.5 53.5q-58 13 -108.5 38.5t-94 65t-68.5 97.5t-25 127q0 188 159.5 319t407.5 131
q209 0 331 -103t122 -260q0 -72 -24.5 -134.5t-63.5 -107.5t-92.5 -81t-108 -57.5t-112.5 -34.5zM504 1967q0 -132 106 -214t274 -82q129 0 236.5 46t171.5 130.5t64 190.5q0 133 -103 220t-275 87q-204 0 -339 -110t-135 -268zM768 850q230 0 376.5 116.5t146.5 299.5
q0 150 -112.5 240t-305.5 90q-231 0 -377 -116t-146 -300q0 -149 112.5 -239.5t305.5 -90.5z" />
    <glyph glyph-name="nine.numr" horiz-adv-x="1481" 
d="M965 2414q232 0 359.5 -152t93.5 -394q-26 -188 -83 -350.5t-147 -296.5t-207.5 -228.5t-271.5 -147t-333 -52.5q-14 0 -12 14l6 45q2 14 16 14q183 1 334.5 59.5t264 167t192 256.5t126.5 336q-81 -131 -216 -211.5t-292 -80.5q-146 0 -252.5 65.5t-153.5 181.5t-27 261
q31 220 202 366.5t401 146.5zM822 1466q126 0 240 62.5t186 162t87 210.5q26 187 -81.5 313.5t-298.5 126.5q-192 0 -335.5 -126.5t-169.5 -313.5q-27 -190 75.5 -312.5t296.5 -122.5z" />
    </font>
</defs>
</svg>
