<?xml version="1.0" standalone="no"?>
<!DOCTYPE svg PUBLIC "-//W3C//DTD SVG 1.1//EN" "http://www.w3.org/Graphics/SVG/1.1/DTD/svg11.dtd" >
<svg xmlns="http://www.w3.org/2000/svg" xmlns:xlink="http://www.w3.org/1999/xlink" version="1.1">
<metadata>
Created by FontForge 20170731 at Fri Jun 24 01:06:55 2016
 By Aleksey,,,
Copyright (c) 2015 by Mateusz Machalski. All rights reserved.
</metadata>
<defs>
<font id="Migrena_Grotesque-Semibold" horiz-adv-x="2242" >
  <font-face 
    font-family="Migrena_Grotesque Semibold"
    font-weight="700"
    font-stretch="normal"
    units-per-em="4000"
    panose-1="0 0 8 0 0 0 0 0 0 0"
    ascent="3200"
    descent="-800"
    x-height="1829"
    cap-height="2440"
    bbox="-2113 -1241.14 4991 3637.67"
    underline-thickness="50"
    underline-position="-200"
    unicode-range="U+0020-25CA"
  />
<missing-glyph horiz-adv-x="1609" 
d="M1319 2560v-3217h-1020v3217h1020zM1071 2344h-531v-106h210v-119h-213v-106h534v106h-212v119h212v106zM859 1929h-322v-334h534v109h-212v225zM750 1820v-116h-107v116h107zM1071 1508h-534v-106h213v-119h-213v-106h322v225h212v106zM1071 1315h-106v-212h-428v-110
h534v322zM1071 923h-321v-181h109v74h106v-151h-322v258h-106v-364h534v364zM1071 366h-534v-364h534v364zM965 260v-151h-322v151h322zM1071 -72h-534v-106h225l-225 -151v-106h534v106h-328l225 151h103v106z" />
    <glyph glyph-name=".notdef" horiz-adv-x="1609" 
d="M1319 2560v-3217h-1020v3217h1020zM1071 2344h-531v-106h210v-119h-213v-106h534v106h-212v119h212v106zM859 1929h-322v-334h534v109h-212v225zM750 1820v-116h-107v116h107zM1071 1508h-534v-106h213v-119h-213v-106h322v225h212v106zM1071 1315h-106v-212h-428v-110
h534v322zM1071 923h-321v-181h109v74h106v-151h-322v258h-106v-364h534v364zM1071 366h-534v-364h534v364zM965 260v-151h-322v151h322zM1071 -72h-534v-106h225l-225 -151v-106h534v106h-328l225 151h103v106z" />
    <glyph glyph-name=".null" horiz-adv-x="0" 
 />
    <glyph glyph-name="nonmarkingreturn" horiz-adv-x="1333" 
 />
    <glyph glyph-name="space" unicode=" " horiz-adv-x="702" 
 />
    <glyph glyph-name="exclam" unicode="!" horiz-adv-x="1007" 
d="M205 2371q-1 32 17.5 50.5t51.5 18.5h459q33 0 51.5 -18.5t17.5 -50.5l-72 -1516q-2 -32 -19.5 -50t-48.5 -18h-317q-32 0 -49 18t-19 50zM504 -40q-132 0 -225.5 93.5t-93.5 226.5t93.5 227t225.5 94q133 0 227 -94t94 -227t-94 -226.5t-227 -93.5z" />
    <glyph glyph-name="quotedbl" unicode="&#x22;" horiz-adv-x="1502" 
d="M150 2441q-2 32 16.5 50.5t51.5 18.5h367q32 0 51.5 -18.5t16.5 -50.5l-57 -816q-5 -68 -69 -68h-257q-64 0 -69 68zM852 2441q-2 32 16.5 50.5t51.5 18.5h367q32 0 51.5 -18.5t16.5 -50.5l-57 -816q-5 -68 -69 -68h-257q-64 0 -69 68z" />
    <glyph glyph-name="numbersign" unicode="#" horiz-adv-x="2781" 
d="M2534 1803q36 0 54.5 -20.5t15.5 -56.5l-24 -281q-3 -36 -25.5 -56.5t-58.5 -20.5h-282l-48 -476h273q36 0 55 -20.5t16 -56.5l-24 -281q-4 -36 -26.5 -56.5t-58.5 -20.5h-278l-39 -388q-3 -32 -22.5 -50.5t-51.5 -18.5h-417q-32 0 -48.5 18.5t-13.5 50.5l39 388h-490
l-39 -388q-3 -32 -23 -50.5t-52 -18.5h-416q-32 0 -48.5 18.5t-13.5 50.5l39 388h-279q-36 0 -55 20.5t-16 56.5l26 281q4 36 25.5 56.5t57.5 20.5h284l47 476h-274q-37 0 -55.5 20.5t-15.5 56.5l24 281q3 36 26 56.5t59 20.5h279l39 388q4 32 23.5 50.5t51.5 18.5h416
q32 0 49 -18.5t14 -50.5l-39 -388h490l39 388q3 32 22.5 50.5t51.5 18.5h416q32 0 49.5 -18.5t13.5 -50.5l-39 -388h277zM1613 892l48 476h-490l-48 -476h490z" />
    <glyph glyph-name="dollar" unicode="$" horiz-adv-x="2297" 
d="M2151 743q0 -126 -36.5 -234.5t-101 -191t-155.5 -148t-198.5 -108.5t-232.5 -68v-424q0 -28 -20.5 -48.5t-48.5 -20.5h-301q-29 0 -49 20t-20 49v393q-420 22 -800 233q-64 38 -34 104l142 311q31 69 99 37q194 -97 278 -128q191 -71 407 -71q196 0 302 55t106 167
q0 68 -43.5 120t-117.5 87.5t-169.5 66t-201 62.5t-211 69.5t-201 94t-169.5 129.5t-117.5 182.5t-43.5 246.5q0 295 203.5 497t570.5 250v396q0 29 20 49t49 20h301q28 0 48.5 -20.5t20.5 -48.5v-395q336 -39 617 -197q66 -36 35 -102l-136 -296q-33 -72 -112 -30
q-67 36 -107.5 55.5t-125 53.5t-175 51t-184.5 17q-105 0 -185.5 -20.5t-125 -55.5t-66.5 -75t-22 -84q0 -59 45 -105t120.5 -78t174 -61t207.5 -61.5t217.5 -71.5t207 -98.5t174 -135t120.5 -188t45 -251.5z" />
    <glyph glyph-name="percent" unicode="%" horiz-adv-x="3661" 
d="M2559 2506q26 -12 36 -39t-3 -53l-1204 -2534q-12 -25 -39.5 -35t-52.5 2l-194 90q-26 13 -36 39.5t2 52.5l1205 2534q12 25 39.5 35t52.5 -1zM1500 1709q0 -177 -53 -324.5t-145 -246t-215.5 -153t-264.5 -54.5q-140 0 -263.5 54.5t-215.5 153t-145 246t-53 324.5
q0 178 53 326t145 246.5t215 153t264 54.5t264.5 -54.5t215.5 -153t145 -246.5t53 -326zM822 1323q110 0 165 104t55 282q0 179 -55 283.5t-165 104.5q-108 0 -164 -105t-56 -283q0 -176 56 -281t164 -105zM2838 1509q141 0 264.5 -54.5t215 -153t144.5 -246.5t53 -325
t-53 -325t-144.5 -246.5t-215 -153t-264.5 -54.5t-264 54.5t-215 153t-145 246.5t-53 325t53 325t145 246.5t215 153t264 54.5zM2838 343q110 0 165 104.5t55 282.5q0 179 -55 283.5t-165 104.5q-108 0 -164 -105.5t-56 -282.5t56 -282t164 -105z" />
    <glyph glyph-name="ampersand" unicode="&#x26;" horiz-adv-x="2540" 
d="M2440 158q28 -35 28.5 -70t-28 -61.5t-72.5 -26.5h-416q-49 0 -88 42l-127 137q-326 -219 -743 -219q-186 0 -346 50t-275.5 141.5t-181.5 226t-66 296.5q0 125 35 237.5t101 207t146.5 172.5t185.5 151q-135 201 -135 407q0 128 43 234.5t118 180.5t177.5 125.5
t219.5 75.5t245 24q307 0 587 -145q25 -13 33.5 -37t-2.5 -49l-111 -278q-13 -33 -42 -43t-60 7q-92 49 -170.5 74.5t-171.5 25.5q-134 0 -205 -58.5t-71 -160.5q0 -47 19.5 -97t57.5 -102t72.5 -93t84.5 -96q6 -6 9 -9.5t7.5 -8.5t8.5 -9l438 -484q94 183 139 404
q6 30 29 46t52 11l362 -57q30 -5 46.5 -27.5t10.5 -52.5q-74 -404 -288 -712zM1045 431q190 0 359 106l-528 568q-91 -85 -132.5 -170t-41.5 -185q0 -143 87 -231t256 -88z" />
    <glyph glyph-name="quotesingle" unicode="'" horiz-adv-x="857" 
d="M177 2441q-2 32 16.5 50.5t51.5 18.5h367q32 0 51.5 -18.5t16.5 -50.5l-57 -816q-5 -68 -69 -68h-257q-64 0 -69 68z" />
    <glyph glyph-name="parenleft" unicode="(" horiz-adv-x="1029" 
d="M553 943q0 -822 378 -1483q17 -29 8 -56.5t-39 -40.5l-147 -61q-20 -8 -40 -3t-33 23q-241 347 -372 762.5t-131 858.5q0 437 132 851t371 770q26 39 73 20l147 -61q30 -13 39 -40.5t-8 -56.5q-378 -661 -378 -1483z" />
    <glyph glyph-name="parenright" unicode=")" horiz-adv-x="1029" 
d="M349 2564q239 -356 371 -770t132 -851q0 -443 -131 -858.5t-372 -762.5q-13 -18 -33 -23t-40 3l-147 61q-30 13 -39 40.5t8 56.5q378 661 378 1483t-378 1483q-17 29 -8 56.5t39 40.5l147 61q47 19 73 -20z" />
    <glyph glyph-name="asterisk" unicode="*" horiz-adv-x="1733" 
d="M1582 2378q8 -27 -4 -50t-38 -32l-388 -126l241 -330q16 -23 11.5 -48.5t-26.5 -41.5l-180 -132q-22 -16 -48 -11.5t-42 27.5l-240 329l-240 -329q-17 -23 -43 -27.5t-48 11.5l-180 132q-23 16 -27 41.5t13 48.5l240 330l-388 126q-27 9 -38.5 32t-3.5 50l69 211
q8 26 31 38t50 3l389 -126v409q0 28 18.5 46t46.5 18h222q28 0 46 -18t18 -46v-409l389 126q26 9 49.5 -3t31.5 -38z" />
    <glyph glyph-name="plus" unicode="+" horiz-adv-x="2145" 
d="M1885 1309q37 0 57.5 -20.5t20.5 -56.5v-267q0 -36 -20.5 -56.5t-57.5 -20.5h-602v-602q0 -37 -20.5 -57.5t-56.5 -20.5h-267q-36 0 -56.5 20.5t-20.5 57.5v602h-602q-36 0 -56.5 20.5t-20.5 56.5v267q0 36 20.5 56.5t56.5 20.5h602v602q0 36 20.5 56.5t56.5 20.5h267
q36 0 56.5 -20.5t20.5 -56.5v-602h602z" />
    <glyph glyph-name="comma" unicode="," horiz-adv-x="975" 
d="M472 614q58 0 113.5 -20t104.5 -60.5t79 -111.5t30 -163q0 -142 -70 -304t-186 -298.5t-248 -213.5q-23 -11 -45 -6t-36 22l-38 44q-16 20 -15 46.5t21 47.5q39 39 60 62t50 62t42.5 79t13.5 83q0 54 -21.5 87t-70.5 74q-111 97 -111 237t95.5 236.5t231.5 96.5z" />
    <glyph glyph-name="hyphen" unicode="-" horiz-adv-x="1989" 
d="M260 716q-36 0 -56.5 20.5t-20.5 56.5v324q0 37 20.5 57.5t56.5 20.5h1469q36 0 56.5 -20.5t20.5 -57.5v-324q0 -36 -20.5 -56.5t-56.5 -20.5h-1469z" />
    <glyph glyph-name="period" unicode="." horiz-adv-x="1007" 
d="M503 -40q-135 0 -230.5 95.5t-95.5 231.5q0 135 95.5 231t230.5 96q136 0 231.5 -96t95.5 -231q0 -136 -95.5 -231.5t-231.5 -95.5z" />
    <glyph glyph-name="slash" unicode="/" horiz-adv-x="1615" 
d="M1256 2660q12 25 39.5 35t52.5 -2l194 -90q26 -13 35.5 -39.5t-2.5 -52.5l-1226 -2631q-12 -25 -39.5 -35t-51.5 2l-195 90q-26 13 -35.5 39.5t2.5 52.5z" />
    <glyph glyph-name="zero" unicode="0" horiz-adv-x="2459" 
d="M1229 2489q229 0 428 -88.5t344.5 -249t229 -401t83.5 -530.5t-83.5 -530.5t-229 -401t-344.5 -249t-428 -88.5t-427.5 88.5t-344 249t-229 401t-83.5 530.5t83.5 530.5t229 401t344 249t427.5 88.5zM1229 465q109 0 192 55t134.5 156t77.5 238t26 306t-26 306t-77.5 238
t-134.5 156t-192 55q-141 0 -239 -97t-144 -264t-46 -394t46 -394t144 -264t239 -97z" />
    <glyph glyph-name="one" unicode="1" horiz-adv-x="1913" 
d="M1417 2440q29 0 49 -20t20 -49v-2302q0 -29 -20 -49t-49 -20h-488q-28 0 -48.5 20.5t-20.5 48.5v1798l-374 -179q-28 -13 -54.5 -3.5t-39.5 37.5l-148 318q-13 27 -3.5 54t37.5 39l607 287q43 20 92 20h440z" />
    <glyph glyph-name="two" unicode="2" horiz-adv-x="2177" 
d="M2021 470q28 0 48.5 -20t20.5 -48v-333q0 -28 -20.5 -48.5t-48.5 -20.5h-1791q-36 0 -57 20.5t-21 56.5v118q0 70 33 94q298 224 516.5 411t353 326.5t214.5 260.5t109 209t29 176q0 161 -88.5 243t-262.5 82q-88 0 -169.5 -21t-156 -62.5t-130.5 -82.5t-128 -102
q-17 -14 -32.5 -17.5t-30 4t-24.5 17t-24 26.5l-195 228q-19 22 -19 43t10 35.5t32 34.5q411 389 976 389q214 0 381 -56t272.5 -157t160 -237t54.5 -301q0 -223 -98.5 -430t-290.5 -407t-503 -431h880z" />
    <glyph glyph-name="three" unicode="3" horiz-adv-x="2316" 
d="M1694 1260q476 -176 476 -597q0 -216 -124.5 -378t-352 -248t-528.5 -86q-142 0 -269 20t-227 54t-193 85t-164.5 106t-142.5 124q-23 22 -33 35.5t-10 34t19 43.5l201 239q20 24 34.5 35.5t34.5 12t42 -17.5q48 -38 60.5 -48t57.5 -44t63.5 -45t61.5 -37.5t69.5 -36
t71 -27t82 -23.5t85.5 -12t98 -6q191 0 310.5 71.5t119.5 199.5q0 47 -19 91.5t-64 87.5t-112 75.5t-170 54t-231 25.5q-31 1 -51 20.5t-20 48.5v231q0 29 20 48.5t51 21.5q119 5 213 25t154.5 50.5t100.5 71.5t57 84t17 91q0 122 -94.5 189.5t-268.5 67.5q-91 0 -172 -17.5
t-157.5 -55.5t-128.5 -70.5t-130 -87.5q-24 -16 -43.5 -16t-33.5 10.5t-35 35.5l-182 220q-19 23 -18.5 44t10.5 35t32 34q189 171 437 265.5t537 94.5q211 0 377.5 -51t271 -140t159 -206t54.5 -254q0 -188 -102.5 -336t-300.5 -242z" />
    <glyph glyph-name="four" unicode="4" horiz-adv-x="2405" 
d="M2241 938q36 0 56.5 -20.5t20.5 -56.5v-281q0 -36 -20.5 -56.5t-56.5 -20.5h-289v-434q0 -28 -20.5 -48.5t-48.5 -20.5h-445q-28 0 -48.5 20.5t-20.5 48.5v434h-1218q-37 0 -57.5 20.5t-20.5 56.5v218q0 19 13 35l1255 1561q36 46 92 46h450q28 0 48.5 -20.5t20.5 -48.5
v-1433h289zM721 938h648v802z" />
    <glyph glyph-name="five" unicode="5" horiz-adv-x="2330" 
d="M1285 1545q153 -3 286.5 -33.5t247 -93.5t194.5 -154t126.5 -220t45.5 -285q0 -239 -122 -422t-349 -284.5t-526 -101.5q-333 0 -570 93.5t-429 270.5q-23 21 -33 35.5t-9.5 35t19.5 42.5l200 240q21 24 35 35t34 11.5t43 -16.5q84 -64 142.5 -102t138.5 -77.5t169 -57.5
t193 -18q189 0 309.5 91.5t120.5 248.5q0 68 -25.5 127.5t-75.5 107t-134 75t-192 27.5q-257 0 -450 -96q-24 -11 -49 1l-297 165q-39 19 -34 62l126 1111q5 77 78 77h1441q28 0 48 -20.5t20 -48.5v-346q0 -28 -20 -48t-48 -20h-1018l-56 -480q161 68 420 68z" />
    <glyph glyph-name="six" unicode="6" horiz-adv-x="2297" 
d="M1371 1563q178 0 327 -63.5t247 -170.5t152.5 -246t54.5 -291q0 -181 -74 -338t-203 -267t-309.5 -173t-386.5 -63q-220 0 -409 71.5t-328 202.5t-218 328.5t-79 438.5q0 261 65 486.5t199.5 410.5t330.5 316.5t468 205t603 77.5q31 1 51.5 -19t20.5 -51v-329
q0 -30 -19.5 -49.5t-49.5 -20.5q-439 -11 -693 -179.5t-348 -528.5q213 252 598 252zM1175 404q89 0 161.5 31t118 83.5t70 118t24.5 137.5q0 99 -41 181.5t-128 136t-205 53.5q-177 0 -278.5 -109t-101.5 -262q0 -72 25 -137.5t71.5 -118t120 -83.5t163.5 -31z" />
    <glyph glyph-name="seven" unicode="7" horiz-adv-x="2288" 
d="M534 0q-50 0 -73.5 37.5t-1.5 83.5l865 1805h-1169q-28 0 -48 20.5t-20 48.5v376q0 28 20 48.5t48 20.5h1899q36 0 56.5 -20.5t20.5 -56.5v-101q0 -44 -31 -111l-997 -2116q-16 -35 -55 -35h-514z" />
    <glyph glyph-name="eight" unicode="8" horiz-adv-x="2359" 
d="M1755 1296q209 -80 334 -245t125 -382q0 -120 -41.5 -227.5t-126.5 -197.5t-207 -155t-291 -101.5t-369 -36.5q-249 0 -448 56t-326 154t-193.5 227.5t-66.5 280.5q0 217 125 382t334 245q-168 70 -274 211t-106 333q0 135 62.5 252.5t180 206t301 139.5t411.5 51
t412 -51t301.5 -139.5t180 -206t62.5 -252.5q0 -192 -106 -333t-274 -211zM1179 2067q-154 0 -252.5 -79t-98.5 -202q0 -124 98.5 -203t252.5 -79t253 79t99 203q0 123 -99 202t-253 79zM1179 417q186 0 293 91.5t107 235.5q0 145 -107 236.5t-293 91.5q-185 0 -292 -91.5
t-107 -236.5q0 -144 107 -235.5t292 -91.5z" />
    <glyph glyph-name="nine" unicode="9" horiz-adv-x="2297" 
d="M1117 2488q176 0 333 -45t285 -133.5t221.5 -212.5t144.5 -290t51 -359q0 -261 -65 -482.5t-199 -400.5t-330.5 -304.5t-468.5 -193t-603 -67.5q-32 0 -52 19.5t-20 50.5v330q0 29 19 48.5t50 20.5q219 5 386 43t298 115.5t218.5 201t135.5 297.5q-212 -249 -595 -249
q-143 0 -268 41t-218 114t-160 169.5t-101 210.5t-34 236q0 241 126.5 433.5t348.5 299.5t497 107zM1122 1295q119 0 207.5 53.5t130.5 136t42 180.5q0 72 -25 137.5t-71.5 118t-120 83.5t-163.5 31q-89 0 -161.5 -31t-118 -83.5t-70 -118t-24.5 -137.5q0 -98 41 -180.5
t128 -136t205 -53.5z" />
    <glyph glyph-name="colon" unicode=":" horiz-adv-x="1007" 
d="M503 1216q-135 0 -230.5 95.5t-95.5 231.5q0 135 95.5 231t230.5 96q136 0 231.5 -96t95.5 -231q0 -136 -95.5 -231.5t-231.5 -95.5zM503 -40q-135 0 -230.5 95.5t-95.5 231.5q0 135 95.5 231t230.5 96q136 0 231.5 -96t95.5 -231q0 -136 -95.5 -231.5t-231.5 -95.5z" />
    <glyph glyph-name="semicolon" unicode=";" horiz-adv-x="975" 
d="M471 1216q-135 0 -230.5 95.5t-95.5 231.5q0 135 95.5 231t230.5 96q136 0 231.5 -96t95.5 -231q0 -136 -95.5 -231.5t-231.5 -95.5zM472 614q58 0 113.5 -20t104.5 -60.5t79 -111.5t30 -163q0 -142 -70 -304t-186 -298.5t-248 -213.5q-23 -11 -45 -6t-36 22l-38 44
q-16 20 -15 46.5t21 47.5q39 39 60 62t50 62t42.5 79t13.5 83q0 54 -21.5 87t-70.5 74q-111 97 -111 237t95.5 236.5t231.5 96.5z" />
    <glyph glyph-name="less" unicode="&#x3c;" horiz-adv-x="2145" 
d="M1963 1615q0 -17 -5 -29t-18.5 -21.5t-23 -13.5t-31.5 -13l-1173 -486l1173 -486q22 -9 31.5 -13t23 -13.5t18.5 -21.5t5 -29v-328q0 -38 -22.5 -59t-55.5 -7l-1625 700q-77 31 -77 91v332q0 60 77 91l1625 700q33 14 55.5 -7t22.5 -59v-328z" />
    <glyph glyph-name="equal" unicode="=" horiz-adv-x="2145" 
d="M260 1290q-36 0 -56.5 20.5t-20.5 56.5v267q0 36 20.5 56.5t56.5 20.5h1625q37 0 57.5 -20.5t20.5 -56.5v-267q0 -36 -20.5 -56.5t-57.5 -20.5h-1625zM260 481q-36 0 -56.5 20.5t-20.5 56.5v267q0 36 20.5 56.5t56.5 20.5h1625q37 0 57.5 -20.5t20.5 -56.5v-267
q0 -36 -20.5 -56.5t-57.5 -20.5h-1625z" />
    <glyph glyph-name="greater" unicode="&#x3e;" horiz-adv-x="2145" 
d="M182 1615v328q0 38 22.5 59t55.5 7l1625 -700q77 -32 77 -91v-332q0 -60 -77 -91l-1625 -700q-33 -14 -55.5 7t-22.5 59v328q0 17 5 29t18.5 21.5t23 13.5t31.5 13l1173 486l-1173 486q-22 9 -31.5 13t-23 13.5t-18.5 21.5t-5 29z" />
    <glyph glyph-name="question" unicode="?" horiz-adv-x="1898" 
d="M1251 1745q0 265 -322 265q-79 0 -149.5 -16t-131 -48.5t-101.5 -61.5t-95 -73q-33 -25 -55.5 -18t-55.5 48l-181 218q-12 15 -15 28.5t7.5 28.5t17 21.5t25.5 24.5q363 327 861 327q242 0 422 -67.5t283 -208t103 -340.5q0 -112 -33 -206.5t-86 -162t-117.5 -128
t-130.5 -116.5t-121.5 -114t-93.5 -134t-44 -163q-2 -27 -17 -44.5t-46 -17.5l-322 1q-59 0 -59 87q0 82 25 159t65.5 138.5t89 120t97.5 113t89.5 107t65.5 112.5t25 120zM1016 -40q-133 0 -226.5 93.5t-93.5 226.5q0 132 93.5 226t226.5 94t226.5 -94t93.5 -226
q0 -133 -93.5 -226.5t-226.5 -93.5z" />
    <glyph glyph-name="at" unicode="@" horiz-adv-x="3323" 
d="M2202 -475q-5 -48 -53 -58q-297 -55 -585 -55q-285 0 -522 67.5t-405 187.5t-284.5 286.5t-172 364.5t-55.5 421q0 241 65 461.5t181.5 399.5t281 325.5t360.5 245.5t422.5 153t465.5 54q392 0 683.5 -141t452 -412.5t160.5 -643.5q0 -166 -35 -325.5t-103.5 -296.5
t-162.5 -241t-220.5 -163.5t-268.5 -59.5q-187 0 -305 68t-152 203q-95 -135 -224 -203t-271 -68q-111 0 -210 38.5t-178.5 114t-126 200.5t-46.5 285q0 170 44.5 323t129 275t200 211.5t263 137.5t313.5 48q239 0 509 -75q24 -7 36.5 -26t10.5 -43l-86 -984
q-9 -103 31.5 -152t113.5 -49q71 0 129.5 49t97 127.5t65 180.5t38 204.5t11.5 202.5q0 885 -925 885q-293 0 -543.5 -94t-428 -261.5t-278 -409t-100.5 -526.5q0 -172 34 -319t114 -279t202.5 -224t308.5 -146t423 -54q249 0 516 52q41 8 69 -16.5t25 -66.5zM1547 387
q154 0 275 140t144 404l40 471q-110 37 -220 37q-119 0 -215 -58.5t-155.5 -156.5t-90.5 -218t-31 -250q0 -186 71 -277.5t182 -91.5z" />
    <glyph glyph-name="A" unicode="A" horiz-adv-x="2707" 
d="M2665 91q17 -42 0.5 -66.5t-58.5 -24.5h-531q-64 0 -87 60l-168 416h-981l-175 -416q-25 -60 -89 -60h-484q-43 0 -60.5 25t0.5 66l1042 2314q23 58 89 58h403q65 0 89 -58zM1018 900h632l-310 766z" />
    <glyph glyph-name="B" unicode="B" horiz-adv-x="2562" 
d="M1862 1240q112 -15 209.5 -59t176 -114.5t124 -175.5t45.5 -231q0 -140 -61.5 -260t-177 -209t-294 -140t-399.5 -51h-827h-412q-28 0 -48.5 20t-20.5 49v2302q0 29 20.5 49t48.5 20h488h665q221 0 396 -48.5t286.5 -135.5t169.5 -203t58 -253q0 -226 -123.5 -367.5
t-323.5 -192.5zM1672 1717q0 36 -8 68t-33 69t-66 63t-113.5 43.5t-167.5 17.5h-481v-535h447q120 0 205.5 22.5t131 62.5t65.5 86.5t20 102.5zM1370 462q116 0 198.5 24t125 65.5t60.5 86t18 97.5q0 273 -424 273h-545v-546h567z" />
    <glyph glyph-name="C" unicode="C" horiz-adv-x="2687" 
d="M2515 679q72 -34 35 -107q-83 -161 -201 -282t-258.5 -194t-294 -109t-321.5 -36q-177 0 -344.5 39.5t-315 113.5t-271 186t-211.5 250t-137.5 312.5t-49.5 367.5t49.5 367.5t137.5 312.5t211.5 250t271 186t315 113.5t344.5 39.5q168 0 321.5 -36t294 -109t258.5 -194
t201 -282q37 -73 -35 -107l-369 -175q-66 -30 -106 37q-95 176 -241 264t-324 88q-150 0 -276 -55.5t-213.5 -154.5t-136.5 -239.5t-49 -305.5t49 -305.5t136.5 -239.5t213.5 -154.5t276 -55.5q178 0 324 88t241 264q40 67 106 37z" />
    <glyph glyph-name="D" unicode="D" horiz-adv-x="2741" 
d="M1275 2440q181 0 349 -36.5t314.5 -106t267.5 -175.5t207.5 -239t134 -302.5t47.5 -360.5t-47.5 -360.5t-134 -302.5t-207.5 -239t-267.5 -175.5t-314.5 -106t-349 -36.5h-780h-249q-28 0 -48.5 20t-20.5 49v2302q0 29 20.5 49t48.5 20h488h541zM1235 496q322 0 514 196
t192 528t-192 528t-514 196h-432v-1448h432z" />
    <glyph glyph-name="E" unicode="E" horiz-adv-x="2322" 
d="M2117 496q32 0 50.5 -18t18.5 -50v-359q0 -32 -18.5 -50.5t-50.5 -18.5h-1558h-313q-28 0 -48.5 20t-20.5 49v2302q0 29 20.5 49t48.5 20h488h1343q32 0 50.5 -18.5t18.5 -50.5v-359q0 -32 -18.5 -50t-50.5 -18h-1274v-472h1114q32 0 50.5 -18.5t18.5 -50.5v-324
q0 -32 -18.5 -50t-50.5 -18h-1114v-515h1314z" />
    <glyph glyph-name="F" unicode="F" horiz-adv-x="2222" 
d="M2037 2440q32 0 50.5 -18.5t18.5 -50.5v-359q0 -32 -18.5 -50t-50.5 -18h-1234v-592h1154q32 0 50.5 -18.5t18.5 -50.5v-341q0 -32 -18.5 -50.5t-50.5 -18.5h-1154v-804q0 -28 -20.5 -48.5t-48.5 -20.5h-488q-28 0 -48.5 20t-20.5 49v2302q0 29 20.5 49t48.5 20h488h1303
z" />
    <glyph glyph-name="G" unicode="G" horiz-adv-x="2753" 
d="M2494 1106q39 0 60.5 -20.5t21.5 -56.5v-746q-208 -148 -488 -240t-613 -92q-177 0 -344.5 39.5t-315 113.5t-271 186t-211.5 250t-137.5 312.5t-49.5 367.5t49.5 367.5t137.5 312.5t211.5 250t271 186t315 113.5t344.5 39.5q167 0 316.5 -31.5t288 -97.5t257 -177
t207.5 -262q19 -36 9 -63t-44 -43l-369 -176q-64 -30 -106 38q-105 157 -244 227.5t-315 70.5q-150 0 -276 -55.5t-213.5 -154.5t-136.5 -239.5t-49 -305.5t49 -305.5t136.5 -239.5t213.5 -154.5t276 -55.5q300 0 533 102v462q0 36 20.5 56.5t56.5 20.5h409z" />
    <glyph glyph-name="H" unicode="H" horiz-adv-x="2767" 
d="M2522 2440q28 0 48.5 -20.5t20.5 -48.5v-2302q0 -28 -20.5 -48.5t-48.5 -20.5h-488q-28 0 -48.5 20t-20.5 49v924h-1162v-924q0 -28 -20.5 -48.5t-48.5 -20.5h-488q-28 0 -48.5 20t-20.5 49v2302q0 29 20.5 49t48.5 20h488q28 0 48.5 -20.5t20.5 -48.5v-882h1162v882
q0 29 20.5 49t48.5 20h488z" />
    <glyph glyph-name="I" unicode="I" horiz-adv-x="979" 
d="M177 2371q0 28 20 48.5t48 20.5h489q28 0 48 -20.5t20 -48.5v-2302q0 -28 -20 -48.5t-48 -20.5h-489q-28 0 -48 20.5t-20 48.5v2302z" />
    <glyph glyph-name="J" unicode="J" horiz-adv-x="2047" 
d="M1793 2440q37 0 57.5 -20.5t20.5 -56.5v-1546q0 -201 -74 -366.5t-202.5 -273.5t-302 -167t-373.5 -59q-162 0 -307 40.5t-249 106.5t-176.5 141t-111.5 154q-36 71 35 104l353 165q35 15 57 7t47 -42q26 -40 52 -68.5t65.5 -58.5t94 -45.5t121.5 -15.5q172 0 263 99.5
t91 301.5v1523q0 36 20.5 56.5t56.5 20.5h462z" />
    <glyph glyph-name="K" unicode="K" horiz-adv-x="2672" 
d="M734 2440q28 0 48.5 -20.5t20.5 -48.5v-2302q0 -28 -20.5 -48.5t-48.5 -20.5h-488q-28 0 -48.5 20t-20.5 49v2302q0 29 20.5 49t48.5 20h488zM2596 93q29 -38 14 -65.5t-63 -27.5h-556q-60 0 -93 46l-934 1194l932 1154q33 46 94 46h517q49 0 64 -27t-15 -66l-884 -1078z
" />
    <glyph glyph-name="L" unicode="L" horiz-adv-x="2123" 
d="M1992 514q32 0 50.5 -18.5t18.5 -50.5v-376q0 -32 -18.5 -50.5t-50.5 -18.5h-1435h-311q-28 0 -48.5 20t-20.5 49v2302q0 29 20.5 49t48.5 20h488q28 0 48.5 -20.5t20.5 -48.5v-1857h1189z" />
    <glyph glyph-name="M" unicode="M" horiz-adv-x="3149" 
d="M2579 2417q37 46 96 46h220q37 0 57.5 -21t20.5 -57v-2308q0 -36 -20.5 -56.5t-57.5 -20.5h-470q-37 0 -57.5 20.5t-20.5 56.5v1186l-718 -932q-24 -30 -54.5 -29.5t-54.5 29.5l-718 932v-1186q0 -36 -20.5 -56.5t-56.5 -20.5h-471q-36 0 -56.5 20.5t-20.5 56.5v2308
q0 36 20.5 57t56.5 21h205q56 0 95 -46l1021 -1272z" />
    <glyph glyph-name="N" unicode="N" horiz-adv-x="2789" 
d="M2535 2440q37 0 57.5 -20.5t20.5 -56.5v-2308q0 -36 -20.5 -57t-57.5 -21h-127q-60 0 -96 34l-1510 1354v-1288q0 -36 -20.5 -56.5t-56.5 -20.5h-471q-36 0 -56.5 20.5t-20.5 56.5v2308q0 36 20.5 57t56.5 21h127q59 0 97 -34l1509 -1357v1291q0 36 20.5 56.5t57.5 20.5
h470z" />
    <glyph glyph-name="O" unicode="O" horiz-adv-x="2949" 
d="M1475 2489q177 0 344.5 -39.5t315 -113.5t271 -186t211.5 -250t137.5 -312.5t49.5 -367.5t-49.5 -367.5t-137.5 -312.5t-211.5 -250t-271 -186t-315 -113.5t-344.5 -39.5t-345 39.5t-315.5 113.5t-271 186t-211.5 250t-137.5 312.5t-49.5 367.5t49.5 367.5t137.5 312.5
t211.5 250t271 186t315.5 113.5t345 39.5zM1475 465q199 0 353 95.5t238 267t84 392.5t-84 392.5t-238 267t-353 95.5q-150 0 -276 -55.5t-213.5 -154.5t-136.5 -239.5t-49 -305.5t49 -305.5t136.5 -239.5t213.5 -154.5t276 -55.5z" />
    <glyph glyph-name="P" unicode="P" horiz-adv-x="2391" 
d="M1321 2440q191 0 352 -42t278.5 -117.5t200 -180t123 -230t40.5 -265.5t-40.5 -265t-123 -229.5t-200 -180t-278.5 -117.5t-352 -42h-518v-702q0 -28 -20.5 -48.5t-48.5 -20.5h-488q-28 0 -48.5 20t-20.5 49v2302q0 29 20.5 49t48.5 20h488h587zM1206 1249
q126 0 218.5 28.5t144.5 79t76.5 112t24.5 136.5q0 59 -14.5 110.5t-49 97.5t-87 78t-132.5 51t-181 19h-403v-712h403z" />
    <glyph glyph-name="Q" unicode="Q" horiz-adv-x="2949" 
d="M2525 -142q65 -2 65 -67v-359q0 -37 -18 -52.5t-58 -15.5q-279 0 -498 160t-308 445q-114 -18 -233 -18q-177 0 -345 39.5t-315.5 113.5t-271 186t-211.5 250t-137.5 312.5t-49.5 367.5t49.5 367.5t137.5 312.5t211.5 250t271 186t315.5 113.5t345 39.5t344.5 -39.5
t315 -113.5t271 -186t211.5 -250t137.5 -312.5t49.5 -367.5q0 -388 -187 -679.5t-502 -445.5q133 -232 410 -237zM800 1220q0 -165 49 -305.5t136.5 -239.5t213.5 -154.5t276 -55.5q199 0 353 95.5t238 267t84 392.5t-84 392.5t-238 267t-353 95.5q-150 0 -276 -55.5
t-213.5 -154.5t-136.5 -239.5t-49 -305.5z" />
    <glyph glyph-name="R" unicode="R" horiz-adv-x="2439" 
d="M2290 146q32 -55 5.5 -100.5t-88.5 -45.5h-478q-40 0 -59 36l-448 768h-419v-735q0 -28 -20.5 -48.5t-48.5 -20.5h-488q-28 0 -48.5 20t-20.5 49v2302q0 29 20.5 49t48.5 20h488h555q238 0 428.5 -62t313.5 -172.5t188 -259t65 -324.5q0 -239 -118 -426t-341 -288z
M803 1961v-679h363q250 0 361 88t111 252t-111 251.5t-361 87.5h-363z" />
    <glyph glyph-name="S" unicode="S" horiz-adv-x="2297" 
d="M840 1793q0 -59 45 -105t120.5 -78t174 -61t207.5 -61.5t217.5 -71.5t207 -98.5t174 -135t120.5 -188t45 -251.5q0 -158 -57.5 -289t-156.5 -221.5t-235 -152.5t-291 -91t-326 -29q-474 0 -897 235q-64 38 -34 104l142 311q31 69 99 37q194 -97 278 -128q191 -71 407 -71
q196 0 302 55t106 167q0 68 -43.5 120t-117.5 87.5t-169.5 66t-201 62.5t-211 69.5t-201 94t-169.5 129.5t-117.5 182.5t-43.5 246.5q0 165 66.5 304.5t191 241t312.5 158.5t421 57q467 0 839 -210q66 -36 35 -102l-136 -296q-33 -72 -112 -30q-67 36 -107.5 55.5t-125 53.5
t-175 51t-184.5 17q-105 0 -185.5 -20.5t-125 -55.5t-66.5 -75t-22 -84z" />
    <glyph glyph-name="T" unicode="T" horiz-adv-x="2497" 
d="M2312 2440q28 0 48.5 -20.5t20.5 -48.5v-376q0 -28 -20.5 -48.5t-48.5 -20.5h-750v-1857q0 -28 -20.5 -48.5t-48.5 -20.5h-488q-29 0 -49 20t-20 49v1857h-751q-28 0 -48 20.5t-20 48.5v376q0 28 20 48.5t48 20.5h1308h819z" />
    <glyph glyph-name="U" unicode="U" horiz-adv-x="2727" 
d="M2482 2440q28 0 48 -20.5t20 -48.5v-1331q0 -217 -59 -395.5t-165 -304.5t-255 -212.5t-326.5 -127t-381.5 -40.5t-381.5 40.5t-326 127t-254.5 212.5t-165 304.5t-59 395.5v1331q0 28 20 48.5t48 20.5h489q28 0 48 -20.5t20 -48.5v-1199q0 -334 137 -516t424 -182
q288 0 425 182t137 516v1199q0 28 20 48.5t48 20.5h489z" />
    <glyph glyph-name="V" unicode="V" horiz-adv-x="2655" 
d="M2552 2440q43 0 60.5 -24.5t-0.5 -66.5l-1051 -2314q-27 -58 -89 -58h-288q-63 0 -89 58l-1062 2314q-18 42 -1.5 66.5t59.5 24.5h534q64 0 87 -60l640 -1532l628 1532q25 60 89 60h483z" />
    <glyph glyph-name="W" unicode="W" horiz-adv-x="3621" 
d="M3522 2440q42 0 57.5 -24t0.5 -67l-800 -2314q-20 -58 -88 -58h-288q-68 0 -89 58l-510 1380l-509 -1380q-21 -58 -89 -58h-288q-70 0 -88 58l-800 2314q-15 43 0.5 67t56.5 24h513q69 0 87 -60l438 -1406l461 1246q10 28 33.5 44t55.5 16h269q67 0 89 -60l462 -1246
l446 1406q19 60 87 60h493z" />
    <glyph glyph-name="X" unicode="X" horiz-adv-x="2682" 
d="M2582 93q29 -39 15.5 -66t-61.5 -27h-567q-58 0 -93 46l-573 748l-524 -748q-30 -46 -93 -46h-521q-48 0 -62.5 27.5t14.5 67.5l846 1142l-850 1110q-29 39 -15 66t62 27h567q58 0 93 -46l553 -722l532 722q34 46 93 46h521q48 0 61.5 -27.5t-15.5 -67.5l-857 -1111z" />
    <glyph glyph-name="Y" unicode="Y" horiz-adv-x="2580" 
d="M2474 2440q44 0 63 -27t-3 -64l-932 -1539v-741q0 -29 -20 -49t-49 -20h-488q-28 0 -48.5 20.5t-20.5 48.5v733l-941 1547q-22 37 -3.5 64t61.5 27h538q54 0 87 -60l593 -1041l583 1041q30 60 89 60h491z" />
    <glyph glyph-name="Z" unicode="Z" horiz-adv-x="2551" 
d="M164 0q-36 0 -56.5 20.5t-20.5 56.5v118q0 54 32 94l1305 1637h-1169q-28 0 -48 20.5t-20 48.5v376q0 28 20 48.5t48 20.5h2050q37 0 57.5 -20.5t20.5 -56.5v-118q0 -56 -31 -94l-1298 -1637h1303q28 0 48 -20.5t20 -48.5v-376q0 -28 -20 -48.5t-48 -20.5h-2193z" />
    <glyph glyph-name="bracketleft" unicode="[" horiz-adv-x="1144" 
d="M980 2300h-451v-2714h451q36 0 57 -20.5t21 -56.5v-149q0 -36 -21 -56.5t-57 -20.5h-656h-79q-28 0 -48 20t-20 48v3184q0 28 20 48t48 20h215h520q36 0 57 -20.5t21 -56.5v-149q0 -36 -21 -56.5t-57 -20.5z" />
    <glyph glyph-name="backslash" unicode="\" horiz-adv-x="1616" 
d="M349 2660l1226 -2631q12 -26 2.5 -52.5t-35.5 -39.5l-195 -90q-24 -12 -51.5 -2t-39.5 35l-1226 2631q-12 26 -2.5 52.5t35.5 39.5l194 90q25 12 52.5 2t39.5 -35z" />
    <glyph glyph-name="bracketright" unicode="]" horiz-adv-x="1144" 
d="M899 2603q28 0 48 -20t20 -48v-3184q0 -28 -20 -48t-48 -20h-215h-520q-36 0 -57 20.5t-21 56.5v149q0 36 21 56.5t57 20.5h451v2714h-451q-36 0 -57 20.5t-21 56.5v149q0 36 21 56.5t57 20.5h656h79z" />
    <glyph glyph-name="asciicircum" unicode="^" horiz-adv-x="1798" 
d="M1745 1878q34 -49 10 -95t-83 -46h-257q-32 0 -51 28l-470 711l-471 -711q-17 -28 -51 -28h-256q-59 0 -83.5 46t9.5 95l632 896q17 26 49 26h342q31 0 48 -26z" />
    <glyph glyph-name="underscore" unicode="_" horiz-adv-x="1624" 
d="M77 -422q-36 0 -56.5 21t-20.5 57v267q0 36 20.5 56.5t56.5 20.5h1469q36 0 57 -20.5t21 -56.5v-267q0 -36 -21 -57t-57 -21h-1469z" />
    <glyph glyph-name="grave" unicode="`" horiz-adv-x="1033" 
d="M855 2024l-783 349q-31 13 -40 44t6 61l134 256q15 28 45 38t60 -6l728 -445q28 -17 38.5 -49t-2.5 -59l-79 -155q-15 -28 -45 -37.5t-62 3.5z" />
    <glyph glyph-name="a" unicode="a" horiz-adv-x="1989" 
d="M1897 143q28 -81 -48 -103l-332 -93q-52 -16 -87 18q-96 89 -156 239q-98 -118 -241 -185.5t-321 -67.5q-142 0 -259 45t-192 121t-115.5 174.5t-40.5 207.5q0 152 73 276.5t215.5 208t353 109t484.5 -21.5v23q0 177 -76 245.5t-257 68.5q-117 0 -219 -23t-222 -71
q-71 -26 -103 40l-119 257q-33 71 37 102q151 76 348 120.5t398 44.5q212 0 365.5 -50.5t246.5 -148.5t137 -233t44 -313v-507q0 -108 12 -195.5t27 -140t47 -147.5zM892 367q140 0 239.5 97.5t99.5 236.5v48q-156 33 -264.5 33t-176 -32t-98 -79t-30.5 -108q0 -92 66 -144
t164 -52z" />
    <glyph glyph-name="b" unicode="b" horiz-adv-x="2304" 
d="M1296 1878q190 0 353.5 -71t280 -196.5t183 -305t66.5 -390.5t-66.5 -390.5t-183 -305t-280 -196.5t-353.5 -71q-340 0 -523 258v-141q0 -32 -18 -50.5t-50 -18.5h-460q-32 0 -50.5 18.5t-18.5 50.5v2422q0 32 18.5 50.5t50.5 18.5h460q32 0 50 -18.5t18 -50.5v-871
q183 258 523 258zM1152 439q174 0 292 127t118 349t-118 349t-292 127q-179 0 -294.5 -129t-115.5 -347t115.5 -347t294.5 -129z" />
    <glyph glyph-name="c" unicode="c" horiz-adv-x="2099" 
d="M1936 497q39 -19 46 -45.5t-11 -58.5q-29 -59 -76 -117t-122 -118t-165.5 -105t-213.5 -73.5t-259 -28.5q-204 0 -386.5 66t-321.5 187t-220.5 305t-81.5 406q0 178 52.5 333t146.5 269.5t220.5 196.5t277 123t313.5 41q136 0 259 -28.5t213 -73.5t165 -104.5t122 -117.5
t77 -117q18 -33 11 -59t-46 -45l-340 -166q-25 -15 -46 -10.5t-32.5 14t-26.5 31.5q-27 41 -53 70.5t-64.5 58.5t-90 44.5t-114.5 15.5q-197 0 -312 -124.5t-115 -351.5t115 -351.5t312 -124.5q63 0 114.5 15.5t90 44.5t64.5 58.5t53 69.5q15 22 26.5 32t32.5 14t46 -11z
" />
    <glyph glyph-name="d" unicode="d" horiz-adv-x="2304" 
d="M2059 2560q32 0 50.5 -18.5t18.5 -50.5v-2422q0 -32 -18.5 -50.5t-50.5 -18.5h-460q-32 0 -50 18.5t-18 50.5v141q-183 -258 -523 -258q-190 0 -353.5 71t-280 196.5t-183 305t-66.5 390.5t66.5 390.5t183 305t280 196.5t353.5 71q340 0 523 -258v871q0 32 18 50.5
t50 18.5h460zM1152 439q179 0 294.5 129t115.5 347t-115.5 347t-294.5 129q-174 0 -292 -127t-118 -349t118 -349t292 -127z" />
    <glyph glyph-name="e" unicode="e" horiz-adv-x="2207" 
d="M1931 473q71 -33 35 -104q-95 -188 -324 -303t-519 -115q-208 0 -390 66t-317 187t-213 304.5t-78 406.5t79 406.5t215 304t318.5 186.5t391.5 66q158 0 297 -36t260.5 -116t208.5 -199.5t137 -295.5t50 -394h-1377q13 -106 54.5 -189t102.5 -133t132.5 -76t148.5 -26
q253 0 363 181q23 35 45 43t59 -8zM1122 1463q-135 0 -240 -81.5t-152 -229.5h746q-18 86 -54.5 148t-85 96.5t-101.5 50.5t-113 16z" />
    <glyph glyph-name="f" unicode="f" horiz-adv-x="1550" 
d="M1181 2233q-248 0 -248 -339v-65h504q36 0 56.5 -20.5t20.5 -56.5v-324q0 -36 -20.5 -56.5t-56.5 -20.5h-504v-1274q0 -36 -21 -56.5t-57 -20.5h-442q-36 0 -56.5 20.5t-20.5 56.5v1274h-180q-36 0 -57 20.5t-21 56.5v324q0 36 21 56.5t57 20.5h180v140q0 166 55.5 302.5
t152 225.5t227 137.5t281.5 48.5q161 0 306.5 -47t229.5 -110q31 -23 37.5 -43t-9.5 -64l-108 -217q-31 -68 -106 -33q-124 64 -221 64z" />
    <glyph glyph-name="g" unicode="g" horiz-adv-x="2190" 
d="M2081 1970q30 0 43.5 -12t13.5 -40v-361q0 -51 -50 -51q-126 0 -202 -78q25 -78 25 -159q0 -129 -60 -241t-167 -193.5t-264 -128.5t-342 -47h-273q-86 0 -128.5 -30.5t-42.5 -83.5t42.5 -83.5t128.5 -30.5h425q420 0 644 -151t224 -424q0 -102 -32 -191.5t-105 -169.5
t-181 -137.5t-269.5 -90.5t-362.5 -33q-238 0 -422 40t-298 112t-171.5 167.5t-57.5 210.5q0 213 192 348q-116 52 -180 144.5t-64 213.5q0 130 75.5 230t221.5 157q-97 81 -148.5 186.5t-51.5 225.5q0 128 60 240t167 193.5t264 128.5t343 47q331 0 556 -142
q82 114 197.5 174t249.5 60zM1078 1035q124 0 209 64t85 170t-85 169.5t-209 63.5q-125 0 -209.5 -63.5t-84.5 -169.5t84.5 -170t209.5 -64zM1564 -191q0 95 -104.5 153t-311.5 58q-206 0 -311 -58.5t-105 -152.5q0 -101 103.5 -157t312.5 -56q210 0 313 56t103 157z" />
    <glyph glyph-name="h" unicode="h" 
d="M1420 1869q167 0 291.5 -47.5t201.5 -138t114.5 -215t37.5 -283.5v-1116q0 -32 -18.5 -50.5t-50.5 -18.5h-460q-32 0 -50 18.5t-18 50.5v908q0 211 -75 303.5t-226 92.5q-166 0 -274.5 -111t-118.5 -308v-885q0 -32 -18.5 -50.5t-50.5 -18.5h-460q-32 0 -50 18.5
t-18 50.5v2422q0 32 18 50.5t50 18.5h460q32 0 50.5 -18.5t18.5 -50.5v-940q100 149 264 233.5t382 84.5z" />
    <glyph glyph-name="i" unicode="i" horiz-adv-x="950" 
d="M476 2025q-135 0 -230.5 95.5t-95.5 231.5q0 135 95.5 231t230.5 96q136 0 231.5 -96t95.5 -231q0 -136 -95.5 -231.5t-231.5 -95.5zM177 1761q0 32 18 50t50 18h460q32 0 50.5 -18t18.5 -50v-1692q0 -32 -18.5 -50.5t-50.5 -18.5h-460q-32 0 -50 18.5t-18 50.5v1692z
" />
    <glyph glyph-name="j" unicode="j" horiz-adv-x="952" 
d="M476 2025q-135 0 -230.5 95.5t-95.5 231.5q0 135 95.5 231t230.5 96q136 0 231.5 -96t95.5 -231q0 -136 -95.5 -231.5t-231.5 -95.5zM706 1829q32 0 50 -18t18 -50v-1679q0 -183 -49 -330t-147.5 -256t-256.5 -168t-366 -59q-34 0 -55 18t-21 53v304q0 54 63 69
q29 7 46.5 12.5t45 19t45 30t38 45.5t32.5 66t20 92t8 122v1661q0 32 18.5 50t50.5 18h460z" />
    <glyph glyph-name="k" unicode="k" horiz-adv-x="2154" 
d="M177 2491q0 32 18 50.5t50 18.5h460q32 0 50.5 -18.5t18.5 -50.5v-2422q0 -32 -18.5 -50.5t-50.5 -18.5h-460q-32 0 -50 18.5t-18 50.5v2422zM1522 0q-64 0 -93 50l-593 927l551 805q29 47 95 47h482q47 0 59 -28.5t-13 -63.5l-533 -740l589 -904q26 -41 13 -67t-60 -26
h-497z" />
    <glyph glyph-name="l" unicode="l" horiz-adv-x="950" 
d="M177 2491q0 32 18 50.5t50 18.5h460q32 0 50.5 -18.5t18.5 -50.5v-2422q0 -32 -18.5 -50.5t-50.5 -18.5h-460q-32 0 -50 18.5t-18 50.5v2422z" />
    <glyph glyph-name="m" unicode="m" horiz-adv-x="3408" 
d="M2616 1869q208 0 347 -86.5t203.5 -241t64.5 -373.5v-1091q0 -36 -20.5 -56.5t-56.5 -20.5h-443q-36 0 -56.5 20.5t-20.5 56.5v903q0 393 -273 393q-70 0 -134 -30.5t-114.5 -87.5t-80.5 -147t-30 -200v-831q0 -36 -20.5 -56.5t-56.5 -20.5h-442q-37 0 -57.5 20.5
t-20.5 56.5v903q0 393 -273 393q-70 0 -133.5 -30.5t-114 -87.5t-80.5 -147t-30 -200v-839q0 -32 -18.5 -50.5t-50.5 -18.5h-459q-32 0 -50.5 18.5t-18.5 50.5v1692q0 32 18.5 50t50.5 18h459q32 0 50.5 -18t18.5 -50v-212q227 320 612 320q227 0 369.5 -99.5t202.5 -286.5
q117 197 289.5 291.5t368.5 94.5z" />
    <glyph glyph-name="n" unicode="n" 
d="M1420 1869q167 0 291.5 -47.5t201.5 -138t114.5 -215t37.5 -283.5v-1116q0 -32 -18.5 -50.5t-50.5 -18.5h-460q-32 0 -50 18.5t-18 50.5v908q0 211 -75 303.5t-226 92.5q-166 0 -274.5 -111t-118.5 -308v-885q0 -32 -18.5 -50.5t-50.5 -18.5h-459q-32 0 -50.5 18.5
t-18.5 50.5v1692q0 32 18.5 50t50.5 18h459q32 0 50.5 -18t18.5 -50v-210q100 149 264 233.5t382 84.5z" />
    <glyph glyph-name="o" unicode="o" horiz-adv-x="2304" 
d="M1152 1878q167 0 320 -41t281.5 -123t223.5 -196.5t148.5 -269.5t53.5 -333q0 -222 -82.5 -406t-223 -305t-326.5 -187t-395 -66t-395 66t-326.5 187t-223 305t-82.5 406q0 178 53.5 333t148.5 269.5t223.5 196.5t281.5 123t320 41zM1152 439q174 0 292 127t118 349
t-118 349t-292 127t-292 -127t-118 -349t118 -349t292 -127z" />
    <glyph glyph-name="p" unicode="p" horiz-adv-x="2304" 
d="M1296 1877q190 0 353.5 -71t280 -196.5t183 -305t66.5 -390.5t-66.5 -390.5t-183 -305t-280 -196.5t-353.5 -71q-340 0 -523 258v-871q0 -32 -18 -50.5t-50 -18.5h-460q-32 0 -50.5 18.5t-18.5 50.5v2422q0 32 18.5 50.5t50.5 18.5h460q32 0 50 -18.5t18 -50.5v-141
q183 258 523 258zM1152 438q174 0 292 127t118 349t-118 349t-292 127q-179 0 -294.5 -129t-115.5 -347t115.5 -347t294.5 -129z" />
    <glyph glyph-name="q" unicode="q" horiz-adv-x="2304" 
d="M2059 1825q32 0 50.5 -18.5t18.5 -50.5v-2422q0 -32 -18.5 -50.5t-50.5 -18.5h-460q-32 0 -50 18.5t-18 50.5v871q-183 -258 -523 -258q-190 0 -353.5 71t-280 196.5t-183 305t-66.5 390.5t66.5 390.5t183 305t280 196.5t353.5 71q340 0 523 -258v141q0 32 18 50.5
t50 18.5h460zM1152 434q179 0 294.5 129t115.5 347t-115.5 347t-294.5 129q-174 0 -292 -127t-118 -349t118 -349t292 -127z" />
    <glyph glyph-name="r" unicode="r" horiz-adv-x="1413" 
d="M1266 1864q40 0 58 -16t18 -53v-489q0 -31 -16 -45.5t-50 -21.5q-51 -10 -91.5 -20.5t-95 -31.5t-96 -47t-84.5 -67t-71 -91t-46 -121t-18 -155v-637q0 -32 -18.5 -50.5t-50.5 -18.5h-459q-32 0 -50.5 18.5t-18.5 50.5v1692q0 32 18.5 50t50.5 18h459q32 0 50.5 -18
t18.5 -50v-292q41 94 104 171.5t130.5 125t134.5 73t123 25.5z" />
    <glyph glyph-name="s" unicode="s" horiz-adv-x="1895" 
d="M781 1329q0 -42 34 -74.5t91 -55.5t131.5 -44.5t156.5 -45.5t163.5 -53.5t156 -74.5t131.5 -102t91 -142t34 -190q0 -119 -43.5 -218t-121 -168t-184 -117t-232 -70.5t-266.5 -22.5q-215 0 -415.5 50t-335.5 136q-66 41 -37 102l117 255q17 38 46 48t59 -7
q102 -53 166 -81.5t161.5 -52.5t197.5 -24q117 0 185 31t68 94q0 41 -33 73.5t-88.5 56t-127.5 45t-151.5 46t-159 54t-151.5 74.5t-127.5 101.5t-88.5 141t-33 187.5q0 183 99.5 318.5t281 207t423.5 71.5q195 0 368.5 -45t300.5 -120q65 -39 37 -102l-110 -238
q-32 -74 -100 -37q-228 130 -446 130q-117 0 -182.5 -37t-65.5 -100z" />
    <glyph glyph-name="t" unicode="t" horiz-adv-x="1757" 
d="M1661 215q30 -66 -31 -104q-268 -160 -582 -160q-319 0 -493 181t-174 499v720h-225q-36 0 -57 20.5t-21 56.5v324q0 36 21 56.5t57 20.5h225v274q0 63 77 86l430 126q44 13 67 -2t23 -53v-431h521q36 0 57 -20.5t21 -56.5v-324q0 -36 -21 -56.5t-57 -20.5h-521v-593
q0 -165 49.5 -246.5t175.5 -81.5q105 0 234 72q73 40 106 -33z" />
    <glyph glyph-name="u" unicode="u" 
d="M1996 1829q32 0 50.5 -18t18.5 -50v-1692q0 -32 -18.5 -50.5t-50.5 -18.5h-459q-32 0 -50.5 18.5t-18.5 50.5v211q-100 -150 -264 -235t-383 -85q-167 0 -291.5 47.5t-201.5 138t-114.5 215t-37.5 283.5v1116q0 32 18.5 50.5t50.5 18.5h460q32 0 50 -18.5t18 -50.5v-908
q0 -211 75 -303.5t226 -92.5q175 0 284.5 121.5t109.5 336.5v847q0 32 18.5 50t50.5 18h459z" />
    <glyph glyph-name="v" unicode="v" horiz-adv-x="2135" 
d="M2028 1829q55 0 82 -42t2 -92l-836 -1676q-20 -42 -68 -42h-278q-48 0 -68 42l-840 1676q-24 49 2.5 91.5t83.5 42.5h500q46 0 64 -44l418 -963l407 963q16 44 66 44h465z" />
    <glyph glyph-name="w" unicode="w" horiz-adv-x="2969" 
d="M2866 1829q52 0 77.5 -39.5t6.5 -89.5l-644 -1679q-18 -44 -67 -44h-225q-50 0 -68 42l-461 938l-462 -937q-10 -24 -25.5 -33.5t-41.5 -9.5h-225q-49 0 -67 44l-645 1679q-19 50 6.5 89.5t78.5 39.5h468q22 0 40 -13t24 -33l303 -890l360 766q18 47 70 47h231
q53 0 71 -47l360 -766l308 890q6 20 23.5 33t39.5 13h464z" />
    <glyph glyph-name="x" unicode="x" horiz-adv-x="2165" 
d="M2067 95q30 -39 15.5 -67t-62.5 -28h-547q-58 0 -93 46l-338 447l-321 -445q-34 -48 -93 -48h-491q-48 0 -61 28t17 67l635 813l-627 829q-30 40 -16 66t62 26h530q58 0 92 -46l332 -431l313 429q34 48 93 48h506q48 0 62.5 -27.5t-15.5 -66.5l-638 -801z" />
    <glyph glyph-name="y" unicode="y" horiz-adv-x="2100" 
d="M1993 1829q54 0 81.5 -41.5t3.5 -92.5l-748 -1551q-79 -164 -148 -283t-148.5 -221.5t-162.5 -169t-185 -113.5t-220 -67.5t-265 -20.5q-34 0 -55 18t-21 53v304q0 62 63 69q122 14 211 66t178.5 167.5t200.5 324.5l-754 1424q-27 51 0.5 92.5t83.5 41.5h490q43 0 64 -44
l422 -869l392 869q18 44 66 44h451z" />
    <glyph glyph-name="z" unicode="z" horiz-adv-x="2085" 
d="M164 0q-36 0 -56.5 19.5t-20.5 53.5v27q0 53 31 94l856 1148h-701q-29 0 -49 20t-20 49v350q0 28 20.5 48t48.5 20h1567q37 0 57.5 -18t20.5 -52v-29q0 -49 -32 -95l-877 -1165h843q28 0 48 -20t20 -48v-333q0 -28 -20 -48.5t-48 -20.5h-1688z" />
    <glyph glyph-name="braceleft" unicode="{" horiz-adv-x="971" 
d="M830 2322q-98 -19 -135.5 -78t-37.5 -161q0 -69 42 -313t42 -354q0 -201 -73 -316.5t-222 -156.5q149 -41 222 -156.5t73 -316.5q0 -110 -42 -354t-42 -313q0 -102 37.5 -161t135.5 -78q24 -5 39.5 -21t15.5 -40v-154q0 -29 -19.5 -47.5t-47.5 -17.5q-262 9 -396.5 125
t-134.5 367q0 92 42 334.5t42 340.5q0 178 -59 263t-174 108q-51 12 -51 60v122q0 23 14 39.5t37 20.5q115 21 174 107t59 264q0 98 -42 340.5t-42 334.5q0 251 135 368t396 124q29 1 48 -18t19 -47v-154q0 -24 -15.5 -40t-39.5 -21z" />
    <glyph glyph-name="bar" unicode="|" horiz-adv-x="705" 
d="M177 2871q0 28 20 48.5t48 20.5h215q28 0 48.5 -20.5t20.5 -48.5v-3302q0 -28 -20.5 -48.5t-48.5 -20.5h-215q-28 0 -48 20.5t-20 48.5v3302z" />
    <glyph glyph-name="braceright" unicode="}" horiz-adv-x="971" 
d="M833 1064q23 -4 37 -20.5t14 -39.5v-122q0 -48 -51 -60q-115 -23 -174 -108t-59 -263q0 -98 42 -340.5t42 -334.5q0 -251 -134.5 -367t-396.5 -125q-28 -1 -47.5 17.5t-19.5 47.5v154q0 24 15.5 40t39.5 21q98 19 135.5 78t37.5 161q0 69 -42 313t-42 354q0 201 73 316.5
t222 156.5q-149 41 -222 156.5t-73 316.5q0 110 42 354t42 313q0 102 -37.5 161t-135.5 78q-24 5 -39.5 21t-15.5 40v154q0 28 19 47t48 18q261 -7 396 -124t135 -368q0 -92 -42 -334.5t-42 -340.5q0 -178 59 -264t174 -107z" />
    <glyph glyph-name="asciitilde" unicode="~" horiz-adv-x="2292" 
d="M2076 1327q21 -11 29 -32t1 -44q-40 -123 -103.5 -218t-139 -151t-155.5 -84t-162 -28q-111 0 -208 23t-167.5 56t-135.5 66.5t-139 56.5t-150 23q-97 0 -174.5 -50.5t-131.5 -132.5q-17 -25 -42.5 -32.5t-51.5 6.5l-130 73q-21 11 -29 32t-1 44q40 124 103.5 218.5
t139 150.5t155.5 84t162 28q111 0 208 -23t167.5 -56t135.5 -66.5t139 -56.5t150 -23q97 0 174.5 50.5t131.5 132.5q17 25 42 32.5t52 -6.5z" />
    <glyph glyph-name="exclamdown" unicode="&#xa1;" horiz-adv-x="1007" 
d="M504 1878q133 0 227 -93.5t94 -226.5t-94 -227t-227 -94q-132 0 -225.5 94t-93.5 227t93.5 226.5t225.5 93.5zM205 -533l72 1516q2 32 19 50t49 18h317q31 0 48.5 -18t19.5 -50l72 -1516q1 -32 -17.5 -50.5t-51.5 -18.5h-459q-33 0 -51.5 18.5t-17.5 50.5z" />
    <glyph glyph-name="cent" unicode="&#xa2;" horiz-adv-x="2099" 
d="M1936 497q39 -19 46 -45.5t-11 -58.5q-31 -63 -84 -125t-130 -123.5t-187 -109t-235 -68.5v-398q0 -28 -20 -48.5t-48 -20.5h-302q-28 0 -48 20.5t-20 48.5v406q-164 34 -304 112.5t-244.5 196t-164 280t-59.5 351.5t59 351.5t164 279.5t244.5 196t304.5 112v404
q0 28 20 48.5t48 20.5h302q28 0 48 -20.5t20 -48.5v-396q125 -21 234.5 -68.5t186.5 -108.5t130 -123t85 -125q18 -33 11 -59t-46 -45l-340 -166q-25 -15 -46 -10.5t-32.5 14t-26.5 31.5q-27 41 -53 70.5t-64.5 58.5t-90 44.5t-114.5 15.5q-197 0 -312 -124.5t-115 -351.5
t115 -351.5t312 -124.5q63 0 114.5 15.5t90 44.5t64.5 58.5t53 69.5q15 22 26.5 32t32.5 14t46 -11z" />
    <glyph glyph-name="sterling" unicode="&#xa3;" horiz-adv-x="2297" 
d="M2090 449q42 11 72.5 -10.5t30.5 -64.5v-322q0 -24 -17 -42t-46 -25q-147 -31 -298 -38.5t-279.5 3.5t-257 29t-248.5 34.5t-234.5 24.5t-234.5 -5.5t-231 -52.5q-28 -10 -53.5 -0.5t-34.5 34.5l-89 244q-9 28 9 55q166 233 215 388t25 299h-262q-30 0 -50 20t-20 50v212
q0 30 20 50t50 20h170q-44 183 -44 380q0 164 59.5 302.5t171 239.5t283 158t385.5 57q567 0 976 -389q22 -20 32 -34.5t10 -35.5t-19 -43l-195 -228q-14 -17 -24 -26.5t-24.5 -17t-30 -4t-32.5 17.5q-72 61 -128 102t-130.5 82.5t-156 62.5t-169.5 21q-177 0 -279.5 -86
t-102.5 -245q0 -140 37 -314h563q30 0 50 -20t20 -50v-212q0 -30 -20 -50t-50 -20h-493q11 -143 -49.5 -275t-232.5 -286q132 41 274.5 45.5t271 -14t256.5 -38t274 -19t280 35.5z" />
    <glyph glyph-name="currency" unicode="&#xa4;" horiz-adv-x="2956" 
d="M519 2320l266 -368q147 114 324 176t369 62v-459q-132 0 -247 -48t-198 -133t-131 -208t-48 -267t48 -267t131 -208t198 -133t247 -48v-459q-192 0 -369 62t-324 176l-266 -368q-21 -30 -54.5 -33t-58.5 23l-208 210q-25 26 -22.5 58.5t31.5 53.5l370 267
q-107 142 -165 312t-58 354t58 354t165 312l-370 267q-29 21 -31.5 53.5t22.5 58.5l208 210q25 26 58.5 23t54.5 -33zM2750 142q29 -21 31.5 -53.5t-22.5 -58.5l-208 -210q-25 -26 -58.5 -23t-54.5 33l-266 368q-147 -114 -324 -176t-369 -62v459q132 0 247 48t198 133
t131 208t48 267t-48 267t-131 208t-198 133t-247 48v459q192 0 369 -62t324 -176l266 368q21 30 54.5 33t58.5 -23l208 -210q25 -26 22.5 -58.5t-31.5 -53.5l-370 -267q107 -142 165 -312t58 -354t-58 -354t-165 -312z" />
    <glyph glyph-name="yen" unicode="&#xa5;" horiz-adv-x="2580" 
d="M2474 2440q44 0 63 -27t-3 -64l-713 -1177h233q36 0 57 -20.5t21 -56.5v-161q0 -36 -21 -56.5t-57 -20.5h-424l-28 -47v-138h452q36 0 57 -20.5t21 -56.5v-161q0 -36 -21 -56.5t-57 -20.5h-452v-288q0 -29 -20 -49t-49 -20h-488q-28 0 -48.5 20.5t-20.5 48.5v288h-460
q-36 0 -56.5 20.5t-20.5 56.5v161q0 36 20.5 56.5t56.5 20.5h460v130l-34 55h-426q-36 0 -56.5 20.5t-20.5 56.5v161q0 36 20.5 56.5t56.5 20.5h235l-716 1177q-22 37 -3.5 64t61.5 27h538q54 0 87 -60l593 -1041l583 1041q30 60 89 60h491z" />
    <glyph glyph-name="brokenbar" unicode="&#xa6;" horiz-adv-x="705" 
d="M177 2871q0 28 20 48.5t48 20.5h215q28 0 48.5 -20.5t20.5 -48.5v-1046q0 -28 -20.5 -48t-48.5 -20h-215q-28 0 -48 20t-20 48v1046zM177 615q0 28 20 48t48 20h215q28 0 48.5 -20t20.5 -48v-1046q0 -28 -20.5 -48.5t-48.5 -20.5h-215q-28 0 -48 20.5t-20 48.5v1046z" />
    <glyph glyph-name="section" unicode="&#xa7;" horiz-adv-x="2359" 
d="M2041 282q172 -172 172 -423q0 -185 -78.5 -337t-216.5 -253.5t-327 -156.5t-410 -55q-433 0 -700 193t-335 552q-6 35 15.5 60t56.5 25h382q24 0 41 -14t24 -38q47 -177 172.5 -265t343.5 -88q216 0 350.5 96.5t134.5 259.5q0 129 -166 230q-99 61 -349 155
q-281 105 -397 161q-314 151 -440 351q-213 338 44 899q-175 170 -175 422q0 239 128.5 418t356 272.5t521.5 93.5q417 0 680 -190t331 -537q7 -36 -14.5 -60.5t-57.5 -24.5h-382q-23 0 -40 13.5t-23 36.5q-99 338 -494 338q-213 0 -336 -96t-123 -261q0 -46 16.5 -86
t64.5 -77t81 -61t120 -60t124.5 -50t148.5 -54q121 -43 184.5 -67t178.5 -75t175.5 -91.5t146 -109.5t123 -137t72.5 -166t28 -204.5t-42.5 -244.5t-109.5 -294zM725 1411q-22 -87 -22 -164t17.5 -137.5t55 -115.5t82.5 -96t109 -81t126 -69.5t142 -62.5t147.5 -57.5
t152.5 -58t148 -61.5q18 82 17.5 155t-13 131t-47 112t-68.5 93t-94.5 80t-107.5 68t-125 60.5t-130 53.5t-138 52q-170 63 -252 98z" />
    <glyph glyph-name="dieresis" unicode="&#xa8;" horiz-adv-x="1558" 
d="M361 2061q-121 0 -206.5 85.5t-85.5 207.5q0 121 85.5 207t206.5 86t207 -86t86 -207q0 -122 -86 -207.5t-207 -85.5zM1202 2061q-121 0 -206.5 85.5t-85.5 207.5q0 121 85.5 207t206.5 86t207 -86t86 -207q0 -122 -85.5 -207.5t-207.5 -85.5z" />
    <glyph glyph-name="copyright" unicode="&#xa9;" horiz-adv-x="2771" 
d="M1385 2460q169 0 330 -44.5t297 -124.5t250 -194.5t194 -250.5t124.5 -296.5t44.5 -329.5q0 -253 -98 -482.5t-264 -395.5t-395.5 -264t-482.5 -98t-482.5 98t-395.5 264t-264 395.5t-98 482.5q0 169 44.5 329.5t124.5 296.5t194 250.5t250 194.5t297 124.5t330 44.5z
M1385 166q213 0 407.5 83.5t335 224.5t224 336.5t83.5 409.5t-83.5 409.5t-224 337t-335 225t-407.5 83.5q-171 0 -331 -53.5t-289 -151t-226 -227t-150 -290.5t-53 -333t53 -332.5t150 -290.5t226 -227.5t289 -150.5t331 -53zM1412 1648q-172 0 -278 -119.5t-106 -310.5
t106 -310.5t278 -119.5q213 0 322 200q24 38 61 22l210 -100q40 -20 20 -61q-93 -180 -254 -267t-359 -87q-152 0 -289 50.5t-241 142t-165.5 229t-61.5 301.5t61.5 302t165.5 229t241 141.5t289 50.5q198 0 359 -87t254 -267q20 -41 -20 -61l-210 -99q-37 -18 -61 21
q-109 200 -322 200z" />
    <glyph glyph-name="guillemotleft" unicode="&#xab;" horiz-adv-x="2084" 
d="M908 1609q45 34 88.5 11t43.5 -79v-201q0 -25 -25 -45l-440 -367l440 -367q25 -20 25 -45v-201q0 -56 -43.5 -79t-88.5 11l-703 518q-22 16 -22 44v238q0 28 22 44zM1901 1340q0 -25 -25 -45l-440 -367l440 -367q25 -20 25 -45v-201q0 -56 -43.5 -79t-88.5 11l-703 518
q-22 16 -22 44v238q0 28 22 44l703 518q45 34 88.5 11t43.5 -79v-201z" />
    <glyph glyph-name="logicalnot" unicode="&#xac;" horiz-adv-x="2145" 
d="M1885 1309q37 0 57.5 -20.5t20.5 -56.5v-267v-440q0 -32 -18.5 -50t-50.5 -18h-301q-32 0 -50.5 18t-18.5 50v363h-1264q-36 0 -56.5 20.5t-20.5 56.5v267q0 36 20.5 56.5t56.5 20.5h1625z" />
    <glyph glyph-name="registered" unicode="&#xae;" horiz-adv-x="2771" 
d="M1385 2460q169 0 330 -44.5t297 -124.5t250 -194.5t194 -250.5t124.5 -296.5t44.5 -329.5q0 -253 -98 -482.5t-264 -395.5t-395.5 -264t-482.5 -98t-482.5 98t-395.5 264t-264 395.5t-98 482.5q0 169 44.5 329.5t124.5 296.5t194 250.5t250 194.5t297 124.5t330 44.5z
M1385 166q213 0 407.5 83.5t335 224.5t224 336.5t83.5 409.5t-83.5 409.5t-224 337t-335 225t-407.5 83.5q-171 0 -331 -53.5t-289 -151t-226 -227t-150 -290.5t-53 -333t53 -332.5t150 -290.5t226 -227.5t289 -150.5t331 -53zM1774 1040l265 -434q18 -31 2.5 -57t-50.5 -26
h-272q-23 0 -33 21l-256 437h-238v-419q0 -16 -12 -27.5t-28 -11.5h-278q-16 0 -27.5 11.5t-11.5 27.5v1312q0 16 11.5 27.5t27.5 11.5h278h316q270 0 418.5 -130t148.5 -336q0 -136 -67 -242.5t-194 -164.5zM1192 1640v-387h206q269 0 269 194q0 94 -63 143.5t-206 49.5
h-206z" />
    <glyph glyph-name="macron" unicode="&#xaf;" horiz-adv-x="1259" 
d="M-23 2431q0 32 23 55t55 23h1149q32 0 55 -23t23 -55v-208q0 -32 -23 -54.5t-55 -22.5h-1149q-32 0 -55 22.5t-23 54.5v208z" />
    <glyph glyph-name="degree" unicode="&#xb0;" horiz-adv-x="1062" 
d="M526 1628q-134 0 -250 65t-184.5 178.5t-68.5 246.5t68.5 247t184.5 179.5t250 65.5t249.5 -65.5t184 -179.5t68.5 -247t-68.5 -246.5t-184 -178.5t-249.5 -65zM526 1964q65 0 108 45.5t43 108.5q0 64 -43 110.5t-108 46.5t-107.5 -46.5t-42.5 -110.5q0 -63 42.5 -108.5
t107.5 -45.5z" />
    <glyph glyph-name="plusminus" unicode="&#xb1;" horiz-adv-x="2145" 
d="M1885 1622q37 0 57.5 -20.5t20.5 -56.5v-267q0 -36 -20.5 -56.5t-57.5 -20.5h-602v-602q0 -37 -20.5 -57.5t-56.5 -20.5h-267q-36 0 -56.5 20.5t-20.5 57.5v602h-602q-36 0 -56.5 20.5t-20.5 56.5v267q0 36 20.5 56.5t56.5 20.5h602v602q0 36 20.5 56.5t56.5 20.5h267
q36 0 56.5 -20.5t20.5 -56.5v-602h602zM1885 421q37 0 57.5 -20.5t20.5 -56.5v-267q0 -36 -20.5 -56.5t-57.5 -20.5h-1625q-36 0 -56.5 20.5t-20.5 56.5v267q0 36 20.5 56.5t56.5 20.5h1625z" />
    <glyph glyph-name="acute" unicode="&#xb4;" horiz-adv-x="1033" 
d="M178 2024q-32 -13 -62 -3.5t-45 37.5l-79 155q-13 27 -2.5 59t38.5 49l728 445q30 16 60 6t45 -38l134 -256q15 -30 6 -61t-40 -44z" />
    <glyph glyph-name="paragraph" unicode="&#xb6;" horiz-adv-x="2244" 
d="M1999 2440q28 0 48 -20.5t20 -48.5v-2802q0 -28 -20 -48.5t-48 -20.5h-60q-29 0 -49 20t-20 49v2679h-846v-2679q0 -28 -20.5 -48.5t-48.5 -20.5h-60q-28 0 -48 20.5t-20 48.5v1374q-189 17 -345 120t-246.5 268.5t-90.5 358.5q0 153 59.5 291.5t160 239t239 160
t291.5 59.5h1044h60z" />
    <glyph glyph-name="periodcentered" unicode="&#xb7;" horiz-adv-x="1007" 
d="M503 599q-135 0 -230.5 95.5t-95.5 231.5q0 135 95.5 231t230.5 96q136 0 231.5 -96t95.5 -231q0 -136 -95.5 -231.5t-231.5 -95.5z" />
    <glyph glyph-name="cedilla" unicode="&#xb8;" horiz-adv-x="2400" 
d="M339 -880q-184 0 -308 79q-61 40 -34 105l23 56q27 72 105 40q96 -45 170 -45q79 0 130.5 38t51.5 112q0 123 -157 130q-59 2 -200 -17q-52 -6 -72 12.5t-2 63.5l134 346h281l-84 -205q211 33 343 -52t132 -263q0 -128 -71 -220t-185 -136t-257 -44z" />
    <glyph glyph-name="guillemotright" unicode="&#xbb;" horiz-adv-x="2084" 
d="M1018 1091q22 -16 22 -44v-238q0 -28 -22 -44l-703 -518q-45 -34 -88.5 -11t-43.5 79v201q0 25 25 45l440 367l-440 367q-25 20 -25 45v201q0 56 43.5 79t88.5 -11zM1879 1091q22 -16 22 -44v-238q0 -28 -22 -44l-703 -518q-45 -34 -88.5 -11t-43.5 79v201q0 25 25 45
l440 367l-440 367q-25 20 -25 45v201q0 56 43.5 79t88.5 -11z" />
    <glyph glyph-name="onequarter" unicode="&#xbc;" horiz-adv-x="3789" 
d="M2257 2583q13 26 39.5 35.5t52.5 -2.5l171 -80q25 -11 35 -38.5t-2 -52.5l-1226 -2631q-13 -26 -39.5 -35.5t-51.5 2.5l-172 79q-26 13 -35.5 39.5t2.5 52.5zM1013 2397q19 0 32 -13t13 -32v-1514q0 -19 -13 -32t-32 -13h-321q-19 0 -32.5 13t-13.5 32v1183l-245 -118
q-19 -8 -36.5 -2t-25.5 24l-98 209q-8 18 -2 36t25 25l399 189q29 13 60 13h290zM3651 617q24 0 37.5 -13.5t13.5 -37.5v-185q0 -23 -13.5 -36.5t-37.5 -13.5h-190v-286q0 -19 -13.5 -32t-31.5 -13h-293q-18 0 -31.5 13t-13.5 32v286h-801q-24 0 -37.5 13.5t-13.5 36.5v144
q0 13 9 23l825 1026q23 30 60 30h296q18 0 31.5 -13t13.5 -32v-942h190zM2652 617h426v527z" />
    <glyph glyph-name="onehalf" unicode="&#xbd;" horiz-adv-x="3807" 
d="M2520 2536q25 -11 35 -38.5t-2 -52.5l-1226 -2631q-13 -26 -39.5 -35.5t-51.5 2.5l-172 79q-26 13 -35.5 39.5t2.5 52.5l1226 2631q13 26 39.5 35.5t52.5 -2.5zM1058 838q0 -19 -13 -32t-32 -13h-321q-19 0 -32.5 13t-13.5 32v1183l-245 -118q-19 -8 -36.5 -2t-25.5 24
l-98 209q-8 18 -2 36t25 25l399 189q29 13 60 13h290q19 0 32 -13t13 -32v-1514zM3675 302q18 0 31.5 -13t13.5 -32v-219q0 -19 -13.5 -32t-31.5 -13h-1178q-23 0 -37 13.5t-14 37.5v77q0 46 22 62q196 147 339.5 270t232 215t141 171.5t71.5 137t19 115.5q0 214 -231 214
q-109 0 -196.5 -45.5t-187.5 -130.5q-11 -9 -21 -11.5t-19.5 2.5t-16 11.5t-16.5 17.5l-128 149q-12 15 -12 29t6.5 23t20.5 23q272 256 642 256q278 0 424.5 -135.5t146.5 -358.5q0 -216 -140 -411t-447 -423h579z" />
    <glyph glyph-name="threequarters" unicode="&#xbe;" horiz-adv-x="4104" 
d="M2513 2583q13 26 39.5 35.5t52.5 -2.5l171 -80q25 -11 35 -38.5t-2 -52.5l-1226 -2631q-13 -26 -39.5 -35.5t-51.5 2.5l-172 79q-26 13 -35.5 39.5t2.5 52.5zM1157 1621q313 -115 313 -392q0 -215 -180.5 -341.5t-480.5 -126.5q-222 0 -376 67.5t-279 188.5
q-15 14 -21.5 23t-6.5 22.5t12 28.5l132 157q14 16 23.5 23.5t22.5 7.5t27 -11q46 -36 61 -47.5t56.5 -40.5t67 -40.5t67 -27.5t84 -22t91.5 -6q126 0 204.5 47t78.5 131q0 86 -95.5 150t-296.5 70q-20 1 -33.5 13.5t-13.5 31.5v152q0 19 13 31.5t34 14.5q187 8 271.5 67.5
t84.5 144.5q0 81 -62 125t-176 44q-78 0 -152.5 -24t-120.5 -51.5t-114 -76.5q-26 -14 -39.5 -9t-34.5 29l-119 145q-12 15 -12 28.5t7 23t21 22.5q124 113 287 175t353 62q138 0 247.5 -33.5t178.5 -92.5t105 -136t36 -167q0 -123 -67.5 -220.5t-197.5 -159.5zM3907 617
q24 0 37.5 -13.5t13.5 -37.5v-185q0 -23 -13.5 -36.5t-37.5 -13.5h-190v-286q0 -19 -13.5 -32t-31.5 -13h-293q-18 0 -31.5 13t-13.5 32v286h-801q-24 0 -37.5 13.5t-13.5 36.5v144q0 13 9 23l825 1026q23 30 60 30h296q18 0 31.5 -13t13.5 -32v-942h190zM2908 617h426v527z
" />
    <glyph glyph-name="questiondown" unicode="&#xbf;" horiz-adv-x="1775" 
d="M871 1878q133 0 226.5 -93.5t93.5 -226.5q0 -132 -93.5 -226t-226.5 -94t-226.5 94t-93.5 226q0 133 93.5 226.5t226.5 93.5zM636 93q0 -265 322 -265q79 0 149.5 16t131 48.5t101.5 61.5t95 73q33 25 55.5 18t55.5 -48l181 -218q12 -15 15 -28.5t-7.5 -28.5t-17 -21.5
t-25.5 -24.5q-363 -327 -861 -327q-242 0 -422 67.5t-283 208t-103 340.5q0 112 33 206.5t86 162t117.5 128t130.5 116.5t121.5 114t93.5 134t44 163q2 27 17 44.5t46 17.5l322 -1q59 0 59 -87q0 -82 -25 -159t-65.5 -138.5t-89.5 -120t-97.5 -113t-89 -107t-65.5 -112.5
t-25 -120z" />
    <glyph glyph-name="Agrave" unicode="&#xc0;" horiz-adv-x="2707" 
d="M693 2984q-31 13 -40 44t6 61l134 256q15 28 45 38t60 -6l728 -445q28 -17 38.5 -49t-2.5 -59l-79 -155q-15 -28 -45 -37.5t-62 3.5zM2665 91q17 -42 0.5 -66.5t-58.5 -24.5h-531q-64 0 -87 60l-168 416h-981l-175 -416q-25 -60 -89 -60h-484q-43 0 -60.5 25t0.5 66
l1042 2314q23 58 89 58h403q65 0 89 -58zM1018 900h632l-310 766z" />
    <glyph glyph-name="Aacute" unicode="&#xc1;" horiz-adv-x="2707" 
d="M1066 2669l-79 155q-13 27 -2.5 59t38.5 49l728 445q30 16 60 6t45 -38l134 -256q15 -30 6 -61t-40 -44l-783 -349q-32 -13 -62 -3.5t-45 37.5zM2665 91q17 -42 0.5 -66.5t-58.5 -24.5h-531q-64 0 -87 60l-168 416h-981l-175 -416q-25 -60 -89 -60h-484q-43 0 -60.5 25
t0.5 66l1042 2314q23 58 89 58h403q65 0 89 -58zM1018 900h632l-310 766z" />
    <glyph glyph-name="Acircumflex" unicode="&#xc2;" horiz-adv-x="2707" 
d="M779 2663q-51 0 -63.5 28.5t22.5 66.5l419 459q42 41 97 41h220q56 0 97 -41l419 -459q35 -38 22.5 -66.5t-62.5 -28.5h-330q-60 0 -95 50l-161 223l-161 -223q-35 -50 -95 -50h-329zM2665 91q17 -42 0.5 -66.5t-58.5 -24.5h-531q-64 0 -87 60l-168 416h-981l-175 -416
q-25 -60 -89 -60h-484q-43 0 -60.5 25t0.5 66l1042 2314q23 58 89 58h403q65 0 89 -58zM1018 900h632l-310 766z" />
    <glyph glyph-name="Atilde" unicode="&#xc3;" horiz-adv-x="2707" 
d="M747 2677q-38 0 -58.5 21.5t-17.5 60.5q19 240 139.5 365.5t294.5 125.5q82 0 149 -21.5t111 -52.5t82.5 -62t83 -52.5t92.5 -21.5q72 0 114 38t56 100q18 72 83 72h105q37 0 58 -33t15 -93q-28 -224 -146 -335.5t-285 -111.5q-82 0 -149.5 22t-111.5 53.5t-82.5 62.5
t-82.5 53t-92 22q-71 0 -113.5 -39.5t-56.5 -101.5q-20 -72 -83 -72h-105zM2665 91q17 -42 0.5 -66.5t-58.5 -24.5h-531q-64 0 -87 60l-168 416h-981l-175 -416q-25 -60 -89 -60h-484q-43 0 -60.5 25t0.5 66l1042 2314q23 58 89 58h403q65 0 89 -58zM1018 900h632l-310 766z
" />
    <glyph glyph-name="Adieresis" unicode="&#xc4;" horiz-adv-x="2707" 
d="M946 2672q-121 0 -206.5 85.5t-85.5 207.5q0 121 85.5 207t206.5 86t207 -86t86 -207t-85.5 -207t-207.5 -86zM1787 2672q-121 0 -206.5 85.5t-85.5 207.5q0 121 85.5 207t206.5 86t207 -86t86 -207t-86 -207t-207 -86zM2665 91q17 -42 0.5 -66.5t-58.5 -24.5h-531
q-64 0 -87 60l-168 416h-981l-175 -416q-25 -60 -89 -60h-484q-43 0 -60.5 25t0.5 66l1042 2314q23 58 89 58h403q65 0 89 -58zM1018 900h632l-310 766z" />
    <glyph glyph-name="Aring" unicode="&#xc5;" horiz-adv-x="2692" 
d="M2665 91q17 -42 0.5 -66.5t-58.5 -24.5h-531q-64 0 -87 60l-168 416h-981l-175 -416q-25 -60 -89 -60h-484q-43 0 -60.5 25t0.5 66l1010 2243q-92 69 -145.5 171t-53.5 219q0 133 68.5 247t184 179.5t249.5 65.5t250 -65.5t184.5 -179.5t68.5 -247q0 -108 -46 -203.5
t-126 -163.5zM1345 2917q-79 0 -131.5 -57t-52.5 -136q0 -77 52.5 -133t131.5 -56t132 56t53 133q0 79 -53 136t-132 57zM1018 900h632l-310 766z" />
    <glyph glyph-name="AE" unicode="&#xc6;" horiz-adv-x="3728" 
d="M3483 496q32 0 50.5 -18t18.5 -50v-359q0 -32 -18.5 -50.5t-50.5 -18.5h-1558h-313q-28 0 -48.5 20t-20.5 49v407h-661l-223 -423q-28 -53 -95 -53h-490q-43 0 -60 27.5t6 70.5l1257 2291q29 51 94 51h257h472h1343q32 0 50.5 -18.5t18.5 -50.5v-359q0 -32 -18.5 -50
t-50.5 -18h-1274v-472h1114q32 0 50.5 -18.5t18.5 -50.5v-324q0 -32 -18.5 -50t-50.5 -18h-1114v-515h1314zM1105 900h438v831z" />
    <glyph glyph-name="Ccedilla" unicode="&#xc7;" horiz-adv-x="2687" 
d="M2515 679q72 -34 35 -107q-146 -283 -390 -435t-547 -180l-50 -122q211 33 343 -52t132 -263q0 -128 -71 -220t-185 -136t-257 -44q-184 0 -308 79q-61 40 -34 105l23 56q27 72 105 40q96 -45 170 -45q79 0 130.5 38t51.5 112q0 123 -157 130q-61 2 -200 -17
q-52 -6 -72 12.5t-2 63.5l102 263q-195 18 -372.5 83t-326 176t-258 258t-170.5 338.5t-61 407.5q0 193 49.5 367.5t137.5 312.5t211.5 250t271 186t315 113.5t344.5 39.5q168 0 321.5 -36t294 -109t258.5 -194t201 -282q37 -73 -35 -107l-369 -175q-66 -30 -106 37
q-95 176 -241 264t-324 88q-150 0 -276 -55.5t-213.5 -154.5t-136.5 -239.5t-49 -305.5t49 -305.5t136.5 -239.5t213.5 -154.5t276 -55.5q178 0 324 88t241 264q40 67 106 37z" />
    <glyph glyph-name="Egrave" unicode="&#xc8;" horiz-adv-x="2322" 
d="M525 2984q-31 13 -40 44t6 61l134 256q15 28 45 38t60 -6l728 -445q28 -17 38.5 -49t-2.5 -59l-79 -155q-15 -28 -45 -37.5t-62 3.5zM2117 496q32 0 50.5 -18t18.5 -50v-359q0 -32 -18.5 -50.5t-50.5 -18.5h-1558h-313q-28 0 -48.5 20t-20.5 49v2302q0 29 20.5 49
t48.5 20h488h1343q32 0 50.5 -18.5t18.5 -50.5v-359q0 -32 -18.5 -50t-50.5 -18h-1274v-472h1114q32 0 50.5 -18.5t18.5 -50.5v-324q0 -32 -18.5 -50t-50.5 -18h-1114v-515h1314z" />
    <glyph glyph-name="Eacute" unicode="&#xc9;" horiz-adv-x="2322" 
d="M898 2669l-79 155q-13 27 -2.5 59t38.5 49l728 445q30 16 60 6t45 -38l134 -256q15 -30 6 -61t-40 -44l-783 -349q-32 -13 -62 -3.5t-45 37.5zM2117 496q32 0 50.5 -18t18.5 -50v-359q0 -32 -18.5 -50.5t-50.5 -18.5h-1558h-313q-28 0 -48.5 20t-20.5 49v2302
q0 29 20.5 49t48.5 20h488h1343q32 0 50.5 -18.5t18.5 -50.5v-359q0 -32 -18.5 -50t-50.5 -18h-1274v-472h1114q32 0 50.5 -18.5t18.5 -50.5v-324q0 -32 -18.5 -50t-50.5 -18h-1114v-515h1314z" />
    <glyph glyph-name="Ecircumflex" unicode="&#xca;" horiz-adv-x="2322" 
d="M611 2663q-51 0 -63.5 28.5t22.5 66.5l419 459q42 41 97 41h220q56 0 97 -41l419 -459q35 -38 22.5 -66.5t-62.5 -28.5h-330q-60 0 -95 50l-161 223l-161 -223q-35 -50 -95 -50h-329zM2117 496q32 0 50.5 -18t18.5 -50v-359q0 -32 -18.5 -50.5t-50.5 -18.5h-1558h-313
q-28 0 -48.5 20t-20.5 49v2302q0 29 20.5 49t48.5 20h488h1343q32 0 50.5 -18.5t18.5 -50.5v-359q0 -32 -18.5 -50t-50.5 -18h-1274v-472h1114q32 0 50.5 -18.5t18.5 -50.5v-324q0 -32 -18.5 -50t-50.5 -18h-1114v-515h1314z" />
    <glyph glyph-name="Edieresis" unicode="&#xcb;" horiz-adv-x="2322" 
d="M778 2672q-121 0 -206.5 85.5t-85.5 207.5q0 121 85.5 207t206.5 86t207 -86t86 -207t-85.5 -207t-207.5 -86zM1619 2672q-121 0 -206.5 85.5t-85.5 207.5q0 121 85.5 207t206.5 86t207 -86t86 -207t-86 -207t-207 -86zM2117 496q32 0 50.5 -18t18.5 -50v-359
q0 -32 -18.5 -50.5t-50.5 -18.5h-1558h-313q-28 0 -48.5 20t-20.5 49v2302q0 29 20.5 49t48.5 20h488h1343q32 0 50.5 -18.5t18.5 -50.5v-359q0 -32 -18.5 -50t-50.5 -18h-1274v-472h1114q32 0 50.5 -18.5t18.5 -50.5v-324q0 -32 -18.5 -50t-50.5 -18h-1114v-515h1314z" />
    <glyph glyph-name="Igrave" unicode="&#xcc;" horiz-adv-x="979" 
d="M601 2635l-783 349q-31 13 -40 44t6 61l134 256q15 28 45 38t60 -6l728 -445q28 -17 38.5 -49t-2.5 -59l-79 -155q-15 -28 -45 -37.5t-62 3.5zM177 2371q0 28 20 48.5t48 20.5h489q28 0 48 -20.5t20 -48.5v-2302q0 -28 -20 -48.5t-48 -20.5h-489q-28 0 -48 20.5t-20 48.5
v2302z" />
    <glyph glyph-name="Iacute" unicode="&#xcd;" horiz-adv-x="979" 
d="M298 2635q-32 -13 -62 -3.5t-45 37.5l-79 155q-13 27 -2.5 59t38.5 49l728 445q30 16 60 6t45 -38l134 -256q15 -30 6 -61t-40 -44zM177 2371q0 28 20 48.5t48 20.5h489q28 0 48 -20.5t20 -48.5v-2302q0 -28 -20 -48.5t-48 -20.5h-489q-28 0 -48 20.5t-20 48.5v2302z" />
    <glyph glyph-name="Icircumflex" unicode="&#xce;" horiz-adv-x="979" 
d="M650 2713l-161 223l-161 -223q-35 -50 -95 -50h-329q-51 0 -63.5 28.5t22.5 66.5l419 459q42 41 97 41h220q56 0 97 -41l419 -459q35 -38 22.5 -66.5t-62.5 -28.5h-330q-60 0 -95 50zM177 2371q0 28 20 48.5t48 20.5h489q28 0 48 -20.5t20 -48.5v-2302q0 -28 -20 -48.5
t-48 -20.5h-489q-28 0 -48 20.5t-20 48.5v2302z" />
    <glyph glyph-name="Idieresis" unicode="&#xcf;" horiz-adv-x="979" 
d="M71 2672q-121 0 -206.5 85.5t-85.5 207.5q0 121 85.5 207t206.5 86t207 -86t86 -207t-86 -207t-207 -86zM912 2672q-121 0 -206.5 85.5t-85.5 207.5q0 121 85.5 207t206.5 86t207 -86t86 -207t-85.5 -207t-207.5 -86zM177 2371q0 28 20 48.5t48 20.5h489q28 0 48 -20.5
t20 -48.5v-2302q0 -28 -20 -48.5t-48 -20.5h-489q-28 0 -48 20.5t-20 48.5v2302z" />
    <glyph glyph-name="Eth" unicode="&#xd0;" horiz-adv-x="2741" 
d="M1275 2440q181 0 349 -36.5t314.5 -106t267.5 -175.5t207.5 -239t134 -302.5t47.5 -360.5t-47.5 -360.5t-134 -302.5t-207.5 -239t-267.5 -175.5t-314.5 -106t-349 -36.5h-780h-249q-28 0 -48.5 20t-20.5 49v944h-234q-36 0 -56.5 20.5t-20.5 56.5v232q0 36 20.5 57
t56.5 21h234v971q0 29 20.5 49t48.5 20h488h541zM1235 496q322 0 514 196t192 528t-192 528t-514 196h-432v-544h505q36 0 56.5 -21t20.5 -57v-232q0 -36 -20.5 -56.5t-56.5 -20.5h-505v-517h432z" />
    <glyph glyph-name="Ntilde" unicode="&#xd1;" horiz-adv-x="2789" 
d="M818 2677q-38 0 -58.5 21.5t-17.5 60.5q19 240 139.5 365.5t294.5 125.5q82 0 149 -21.5t111 -52.5t82.5 -62t83 -52.5t92.5 -21.5q72 0 114 38t56 100q18 72 83 72h105q37 0 58 -33t15 -93q-28 -224 -146 -335.5t-285 -111.5q-82 0 -149.5 22t-111.5 53.5t-82.5 62.5
t-82.5 53t-92 22q-71 0 -113.5 -39.5t-56.5 -101.5q-20 -72 -83 -72h-105zM2535 2440q37 0 57.5 -20.5t20.5 -56.5v-2308q0 -36 -20.5 -57t-57.5 -21h-127q-60 0 -96 34l-1510 1354v-1288q0 -36 -20.5 -56.5t-56.5 -20.5h-471q-36 0 -56.5 20.5t-20.5 56.5v2308
q0 36 20.5 57t56.5 21h127q59 0 97 -34l1509 -1357v1291q0 36 20.5 56.5t57.5 20.5h470z" />
    <glyph glyph-name="Ograve" unicode="&#xd2;" horiz-adv-x="2949" 
d="M1587 2635l-783 349q-31 13 -40 44t6 61l134 256q15 28 45 38t60 -6l728 -445q28 -17 38.5 -49t-2.5 -59l-79 -155q-15 -28 -45 -37.5t-62 3.5zM1475 2489q177 0 344.5 -39.5t315 -113.5t271 -186t211.5 -250t137.5 -312.5t49.5 -367.5t-49.5 -367.5t-137.5 -312.5
t-211.5 -250t-271 -186t-315 -113.5t-344.5 -39.5t-345 39.5t-315.5 113.5t-271 186t-211.5 250t-137.5 312.5t-49.5 367.5t49.5 367.5t137.5 312.5t211.5 250t271 186t315.5 113.5t345 39.5zM1475 465q199 0 353 95.5t238 267t84 392.5t-84 392.5t-238 267t-353 95.5
q-150 0 -276 -55.5t-213.5 -154.5t-136.5 -239.5t-49 -305.5t49 -305.5t136.5 -239.5t213.5 -154.5t276 -55.5z" />
    <glyph glyph-name="Oacute" unicode="&#xd3;" horiz-adv-x="2949" 
d="M1284 2635q-32 -13 -62 -3.5t-45 37.5l-79 155q-13 27 -2.5 59t38.5 49l728 445q30 16 60 6t45 -38l134 -256q15 -30 6 -61t-40 -44zM1475 2489q177 0 344.5 -39.5t315 -113.5t271 -186t211.5 -250t137.5 -312.5t49.5 -367.5t-49.5 -367.5t-137.5 -312.5t-211.5 -250
t-271 -186t-315 -113.5t-344.5 -39.5t-345 39.5t-315.5 113.5t-271 186t-211.5 250t-137.5 312.5t-49.5 367.5t49.5 367.5t137.5 312.5t211.5 250t271 186t315.5 113.5t345 39.5zM1475 465q199 0 353 95.5t238 267t84 392.5t-84 392.5t-238 267t-353 95.5q-150 0 -276 -55.5
t-213.5 -154.5t-136.5 -239.5t-49 -305.5t49 -305.5t136.5 -239.5t213.5 -154.5t276 -55.5z" />
    <glyph glyph-name="Ocircumflex" unicode="&#xd4;" horiz-adv-x="2949" 
d="M1636 2713l-161 223l-161 -223q-35 -50 -95 -50h-329q-51 0 -63.5 28.5t22.5 66.5l419 459q42 41 97 41h220q56 0 97 -41l419 -459q35 -38 22.5 -66.5t-62.5 -28.5h-330q-60 0 -95 50zM1475 2489q177 0 344.5 -39.5t315 -113.5t271 -186t211.5 -250t137.5 -312.5
t49.5 -367.5t-49.5 -367.5t-137.5 -312.5t-211.5 -250t-271 -186t-315 -113.5t-344.5 -39.5t-345 39.5t-315.5 113.5t-271 186t-211.5 250t-137.5 312.5t-49.5 367.5t49.5 367.5t137.5 312.5t211.5 250t271 186t315.5 113.5t345 39.5zM1475 465q199 0 353 95.5t238 267
t84 392.5t-84 392.5t-238 267t-353 95.5q-150 0 -276 -55.5t-213.5 -154.5t-136.5 -239.5t-49 -305.5t49 -305.5t136.5 -239.5t213.5 -154.5t276 -55.5z" />
    <glyph glyph-name="Otilde" unicode="&#xd5;" horiz-adv-x="2949" 
d="M858 2677q-38 0 -58.5 21.5t-17.5 60.5q19 240 139.5 365.5t294.5 125.5q82 0 149 -21.5t111 -52.5t82.5 -62t83 -52.5t92.5 -21.5q72 0 114 38t56 100q18 72 83 72h105q37 0 58 -33t15 -93q-28 -224 -146 -335.5t-285 -111.5q-82 0 -149.5 22t-111.5 53.5t-82.5 62.5
t-82.5 53t-92 22q-71 0 -113.5 -39.5t-56.5 -101.5q-20 -72 -83 -72h-105zM1475 2489q177 0 344.5 -39.5t315 -113.5t271 -186t211.5 -250t137.5 -312.5t49.5 -367.5t-49.5 -367.5t-137.5 -312.5t-211.5 -250t-271 -186t-315 -113.5t-344.5 -39.5t-345 39.5t-315.5 113.5
t-271 186t-211.5 250t-137.5 312.5t-49.5 367.5t49.5 367.5t137.5 312.5t211.5 250t271 186t315.5 113.5t345 39.5zM1475 465q199 0 353 95.5t238 267t84 392.5t-84 392.5t-238 267t-353 95.5q-150 0 -276 -55.5t-213.5 -154.5t-136.5 -239.5t-49 -305.5t49 -305.5
t136.5 -239.5t213.5 -154.5t276 -55.5z" />
    <glyph glyph-name="Odieresis" unicode="&#xd6;" horiz-adv-x="2949" 
d="M1057 2672q-121 0 -206.5 85.5t-85.5 207.5q0 121 85.5 207t206.5 86t207 -86t86 -207t-86 -207t-207 -86zM1898 2672q-121 0 -206.5 85.5t-85.5 207.5q0 121 85.5 207t206.5 86t207 -86t86 -207t-85.5 -207t-207.5 -86zM1475 2489q177 0 344.5 -39.5t315 -113.5
t271 -186t211.5 -250t137.5 -312.5t49.5 -367.5t-49.5 -367.5t-137.5 -312.5t-211.5 -250t-271 -186t-315 -113.5t-344.5 -39.5t-345 39.5t-315.5 113.5t-271 186t-211.5 250t-137.5 312.5t-49.5 367.5t49.5 367.5t137.5 312.5t211.5 250t271 186t315.5 113.5t345 39.5z
M1475 465q199 0 353 95.5t238 267t84 392.5t-84 392.5t-238 267t-353 95.5q-150 0 -276 -55.5t-213.5 -154.5t-136.5 -239.5t-49 -305.5t49 -305.5t136.5 -239.5t213.5 -154.5t276 -55.5z" />
    <glyph glyph-name="multiply" unicode="&#xd7;" horiz-adv-x="2147" 
d="M1373 1049l566 -567q25 -26 25 -54.5t-25 -54.5l-189 -190q-26 -25 -55 -25t-55 26l-566 566l-567 -567q-55 -53 -110 0l-188 190q-55 54 0 109l567 567l-567 566q-26 26 -26 55t26 55l188 189q26 26 55.5 26t54.5 -26l567 -567l567 567q25 26 54 26t54 -26l190 -189
q25 -25 25 -54.5t-25 -55.5z" />
    <glyph glyph-name="Oslash" unicode="&#xd8;" horiz-adv-x="2949" 
d="M2522 2031q282 -337 282 -811q0 -193 -49.5 -367.5t-137.5 -312.5t-211.5 -250t-271 -186t-315 -113.5t-344.5 -39.5q-221 0 -425 60t-373 175l-178 -178q-55 -55 -109 -1l-129 129q-54 54 1 109l165 165q-282 337 -282 810q0 193 49.5 367.5t137.5 312.5t211.5 250
t271 186t315.5 113.5t345 39.5q220 0 423.5 -60t373.5 -174l200 200q26 25 55 25t54 -25l128 -128q25 -25 25 -54t-25 -55zM800 1220q0 -203 72 -365l997 997q-168 123 -394 123q-150 0 -276 -55.5t-213.5 -154.5t-136.5 -239.5t-49 -305.5zM1475 465q199 0 353 95.5
t238 267t84 392.5q0 201 -73 366l-997 -997q168 -124 395 -124z" />
    <glyph glyph-name="Ugrave" unicode="&#xd9;" horiz-adv-x="2727" 
d="M692 2984q-31 13 -40 44t6 61l134 256q15 28 45 38t60 -6l728 -445q28 -17 38.5 -49t-2.5 -59l-79 -155q-15 -28 -45 -37.5t-62 3.5zM2482 2440q28 0 48 -20.5t20 -48.5v-1331q0 -217 -59 -395.5t-165 -304.5t-255 -212.5t-326.5 -127t-381.5 -40.5t-381.5 40.5t-326 127
t-254.5 212.5t-165 304.5t-59 395.5v1331q0 28 20 48.5t48 20.5h489q28 0 48 -20.5t20 -48.5v-1199q0 -334 137 -516t424 -182q288 0 425 182t137 516v1199q0 28 20 48.5t48 20.5h489z" />
    <glyph glyph-name="Uacute" unicode="&#xda;" horiz-adv-x="2727" 
d="M1065 2669l-79 155q-13 27 -2.5 59t38.5 49l728 445q30 16 60 6t45 -38l134 -256q15 -30 6 -61t-40 -44l-783 -349q-32 -13 -62 -3.5t-45 37.5zM2482 2440q28 0 48 -20.5t20 -48.5v-1331q0 -217 -59 -395.5t-165 -304.5t-255 -212.5t-326.5 -127t-381.5 -40.5
t-381.5 40.5t-326 127t-254.5 212.5t-165 304.5t-59 395.5v1331q0 28 20 48.5t48 20.5h489q28 0 48 -20.5t20 -48.5v-1199q0 -334 137 -516t424 -182q288 0 425 182t137 516v1199q0 28 20 48.5t48 20.5h489z" />
    <glyph glyph-name="Ucircumflex" unicode="&#xdb;" horiz-adv-x="2727" 
d="M778 2663q-51 0 -63.5 28.5t22.5 66.5l419 459q42 41 97 41h220q56 0 97 -41l419 -459q35 -38 22.5 -66.5t-62.5 -28.5h-330q-60 0 -95 50l-161 223l-161 -223q-35 -50 -95 -50h-329zM2482 2440q28 0 48 -20.5t20 -48.5v-1331q0 -217 -59 -395.5t-165 -304.5t-255 -212.5
t-326.5 -127t-381.5 -40.5t-381.5 40.5t-326 127t-254.5 212.5t-165 304.5t-59 395.5v1331q0 28 20 48.5t48 20.5h489q28 0 48 -20.5t20 -48.5v-1199q0 -334 137 -516t424 -182q288 0 425 182t137 516v1199q0 28 20 48.5t48 20.5h489z" />
    <glyph glyph-name="Udieresis" unicode="&#xdc;" horiz-adv-x="2727" 
d="M945 2672q-121 0 -206.5 85.5t-85.5 207.5q0 121 85.5 207t206.5 86t207 -86t86 -207t-86 -207t-207 -86zM1786 2672q-121 0 -206.5 85.5t-85.5 207.5q0 121 85.5 207t206.5 86t207 -86t86 -207t-85.5 -207t-207.5 -86zM2482 2440q28 0 48 -20.5t20 -48.5v-1331
q0 -217 -59 -395.5t-165 -304.5t-255 -212.5t-326.5 -127t-381.5 -40.5t-381.5 40.5t-326 127t-254.5 212.5t-165 304.5t-59 395.5v1331q0 28 20 48.5t48 20.5h489q28 0 48 -20.5t20 -48.5v-1199q0 -334 137 -516t424 -182q288 0 425 182t137 516v1199q0 28 20 48.5t48 20.5
h489z" />
    <glyph glyph-name="Yacute" unicode="&#xdd;" horiz-adv-x="2580" 
d="M998 2669l-79 155q-13 27 -2.5 59t38.5 49l728 445q30 16 60 6t45 -38l134 -256q15 -30 6 -61t-40 -44l-783 -349q-32 -13 -62 -3.5t-45 37.5zM2474 2440q44 0 63 -27t-3 -64l-932 -1539v-741q0 -29 -20 -49t-49 -20h-488q-28 0 -48.5 20.5t-20.5 48.5v733l-941 1547
q-22 37 -3.5 64t61.5 27h538q54 0 87 -60l593 -1041l583 1041q30 60 89 60h491z" />
    <glyph glyph-name="Thorn" unicode="&#xde;" horiz-adv-x="2391" 
d="M1321 2055q237 0 428 -65t313.5 -178.5t187.5 -264.5t65 -327t-65 -327t-187.5 -264.5t-313.5 -178.5t-428 -65h-518v-316q0 -28 -20.5 -48.5t-48.5 -20.5h-488q-28 0 -48.5 20t-20.5 49v2302q0 29 20.5 49t48.5 20h488q28 0 48.5 -20.5t20.5 -48.5v-316h518zM1206 864
q101 0 181 19t132.5 51t87 78t49 97.5t14.5 110.5t-14.5 110.5t-49 97.5t-87 78t-132.5 51t-181 19h-403v-712h403z" />
    <glyph glyph-name="germandbls" unicode="&#xdf;" horiz-adv-x="2458" 
d="M1741 1393q0 -50 22.5 -91.5t60 -72.5t86.5 -60t102.5 -58.5t107.5 -62.5t103 -79t86.5 -101t60 -134.5t22.5 -174.5q0 -126 -39 -229t-106 -172.5t-159 -117t-195 -68.5t-218 -21q-189 0 -376 58.5t-293 136.5q-57 42 -32 102l101 255q14 38 39 47.5t51 -7.5
q62 -36 89.5 -51.5t82.5 -43t91.5 -39.5t87.5 -22t100 -10q108 0 166.5 42.5t58.5 110.5q0 40 -23.5 74.5t-63 61.5t-90.5 53t-107.5 54t-113 59.5t-107.5 75t-90.5 95t-63 123.5t-23.5 157q0 77 19.5 145.5t47.5 120.5t55.5 103.5t47 115.5t19.5 135q0 150 -78.5 240
t-207.5 90t-208.5 -91t-79.5 -248v-1825q0 -32 -18.5 -50.5t-50.5 -18.5h-460q-32 0 -50 18.5t-18 50.5v1856q0 172 66 315t183.5 239.5t280.5 150t355 53.5q251 0 443.5 -88t298.5 -250.5t106 -375.5q0 -84 -17.5 -159.5t-42 -129t-49.5 -101t-42.5 -95t-17.5 -91.5z" />
    <glyph glyph-name="agrave" unicode="&#xe0;" horiz-adv-x="1989" 
d="M333 2373q-31 13 -40 44t6 61l134 256q15 28 45 38t60 -6l728 -445q28 -17 38.5 -49t-2.5 -59l-79 -155q-15 -28 -45 -37.5t-62 3.5zM1897 143q28 -81 -48 -103l-332 -93q-52 -16 -87 18q-96 89 -156 239q-98 -118 -241 -185.5t-321 -67.5q-142 0 -259 45t-192 121
t-115.5 174.5t-40.5 207.5q0 152 73 276.5t215.5 208t353 109t484.5 -21.5v23q0 177 -76 245.5t-257 68.5q-117 0 -219 -23t-222 -71q-71 -26 -103 40l-119 257q-33 71 37 102q151 76 348 120.5t398 44.5q212 0 365.5 -50.5t246.5 -148.5t137 -233t44 -313v-507
q0 -108 12 -195.5t27 -140t47 -147.5zM892 367q140 0 239.5 97.5t99.5 236.5v48q-156 33 -264.5 33t-176 -32t-98 -79t-30.5 -108q0 -92 66 -144t164 -52z" />
    <glyph glyph-name="aacute" unicode="&#xe1;" horiz-adv-x="1989" 
d="M706 2058l-79 155q-13 27 -2.5 59t38.5 49l728 445q30 16 60 6t45 -38l134 -256q15 -30 6 -61t-40 -44l-783 -349q-32 -13 -62 -3.5t-45 37.5zM1897 143q28 -81 -48 -103l-332 -93q-52 -16 -87 18q-96 89 -156 239q-98 -118 -241 -185.5t-321 -67.5q-142 0 -259 45
t-192 121t-115.5 174.5t-40.5 207.5q0 152 73 276.5t215.5 208t353 109t484.5 -21.5v23q0 177 -76 245.5t-257 68.5q-117 0 -219 -23t-222 -71q-71 -26 -103 40l-119 257q-33 71 37 102q151 76 348 120.5t398 44.5q212 0 365.5 -50.5t246.5 -148.5t137 -233t44 -313v-507
q0 -108 12 -195.5t27 -140t47 -147.5zM892 367q140 0 239.5 97.5t99.5 236.5v48q-156 33 -264.5 33t-176 -32t-98 -79t-30.5 -108q0 -92 66 -144t164 -52z" />
    <glyph glyph-name="acircumflex" unicode="&#xe2;" horiz-adv-x="1989" 
d="M419 2052q-51 0 -63.5 29t22.5 66l419 459q42 41 97 41h220q56 0 97 -41l419 -459q35 -37 22.5 -66t-62.5 -29h-330q-60 0 -95 50l-161 223l-161 -223q-35 -50 -95 -50h-329zM1897 143q28 -81 -48 -103l-332 -93q-52 -16 -87 18q-96 89 -156 239q-98 -118 -241 -185.5
t-321 -67.5q-142 0 -259 45t-192 121t-115.5 174.5t-40.5 207.5q0 152 73 276.5t215.5 208t353 109t484.5 -21.5v23q0 177 -76 245.5t-257 68.5q-117 0 -219 -23t-222 -71q-71 -26 -103 40l-119 257q-33 71 37 102q151 76 348 120.5t398 44.5q212 0 365.5 -50.5
t246.5 -148.5t137 -233t44 -313v-507q0 -108 12 -195.5t27 -140t47 -147.5zM892 367q140 0 239.5 97.5t99.5 236.5v48q-156 33 -264.5 33t-176 -32t-98 -79t-30.5 -108q0 -92 66 -144t164 -52z" />
    <glyph glyph-name="atilde" unicode="&#xe3;" horiz-adv-x="1989" 
d="M387 2066q-38 0 -58.5 21.5t-17.5 60.5q19 240 139.5 365.5t294.5 125.5q82 0 149 -21.5t111 -52.5t82.5 -62t83 -52.5t92.5 -21.5q72 0 114 38t56 100q18 72 83 72h105q37 0 58 -33t15 -93q-28 -224 -146 -335.5t-285 -111.5q-82 0 -149.5 22t-111.5 53t-82.5 62.5
t-82.5 53.5t-92 22q-71 0 -113.5 -39.5t-56.5 -101.5q-20 -72 -83 -72h-105zM1897 143q28 -81 -48 -103l-332 -93q-52 -16 -87 18q-96 89 -156 239q-98 -118 -241 -185.5t-321 -67.5q-142 0 -259 45t-192 121t-115.5 174.5t-40.5 207.5q0 152 73 276.5t215.5 208t353 109
t484.5 -21.5v23q0 177 -76 245.5t-257 68.5q-117 0 -219 -23t-222 -71q-71 -26 -103 40l-119 257q-33 71 37 102q151 76 348 120.5t398 44.5q212 0 365.5 -50.5t246.5 -148.5t137 -233t44 -313v-507q0 -108 12 -195.5t27 -140t47 -147.5zM892 367q140 0 239.5 97.5
t99.5 236.5v48q-156 33 -264.5 33t-176 -32t-98 -79t-30.5 -108q0 -92 66 -144t164 -52z" />
    <glyph glyph-name="adieresis" unicode="&#xe4;" horiz-adv-x="1989" 
d="M586 2061q-121 0 -206.5 85.5t-85.5 207.5q0 121 85.5 207t206.5 86t207 -86t86 -207q0 -122 -85.5 -207.5t-207.5 -85.5zM1427 2061q-121 0 -206.5 85.5t-85.5 207.5q0 121 85.5 207t206.5 86t207 -86t86 -207q0 -122 -86 -207.5t-207 -85.5zM1897 143q28 -81 -48 -103
l-332 -93q-52 -16 -87 18q-96 89 -156 239q-98 -118 -241 -185.5t-321 -67.5q-142 0 -259 45t-192 121t-115.5 174.5t-40.5 207.5q0 152 73 276.5t215.5 208t353 109t484.5 -21.5v23q0 177 -76 245.5t-257 68.5q-117 0 -219 -23t-222 -71q-71 -26 -103 40l-119 257
q-33 71 37 102q151 76 348 120.5t398 44.5q212 0 365.5 -50.5t246.5 -148.5t137 -233t44 -313v-507q0 -108 12 -195.5t27 -140t47 -147.5zM892 367q140 0 239.5 97.5t99.5 236.5v48q-156 33 -264.5 33t-176 -32t-98 -79t-30.5 -108q0 -92 66 -144t164 -52z" />
    <glyph glyph-name="aring" unicode="&#xe5;" horiz-adv-x="1989" 
d="M1004 1925q-134 0 -249.5 65t-184 178.5t-68.5 246.5t68.5 247t184 179.5t249.5 65.5t250 -65.5t184.5 -179.5t68.5 -247t-68.5 -246.5t-184.5 -178.5t-250 -65zM1004 2608q-79 0 -131.5 -57t-52.5 -136q0 -77 52.5 -133t131.5 -56t132 56t53 133q0 79 -53 136t-132 57z
M1897 143q28 -81 -48 -103l-332 -93q-52 -16 -87 18q-96 89 -156 239q-98 -118 -241 -185.5t-321 -67.5q-142 0 -259 45t-192 121t-115.5 174.5t-40.5 207.5q0 152 73 276.5t215.5 208t353 109t484.5 -21.5v23q0 177 -76 245.5t-257 68.5q-117 0 -219 -23t-222 -71
q-71 -26 -103 40l-119 257q-33 71 37 102q151 76 348 120.5t398 44.5q212 0 365.5 -50.5t246.5 -148.5t137 -233t44 -313v-507q0 -108 12 -195.5t27 -140t47 -147.5zM892 367q140 0 239.5 97.5t99.5 236.5v48q-156 33 -264.5 33t-176 -32t-98 -79t-30.5 -108q0 -92 66 -144
t164 -52z" />
    <glyph glyph-name="ae" unicode="&#xe6;" horiz-adv-x="3316" 
d="M3040 473q71 -33 35 -104q-95 -188 -324 -303t-519 -115q-253 0 -464.5 95t-346.5 273q-109 -166 -293.5 -267t-414.5 -101q-114 0 -211 29t-165.5 80.5t-117 121t-71.5 149.5t-23 168q0 153 71 277t211 208t348 108.5t482 -21.5v23q0 176 -78 245t-260 69
q-116 0 -215 -23t-222 -71q-32 -13 -59.5 -2.5t-42.5 42.5l-119 257q-33 70 36 102q152 76 348.5 120.5t398.5 44.5q384 0 555 -211q269 211 659 211q158 0 297 -36t260.5 -116t208.5 -199.5t137 -295.5t50 -394h-1377q13 -106 54.5 -189t102.5 -133t132.5 -76t148.5 -26
q253 0 363 181q23 35 45 43t59 -8zM2231 1463q-135 0 -240 -81.5t-152 -229.5h746q-18 86 -54.5 148t-85 96.5t-101.5 50.5t-113 16zM898 367q140 0 239.5 98t99.5 236v48q-156 33 -264 33t-174.5 -32t-96 -79t-29.5 -108q0 -93 63.5 -144.5t161.5 -51.5z" />
    <glyph glyph-name="ccedilla" unicode="&#xe7;" horiz-adv-x="2099" 
d="M1936 497q39 -19 46 -45.5t-11 -58.5q-33 -67 -90 -132t-141 -129t-204.5 -110.5t-257.5 -62.5l-51 -124q211 33 343 -52t132 -263q0 -128 -71 -220t-185 -136t-257 -44q-184 0 -308 79q-61 40 -34 105l23 56q27 72 105 40q96 -45 170 -45q79 0 130.5 38t51.5 112
q0 123 -157 130q-61 2 -200 -17q-52 -6 -72 12.5t-2 63.5l103 265q-145 16 -276 66t-240 134t-189 194.5t-124.5 254.5t-44.5 307q0 178 52.5 333t146.5 269.5t220.5 196.5t277 123t313.5 41q136 0 259 -28.5t213 -73.5t165 -104.5t122 -117.5t77 -117q18 -33 11 -59
t-46 -45l-340 -166q-25 -15 -46 -10.5t-32.5 14t-26.5 31.5q-27 41 -53 70.5t-64.5 58.5t-90 44.5t-114.5 15.5q-197 0 -312 -124.5t-115 -351.5t115 -351.5t312 -124.5q63 0 114.5 15.5t90 44.5t64.5 58.5t53 69.5q15 22 26.5 32t32.5 14t46 -11z" />
    <glyph glyph-name="egrave" unicode="&#xe8;" horiz-adv-x="2207" 
d="M424 2373q-31 13 -40 44t6 61l134 256q15 28 45 38t60 -6l728 -445q28 -17 38.5 -49t-2.5 -59l-79 -155q-15 -28 -45 -37.5t-62 3.5zM1931 473q71 -33 35 -104q-95 -188 -324 -303t-519 -115q-208 0 -390 66t-317 187t-213 304.5t-78 406.5t79 406.5t215 304t318.5 186.5
t391.5 66q158 0 297 -36t260.5 -116t208.5 -199.5t137 -295.5t50 -394h-1377q13 -106 54.5 -189t102.5 -133t132.5 -76t148.5 -26q253 0 363 181q23 35 45 43t59 -8zM1122 1463q-135 0 -240 -81.5t-152 -229.5h746q-18 86 -54.5 148t-85 96.5t-101.5 50.5t-113 16z" />
    <glyph glyph-name="eacute" unicode="&#xe9;" horiz-adv-x="2207" 
d="M797 2058l-79 155q-13 27 -2.5 59t38.5 49l728 445q30 16 60 6t45 -38l134 -256q15 -30 6 -61t-40 -44l-783 -349q-32 -13 -62 -3.5t-45 37.5zM1931 473q71 -33 35 -104q-95 -188 -324 -303t-519 -115q-208 0 -390 66t-317 187t-213 304.5t-78 406.5t79 406.5t215 304
t318.5 186.5t391.5 66q158 0 297 -36t260.5 -116t208.5 -199.5t137 -295.5t50 -394h-1377q13 -106 54.5 -189t102.5 -133t132.5 -76t148.5 -26q253 0 363 181q23 35 45 43t59 -8zM1122 1463q-135 0 -240 -81.5t-152 -229.5h746q-18 86 -54.5 148t-85 96.5t-101.5 50.5
t-113 16z" />
    <glyph glyph-name="ecircumflex" unicode="&#xea;" horiz-adv-x="2207" 
d="M510 2052q-51 0 -63.5 29t22.5 66l419 459q42 41 97 41h220q56 0 97 -41l419 -459q35 -37 22.5 -66t-62.5 -29h-330q-60 0 -95 50l-161 223l-161 -223q-35 -50 -95 -50h-329zM1931 473q71 -33 35 -104q-95 -188 -324 -303t-519 -115q-208 0 -390 66t-317 187t-213 304.5
t-78 406.5t79 406.5t215 304t318.5 186.5t391.5 66q158 0 297 -36t260.5 -116t208.5 -199.5t137 -295.5t50 -394h-1377q13 -106 54.5 -189t102.5 -133t132.5 -76t148.5 -26q253 0 363 181q23 35 45 43t59 -8zM1122 1463q-135 0 -240 -81.5t-152 -229.5h746q-18 86 -54.5 148
t-85 96.5t-101.5 50.5t-113 16z" />
    <glyph glyph-name="edieresis" unicode="&#xeb;" horiz-adv-x="2207" 
d="M677 2061q-121 0 -206.5 85.5t-85.5 207.5q0 121 85.5 207t206.5 86t207 -86t86 -207q0 -122 -86 -207.5t-207 -85.5zM1518 2061q-121 0 -206.5 85.5t-85.5 207.5q0 121 85.5 207t206.5 86t207 -86t86 -207q0 -122 -85.5 -207.5t-207.5 -85.5zM1931 473q71 -33 35 -104
q-95 -188 -324 -303t-519 -115q-208 0 -390 66t-317 187t-213 304.5t-78 406.5t79 406.5t215 304t318.5 186.5t391.5 66q158 0 297 -36t260.5 -116t208.5 -199.5t137 -295.5t50 -394h-1377q13 -106 54.5 -189t102.5 -133t132.5 -76t148.5 -26q253 0 363 181q23 35 45 43
t59 -8zM1122 1463q-135 0 -240 -81.5t-152 -229.5h746q-18 86 -54.5 148t-85 96.5t-101.5 50.5t-113 16z" />
    <glyph glyph-name="igrave" unicode="&#xec;" horiz-adv-x="950" 
d="M588 2024l-783 349q-31 13 -40 44t6 61l134 256q15 28 45 38t60 -6l728 -445q28 -17 38.5 -49t-2.5 -59l-79 -155q-15 -28 -45 -37.5t-62 3.5zM177 1761q0 32 18 50t50 18h460q32 0 50.5 -18t18.5 -50v-1692q0 -32 -18.5 -50.5t-50.5 -18.5h-460q-32 0 -50 18.5t-18 50.5
v1692z" />
    <glyph glyph-name="iacute" unicode="&#xed;" horiz-adv-x="950" 
d="M285 2024q-32 -13 -62 -3.5t-45 37.5l-79 155q-13 27 -2.5 59t38.5 49l728 445q30 16 60 6t45 -38l134 -256q15 -30 6 -61t-40 -44zM177 1761q0 32 18 50t50 18h460q32 0 50.5 -18t18.5 -50v-1692q0 -32 -18.5 -50.5t-50.5 -18.5h-460q-32 0 -50 18.5t-18 50.5v1692z" />
    <glyph glyph-name="icircumflex" unicode="&#xee;" horiz-adv-x="950" 
d="M637 2102l-161 223l-161 -223q-35 -50 -95 -50h-329q-51 0 -63.5 29t22.5 66l419 459q42 41 97 41h220q56 0 97 -41l419 -459q35 -37 22.5 -66t-62.5 -29h-330q-60 0 -95 50zM177 1761q0 32 18 50t50 18h460q32 0 50.5 -18t18.5 -50v-1692q0 -32 -18.5 -50.5t-50.5 -18.5
h-460q-32 0 -50 18.5t-18 50.5v1692z" />
    <glyph glyph-name="idieresis" unicode="&#xef;" horiz-adv-x="950" 
d="M58 2061q-121 0 -206.5 85.5t-85.5 207.5q0 121 85.5 207t206.5 86t207 -86t86 -207q0 -122 -85.5 -207.5t-207.5 -85.5zM899 2061q-121 0 -206.5 85.5t-85.5 207.5q0 121 85.5 207t206.5 86t207 -86t86 -207q0 -122 -86 -207.5t-207 -85.5zM177 1761q0 32 18 50t50 18
h460q32 0 50.5 -18t18.5 -50v-1692q0 -32 -18.5 -50.5t-50.5 -18.5h-460q-32 0 -50 18.5t-18 50.5v1692z" />
    <glyph glyph-name="eth" unicode="&#xf0;" horiz-adv-x="2190" 
d="M1175 2478q163 -80 297.5 -188.5t225.5 -222t160 -245.5t108.5 -250t63.5 -246t32 -223.5t8 -190.5q0 -179 -48.5 -334t-136.5 -269t-207.5 -195t-263 -122t-302.5 -41q-206 0 -387.5 64.5t-314 179.5t-209 282t-76.5 363t71.5 363t194.5 282t291 179.5t358 64.5
q193 0 352 -88q-136 293 -424 469l-111 -197q-16 -28 -41 -35t-53 9l-79 46q-60 35 -26 94l105 186q-83 35 -177 63q-37 12 -51.5 42.5t1.5 63.5l101 219q23 48 81 34q130 -29 243 -69l106 188q16 28 41 34.5t53 -9.5l80 -46q57 -33 25 -94zM1112 439q160 0 265 113.5
t105 287.5t-105 287.5t-265 113.5t-265 -113.5t-105 -287.5t105 -287.5t265 -113.5z" />
    <glyph glyph-name="ntilde" unicode="&#xf1;" 
d="M561 2066q-38 0 -58.5 21.5t-17.5 60.5q19 240 139.5 365.5t294.5 125.5q82 0 149 -21.5t111 -52.5t82.5 -62t83 -52.5t92.5 -21.5q72 0 114 38t56 100q18 72 83 72h105q37 0 58 -33t15 -93q-28 -224 -146 -335.5t-285 -111.5q-82 0 -149.5 22t-111.5 53t-82.5 62.5
t-82.5 53.5t-92 22q-71 0 -113.5 -39.5t-56.5 -101.5q-20 -72 -83 -72h-105zM1420 1869q167 0 291.5 -47.5t201.5 -138t114.5 -215t37.5 -283.5v-1116q0 -32 -18.5 -50.5t-50.5 -18.5h-460q-32 0 -50 18.5t-18 50.5v908q0 211 -75 303.5t-226 92.5q-166 0 -274.5 -111
t-118.5 -308v-885q0 -32 -18.5 -50.5t-50.5 -18.5h-459q-32 0 -50.5 18.5t-18.5 50.5v1692q0 32 18.5 50t50.5 18h459q32 0 50.5 -18t18.5 -50v-210q100 149 264 233.5t382 84.5z" />
    <glyph glyph-name="ograve" unicode="&#xf2;" horiz-adv-x="2304" 
d="M1264 2024l-783 349q-31 13 -40 44t6 61l134 256q15 28 45 38t60 -6l728 -445q28 -17 38.5 -49t-2.5 -59l-79 -155q-15 -28 -45 -37.5t-62 3.5zM1152 1878q167 0 320 -41t281.5 -123t223.5 -196.5t148.5 -269.5t53.5 -333q0 -222 -82.5 -406t-223 -305t-326.5 -187
t-395 -66t-395 66t-326.5 187t-223 305t-82.5 406q0 178 53.5 333t148.5 269.5t223.5 196.5t281.5 123t320 41zM1152 439q174 0 292 127t118 349t-118 349t-292 127t-292 -127t-118 -349t118 -349t292 -127z" />
    <glyph glyph-name="oacute" unicode="&#xf3;" horiz-adv-x="2304" 
d="M961 2024q-32 -13 -62 -3.5t-45 37.5l-79 155q-13 27 -2.5 59t38.5 49l728 445q30 16 60 6t45 -38l134 -256q15 -30 6 -61t-40 -44zM1152 1878q167 0 320 -41t281.5 -123t223.5 -196.5t148.5 -269.5t53.5 -333q0 -222 -82.5 -406t-223 -305t-326.5 -187t-395 -66t-395 66
t-326.5 187t-223 305t-82.5 406q0 178 53.5 333t148.5 269.5t223.5 196.5t281.5 123t320 41zM1152 439q174 0 292 127t118 349t-118 349t-292 127t-292 -127t-118 -349t118 -349t292 -127z" />
    <glyph glyph-name="ocircumflex" unicode="&#xf4;" horiz-adv-x="2304" 
d="M1313 2102l-161 223l-161 -223q-35 -50 -95 -50h-329q-51 0 -63.5 29t22.5 66l419 459q42 41 97 41h220q56 0 97 -41l419 -459q35 -37 22.5 -66t-62.5 -29h-330q-60 0 -95 50zM1152 1878q167 0 320 -41t281.5 -123t223.5 -196.5t148.5 -269.5t53.5 -333
q0 -222 -82.5 -406t-223 -305t-326.5 -187t-395 -66t-395 66t-326.5 187t-223 305t-82.5 406q0 178 53.5 333t148.5 269.5t223.5 196.5t281.5 123t320 41zM1152 439q174 0 292 127t118 349t-118 349t-292 127t-292 -127t-118 -349t118 -349t292 -127z" />
    <glyph glyph-name="otilde" unicode="&#xf5;" horiz-adv-x="2304" 
d="M535 2066q-38 0 -58.5 21.5t-17.5 60.5q19 240 139.5 365.5t294.5 125.5q82 0 149 -21.5t111 -52.5t82.5 -62t83 -52.5t92.5 -21.5q72 0 114 38t56 100q18 72 83 72h105q37 0 58 -33t15 -93q-28 -224 -146 -335.5t-285 -111.5q-82 0 -149.5 22t-111.5 53t-82.5 62.5
t-82.5 53.5t-92 22q-71 0 -113.5 -39.5t-56.5 -101.5q-20 -72 -83 -72h-105zM1152 1878q167 0 320 -41t281.5 -123t223.5 -196.5t148.5 -269.5t53.5 -333q0 -222 -82.5 -406t-223 -305t-326.5 -187t-395 -66t-395 66t-326.5 187t-223 305t-82.5 406q0 178 53.5 333
t148.5 269.5t223.5 196.5t281.5 123t320 41zM1152 439q174 0 292 127t118 349t-118 349t-292 127t-292 -127t-118 -349t118 -349t292 -127z" />
    <glyph glyph-name="odieresis" unicode="&#xf6;" horiz-adv-x="2304" 
d="M734 2061q-121 0 -206.5 85.5t-85.5 207.5q0 121 85.5 207t206.5 86t207 -86t86 -207q0 -122 -85.5 -207.5t-207.5 -85.5zM1575 2061q-121 0 -206.5 85.5t-85.5 207.5q0 121 85.5 207t206.5 86t207 -86t86 -207q0 -122 -86 -207.5t-207 -85.5zM1152 1878q167 0 320 -41
t281.5 -123t223.5 -196.5t148.5 -269.5t53.5 -333q0 -222 -82.5 -406t-223 -305t-326.5 -187t-395 -66t-395 66t-326.5 187t-223 305t-82.5 406q0 178 53.5 333t148.5 269.5t223.5 196.5t281.5 123t320 41zM1152 439q174 0 292 127t118 349t-118 349t-292 127t-292 -127
t-118 -349t118 -349t292 -127z" />
    <glyph glyph-name="divide" unicode="&#xf7;" horiz-adv-x="2145" 
d="M1885 1309q37 0 57.5 -20.5t20.5 -56.5v-267q0 -36 -20.5 -56.5t-57.5 -20.5h-646q-71 -54 -161 -54q-89 0 -160 54h-658q-36 0 -56.5 20.5t-20.5 56.5v267q0 36 20.5 56.5t56.5 20.5h643q76 66 175 66q101 0 175 -66h632z" />
    <glyph glyph-name="oslash" unicode="&#xf8;" horiz-adv-x="2328" 
d="M1988 1515q200 -250 200 -600q0 -222 -82.5 -406t-223 -305t-326.5 -187t-395 -66q-329 0 -584 154l-189 -189q-55 -53 -109 -1l-128 129q-25 25 -25 54t25 55l174 174q-191 245 -191 588q0 178 53.5 333t148.5 269.5t223.5 196.5t281.5 123t320 41q318 0 570 -145
l166 166q26 26 54.5 26t54.5 -26l129 -129q25 -25 25 -53.5t-25 -54.5zM708 915q0 -98 22 -183l649 649q-96 53 -218 53q-93 0 -174 -32.5t-144 -95t-99 -163.5t-36 -228zM1161 395q93 0 174 32.5t144 95t99 163.5t36 229q0 107 -27 199l-659 -658q103 -61 233 -61z" />
    <glyph glyph-name="ugrave" unicode="&#xf9;" 
d="M450 2373q-31 13 -40 44t6 61l134 256q15 28 45 38t60 -6l728 -445q28 -17 38.5 -49t-2.5 -59l-79 -155q-15 -28 -45 -37.5t-62 3.5zM1996 1829q32 0 50.5 -18t18.5 -50v-1692q0 -32 -18.5 -50.5t-50.5 -18.5h-459q-32 0 -50.5 18.5t-18.5 50.5v211q-100 -150 -264 -235
t-383 -85q-167 0 -291.5 47.5t-201.5 138t-114.5 215t-37.5 283.5v1116q0 32 18.5 50.5t50.5 18.5h460q32 0 50 -18.5t18 -50.5v-908q0 -211 75 -303.5t226 -92.5q175 0 284.5 121.5t109.5 336.5v847q0 32 18.5 50t50.5 18h459z" />
    <glyph glyph-name="uacute" unicode="&#xfa;" 
d="M823 2058l-79 155q-13 27 -2.5 59t38.5 49l728 445q30 16 60 6t45 -38l134 -256q15 -30 6 -61t-40 -44l-783 -349q-32 -13 -62 -3.5t-45 37.5zM1996 1829q32 0 50.5 -18t18.5 -50v-1692q0 -32 -18.5 -50.5t-50.5 -18.5h-459q-32 0 -50.5 18.5t-18.5 50.5v211
q-100 -150 -264 -235t-383 -85q-167 0 -291.5 47.5t-201.5 138t-114.5 215t-37.5 283.5v1116q0 32 18.5 50.5t50.5 18.5h460q32 0 50 -18.5t18 -50.5v-908q0 -211 75 -303.5t226 -92.5q175 0 284.5 121.5t109.5 336.5v847q0 32 18.5 50t50.5 18h459z" />
    <glyph glyph-name="ucircumflex" unicode="&#xfb;" 
d="M536 2052q-51 0 -63.5 29t22.5 66l419 459q42 41 97 41h220q56 0 97 -41l419 -459q35 -37 22.5 -66t-62.5 -29h-330q-60 0 -95 50l-161 223l-161 -223q-35 -50 -95 -50h-329zM1996 1829q32 0 50.5 -18t18.5 -50v-1692q0 -32 -18.5 -50.5t-50.5 -18.5h-459
q-32 0 -50.5 18.5t-18.5 50.5v211q-100 -150 -264 -235t-383 -85q-167 0 -291.5 47.5t-201.5 138t-114.5 215t-37.5 283.5v1116q0 32 18.5 50.5t50.5 18.5h460q32 0 50 -18.5t18 -50.5v-908q0 -211 75 -303.5t226 -92.5q175 0 284.5 121.5t109.5 336.5v847q0 32 18.5 50
t50.5 18h459z" />
    <glyph glyph-name="udieresis" unicode="&#xfc;" 
d="M703 2061q-121 0 -206.5 85.5t-85.5 207.5q0 121 85.5 207t206.5 86t207 -86t86 -207q0 -122 -86 -207.5t-207 -85.5zM1544 2061q-121 0 -206.5 85.5t-85.5 207.5q0 121 85.5 207t206.5 86t207 -86t86 -207q0 -122 -85.5 -207.5t-207.5 -85.5zM1996 1829q32 0 50.5 -18
t18.5 -50v-1692q0 -32 -18.5 -50.5t-50.5 -18.5h-459q-32 0 -50.5 18.5t-18.5 50.5v211q-100 -150 -264 -235t-383 -85q-167 0 -291.5 47.5t-201.5 138t-114.5 215t-37.5 283.5v1116q0 32 18.5 50.5t50.5 18.5h460q32 0 50 -18.5t18 -50.5v-908q0 -211 75 -303.5t226 -92.5
q175 0 284.5 121.5t109.5 336.5v847q0 32 18.5 50t50.5 18h459z" />
    <glyph glyph-name="yacute" unicode="&#xfd;" horiz-adv-x="2100" 
d="M736 2058l-79 155q-13 27 -2.5 59t38.5 49l728 445q30 16 60 6t45 -38l134 -256q15 -30 6 -61t-40 -44l-783 -349q-32 -13 -62 -3.5t-45 37.5zM1993 1829q54 0 81.5 -41.5t3.5 -92.5l-748 -1551q-79 -164 -148 -283t-148.5 -221.5t-162.5 -169t-185 -113.5t-220 -67.5
t-265 -20.5q-34 0 -55 18t-21 53v304q0 62 63 69q122 14 211 66t178.5 167.5t200.5 324.5l-754 1424q-27 51 0.5 92.5t83.5 41.5h490q43 0 64 -44l422 -869l392 869q18 44 66 44h451z" />
    <glyph glyph-name="thorn" unicode="&#xfe;" horiz-adv-x="2304" 
d="M1296 1877q190 0 353.5 -71t280 -196.5t183 -305t66.5 -390.5t-66.5 -390.5t-183 -305t-280 -196.5t-353.5 -71q-340 0 -523 258v-871q0 -32 -18 -50.5t-50 -18.5h-460q-32 0 -50.5 18.5t-18.5 50.5v2422q0 10 1 14v717q0 32 18 50.5t50 18.5h460q32 0 50.5 -18.5
t18.5 -50.5v-870q184 256 522 256zM1152 438q174 0 292 127t118 349t-118 349t-292 127q-179 0 -294.5 -129t-115.5 -347t115.5 -347t294.5 -129z" />
    <glyph glyph-name="ydieresis" unicode="&#xff;" horiz-adv-x="2100" 
d="M616 2061q-121 0 -206.5 85.5t-85.5 207.5q0 121 85.5 207t206.5 86t207 -86t86 -207q0 -122 -85.5 -207.5t-207.5 -85.5zM1457 2061q-121 0 -206.5 85.5t-85.5 207.5q0 121 85.5 207t206.5 86t207 -86t86 -207q0 -122 -86 -207.5t-207 -85.5zM1993 1829q54 0 81.5 -41.5
t3.5 -92.5l-748 -1551q-79 -164 -148 -283t-148.5 -221.5t-162.5 -169t-185 -113.5t-220 -67.5t-265 -20.5q-34 0 -55 18t-21 53v304q0 62 63 69q122 14 211 66t178.5 167.5t200.5 324.5l-754 1424q-27 51 0.5 92.5t83.5 41.5h490q43 0 64 -44l422 -869l392 869q18 44 66 44
h451z" />
    <glyph glyph-name="Amacron" unicode="&#x100;" horiz-adv-x="2707" 
d="M790 2757q-32 0 -55 22.5t-23 54.5v208q0 32 23 55t55 23h1149q32 0 55 -23t23 -55v-208q0 -32 -23 -54.5t-55 -22.5h-1149zM2665 91q17 -42 0.5 -66.5t-58.5 -24.5h-531q-64 0 -87 60l-168 416h-981l-175 -416q-25 -60 -89 -60h-484q-43 0 -60.5 25t0.5 66l1042 2314
q23 58 89 58h403q65 0 89 -58zM1018 900h632l-310 766z" />
    <glyph glyph-name="amacron" unicode="&#x101;" horiz-adv-x="1989" 
d="M430 2146q-32 0 -55 22.5t-23 54.5v208q0 32 23 55t55 23h1149q32 0 55 -23t23 -55v-208q0 -32 -23 -54.5t-55 -22.5h-1149zM1897 143q28 -81 -48 -103l-332 -93q-52 -16 -87 18q-96 89 -156 239q-98 -118 -241 -185.5t-321 -67.5q-142 0 -259 45t-192 121t-115.5 174.5
t-40.5 207.5q0 152 73 276.5t215.5 208t353 109t484.5 -21.5v23q0 177 -76 245.5t-257 68.5q-117 0 -219 -23t-222 -71q-71 -26 -103 40l-119 257q-33 71 37 102q151 76 348 120.5t398 44.5q212 0 365.5 -50.5t246.5 -148.5t137 -233t44 -313v-507q0 -108 12 -195.5t27 -140
t47 -147.5zM892 367q140 0 239.5 97.5t99.5 236.5v48q-156 33 -264.5 33t-176 -32t-98 -79t-30.5 -108q0 -92 66 -144t164 -52z" />
    <glyph glyph-name="Abreve" unicode="&#x102;" horiz-adv-x="2707" 
d="M1364 2623q-142 0 -267.5 46t-214 125.5t-139.5 189t-51 231.5q0 83 71 83h201q75 0 89 -60q21 -126 103.5 -184.5t207.5 -58.5q269 0 311 243q13 60 89 60h200q73 0 73 -76q0 -123 -51 -233.5t-139.5 -191t-214.5 -127.5t-268 -47zM2665 91q17 -42 0.5 -66.5
t-58.5 -24.5h-531q-64 0 -87 60l-168 416h-981l-175 -416q-25 -60 -89 -60h-484q-43 0 -60.5 25t0.5 66l1042 2314q23 58 89 58h403q65 0 89 -58zM1018 900h632l-310 766z" />
    <glyph glyph-name="abreve" unicode="&#x103;" horiz-adv-x="1989" 
d="M1004 2012q-142 0 -267.5 46t-214 125.5t-139.5 189t-51 231.5q0 83 71 83h201q75 0 89 -60q21 -126 103.5 -184.5t207.5 -58.5q269 0 311 243q13 60 89 60h200q73 0 73 -76q0 -123 -51 -233.5t-139.5 -191t-214.5 -127.5t-268 -47zM1897 143q28 -81 -48 -103l-332 -93
q-52 -16 -87 18q-96 89 -156 239q-98 -118 -241 -185.5t-321 -67.5q-142 0 -259 45t-192 121t-115.5 174.5t-40.5 207.5q0 152 73 276.5t215.5 208t353 109t484.5 -21.5v23q0 177 -76 245.5t-257 68.5q-117 0 -219 -23t-222 -71q-71 -26 -103 40l-119 257q-33 71 37 102
q151 76 348 120.5t398 44.5q212 0 365.5 -50.5t246.5 -148.5t137 -233t44 -313v-507q0 -108 12 -195.5t27 -140t47 -147.5zM892 367q140 0 239.5 97.5t99.5 236.5v48q-156 33 -264.5 33t-176 -32t-98 -79t-30.5 -108q0 -92 66 -144t164 -52z" />
    <glyph glyph-name="Aogonek" unicode="&#x104;" horiz-adv-x="2707" 
d="M2665 91q17 -42 0.5 -66.5t-58.5 -24.5h-261q-100 -70 -163 -160.5t-63 -189.5q0 -76 44 -118t127 -42q47 0 90 12q77 18 77 -56v-183q0 -55 -52 -80q-111 -46 -254 -46q-210 0 -333.5 111.5t-123.5 285.5q0 161 79 298.5t215 227.5l-168 416h-981l-175 -416
q-25 -60 -89 -60h-484q-43 0 -60.5 25t0.5 66l1042 2314q23 58 89 58h403q65 0 89 -58zM1018 900h632l-310 766z" />
    <glyph glyph-name="aogonek" unicode="&#x105;" horiz-adv-x="2047" 
d="M1818 -506q37 10 57 -4.5t20 -51.5v-183q0 -57 -52 -80q-111 -46 -255 -46q-209 0 -329.5 111.5t-120.5 285.5q0 140 72 266t188 218q-75 93 -118 197q-99 -119 -243.5 -187.5t-323.5 -68.5q-114 0 -211 29t-165.5 80.5t-117 121t-71.5 149.5t-23 168q0 153 71 277
t211 208t348 108.5t482 -21.5v23q0 176 -78 245t-260 69q-116 0 -215 -23t-222 -71q-32 -13 -59.5 -2.5t-42.5 42.5l-119 257q-33 70 36 102q152 76 348.5 120.5t398.5 44.5q212 0 365 -50.5t246.5 -148.5t137 -233t43.5 -313v-507q0 -108 12.5 -196t27 -139.5t47.5 -147.5
q6 -17 6.5 -30.5t-2.5 -22.5t-12 -18.5t-16.5 -15.5t-21.5 -15q-294 -192 -294 -399q0 -76 41 -118t123 -42q40 0 91 12zM898 367q140 0 239.5 98t99.5 236v48q-156 33 -264 33t-174.5 -32t-96 -79t-29.5 -108q0 -93 63.5 -144.5t161.5 -51.5z" />
    <glyph glyph-name="Cacute" unicode="&#x106;" horiz-adv-x="2687" 
d="M1177 2669l-79 155q-13 27 -2.5 59t38.5 49l728 445q30 16 60 6t45 -38l134 -256q15 -30 6 -61t-40 -44l-783 -349q-32 -13 -62 -3.5t-45 37.5zM2515 679q72 -34 35 -107q-83 -161 -201 -282t-258.5 -194t-294 -109t-321.5 -36q-177 0 -344.5 39.5t-315 113.5t-271 186
t-211.5 250t-137.5 312.5t-49.5 367.5t49.5 367.5t137.5 312.5t211.5 250t271 186t315 113.5t344.5 39.5q168 0 321.5 -36t294 -109t258.5 -194t201 -282q37 -73 -35 -107l-369 -175q-66 -30 -106 37q-95 176 -241 264t-324 88q-150 0 -276 -55.5t-213.5 -154.5
t-136.5 -239.5t-49 -305.5t49 -305.5t136.5 -239.5t213.5 -154.5t276 -55.5q178 0 324 88t241 264q40 67 106 37z" />
    <glyph glyph-name="cacute" unicode="&#x107;" horiz-adv-x="2099" 
d="M841 2058l-79 155q-13 27 -2.5 59t38.5 49l728 445q30 16 60 6t45 -38l134 -256q15 -30 6 -61t-40 -44l-783 -349q-32 -13 -62 -3.5t-45 37.5zM1936 497q39 -19 46 -45.5t-11 -58.5q-29 -59 -76 -117t-122 -118t-165.5 -105t-213.5 -73.5t-259 -28.5q-204 0 -386.5 66
t-321.5 187t-220.5 305t-81.5 406q0 178 52.5 333t146.5 269.5t220.5 196.5t277 123t313.5 41q136 0 259 -28.5t213 -73.5t165 -104.5t122 -117.5t77 -117q18 -33 11 -59t-46 -45l-340 -166q-25 -15 -46 -10.5t-32.5 14t-26.5 31.5q-27 41 -53 70.5t-64.5 58.5t-90 44.5
t-114.5 15.5q-197 0 -312 -124.5t-115 -351.5t115 -351.5t312 -124.5q63 0 114.5 15.5t90 44.5t64.5 58.5t53 69.5q15 22 26.5 32t32.5 14t46 -11z" />
    <glyph glyph-name="Cdotaccent" unicode="&#x10a;" horiz-adv-x="2687" 
d="M1475 2636q-135 0 -230.5 95.5t-95.5 231.5q0 135 95.5 231t230.5 96q136 0 231.5 -96t95.5 -231q0 -136 -95.5 -231.5t-231.5 -95.5zM2515 679q72 -34 35 -107q-83 -161 -201 -282t-258.5 -194t-294 -109t-321.5 -36q-177 0 -344.5 39.5t-315 113.5t-271 186t-211.5 250
t-137.5 312.5t-49.5 367.5t49.5 367.5t137.5 312.5t211.5 250t271 186t315 113.5t344.5 39.5q168 0 321.5 -36t294 -109t258.5 -194t201 -282q37 -73 -35 -107l-369 -175q-66 -30 -106 37q-95 176 -241 264t-324 88q-150 0 -276 -55.5t-213.5 -154.5t-136.5 -239.5
t-49 -305.5t49 -305.5t136.5 -239.5t213.5 -154.5t276 -55.5q178 0 324 88t241 264q40 67 106 37z" />
    <glyph glyph-name="cdotaccent" unicode="&#x10b;" horiz-adv-x="2099" 
d="M1139 2025q-135 0 -230.5 95.5t-95.5 231.5q0 135 95.5 231t230.5 96q136 0 231.5 -96t95.5 -231q0 -136 -95.5 -231.5t-231.5 -95.5zM1936 497q39 -19 46 -45.5t-11 -58.5q-29 -59 -76 -117t-122 -118t-165.5 -105t-213.5 -73.5t-259 -28.5q-204 0 -386.5 66t-321.5 187
t-220.5 305t-81.5 406q0 178 52.5 333t146.5 269.5t220.5 196.5t277 123t313.5 41q136 0 259 -28.5t213 -73.5t165 -104.5t122 -117.5t77 -117q18 -33 11 -59t-46 -45l-340 -166q-25 -15 -46 -10.5t-32.5 14t-26.5 31.5q-27 41 -53 70.5t-64.5 58.5t-90 44.5t-114.5 15.5
q-197 0 -312 -124.5t-115 -351.5t115 -351.5t312 -124.5q63 0 114.5 15.5t90 44.5t64.5 58.5t53 69.5q15 22 26.5 32t32.5 14t46 -11z" />
    <glyph glyph-name="Ccaron" unicode="&#x10c;" horiz-adv-x="2687" 
d="M1268 2704l-419 459q-35 37 -22.5 66t63.5 29h329q60 0 95 -50l161 -223l161 223q35 50 95 50h330q50 0 62.5 -29t-22.5 -66l-419 -459q-41 -41 -97 -41h-220q-55 0 -97 41zM2515 679q72 -34 35 -107q-83 -161 -201 -282t-258.5 -194t-294 -109t-321.5 -36
q-177 0 -344.5 39.5t-315 113.5t-271 186t-211.5 250t-137.5 312.5t-49.5 367.5t49.5 367.5t137.5 312.5t211.5 250t271 186t315 113.5t344.5 39.5q168 0 321.5 -36t294 -109t258.5 -194t201 -282q37 -73 -35 -107l-369 -175q-66 -30 -106 37q-95 176 -241 264t-324 88
q-150 0 -276 -55.5t-213.5 -154.5t-136.5 -239.5t-49 -305.5t49 -305.5t136.5 -239.5t213.5 -154.5t276 -55.5q178 0 324 88t241 264q40 67 106 37z" />
    <glyph glyph-name="ccaron" unicode="&#x10d;" horiz-adv-x="2099" 
d="M932 2093l-419 459q-35 38 -22.5 66.5t63.5 28.5h329q60 0 95 -50l161 -223l161 223q35 50 95 50h330q50 0 62.5 -28.5t-22.5 -66.5l-419 -459q-41 -41 -97 -41h-220q-55 0 -97 41zM1936 497q39 -19 46 -45.5t-11 -58.5q-29 -59 -76 -117t-122 -118t-165.5 -105
t-213.5 -73.5t-259 -28.5q-204 0 -386.5 66t-321.5 187t-220.5 305t-81.5 406q0 178 52.5 333t146.5 269.5t220.5 196.5t277 123t313.5 41q136 0 259 -28.5t213 -73.5t165 -104.5t122 -117.5t77 -117q18 -33 11 -59t-46 -45l-340 -166q-25 -15 -46 -10.5t-32.5 14
t-26.5 31.5q-27 41 -53 70.5t-64.5 58.5t-90 44.5t-114.5 15.5q-197 0 -312 -124.5t-115 -351.5t115 -351.5t312 -124.5q63 0 114.5 15.5t90 44.5t64.5 58.5t53 69.5q15 22 26.5 32t32.5 14t46 -11z" />
    <glyph glyph-name="Dcaron" unicode="&#x10e;" horiz-adv-x="2741" 
d="M1058 2704l-419 459q-35 37 -22.5 66t63.5 29h329q60 0 95 -50l161 -223l161 223q35 50 95 50h330q50 0 62.5 -29t-22.5 -66l-419 -459q-41 -41 -97 -41h-220q-55 0 -97 41zM1275 2440q181 0 349 -36.5t314.5 -106t267.5 -175.5t207.5 -239t134 -302.5t47.5 -360.5
t-47.5 -360.5t-134 -302.5t-207.5 -239t-267.5 -175.5t-314.5 -106t-349 -36.5h-780h-249q-28 0 -48.5 20t-20.5 49v2302q0 29 20.5 49t48.5 20h488h541zM1235 496q322 0 514 196t192 528t-192 528t-514 196h-432v-1448h432z" />
    <glyph glyph-name="dcaron" unicode="&#x10f;" horiz-adv-x="2900" 
d="M2571 2616q40 0 79 -10.5t77 -34.5t66.5 -58.5t46 -88t17.5 -118.5q0 -189 -131.5 -399.5t-308.5 -312.5q-21 -10 -40 -6t-31 20l-33 38q-15 18 -14 41t19 41q34 34 52.5 54t44 54t37 69t11.5 73q0 47 -19 75.5t-61 64.5q-97 84 -97 207t83 207t202 84zM2059 2560
q32 0 50.5 -18.5t18.5 -50.5v-2422q0 -32 -18.5 -50.5t-50.5 -18.5h-460q-32 0 -50 18.5t-18 50.5v141q-183 -258 -523 -258q-190 0 -353.5 71t-280 196.5t-183 305t-66.5 390.5t66.5 390.5t183 305t280 196.5t353.5 71q340 0 523 -258v871q0 32 18 50.5t50 18.5h460z
M1152 439q179 0 294.5 129t115.5 347t-115.5 347t-294.5 129q-174 0 -292 -127t-118 -349t118 -349t292 -127z" />
    <glyph glyph-name="Dcroat" unicode="&#x110;" horiz-adv-x="2741" 
d="M1275 2440q181 0 349 -36.5t314.5 -106t267.5 -175.5t207.5 -239t134 -302.5t47.5 -360.5t-47.5 -360.5t-134 -302.5t-207.5 -239t-267.5 -175.5t-314.5 -106t-349 -36.5h-780h-249q-28 0 -48.5 20t-20.5 49v944h-234q-36 0 -56.5 20.5t-20.5 56.5v232q0 36 20.5 57
t56.5 21h234v971q0 29 20.5 49t48.5 20h488h541zM1235 496q322 0 514 196t192 528t-192 528t-514 196h-432v-544h505q36 0 56.5 -21t20.5 -57v-232q0 -36 -20.5 -56.5t-56.5 -20.5h-505v-517h432z" />
    <glyph glyph-name="dcroat" unicode="&#x111;" horiz-adv-x="2478" 
d="M2389 2277q37 0 57.5 -20.5t20.5 -56.5v-100q0 -36 -20.5 -56.5t-57.5 -20.5h-261v-1954q0 -32 -18.5 -50.5t-50.5 -18.5h-460q-32 0 -50 18.5t-18 50.5v141q-183 -258 -523 -258q-190 0 -353.5 71t-280 196.5t-183 305t-66.5 390.5t66.5 390.5t183 305t280 196.5
t353.5 71q340 0 523 -258v403h-416q-36 0 -56.5 20.5t-20.5 56.5v100q0 36 20.5 56.5t56.5 20.5h416v214q0 32 18 50.5t50 18.5h460q32 0 50.5 -18.5t18.5 -50.5v-214h261zM1152 439q179 0 294.5 129t115.5 347t-115.5 347t-294.5 129q-174 0 -292 -127t-118 -349t118 -349
t292 -127z" />
    <glyph glyph-name="Emacron" unicode="&#x112;" horiz-adv-x="2322" 
d="M622 2757q-32 0 -55 22.5t-23 54.5v208q0 32 23 55t55 23h1149q32 0 55 -23t23 -55v-208q0 -32 -23 -54.5t-55 -22.5h-1149zM2117 496q32 0 50.5 -18t18.5 -50v-359q0 -32 -18.5 -50.5t-50.5 -18.5h-1558h-313q-28 0 -48.5 20t-20.5 49v2302q0 29 20.5 49t48.5 20h488
h1343q32 0 50.5 -18.5t18.5 -50.5v-359q0 -32 -18.5 -50t-50.5 -18h-1274v-472h1114q32 0 50.5 -18.5t18.5 -50.5v-324q0 -32 -18.5 -50t-50.5 -18h-1114v-515h1314z" />
    <glyph glyph-name="emacron" unicode="&#x113;" horiz-adv-x="2207" 
d="M521 2146q-32 0 -55 22.5t-23 54.5v208q0 32 23 55t55 23h1149q32 0 55 -23t23 -55v-208q0 -32 -23 -54.5t-55 -22.5h-1149zM1931 473q71 -33 35 -104q-95 -188 -324 -303t-519 -115q-208 0 -390 66t-317 187t-213 304.5t-78 406.5t79 406.5t215 304t318.5 186.5
t391.5 66q158 0 297 -36t260.5 -116t208.5 -199.5t137 -295.5t50 -394h-1377q13 -106 54.5 -189t102.5 -133t132.5 -76t148.5 -26q253 0 363 181q23 35 45 43t59 -8zM1122 1463q-135 0 -240 -81.5t-152 -229.5h746q-18 86 -54.5 148t-85 96.5t-101.5 50.5t-113 16z" />
    <glyph glyph-name="Edotaccent" unicode="&#x116;" horiz-adv-x="2322" 
d="M1196 2636q-135 0 -230.5 95.5t-95.5 231.5q0 135 95.5 231t230.5 96q136 0 231.5 -96t95.5 -231q0 -136 -95.5 -231.5t-231.5 -95.5zM2117 496q32 0 50.5 -18t18.5 -50v-359q0 -32 -18.5 -50.5t-50.5 -18.5h-1558h-313q-28 0 -48.5 20t-20.5 49v2302q0 29 20.5 49
t48.5 20h488h1343q32 0 50.5 -18.5t18.5 -50.5v-359q0 -32 -18.5 -50t-50.5 -18h-1274v-472h1114q32 0 50.5 -18.5t18.5 -50.5v-324q0 -32 -18.5 -50t-50.5 -18h-1114v-515h1314z" />
    <glyph glyph-name="edotaccent" unicode="&#x117;" horiz-adv-x="2207" 
d="M1095 2025q-135 0 -230.5 95.5t-95.5 231.5q0 135 95.5 231t230.5 96q136 0 231.5 -96t95.5 -231q0 -136 -95.5 -231.5t-231.5 -95.5zM1931 473q71 -33 35 -104q-95 -188 -324 -303t-519 -115q-208 0 -390 66t-317 187t-213 304.5t-78 406.5t79 406.5t215 304
t318.5 186.5t391.5 66q158 0 297 -36t260.5 -116t208.5 -199.5t137 -295.5t50 -394h-1377q13 -106 54.5 -189t102.5 -133t132.5 -76t148.5 -26q253 0 363 181q23 35 45 43t59 -8zM1122 1463q-135 0 -240 -81.5t-152 -229.5h746q-18 86 -54.5 148t-85 96.5t-101.5 50.5
t-113 16z" />
    <glyph glyph-name="Eogonek" unicode="&#x118;" horiz-adv-x="2322" 
d="M2117 496q32 0 50.5 -18t18.5 -50v-359q0 -32 -18.5 -50.5t-50.5 -18.5h-97q-110 -71 -180.5 -166t-70.5 -201q0 -76 44 -118t127 -42q46 0 90 12q77 18 77 -56v-183q0 -55 -52 -80q-111 -46 -254 -46q-210 0 -333.5 111.5t-123.5 285.5q0 142 63 267t173 216h-1021h-313
q-28 0 -48.5 20t-20.5 49v2302q0 29 20.5 49t48.5 20h488h1343q32 0 50.5 -18.5t18.5 -50.5v-359q0 -32 -18.5 -50t-50.5 -18h-1274v-472h1114q32 0 50.5 -18.5t18.5 -50.5v-324q0 -32 -18.5 -50t-50.5 -18h-1114v-515h1314z" />
    <glyph glyph-name="eogonek" unicode="&#x119;" horiz-adv-x="2207" 
d="M1931 473q71 -33 35 -104q-58 -114 -169.5 -204t-261.5 -144q-126 -101 -178.5 -191t-52.5 -197q0 -75 46 -117.5t129 -42.5q40 0 91 12q76 20 76 -56v-183q0 -57 -52 -80q-111 -46 -254 -46q-210 0 -335.5 112t-125.5 285q0 248 187 435q-158 7 -300.5 52.5t-259 128.5
t-202 196t-132.5 263t-47 323q0 223 79 406.5t215 304t318.5 186.5t391.5 66q158 0 297 -36t260.5 -116t208.5 -199.5t137 -295.5t50 -394h-1377q13 -106 54.5 -189t102.5 -133t132.5 -76t148.5 -26q253 0 363 181q23 35 45 43t59 -8zM1122 1463q-135 0 -240 -81.5
t-152 -229.5h746q-18 86 -54.5 148t-85 96.5t-101.5 50.5t-113 16z" />
    <glyph glyph-name="Ecaron" unicode="&#x11a;" horiz-adv-x="2322" 
d="M989 2704l-419 459q-35 37 -22.5 66t63.5 29h329q60 0 95 -50l161 -223l161 223q35 50 95 50h330q50 0 62.5 -29t-22.5 -66l-419 -459q-41 -41 -97 -41h-220q-55 0 -97 41zM2117 496q32 0 50.5 -18t18.5 -50v-359q0 -32 -18.5 -50.5t-50.5 -18.5h-1558h-313
q-28 0 -48.5 20t-20.5 49v2302q0 29 20.5 49t48.5 20h488h1343q32 0 50.5 -18.5t18.5 -50.5v-359q0 -32 -18.5 -50t-50.5 -18h-1274v-472h1114q32 0 50.5 -18.5t18.5 -50.5v-324q0 -32 -18.5 -50t-50.5 -18h-1114v-515h1314z" />
    <glyph glyph-name="ecaron" unicode="&#x11b;" horiz-adv-x="2207" 
d="M888 2093l-419 459q-35 38 -22.5 66.5t63.5 28.5h329q60 0 95 -50l161 -223l161 223q35 50 95 50h330q50 0 62.5 -28.5t-22.5 -66.5l-419 -459q-41 -41 -97 -41h-220q-55 0 -97 41zM1931 473q71 -33 35 -104q-95 -188 -324 -303t-519 -115q-208 0 -390 66t-317 187
t-213 304.5t-78 406.5t79 406.5t215 304t318.5 186.5t391.5 66q158 0 297 -36t260.5 -116t208.5 -199.5t137 -295.5t50 -394h-1377q13 -106 54.5 -189t102.5 -133t132.5 -76t148.5 -26q253 0 363 181q23 35 45 43t59 -8zM1122 1463q-135 0 -240 -81.5t-152 -229.5h746
q-18 86 -54.5 148t-85 96.5t-101.5 50.5t-113 16z" />
    <glyph glyph-name="Gbreve" unicode="&#x11e;" horiz-adv-x="2753" 
d="M1446 2623q-142 0 -267.5 46t-214 125.5t-139.5 189t-51 231.5q0 83 71 83h201q75 0 89 -60q21 -126 103.5 -184.5t207.5 -58.5q269 0 311 243q13 60 89 60h200q73 0 73 -76q0 -123 -51 -233.5t-139.5 -191t-214.5 -127.5t-268 -47zM2494 1106q39 0 60.5 -20.5
t21.5 -56.5v-746q-208 -148 -488 -240t-613 -92q-177 0 -344.5 39.5t-315 113.5t-271 186t-211.5 250t-137.5 312.5t-49.5 367.5t49.5 367.5t137.5 312.5t211.5 250t271 186t315 113.5t344.5 39.5q167 0 316.5 -31.5t288 -97.5t257 -177t207.5 -262q19 -36 9 -63t-44 -43
l-369 -176q-64 -30 -106 38q-105 157 -244 227.5t-315 70.5q-150 0 -276 -55.5t-213.5 -154.5t-136.5 -239.5t-49 -305.5t49 -305.5t136.5 -239.5t213.5 -154.5t276 -55.5q300 0 533 102v462q0 36 20.5 56.5t56.5 20.5h409z" />
    <glyph glyph-name="gbreve" unicode="&#x11f;" horiz-adv-x="2190" 
d="M1100 2012q-142 0 -267.5 46t-214 125.5t-139.5 189t-51 231.5q0 83 71 83h201q75 0 89 -60q21 -126 103.5 -184.5t207.5 -58.5q269 0 311 243q13 60 89 60h200q73 0 73 -76q0 -123 -51 -233.5t-139.5 -191t-214.5 -127.5t-268 -47zM2081 1970q30 0 43.5 -12t13.5 -40
v-361q0 -51 -50 -51q-126 0 -202 -78q25 -78 25 -159q0 -129 -60 -241t-167 -193.5t-264 -128.5t-342 -47h-273q-86 0 -128.5 -30.5t-42.5 -83.5t42.5 -83.5t128.5 -30.5h425q420 0 644 -151t224 -424q0 -102 -32 -191.5t-105 -169.5t-181 -137.5t-269.5 -90.5t-362.5 -33
q-238 0 -422 40t-298 112t-171.5 167.5t-57.5 210.5q0 213 192 348q-116 52 -180 144.5t-64 213.5q0 130 75.5 230t221.5 157q-97 81 -148.5 186.5t-51.5 225.5q0 128 60 240t167 193.5t264 128.5t343 47q331 0 556 -142q82 114 197.5 174t249.5 60zM1078 1035q124 0 209 64
t85 170t-85 169.5t-209 63.5q-125 0 -209.5 -63.5t-84.5 -169.5t84.5 -170t209.5 -64zM1564 -191q0 95 -104.5 153t-311.5 58q-206 0 -311 -58.5t-105 -152.5q0 -101 103.5 -157t312.5 -56q210 0 313 56t103 157z" />
    <glyph glyph-name="Gdotaccent" unicode="&#x120;" horiz-adv-x="2753" 
d="M1446 2636q-135 0 -230.5 95.5t-95.5 231.5q0 135 95.5 231t230.5 96q136 0 231.5 -96t95.5 -231q0 -136 -95.5 -231.5t-231.5 -95.5zM2494 1106q39 0 60.5 -20.5t21.5 -56.5v-746q-208 -148 -488 -240t-613 -92q-177 0 -344.5 39.5t-315 113.5t-271 186t-211.5 250
t-137.5 312.5t-49.5 367.5t49.5 367.5t137.5 312.5t211.5 250t271 186t315 113.5t344.5 39.5q167 0 316.5 -31.5t288 -97.5t257 -177t207.5 -262q19 -36 9 -63t-44 -43l-369 -176q-64 -30 -106 38q-105 157 -244 227.5t-315 70.5q-150 0 -276 -55.5t-213.5 -154.5
t-136.5 -239.5t-49 -305.5t49 -305.5t136.5 -239.5t213.5 -154.5t276 -55.5q300 0 533 102v462q0 36 20.5 56.5t56.5 20.5h409z" />
    <glyph glyph-name="gdotaccent" unicode="&#x121;" horiz-adv-x="2190" 
d="M1100 2025q-135 0 -230.5 95.5t-95.5 231.5q0 135 95.5 231t230.5 96q136 0 231.5 -96t95.5 -231q0 -136 -95.5 -231.5t-231.5 -95.5zM2081 1970q30 0 43.5 -12t13.5 -40v-361q0 -51 -50 -51q-126 0 -202 -78q25 -78 25 -159q0 -129 -60 -241t-167 -193.5t-264 -128.5
t-342 -47h-273q-86 0 -128.5 -30.5t-42.5 -83.5t42.5 -83.5t128.5 -30.5h425q420 0 644 -151t224 -424q0 -102 -32 -191.5t-105 -169.5t-181 -137.5t-269.5 -90.5t-362.5 -33q-238 0 -422 40t-298 112t-171.5 167.5t-57.5 210.5q0 213 192 348q-116 52 -180 144.5t-64 213.5
q0 130 75.5 230t221.5 157q-97 81 -148.5 186.5t-51.5 225.5q0 128 60 240t167 193.5t264 128.5t343 47q331 0 556 -142q82 114 197.5 174t249.5 60zM1078 1035q124 0 209 64t85 170t-85 169.5t-209 63.5q-125 0 -209.5 -63.5t-84.5 -169.5t84.5 -170t209.5 -64zM1564 -191
q0 95 -104.5 153t-311.5 58q-206 0 -311 -58.5t-105 -152.5q0 -101 103.5 -157t312.5 -56q210 0 313 56t103 157z" />
    <glyph glyph-name="Gcommaaccent" unicode="&#x122;" horiz-adv-x="2753" 
d="M2494 1106q39 0 60.5 -20.5t21.5 -56.5v-746q-208 -148 -488 -240t-613 -92q-177 0 -344.5 39.5t-315 113.5t-271 186t-211.5 250t-137.5 312.5t-49.5 367.5t49.5 367.5t137.5 312.5t211.5 250t271 186t315 113.5t344.5 39.5q167 0 316.5 -31.5t288 -97.5t257 -177
t207.5 -262q19 -36 9 -63t-44 -43l-369 -176q-64 -30 -106 38q-105 157 -244 227.5t-315 70.5q-150 0 -276 -55.5t-213.5 -154.5t-136.5 -239.5t-49 -305.5t49 -305.5t136.5 -239.5t213.5 -154.5t276 -55.5q300 0 533 102v462q0 36 20.5 56.5t56.5 20.5h409zM1387 -212
q40 0 79 -10.5t77 -34.5t66.5 -58.5t46 -88t17.5 -118.5q0 -189 -131.5 -399.5t-308.5 -312.5q-21 -10 -40 -6t-31 20l-33 38q-15 18 -14 41t19 41q34 34 52.5 54t44 54t37 69t11.5 73q0 47 -19 75.5t-61 64.5q-97 84 -97 207t83 207t202 84z" />
    <glyph glyph-name="gcommaaccent" unicode="&#x123;" horiz-adv-x="2136" 
d="M1120 2018q-40 0 -79 10.5t-77 34.5t-66.5 58.5t-46 88t-17.5 118.5q0 189 131.5 399.5t308.5 312.5q21 10 40 6t31 -20l33 -38q15 -18 14 -41t-19 -41q-34 -34 -52.5 -54t-44 -54t-37 -69t-11.5 -73q0 -47 19 -75.5t61 -64.5q97 -84 97 -207t-83 -207t-202 -84z
M2081 1970q30 0 43.5 -12t13.5 -40v-361q0 -51 -50 -51q-126 0 -202 -78q25 -78 25 -159q0 -129 -60 -241t-167 -193.5t-264 -128.5t-342 -47h-273q-86 0 -128.5 -30.5t-42.5 -83.5t42.5 -83.5t128.5 -30.5h425q420 0 644 -151t224 -424q0 -102 -32 -191.5t-105 -169.5
t-181 -137.5t-269.5 -90.5t-362.5 -33q-238 0 -422 40t-298 112t-171.5 167.5t-57.5 210.5q0 213 192 348q-116 52 -180 144.5t-64 213.5q0 130 75.5 230t221.5 157q-97 81 -148.5 186.5t-51.5 225.5q0 128 60 240t167 193.5t264 128.5t343 47q331 0 556 -142
q82 114 197.5 174t249.5 60zM1078 1035q124 0 209 64t85 170t-85 169.5t-209 63.5q-125 0 -209.5 -63.5t-84.5 -169.5t84.5 -170t209.5 -64zM1564 -191q0 95 -104.5 153t-311.5 58q-206 0 -311 -58.5t-105 -152.5q0 -101 103.5 -157t312.5 -56q210 0 313 56t103 157z" />
    <glyph glyph-name="Hbar" unicode="&#x126;" horiz-adv-x="2847" 
d="M2804 2138q36 0 57 -20.5t21 -56.5v-198q0 -36 -21 -56.5t-57 -20.5h-173v-1717q0 -28 -20.5 -48.5t-48.5 -20.5h-488q-28 0 -48.5 20t-20.5 49v924h-1162v-924q0 -28 -20.5 -48.5t-48.5 -20.5h-488q-28 0 -48.5 20t-20.5 49v1717h-174q-37 0 -57.5 20.5t-20.5 56.5v198
q0 36 20.5 56.5t57.5 20.5h174v233q0 29 20.5 49t48.5 20h488q28 0 48.5 -20.5t20.5 -48.5v-233h1162v233q0 29 20.5 49t48.5 20h488q28 0 48.5 -20.5t20.5 -48.5v-233h173zM2005 1489v297h-1162v-297h1162z" />
    <glyph glyph-name="hbar" unicode="&#x127;" horiz-adv-x="2399" 
d="M1578 1869q167 0 291.5 -47.5t201.5 -138t114.5 -215t37.5 -283.5v-1116q0 -32 -18.5 -50.5t-50.5 -18.5h-460q-32 0 -50 18.5t-18 50.5v908q0 211 -75 303.5t-226 92.5q-166 0 -274.5 -111t-118.5 -308v-885q0 -32 -18.5 -50.5t-50.5 -18.5h-460q-32 0 -50 18.5
t-18 50.5v1954h-247q-36 0 -56.5 20.5t-20.5 56.5v100q0 36 20.5 56.5t56.5 20.5h247v214q0 32 18 50.5t50 18.5h460q32 0 50.5 -18.5t18.5 -50.5v-214h430q36 0 57 -20.5t21 -56.5v-100q0 -36 -21 -56.5t-57 -20.5h-430v-472q100 149 264 233.5t382 84.5z" />
    <glyph glyph-name="Imacron" unicode="&#x12a;" horiz-adv-x="979" 
d="M-163 3042q0 32 23 55t55 23h1149q32 0 55 -23t23 -55v-208q0 -32 -23 -54.5t-55 -22.5h-1149q-32 0 -55 22.5t-23 54.5v208zM177 2371q0 28 20 48.5t48 20.5h489q28 0 48 -20.5t20 -48.5v-2302q0 -28 -20 -48.5t-48 -20.5h-489q-28 0 -48 20.5t-20 48.5v2302z" />
    <glyph glyph-name="imacron" unicode="&#x12b;" horiz-adv-x="950" 
d="M-176 2431q0 32 23 55t55 23h1149q32 0 55 -23t23 -55v-208q0 -32 -23 -54.5t-55 -22.5h-1149q-32 0 -55 22.5t-23 54.5v208zM177 1761q0 32 18 50t50 18h460q32 0 50.5 -18t18.5 -50v-1692q0 -32 -18.5 -50.5t-50.5 -18.5h-460q-32 0 -50 18.5t-18 50.5v1692z" />
    <glyph glyph-name="Iogonek" unicode="&#x12e;" horiz-adv-x="979" 
d="M734 2440q28 0 48 -20.5t20 -48.5v-2302q0 -28 -20 -48.5t-48 -20.5h-244q-110 -71 -180.5 -166t-70.5 -201q0 -76 44 -118t127 -42q46 0 90 12q77 18 77 -56v-183q0 -55 -52 -80q-111 -46 -254 -46q-210 0 -333.5 111.5t-123.5 285.5q0 181 99.5 331t263.5 236v2287
q0 28 20 48.5t48 20.5h489z" />
    <glyph glyph-name="iogonek" unicode="&#x12f;" horiz-adv-x="950" 
d="M476 2025q-135 0 -230.5 95.5t-95.5 231.5q0 135 95.5 231t230.5 96q136 0 231.5 -96t95.5 -231q0 -136 -95.5 -231.5t-231.5 -95.5zM705 1829q32 0 50.5 -18t18.5 -50v-1692q0 -32 -18.5 -50.5t-50.5 -18.5h-202q-110 -71 -180.5 -166t-70.5 -201q0 -76 44 -118t127 -42
q47 0 90 12q77 18 77 -56v-183q0 -55 -52 -80q-111 -46 -254 -46q-210 0 -333.5 111.5t-123.5 285.5q0 177 95.5 325t254.5 235v1684q0 32 18 50t50 18h460z" />
    <glyph glyph-name="Idotaccent" unicode="&#x130;" horiz-adv-x="979" 
d="M489 2636q-135 0 -230.5 95.5t-95.5 231.5q0 135 95.5 231t230.5 96q136 0 231.5 -96t95.5 -231q0 -136 -95.5 -231.5t-231.5 -95.5zM177 2371q0 28 20 48.5t48 20.5h489q28 0 48 -20.5t20 -48.5v-2302q0 -28 -20 -48.5t-48 -20.5h-489q-28 0 -48 20.5t-20 48.5v2302z
" />
    <glyph glyph-name="dotlessi" unicode="&#x131;" horiz-adv-x="950" 
d="M177 1761q0 32 18 50t50 18h460q32 0 50.5 -18t18.5 -50v-1692q0 -32 -18.5 -50.5t-50.5 -18.5h-460q-32 0 -50 18.5t-18 50.5v1692z" />
    <glyph glyph-name="Kcommaaccent" unicode="&#x136;" horiz-adv-x="2672" 
d="M734 2440q28 0 48.5 -20.5t20.5 -48.5v-2302q0 -28 -20.5 -48.5t-48.5 -20.5h-488q-28 0 -48.5 20t-20.5 49v2302q0 29 20.5 49t48.5 20h488zM2596 93q29 -38 14 -65.5t-63 -27.5h-556q-60 0 -93 46l-934 1194l932 1154q33 46 94 46h517q49 0 64 -27t-15 -66l-884 -1078z
M1299 -212q40 0 79 -10.5t77 -34.5t66.5 -58.5t46 -88t17.5 -118.5q0 -189 -131.5 -399.5t-308.5 -312.5q-21 -10 -40 -6t-31 20l-33 38q-15 18 -14 41t19 41q34 34 52.5 54t44 54t37 69t11.5 73q0 47 -19 75.5t-61 64.5q-97 84 -97 207t83 207t202 84z" />
    <glyph glyph-name="kcommaaccent" unicode="&#x137;" horiz-adv-x="2154" 
d="M177 2491q0 32 18 50.5t50 18.5h460q32 0 50.5 -18.5t18.5 -50.5v-2422q0 -32 -18.5 -50.5t-50.5 -18.5h-460q-32 0 -50 18.5t-18 50.5v2422zM1522 0q-64 0 -93 50l-593 927l551 805q29 47 95 47h482q47 0 59 -28.5t-13 -63.5l-533 -740l589 -904q26 -41 13 -67t-60 -26
h-497zM1061 -212q40 0 79 -10.5t77 -34.5t66.5 -58.5t46 -88t17.5 -118.5q0 -189 -131.5 -399.5t-308.5 -312.5q-21 -10 -40 -6t-31 20l-33 38q-15 18 -14 41t19 41q34 34 52.5 54t44 54t37 69t11.5 73q0 47 -19 75.5t-61 64.5q-97 84 -97 207t83 207t202 84z" />
    <glyph glyph-name="Lacute" unicode="&#x139;" horiz-adv-x="2123" 
d="M298 2635q-32 -13 -62 -3.5t-45 37.5l-79 155q-13 27 -2.5 59t38.5 49l728 445q30 16 60 6t45 -38l134 -256q15 -30 6 -61t-40 -44zM1992 514q32 0 50.5 -18.5t18.5 -50.5v-376q0 -32 -18.5 -50.5t-50.5 -18.5h-1435h-311q-28 0 -48.5 20t-20.5 49v2302q0 29 20.5 49
t48.5 20h488q28 0 48.5 -20.5t20.5 -48.5v-1857h1189z" />
    <glyph glyph-name="lacute" unicode="&#x13a;" horiz-adv-x="950" 
d="M285 2755q-32 -13 -62 -3.5t-45 37.5l-79 155q-13 27 -2.5 59t38.5 49l728 445q30 16 60 6t45 -38l134 -256q15 -30 6 -61t-40 -44zM177 2491q0 32 18 50.5t50 18.5h460q32 0 50.5 -18.5t18.5 -50.5v-2422q0 -32 -18.5 -50.5t-50.5 -18.5h-460q-32 0 -50 18.5t-18 50.5
v2422z" />
    <glyph glyph-name="Lcommaaccent" unicode="&#x13b;" horiz-adv-x="2123" 
d="M1992 514q32 0 50.5 -18.5t18.5 -50.5v-376q0 -32 -18.5 -50.5t-50.5 -18.5h-1435h-311q-28 0 -48.5 20t-20.5 49v2302q0 29 20.5 49t48.5 20h488q28 0 48.5 -20.5t20.5 -48.5v-1857h1189zM1092 -212q40 0 79 -10.5t77 -34.5t66.5 -58.5t46 -88t17.5 -118.5
q0 -189 -131.5 -399.5t-308.5 -312.5q-21 -10 -40 -6t-31 20l-33 38q-15 18 -14 41t19 41q34 34 52.5 54t44 54t37 69t11.5 73q0 47 -19 75.5t-61 64.5q-97 84 -97 207t83 207t202 84z" />
    <glyph glyph-name="lcommaaccent" unicode="&#x13c;" horiz-adv-x="950" 
d="M177 2491q0 32 18 50.5t50 18.5h460q32 0 50.5 -18.5t18.5 -50.5v-2422q0 -32 -18.5 -50.5t-50.5 -18.5h-460q-32 0 -50 18.5t-18 50.5v2422zM459 -212q40 0 79 -10.5t77 -34.5t66.5 -58.5t46 -88t17.5 -118.5q0 -189 -131.5 -399.5t-308.5 -312.5q-21 -10 -40 -6t-31 20
l-33 38q-15 18 -14 41t19 41q34 34 52.5 54t44 54t37 69t11.5 73q0 47 -19 75.5t-61 64.5q-97 84 -97 207t83 207t202 84z" />
    <glyph glyph-name="Lcaron" unicode="&#x13d;" horiz-adv-x="2169" 
d="M1558 2118q-97 84 -97 207t83 207t202 84q40 0 79 -10.5t77 -34.5t66.5 -58.5t46 -88t17.5 -118.5q0 -189 -131.5 -399.5t-308.5 -312.5q-21 -10 -40 -6t-31 20l-33 38q-15 18 -14 41t19 41q34 34 52.5 54t44 54t37 69t11.5 73q0 47 -19 75.5t-61 64.5zM1992 514
q32 0 50.5 -18.5t18.5 -50.5v-376q0 -32 -18.5 -50.5t-50.5 -18.5h-1435h-311q-28 0 -48.5 20t-20.5 49v2302q0 29 20.5 49t48.5 20h488q28 0 48.5 -20.5t20.5 -48.5v-1857h1189z" />
    <glyph glyph-name="lcaron" unicode="&#x13e;" horiz-adv-x="1540" 
d="M1223 2616q40 0 79 -10.5t77 -34.5t66.5 -58.5t46 -88t17.5 -118.5q0 -189 -131.5 -399.5t-308.5 -312.5q-21 -10 -40 -6t-31 20l-33 38q-15 18 -14 41t19 41q34 34 52.5 54t44 54t37 69t11.5 73q0 47 -19 75.5t-61 64.5q-97 84 -97 207t83 207t202 84zM177 2491
q0 32 18 50.5t50 18.5h460q32 0 50.5 -18.5t18.5 -50.5v-2422q0 -32 -18.5 -50.5t-50.5 -18.5h-460q-32 0 -50 18.5t-18 50.5v2422z" />
    <glyph glyph-name="Lslash" unicode="&#x141;" horiz-adv-x="2403" 
d="M2271 514q32 0 50.5 -18.5t18.5 -50.5v-376q0 -32 -18.5 -50.5t-50.5 -18.5h-1435h-311q-29 0 -49 20t-20 49v742l-229 -109q-33 -16 -60.5 -6.5t-43.5 42.5l-114 241q-15 32 -5.5 59.5t42.5 43.5l410 196v1093q0 29 20 49t49 20h488q28 0 48.5 -20.5t20.5 -48.5v-794
l650 310q33 16 60.5 6t43.5 -42l114 -241q15 -33 5 -60t-42 -43l-831 -397v-596h1189z" />
    <glyph glyph-name="lslash" unicode="&#x142;" horiz-adv-x="1394" 
d="M1379 1468q15 -32 5.5 -59.5t-42.5 -43.5l-343 -163v-1133q0 -32 -18.5 -50.5t-50.5 -18.5h-460q-32 0 -50 18.5t-18 50.5v848l-154 -73q-33 -16 -60.5 -6.5t-43.5 42.5l-114 241q-15 32 -5 59.5t43 42.5l334 160v1108q0 32 18 50.5t50 18.5h460q32 0 50.5 -18.5
t18.5 -50.5v-823l161 77q34 16 61.5 6.5t43.5 -42.5z" />
    <glyph glyph-name="Nacute" unicode="&#x143;" horiz-adv-x="2789" 
d="M1244 2635q-32 -13 -62 -3.5t-45 37.5l-79 155q-13 27 -2.5 59t38.5 49l728 445q30 16 60 6t45 -38l134 -256q15 -30 6 -61t-40 -44zM2535 2440q37 0 57.5 -20.5t20.5 -56.5v-2308q0 -36 -20.5 -57t-57.5 -21h-127q-60 0 -96 34l-1510 1354v-1288q0 -36 -20.5 -56.5
t-56.5 -20.5h-471q-36 0 -56.5 20.5t-20.5 56.5v2308q0 36 20.5 57t56.5 21h127q59 0 97 -34l1509 -1357v1291q0 36 20.5 56.5t57.5 20.5h470z" />
    <glyph glyph-name="nacute" unicode="&#x144;" 
d="M880 2058l-79 155q-13 27 -2.5 59t38.5 49l728 445q30 16 60 6t45 -38l134 -256q15 -30 6 -61t-40 -44l-783 -349q-32 -13 -62 -3.5t-45 37.5zM1420 1869q167 0 291.5 -47.5t201.5 -138t114.5 -215t37.5 -283.5v-1116q0 -32 -18.5 -50.5t-50.5 -18.5h-460q-32 0 -50 18.5
t-18 50.5v908q0 211 -75 303.5t-226 92.5q-166 0 -274.5 -111t-118.5 -308v-885q0 -32 -18.5 -50.5t-50.5 -18.5h-459q-32 0 -50.5 18.5t-18.5 50.5v1692q0 32 18.5 50t50.5 18h459q32 0 50.5 -18t18.5 -50v-210q100 149 264 233.5t382 84.5z" />
    <glyph glyph-name="Ncommaaccent" unicode="&#x145;" horiz-adv-x="2789" 
d="M2535 2440q37 0 57.5 -20.5t20.5 -56.5v-2308q0 -36 -20.5 -57t-57.5 -21h-127q-60 0 -96 34l-1510 1354v-1288q0 -36 -20.5 -56.5t-56.5 -20.5h-471q-36 0 -56.5 20.5t-20.5 56.5v2308q0 36 20.5 57t56.5 21h127q59 0 97 -34l1509 -1357v1291q0 36 20.5 56.5t57.5 20.5
h470zM1418 -212q40 0 79 -10.5t77 -34.5t66.5 -58.5t46 -88t17.5 -118.5q0 -189 -131.5 -399.5t-308.5 -312.5q-21 -10 -40 -6t-31 20l-33 38q-15 18 -14 41t19 41q34 34 52.5 54t44 54t37 69t11.5 73q0 47 -19 75.5t-61 64.5q-97 84 -97 207t83 207t202 84z" />
    <glyph glyph-name="ncommaaccent" unicode="&#x146;" 
d="M1420 1869q167 0 291.5 -47.5t201.5 -138t114.5 -215t37.5 -283.5v-1116q0 -32 -18.5 -50.5t-50.5 -18.5h-460q-32 0 -50 18.5t-18 50.5v908q0 211 -75 303.5t-226 92.5q-166 0 -274.5 -111t-118.5 -308v-885q0 -32 -18.5 -50.5t-50.5 -18.5h-459q-32 0 -50.5 18.5
t-18.5 50.5v1692q0 32 18.5 50t50.5 18h459q32 0 50.5 -18t18.5 -50v-210q100 149 264 233.5t382 84.5zM1104 -212q40 0 79 -10.5t77 -34.5t66.5 -58.5t46 -88t17.5 -118.5q0 -189 -131.5 -399.5t-308.5 -312.5q-21 -10 -40 -6t-31 20l-33 38q-15 18 -14 41t19 41
q34 34 52.5 54t44 54t37 69t11.5 73q0 47 -19 75.5t-61 64.5q-97 84 -97 207t83 207t202 84z" />
    <glyph glyph-name="Ncaron" unicode="&#x147;" horiz-adv-x="2789" 
d="M1596 3208q35 50 95 50h330q50 0 62.5 -29t-22.5 -66l-419 -459q-41 -41 -97 -41h-220q-55 0 -97 41l-419 459q-35 37 -22.5 66t63.5 29h329q60 0 95 -50l161 -223zM2535 2440q37 0 57.5 -20.5t20.5 -56.5v-2308q0 -36 -20.5 -57t-57.5 -21h-127q-60 0 -96 34l-1510 1354
v-1288q0 -36 -20.5 -56.5t-56.5 -20.5h-471q-36 0 -56.5 20.5t-20.5 56.5v2308q0 36 20.5 57t56.5 21h127q59 0 97 -34l1509 -1357v1291q0 36 20.5 56.5t57.5 20.5h470z" />
    <glyph glyph-name="ncaron" unicode="&#x148;" 
d="M971 2093l-419 459q-35 38 -22.5 66.5t63.5 28.5h329q60 0 95 -50l161 -223l161 223q35 50 95 50h330q50 0 62.5 -28.5t-22.5 -66.5l-419 -459q-41 -41 -97 -41h-220q-55 0 -97 41zM1420 1869q167 0 291.5 -47.5t201.5 -138t114.5 -215t37.5 -283.5v-1116
q0 -32 -18.5 -50.5t-50.5 -18.5h-460q-32 0 -50 18.5t-18 50.5v908q0 211 -75 303.5t-226 92.5q-166 0 -274.5 -111t-118.5 -308v-885q0 -32 -18.5 -50.5t-50.5 -18.5h-459q-32 0 -50.5 18.5t-18.5 50.5v1692q0 32 18.5 50t50.5 18h459q32 0 50.5 -18t18.5 -50v-210
q100 149 264 233.5t382 84.5z" />
    <glyph glyph-name="Eng" unicode="&#x14a;" horiz-adv-x="2789" 
d="M2535 2440q37 0 57.5 -20.5t20.5 -56.5v-2259q0 -181 -50 -327.5t-150.5 -256t-263 -169t-376.5 -59.5q-31 0 -52 20t-21 50v269q0 27 17.5 45.5t45.5 23.5q253 37 253 387v189l-1214 1089v-1288q0 -36 -20.5 -56.5t-56.5 -20.5h-471q-36 0 -56.5 20.5t-20.5 56.5v2308
q0 36 20.5 57t56.5 21h127q59 0 97 -34l1509 -1357v1291q0 36 20.5 56.5t57.5 20.5h470z" />
    <glyph glyph-name="eng" unicode="&#x14b;" 
d="M1421 1869q167 0 291.5 -47.5t201 -138t114 -215t37.5 -283.5v-1081q0 -181 -50 -327.5t-150.5 -256t-263 -169t-376.5 -59.5q-31 0 -52 20t-21 50v269q0 27 17.5 45.5t45.5 23.5q253 37 253 387v890q0 212 -74.5 304t-226.5 92q-175 0 -284 -121.5t-109 -336.5v-846
q0 -32 -18.5 -50.5t-50.5 -18.5h-459q-32 0 -50.5 18.5t-18.5 50.5v1692q0 32 18.5 50t50.5 18h459q32 0 50.5 -18t18.5 -50v-212q99 150 263.5 235t383.5 85z" />
    <glyph glyph-name="Omacron" unicode="&#x14c;" horiz-adv-x="2949" 
d="M823 3042q0 32 23 55t55 23h1149q32 0 55 -23t23 -55v-208q0 -32 -23 -54.5t-55 -22.5h-1149q-32 0 -55 22.5t-23 54.5v208zM1475 2489q177 0 344.5 -39.5t315 -113.5t271 -186t211.5 -250t137.5 -312.5t49.5 -367.5t-49.5 -367.5t-137.5 -312.5t-211.5 -250t-271 -186
t-315 -113.5t-344.5 -39.5t-345 39.5t-315.5 113.5t-271 186t-211.5 250t-137.5 312.5t-49.5 367.5t49.5 367.5t137.5 312.5t211.5 250t271 186t315.5 113.5t345 39.5zM1475 465q199 0 353 95.5t238 267t84 392.5t-84 392.5t-238 267t-353 95.5q-150 0 -276 -55.5
t-213.5 -154.5t-136.5 -239.5t-49 -305.5t49 -305.5t136.5 -239.5t213.5 -154.5t276 -55.5z" />
    <glyph glyph-name="omacron" unicode="&#x14d;" horiz-adv-x="2304" 
d="M500 2431q0 32 23 55t55 23h1149q32 0 55 -23t23 -55v-208q0 -32 -23 -54.5t-55 -22.5h-1149q-32 0 -55 22.5t-23 54.5v208zM1152 1878q167 0 320 -41t281.5 -123t223.5 -196.5t148.5 -269.5t53.5 -333q0 -222 -82.5 -406t-223 -305t-326.5 -187t-395 -66t-395 66
t-326.5 187t-223 305t-82.5 406q0 178 53.5 333t148.5 269.5t223.5 196.5t281.5 123t320 41zM1152 439q174 0 292 127t118 349t-118 349t-292 127t-292 -127t-118 -349t118 -349t292 -127z" />
    <glyph glyph-name="Ohungarumlaut" unicode="&#x150;" horiz-adv-x="2949" 
d="M1222 2663q-19 -28 -50 -35.5t-59 7.5l-149 89q-25 17 -33 49.5t6 61.5l379 763q15 29 47.5 37t58.5 -8l249 -145q29 -18 37.5 -48t-10.5 -59zM1798 2635q-32 -13 -62 -3.5t-45 37.5l-79 155q-13 27 -2.5 59t38.5 49l728 445q30 16 60 6t45 -38l134 -256q15 -30 6 -61
t-40 -44zM1475 2489q177 0 344.5 -39.5t315 -113.5t271 -186t211.5 -250t137.5 -312.5t49.5 -367.5t-49.5 -367.5t-137.5 -312.5t-211.5 -250t-271 -186t-315 -113.5t-344.5 -39.5t-345 39.5t-315.5 113.5t-271 186t-211.5 250t-137.5 312.5t-49.5 367.5t49.5 367.5
t137.5 312.5t211.5 250t271 186t315.5 113.5t345 39.5zM1475 465q199 0 353 95.5t238 267t84 392.5t-84 392.5t-238 267t-353 95.5q-150 0 -276 -55.5t-213.5 -154.5t-136.5 -239.5t-49 -305.5t49 -305.5t136.5 -239.5t213.5 -154.5t276 -55.5z" />
    <glyph glyph-name="ohungarumlaut" unicode="&#x151;" horiz-adv-x="2304" 
d="M899 2052q-19 -28 -50 -35.5t-59 7.5l-149 89q-25 17 -33 49.5t6 61.5l379 763q15 29 47.5 37t58.5 -8l249 -145q29 -18 37.5 -48t-10.5 -59zM1475 2024q-32 -13 -62 -3.5t-45 37.5l-79 155q-13 27 -2.5 59t38.5 49l728 445q30 16 60 6t45 -38l134 -256q15 -30 6 -61
t-40 -44zM1152 1878q167 0 320 -41t281.5 -123t223.5 -196.5t148.5 -269.5t53.5 -333q0 -222 -82.5 -406t-223 -305t-326.5 -187t-395 -66t-395 66t-326.5 187t-223 305t-82.5 406q0 178 53.5 333t148.5 269.5t223.5 196.5t281.5 123t320 41zM1152 439q174 0 292 127
t118 349t-118 349t-292 127t-292 -127t-118 -349t118 -349t292 -127z" />
    <glyph glyph-name="OE" unicode="&#x152;" horiz-adv-x="3838" 
d="M3683 496q32 0 50.5 -18t18.5 -50v-359q0 -32 -18.5 -50.5t-50.5 -18.5h-1847q-170 -45 -361 -45q-177 0 -344.5 39.5t-315 113.5t-271 186t-211.5 250t-137.5 312.5t-49.5 367.5t49.5 367.5t137.5 312.5t211.5 250t271 186t315 113.5t344.5 39.5q205 0 390 -53h1778
q32 0 50.5 -18.5t18.5 -50.5v-359q0 -32 -18.5 -50t-50.5 -18h-1118q127 -209 167 -472h791q32 0 50.5 -18.5t18.5 -50.5v-324q0 -32 -18.5 -50t-50.5 -18h-786q-37 -287 -177 -515h1163zM800 1224q0 -165 49 -305.5t136.5 -239.5t213.5 -154.5t276 -55.5q199 0 353 95.5
t238 267t84 392.5t-84 392.5t-238 267t-353 95.5q-150 0 -276 -55.5t-213.5 -154.5t-136.5 -239.5t-49 -305.5z" />
    <glyph glyph-name="oe" unicode="&#x153;" horiz-adv-x="3691" 
d="M3416 473q71 -33 35 -104q-95 -188 -324 -303t-519 -115q-214 0 -399.5 68.5t-320.5 197.5q-141 -129 -331.5 -197.5t-404.5 -68.5q-209 0 -395 66t-326.5 187t-223 305t-82.5 406q0 178 53.5 333t148.5 269.5t223.5 196.5t281.5 123t320 41q214 0 405 -69t332 -198
q137 130 324 198.5t401 68.5q158 0 297 -36t260.5 -116t208.5 -199.5t137 -295.5t50 -394h-1377q13 -106 54.5 -189t102.5 -133t132.5 -76t148.5 -26q253 0 363 181q23 35 45 43t59 -8zM2607 1463q-135 0 -240 -81.5t-152 -229.5h746q-18 86 -54.5 148t-85 96.5t-101.5 50.5
t-113 16zM1152 439q174 0 292 127t118 349t-118 349t-292 127t-292 -127t-118 -349t118 -349t292 -127z" />
    <glyph glyph-name="Racute" unicode="&#x154;" horiz-adv-x="2439" 
d="M874 2669l-79 155q-13 27 -2.5 59t38.5 49l728 445q30 16 60 6t45 -38l134 -256q15 -30 6 -61t-40 -44l-783 -349q-32 -13 -62 -3.5t-45 37.5zM2290 146q32 -55 5.5 -100.5t-88.5 -45.5h-478q-40 0 -59 36l-448 768h-419v-735q0 -28 -20.5 -48.5t-48.5 -20.5h-488
q-28 0 -48.5 20t-20.5 49v2302q0 29 20.5 49t48.5 20h488h555q238 0 428.5 -62t313.5 -172.5t188 -259t65 -324.5q0 -239 -118 -426t-341 -288zM803 1961v-679h363q250 0 361 88t111 252t-111 251.5t-361 87.5h-363z" />
    <glyph glyph-name="racute" unicode="&#x155;" horiz-adv-x="1413" 
d="M410 2058l-79 155q-13 27 -2.5 59t38.5 49l728 445q30 16 60 6t45 -38l134 -256q15 -30 6 -61t-40 -44l-783 -349q-32 -13 -62 -3.5t-45 37.5zM1266 1864q40 0 58 -16t18 -53v-489q0 -31 -16 -45.5t-50 -21.5q-51 -10 -91.5 -20.5t-95 -31.5t-96 -47t-84.5 -67t-71 -91
t-46 -121t-18 -155v-637q0 -32 -18.5 -50.5t-50.5 -18.5h-459q-32 0 -50.5 18.5t-18.5 50.5v1692q0 32 18.5 50t50.5 18h459q32 0 50.5 -18t18.5 -50v-292q41 94 104 171.5t130.5 125t134.5 73t123 25.5z" />
    <glyph glyph-name="Rcommaaccent" unicode="&#x156;" horiz-adv-x="2439" 
d="M2290 146q32 -55 5.5 -100.5t-88.5 -45.5h-478q-40 0 -59 36l-448 768h-419v-735q0 -28 -20.5 -48.5t-48.5 -20.5h-488q-28 0 -48.5 20t-20.5 49v2302q0 29 20.5 49t48.5 20h488h555q238 0 428.5 -62t313.5 -172.5t188 -259t65 -324.5q0 -239 -118 -426t-341 -288z
M803 1961v-679h363q250 0 361 88t111 252t-111 251.5t-361 87.5h-363zM1155 -212q40 0 79 -10.5t77 -34.5t66.5 -58.5t46 -88t17.5 -118.5q0 -189 -131.5 -399.5t-308.5 -312.5q-21 -10 -40 -6t-31 20l-33 38q-15 18 -14 41t19 41q34 34 52.5 54t44 54t37 69t11.5 73
q0 47 -19 75.5t-61 64.5q-97 84 -97 207t83 207t202 84z" />
    <glyph glyph-name="rcommaaccent" unicode="&#x157;" horiz-adv-x="1413" 
d="M1266 1864q40 0 58 -16t18 -53v-489q0 -31 -16 -45.5t-50 -21.5q-51 -10 -91.5 -20.5t-95 -31.5t-96 -47t-84.5 -67t-71 -91t-46 -121t-18 -155v-637q0 -32 -18.5 -50.5t-50.5 -18.5h-459q-32 0 -50.5 18.5t-18.5 50.5v1692q0 32 18.5 50t50.5 18h459q32 0 50.5 -18
t18.5 -50v-292q41 94 104 171.5t130.5 125t134.5 73t123 25.5zM443 -212q40 0 79 -10.5t77 -34.5t66.5 -58.5t46 -88t17.5 -118.5q0 -189 -131.5 -399.5t-308.5 -312.5q-21 -10 -40 -6t-31 20l-33 38q-15 18 -14 41t19 41q34 34 52.5 54t44 54t37 69t11.5 73q0 47 -19 75.5
t-61 64.5q-97 84 -97 207t83 207t202 84z" />
    <glyph glyph-name="Rcaron" unicode="&#x158;" horiz-adv-x="2439" 
d="M965 2704l-419 459q-35 37 -22.5 66t63.5 29h329q60 0 95 -50l161 -223l161 223q35 50 95 50h330q50 0 62.5 -29t-22.5 -66l-419 -459q-41 -41 -97 -41h-220q-55 0 -97 41zM2290 146q32 -55 5.5 -100.5t-88.5 -45.5h-478q-40 0 -59 36l-448 768h-419v-735
q0 -28 -20.5 -48.5t-48.5 -20.5h-488q-28 0 -48.5 20t-20.5 49v2302q0 29 20.5 49t48.5 20h488h555q238 0 428.5 -62t313.5 -172.5t188 -259t65 -324.5q0 -239 -118 -426t-341 -288zM803 1961v-679h363q250 0 361 88t111 252t-111 251.5t-361 87.5h-363z" />
    <glyph glyph-name="rcaron" unicode="&#x159;" horiz-adv-x="1413" 
d="M598 2052q-55 0 -97 41l-419 459q-35 38 -22.5 66.5t63.5 28.5h329q60 0 95 -50l161 -223l161 223q35 50 95 50h330q50 0 62.5 -28.5t-22.5 -66.5l-419 -459q-41 -41 -97 -41h-220zM1266 1864q40 0 58 -16t18 -53v-489q0 -31 -16 -45.5t-50 -21.5q-51 -10 -91.5 -20.5
t-95 -31.5t-96 -47t-84.5 -67t-71 -91t-46 -121t-18 -155v-637q0 -32 -18.5 -50.5t-50.5 -18.5h-459q-32 0 -50.5 18.5t-18.5 50.5v1692q0 32 18.5 50t50.5 18h459q32 0 50.5 -18t18.5 -50v-292q41 94 104 171.5t130.5 125t134.5 73t123 25.5z" />
    <glyph glyph-name="Sacute" unicode="&#x15a;" horiz-adv-x="2297" 
d="M979 2635q-32 -13 -62 -3.5t-45 37.5l-79 155q-13 27 -2.5 59t38.5 49l728 445q30 16 60 6t45 -38l134 -256q15 -30 6 -61t-40 -44zM840 1793q0 -59 45 -105t120.5 -78t174 -61t207.5 -61.5t217.5 -71.5t207 -98.5t174 -135t120.5 -188t45 -251.5q0 -158 -57.5 -289
t-156.5 -221.5t-235 -152.5t-291 -91t-326 -29q-474 0 -897 235q-64 38 -34 104l142 311q31 69 99 37q194 -97 278 -128q191 -71 407 -71q196 0 302 55t106 167q0 68 -43.5 120t-117.5 87.5t-169.5 66t-201 62.5t-211 69.5t-201 94t-169.5 129.5t-117.5 182.5t-43.5 246.5
q0 165 66.5 304.5t191 241t312.5 158.5t421 57q467 0 839 -210q66 -36 35 -102l-136 -296q-33 -72 -112 -30q-67 36 -107.5 55.5t-125 53.5t-175 51t-184.5 17q-105 0 -185.5 -20.5t-125 -55.5t-66.5 -75t-22 -84z" />
    <glyph glyph-name="sacute" unicode="&#x15b;" horiz-adv-x="1895" 
d="M747 2024q-32 -13 -62 -3.5t-45 37.5l-79 155q-13 27 -2.5 59t38.5 49l728 445q30 16 60 6t45 -38l134 -256q15 -30 6 -61t-40 -44zM781 1329q0 -42 34 -74.5t91 -55.5t131.5 -44.5t156.5 -45.5t163.5 -53.5t156 -74.5t131.5 -102t91 -142t34 -190q0 -119 -43.5 -218
t-121 -168t-184 -117t-232 -70.5t-266.5 -22.5q-215 0 -415.5 50t-335.5 136q-66 41 -37 102l117 255q17 38 46 48t59 -7q102 -53 166 -81.5t161.5 -52.5t197.5 -24q117 0 185 31t68 94q0 41 -33 73.5t-88.5 56t-127.5 45t-151.5 46t-159 54t-151.5 74.5t-127.5 101.5
t-88.5 141t-33 187.5q0 183 99.5 318.5t281 207t423.5 71.5q195 0 368.5 -45t300.5 -120q65 -39 37 -102l-110 -238q-32 -74 -100 -37q-228 130 -446 130q-117 0 -182.5 -37t-65.5 -100z" />
    <glyph glyph-name="Scedilla" unicode="&#x15e;" horiz-adv-x="2297" 
d="M2151 743q0 -175 -69 -315.5t-191 -233.5t-277.5 -149.5t-340.5 -75.5l-55 -134q211 33 343 -52t132 -263q0 -128 -71 -220t-185 -136t-257 -44q-184 0 -308 79q-61 40 -34 105l23 56q27 72 105 40q96 -45 170 -45q79 0 130.5 38t51.5 112q0 123 -157 130q-61 2 -200 -17
q-52 -6 -72 12.5t-2 63.5l104 268q-421 22 -803 233q-64 38 -34 104l142 311q31 69 99 37q194 -97 278 -128q191 -71 407 -71q196 0 302 55t106 167q0 68 -43.5 120t-117.5 87.5t-169.5 66t-201 62.5t-211 69.5t-201 94t-169.5 129.5t-117.5 182.5t-43.5 246.5
q0 165 66.5 304.5t191 241t312.5 158.5t421 57q467 0 839 -210q66 -36 35 -102l-136 -296q-33 -72 -112 -30q-67 36 -107.5 55.5t-125 53.5t-175 51t-184.5 17q-105 0 -185.5 -20.5t-125 -55.5t-66.5 -75t-22 -84q0 -59 45 -105t120.5 -78t174 -61t207.5 -61.5t217.5 -71.5
t207 -98.5t174 -135t120.5 -188t45 -251.5z" />
    <glyph glyph-name="scedilla" unicode="&#x15f;" horiz-adv-x="1895" 
d="M1770 547q0 -106 -34.5 -196t-96.5 -156.5t-149 -116.5t-190.5 -79t-222.5 -41l-51 -123q211 33 343 -52t132 -263q0 -128 -71 -220t-185 -136t-257 -44q-184 0 -308 79q-61 40 -34 105l23 56q27 72 105 40q96 -45 170 -45q79 0 130.5 38t51.5 112q0 123 -157 130
q-59 2 -200 -17q-52 -6 -72 12.5t-2 63.5l101 262q-181 13 -345 60.5t-279 120.5q-66 41 -37 102l117 255q17 38 46 48t59 -7q102 -53 166 -81.5t161.5 -52.5t197.5 -24q117 0 185 31t68 94q0 41 -33 73.5t-88.5 56t-127.5 45t-151.5 46t-159 54t-151.5 74.5t-127.5 101.5
t-88.5 141t-33 187.5q0 183 99.5 318.5t281 207t423.5 71.5q195 0 368.5 -45t300.5 -120q65 -39 37 -102l-110 -238q-32 -74 -100 -37q-228 130 -446 130q-117 0 -182.5 -37t-65.5 -100q0 -42 34 -74.5t91 -55.5t131.5 -44.5t156.5 -45.5t163.5 -53.5t156 -74.5t131.5 -102
t91 -142t34 -190z" />
    <glyph glyph-name="Scaron" unicode="&#x160;" horiz-adv-x="2297" 
d="M1331 3208q35 50 95 50h330q50 0 62.5 -29t-22.5 -66l-419 -459q-41 -41 -97 -41h-220q-55 0 -97 41l-419 459q-35 37 -22.5 66t63.5 29h329q60 0 95 -50l161 -223zM840 1793q0 -59 45 -105t120.5 -78t174 -61t207.5 -61.5t217.5 -71.5t207 -98.5t174 -135t120.5 -188
t45 -251.5q0 -158 -57.5 -289t-156.5 -221.5t-235 -152.5t-291 -91t-326 -29q-474 0 -897 235q-64 38 -34 104l142 311q31 69 99 37q194 -97 278 -128q191 -71 407 -71q196 0 302 55t106 167q0 68 -43.5 120t-117.5 87.5t-169.5 66t-201 62.5t-211 69.5t-201 94
t-169.5 129.5t-117.5 182.5t-43.5 246.5q0 165 66.5 304.5t191 241t312.5 158.5t421 57q467 0 839 -210q66 -36 35 -102l-136 -296q-33 -72 -112 -30q-67 36 -107.5 55.5t-125 53.5t-175 51t-184.5 17q-105 0 -185.5 -20.5t-125 -55.5t-66.5 -75t-22 -84z" />
    <glyph glyph-name="scaron" unicode="&#x161;" horiz-adv-x="1895" 
d="M1099 2597q35 50 95 50h330q50 0 62.5 -28.5t-22.5 -66.5l-419 -459q-41 -41 -97 -41h-220q-55 0 -97 41l-419 459q-35 38 -22.5 66.5t63.5 28.5h329q60 0 95 -50l161 -223zM781 1329q0 -42 34 -74.5t91 -55.5t131.5 -44.5t156.5 -45.5t163.5 -53.5t156 -74.5t131.5 -102
t91 -142t34 -190q0 -119 -43.5 -218t-121 -168t-184 -117t-232 -70.5t-266.5 -22.5q-215 0 -415.5 50t-335.5 136q-66 41 -37 102l117 255q17 38 46 48t59 -7q102 -53 166 -81.5t161.5 -52.5t197.5 -24q117 0 185 31t68 94q0 41 -33 73.5t-88.5 56t-127.5 45t-151.5 46
t-159 54t-151.5 74.5t-127.5 101.5t-88.5 141t-33 187.5q0 183 99.5 318.5t281 207t423.5 71.5q195 0 368.5 -45t300.5 -120q65 -39 37 -102l-110 -238q-32 -74 -100 -37q-228 130 -446 130q-117 0 -182.5 -37t-65.5 -100z" />
    <glyph glyph-name="uni0162" unicode="&#x162;" horiz-adv-x="2497" 
d="M2312 2440q28 0 48.5 -20.5t20.5 -48.5v-376q0 -28 -20.5 -48.5t-48.5 -20.5h-750v-1857q0 -28 -20.5 -48.5t-48.5 -20.5h-88l-68 -165q211 33 343 -52t132 -263q0 -128 -71 -220t-185 -136t-257 -44q-184 0 -308 79q-61 40 -34 105l23 56q27 72 105 40q96 -45 170 -45
q79 0 130.5 38t51.5 112q0 123 -157 130q-61 2 -200 -17q-52 -6 -72 12.5t-2 63.5l119 306h-120q-29 0 -49 20t-20 49v1857h-751q-28 0 -48 20.5t-20 48.5v376q0 28 20 48.5t48 20.5h1308h819z" />
    <glyph glyph-name="uni0163" unicode="&#x163;" horiz-adv-x="1757" 
d="M1661 215q30 -66 -31 -104q-231 -138 -492 -157l-49 -119q211 33 343 -52t132 -263q0 -128 -71 -220t-185 -136t-257 -44q-184 0 -308 79q-61 40 -34 105l23 56q27 72 105 40q96 -45 170 -45q79 0 130.5 38t51.5 112q0 123 -157 130q-59 2 -200 -17q-52 -6 -72 12.5
t-2 63.5l106 275q-233 49 -358 221.5t-125 440.5v720h-225q-36 0 -57 20.5t-21 56.5v324q0 36 21 56.5t57 20.5h225v274q0 63 77 86l430 126q44 13 67 -2t23 -53v-431h521q36 0 57 -20.5t21 -56.5v-324q0 -36 -21 -56.5t-57 -20.5h-521v-593q0 -165 49.5 -246.5t175.5 -81.5
q105 0 234 72q73 40 106 -33z" />
    <glyph glyph-name="Tcaron" unicode="&#x164;" horiz-adv-x="2497" 
d="M1042 2704l-419 459q-35 37 -22.5 66t63.5 29h329q60 0 95 -50l161 -223l161 223q35 50 95 50h330q50 0 62.5 -29t-22.5 -66l-419 -459q-41 -41 -97 -41h-220q-55 0 -97 41zM2312 2440q28 0 48.5 -20.5t20.5 -48.5v-376q0 -28 -20.5 -48.5t-48.5 -20.5h-750v-1857
q0 -28 -20.5 -48.5t-48.5 -20.5h-488q-29 0 -49 20t-20 49v1857h-751q-28 0 -48 20.5t-20 48.5v376q0 28 20 48.5t48 20.5h1308h819z" />
    <glyph glyph-name="tcaron" unicode="&#x165;" horiz-adv-x="2246" 
d="M1955 2616q40 0 79 -10.5t77 -34.5t66.5 -58.5t46 -88t17.5 -118.5q0 -189 -131.5 -399.5t-308.5 -312.5q-21 -10 -40 -6t-31 20l-33 38q-15 18 -14 41t19 41q34 34 52.5 54t44 54t37 69t11.5 73q0 47 -19 75.5t-61 64.5q-97 84 -97 207t83 207t202 84zM1543 469
l118 -254q30 -66 -31 -104q-268 -160 -582 -160q-319 0 -493 181t-174 499v720h-225q-36 0 -57 20.5t-21 56.5v324q0 36 21 56.5t57 20.5h225v274q0 63 77 86l430 126q44 13 67 -2t23 -53v-431h521q36 0 57 -20.5t21 -56.5v-324q0 -36 -21 -56.5t-57 -20.5h-521v-593
q0 -165 49.5 -246.5t175.5 -81.5q105 0 234 72q73 40 106 -33z" />
    <glyph glyph-name="Tbar" unicode="&#x166;" horiz-adv-x="2397" 
d="M2312 2440q28 0 48.5 -20.5t20.5 -48.5v-376q0 -28 -20.5 -48.5t-48.5 -20.5h-750v-400h319q36 0 56.5 -21t20.5 -57v-232q0 -36 -20.5 -56.5t-56.5 -20.5h-319v-1070q0 -28 -20.5 -48.5t-48.5 -20.5h-488q-29 0 -49 20t-20 49v1070h-420q-36 0 -56.5 20.5t-20.5 56.5
v232q0 36 20.5 57t56.5 21h420v400h-751q-28 0 -48 20.5t-20 48.5v376q0 28 20 48.5t48 20.5h1308h819z" />
    <glyph glyph-name="tbar" unicode="&#x167;" horiz-adv-x="1757" 
d="M1661 215q30 -66 -31 -104q-268 -160 -582 -160q-319 0 -493 181t-174 499v271h-225q-36 0 -57 20.5t-21 56.5v100q0 36 21 57t57 21h225v194h-225q-36 0 -57 20.5t-21 56.5v324q0 36 21 56.5t57 20.5h225v274q0 63 77 86l430 126q44 13 67 -2t23 -53v-431h521
q36 0 57 -20.5t21 -56.5v-324q0 -36 -21 -56.5t-57 -20.5h-521v-194h452q36 0 56.5 -21t20.5 -57v-100q0 -36 -20.5 -56.5t-56.5 -20.5h-452v-144q0 -165 49.5 -246.5t175.5 -81.5q105 0 234 72q73 40 106 -33z" />
    <glyph glyph-name="Umacron" unicode="&#x16a;" horiz-adv-x="2727" 
d="M789 2757q-32 0 -55 22.5t-23 54.5v208q0 32 23 55t55 23h1149q32 0 55 -23t23 -55v-208q0 -32 -23 -54.5t-55 -22.5h-1149zM2482 2440q28 0 48 -20.5t20 -48.5v-1331q0 -217 -59 -395.5t-165 -304.5t-255 -212.5t-326.5 -127t-381.5 -40.5t-381.5 40.5t-326 127
t-254.5 212.5t-165 304.5t-59 395.5v1331q0 28 20 48.5t48 20.5h489q28 0 48 -20.5t20 -48.5v-1199q0 -334 137 -516t424 -182q288 0 425 182t137 516v1199q0 28 20 48.5t48 20.5h489z" />
    <glyph glyph-name="umacron" unicode="&#x16b;" 
d="M547 2146q-32 0 -55 22.5t-23 54.5v208q0 32 23 55t55 23h1149q32 0 55 -23t23 -55v-208q0 -32 -23 -54.5t-55 -22.5h-1149zM1996 1829q32 0 50.5 -18t18.5 -50v-1692q0 -32 -18.5 -50.5t-50.5 -18.5h-459q-32 0 -50.5 18.5t-18.5 50.5v211q-100 -150 -264 -235t-383 -85
q-167 0 -291.5 47.5t-201.5 138t-114.5 215t-37.5 283.5v1116q0 32 18.5 50.5t50.5 18.5h460q32 0 50 -18.5t18 -50.5v-908q0 -211 75 -303.5t226 -92.5q175 0 284.5 121.5t109.5 336.5v847q0 32 18.5 50t50.5 18h459z" />
    <glyph glyph-name="Uring" unicode="&#x16e;" horiz-adv-x="2727" 
d="M1363 2536q-134 0 -249.5 65t-184 178.5t-68.5 246.5t68.5 247t184 179.5t249.5 65.5t250 -65.5t184.5 -179.5t68.5 -247t-68.5 -246.5t-184.5 -178.5t-250 -65zM1363 3219q-79 0 -131.5 -57t-52.5 -136q0 -77 52.5 -133t131.5 -56t132 56t53 133q0 79 -53 136t-132 57z
M2482 2440q28 0 48 -20.5t20 -48.5v-1331q0 -217 -59 -395.5t-165 -304.5t-255 -212.5t-326.5 -127t-381.5 -40.5t-381.5 40.5t-326 127t-254.5 212.5t-165 304.5t-59 395.5v1331q0 28 20 48.5t48 20.5h489q28 0 48 -20.5t20 -48.5v-1199q0 -334 137 -516t424 -182
q288 0 425 182t137 516v1199q0 28 20 48.5t48 20.5h489z" />
    <glyph glyph-name="uring" unicode="&#x16f;" 
d="M1121 1925q-134 0 -249.5 65t-184 178.5t-68.5 246.5t68.5 247t184 179.5t249.5 65.5t250 -65.5t184.5 -179.5t68.5 -247t-68.5 -246.5t-184.5 -178.5t-250 -65zM1121 2608q-79 0 -131.5 -57t-52.5 -136q0 -77 52.5 -133t131.5 -56t132 56t53 133q0 79 -53 136t-132 57z
M1996 1829q32 0 50.5 -18t18.5 -50v-1692q0 -32 -18.5 -50.5t-50.5 -18.5h-459q-32 0 -50.5 18.5t-18.5 50.5v211q-100 -150 -264 -235t-383 -85q-167 0 -291.5 47.5t-201.5 138t-114.5 215t-37.5 283.5v1116q0 32 18.5 50.5t50.5 18.5h460q32 0 50 -18.5t18 -50.5v-908
q0 -211 75 -303.5t226 -92.5q175 0 284.5 121.5t109.5 336.5v847q0 32 18.5 50t50.5 18h459z" />
    <glyph glyph-name="Uhungarumlaut" unicode="&#x170;" horiz-adv-x="2727" 
d="M852 2724q-25 17 -33 49.5t6 61.5l379 763q15 29 47.5 37t58.5 -8l249 -145q29 -18 37.5 -48t-10.5 -59l-476 -712q-19 -28 -50 -35.5t-59 7.5zM1500 2824q-13 27 -2.5 59t38.5 49l728 445q30 16 60 6t45 -38l134 -256q15 -30 6 -61t-40 -44l-783 -349q-32 -13 -62 -3.5
t-45 37.5zM2482 2440q28 0 48 -20.5t20 -48.5v-1331q0 -217 -59 -395.5t-165 -304.5t-255 -212.5t-326.5 -127t-381.5 -40.5t-381.5 40.5t-326 127t-254.5 212.5t-165 304.5t-59 395.5v1331q0 28 20 48.5t48 20.5h489q28 0 48 -20.5t20 -48.5v-1199q0 -334 137 -516
t424 -182q288 0 425 182t137 516v1199q0 28 20 48.5t48 20.5h489z" />
    <glyph glyph-name="uhungarumlaut" unicode="&#x171;" 
d="M610 2113q-25 17 -33 49.5t6 61.5l379 763q15 29 47.5 37t58.5 -8l249 -145q29 -18 37.5 -48t-10.5 -59l-476 -712q-19 -28 -50 -35.5t-59 7.5zM2261 2478q15 -30 6 -61t-40 -44l-783 -349q-32 -13 -62 -3.5t-45 37.5l-79 155q-13 27 -2.5 59t38.5 49l728 445q30 16 60 6
t45 -38zM1996 1829q32 0 50.5 -18t18.5 -50v-1692q0 -32 -18.5 -50.5t-50.5 -18.5h-459q-32 0 -50.5 18.5t-18.5 50.5v211q-100 -150 -264 -235t-383 -85q-167 0 -291.5 47.5t-201.5 138t-114.5 215t-37.5 283.5v1116q0 32 18.5 50.5t50.5 18.5h460q32 0 50 -18.5t18 -50.5
v-908q0 -211 75 -303.5t226 -92.5q175 0 284.5 121.5t109.5 336.5v847q0 32 18.5 50t50.5 18h459z" />
    <glyph glyph-name="Uogonek" unicode="&#x172;" horiz-adv-x="2727" 
d="M2482 2440q28 0 48 -20.5t20 -48.5v-1331q0 -224 -62 -406t-176 -310t-267.5 -211t-344.5 -121q-105 -70 -171.5 -163.5t-66.5 -195.5q0 -76 44 -118t127 -42q47 0 90 12q77 18 77 -56v-183q0 -55 -52 -80q-111 -46 -254 -46q-210 0 -333.5 111.5t-123.5 285.5
q0 129 52 243.5t144 203.5q-184 13 -343 61.5t-291 137t-225.5 212t-145 293t-51.5 372.5v1331q0 28 20 48.5t48 20.5h489q28 0 48 -20.5t20 -48.5v-1199q0 -334 137 -516t424 -182q288 0 425 182t137 516v1199q0 28 20 48.5t48 20.5h489z" />
    <glyph glyph-name="uogonek" unicode="&#x173;" 
d="M1996 1829q32 0 50.5 -18t18.5 -50v-1692q0 -32 -18.5 -50.5t-50.5 -18.5h-178q-110 -71 -181 -166.5t-71 -201.5q0 -76 44 -118t127 -42q47 0 90 12q77 18 77 -56v-183q0 -55 -52 -80q-111 -46 -254 -46q-210 0 -333.5 111.5t-123.5 285.5q0 171 88.5 314.5t238.5 232.5
v6v211q-100 -150 -264 -235t-383 -85q-167 0 -291.5 47.5t-201.5 138t-114.5 215t-37.5 283.5v1116q0 32 18.5 50.5t50.5 18.5h460q32 0 50 -18.5t18 -50.5v-908q0 -211 75 -303.5t226 -92.5q175 0 284.5 121.5t109.5 336.5v847q0 32 18.5 50t50.5 18h459z" />
    <glyph glyph-name="Wcircumflex" unicode="&#x174;" horiz-adv-x="3621" 
d="M1232 2663q-51 0 -63.5 28.5t22.5 66.5l419 459q42 41 97 41h220q56 0 97 -41l419 -459q35 -38 22.5 -66.5t-62.5 -28.5h-330q-60 0 -95 50l-161 223l-161 -223q-35 -50 -95 -50h-329zM3522 2440q42 0 57.5 -24t0.5 -67l-800 -2314q-20 -58 -88 -58h-288q-68 0 -89 58
l-510 1380l-509 -1380q-21 -58 -89 -58h-288q-70 0 -88 58l-800 2314q-15 43 0.5 67t56.5 24h513q69 0 87 -60l438 -1406l461 1246q10 28 33.5 44t55.5 16h269q67 0 89 -60l462 -1246l446 1406q19 60 87 60h493z" />
    <glyph glyph-name="wcircumflex" unicode="&#x175;" horiz-adv-x="2969" 
d="M902 2052q-51 0 -63.5 29t22.5 66l419 459q42 41 97 41h220q56 0 97 -41l419 -459q35 -37 22.5 -66t-62.5 -29h-330q-60 0 -95 50l-161 223l-161 -223q-35 -50 -95 -50h-329zM2866 1829q52 0 77.5 -39.5t6.5 -89.5l-644 -1679q-18 -44 -67 -44h-225q-50 0 -68 42
l-461 938l-462 -937q-10 -24 -25.5 -33.5t-41.5 -9.5h-225q-49 0 -67 44l-645 1679q-19 50 6.5 89.5t78.5 39.5h468q22 0 40 -13t24 -33l303 -890l360 766q18 47 70 47h231q53 0 71 -47l360 -766l308 890q6 20 23.5 33t39.5 13h464z" />
    <glyph glyph-name="Ycircumflex" unicode="&#x176;" horiz-adv-x="2580" 
d="M711 2663q-51 0 -63.5 28.5t22.5 66.5l419 459q42 41 97 41h220q56 0 97 -41l419 -459q35 -38 22.5 -66.5t-62.5 -28.5h-330q-60 0 -95 50l-161 223l-161 -223q-35 -50 -95 -50h-329zM2474 2440q44 0 63 -27t-3 -64l-932 -1539v-741q0 -29 -20 -49t-49 -20h-488
q-28 0 -48.5 20.5t-20.5 48.5v733l-941 1547q-22 37 -3.5 64t61.5 27h538q54 0 87 -60l593 -1041l583 1041q30 60 89 60h491z" />
    <glyph glyph-name="ycircumflex" unicode="&#x177;" horiz-adv-x="2100" 
d="M449 2052q-51 0 -63.5 29t22.5 66l419 459q42 41 97 41h220q56 0 97 -41l419 -459q35 -37 22.5 -66t-62.5 -29h-330q-60 0 -95 50l-161 223l-161 -223q-35 -50 -95 -50h-329zM1993 1829q54 0 81.5 -41.5t3.5 -92.5l-748 -1551q-79 -164 -148 -283t-148.5 -221.5
t-162.5 -169t-185 -113.5t-220 -67.5t-265 -20.5q-34 0 -55 18t-21 53v304q0 62 63 69q122 14 211 66t178.5 167.5t200.5 324.5l-754 1424q-27 51 0.5 92.5t83.5 41.5h490q43 0 64 -44l422 -869l392 869q18 44 66 44h451z" />
    <glyph glyph-name="Ydieresis" unicode="&#x178;" horiz-adv-x="2580" 
d="M878 2672q-121 0 -206.5 85.5t-85.5 207.5q0 121 85.5 207t206.5 86t207 -86t86 -207t-85.5 -207t-207.5 -86zM1719 2672q-121 0 -206.5 85.5t-85.5 207.5q0 121 85.5 207t206.5 86t207 -86t86 -207t-86 -207t-207 -86zM2474 2440q44 0 63 -27t-3 -64l-932 -1539v-741
q0 -29 -20 -49t-49 -20h-488q-28 0 -48.5 20.5t-20.5 48.5v733l-941 1547q-22 37 -3.5 64t61.5 27h538q54 0 87 -60l593 -1041l583 1041q30 60 89 60h491z" />
    <glyph glyph-name="Zacute" unicode="&#x179;" horiz-adv-x="2551" 
d="M1109 2635q-32 -13 -62 -3.5t-45 37.5l-79 155q-13 27 -2.5 59t38.5 49l728 445q30 16 60 6t45 -38l134 -256q15 -30 6 -61t-40 -44zM164 0q-36 0 -56.5 20.5t-20.5 56.5v118q0 54 32 94l1305 1637h-1169q-28 0 -48 20.5t-20 48.5v376q0 28 20 48.5t48 20.5h2050
q37 0 57.5 -20.5t20.5 -56.5v-118q0 -56 -31 -94l-1298 -1637h1303q28 0 48 -20.5t20 -48.5v-376q0 -28 -20 -48.5t-48 -20.5h-2193z" />
    <glyph glyph-name="zacute" unicode="&#x17a;" horiz-adv-x="2085" 
d="M865 2024q-32 -13 -62 -3.5t-45 37.5l-79 155q-13 27 -2.5 59t38.5 49l728 445q30 16 60 6t45 -38l134 -256q15 -30 6 -61t-40 -44zM164 0q-36 0 -56.5 19.5t-20.5 53.5v27q0 53 31 94l856 1148h-701q-29 0 -49 20t-20 49v350q0 28 20.5 48t48.5 20h1567q37 0 57.5 -18
t20.5 -52v-29q0 -49 -32 -95l-877 -1165h843q28 0 48 -20t20 -48v-333q0 -28 -20 -48.5t-48 -20.5h-1688z" />
    <glyph glyph-name="Zdotaccent" unicode="&#x17b;" horiz-adv-x="2551" 
d="M1300 2636q-135 0 -230.5 95.5t-95.5 231.5q0 135 95.5 231t230.5 96q136 0 231.5 -96t95.5 -231q0 -136 -95.5 -231.5t-231.5 -95.5zM164 0q-36 0 -56.5 20.5t-20.5 56.5v118q0 54 32 94l1305 1637h-1169q-28 0 -48 20.5t-20 48.5v376q0 28 20 48.5t48 20.5h2050
q37 0 57.5 -20.5t20.5 -56.5v-118q0 -56 -31 -94l-1298 -1637h1303q28 0 48 -20.5t20 -48.5v-376q0 -28 -20 -48.5t-48 -20.5h-2193z" />
    <glyph glyph-name="zdotaccent" unicode="&#x17c;" horiz-adv-x="2085" 
d="M1056 2025q-135 0 -230.5 95.5t-95.5 231.5q0 135 95.5 231t230.5 96q136 0 231.5 -96t95.5 -231q0 -136 -95.5 -231.5t-231.5 -95.5zM164 0q-36 0 -56.5 19.5t-20.5 53.5v27q0 53 31 94l856 1148h-701q-29 0 -49 20t-20 49v350q0 28 20.5 48t48.5 20h1567q37 0 57.5 -18
t20.5 -52v-29q0 -49 -32 -95l-877 -1165h843q28 0 48 -20t20 -48v-333q0 -28 -20 -48.5t-48 -20.5h-1688z" />
    <glyph glyph-name="Zcaron" unicode="&#x17d;" horiz-adv-x="2551" 
d="M1461 3208q35 50 95 50h330q50 0 62.5 -29t-22.5 -66l-419 -459q-41 -41 -97 -41h-220q-55 0 -97 41l-419 459q-35 37 -22.5 66t63.5 29h329q60 0 95 -50l161 -223zM164 0q-36 0 -56.5 20.5t-20.5 56.5v118q0 54 32 94l1305 1637h-1169q-28 0 -48 20.5t-20 48.5v376
q0 28 20 48.5t48 20.5h2050q37 0 57.5 -20.5t20.5 -56.5v-118q0 -56 -31 -94l-1298 -1637h1303q28 0 48 -20.5t20 -48.5v-376q0 -28 -20 -48.5t-48 -20.5h-2193z" />
    <glyph glyph-name="zcaron" unicode="&#x17e;" horiz-adv-x="2085" 
d="M1217 2597q35 50 95 50h330q50 0 62.5 -28.5t-22.5 -66.5l-419 -459q-41 -41 -97 -41h-220q-55 0 -97 41l-419 459q-35 38 -22.5 66.5t63.5 28.5h329q60 0 95 -50l161 -223zM164 0q-36 0 -56.5 19.5t-20.5 53.5v27q0 53 31 94l856 1148h-701q-29 0 -49 20t-20 49v350
q0 28 20.5 48t48.5 20h1567q37 0 57.5 -18t20.5 -52v-29q0 -49 -32 -95l-877 -1165h843q28 0 48 -20t20 -48v-333q0 -28 -20 -48.5t-48 -20.5h-1688z" />
    <glyph glyph-name="Scommaaccent" unicode="&#x218;" horiz-adv-x="2297" 
d="M840 1793q0 -59 45 -105t120.5 -78t174 -61t207.5 -61.5t217.5 -71.5t207 -98.5t174 -135t120.5 -188t45 -251.5q0 -158 -57.5 -289t-156.5 -221.5t-235 -152.5t-291 -91t-326 -29q-474 0 -897 235q-64 38 -34 104l142 311q31 69 99 37q194 -97 278 -128q191 -71 407 -71
q196 0 302 55t106 167q0 68 -43.5 120t-117.5 87.5t-169.5 66t-201 62.5t-211 69.5t-201 94t-169.5 129.5t-117.5 182.5t-43.5 246.5q0 165 66.5 304.5t191 241t312.5 158.5t421 57q467 0 839 -210q66 -36 35 -102l-136 -296q-33 -72 -112 -30q-67 36 -107.5 55.5t-125 53.5
t-175 51t-184.5 17q-105 0 -185.5 -20.5t-125 -55.5t-66.5 -75t-22 -84zM1113 -212q40 0 79 -10.5t77 -34.5t66.5 -58.5t46 -88t17.5 -118.5q0 -189 -131.5 -399.5t-308.5 -312.5q-21 -10 -40 -6t-31 20l-33 38q-15 18 -14 41t19 41q34 34 52.5 54t44 54t37 69t11.5 73
q0 47 -19 75.5t-61 64.5q-97 84 -97 207t83 207t202 84z" />
    <glyph glyph-name="scommaaccent" unicode="&#x219;" horiz-adv-x="1895" 
d="M781 1329q0 -42 34 -74.5t91 -55.5t131.5 -44.5t156.5 -45.5t163.5 -53.5t156 -74.5t131.5 -102t91 -142t34 -190q0 -119 -43.5 -218t-121 -168t-184 -117t-232 -70.5t-266.5 -22.5q-215 0 -415.5 50t-335.5 136q-66 41 -37 102l117 255q17 38 46 48t59 -7
q102 -53 166 -81.5t161.5 -52.5t197.5 -24q117 0 185 31t68 94q0 41 -33 73.5t-88.5 56t-127.5 45t-151.5 46t-159 54t-151.5 74.5t-127.5 101.5t-88.5 141t-33 187.5q0 183 99.5 318.5t281 207t423.5 71.5q195 0 368.5 -45t300.5 -120q65 -39 37 -102l-110 -238
q-32 -74 -100 -37q-228 130 -446 130q-117 0 -182.5 -37t-65.5 -100zM921 -212q40 0 79 -10.5t77 -34.5t66.5 -58.5t46 -88t17.5 -118.5q0 -189 -131.5 -399.5t-308.5 -312.5q-21 -10 -40 -6t-31 20l-33 38q-15 18 -14 41t19 41q34 34 52.5 54t44 54t37 69t11.5 73
q0 47 -19 75.5t-61 64.5q-97 84 -97 207t83 207t202 84z" />
    <glyph glyph-name="uni021A" unicode="&#x21a;" horiz-adv-x="2497" 
d="M2312 2440q28 0 48.5 -20.5t20.5 -48.5v-376q0 -28 -20.5 -48.5t-48.5 -20.5h-750v-1857q0 -28 -20.5 -48.5t-48.5 -20.5h-488q-29 0 -49 20t-20 49v1857h-751q-28 0 -48 20.5t-20 48.5v376q0 28 20 48.5t48 20.5h1308h819zM1232 -212q40 0 79 -10.5t77 -34.5t66.5 -58.5
t46 -88t17.5 -118.5q0 -189 -131.5 -399.5t-308.5 -312.5q-21 -10 -40 -6t-31 20l-33 38q-15 18 -14 41t19 41q34 34 52.5 54t44 54t37 69t11.5 73q0 47 -19 75.5t-61 64.5q-97 84 -97 207t83 207t202 84z" />
    <glyph glyph-name="uni021B" unicode="&#x21b;" horiz-adv-x="1757" 
d="M1661 215q30 -66 -31 -104q-268 -160 -582 -160q-319 0 -493 181t-174 499v720h-225q-36 0 -57 20.5t-21 56.5v324q0 36 21 56.5t57 20.5h225v274q0 63 77 86l430 126q44 13 67 -2t23 -53v-431h521q36 0 57 -20.5t21 -56.5v-324q0 -36 -21 -56.5t-57 -20.5h-521v-593
q0 -165 49.5 -246.5t175.5 -81.5q105 0 234 72q73 40 106 -33zM984 -212q40 0 79 -10.5t77 -34.5t66.5 -58.5t46 -88t17.5 -118.5q0 -189 -131.5 -399.5t-308.5 -312.5q-21 -10 -40 -6t-31 20l-33 38q-15 18 -14 41t19 41q34 34 52.5 54t44 54t37 69t11.5 73q0 47 -19 75.5
t-61 64.5q-97 84 -97 207t83 207t202 84z" />
    <glyph glyph-name="circumflex" unicode="&#x2c6;" horiz-adv-x="1306" 
d="M814 2102l-161 223l-161 -223q-35 -50 -95 -50h-329q-51 0 -63.5 29t22.5 66l419 459q42 41 97 41h220q56 0 97 -41l419 -459q35 -37 22.5 -66t-62.5 -29h-330q-60 0 -95 50z" />
    <glyph glyph-name="caron" unicode="&#x2c7;" horiz-adv-x="1306" 
d="M814 2597q35 50 95 50h330q50 0 62.5 -28.5t-22.5 -66.5l-419 -459q-41 -41 -97 -41h-220q-55 0 -97 41l-419 459q-35 38 -22.5 66.5t63.5 28.5h329q60 0 95 -50l161 -223z" />
    <glyph glyph-name="breve" unicode="&#x2d8;" horiz-adv-x="2400" 
d="M1275 2687q73 0 73 -76q0 -123 -51 -233.5t-139.5 -191t-214.5 -127.5t-268 -47t-267.5 46t-214 125.5t-139.5 189t-51 231.5q0 83 71 83h201q75 0 89 -60q21 -126 103.5 -184.5t207.5 -58.5q269 0 311 243q13 60 89 60h200z" />
    <glyph glyph-name="dotaccent" unicode="&#x2d9;" horiz-adv-x="1007" 
d="M503 2025q-135 0 -230.5 95.5t-95.5 231.5q0 135 95.5 231t230.5 96q136 0 231.5 -96t95.5 -231q0 -136 -95.5 -231.5t-231.5 -95.5z" />
    <glyph glyph-name="ring" unicode="&#x2da;" horiz-adv-x="981" 
d="M490 1925q-134 0 -249.5 65t-184 178.5t-68.5 246.5t68.5 247t184 179.5t249.5 65.5t250 -65.5t184.5 -179.5t68.5 -247t-68.5 -246.5t-184.5 -178.5t-250 -65zM490 2226q79 0 132 56t53 133q0 79 -53 136t-132 57t-131.5 -57t-52.5 -136q0 -77 52.5 -133t131.5 -56z" />
    <glyph glyph-name="ogonek" unicode="&#x2db;" horiz-adv-x="1704" 
d="M459 -880q-210 0 -333.5 111.5t-123.5 285.5q0 189 107.5 344t283.5 237l288 -96q-111 -71 -182.5 -167t-71.5 -202q0 -76 44 -118t127 -42q46 0 90 12q77 18 77 -56v-183q0 -55 -52 -80q-111 -46 -254 -46z" />
    <glyph glyph-name="tilde" unicode="&#x2dc;" horiz-adv-x="2400" 
d="M1392 2639q37 0 58 -33t15 -93q-28 -224 -146 -335.5t-285 -111.5q-82 0 -149.5 22t-111.5 53t-82.5 62.5t-82.5 53.5t-92 22q-71 0 -113.5 -39.5t-56.5 -101.5q-20 -72 -83 -72h-105q-38 0 -58.5 21.5t-17.5 60.5q19 240 139.5 365.5t294.5 125.5q82 0 149 -21.5
t111 -52.5t82.5 -62t83 -52.5t92.5 -21.5q72 0 114 38t56 100q18 72 83 72h105z" />
    <glyph glyph-name="hungarumlaut" unicode="&#x2dd;" horiz-adv-x="1688" 
d="M288 2052q-19 -28 -50 -35.5t-59 7.5l-149 89q-25 17 -33 49.5t6 61.5l379 763q15 29 47.5 37t58.5 -8l249 -145q29 -18 37.5 -48t-10.5 -59zM864 2024q-32 -13 -62 -3.5t-45 37.5l-79 155q-13 27 -2.5 59t38.5 49l728 445q30 16 60 6t45 -38l134 -256q15 -30 6 -61
t-40 -44z" />
    <glyph glyph-name="uni0326" unicode="&#x326;" horiz-adv-x="0" 
d="M-1789 -212q40 0 79 -10.5t77 -34.5t66.5 -58.5t46 -88t17.5 -118.5q0 -189 -131.5 -399.5t-308.5 -312.5q-21 -10 -40 -6t-31 20l-33 38q-15 18 -14 41t19 41q34 34 52.5 54t44 54t37 69t11.5 73q0 47 -19 75.5t-61 64.5q-97 84 -97 207t83 207t202 84z" />
    <glyph glyph-name="uni0335" unicode="&#x335;" horiz-adv-x="0" 
 />
    <glyph glyph-name="uni0336" unicode="&#x336;" horiz-adv-x="0" 
d="M-2036 1242q-36 0 -56.5 20.5t-20.5 56.5v232q0 36 20.5 57t56.5 21h1365q36 0 56.5 -21t20.5 -57v-232q0 -36 -20.5 -56.5t-56.5 -20.5h-1365z" />
    <glyph glyph-name="uni0337" unicode="&#x337;" horiz-adv-x="0" 
 />
    <glyph glyph-name="Wgrave" unicode="&#x1e80;" horiz-adv-x="3621" 
d="M1146 2984q-31 13 -40 44t6 61l134 256q15 28 45 38t60 -6l728 -445q28 -17 38.5 -49t-2.5 -59l-79 -155q-15 -28 -45 -37.5t-62 3.5zM3522 2440q42 0 57.5 -24t0.5 -67l-800 -2314q-20 -58 -88 -58h-288q-68 0 -89 58l-510 1380l-509 -1380q-21 -58 -89 -58h-288
q-70 0 -88 58l-800 2314q-15 43 0.5 67t56.5 24h513q69 0 87 -60l438 -1406l461 1246q10 28 33.5 44t55.5 16h269q67 0 89 -60l462 -1246l446 1406q19 60 87 60h493z" />
    <glyph glyph-name="wgrave" unicode="&#x1e81;" horiz-adv-x="2969" 
d="M816 2373q-31 13 -40 44t6 61l134 256q15 28 45 38t60 -6l728 -445q28 -17 38.5 -49t-2.5 -59l-79 -155q-15 -28 -45 -37.5t-62 3.5zM2866 1829q52 0 77.5 -39.5t6.5 -89.5l-644 -1679q-18 -44 -67 -44h-225q-50 0 -68 42l-461 938l-462 -937q-10 -24 -25.5 -33.5
t-41.5 -9.5h-225q-49 0 -67 44l-645 1679q-19 50 6.5 89.5t78.5 39.5h468q22 0 40 -13t24 -33l303 -890l360 766q18 47 70 47h231q53 0 71 -47l360 -766l308 890q6 20 23.5 33t39.5 13h464z" />
    <glyph glyph-name="Wacute" unicode="&#x1e82;" horiz-adv-x="3621" 
d="M1519 2669l-79 155q-13 27 -2.5 59t38.5 49l728 445q30 16 60 6t45 -38l134 -256q15 -30 6 -61t-40 -44l-783 -349q-32 -13 -62 -3.5t-45 37.5zM3522 2440q42 0 57.5 -24t0.5 -67l-800 -2314q-20 -58 -88 -58h-288q-68 0 -89 58l-510 1380l-509 -1380q-21 -58 -89 -58
h-288q-70 0 -88 58l-800 2314q-15 43 0.5 67t56.5 24h513q69 0 87 -60l438 -1406l461 1246q10 28 33.5 44t55.5 16h269q67 0 89 -60l462 -1246l446 1406q19 60 87 60h493z" />
    <glyph glyph-name="wacute" unicode="&#x1e83;" horiz-adv-x="2969" 
d="M1189 2058l-79 155q-13 27 -2.5 59t38.5 49l728 445q30 16 60 6t45 -38l134 -256q15 -30 6 -61t-40 -44l-783 -349q-32 -13 -62 -3.5t-45 37.5zM2866 1829q52 0 77.5 -39.5t6.5 -89.5l-644 -1679q-18 -44 -67 -44h-225q-50 0 -68 42l-461 938l-462 -937
q-10 -24 -25.5 -33.5t-41.5 -9.5h-225q-49 0 -67 44l-645 1679q-19 50 6.5 89.5t78.5 39.5h468q22 0 40 -13t24 -33l303 -890l360 766q18 47 70 47h231q53 0 71 -47l360 -766l308 890q6 20 23.5 33t39.5 13h464z" />
    <glyph glyph-name="Wdieresis" unicode="&#x1e84;" horiz-adv-x="3621" 
d="M1399 2672q-121 0 -206.5 85.5t-85.5 207.5q0 121 85.5 207t206.5 86t207 -86t86 -207t-86 -207t-207 -86zM2240 2672q-121 0 -206.5 85.5t-85.5 207.5q0 121 85.5 207t206.5 86t207 -86t86 -207t-85.5 -207t-207.5 -86zM3522 2440q42 0 57.5 -24t0.5 -67l-800 -2314
q-20 -58 -88 -58h-288q-68 0 -89 58l-510 1380l-509 -1380q-21 -58 -89 -58h-288q-70 0 -88 58l-800 2314q-15 43 0.5 67t56.5 24h513q69 0 87 -60l438 -1406l461 1246q10 28 33.5 44t55.5 16h269q67 0 89 -60l462 -1246l446 1406q19 60 87 60h493z" />
    <glyph glyph-name="wdieresis" unicode="&#x1e85;" horiz-adv-x="2969" 
d="M1069 2061q-121 0 -206.5 85.5t-85.5 207.5q0 121 85.5 207t206.5 86t207 -86t86 -207q0 -122 -86 -207.5t-207 -85.5zM1910 2061q-121 0 -206.5 85.5t-85.5 207.5q0 121 85.5 207t206.5 86t207 -86t86 -207q0 -122 -85.5 -207.5t-207.5 -85.5zM2866 1829
q52 0 77.5 -39.5t6.5 -89.5l-644 -1679q-18 -44 -67 -44h-225q-50 0 -68 42l-461 938l-462 -937q-10 -24 -25.5 -33.5t-41.5 -9.5h-225q-49 0 -67 44l-645 1679q-19 50 6.5 89.5t78.5 39.5h468q22 0 40 -13t24 -33l303 -890l360 766q18 47 70 47h231q53 0 71 -47l360 -766
l308 890q6 20 23.5 33t39.5 13h464z" />
    <glyph glyph-name="Ygrave" unicode="&#x1ef2;" horiz-adv-x="2580" 
d="M625 2984q-31 13 -40 44t6 61l134 256q15 28 45 38t60 -6l728 -445q28 -17 38.5 -49t-2.5 -59l-79 -155q-15 -28 -45 -37.5t-62 3.5zM2474 2440q44 0 63 -27t-3 -64l-932 -1539v-741q0 -29 -20 -49t-49 -20h-488q-28 0 -48.5 20.5t-20.5 48.5v733l-941 1547
q-22 37 -3.5 64t61.5 27h538q54 0 87 -60l593 -1041l583 1041q30 60 89 60h491z" />
    <glyph glyph-name="ygrave" unicode="&#x1ef3;" horiz-adv-x="2100" 
d="M363 2373q-31 13 -40 44t6 61l134 256q15 28 45 38t60 -6l728 -445q28 -17 38.5 -49t-2.5 -59l-79 -155q-15 -28 -45 -37.5t-62 3.5zM1993 1829q54 0 81.5 -41.5t3.5 -92.5l-748 -1551q-79 -164 -148 -283t-148.5 -221.5t-162.5 -169t-185 -113.5t-220 -67.5t-265 -20.5
q-34 0 -55 18t-21 53v304q0 62 63 69q122 14 211 66t178.5 167.5t200.5 324.5l-754 1424q-27 51 0.5 92.5t83.5 41.5h490q43 0 64 -44l422 -869l392 869q18 44 66 44h451z" />
    <glyph glyph-name="endash" unicode="&#x2013;" horiz-adv-x="2114" 
d="M123 745q-37 0 -57.5 20.5t-20.5 56.5v267q0 36 20.5 56.5t57.5 20.5h1868q37 0 57.5 -20.5t20.5 -56.5v-267q0 -36 -20.5 -56.5t-57.5 -20.5h-1868z" />
    <glyph glyph-name="emdash" unicode="&#x2014;" horiz-adv-x="3314" 
d="M123 745q-37 0 -57.5 20.5t-20.5 56.5v267q0 36 20.5 56.5t57.5 20.5h3068q37 0 57.5 -20.5t20.5 -56.5v-267q0 -36 -20.5 -56.5t-57.5 -20.5h-3068z" />
    <glyph glyph-name="quoteleft" unicode="&#x2018;" horiz-adv-x="975" 
d="M503 1499q-58 0 -113.5 20t-104.5 60.5t-79 111.5t-30 163q0 142 70 304t186 298.5t248 213.5q23 11 45 6t36 -22l38 -44q16 -20 15 -46.5t-21 -47.5q-39 -39 -60 -62t-50 -62t-42.5 -79t-13.5 -83q0 -54 21.5 -87t70.5 -74q111 -97 111 -237t-95.5 -236.5t-231.5 -96.5z
" />
    <glyph glyph-name="quoteright" unicode="&#x2019;" horiz-adv-x="975" 
d="M472 2609q58 0 113.5 -20t104.5 -60.5t79 -111.5t30 -163q0 -142 -70 -304t-186 -298.5t-248 -213.5q-23 -11 -45 -6t-36 22l-38 44q-16 20 -15 46.5t21 47.5q39 39 60 62t50 62t42.5 79t13.5 83q0 54 -21.5 87t-70.5 74q-111 97 -111 237t95.5 236.5t231.5 96.5z" />
    <glyph glyph-name="quotesinglbase" unicode="&#x201a;" horiz-adv-x="975" 
d="M472 614q58 0 113.5 -20t104.5 -60.5t79 -111.5t30 -163q0 -142 -70 -304t-186 -298.5t-248 -213.5q-23 -11 -45 -6t-36 22l-38 44q-16 20 -15 46.5t21 47.5q39 39 60 62t50 62t42.5 79t13.5 83q0 54 -21.5 87t-70.5 74q-111 97 -111 237t95.5 236.5t231.5 96.5z" />
    <glyph glyph-name="quotedblleft" unicode="&#x201c;" horiz-adv-x="1749" 
d="M503 1499q-58 0 -113.5 20t-104.5 60.5t-79 111.5t-30 163q0 142 70 304t186 298.5t248 213.5q23 11 45 6t36 -22l38 -44q16 -20 15 -46.5t-21 -47.5q-39 -39 -60 -62t-50 -62t-42.5 -79t-13.5 -83q0 -54 21.5 -87t70.5 -74q111 -97 111 -237t-95.5 -236.5t-231.5 -96.5z
M1277 1499q-58 0 -113.5 20t-104.5 60.5t-79 111.5t-30 163q0 142 70 304t186 298.5t248 213.5q23 11 45 6t36 -22l38 -44q16 -20 15 -46.5t-21 -47.5q-39 -39 -60 -62t-50 -62t-42.5 -79t-13.5 -83q0 -54 21.5 -87t70.5 -74q111 -97 111 -237t-95.5 -236.5t-231.5 -96.5z
" />
    <glyph glyph-name="quotedblright" unicode="&#x201d;" horiz-adv-x="1749" 
d="M472 2609q58 0 113.5 -20t104.5 -60.5t79 -111.5t30 -163q0 -142 -70 -304t-186 -298.5t-248 -213.5q-23 -11 -45 -6t-36 22l-38 44q-16 20 -15 46.5t21 47.5q39 39 60 62t50 62t42.5 79t13.5 83q0 54 -21.5 87t-70.5 74q-111 97 -111 237t95.5 236.5t231.5 96.5z
M1246 2609q58 0 113.5 -20t104.5 -60.5t79 -111.5t30 -163q0 -142 -70 -304t-186 -298.5t-248 -213.5q-23 -11 -45 -6t-36 22l-38 44q-16 20 -15 46.5t21 47.5q39 39 60 62t50 62t42.5 79t13.5 83q0 54 -21.5 87t-70.5 74q-111 97 -111 237t95.5 236.5t231.5 96.5z" />
    <glyph glyph-name="quotedblbase" unicode="&#x201e;" horiz-adv-x="1749" 
d="M472 614q58 0 113.5 -20t104.5 -60.5t79 -111.5t30 -163q0 -142 -70 -304t-186 -298.5t-248 -213.5q-23 -11 -45 -6t-36 22l-38 44q-16 20 -15 46.5t21 47.5q39 39 60 62t50 62t42.5 79t13.5 83q0 54 -21.5 87t-70.5 74q-111 97 -111 237t95.5 236.5t231.5 96.5z
M1246 614q58 0 113.5 -20t104.5 -60.5t79 -111.5t30 -163q0 -142 -70 -304t-186 -298.5t-248 -213.5q-23 -11 -45 -6t-36 22l-38 44q-16 20 -15 46.5t21 47.5q39 39 60 62t50 62t42.5 79t13.5 83q0 54 -21.5 87t-70.5 74q-111 97 -111 237t95.5 236.5t231.5 96.5z" />
    <glyph glyph-name="dagger" unicode="&#x2020;" horiz-adv-x="1757" 
d="M1613 2049q36 0 56.5 -20.5t20.5 -56.5v-247q0 -36 -20.5 -56.5t-56.5 -20.5h-496v-1779q0 -32 -18.5 -50.5t-50.5 -18.5h-339q-32 0 -50.5 18.5t-18.5 50.5v1779h-496q-36 0 -56.5 20.5t-20.5 56.5v247q0 36 20.5 56.5t56.5 20.5h496v642q0 32 18.5 50.5t50.5 18.5h339
q32 0 50.5 -18.5t18.5 -50.5v-642h496z" />
    <glyph glyph-name="daggerdbl" unicode="&#x2021;" horiz-adv-x="1757" 
d="M1613 1648h-496v-736h496q36 0 56.5 -20.5t20.5 -56.5v-247q0 -36 -20.5 -56.5t-56.5 -20.5h-496v-642q0 -32 -18.5 -50.5t-50.5 -18.5h-339q-32 0 -50.5 18.5t-18.5 50.5v642h-496q-36 0 -56.5 20.5t-20.5 56.5v247q0 36 20.5 56.5t56.5 20.5h496v736h-496
q-36 0 -56.5 20.5t-20.5 56.5v247q0 36 20.5 56.5t56.5 20.5h496v642q0 32 18.5 50.5t50.5 18.5h339q32 0 50.5 -18.5t18.5 -50.5v-642h496q36 0 56.5 -20.5t20.5 -56.5v-247q0 -36 -20.5 -56.5t-56.5 -20.5z" />
    <glyph glyph-name="bullet" unicode="&#x2022;" horiz-adv-x="1304" 
d="M654 452q-130 0 -241 64.5t-175.5 175.5t-64.5 243q0 130 64.5 241t175.5 176t241 65q131 0 242.5 -65t176 -176t64.5 -241q0 -201 -141.5 -342t-341.5 -141z" />
    <glyph glyph-name="ellipsis" unicode="&#x2026;" horiz-adv-x="2758" 
d="M503 -40q-135 0 -230.5 95.5t-95.5 231.5q0 135 95.5 231t230.5 96q136 0 231.5 -96t95.5 -231q0 -136 -95.5 -231.5t-231.5 -95.5zM1378 -40q-135 0 -230.5 95.5t-95.5 231.5q0 135 95.5 231t230.5 96q136 0 231.5 -96t95.5 -231q0 -136 -95.5 -231.5t-231.5 -95.5z
M2254 -40q-135 0 -230.5 95.5t-95.5 231.5q0 135 95.5 231t230.5 96q136 0 231.5 -96t95.5 -231q0 -136 -95.5 -231.5t-231.5 -95.5z" />
    <glyph glyph-name="perthousand" unicode="&#x2030;" horiz-adv-x="5136" 
d="M2559 2506q26 -12 36 -39t-3 -53l-1204 -2534q-12 -25 -39.5 -35t-52.5 2l-194 90q-26 13 -36 39.5t2 52.5l1205 2534q12 25 39.5 35t52.5 -1zM1500 1709q0 -177 -53 -324.5t-145 -246t-215.5 -153t-264.5 -54.5q-140 0 -263.5 54.5t-215.5 153t-145 246t-53 324.5
q0 178 53 326t145 246.5t215 153t264 54.5t264.5 -54.5t215.5 -153t145 -246.5t53 -326zM822 1323q110 0 165 104t55 282q0 179 -55 283.5t-165 104.5q-108 0 -164 -105t-56 -283q0 -176 56 -281t164 -105zM2838 1509q141 0 264.5 -54.5t215 -153t144.5 -246.5t53 -325
t-53 -325t-144.5 -246.5t-215 -153t-264.5 -54.5t-264 54.5t-215 153t-145 246.5t-53 325t53 325t145 246.5t215 153t264 54.5zM4314 1509q141 0 264.5 -54.5t215 -153t144.5 -246.5t53 -325t-53 -325t-144.5 -246.5t-215 -153t-264.5 -54.5t-264.5 54.5t-215 153
t-144.5 246.5t-53 325t53 325t144.5 246.5t215 153t264.5 54.5zM2838 343q110 0 165 104.5t55 282.5q0 179 -55 283.5t-165 104.5q-108 0 -164 -105.5t-56 -282.5t56 -282t164 -105zM4314 343q109 0 164.5 104.5t55.5 282.5t-55.5 283t-164.5 105q-108 0 -164 -105t-56 -283
q0 -177 56 -282t164 -105z" />
    <glyph glyph-name="guilsinglleft" unicode="&#x2039;" horiz-adv-x="1223" 
d="M1040 1340q0 -25 -25 -45l-440 -367l440 -367q25 -20 25 -45v-201q0 -56 -43.5 -79t-88.5 11l-703 518q-22 16 -22 44v238q0 28 22 44l703 518q45 34 88.5 11t43.5 -79v-201z" />
    <glyph glyph-name="guilsinglright" unicode="&#x203a;" horiz-adv-x="1223" 
d="M1018 1091q22 -16 22 -44v-238q0 -28 -22 -44l-703 -518q-45 -34 -88.5 -11t-43.5 79v201q0 25 25 45l440 367l-440 367q-25 20 -25 45v201q0 56 43.5 79t88.5 -11z" />
    <glyph glyph-name="fraction" unicode="&#x2044;" horiz-adv-x="1558" 
d="M1270 2526q13 26 39.5 35.5t52.5 -2.5l171 -80q25 -11 35 -38.5t-2 -52.5l-1226 -2631q-13 -26 -39.5 -35.5t-51.5 2.5l-172 79q-26 13 -35.5 39.5t2.5 52.5z" />
    <glyph glyph-name="Euro" unicode="&#x20ac;" horiz-adv-x="2884" 
d="M1080 829q83 -171 236.5 -267.5t354.5 -96.5v-514q-218 0 -421 60t-371 170.5t-293.5 277t-187.5 370.5h-281v271h230q-5 65 -5 120q0 65 4 114h-229v272h279q61 205 187 372.5t294 278.5t371.5 171.5t422.5 60.5v-514q-202 0 -356.5 -98t-237.5 -271h824l-168 -272h-731
q-6 -56 -6 -114q0 -65 7 -120h794l-164 -271h-553zM2237 1623q-95 176 -241 264t-324 88v514q168 0 321.5 -36t294 -109t258.5 -194t201 -282q37 -73 -35 -107l-369 -175q-66 -30 -106 37zM2712 679q72 -34 35 -107q-83 -161 -201 -282t-258.5 -194t-294 -109t-321.5 -36
v514q178 0 324 88t241 264q40 67 106 37z" />
    <glyph glyph-name="trademark" unicode="&#x2122;" horiz-adv-x="3596" 
d="M3372 2456q22 0 35 -13t13 -35v-1433q0 -23 -13 -35.5t-35 -12.5h-292q-23 0 -36 12.5t-13 35.5v736l-446 -578q-14 -19 -33.5 -18.5t-33.5 18.5l-446 578v-736q0 -23 -13 -35.5t-35 -12.5h-292q-22 0 -35 12.5t-13 35.5v1433q0 22 13 35t35 13h127q35 0 59 -28l634 -790
l623 790q22 28 60 28h137zM1462 2442q17 0 29.5 -12.5t12.5 -30.5v-233q0 -17 -12.5 -30t-29.5 -13h-466v-1153q0 -18 -13 -30.5t-30 -12.5h-303q-18 0 -30.5 12.5t-12.5 30.5v1153h-466q-17 0 -29.5 13t-12.5 30v233q0 18 12.5 30.5t29.5 12.5h812h509z" />
    <glyph glyph-name="oneeighth" unicode="&#x215b;" horiz-adv-x="4184" 
d="M2520 2536q25 -11 35 -38.5t-2 -52.5l-1226 -2631q-13 -26 -39.5 -35.5t-51.5 2.5l-172 79q-26 13 -35.5 39.5t2.5 52.5l1226 2631q13 26 39.5 35.5t52.5 -2.5zM1058 838q0 -19 -13 -32t-32 -13h-321q-19 0 -32.5 13t-13.5 32v1183l-245 -118q-19 -8 -36.5 -2t-25.5 24
l-98 209q-8 18 -2 36t25 25l399 189q29 13 60 13h290q19 0 32 -13t13 -32v-1514zM3457 852q137 -52 219.5 -161t82.5 -251q0 -99 -44 -184.5t-127.5 -150t-214.5 -101t-295 -36.5t-294.5 36.5t-214 101t-127.5 150t-44 184.5q0 142 82.5 251t219.5 161q-111 46 -180.5 139
t-69.5 219q0 184 166 305.5t462 121.5q297 0 463 -121.5t166 -305.5q0 -126 -69.5 -219t-180.5 -139zM3078 1359q-101 0 -166 -52t-65 -133t65 -133t166 -52q102 0 167 52t65 133t-65 133t-167 52zM3078 274q122 0 192.5 60t70.5 155t-70.5 155.5t-192.5 60.5t-192 -60.5
t-70 -155.5t70 -155t192 -60z" />
    <glyph glyph-name="threeeighths" unicode="&#x215c;" horiz-adv-x="4164" 
d="M2781 2536q25 -11 35 -38.5t-2 -52.5l-1226 -2631q-13 -26 -39.5 -35.5t-51.5 2.5l-172 79q-26 13 -35.5 39.5t2.5 52.5l1226 2631q13 26 39.5 35.5t52.5 -2.5zM1470 1229q0 -215 -180.5 -341.5t-480.5 -126.5q-222 0 -376 67.5t-279 188.5q-15 14 -21.5 23t-6.5 22.5
t12 28.5l132 157q14 16 23.5 23.5t22.5 7.5t27 -11q46 -36 61 -47.5t56.5 -40.5t67 -40.5t67 -27.5t84 -22t91.5 -6q126 0 204.5 47t78.5 131q0 86 -95.5 150t-296.5 70q-20 1 -33.5 13.5t-13.5 31.5v152q0 19 13 31.5t34 14.5q187 8 271.5 67.5t84.5 144.5q0 81 -62 125
t-176 44q-78 0 -152.5 -24t-120.5 -51.5t-114 -76.5q-26 -14 -39.5 -9t-34.5 29l-119 145q-12 15 -12 28.5t7 23t21 22.5q124 113 287 175t353 62q138 0 247.5 -33.5t178.5 -92.5t105 -136t36 -167q0 -123 -67.5 -220.5t-197.5 -159.5q313 -115 313 -392zM3718 852
q137 -52 219.5 -161t82.5 -251q0 -99 -44 -184.5t-127.5 -150t-214.5 -101t-295 -36.5t-294.5 36.5t-214 101t-127.5 150t-44 184.5q0 142 82.5 251t219.5 161q-111 46 -180.5 139t-69.5 219q0 184 166 305.5t462 121.5q297 0 463 -121.5t166 -305.5q0 -126 -69.5 -219
t-180.5 -139zM3339 1359q-101 0 -166 -52t-65 -133t65 -133t166 -52q102 0 167 52t65 133t-65 133t-167 52zM3339 274q122 0 192.5 60t70.5 155t-70.5 155.5t-192.5 60.5t-192 -60.5t-70 -155.5t70 -155t192 -60z" />
    <glyph glyph-name="fiveeighths" unicode="&#x215d;" horiz-adv-x="4165" 
d="M2781 2536q25 -11 35 -38.5t-2 -52.5l-1226 -2631q-13 -26 -39.5 -35.5t-51.5 2.5l-172 79q-26 13 -35.5 39.5t2.5 52.5l1226 2631q13 26 39.5 35.5t52.5 -2.5zM1487 1292q0 -238 -179 -384.5t-477 -146.5q-218 0 -374 61.5t-283 177.5q-15 14 -21.5 23.5t-6 23
t12.5 27.5l132 158q13 16 22.5 23.5t22.5 7.5t28 -11q113 -86 203.5 -127t219.5 -41q124 0 203.5 60.5t79.5 163.5q0 94 -71 157.5t-210 63.5q-169 0 -296 -63q-17 -7 -32 1l-195 108q-26 13 -23 41l83 731q3 50 51 50h948q18 0 31.5 -13t13.5 -32v-228q0 -18 -13.5 -31
t-31.5 -13h-669l-37 -316q105 45 276 45q126 -2 232 -34.5t187.5 -94.5t127 -161t45.5 -227zM3718 852q137 -52 219.5 -161t82.5 -251q0 -99 -44 -184.5t-127.5 -150t-214.5 -101t-295 -36.5t-294.5 36.5t-214 101t-127.5 150t-44 184.5q0 142 82.5 251t219.5 161
q-111 46 -180.5 139t-69.5 219q0 184 166 305.5t462 121.5q297 0 463 -121.5t166 -305.5q0 -126 -69.5 -219t-180.5 -139zM3339 1359q-101 0 -166 -52t-65 -133t65 -133t166 -52q102 0 167 52t65 133t-65 133t-167 52zM3339 274q122 0 192.5 60t70.5 155t-70.5 155.5
t-192.5 60.5t-192 -60.5t-70 -155.5t70 -155t192 -60z" />
    <glyph glyph-name="seveneighths" unicode="&#x215e;" horiz-adv-x="3932" 
d="M2537 2536q25 -11 35 -38.5t-2 -52.5l-1226 -2631q-13 -26 -39.5 -35.5t-51.5 2.5l-172 79q-26 13 -35.5 39.5t2.5 52.5l1226 2631q13 26 39.5 35.5t52.5 -2.5zM1431 2280q0 -28 -20 -73l-656 -1391q-10 -23 -36 -23h-338q-32 0 -47.5 24.5t-1.5 55.5l569 1186h-769
q-18 0 -31.5 13.5t-13.5 32.5v247q0 19 13.5 32t31.5 13h1249q23 0 36.5 -13.5t13.5 -36.5v-67zM3474 852q137 -52 219.5 -161t82.5 -251q0 -99 -44 -184.5t-127.5 -150t-214.5 -101t-295 -36.5t-294.5 36.5t-214 101t-127.5 150t-44 184.5q0 142 82.5 251t219.5 161
q-111 46 -180.5 139t-69.5 219q0 184 166 305.5t462 121.5q297 0 463 -121.5t166 -305.5q0 -126 -69.5 -219t-180.5 -139zM3095 1359q-101 0 -166 -52t-65 -133t65 -133t166 -52q102 0 167 52t65 133t-65 133t-167 52zM3095 274q122 0 192.5 60t70.5 155t-70.5 155.5
t-192.5 60.5t-192 -60.5t-70 -155.5t70 -155t192 -60z" />
    <glyph glyph-name="partialdiff" unicode="&#x2202;" horiz-adv-x="2195" 
d="M718 2635q195 -44 363.5 -115.5t294 -157t229 -192t174 -213t124.5 -227t85 -227t50 -220t25.5 -200t6.5 -171.5q0 -179 -48.5 -334t-136.5 -269t-207.5 -195t-263 -122t-302.5 -41q-206 0 -387.5 64.5t-314 179.5t-209 282t-76.5 363t71.5 363t194.5 282t291 179.5
t358 64.5q193 0 352 -88q-210 455 -806 635q-37 12 -51.5 42.5t1.5 63.5l101 219q23 48 81 34zM1112 439q160 0 265 113.5t105 287.5t-105 287.5t-265 113.5t-265 -113.5t-105 -287.5t105 -287.5t265 -113.5z" />
    <glyph glyph-name="emptyset" unicode="&#x2205;" horiz-adv-x="2885" 
d="M2719 2129q24 -27 20.5 -56.5t-29.5 -55.5l-328 -323q190 -280 190 -619q0 -181 -57 -351.5t-161.5 -307.5t-243 -240t-310 -159.5t-353.5 -56.5q-346 0 -631 193l-329 -324q-27 -27 -56 -30t-56 21l-208 209q-24 27 -21 57t30 55l330 325q-183 276 -183 609
q0 226 89.5 432.5t240 355.5t358.5 237.5t436 88.5q339 0 620 -186l331 326q28 27 57 30.5t56 -20.5zM823 1075q0 -137 43 -255l861 849q-129 62 -280 62q-132 0 -247 -48t-198 -133t-131 -208t-48 -267zM2072 1075q0 143 -48 267l-869 -855q134 -68 292 -68q132 0 247 48
t198.5 132.5t131.5 208t48 267.5z" />
    <glyph glyph-name="product" unicode="&#x220f;" horiz-adv-x="2209" 
d="M1964 2940q28 0 48 -20.5t20 -48.5v-3302q0 -28 -20 -48.5t-48 -20.5h-258q-28 0 -48.5 20t-20.5 49v3000h-1065v-3000q0 -29 -20 -49t-49 -20h-258q-28 0 -48 20.5t-20 48.5v3302q0 28 20 48.5t48 20.5h258h1326h135z" />
    <glyph glyph-name="summation" unicode="&#x2211;" horiz-adv-x="1998" 
d="M1911 2642q0 -36 -20.5 -56.5t-56.5 -20.5h-1198l836 -1311q23 -34 0 -68l-836 -1315h1198q36 0 56.5 -20.5t20.5 -56.5v-217q0 -36 -20.5 -56.5t-56.5 -20.5h-1663q-36 0 -56.5 20.5t-20.5 56.5v137q0 78 34 131l896 1375l-896 1370q-34 53 -34 131v137q0 36 20.5 57
t56.5 21h1663q36 0 56.5 -21t20.5 -57v-216z" />
    <glyph glyph-name="minus" unicode="&#x2212;" horiz-adv-x="2145" 
d="M260 888q-36 0 -56.5 20.5t-20.5 56.5v267q0 36 20.5 56.5t56.5 20.5h1625q37 0 57.5 -20.5t20.5 -56.5v-267q0 -36 -20.5 -56.5t-57.5 -20.5h-1625z" />
    <glyph glyph-name="radical" unicode="&#x221a;" horiz-adv-x="2459" 
d="M1865 2915q13 45 61 45h418q44 0 66.5 -32t8.5 -74l-998 -2812q-16 -42 -60 -42h-414q-41 0 -57 38l-526 1267h-283q-30 0 -50 20t-20 50v264q0 31 20 50.5t50 19.5h674q45 0 60 -42l348 -993z" />
    <glyph glyph-name="infinity" unicode="&#x221e;" horiz-adv-x="2943" 
d="M2092 1759q138 0 260 -47.5t212.5 -132.5t143 -211t52.5 -276t-52.5 -276t-143 -211t-212.5 -132.5t-260 -47.5q-198 0 -342 96t-278 287q-135 -191 -279 -287t-342 -96q-138 0 -260 47.5t-212.5 132.5t-143 211t-52.5 276t52.5 276t143 211t212.5 132.5t260 47.5
q198 0 342 -96t279 -287q134 191 278 287t342 96zM857 812q43 0 84 15.5t71.5 37t65 60t57.5 68.5t57 79q9 13 14 20q-91 128 -130 170q-103 110 -219 110q-99 0 -160.5 -81.5t-61.5 -198.5t61.5 -198.5t160.5 -81.5zM2086 812q99 0 160.5 81.5t61.5 198.5t-61.5 198.5
t-160.5 81.5q-43 0 -84 -15.5t-71.5 -37t-65 -60t-57.5 -68.5t-57 -79q-9 -13 -14 -20q91 -128 130 -170q103 -110 219 -110z" />
    <glyph glyph-name="integral" unicode="&#x222b;" horiz-adv-x="1771" 
d="M1809 2882q31 -23 37.5 -43t-9.5 -63l-108 -217q-30 -68 -106 -33q-41 21 -68 32.5t-69 21.5t-84 10q-248 0 -248 -339v-2267q0 -222 -96 -386t-257 -246.5t-364 -82.5q-160 0 -305.5 47.5t-229.5 110.5q-31 23 -37.5 43t9.5 64l108 217q30 67 106 33q124 -64 221 -64
q248 0 248 339v2266q0 167 55.5 303t152 225.5t227 138t281.5 48.5q161 0 306.5 -47.5t229.5 -110.5z" />
    <glyph glyph-name="approxequal" unicode="&#x2248;" horiz-adv-x="2292" 
d="M216 1255q-21 11 -29 32t-1 44q40 124 103.5 218.5t139 150.5t155.5 84t162 28q111 0 208 -23t167.5 -56t135.5 -66.5t139 -56.5t150 -23q97 0 174.5 50.5t131.5 132.5q17 25 42 32.5t52 -6.5l130 -73q21 -11 29 -32t1 -44q-40 -123 -103.5 -218t-139 -151t-155.5 -84
t-162 -28q-111 0 -208 23t-167.5 56t-135.5 66.5t-139 56.5t-150 23q-97 0 -174.5 -50.5t-131.5 -132.5q-17 -25 -42.5 -32.5t-51.5 6.5zM2076 931q21 -11 29 -32t1 -44q-40 -123 -103.5 -218t-139 -151t-155.5 -84t-162 -28q-111 0 -208 23t-167.5 56t-135.5 66.5
t-139 56.5t-150 23q-97 0 -174.5 -50.5t-131.5 -132.5q-17 -25 -42.5 -32.5t-51.5 6.5l-130 73q-21 11 -29 32t-1 44q40 124 103.5 218.5t139 150.5t155.5 84t162 28q111 0 208 -23t167.5 -56t135.5 -66.5t139 -56.5t150 -23q97 0 174.5 50.5t131.5 132.5q17 25 42 32.5
t52 -6.5z" />
    <glyph glyph-name="notequal" unicode="&#x2260;" horiz-adv-x="2145" 
d="M1885 1290h-514l-180 -388h694q37 0 57.5 -20.5t20.5 -56.5v-267q0 -36 -20.5 -56.5t-57.5 -20.5h-889l-247 -531q-12 -25 -39.5 -35t-51.5 1l-195 91q-25 12 -35 39.5t2 52.5l177 382h-347q-36 0 -56.5 20.5t-20.5 56.5v267q0 36 20.5 56.5t56.5 20.5h543l180 388h-723
q-36 0 -56.5 20.5t-20.5 56.5v267q0 36 20.5 56.5t56.5 20.5h918l237 510q12 25 39 34.5t53 -1.5l194 -91q25 -12 35 -39.5t-2 -52.5l-167 -360h318q37 0 57.5 -20.5t20.5 -56.5v-267q0 -36 -20.5 -56.5t-57.5 -20.5z" />
    <glyph glyph-name="lessequal" unicode="&#x2264;" horiz-adv-x="2145" 
d="M1963 1901q0 -17 -5 -29t-18.5 -21.5t-23 -13.5t-31.5 -13l-1173 -486l1173 -486q22 -9 31.5 -13t23 -13.5t18.5 -21.5t5 -29v-328q0 -38 -22.5 -59t-55.5 -7l-1625 700q-77 31 -77 91v332q0 60 77 91l1625 700q33 14 55.5 -7t22.5 -59v-328zM260 -143q-36 0 -56.5 20.5
t-20.5 56.5v267q0 36 20.5 56.5t56.5 20.5h1625q37 0 57.5 -20.5t20.5 -56.5v-267q0 -36 -20.5 -56.5t-57.5 -20.5h-1625z" />
    <glyph glyph-name="greaterequal" unicode="&#x2265;" horiz-adv-x="2145" 
d="M182 1901v328q0 38 22.5 59t55.5 7l1625 -700q77 -32 77 -91v-332q0 -60 -77 -91l-1625 -700q-33 -14 -55.5 7t-22.5 59v328q0 17 5 29t18.5 21.5t23 13.5t31.5 13l1173 486l-1173 486q-22 9 -31.5 13t-23 13.5t-18.5 21.5t-5 29zM1885 -143h-1625q-37 0 -57.5 20.5
t-20.5 56.5v267q0 36 20.5 56.5t57.5 20.5h1625q36 0 56.5 -20.5t20.5 -56.5v-267q0 -36 -20.5 -56.5t-56.5 -20.5z" />
    <glyph glyph-name="lozenge" unicode="&#x25ca;" horiz-adv-x="2331" 
d="M1102 2711q25 35 63.5 35t63.5 -35l907 -1274q26 -37 0 -74l-907 -1274q-25 -35 -63.5 -35t-63.5 35l-907 1274q-26 37 0 74zM1166 695l462 705l-462 705l-462 -705z" />
    <glyph glyph-name="i.loclTRK" horiz-adv-x="950" 
d="M476 2025q-135 0 -230.5 95.5t-95.5 231.5q0 135 95.5 231t230.5 96q136 0 231.5 -96t95.5 -231q0 -136 -95.5 -231.5t-231.5 -95.5zM177 1761q0 32 18 50t50 18h460q32 0 50.5 -18t18.5 -50v-1692q0 -32 -18.5 -50.5t-50.5 -18.5h-460q-32 0 -50 18.5t-18 50.5v1692z
" />
    <glyph glyph-name="zero.osf" horiz-adv-x="2304" 
d="M1152 1978q167 0 319.5 -41.5t281.5 -126t224 -204t148.5 -284t53.5 -357.5t-53.5 -357.5t-148.5 -284t-224 -204.5t-281.5 -126.5t-319.5 -41.5t-319.5 41.5t-281.5 126.5t-224 204.5t-148.5 284t-53.5 357.5t53.5 357.5t148.5 284t224 204t281.5 126t319.5 41.5z
M1152 439q85 0 158 32.5t130 95.5t89.5 165.5t32.5 232.5t-32.5 232t-89.5 165.5t-130 96t-158 32.5t-158 -32.5t-130 -96t-89.5 -165.5t-32.5 -232t32.5 -232.5t89.5 -165.5t130 -95.5t158 -32.5z" />
    <glyph glyph-name="one.osf" horiz-adv-x="1717" 
d="M1301 1929q28 0 48.5 -20t20.5 -48v-1792q0 -28 -20.5 -48.5t-48.5 -20.5h-460q-28 0 -48 20.5t-20 48.5v1287l-375 -179q-27 -13 -54 -3.5t-40 37.5l-148 319q-12 27 -2.5 53.5t36.5 39.5l607 286q43 20 93 20h411z" />
    <glyph glyph-name="two.osf" horiz-adv-x="2085" 
d="M1839 440q28 0 48.5 -20.5t20.5 -48.5v-302q0 -29 -20 -49t-49 -20h-1652q-36 0 -56.5 20.5t-20.5 56.5v100q0 66 50 99q484 329 639 446q262 198 353 333q69 104 69 207q0 229 -272 229q-78 0 -151.5 -19t-143 -56.5t-121 -73t-119.5 -88.5q-35 -24 -56 -17t-56 47
l-194 229q-19 22 -20 42.5t9.5 35t33.5 35.5q186 171 424 261.5t499 90.5q177 0 323.5 -42t251.5 -121t163.5 -199.5t58.5 -270.5q0 -519 -731 -905h719z" />
    <glyph glyph-name="three.osf" horiz-adv-x="2141" 
d="M1522 765q494 -181 494 -589q0 -155 -71 -284.5t-198 -219t-307 -139t-394 -49.5q-310 0 -539 98.5t-407 272.5q-24 23 -34 37.5t-9.5 34t19.5 41.5l201 231q21 25 34.5 35.5t33.5 11t43 -17.5q70 -54 110.5 -83t106 -68.5t118 -59.5t123 -35t145.5 -15q112 0 199.5 29
t141.5 90.5t54 148.5q0 50 -19.5 92.5t-49 71t-75.5 52.5t-87.5 37.5t-97.5 25t-92.5 16t-86 10.5t-65.5 8q-71 11 -71 70v231q0 29 19 48t51 22q123 11 168 19q304 55 332 250q3 20 3 40q0 119 -88 188.5t-240 69.5q-44 0 -90 -7t-81.5 -15.5t-80 -27.5t-69.5 -30
t-68.5 -37t-57.5 -35t-55.5 -37t-45.5 -30q-35 -22 -58 -15.5t-54 45.5l-176 220q-19 23 -18.5 44t10.5 34.5t32 34.5q183 167 426 257.5t508 90.5q194 0 350.5 -51t257.5 -139t155 -205t54 -251q0 -186 -102.5 -329t-301.5 -238z" />
    <glyph glyph-name="four.osf" horiz-adv-x="2232" 
d="M2070 440q36 0 57 -20.5t21 -57.5v-285q0 -36 -21 -56.5t-57 -20.5h-289v-408q0 -28 -20.5 -48.5t-48.5 -20.5h-416q-28 0 -48.5 20.5t-20.5 48.5v408h-1078q-36 0 -57 20.5t-21 56.5v238l1177 1569q35 45 93 45h370q28 0 48.5 -20t20.5 -48l1 -1421h289zM669 440h558
v740z" />
    <glyph glyph-name="five.osf" horiz-adv-x="2342" 
d="M1291 1057q149 -3 278.5 -33.5t240 -93.5t189 -154t123 -220t44.5 -285q0 -172 -69 -317.5t-194 -249.5t-307.5 -162.5t-400.5 -58.5t-401.5 47t-314.5 121.5t-258 187.5q-23 20 -33.5 34.5t-10 35t19.5 43.5l201 239q21 25 34.5 36t33.5 11t44 -17q87 -66 141 -102
t133 -76.5t162 -58t181 -17.5q183 0 297.5 89.5t114.5 239.5q0 68 -23.5 127t-71 106.5t-128 75t-186.5 27.5q-126 0 -227.5 -22t-205.5 -74q-25 -10 -49 1l-288 165q-39 19 -34 62l126 1088q5 77 77 77h1404q28 0 48.5 -20t20.5 -48v-346q0 -28 -20.5 -48.5t-48.5 -20.5
h-989l-56 -457q160 68 403 68z" />
    <glyph glyph-name="six.osf" horiz-adv-x="2319" 
d="M1309 1523q172 0 315 -62t236 -166.5t144 -239.5t51 -283q0 -237 -121 -424.5t-334.5 -292t-481.5 -104.5q-212 0 -394 70t-315 198.5t-208.5 322t-75.5 430.5q0 322 102.5 584t302.5 453t510 297t709 111q32 0 52.5 -20t20.5 -50v-330q0 -29 -19.5 -49t-50.5 -21
q-218 -6 -381.5 -44t-291 -116.5t-211 -203t-128.5 -301.5q205 241 569 241zM1114 395q110 0 191 54t118.5 134t37.5 171q0 69 -22.5 132.5t-64.5 114.5t-109.5 81.5t-150.5 30.5q-82 0 -149.5 -30.5t-109.5 -81.5t-65 -114.5t-23 -132.5q0 -67 23 -130.5t65 -115
t109.5 -82.5t149.5 -31z" />
    <glyph glyph-name="seven.osf" horiz-adv-x="1989" 
d="M424 -477q-50 0 -73.5 37.5t-1.5 83.5l852 1798h-1122q-28 0 -48 20.5t-20 48.5v350q0 28 20 48t48 20h1822q35 0 56 -20.5t21 -56.5v-117q0 -42 -31 -95l-998 -2082q-16 -35 -55 -35h-470z" />
    <glyph glyph-name="eight.osf" horiz-adv-x="2264" 
d="M1680 1280q209 -80 334 -242.5t125 -374.5q0 -118 -41.5 -224.5t-125 -195.5t-202.5 -154t-282.5 -101.5t-355.5 -36.5t-355.5 36.5t-282.5 101.5t-202.5 154t-125 195.5t-41.5 224.5q0 212 125 374.5t334 242.5q-168 71 -274 210t-106 323q0 103 38.5 197t116.5 173.5
t188 138t260 91.5t325 33q218 0 396 -50.5t293.5 -137.5t177.5 -201.5t62 -243.5q0 -184 -106.5 -323t-274.5 -210zM1132 2029q-146 0 -243.5 -77.5t-97.5 -192.5q0 -116 97.5 -193.5t243.5 -77.5q147 0 244 77.5t97 193.5q0 115 -97 192.5t-244 77.5zM1132 417
q179 0 284.5 91t105.5 231q0 139 -105.5 230.5t-284.5 91.5q-178 0 -284 -91.5t-106 -230.5q0 -140 106 -231t284 -91z" />
    <glyph glyph-name="nine.osf" horiz-adv-x="2231" 
d="M1084 1978q219 0 405.5 -70t323.5 -199.5t214.5 -325.5t77.5 -437q0 -326 -104.5 -589t-308 -452.5t-518.5 -294.5t-721 -109q-31 0 -51.5 20t-20.5 50v330q0 30 19.5 49.5t49.5 20.5q220 5 387.5 43t298 116t217 201.5t134.5 298.5q-212 -246 -594 -246q-176 0 -323 62
t-243 167.5t-149 243t-53 289.5q0 181 72.5 336.5t199.5 264t304.5 170t382.5 61.5zM1089 794q89 0 161 30.5t118 82.5t71 118t25 139q0 71 -25 137t-70.5 118.5t-118.5 83.5t-161 31q-116 0 -202 -54t-127 -136.5t-41 -179.5q0 -99 41 -181.5t127 -135.5t202 -53z" />
    <glyph glyph-name="zero.dnom" horiz-adv-x="1716" 
d="M858 1630q151 0 281.5 -58t226 -164t150.5 -264t55 -349t-55 -349t-150.5 -263.5t-226 -163.5t-281.5 -58q-150 0 -280.5 58t-226.5 163.5t-151 263.5t-55 349t55 349t151 264t226.5 164t280.5 58zM858 299q141 0 212 134t71 362q0 229 -71 363t-212 134
q-139 0 -210.5 -134.5t-71.5 -362.5q0 -227 71.5 -361.5t210.5 -134.5z" />
    <glyph glyph-name="one.dnom" horiz-adv-x="1485" 
d="M1013 1604q19 0 32 -13t13 -32v-1514q0 -19 -13 -32t-32 -13h-321q-19 0 -32.5 13t-13.5 32v1183l-245 -118q-19 -8 -36.5 -2t-25.5 24l-98 209q-8 18 -2 36t25 25l399 189q29 13 60 13h290z" />
    <glyph glyph-name="two.dnom" horiz-adv-x="1511" 
d="M1379 302q18 0 31.5 -13t13.5 -32v-219q0 -19 -13.5 -32t-31.5 -13h-1178q-23 0 -37 13.5t-14 37.5v77q0 46 22 62q196 147 339.5 270t232 215t141 171.5t71.5 137t19 115.5q0 214 -231 214q-109 0 -196.5 -45.5t-187.5 -130.5q-11 -9 -21 -11.5t-19.5 2.5t-16 11.5
t-16.5 17.5l-128 149q-12 15 -12 29t6.5 23t20.5 23q272 256 642 256q278 0 424.5 -135.5t146.5 -358.5q0 -216 -140 -411t-447 -423h579z" />
    <glyph glyph-name="three.dnom" horiz-adv-x="1615" 
d="M1157 821q313 -115 313 -392q0 -215 -180.5 -341.5t-480.5 -126.5q-222 0 -376 67.5t-279 188.5q-15 14 -21.5 23t-6.5 22.5t12 28.5l132 157q14 16 23.5 23.5t22.5 7.5t27 -11q46 -36 61 -47.5t56.5 -40.5t67 -40.5t67 -27.5t84 -22t91.5 -6q126 0 204.5 47t78.5 131
q0 86 -95.5 150t-296.5 70q-20 1 -33.5 13.5t-13.5 31.5v152q0 19 13 31.5t34 14.5q187 8 271.5 67.5t84.5 144.5q0 81 -62 125t-176 44q-78 0 -152.5 -24t-120.5 -51.5t-114 -76.5q-26 -14 -39.5 -9t-34.5 29l-119 145q-12 15 -12 28.5t7 23t21 22.5q124 113 287 175
t353 62q138 0 247.5 -33.5t178.5 -92.5t105 -136t36 -167q0 -123 -67.5 -220.5t-197.5 -159.5z" />
    <glyph glyph-name="four.dnom" horiz-adv-x="1636" 
d="M1498 617q24 0 37.5 -13.5t13.5 -37.5v-185q0 -23 -13.5 -36.5t-37.5 -13.5h-190v-286q0 -19 -13.5 -32t-31.5 -13h-293q-18 0 -31.5 13t-13.5 32v286h-801q-24 0 -37.5 13.5t-13.5 36.5v144q0 13 9 23l825 1026q23 30 60 30h296q18 0 31.5 -13t13.5 -32v-942h190z
M499 617h426v527z" />
    <glyph glyph-name="five.dnom" horiz-adv-x="1632" 
d="M895 1016q126 -2 232 -34.5t187.5 -94.5t127 -161t45.5 -227q0 -238 -179 -384.5t-477 -146.5q-218 0 -374 61.5t-283 177.5q-15 14 -21.5 23.5t-6 23t12.5 27.5l132 158q13 16 22.5 23.5t22.5 7.5t28 -11q113 -86 203.5 -127t219.5 -41q124 0 203.5 60.5t79.5 163.5
q0 94 -71 157.5t-210 63.5q-169 0 -296 -63q-17 -7 -32 1l-195 108q-26 13 -23 41l83 731q3 50 51 50h948q18 0 31.5 -13t13.5 -32v-228q0 -18 -13.5 -31t-31.5 -13h-669l-37 -316q105 45 276 45z" />
    <glyph glyph-name="six.dnom" horiz-adv-x="1610" 
d="M951 1028q117 0 215 -42t162.5 -112.5t100.5 -161.5t36 -191q0 -159 -83.5 -285.5t-229.5 -197t-327 -70.5q-145 0 -269 47t-215.5 133t-143.5 216t-52 288q0 216 68.5 393t202 308.5t344 205.5t481.5 77q20 1 33.5 -12.5t13.5 -33.5v-216q0 -20 -12.5 -33t-32.5 -14
q-289 -6 -456.5 -117t-229.5 -349q141 167 394 167zM823 266q115 0 180 71.5t65 171.5q0 101 -65 172.5t-180 71.5q-117 0 -183.5 -71.5t-66.5 -172.5q0 -99 67 -171t183 -72z" />
    <glyph glyph-name="seven.dnom" horiz-adv-x="1587" 
d="M381 0q-32 0 -47.5 24.5t-1.5 55.5l569 1186h-769q-18 0 -31.5 13.5t-13.5 32.5v247q0 19 13.5 32t31.5 13h1249q23 0 36.5 -13.5t13.5 -36.5v-67q0 -28 -20 -73l-656 -1391q-10 -23 -36 -23h-338z" />
    <glyph glyph-name="eight.dnom" horiz-adv-x="1651" 
d="M1204 852q137 -52 219.5 -161t82.5 -251q0 -99 -44 -184.5t-127.5 -150t-214.5 -101t-295 -36.5t-294.5 36.5t-214 101t-127.5 150t-44 184.5q0 142 82.5 251t219.5 161q-111 46 -180.5 139t-69.5 219q0 184 166 305.5t462 121.5q297 0 463 -121.5t166 -305.5
q0 -126 -69.5 -219t-180.5 -139zM825 1359q-101 0 -166 -52t-65 -133t65 -133t166 -52q102 0 167 52t65 133t-65 133t-167 52zM825 274q122 0 192.5 60t70.5 155t-70.5 155.5t-192.5 60.5t-192 -60.5t-70 -155.5t70 -155t192 -60z" />
    <glyph glyph-name="nine.dnom" horiz-adv-x="1610" 
d="M784 1636q145 0 269.5 -47t216 -133t143.5 -216t52 -288q0 -215 -68.5 -389t-202 -300t-343.5 -194.5t-481 -68.5q-21 0 -34.5 13t-13.5 33v217q0 20 13 32.5t33 12.5q290 8 455 108t227 324q-139 -163 -391 -163q-155 0 -274 71.5t-179.5 186t-60.5 249.5
q0 158 83 284.5t229 197t327 70.5zM788 851q117 0 183.5 71.5t66.5 172.5q0 99 -67 171t-183 72q-115 0 -180.5 -72t-65.5 -171q0 -101 65 -172.5t181 -71.5z" />
    <glyph glyph-name="zero.numr" horiz-adv-x="1716" 
d="M858 2430q151 0 281.5 -58t226 -164t150.5 -264t55 -349t-55 -349t-150.5 -263.5t-226 -163.5t-281.5 -58q-150 0 -280.5 58t-226.5 163.5t-151 263.5t-55 349t55 349t151 264t226.5 164t280.5 58zM858 1099q141 0 212 134t71 362q0 229 -71 363t-212 134
q-139 0 -210.5 -134.5t-71.5 -362.5q0 -227 71.5 -361.5t210.5 -134.5z" />
    <glyph glyph-name="one.numr" horiz-adv-x="1485" 
d="M1013 2397q19 0 32 -13t13 -32v-1514q0 -19 -13 -32t-32 -13h-321q-19 0 -32.5 13t-13.5 32v1183l-245 -118q-19 -8 -36.5 -2t-25.5 24l-98 209q-8 18 -2 36t25 25l399 189q29 13 60 13h290z" />
    <glyph glyph-name="two.numr" horiz-adv-x="1511" 
d="M1379 1102q18 0 31.5 -13t13.5 -32v-219q0 -19 -13.5 -32t-31.5 -13h-1178q-23 0 -37 13.5t-14 37.5v77q0 46 22 62q196 147 339.5 270t232 215t141 171.5t71.5 137t19 115.5q0 214 -231 214q-109 0 -196.5 -45.5t-187.5 -130.5q-11 -9 -21 -11.5t-19.5 2.5t-16 11.5
t-16.5 17.5l-128 149q-12 15 -12 29t6.5 23t20.5 23q272 256 642 256q278 0 424.5 -135.5t146.5 -358.5q0 -216 -140 -411t-447 -423h579z" />
    <glyph glyph-name="three.numr" horiz-adv-x="1615" 
d="M1157 1621q313 -115 313 -392q0 -215 -180.5 -341.5t-480.5 -126.5q-222 0 -376 67.5t-279 188.5q-15 14 -21.5 23t-6.5 22.5t12 28.5l132 157q14 16 23.5 23.5t22.5 7.5t27 -11q46 -36 61 -47.5t56.5 -40.5t67 -40.5t67 -27.5t84 -22t91.5 -6q126 0 204.5 47t78.5 131
q0 86 -95.5 150t-296.5 70q-20 1 -33.5 13.5t-13.5 31.5v152q0 19 13 31.5t34 14.5q187 8 271.5 67.5t84.5 144.5q0 81 -62 125t-176 44q-78 0 -152.5 -24t-120.5 -51.5t-114 -76.5q-26 -14 -39.5 -9t-34.5 29l-119 145q-12 15 -12 28.5t7 23t21 22.5q124 113 287 175
t353 62q138 0 247.5 -33.5t178.5 -92.5t105 -136t36 -167q0 -123 -67.5 -220.5t-197.5 -159.5z" />
    <glyph glyph-name="four.numr" horiz-adv-x="1636" 
d="M1498 1410q24 0 37.5 -13.5t13.5 -37.5v-185q0 -23 -13.5 -36.5t-37.5 -13.5h-190v-286q0 -19 -13.5 -32t-31.5 -13h-293q-18 0 -31.5 13t-13.5 32v286h-801q-24 0 -37.5 13.5t-13.5 36.5v144q0 12 9 23l825 1026q23 30 60 30h296q18 0 31.5 -13t13.5 -32v-942h190z
M499 1410h426v527z" />
    <glyph glyph-name="five.numr" horiz-adv-x="1632" 
d="M895 1809q126 -2 232 -34.5t187.5 -94.5t127 -161t45.5 -227q0 -238 -179 -384.5t-477 -146.5q-218 0 -374 61.5t-283 177.5q-15 14 -21.5 23.5t-6 23t12.5 27.5l132 158q13 16 22.5 23.5t22.5 7.5t28 -11q113 -86 203.5 -127t219.5 -41q124 0 203.5 60.5t79.5 163.5
q0 94 -71 157.5t-210 63.5q-169 0 -296 -63q-17 -7 -32 1l-195 108q-26 13 -23 41l83 731q3 50 51 50h948q18 0 31.5 -13t13.5 -32v-228q0 -18 -13.5 -31t-31.5 -13h-669l-37 -316q105 45 276 45z" />
    <glyph glyph-name="six.numr" horiz-adv-x="1610" 
d="M951 1821q117 0 215 -42t162.5 -112.5t100.5 -161.5t36 -191q0 -159 -83.5 -285.5t-229.5 -197t-327 -70.5q-145 0 -269 47t-215.5 133t-143.5 216t-52 288q0 216 68.5 393t202 308.5t344 205.5t481.5 77q20 1 33.5 -12.5t13.5 -33.5v-216q0 -20 -12.5 -33t-32.5 -14
q-289 -6 -456.5 -117t-229.5 -349q141 167 394 167zM823 1059q115 0 180 71.5t65 171.5q0 101 -65 172.5t-180 71.5q-117 0 -183.5 -71.5t-66.5 -172.5q0 -99 67 -171t183 -72z" />
    <glyph glyph-name="seven.numr" horiz-adv-x="1587" 
d="M381 793q-32 0 -47.5 24.5t-1.5 55.5l569 1186h-769q-18 0 -31.5 13.5t-13.5 32.5v247q0 19 13.5 32t31.5 13h1249q23 0 36.5 -13.5t13.5 -36.5v-67q0 -28 -20 -73l-656 -1391q-10 -23 -36 -23h-338z" />
    <glyph glyph-name="eight.numr" horiz-adv-x="1651" 
d="M1204 1645q137 -52 219.5 -161t82.5 -251q0 -99 -44 -184.5t-127.5 -150t-214.5 -101t-295 -36.5t-294.5 36.5t-214 101t-127.5 150t-44 184.5q0 142 82.5 251t219.5 161q-111 46 -180.5 139t-69.5 219q0 184 166 305.5t462 121.5q297 0 463 -121.5t166 -305.5
q0 -126 -69.5 -219t-180.5 -139zM825 2152q-101 0 -166 -52t-65 -133t65 -133t166 -52q102 0 167 52t65 133t-65 133t-167 52zM825 1067q122 0 192.5 60t70.5 155t-70.5 155.5t-192.5 60.5t-192 -60.5t-70 -155.5t70 -155t192 -60z" />
    <glyph glyph-name="nine.numr" horiz-adv-x="1610" 
d="M784 2429q145 0 269.5 -47t216 -133t143.5 -216t52 -288q0 -215 -68.5 -389t-202 -300t-343.5 -194.5t-481 -68.5q-21 0 -34.5 13t-13.5 33v217q0 20 13 32.5t33 12.5q290 8 455 108t227 324q-139 -163 -391 -163q-155 0 -274 71.5t-179.5 186t-60.5 249.5
q0 158 83 284.5t229 197t327 70.5zM788 1644q117 0 183.5 71.5t66.5 172.5q0 99 -67 171t-183 72q-115 0 -180.5 -72t-65.5 -171q0 -101 65 -172.5t181 -71.5z" />
    <glyph glyph-name="com_I" horiz-adv-x="1069" 
d="M222 2371q0 32 18.5 50.5t50.5 18.5h488q32 0 50.5 -18.5t18.5 -50.5v-2302q0 -32 -18.5 -50.5t-50.5 -18.5h-488q-32 0 -50.5 18.5t-18.5 50.5v2302z" />
    <glyph glyph-name="com_o" horiz-adv-x="2400" 
d="M383 880q0 178 53.5 333t148.5 269.5t223.5 196.5t281.5 123t320 41v-487q-174 0 -292 -127t-118 -349h-617z" />
    <glyph glyph-name="com_n" horiz-adv-x="2185" 
d="M1238 1869q167 0 291.5 -47.5t201.5 -138t114.5 -215t37.5 -283.5v-1116q0 -32 -18.5 -50.5t-50.5 -18.5h-460q-32 0 -50 18.5t-18 50.5v908q0 211 -75 303.5t-226 92.5q-175 0 -284.5 -121.5t-109.5 -336.5v634q100 150 264 235t383 85z" />
    <glyph glyph-name="com_c" 
d="M1062 1347v488q276 0 491 -111.5t334 -329.5q38 -72 -35 -105l-353 -165q-61 -30 -104 35q-119 188 -333 188z" />
    <glyph glyph-name="com_C" horiz-adv-x="2400" 
d="M2162 1737q-66 -30 -106 37q-95 176 -241 264t-324 88v514q168 0 321.5 -36t294 -109t258.5 -194t201 -282q37 -73 -35 -107z" />
    <glyph glyph-name="com_O" horiz-adv-x="2400" 
 />
    <glyph glyph-name="com_i_base" horiz-adv-x="1037" 
d="M220 1761q0 32 18.5 50t50.5 18h459q32 0 50.5 -18t18.5 -50v-1692q0 -32 -18.5 -50.5t-50.5 -18.5h-459q-32 0 -50.5 18.5t-18.5 50.5v1692z" />
    <glyph glyph-name="com_d" horiz-adv-x="2275" 
d="M988 1843q656 0 731 -963h-177q0 218 -115.5 347t-294.5 129q-174 0 -292 -127t-118 -349h-617q0 211 66.5 390.5t183 305t280 196.5t353.5 71z" />
    <glyph glyph-name="com_g_gora" horiz-adv-x="2309" 
d="M156 1250q0 129 60 241t167 193.5t264 128.5t343 47v-376q-125 0 -209.5 -64t-84.5 -170h-540z" />
    <glyph glyph-name="newGlyph" horiz-adv-x="2400" 
 />
    <glyph glyph-name="com_duze_I" horiz-adv-x="626" 
d="M0 2371q0 29 20 49t49 20h488q28 0 48.5 -20.5t20.5 -48.5v-2302q0 -28 -20.5 -48.5t-48.5 -20.5h-488q-29 0 -49 20t-20 49v2302z" />
    <glyph glyph-name="com_duze_I_bok" horiz-adv-x="626" 
d="M0 2371q0 29 20 49t49 20h488q28 0 48.5 -20.5t20.5 -48.5v-2302q0 -28 -20.5 -48.5t-48.5 -20.5h-488q-29 0 -49 20t-20 49v2302z" />
    <glyph glyph-name="com_currency" horiz-adv-x="2400" 
d="M327 1442q147 114 324 176t369 62v-459q-132 0 -247 -48t-198 -133t-131 -208t-48 -267h-500q0 184 58 354t165 312l-370 267q-29 21 -31.5 53.5t22.5 58.5l208 210q25 26 58.5 23t54.5 -33z" />
    <glyph glyph-name="com_infinity" horiz-adv-x="2400" 
d="M69 1092q0 150 52.5 276t143 211t212.5 132.5t260 47.5q103 0 191 -26t163.5 -78.5t138 -119.5t128.5 -160v-283h-266q-91 128 -130 170q-104 109 -219 110q-99 0 -160.5 -81.5t-61.5 -198.5h-452z" />
    </font>
</defs>
</svg>
