<?xml version="1.0" standalone="no"?>
<!DOCTYPE svg PUBLIC "-//W3C//DTD SVG 1.1//EN" "http://www.w3.org/Graphics/SVG/1.1/DTD/svg11.dtd" >
<svg xmlns="http://www.w3.org/2000/svg" xmlns:xlink="http://www.w3.org/1999/xlink" version="1.1">
<metadata>
Created by FontForge 20170731 at Fri Jun 24 01:06:55 2016
 By Aleksey,,,
Copyright (c) 2015 by Mateusz Machalski. All rights reserved.
</metadata>
<defs>
<font id="Migrena_Grotesque-UltraLight" horiz-adv-x="1969" >
  <font-face 
    font-family="Migrena_Grotesque UltraLight"
    font-weight="300"
    font-stretch="normal"
    units-per-em="4000"
    panose-1="0 0 4 0 0 0 0 0 0 0"
    ascent="3200"
    descent="-800"
    x-height="1640"
    cap-height="2440"
    bbox="-2080 -960 4300 3419"
    underline-thickness="50"
    underline-position="-200"
    unicode-range="U+0020-25CA"
  />
<missing-glyph horiz-adv-x="1668" 
d="M1367 2560v-3335h-1057v3335h1057zM1111 2337h-551v-110h217v-124h-220v-110h554v110h-221v124h221v110zM890 1906h-333v-346h554v113h-221v233zM777 1793v-120h-110v120h110zM1111 1469h-554v-110h220v-123h-220v-110h333v233h221v110zM1111 1269h-110v-220h-444v-113
h554v333zM1111 862h-334v-186h113v76h111v-156h-334v266h-110v-376h554v376zM1111 286h-554v-377h554v377zM1001 175v-156h-334v156h334zM1111 -168h-554v-110h233l-233 -157v-110h554v110h-341l234 157h107v110z" />
    <glyph glyph-name=".notdef" horiz-adv-x="1668" 
d="M1367 2560v-3335h-1057v3335h1057zM1111 2337h-551v-110h217v-124h-220v-110h554v110h-221v124h221v110zM890 1906h-333v-346h554v113h-221v233zM777 1793v-120h-110v120h110zM1111 1469h-554v-110h220v-123h-220v-110h333v233h221v110zM1111 1269h-110v-220h-444v-113
h554v333zM1111 862h-334v-186h113v76h111v-156h-334v266h-110v-376h554v376zM1111 286h-554v-377h554v377zM1001 175v-156h-334v156h334zM1111 -168h-554v-110h233l-233 -157v-110h554v110h-341l234 157h107v110z" />
    <glyph glyph-name=".null" horiz-adv-x="0" 
 />
    <glyph glyph-name="nonmarkingreturn" horiz-adv-x="1333" 
 />
    <glyph glyph-name="space" unicode=" " horiz-adv-x="750" 
 />
    <glyph glyph-name="exclam" unicode="!" horiz-adv-x="679" 
d="M278 2419q-1 9 5 15t15 6h83q9 0 15 -6t6 -15l-17 -1811q0 -21 -20 -21h-50q-9 0 -15 6t-6 15zM340 -25q-43 0 -74 31t-31 74q0 42 31 73t74 31q42 0 73 -31t31 -73q0 -43 -31 -74t-73 -31z" />
    <glyph glyph-name="quotedbl" unicode="&#x22;" horiz-adv-x="1009" 
d="M193 2489q-1 9 5 15t15 6h70q9 0 15.5 -6t5.5 -15l-13 -718q-2 -20 -21 -20h-45q-9 0 -15 6t-6 14zM706 2489q-1 9 5.5 15t14.5 6h70q9 0 15.5 -6t5.5 -15l-13 -718q-2 -20 -21 -20h-45q-9 0 -15 6t-6 14z" />
    <glyph glyph-name="numbersign" unicode="#" horiz-adv-x="2515" 
d="M2253 1606q9 0 14.5 -6t4.5 -14l-6 -70q-2 -21 -23 -21h-432l-72 -730h414q9 0 14.5 -6t4.5 -15l-6 -70q-1 -8 -7.5 -14t-14.5 -6h-416l-63 -633q-2 -21 -23 -21h-82q-9 0 -14.5 6t-4.5 15l63 633h-786l-63 -633q0 -9 -7 -15t-16 -6h-82q-9 0 -14.5 6t-4.5 15l63 633
h-432q-9 0 -14.5 6t-4.5 14l6 70q2 21 23 21h433l72 730h-415q-9 0 -14.5 6t-4.5 15l6 70q2 20 22 20h417l63 633q2 21 23 21h82q9 0 14.5 -6t4.5 -15l-63 -633h786l63 633q1 9 7.5 15t14.5 6h83q9 0 14.5 -6t4.5 -15l-63 -633h431zM1615 765l72 730h-786l-72 -730h786z" />
    <glyph glyph-name="dollar" unicode="$" horiz-adv-x="2176" 
d="M1966 626q0 -127 -41.5 -231.5t-113 -177t-171 -124.5t-211 -79.5t-238.5 -35.5v-400q0 -8 -6.5 -15t-15.5 -7h-58q-8 0 -14.5 7t-6.5 15v397h-4q-254 0 -460 71t-399 201q-24 15 -14 35l30 61q13 21 34 7l90 -55.5t91 -51.5t103 -51t108 -41.5t125.5 -35t136.5 -20.5
t158 -9q121 0 228 17.5t202.5 57t164 99t108.5 149t40 201.5q0 65 -14.5 122t-35.5 101t-62.5 84.5t-76 68t-97 56t-104.5 45.5t-119 38.5t-120.5 32.5t-128.5 31q-88 21 -132.5 32t-125.5 34t-125.5 41t-110 49t-102.5 61.5t-81 74.5t-66.5 92.5t-38 111.5t-15.5 135
q0 285 214 461.5t599 183.5v361q0 8 6.5 14t14.5 6h59q8 0 14.5 -6t6.5 -14v-363q114 -5 217.5 -25t190.5 -53t151 -65t136 -75q20 -12 10 -33l-32 -65q-10 -21 -35 -5q-148 94 -317.5 154t-386.5 60q-176 0 -314 -39t-226 -109t-133.5 -165.5t-45.5 -210.5q0 -233 204 -360
q127 -79 398 -147q42 -10 128 -30q280 -67 405 -115q265 -103 362 -280q63 -117 63 -274z" />
    <glyph glyph-name="percent" unicode="%" horiz-adv-x="3190" 
d="M2222 2496q7 -3 10 -11.5t0 -15.5l-1167 -2545q-9 -19 -28 -11l-57 27q-7 4 -10 12t0 15l1167 2545q10 19 28 10zM1313 1701q0 -349 -152.5 -557t-399.5 -208q-246 0 -398.5 208t-152.5 557q0 348 152.5 556t398.5 208q247 0 399.5 -207.5t152.5 -556.5zM761 1038
q207 0 322.5 178t115.5 485t-115.5 484.5t-322.5 177.5q-206 0 -322 -178t-116 -484q0 -307 116 -485t322 -178zM2429 1504q246 0 398.5 -208t152.5 -556q0 -349 -152.5 -557t-398.5 -208t-398.5 208t-152.5 557q0 348 152.5 556t398.5 208zM2429 77q206 0 322 178t116 485
q0 306 -116 484t-322 178t-322 -178t-116 -484q0 -307 116 -485t322 -178z" />
    <glyph glyph-name="ampersand" unicode="&#x26;" horiz-adv-x="2256" 
d="M2137 49q14 -16 7 -32.5t-27 -16.5h-75q-14 0 -26 12l-329 345q-308 -397 -780 -397q-320 0 -518.5 173.5t-198.5 454.5q0 124 39 234.5t113.5 204.5t171.5 173t225 153q-249 291 -249 564q0 133 48 238.5t133.5 172.5t198.5 102t246 35q146 0 269.5 -44t254.5 -140
q17 -9 8 -28l-33 -60q-11 -20 -30 -8q-119 93 -231.5 133.5t-240.5 40.5q-229 0 -362 -113.5t-133 -322.5q0 -275 296 -585l762 -804q159 256 246 630q5 20 27 17l68 -15q20 -6 15 -25q-98 -413 -278 -688zM915 72q420 0 695 365l-796 835q-251 -146 -370.5 -304.5
t-119.5 -365.5q0 -240 160.5 -385t430.5 -145z" />
    <glyph glyph-name="quotesingle" unicode="'" horiz-adv-x="597" 
d="M243 2489q-1 9 5 15t15 6h70q9 0 15.5 -6t5.5 -15l-13 -718q-2 -20 -21 -20h-45q-9 0 -15 6t-6 14z" />
    <glyph glyph-name="parenleft" unicode="(" horiz-adv-x="964" 
d="M352 968q0 -888 456 -1533q11 -18 -7 -27l-43 -24q-15 -7 -24 5q-244 333 -367.5 736t-123.5 843q0 427 126.5 826t364.5 752q10 14 24 5l43 -23q17 -10 7 -27q-456 -702 -456 -1533z" />
    <glyph glyph-name="parenright" unicode=")" horiz-adv-x="964" 
d="M230 2546q238 -353 364.5 -752t126.5 -826q0 -440 -123.5 -843t-367.5 -736q-9 -12 -24 -5l-43 24q-18 9 -7 27q456 645 456 1533q0 831 -456 1533q-10 17 7 27l43 23q14 9 24 -5z" />
    <glyph glyph-name="asterisk" unicode="*" horiz-adv-x="1565" 
d="M1372 2510q2 -8 -1.5 -15t-10.5 -9l-497 -162l307 -422q4 -6 2.5 -14t-7.5 -12l-49 -36q-16 -12 -27 4l-306 422l-307 -422q-10 -16 -26 -4l-50 36q-6 4 -7 12t3 14l307 422l-497 162q-7 2 -10.5 9t-1.5 15l19 58q2 7 9 11t14 2l497 -162v522q0 8 5.5 13.5t13.5 5.5h62
q8 0 13 -5.5t5 -13.5v-522l497 162q7 2 14.5 -1.5t9.5 -11.5z" />
    <glyph glyph-name="plus" unicode="+" horiz-adv-x="2046" 
d="M1795 1105q9 0 15 -6t6 -15v-60q0 -9 -6 -15t-15 -6h-721v-721q0 -9 -6 -15t-15 -6h-60q-9 0 -15 6t-6 15v721h-721q-9 0 -15 6t-6 15v60q0 9 6 15t15 6h721v721q0 9 6 15t15 6h60q9 0 15 -6t6 -15v-721h721z" />
    <glyph glyph-name="comma" unicode="," horiz-adv-x="687" 
d="M348 184q42 0 73 -31.5t31 -94.5q0 -109 -53.5 -250t-158.5 -236q-16 -13 -31 4l-9 10q-12 15 2 29q59 59 96.5 141.5t37.5 165.5q0 28 -8.5 41.5t-34.5 28.5q-50 31 -50 87q0 43 31 74t74 31z" />
    <glyph glyph-name="hyphen" unicode="-" horiz-adv-x="1695" 
d="M251 898q-9 0 -15 6t-6 15v70q0 20 21 20h1193q21 0 21 -20v-70q0 -9 -6 -15t-15 -6h-1193z" />
    <glyph glyph-name="period" unicode="." horiz-adv-x="679" 
d="M340 -25q-43 0 -74 31t-31 74q0 42 31 73t74 31q42 0 73 -31t31 -73q0 -43 -31 -74t-73 -31z" />
    <glyph glyph-name="slash" unicode="/" horiz-adv-x="1493" 
d="M1306 2616q9 19 28 11l57 -27q7 -3 10 -11.5t0 -15.5l-1235 -2649q-9 -19 -28 -11l-56 27q-7 3 -10.5 11.5t0.5 15.5z" />
    <glyph glyph-name="zero" unicode="0" horiz-adv-x="2200" 
d="M1100 2465q197 0 362 -87.5t281.5 -247.5t181 -393.5t64.5 -516.5t-64.5 -516.5t-181 -393.5t-281.5 -247.5t-362 -87.5t-362.5 87.5t-281.5 247.5t-181 393.5t-65 516.5t65 516.5t181 393.5t281.5 247.5t362.5 87.5zM1100 86q232 0 403.5 140.5t262 396.5t90.5 597
t-90.5 597t-262 396.5t-403.5 140.5q-231 0 -402.5 -140.5t-262.5 -396.5t-91 -597t91 -597t262.5 -396.5t402.5 -140.5z" />
    <glyph glyph-name="one" unicode="1" horiz-adv-x="1485" 
d="M971 2440q8 0 14.5 -6.5t6.5 -14.5v-2398q0 -8 -6.5 -14.5t-14.5 -6.5h-87q-8 0 -14.5 6.5t-6.5 14.5v2287l-500 -262q-19 -11 -30 10l-28 61q-9 18 10 28l554 288q14 7 32 7h70z" />
    <glyph glyph-name="two" unicode="2" horiz-adv-x="2010" 
d="M1836 111q8 0 14.5 -6.5t6.5 -14.5v-69q0 -8 -6.5 -14.5t-14.5 -6.5h-1605q-9 0 -15 6t-6 15v27q0 19 9 27q503 400 809 700.5t459 556t153 481.5q0 252 -149 396.5t-440 144.5q-396 0 -712 -357q-15 -17 -35 5l-44 50q-12 12 9 32q74 82 151.5 145.5t176 119.5t218.5 86
t253 30q175 0 310 -48t219.5 -134.5t128 -203t43.5 -257.5q0 -151 -55.5 -306t-158 -309t-270.5 -332.5t-369.5 -358.5t-478.5 -405h1399z" />
    <glyph glyph-name="three" unicode="3" horiz-adv-x="2101" 
d="M1220 1259q340 -49 505.5 -210.5t165.5 -425.5q0 -304 -222 -476t-603 -172q-515 0 -862 381q-20 20 -10 32l47 55q19 22 35 5q328 -362 782 -362q326 0 515 140.5t189 397.5q0 103 -29 189t-94 159t-164.5 123.5t-247 79.5t-335.5 31q-10 0 -16 6t-6 15v50q0 9 6 15
t15 6q198 2 352 47t248.5 122t142.5 175.5t48 213.5q0 240 -149 369t-448 129q-220 0 -391.5 -87.5t-317.5 -242.5q-17 -15 -35 5l-42 50q-10 13 10 33q334 353 795 353q177 0 312.5 -43.5t220.5 -123t128 -187.5t43 -241q0 -225 -151.5 -388t-436.5 -223z" />
    <glyph glyph-name="four" unicode="4" horiz-adv-x="2183" 
d="M2009 732q9 0 15 -6t6 -15v-69q0 -9 -6 -15t-15 -6h-412v-600q0 -8 -6.5 -14.5t-14.5 -6.5h-87q-8 0 -14.5 6.5t-6.5 14.5v600h-1328q-8 0 -14 6t-6 15v63q0 6 4 13l1348 1710q9 12 31 12h73q8 0 14.5 -6.5t6.5 -14.5v-1687h412zM281 732h1187v1511z" />
    <glyph glyph-name="five" unicode="5" horiz-adv-x="2119" 
d="M1061 1454q175 -2 327 -50.5t269 -139t184.5 -233.5t67.5 -323q0 -174 -66 -314.5t-181.5 -231t-271 -139t-336.5 -48.5q-278 0 -474.5 94t-354.5 267q-21 20 -10 32l47 55q18 21 35 5q148 -163 328 -252.5t421 -89.5q154 0 286 39.5t232.5 115.5t158 196t57.5 272
q0 197 -98 344t-263.5 221.5t-374.5 74.5q-332 0 -613 -170q-7 -4 -16 -1l-68 29q-12 6 -12 20l135 1192q0 9 6 15t14 6h1267q8 0 14.5 -6.5t6.5 -14.5v-69q0 -8 -6.5 -14.5t-14.5 -6.5h-1175l-117 -1028q147 81 290 117t306 36z" />
    <glyph glyph-name="six" unicode="6" horiz-adv-x="2079" 
d="M1079 1527q172 0 319.5 -58.5t250.5 -160.5t161.5 -245t58.5 -308t-62.5 -309.5t-171 -248t-263.5 -163t-333 -59.5q-239 0 -428 104t-295 293.5t-106 431.5q0 511 156 877t466 567.5t756 216.5q9 0 15 -6t6 -15v-69q0 -21 -21 -21q-555 -23 -867.5 -347.5t-375.5 -931.5
q96 202 290.5 327t443.5 125zM1039 86q200 0 359.5 88.5t248 241t88.5 339.5q0 189 -83.5 339t-239 236t-358.5 86q-150 0 -284 -56t-226.5 -147.5t-146 -211.5t-53.5 -246q0 -140 52 -263.5t143 -212.5t220.5 -141t279.5 -52z" />
    <glyph glyph-name="seven" unicode="7" horiz-adv-x="2067" 
d="M633 0q-15 0 -22 11.5t0 25.5l1073 2292h-1511q-8 0 -14 6.5t-6 14.5v69q0 8 6 14.5t14 6.5h1650q9 0 15 -6t6 -15v-25q0 -14 -9 -32l-1100 -2352q-5 -10 -17 -10h-85z" />
    <glyph glyph-name="eight" unicode="8" horiz-adv-x="2098" 
d="M1295 1282q91 -19 173 -52.5t160 -88.5t134.5 -124.5t91 -166t34.5 -208.5q0 -305 -228.5 -486t-610.5 -181t-610.5 181t-228.5 486q0 112 34.5 208.5t91 166t134.5 124.5t160 88.5t173 52.5q-78 18 -150 48t-141.5 78.5t-120 110t-81.5 146.5t-31 183q0 128 54 240.5
t152 196t244 132t320 48.5t320 -48.5t244 -132t152 -196t54 -240.5q0 -98 -31 -183t-81.5 -146.5t-120 -110t-141.5 -78.5t-150 -48zM406 1839q0 -148 84.5 -263.5t230.5 -178t328 -62.5t328 62.5t230.5 178t84.5 263.5q0 222 -178.5 371.5t-464.5 149.5t-464.5 -149.5
t-178.5 -371.5zM1049 86q321 0 515.5 157t194.5 411t-194.5 411t-515.5 157t-515.5 -157t-194.5 -411t194.5 -411t515.5 -157z" />
    <glyph glyph-name="nine" unicode="9" horiz-adv-x="2034" 
d="M1017 2465q174 0 323.5 -61t256 -169t167 -263t60.5 -337q0 -286 -51.5 -533t-160 -450.5t-267 -348t-381.5 -224t-495 -79.5q-10 0 -16 6t-6 15v69q0 8 6 14.5t15 6.5q278 1 496.5 90t366.5 254t237 391t120 512q-95 -200 -284 -323t-427 -123q-166 0 -309 58.5
t-243.5 161t-157.5 245.5t-57 308t61 309.5t167 248t256 163t323 59.5zM1002 1024q145 0 274.5 56t219 147.5t142 211.5t52.5 246q0 187 -86 339.5t-240.5 241t-346.5 88.5t-347 -88.5t-240.5 -241t-85.5 -339.5q0 -189 80.5 -339t231.5 -236t346 -86z" />
    <glyph glyph-name="colon" unicode=":" horiz-adv-x="679" 
d="M340 1455q-43 0 -74 31t-31 74q0 42 31 73t74 31q42 0 73 -31t31 -73q0 -43 -31 -74t-73 -31zM340 -25q-43 0 -74 31t-31 74q0 42 31 73t74 31q42 0 73 -31t31 -73q0 -43 -31 -74t-73 -31z" />
    <glyph glyph-name="semicolon" unicode=";" horiz-adv-x="691" 
d="M352 1455q-43 0 -74 31t-31 74q0 42 31 73t74 31q42 0 73 -31t31 -73q0 -43 -31 -74t-73 -31zM348 184q42 0 73 -31.5t31 -94.5q0 -109 -53.5 -250t-158.5 -236q-16 -13 -31 4l-9 10q-12 15 2 29q59 59 96.5 141.5t37.5 165.5q0 28 -8.5 41.5t-34.5 28.5q-50 31 -50 87
q0 43 31 74t74 31z" />
    <glyph glyph-name="less" unicode="&#x3c;" horiz-adv-x="2046" 
d="M1816 1708q0 -6 -3.5 -10t-6.5 -5.5l-11 -5.5l-1443 -650l1443 -649l8 -4t6 -3.5t5.5 -6t1.5 -7.5v-81q0 -9 -6.5 -14.5t-14.5 -1.5l-1544 700q-21 11 -21 25v85q0 14 21 25l1544 700q8 4 14.5 -1.5t6.5 -14.5v-81z" />
    <glyph glyph-name="equal" unicode="=" horiz-adv-x="2046" 
d="M251 1360q-9 0 -15 6t-6 15v60q0 9 6 15t15 6h1544q9 0 15 -6t6 -15v-60q0 -9 -6 -15t-15 -6h-1544zM251 643q-9 0 -15 6t-6 15v60q0 9 6 15t15 6h1544q9 0 15 -6t6 -15v-60q0 -9 -6 -15t-15 -6h-1544z" />
    <glyph glyph-name="greater" unicode="&#x3e;" horiz-adv-x="2046" 
d="M230 1708v81q0 9 6.5 14.5t14.5 1.5l1544 -700q21 -11 21 -25v-85q0 -14 -21 -25l-1544 -700q-8 -4 -14.5 1.5t-6.5 14.5v81q0 6 3.5 10t6.5 5.5l11 5.5l1443 649l-1443 650l-8 4t-6 3.5t-5.5 6t-1.5 7.5z" />
    <glyph glyph-name="question" unicode="?" horiz-adv-x="1707" 
d="M1489 1877q0 477 -551 477q-199 0 -353 -72t-294 -203q-19 -17 -35 5l-42 51q-10 13 10 33q154 140 329 218.5t402 78.5q322 0 492.5 -145.5t170.5 -427.5q0 -92 -23.5 -175t-63.5 -147.5t-91.5 -125.5t-108.5 -116.5t-114.5 -112t-109 -121t-91.5 -135t-63.5 -161.5
t-23.5 -193q0 -18 -18 -18l-63 1q-8 0 -13 7t-5 17q0 132 36.5 247t94.5 199.5t128.5 161.5t140.5 149t128 145t94.5 166t36.5 197zM880 -25q-43 0 -74 31t-31 74q0 42 31 73t74 31q42 0 73 -31t31 -73q0 -43 -31 -74t-73 -31z" />
    <glyph glyph-name="at" unicode="@" horiz-adv-x="3216" 
d="M2028 -544q0 -16 -16 -18q-317 -70 -567 -70q-216 0 -399.5 47.5t-319.5 133t-239.5 201t-168 256t-96.5 293.5t-32 317q0 224 58 431t162.5 376t253 308t326.5 233.5t386 145.5t429 51q218 0 404.5 -45t337.5 -137t257.5 -226t164 -318t57.5 -406q0 -149 -25.5 -295
t-78.5 -278.5t-127 -234t-178 -161.5t-224 -60q-388 0 -356 488q-23 -74 -77 -155.5t-131.5 -157.5t-184.5 -125.5t-219 -49.5q-87 0 -163 20t-143 66t-115 114.5t-75.5 171.5t-27.5 231q0 205 63 385.5t174 311.5t271.5 206.5t347.5 74.5q168 -1 454 -75q16 -3 14 -21
l-88 -925q-22 -231 38 -350t227 -119q126 0 227.5 84.5t163 221.5t93.5 298t32 328q0 263 -79 463t-227 326.5t-352 190t-461 63.5q-247 0 -474.5 -67.5t-413.5 -195.5t-324 -303t-214 -401.5t-76 -478.5q0 -185 39 -350.5t128 -314t220.5 -256.5t328 -171.5t439.5 -64.5
q240 -1 552 67q11 3 19.5 -4t7.5 -19zM1442 88q111 0 216.5 52t189 144.5t140 227.5t71.5 293l60 624q-210 66 -373 66q-132 0 -248.5 -45.5t-204.5 -127.5t-152.5 -192.5t-97.5 -244t-33 -278.5q0 -113 22.5 -202.5t61.5 -148t95 -97t118 -55t135 -16.5z" />
    <glyph glyph-name="A" unicode="A" horiz-adv-x="2430" 
d="M2338 24q11 -24 -17 -24h-101q-19 0 -25 17l-362 837h-1251l-374 -837q-9 -17 -26 -17h-92q-12 0 -18 6t0 18l1103 2439q8 17 26 17h36q17 0 25 -17zM629 960h1158l-570 1318z" />
    <glyph glyph-name="B" unicode="B" horiz-adv-x="2292" 
d="M1426 1255q137 -5 256 -48.5t208 -119.5t140.5 -190t51.5 -252q0 -137 -52 -252.5t-154 -204t-267 -138.5t-377 -50h-910h-58q-8 0 -14.5 6.5t-6.5 14.5v2398q0 8 6.5 14.5t14.5 6.5h87h806q214 0 376 -44.5t263 -126.5t151 -192t50 -247q0 -106 -30 -196.5t-82.5 -156
t-125 -114t-156.5 -75t-177 -33.5zM1863 1820q0 115 -39 205.5t-122.5 160t-226 106.5t-338.5 37h-765v-1022h810q346 0 513.5 135t167.5 378zM1212 111q195 0 340 41t230 116.5t125.5 171.5t40.5 215q0 121 -43 218.5t-131 171.5t-233.5 114t-338.5 40h-830v-1088h840z" />
    <glyph glyph-name="C" unicode="C" horiz-adv-x="2594" 
d="M2391 639q21 -8 10 -30q-317 -634 -991 -634q-159 0 -311 39.5t-285 113t-244 183.5t-191 246t-124.5 306t-44.5 357t44.5 357t124.5 306t191 246t244 183.5t285 113t311 39.5q674 0 991 -634q11 -22 -10 -30l-67 -32q-19 -8 -29 11q-288 574 -885 574q-218 0 -413 -82
t-339.5 -227.5t-229 -359.5t-84.5 -465t84.5 -465t229 -359.5t339.5 -227.5t413 -82q597 0 885 574q10 19 29 11z" />
    <glyph glyph-name="D" unicode="D" horiz-adv-x="2492" 
d="M1052 2440q204 0 388.5 -51.5t338 -154t266 -247.5t175 -341.5t62.5 -425.5t-62.5 -425.5t-175 -341.5t-266 -247.5t-338 -154t-388.5 -51.5h-735h-53q-8 0 -14.5 6.5t-6.5 14.5v2398q0 8 6.5 14.5t14.5 6.5h87h701zM1042 111q234 0 436 76t351 215.5t234 350t85 467.5
t-85 467.5t-234 350t-351 215.5t-436 76h-670v-2218h670z" />
    <glyph glyph-name="E" unicode="E" horiz-adv-x="2124" 
d="M1901 111q9 0 15 -6t6 -15v-69q0 -9 -6 -15t-15 -6h-1582h-55q-8 0 -14.5 6.5t-6.5 14.5v2398q0 8 6.5 14.5t14.5 6.5h87h1510q9 0 15 -6t6 -15v-69q0 -9 -6 -15t-15 -6h-1489v-999h1329q9 0 15 -6t6 -15v-70q0 -20 -21 -20h-1329v-1108h1529z" />
    <glyph glyph-name="F" unicode="F" horiz-adv-x="2024" 
d="M1821 2440q9 0 15 -6t6 -15v-69q0 -9 -6 -15t-15 -6h-1449v-1119h1369q9 0 15 -6t6 -15v-70q0 -20 -21 -20h-1369v-1078q0 -8 -6.5 -14.5t-14.5 -6.5h-87q-8 0 -14.5 6.5t-6.5 14.5v2398q0 8 6.5 14.5t14.5 6.5h87h1470z" />
    <glyph glyph-name="G" unicode="G" horiz-adv-x="2644" 
d="M2380 1065q9 0 15 -6t6 -15v-767q-236 -159 -468 -230.5t-523 -71.5q-159 0 -311 39.5t-285 113t-244 183.5t-191 246t-124.5 306t-44.5 357t44.5 357t124.5 306t191 246t244 183.5t285 113t311 39.5q331 0 563.5 -135t414.5 -427q12 -19 -10 -30l-67 -31q-19 -9 -30 11
q-165 262 -372 381.5t-499 119.5q-218 0 -413 -82t-339.5 -227.5t-229 -359.5t-84.5 -465t84.5 -465t229 -359.5t339.5 -227.5t413 -82q252 0 454.5 55.5t417.5 185.5v717q0 9 6 15t15 6h77z" />
    <glyph glyph-name="H" unicode="H" horiz-adv-x="2484" 
d="M2221 2440q8 0 14.5 -6.5t6.5 -14.5v-2398q0 -8 -6.5 -14.5t-14.5 -6.5h-87q-8 0 -14.5 6.5t-6.5 14.5v1198h-1741v-1198q0 -8 -6.5 -14.5t-14.5 -6.5h-87q-8 0 -14.5 6.5t-6.5 14.5v2398q0 8 6.5 14.5t14.5 6.5h87q8 0 14.5 -6.5t6.5 -14.5v-1089h1741v1089
q0 8 6.5 14.5t14.5 6.5h87z" />
    <glyph glyph-name="I" unicode="I" horiz-adv-x="614" 
d="M243 2419q0 8 6 14.5t14 6.5h88q8 0 14.5 -6.5t6.5 -14.5v-2398q0 -8 -6.5 -14.5t-14.5 -6.5h-88q-8 0 -14 6.5t-6 14.5v2398z" />
    <glyph glyph-name="J" unicode="J" horiz-adv-x="1774" 
d="M1510 2440q9 0 15 -6t6 -15v-1679q0 -373 -190 -569t-540 -196q-473 0 -694 443q-11 22 9 31l71 33q19 8 30 -12q94 -186 234.5 -285t345.5 -99q605 0 605 664v1669q0 9 6 15t15 6h87z" />
    <glyph glyph-name="K" unicode="K" horiz-adv-x="2236" 
d="M351 2440q8 0 14.5 -6.5t6.5 -14.5v-2398q0 -8 -6.5 -14.5t-14.5 -6.5h-87q-8 0 -14.5 6.5t-6.5 14.5v2398q0 8 6.5 14.5t14.5 6.5h87zM2069 27q10 -11 6.5 -19t-18.5 -8h-110q-20 0 -33 14l-1197 1226l1194 1186q13 14 33 14h103q13 0 16 -7.5t-7 -19.5l-1176 -1168z
" />
    <glyph glyph-name="L" unicode="L" horiz-adv-x="1922" 
d="M1798 111q9 0 15 -6t6 -15v-69q0 -9 -6 -15t-15 -6h-1479h-55q-8 0 -14.5 6.5t-6.5 14.5v2398q0 8 6.5 14.5t14.5 6.5h87q8 0 14.5 -6.5t6.5 -14.5v-2308h1426z" />
    <glyph glyph-name="M" unicode="M" horiz-adv-x="2884" 
d="M2565 2461q13 19 30 19h26q9 0 15 -6t6 -15v-2438q0 -9 -6 -15t-15 -6h-87q-9 0 -15 6t-6 15v2156l-1055 -1674q-16 -25 -32 0l-1054 1674v-2156q0 -9 -6 -15t-15 -6h-88q-8 0 -14 6t-6 15v2438q0 9 6 15t14 6h26q18 0 30 -19l1123 -1761z" />
    <glyph glyph-name="N" unicode="N" horiz-adv-x="2524" 
d="M2261 2440q9 0 15 -6t6 -15v-2438q0 -9 -6 -15t-15 -6h-7q-19 0 -30 12l-1852 2239v-2190q0 -9 -6 -15t-15 -6h-88q-8 0 -14 6t-6 15v2438q0 9 6 15t14 6h7q19 0 30 -12l1853 -2239v2190q0 9 6 15t15 6h87z" />
    <glyph glyph-name="O" unicode="O" horiz-adv-x="2820" 
d="M1410 2465q159 0 311 -39.5t285 -113t244 -183.5t191 -246t124.5 -306t44.5 -357t-44.5 -357t-124.5 -306t-191 -246t-244 -183.5t-285 -113t-311 -39.5t-311 39.5t-285 113t-244 183.5t-191 246t-124.5 306t-44.5 357t44.5 357t124.5 306t191 246t244 183.5t285 113
t311 39.5zM1410 86q218 0 413 82t339.5 227.5t229 359.5t84.5 465t-84.5 465t-229 359.5t-339.5 227.5t-413 82t-413 -82t-339.5 -227.5t-229 -359.5t-84.5 -465t84.5 -465t229 -359.5t339.5 -227.5t413 -82z" />
    <glyph glyph-name="P" unicode="P" horiz-adv-x="2142" 
d="M1102 2440q184 0 335.5 -40t255 -108.5t174 -163.5t103 -202t32.5 -226t-32.5 -226t-103 -202t-174 -163.5t-255 -108.5t-335.5 -40h-730v-939q0 -8 -6.5 -14.5t-14.5 -6.5h-87q-8 0 -14.5 6.5t-6.5 14.5v2398q0 8 6.5 14.5t14.5 6.5h87h751zM1082 1072q168 0 302.5 34.5
t224 92.5t148.5 139.5t85 171t26 190.5q0 84 -18.5 160t-56.5 147.5t-102 129.5t-148.5 101.5t-202 67t-258.5 23.5h-710v-1257h710z" />
    <glyph glyph-name="Q" unicode="Q" horiz-adv-x="2820" 
d="M2320 -382q21 0 21 -21v-81q0 -21 -22 -21q-99 0 -196.5 32t-185 93t-156 160.5t-100.5 224.5q-132 -30 -271 -30q-159 0 -311 39.5t-285 113t-244 183.5t-191 246t-124.5 306t-44.5 357t44.5 357t124.5 306t191 246t244 183.5t285 113t311 39.5t311 -39.5t285 -113
t244 -183.5t191 -246t124.5 -306t44.5 -357q0 -180 -41 -344.5t-116 -297.5t-178.5 -242t-229 -185.5t-267.5 -120.5q39 -134 126.5 -229t193.5 -139t222 -44zM344 1220q0 -251 84.5 -465t229 -359.5t339.5 -227.5t413 -82t413 82t339.5 227.5t229 359.5t84.5 465t-84.5 465
t-229 359.5t-339.5 227.5t-413 82t-413 -82t-339.5 -227.5t-229 -359.5t-84.5 -465z" />
    <glyph glyph-name="R" unicode="R" horiz-adv-x="2164" 
d="M1962 42q9 -14 2.5 -28t-24.5 -14h-86q-13 0 -23 15l-654 989q-49 -4 -115 -4h-690v-979q0 -8 -6.5 -14.5t-14.5 -6.5h-87q-8 0 -14.5 6.5t-6.5 14.5v2398q0 8 6.5 14.5t14.5 6.5h87h711q185 0 336 -38t254.5 -104t174 -157.5t103 -196.5t32.5 -224q0 -127 -38.5 -239
t-116 -206t-204 -160.5t-291.5 -94.5zM1042 1112q168 0 302.5 32t224 87.5t148.5 134t85 166t26 188.5t-26 189t-85 166t-148.5 133.5t-224 88t-302.5 32.5h-670v-1217h670z" />
    <glyph glyph-name="S" unicode="S" horiz-adv-x="2176" 
d="M406 1832q0 -233 204 -360q127 -79 398 -147q42 -10 128 -30q280 -67 405 -115q265 -103 362 -280q63 -117 63 -274q0 -137 -48.5 -248t-131 -185t-196 -124t-239.5 -72t-265 -22q-254 0 -460 71t-399 201q-24 15 -14 35l30 61q13 21 34 7l90 -55.5t91 -51.5t103 -51
t108 -41.5t125.5 -35t136.5 -20.5t158 -9q121 0 228 17.5t202.5 57t164 99t108.5 149t40 201.5q0 65 -14.5 122t-35.5 101t-62.5 84.5t-76 68t-97 56t-104.5 45.5t-119 38.5t-120.5 32.5t-128.5 31q-88 21 -132.5 32t-125.5 34t-125.5 41t-110 49t-102.5 61.5t-81 74.5
t-66.5 92.5t-38 111.5t-15.5 135q0 291 222 468t619 177q129 0 244.5 -18.5t211.5 -53t165 -68t147 -80.5q20 -12 10 -33l-32 -65q-10 -21 -35 -5q-148 94 -317.5 154t-386.5 60q-176 0 -314 -39t-226 -109t-133.5 -165.5t-45.5 -210.5z" />
    <glyph glyph-name="T" unicode="T" horiz-adv-x="2375" 
d="M2171 2440q8 0 14.5 -6.5t6.5 -14.5v-69q0 -8 -6.5 -14.5t-14.5 -6.5h-919v-2308q0 -8 -6.5 -14.5t-14.5 -6.5h-87q-8 0 -14.5 6.5t-6.5 14.5v2308h-920q-8 0 -14 6.5t-6 14.5v69q0 8 6 14.5t14 6.5h1028h940z" />
    <glyph glyph-name="U" unicode="U" horiz-adv-x="2444" 
d="M2181 2440q8 0 14.5 -6.5t6.5 -14.5v-1409q0 -504 -260.5 -777t-719.5 -273t-719 273t-260 777v1409q0 8 6 14.5t14 6.5h88q8 0 14.5 -6.5t6.5 -14.5v-1389q0 -459 217 -709t633 -250t633.5 250t217.5 709v1389q0 8 6.5 14.5t14.5 6.5h87z" />
    <glyph glyph-name="V" unicode="V" horiz-adv-x="2350" 
d="M2241 2440q11 0 17 -6.5t1 -18.5l-1046 -2438q-7 -17 -26 -17h-31q-18 0 -26 17l-1058 2439q-11 24 17 24h104q19 0 26 -17l956 -2259l947 2259q8 17 26 17h93z" />
    <glyph glyph-name="W" unicode="W" horiz-adv-x="3257" 
d="M3148 2440q26 0 18 -24l-779 -2439q-7 -17 -25 -17h-31q-17 0 -25 17l-688 2090l-685 -2090q-7 -17 -25 -17h-31q-19 0 -24 17l-782 2438q-8 25 18 25h94q20 0 25 -17l692 -2225l679 2095q7 17 25 17h28q18 0 25 -17l687 -2095l686 2226q5 16 25 16h93z" />
    <glyph glyph-name="X" unicode="X" horiz-adv-x="2303" 
d="M2180 27q9 -13 5.5 -20t-17.5 -7h-105q-20 0 -33 15l-888 1117l-886 -1120q-10 -12 -27 -12h-94q-14 0 -18.5 7t6.5 23l948 1191l-945 1189q-11 16 -5.5 23t20.5 7h99q13 0 20 -3.5t16 -15.5l874 -1099l871 1103q13 15 33 15h96q16 0 19 -7.5t-7 -19.5l-940 -1181z" />
    <glyph glyph-name="Y" unicode="Y" horiz-adv-x="2272" 
d="M2161 2440q12 0 18.5 -6.5t-0.5 -17.5l-981 -1533v-862q0 -8 -6.5 -14.5t-14.5 -6.5h-87q-8 0 -14.5 6.5t-6.5 14.5v857l-996 1538q-6 12 -0.5 18t17.5 6h102q15 0 26 -17l917 -1425l907 1425q11 17 27 17h92z" />
    <glyph glyph-name="Z" unicode="Z" horiz-adv-x="2302" 
d="M173 0q-8 0 -14 6t-6 15v27q0 17 9 27l1727 2254h-1646q-8 0 -14.5 6.5t-6.5 14.5v69q0 8 6.5 14.5t14.5 6.5h1818q9 0 15 -6t6 -15v-27q0 -15 -9 -27l-1728 -2254h1746q8 0 14.5 -6.5t6.5 -14.5v-69q0 -8 -6.5 -14.5t-14.5 -6.5h-1918z" />
    <glyph glyph-name="bracketleft" unicode="[" horiz-adv-x="872" 
d="M699 2469h-352v-3002h352q9 0 15 -6t6 -15v-50q0 -9 -6 -15t-15 -6h-403h-33q-8 0 -14 6.5t-6 14.5v3143q0 8 6 14.5t14 6.5h63h373q9 0 15 -6t6 -15v-50q0 -8 -6 -14t-15 -6z" />
    <glyph glyph-name="backslash" unicode="\" horiz-adv-x="1492" 
d="M166 2616l1234 -2649q4 -7 0.5 -15.5t-10.5 -11.5l-56 -27q-19 -8 -28 11l-1235 2649q-3 7 0 15.5t10 11.5l57 27q19 8 28 -11z" />
    <glyph glyph-name="bracketright" unicode="]" horiz-adv-x="872" 
d="M609 2560q8 0 14 -6.5t6 -14.5v-3143q0 -8 -6 -14.5t-14 -6.5h-63h-373q-9 0 -15 6t-6 15v50q0 9 6 15t15 6h352v3002h-352q-9 0 -15 6t-6 14v50q0 9 6 15t15 6h403h33z" />
    <glyph glyph-name="asciicircum" unicode="^" horiz-adv-x="1654" 
d="M1559 1855q10 -15 2.5 -30t-25.5 -15h-57q-10 0 -15 8l-647 905l-647 -905q-5 -8 -15 -8h-57q-18 0 -25.5 15t3.5 30l682 936q6 9 14 9h90q9 0 15 -9z" />
    <glyph glyph-name="underscore" unicode="_" horiz-adv-x="1386" 
d="M21 -101q-9 0 -15 6t-6 15v59q0 9 6 15t15 6h1344q9 0 15 -6t6 -15v-59q0 -9 -6 -15t-15 -6h-1344z" />
    <glyph glyph-name="grave" unicode="`" horiz-adv-x="709" 
d="M641 1887l-588 445q-18 11 -6 29l39 60q13 17 30 5l577 -461q17 -14 6 -30l-28 -42q-13 -18 -30 -6z" />
    <glyph glyph-name="a" unicode="a" horiz-adv-x="1704" 
d="M1576 35q10 -23 -12 -31l-54 -20q-14 -6 -23 5q-109 192 -139 418q-82 -188 -258 -310t-397 -122q-234 0 -378.5 134.5t-144.5 337.5q0 195 136 329.5t395.5 178t636.5 -46.5v136q0 99 -12.5 174.5t-43.5 140.5t-82 106.5t-130.5 64.5t-187.5 23q-148 0 -270.5 -39
t-273.5 -120q-21 -9 -29 11l-28 60q-9 20 11 29q166 88 303 129.5t299 41.5q132 0 232 -29.5t163 -81.5t102.5 -130t55 -166.5t15.5 -201.5v-456q0 -130 16.5 -236t36.5 -167t61 -162zM718 81q131 0 248.5 52.5t197.5 136.5t127 189t47 210v147q-262 64 -457 62
t-324.5 -59.5t-193.5 -151.5t-64 -215q0 -166 115.5 -268.5t303.5 -102.5z" />
    <glyph glyph-name="b" unicode="b" horiz-adv-x="2087" 
d="M1072 1665q165 0 315 -61t263 -169t180 -268t67 -347t-67 -347t-180 -268t-263 -169t-315 -61q-241 0 -426.5 126.5t-278.5 341.5v-422q0 -9 -6 -15t-15 -6h-83q-9 0 -15 6t-6 15v2518q0 9 6 15t15 6h83q9 0 15 -6t6 -15v-1342q93 215 278.5 341.5t426.5 126.5zM1062 86
q114 0 220 33t194 96.5t153.5 151.5t102 204.5t36.5 248.5t-36.5 248.5t-102 204.5t-153.5 151.5t-194 96.5t-220 33q-147 0 -278.5 -58.5t-224.5 -157.5t-147.5 -234t-54.5 -284t54.5 -284t147.5 -234t224.5 -157.5t278.5 -58.5z" />
    <glyph glyph-name="c" unicode="c" horiz-adv-x="1907" 
d="M1714 449q19 -9 10 -29q-93 -209 -268 -327t-427 -118q-172 0 -325.5 61t-267 169.5t-180 268t-66.5 346.5t66.5 346.5t180 268t267 169.5t325.5 61q252 0 427 -118.5t268 -327.5q9 -19 -10 -28l-70 -33q-18 -8 -29 10q-179 385 -579 385q-201 0 -363 -88.5t-258 -257
t-96 -387.5q0 -220 96 -388.5t258 -257t363 -88.5q410 0 579 386q12 18 29 10z" />
    <glyph glyph-name="d" unicode="d" horiz-adv-x="2087" 
d="M1824 2560q9 0 15 -6t6 -15v-2518q0 -9 -6 -15t-15 -6h-83q-9 0 -15 6t-6 15v422q-93 -215 -278.5 -341.5t-426.5 -126.5q-165 0 -315 61t-263 169t-180 268t-67 347t67 347t180 268t263 169t315 61q241 0 426.5 -126.5t278.5 -341.5v1342q0 9 6 15t15 6h83zM1025 86
q147 0 278.5 58.5t224.5 157.5t147.5 234t54.5 284t-54.5 284t-147.5 234t-224.5 157.5t-278.5 58.5q-114 0 -220 -33t-194 -96.5t-153.5 -151.5t-102 -204.5t-36.5 -248.5t36.5 -248.5t102 -204.5t153.5 -151.5t194 -96.5t220 -33z" />
    <glyph glyph-name="e" unicode="e" horiz-adv-x="1939" 
d="M1706 444q19 -9 10 -29q-97 -216 -274 -328t-422 -112q-135 0 -259.5 38.5t-228 112.5t-180.5 175.5t-119.5 235t-42.5 283.5q0 187 64 346.5t173.5 268t258.5 169.5t317 61q163 0 300 -54.5t236 -155.5t154.5 -253.5t55.5 -339.5h-1429q-1 -14 -1 -42q0 -165 56.5 -304
t153 -232.5t225 -145.5t271.5 -52q207 0 355 95.5t228 285.5q9 18 29 10zM1003 1558q-169 0 -311.5 -72.5t-239 -209.5t-123.5 -318h1280q-8 141 -56.5 255t-128.5 189t-187.5 115.5t-233.5 40.5z" />
    <glyph glyph-name="f" unicode="f" horiz-adv-x="1361" 
d="M1334 2456q21 -17 9 -36l-30 -49q-12 -18 -36 -3q-147 121 -330 121q-106 0 -183.5 -36.5t-122.5 -103t-66 -150.5t-21 -189v-370h701q9 0 15 -6t6 -15v-70q0 -9 -6 -15t-15 -6h-701v-1507q0 -9 -6 -15t-14 -6h-83q-9 0 -15 6t-6 15v1507h-309q-9 0 -15 6t-6 15v70
q0 9 6 15t15 6h309v380q0 125 32 229t94 181.5t159 121t221 43.5q113 0 220.5 -39t177.5 -100z" />
    <glyph glyph-name="g" unicode="g" horiz-adv-x="1824" 
d="M1730 1705q19 0 19 -19v-76q0 -17 -18 -17q-96 0 -171 -46t-108 -130q110 -145 110 -322q0 -115 -48.5 -219t-133 -181.5t-205.5 -123.5t-260 -46h-208q-192 0 -286 -64t-94 -164q0 -49 17.5 -86t59 -68t118 -47.5t185.5 -16.5h265q366 0 563 -133t197 -367
q0 -230 -197 -369.5t-563 -139.5q-365 0 -562 134t-197 356q0 146 104 257.5t277 173.5q-107 8 -183 33.5t-118.5 66t-61 88.5t-18.5 109q0 118 94 201.5t281 107.5q-151 74 -238.5 207t-87.5 291q0 115 48.5 219.5t133.5 182t207 123t261 45.5q143 0 266 -47t211 -131
q47 102 139 160t202 58zM912 626q111 0 209.5 37t167.5 100.5t109 149.5t40 182q0 95 -40 181t-109 149.5t-167.5 100.5t-209.5 37q-224 0 -374.5 -136.5t-150.5 -331.5q0 -196 150.5 -332.5t374.5 -136.5zM1613 -428q0 185 -166 295.5t-475 110.5q-173 0 -319 -50.5
t-233.5 -144.5t-87.5 -211q0 -187 165 -296.5t475 -109.5q311 0 476 109.5t165 296.5z" />
    <glyph glyph-name="h" unicode="h" horiz-adv-x="1962" 
d="M1104 1680q158 0 277 -49t192.5 -140.5t109.5 -214.5t36 -277v-978q0 -9 -6 -15t-15 -6h-82q-9 0 -15 6t-6 15v939q0 293 -127 450.5t-393 157.5q-174 0 -328 -79.5t-254 -213.5t-126 -293v-961q0 -9 -6 -15t-15 -6h-83q-8 0 -14 6t-6 15v2518q0 9 6 15t14 6h83
q9 0 15 -6t6 -15v-1324q29 63 74 125t113.5 124.5t148.5 109.5t184.5 76.5t216.5 29.5z" />
    <glyph glyph-name="i" unicode="i" horiz-adv-x="594" 
d="M298 2023q-43 0 -74 31t-31 74q0 42 31 73t74 31q42 0 73 -31t31 -73q0 -43 -31 -74t-73 -31zM235 1619q0 9 6 15t15 6h82q9 0 15 -6t6 -15v-1598q0 -9 -6 -15t-15 -6h-82q-9 0 -15 6t-6 15v1598z" />
    <glyph glyph-name="j" unicode="j" horiz-adv-x="632" 
d="M336 2232q42 0 73 -31t31 -73q0 -43 -31 -74t-73 -31q-43 0 -74 31t-31 74q0 42 31 73t74 31zM377 1640q9 0 15 -6t6 -15v-1930q0 -140 -25.5 -249.5t-78.5 -191t-141.5 -125t-207.5 -43.5q-23 0 -23 20v62q0 18 20 21q172 5 252 126t80 382v1928q0 9 6 15t15 6h82z" />
    <glyph glyph-name="k" unicode="k" horiz-adv-x="1684" 
d="M243 2539q0 9 6 15t14 6h83q9 0 15 -6t6 -15v-2518q0 -9 -6 -15t-15 -6h-83q-8 0 -14 6t-6 15v2518zM1454 0q-17 0 -31 15l-848 885l804 729q11 11 28 11h104q12 0 15.5 -7.5t-4.5 -16.5l-788 -711l833 -878q10 -12 6.5 -19.5t-17.5 -7.5h-102z" />
    <glyph glyph-name="l" unicode="l" horiz-adv-x="609" 
d="M243 2539q0 9 6 15t14 6h83q9 0 15 -6t6 -15v-2518q0 -9 -6 -15t-15 -6h-83q-8 0 -14 6t-6 15v2518z" />
    <glyph glyph-name="m" unicode="m" horiz-adv-x="3109" 
d="M2277 1680q124 0 222.5 -32.5t167 -91.5t113.5 -144.5t66 -189t21 -226.5v-975q0 -9 -6 -15t-15 -6h-82q-9 0 -15 6t-6 15v937q0 610 -496 610q-127 0 -243.5 -56t-201 -149t-135 -219t-50.5 -260v-863q0 -9 -6 -15t-15 -6h-82q-9 0 -15 6t-6 15v937q0 610 -496 610
q-127 0 -243.5 -56t-201 -149t-135 -219t-50.5 -260v-863q0 -9 -6 -15t-15 -6h-82q-9 0 -15 6t-6 15v1598q0 9 6 15t15 6h82q9 0 15 -6t6 -15v-422q27 65 65 127.5t98 128.5t130 115t166 80.5t201 31.5q258 0 400 -134t178 -375q34 95 94 182.5t143 162t196.5 119.5
t238.5 45z" />
    <glyph glyph-name="n" unicode="n" 
d="M1112 1680q158 0 277 -49t192.5 -140.5t109.5 -214.5t36 -277v-978q0 -9 -6 -15t-15 -6h-82q-9 0 -15 6t-6 15v939q0 293 -127 450.5t-393 157.5q-191 0 -357 -95t-262.5 -253t-96.5 -337v-862q0 -9 -6 -15t-15 -6h-82q-9 0 -15 6t-6 15v1598q0 9 6 15t15 6h82q9 0 15 -6
t6 -15v-422q26 63 70.5 127t113 129t150 115t189 81t222.5 31z" />
    <glyph glyph-name="o" unicode="o" horiz-adv-x="2049" 
d="M1025 1665q169 0 321 -61t265.5 -169t180.5 -268t67 -347t-67 -347t-180.5 -268t-265.5 -169t-321 -61t-321 61t-266 169t-181 268t-67 347t67 347t181 268t266 169t321 61zM1025 86q143 0 271 52t224.5 145.5t153 232.5t56.5 304q0 164 -56.5 303t-153 232.5
t-224.5 145.5t-271 52t-271.5 -52t-225 -145.5t-153 -232.5t-56.5 -303q0 -165 56.5 -304t153 -232.5t225 -145.5t271.5 -52z" />
    <glyph glyph-name="p" unicode="p" horiz-adv-x="2087" 
d="M1072 1665q165 0 315 -61t263 -169t180 -268t67 -347t-67 -347t-180 -268t-263 -169t-315 -61q-241 0 -426.5 126.5t-278.5 341.5v-1342q0 -9 -6 -15t-15 -6h-83q-9 0 -15 6t-6 15v2518q0 9 6 15t15 6h83q9 0 15 -6t6 -15v-422q93 215 278.5 341.5t426.5 126.5zM1062 86
q114 0 220 33t194 96.5t153.5 151.5t102 204.5t36.5 248.5t-36.5 248.5t-102 204.5t-153.5 151.5t-194 96.5t-220 33q-147 0 -278.5 -58.5t-224.5 -157.5t-147.5 -234t-54.5 -284t54.5 -284t147.5 -234t224.5 -157.5t278.5 -58.5z" />
    <glyph glyph-name="q" unicode="q" horiz-adv-x="2087" 
d="M1824 1638q9 0 15 -6t6 -15v-2518q0 -9 -6 -15t-15 -6h-83q-9 0 -15 6t-6 15v1342q-93 -215 -278.5 -341.5t-426.5 -126.5q-165 0 -315 61t-263 169t-180 268t-67 347t67 347t180 268t263 169t315 61q241 0 426.5 -126.5t278.5 -341.5v422q0 9 6 15t15 6h83zM1025 84
q147 0 278.5 58.5t224.5 157.5t147.5 234t54.5 284t-54.5 284t-147.5 234t-224.5 157.5t-278.5 58.5q-114 0 -220 -33t-194 -96.5t-153.5 -151.5t-102 -204.5t-36.5 -248.5t36.5 -248.5t102 -204.5t153.5 -151.5t194 -96.5t220 -33z" />
    <glyph glyph-name="r" unicode="r" horiz-adv-x="1097" 
d="M965 1679q22 0 22 -21v-89q0 -17 -21 -20q-78 -3 -163 -38.5t-162 -98t-138.5 -142t-98.5 -179.5t-37 -202v-868q0 -9 -6 -15t-15 -6h-82q-9 0 -15 6t-6 15v1598q0 9 6 15t15 6h82q9 0 15 -6t6 -15v-451q34 119 131.5 238t225.5 196t241 77z" />
    <glyph glyph-name="s" unicode="s" horiz-adv-x="1619" 
d="M363 1232q0 -77 36.5 -134.5t98 -92.5t141.5 -61.5t168.5 -47.5t177 -43.5t168.5 -57t141.5 -81t98 -122t36.5 -173.5t-36.5 -176t-96 -127t-140.5 -82t-164.5 -46t-173.5 -13q-328 0 -615 184q-18 12 -10 29l28 59q9 22 30 11q142 -88 277 -132.5t290 -44.5
q70 0 133.5 8t129 30.5t112.5 58t77 94t30 134.5q0 83 -36.5 145t-97.5 100.5t-141 67t-167.5 50t-175.5 44t-168 55t-141 76t-97.5 114t-36.5 163.5q0 206 161 325t422 119q152 0 282.5 -43.5t266.5 -128.5q18 -12 10 -30l-28 -60q-9 -20 -28 -9q-129 83 -249.5 123.5
t-255.5 40.5q-207 0 -332 -88t-125 -238z" />
    <glyph glyph-name="t" unicode="t" horiz-adv-x="1478" 
d="M1321 157q11 -18 -10 -35q-187 -147 -404 -147q-105 0 -185.5 31.5t-131 84t-83 128t-45 156t-12.5 175.5v978h-329q-9 0 -15 6t-6 15v70q0 9 6 15t15 6h329v396q0 16 21 22l79 23q24 7 24 -16v-425h701q9 0 15 -6t6 -15v-70q0 -9 -6 -15t-15 -6h-701v-968
q0 -474 347 -474q191 0 340 131q21 14 33 -6z" />
    <glyph glyph-name="u" unicode="u" 
d="M1706 1640q9 0 15 -6t6 -15v-1598q0 -9 -6 -15t-15 -6h-82q-9 0 -15 6t-6 15v422q-26 -63 -70.5 -127t-113 -129t-150 -115t-189 -81t-222.5 -31q-158 0 -277 49t-192.5 140.5t-109.5 214.5t-36 277v978q0 9 6 15t15 6h82q9 0 15 -6t6 -15v-939q0 -293 127 -450.5
t393 -157.5q191 0 357 95t262.5 253t96.5 337v862q0 9 6 15t15 6h82z" />
    <glyph glyph-name="v" unicode="v" horiz-adv-x="1653" 
d="M1579 1640q15 0 21 -12t-2 -27l-746 -1631q-5 -10 -17 -10h-15q-12 0 -17 10l-748 1631q-8 13 -2.5 26t21.5 13h87q15 0 24 -17l648 -1450l642 1450q8 17 25 17h79z" />
    <glyph glyph-name="w" unicode="w" horiz-adv-x="2621" 
d="M2549 1640q14 0 19 -11.5t-1 -25.5l-609 -1633q-5 -10 -17 -10h-15q-12 0 -17 10l-598 1275l-599 -1275q-5 -10 -16 -10h-15q-12 0 -17 10l-610 1633q-6 13 -1 25t20 12h85q16 0 24 -18l521 -1434l580 1244q7 18 20 18h16q13 0 20 -18l579 -1244l523 1434q8 18 24 18h84z
" />
    <glyph glyph-name="x" unicode="x" horiz-adv-x="1717" 
d="M1600 27q10 -13 6.5 -20t-15.5 -7h-106q-17 0 -27 12l-610 731l-594 -728q-11 -15 -33 -15h-92q-12 0 -17 7t6 23l657 800l-653 783q-10 13 -6.5 20t15.5 7h106q19 0 33 -15l583 -701l578 701q13 15 30 15h100q32 0 9 -27l-644 -776z" />
    <glyph glyph-name="y" unicode="y" horiz-adv-x="1653" 
d="M1579 1640q15 0 21 -12t-2 -27l-719 -1609q-69 -162 -126 -281.5t-119 -227t-121 -178.5t-125 -124t-138.5 -77t-155.5 -24q-23 0 -23 20v62q0 20 20 21q186 5 339 201.5t357 670.5l-732 1546q-8 15 -2.5 27t21.5 12h86q16 0 24 -17l660 -1437l633 1437q8 17 25 17h77z
" />
    <glyph glyph-name="z" unicode="z" horiz-adv-x="1824" 
d="M173 0q-8 0 -14 5.5t-6 13.5v11q0 15 9 27l1215 1471h-1134q-8 0 -14.5 6.5t-6.5 14.5v70q0 8 6.5 14.5t14.5 6.5h1318q21 0 21 -18v-12q0 -15 -9 -27l-1217 -1472h1225q8 0 14.5 -6.5t6.5 -14.5v-69q0 -8 -6.5 -14.5t-14.5 -6.5h-1408z" />
    <glyph glyph-name="braceleft" unicode="{" horiz-adv-x="945" 
d="M775 2470q-159 -9 -242.5 -95.5t-83.5 -279.5q0 -83 34 -341.5t33 -338.5q-1 -184 -58 -292t-174 -155q117 -48 174 -156t58 -292q1 -80 -33 -338.5t-34 -340.5q0 -99 22.5 -170.5t66.5 -114.5t102 -64.5t135 -26.5q17 -2 17 -18v-44q0 -19 -19 -19q-203 2 -316.5 112.5
t-113.5 337.5q0 85 33.5 345t33.5 340q0 355 -241 408q-16 4 -16 18v45q0 16 16 18q108 23 174.5 119.5t66.5 289.5q0 80 -33.5 339.5t-33.5 344.5q0 227 113.5 337.5t316.5 112.5q8 1 13.5 -4.5t5.5 -13.5v-44q0 -17 -17 -19z" />
    <glyph glyph-name="bar" unicode="|" horiz-adv-x="589" 
d="M243 2919q0 8 6 14.5t14 6.5h63q8 0 14.5 -6.5t6.5 -14.5v-3323q0 -8 -6.5 -14.5t-14.5 -6.5h-63q-8 0 -14 6.5t-6 14.5v3323z" />
    <glyph glyph-name="braceright" unicode="}" horiz-adv-x="945" 
d="M776 1008q16 -2 16 -18v-45q0 -14 -16 -18q-241 -53 -241 -408q0 -80 33.5 -340t33.5 -345q0 -227 -113.5 -337.5t-316.5 -112.5q-19 0 -19 19v44q0 16 17 18q77 5 135 26.5t102 64.5t66.5 114.5t22.5 170.5q0 82 -34 340.5t-33 338.5q1 184 58 292t174 156
q-117 47 -174 155t-58 292q-1 80 33 338.5t34 341.5q0 193 -83.5 279.5t-242.5 95.5q-17 2 -17 19v44q0 8 5.5 13.5t13.5 4.5q203 -2 316.5 -112.5t113.5 -337.5q0 -85 -33.5 -344.5t-33.5 -339.5q0 -193 66.5 -289.5t174.5 -119.5z" />
    <glyph glyph-name="asciitilde" unicode="~" horiz-adv-x="2181" 
d="M1941 1198q14 -8 9 -23q-49 -145 -176 -245t-283 -100q-83 0 -161 22.5t-135.5 55.5t-120.5 72.5t-117 72.5t-124 55.5t-142 22.5q-127 0 -234.5 -79.5t-148.5 -187.5q-10 -23 -32 -11l-36 19q-14 8 -9 23q49 145 176.5 245t283.5 100q98 0 187.5 -31t159 -75
t137.5 -88.5t149.5 -75.5t166.5 -31q127 0 234 79.5t148 187.5q10 21 32 11z" />
    <glyph glyph-name="exclamdown" unicode="&#xa1;" horiz-adv-x="679" 
d="M340 1665q42 0 73 -31t31 -74q0 -42 -31 -73t-73 -31q-43 0 -74 31t-31 73q0 43 31 74t74 31zM278 -779l16 1811q0 9 6 15t15 6h50q20 0 20 -21l17 -1811q0 -9 -6 -15t-15 -6h-83q-9 0 -15 6t-5 15z" />
    <glyph glyph-name="cent" unicode="&#xa2;" horiz-adv-x="1907" 
d="M1714 449q19 -9 10 -29q-89 -200 -254 -317.5t-402 -126.5v-398q0 -8 -6.5 -15t-14.5 -7h-58q-8 0 -15 7t-7 15v399q-162 11 -304 76t-247 172.5t-165.5 261.5t-60.5 333t60.5 333t165.5 261.5t247.5 173t304.5 75.5v357q0 8 6 14.5t14 6.5h60q8 0 14 -6.5t6 -14.5v-356
q236 -9 401.5 -126.5t254.5 -318.5q9 -19 -10 -28l-70 -33q-18 -8 -29 10q-179 385 -579 385q-201 0 -363 -88.5t-258 -257t-96 -387.5q0 -220 96 -388.5t258 -257t363 -88.5q410 0 579 386q12 18 29 10z" />
    <glyph glyph-name="sterling" unicode="&#xa3;" horiz-adv-x="2155" 
d="M1970 134q13 5 22.5 -2t9.5 -20v-67q0 -15 -18 -20q-123 -44 -249.5 -59.5t-237 -7.5t-221.5 26t-220.5 36.5t-215.5 28.5t-224 -1.5t-230 -50.5q-17 -7 -26 7l-33 62q-4 9 2 18q96 188 153.5 346t77.5 285.5t17.5 224.5t-22.5 199h-381q-9 0 -15 6t-6 15v59q0 8 6 14.5
t15 6.5h358q-7 27 -34 126.5t-38 147.5t-23 135.5t-12 170.5q0 140 48 257.5t139 204t231 135t315 48.5q133 0 253 -30t218.5 -85.5t176 -119.5t151.5 -146q21 -21 10 -32l-45 -50q-19 -21 -35 -5q-318 357 -712 357q-294 0 -457.5 -147.5t-163.5 -396.5q0 -76 12 -158.5
t25 -136t38 -143.5t35 -132h847q9 0 15 -6.5t6 -14.5v-59q0 -9 -6 -15t-15 -6h-825q19 -103 20 -201t-20 -224t-80.5 -279t-156.5 -330q105 38 219.5 49.5t218.5 2t212 -27.5t215.5 -35t212.5 -24.5t220.5 7.5t222.5 57z" />
    <glyph glyph-name="currency" unicode="&#xa4;" horiz-adv-x="2768" 
d="M229 2032q-8 7 -8.5 16t6.5 16l49 51q7 7 16.5 6.5t16.5 -8.5l366 -387q141 136 324 212t385 76t385 -76t324 -212l366 387q7 8 16.5 8.5t16.5 -6.5l49 -51q7 -7 6.5 -16t-8.5 -16l-390 -364q121 -138 188 -310.5t67 -362.5h-119q0 186 -71.5 354.5t-192.5 290
t-288 193.5t-349 72t-349 -72t-288 -193.5t-192.5 -290t-71.5 -354.5h-119q0 190 67 362.5t188 310.5zM2539 -43q8 -7 8.5 -16t-6.5 -16l-49 -51q-7 -7 -16.5 -6.5t-16.5 8.5l-366 387q-141 -136 -324 -212t-385 -76t-385 76t-324 212l-366 -387q-7 -8 -16.5 -8.5t-16.5 6.5
l-49 51q-7 7 -6.5 16t8.5 16l390 364q-121 138 -188 310.5t-67 362.5h119q0 -186 71.5 -354.5t192.5 -290t288 -193.5t349 -72t349 72t288 193.5t192.5 290t71.5 354.5h119q0 -190 -67 -362.5t-188 -310.5z" />
    <glyph glyph-name="yen" unicode="&#xa5;" horiz-adv-x="2272" 
d="M2161 2440q12 0 18.5 -6.5t-0.5 -17.5l-916 -1431h415q9 0 15 -6t6 -15v-48q0 -8 -6 -14t-15 -6h-472l-8 -13v-323h480q9 0 15 -6t6 -15v-47q0 -9 -6 -15t-15 -6h-480v-450q0 -8 -6.5 -14.5t-14.5 -6.5h-87q-8 0 -14.5 6.5t-6.5 14.5v450h-494q-9 0 -15 6t-6 15v47
q0 9 6 15t15 6h494v318l-12 18h-482q-9 0 -15 6t-6 14v48q0 9 6 15t15 6h425l-927 1431q-6 12 -0.5 18t17.5 6h102q15 0 26 -17l917 -1425l907 1425q11 17 27 17h92z" />
    <glyph glyph-name="brokenbar" unicode="&#xa6;" horiz-adv-x="589" 
d="M243 2919q0 8 6 14.5t14 6.5h63q8 0 14.5 -6.5t6.5 -14.5v-1098q0 -8 -6.5 -14.5t-14.5 -6.5h-63q-8 0 -14 6.5t-6 14.5v1098zM243 694q0 8 6 14.5t14 6.5h63q8 0 14.5 -6.5t6.5 -14.5v-1098q0 -8 -6.5 -14.5t-14.5 -6.5h-63q-8 0 -14 6.5t-6 14.5v1098z" />
    <glyph glyph-name="section" unicode="&#xa7;" horiz-adv-x="2206" 
d="M1804 223q192 -167 192 -435q0 -347 -238.5 -547.5t-651.5 -200.5q-386 0 -615 191t-281 543q-1 11 5.5 18.5t17.5 7.5h82q16 0 19 -16q48 -309 240 -474t532 -165q363 0 562 172t199 471q0 253 -215 409q-130 94 -402 187q-43 15 -129 44q-275 91 -397 150
q-254 123 -345 303q-143 283 70 780q-187 166 -187 431q0 228 106 398t300 260t453 90q376 0 590 -189.5t267 -544.5q1 -11 -5.5 -18.5t-17.5 -7.5h-82q-16 0 -19 16q-100 638 -733 638q-342 0 -536 -172.5t-194 -469.5q0 -254 216 -410q130 -94 402 -189q43 -15 129 -44
q275 -92 396 -151q253 -124 342 -303q141 -281 -72 -772zM531 1597q-61 -155 -82.5 -284t-6.5 -224.5t61 -174.5t112 -134t154.5 -103.5t182 -82t199.5 -70.5t201.5 -68.5t195 -76t173.5 -93.5q61 155 81.5 285t5 225t-62 174.5t-113 134t-155 103t-181.5 81.5t-198.5 70
t-201 68t-194 76t-171.5 94z" />
    <glyph glyph-name="dieresis" unicode="&#xa8;" horiz-adv-x="889" 
d="M111 2023q-42 0 -73 31t-31 73q0 41 31 72t73 31q41 0 72 -31t31 -72q0 -42 -31 -73t-72 -31zM781 2023q-42 0 -73 31t-31 73q0 41 31 72t73 31q41 0 72 -31t31 -72q0 -42 -31 -73t-72 -31z" />
    <glyph glyph-name="copyright" unicode="&#xa9;" horiz-adv-x="2900" 
d="M1450 2460q169 0 330 -44.5t297 -124.5t250 -194.5t194 -250.5t124.5 -296.5t44.5 -329.5q0 -253 -98 -482.5t-264 -395.5t-395.5 -264t-482.5 -98t-482.5 98t-395.5 264t-264 395.5t-98 482.5q0 169 44.5 329.5t124.5 296.5t194 250.5t250 194.5t297 124.5t330 44.5z
M1450 31q161 0 314.5 42.5t283.5 119.5t239 186.5t185.5 240t119 284.5t42.5 316t-42.5 316t-119 284.5t-185.5 240.5t-239 186.5t-283.5 119.5t-314.5 43q-241 0 -460 -94.5t-377.5 -253.5t-252.5 -379.5t-94 -462.5t94 -462t252.5 -379.5t377.5 -253.5t460 -94zM1478 1918
q-134 0 -254.5 -50.5t-209.5 -140t-141.5 -221.5t-52.5 -287t52.5 -287t141.5 -222t209.5 -140.5t254.5 -50.5q368 0 546 354q6 13 18 7l41 -20q13 -5 6 -18q-194 -391 -611 -391q-148 0 -282 54.5t-236 152t-162 243.5t-60 318t60 318t162 243.5t236 152t282 54.5
q416 0 611 -391q7 -14 -6 -19l-41 -20q-13 -3 -18 7q-178 354 -546 354z" />
    <glyph glyph-name="guillemotleft" unicode="&#xab;" horiz-adv-x="1813" 
d="M926 383q8 -5 8 -14v-50q0 -16 -13 -21.5t-26 4.5l-657 498q-8 5 -8 13v64q0 8 8 13l657 498q13 10 26 4.5t13 -21.5v-50q0 -9 -8 -14l-599 -462zM1583 1321q0 -9 -8 -14l-599 -462l599 -462q8 -5 8 -14v-50q0 -16 -13 -21.5t-26 4.5l-657 498q-8 5 -8 13v64q0 8 8 13
l657 498q13 10 26 4.5t13 -21.5v-50z" />
    <glyph glyph-name="logicalnot" unicode="&#xac;" horiz-adv-x="2046" 
d="M1795 1105q9 0 15 -6t6 -15v-60v-428q0 -9 -6 -15t-15 -6h-70q-9 0 -15 6t-6 15v407h-1453q-9 0 -15 6t-6 15v60q0 9 6 15t15 6h1544z" />
    <glyph glyph-name="registered" unicode="&#xae;" horiz-adv-x="2900" 
d="M1450 2460q169 0 330 -44.5t297 -124.5t250 -194.5t194 -250.5t124.5 -296.5t44.5 -329.5q0 -253 -98 -482.5t-264 -395.5t-395.5 -264t-482.5 -98t-482.5 98t-395.5 264t-264 395.5t-98 482.5q0 169 44.5 329.5t124.5 296.5t194 250.5t250 194.5t297 124.5t330 44.5z
M1450 31q161 0 314.5 42.5t283.5 119.5t239 186.5t185.5 240t119 284.5t42.5 316t-42.5 316t-119 284.5t-185.5 240.5t-239 186.5t-283.5 119.5t-314.5 43q-241 0 -460 -94.5t-377.5 -253.5t-252.5 -379.5t-94 -462.5t94 -462t252.5 -379.5t377.5 -253.5t460 -94zM1659 1095
l401 -603q6 -9 1.5 -17.5t-15.5 -8.5h-53q-8 0 -14 9l-405 610q-44 -2 -70 -2h-425v-604q0 -5 -4 -9t-9 -4h-54q-13 0 -13 13v1480q0 5 4 9t9 4h54h438q142 0 251 -35.5t174 -97.5t98 -141t33 -171q0 -106 -41 -192.5t-133 -151.5t-227 -88zM1492 1152q129 0 225 30
t151.5 83t82 118.5t26.5 143.5t-26.5 144t-82 119t-151.5 83t-225 30h-413v-751h413z" />
    <glyph glyph-name="macron" unicode="&#xaf;" horiz-adv-x="1000" 
d="M-10 2149q0 8 6.5 14.5t14.5 6.5h978q8 0 14 -6.5t6 -14.5v-53q0 -8 -6 -14.5t-14 -6.5h-978q-8 0 -14.5 6.5t-6.5 14.5v53z" />
    <glyph glyph-name="degree" unicode="&#xb0;" horiz-adv-x="915" 
d="M447 1742q-156 0 -266.5 109.5t-110.5 265.5t111 267t266 111q156 0 267 -111t111 -267t-111 -265.5t-267 -109.5zM447 1834q120 0 201 82.5t81 200.5q0 120 -81 203t-201 83q-119 0 -200 -83t-81 -203q0 -118 81 -200.5t200 -82.5z" />
    <glyph glyph-name="plusminus" unicode="&#xb1;" horiz-adv-x="2046" 
d="M1795 1142q9 0 15 -6t6 -15v-60q0 -9 -6 -15t-15 -6h-721v-721q0 -9 -6 -15t-15 -6h-60q-9 0 -15 6t-6 15v721h-721q-9 0 -15 6t-6 15v60q0 9 6 15t15 6h721v721q0 9 6 15t15 6h60q9 0 15 -6t6 -15v-721h721zM1795 102q9 0 15 -6t6 -15v-60q0 -9 -6 -15t-15 -6h-1544
q-9 0 -15 6t-6 15v60q0 9 6 15t15 6h1544z" />
    <glyph glyph-name="acute" unicode="&#xb4;" horiz-adv-x="709" 
d="M68 1887q-17 -12 -30 6l-28 42q-11 16 6 30l577 461q17 12 30 -5l39 -60q12 -18 -6 -29z" />
    <glyph glyph-name="paragraph" unicode="&#xb6;" horiz-adv-x="2181" 
d="M1918 2440q8 0 14.5 -6.5t6.5 -14.5v-2823q0 -8 -6.5 -14.5t-14.5 -6.5h-33q-8 0 -14.5 6.5t-6.5 14.5v2775h-850v-2775q0 -8 -6.5 -14.5t-14.5 -6.5h-33q-8 0 -14.5 6.5t-6.5 14.5v1344q-199 5 -366.5 106.5t-265 272t-97.5 371.5q0 153 59.5 291.5t160 239t239 160
t291.5 59.5h925h33z" />
    <glyph glyph-name="periodcentered" unicode="&#xb7;" horiz-adv-x="679" 
d="M340 750q-43 0 -74 31t-31 74q0 42 31 73t74 31q42 0 73 -31t31 -73q0 -43 -31 -74t-73 -31z" />
    <glyph glyph-name="cedilla" unicode="&#xb8;" horiz-adv-x="1123" 
d="M332 -820q-175 0 -319 84q-18 13 -9 30l13 27q9 19 30 10q74 -37 137.5 -55.5t143.5 -18.5q108 0 174 58.5t66 157.5q0 73 -36 122.5t-99 69.5t-145.5 16.5t-177.5 -32.5q-16 -4 -21 2t1 22l123 344h85l-102 -286q90 28 175 22t151 -35t106 -92t40 -149
q0 -134 -95.5 -215.5t-240.5 -81.5z" />
    <glyph glyph-name="guillemotright" unicode="&#xbb;" horiz-adv-x="1813" 
d="M934 813q0 -8 -8 -13l-657 -498q-13 -10 -26 -4.5t-13 21.5v50q0 9 8 14l599 462l-599 462q-8 5 -8 14v50q0 16 13 21.5t26 -4.5l657 -498q8 -5 8 -13v-64zM1575 890q8 -5 8 -13v-64q0 -8 -8 -13l-657 -498q-13 -10 -26 -4.5t-13 21.5v50q0 9 8 14l599 462l-599 462
q-8 5 -8 14v50q0 16 13 21.5t26 -4.5z" />
    <glyph glyph-name="onequarter" unicode="&#xbc;" horiz-adv-x="3521" 
d="M2188 2397q9 18 28 10l43 -20q7 -4 10.5 -12t0.5 -15l-1236 -2650q-9 -19 -28 -10l-42 20q-19 10 -10 28zM742 2397q14 0 14 -14v-1576q0 -5 -4 -9.5t-10 -4.5h-57q-5 0 -9.5 4.5t-4.5 9.5v1504l-328 -173q-12 -6 -20 7l-18 40q-6 11 6 18l364 190q9 4 21 4h46zM3355 481
q14 0 14 -14v-45q0 -14 -14 -14h-271v-394q0 -5 -4.5 -9.5t-9.5 -4.5h-57q-5 0 -9.5 4.5t-4.5 9.5v394h-873q-13 0 -13 14v42q0 3 3 8l886 1124q5 8 20 8h48q5 0 9.5 -4t4.5 -10v-1109h271zM2219 481h780v994z" />
    <glyph glyph-name="onehalf" unicode="&#xbd;" horiz-adv-x="3539" 
d="M2259 2387q7 -4 10.5 -12t0.5 -15l-1236 -2650q-9 -19 -28 -10l-42 20q-19 10 -10 28l1234 2649q9 18 28 10zM742 2397q14 0 14 -14v-1576q0 -5 -4 -9.5t-10 -4.5h-57q-5 0 -9.5 4.5t-4.5 9.5v1504l-328 -173q-12 -6 -20 7l-18 40q-6 11 6 18l364 190q9 4 21 4h46z
M3372 66q5 0 9.5 -4.5t4.5 -9.5v-45q0 -5 -4.5 -9.5t-9.5 -4.5h-1055q-14 0 -14 14v18q0 12 6 17q495 393 714.5 658t219.5 485q0 166 -98 261t-289 95q-259 0 -468 -235q-10 -12 -23 3l-29 33q-9 9 6 21q228 251 525 251q227 0 344 -115.5t117 -307.5q0 -124 -53.5 -249
t-169 -264.5t-270 -282.5t-383.5 -329h920z" />
    <glyph glyph-name="threequarters" unicode="&#xbe;" horiz-adv-x="3803" 
d="M867 1621q441 -64 441 -418q0 -200 -146 -313t-396 -113q-338 0 -567 250q-13 13 -6 21l30 36q13 15 23 4q215 -238 515 -238q214 0 338.5 92t124.5 261q0 177 -136 278.5t-437 104.5q-14 0 -14 14v33q0 13 14 13q255 3 387.5 106.5t132.5 260.5q0 158 -98 243t-295 85
q-144 0 -257 -57.5t-209 -159.5q-11 -9 -23 3l-27 33q-6 7 6 22q220 232 523 232q230 0 346.5 -105.5t116.5 -285.5q0 -148 -99.5 -255t-287.5 -147zM2413 2397q9 18 28 10l43 -20q7 -4 10.5 -12t0.5 -15l-1236 -2650q-9 -19 -28 -10l-42 20q-19 10 -10 28zM3580 481
q14 0 14 -14v-45q0 -14 -14 -14h-271v-394q0 -5 -4.5 -9.5t-9.5 -4.5h-57q-5 0 -9.5 4.5t-4.5 9.5v394h-873q-13 0 -13 14v42q0 3 3 8l886 1124q5 8 20 8h48q5 0 9.5 -4t4.5 -10v-1109h271zM2444 481h780v994z" />
    <glyph glyph-name="questiondown" unicode="&#xbf;" horiz-adv-x="1567" 
d="M807 1665q43 0 74 -31t31 -74q0 -42 -31 -73t-74 -31q-42 0 -73 31t-31 73q0 43 31 74t73 31zM198 -237q0 -477 551 -477q199 0 353 72t294 203q19 17 35 -5l42 -51q10 -13 -10 -33q-154 -140 -329 -218.5t-402 -78.5q-322 0 -492.5 145.5t-170.5 427.5q0 92 23.5 175
t63.5 147.5t91.5 125.5t108.5 116.5t114.5 112t109 121t91.5 135t63.5 161.5t23.5 193q0 18 18 18l63 -1q8 0 13 -7t5 -17q0 -132 -36.5 -247t-94.5 -199.5t-128 -161.5t-140.5 -149t-128.5 -145t-94.5 -166t-36.5 -197z" />
    <glyph glyph-name="Agrave" unicode="&#xc0;" horiz-adv-x="2430" 
d="M681 3132q-18 11 -6 29l39 60q13 17 30 5l577 -461q17 -14 6 -30l-28 -42q-13 -18 -30 -6zM2338 24q11 -24 -17 -24h-101q-19 0 -25 17l-362 837h-1251l-374 -837q-9 -17 -26 -17h-92q-12 0 -18 6t0 18l1103 2439q8 17 26 17h36q17 0 25 -17zM629 960h1158l-570 1318z
" />
    <glyph glyph-name="Aacute" unicode="&#xc1;" horiz-adv-x="2430" 
d="M1120 2693l-28 42q-11 16 6 30l577 461q17 12 30 -5l39 -60q12 -18 -6 -29l-588 -445q-17 -12 -30 6zM2338 24q11 -24 -17 -24h-101q-19 0 -25 17l-362 837h-1251l-374 -837q-9 -17 -26 -17h-92q-12 0 -18 6t0 18l1103 2439q8 17 26 17h36q17 0 25 -17zM629 960h1158
l-570 1318z" />
    <glyph glyph-name="Acircumflex" unicode="&#xc2;" horiz-adv-x="2430" 
d="M738 2680q-13 0 -17 6t6 17l425 469q11 10 31 10h59q20 0 31 -10l425 -469q10 -11 6 -17t-17 -6h-86q-20 0 -31 12l-357 399l-358 -399q-11 -12 -28 -12h-89zM2338 24q11 -24 -17 -24h-101q-19 0 -25 17l-362 837h-1251l-374 -837q-9 -17 -26 -17h-92q-12 0 -18 6t0 18
l1103 2439q8 17 26 17h36q17 0 25 -17zM629 960h1158l-570 1318z" />
    <glyph glyph-name="Atilde" unicode="&#xc3;" horiz-adv-x="2430" 
d="M696 2729q-9 0 -15 6t-5 15q4 187 85 278.5t212 91.5q51 0 95 -16.5t76 -42.5t61 -57.5t56.5 -63t55.5 -57.5t64.5 -42.5t77.5 -16.5q103 0 161 70t59 205q2 21 21 21h37q9 0 15 -9t5 -24q-6 -180 -88 -269t-210 -89q-51 0 -95 16.5t-76 42.5t-61 57.5t-56 63.5t-55 58
t-64.5 42.5t-78.5 16.5q-103 0 -160.5 -70.5t-58.5 -206.5q-2 -20 -22 -20h-36zM2338 24q11 -24 -17 -24h-101q-19 0 -25 17l-362 837h-1251l-374 -837q-9 -17 -26 -17h-92q-12 0 -18 6t0 18l1103 2439q8 17 26 17h36q17 0 25 -17zM629 960h1158l-570 1318z" />
    <glyph glyph-name="Adieresis" unicode="&#xc4;" horiz-adv-x="2430" 
d="M883 2823q-42 0 -73 31t-31 73q0 41 31 72t73 31q41 0 72 -31t31 -72q0 -42 -31 -73t-72 -31zM1553 2823q-42 0 -73 31t-31 73q0 41 31 72t73 31q41 0 72 -31t31 -72q0 -42 -31 -73t-72 -31zM2338 24q11 -24 -17 -24h-101q-19 0 -25 17l-362 837h-1251l-374 -837
q-9 -17 -26 -17h-92q-12 0 -18 6t0 18l1103 2439q8 17 26 17h36q17 0 25 -17zM629 960h1158l-570 1318z" />
    <glyph glyph-name="Aring" unicode="&#xc5;" horiz-adv-x="2430" 
d="M2338 24q11 -24 -17 -24h-101q-19 0 -25 17l-362 837h-1251l-374 -837q-9 -17 -26 -17h-92q-12 0 -18 6t0 18l1091 2413q-138 20 -230 124.5t-92 245.5q0 156 111 267t267 111t267 -111t111 -267q0 -141 -92.5 -245.5t-230.5 -124.5zM922 2807q0 -124 85.5 -211
t211.5 -87t211.5 87t85.5 211q0 127 -85.5 215t-211.5 88t-211.5 -88t-85.5 -215zM629 960h1158l-570 1318z" />
    <glyph glyph-name="AE" unicode="&#xc6;" horiz-adv-x="3395" 
d="M3199 111q9 0 15 -6t6 -15v-69q0 -9 -6 -15t-15 -6h-1582h-55q-8 0 -14.5 6.5t-6.5 14.5v833h-827l-499 -841q-8 -13 -25 -13h-98q-11 0 -19 8t0 20l1429 2399q8 13 26 13h39h82h1510q9 0 15 -6t6 -15v-69q0 -9 -6 -15t-15 -6h-1489v-999h1329q9 0 15 -6t6 -15v-70
q0 -20 -21 -20h-1329v-1108h1529zM776 960h765v1290z" />
    <glyph glyph-name="Ccedilla" unicode="&#xc7;" horiz-adv-x="2594" 
d="M2391 639q21 -8 10 -30q-308 -618 -959 -634l-87 -244q90 28 175 22t151 -35t106 -92t40 -149q0 -134 -95.5 -215.5t-240.5 -81.5q-175 0 -319 84q-18 13 -9 30l13 27q9 19 30 10q74 -37 137.5 -55.5t143.5 -18.5q108 0 174 58.5t66 157.5q0 73 -36 122.5t-99 69.5
t-145.5 16.5t-177.5 -32.5q-16 -4 -21 2t1 22l108 303q-185 8 -356 67.5t-314.5 168t-250 255.5t-166.5 341t-60 412q0 187 44.5 357t124.5 306t191 246t244 183.5t285 113t311 39.5q674 0 991 -634q11 -22 -10 -30l-67 -32q-19 -8 -29 11q-288 574 -885 574
q-218 0 -413 -82t-339.5 -227.5t-229 -359.5t-84.5 -465t84.5 -465t229 -359.5t339.5 -227.5t413 -82q597 0 885 574q10 19 29 11z" />
    <glyph glyph-name="Egrave" unicode="&#xc8;" horiz-adv-x="2124" 
d="M550 3132q-18 11 -6 29l39 60q13 17 30 5l577 -461q17 -14 6 -30l-28 -42q-13 -18 -30 -6zM1901 111q9 0 15 -6t6 -15v-69q0 -9 -6 -15t-15 -6h-1582h-55q-8 0 -14.5 6.5t-6.5 14.5v2398q0 8 6.5 14.5t14.5 6.5h87h1510q9 0 15 -6t6 -15v-69q0 -9 -6 -15t-15 -6h-1489
v-999h1329q9 0 15 -6t6 -15v-70q0 -20 -21 -20h-1329v-1108h1529z" />
    <glyph glyph-name="Eacute" unicode="&#xc9;" horiz-adv-x="2124" 
d="M989 2693l-28 42q-11 16 6 30l577 461q17 12 30 -5l39 -60q12 -18 -6 -29l-588 -445q-17 -12 -30 6zM1901 111q9 0 15 -6t6 -15v-69q0 -9 -6 -15t-15 -6h-1582h-55q-8 0 -14.5 6.5t-6.5 14.5v2398q0 8 6.5 14.5t14.5 6.5h87h1510q9 0 15 -6t6 -15v-69q0 -9 -6 -15t-15 -6
h-1489v-999h1329q9 0 15 -6t6 -15v-70q0 -20 -21 -20h-1329v-1108h1529z" />
    <glyph glyph-name="Ecircumflex" unicode="&#xca;" horiz-adv-x="2124" 
d="M607 2680q-13 0 -17 6t6 17l425 469q11 10 31 10h59q20 0 31 -10l425 -469q10 -11 6 -17t-17 -6h-86q-20 0 -31 12l-357 399l-358 -399q-11 -12 -28 -12h-89zM1901 111q9 0 15 -6t6 -15v-69q0 -9 -6 -15t-15 -6h-1582h-55q-8 0 -14.5 6.5t-6.5 14.5v2398q0 8 6.5 14.5
t14.5 6.5h87h1510q9 0 15 -6t6 -15v-69q0 -9 -6 -15t-15 -6h-1489v-999h1329q9 0 15 -6t6 -15v-70q0 -20 -21 -20h-1329v-1108h1529z" />
    <glyph glyph-name="Edieresis" unicode="&#xcb;" horiz-adv-x="2124" 
d="M752 2823q-42 0 -73 31t-31 73q0 41 31 72t73 31q41 0 72 -31t31 -72q0 -42 -31 -73t-72 -31zM1422 2823q-42 0 -73 31t-31 73q0 41 31 72t73 31q41 0 72 -31t31 -72q0 -42 -31 -73t-72 -31zM1901 111q9 0 15 -6t6 -15v-69q0 -9 -6 -15t-15 -6h-1582h-55q-8 0 -14.5 6.5
t-6.5 14.5v2398q0 8 6.5 14.5t14.5 6.5h87h1510q9 0 15 -6t6 -15v-69q0 -9 -6 -15t-15 -6h-1489v-999h1329q9 0 15 -6t6 -15v-70q0 -20 -21 -20h-1329v-1108h1529z" />
    <glyph glyph-name="Igrave" unicode="&#xcc;" horiz-adv-x="614" 
d="M360 2687l-588 445q-18 11 -6 29l39 60q13 17 30 5l577 -461q17 -14 6 -30l-28 -42q-13 -18 -30 -6zM243 2419q0 8 6 14.5t14 6.5h88q8 0 14.5 -6.5t6.5 -14.5v-2398q0 -8 -6.5 -14.5t-14.5 -6.5h-88q-8 0 -14 6.5t-6 14.5v2398z" />
    <glyph glyph-name="Iacute" unicode="&#xcd;" horiz-adv-x="614" 
d="M241 2687q-17 -12 -30 6l-28 42q-11 16 6 30l577 461q17 12 30 -5l39 -60q12 -18 -6 -29zM243 2419q0 8 6 14.5t14 6.5h88q8 0 14.5 -6.5t6.5 -14.5v-2398q0 -8 -6.5 -14.5t-14.5 -6.5h-88q-8 0 -14 6.5t-6 14.5v2398z" />
    <glyph glyph-name="Icircumflex" unicode="&#xce;" horiz-adv-x="614" 
d="M661 2692l-357 399l-358 -399q-11 -12 -28 -12h-89q-13 0 -17 6t6 17l425 469q11 10 31 10h59q20 0 31 -10l425 -469q10 -11 6 -17t-17 -6h-86q-20 0 -31 12zM243 2419q0 8 6 14.5t14 6.5h88q8 0 14.5 -6.5t6.5 -14.5v-2398q0 -8 -6.5 -14.5t-14.5 -6.5h-88q-8 0 -14 6.5
t-6 14.5v2398z" />
    <glyph glyph-name="Idieresis" unicode="&#xcf;" horiz-adv-x="614" 
d="M-26 2823q-42 0 -73 31t-31 73q0 41 31 72t73 31q41 0 72 -31t31 -72q0 -42 -31 -73t-72 -31zM644 2823q-42 0 -73 31t-31 73q0 41 31 72t73 31q41 0 72 -31t31 -72q0 -42 -31 -73t-72 -31zM243 2419q0 8 6 14.5t14 6.5h88q8 0 14.5 -6.5t6.5 -14.5v-2398
q0 -8 -6.5 -14.5t-14.5 -6.5h-88q-8 0 -14 6.5t-6 14.5v2398z" />
    <glyph glyph-name="Eth" unicode="&#xd0;" horiz-adv-x="2492" 
d="M1052 2440q204 0 388.5 -51.5t338 -154t266 -247.5t175 -341.5t62.5 -425.5t-62.5 -425.5t-175 -341.5t-266 -247.5t-338 -154t-388.5 -51.5h-735h-53q-8 0 -14.5 6.5t-6.5 14.5v1148h-312q-9 0 -15 6t-6 15v59q0 9 6 15t15 6h312v1149q0 8 6.5 14.5t14.5 6.5h87h701z
M1042 111q234 0 436 76t351 215.5t234 350t85 467.5t-85 467.5t-234 350t-351 215.5t-436 76h-670v-1059h662q9 0 15 -6t6 -15v-59q0 -9 -6 -15t-15 -6h-662v-1058h670z" />
    <glyph glyph-name="Ntilde" unicode="&#xd1;" horiz-adv-x="2524" 
d="M782 2729q-9 0 -15 6t-5 15q4 187 85 278.5t212 91.5q51 0 95 -16.5t76 -42.5t61 -57.5t56.5 -63t55.5 -57.5t64.5 -42.5t77.5 -16.5q103 0 161 70t59 205q2 21 21 21h37q9 0 15 -9t5 -24q-6 -180 -88 -269t-210 -89q-51 0 -95 16.5t-76 42.5t-61 57.5t-56 63.5t-55 58
t-64.5 42.5t-78.5 16.5q-103 0 -160.5 -70.5t-58.5 -206.5q-2 -20 -22 -20h-36zM2261 2440q9 0 15 -6t6 -15v-2438q0 -9 -6 -15t-15 -6h-7q-19 0 -30 12l-1852 2239v-2190q0 -9 -6 -15t-15 -6h-88q-8 0 -14 6t-6 15v2438q0 9 6 15t14 6h7q19 0 30 -12l1853 -2239v2190
q0 9 6 15t15 6h87z" />
    <glyph glyph-name="Ograve" unicode="&#xd2;" horiz-adv-x="2820" 
d="M1463 2687l-588 445q-18 11 -6 29l39 60q13 17 30 5l577 -461q17 -14 6 -30l-28 -42q-13 -18 -30 -6zM1410 2465q159 0 311 -39.5t285 -113t244 -183.5t191 -246t124.5 -306t44.5 -357t-44.5 -357t-124.5 -306t-191 -246t-244 -183.5t-285 -113t-311 -39.5t-311 39.5
t-285 113t-244 183.5t-191 246t-124.5 306t-44.5 357t44.5 357t124.5 306t191 246t244 183.5t285 113t311 39.5zM1410 86q218 0 413 82t339.5 227.5t229 359.5t84.5 465t-84.5 465t-229 359.5t-339.5 227.5t-413 82t-413 -82t-339.5 -227.5t-229 -359.5t-84.5 -465
t84.5 -465t229 -359.5t339.5 -227.5t413 -82z" />
    <glyph glyph-name="Oacute" unicode="&#xd3;" horiz-adv-x="2820" 
d="M1344 2687q-17 -12 -30 6l-28 42q-11 16 6 30l577 461q17 12 30 -5l39 -60q12 -18 -6 -29zM1410 2465q159 0 311 -39.5t285 -113t244 -183.5t191 -246t124.5 -306t44.5 -357t-44.5 -357t-124.5 -306t-191 -246t-244 -183.5t-285 -113t-311 -39.5t-311 39.5t-285 113
t-244 183.5t-191 246t-124.5 306t-44.5 357t44.5 357t124.5 306t191 246t244 183.5t285 113t311 39.5zM1410 86q218 0 413 82t339.5 227.5t229 359.5t84.5 465t-84.5 465t-229 359.5t-339.5 227.5t-413 82t-413 -82t-339.5 -227.5t-229 -359.5t-84.5 -465t84.5 -465
t229 -359.5t339.5 -227.5t413 -82z" />
    <glyph glyph-name="Ocircumflex" unicode="&#xd4;" horiz-adv-x="2820" 
d="M1764 2692l-357 399l-358 -399q-11 -12 -28 -12h-89q-13 0 -17 6t6 17l425 469q11 10 31 10h59q20 0 31 -10l425 -469q10 -11 6 -17t-17 -6h-86q-20 0 -31 12zM1410 2465q159 0 311 -39.5t285 -113t244 -183.5t191 -246t124.5 -306t44.5 -357t-44.5 -357t-124.5 -306
t-191 -246t-244 -183.5t-285 -113t-311 -39.5t-311 39.5t-285 113t-244 183.5t-191 246t-124.5 306t-44.5 357t44.5 357t124.5 306t191 246t244 183.5t285 113t311 39.5zM1410 86q218 0 413 82t339.5 227.5t229 359.5t84.5 465t-84.5 465t-229 359.5t-339.5 227.5t-413 82
t-413 -82t-339.5 -227.5t-229 -359.5t-84.5 -465t84.5 -465t229 -359.5t339.5 -227.5t413 -82z" />
    <glyph glyph-name="Otilde" unicode="&#xd5;" horiz-adv-x="2820" 
d="M890 2729q-9 0 -15 6t-5 15q4 187 85 278.5t212 91.5q51 0 95 -16.5t76 -42.5t61 -57.5t56.5 -63t55.5 -57.5t64.5 -42.5t77.5 -16.5q103 0 161 70t59 205q2 21 21 21h37q9 0 15 -9t5 -24q-6 -180 -88 -269t-210 -89q-51 0 -95 16.5t-76 42.5t-61 57.5t-56 63.5t-55 58
t-64.5 42.5t-78.5 16.5q-103 0 -160.5 -70.5t-58.5 -206.5q-2 -20 -22 -20h-36zM1410 2465q159 0 311 -39.5t285 -113t244 -183.5t191 -246t124.5 -306t44.5 -357t-44.5 -357t-124.5 -306t-191 -246t-244 -183.5t-285 -113t-311 -39.5t-311 39.5t-285 113t-244 183.5
t-191 246t-124.5 306t-44.5 357t44.5 357t124.5 306t191 246t244 183.5t285 113t311 39.5zM1410 86q218 0 413 82t339.5 227.5t229 359.5t84.5 465t-84.5 465t-229 359.5t-339.5 227.5t-413 82t-413 -82t-339.5 -227.5t-229 -359.5t-84.5 -465t84.5 -465t229 -359.5
t339.5 -227.5t413 -82z" />
    <glyph glyph-name="Odieresis" unicode="&#xd6;" horiz-adv-x="2820" 
d="M1077 2823q-42 0 -73 31t-31 73q0 41 31 72t73 31q41 0 72 -31t31 -72q0 -42 -31 -73t-72 -31zM1747 2823q-42 0 -73 31t-31 73q0 41 31 72t73 31q41 0 72 -31t31 -72q0 -42 -31 -73t-72 -31zM1410 2465q159 0 311 -39.5t285 -113t244 -183.5t191 -246t124.5 -306
t44.5 -357t-44.5 -357t-124.5 -306t-191 -246t-244 -183.5t-285 -113t-311 -39.5t-311 39.5t-285 113t-244 183.5t-191 246t-124.5 306t-44.5 357t44.5 357t124.5 306t191 246t244 183.5t285 113t311 39.5zM1410 86q218 0 413 82t339.5 227.5t229 359.5t84.5 465t-84.5 465
t-229 359.5t-339.5 227.5t-413 82t-413 -82t-339.5 -227.5t-229 -359.5t-84.5 -465t84.5 -465t229 -359.5t339.5 -227.5t413 -82z" />
    <glyph glyph-name="multiply" unicode="&#xd7;" horiz-adv-x="1920" 
d="M1032 1004l651 -651q15 -15 0 -30l-42 -43q-15 -15 -30 0l-651 651l-651 -651q-16 -14 -30 0l-42 43q-15 15 0 30l651 651l-651 651q-15 14 0 29l42 43q15 15 30 0l651 -651l651 651q15 16 29 0l43 -43q15 -14 0 -29z" />
    <glyph glyph-name="Oslash" unicode="&#xd8;" horiz-adv-x="2820" 
d="M2316 2059q140 -162 217 -375t77 -464q0 -187 -44.5 -357t-124.5 -306t-191 -246t-244 -183.5t-285 -113t-311 -39.5q-241 0 -458.5 87t-382.5 250l-206 -206q-15 -13 -30 0l-43 43q-13 15 0 30l209 208q-138 163 -213.5 374t-75.5 459q0 187 44.5 357t124.5 306t191 246
t244 183.5t285 113t311 39.5q238 0 454.5 -85.5t381.5 -245.5l197 197q15 15 29 0l43 -43q15 -14 0 -29zM344 1220q0 -435 243 -744l1572 1571q-145 148 -338.5 227.5t-410.5 79.5q-218 0 -413 -82t-339.5 -227.5t-229 -359.5t-84.5 -465zM1410 86q218 0 413 82t339.5 227.5
t229 359.5t84.5 465q0 222 -65 412.5t-184 338.5l-1571 -1572q145 -151 340 -232t414 -81z" />
    <glyph glyph-name="Ugrave" unicode="&#xd9;" horiz-adv-x="2444" 
d="M687 3132q-18 11 -6 29l39 60q13 17 30 5l577 -461q17 -14 6 -30l-28 -42q-13 -18 -30 -6zM2181 2440q8 0 14.5 -6.5t6.5 -14.5v-1409q0 -504 -260.5 -777t-719.5 -273t-719 273t-260 777v1409q0 8 6 14.5t14 6.5h88q8 0 14.5 -6.5t6.5 -14.5v-1389q0 -459 217 -709
t633 -250t633.5 250t217.5 709v1389q0 8 6.5 14.5t14.5 6.5h87z" />
    <glyph glyph-name="Uacute" unicode="&#xda;" horiz-adv-x="2444" 
d="M1126 2693l-28 42q-11 16 6 30l577 461q17 12 30 -5l39 -60q12 -18 -6 -29l-588 -445q-17 -12 -30 6zM2181 2440q8 0 14.5 -6.5t6.5 -14.5v-1409q0 -504 -260.5 -777t-719.5 -273t-719 273t-260 777v1409q0 8 6 14.5t14 6.5h88q8 0 14.5 -6.5t6.5 -14.5v-1389
q0 -459 217 -709t633 -250t633.5 250t217.5 709v1389q0 8 6.5 14.5t14.5 6.5h87z" />
    <glyph glyph-name="Ucircumflex" unicode="&#xdb;" horiz-adv-x="2444" 
d="M744 2680q-13 0 -17 6t6 17l425 469q11 10 31 10h59q20 0 31 -10l425 -469q10 -11 6 -17t-17 -6h-86q-20 0 -31 12l-357 399l-358 -399q-11 -12 -28 -12h-89zM2181 2440q8 0 14.5 -6.5t6.5 -14.5v-1409q0 -504 -260.5 -777t-719.5 -273t-719 273t-260 777v1409
q0 8 6 14.5t14 6.5h88q8 0 14.5 -6.5t6.5 -14.5v-1389q0 -459 217 -709t633 -250t633.5 250t217.5 709v1389q0 8 6.5 14.5t14.5 6.5h87z" />
    <glyph glyph-name="Udieresis" unicode="&#xdc;" horiz-adv-x="2444" 
d="M889 2823q-42 0 -73 31t-31 73q0 41 31 72t73 31q41 0 72 -31t31 -72q0 -42 -31 -73t-72 -31zM1559 2823q-42 0 -73 31t-31 73q0 41 31 72t73 31q41 0 72 -31t31 -72q0 -42 -31 -73t-72 -31zM2181 2440q8 0 14.5 -6.5t6.5 -14.5v-1409q0 -504 -260.5 -777t-719.5 -273
t-719 273t-260 777v1409q0 8 6 14.5t14 6.5h88q8 0 14.5 -6.5t6.5 -14.5v-1389q0 -459 217 -709t633 -250t633.5 250t217.5 709v1389q0 8 6.5 14.5t14.5 6.5h87z" />
    <glyph glyph-name="Yacute" unicode="&#xdd;" horiz-adv-x="2272" 
d="M1040 2693l-28 42q-11 16 6 30l577 461q17 12 30 -5l39 -60q12 -18 -6 -29l-588 -445q-17 -12 -30 6zM2161 2440q12 0 18.5 -6.5t-0.5 -17.5l-981 -1533v-862q0 -8 -6.5 -14.5t-14.5 -6.5h-87q-8 0 -14.5 6.5t-6.5 14.5v857l-996 1538q-6 12 -0.5 18t17.5 6h102
q15 0 26 -17l917 -1425l907 1425q11 17 27 17h92z" />
    <glyph glyph-name="Thorn" unicode="&#xde;" horiz-adv-x="2142" 
d="M1102 1975q184 0 335.5 -40t255 -108.5t174 -163.5t103 -202t32.5 -226t-32.5 -226t-103 -202t-174 -163.5t-255 -108.5t-335.5 -40h-730v-474q0 -8 -6.5 -14.5t-14.5 -6.5h-87q-8 0 -14.5 6.5t-6.5 14.5v2398q0 8 6.5 14.5t14.5 6.5h87q8 0 14.5 -6.5t6.5 -14.5v-444
h730zM1082 606q141 0 258.5 23.5t202 67t148.5 101.5t102 129.5t56.5 147.5t18.5 160t-18.5 160t-56.5 147.5t-102 129.5t-148.5 101.5t-202 67t-258.5 23.5h-710v-1258h710z" />
    <glyph glyph-name="germandbls" unicode="&#xdf;" horiz-adv-x="1949" 
d="M1155 1314q0 -80 22.5 -143t61 -105t88.5 -76t105 -61.5t110 -55.5t105 -64t88.5 -81.5t61 -114t22.5 -154.5q0 -108 -36 -194t-92.5 -139t-133 -88.5t-150.5 -49t-152 -13.5q-282 0 -524 184q-18 14 -10 30l26 58q11 21 28 10q120 -88 233.5 -132t241.5 -44
q62 0 120.5 10t119.5 36t106 66t73.5 105.5t28.5 149.5q0 75 -23 134t-61.5 97.5t-89 70.5t-106 58.5t-111 54t-106 65t-89 84.5t-61.5 119t-23 162t23 164.5t56 129t66 110t56 133.5t23 172q0 218 -115 352.5t-327 134.5q-142 0 -244 -64.5t-150.5 -171t-48.5 -243.5v-1989
q0 -9 -6 -15t-15 -6h-83q-8 0 -14 6t-6 15v1999q0 163 68 293t197.5 206t300.5 76q170 0 299.5 -75t198.5 -205.5t69 -296.5q0 -101 -23 -184.5t-55 -140t-64.5 -110t-55.5 -122t-23 -147.5z" />
    <glyph glyph-name="agrave" unicode="&#xe0;" horiz-adv-x="1704" 
d="M362 2332q-18 11 -6 29l39 60q13 17 30 5l577 -461q17 -14 6 -30l-28 -42q-13 -18 -30 -6zM1576 35q10 -23 -12 -31l-54 -20q-14 -6 -23 5q-109 192 -139 418q-82 -188 -258 -310t-397 -122q-234 0 -378.5 134.5t-144.5 337.5q0 195 136 329.5t395.5 178t636.5 -46.5v136
q0 99 -12.5 174.5t-43.5 140.5t-82 106.5t-130.5 64.5t-187.5 23q-148 0 -270.5 -39t-273.5 -120q-21 -9 -29 11l-28 60q-9 20 11 29q166 88 303 129.5t299 41.5q132 0 232 -29.5t163 -81.5t102.5 -130t55 -166.5t15.5 -201.5v-456q0 -130 16.5 -236t36.5 -167t61 -162z
M718 81q131 0 248.5 52.5t197.5 136.5t127 189t47 210v147q-262 64 -457 62t-324.5 -59.5t-193.5 -151.5t-64 -215q0 -166 115.5 -268.5t303.5 -102.5z" />
    <glyph glyph-name="aacute" unicode="&#xe1;" horiz-adv-x="1704" 
d="M801 1893l-28 42q-11 16 6 30l577 461q17 12 30 -5l39 -60q12 -18 -6 -29l-588 -445q-17 -12 -30 6zM1576 35q10 -23 -12 -31l-54 -20q-14 -6 -23 5q-109 192 -139 418q-82 -188 -258 -310t-397 -122q-234 0 -378.5 134.5t-144.5 337.5q0 195 136 329.5t395.5 178
t636.5 -46.5v136q0 99 -12.5 174.5t-43.5 140.5t-82 106.5t-130.5 64.5t-187.5 23q-148 0 -270.5 -39t-273.5 -120q-21 -9 -29 11l-28 60q-9 20 11 29q166 88 303 129.5t299 41.5q132 0 232 -29.5t163 -81.5t102.5 -130t55 -166.5t15.5 -201.5v-456q0 -130 16.5 -236
t36.5 -167t61 -162zM718 81q131 0 248.5 52.5t197.5 136.5t127 189t47 210v147q-262 64 -457 62t-324.5 -59.5t-193.5 -151.5t-64 -215q0 -166 115.5 -268.5t303.5 -102.5z" />
    <glyph glyph-name="acircumflex" unicode="&#xe2;" horiz-adv-x="1704" 
d="M419 1880q-13 0 -17 6t6 17l425 469q11 10 31 10h59q20 0 31 -10l425 -469q10 -11 6 -17t-17 -6h-86q-20 0 -31 12l-357 399l-358 -399q-11 -12 -28 -12h-89zM1576 35q10 -23 -12 -31l-54 -20q-14 -6 -23 5q-109 192 -139 418q-82 -188 -258 -310t-397 -122
q-234 0 -378.5 134.5t-144.5 337.5q0 195 136 329.5t395.5 178t636.5 -46.5v136q0 99 -12.5 174.5t-43.5 140.5t-82 106.5t-130.5 64.5t-187.5 23q-148 0 -270.5 -39t-273.5 -120q-21 -9 -29 11l-28 60q-9 20 11 29q166 88 303 129.5t299 41.5q132 0 232 -29.5t163 -81.5
t102.5 -130t55 -166.5t15.5 -201.5v-456q0 -130 16.5 -236t36.5 -167t61 -162zM718 81q131 0 248.5 52.5t197.5 136.5t127 189t47 210v147q-262 64 -457 62t-324.5 -59.5t-193.5 -151.5t-64 -215q0 -166 115.5 -268.5t303.5 -102.5z" />
    <glyph glyph-name="atilde" unicode="&#xe3;" horiz-adv-x="1704" 
d="M377 1929q-9 0 -15 6t-5 15q4 187 85 278.5t212 91.5q51 0 95 -16.5t76 -42.5t61 -57.5t56.5 -63t55.5 -57.5t64.5 -42.5t77.5 -16.5q103 0 161 70t59 205q2 21 21 21h37q9 0 15 -9t5 -24q-6 -180 -88 -269t-210 -89q-51 0 -95 16.5t-76 42.5t-61 57.5t-56 63.5t-55 58
t-64.5 42.5t-78.5 16.5q-103 0 -160.5 -70.5t-58.5 -206.5q-2 -20 -22 -20h-36zM1576 35q10 -23 -12 -31l-54 -20q-14 -6 -23 5q-109 192 -139 418q-82 -188 -258 -310t-397 -122q-234 0 -378.5 134.5t-144.5 337.5q0 195 136 329.5t395.5 178t636.5 -46.5v136
q0 99 -12.5 174.5t-43.5 140.5t-82 106.5t-130.5 64.5t-187.5 23q-148 0 -270.5 -39t-273.5 -120q-21 -9 -29 11l-28 60q-9 20 11 29q166 88 303 129.5t299 41.5q132 0 232 -29.5t163 -81.5t102.5 -130t55 -166.5t15.5 -201.5v-456q0 -130 16.5 -236t36.5 -167t61 -162z
M718 81q131 0 248.5 52.5t197.5 136.5t127 189t47 210v147q-262 64 -457 62t-324.5 -59.5t-193.5 -151.5t-64 -215q0 -166 115.5 -268.5t303.5 -102.5z" />
    <glyph glyph-name="adieresis" unicode="&#xe4;" horiz-adv-x="1704" 
d="M564 2023q-42 0 -73 31t-31 73q0 41 31 72t73 31q41 0 72 -31t31 -72q0 -42 -31 -73t-72 -31zM1234 2023q-42 0 -73 31t-31 73q0 41 31 72t73 31q41 0 72 -31t31 -72q0 -42 -31 -73t-72 -31zM1576 35q10 -23 -12 -31l-54 -20q-14 -6 -23 5q-109 192 -139 418
q-82 -188 -258 -310t-397 -122q-234 0 -378.5 134.5t-144.5 337.5q0 195 136 329.5t395.5 178t636.5 -46.5v136q0 99 -12.5 174.5t-43.5 140.5t-82 106.5t-130.5 64.5t-187.5 23q-148 0 -270.5 -39t-273.5 -120q-21 -9 -29 11l-28 60q-9 20 11 29q166 88 303 129.5t299 41.5
q132 0 232 -29.5t163 -81.5t102.5 -130t55 -166.5t15.5 -201.5v-456q0 -130 16.5 -236t36.5 -167t61 -162zM718 81q131 0 248.5 52.5t197.5 136.5t127 189t47 210v147q-262 64 -457 62t-324.5 -59.5t-193.5 -151.5t-64 -215q0 -166 115.5 -268.5t303.5 -102.5z" />
    <glyph glyph-name="aring" unicode="&#xe5;" horiz-adv-x="1704" 
d="M897 1817q-156 0 -267 109t-111 265t111 267t267 111t267 -111t111 -267t-111 -265t-267 -109zM897 2494q-126 0 -211.5 -88t-85.5 -215q0 -124 85.5 -211t211.5 -87t211.5 87t85.5 211q0 127 -85.5 215t-211.5 88zM1576 35q10 -23 -12 -31l-54 -20q-14 -6 -23 5
q-109 192 -139 418q-82 -188 -258 -310t-397 -122q-234 0 -378.5 134.5t-144.5 337.5q0 195 136 329.5t395.5 178t636.5 -46.5v136q0 99 -12.5 174.5t-43.5 140.5t-82 106.5t-130.5 64.5t-187.5 23q-148 0 -270.5 -39t-273.5 -120q-21 -9 -29 11l-28 60q-9 20 11 29
q166 88 303 129.5t299 41.5q132 0 232 -29.5t163 -81.5t102.5 -130t55 -166.5t15.5 -201.5v-456q0 -130 16.5 -236t36.5 -167t61 -162zM718 81q131 0 248.5 52.5t197.5 136.5t127 189t47 210v147q-262 64 -457 62t-324.5 -59.5t-193.5 -151.5t-64 -215q0 -166 115.5 -268.5
t303.5 -102.5z" />
    <glyph glyph-name="ae" unicode="&#xe6;" horiz-adv-x="3104" 
d="M2871 444q19 -9 10 -29q-97 -216 -274 -328t-422 -112q-260 0 -468.5 137t-300.5 373q-34 -103 -101.5 -195.5t-158 -162.5t-206.5 -111t-239 -41q-235 0 -378 134.5t-143 337.5q0 144 76.5 258t224.5 183.5t365 78t499 -58.5v136q0 99 -12 174.5t-43 140.5t-82.5 106.5
t-131 64.5t-186.5 23q-148 0 -270.5 -39t-273.5 -120q-22 -9 -30 11l-28 60q-8 20 12 29q166 88 303 129.5t298 41.5q133 0 232 -29.5t161.5 -86.5t98 -131.5t50.5 -174.5q103 199 292.5 310.5t422.5 111.5q163 0 300 -54.5t236 -155.5t154.5 -253.5t55.5 -339.5h-1429
q-1 -14 -1 -42q0 -165 56.5 -304t153 -232.5t225 -145.5t271.5 -52q207 0 355 95.5t228 285.5q9 18 29 10zM2168 1558q-169 0 -311.5 -72.5t-239 -209.5t-123.5 -318h1280q-8 141 -56.5 255t-128.5 189t-187.5 115.5t-233.5 40.5zM736 81q131 0 248.5 52.5t197.5 136.5
t126.5 189t46.5 210v147q-262 64 -456.5 62.5t-323.5 -60t-192.5 -152t-63.5 -214.5q0 -166 114 -268.5t303 -102.5z" />
    <glyph glyph-name="ccedilla" unicode="&#xe7;" horiz-adv-x="1907" 
d="M1714 449q19 -9 10 -29q-92 -207 -265.5 -325.5t-423.5 -119.5l-87 -244q90 28 175 22t151 -35t106 -92t40 -149q0 -134 -95.5 -215.5t-240.5 -81.5q-175 0 -319 84q-18 13 -9 30l13 27q9 19 30 10q74 -37 137.5 -55.5t143.5 -18.5q108 0 174 58.5t66 157.5
q0 73 -36 122.5t-99 69.5t-145.5 16.5t-177.5 -32.5q-16 -4 -21 2t1 22l109 305q-159 13 -298.5 79.5t-242 173.5t-161.5 259.5t-59 329.5q0 187 66.5 346.5t180 268t267 169.5t325.5 61q252 0 427 -118.5t268 -327.5q9 -19 -10 -28l-70 -33q-18 -8 -29 10
q-179 385 -579 385q-201 0 -363 -88.5t-258 -257t-96 -387.5q0 -220 96 -388.5t258 -257t363 -88.5q410 0 579 386q12 18 29 10z" />
    <glyph glyph-name="egrave" unicode="&#xe8;" horiz-adv-x="1939" 
d="M427 2332q-18 11 -6 29l39 60q13 17 30 5l577 -461q17 -14 6 -30l-28 -42q-13 -18 -30 -6zM1706 444q19 -9 10 -29q-97 -216 -274 -328t-422 -112q-135 0 -259.5 38.5t-228 112.5t-180.5 175.5t-119.5 235t-42.5 283.5q0 187 64 346.5t173.5 268t258.5 169.5t317 61
q163 0 300 -54.5t236 -155.5t154.5 -253.5t55.5 -339.5h-1429q-1 -14 -1 -42q0 -165 56.5 -304t153 -232.5t225 -145.5t271.5 -52q207 0 355 95.5t228 285.5q9 18 29 10zM1003 1558q-169 0 -311.5 -72.5t-239 -209.5t-123.5 -318h1280q-8 141 -56.5 255t-128.5 189
t-187.5 115.5t-233.5 40.5z" />
    <glyph glyph-name="eacute" unicode="&#xe9;" horiz-adv-x="1939" 
d="M866 1893l-28 42q-11 16 6 30l577 461q17 12 30 -5l39 -60q12 -18 -6 -29l-588 -445q-17 -12 -30 6zM1706 444q19 -9 10 -29q-97 -216 -274 -328t-422 -112q-135 0 -259.5 38.5t-228 112.5t-180.5 175.5t-119.5 235t-42.5 283.5q0 187 64 346.5t173.5 268t258.5 169.5
t317 61q163 0 300 -54.5t236 -155.5t154.5 -253.5t55.5 -339.5h-1429q-1 -14 -1 -42q0 -165 56.5 -304t153 -232.5t225 -145.5t271.5 -52q207 0 355 95.5t228 285.5q9 18 29 10zM1003 1558q-169 0 -311.5 -72.5t-239 -209.5t-123.5 -318h1280q-8 141 -56.5 255t-128.5 189
t-187.5 115.5t-233.5 40.5z" />
    <glyph glyph-name="ecircumflex" unicode="&#xea;" horiz-adv-x="1939" 
d="M484 1880q-13 0 -17 6t6 17l425 469q11 10 31 10h59q20 0 31 -10l425 -469q10 -11 6 -17t-17 -6h-86q-20 0 -31 12l-357 399l-358 -399q-11 -12 -28 -12h-89zM1706 444q19 -9 10 -29q-97 -216 -274 -328t-422 -112q-135 0 -259.5 38.5t-228 112.5t-180.5 175.5
t-119.5 235t-42.5 283.5q0 187 64 346.5t173.5 268t258.5 169.5t317 61q163 0 300 -54.5t236 -155.5t154.5 -253.5t55.5 -339.5h-1429q-1 -14 -1 -42q0 -165 56.5 -304t153 -232.5t225 -145.5t271.5 -52q207 0 355 95.5t228 285.5q9 18 29 10zM1003 1558
q-169 0 -311.5 -72.5t-239 -209.5t-123.5 -318h1280q-8 141 -56.5 255t-128.5 189t-187.5 115.5t-233.5 40.5z" />
    <glyph glyph-name="edieresis" unicode="&#xeb;" horiz-adv-x="1939" 
d="M629 2023q-42 0 -73 31t-31 73q0 41 31 72t73 31q41 0 72 -31t31 -72q0 -42 -31 -73t-72 -31zM1299 2023q-42 0 -73 31t-31 73q0 41 31 72t73 31q41 0 72 -31t31 -72q0 -42 -31 -73t-72 -31zM1706 444q19 -9 10 -29q-97 -216 -274 -328t-422 -112q-135 0 -259.5 38.5
t-228 112.5t-180.5 175.5t-119.5 235t-42.5 283.5q0 187 64 346.5t173.5 268t258.5 169.5t317 61q163 0 300 -54.5t236 -155.5t154.5 -253.5t55.5 -339.5h-1429q-1 -14 -1 -42q0 -165 56.5 -304t153 -232.5t225 -145.5t271.5 -52q207 0 355 95.5t228 285.5q9 18 29 10z
M1003 1558q-169 0 -311.5 -72.5t-239 -209.5t-123.5 -318h1280q-8 141 -56.5 255t-128.5 189t-187.5 115.5t-233.5 40.5z" />
    <glyph glyph-name="igrave" unicode="&#xec;" horiz-adv-x="594" 
d="M351 1887l-588 445q-18 11 -6 29l39 60q13 17 30 5l577 -461q17 -14 6 -30l-28 -42q-13 -18 -30 -6zM235 1619q0 9 6 15t15 6h82q9 0 15 -6t6 -15v-1598q0 -9 -6 -15t-15 -6h-82q-9 0 -15 6t-6 15v1598z" />
    <glyph glyph-name="iacute" unicode="&#xed;" horiz-adv-x="594" 
d="M232 1887q-17 -12 -30 6l-28 42q-11 16 6 30l577 461q17 12 30 -5l39 -60q12 -18 -6 -29zM235 1619q0 9 6 15t15 6h82q9 0 15 -6t6 -15v-1598q0 -9 -6 -15t-15 -6h-82q-9 0 -15 6t-6 15v1598z" />
    <glyph glyph-name="icircumflex" unicode="&#xee;" horiz-adv-x="594" 
d="M652 1892l-357 399l-358 -399q-11 -12 -28 -12h-89q-13 0 -17 6t6 17l425 469q11 10 31 10h59q20 0 31 -10l425 -469q10 -11 6 -17t-17 -6h-86q-20 0 -31 12zM235 1619q0 9 6 15t15 6h82q9 0 15 -6t6 -15v-1598q0 -9 -6 -15t-15 -6h-82q-9 0 -15 6t-6 15v1598z" />
    <glyph glyph-name="idieresis" unicode="&#xef;" horiz-adv-x="594" 
d="M-35 2023q-42 0 -73 31t-31 73q0 41 31 72t73 31q41 0 72 -31t31 -72q0 -42 -31 -73t-72 -31zM635 2023q-42 0 -73 31t-31 73q0 41 31 72t73 31q41 0 72 -31t31 -72q0 -42 -31 -73t-72 -31zM235 1619q0 9 6 15t15 6h82q9 0 15 -6t6 -15v-1598q0 -9 -6 -15t-15 -6h-82
q-9 0 -15 6t-6 15v1598z" />
    <glyph glyph-name="eth" unicode="&#xf0;" horiz-adv-x="2020" 
d="M1062 2415q134 -74 245.5 -177.5t190 -216t139.5 -243.5t97.5 -254.5t60 -254.5t32 -237.5t8.5 -209.5q0 -151 -42.5 -285.5t-119 -236t-178.5 -175.5t-225 -112t-255 -38q-165 0 -315 61t-263 168t-180 265t-67 341t65 341t175.5 265t259 168t312.5 61q217 0 393 -101.5
t278 -283.5q-28 158 -75.5 301.5t-124.5 288t-194.5 268.5t-267.5 210l-180 -312q-5 -8 -13 -10t-15 2l-28 16q-18 11 -7 28l179 310q-157 78 -346 115q-13 4 -17.5 14t0.5 21l19 42q8 15 26 12q199 -36 368 -117l157 273q10 18 29 8l27 -16q18 -9 8 -28zM1015 86
q142 0 268.5 52t221.5 144.5t150.5 229.5t55.5 298t-55.5 298t-150 229.5t-221.5 144.5t-269 52t-269 -52t-221.5 -144.5t-150 -229.5t-55.5 -298t55.5 -298t150.5 -229.5t221.5 -144.5t268.5 -52z" />
    <glyph glyph-name="ntilde" unicode="&#xf1;" 
d="M506 1929q-9 0 -15 6t-5 15q4 187 85 278.5t212 91.5q51 0 95 -16.5t76 -42.5t61 -57.5t56.5 -63t55.5 -57.5t64.5 -42.5t77.5 -16.5q103 0 161 70t59 205q2 21 21 21h37q9 0 15 -9t5 -24q-6 -180 -88 -269t-210 -89q-51 0 -95 16.5t-76 42.5t-61 57.5t-56 63.5t-55 58
t-64.5 42.5t-78.5 16.5q-103 0 -160.5 -70.5t-58.5 -206.5q-2 -20 -22 -20h-36zM1112 1680q158 0 277 -49t192.5 -140.5t109.5 -214.5t36 -277v-978q0 -9 -6 -15t-15 -6h-82q-9 0 -15 6t-6 15v939q0 293 -127 450.5t-393 157.5q-191 0 -357 -95t-262.5 -253t-96.5 -337v-862
q0 -9 -6 -15t-15 -6h-82q-9 0 -15 6t-6 15v1598q0 9 6 15t15 6h82q9 0 15 -6t6 -15v-422q26 63 70.5 127t113 129t150 115t189 81t222.5 31z" />
    <glyph glyph-name="ograve" unicode="&#xf2;" horiz-adv-x="2049" 
d="M1078 1887l-588 445q-18 11 -6 29l39 60q13 17 30 5l577 -461q17 -14 6 -30l-28 -42q-13 -18 -30 -6zM1025 1665q169 0 321 -61t265.5 -169t180.5 -268t67 -347t-67 -347t-180.5 -268t-265.5 -169t-321 -61t-321 61t-266 169t-181 268t-67 347t67 347t181 268t266 169
t321 61zM1025 86q143 0 271 52t224.5 145.5t153 232.5t56.5 304q0 164 -56.5 303t-153 232.5t-224.5 145.5t-271 52t-271.5 -52t-225 -145.5t-153 -232.5t-56.5 -303q0 -165 56.5 -304t153 -232.5t225 -145.5t271.5 -52z" />
    <glyph glyph-name="oacute" unicode="&#xf3;" horiz-adv-x="2049" 
d="M959 1887q-17 -12 -30 6l-28 42q-11 16 6 30l577 461q17 12 30 -5l39 -60q12 -18 -6 -29zM1025 1665q169 0 321 -61t265.5 -169t180.5 -268t67 -347t-67 -347t-180.5 -268t-265.5 -169t-321 -61t-321 61t-266 169t-181 268t-67 347t67 347t181 268t266 169t321 61z
M1025 86q143 0 271 52t224.5 145.5t153 232.5t56.5 304q0 164 -56.5 303t-153 232.5t-224.5 145.5t-271 52t-271.5 -52t-225 -145.5t-153 -232.5t-56.5 -303q0 -165 56.5 -304t153 -232.5t225 -145.5t271.5 -52z" />
    <glyph glyph-name="ocircumflex" unicode="&#xf4;" horiz-adv-x="2049" 
d="M1379 1892l-357 399l-358 -399q-11 -12 -28 -12h-89q-13 0 -17 6t6 17l425 469q11 10 31 10h59q20 0 31 -10l425 -469q10 -11 6 -17t-17 -6h-86q-20 0 -31 12zM1025 1665q169 0 321 -61t265.5 -169t180.5 -268t67 -347t-67 -347t-180.5 -268t-265.5 -169t-321 -61
t-321 61t-266 169t-181 268t-67 347t67 347t181 268t266 169t321 61zM1025 86q143 0 271 52t224.5 145.5t153 232.5t56.5 304q0 164 -56.5 303t-153 232.5t-224.5 145.5t-271 52t-271.5 -52t-225 -145.5t-153 -232.5t-56.5 -303q0 -165 56.5 -304t153 -232.5t225 -145.5
t271.5 -52z" />
    <glyph glyph-name="otilde" unicode="&#xf5;" horiz-adv-x="2049" 
d="M505 1929q-9 0 -15 6t-5 15q4 187 85 278.5t212 91.5q51 0 95 -16.5t76 -42.5t61 -57.5t56.5 -63t55.5 -57.5t64.5 -42.5t77.5 -16.5q103 0 161 70t59 205q2 21 21 21h37q9 0 15 -9t5 -24q-6 -180 -88 -269t-210 -89q-51 0 -95 16.5t-76 42.5t-61 57.5t-56 63.5t-55 58
t-64.5 42.5t-78.5 16.5q-103 0 -160.5 -70.5t-58.5 -206.5q-2 -20 -22 -20h-36zM1025 1665q169 0 321 -61t265.5 -169t180.5 -268t67 -347t-67 -347t-180.5 -268t-265.5 -169t-321 -61t-321 61t-266 169t-181 268t-67 347t67 347t181 268t266 169t321 61zM1025 86
q143 0 271 52t224.5 145.5t153 232.5t56.5 304q0 164 -56.5 303t-153 232.5t-224.5 145.5t-271 52t-271.5 -52t-225 -145.5t-153 -232.5t-56.5 -303q0 -165 56.5 -304t153 -232.5t225 -145.5t271.5 -52z" />
    <glyph glyph-name="odieresis" unicode="&#xf6;" horiz-adv-x="2049" 
d="M692 2023q-42 0 -73 31t-31 73q0 41 31 72t73 31q41 0 72 -31t31 -72q0 -42 -31 -73t-72 -31zM1362 2023q-42 0 -73 31t-31 73q0 41 31 72t73 31q41 0 72 -31t31 -72q0 -42 -31 -73t-72 -31zM1025 1665q169 0 321 -61t265.5 -169t180.5 -268t67 -347t-67 -347
t-180.5 -268t-265.5 -169t-321 -61t-321 61t-266 169t-181 268t-67 347t67 347t181 268t266 169t321 61zM1025 86q143 0 271 52t224.5 145.5t153 232.5t56.5 304q0 164 -56.5 303t-153 232.5t-224.5 145.5t-271 52t-271.5 -52t-225 -145.5t-153 -232.5t-56.5 -303
q0 -165 56.5 -304t153 -232.5t225 -145.5t271.5 -52z" />
    <glyph glyph-name="divide" unicode="&#xf7;" horiz-adv-x="2046" 
d="M1016 1455q-42 0 -72 30t-30 71t30 71t72 30q40 0 70 -30t30 -71t-29.5 -71t-70.5 -30zM251 1003q-9 0 -15 6t-6 15v60q0 9 6 15t15 6h1544q9 0 15 -6t6 -15v-60q0 -9 -6 -15t-15 -6h-1544zM1016 459q-42 0 -72 30t-30 71t30 71t72 30q40 0 70 -30t30 -71t-29.5 -71
t-70.5 -30z" />
    <glyph glyph-name="oslash" unicode="&#xf8;" horiz-adv-x="2059" 
d="M1664 1381q198 -230 198 -561q0 -187 -67 -347t-181 -268t-266 -169t-321 -61q-159 0 -304 54t-257 154l-178 -178q-15 -14 -29 0l-42 42q-15 15 0 29l178 178q-202 233 -202 566q0 187 67 347t181 268t266 169t320 61q161 0 307 -54.5t259 -156.5l174 174q15 13 30 0
l42 -43q16 -15 0 -29zM322 820q0 -282 159 -480l1027 1029q-96 89 -219.5 136.5t-261.5 47.5q-143 0 -271 -52t-224.5 -145.5t-153 -232.5t-56.5 -303zM1027 86q143 0 271.5 52t225 145.5t153 232.5t56.5 304q0 278 -156 474l-1027 -1027q96 -87 218.5 -134t258.5 -47z" />
    <glyph glyph-name="ugrave" unicode="&#xf9;" 
d="M451 2332q-18 11 -6 29l39 60q13 17 30 5l577 -461q17 -14 6 -30l-28 -42q-13 -18 -30 -6zM1706 1640q9 0 15 -6t6 -15v-1598q0 -9 -6 -15t-15 -6h-82q-9 0 -15 6t-6 15v422q-26 -63 -70.5 -127t-113 -129t-150 -115t-189 -81t-222.5 -31q-158 0 -277 49t-192.5 140.5
t-109.5 214.5t-36 277v978q0 9 6 15t15 6h82q9 0 15 -6t6 -15v-939q0 -293 127 -450.5t393 -157.5q191 0 357 95t262.5 253t96.5 337v862q0 9 6 15t15 6h82z" />
    <glyph glyph-name="uacute" unicode="&#xfa;" 
d="M890 1893l-28 42q-11 16 6 30l577 461q17 12 30 -5l39 -60q12 -18 -6 -29l-588 -445q-17 -12 -30 6zM1706 1640q9 0 15 -6t6 -15v-1598q0 -9 -6 -15t-15 -6h-82q-9 0 -15 6t-6 15v422q-26 -63 -70.5 -127t-113 -129t-150 -115t-189 -81t-222.5 -31q-158 0 -277 49
t-192.5 140.5t-109.5 214.5t-36 277v978q0 9 6 15t15 6h82q9 0 15 -6t6 -15v-939q0 -293 127 -450.5t393 -157.5q191 0 357 95t262.5 253t96.5 337v862q0 9 6 15t15 6h82z" />
    <glyph glyph-name="ucircumflex" unicode="&#xfb;" 
d="M508 1880q-13 0 -17 6t6 17l425 469q11 10 31 10h59q20 0 31 -10l425 -469q10 -11 6 -17t-17 -6h-86q-20 0 -31 12l-357 399l-358 -399q-11 -12 -28 -12h-89zM1706 1640q9 0 15 -6t6 -15v-1598q0 -9 -6 -15t-15 -6h-82q-9 0 -15 6t-6 15v422q-26 -63 -70.5 -127
t-113 -129t-150 -115t-189 -81t-222.5 -31q-158 0 -277 49t-192.5 140.5t-109.5 214.5t-36 277v978q0 9 6 15t15 6h82q9 0 15 -6t6 -15v-939q0 -293 127 -450.5t393 -157.5q191 0 357 95t262.5 253t96.5 337v862q0 9 6 15t15 6h82z" />
    <glyph glyph-name="udieresis" unicode="&#xfc;" 
d="M653 2023q-42 0 -73 31t-31 73q0 41 31 72t73 31q41 0 72 -31t31 -72q0 -42 -31 -73t-72 -31zM1323 2023q-42 0 -73 31t-31 73q0 41 31 72t73 31q41 0 72 -31t31 -72q0 -42 -31 -73t-72 -31zM1706 1640q9 0 15 -6t6 -15v-1598q0 -9 -6 -15t-15 -6h-82q-9 0 -15 6t-6 15
v422q-26 -63 -70.5 -127t-113 -129t-150 -115t-189 -81t-222.5 -31q-158 0 -277 49t-192.5 140.5t-109.5 214.5t-36 277v978q0 9 6 15t15 6h82q9 0 15 -6t6 -15v-939q0 -293 127 -450.5t393 -157.5q191 0 357 95t262.5 253t96.5 337v862q0 9 6 15t15 6h82z" />
    <glyph glyph-name="yacute" unicode="&#xfd;" horiz-adv-x="1653" 
d="M731 1893l-28 42q-11 16 6 30l577 461q17 12 30 -5l39 -60q12 -18 -6 -29l-588 -445q-17 -12 -30 6zM1579 1640q15 0 21 -12t-2 -27l-719 -1609q-69 -162 -126 -281.5t-119 -227t-121 -178.5t-125 -124t-138.5 -77t-155.5 -24q-23 0 -23 20v62q0 20 20 21
q186 5 339 201.5t357 670.5l-732 1546q-8 15 -2.5 27t21.5 12h86q16 0 24 -17l660 -1437l633 1437q8 17 25 17h77z" />
    <glyph glyph-name="thorn" unicode="&#xfe;" horiz-adv-x="2087" 
d="M1072 1665q165 0 315 -61t263 -169t180 -268t67 -347t-67 -347t-180 -268t-263 -169t-315 -61q-241 0 -426.5 126.5t-278.5 341.5v-1342q0 -9 -6 -15t-15 -6h-83q-9 0 -15 6t-6 15v2518q0 5 1 7v913q0 9 6 15t14 6h83q9 0 15 -6t6 -15v-1328v-14q93 215 278.5 341.5
t426.5 126.5zM1062 86q114 0 220 33t194 96.5t153.5 151.5t102 204.5t36.5 248.5t-36.5 248.5t-102 204.5t-153.5 151.5t-194 96.5t-220 33q-147 0 -278.5 -58.5t-224.5 -157.5t-147.5 -234t-54.5 -284t54.5 -284t147.5 -234t224.5 -157.5t278.5 -58.5z" />
    <glyph glyph-name="ydieresis" unicode="&#xff;" horiz-adv-x="1653" 
d="M494 2023q-42 0 -73 31t-31 73q0 41 31 72t73 31q41 0 72 -31t31 -72q0 -42 -31 -73t-72 -31zM1164 2023q-42 0 -73 31t-31 73q0 41 31 72t73 31q41 0 72 -31t31 -72q0 -42 -31 -73t-72 -31zM1579 1640q15 0 21 -12t-2 -27l-719 -1609q-69 -162 -126 -281.5t-119 -227
t-121 -178.5t-125 -124t-138.5 -77t-155.5 -24q-23 0 -23 20v62q0 20 20 21q186 5 339 201.5t357 670.5l-732 1546q-8 15 -2.5 27t21.5 12h86q16 0 24 -17l660 -1437l633 1437q8 17 25 17h77z" />
    <glyph glyph-name="Amacron" unicode="&#x100;" horiz-adv-x="2430" 
d="M727 2875q-8 0 -14.5 6.5t-6.5 14.5v53q0 8 6.5 14.5t14.5 6.5h978q8 0 14 -6.5t6 -14.5v-53q0 -8 -6 -14.5t-14 -6.5h-978zM2338 24q11 -24 -17 -24h-101q-19 0 -25 17l-362 837h-1251l-374 -837q-9 -17 -26 -17h-92q-12 0 -18 6t0 18l1103 2439q8 17 26 17h36
q17 0 25 -17zM629 960h1158l-570 1318z" />
    <glyph glyph-name="amacron" unicode="&#x101;" horiz-adv-x="1704" 
d="M408 2075q-8 0 -14.5 6.5t-6.5 14.5v53q0 8 6.5 14.5t14.5 6.5h978q8 0 14 -6.5t6 -14.5v-53q0 -8 -6 -14.5t-14 -6.5h-978zM1576 35q10 -23 -12 -31l-54 -20q-14 -6 -23 5q-109 192 -139 418q-82 -188 -258 -310t-397 -122q-234 0 -378.5 134.5t-144.5 337.5
q0 195 136 329.5t395.5 178t636.5 -46.5v136q0 99 -12.5 174.5t-43.5 140.5t-82 106.5t-130.5 64.5t-187.5 23q-148 0 -270.5 -39t-273.5 -120q-21 -9 -29 11l-28 60q-9 20 11 29q166 88 303 129.5t299 41.5q132 0 232 -29.5t163 -81.5t102.5 -130t55 -166.5t15.5 -201.5
v-456q0 -130 16.5 -236t36.5 -167t61 -162zM718 81q131 0 248.5 52.5t197.5 136.5t127 189t47 210v147q-262 64 -457 62t-324.5 -59.5t-193.5 -151.5t-64 -215q0 -166 115.5 -268.5t303.5 -102.5z" />
    <glyph glyph-name="Abreve" unicode="&#x102;" horiz-adv-x="2430" 
d="M1216 2670q-129 0 -239 51t-179.5 152.5t-69.5 233.5q0 22 20 22h56q21 0 23 -18q2 -107 60 -185.5t144 -115.5t185 -37q155 0 270 90t119 248q2 18 23 18h55q20 0 20 -22q0 -99 -40.5 -183t-108 -138.5t-155 -85t-183.5 -30.5zM2338 24q11 -24 -17 -24h-101
q-19 0 -25 17l-362 837h-1251l-374 -837q-9 -17 -26 -17h-92q-12 0 -18 6t0 18l1103 2439q8 17 26 17h36q17 0 25 -17zM629 960h1158l-570 1318z" />
    <glyph glyph-name="abreve" unicode="&#x103;" horiz-adv-x="1704" 
d="M897 1870q-129 0 -239 51t-179.5 152.5t-69.5 233.5q0 22 20 22h56q21 0 23 -18q2 -107 60 -185.5t144 -115.5t185 -37q155 0 270 90t119 248q2 18 23 18h55q20 0 20 -22q0 -99 -40.5 -183t-108 -138.5t-155 -85t-183.5 -30.5zM1576 35q10 -23 -12 -31l-54 -20
q-14 -6 -23 5q-109 192 -139 418q-82 -188 -258 -310t-397 -122q-234 0 -378.5 134.5t-144.5 337.5q0 195 136 329.5t395.5 178t636.5 -46.5v136q0 99 -12.5 174.5t-43.5 140.5t-82 106.5t-130.5 64.5t-187.5 23q-148 0 -270.5 -39t-273.5 -120q-21 -9 -29 11l-28 60
q-9 20 11 29q166 88 303 129.5t299 41.5q132 0 232 -29.5t163 -81.5t102.5 -130t55 -166.5t15.5 -201.5v-456q0 -130 16.5 -236t36.5 -167t61 -162zM718 81q131 0 248.5 52.5t197.5 136.5t127 189t47 210v147q-262 64 -457 62t-324.5 -59.5t-193.5 -151.5t-64 -215
q0 -166 115.5 -268.5t303.5 -102.5z" />
    <glyph glyph-name="Aogonek" unicode="&#x104;" horiz-adv-x="2430" 
d="M2340 -693q29 10 29 -15v-39q0 -19 -19 -28q-98 -45 -219 -45q-148 0 -230.5 87t-82.5 227q0 148 100.5 292.5t273.5 236.5l-359 831h-1251l-374 -837q-9 -17 -26 -17h-92q-12 0 -18 6t0 18l1103 2439q8 17 26 17h36q17 0 25 -17l1076 -2439q11 -24 -17 -24h-38
q-175 -102 -269.5 -225.5t-94.5 -260.5q0 -114 60.5 -180t170.5 -66q108 0 190 39zM629 960h1158l-570 1318z" />
    <glyph glyph-name="aogonek" unicode="&#x105;" horiz-adv-x="1799" 
d="M1583 4q-96 -64 -163 -117t-129 -116t-93.5 -128t-31.5 -132q0 -239 214 -239q99 0 182 39q28 11 28 -15v-39q0 -19 -19 -28q-94 -45 -211 -45q-147 0 -221.5 82.5t-74.5 224.5q0 134 115.5 271.5t302.5 257.5q-91 177 -117 384q-83 -187 -258.5 -308t-395.5 -121
q-235 0 -378 134.5t-143 337.5q0 144 76.5 258t224.5 183.5t365 78t499 -58.5v136q0 99 -12 174.5t-43 140.5t-82.5 106.5t-131 64.5t-186.5 23q-148 0 -270.5 -39t-273.5 -120q-22 -9 -30 11l-28 60q-8 20 12 29q166 88 303 129.5t298 41.5q132 0 232 -29.5t163 -81.5
t102.5 -130t55 -166.5t15.5 -201.5v-456q0 -186 27 -301t88 -264q7 -19 -11 -31zM736 81q131 0 248.5 52.5t197.5 136.5t126.5 189t46.5 210v147q-262 64 -456.5 62.5t-323.5 -60t-192.5 -152t-63.5 -214.5q0 -166 114 -268.5t303 -102.5z" />
    <glyph glyph-name="Cacute" unicode="&#x106;" horiz-adv-x="2594" 
d="M1314 2693l-28 42q-11 16 6 30l577 461q17 12 30 -5l39 -60q12 -18 -6 -29l-588 -445q-17 -12 -30 6zM2391 639q21 -8 10 -30q-317 -634 -991 -634q-159 0 -311 39.5t-285 113t-244 183.5t-191 246t-124.5 306t-44.5 357t44.5 357t124.5 306t191 246t244 183.5t285 113
t311 39.5q674 0 991 -634q11 -22 -10 -30l-67 -32q-19 -8 -29 11q-288 574 -885 574q-218 0 -413 -82t-339.5 -227.5t-229 -359.5t-84.5 -465t84.5 -465t229 -359.5t339.5 -227.5t413 -82q597 0 885 574q10 19 29 11z" />
    <glyph glyph-name="cacute" unicode="&#x107;" horiz-adv-x="1907" 
d="M937 1893l-28 42q-11 16 6 30l577 461q17 12 30 -5l39 -60q12 -18 -6 -29l-588 -445q-17 -12 -30 6zM1714 449q19 -9 10 -29q-93 -209 -268 -327t-427 -118q-172 0 -325.5 61t-267 169.5t-180 268t-66.5 346.5t66.5 346.5t180 268t267 169.5t325.5 61q252 0 427 -118.5
t268 -327.5q9 -19 -10 -28l-70 -33q-18 -8 -29 10q-179 385 -579 385q-201 0 -363 -88.5t-258 -257t-96 -387.5q0 -220 96 -388.5t258 -257t363 -88.5q410 0 579 386q12 18 29 10z" />
    <glyph glyph-name="Cdotaccent" unicode="&#x10a;" horiz-adv-x="2594" 
d="M1410 2823q-43 0 -74 31t-31 74q0 42 31 73t74 31q42 0 73 -31t31 -73q0 -43 -31 -74t-73 -31zM2391 639q21 -8 10 -30q-317 -634 -991 -634q-159 0 -311 39.5t-285 113t-244 183.5t-191 246t-124.5 306t-44.5 357t44.5 357t124.5 306t191 246t244 183.5t285 113
t311 39.5q674 0 991 -634q11 -22 -10 -30l-67 -32q-19 -8 -29 11q-288 574 -885 574q-218 0 -413 -82t-339.5 -227.5t-229 -359.5t-84.5 -465t84.5 -465t229 -359.5t339.5 -227.5t413 -82q597 0 885 574q10 19 29 11z" />
    <glyph glyph-name="cdotaccent" unicode="&#x10b;" horiz-adv-x="1907" 
d="M1033 2023q-43 0 -74 31t-31 74q0 42 31 73t74 31q42 0 73 -31t31 -73q0 -43 -31 -74t-73 -31zM1714 449q19 -9 10 -29q-93 -209 -268 -327t-427 -118q-172 0 -325.5 61t-267 169.5t-180 268t-66.5 346.5t66.5 346.5t180 268t267 169.5t325.5 61q252 0 427 -118.5
t268 -327.5q9 -19 -10 -28l-70 -33q-18 -8 -29 10q-179 385 -579 385q-201 0 -363 -88.5t-258 -257t-96 -387.5q0 -220 96 -388.5t258 -257t363 -88.5q410 0 579 386q12 18 29 10z" />
    <glyph glyph-name="Ccaron" unicode="&#x10c;" horiz-adv-x="2594" 
d="M921 3156q-10 10 -6 16.5t17 6.5h89q17 0 28 -12l358 -399l357 399q11 12 31 12h86q13 0 17 -6.5t-6 -16.5l-425 -469q-11 -10 -31 -10h-59q-20 0 -31 10zM2391 639q21 -8 10 -30q-317 -634 -991 -634q-159 0 -311 39.5t-285 113t-244 183.5t-191 246t-124.5 306
t-44.5 357t44.5 357t124.5 306t191 246t244 183.5t285 113t311 39.5q674 0 991 -634q11 -22 -10 -30l-67 -32q-19 -8 -29 11q-288 574 -885 574q-218 0 -413 -82t-339.5 -227.5t-229 -359.5t-84.5 -465t84.5 -465t229 -359.5t339.5 -227.5t413 -82q597 0 885 574
q10 19 29 11z" />
    <glyph glyph-name="ccaron" unicode="&#x10d;" horiz-adv-x="1907" 
d="M544 2356q-10 10 -6 16.5t17 6.5h89q17 0 28 -12l358 -399l357 399q11 12 31 12h86q13 0 17 -6.5t-6 -16.5l-425 -469q-11 -10 -31 -10h-59q-20 0 -31 10zM1714 449q19 -9 10 -29q-93 -209 -268 -327t-427 -118q-172 0 -325.5 61t-267 169.5t-180 268t-66.5 346.5
t66.5 346.5t180 268t267 169.5t325.5 61q252 0 427 -118.5t268 -327.5q9 -19 -10 -28l-70 -33q-18 -8 -29 10q-179 385 -579 385q-201 0 -363 -88.5t-258 -257t-96 -387.5q0 -220 96 -388.5t258 -257t363 -88.5q410 0 579 386q12 18 29 10z" />
    <glyph glyph-name="Dcaron" unicode="&#x10e;" horiz-adv-x="2492" 
d="M651 3156q-10 10 -6 16.5t17 6.5h89q17 0 28 -12l358 -399l357 399q11 12 31 12h86q13 0 17 -6.5t-6 -16.5l-425 -469q-11 -10 -31 -10h-59q-20 0 -31 10zM1052 2440q204 0 388.5 -51.5t338 -154t266 -247.5t175 -341.5t62.5 -425.5t-62.5 -425.5t-175 -341.5
t-266 -247.5t-338 -154t-388.5 -51.5h-735h-53q-8 0 -14.5 6.5t-6.5 14.5v2398q0 8 6.5 14.5t14.5 6.5h87h701zM1042 111q234 0 436 76t351 215.5t234 350t85 467.5t-85 467.5t-234 350t-351 215.5t-436 76h-670v-2218h670z" />
    <glyph glyph-name="dcaron" unicode="&#x10f;" horiz-adv-x="2386" 
d="M2205 2591q42 0 72 -30.5t30 -92.5q0 -65 -19 -145t-68.5 -173.5t-119.5 -156.5q-16 -13 -31 4l-8 9q-12 15 1 29q58 58 94.5 138t36.5 162q0 28 -8 41t-34 27q-48 30 -48 85q0 42 30 72.5t72 30.5zM1824 2560q9 0 15 -6t6 -15v-2518q0 -9 -6 -15t-15 -6h-83q-9 0 -15 6
t-6 15v422q-93 -215 -278.5 -341.5t-426.5 -126.5q-165 0 -315 61t-263 169t-180 268t-67 347t67 347t180 268t263 169t315 61q241 0 426.5 -126.5t278.5 -341.5v1342q0 9 6 15t15 6h83zM1025 86q147 0 278.5 58.5t224.5 157.5t147.5 234t54.5 284t-54.5 284t-147.5 234
t-224.5 157.5t-278.5 58.5q-114 0 -220 -33t-194 -96.5t-153.5 -151.5t-102 -204.5t-36.5 -248.5t36.5 -248.5t102 -204.5t153.5 -151.5t194 -96.5t220 -33z" />
    <glyph glyph-name="Dcroat" unicode="&#x110;" horiz-adv-x="2492" 
d="M1052 2440q204 0 388.5 -51.5t338 -154t266 -247.5t175 -341.5t62.5 -425.5t-62.5 -425.5t-175 -341.5t-266 -247.5t-338 -154t-388.5 -51.5h-735h-53q-8 0 -14.5 6.5t-6.5 14.5v1148h-312q-9 0 -15 6t-6 15v59q0 9 6 15t15 6h312v1149q0 8 6.5 14.5t14.5 6.5h87h701z
M1042 111q234 0 436 76t351 215.5t234 350t85 467.5t-85 467.5t-234 350t-351 215.5t-436 76h-670v-1059h662q9 0 15 -6t6 -15v-59q0 -9 -6 -15t-15 -6h-662v-1058h670z" />
    <glyph glyph-name="dcroat" unicode="&#x111;" horiz-adv-x="2261" 
d="M2191 2130q8 0 14 -6t6 -15v-40q0 -9 -6 -15t-14 -6h-346v-2027q0 -9 -6 -15t-15 -6h-83q-9 0 -15 6t-6 15v422q-93 -215 -278.5 -341.5t-426.5 -126.5q-165 0 -315 61t-263 169t-180 268t-67 347t67 347t180 268t263 169t315 61q241 0 426.5 -126.5t278.5 -341.5v851
h-473q-8 0 -14 6t-6 15v40q0 9 6 15t14 6h473v409q0 9 6 15t15 6h83q9 0 15 -6t6 -15v-409h346zM1025 86q147 0 278.5 58.5t224.5 157.5t147.5 234t54.5 284t-54.5 284t-147.5 234t-224.5 157.5t-278.5 58.5q-114 0 -220 -33t-194 -96.5t-153.5 -151.5t-102 -204.5
t-36.5 -248.5t36.5 -248.5t102 -204.5t153.5 -151.5t194 -96.5t220 -33z" />
    <glyph glyph-name="Emacron" unicode="&#x112;" horiz-adv-x="2124" 
d="M596 2875q-8 0 -14.5 6.5t-6.5 14.5v53q0 8 6.5 14.5t14.5 6.5h978q8 0 14 -6.5t6 -14.5v-53q0 -8 -6 -14.5t-14 -6.5h-978zM1901 111q9 0 15 -6t6 -15v-69q0 -9 -6 -15t-15 -6h-1582h-55q-8 0 -14.5 6.5t-6.5 14.5v2398q0 8 6.5 14.5t14.5 6.5h87h1510q9 0 15 -6t6 -15
v-69q0 -9 -6 -15t-15 -6h-1489v-999h1329q9 0 15 -6t6 -15v-70q0 -20 -21 -20h-1329v-1108h1529z" />
    <glyph glyph-name="emacron" unicode="&#x113;" horiz-adv-x="1939" 
d="M473 2075q-8 0 -14.5 6.5t-6.5 14.5v53q0 8 6.5 14.5t14.5 6.5h978q8 0 14 -6.5t6 -14.5v-53q0 -8 -6 -14.5t-14 -6.5h-978zM1706 444q19 -9 10 -29q-97 -216 -274 -328t-422 -112q-135 0 -259.5 38.5t-228 112.5t-180.5 175.5t-119.5 235t-42.5 283.5q0 187 64 346.5
t173.5 268t258.5 169.5t317 61q163 0 300 -54.5t236 -155.5t154.5 -253.5t55.5 -339.5h-1429q-1 -14 -1 -42q0 -165 56.5 -304t153 -232.5t225 -145.5t271.5 -52q207 0 355 95.5t228 285.5q9 18 29 10zM1003 1558q-169 0 -311.5 -72.5t-239 -209.5t-123.5 -318h1280
q-8 141 -56.5 255t-128.5 189t-187.5 115.5t-233.5 40.5z" />
    <glyph glyph-name="Edotaccent" unicode="&#x116;" horiz-adv-x="2124" 
d="M1085 2823q-43 0 -74 31t-31 74q0 42 31 73t74 31q42 0 73 -31t31 -73q0 -43 -31 -74t-73 -31zM1901 111q9 0 15 -6t6 -15v-69q0 -9 -6 -15t-15 -6h-1582h-55q-8 0 -14.5 6.5t-6.5 14.5v2398q0 8 6.5 14.5t14.5 6.5h87h1510q9 0 15 -6t6 -15v-69q0 -9 -6 -15t-15 -6
h-1489v-999h1329q9 0 15 -6t6 -15v-70q0 -20 -21 -20h-1329v-1108h1529z" />
    <glyph glyph-name="edotaccent" unicode="&#x117;" horiz-adv-x="1939" 
d="M962 2023q-43 0 -74 31t-31 74q0 42 31 73t74 31q42 0 73 -31t31 -73q0 -43 -31 -74t-73 -31zM1706 444q19 -9 10 -29q-97 -216 -274 -328t-422 -112q-135 0 -259.5 38.5t-228 112.5t-180.5 175.5t-119.5 235t-42.5 283.5q0 187 64 346.5t173.5 268t258.5 169.5t317 61
q163 0 300 -54.5t236 -155.5t154.5 -253.5t55.5 -339.5h-1429q-1 -14 -1 -42q0 -165 56.5 -304t153 -232.5t225 -145.5t271.5 -52q207 0 355 95.5t228 285.5q9 18 29 10zM1003 1558q-169 0 -311.5 -72.5t-239 -209.5t-123.5 -318h1280q-8 141 -56.5 255t-128.5 189
t-187.5 115.5t-233.5 40.5z" />
    <glyph glyph-name="Eogonek" unicode="&#x118;" horiz-adv-x="2124" 
d="M1901 111q9 0 15 -6t6 -15v-69q0 -9 -6 -15t-15 -6h-95q-175 -102 -269.5 -225.5t-94.5 -260.5q0 -114 60.5 -180t170.5 -66q108 0 190 39q29 10 29 -15v-39q0 -19 -19 -28q-98 -45 -219 -45q-148 0 -230.5 87t-82.5 227q0 139 89 276t244 230h-1355h-55q-8 0 -14.5 6.5
t-6.5 14.5v2398q0 8 6.5 14.5t14.5 6.5h87h1510q9 0 15 -6t6 -15v-69q0 -9 -6 -15t-15 -6h-1489v-999h1329q9 0 15 -6t6 -15v-70q0 -20 -21 -20h-1329v-1108h1529z" />
    <glyph glyph-name="eogonek" unicode="&#x119;" horiz-adv-x="1939" 
d="M1706 444q19 -9 10 -29q-131 -291 -403 -391q-341 -214 -341 -480q0 -114 60.5 -180t170.5 -66q108 0 190 39q29 10 29 -15v-39q0 -19 -19 -28q-95 -45 -219 -45q-148 0 -230.5 87t-82.5 228q0 121 68.5 242.5t191.5 213.5q-54 -6 -111 -6q-135 0 -259.5 38.5t-228 112.5
t-180.5 175.5t-119.5 235t-42.5 283.5q0 187 64 346.5t173.5 268t258.5 169.5t317 61q163 0 300 -54.5t236 -155.5t154.5 -253.5t55.5 -339.5h-1429q-1 -14 -1 -42q0 -165 56.5 -304t153 -232.5t225 -145.5t271.5 -52q207 0 355 95.5t228 285.5q9 18 29 10zM1003 1558
q-169 0 -311.5 -72.5t-239 -209.5t-123.5 -318h1280q-8 141 -56.5 255t-128.5 189t-187.5 115.5t-233.5 40.5z" />
    <glyph glyph-name="Ecaron" unicode="&#x11a;" horiz-adv-x="2124" 
d="M596 3156q-10 10 -6 16.5t17 6.5h89q17 0 28 -12l358 -399l357 399q11 12 31 12h86q13 0 17 -6.5t-6 -16.5l-425 -469q-11 -10 -31 -10h-59q-20 0 -31 10zM1901 111q9 0 15 -6t6 -15v-69q0 -9 -6 -15t-15 -6h-1582h-55q-8 0 -14.5 6.5t-6.5 14.5v2398q0 8 6.5 14.5
t14.5 6.5h87h1510q9 0 15 -6t6 -15v-69q0 -9 -6 -15t-15 -6h-1489v-999h1329q9 0 15 -6t6 -15v-70q0 -20 -21 -20h-1329v-1108h1529z" />
    <glyph glyph-name="ecaron" unicode="&#x11b;" horiz-adv-x="1939" 
d="M473 2356q-10 10 -6 16.5t17 6.5h89q17 0 28 -12l358 -399l357 399q11 12 31 12h86q13 0 17 -6.5t-6 -16.5l-425 -469q-11 -10 -31 -10h-59q-20 0 -31 10zM1706 444q19 -9 10 -29q-97 -216 -274 -328t-422 -112q-135 0 -259.5 38.5t-228 112.5t-180.5 175.5t-119.5 235
t-42.5 283.5q0 187 64 346.5t173.5 268t258.5 169.5t317 61q163 0 300 -54.5t236 -155.5t154.5 -253.5t55.5 -339.5h-1429q-1 -14 -1 -42q0 -165 56.5 -304t153 -232.5t225 -145.5t271.5 -52q207 0 355 95.5t228 285.5q9 18 29 10zM1003 1558q-169 0 -311.5 -72.5
t-239 -209.5t-123.5 -318h1280q-8 141 -56.5 255t-128.5 189t-187.5 115.5t-233.5 40.5z" />
    <glyph glyph-name="Gbreve" unicode="&#x11e;" horiz-adv-x="2644" 
d="M1385 2670q-129 0 -239 51t-179.5 152.5t-69.5 233.5q0 22 20 22h56q21 0 23 -18q2 -107 60 -185.5t144 -115.5t185 -37q155 0 270 90t119 248q2 18 23 18h55q20 0 20 -22q0 -99 -40.5 -183t-108 -138.5t-155 -85t-183.5 -30.5zM2380 1065q9 0 15 -6t6 -15v-767
q-236 -159 -468 -230.5t-523 -71.5q-159 0 -311 39.5t-285 113t-244 183.5t-191 246t-124.5 306t-44.5 357t44.5 357t124.5 306t191 246t244 183.5t285 113t311 39.5q331 0 563.5 -135t414.5 -427q12 -19 -10 -30l-67 -31q-19 -9 -30 11q-165 262 -372 381.5t-499 119.5
q-218 0 -413 -82t-339.5 -227.5t-229 -359.5t-84.5 -465t84.5 -465t229 -359.5t339.5 -227.5t413 -82q252 0 454.5 55.5t417.5 185.5v717q0 9 6 15t15 6h77z" />
    <glyph glyph-name="gbreve" unicode="&#x11f;" horiz-adv-x="1824" 
d="M915 1870q-129 0 -239 51t-179.5 152.5t-69.5 233.5q0 22 20 22h56q21 0 23 -18q2 -107 60 -185.5t144 -115.5t185 -37q155 0 270 90t119 248q2 18 23 18h55q20 0 20 -22q0 -99 -40.5 -183t-108 -138.5t-155 -85t-183.5 -30.5zM1730 1705q19 0 19 -19v-76q0 -17 -18 -17
q-96 0 -171 -46t-108 -130q110 -145 110 -322q0 -115 -48.5 -219t-133 -181.5t-205.5 -123.5t-260 -46h-208q-192 0 -286 -64t-94 -164q0 -49 17.5 -86t59 -68t118 -47.5t185.5 -16.5h265q366 0 563 -133t197 -367q0 -230 -197 -369.5t-563 -139.5q-365 0 -562 134t-197 356
q0 146 104 257.5t277 173.5q-107 8 -183 33.5t-118.5 66t-61 88.5t-18.5 109q0 118 94 201.5t281 107.5q-151 74 -238.5 207t-87.5 291q0 115 48.5 219.5t133.5 182t207 123t261 45.5q143 0 266 -47t211 -131q47 102 139 160t202 58zM912 626q111 0 209.5 37t167.5 100.5
t109 149.5t40 182q0 95 -40 181t-109 149.5t-167.5 100.5t-209.5 37q-224 0 -374.5 -136.5t-150.5 -331.5q0 -196 150.5 -332.5t374.5 -136.5zM1613 -428q0 185 -166 295.5t-475 110.5q-173 0 -319 -50.5t-233.5 -144.5t-87.5 -211q0 -187 165 -296.5t475 -109.5
q311 0 476 109.5t165 296.5z" />
    <glyph glyph-name="Gdotaccent" unicode="&#x120;" horiz-adv-x="2644" 
d="M1385 2823q-43 0 -74 31t-31 74q0 42 31 73t74 31q42 0 73 -31t31 -73q0 -43 -31 -74t-73 -31zM2380 1065q9 0 15 -6t6 -15v-767q-236 -159 -468 -230.5t-523 -71.5q-159 0 -311 39.5t-285 113t-244 183.5t-191 246t-124.5 306t-44.5 357t44.5 357t124.5 306t191 246
t244 183.5t285 113t311 39.5q331 0 563.5 -135t414.5 -427q12 -19 -10 -30l-67 -31q-19 -9 -30 11q-165 262 -372 381.5t-499 119.5q-218 0 -413 -82t-339.5 -227.5t-229 -359.5t-84.5 -465t84.5 -465t229 -359.5t339.5 -227.5t413 -82q252 0 454.5 55.5t417.5 185.5v717
q0 9 6 15t15 6h77z" />
    <glyph glyph-name="gdotaccent" unicode="&#x121;" horiz-adv-x="1824" 
d="M915 2023q-43 0 -74 31t-31 74q0 42 31 73t74 31q42 0 73 -31t31 -73q0 -43 -31 -74t-73 -31zM1730 1705q19 0 19 -19v-76q0 -17 -18 -17q-96 0 -171 -46t-108 -130q110 -145 110 -322q0 -115 -48.5 -219t-133 -181.5t-205.5 -123.5t-260 -46h-208q-192 0 -286 -64
t-94 -164q0 -49 17.5 -86t59 -68t118 -47.5t185.5 -16.5h265q366 0 563 -133t197 -367q0 -230 -197 -369.5t-563 -139.5q-365 0 -562 134t-197 356q0 146 104 257.5t277 173.5q-107 8 -183 33.5t-118.5 66t-61 88.5t-18.5 109q0 118 94 201.5t281 107.5q-151 74 -238.5 207
t-87.5 291q0 115 48.5 219.5t133.5 182t207 123t261 45.5q143 0 266 -47t211 -131q47 102 139 160t202 58zM912 626q111 0 209.5 37t167.5 100.5t109 149.5t40 182q0 95 -40 181t-109 149.5t-167.5 100.5t-209.5 37q-224 0 -374.5 -136.5t-150.5 -331.5q0 -196 150.5 -332.5
t374.5 -136.5zM1613 -428q0 185 -166 295.5t-475 110.5q-173 0 -319 -50.5t-233.5 -144.5t-87.5 -211q0 -187 165 -296.5t475 -109.5q311 0 476 109.5t165 296.5z" />
    <glyph glyph-name="Gcommaaccent" unicode="&#x122;" horiz-adv-x="2644" 
d="M2380 1065q9 0 15 -6t6 -15v-767q-236 -159 -468 -230.5t-523 -71.5q-159 0 -311 39.5t-285 113t-244 183.5t-191 246t-124.5 306t-44.5 357t44.5 357t124.5 306t191 246t244 183.5t285 113t311 39.5q331 0 563.5 -135t414.5 -427q12 -19 -10 -30l-67 -31q-19 -9 -30 11
q-165 262 -372 381.5t-499 119.5q-218 0 -413 -82t-339.5 -227.5t-229 -359.5t-84.5 -465t84.5 -465t229 -359.5t339.5 -227.5t413 -82q252 0 454.5 55.5t417.5 185.5v717q0 9 6 15t15 6h77zM1311 -270q42 0 72 -30.5t30 -92.5q0 -65 -19 -145t-68.5 -173.5t-119.5 -156.5
q-16 -13 -31 4l-8 9q-12 15 1 29q58 58 94.5 138t36.5 162q0 28 -8 41t-34 27q-48 30 -48 85q0 42 30 72.5t72 30.5z" />
    <glyph glyph-name="gcommaaccent" unicode="&#x123;" horiz-adv-x="1784" 
d="M956 2014q-42 0 -72 30.5t-30 92.5q0 65 19 145t68.5 173.5t119.5 156.5q16 13 31 -4l8 -9q12 -15 -1 -29q-58 -58 -94.5 -138t-36.5 -162q0 -28 8 -41t34 -27q48 -30 48 -85q0 -42 -30 -72.5t-72 -30.5zM1730 1705q19 0 19 -19v-76q0 -17 -18 -17q-96 0 -171 -46
t-108 -130q110 -145 110 -322q0 -115 -48.5 -219t-133 -181.5t-205.5 -123.5t-260 -46h-208q-192 0 -286 -64t-94 -164q0 -49 17.5 -86t59 -68t118 -47.5t185.5 -16.5h265q366 0 563 -133t197 -367q0 -230 -197 -369.5t-563 -139.5q-365 0 -562 134t-197 356
q0 146 104 257.5t277 173.5q-107 8 -183 33.5t-118.5 66t-61 88.5t-18.5 109q0 118 94 201.5t281 107.5q-151 74 -238.5 207t-87.5 291q0 115 48.5 219.5t133.5 182t207 123t261 45.5q143 0 266 -47t211 -131q47 102 139 160t202 58zM912 626q111 0 209.5 37t167.5 100.5
t109 149.5t40 182q0 95 -40 181t-109 149.5t-167.5 100.5t-209.5 37q-224 0 -374.5 -136.5t-150.5 -331.5q0 -196 150.5 -332.5t374.5 -136.5zM1613 -428q0 185 -166 295.5t-475 110.5q-173 0 -319 -50.5t-233.5 -144.5t-87.5 -211q0 -187 165 -296.5t475 -109.5
q311 0 476 109.5t165 296.5z" />
    <glyph glyph-name="Hbar" unicode="&#x126;" horiz-adv-x="2549" 
d="M2528 1955q9 0 15 -6t6 -15v-60q0 -9 -6 -15t-15 -6h-254v-1832q0 -8 -6.5 -14.5t-14.5 -6.5h-87q-8 0 -14.5 6.5t-6.5 14.5v1198h-1741v-1198q0 -8 -6.5 -14.5t-14.5 -6.5h-87q-8 0 -14.5 6.5t-6.5 14.5v1832h-254q-9 0 -15 6t-6 15v60q0 9 6 15t15 6h254v464
q0 8 6.5 14.5t14.5 6.5h87q8 0 14.5 -6.5t6.5 -14.5v-464h1741v464q0 8 6.5 14.5t14.5 6.5h87q8 0 14.5 -6.5t6.5 -14.5v-464h254zM2145 1330v523h-1741v-523h1741z" />
    <glyph glyph-name="hbar" unicode="&#x127;" horiz-adv-x="2137" 
d="M1279 1680q158 0 277 -49t192.5 -140.5t109.5 -214.5t36 -277v-978q0 -9 -6 -15t-15 -6h-82q-9 0 -15 6t-6 15v939q0 293 -127 450.5t-393 157.5q-174 0 -328 -79.5t-254 -213.5t-126 -293v-961q0 -9 -6 -15t-15 -6h-83q-8 0 -14 6t-6 15v2027h-347q-9 0 -15 6t-6 15v40
q0 9 6 15t15 6h347v409q0 9 6 15t14 6h83q9 0 15 -6t6 -15v-409h472q9 0 15 -6t6 -15v-40q0 -9 -6 -15t-15 -6h-472v-833q29 63 74 125t113.5 124.5t148.5 109.5t184.5 76.5t216.5 29.5z" />
    <glyph glyph-name="Imacron" unicode="&#x12a;" horiz-adv-x="614" 
d="M-203 2949q0 8 6.5 14.5t14.5 6.5h978q8 0 14 -6.5t6 -14.5v-53q0 -8 -6 -14.5t-14 -6.5h-978q-8 0 -14.5 6.5t-6.5 14.5v53zM243 2419q0 8 6 14.5t14 6.5h88q8 0 14.5 -6.5t6.5 -14.5v-2398q0 -8 -6.5 -14.5t-14.5 -6.5h-88q-8 0 -14 6.5t-6 14.5v2398z" />
    <glyph glyph-name="imacron" unicode="&#x12b;" horiz-adv-x="594" 
d="M-212 2149q0 8 6.5 14.5t14.5 6.5h978q8 0 14 -6.5t6 -14.5v-53q0 -8 -6 -14.5t-14 -6.5h-978q-8 0 -14.5 6.5t-6.5 14.5v53zM235 1619q0 9 6 15t15 6h82q9 0 15 -6t6 -15v-1598q0 -9 -6 -15t-15 -6h-82q-9 0 -15 6t-6 15v1598z" />
    <glyph glyph-name="Iogonek" unicode="&#x12e;" horiz-adv-x="614" 
d="M384 -693q29 10 29 -15v-39q0 -19 -19 -28q-98 -45 -219 -45q-148 0 -230.5 87t-82.5 227q0 150 102.5 295.5t278.5 237.5v2392q0 8 6 14.5t14 6.5h88q8 0 14.5 -6.5t6.5 -14.5v-2398q0 -8 -6.5 -14.5t-14.5 -6.5h-24q-175 -102 -269.5 -225.5t-94.5 -260.5
q0 -114 60.5 -180t170.5 -66q108 0 190 39z" />
    <glyph glyph-name="iogonek" unicode="&#x12f;" horiz-adv-x="594" 
d="M298 2023q-43 0 -74 31t-31 74q0 42 31 73t74 31q42 0 73 -31t31 -73q0 -43 -31 -74t-73 -31zM377 -693q29 10 29 -15v-39q0 -19 -19 -28q-98 -45 -219 -45q-148 0 -230.5 87t-82.5 227q0 150 102 295.5t278 236.5v1593q0 9 6 15t15 6h82q9 0 15 -6t6 -15v-1598
q0 -9 -6 -15t-15 -6h-18q-175 -102 -269.5 -225.5t-94.5 -260.5q0 -114 60.5 -180t170.5 -66q108 0 190 39z" />
    <glyph glyph-name="Idotaccent" unicode="&#x130;" horiz-adv-x="614" 
d="M307 2823q-43 0 -74 31t-31 74q0 42 31 73t74 31q42 0 73 -31t31 -73q0 -43 -31 -74t-73 -31zM243 2419q0 8 6 14.5t14 6.5h88q8 0 14.5 -6.5t6.5 -14.5v-2398q0 -8 -6.5 -14.5t-14.5 -6.5h-88q-8 0 -14 6.5t-6 14.5v2398z" />
    <glyph glyph-name="dotlessi" unicode="&#x131;" horiz-adv-x="594" 
d="M235 1619q0 9 6 15t15 6h82q9 0 15 -6t6 -15v-1598q0 -9 -6 -15t-15 -6h-82q-9 0 -15 6t-6 15v1598z" />
    <glyph glyph-name="Kcommaaccent" unicode="&#x136;" horiz-adv-x="2236" 
d="M351 2440q8 0 14.5 -6.5t6.5 -14.5v-2398q0 -8 -6.5 -14.5t-14.5 -6.5h-87q-8 0 -14.5 6.5t-6.5 14.5v2398q0 8 6.5 14.5t14.5 6.5h87zM2069 27q10 -11 6.5 -19t-18.5 -8h-110q-20 0 -33 14l-1197 1226l1194 1186q13 14 33 14h103q13 0 16 -7.5t-7 -19.5l-1176 -1168z
M1063 -270q42 0 72 -30.5t30 -92.5q0 -65 -19 -145t-68.5 -173.5t-119.5 -156.5q-16 -13 -31 4l-8 9q-12 15 1 29q58 58 94.5 138t36.5 162q0 28 -8 41t-34 27q-48 30 -48 85q0 42 30 72.5t72 30.5z" />
    <glyph glyph-name="kcommaaccent" unicode="&#x137;" horiz-adv-x="1684" 
d="M243 2539q0 9 6 15t14 6h83q9 0 15 -6t6 -15v-2518q0 -9 -6 -15t-15 -6h-83q-8 0 -14 6t-6 15v2518zM1454 0q-17 0 -31 15l-848 885l804 729q11 11 28 11h104q12 0 15.5 -7.5t-4.5 -16.5l-788 -711l833 -878q10 -12 6.5 -19.5t-17.5 -7.5h-102zM804 -270q42 0 72 -30.5
t30 -92.5q0 -65 -19 -145t-68.5 -173.5t-119.5 -156.5q-16 -13 -31 4l-8 9q-12 15 1 29q58 58 94.5 138t36.5 162q0 28 -8 41t-34 27q-48 30 -48 85q0 42 30 72.5t72 30.5z" />
    <glyph glyph-name="Lacute" unicode="&#x139;" horiz-adv-x="1922" 
d="M835 3161q12 -18 -6 -29l-588 -445q-17 -12 -30 6l-28 42q-11 16 6 30l577 461q17 12 30 -5zM1798 111q9 0 15 -6t6 -15v-69q0 -9 -6 -15t-15 -6h-1479h-55q-8 0 -14.5 6.5t-6.5 14.5v2398q0 8 6.5 14.5t14.5 6.5h87q8 0 14.5 -6.5t6.5 -14.5v-2308h1426z" />
    <glyph glyph-name="lacute" unicode="&#x13a;" horiz-adv-x="609" 
d="M239 2717q-17 -12 -30 6l-28 42q-11 16 6 30l577 461q17 12 30 -5l39 -60q12 -18 -6 -29zM243 2539q0 9 6 15t14 6h83q9 0 15 -6t6 -15v-2518q0 -9 -6 -15t-15 -6h-83q-8 0 -14 6t-6 15v2518z" />
    <glyph glyph-name="Lcommaaccent" unicode="&#x13b;" horiz-adv-x="1922" 
d="M1798 111q9 0 15 -6t6 -15v-69q0 -9 -6 -15t-15 -6h-1479h-55q-8 0 -14.5 6.5t-6.5 14.5v2398q0 8 6.5 14.5t14.5 6.5h87q8 0 14.5 -6.5t6.5 -14.5v-2308h1426zM978 -270q42 0 72 -30.5t30 -92.5q0 -65 -19 -145t-68.5 -173.5t-119.5 -156.5q-16 -13 -31 4l-8 9
q-12 15 1 29q58 58 94.5 138t36.5 162q0 28 -8 41t-34 27q-48 30 -48 85q0 42 30 72.5t72 30.5z" />
    <glyph glyph-name="lcommaaccent" unicode="&#x13c;" horiz-adv-x="609" 
d="M243 2539q0 9 6 15t14 6h83q9 0 15 -6t6 -15v-2518q0 -9 -6 -15t-15 -6h-83q-8 0 -14 6t-6 15v2518zM266 -270q42 0 72 -30.5t30 -92.5q0 -65 -19 -145t-68.5 -173.5t-119.5 -156.5q-16 -13 -31 4l-8 9q-12 15 1 29q58 58 94.5 138t36.5 162q0 28 -8 41t-34 27
q-48 30 -48 85q0 42 30 72.5t72 30.5z" />
    <glyph glyph-name="Lcaron" unicode="&#x13d;" horiz-adv-x="1922" 
d="M1340 1997l-8 9q-12 15 1 29q58 58 94.5 138t36.5 162q0 28 -8 41t-34 27q-48 30 -48 85q0 42 30 72.5t72 30.5t72 -30.5t30 -92.5q0 -65 -19 -145t-68.5 -173.5t-119.5 -156.5q-16 -13 -31 4zM1798 111q9 0 15 -6t6 -15v-69q0 -9 -6 -15t-15 -6h-1479h-55
q-8 0 -14.5 6.5t-6.5 14.5v2398q0 8 6.5 14.5t14.5 6.5h87q8 0 14.5 -6.5t6.5 -14.5v-2308h1426z" />
    <glyph glyph-name="lcaron" unicode="&#x13e;" horiz-adv-x="827" 
d="M690 2591q42 0 72 -30.5t30 -92.5q0 -65 -19 -145t-68.5 -173.5t-119.5 -156.5q-16 -13 -31 4l-8 9q-12 15 1 29q58 58 94.5 138t36.5 162q0 28 -8 41t-34 27q-48 30 -48 85q0 42 30 72.5t72 30.5zM243 2539q0 9 6 15t14 6h83q9 0 15 -6t6 -15v-2518q0 -9 -6 -15t-15 -6
h-83q-8 0 -14 6t-6 15v2518z" />
    <glyph glyph-name="Lslash" unicode="&#x141;" horiz-adv-x="2155" 
d="M2031 111q9 0 15 -6t6 -15v-69q0 -9 -6 -15t-15 -6h-1479h-55q-8 0 -14.5 6.5t-6.5 14.5v994l-418 -239q-18 -8 -28 9l-28 54q-9 18 10 28l464 265v1287q0 8 6.5 14.5t14.5 6.5h87q8 0 14.5 -6.5t6.5 -14.5v-1213l919 525q19 10 28 -8l28 -54q9 -19 -9 -28l-966 -552
v-978h1426z" />
    <glyph glyph-name="lslash" unicode="&#x142;" horiz-adv-x="900" 
d="M880 1457q8 -19 -9 -28l-349 -198v-1210q0 -9 -6 -15t-15 -6h-83q-8 0 -14 6t-6 15v1140l-303 -172q-19 -9 -28 9l-27 53q-9 18 9 28l349 198v1262q0 9 6 15t14 6h83q9 0 15 -6t6 -15v-1192l303 172q20 10 28 -9z" />
    <glyph glyph-name="Nacute" unicode="&#x143;" horiz-adv-x="2524" 
d="M1236 2687q-17 -12 -30 6l-28 42q-11 16 6 30l577 461q17 12 30 -5l39 -60q12 -18 -6 -29zM2261 2440q9 0 15 -6t6 -15v-2438q0 -9 -6 -15t-15 -6h-7q-19 0 -30 12l-1852 2239v-2190q0 -9 -6 -15t-15 -6h-88q-8 0 -14 6t-6 15v2438q0 9 6 15t14 6h7q19 0 30 -12
l1853 -2239v2190q0 9 6 15t15 6h87z" />
    <glyph glyph-name="nacute" unicode="&#x144;" 
d="M930 1893l-28 42q-11 16 6 30l577 461q17 12 30 -5l39 -60q12 -18 -6 -29l-588 -445q-17 -12 -30 6zM1112 1680q158 0 277 -49t192.5 -140.5t109.5 -214.5t36 -277v-978q0 -9 -6 -15t-15 -6h-82q-9 0 -15 6t-6 15v939q0 293 -127 450.5t-393 157.5q-191 0 -357 -95
t-262.5 -253t-96.5 -337v-862q0 -9 -6 -15t-15 -6h-82q-9 0 -15 6t-6 15v1598q0 9 6 15t15 6h82q9 0 15 -6t6 -15v-422q26 63 70.5 127t113 129t150 115t189 81t222.5 31z" />
    <glyph glyph-name="Ncommaaccent" unicode="&#x145;" horiz-adv-x="2524" 
d="M2261 2440q9 0 15 -6t6 -15v-2438q0 -9 -6 -15t-15 -6h-7q-19 0 -30 12l-1852 2239v-2190q0 -9 -6 -15t-15 -6h-88q-8 0 -14 6t-6 15v2438q0 9 6 15t14 6h7q19 0 30 -12l1853 -2239v2190q0 9 6 15t15 6h87zM1263 -270q42 0 72 -30.5t30 -92.5q0 -65 -19 -145
t-68.5 -173.5t-119.5 -156.5q-16 -13 -31 4l-8 9q-12 15 1 29q58 58 94.5 138t36.5 162q0 28 -8 41t-34 27q-48 30 -48 85q0 42 30 72.5t72 30.5z" />
    <glyph glyph-name="ncommaaccent" unicode="&#x146;" 
d="M1112 1680q158 0 277 -49t192.5 -140.5t109.5 -214.5t36 -277v-978q0 -9 -6 -15t-15 -6h-82q-9 0 -15 6t-6 15v939q0 293 -127 450.5t-393 157.5q-191 0 -357 -95t-262.5 -253t-96.5 -337v-862q0 -9 -6 -15t-15 -6h-82q-9 0 -15 6t-6 15v1598q0 9 6 15t15 6h82q9 0 15 -6
t6 -15v-422q26 63 70.5 127t113 129t150 115t189 81t222.5 31zM947 -270q42 0 72 -30.5t30 -92.5q0 -65 -19 -145t-68.5 -173.5t-119.5 -156.5q-16 -13 -31 4l-8 9q-12 15 1 29q58 58 94.5 138t36.5 162q0 28 -8 41t-34 27q-48 30 -48 85q0 42 30 72.5t72 30.5z" />
    <glyph glyph-name="Ncaron" unicode="&#x147;" horiz-adv-x="2524" 
d="M1656 3167q11 12 31 12h86q13 0 17 -6.5t-6 -16.5l-425 -469q-11 -10 -31 -10h-59q-20 0 -31 10l-425 469q-10 10 -6 16.5t17 6.5h89q17 0 28 -12l358 -399zM2261 2440q9 0 15 -6t6 -15v-2438q0 -9 -6 -15t-15 -6h-7q-19 0 -30 12l-1852 2239v-2190q0 -9 -6 -15t-15 -6
h-88q-8 0 -14 6t-6 15v2438q0 9 6 15t14 6h7q19 0 30 -12l1853 -2239v2190q0 9 6 15t15 6h87z" />
    <glyph glyph-name="ncaron" unicode="&#x148;" 
d="M537 2356q-10 10 -6 16.5t17 6.5h89q17 0 28 -12l358 -399l357 399q11 12 31 12h86q13 0 17 -6.5t-6 -16.5l-425 -469q-11 -10 -31 -10h-59q-20 0 -31 10zM1112 1680q158 0 277 -49t192.5 -140.5t109.5 -214.5t36 -277v-978q0 -9 -6 -15t-15 -6h-82q-9 0 -15 6t-6 15v939
q0 293 -127 450.5t-393 157.5q-191 0 -357 -95t-262.5 -253t-96.5 -337v-862q0 -9 -6 -15t-15 -6h-82q-9 0 -15 6t-6 15v1598q0 9 6 15t15 6h82q9 0 15 -6t6 -15v-422q26 63 70.5 127t113 129t150 115t189 81t222.5 31z" />
    <glyph glyph-name="Eng" unicode="&#x14a;" horiz-adv-x="2524" 
d="M2261 2440q9 0 15 -6t6 -15v-2696q0 -609 -455 -609q-9 0 -15 5.5t-6 14.5v60q0 19 20 21q181 5 256.5 131.5t75.5 376.5v329l-1786 2159v-2190q0 -9 -6 -15t-15 -6h-88q-8 0 -14 6t-6 15v2438q0 9 6 15t14 6h7q18 0 28 -10l1855 -2241v2190q0 9 6 15t15 6h87z" />
    <glyph glyph-name="eng" unicode="&#x14b;" 
d="M1112 1680q158 0 277 -49t192.5 -140.5t109.5 -214.5t36 -277v-1276q0 -609 -454 -609q-9 0 -15.5 5.5t-6.5 14.5v60q0 19 20 21q181 5 256.5 131.5t75.5 376.5v1237q0 608 -521 608q-191 0 -356.5 -95t-262 -253t-96.5 -337v-862q0 -9 -6 -15t-15 -6h-82q-9 0 -15 6
t-6 15v1598q0 9 6 15t15 6h82q9 0 15 -6t6 -15v-422q26 63 70 127t113 129t150.5 115t189 81t222.5 31z" />
    <glyph glyph-name="Omacron" unicode="&#x14c;" horiz-adv-x="2820" 
d="M900 2949q0 8 6.5 14.5t14.5 6.5h978q8 0 14 -6.5t6 -14.5v-53q0 -8 -6 -14.5t-14 -6.5h-978q-8 0 -14.5 6.5t-6.5 14.5v53zM1410 2465q159 0 311 -39.5t285 -113t244 -183.5t191 -246t124.5 -306t44.5 -357t-44.5 -357t-124.5 -306t-191 -246t-244 -183.5t-285 -113
t-311 -39.5t-311 39.5t-285 113t-244 183.5t-191 246t-124.5 306t-44.5 357t44.5 357t124.5 306t191 246t244 183.5t285 113t311 39.5zM1410 86q218 0 413 82t339.5 227.5t229 359.5t84.5 465t-84.5 465t-229 359.5t-339.5 227.5t-413 82t-413 -82t-339.5 -227.5
t-229 -359.5t-84.5 -465t84.5 -465t229 -359.5t339.5 -227.5t413 -82z" />
    <glyph glyph-name="omacron" unicode="&#x14d;" horiz-adv-x="2049" 
d="M515 2149q0 8 6.5 14.5t14.5 6.5h978q8 0 14 -6.5t6 -14.5v-53q0 -8 -6 -14.5t-14 -6.5h-978q-8 0 -14.5 6.5t-6.5 14.5v53zM1025 1665q169 0 321 -61t265.5 -169t180.5 -268t67 -347t-67 -347t-180.5 -268t-265.5 -169t-321 -61t-321 61t-266 169t-181 268t-67 347
t67 347t181 268t266 169t321 61zM1025 86q143 0 271 52t224.5 145.5t153 232.5t56.5 304q0 164 -56.5 303t-153 232.5t-224.5 145.5t-271 52t-271.5 -52t-225 -145.5t-153 -232.5t-56.5 -303q0 -165 56.5 -304t153 -232.5t225 -145.5t271.5 -52z" />
    <glyph glyph-name="Ohungarumlaut" unicode="&#x150;" horiz-adv-x="2820" 
d="M1165 2692q-9 -18 -29 -7l-44 25q-17 9 -8 29l314 668q10 18 29 9l61 -36q19 -11 8 -29zM1653 2687q-17 -12 -30 6l-28 42q-11 16 6 30l577 461q17 12 30 -5l39 -60q12 -18 -6 -29zM1410 2465q159 0 311 -39.5t285 -113t244 -183.5t191 -246t124.5 -306t44.5 -357
t-44.5 -357t-124.5 -306t-191 -246t-244 -183.5t-285 -113t-311 -39.5t-311 39.5t-285 113t-244 183.5t-191 246t-124.5 306t-44.5 357t44.5 357t124.5 306t191 246t244 183.5t285 113t311 39.5zM1410 86q218 0 413 82t339.5 227.5t229 359.5t84.5 465t-84.5 465t-229 359.5
t-339.5 227.5t-413 82t-413 -82t-339.5 -227.5t-229 -359.5t-84.5 -465t84.5 -465t229 -359.5t339.5 -227.5t413 -82z" />
    <glyph glyph-name="ohungarumlaut" unicode="&#x151;" horiz-adv-x="2049" 
d="M780 1892q-9 -18 -29 -7l-44 25q-17 9 -8 29l314 668q10 18 29 9l61 -36q19 -11 8 -29zM1268 1887q-17 -12 -30 6l-28 42q-11 16 6 30l577 461q17 12 30 -5l39 -60q12 -18 -6 -29zM1025 1665q169 0 321 -61t265.5 -169t180.5 -268t67 -347t-67 -347t-180.5 -268
t-265.5 -169t-321 -61t-321 61t-266 169t-181 268t-67 347t67 347t181 268t266 169t321 61zM1025 86q143 0 271 52t224.5 145.5t153 232.5t56.5 304q0 164 -56.5 303t-153 232.5t-224.5 145.5t-271 52t-271.5 -52t-225 -145.5t-153 -232.5t-56.5 -303q0 -165 56.5 -304
t153 -232.5t225 -145.5t271.5 -52z" />
    <glyph glyph-name="OE" unicode="&#x152;" horiz-adv-x="3802" 
d="M3629 111q9 0 15 -6t6 -15v-69q0 -9 -6 -15t-15 -6h-1990q-113 -21 -229 -21q-159 0 -311 39.5t-285 113t-244 183.5t-191 246t-124.5 306t-44.5 357t44.5 357t124.5 306t191 246t244 183.5t285 113t311 39.5q137 0 268 -29h1911q9 0 15 -6t6 -15v-69q0 -9 -6 -15t-15 -6
h-1610q262 -141 426.5 -399t187.5 -600h836q9 0 15 -6t6 -15v-70q0 -20 -21 -20h-832q-1 -193 -47.5 -367t-131 -313t-199 -247t-255.5 -181h1665zM344 1224q0 -251 84.5 -465t229 -359.5t339.5 -227.5t413 -82t413 82t339.5 227.5t229 359.5t84.5 465t-84.5 465t-229 359.5
t-339.5 227.5t-413 82t-413 -82t-339.5 -227.5t-229 -359.5t-84.5 -465z" />
    <glyph glyph-name="oe" unicode="&#x153;" horiz-adv-x="3488" 
d="M3254 444q19 -9 10 -29q-97 -216 -274 -328t-422 -112q-260 0 -469 137.5t-301 374.5q-93 -237 -303 -374.5t-470 -137.5q-169 0 -321 61t-266 169t-181 268t-67 347t67 347t181 268t266 169t321 61q259 0 468.5 -137t303.5 -372q90 236 293 372.5t461 136.5
q163 0 300 -54.5t236 -155.5t154.5 -253.5t55.5 -339.5h-1429q-1 -14 -1 -42q0 -165 56.5 -304t153 -232.5t225 -145.5t271.5 -52q207 0 355 95.5t228 285.5q9 18 29 10zM2551 1558q-169 0 -311.5 -72.5t-239 -209.5t-123.5 -318h1280q-8 141 -56.5 255t-128.5 189
t-187.5 115.5t-233.5 40.5zM1025 86q143 0 271 52t224.5 145.5t153 232.5t56.5 304q0 164 -56.5 303t-153 232.5t-224.5 145.5t-271 52t-271.5 -52t-225 -145.5t-153 -232.5t-56.5 -303q0 -165 56.5 -304t153 -232.5t225 -145.5t271.5 -52z" />
    <glyph glyph-name="Racute" unicode="&#x154;" horiz-adv-x="2164" 
d="M938 2693l-28 42q-11 16 6 30l577 461q17 12 30 -5l39 -60q12 -18 -6 -29l-588 -445q-17 -12 -30 6zM1962 42q9 -14 2.5 -28t-24.5 -14h-86q-13 0 -23 15l-654 989q-49 -4 -115 -4h-690v-979q0 -8 -6.5 -14.5t-14.5 -6.5h-87q-8 0 -14.5 6.5t-6.5 14.5v2398q0 8 6.5 14.5
t14.5 6.5h87h711q185 0 336 -38t254.5 -104t174 -157.5t103 -196.5t32.5 -224q0 -127 -38.5 -239t-116 -206t-204 -160.5t-291.5 -94.5zM1042 1112q168 0 302.5 32t224 87.5t148.5 134t85 166t26 188.5t-26 189t-85 166t-148.5 133.5t-224 88t-302.5 32.5h-670v-1217h670z
" />
    <glyph glyph-name="racute" unicode="&#x155;" horiz-adv-x="1097" 
d="M1082 2361q12 -18 -6 -29l-588 -445q-17 -12 -30 6l-28 42q-11 16 6 30l577 461q17 12 30 -5zM965 1679q22 0 22 -21v-89q0 -17 -21 -20q-78 -3 -163 -38.5t-162 -98t-138.5 -142t-98.5 -179.5t-37 -202v-868q0 -9 -6 -15t-15 -6h-82q-9 0 -15 6t-6 15v1598q0 9 6 15
t15 6h82q9 0 15 -6t6 -15v-451q34 119 131.5 238t225.5 196t241 77z" />
    <glyph glyph-name="Rcommaaccent" unicode="&#x156;" horiz-adv-x="2164" 
d="M1962 42q9 -14 2.5 -28t-24.5 -14h-86q-13 0 -23 15l-654 989q-49 -4 -115 -4h-690v-979q0 -8 -6.5 -14.5t-14.5 -6.5h-87q-8 0 -14.5 6.5t-6.5 14.5v2398q0 8 6.5 14.5t14.5 6.5h87h711q185 0 336 -38t254.5 -104t174 -157.5t103 -196.5t32.5 -224q0 -127 -38.5 -239
t-116 -206t-204 -160.5t-291.5 -94.5zM1042 1112q168 0 302.5 32t224 87.5t148.5 134t85 166t26 188.5t-26 189t-85 166t-148.5 133.5t-224 88t-302.5 32.5h-670v-1217h670zM995 -270q42 0 72 -30.5t30 -92.5q0 -65 -19 -145t-68.5 -173.5t-119.5 -156.5q-16 -13 -31 4l-8 9
q-12 15 1 29q58 58 94.5 138t36.5 162q0 28 -8 41t-34 27q-48 30 -48 85q0 42 30 72.5t72 30.5z" />
    <glyph glyph-name="rcommaaccent" unicode="&#x157;" horiz-adv-x="1097" 
d="M965 1679q22 0 22 -21v-89q0 -17 -21 -20q-78 -3 -163 -38.5t-162 -98t-138.5 -142t-98.5 -179.5t-37 -202v-868q0 -9 -6 -15t-15 -6h-82q-9 0 -15 6t-6 15v1598q0 9 6 15t15 6h82q9 0 15 -6t6 -15v-451q34 119 131.5 238t225.5 196t241 77zM269 -264q42 0 72 -30.5
t30 -92.5q0 -65 -19 -145t-68.5 -173.5t-119.5 -156.5q-16 -13 -31 4l-8 9q-12 15 1 29q58 58 94.5 138t36.5 162q0 28 -8 41t-34 27q-48 30 -48 85q0 42 30 72.5t72 30.5z" />
    <glyph glyph-name="Rcaron" unicode="&#x158;" horiz-adv-x="2164" 
d="M545 3156q-10 10 -6 16.5t17 6.5h89q17 0 28 -12l358 -399l357 399q11 12 31 12h86q13 0 17 -6.5t-6 -16.5l-425 -469q-11 -10 -31 -10h-59q-20 0 -31 10zM1962 42q9 -14 2.5 -28t-24.5 -14h-86q-13 0 -23 15l-654 989q-49 -4 -115 -4h-690v-979q0 -8 -6.5 -14.5
t-14.5 -6.5h-87q-8 0 -14.5 6.5t-6.5 14.5v2398q0 8 6.5 14.5t14.5 6.5h87h711q185 0 336 -38t254.5 -104t174 -157.5t103 -196.5t32.5 -224q0 -127 -38.5 -239t-116 -206t-204 -160.5t-291.5 -94.5zM1042 1112q168 0 302.5 32t224 87.5t148.5 134t85 166t26 188.5t-26 189
t-85 166t-148.5 133.5t-224 88t-302.5 32.5h-670v-1217h670z" />
    <glyph glyph-name="rcaron" unicode="&#x159;" horiz-adv-x="1097" 
d="M1025 2379q13 0 17 -6.5t-6 -16.5l-425 -469q-11 -10 -31 -10h-59q-20 0 -31 10l-425 469q-10 10 -6 16.5t17 6.5h89q17 0 28 -12l358 -399l357 399q11 12 31 12h86zM965 1679q22 0 22 -21v-89q0 -17 -21 -20q-78 -3 -163 -38.5t-162 -98t-138.5 -142t-98.5 -179.5
t-37 -202v-868q0 -9 -6 -15t-15 -6h-82q-9 0 -15 6t-6 15v1598q0 9 6 15t15 6h82q9 0 15 -6t6 -15v-451q34 119 131.5 238t225.5 196t241 77z" />
    <glyph glyph-name="Sacute" unicode="&#x15a;" horiz-adv-x="2176" 
d="M1042 2687q-17 -12 -30 6l-28 42q-11 16 6 30l577 461q17 12 30 -5l39 -60q12 -18 -6 -29zM406 1832q0 -233 204 -360q127 -79 398 -147q42 -10 128 -30q280 -67 405 -115q265 -103 362 -280q63 -117 63 -274q0 -137 -48.5 -248t-131 -185t-196 -124t-239.5 -72t-265 -22
q-254 0 -460 71t-399 201q-24 15 -14 35l30 61q13 21 34 7l90 -55.5t91 -51.5t103 -51t108 -41.5t125.5 -35t136.5 -20.5t158 -9q121 0 228 17.5t202.5 57t164 99t108.5 149t40 201.5q0 65 -14.5 122t-35.5 101t-62.5 84.5t-76 68t-97 56t-104.5 45.5t-119 38.5t-120.5 32.5
t-128.5 31q-88 21 -132.5 32t-125.5 34t-125.5 41t-110 49t-102.5 61.5t-81 74.5t-66.5 92.5t-38 111.5t-15.5 135q0 291 222 468t619 177q129 0 244.5 -18.5t211.5 -53t165 -68t147 -80.5q20 -12 10 -33l-32 -65q-10 -21 -35 -5q-148 94 -317.5 154t-386.5 60
q-176 0 -314 -39t-226 -109t-133.5 -165.5t-45.5 -210.5z" />
    <glyph glyph-name="sacute" unicode="&#x15b;" horiz-adv-x="1619" 
d="M735 1887q-17 -12 -30 6l-28 42q-11 16 6 30l577 461q17 12 30 -5l39 -60q12 -18 -6 -29zM363 1232q0 -77 36.5 -134.5t98 -92.5t141.5 -61.5t168.5 -47.5t177 -43.5t168.5 -57t141.5 -81t98 -122t36.5 -173.5t-36.5 -176t-96 -127t-140.5 -82t-164.5 -46t-173.5 -13
q-328 0 -615 184q-18 12 -10 29l28 59q9 22 30 11q142 -88 277 -132.5t290 -44.5q70 0 133.5 8t129 30.5t112.5 58t77 94t30 134.5q0 83 -36.5 145t-97.5 100.5t-141 67t-167.5 50t-175.5 44t-168 55t-141 76t-97.5 114t-36.5 163.5q0 206 161 325t422 119
q152 0 282.5 -43.5t266.5 -128.5q18 -12 10 -30l-28 -60q-9 -20 -28 -9q-129 83 -249.5 123.5t-255.5 40.5q-207 0 -332 -88t-125 -238z" />
    <glyph glyph-name="Scedilla" unicode="&#x15e;" horiz-adv-x="2176" 
d="M1966 626q0 -136 -47.5 -246t-128.5 -184t-193 -124t-235.5 -73t-261.5 -24l-87 -244q90 28 175 22t151 -35t106 -92t40 -149q0 -134 -95.5 -215.5t-240.5 -81.5q-175 0 -319 84q-18 13 -9 30l13 27q9 19 30 10q74 -37 137.5 -55.5t143.5 -18.5q108 0 174 58.5t66 157.5
q0 73 -36 122.5t-99 69.5t-145.5 16.5t-177.5 -32.5q-16 -4 -21 2t1 22l109 303q-230 10 -419.5 80t-369.5 191q-24 15 -14 35l30 61q13 21 34 7l90 -55.5t91 -51.5t103 -51t108 -41.5t125.5 -35t136.5 -20.5t158 -9q121 0 228 17.5t202.5 57t164 99t108.5 149t40 201.5
q0 65 -14.5 122t-35.5 101t-62.5 84.5t-76 68t-97 56t-104.5 45.5t-119 38.5t-120.5 32.5t-128.5 31q-88 21 -132.5 32t-125.5 34t-125.5 41t-110 49t-102.5 61.5t-81 74.5t-66.5 92.5t-38 111.5t-15.5 135q0 291 222 468t619 177q129 0 244.5 -18.5t211.5 -53t165 -68
t147 -80.5q20 -12 10 -33l-32 -65q-10 -21 -35 -5q-148 94 -317.5 154t-386.5 60q-176 0 -314 -39t-226 -109t-133.5 -165.5t-45.5 -210.5q0 -233 204 -360q127 -79 398 -147q42 -10 128 -30q280 -67 405 -115q265 -103 362 -280q63 -117 63 -274z" />
    <glyph glyph-name="scedilla" unicode="&#x15f;" horiz-adv-x="1619" 
d="M1429 419q0 -96 -35.5 -173t-93 -126t-136.5 -82.5t-160.5 -47.5t-170.5 -15l-87 -244q90 28 175 22t151 -35t106 -92t40 -149q0 -134 -95.5 -215.5t-240.5 -81.5q-175 0 -319 84q-18 13 -9 30l13 27q9 19 30 10q74 -37 137.5 -55.5t143.5 -18.5q108 0 174 58.5t66 157.5
q0 73 -36 122.5t-99 69.5t-145.5 16.5t-177.5 -32.5q-16 -4 -21 2t1 22l109 304q-289 17 -546 182q-18 12 -10 29l28 59q9 22 30 11q142 -88 277 -132.5t290 -44.5q70 0 133.5 8t129 30.5t112.5 58t77 94t30 134.5q0 83 -36.5 145t-97.5 100.5t-141 67t-167.5 50t-175.5 44
t-168 55t-141 76t-97.5 114t-36.5 163.5q0 206 161 325t422 119q152 0 282.5 -43.5t266.5 -128.5q18 -12 10 -30l-28 -60q-9 -20 -28 -9q-129 83 -249.5 123.5t-255.5 40.5q-207 0 -332 -88t-125 -238q0 -77 36.5 -134.5t98 -92.5t141.5 -61.5t168.5 -47.5t177 -43.5
t168.5 -57t141.5 -81t98 -122t36.5 -173.5z" />
    <glyph glyph-name="Scaron" unicode="&#x160;" horiz-adv-x="2176" 
d="M1462 3167q11 12 31 12h86q13 0 17 -6.5t-6 -16.5l-425 -469q-11 -10 -31 -10h-59q-20 0 -31 10l-425 469q-10 10 -6 16.5t17 6.5h89q17 0 28 -12l358 -399zM406 1832q0 -233 204 -360q127 -79 398 -147q42 -10 128 -30q280 -67 405 -115q265 -103 362 -280
q63 -117 63 -274q0 -137 -48.5 -248t-131 -185t-196 -124t-239.5 -72t-265 -22q-254 0 -460 71t-399 201q-24 15 -14 35l30 61q13 21 34 7l90 -55.5t91 -51.5t103 -51t108 -41.5t125.5 -35t136.5 -20.5t158 -9q121 0 228 17.5t202.5 57t164 99t108.5 149t40 201.5
q0 65 -14.5 122t-35.5 101t-62.5 84.5t-76 68t-97 56t-104.5 45.5t-119 38.5t-120.5 32.5t-128.5 31q-88 21 -132.5 32t-125.5 34t-125.5 41t-110 49t-102.5 61.5t-81 74.5t-66.5 92.5t-38 111.5t-15.5 135q0 291 222 468t619 177q129 0 244.5 -18.5t211.5 -53t165 -68
t147 -80.5q20 -12 10 -33l-32 -65q-10 -21 -35 -5q-148 94 -317.5 154t-386.5 60q-176 0 -314 -39t-226 -109t-133.5 -165.5t-45.5 -210.5z" />
    <glyph glyph-name="scaron" unicode="&#x161;" horiz-adv-x="1619" 
d="M1155 2367q11 12 31 12h86q13 0 17 -6.5t-6 -16.5l-425 -469q-11 -10 -31 -10h-59q-20 0 -31 10l-425 469q-10 10 -6 16.5t17 6.5h89q17 0 28 -12l358 -399zM363 1232q0 -77 36.5 -134.5t98 -92.5t141.5 -61.5t168.5 -47.5t177 -43.5t168.5 -57t141.5 -81t98 -122
t36.5 -173.5t-36.5 -176t-96 -127t-140.5 -82t-164.5 -46t-173.5 -13q-328 0 -615 184q-18 12 -10 29l28 59q9 22 30 11q142 -88 277 -132.5t290 -44.5q70 0 133.5 8t129 30.5t112.5 58t77 94t30 134.5q0 83 -36.5 145t-97.5 100.5t-141 67t-167.5 50t-175.5 44t-168 55
t-141 76t-97.5 114t-36.5 163.5q0 206 161 325t422 119q152 0 282.5 -43.5t266.5 -128.5q18 -12 10 -30l-28 -60q-9 -20 -28 -9q-129 83 -249.5 123.5t-255.5 40.5q-207 0 -332 -88t-125 -238z" />
    <glyph glyph-name="uni0162" unicode="&#x162;" horiz-adv-x="2375" 
d="M2171 2440q8 0 14.5 -6.5t6.5 -14.5v-69q0 -8 -6.5 -14.5t-14.5 -6.5h-919v-2308q0 -8 -6.5 -14.5t-14.5 -6.5h-3l-96 -269q90 28 175 22t151 -35t106 -92t40 -149q0 -134 -95.5 -215.5t-240.5 -81.5q-175 0 -319 84q-18 13 -9 30l13 27q9 19 30 10q74 -37 137.5 -55.5
t143.5 -18.5q108 0 174 58.5t66 157.5q0 73 -36 122.5t-99 69.5t-145.5 16.5t-177.5 -32.5q-16 -4 -21 2t1 22l117 327q-20 2 -20 21v2308h-920q-8 0 -14 6.5t-6 14.5v69q0 8 6 14.5t14 6.5h1028h940z" />
    <glyph glyph-name="uni0163" unicode="&#x163;" horiz-adv-x="1478" 
d="M1321 157q11 -18 -10 -35q-183 -143 -391 -147l-87 -244q90 28 175 22t151 -35t106 -92t40 -149q0 -134 -95.5 -215.5t-240.5 -81.5q-175 0 -319 84q-18 13 -9 30l13 27q9 19 30 10q74 -37 137.5 -55.5t143.5 -18.5q108 0 174 58.5t66 157.5q0 73 -36 122.5t-99 69.5
t-145.5 16.5t-177.5 -32.5q-16 -4 -21 2t1 22l109 306q-88 10 -156 46t-110.5 89t-70 125t-38.5 147.5t-11 163.5v978h-329q-9 0 -15 6t-6 15v70q0 9 6 15t15 6h329v396q0 16 21 22l79 23q24 7 24 -16v-425h701q9 0 15 -6t6 -15v-70q0 -9 -6 -15t-15 -6h-701v-968
q0 -474 347 -474q191 0 340 131q21 14 33 -6z" />
    <glyph glyph-name="Tcaron" unicode="&#x164;" horiz-adv-x="2375" 
d="M698 3156q-10 10 -6 16.5t17 6.5h89q17 0 28 -12l358 -399l357 399q11 12 31 12h86q13 0 17 -6.5t-6 -16.5l-425 -469q-11 -10 -31 -10h-59q-20 0 -31 10zM2171 2440q8 0 14.5 -6.5t6.5 -14.5v-69q0 -8 -6.5 -14.5t-14.5 -6.5h-919v-2308q0 -8 -6.5 -14.5t-14.5 -6.5h-87
q-8 0 -14.5 6.5t-6.5 14.5v2308h-920q-8 0 -14 6.5t-6 14.5v69q0 8 6 14.5t14 6.5h1028h940z" />
    <glyph glyph-name="tcaron" unicode="&#x165;" horiz-adv-x="1614" 
d="M1467 2591q42 0 72 -30.5t30 -92.5q0 -65 -19 -145t-68.5 -173.5t-119.5 -156.5q-16 -13 -31 4l-8 9q-12 15 1 29q58 58 94.5 138t36.5 162q0 28 -8 41t-34 27q-48 30 -48 85q0 42 30 72.5t72 30.5zM1294 211l27 -54q11 -18 -10 -35q-187 -147 -404 -147
q-105 0 -185.5 31.5t-131 84t-83 128t-45 156t-12.5 175.5v978h-329q-9 0 -15 6t-6 15v70q0 9 6 15t15 6h329v396q0 16 21 22l79 23q24 7 24 -16v-425h701q9 0 15 -6t6 -15v-70q0 -9 -6 -15t-15 -6h-701v-968q0 -474 347 -474q191 0 340 131q21 14 33 -6z" />
    <glyph glyph-name="Tbar" unicode="&#x166;" horiz-adv-x="2275" 
d="M2171 2440q8 0 14.5 -6.5t6.5 -14.5v-69q0 -8 -6.5 -14.5t-14.5 -6.5h-919v-769h436q9 0 15 -6t6 -15v-59q0 -9 -6 -15t-15 -6h-436v-1438q0 -8 -6.5 -14.5t-14.5 -6.5h-87q-8 0 -14.5 6.5t-6.5 14.5v1438h-538q-9 0 -15 6t-6 15v59q0 9 6 15t15 6h538v769h-920
q-8 0 -14 6.5t-6 14.5v69q0 8 6 14.5t14 6.5h1028h940z" />
    <glyph glyph-name="tbar" unicode="&#x167;" horiz-adv-x="1478" 
d="M1321 157q11 -18 -10 -35q-187 -147 -404 -147q-105 0 -185.5 31.5t-131 84t-83 128t-45 156t-12.5 175.5v468h-326q-9 0 -15 6t-6 15v40q0 9 6 15t15 6h326v428h-329q-9 0 -15 6t-6 15v70q0 9 6 15t15 6h329v396q0 16 21 22l79 23q24 7 24 -16v-425h701q9 0 15 -6t6 -15
v-70q0 -9 -6 -15t-15 -6h-701v-428h493q9 0 15 -6t6 -15v-40q0 -9 -6 -15t-15 -6h-493v-458q0 -474 347 -474q191 0 340 131q21 14 33 -6z" />
    <glyph glyph-name="Umacron" unicode="&#x16a;" horiz-adv-x="2444" 
d="M733 2875q-8 0 -14.5 6.5t-6.5 14.5v53q0 8 6.5 14.5t14.5 6.5h978q8 0 14 -6.5t6 -14.5v-53q0 -8 -6 -14.5t-14 -6.5h-978zM2181 2440q8 0 14.5 -6.5t6.5 -14.5v-1409q0 -504 -260.5 -777t-719.5 -273t-719 273t-260 777v1409q0 8 6 14.5t14 6.5h88q8 0 14.5 -6.5
t6.5 -14.5v-1389q0 -459 217 -709t633 -250t633.5 250t217.5 709v1389q0 8 6.5 14.5t14.5 6.5h87z" />
    <glyph glyph-name="umacron" unicode="&#x16b;" 
d="M497 2075q-8 0 -14.5 6.5t-6.5 14.5v53q0 8 6.5 14.5t14.5 6.5h978q8 0 14 -6.5t6 -14.5v-53q0 -8 -6 -14.5t-14 -6.5h-978zM1706 1640q9 0 15 -6t6 -15v-1598q0 -9 -6 -15t-15 -6h-82q-9 0 -15 6t-6 15v422q-26 -63 -70.5 -127t-113 -129t-150 -115t-189 -81t-222.5 -31
q-158 0 -277 49t-192.5 140.5t-109.5 214.5t-36 277v978q0 9 6 15t15 6h82q9 0 15 -6t6 -15v-939q0 -293 127 -450.5t393 -157.5q191 0 357 95t262.5 253t96.5 337v862q0 9 6 15t15 6h82z" />
    <glyph glyph-name="Uring" unicode="&#x16e;" horiz-adv-x="2444" 
d="M1222 2617q-156 0 -267 109t-111 265t111 267t267 111t267 -111t111 -267t-111 -265t-267 -109zM1222 3294q-126 0 -211.5 -88t-85.5 -215q0 -124 85.5 -211t211.5 -87t211.5 87t85.5 211q0 127 -85.5 215t-211.5 88zM2181 2440q8 0 14.5 -6.5t6.5 -14.5v-1409
q0 -504 -260.5 -777t-719.5 -273t-719 273t-260 777v1409q0 8 6 14.5t14 6.5h88q8 0 14.5 -6.5t6.5 -14.5v-1389q0 -459 217 -709t633 -250t633.5 250t217.5 709v1389q0 8 6.5 14.5t14.5 6.5h87z" />
    <glyph glyph-name="uring" unicode="&#x16f;" 
d="M986 1817q-156 0 -267 109t-111 265t111 267t267 111t267 -111t111 -267t-111 -265t-267 -109zM986 2494q-126 0 -211.5 -88t-85.5 -215q0 -124 85.5 -211t211.5 -87t211.5 87t85.5 211q0 127 -85.5 215t-211.5 88zM1706 1640q9 0 15 -6t6 -15v-1598q0 -9 -6 -15t-15 -6
h-82q-9 0 -15 6t-6 15v422q-26 -63 -70.5 -127t-113 -129t-150 -115t-189 -81t-222.5 -31q-158 0 -277 49t-192.5 140.5t-109.5 214.5t-36 277v978q0 9 6 15t15 6h82q9 0 15 -6t6 -15v-939q0 -293 127 -450.5t393 -157.5q191 0 357 95t262.5 253t96.5 337v862q0 9 6 15t15 6
h82z" />
    <glyph glyph-name="Uhungarumlaut" unicode="&#x170;" horiz-adv-x="2444" 
d="M904 2710q-17 9 -8 29l314 668q10 18 29 9l61 -36q19 -11 8 -29l-331 -659q-9 -18 -29 -7zM1435 2693l-28 42q-11 16 6 30l577 461q17 12 30 -5l39 -60q12 -18 -6 -29l-588 -445q-17 -12 -30 6zM2181 2440q8 0 14.5 -6.5t6.5 -14.5v-1409q0 -504 -260.5 -777t-719.5 -273
t-719 273t-260 777v1409q0 8 6 14.5t14 6.5h88q8 0 14.5 -6.5t6.5 -14.5v-1389q0 -459 217 -709t633 -250t633.5 250t217.5 709v1389q0 8 6.5 14.5t14.5 6.5h87z" />
    <glyph glyph-name="uhungarumlaut" unicode="&#x171;" 
d="M668 1910q-17 9 -8 29l314 668q10 18 29 9l61 -36q19 -11 8 -29l-331 -659q-9 -18 -29 -7zM1823 2361q12 -18 -6 -29l-588 -445q-17 -12 -30 6l-28 42q-11 16 6 30l577 461q17 12 30 -5zM1706 1640q9 0 15 -6t6 -15v-1598q0 -9 -6 -15t-15 -6h-82q-9 0 -15 6t-6 15v422
q-26 -63 -70.5 -127t-113 -129t-150 -115t-189 -81t-222.5 -31q-158 0 -277 49t-192.5 140.5t-109.5 214.5t-36 277v978q0 9 6 15t15 6h82q9 0 15 -6t6 -15v-939q0 -293 127 -450.5t393 -157.5q191 0 357 95t262.5 253t96.5 337v862q0 9 6 15t15 6h82z" />
    <glyph glyph-name="Uogonek" unicode="&#x172;" horiz-adv-x="2444" 
d="M2181 2440q8 0 14.5 -6.5t6.5 -14.5v-1409q0 -423 -185 -685t-522 -337q-166 -100 -255.5 -220.5t-89.5 -253.5q0 -114 60.5 -180t170.5 -66q108 0 190 39q29 10 29 -15v-39q0 -19 -19 -28q-98 -45 -219 -45q-148 0 -230.5 87t-82.5 227q0 126 73.5 251t204.5 219
q-45 -4 -105 -4q-459 0 -719 273t-260 777v1409q0 8 6 14.5t14 6.5h88q8 0 14.5 -6.5t6.5 -14.5v-1389q0 -459 217 -709t633 -250t633.5 250t217.5 709v1389q0 8 6.5 14.5t14.5 6.5h87z" />
    <glyph glyph-name="uogonek" unicode="&#x173;" 
d="M1749 -693q29 10 29 -15v-39q0 -19 -19 -28q-98 -45 -219 -45q-148 0 -230.5 87t-82.5 227q0 148 101 293t275 237v419q-26 -63 -70.5 -127t-113 -129t-150 -115t-189 -81t-222.5 -31q-158 0 -277 49t-192.5 140.5t-109.5 214.5t-36 277v978q0 9 6 15t15 6h82q9 0 15 -6
t6 -15v-939q0 -293 127 -450.5t393 -157.5q191 0 357 95t262.5 253t96.5 337v862q0 9 6 15t15 6h82q9 0 15 -6t6 -15v-1598q0 -9 -6 -15t-15 -6h-14q-175 -102 -269.5 -225.5t-94.5 -260.5q0 -114 60.5 -180t170.5 -66q108 0 190 39z" />
    <glyph glyph-name="Wcircumflex" unicode="&#x174;" horiz-adv-x="3257" 
d="M1152 2680q-13 0 -17 6t6 17l425 469q11 10 31 10h59q20 0 31 -10l425 -469q10 -11 6 -17t-17 -6h-86q-20 0 -31 12l-357 399l-358 -399q-11 -12 -28 -12h-89zM3148 2440q26 0 18 -24l-779 -2439q-7 -17 -25 -17h-31q-17 0 -25 17l-688 2090l-685 -2090q-7 -17 -25 -17
h-31q-19 0 -24 17l-782 2438q-8 25 18 25h94q20 0 25 -17l692 -2225l679 2095q7 17 25 17h28q18 0 25 -17l687 -2095l686 2226q5 16 25 16h93z" />
    <glyph glyph-name="wcircumflex" unicode="&#x175;" horiz-adv-x="2621" 
d="M834 1880q-13 0 -17 6t6 17l425 469q11 10 31 10h59q20 0 31 -10l425 -469q10 -11 6 -17t-17 -6h-86q-20 0 -31 12l-357 399l-358 -399q-11 -12 -28 -12h-89zM2549 1640q14 0 19 -11.5t-1 -25.5l-609 -1633q-5 -10 -17 -10h-15q-12 0 -17 10l-598 1275l-599 -1275
q-5 -10 -16 -10h-15q-12 0 -17 10l-610 1633q-6 13 -1 25t20 12h85q16 0 24 -18l521 -1434l580 1244q7 18 20 18h16q13 0 20 -18l579 -1244l523 1434q8 18 24 18h84z" />
    <glyph glyph-name="Ycircumflex" unicode="&#x176;" horiz-adv-x="2272" 
d="M658 2680q-13 0 -17 6t6 17l425 469q11 10 31 10h59q20 0 31 -10l425 -469q10 -11 6 -17t-17 -6h-86q-20 0 -31 12l-357 399l-358 -399q-11 -12 -28 -12h-89zM2161 2440q12 0 18.5 -6.5t-0.5 -17.5l-981 -1533v-862q0 -8 -6.5 -14.5t-14.5 -6.5h-87q-8 0 -14.5 6.5
t-6.5 14.5v857l-996 1538q-6 12 -0.5 18t17.5 6h102q15 0 26 -17l917 -1425l907 1425q11 17 27 17h92z" />
    <glyph glyph-name="ycircumflex" unicode="&#x177;" horiz-adv-x="1653" 
d="M349 1880q-13 0 -17 6t6 17l425 469q11 10 31 10h59q20 0 31 -10l425 -469q10 -11 6 -17t-17 -6h-86q-20 0 -31 12l-357 399l-358 -399q-11 -12 -28 -12h-89zM1579 1640q15 0 21 -12t-2 -27l-719 -1609q-69 -162 -126 -281.5t-119 -227t-121 -178.5t-125 -124t-138.5 -77
t-155.5 -24q-23 0 -23 20v62q0 20 20 21q186 5 339 201.5t357 670.5l-732 1546q-8 15 -2.5 27t21.5 12h86q16 0 24 -17l660 -1437l633 1437q8 17 25 17h77z" />
    <glyph glyph-name="Ydieresis" unicode="&#x178;" horiz-adv-x="2272" 
d="M803 2823q-42 0 -73 31t-31 73q0 41 31 72t73 31q41 0 72 -31t31 -72q0 -42 -31 -73t-72 -31zM1473 2823q-42 0 -73 31t-31 73q0 41 31 72t73 31q41 0 72 -31t31 -72q0 -42 -31 -73t-72 -31zM2161 2440q12 0 18.5 -6.5t-0.5 -17.5l-981 -1533v-862q0 -8 -6.5 -14.5
t-14.5 -6.5h-87q-8 0 -14.5 6.5t-6.5 14.5v857l-996 1538q-6 12 -0.5 18t17.5 6h102q15 0 26 -17l917 -1425l907 1425q11 17 27 17h92z" />
    <glyph glyph-name="Zacute" unicode="&#x179;" horiz-adv-x="2302" 
d="M1092 2687q-17 -12 -30 6l-28 42q-11 16 6 30l577 461q17 12 30 -5l39 -60q12 -18 -6 -29zM173 0q-8 0 -14 6t-6 15v27q0 17 9 27l1727 2254h-1646q-8 0 -14.5 6.5t-6.5 14.5v69q0 8 6.5 14.5t14.5 6.5h1818q9 0 15 -6t6 -15v-27q0 -15 -9 -27l-1728 -2254h1746
q8 0 14.5 -6.5t6.5 -14.5v-69q0 -8 -6.5 -14.5t-14.5 -6.5h-1918z" />
    <glyph glyph-name="zacute" unicode="&#x17a;" horiz-adv-x="1824" 
d="M841 1887q-17 -12 -30 6l-28 42q-11 16 6 30l577 461q17 12 30 -5l39 -60q12 -18 -6 -29zM173 0q-8 0 -14 5.5t-6 13.5v11q0 15 9 27l1215 1471h-1134q-8 0 -14.5 6.5t-6.5 14.5v70q0 8 6.5 14.5t14.5 6.5h1318q21 0 21 -18v-12q0 -15 -9 -27l-1217 -1472h1225
q8 0 14.5 -6.5t6.5 -14.5v-69q0 -8 -6.5 -14.5t-14.5 -6.5h-1408z" />
    <glyph glyph-name="Zdotaccent" unicode="&#x17b;" horiz-adv-x="2302" 
d="M1158 2823q-43 0 -74 31t-31 74q0 42 31 73t74 31q42 0 73 -31t31 -73q0 -43 -31 -74t-73 -31zM173 0q-8 0 -14 6t-6 15v27q0 17 9 27l1727 2254h-1646q-8 0 -14.5 6.5t-6.5 14.5v69q0 8 6.5 14.5t14.5 6.5h1818q9 0 15 -6t6 -15v-27q0 -15 -9 -27l-1728 -2254h1746
q8 0 14.5 -6.5t6.5 -14.5v-69q0 -8 -6.5 -14.5t-14.5 -6.5h-1918z" />
    <glyph glyph-name="zdotaccent" unicode="&#x17c;" horiz-adv-x="1824" 
d="M907 2023q-43 0 -74 31t-31 74q0 42 31 73t74 31q42 0 73 -31t31 -73q0 -43 -31 -74t-73 -31zM173 0q-8 0 -14 5.5t-6 13.5v11q0 15 9 27l1215 1471h-1134q-8 0 -14.5 6.5t-6.5 14.5v70q0 8 6.5 14.5t14.5 6.5h1318q21 0 21 -18v-12q0 -15 -9 -27l-1217 -1472h1225
q8 0 14.5 -6.5t6.5 -14.5v-69q0 -8 -6.5 -14.5t-14.5 -6.5h-1408z" />
    <glyph glyph-name="Zcaron" unicode="&#x17d;" horiz-adv-x="2302" 
d="M1512 3167q11 12 31 12h86q13 0 17 -6.5t-6 -16.5l-425 -469q-11 -10 -31 -10h-59q-20 0 -31 10l-425 469q-10 10 -6 16.5t17 6.5h89q17 0 28 -12l358 -399zM173 0q-8 0 -14 6t-6 15v27q0 17 9 27l1727 2254h-1646q-8 0 -14.5 6.5t-6.5 14.5v69q0 8 6.5 14.5t14.5 6.5
h1818q9 0 15 -6t6 -15v-27q0 -15 -9 -27l-1728 -2254h1746q8 0 14.5 -6.5t6.5 -14.5v-69q0 -8 -6.5 -14.5t-14.5 -6.5h-1918z" />
    <glyph glyph-name="zcaron" unicode="&#x17e;" horiz-adv-x="1824" 
d="M1261 2367q11 12 31 12h86q13 0 17 -6.5t-6 -16.5l-425 -469q-11 -10 -31 -10h-59q-20 0 -31 10l-425 469q-10 10 -6 16.5t17 6.5h89q17 0 28 -12l358 -399zM173 0q-8 0 -14 5.5t-6 13.5v11q0 15 9 27l1215 1471h-1134q-8 0 -14.5 6.5t-6.5 14.5v70q0 8 6.5 14.5
t14.5 6.5h1318q21 0 21 -18v-12q0 -15 -9 -27l-1217 -1472h1225q8 0 14.5 -6.5t6.5 -14.5v-69q0 -8 -6.5 -14.5t-14.5 -6.5h-1408z" />
    <glyph glyph-name="Scommaaccent" unicode="&#x218;" horiz-adv-x="2176" 
d="M406 1832q0 -233 204 -360q127 -79 398 -147q42 -10 128 -30q280 -67 405 -115q265 -103 362 -280q63 -117 63 -274q0 -137 -48.5 -248t-131 -185t-196 -124t-239.5 -72t-265 -22q-254 0 -460 71t-399 201q-24 15 -14 35l30 61q13 21 34 7l90 -55.5t91 -51.5t103 -51
t108 -41.5t125.5 -35t136.5 -20.5t158 -9q121 0 228 17.5t202.5 57t164 99t108.5 149t40 201.5q0 65 -14.5 122t-35.5 101t-62.5 84.5t-76 68t-97 56t-104.5 45.5t-119 38.5t-120.5 32.5t-128.5 31q-88 21 -132.5 32t-125.5 34t-125.5 41t-110 49t-102.5 61.5t-81 74.5
t-66.5 92.5t-38 111.5t-15.5 135q0 291 222 468t619 177q129 0 244.5 -18.5t211.5 -53t165 -68t147 -80.5q20 -12 10 -33l-32 -65q-10 -21 -35 -5q-148 94 -317.5 154t-386.5 60q-176 0 -314 -39t-226 -109t-133.5 -165.5t-45.5 -210.5zM1029 -270q42 0 72 -30.5t30 -92.5
q0 -65 -19 -145t-68.5 -173.5t-119.5 -156.5q-16 -13 -31 4l-8 9q-12 15 1 29q58 58 94.5 138t36.5 162q0 28 -8 41t-34 27q-48 30 -48 85q0 42 30 72.5t72 30.5z" />
    <glyph glyph-name="scommaaccent" unicode="&#x219;" horiz-adv-x="1619" 
d="M363 1232q0 -77 36.5 -134.5t98 -92.5t141.5 -61.5t168.5 -47.5t177 -43.5t168.5 -57t141.5 -81t98 -122t36.5 -173.5t-36.5 -176t-96 -127t-140.5 -82t-164.5 -46t-173.5 -13q-328 0 -615 184q-18 12 -10 29l28 59q9 22 30 11q142 -88 277 -132.5t290 -44.5
q70 0 133.5 8t129 30.5t112.5 58t77 94t30 134.5q0 83 -36.5 145t-97.5 100.5t-141 67t-167.5 50t-175.5 44t-168 55t-141 76t-97.5 114t-36.5 163.5q0 206 161 325t422 119q152 0 282.5 -43.5t266.5 -128.5q18 -12 10 -30l-28 -60q-9 -20 -28 -9q-129 83 -249.5 123.5
t-255.5 40.5q-207 0 -332 -88t-125 -238zM762 -270q42 0 72 -30.5t30 -92.5q0 -65 -19 -145t-68.5 -173.5t-119.5 -156.5q-16 -13 -31 4l-8 9q-12 15 1 29q58 58 94.5 138t36.5 162q0 28 -8 41t-34 27q-48 30 -48 85q0 42 30 72.5t72 30.5z" />
    <glyph glyph-name="uni021A" unicode="&#x21a;" horiz-adv-x="2375" 
d="M2171 2440q8 0 14.5 -6.5t6.5 -14.5v-69q0 -8 -6.5 -14.5t-14.5 -6.5h-919v-2308q0 -8 -6.5 -14.5t-14.5 -6.5h-87q-8 0 -14.5 6.5t-6.5 14.5v2308h-920q-8 0 -14 6.5t-6 14.5v69q0 8 6 14.5t14 6.5h1028h940zM1148 -270q42 0 72 -30.5t30 -92.5q0 -65 -19 -145
t-68.5 -173.5t-119.5 -156.5q-16 -13 -31 4l-8 9q-12 15 1 29q58 58 94.5 138t36.5 162q0 28 -8 41t-34 27q-48 30 -48 85q0 42 30 72.5t72 30.5z" />
    <glyph glyph-name="uni021B" unicode="&#x21b;" horiz-adv-x="1478" 
d="M1321 157q11 -18 -10 -35q-187 -147 -404 -147q-105 0 -185.5 31.5t-131 84t-83 128t-45 156t-12.5 175.5v978h-329q-9 0 -15 6t-6 15v70q0 9 6 15t15 6h329v396q0 16 21 22l79 23q24 7 24 -16v-425h701q9 0 15 -6t6 -15v-70q0 -9 -6 -15t-15 -6h-701v-968
q0 -474 347 -474q191 0 340 131q21 14 33 -6zM849 -270q42 0 72 -30.5t30 -92.5q0 -65 -19 -145t-68.5 -173.5t-119.5 -156.5q-16 -13 -31 4l-8 9q-12 15 1 29q58 58 94.5 138t36.5 162q0 28 -8 41t-34 27q-48 30 -48 85q0 42 30 72.5t72 30.5z" />
    <glyph glyph-name="circumflex" unicode="&#x2c6;" horiz-adv-x="987" 
d="M851 1892l-357 399l-358 -399q-11 -12 -28 -12h-89q-13 0 -17 6t6 17l425 469q11 10 31 10h59q20 0 31 -10l425 -469q10 -11 6 -17t-17 -6h-86q-20 0 -31 12z" />
    <glyph glyph-name="caron" unicode="&#x2c7;" horiz-adv-x="987" 
d="M851 2367q11 12 31 12h86q13 0 17 -6.5t-6 -16.5l-425 -469q-11 -10 -31 -10h-59q-20 0 -31 10l-425 469q-10 10 -6 16.5t17 6.5h89q17 0 28 -12l358 -399z" />
    <glyph glyph-name="breve" unicode="&#x2d8;" horiz-adv-x="2400" 
d="M1017 2329q20 0 20 -22q0 -99 -40.5 -183t-108 -138.5t-155 -85t-183.5 -30.5q-129 0 -239 51t-179.5 152.5t-69.5 233.5q0 22 20 22h56q21 0 23 -18q2 -107 60 -185.5t144 -115.5t185 -37q155 0 270 90t119 248q2 18 23 18h55z" />
    <glyph glyph-name="dotaccent" unicode="&#x2d9;" horiz-adv-x="679" 
d="M340 2023q-43 0 -74 31t-31 74q0 42 31 73t74 31q42 0 73 -31t31 -73q0 -43 -31 -74t-73 -31z" />
    <glyph glyph-name="ring" unicode="&#x2da;" horiz-adv-x="820" 
d="M410 1817q-156 0 -267 109t-111 265t111 267t267 111t267 -111t111 -267t-111 -265t-267 -109zM410 1893q126 0 211.5 87t85.5 211q0 127 -85.5 215t-211.5 88t-211.5 -88t-85.5 -215q0 -124 85.5 -211t211.5 -87z" />
    <glyph glyph-name="ogonek" unicode="&#x2db;" horiz-adv-x="1009" 
d="M346 -820q-148 0 -230.5 87t-82.5 227q0 152 104.5 299t284.5 238l78 -30q-175 -102 -270.5 -226t-95.5 -261q0 -114 60.5 -180t170.5 -66q108 0 190 39q29 10 29 -15v-39q0 -19 -19 -28q-98 -45 -219 -45z" />
    <glyph glyph-name="tilde" unicode="&#x2dc;" horiz-adv-x="1364" 
d="M1089 2320q9 0 15 -9t5 -24q-6 -180 -88 -269t-210 -89q-51 0 -95 16.5t-76 42.5t-61 57.5t-56 63.5t-55 58t-64.5 42.5t-78.5 16.5q-103 0 -160.5 -70.5t-58.5 -206.5q-2 -20 -22 -20h-36q-9 0 -15 6t-5 15q4 187 85 278.5t212 91.5q51 0 95 -16.5t76 -42.5t61 -57.5
t56.5 -63t55.5 -57.5t64.5 -42.5t77.5 -16.5q103 0 161 70t59 205q2 21 21 21h37z" />
    <glyph glyph-name="hungarumlaut" unicode="&#x2dd;" horiz-adv-x="1340" 
d="M212 1892q-9 -18 -29 -7l-44 25q-17 9 -8 29l314 668q10 18 29 9l61 -36q19 -11 8 -29zM700 1887q-17 -12 -30 6l-28 42q-11 16 6 30l577 461q17 12 30 -5l39 -60q12 -18 -6 -29z" />
    <glyph glyph-name="uni0326" unicode="&#x326;" horiz-adv-x="0" 
d="M-693 -270q42 0 72 -30.5t30 -92.5q0 -65 -19 -145t-68.5 -173.5t-119.5 -156.5q-16 -13 -31 4l-8 9q-12 15 1 29q58 58 94.5 138t36.5 162q0 28 -8 41t-34 27q-48 30 -48 85q0 42 30 72.5t72 30.5z" />
    <glyph glyph-name="uni0335" unicode="&#x335;" horiz-adv-x="0" 
 />
    <glyph glyph-name="uni0336" unicode="&#x336;" horiz-adv-x="0" 
d="M-2059 1233q-9 0 -15 6t-6 15v59q0 9 6 15t15 6h1103q9 0 15 -6t6 -15v-59q0 -9 -6 -15t-15 -6h-1103z" />
    <glyph glyph-name="uni0337" unicode="&#x337;" horiz-adv-x="0" 
 />
    <glyph glyph-name="Wgrave" unicode="&#x1e80;" horiz-adv-x="3257" 
d="M1095 3132q-18 11 -6 29l39 60q13 17 30 5l577 -461q17 -14 6 -30l-28 -42q-13 -18 -30 -6zM3148 2440q26 0 18 -24l-779 -2439q-7 -17 -25 -17h-31q-17 0 -25 17l-688 2090l-685 -2090q-7 -17 -25 -17h-31q-19 0 -24 17l-782 2438q-8 25 18 25h94q20 0 25 -17l692 -2225
l679 2095q7 17 25 17h28q18 0 25 -17l687 -2095l686 2226q5 16 25 16h93z" />
    <glyph glyph-name="wgrave" unicode="&#x1e81;" horiz-adv-x="2621" 
d="M777 2332q-18 11 -6 29l39 60q13 17 30 5l577 -461q17 -14 6 -30l-28 -42q-13 -18 -30 -6zM2549 1640q14 0 19 -11.5t-1 -25.5l-609 -1633q-5 -10 -17 -10h-15q-12 0 -17 10l-598 1275l-599 -1275q-5 -10 -16 -10h-15q-12 0 -17 10l-610 1633q-6 13 -1 25t20 12h85
q16 0 24 -18l521 -1434l580 1244q7 18 20 18h16q13 0 20 -18l579 -1244l523 1434q8 18 24 18h84z" />
    <glyph glyph-name="Wacute" unicode="&#x1e82;" horiz-adv-x="3257" 
d="M1534 2693l-28 42q-11 16 6 30l577 461q17 12 30 -5l39 -60q12 -18 -6 -29l-588 -445q-17 -12 -30 6zM3148 2440q26 0 18 -24l-779 -2439q-7 -17 -25 -17h-31q-17 0 -25 17l-688 2090l-685 -2090q-7 -17 -25 -17h-31q-19 0 -24 17l-782 2438q-8 25 18 25h94q20 0 25 -17
l692 -2225l679 2095q7 17 25 17h28q18 0 25 -17l687 -2095l686 2226q5 16 25 16h93z" />
    <glyph glyph-name="wacute" unicode="&#x1e83;" horiz-adv-x="2621" 
d="M1216 1893l-28 42q-11 16 6 30l577 461q17 12 30 -5l39 -60q12 -18 -6 -29l-588 -445q-17 -12 -30 6zM2549 1640q14 0 19 -11.5t-1 -25.5l-609 -1633q-5 -10 -17 -10h-15q-12 0 -17 10l-598 1275l-599 -1275q-5 -10 -16 -10h-15q-12 0 -17 10l-610 1633q-6 13 -1 25
t20 12h85q16 0 24 -18l521 -1434l580 1244q7 18 20 18h16q13 0 20 -18l579 -1244l523 1434q8 18 24 18h84z" />
    <glyph glyph-name="Wdieresis" unicode="&#x1e84;" horiz-adv-x="3257" 
d="M1297 2823q-42 0 -73 31t-31 73q0 41 31 72t73 31q41 0 72 -31t31 -72q0 -42 -31 -73t-72 -31zM1967 2823q-42 0 -73 31t-31 73q0 41 31 72t73 31q41 0 72 -31t31 -72q0 -42 -31 -73t-72 -31zM3148 2440q26 0 18 -24l-779 -2439q-7 -17 -25 -17h-31q-17 0 -25 17
l-688 2090l-685 -2090q-7 -17 -25 -17h-31q-19 0 -24 17l-782 2438q-8 25 18 25h94q20 0 25 -17l692 -2225l679 2095q7 17 25 17h28q18 0 25 -17l687 -2095l686 2226q5 16 25 16h93z" />
    <glyph glyph-name="wdieresis" unicode="&#x1e85;" horiz-adv-x="2621" 
d="M979 2023q-42 0 -73 31t-31 73q0 41 31 72t73 31q41 0 72 -31t31 -72q0 -42 -31 -73t-72 -31zM1649 2023q-42 0 -73 31t-31 73q0 41 31 72t73 31q41 0 72 -31t31 -72q0 -42 -31 -73t-72 -31zM2549 1640q14 0 19 -11.5t-1 -25.5l-609 -1633q-5 -10 -17 -10h-15
q-12 0 -17 10l-598 1275l-599 -1275q-5 -10 -16 -10h-15q-12 0 -17 10l-610 1633q-6 13 -1 25t20 12h85q16 0 24 -18l521 -1434l580 1244q7 18 20 18h16q13 0 20 -18l579 -1244l523 1434q8 18 24 18h84z" />
    <glyph glyph-name="Ygrave" unicode="&#x1ef2;" horiz-adv-x="2272" 
d="M601 3132q-18 11 -6 29l39 60q13 17 30 5l577 -461q17 -14 6 -30l-28 -42q-13 -18 -30 -6zM2161 2440q12 0 18.5 -6.5t-0.5 -17.5l-981 -1533v-862q0 -8 -6.5 -14.5t-14.5 -6.5h-87q-8 0 -14.5 6.5t-6.5 14.5v857l-996 1538q-6 12 -0.5 18t17.5 6h102q15 0 26 -17
l917 -1425l907 1425q11 17 27 17h92z" />
    <glyph glyph-name="ygrave" unicode="&#x1ef3;" horiz-adv-x="1653" 
d="M292 2332q-18 11 -6 29l39 60q13 17 30 5l577 -461q17 -14 6 -30l-28 -42q-13 -18 -30 -6zM1579 1640q15 0 21 -12t-2 -27l-719 -1609q-69 -162 -126 -281.5t-119 -227t-121 -178.5t-125 -124t-138.5 -77t-155.5 -24q-23 0 -23 20v62q0 20 20 21q186 5 339 201.5
t357 670.5l-732 1546q-8 15 -2.5 27t21.5 12h86q16 0 24 -17l660 -1437l633 1437q8 17 25 17h77z" />
    <glyph glyph-name="endash" unicode="&#x2013;" horiz-adv-x="1825" 
d="M41 903q-9 0 -15 6t-6 15v60q0 9 6 15t15 6h1744q20 0 20 -21v-60q0 -21 -20 -21h-1744z" />
    <glyph glyph-name="emdash" unicode="&#x2014;" horiz-adv-x="3025" 
d="M41 903q-9 0 -15 6t-6 15v60q0 9 6 15t15 6h2944q20 0 20 -21v-60q0 -21 -20 -21h-2944z" />
    <glyph glyph-name="quoteleft" unicode="&#x2018;" horiz-adv-x="687" 
d="M339 2013q-42 0 -73 31.5t-31 94.5q0 109 53.5 250t158.5 236q16 13 31 -4l9 -10q12 -15 -2 -29q-59 -59 -96.5 -141.5t-37.5 -165.5q0 -28 8.5 -41.5t34.5 -28.5q50 -31 50 -87q0 -43 -31 -74t-74 -31z" />
    <glyph glyph-name="quoteright" unicode="&#x2019;" horiz-adv-x="687" 
d="M348 2585q42 0 73 -31.5t31 -94.5q0 -109 -53.5 -250t-158.5 -236q-16 -13 -31 4l-9 10q-12 15 2 29q59 59 96.5 141.5t37.5 165.5q0 28 -8.5 41.5t-34.5 28.5q-50 31 -50 87q0 43 31 74t74 31z" />
    <glyph glyph-name="quotesinglbase" unicode="&#x201a;" horiz-adv-x="687" 
d="M348 184q42 0 73 -31.5t31 -94.5q0 -109 -53.5 -250t-158.5 -236q-16 -13 -31 4l-9 10q-12 15 2 29q59 59 96.5 141.5t37.5 165.5q0 28 -8.5 41.5t-34.5 28.5q-50 31 -50 87q0 43 31 74t74 31z" />
    <glyph glyph-name="quotedblleft" unicode="&#x201c;" horiz-adv-x="1067" 
d="M339 2013q-42 0 -73 31.5t-31 94.5q0 109 53.5 250t158.5 236q16 13 31 -4l9 -10q12 -15 -2 -29q-59 -59 -96.5 -141.5t-37.5 -165.5q0 -28 8.5 -41.5t34.5 -28.5q50 -31 50 -87q0 -43 -31 -74t-74 -31zM719 2013q-42 0 -73 31.5t-31 94.5q0 109 53.5 250t158.5 236
q16 13 31 -4l9 -10q12 -15 -2 -29q-59 -59 -96.5 -141.5t-37.5 -165.5q0 -28 8.5 -41.5t34.5 -28.5q50 -31 50 -87q0 -43 -31 -74t-74 -31z" />
    <glyph glyph-name="quotedblright" unicode="&#x201d;" horiz-adv-x="1067" 
d="M348 2585q42 0 73 -31.5t31 -94.5q0 -109 -53.5 -250t-158.5 -236q-16 -13 -31 4l-9 10q-12 15 2 29q59 59 96.5 141.5t37.5 165.5q0 28 -8.5 41.5t-34.5 28.5q-50 31 -50 87q0 43 31 74t74 31zM728 2585q42 0 73 -31.5t31 -94.5q0 -109 -53.5 -250t-158.5 -236
q-16 -13 -31 4l-9 10q-12 15 2 29q59 59 96.5 141.5t37.5 165.5q0 28 -8.5 41.5t-34.5 28.5q-50 31 -50 87q0 43 31 74t74 31z" />
    <glyph glyph-name="quotedblbase" unicode="&#x201e;" horiz-adv-x="1067" 
d="M348 184q42 0 73 -31.5t31 -94.5q0 -109 -53.5 -250t-158.5 -236q-16 -13 -31 4l-9 10q-12 15 2 29q59 59 96.5 141.5t37.5 165.5q0 28 -8.5 41.5t-34.5 28.5q-50 31 -50 87q0 43 31 74t74 31zM728 184q42 0 73 -31.5t31 -94.5q0 -109 -53.5 -250t-158.5 -236
q-16 -13 -31 4l-9 10q-12 15 2 29q59 59 96.5 141.5t37.5 165.5q0 28 -8.5 41.5t-34.5 28.5q-50 31 -50 87q0 43 31 74t74 31z" />
    <glyph glyph-name="dagger" unicode="&#x2020;" horiz-adv-x="1500" 
d="M1347 2024q9 0 15 -6t6 -15v-55q0 -9 -6 -15t-15 -6h-542v-2106q0 -9 -6 -15t-15 -6h-68q-20 0 -20 21v2106h-543q-8 0 -14 6t-6 15v55q0 9 6 15t14 6h543v715q0 21 20 21h68q9 0 15 -6t6 -15v-715h542z" />
    <glyph glyph-name="daggerdbl" unicode="&#x2021;" horiz-adv-x="1500" 
d="M1347 1927h-542v-1294h542q9 0 15 -6t6 -15v-55q0 -9 -6 -15t-15 -6h-542v-715q0 -9 -6 -15t-15 -6h-68q-20 0 -20 21v715h-543q-8 0 -14 6t-6 15v55q0 9 6 15t14 6h543v1294h-543q-8 0 -14 6t-6 15v55q0 9 6 15t14 6h543v715q0 21 20 21h68q9 0 15 -6t6 -15v-715h542
q9 0 15 -6t6 -15v-55q0 -9 -6 -15t-15 -6z" />
    <glyph glyph-name="bullet" unicode="&#x2022;" horiz-adv-x="911" 
d="M496 629q-108 0 -186.5 78.5t-78.5 186.5q0 107 78.5 185t186.5 78q106 0 184.5 -78.5t78.5 -184.5q0 -108 -78 -186.5t-185 -78.5z" />
    <glyph glyph-name="ellipsis" unicode="&#x2026;" horiz-adv-x="1787" 
d="M340 -25q-43 0 -74 31t-31 74q0 42 31 73t74 31q42 0 73 -31t31 -73q0 -43 -31 -74t-73 -31zM894 -25q-43 0 -74 31t-31 74q0 42 31 73t74 31q42 0 73 -31t31 -73q0 -43 -31 -74t-73 -31zM1448 -25q-43 0 -74 31t-31 74q0 42 31 73t74 31q42 0 73 -31t31 -73
q0 -43 -31 -74t-73 -31z" />
    <glyph glyph-name="perthousand" unicode="&#x2030;" horiz-adv-x="4510" 
d="M2222 2496q7 -3 10 -11.5t0 -15.5l-1167 -2545q-9 -19 -28 -11l-57 27q-7 4 -10 12t0 15l1167 2545q10 19 28 10zM1313 1701q0 -349 -152.5 -557t-399.5 -208q-246 0 -398.5 208t-152.5 557q0 348 152.5 556t398.5 208q247 0 399.5 -207.5t152.5 -556.5zM761 1038
q207 0 322.5 178t115.5 485t-115.5 484.5t-322.5 177.5q-206 0 -322 -178t-116 -484q0 -307 116 -485t322 -178zM2429 1504q246 0 398.5 -208t152.5 -556q0 -349 -152.5 -557t-398.5 -208t-398.5 208t-152.5 557q0 348 152.5 556t398.5 208zM3749 1504q246 0 398.5 -208
t152.5 -556q0 -349 -152.5 -557t-398.5 -208q-247 0 -399.5 208t-152.5 557t152.5 556.5t399.5 207.5zM2429 77q206 0 322 178t116 485q0 306 -116 484t-322 178t-322 -178t-116 -484q0 -307 116 -485t322 -178zM3749 77q206 0 322 178t116 485q0 306 -116 484t-322 178
t-322 -178t-116 -484q0 -307 116 -485t322 -178z" />
    <glyph glyph-name="guilsinglleft" unicode="&#x2039;" horiz-adv-x="1164" 
d="M934 1321q0 -9 -8 -14l-599 -462l599 -462q8 -5 8 -14v-50q0 -16 -13 -21.5t-26 4.5l-657 498q-8 5 -8 13v64q0 8 8 13l657 498q13 10 26 4.5t13 -21.5v-50z" />
    <glyph glyph-name="guilsinglright" unicode="&#x203a;" horiz-adv-x="1164" 
d="M926 890q8 -5 8 -13v-64q0 -8 -8 -13l-657 -498q-13 -10 -26 -4.5t-13 21.5v50q0 9 8 14l599 462l-599 462q-8 5 -8 14v50q0 16 13 21.5t26 -4.5z" />
    <glyph glyph-name="fraction" unicode="&#x2044;" horiz-adv-x="1333" 
d="M1288 2372q9 18 28 10l43 -20q7 -4 10.5 -12t0.5 -15l-1236 -2650q-9 -19 -28 -10l-42 20q-19 10 -10 28z" />
    <glyph glyph-name="Euro" unicode="&#x20ac;" horiz-adv-x="2901" 
d="M2699 639q21 -8 10 -30q-317 -634 -991 -634q-272 0 -511.5 109t-412.5 319.5t-239 490.5h-372v89h354q-19 111 -19 237q0 119 19 239h-354v91h373q50 210 162.5 383t266 289t342 179.5t391.5 63.5q674 0 991 -634q11 -22 -10 -30l-67 -32q-19 -8 -29 11
q-288 574 -885 574q-241 0 -451 -96.5t-361 -280t-214 -427.5h1365l-72 -91h-1312q-21 -114 -21 -239q0 -122 20 -237h1281l-71 -89h-1191q63 -245 213.5 -429t361 -281.5t452.5 -97.5q597 0 885 574q10 19 29 11z" />
    <glyph glyph-name="trademark" unicode="&#x2122;" horiz-adv-x="3382" 
d="M3126 2467q13 0 13 -13v-1514q0 -13 -13 -13h-54q-13 0 -13 13v1339l-655 -1040q-9 -15 -20 0l-654 1040v-1339q0 -13 -13 -13h-55q-12 0 -12 13v1514q0 13 12 13h16q12 0 19 -12l697 -1093l698 1093q7 12 18 12h16zM1398 2442q13 0 13 -13v-43q0 -13 -13 -13h-571v-1433
q0 -13 -13 -13h-54q-13 0 -13 13v1433h-571q-5 0 -8.5 4t-3.5 9v43q0 5 3.5 9t8.5 4h638h584z" />
    <glyph glyph-name="oneeighth" unicode="&#x215b;" horiz-adv-x="3899" 
d="M2259 2387q7 -4 10.5 -12t0.5 -15l-1236 -2650q-9 -19 -28 -10l-42 20q-19 10 -10 28l1234 2649q9 18 28 10zM742 2397q14 0 14 -14v-1576q0 -5 -4 -9.5t-10 -4.5h-57q-5 0 -9.5 4.5t-4.5 9.5v1504l-328 -173q-12 -6 -20 7l-18 40q-6 11 6 18l364 190q9 4 21 4h46z
M3016 843q76 -16 142 -48t123.5 -82t91 -125t33.5 -166q0 -200 -150 -319t-401 -119q-252 0 -402 119t-150 319q0 91 33.5 166t91 125t123.5 82t142 48q-65 15 -123.5 43.5t-109.5 72.5t-81.5 110t-30.5 146q0 173 139 289.5t368 116.5t367.5 -116.5t138.5 -289.5
q0 -80 -30 -146t-81.5 -110t-110 -72.5t-123.5 -43.5zM2432 1209q0 -147 120.5 -239t302.5 -92t302 92t120 239q0 146 -117 244.5t-305 98.5t-305.5 -98.5t-117.5 -244.5zM2855 57q211 0 339 103t128 270t-128 270t-339 103t-339 -103t-128 -270t128 -270t339 -103z" />
    <glyph glyph-name="threeeighths" unicode="&#x215c;" horiz-adv-x="3841" 
d="M1308 1203q0 -200 -146 -313t-396 -113q-338 0 -567 250q-13 13 -6 21l30 36q13 15 23 4q215 -238 515 -238q214 0 338.5 92t124.5 261q0 177 -136 278.5t-437 104.5q-14 0 -14 14v33q0 13 14 13q255 3 387.5 106.5t132.5 260.5q0 158 -98 243t-295 85q-144 0 -257 -57.5
t-209 -159.5q-11 -9 -23 3l-27 33q-6 7 6 22q220 232 523 232q230 0 346.5 -105.5t116.5 -285.5q0 -148 -99.5 -255t-287.5 -147q441 -64 441 -418zM2484 2387q7 -4 10.5 -12t0.5 -15l-1236 -2650q-9 -19 -28 -10l-42 20q-19 10 -10 28l1234 2649q9 18 28 10zM3241 843
q76 -16 142 -48t123.5 -82t91 -125t33.5 -166q0 -200 -150 -319t-401 -119q-252 0 -402 119t-150 319q0 91 33.5 166t91 125t123.5 82t142 48q-65 15 -123.5 43.5t-109.5 72.5t-81.5 110t-30.5 146q0 173 139 289.5t368 116.5t367.5 -116.5t138.5 -289.5q0 -80 -30 -146
t-81.5 -110t-110 -72.5t-123.5 -43.5zM2657 1209q0 -147 120.5 -239t302.5 -92t302 92t120 239q0 146 -117 244.5t-305 98.5t-305.5 -98.5t-117.5 -244.5zM3080 57q211 0 339 103t128 270t-128 270t-339 103t-339 -103t-128 -270t128 -270t339 -103z" />
    <glyph glyph-name="fiveeighths" unicode="&#x215d;" horiz-adv-x="3841" 
d="M2484 2387q7 -4 10.5 -12t0.5 -15l-1236 -2650q-9 -19 -28 -10l-42 20q-19 10 -10 28l1234 2649q9 18 28 10zM1328 1259q0 -115 -43.5 -207t-119.5 -151.5t-178 -91.5t-221 -32q-183 0 -312 62t-233 175q-14 12 -7 21l31 36q12 14 23 3q98 -107 216.5 -165.5t276.5 -58.5
q137 0 244 44.5t172.5 138.5t65.5 226q0 130 -64.5 226.5t-173.5 145.5t-246 49q-218 0 -403 -112q-4 -3 -10 0l-45 19q-8 3 -8 13l89 783q0 14 13 14h833q5 0 9.5 -4t4.5 -10v-45q0 -5 -4.5 -9.5t-9.5 -4.5h-772l-77 -676q184 101 392 101q115 -1 214.5 -33t176.5 -91.5
t121.5 -153.5t44.5 -212zM3241 843q76 -16 142 -48t123.5 -82t91 -125t33.5 -166q0 -200 -150 -319t-401 -119q-252 0 -402 119t-150 319q0 91 33.5 166t91 125t123.5 82t142 48q-65 15 -123.5 43.5t-109.5 72.5t-81.5 110t-30.5 146q0 173 139 289.5t368 116.5
t367.5 -116.5t138.5 -289.5q0 -80 -30 -146t-81.5 -110t-110 -72.5t-123.5 -43.5zM2657 1209q0 -147 120.5 -239t302.5 -92t302 92t120 239q0 146 -117 244.5t-305 98.5t-305.5 -98.5t-117.5 -244.5zM3080 57q211 0 339 103t128 270t-128 270t-339 103t-339 -103t-128 -270
t128 -270t339 -103z" />
    <glyph glyph-name="seveneighths" unicode="&#x215e;" horiz-adv-x="3577" 
d="M2208 2387q7 -4 10.5 -12t0.5 -15l-1236 -2650q-9 -19 -28 -10l-42 20q-19 10 -10 28l1234 2649q9 18 28 10zM1265 2367q0 -8 -5 -21l-724 -1546q-4 -7 -11 -7h-56q-10 0 -14.5 7.5t0.5 16.5l705 1507h-993q-5 0 -9 4.5t-4 9.5v45q0 14 13 14h1085q13 0 13 -14v-16z
M2965 843q76 -16 142 -48t123.5 -82t91 -125t33.5 -166q0 -200 -150 -319t-401 -119q-252 0 -402 119t-150 319q0 91 33.5 166t91 125t123.5 82t142 48q-65 15 -123.5 43.5t-109.5 72.5t-81.5 110t-30.5 146q0 173 139 289.5t368 116.5t367.5 -116.5t138.5 -289.5
q0 -80 -30 -146t-81.5 -110t-110 -72.5t-123.5 -43.5zM2381 1209q0 -147 120.5 -239t302.5 -92t302 92t120 239q0 146 -117 244.5t-305 98.5t-305.5 -98.5t-117.5 -244.5zM2804 57q211 0 339 103t128 270t-128 270t-339 103t-339 -103t-128 -270t128 -270t339 -103z" />
    <glyph glyph-name="partialdiff" unicode="&#x2202;" horiz-adv-x="2025" 
d="M629 2566q166 -30 311 -92t254.5 -142.5t202 -184t157 -212t115 -231t81.5 -237t50.5 -234.5t27 -218t7.5 -193q0 -151 -42.5 -285.5t-119 -236t-178.5 -175.5t-225 -112t-255 -38q-165 0 -315 61t-263 168t-180 265t-67 341t65 341t175.5 265t259 168t312.5 61
q217 0 393 -101.5t278 -283.5q-29 162 -76.5 307.5t-134 297.5t-200.5 269.5t-284 210t-377 132.5q-13 4 -17.5 14t0.5 21l19 42q8 15 26 12zM1015 86q142 0 268.5 52t221.5 144.5t150.5 229.5t55.5 298t-55.5 298t-150 229.5t-221.5 144.5t-269 52t-269 -52t-221.5 -144.5
t-150 -229.5t-55.5 -298t55.5 -298t150.5 -229.5t221.5 -144.5t268.5 -52z" />
    <glyph glyph-name="emptyset" unicode="&#x2205;" horiz-adv-x="2747" 
d="M2530 2065q16 -16 -1 -33l-384 -371q119 -137 184 -308t65 -358q0 -207 -81 -396t-218 -325.5t-326 -217.5t-395 -81q-196 0 -374.5 71.5t-317.5 199.5l-383 -370q-18 -18 -33 -1l-49 50q-15 15 2 33l384 371q-119 137 -184 307.5t-65 358.5q0 207 81 396t218 325.5
t325.5 217.5t395.5 81q196 0 374 -71.5t318 -200.5l382 370q18 18 33 2zM473 995q0 -165 55.5 -315t156.5 -272l1299 1256q-123 114 -280 177.5t-330 63.5q-183 0 -349.5 -72t-287.5 -193.5t-192.5 -290t-71.5 -354.5zM2274 995q0 165 -55.5 315t-156.5 271l-1298 -1256
q123 -115 280 -178t330 -63q182 0 348.5 72t287.5 193.5t192.5 290.5t71.5 355z" />
    <glyph glyph-name="product" unicode="&#x220f;" horiz-adv-x="1922" 
d="M1658 2940q8 0 14.5 -6.5t6.5 -14.5v-3323q0 -8 -6.5 -14.5t-14.5 -6.5h-62q-8 0 -14.5 6.5t-6.5 14.5v3248h-1228v-3248q0 -8 -6.5 -14.5t-14.5 -6.5h-63q-8 0 -14 6.5t-6 14.5v3323q0 8 6 14.5t14 6.5h63h1296h36z" />
    <glyph glyph-name="summation" unicode="&#x2211;" horiz-adv-x="1836" 
d="M1683 2865q0 -9 -6 -15t-15 -6h-1420l931 -1577q7 -9 0 -19l-931 -1576h1420q9 0 15 -6t6 -15v-55q0 -9 -6 -15t-15 -6h-1526q-9 0 -15 6t-6 15v48q0 23 10 39l936 1575l-936 1574q-10 17 -10 39v48q0 9 6 15t15 6h1526q9 0 15 -6t6 -15v-54z" />
    <glyph glyph-name="minus" unicode="&#x2212;" horiz-adv-x="2046" 
d="M251 1003q-9 0 -15 6t-6 15v60q0 9 6 15t15 6h1544q9 0 15 -6t6 -15v-60q0 -9 -6 -15t-15 -6h-1544z" />
    <glyph glyph-name="radical" unicode="&#x221a;" horiz-adv-x="2229" 
d="M2015 2947q5 13 19 13h81q13 0 20 -9.5t3 -22.5l-1020 -2915q-3 -13 -18 -13h-66q-13 0 -18 11l-585 1407h-376q-9 0 -15 6.5t-6 14.5v59q0 9 6 15.5t15 6.5h454q12 0 18 -13l541 -1331z" />
    <glyph glyph-name="infinity" unicode="&#x221e;" horiz-adv-x="2792" 
d="M2028 1594q225 0 379.5 -156.5t154.5 -382.5t-154.5 -382.5t-379.5 -156.5q-88 0 -166 22.5t-141 61.5t-122 98.5t-106.5 125.5t-96.5 151q-49 -85 -96.5 -151t-106.5 -125.5t-122 -98.5t-141 -61.5t-166 -22.5q-225 0 -379.5 156.5t-154.5 382.5t154.5 382.5
t379.5 156.5q88 0 166 -22.5t141 -61.5t122 -98.5t106.5 -125.5t96.5 -151q49 85 96.5 151t106.5 125.5t122 98.5t141 61.5t166 22.5zM761 615q120 0 225 56t186.5 149t164.5 235q-83 142 -164.5 235t-186.5 149t-225 56q-119 0 -216 -60t-150.5 -160.5t-53.5 -219.5
t53.5 -219.5t150.5 -160.5t216 -60zM2031 615q119 0 216 60t150.5 160.5t53.5 219.5t-53.5 219.5t-150.5 160.5t-216 60q-120 0 -225 -56t-186.5 -149t-164.5 -235q83 -142 164.5 -235t186.5 -149t225 -56z" />
    <glyph glyph-name="integral" unicode="&#x222b;" horiz-adv-x="1646" 
d="M1619 2901q21 -17 9 -35l-30 -50q-12 -18 -36 -3q-150 121 -330 121q-106 0 -183.5 -36t-122.5 -102.5t-66 -150.5t-21 -189v-2802q0 -125 -32 -229t-93.5 -181.5t-159 -120.5t-221.5 -43q-112 0 -219.5 39t-177.5 99q-21 18 -9 36l30 49q11 20 36 3q149 -120 330 -120
q106 0 183.5 36t122 102.5t65.5 150.5t21 189v2801q0 125 32 229t94 181.5t159 121t221 43.5q113 0 220.5 -39t177.5 -100z" />
    <glyph glyph-name="approxequal" unicode="&#x2248;" horiz-adv-x="2181" 
d="M240 1234q-14 8 -9 23q49 145 176.5 245t283.5 100q98 0 187.5 -31t159 -75t137.5 -88.5t149.5 -75.5t166.5 -31q127 0 234 79.5t148 187.5q10 21 32 11l36 -19q14 -8 9 -23q-49 -145 -176 -245t-283 -100q-98 0 -188 31t-159.5 75t-137 88.5t-149 75.5t-166.5 31
q-127 0 -234.5 -79.5t-148.5 -187.5q-10 -23 -32 -11zM1941 851q14 -8 9 -23q-49 -145 -176 -245t-283 -100q-83 0 -161 22.5t-135.5 55.5t-120.5 72.5t-117 72.5t-124 55.5t-142 22.5q-127 0 -234.5 -79.5t-148.5 -187.5q-10 -23 -32 -11l-36 19q-14 8 -9 23
q49 145 176.5 245t283.5 100q98 0 187.5 -31t159 -75.5t137.5 -88.5t149.5 -75t166.5 -31q127 0 234 79.5t148 187.5q10 21 32 11z" />
    <glyph glyph-name="notequal" unicode="&#x2260;" horiz-adv-x="2046" 
d="M1795 1360h-573l-247 -615h820q9 0 15 -6t6 -15v-60q0 -9 -6 -15t-15 -6h-861l-218 -544q-3 -8 -11.5 -11t-16.5 1l-56 25q-8 4 -10.5 12.5t0.5 15.5l201 501h-572q-9 0 -15 6t-6 15v60q0 9 6 15t15 6h613l246 615h-859q-9 0 -15 6t-6 15v60q0 9 6 15t15 6h900l203 506
q9 18 28 10l57 -25q18 -8 10 -28l-186 -463h532q9 0 15 -6t6 -15v-60q0 -9 -6 -15t-15 -6z" />
    <glyph glyph-name="lessequal" unicode="&#x2264;" horiz-adv-x="2046" 
d="M1816 1748q0 -6 -3.5 -10t-6.5 -5.5l-11 -5.5l-1443 -650l1443 -649l8 -4t6 -3.5t5.5 -6t1.5 -7.5v-81q0 -9 -6.5 -14.5t-14.5 -1.5l-1544 700q-21 11 -21 25v85q0 14 21 25l1544 700q8 4 14.5 -1.5t6.5 -14.5v-81zM251 -26q-9 0 -15 6t-6 15v60q0 9 6 15t15 6h1544
q9 0 15 -6t6 -15v-60q0 -9 -6 -15t-15 -6h-1544z" />
    <glyph glyph-name="greaterequal" unicode="&#x2265;" horiz-adv-x="2046" 
d="M230 1748v81q0 9 6.5 14.5t14.5 1.5l1544 -700q21 -11 21 -25v-85q0 -14 -21 -25l-1544 -700q-8 -4 -14.5 1.5t-6.5 14.5v81q0 6 3.5 10t6.5 5.5l11 5.5l1443 649l-1443 650l-8 4t-6 3.5t-5.5 6t-1.5 7.5zM1795 -26h-1544q-9 0 -15 6t-6 15v60q0 9 6 15t15 6h1544
q9 0 15 -6t6 -15v-60q0 -9 -6 -15t-15 -6z" />
    <glyph glyph-name="lozenge" unicode="&#x25ca;" horiz-adv-x="2201" 
d="M1080 2767q8 12 21 12t20 -12l847 -1357q7 -10 0 -20l-847 -1357q-7 -12 -20 -12t-21 12l-847 1357q-6 9 0 20zM1100 173l754 1227l-754 1227l-753 -1227z" />
    <glyph glyph-name="i.loclTRK" horiz-adv-x="594" 
d="M298 2023q-43 0 -74 31t-31 74q0 42 31 73t74 31q42 0 73 -31t31 -73q0 -43 -31 -74t-73 -31zM235 1619q0 9 6 15t15 6h82q9 0 15 -6t6 -15v-1598q0 -9 -6 -15t-15 -6h-82q-9 0 -15 6t-6 15v1598z" />
    <glyph glyph-name="zero.osf" horiz-adv-x="2049" 
d="M1025 1765q170 0 321 -62t265.5 -174.5t181 -283t66.5 -375.5t-66.5 -375.5t-181 -283t-265.5 -174.5t-321 -62t-321.5 62t-265.5 174.5t-181 283t-67 375.5t67 375.5t181 283t265.5 174.5t321.5 62zM1025 86q144 0 271 53t224 150.5t153.5 248t56.5 332.5t-56.5 332
t-153.5 247.5t-224 150.5t-271 53t-271.5 -53t-224.5 -150.5t-153.5 -247.5t-56.5 -332t56.5 -332.5t153.5 -248t224.5 -150.5t271.5 -53z" />
    <glyph glyph-name="one.osf" horiz-adv-x="1270" 
d="M857 1740q8 0 14.5 -6.5t6.5 -14.5v-1698q0 -8 -6.5 -14.5t-14.5 -6.5h-83q-8 0 -14.5 6.5t-6.5 14.5v1586l-499 -262q-21 -10 -30 10l-29 61q-9 19 10 28l555 288q12 8 31 8h66z" />
    <glyph glyph-name="two.osf" horiz-adv-x="1795" 
d="M1531 111q8 0 14.5 -6.5t6.5 -14.5v-69q0 -8 -6.5 -14.5t-14.5 -6.5h-1352q-9 0 -15 6t-6 15v27q0 20 9 27q208 135 352 232.5t278 193.5t218 169t154 146.5t106.5 139t55.5 132t19 140.5q0 197 -122 311t-359 114q-346 0 -610 -302q-14 -16 -35 5l-45 50q-10 12 10 33
q289 326 699 326q143 0 256.5 -39.5t186 -111t110.5 -167.5t38 -211q0 -138 -56 -260.5t-191 -257.5t-333 -276t-510 -331h1142z" />
    <glyph glyph-name="three.osf" horiz-adv-x="1823" 
d="M1015 586q292 -50 455 -209t163 -406q0 -193 -97.5 -334t-264 -212t-382.5 -71q-231 0 -423.5 87t-331.5 241q-20 21 -10 33l47 55q19 20 35 5q133 -146 308.5 -228t377.5 -82q129 0 239.5 32.5t194 95t131 161.5t47.5 224q0 108 -40.5 198t-113 154.5t-173 110
t-219.5 68t-254 24.5q-22 2 -22 21v50q0 19 22 21q105 0 206.5 21.5t193.5 66.5t161.5 108t110.5 153.5t41 196.5q0 216 -149 349t-385 133q-181 0 -342 -80t-282 -214q-18 -16 -35 5l-40 50q-11 13 10 32q142 153 326.5 236t379.5 83q144 0 265 -44.5t203.5 -122
t128.5 -184.5t46 -231q0 -221 -142 -376.5t-386 -220.5z" />
    <glyph glyph-name="four.osf" horiz-adv-x="2021" 
d="M1875 111q9 0 15 -6t6 -15v-69q0 -9 -6 -15t-15 -6h-412v-600q0 -8 -6.5 -14.5t-14.5 -6.5h-82q-8 0 -14.5 6.5t-6.5 14.5v600h-1208q-9 0 -15 6t-6 15v69l1245 1637q10 13 31 13h56q8 0 14.5 -6.5t6.5 -14.5v-1608h412zM260 111h1079v1419z" />
    <glyph glyph-name="five.osf" horiz-adv-x="2072" 
d="M1056 813q167 -2 307.5 -49.5t244.5 -137.5t162.5 -229t58.5 -314q0 -224 -102.5 -387t-281 -245t-411.5 -82q-254 0 -438 88.5t-339 257.5q-20 20 -10 32l48 55q18 21 35 5q144 -159 311.5 -243t384.5 -84q146 0 269 39t213.5 113.5t141 190t50.5 260.5q0 291 -180 458
t-481 167q-152 0 -287.5 -41t-302.5 -129q-7 -4 -16 -1l-69 30q-14 6 -11 19l134 1133q0 9 6 15t15 6h1186q8 0 14.5 -6.5t6.5 -14.5v-70q0 -8 -6.5 -14.5t-14.5 -6.5h-1097l-117 -968q149 82 283 117.5t293 35.5z" />
    <glyph glyph-name="six.osf" horiz-adv-x="2044" 
d="M1017 1487q218 0 390 -99.5t265.5 -270.5t93.5 -382q0 -158 -58.5 -298t-161.5 -241.5t-251 -161t-318 -59.5q-171 0 -317.5 60.5t-249.5 166.5t-161.5 256.5t-58.5 325.5q0 754 334 1152t1001 426q10 0 16 -6t6 -15v-69q0 -8 -6 -14.5t-15 -6.5q-555 -28 -849.5 -322.5
t-352.5 -879.5q92 195 275.5 316.5t417.5 121.5zM977 86q142 0 265 51.5t208 139t133.5 206.5t48.5 252q0 180 -77 325t-224 230.5t-339 85.5q-142 0 -268.5 -55.5t-212.5 -145.5t-136.5 -205.5t-50.5 -234.5q0 -133 48.5 -252t133.5 -206.5t207.5 -139t263.5 -51.5z" />
    <glyph glyph-name="seven.osf" horiz-adv-x="1699" 
d="M452 -621q-15 0 -22 11.5t0 25.5l1073 2212h-1448q-8 0 -14.5 6.5t-6.5 14.5v70q0 8 6.5 14.5t14.5 6.5h1588q8 0 14.5 -6t6.5 -15v-27q0 -16 -9 -27l-1101 -2276q-5 -10 -17 -10h-85z" />
    <glyph glyph-name="eight.osf" horiz-adv-x="2023" 
d="M1255 1233q86 -20 165.5 -52t156 -85t132.5 -119.5t90 -159t34 -199.5q0 -195 -102.5 -341.5t-288.5 -224.5t-430 -78q-245 0 -431 78t-288.5 224.5t-102.5 341.5q0 107 34 199.5t90 159t132.5 119.5t156 85t165.5 52q-93 22 -178.5 65t-162 108.5t-122.5 162t-46 210.5
q0 126 54 234.5t150.5 187t238 123.5t310.5 45q168 0 309.5 -45t238 -123.5t150.5 -187t54 -234.5q0 -114 -46 -210.5t-122.5 -162t-162 -108.5t-178.5 -65zM386 1770q0 -103 49 -193.5t133 -153.5t199.5 -99.5t244.5 -36.5q172 0 315 61.5t226.5 173t83.5 248.5
q0 216 -174.5 355t-450.5 139q-277 0 -451.5 -139t-174.5 -355zM1012 85q309 0 500.5 150.5t191.5 395.5q0 240 -192 391.5t-500 151.5q-203 0 -361 -68.5t-245 -192.5t-87 -282q0 -245 191.5 -395.5t501.5 -150.5z" />
    <glyph glyph-name="nine.osf" horiz-adv-x="1979" 
d="M990 1765q173 0 322 -60.5t253.5 -167.5t164 -258.5t59.5 -328.5q0 -379 -84.5 -671.5t-251.5 -494.5t-422 -307t-590 -105q-9 0 -15 6.5t-6 15.5v68q0 21 21 21q553 3 853.5 305t360.5 896q-94 -197 -280.5 -319.5t-424.5 -122.5q-166 0 -308.5 58t-241 159.5
t-154.5 241t-56 299.5t59.5 301t164 243t254 161.5t322.5 59.5zM975 354q116 0 222.5 36t188.5 98.5t143.5 144t93.5 176.5t32 191q0 134 -49.5 254.5t-136 208t-211 139t-268.5 51.5q-192 0 -345 -87.5t-237 -236.5t-84 -329q0 -136 46 -254.5t129.5 -205.5t206.5 -136.5
t269 -49.5z" />
    <glyph glyph-name="zero.dnom" horiz-adv-x="1590" 
d="M795 1614q264 0 424.5 -222t160.5 -597t-160.5 -596.5t-424.5 -221.5q-263 0 -424 222t-161 596t161 596.5t424 222.5zM795 50q230 0 363.5 202.5t133.5 542.5q0 341 -133.5 543.5t-363.5 202.5q-229 0 -363 -203t-134 -543q0 -339 134 -542t363 -203z" />
    <glyph glyph-name="one.dnom" horiz-adv-x="1248" 
d="M742 1604q14 0 14 -14v-1576q0 -5 -4 -9.5t-10 -4.5h-57q-5 0 -9.5 4.5t-4.5 9.5v1504l-328 -173q-12 -6 -20 7l-18 40q-6 11 6 18l364 190q9 4 21 4h46z" />
    <glyph glyph-name="two.dnom" horiz-adv-x="1446" 
d="M1279 66q5 0 9.5 -4.5t4.5 -9.5v-45q0 -5 -4.5 -9.5t-9.5 -4.5h-1055q-14 0 -14 14v18q0 12 6 17q495 393 714.5 658t219.5 485q0 166 -98 261t-289 95q-259 0 -468 -235q-10 -12 -23 3l-29 33q-9 9 6 21q228 251 525 251q227 0 344 -115.5t117 -307.5q0 -124 -53.5 -249
t-169 -264.5t-270 -282.5t-383.5 -329h920z" />
    <glyph glyph-name="three.dnom" horiz-adv-x="1518" 
d="M867 821q441 -64 441 -418q0 -200 -146 -313t-396 -113q-338 0 -567 250q-13 13 -6 21l30 36q13 15 23 4q215 -238 515 -238q214 0 338.5 92t124.5 261q0 177 -136 278.5t-437 104.5q-14 0 -14 14v33q0 13 14 13q255 3 387.5 106.5t132.5 260.5q0 158 -98 243t-295 85
q-144 0 -257 -57.5t-209 -159.5q-11 -9 -23 3l-27 33q-6 7 6 22q220 232 523 232q230 0 346.5 -105.5t116.5 -285.5q0 -148 -99.5 -255t-287.5 -147z" />
    <glyph glyph-name="four.dnom" horiz-adv-x="1528" 
d="M1362 481q14 0 14 -14v-45q0 -14 -14 -14h-271v-394q0 -5 -4.5 -9.5t-9.5 -4.5h-57q-5 0 -9.5 4.5t-4.5 9.5v394h-873q-13 0 -13 14v42q0 3 3 8l886 1124q5 8 20 8h48q5 0 9.5 -4t4.5 -10v-1109h271zM226 481h780v994z" />
    <glyph glyph-name="five.dnom" horiz-adv-x="1538" 
d="M771 956q115 -1 214.5 -33t176.5 -91.5t121.5 -153.5t44.5 -212q0 -115 -43.5 -207t-119.5 -151.5t-178 -91.5t-221 -32q-183 0 -312 62t-233 175q-14 13 -7 21l31 36q12 14 23 3q98 -107 216.5 -165.5t276.5 -58.5q137 0 244 44.5t172.5 138.5t65.5 226
q0 130 -64.5 226.5t-173.5 145.5t-246 49q-218 0 -403 -112q-4 -3 -10 0l-45 19q-8 3 -8 13l89 783q0 14 13 14h833q5 0 9.5 -4t4.5 -10v-45q0 -5 -4.5 -9.5t-9.5 -4.5h-772l-77 -676q184 101 392 101z" />
    <glyph glyph-name="six.dnom" horiz-adv-x="1511" 
d="M781 1004q229 0 374.5 -144t145.5 -364t-154.5 -366t-391.5 -146q-239 0 -392 151.5t-153 393.5q0 507 233 792t673 300q14 0 14 -14v-45q0 -14 -14 -14q-365 -15 -571 -229t-247 -614q63 134 191 216.5t292 82.5zM755 57q199 0 328.5 126t129.5 313q0 190 -123.5 312.5
t-324.5 122.5q-99 0 -187 -36.5t-148.5 -97t-96 -139.5t-35.5 -162q0 -187 129 -313t328 -126z" />
    <glyph glyph-name="seven.dnom" horiz-adv-x="1487" 
d="M469 0q-10 0 -14.5 7.5t0.5 16.5l705 1507h-993q-5 0 -9 4.5t-4 9.5v45q0 14 13 14h1085q13 0 13 -14v-16q0 -8 -5 -21l-724 -1546q-4 -7 -11 -7h-56z" />
    <glyph glyph-name="eight.dnom" horiz-adv-x="1523" 
d="M923 843q76 -16 142 -48t123.5 -82t91 -125t33.5 -166q0 -200 -150 -319t-401 -119q-252 0 -402 119t-150 319q0 91 33.5 166t91 125t123.5 82t142 48q-65 15 -123.5 43.5t-109.5 72.5t-81.5 110t-30.5 146q0 173 139 289.5t368 116.5t367.5 -116.5t138.5 -289.5
q0 -80 -30 -146t-81.5 -110t-110 -72.5t-123.5 -43.5zM339 1209q0 -147 120.5 -239t302.5 -92t302 92t120 239q0 146 -117 244.5t-305 98.5t-305.5 -98.5t-117.5 -244.5zM762 57q211 0 339 103t128 270t-128 270t-339 103t-339 -103t-128 -270t128 -270t339 -103z" />
    <glyph glyph-name="nine.dnom" horiz-adv-x="1481" 
d="M741 1621q232 0 381 -152t149 -394q0 -188 -34 -350.5t-105 -296.5t-175.5 -228.5t-251 -147t-325.5 -52.5q-14 0 -14 14v45q0 5 4 9.5t10 4.5q183 1 326.5 59.5t241 167t155.5 256.5t79 336q-63 -131 -187 -211.5t-281 -80.5q-220 0 -362 143.5t-142 364.5
q0 220 150.5 366.5t380.5 146.5zM731 673q126 0 231.5 62.5t163 162t57.5 210.5q0 187 -125.5 313.5t-316.5 126.5q-192 0 -317.5 -126.5t-125.5 -313.5q0 -190 119.5 -312.5t313.5 -122.5z" />
    <glyph glyph-name="zero.numr" horiz-adv-x="1590" 
d="M795 2414q264 0 424.5 -222t160.5 -597t-160.5 -596.5t-424.5 -221.5q-263 0 -424 222t-161 596t161 596.5t424 222.5zM795 850q230 0 363.5 202.5t133.5 542.5q0 341 -133.5 543.5t-363.5 202.5q-229 0 -363 -203t-134 -543q0 -339 134 -542t363 -203z" />
    <glyph glyph-name="one.numr" horiz-adv-x="1248" 
d="M742 2397q14 0 14 -14v-1576q0 -5 -4 -9.5t-10 -4.5h-57q-5 0 -9.5 4.5t-4.5 9.5v1504l-328 -173q-12 -6 -20 7l-18 40q-6 11 6 18l364 190q9 4 21 4h46z" />
    <glyph glyph-name="two.numr" horiz-adv-x="1446" 
d="M1279 866q5 0 9.5 -4.5t4.5 -9.5v-45q0 -5 -4.5 -9.5t-9.5 -4.5h-1055q-14 0 -14 14v18q0 12 6 17q495 393 714.5 658t219.5 485q0 166 -98 261t-289 95q-259 0 -468 -235q-10 -12 -23 3l-29 33q-9 9 6 21q228 251 525 251q227 0 344 -115.5t117 -307.5
q0 -124 -53.5 -249t-169 -264.5t-270 -282.5t-383.5 -329h920z" />
    <glyph glyph-name="three.numr" horiz-adv-x="1518" 
d="M867 1621q441 -64 441 -418q0 -200 -146 -313t-396 -113q-338 0 -567 250q-13 13 -6 21l30 36q13 15 23 4q215 -238 515 -238q214 0 338.5 92t124.5 261q0 177 -136 278.5t-437 104.5q-14 0 -14 14v33q0 13 14 13q255 3 387.5 106.5t132.5 260.5q0 158 -98 243t-295 85
q-144 0 -257 -57.5t-209 -159.5q-11 -9 -23 3l-27 33q-6 7 6 22q220 232 523 232q230 0 346.5 -105.5t116.5 -285.5q0 -148 -99.5 -255t-287.5 -147z" />
    <glyph glyph-name="four.numr" horiz-adv-x="1528" 
d="M1362 1274q14 0 14 -14v-45q0 -14 -14 -14h-271v-394q0 -5 -4.5 -9.5t-9.5 -4.5h-57q-5 0 -9.5 4.5t-4.5 9.5v394h-873q-13 0 -13 14v42q0 3 3 8l886 1124q5 8 20 8h48q5 0 9.5 -4t4.5 -10v-1109h271zM226 1274h780v994z" />
    <glyph glyph-name="five.numr" horiz-adv-x="1538" 
d="M771 1749q115 -1 214.5 -33t176.5 -91.5t121.5 -153.5t44.5 -212q0 -115 -43.5 -207t-119.5 -151.5t-178 -91.5t-221 -32q-183 0 -312 62t-233 175q-14 12 -7 21l31 36q12 14 23 3q98 -107 216.5 -165.5t276.5 -58.5q137 0 244 44.5t172.5 138.5t65.5 226
q0 130 -64.5 226.5t-173.5 145.5t-246 49q-218 0 -403 -112q-4 -3 -10 0l-45 19q-8 3 -8 13l89 783q0 14 13 14h833q5 0 9.5 -4t4.5 -10v-45q0 -5 -4.5 -9.5t-9.5 -4.5h-772l-77 -676q184 101 392 101z" />
    <glyph glyph-name="six.numr" horiz-adv-x="1511" 
d="M781 1797q229 0 374.5 -144t145.5 -364t-154.5 -366t-391.5 -146q-239 0 -392 151.5t-153 393.5q0 507 233 792t673 300q14 0 14 -14v-45q0 -14 -14 -14q-365 -15 -571 -229t-247 -614q63 134 191 216.5t292 82.5zM755 850q199 0 328.5 126t129.5 313q0 190 -123.5 312.5
t-324.5 122.5q-99 0 -187 -36.5t-148.5 -97t-96 -139.5t-35.5 -162q0 -187 129 -313t328 -126z" />
    <glyph glyph-name="seven.numr" horiz-adv-x="1487" 
d="M469 793q-10 0 -14.5 7.5t0.5 16.5l705 1507h-993q-5 0 -9 4.5t-4 9.5v45q0 14 13 14h1085q13 0 13 -14v-16q0 -8 -5 -21l-724 -1546q-4 -7 -11 -7h-56z" />
    <glyph glyph-name="eight.numr" horiz-adv-x="1523" 
d="M923 1636q76 -16 142 -48t123.5 -82t91 -125t33.5 -166q0 -200 -150 -319t-401 -119q-252 0 -402 119t-150 319q0 91 33.5 166t91 125t123.5 82t142 48q-65 15 -123.5 43.5t-109.5 72.5t-81.5 110t-30.5 146q0 173 139 289.5t368 116.5t367.5 -116.5t138.5 -289.5
q0 -80 -30 -146t-81.5 -110t-110 -72.5t-123.5 -43.5zM339 2002q0 -147 120.5 -239t302.5 -92t302 92t120 239q0 146 -117 244.5t-305 98.5t-305.5 -98.5t-117.5 -244.5zM762 850q211 0 339 103t128 270t-128 270t-339 103t-339 -103t-128 -270t128 -270t339 -103z" />
    <glyph glyph-name="nine.numr" horiz-adv-x="1481" 
d="M741 2414q232 0 381 -152t149 -394q0 -188 -34 -350.5t-105 -296.5t-175.5 -228.5t-251 -147t-325.5 -52.5q-14 0 -14 14v45q0 5 4 9.5t10 4.5q183 1 326.5 59.5t241 167t155.5 256.5t79 336q-63 -131 -187 -211.5t-281 -80.5q-220 0 -362 143.5t-142 364.5
q0 220 150.5 366.5t380.5 146.5zM731 1466q126 0 231.5 62.5t163 162t57.5 210.5q0 187 -125.5 313.5t-316.5 126.5q-192 0 -317.5 -126.5t-125.5 -313.5q0 -190 119.5 -312.5t313.5 -122.5z" />
    <glyph glyph-name="com_I" horiz-adv-x="759" 
d="M315 2419q0 9 6 15t15 6h87q9 0 15 -6t6 -15v-2398q0 -9 -6 -15t-15 -6h-87q-9 0 -15 6t-6 15v2398z" />
    <glyph glyph-name="com_o" horiz-adv-x="2400" 
d="M549 880q0 187 67 347t181 268t266 169t321 61v-111q-191 0 -351 -88.5t-257.5 -258t-97.5 -387.5h-129z" />
    <glyph glyph-name="com_n" horiz-adv-x="2306" 
d="M1345 1680q158 0 277 -49t192.5 -140.5t109.5 -214.5t36 -277v-978q0 -9 -6 -15t-15 -6h-82q-9 0 -15 6t-6 15v939q0 293 -127 450.5t-393 157.5q-191 0 -357 -95t-262.5 -253t-96.5 -337v314q26 63 70.5 127t113 129t150 115t189 81t222.5 31z" />
    <glyph glyph-name="com_c" horiz-adv-x="2331" 
d="M1064 1659v111q463 0 692 -445q11 -20 -10 -29l-72 -33q-17 -9 -28 10q-194 386 -582 386z" />
    <glyph glyph-name="com_C" horiz-adv-x="2400" 
d="M2416 1944q-19 -8 -29 11q-288 574 -885 574v111q674 0 991 -634q11 -22 -10 -30z" />
    <glyph glyph-name="com_O" horiz-adv-x="2400" 
 />
    <glyph glyph-name="com_i_base" horiz-adv-x="564" 
d="M220 1619q0 9 6 15t15 6h82q9 0 15 -6t6 -15v-1598q0 -9 -6 -15t-15 -6h-82q-9 0 -15 6t-6 15v1598z" />
    <glyph glyph-name="com_d" horiz-adv-x="2346" 
d="M1010 1725q225 0 403.5 -111t277.5 -303.5t101 -430.5h-67q0 149 -54.5 284t-147.5 234t-224.5 157.5t-278.5 58.5q-114 0 -220 -33t-194 -96.5t-153.5 -151.5t-102 -204.5t-36.5 -248.5h-129q0 187 67 347t180 268t263 169t315 61z" />
    <glyph glyph-name="com_g_gora" horiz-adv-x="2360" 
d="M350 1200q0 115 48.5 219.5t133.5 182t207 123t261 45.5v-101q-224 0 -375 -137t-151 -332h-124z" />
    <glyph glyph-name="newGlyph" horiz-adv-x="2400" 
 />
    <glyph glyph-name="com_duze_I" horiz-adv-x="129" 
d="M0 2419q0 8 6.5 14.5t14.5 6.5h87q8 0 14.5 -6.5t6.5 -14.5v-2398q0 -8 -6.5 -14.5t-14.5 -6.5h-87q-8 0 -14.5 6.5t-6.5 14.5v2398z" />
    <glyph glyph-name="com_duze_I_bok" horiz-adv-x="129" 
d="M0 2419q0 8 6.5 14.5t14.5 6.5h87q8 0 14.5 -6.5t6.5 -14.5v-2398q0 -8 -6.5 -14.5t-14.5 -6.5h-87q-8 0 -14.5 6.5t-6.5 14.5v2398z" />
    <glyph glyph-name="com_currency" horiz-adv-x="1789" 
d="M601 1565q141 136 324 212t385 76v-109q-182 0 -349 -72t-288 -193.5t-192.5 -290t-71.5 -354.5h-119q0 190 67 362.5t188 310.5l-390 364q-8 7 -8.5 16t6.5 16l49 51q7 7 16.5 6.5t16.5 -8.5z" />
    <glyph glyph-name="com_infinity" horiz-adv-x="2400" 
d="M245 1055q0 226 154.5 382.5t379.5 156.5q88 0 166 -22.5t141 -61.5t122 -98.5t106.5 -125.5t96.5 -151v-80h-59q-83 142 -164.5 235t-186.5 149t-225 56q-119 0 -216 -60t-150.5 -160.5t-53.5 -219.5h-111z" />
    </font>
</defs>
</svg>
