<?xml version="1.0" standalone="no"?>
<!DOCTYPE svg PUBLIC "-//W3C//DTD SVG 1.1//EN" "http://www.w3.org/Graphics/SVG/1.1/DTD/svg11.dtd" >
<svg xmlns="http://www.w3.org/2000/svg" xmlns:xlink="http://www.w3.org/1999/xlink" version="1.1">
<metadata>
Created by FontForge 20170731 at Fri Jun 24 01:07:06 2016
 By Aleksey,,,
Copyright (c) 2015 by Mateusz Machalski. All rights reserved.
</metadata>
<defs>
<font id="Migrena_Grotesque-Lightitalic" horiz-adv-x="2458" >
  <font-face 
    font-family="Migrena_Grotesque Light"
    font-weight="400"
    font-style="italic"
    font-stretch="normal"
    units-per-em="4000"
    panose-1="0 0 5 0 0 0 0 0 0 0"
    ascent="3200"
    descent="-800"
    x-height="1678"
    cap-height="2440"
    bbox="-2133.4 -960 4441.3 3474.6"
    underline-thickness="50"
    underline-position="-200"
    slope="-8"
    unicode-range="U+0020-25CA"
  />
<missing-glyph horiz-adv-x="1656" 
d="M1358 2560v-3311h-1050v3311h1050zM1103 2338h-547v-109h215v-123h-218v-109h550v109h-219v123h219v109zM884 1911h-331v-344h550v112h-219v232zM771 1798v-119h-109v119h109zM1103 1477h-550v-109h218v-122h-218v-110h331v232h219v109zM1103 1279h-110v-219h-440v-112
h550v331zM1103 875h-332v-186h113v76h109v-155h-331v265h-109v-374h550v374zM1103 302h-550v-374h550v374zM993 193v-156h-331v156h331zM1103 -148h-550v-110h232l-232 -155v-110h550v110h-338l232 155h106v110z" />
    <glyph glyph-name=".notdef" horiz-adv-x="1656" 
d="M1358 2560v-3311h-1050v3311h1050zM1103 2338h-547v-109h215v-123h-218v-109h550v109h-219v123h219v109zM884 1911h-331v-344h550v112h-219v232zM771 1798v-119h-109v119h109zM1103 1477h-550v-109h218v-122h-218v-110h331v232h219v109zM1103 1279h-110v-219h-440v-112
h550v331zM1103 875h-332v-186h113v76h109v-155h-331v265h-109v-374h550v374zM1103 302h-550v-374h550v374zM993 193v-156h-331v156h331zM1103 -148h-550v-110h232l-232 -155v-110h550v110h-338l232 155h106v110z" />
    <glyph glyph-name=".null" horiz-adv-x="0" 
 />
    <glyph glyph-name="nonmarkingreturn" horiz-adv-x="1333" 
 />
    <glyph glyph-name="space" unicode=" " horiz-adv-x="750" 
 />
    <glyph glyph-name="exclam" unicode="!" horiz-adv-x="758" 
d="M495 2407q2 14 13 23.5t26 9.5h139q15 0 23 -9.5t5 -23.5l-272 -1750q-7 -34 -38 -34h-86q-14 0 -22 9.5t-7 24.5zM257 -30q-55 0 -92 38.5t-37 93.5q0 65 52 114.5t118 49.5q55 0 92 -38.5t37 -93.5q0 -65 -51.5 -114.5t-118.5 -49.5z" />
    <glyph glyph-name="quotedbl" unicode="&#x22;" horiz-adv-x="1177" 
d="M466 2477q1 14 12 23.5t25 9.5h115q15 0 23.5 -9.5t5.5 -23.5l-126 -741q-7 -34 -38 -34h-76q-15 0 -22.5 9.5t-5.5 24.5zM990 2477q1 14 12 23.5t25 9.5h115q15 0 23.5 -9.5t5.5 -23.5l-126 -741q-7 -34 -38 -34h-76q-15 0 -22.5 9.5t-5.5 24.5z" />
    <glyph glyph-name="numbersign" unicode="#" horiz-adv-x="2588" 
d="M2437 1656q14 0 21.5 -9.5t3.5 -24.5l-27 -117q-3 -15 -14.5 -24.5t-26.5 -9.5h-404l-163 -682h386q15 0 22 -9.5t3 -24.5l-26 -117q-3 -15 -15 -24.5t-26 -9.5h-388l-137 -571q-9 -33 -42 -33h-139q-15 0 -22 9.5t-3 23.5l137 571h-733l-137 -571q-3 -14 -15 -23.5
t-27 -9.5h-139q-15 0 -22 9.5t-3 23.5l137 571h-405q-14 0 -21.5 9.5t-4.5 24.5l27 117q4 15 15.5 24.5t25.5 9.5h407l163 682h-388q-15 0 -22 9.5t-4 24.5l27 117q3 15 15 24.5t26 9.5h390l137 571q4 14 15.5 23.5t25.5 9.5h140q14 0 21.5 -9.5t3.5 -23.5l-137 -571h733
l137 571q9 33 41 33h139q15 0 22.5 -9.5t3.5 -23.5l-137 -571h403zM1621 789l163 682h-733l-163 -682h733z" />
    <glyph glyph-name="dollar" unicode="$" horiz-adv-x="2203" 
d="M2115 2250q28 -17 8 -48l-71 -117q-18 -32 -53 -8q-61 43 -117.5 74.5t-139.5 66.5t-185.5 53.5t-217.5 18.5q-175 0 -313 -39t-227 -108t-135.5 -162.5t-46.5 -204.5q0 -57 19 -105.5t44.5 -84t78 -69.5t92 -55t116 -47t121 -39t134.5 -38q81 -22 123 -34t118 -37
t118 -44t105 -50.5t98.5 -62.5t78 -75t64 -91.5t37 -109t15.5 -130.5q0 -141 -49.5 -258.5t-135 -200.5t-202.5 -142.5t-249 -90.5t-278 -39l-56 -401q-2 -13 -13.5 -23.5t-24.5 -10.5h-98q-13 0 -22 10.5t-7 23.5l57 399q-438 16 -763 266q-30 20 -11 49l66 110
q24 33 51 13q80 -59 148 -99.5t160.5 -78.5t204 -57t244.5 -19q156 0 288.5 30t236 90.5t162.5 160.5t59 231q0 210 -193 332q-114 72 -364 144q-262 75 -280 81q-259 83 -376 194q-138 131 -138 336q0 295 227 490t629 222l52 377q2 14 13.5 23.5t24.5 9.5h98
q14 0 22.5 -10t6.5 -23l-53 -374q122 -3 229 -23t194 -54t147.5 -66t128.5 -76z" />
    <glyph glyph-name="percent" unicode="%" horiz-adv-x="3303" 
d="M2539 2495q11 -5 14 -18.5t-4 -25.5l-1536 -2540q-8 -13 -22 -17.5t-26 0.5l-84 43q-11 6 -14 19t4 25l1536 2540q7 12 21.5 17t25.5 -1zM1469 1702q-49 -349 -239 -558t-442 -209t-383.5 209t-82.5 558t239 558.5t442 209.5q166 0 282.5 -92.5t166 -268t17.5 -407.5z
M811 1103q187 0 310.5 161t162.5 438t-39 438t-265 161q-185 0 -309.5 -161t-163.5 -438t40 -438t264 -161zM2622 1505q124 0 222.5 -53.5t160.5 -153t85.5 -241.5t-2.5 -319q-49 -349 -239 -558.5t-442 -209.5q-165 0 -282 92.5t-166.5 268t-17.5 407.5q50 349 239.5 558
t441.5 209zM2431 139q187 0 310 161t162 438t-39 438t-265 161q-185 0 -309.5 -161t-163.5 -438q-26 -182 0 -316t103.5 -208.5t201.5 -74.5z" />
    <glyph glyph-name="ampersand" unicode="&#x26;" horiz-adv-x="2297" 
d="M2124 1199q13 -3 18.5 -14t1.5 -25q-151 -411 -374 -695l305 -387q19 -25 4 -51.5t-49 -26.5h-129q-22 0 -39 20l-231 289q-357 -349 -816 -349q-306 0 -488.5 155.5t-182.5 409.5q0 139 47.5 263.5t138 228t202 188.5t258.5 166q-159 239 -159 456q0 153 61.5 277.5
t166 203t238.5 120.5t284 42q142 0 259 -41.5t240 -127.5q25 -16 6 -45l-64 -101q-8 -14 -22.5 -18t-27.5 4q-101 80 -200 117t-221 37q-232 0 -367.5 -118.5t-135.5 -322.5q0 -225 215 -494l593 -752q178 241 306 590q4 16 17.5 24t28.5 4zM849 147q373 0 671 301l-630 787
q-274 -154 -395 -308.5t-121 -364.5q0 -189 125 -302t350 -113z" />
    <glyph glyph-name="quotesingle" unicode="'" horiz-adv-x="652" 
d="M466 2477q1 14 12 23.5t25 9.5h115q15 0 23.5 -9.5t5.5 -23.5l-126 -741q-7 -34 -38 -34h-76q-15 0 -22.5 9.5t-5.5 24.5z" />
    <glyph glyph-name="parenleft" unicode="(" horiz-adv-x="1049" 
d="M405 593q0 -300 64 -604t183 -547q12 -27 -17 -42l-75 -37q-25 -11 -36 9q-143 249 -218 578.5t-75 667.5q0 1001 738 1921q17 21 39 9l64 -37q25 -15 5 -42q-672 -879 -672 -1876z" />
    <glyph glyph-name="parenright" unicode=")" horiz-adv-x="1050" 
d="M557 2539q140 -266 215.5 -600t75.5 -670q0 -511 -186.5 -1000t-549.5 -897q-16 -20 -38 -9l-64 37q-25 14 -6 42q343 427 507 898t164 962q0 307 -63 614.5t-182 552.5q-13 27 17 42l74 37q26 12 36 -9z" />
    <glyph glyph-name="asterisk" unicode="*" horiz-adv-x="1704" 
d="M1697 2477q2 -12 -5 -22.5t-19 -14.5l-491 -152h1l233 -399q6 -11 2.5 -22.5t-14.5 -18.5l-88 -58q-11 -7 -22.5 -5.5t-17.5 11.5l-234 399l-346 -399q-21 -23 -42 -6l-71 58q-9 7 -10 18.5t8 22.5l347 399l-448 152q-11 4 -15 14.5t2 22.5l43 94q6 12 17 17.5t22 1.5
l448 -153l70 494q1 12 11 20.5t22 8.5h99q13 0 20 -8.5t5 -20.5l-70 -494l-94 -111l95 111l491 153q11 4 21.5 -1.5t12.5 -17.5z" />
    <glyph glyph-name="plus" unicode="+" horiz-adv-x="2056" 
d="M1845 1148q15 0 23 -9.5t6 -23.5l-14 -99q-2 -14 -12.5 -23.5t-25.5 -9.5h-692l-97 -691q-2 -15 -12.5 -24.5t-25.5 -9.5h-98q-15 0 -23 9.5t-6 24.5l97 691h-691q-15 0 -22.5 9.5t-5.5 23.5l13 99q1 14 12.5 23.5t25.5 9.5h692l97 691q1 15 12 24.5t26 9.5h98
q14 0 22 -9.5t7 -24.5l-97 -691h691z" />
    <glyph glyph-name="comma" unicode="," horiz-adv-x="756" 
d="M296 266q50 0 88 -34.5t38 -107.5q0 -84 -46 -193.5t-128.5 -217t-178.5 -175.5q-28 -17 -44 7l-8 12q-14 24 10 46q81 70 135 156.5t54 167.5q0 24 -9.5 39t-33.5 34q-48 38 -48 98q0 68 52 118t119 50z" />
    <glyph glyph-name="hyphen" unicode="-" horiz-adv-x="1754" 
d="M260 873q-15 0 -23.5 9.5t-6.5 24.5l17 117q2 15 13 24.5t25 9.5h1246q14 0 22 -9.5t6 -24.5l-16 -117q-1 -15 -12 -24.5t-26 -9.5h-1245z" />
    <glyph glyph-name="period" unicode="." horiz-adv-x="758" 
d="M257 -30q-55 0 -92 38.5t-37 93.5q0 65 52 114.5t118 49.5q55 0 92 -38.5t37 -93.5q0 -65 -51.5 -114.5t-118.5 -49.5z" />
    <glyph glyph-name="slash" unicode="/" horiz-adv-x="1513" 
d="M1550 2629q7 13 21.5 17.5t26.5 -0.5l84 -43q11 -5 14 -18.5t-4 -25.5l-1608 -2648q-7 -13 -21 -17.5t-26 0.5l-84 43q-11 5 -14 18.5t4 25.5z" />
    <glyph glyph-name="zero" unicode="0" horiz-adv-x="2238" 
d="M1348 2470q201 0 359 -87t255.5 -249t134 -393.5t-5.5 -520.5q-40 -284 -140.5 -519.5t-244 -395t-326 -247.5t-383.5 -88t-358.5 87t-255.5 249t-134.5 393.5t5.5 520.5q40 284 141 519.5t244.5 395t325.5 247.5t383 88zM1023 155q220 0 396 133.5t289 372t158 559.5
t-1 559.5t-184.5 372t-358.5 133.5q-217 0 -393.5 -133.5t-290 -372.5t-158.5 -559t1.5 -559t185.5 -372.5t356 -133.5z" />
    <glyph glyph-name="one" unicode="1" horiz-adv-x="1565" 
d="M1271 2440q13 0 22 -10t7 -23l-334 -2374q-1 -13 -13 -23t-25 -10h-149q-13 0 -22 10t-7 23l307 2186l-504 -243q-14 -7 -27 -2.5t-18 18.5l-33 102q-4 13 2.5 25.5t19.5 18.5l602 292q23 10 46 10h126z" />
    <glyph glyph-name="two" unicode="2" horiz-adv-x="2087" 
d="M1946 1807q-21 -151 -93.5 -301.5t-187 -297t-293.5 -314t-386.5 -333.5t-494.5 -376h1275q13 0 21.5 -10.5t7.5 -23.5l-17 -118q-2 -13 -13.5 -23t-24.5 -10h-1626q-15 0 -22.5 9.5t-5.5 23.5l4 38q4 30 20 41q564 403 906.5 700t512 531t198.5 445q33 235 -85 366
t-383 131q-109 0 -213 -26t-196 -75.5t-169 -106t-158 -131.5q-13 -11 -23 -11t-15 4.5t-13 15.5l-67 90q-3 4 -4.5 7.5t-0.5 7.5t2 6.5t5 7t6 6.5t7.5 7t6.5 6q89 82 177 144.5t197.5 118t238 85t268.5 29.5q184 0 319 -50.5t209.5 -140.5t102 -209t7.5 -263z" />
    <glyph glyph-name="three" unicode="3" horiz-adv-x="2130" 
d="M1386 1258q271 -51 405.5 -188t134.5 -351q0 -226 -119.5 -396.5t-337 -261.5t-505.5 -91q-155 0 -286.5 30t-231.5 85.5t-173.5 118t-139.5 143.5q-9 11 -13 16.5t-4 14.5t8 17l99 100q19 18 28.5 20t25.5 -12q49 -59 97.5 -106.5t115 -94t137.5 -77.5t163.5 -50.5
t195.5 -19.5q213 0 375 62.5t254.5 186.5t92.5 295q0 79 -23.5 145.5t-79 127t-140.5 103t-215.5 68.5t-297.5 28q-15 1 -23.5 10.5t-6.5 23.5l12 85q1 15 12.5 24.5t26.5 9.5q174 3 315.5 35.5t236.5 87t159.5 128t93 155t28.5 171.5q0 184 -125 284t-371 100
q-109 0 -209 -22t-190 -66t-165.5 -94.5t-160.5 -121.5q-21 -13 -30.5 -10.5t-20.5 18.5l-63 90q-14 19 22 48q402 343 868 343q170 0 299 -40.5t207 -113t116.5 -166.5t38.5 -207q0 -242 -164.5 -423.5t-471.5 -261.5z" />
    <glyph glyph-name="four" unicode="4" horiz-adv-x="2219" 
d="M2031 773q15 0 23 -9.5t6 -23.5l-16 -118q-2 -15 -13 -24.5t-26 -9.5h-380l-78 -555q-1 -13 -13 -23t-25 -10h-149q-13 0 -22 10t-7 23l78 555h-1300q-15 0 -23 9.5t-6 24.5l15 108q2 10 9 19l1570 1671q18 20 47 20h130q13 0 22 -10t7 -23l-230 -1634h381zM365 773h1069
l190 1347z" />
    <glyph glyph-name="five" unicode="5" horiz-adv-x="2166" 
d="M2015 2440q13 0 22 -10t7 -23l-17 -118q-2 -14 -13.5 -24t-24.5 -10h-1148l-231 -908q148 72 287 102.5t298 30.5q129 -2 242 -29t208.5 -80.5t164 -129.5t107 -182t38.5 -233q0 -158 -49 -294t-139 -238.5t-213.5 -175.5t-275 -110.5t-320.5 -37.5q-149 0 -273 26
t-221 76.5t-170.5 111.5t-143.5 143q-28 29 -9 48l99 100q18 18 28 20t26 -12q64 -76 128.5 -131t147 -102t185.5 -71t225 -24q155 0 291 42.5t240 121.5t164.5 202.5t60.5 276.5q0 231 -163 370t-436 139q-162 0 -310.5 -38t-305.5 -123q-15 -7 -26 -1l-102 45
q-20 10 -14 32l300 1185q2 14 12.5 23.5t25.5 9.5h1298z" />
    <glyph glyph-name="six" unicode="6" horiz-adv-x="2121" 
d="M1221 1544q231 0 400 -103.5t244.5 -282t44.5 -398.5q-23 -163 -107 -308.5t-211 -251.5t-296.5 -168t-355.5 -62q-251 0 -431.5 110t-261.5 312.5t-44 465.5q53 378 192 679t349 507t490 315.5t612 109.5q15 0 23.5 -9.5t6.5 -24.5l-16 -116q-2 -14 -13 -23.5t-25 -10.5
q-517 -7 -859.5 -290t-496.5 -842q131 178 328.5 284.5t426.5 106.5zM966 155q140 0 266 48t219 129.5t154 192.5t79 235q18 125 -10.5 235t-96 191t-178.5 127.5t-253 46.5q-140 0 -269.5 -51t-224.5 -134.5t-158 -191.5t-79 -223q-23 -166 36 -303.5t194 -219.5t321 -82z
" />
    <glyph glyph-name="seven" unicode="7" horiz-adv-x="2123" 
d="M519 0q-24 0 -32.5 18.5t5.5 41.5l1343 2195h-1457q-13 0 -21.5 10t-6.5 24l16 118q1 13 12.5 23t24.5 10h1695q15 0 23 -9.5t6 -23.5l-5 -38q-2 -20 -19 -41l-1414 -2312q-11 -16 -29 -16h-141z" />
    <glyph glyph-name="eight" unicode="8" horiz-adv-x="2141" 
d="M1447 1287q95 -27 177 -74t149 -115t105.5 -164t38.5 -209q0 -164 -70.5 -304.5t-196.5 -239.5t-307 -155t-395 -56q-362 0 -570 164t-208 435q0 119 37.5 224t99.5 182.5t147 140.5t175 103.5t190 67.5q-82 24 -152.5 65t-130 100.5t-93.5 144t-34 183.5
q0 139 64.5 264.5t178.5 220t282.5 150t365.5 55.5q168 0 304.5 -44t225.5 -120t137 -177t48 -217q0 -103 -33.5 -194t-88 -158.5t-129.5 -122.5t-153 -91t-164 -59zM619 1782q0 -181 146.5 -294.5t380.5 -113.5q179 0 328.5 64t237.5 180t88 260q0 181 -143 300t-381 119
q-186 0 -337.5 -69.5t-235.5 -187t-84 -258.5zM974 155q214 0 380.5 73.5t258 205t91.5 298.5q0 207 -157 332.5t-428 125.5q-324 0 -526.5 -162t-202.5 -416q0 -206 156.5 -331.5t427.5 -125.5z" />
    <glyph glyph-name="nine" unicode="9" horiz-adv-x="2090" 
d="M1273 2469q184 0 332 -64t243 -179t134.5 -281t11.5 -363q-51 -361 -184.5 -653.5t-338.5 -499t-485.5 -318t-614.5 -111.5q-15 0 -23.5 9.5t-6.5 24.5l16 116q2 14 13 24t26 10q512 7 846.5 285t486.5 812q-129 -176 -321.5 -281t-415.5 -105q-226 0 -391.5 103.5
t-239 282.5t-42.5 399q23 163 106 308.5t207.5 251.5t291.5 167.5t349 61.5zM1067 1080q137 0 263.5 50.5t219 134t154.5 192t78 223.5q23 166 -34.5 303.5t-188.5 219.5t-312 82t-335 -82t-249.5 -219.5t-118.5 -303.5q-24 -168 29.5 -303.5t182 -216t311.5 -80.5z" />
    <glyph glyph-name="colon" unicode=":" horiz-adv-x="758" 
d="M460 1412q-55 0 -92 38.5t-37 93.5q0 65 52 114.5t118 49.5q55 0 92 -38.5t37 -93.5q0 -65 -51.5 -114.5t-118.5 -49.5zM257 -30q-55 0 -92 38.5t-37 93.5q0 65 52 114.5t118 49.5q55 0 92 -38.5t37 -93.5q0 -65 -51.5 -114.5t-118.5 -49.5z" />
    <glyph glyph-name="semicolon" unicode=";" horiz-adv-x="756" 
d="M455 1412q-55 0 -92 38.5t-37 93.5q0 65 52 114.5t118 49.5q55 0 92 -38.5t37 -93.5q0 -65 -51.5 -114.5t-118.5 -49.5zM296 266q50 0 88 -34.5t38 -107.5q0 -84 -46 -193.5t-128.5 -217t-178.5 -175.5q-28 -17 -44 7l-8 12q-14 24 10 46q81 70 135 156.5t54 167.5
q0 24 -9.5 39t-33.5 34q-48 38 -48 98q0 68 52 118t119 50z" />
    <glyph glyph-name="less" unicode="&#x3c;" horiz-adv-x="2056" 
d="M1955 1689q-1 -9 -7.5 -15.5t-12.5 -9.5t-19 -8l-1469 -617l1296 -617q12 -6 16.5 -8.5t9 -9t3.5 -15.5l-20 -135q-2 -15 -12.5 -22.5t-23.5 -1.5l-1450 700q-31 14 -27 39l19 140q4 24 39 39l1646 700q15 6 23.5 -1.5t6.5 -22.5z" />
    <glyph glyph-name="equal" unicode="=" horiz-adv-x="2179" 
d="M355 1348q-14 0 -22 9t-7 24l15 98q1 15 12 24.5t25 9.5h1548q15 0 23 -9.5t6 -24.5l-14 -98q-1 -15 -12 -24t-26 -9h-1548zM252 613q-14 0 -22.5 9.5t-6.5 24.5l14 98q2 15 13 24t25 9h1548q15 0 22.5 -9t5.5 -24l-13 -98q-1 -15 -12 -24.5t-26 -9.5h-1548z" />
    <glyph glyph-name="greater" unicode="&#x3e;" horiz-adv-x="2056" 
d="M340 1689l19 135q2 15 13.5 22.5t23.5 1.5l1450 -700q32 -15 28 -39l-20 -140q-4 -25 -39 -39l-1646 -700q-14 -6 -23.5 1.5t-7.5 22.5l19 135q1 9 8 15.5t12 9t19 8.5l1469 617l-1295 617q-12 6 -16.5 8.5t-9.5 9t-4 15.5z" />
    <glyph glyph-name="question" unicode="?" horiz-adv-x="1738" 
d="M1602 1910q0 182 -113.5 278.5t-335.5 96.5q-188 0 -347.5 -69.5t-307.5 -193.5q-14 -11 -24 -11.5t-15 4t-13 15.5l-62 87l-4.5 13.5t4.5 12.5t10 11.5l12 10.5q173 143 363.5 224t422.5 81q297 0 464.5 -145t167.5 -390q0 -137 -41 -249.5t-108.5 -192t-150.5 -150
t-171.5 -140t-166 -143.5t-139.5 -179t-88 -230q-2 -12 -11.5 -20t-20.5 -8l-101 1q-10 0 -16.5 9.5t-6.5 23.5q19 126 73.5 235.5t126 190t154 155.5t161 146t142.5 146t103 172t39 208zM801 -30q-55 0 -92 38.5t-37 93.5q0 65 52 114.5t118 49.5q55 0 92 -38.5t37 -93.5
q0 -65 -51.5 -114.5t-118.5 -49.5z" />
    <glyph glyph-name="at" unicode="@" horiz-adv-x="3216" 
d="M2047 -563q-2 -26 -27 -29q-296 -60 -547 -60q-194 0 -363 36.5t-300 102t-238 158t-181.5 203t-125 238.5t-74 263.5t-23.5 278.5q0 228 59 438t165.5 382t257.5 313t332 237t392.5 148t436.5 52q376 -1 653 -133t430.5 -393.5t153.5 -628.5q0 -154 -27 -303.5
t-83 -283.5t-134.5 -235.5t-188 -161t-235.5 -59.5q-106 0 -182.5 32.5t-119 92t-61 132.5t-17.5 164q-33 -73 -90 -145t-131.5 -135t-170.5 -102t-193 -39q-87 0 -164.5 21t-146.5 68.5t-119 117.5t-79 174t-29 232q0 207 65 388.5t180 313t281 207.5t359 75q195 0 465 -71
q25 -7 23 -33l-89 -958q-37 -391 237 -391q95 0 175.5 53t135 141t93 204t56 239.5t17.5 248.5q0 503 -279 758.5t-796 255.5q-244 0 -466 -65t-402 -189t-313 -294.5t-205.5 -391.5t-72.5 -469q0 -182 36.5 -343t122.5 -308t215 -252.5t326.5 -168.5t445.5 -64
q232 0 521 59q19 4 32.5 -7.5t11.5 -31.5zM1444 135q103 0 201 46.5t177.5 131t133.5 213.5t68 282l54 595q-185 60 -338 60q-158 0 -290 -70t-217.5 -187.5t-133 -268t-47.5 -315.5q0 -131 31 -227.5t86 -152t123.5 -81.5t151.5 -26z" />
    <glyph glyph-name="A" unicode="A" 
d="M2282 39q6 -18 -3.5 -28.5t-27.5 -10.5h-177q-30 0 -36 26l-216 740h-1196l-434 -740q-16 -26 -43 -26h-174q-19 0 -26 10t3 29l1449 2415q16 26 42 26h62q29 0 36 -26zM729 941h1042l-346 1186z" />
    <glyph glyph-name="B" unicode="B" horiz-adv-x="2334" 
d="M1597 1250q153 -10 272.5 -72.5t191 -179t71.5 -271.5q0 -116 -39 -223t-118.5 -198.5t-192 -159.5t-269 -107t-339.5 -39h-919h-104q-13 0 -22 10t-7 23l334 2374q1 13 12.5 23t25.5 10h149h804q191 0 338 -41.5t238 -116t137 -172.5t46 -216q0 -113 -32.5 -211
t-89.5 -170t-134.5 -127.5t-166 -88.5t-186.5 -47zM1977 1863q0 67 -18.5 124t-62 107t-110.5 85t-170 55.5t-234 20.5h-731l-130 -918h743q151 0 271.5 26t202.5 72t136 112.5t78.5 144.5t24.5 171zM1161 185q164 0 293 30t213 80t139.5 121.5t78.5 149t23 167.5
q0 197 -153.5 309t-476.5 112h-782l-137 -969h802z" />
    <glyph glyph-name="C" unicode="C" horiz-adv-x="2615" 
d="M2388 652q30 -14 9 -47q-407 -635 -1093 -635q-218 0 -411 76.5t-336.5 214.5t-227 343.5t-83.5 449.5q0 251 79 477t215.5 395t315 293t384 187.5t415.5 63.5q686 0 915 -635q11 -33 -22 -47l-123 -55q-32 -14 -44 18q-193 534 -752 534q-153 0 -299.5 -40.5t-274 -115
t-235.5 -184t-184.5 -242t-119.5 -295.5t-43 -339q0 -203 64 -374t176.5 -289.5t271.5 -184.5t345 -66q555 0 902 534q20 32 50 18z" />
    <glyph glyph-name="D" unicode="D" horiz-adv-x="2559" 
d="M1337 2440q232 0 429.5 -70.5t343 -202t228 -331t82.5 -444.5q0 -257 -76 -481.5t-210 -389.5t-313.5 -283.5t-390.5 -178t-436 -59.5h-749h-94q-13 0 -22 10t-7 23l334 2374q1 13 12.5 23t25.5 10h149h694zM1000 185q198 0 378.5 52.5t328.5 155t257 245t169 331
t60 403.5q0 272 -113.5 473t-316.5 305.5t-471 104.5h-641l-292 -2070h641z" />
    <glyph glyph-name="E" unicode="E" horiz-adv-x="2187" 
d="M2143 2440q15 0 23 -9.5t6 -23.5l-16 -118q-7 -34 -39 -34h-1466l-126 -896h1306q15 0 23 -9.5t6 -24.5l-16 -118q-7 -33 -39 -33h-1306l-140 -989h1507q15 0 23 -9.5t6 -24.5l-16 -118q-7 -33 -39 -33h-1599h-90q-13 0 -22 10t-7 23l334 2374q1 13 12.5 23t25.5 10h149
h1500z" />
    <glyph glyph-name="F" unicode="F" horiz-adv-x="2088" 
d="M2103 2440q15 0 23 -9.5t6 -23.5l-16 -118q-7 -34 -39 -34h-1426l-143 -1016h1346q15 0 23 -9.5t6 -24.5l-16 -118q-3 -14 -13.5 -23.5t-24.5 -9.5h-1347l-144 -1021q-2 -13 -13.5 -23t-24.5 -10h-149q-13 0 -22 10t-7 23l334 2374q1 13 12.5 23t25.5 10h149h1460z" />
    <glyph glyph-name="G" unicode="G" horiz-adv-x="2672" 
d="M2435 1070q15 0 23 -9.5t6 -24.5l-106 -754q-250 -157 -503 -234.5t-551 -77.5q-218 0 -411 76.5t-336.5 214.5t-227 343.5t-83.5 449.5q0 251 79 477t215.5 395t315 293t384 187.5t415.5 63.5q333 0 553.5 -133.5t362.5 -426.5q14 -30 -22 -48l-123 -54q-33 -14 -45 18
q-120 242 -301.5 350.5t-450.5 108.5q-153 0 -299.5 -40.5t-274 -115t-235.5 -184t-184.5 -242t-119.5 -295.5t-43 -339q0 -203 64 -374t176.5 -289.5t271.5 -184.5t345 -66q237 0 434.5 50t409.5 165l93 666q2 15 13 24.5t26 9.5h129z" />
    <glyph glyph-name="H" unicode="H" horiz-adv-x="2547" 
d="M2503 2440q13 0 22 -10t7 -23l-333 -2374q-2 -13 -14 -23t-25 -10h-149q-13 0 -21.5 10t-6.5 23l160 1141h-1644l-161 -1141q-2 -13 -13.5 -23t-24.5 -10h-149q-13 0 -22 10t-7 23l334 2374q1 13 12.5 23t25.5 10h149q13 0 21.5 -10t7.5 -23l-147 -1048h1644l147 1048
q1 13 13 23t25 10h149z" />
    <glyph glyph-name="I" unicode="I" horiz-adv-x="687" 
d="M456 2407q2 13 13.5 23t24.5 10h149q13 0 22 -10t7 -23l-334 -2374q-2 -13 -13.5 -23t-24.5 -10h-149q-13 0 -22 10t-7 23z" />
    <glyph glyph-name="J" unicode="J" horiz-adv-x="1832" 
d="M1789 2440q14 0 22 -9.5t6 -23.5l-232 -1648q-53 -377 -285.5 -583t-598.5 -206q-255 0 -419 117.5t-241 323.5q-11 32 22 47l129 56q30 13 43 -16q63 -162 178 -252.5t310 -90.5q562 0 649 624l229 1628q2 14 13 23.5t25 9.5h150z" />
    <glyph glyph-name="K" unicode="K" horiz-adv-x="2326" 
d="M644 2440q13 0 21.5 -10t6.5 -23l-333 -2374q-2 -13 -13.5 -23t-24.5 -10h-149q-13 0 -22.5 10t-7.5 23l335 2374q2 13 13.5 23t24.5 10h149zM2063 41q12 -16 4.5 -28.5t-29.5 -12.5h-191q-27 0 -43 20l-982 1221l1314 1179q20 20 48 20h177q22 0 26 -12t-14 -29
l-1279 -1150z" />
    <glyph glyph-name="L" unicode="L" horiz-adv-x="1973" 
d="M1753 185q15 0 23 -9.5t5 -24.5l-16 -118q-2 -14 -12.5 -23.5t-25.5 -9.5h-1575q-13 0 -22.5 10t-7.5 23l335 2374q2 13 13.5 23t24.5 10h149q13 0 22 -10t7 -23l-313 -2222h1393z" />
    <glyph glyph-name="M" unicode="M" horiz-adv-x="2948" 
d="M2804 2454q22 26 48 26h57q15 0 23 -9.5t6 -23.5l-339 -2414q-2 -14 -13 -23.5t-26 -9.5h-149q-14 0 -22 9.5t-6 23.5l274 1954l-1212 -1529q-15 -17 -27.5 -16.5t-21.5 16.5l-783 1529l-275 -1954q-2 -14 -12.5 -23.5t-25.5 -9.5h-149q-15 0 -23 9.5t-6 23.5l340 2414
q1 14 12 23.5t25 9.5h47q26 0 41 -26l880 -1674z" />
    <glyph glyph-name="N" unicode="N" horiz-adv-x="2587" 
d="M2543 2440q15 0 23 -9.5t6 -23.5l-339 -2414q-2 -14 -12.5 -23.5t-25.5 -9.5h-10q-27 0 -42 17l-1523 2057l-282 -2001q-2 -14 -12.5 -23.5t-25.5 -9.5h-149q-15 0 -23 9.5t-6 23.5l340 2414q1 14 12 23.5t25 9.5h10q27 0 42 -17l1524 -2057l281 2001q1 14 12.5 23.5
t25.5 9.5h149z" />
    <glyph glyph-name="O" unicode="O" horiz-adv-x="2852" 
d="M1655 2470q218 0 411 -76.5t336.5 -214.5t227 -343.5t83.5 -449.5q0 -210 -55.5 -403.5t-153.5 -347t-232 -280t-290.5 -210.5t-329.5 -129.5t-348 -45.5q-218 0 -411 76.5t-336.5 214.5t-227 343.5t-83.5 449.5q0 251 79 477t215.5 395t315 293t384 187.5t415.5 63.5z
M1330 155q153 0 300 40.5t274.5 115t235 184t184 242t119.5 295.5t43 339q0 203 -63.5 374t-176.5 289.5t-272 184.5t-345 66q-153 0 -299.5 -40.5t-274 -115t-235.5 -184t-184.5 -242t-119.5 -295.5t-43 -339q0 -203 64 -374t176.5 -289.5t271.5 -184.5t345 -66z" />
    <glyph glyph-name="P" unicode="P" horiz-adv-x="2206" 
d="M1378 2440q167 0 304 -34.5t232 -95t160 -145t95 -182.5t30 -208q0 -135 -40 -259t-124 -232.5t-204 -189t-291.5 -126.5t-374.5 -46h-702l-125 -889q-2 -13 -13.5 -23t-24.5 -10h-149q-13 0 -22 10t-7 23l334 2374q1 13 12.5 23t25.5 10h149h735zM1151 1106
q177 0 318.5 36.5t233.5 97.5t153.5 146t88 177t26.5 195q0 105 -35.5 191.5t-110.5 156.5t-205.5 109.5t-306.5 39.5h-662l-162 -1149h662z" />
    <glyph glyph-name="Q" unicode="Q" horiz-adv-x="2852" 
d="M2713 1386q0 -249 -77.5 -473t-212 -393.5t-310.5 -292t-379 -188.5q40 -174 163.5 -267.5t296.5 -93.5q34 0 29 -33l-20 -140q-3 -19 -12 -26.5t-28 -7.5q-83 0 -161.5 20t-150.5 62.5t-129.5 103.5t-98.5 148t-57 191q-132 -26 -262 -26q-218 0 -411 76.5t-336.5 214.5
t-227 343.5t-83.5 449.5q0 251 79 477t215.5 395t315 293t384 187.5t415.5 63.5q218 0 411 -76.5t336.5 -214.5t227 -343.5t83.5 -449.5zM1330 155q153 0 300 40.5t274.5 115t235 184t184 242t119.5 295.5t43 339q0 203 -63.5 374t-176.5 289.5t-272 184.5t-345 66
q-153 0 -299.5 -40.5t-274 -115t-235.5 -184t-184.5 -242t-119.5 -295.5t-43 -339q0 -203 64 -374t176.5 -289.5t271.5 -184.5t345 -66z" />
    <glyph glyph-name="R" unicode="R" horiz-adv-x="2342" 
d="M2162 1794q0 -143 -46 -271.5t-135 -236t-230.5 -185.5t-322.5 -112l488 -922q13 -24 -1.5 -45.5t-43.5 -21.5h-151q-19 0 -27 18l-493 945q-23 -1 -70 -1h-661l-131 -929q-2 -13 -13.5 -23t-24.5 -10h-149q-13 0 -22 10t-7 23l334 2374q1 13 12.5 23t25.5 10h149h695
q209 0 369.5 -50t258 -138.5t147 -204t49.5 -253.5zM1116 1146q178 0 319 34t233 92t153 139.5t87 171.5t26 193q0 82 -22 152.5t-71.5 131.5t-125 103.5t-188 67t-254.5 24.5h-622l-156 -1109h621z" />
    <glyph glyph-name="S" unicode="S" horiz-adv-x="2206" 
d="M617 1776q0 -57 19 -105.5t44.5 -84t78 -69.5t92 -55t116 -47t121 -39t134.5 -38q81 -22 123 -34t118 -37t118 -44t105 -50.5t98.5 -62.5t78 -75t64 -91.5t37 -109t15.5 -130.5q0 -150 -56.5 -274t-152.5 -208t-226.5 -142t-275.5 -84t-302 -26q-483 0 -828 267
q-30 20 -11 49l66 110q24 33 51 13q80 -59 148 -99.5t160.5 -78.5t204 -57t244.5 -19q156 0 288.5 30t236 90.5t162.5 160.5t59 231q0 210 -193 332q-114 72 -364 144q-262 75 -280 81q-259 83 -376 194q-138 131 -138 336q0 155 66 286t188.5 226.5t307.5 149.5t412 54
q132 0 246.5 -18.5t207.5 -54t156 -68.5t135 -79q28 -17 8 -48l-71 -117q-18 -32 -53 -8q-61 43 -117.5 74.5t-139.5 66.5t-185.5 53.5t-217.5 18.5q-175 0 -313 -39t-227 -108t-135.5 -162.5t-46.5 -204.5z" />
    <glyph glyph-name="T" unicode="T" horiz-adv-x="2408" 
d="M2424 2440q13 0 22 -10t7 -23l-16 -118q-2 -13 -13.5 -23.5t-24.5 -10.5h-888l-312 -2222q-2 -13 -13.5 -23t-24.5 -10h-149q-13 0 -22 10t-7 23l312 2222h-887q-13 0 -21.5 10t-6.5 24l16 118q1 13 12.5 23t24.5 10h1070h921z" />
    <glyph glyph-name="U" unicode="U" horiz-adv-x="2508" 
d="M2463 2440q13 0 22 -10t7 -23l-195 -1387q-36 -258 -137.5 -460t-254.5 -333t-349 -199t-426 -68t-407 68t-293 199t-160.5 333t-8.5 460l195 1387q1 13 12.5 23t25.5 10h149q13 0 21.5 -10t7.5 -23l-190 -1348q-61 -437 107 -675.5t567 -238.5t634 238.5t297 675.5
l189 1348q1 13 13 23t25 10h149z" />
    <glyph glyph-name="V" unicode="V" horiz-adv-x="2376" 
d="M2510 2440q18 0 25 -10t-3 -30l-1383 -2414q-14 -26 -43 -26h-62q-28 0 -35 26l-724 2415q-6 18 3 28.5t28 10.5h182q28 0 36 -26l590 -2097l1172 2097q14 26 43 26h171z" />
    <glyph glyph-name="W" unicode="W" horiz-adv-x="3312" 
d="M3447 2440q40 0 21 -39l-1145 -2415q-13 -26 -42 -26h-46q-28 0 -35 26l-395 1908l-925 -1908q-13 -26 -42 -26h-51q-29 0 -35 26l-469 2414q-8 40 32 40h166q29 0 36 -26l365 -2042l912 1903q12 25 42 25h45q29 0 35 -25l395 -1903l930 2043q12 25 42 25h164z" />
    <glyph glyph-name="X" unicode="X" horiz-adv-x="2680" 
d="M2548 2440q23 0 26.5 -12t-13.5 -29l-1088 -1162l777 -1196q12 -18 4 -29.5t-29 -11.5h-188q-17 0 -25.5 4.5t-17.5 17.5l-679 1045l-969 -1047q-18 -20 -44 -20h-170q-21 0 -26 11.5t12 31.5l1098 1176l-765 1178q-12 20 -3 31.5t31 11.5h184q17 0 25.5 -4.5t18.5 -19.5
l667 -1027l954 1029q21 22 49 22h171z" />
    <glyph glyph-name="Y" unicode="Y" horiz-adv-x="2299" 
d="M2431 2440q19 0 26.5 -11t-4.5 -29l-1186 -1528l-118 -839q-1 -13 -12.5 -23t-24.5 -10h-149q-13 0 -22.5 10t-7.5 23l117 832l-764 1536q-8 17 2 28t29 11h173q24 0 36 -26l659 -1351l1037 1351q18 26 43 26h166z" />
    <glyph glyph-name="Z" unicode="Z" horiz-adv-x="2412" 
d="M110 0q-14 0 -22 9.5t-6 23.5l5 38q3 24 20 41l1955 2143h-1555q-13 0 -22 10.5t-7 23.5l17 118q2 13 13.5 23t24.5 10h1850q15 0 23 -9.5t6 -23.5l-5 -38q-3 -24 -20 -41l-1954 -2143h1673q13 0 22 -10t7 -24l-16 -118q-2 -13 -14 -23t-25 -10h-1970z" />
    <glyph glyph-name="bracketleft" unicode="[" horiz-adv-x="1017" 
d="M1009 2414h-385l-410 -2917h385q15 0 23 -9.5t6 -24.5l-11 -78q-1 -15 -12 -24.5t-26 -9.5h-519q-13 0 -22 10t-7 24l442 3142q2 13 13.5 23t24.5 10h519q15 0 23 -9.5t6 -23.5l-11 -79q-2 -15 -13 -24.5t-26 -9.5z" />
    <glyph glyph-name="backslash" unicode="\" horiz-adv-x="2248" 
d="M452 2629l1607 -2648q7 -12 4 -25.5t-14 -18.5l-84 -43q-12 -5 -26 -0.5t-21 17.5l-1608 2648q-7 12 -4 25.5t14 18.5l84 43q12 5 26.5 0.5t21.5 -17.5z" />
    <glyph glyph-name="bracketright" unicode="]" horiz-adv-x="1018" 
d="M991 2560q13 0 21.5 -10t6.5 -23l-441 -3142q-2 -13 -13.5 -23.5t-24.5 -10.5h-519q-15 0 -23.5 9.5t-6.5 24.5l11 78q2 15 13 24.5t26 9.5h385l410 2917h-385q-15 0 -23 9.5t-6 24.5l11 79q1 14 12.5 23.5t25.5 9.5h520z" />
    <glyph glyph-name="asciicircum" unicode="^" horiz-adv-x="1697" 
d="M1769 1852q14 -23 -1 -47t-45 -24h-88q-16 0 -23 13l-505 886l-754 -886q-10 -13 -26 -13h-89q-29 0 -37.5 24t11.5 47l817 935q10 13 25 13h141q14 0 21 -13z" />
    <glyph glyph-name="underscore" unicode="_" horiz-adv-x="1433" 
d="M31 -165q-14 0 -22 9.5t-6 23.5l13 99q2 14 13 23.5t26 9.5h1347q15 0 23 -9.5t6 -23.5l-13 -99q-2 -14 -13 -23.5t-26 -9.5h-1348z" />
    <glyph glyph-name="grave" unicode="`" horiz-adv-x="735" 
d="M623 1913l-580 427q-12 7 -13 21t8 24l80 108q9 10 22.5 13t25.5 -4l553 -458q10 -8 12 -22.5t-6 -24.5l-53 -72q-10 -12 -24 -15.5t-25 3.5z" />
    <glyph glyph-name="a" unicode="a" horiz-adv-x="2104" 
d="M1986 1645l-147 -1045q-13 -95 -17 -169.5t4 -143t16.5 -111.5t27.5 -120q8 -36 -27 -48l-102 -34q-20 -7 -31 5q-96 179 -101 389q-123 -186 -309 -292t-409 -106q-153 0 -288 54.5t-234 151.5t-156.5 239.5t-57.5 310.5q0 171 54.5 326.5t149 273t218.5 205
t267.5 132.5t291.5 45q219 0 371.5 -107t224.5 -296l48 340q2 14 12.5 23.5t25.5 9.5h139q15 0 23 -9.5t6 -23.5zM937 155q151 0 290 60t241.5 162t163.5 246t61 304q0 262 -156 429t-407 167q-146 0 -282.5 -55.5t-242 -154.5t-169.5 -247.5t-64 -321.5q0 -134 43.5 -245.5
t119.5 -186t179.5 -116t222.5 -41.5z" />
    <glyph glyph-name="b" unicode="b" horiz-adv-x="2128" 
d="M1216 1708q153 0 288.5 -54.5t234.5 -151.5t156.5 -239.5t57.5 -310.5q0 -171 -54.5 -326.5t-149 -273t-218.5 -205t-267.5 -132.5t-291.5 -45q-219 0 -371.5 107t-224.5 297l-47 -341q-2 -14 -13 -23.5t-26 -9.5h-139q-15 0 -23 9.5t-6 23.5l351 2494q1 14 12 23.5
t25 9.5h140q14 0 22.5 -9.5t6.5 -23.5l-169 -1200q122 179 305 280t401 101zM979 155q116 0 227 35t206.5 103t167.5 161t113.5 217t41.5 263q0 178 -75 313t-202.5 205.5t-286.5 70.5q-151 0 -290 -59.5t-242 -161.5t-164 -246t-61 -305q0 -262 157 -429t408 -167z" />
    <glyph glyph-name="c" unicode="c" horiz-adv-x="1957" 
d="M1711 458q30 -15 10 -46q-122 -200 -321.5 -321t-465.5 -121q-163 0 -303 54t-241 151.5t-158.5 239.5t-57.5 310q0 172 53.5 327t148.5 273t220.5 205t275 132.5t307.5 45.5q265 0 430.5 -120.5t231.5 -321.5q11 -31 -23 -45l-128 -57q-30 -13 -43 15
q-55 161 -176.5 252.5t-311.5 91.5q-210 0 -384 -95t-279 -275.5t-105 -412.5q0 -268 160.5 -426.5t419.5 -158.5q362 0 580 344q23 28 48 15z" />
    <glyph glyph-name="d" unicode="d" horiz-adv-x="2128" 
d="M2101 2560q14 0 22.5 -9.5t6.5 -23.5l-351 -2494q-2 -14 -12.5 -23.5t-25.5 -9.5h-139q-15 0 -23 9.5t-6 23.5l44 316q-124 -178 -306 -278.5t-400 -100.5q-153 0 -288 54.5t-234 151.5t-156.5 239.5t-57.5 310.5q0 171 54.5 326.5t149 273t218.5 205t267.5 132.5
t291.5 45q219 0 371.5 -107t224.5 -296l171 1222q2 14 13 23.5t25 9.5h140zM957 155q151 0 290 60t241.5 162t163.5 246t61 304q0 262 -156 429t-407 167q-146 0 -282.5 -55.5t-242 -154.5t-169.5 -247.5t-64 -321.5q0 -134 43.5 -245.5t119.5 -186t179.5 -116t222.5 -41.5z
" />
    <glyph glyph-name="e" unicode="e" horiz-adv-x="2001" 
d="M1823 849h-1425q-6 -51 -6 -105q0 -134 43.5 -245.5t119.5 -186t179.5 -116t222.5 -41.5q378 0 584 334q20 30 48 16l113 -57q29 -15 9 -45q-131 -214 -334.5 -323.5t-455.5 -109.5q-213 0 -382 92.5t-266.5 265t-97.5 396.5q0 214 80 399.5t214 312.5t312 199.5
t372 72.5q171 0 306 -54t227.5 -158.5t129.5 -270t7 -376.5zM1129 1533q-234 0 -428 -144.5t-270 -384.5h1175q9 132 -23.5 234.5t-99 166t-156 96t-198.5 32.5z" />
    <glyph glyph-name="f" unicode="f" horiz-adv-x="1360" 
d="M1592 2474q15 -13 16.5 -24.5t-9.5 -26.5l-59 -86q-20 -30 -53 -10q-130 107 -291 107q-98 0 -174.5 -34t-127 -96t-81.5 -142t-45 -181l-43 -303h654q15 0 23 -9.5t6 -23.5l-16 -118q-2 -15 -13 -24t-25 -9h-654l-206 -1461q-2 -14 -13 -23.5t-25 -9.5h-140
q-14 0 -22 9.5t-6 23.5l206 1461h-269q-14 0 -22 9t-6 24l16 118q2 14 12.5 23.5t25.5 9.5h269l45 323q38 272 209.5 440t426.5 168q116 0 222 -39t169 -96z" />
    <glyph glyph-name="g" unicode="g" horiz-adv-x="1928" 
d="M1926 1748q16 0 22 -6.5t4 -21.5l-19 -131q-3 -27 -30 -27q-91 0 -167.5 -42.5t-117.5 -119.5q52 -91 52 -211q0 -128 -59.5 -246t-160.5 -204.5t-243 -138t-300 -51.5h-231q-176 0 -264.5 -63t-88.5 -161q0 -169 297 -169h289q355 0 543 -124.5t188 -343.5
q0 -126 -55 -232.5t-161 -186.5t-275 -125t-384 -45q-360 0 -548.5 123.5t-188.5 324.5q0 163 116 285.5t308 192.5q-320 33 -320 263q0 138 104 234.5t309 127.5q-114 61 -178.5 173t-64.5 244q0 172 100.5 319t277 234.5t387.5 87.5q150 0 271.5 -47t202.5 -132
q67 103 170 161t215 58zM928 714q142 0 264.5 60.5t196 166.5t73.5 232q0 162 -117 266t-301 104q-141 0 -264.5 -61.5t-197 -168t-73.5 -229.5q0 -160 116.5 -265t302.5 -105zM1440 -339q0 149 -140.5 239.5t-413.5 90.5q-186 0 -336 -52.5t-235.5 -145.5t-85.5 -209
q0 -153 140.5 -241.5t413.5 -88.5q320 0 488.5 111.5t168.5 295.5z" />
    <glyph glyph-name="h" unicode="h" horiz-adv-x="2014" 
d="M1272 1718q130 0 230 -32t164.5 -91.5t103 -144t45 -188.5t-8.5 -226l-141 -1003q-2 -14 -12.5 -23.5t-25.5 -9.5h-139q-15 0 -23.5 9.5t-6.5 23.5l131 927q80 574 -401 574q-168 0 -322 -77t-262.5 -214t-147.5 -307l-127 -903q-2 -14 -12.5 -23.5t-25.5 -9.5h-139
q-15 0 -23.5 9.5t-6.5 23.5l351 2494q2 14 13 23.5t25 9.5h140q14 0 22 -9.5t6 -23.5l-172 -1225q54 79 129.5 150.5t171.5 132.5t217 97t247 36z" />
    <glyph glyph-name="i" unicode="i" horiz-adv-x="768" 
d="M549 2018q-54 0 -91 38.5t-37 93.5q0 65 52 114.5t118 49.5q55 0 92 -38.5t37 -93.5q0 -65 -52 -114.5t-119 -49.5zM393 1645q2 14 12.5 23.5t25.5 9.5h139q15 0 23 -9.5t6 -23.5l-226 -1612q-2 -14 -13 -23.5t-25 -9.5h-140q-14 0 -22 9.5t-6 23.5z" />
    <glyph glyph-name="j" unicode="j" horiz-adv-x="745" 
d="M527 2018q-56 0 -92.5 38.5t-36.5 93.5q0 65 51.5 114.5t118.5 49.5q55 0 92 -38.5t37 -93.5q0 -65 -52 -114.5t-118 -49.5zM-299 -882q-38 0 -33 34l14 103q3 27 37 33q77 5 137 32t111.5 83t86.5 150.5t54 227.5l262 1864q2 14 13 23.5t26 9.5h139q15 0 22.5 -9.5
t5.5 -23.5l-262 -1869q-42 -302 -201 -480t-412 -178z" />
    <glyph glyph-name="k" unicode="k" horiz-adv-x="1752" 
d="M473 2527q1 14 12 23.5t25 9.5h140q14 0 22.5 -9.5t6.5 -23.5l-350 -2494q-2 -14 -13 -23.5t-26 -9.5h-139q-15 0 -23 9.5t-6 23.5zM1345 0q-26 0 -41 22l-684 897l865 742q18 17 45 17h172q21 0 24.5 -12t-11.5 -27l-851 -726l665 -872q12 -18 5 -29.5t-28 -11.5h-161z
" />
    <glyph glyph-name="l" unicode="l" horiz-adv-x="677" 
d="M473 2527q1 14 12.5 23.5t25.5 9.5h140q14 0 22 -9.5t6 -23.5l-350 -2494q-2 -14 -13 -23.5t-25 -9.5h-140q-14 0 -22.5 9.5t-6.5 23.5z" />
    <glyph glyph-name="m" unicode="m" horiz-adv-x="3159" 
d="M2447 1718q124 0 219 -32.5t156 -92t97 -144t41.5 -189t-9.5 -226.5l-141 -1001q-2 -14 -12.5 -23.5t-25.5 -9.5h-139q-15 0 -23 9.5t-6 23.5l130 927q81 574 -371 574q-154 0 -300 -85.5t-247.5 -236t-126.5 -328.5l-119 -851q-2 -14 -13 -23.5t-25 -9.5h-140
q-14 0 -22.5 9.5t-6.5 23.5l130 927q81 574 -371 574q-154 0 -299.5 -85.5t-247 -236t-126.5 -328.5l-120 -851q-2 -14 -12.5 -23.5t-25.5 -9.5h-139q-15 0 -23.5 9.5t-6.5 23.5l227 1612q2 14 13 23.5t26 9.5h139q15 0 23 -9.5t6 -23.5l-51 -357q53 81 119.5 152.5
t154 136.5t198.5 103t230 38q248 0 372.5 -125t135.5 -351q53 96 129 180t169 151t205.5 106t228.5 39z" />
    <glyph glyph-name="n" unicode="n" horiz-adv-x="2019" 
d="M1277 1718q130 0 230 -32t164.5 -91.5t103 -144t45 -188.5t-8.5 -226l-141 -1003q-2 -14 -12.5 -23.5t-25.5 -9.5h-139q-15 0 -23.5 9.5t-6.5 23.5l131 927q80 574 -401 574q-178 0 -340.5 -86.5t-271 -236.5t-133.5 -329l-119 -849q-2 -14 -12.5 -23.5t-25.5 -9.5h-139
q-15 0 -23.5 9.5t-6.5 23.5l227 1612q2 14 13 23.5t26 9.5h139q15 0 23 -9.5t6 -23.5l-51 -357q51 79 126 152t172 137t221 102.5t253 38.5z" />
    <glyph glyph-name="o" unicode="o" horiz-adv-x="2107" 
d="M1176 1708q159 0 298.5 -54.5t240.5 -151.5t159 -239.5t58 -310.5q0 -143 -38.5 -275.5t-106.5 -239.5t-162 -195.5t-205 -147.5t-236 -91.5t-253 -32.5q-160 0 -299 54.5t-240 152t-159 240t-58 310.5q0 143 38.5 275.5t106.5 239t162 195t205 147.5t236 91.5t253 32.5z
M957 155q144 0 279.5 55.5t242 154.5t171 247.5t64.5 321.5q0 134 -43.5 245.5t-119.5 186t-179 116t-222 41.5q-144 0 -280 -55.5t-242.5 -154.5t-171 -247.5t-64.5 -321.5q0 -134 43.5 -245.5t119.5 -186t179.5 -116t222.5 -41.5z" />
    <glyph glyph-name="p" unicode="p" horiz-adv-x="2128" 
d="M1216 1708q153 0 288.5 -54.5t234.5 -151.5t156.5 -239.5t57.5 -310.5q0 -171 -54.5 -326.5t-149 -273t-218.5 -205t-267.5 -132.5t-291.5 -45q-219 0 -371.5 107t-224.5 296l-172 -1221q-2 -15 -12.5 -24.5t-24.5 -9.5h-140q-15 0 -23 9.5t-6 24.5l351 2493
q2 14 12.5 23.5t25.5 9.5h139q15 0 23 -9.5t6 -23.5l-45 -317q123 179 305.5 279.5t400.5 100.5zM978 155q116 0 227.5 35t207 103t167.5 161t113.5 217t41.5 263q0 178 -75 313t-202.5 205.5t-286.5 70.5q-151 0 -290 -59.5t-241.5 -161.5t-163.5 -246t-61 -305
q0 -262 156 -429t407 -167z" />
    <glyph glyph-name="q" unicode="q" horiz-adv-x="2128" 
d="M1976 1674q15 0 23 -9t6 -24l-350 -2493q-2 -15 -13 -24.5t-26 -9.5h-139q-15 0 -22.5 9.5t-5.5 24.5l168 1198q-123 -179 -305.5 -279.5t-400.5 -100.5q-153 0 -288.5 54.5t-234.5 151.5t-156.5 239.5t-57.5 310.5q0 171 54.5 326.5t149 273.5t218.5 205t268 132t292 45
q220 0 372 -107.5t223 -297.5l48 342q5 33 38 33h139zM957 151q151 0 289.5 60t241.5 162t164 246t61 304q0 262 -156.5 429t-407.5 167q-145 0 -281.5 -55.5t-242 -154.5t-169.5 -247.5t-64 -321.5q0 -134 43.5 -245.5t119.5 -186t179.5 -116t222.5 -41.5z" />
    <glyph glyph-name="r" unicode="r" horiz-adv-x="1163" 
d="M1150 1716q19 0 26.5 -7.5t4.5 -25.5l-22 -155q-3 -28 -38 -34q-79 -6 -164.5 -37t-170 -87t-155 -129.5t-121 -174t-66.5 -210.5l-115 -823q-2 -14 -12.5 -23.5t-25.5 -9.5h-139q-15 0 -23.5 9.5t-6.5 23.5l227 1612q2 14 13 23.5t26 9.5h139q15 0 23 -9.5t6 -23.5
l-57 -402q64 121 178 231t242 176t231 66z" />
    <glyph glyph-name="s" unicode="s" horiz-adv-x="1670" 
d="M490 1218q0 -61 32.5 -107t87 -75.5t125.5 -53t150 -44t157.5 -43t149.5 -55t125.5 -75.5t87 -110t32.5 -153q0 -113 -41 -205t-109.5 -152t-161 -100t-191 -57.5t-205.5 -17.5q-340 0 -625 188q-26 16 -9 45l62 102q8 15 21 20.5t27 -2.5q131 -87 259 -132.5t283 -45.5
q72 0 136 9t126 31t107 56.5t72.5 89.5t27.5 126q0 64 -32 113t-86.5 81.5t-124.5 58.5t-148 48t-155.5 46t-147.5 57t-124.5 75.5t-86.5 107.5t-32 148q0 161 88.5 278.5t244 177.5t359.5 60q293 0 538 -163q27 -16 9 -46l-63 -105q-19 -30 -46 -13q-108 75 -218.5 113.5
t-241.5 38.5q-203 0 -331 -86t-128 -229z" />
    <glyph glyph-name="t" unicode="t" horiz-adv-x="1525" 
d="M1418 1678q15 0 23 -9.5t6 -23.5l-16 -118q-2 -15 -13 -24t-25 -9h-654l-126 -896q-16 -90 -10.5 -170.5t29.5 -141t84 -96t153 -35.5q165 0 330 114q35 19 48 -12l32 -95q13 -31 -22 -51q-215 -141 -443 -141q-495 0 -411 609h1l128 915h-307q-14 0 -22 9t-6 24l16 118
q2 14 12.5 23.5t25.5 9.5h307l52 370q4 24 38 35l139 39q24 6 31.5 -1.5t4.5 -24.5l-59 -418h654z" />
    <glyph glyph-name="u" unicode="u" horiz-adv-x="2018" 
d="M1867 1678q15 0 23 -9.5t6 -23.5l-227 -1612q-2 -14 -12.5 -23.5t-25.5 -9.5h-139q-15 0 -23 9.5t-6 23.5l51 357q-51 -79 -126 -152t-172 -137t-221 -102.5t-254 -38.5t-230 32t-164 91.5t-102.5 144t-45 188.5t8.5 226l141 1003q2 14 12.5 23.5t25.5 9.5h139
q15 0 23 -9.5t6 -23.5l-130 -927q-40 -284 57.5 -428.5t342.5 -144.5q134 0 262 51t228 137.5t168.5 207.5t87.5 255l119 849q2 14 12.5 23.5t25.5 9.5h139z" />
    <glyph glyph-name="v" unicode="v" horiz-adv-x="1681" 
d="M1740 1678q24 0 32 -18.5t-7 -42.5l-1011 -1645q-8 -12 -24 -12h-23q-16 0 -21 12l-551 1645q-8 22 4.5 41.5t38.5 19.5h153q23 0 28 -22l412 -1333l783 1333q14 22 37 22h149z" />
    <glyph glyph-name="w" unicode="w" horiz-adv-x="2602" 
d="M2663 1678q22 0 29.5 -17t-4.5 -40l-856 -1649q-8 -12 -24 -12h-24q-16 0 -21 12l-416 1192l-752 -1192q-8 -12 -23 -12h-23q-16 0 -20 12l-395 1649q-5 22 7 39.5t35 17.5h149q21 0 28 -24l293 -1302l711 1139q11 20 26 20h24q16 0 22 -20l391 -1139l662 1302
q14 24 35 24h146z" />
    <glyph glyph-name="x" unicode="x" horiz-adv-x="1788" 
d="M1750 1678q21 0 25.5 -11t-13.5 -30l-747 -778l551 -818q11 -19 3.5 -30t-27.5 -11h-183q-26 0 -38 20l-457 678l-630 -676q-19 -22 -49 -22h-174q-20 0 -24.5 11.5t13.5 31.5l764 804l-533 790q-11 19 -3.5 30t27.5 11h180q28 0 42 -21l438 -650l611 650q17 21 45 21
h179z" />
    <glyph glyph-name="y" unicode="y" horiz-adv-x="1694" 
d="M1752 1678q24 0 32 -18.5t-7 -42.5l-967 -1621q-111 -187 -201.5 -319.5t-185.5 -243.5t-184 -177t-187 -102t-206 -36q-38 0 -33 34l14 103q6 30 37 33q181 9 355 193.5t450 648.5l-533 1487q-10 24 3.5 42.5t39.5 18.5h151q21 0 28 -22l439 -1310l773 1310q11 22 39 22
h143z" />
    <glyph glyph-name="z" unicode="z" horiz-adv-x="1878" 
d="M61 0q-14 0 -22 8.5t-7 21.5l1 10q5 23 20 41l1333 1413h-1035q-13 0 -22 9.5t-7 23.5l16 118q2 13 14 23t25 10h1351q15 0 23 -7.5t6 -19.5l-2 -12q-4 -23 -20 -42l-1335 -1412h1137q13 0 22 -10t7 -24l-16 -118q-1 -13 -13 -23t-26 -10h-1450z" />
    <glyph glyph-name="braceleft" unicode="{" horiz-adv-x="1007" 
d="M1007 2421q-71 -6 -124 -27.5t-96.5 -65t-70 -118.5t-34.5 -181q-6 -68 -7.5 -263t-6.5 -252q-14 -239 -90 -373.5t-229 -184.5q192 -74 192 -353q0 -104 -45.5 -277.5t-91 -337.5t-45.5 -243q0 -125 59.5 -185.5t176.5 -69.5q27 -3 24 -28l-11 -75q-1 -13 -11 -21.5
t-23 -8.5q-187 4 -288 96t-101 272q0 85 46 252.5t92 341.5t46 273q0 262 -189 303q-26 5 -23 29l9 63q2 11 10 19.5t20 9.5q62 10 111.5 41t90.5 89.5t66.5 156.5t32.5 232q4 54 6 246.5t8 258.5q17 258 150 383.5t362 130.5q13 0 20.5 -8.5t5.5 -21.5l-11 -75
q-2 -25 -31 -28z" />
    <glyph glyph-name="bar" unicode="|" horiz-adv-x="638" 
d="M526 2907q2 13 13.5 23t24.5 10h100q13 0 22 -10t7 -23l-467 -3322q-1 -13 -13 -23.5t-25 -10.5h-100q-13 0 -22 10t-7 24z" />
    <glyph glyph-name="braceright" unicode="}" horiz-adv-x="1008" 
d="M861 1016q26 -3 23 -29l-9 -63q-5 -24 -31 -29q-62 -11 -110.5 -41.5t-89.5 -89t-66.5 -156.5t-32.5 -232q-5 -56 -7.5 -248t-8.5 -257q-17 -257 -149.5 -383t-361.5 -131q-13 0 -20.5 8.5t-5.5 21.5l10 75q1 11 10 18.5t21 9.5q71 6 124.5 27.5t97 65.5t69.5 118.5
t34 180.5q7 68 9 263t7 252q14 239 89.5 373.5t228.5 185.5q-193 73 -193 352q0 82 28.5 210t63 239t63 228.5t28.5 180.5q0 125 -59.5 185.5t-177.5 69.5q-12 2 -18 9.5t-4 18.5l10 75q1 13 11 21.5t23 8.5q187 -4 288 -96t101 -272q0 -85 -46 -252.5t-92 -341.5t-46 -273
q0 -271 189 -303z" />
    <glyph glyph-name="asciitilde" unicode="~" horiz-adv-x="2206" 
d="M2024 1231q22 -12 9 -37q-82 -169 -229 -271.5t-304 -102.5q-102 0 -190 28.5t-152.5 69.5t-125.5 82t-136 69.5t-157 28.5q-118 0 -226.5 -71.5t-167.5 -173.5q-10 -15 -24 -19.5t-28 2.5l-53 31q-20 14 -9 38q83 168 230 270.5t304 102.5q86 0 163.5 -20.5t131 -51.5
t111 -67t106 -67t113.5 -51.5t135 -20.5q119 0 227 71.5t168 174.5q23 33 51 16z" />
    <glyph glyph-name="exclamdown" unicode="&#xa1;" horiz-adv-x="758" 
d="M501 1708q55 0 92 -38.5t37 -93.5q0 -65 -52 -114.5t-118 -49.5q-55 0 -92 38.5t-37 93.5q0 65 51.5 114.5t118.5 49.5zM263 -729q-2 -14 -13 -23.5t-26 -9.5h-139q-15 0 -23 9.5t-5 23.5l272 1750q7 34 38 34h86q14 0 22 -9.5t7 -24.5z" />
    <glyph glyph-name="cent" unicode="&#xa2;" horiz-adv-x="1957" 
d="M1841 1266q11 -31 -23 -45l-128 -57q-30 -13 -43 15q-55 161 -176.5 252.5t-311.5 91.5q-210 0 -384 -95t-279 -275.5t-105 -412.5q0 -268 160.5 -426.5t419.5 -158.5q362 0 580 344q23 28 48 15l112 -56q30 -15 10 -46q-115 -188 -297.5 -306.5t-424.5 -133.5l-56 -400
q-2 -13 -13.5 -23.5t-24.5 -10.5h-97q-14 0 -23 10.5t-7 23.5l57 403q-193 21 -342 118t-234 261t-85 371q0 201 73 377.5t196.5 301t288 203.5t347.5 96l51 369q2 13 13.5 23t24.5 10h98q13 0 22 -10t7 -23l-52 -366q237 -15 386.5 -133.5t211.5 -306.5z" />
    <glyph glyph-name="sterling" unicode="&#xa3;" horiz-adv-x="2288" 
d="M2221 2093q10 -11 13.5 -16t4 -14.5t-8.5 -17.5l-92 -90q-11 -11 -17.5 -15.5t-17 -4.5t-19.5 11q-59 74 -120.5 131t-140 106t-175 75.5t-205.5 26.5q-269 0 -439.5 -135.5t-203.5 -366.5q-7 -49 -9.5 -102t-3 -87t5 -94t7.5 -77.5t11.5 -87.5t10.5 -76h798
q14 0 22.5 -10t6.5 -24l-14 -97q-2 -14 -13 -24t-26 -10h-757q4 -97 -9 -187.5t-52.5 -203t-121 -245.5t-204.5 -285q106 35 218.5 46.5t214 3t205.5 -24.5t209 -32t208.5 -23.5t219 5t225.5 49.5q22 6 35 -4.5t10 -31.5l-16 -116q-3 -25 -36 -32q-136 -40 -271.5 -53.5
t-249 -4.5t-226 26.5t-220.5 35.5t-213 27t-223 -3t-233 -50q-13 -5 -25 -0.5t-15 15.5l-30 104q-4 14 8 28q124 171 203.5 313t116.5 257t48 202.5t4 183.5h-354q-14 0 -22.5 10t-6.5 24l13 97q2 14 13.5 24t25.5 10h312q-15 109 -21 163.5t-7 164t14 215.5
q20 143 86.5 264t173.5 211.5t261 141.5t339 51q140 0 260.5 -29.5t214 -85t164 -118t136.5 -144.5z" />
    <glyph glyph-name="currency" unicode="&#xa4;" horiz-adv-x="2765" 
d="M2727 2072q10 -12 7 -27.5t-17 -25.5l-428 -333q101 -140 142.5 -313.5t14.5 -363.5q-26 -190 -116.5 -363t-230.5 -313l333 -333q12 -11 11 -26t-14 -27l-95 -84q-13 -13 -28.5 -12t-24.5 15l-281 378q-161 -130 -351.5 -202t-388.5 -72t-368 72t-294 202l-388 -378
q-12 -14 -28 -15t-26 12l-70 84q-10 11 -7 27t18 26l427 333q-100 139 -142 312.5t-15 363.5t117.5 364t230.5 312l-334 334q-12 11 -11 26t14 27l95 84q13 12 28.5 11t24.5 -14l281 -379q161 130 351.5 202t388.5 72t368 -71.5t294 -201.5l388 378q12 13 28 14t26 -11z
M2249 1009q25 180 -18.5 340.5t-140.5 274.5t-243 181t-319 67t-338 -67t-294 -181t-218 -274.5t-114 -340.5q-25 -179 18.5 -339.5t140 -274.5t243 -181t319.5 -67q231 0 440.5 113t350 311.5t173.5 437.5z" />
    <glyph glyph-name="yen" unicode="&#xa5;" horiz-adv-x="2299" 
d="M2431 2440q19 0 26.5 -11t-4.5 -29l-1065 -1372h382q15 0 23 -9.5t6 -23.5l-10 -74q-2 -15 -13 -24.5t-26 -9.5h-472l-11 -15l-41 -293h481q15 0 23 -9.5t6 -23.5l-11 -74q-2 -15 -12.5 -24.5t-24.5 -9.5h-482l-57 -405q-1 -13 -12.5 -23t-24.5 -10h-149q-13 0 -22.5 10
t-7.5 23l57 405h-487q-14 0 -22.5 9.5t-6.5 24.5l11 74q2 14 12.5 23.5t25.5 9.5h487l40 286l-11 22h-473q-14 0 -22 9.5t-6 24.5l10 74q2 14 12.5 23.5t25.5 9.5h383l-683 1373q-8 17 2 28t29 11h173q24 0 36 -26l659 -1351l1037 1351q18 26 43 26h166z" />
    <glyph glyph-name="brokenbar" unicode="&#xa6;" horiz-adv-x="638" 
d="M526 2907q2 13 13.5 23t24.5 10h100q13 0 22 -10t7 -23l-151 -1074q-2 -13 -13.5 -23t-24.5 -10h-100q-13 0 -22 10t-7 23zM210 658q2 13 13.5 23t24.5 10h100q13 0 22 -10t7 -23l-151 -1073q-1 -13 -13 -23.5t-25 -10.5h-100q-13 0 -22 10t-7 24z" />
    <glyph glyph-name="section" unicode="&#xa7;" horiz-adv-x="2210" 
d="M2176 2126q1 -20 -11 -33t-30 -13h-140q-24 0 -27 27q-12 272 -153 415t-436 143q-311 0 -508.5 -156.5t-235.5 -424.5q-10 -72 4 -135.5t35 -109.5t80 -94.5t95.5 -75.5t127.5 -68.5t130 -57t147 -56.5q109 -42 164 -64t151.5 -68.5t143.5 -82.5t112 -97t86 -121.5
t37 -148t-7 -183.5t-74 -220.5t-137 -266.5q174 -172 136 -439q-33 -233 -169 -404.5t-352 -261.5t-485 -90q-388 0 -595.5 186t-215.5 528q-1 20 10.5 33t29.5 13h140q25 0 27 -27q26 -559 628 -559q326 0 527 156.5t239 425.5q14 99 -17 182t-77 136.5t-148.5 110
t-169.5 84t-203 78.5q-109 41 -164 63t-152 67.5t-144 81.5t-112.5 97.5t-86.5 122.5t-37.5 149t6 185t72.5 223.5t135 270.5q-171 171 -133 437q32 232 168 404.5t347 262t471 89.5q371 0 567 -185.5t204 -528.5zM1607 332q71 136 104.5 251.5t32 202.5t-32.5 161
t-82.5 126.5t-125 100.5t-152 82t-171.5 71t-176.5 67.5t-173.5 72t-156 83.5q-72 -136 -105.5 -251t-32.5 -202t32 -161t82.5 -127t125 -101t152 -82t171.5 -71t177 -67.5t174 -72t157 -83.5z" />
    <glyph glyph-name="dieresis" unicode="&#xa8;" horiz-adv-x="1017" 
d="M138 2019q-53 0 -88 37t-35 90q0 63 49.5 110.5t113.5 47.5q53 0 88.5 -37t35.5 -89q0 -64 -50 -111.5t-114 -47.5zM839 2019q-53 0 -88.5 37t-35.5 90q0 63 50 110.5t114 47.5q53 0 88.5 -37t35.5 -89q0 -64 -50 -111.5t-114 -47.5z" />
    <glyph glyph-name="copyright" unicode="&#xa9;" horiz-adv-x="2890" 
d="M1673 2460q230 0 431.5 -86t343 -233t222.5 -349t81 -429q0 -185 -54 -363.5t-149.5 -330t-230.5 -280t-291.5 -218.5t-337 -140.5t-364.5 -50.5q-230 0 -431.5 85.5t-343 232.5t-222.5 349.5t-81 429.5q0 184 54 363t149.5 330t230.5 280t291.5 219t337 140.5
t364.5 50.5zM1336 61q170 0 338.5 47t314 131t271 204.5t215 262t140 308.5t50.5 340q0 212 -75.5 401t-207 326.5t-319 218t-401.5 80.5q-170 0 -338.5 -47.5t-314.5 -131.5t-271.5 -204.5t-215 -262t-140 -308.5t-50.5 -340q0 -212 75.5 -401t207.5 -326.5t319.5 -217.5
t401.5 -80zM2095 873q18 -10 5 -29q-248 -387 -666 -387q-133 0 -250.5 46.5t-205 130.5t-138.5 209.5t-51 274.5q0 153 48 290.5t131.5 240.5t192.5 179t234 114.5t253 38.5q419 0 558 -387q7 -21 -14 -29l-75 -33q-19 -10 -26 11q-118 325 -459 325q-140 0 -268.5 -55
t-225 -151t-154 -235.5t-57.5 -299.5q0 -250 146 -403.5t377 -153.5q339 0 550 325q12 19 30 11z" />
    <glyph glyph-name="guillemotleft" unicode="&#xab;" horiz-adv-x="1885" 
d="M389 867l509 -446q9 -9 7 -20l-12 -85q-3 -25 -24 -34.5t-40 5.5l-604 505q-10 8 -8 21l8 54l8 55q2 13 14 21l746 505q22 15 40.5 5.5t15.5 -34.5l-12 -85q-2 -12 -14 -20zM1690 1448q23 15 41.5 5.5t14.5 -34.5l-12 -85q-2 -11 -13 -20l-634 -447l509 -446q9 -9 7 -20
l-12 -85q-4 -25 -24.5 -34.5t-40.5 5.5l-603 505q-10 8 -8 21l8 54l8 55q2 13 13 21z" />
    <glyph glyph-name="logicalnot" unicode="&#xac;" horiz-adv-x="2077" 
d="M1867 1148q14 0 22 -9.5t6 -23.5l-68 -486q-2 -15 -12.5 -24.5t-25.5 -9.5h-115q-15 0 -23 9.5t-6 24.5l50 354h-1421q-15 0 -22.5 9.5t-5.5 23.5l13 99q1 14 12.5 23.5t25.5 9.5h1570z" />
    <glyph glyph-name="registered" unicode="&#xae;" horiz-adv-x="2890" 
d="M1673 2460q230 0 431.5 -86t343 -233t222.5 -349t81 -429q0 -185 -54 -363.5t-149.5 -330t-230.5 -280t-291.5 -218.5t-337 -140.5t-364.5 -50.5q-230 0 -431.5 85.5t-343 232.5t-222.5 349.5t-81 429.5q0 184 54 363t149.5 330t230.5 280t291.5 219t337 140.5
t364.5 50.5zM1336 61q170 0 338.5 47t314 131t271 204.5t215 262t140 308.5t50.5 340q0 212 -75.5 401t-207 326.5t-319 218t-401.5 80.5q-170 0 -338.5 -47.5t-314.5 -131.5t-271.5 -204.5t-215 -262t-140 -308.5t-50.5 -340q0 -212 75.5 -401t207.5 -326.5t319.5 -217.5
t401.5 -80zM1629 1963q127 0 225 -30.5t157.5 -84.5t89.5 -124.5t30 -154.5q0 -181 -114.5 -315t-332.5 -176l297 -562q8 -15 -1 -28t-26 -13h-92q-12 0 -17 11l-300 577q-14 -1 -43 -1h-403l-80 -567q-2 -8 -8.5 -14t-14.5 -6h-91q-8 0 -13.5 6t-4.5 14l204 1448q1 8 8 14
t15 6h91h424zM1493 1174q135 0 234.5 31t155.5 86t82.5 121.5t26.5 145.5q0 132 -96.5 212t-306.5 80h-379l-95 -676h378z" />
    <glyph glyph-name="macron" unicode="&#xaf;" horiz-adv-x="1055" 
d="M-5 2209q1 13 12.5 23.5t25.5 10.5h1011q13 0 21.5 -10t6.5 -24l-12 -86q-1 -13 -12.5 -23.5t-25.5 -10.5h-1010q-14 0 -22.5 10.5t-6.5 23.5z" />
    <glyph glyph-name="degree" unicode="&#xb0;" horiz-adv-x="907" 
d="M581 1748q-147 0 -244 99.5t-97 245.5q0 115 63.5 216t168 160t219.5 59q147 0 243.5 -100t96.5 -247q0 -115 -63.5 -215.5t-167 -159t-219.5 -58.5zM602 1896q112 0 194 80.5t82 190.5q0 92 -58 153.5t-150 61.5q-113 0 -194.5 -81t-81.5 -193q0 -90 58 -151t150 -61z
" />
    <glyph glyph-name="plusminus" unicode="&#xb1;" horiz-adv-x="2056" 
d="M1856 1220q15 0 22.5 -9t5.5 -24l-13 -98q-2 -15 -12.5 -24.5t-25.5 -9.5h-692l-97 -691q-1 -15 -12 -24.5t-26 -9.5h-98q-15 0 -23 9.5t-6 24.5l97 691h-691q-14 0 -22.5 9.5t-6.5 24.5l14 98q2 15 13 24t25 9h692l97 692q2 14 12.5 23.5t25.5 9.5h98q15 0 23 -9.5
t6 -23.5l-97 -692h691zM1708 165q15 0 22.5 -9.5t5.5 -23.5l-13 -99q-2 -14 -13 -23.5t-25 -9.5h-1548q-15 0 -23.5 9.5t-6.5 23.5l14 99q2 14 13 23.5t26 9.5h1548z" />
    <glyph glyph-name="acute" unicode="&#xb4;" horiz-adv-x="836" 
d="M85 1913q-13 -7 -26 -3.5t-19 15.5l-34 72q-5 11 0.5 25t17.5 22l683 458q13 7 26.5 4t19.5 -13l50 -108q5 -10 0.5 -24t-18.5 -21z" />
    <glyph glyph-name="paragraph" unicode="&#xb6;" horiz-adv-x="2143" 
d="M2099 2440q13 0 21.5 -10t6.5 -23l-396 -2822q-2 -13 -13.5 -23.5t-24.5 -10.5h-42q-14 0 -22.5 10.5t-6.5 23.5l387 2753h-841l-386 -2753q-2 -14 -13.5 -24t-24.5 -10h-42q-13 0 -22 10.5t-7 23.5l191 1356q-177 8 -319 97.5t-221 238t-79 326.5q0 167 72 322.5
t190.5 267.5t276.5 179.5t324 67.5h949h42z" />
    <glyph glyph-name="periodcentered" unicode="&#xb7;" horiz-adv-x="757" 
d="M362 721q-55 0 -92 38.5t-37 93.5q0 65 52 114.5t118 49.5q55 0 92 -38.5t37 -93.5q0 -65 -51.5 -114.5t-118.5 -49.5z" />
    <glyph glyph-name="cedilla" unicode="&#xb8;" horiz-adv-x="1567" 
d="M317 -839q-179 0 -303 84q-25 19 -7 47l23 38q9 15 23 18.5t26 -3.5q66 -34 121 -51t125 -17q113 0 186 61.5t73 167.5q0 62 -35 100t-95.5 50t-134.5 6.5t-160 -27.5q-23 -5 -30 3t4 32l176 355h127l-134 -272q124 26 222 13t159 -76.5t61 -164.5q0 -82 -35 -151.5
t-94 -115.5t-136 -71.5t-162 -25.5z" />
    <glyph glyph-name="guillemotright" unicode="&#xbb;" horiz-adv-x="1886" 
d="M963 813q-2 -13 -14 -21l-745 -505q-22 -15 -41 -5.5t-16 34.5l12 85q2 12 14 20l634 446h1l-510 447q-8 8 -8 20l12 85q4 25 25 34.5t39 -5.5l605 -505q10 -8 8 -21l-8 -55zM1669 943q10 -8 8 -21l-8 -55l-8 -54q-2 -13 -14 -21l-746 -505q-23 -15 -41.5 -5.5
t-14.5 34.5l12 85q2 11 13 20l635 446l-509 447q-10 10 -8 20l12 85q3 25 24.5 34.5t39.5 -5.5z" />
    <glyph glyph-name="onequarter" unicode="&#xbc;" horiz-adv-x="3560" 
d="M2439 2454q8 12 22 17t25 -1l68 -34q11 -5 14 -18.5t-4 -25.5l-1607 -2648q-7 -13 -21 -17.5t-26 0.5l-67 34q-12 6 -15.5 19.5t4.5 24.5zM1008 2397q8 0 14 -6.5t5 -14.5l-220 -1561q-1 -8 -9 -15t-16 -7h-98q-9 0 -14.5 6.5t-4.5 15.5l202 1437l-331 -160
q-10 -4 -18.5 -1t-11.5 12l-22 67q-5 19 15 29l396 192q15 6 30 6h83zM3345 508q10 0 15.5 -6t3.5 -15l-10 -78q-3 -22 -26 -22h-250l-51 -365q-1 -8 -9 -15t-16 -7h-98q-9 0 -14.5 6.5t-4.5 15.5l51 365h-854q-22 0 -19 22l9 71q2 8 6 12l1033 1099q11 13 31 13h85
q9 0 14.5 -6.5t4.5 -14.5l-151 -1075h250zM2250 508h703l125 886z" />
    <glyph glyph-name="onehalf" unicode="&#xbd;" horiz-adv-x="3621" 
d="M2554 2436q11 -5 14 -18.5t-4 -25.5l-1607 -2648q-7 -13 -21 -17.5t-26 0.5l-67 34q-12 6 -15.5 19.5t4.5 24.5l1607 2649q8 12 22 17t25 -1zM1008 2397q8 0 14 -6.5t5 -14.5l-220 -1561q-1 -8 -9 -15t-16 -7h-98q-9 0 -14.5 6.5t-4.5 15.5l202 1437l-331 -160
q-10 -4 -18.5 -1t-11.5 12l-22 67q-5 19 15 29l396 192q15 6 30 6h83zM3417 1181q-17 -124 -83 -244.5t-191.5 -252.5t-285 -264t-396.5 -305h838q8 0 14 -7t5 -16l-11 -77q-2 -8 -9.5 -15t-15.5 -7h-1069q-21 0 -18 22l2 25q2 19 13 27q551 392 793 643.5t271 458.5
q21 154 -56.5 240t-251.5 86q-138 0 -255.5 -59.5t-228.5 -163.5q-15 -9 -20.5 -7t-13.5 13l-44 60q-9 10 15 31q124 114 263.5 181t315.5 67q121 0 209.5 -33t137.5 -92.5t67 -138t5 -172.5z" />
    <glyph glyph-name="threequarters" unicode="&#xbe;" horiz-adv-x="3844" 
d="M2688 2454q8 12 22 17t25 -1l68 -34q11 -5 14 -18.5t-4 -25.5l-1607 -2648q-7 -13 -21 -17.5t-26 0.5l-67 34q-12 6 -15.5 19.5t4.5 24.5zM1044 1620q178 -33 266.5 -123t88.5 -231q0 -225 -172.5 -359t-459.5 -134q-102 0 -188.5 19.5t-152.5 56.5t-114 78t-92 94
q-17 21 -5 32l65 65q12 12 18.5 14t16.5 -8q41 -50 83 -87.5t98.5 -71.5t128.5 -52t156 -18q214 0 344.5 94.5t130.5 263.5q0 65 -25.5 118t-81.5 96.5t-155 68.5t-235 27q-23 2 -20 22l8 56q1 10 8.5 16.5t17.5 6.5q142 2 250 34t171.5 85.5t94.5 119t31 140.5
q0 121 -82 186.5t-244 65.5q-137 0 -248.5 -51.5t-227.5 -147.5q-20 -15 -34 5l-41 59q-9 12 14 32q265 225 571 225q218 0 326 -95.5t108 -250.5q0 -160 -108 -279.5t-310 -171.5zM3594 508q22 0 19 -21l-10 -78q-3 -22 -26 -22h-250l-51 -365q-1 -8 -9 -15t-16 -7h-98
q-9 0 -14.5 6.5t-4.5 15.5l51 365h-854q-22 0 -19 22l9 71q2 8 6 12l1033 1099q11 13 31 13h85q9 0 14.5 -6.5t4.5 -14.5l-151 -1075h250zM2499 508h703l125 886z" />
    <glyph glyph-name="questiondown" unicode="&#xbf;" horiz-adv-x="1601" 
d="M940 1708q55 0 92 -38.5t37 -93.5q0 -65 -52 -114.5t-118 -49.5q-55 0 -92 38.5t-37 93.5q0 65 51.5 114.5t118.5 49.5zM139 -232q0 -182 113.5 -278.5t335.5 -96.5q188 0 347.5 69.5t307.5 193.5q14 11 24 11.5t15 -4t13 -15.5l62 -87l4.5 -13.5t-4.5 -12.5t-10 -11.5
l-12 -10.5q-173 -143 -363.5 -224t-422.5 -81q-297 0 -464.5 145t-167.5 390q0 137 41 249.5t108.5 192t150.5 150t171.5 140t166 143.5t139.5 179t88 230q2 12 11.5 20t20.5 8l101 -1q10 0 16.5 -9.5t6.5 -23.5q-19 -126 -73.5 -235.5t-126 -190t-154 -155.5t-161 -146
t-142.5 -146t-103 -172t-39 -208z" />
    <glyph glyph-name="Agrave" unicode="&#xc0;" 
d="M980 3102q-12 7 -13 21t8 24l80 108q9 10 22.5 13t25.5 -4l553 -458q10 -8 12 -22.5t-6 -24.5l-53 -72q-10 -12 -24 -15.5t-25 3.5zM2282 39q6 -18 -3.5 -28.5t-27.5 -10.5h-177q-30 0 -36 26l-216 740h-1196l-434 -740q-16 -26 -43 -26h-174q-19 0 -26 10t3 29
l1449 2415q16 26 42 26h62q29 0 36 -26zM729 941h1042l-346 1186z" />
    <glyph glyph-name="Aacute" unicode="&#xc1;" 
d="M1358 2687l-34 72q-5 11 0.5 25t17.5 22l683 458q13 7 26.5 4t19.5 -13l50 -108q5 -10 0.5 -24t-18.5 -21l-700 -427q-13 -7 -26 -3.5t-19 15.5zM2282 39q6 -18 -3.5 -28.5t-27.5 -10.5h-177q-30 0 -36 26l-216 740h-1196l-434 -740q-16 -26 -43 -26h-174q-19 0 -26 10
t3 29l1449 2415q16 26 42 26h62q29 0 36 -26zM729 941h1042l-346 1186z" />
    <glyph glyph-name="Acircumflex" unicode="&#xc2;" 
d="M998 2680q-21 0 -25.5 12t12.5 28l489 464q18 17 47 17h102q29 0 43 -17l357 -464q12 -16 5 -28t-28 -12h-151q-29 0 -43 20l-255 348l-354 -348q-20 -20 -46 -20h-153zM2282 39q6 -18 -3.5 -28.5t-27.5 -10.5h-177q-30 0 -36 26l-216 740h-1196l-434 -740
q-16 -26 -43 -26h-174q-19 0 -26 10t3 29l1449 2415q16 26 42 26h62q29 0 36 -26zM729 941h1042l-346 1186z" />
    <glyph glyph-name="Atilde" unicode="&#xc3;" 
d="M970 2723q-15 0 -22.5 9t-4.5 25q22 188 126.5 288t251.5 100q53 0 97 -15t74 -38.5t56 -52.5t49.5 -57.5t47.5 -52t57 -38.5t72 -15q182 0 232 236q9 33 41 33h57q15 0 21.5 -14.5t0.5 -39.5q-16 -120 -72 -205t-133 -124t-168 -39q-62 0 -112 20t-80 50t-61 65.5
t-56 65.5t-62.5 50t-82.5 20q-181 0 -232 -238q-7 -33 -40 -33h-57zM2282 39q6 -18 -3.5 -28.5t-27.5 -10.5h-177q-30 0 -36 26l-216 740h-1196l-434 -740q-16 -26 -43 -26h-174q-19 0 -26 10t3 29l1449 2415q16 26 42 26h62q29 0 36 -26zM729 941h1042l-346 1186z" />
    <glyph glyph-name="Adieresis" unicode="&#xc4;" 
d="M1164 2781q-53 0 -88 37t-35 90q0 63 49.5 110.5t113.5 47.5q53 0 88.5 -37t35.5 -89q0 -64 -50 -111.5t-114 -47.5zM1865 2781q-53 0 -88.5 37t-35.5 90q0 63 50 110.5t114 47.5q53 0 88.5 -37t35.5 -89q0 -64 -50 -111.5t-114 -47.5zM2282 39q6 -18 -3.5 -28.5
t-27.5 -10.5h-177q-30 0 -36 26l-216 740h-1196l-434 -740q-16 -26 -43 -26h-174q-19 0 -26 10t3 29l1449 2415q16 26 42 26h62q29 0 36 -26zM729 941h1042l-346 1186z" />
    <glyph glyph-name="Aring" unicode="&#xc5;" 
d="M2282 39q6 -18 -3.5 -28.5t-27.5 -10.5h-177q-30 0 -36 26l-216 740h-1196l-434 -740q-16 -26 -43 -26h-174q-19 0 -26 10t3 29l1427 2379q-110 30 -177.5 121t-67.5 211q0 115 63.5 216.5t167.5 160.5t219 59q147 0 243.5 -100.5t96.5 -246.5q0 -154 -108 -276
t-262 -151zM1263 2763q0 -99 64 -166.5t165 -67.5q124 0 214 89t90 210q0 100 -63.5 168t-165.5 68q-124 0 -214 -89.5t-90 -211.5zM729 941h1042l-346 1186z" />
    <glyph glyph-name="AE" unicode="&#xc6;" horiz-adv-x="3488" 
d="M3444 2440q15 0 23 -9.5t6 -23.5l-16 -118q-7 -34 -39 -34h-1466l-126 -896h1306q15 0 23 -9.5t6 -24.5l-16 -118q-7 -33 -39 -33h-1306l-140 -989h1507q15 0 23 -9.5t6 -24.5l-16 -118q-7 -33 -39 -33h-1599h-90q-13 0 -22 10t-7 23l103 733h-800l-542 -747
q-14 -19 -41 -19h-165q-19 0 -28 13t4 33l1733 2375q14 19 42 19h67h148h1500zM853 941h698l168 1194z" />
    <glyph glyph-name="Ccedilla" unicode="&#xc7;" horiz-adv-x="2615" 
d="M2570 1835q11 -33 -22 -47l-123 -55q-32 -14 -44 18q-193 534 -752 534q-153 0 -299.5 -40.5t-274 -115t-235.5 -184t-184.5 -242t-119.5 -295.5t-43 -339q0 -203 64 -374t176.5 -289.5t271.5 -184.5t345 -66q555 0 902 534q20 32 50 18l106 -55q30 -14 9 -47
q-391 -610 -1040 -634l-107 -218q124 26 222 13t159 -76.5t61 -164.5q0 -82 -35 -151.5t-94 -115.5t-136 -71.5t-162 -25.5q-179 0 -303 84q-25 19 -7 47l23 38q9 15 23 18.5t26 -3.5q66 -34 121 -51t125 -17q113 0 186 61.5t73 167.5q0 62 -35 100t-95.5 50t-134.5 6.5
t-160 -27.5q-23 -5 -30 3t4 32l150 302q-206 13 -385.5 94.5t-312.5 218.5t-210 336t-77 433q0 251 79 477t215.5 395t315 293t384 187.5t415.5 63.5q686 0 915 -635z" />
    <glyph glyph-name="Egrave" unicode="&#xc8;" horiz-adv-x="2187" 
d="M854 3102q-12 7 -13 21t8 24l80 108q9 10 22.5 13t25.5 -4l553 -458q10 -8 12 -22.5t-6 -24.5l-53 -72q-10 -12 -24 -15.5t-25 3.5zM2143 2440q15 0 23 -9.5t6 -23.5l-16 -118q-7 -34 -39 -34h-1466l-126 -896h1306q15 0 23 -9.5t6 -24.5l-16 -118q-7 -33 -39 -33h-1306
l-140 -989h1507q15 0 23 -9.5t6 -24.5l-16 -118q-7 -33 -39 -33h-1599h-90q-13 0 -22 10t-7 23l334 2374q1 13 12.5 23t25.5 10h149h1500z" />
    <glyph glyph-name="Eacute" unicode="&#xc9;" horiz-adv-x="2187" 
d="M1232 2687l-34 72q-5 11 0.5 25t17.5 22l683 458q13 7 26.5 4t19.5 -13l50 -108q5 -10 0.5 -24t-18.5 -21l-700 -427q-13 -7 -26 -3.5t-19 15.5zM2143 2440q15 0 23 -9.5t6 -23.5l-16 -118q-7 -34 -39 -34h-1466l-126 -896h1306q15 0 23 -9.5t6 -24.5l-16 -118
q-7 -33 -39 -33h-1306l-140 -989h1507q15 0 23 -9.5t6 -24.5l-16 -118q-7 -33 -39 -33h-1599h-90q-13 0 -22 10t-7 23l334 2374q1 13 12.5 23t25.5 10h149h1500z" />
    <glyph glyph-name="Ecircumflex" unicode="&#xca;" horiz-adv-x="2187" 
d="M872 2680q-21 0 -25.5 12t12.5 28l489 464q18 17 47 17h102q29 0 43 -17l357 -464q12 -16 5 -28t-28 -12h-151q-29 0 -43 20l-255 348l-354 -348q-20 -20 -46 -20h-153zM2143 2440q15 0 23 -9.5t6 -23.5l-16 -118q-7 -34 -39 -34h-1466l-126 -896h1306q15 0 23 -9.5
t6 -24.5l-16 -118q-7 -33 -39 -33h-1306l-140 -989h1507q15 0 23 -9.5t6 -24.5l-16 -118q-7 -33 -39 -33h-1599h-90q-13 0 -22 10t-7 23l334 2374q1 13 12.5 23t25.5 10h149h1500z" />
    <glyph glyph-name="Edieresis" unicode="&#xcb;" horiz-adv-x="2187" 
d="M1038 2781q-53 0 -88 37t-35 90q0 63 49.5 110.5t113.5 47.5q53 0 88.5 -37t35.5 -89q0 -64 -50 -111.5t-114 -47.5zM1739 2781q-53 0 -88.5 37t-35.5 90q0 63 50 110.5t114 47.5q53 0 88.5 -37t35.5 -89q0 -64 -50 -111.5t-114 -47.5zM2143 2440q15 0 23 -9.5t6 -23.5
l-16 -118q-7 -34 -39 -34h-1466l-126 -896h1306q15 0 23 -9.5t6 -24.5l-16 -118q-7 -33 -39 -33h-1306l-140 -989h1507q15 0 23 -9.5t6 -24.5l-16 -118q-7 -33 -39 -33h-1599h-90q-13 0 -22 10t-7 23l334 2374q1 13 12.5 23t25.5 10h149h1500z" />
    <glyph glyph-name="Igrave" unicode="&#xcc;" horiz-adv-x="687" 
d="M661 2675l-580 427q-12 7 -13 21t8 24l80 108q9 10 22.5 13t25.5 -4l553 -458q10 -8 12 -22.5t-6 -24.5l-53 -72q-10 -12 -24 -15.5t-25 3.5zM456 2407q2 13 13.5 23t24.5 10h149q13 0 22 -10t7 -23l-334 -2374q-2 -13 -13.5 -23t-24.5 -10h-149q-13 0 -22 10t-7 23z" />
    <glyph glyph-name="Iacute" unicode="&#xcd;" horiz-adv-x="687" 
d="M504 2675q-13 -7 -26 -3.5t-19 15.5l-34 72q-5 11 0.5 25t17.5 22l683 458q13 7 26.5 4t19.5 -13l50 -108q5 -10 0.5 -24t-18.5 -21zM456 2407q2 13 13.5 23t24.5 10h149q13 0 22 -10t7 -23l-334 -2374q-2 -13 -13.5 -23t-24.5 -10h-149q-13 0 -22 10t-7 23z" />
    <glyph glyph-name="Icircumflex" unicode="&#xce;" horiz-adv-x="687" 
d="M907 2700l-255 348l-354 -348q-20 -20 -46 -20h-153q-21 0 -25.5 12t12.5 28l489 464q18 17 47 17h102q29 0 43 -17l357 -464q12 -16 5 -28t-28 -12h-151q-29 0 -43 20zM456 2407q2 13 13.5 23t24.5 10h149q13 0 22 -10t7 -23l-334 -2374q-2 -13 -13.5 -23t-24.5 -10
h-149q-13 0 -22 10t-7 23z" />
    <glyph glyph-name="Idieresis" unicode="&#xcf;" horiz-adv-x="687" 
d="M265 2781q-53 0 -88 37t-35 90q0 63 49.5 110.5t113.5 47.5q53 0 88.5 -37t35.5 -89q0 -64 -50 -111.5t-114 -47.5zM966 2781q-53 0 -88.5 37t-35.5 90q0 63 50 110.5t114 47.5q53 0 88.5 -37t35.5 -89q0 -64 -50 -111.5t-114 -47.5zM456 2407q2 13 13.5 23t24.5 10h149
q13 0 22 -10t7 -23l-334 -2374q-2 -13 -13.5 -23t-24.5 -10h-149q-13 0 -22 10t-7 23z" />
    <glyph glyph-name="Eth" unicode="&#xd0;" horiz-adv-x="2559" 
d="M1337 2440q232 0 429.5 -70.5t343 -202t228 -331t82.5 -444.5q0 -257 -76 -481.5t-210 -389.5t-313.5 -283.5t-390.5 -178t-436 -59.5h-749h-94q-13 0 -22 10t-7 23l155 1101h-303q-14 0 -22 9t-6 24l13 98q1 15 12.5 24.5t25.5 9.5h303l156 1108q1 13 12.5 23t25.5 10
h149h694zM1000 185q198 0 378.5 52.5t328.5 155t257 245t169 331t60 403.5q0 272 -113.5 473t-316.5 305.5t-471 104.5h-641l-135 -956h666q14 0 22 -9.5t6 -24.5l-13 -98q-2 -15 -13 -24t-26 -9h-665l-134 -949h641z" />
    <glyph glyph-name="Ntilde" unicode="&#xd1;" horiz-adv-x="2587" 
d="M1062 2723q-15 0 -22.5 9t-4.5 25q22 188 126.5 288t251.5 100q53 0 97 -15t74 -38.5t56 -52.5t49.5 -57.5t47.5 -52t57 -38.5t72 -15q182 0 232 236q9 33 41 33h57q15 0 21.5 -14.5t0.5 -39.5q-16 -120 -72 -205t-133 -124t-168 -39q-62 0 -112 20t-80 50t-61 65.5
t-56 65.5t-62.5 50t-82.5 20q-181 0 -232 -238q-7 -33 -40 -33h-57zM2543 2440q15 0 23 -9.5t6 -23.5l-339 -2414q-2 -14 -12.5 -23.5t-25.5 -9.5h-10q-27 0 -42 17l-1523 2057l-282 -2001q-2 -14 -12.5 -23.5t-25.5 -9.5h-149q-15 0 -23 9.5t-6 23.5l340 2414q1 14 12 23.5
t25 9.5h10q27 0 42 -17l1524 -2057l281 2001q1 14 12.5 23.5t25.5 9.5h149z" />
    <glyph glyph-name="Ograve" unicode="&#xd2;" horiz-adv-x="2852" 
d="M1744 2675l-580 427q-12 7 -13 21t8 24l80 108q9 10 22.5 13t25.5 -4l553 -458q10 -8 12 -22.5t-6 -24.5l-53 -72q-10 -12 -24 -15.5t-25 3.5zM1655 2470q218 0 411 -76.5t336.5 -214.5t227 -343.5t83.5 -449.5q0 -210 -55.5 -403.5t-153.5 -347t-232 -280t-290.5 -210.5
t-329.5 -129.5t-348 -45.5q-218 0 -411 76.5t-336.5 214.5t-227 343.5t-83.5 449.5q0 251 79 477t215.5 395t315 293t384 187.5t415.5 63.5zM1330 155q153 0 300 40.5t274.5 115t235 184t184 242t119.5 295.5t43 339q0 203 -63.5 374t-176.5 289.5t-272 184.5t-345 66
q-153 0 -299.5 -40.5t-274 -115t-235.5 -184t-184.5 -242t-119.5 -295.5t-43 -339q0 -203 64 -374t176.5 -289.5t271.5 -184.5t345 -66z" />
    <glyph glyph-name="Oacute" unicode="&#xd3;" horiz-adv-x="2852" 
d="M1587 2675q-13 -7 -26 -3.5t-19 15.5l-34 72q-5 11 0.5 25t17.5 22l683 458q13 7 26.5 4t19.5 -13l50 -108q5 -10 0.5 -24t-18.5 -21zM1655 2470q218 0 411 -76.5t336.5 -214.5t227 -343.5t83.5 -449.5q0 -210 -55.5 -403.5t-153.5 -347t-232 -280t-290.5 -210.5
t-329.5 -129.5t-348 -45.5q-218 0 -411 76.5t-336.5 214.5t-227 343.5t-83.5 449.5q0 251 79 477t215.5 395t315 293t384 187.5t415.5 63.5zM1330 155q153 0 300 40.5t274.5 115t235 184t184 242t119.5 295.5t43 339q0 203 -63.5 374t-176.5 289.5t-272 184.5t-345 66
q-153 0 -299.5 -40.5t-274 -115t-235.5 -184t-184.5 -242t-119.5 -295.5t-43 -339q0 -203 64 -374t176.5 -289.5t271.5 -184.5t345 -66z" />
    <glyph glyph-name="Ocircumflex" unicode="&#xd4;" horiz-adv-x="2852" 
d="M1990 2700l-255 348l-354 -348q-20 -20 -46 -20h-153q-21 0 -25.5 12t12.5 28l489 464q18 17 47 17h102q29 0 43 -17l357 -464q12 -16 5 -28t-28 -12h-151q-29 0 -43 20zM1655 2470q218 0 411 -76.5t336.5 -214.5t227 -343.5t83.5 -449.5q0 -210 -55.5 -403.5
t-153.5 -347t-232 -280t-290.5 -210.5t-329.5 -129.5t-348 -45.5q-218 0 -411 76.5t-336.5 214.5t-227 343.5t-83.5 449.5q0 251 79 477t215.5 395t315 293t384 187.5t415.5 63.5zM1330 155q153 0 300 40.5t274.5 115t235 184t184 242t119.5 295.5t43 339q0 203 -63.5 374
t-176.5 289.5t-272 184.5t-345 66q-153 0 -299.5 -40.5t-274 -115t-235.5 -184t-184.5 -242t-119.5 -295.5t-43 -339q0 -203 64 -374t176.5 -289.5t271.5 -184.5t345 -66z" />
    <glyph glyph-name="Otilde" unicode="&#xd5;" horiz-adv-x="2852" 
d="M1154 2723q-15 0 -22.5 9t-4.5 25q22 188 126.5 288t251.5 100q53 0 97 -15t74 -38.5t56 -52.5t49.5 -57.5t47.5 -52t57 -38.5t72 -15q182 0 232 236q9 33 41 33h57q15 0 21.5 -14.5t0.5 -39.5q-16 -120 -72 -205t-133 -124t-168 -39q-62 0 -112 20t-80 50t-61 65.5
t-56 65.5t-62.5 50t-82.5 20q-181 0 -232 -238q-7 -33 -40 -33h-57zM1655 2470q218 0 411 -76.5t336.5 -214.5t227 -343.5t83.5 -449.5q0 -210 -55.5 -403.5t-153.5 -347t-232 -280t-290.5 -210.5t-329.5 -129.5t-348 -45.5q-218 0 -411 76.5t-336.5 214.5t-227 343.5
t-83.5 449.5q0 251 79 477t215.5 395t315 293t384 187.5t415.5 63.5zM1330 155q153 0 300 40.5t274.5 115t235 184t184 242t119.5 295.5t43 339q0 203 -63.5 374t-176.5 289.5t-272 184.5t-345 66q-153 0 -299.5 -40.5t-274 -115t-235.5 -184t-184.5 -242t-119.5 -295.5
t-43 -339q0 -203 64 -374t176.5 -289.5t271.5 -184.5t345 -66z" />
    <glyph glyph-name="Odieresis" unicode="&#xd6;" horiz-adv-x="2852" 
d="M1348 2781q-53 0 -88 37t-35 90q0 63 49.5 110.5t113.5 47.5q53 0 88.5 -37t35.5 -89q0 -64 -50 -111.5t-114 -47.5zM2049 2781q-53 0 -88.5 37t-35.5 90q0 63 50 110.5t114 47.5q53 0 88.5 -37t35.5 -89q0 -64 -50 -111.5t-114 -47.5zM1655 2470q218 0 411 -76.5
t336.5 -214.5t227 -343.5t83.5 -449.5q0 -210 -55.5 -403.5t-153.5 -347t-232 -280t-290.5 -210.5t-329.5 -129.5t-348 -45.5q-218 0 -411 76.5t-336.5 214.5t-227 343.5t-83.5 449.5q0 251 79 477t215.5 395t315 293t384 187.5t415.5 63.5zM1330 155q153 0 300 40.5
t274.5 115t235 184t184 242t119.5 295.5t43 339q0 203 -63.5 374t-176.5 289.5t-272 184.5t-345 66q-153 0 -299.5 -40.5t-274 -115t-235.5 -184t-184.5 -242t-119.5 -295.5t-43 -339q0 -203 64 -374t176.5 -289.5t271.5 -184.5t345 -66z" />
    <glyph glyph-name="multiply" unicode="&#xd7;" horiz-adv-x="1956" 
d="M1846 1693q18 -23 -8 -48l-718 -630l541 -630q21 -22 -6 -47l-79 -70q-26 -23 -48 0l-542 630l-718 -630q-12 -10 -25.5 -10t-21.5 10l-60 70q-20 24 6 47l719 630l-542 630q-19 24 7 48l80 70q27 23 47 0l541 -631l720 631q26 23 46 0z" />
    <glyph glyph-name="Oslash" unicode="&#xd8;" horiz-adv-x="2852" 
d="M2765 2292q8 -10 6.5 -23.5t-13.5 -23.5l-237 -208q192 -275 192 -651q0 -210 -55.5 -403.5t-153.5 -347t-232 -280t-290.5 -210.5t-329.5 -129.5t-348 -45.5q-228 0 -428.5 83t-346.5 237l-229 -201q-12 -10 -25.5 -10t-21.5 10l-61 71q-20 23 7 47l233 204
q-186 273 -186 643q0 251 79 477t215.5 395t315 293t384 187.5t415.5 63.5q226 0 424.5 -81t343.5 -232l234 205q28 23 47 0zM473 1069q0 -289 127 -510l1662 1457q-115 129 -277.5 199t-355.5 70q-153 0 -299.5 -40.5t-274 -115t-235.5 -184t-184.5 -242t-119.5 -295.5
t-43 -339zM2486 1371q0 298 -132 519l-1663 -1458q115 -133 279 -205t360 -72q153 0 300 40.5t274.5 115t235 184t184 242t119.5 295.5t43 339z" />
    <glyph glyph-name="Ugrave" unicode="&#xd9;" horiz-adv-x="2508" 
d="M1572 2675l-580 427q-12 7 -13 21t8 24l80 108q9 10 22.5 13t25.5 -4l553 -458q10 -8 12 -22.5t-6 -24.5l-53 -72q-10 -12 -24 -15.5t-25 3.5zM2463 2440q13 0 22 -10t7 -23l-195 -1387q-36 -258 -137.5 -460t-254.5 -333t-349 -199t-426 -68t-407 68t-293 199
t-160.5 333t-8.5 460l195 1387q1 13 12.5 23t25.5 10h149q13 0 21.5 -10t7.5 -23l-190 -1348q-61 -437 107 -675.5t567 -238.5t634 238.5t297 675.5l189 1348q1 13 13 23t25 10h149z" />
    <glyph glyph-name="Uacute" unicode="&#xda;" horiz-adv-x="2508" 
d="M1415 2675q-13 -7 -26 -3.5t-19 15.5l-34 72q-5 11 0.5 25t17.5 22l683 458q13 7 26.5 4t19.5 -13l50 -108q5 -10 0.5 -24t-18.5 -21zM2463 2440q13 0 22 -10t7 -23l-195 -1387q-36 -258 -137.5 -460t-254.5 -333t-349 -199t-426 -68t-407 68t-293 199t-160.5 333
t-8.5 460l195 1387q1 13 12.5 23t25.5 10h149q13 0 21.5 -10t7.5 -23l-190 -1348q-61 -437 107 -675.5t567 -238.5t634 238.5t297 675.5l189 1348q1 13 13 23t25 10h149z" />
    <glyph glyph-name="Ucircumflex" unicode="&#xdb;" horiz-adv-x="2508" 
d="M1818 2700l-255 348l-354 -348q-20 -20 -46 -20h-153q-21 0 -25.5 12t12.5 28l489 464q18 17 47 17h102q29 0 43 -17l357 -464q12 -16 5 -28t-28 -12h-151q-29 0 -43 20zM2463 2440q13 0 22 -10t7 -23l-195 -1387q-36 -258 -137.5 -460t-254.5 -333t-349 -199t-426 -68
t-407 68t-293 199t-160.5 333t-8.5 460l195 1387q1 13 12.5 23t25.5 10h149q13 0 21.5 -10t7.5 -23l-190 -1348q-61 -437 107 -675.5t567 -238.5t634 238.5t297 675.5l189 1348q1 13 13 23t25 10h149z" />
    <glyph glyph-name="Udieresis" unicode="&#xdc;" horiz-adv-x="2508" 
d="M1176 2781q-53 0 -88 37t-35 90q0 63 49.5 110.5t113.5 47.5q53 0 88.5 -37t35.5 -89q0 -64 -50 -111.5t-114 -47.5zM1877 2781q-53 0 -88.5 37t-35.5 90q0 63 50 110.5t114 47.5q53 0 88.5 -37t35.5 -89q0 -64 -50 -111.5t-114 -47.5zM2463 2440q13 0 22 -10t7 -23
l-195 -1387q-36 -258 -137.5 -460t-254.5 -333t-349 -199t-426 -68t-407 68t-293 199t-160.5 333t-8.5 460l195 1387q1 13 12.5 23t25.5 10h149q13 0 21.5 -10t7.5 -23l-190 -1348q-61 -437 107 -675.5t567 -238.5t634 238.5t297 675.5l189 1348q1 13 13 23t25 10h149z" />
    <glyph glyph-name="Yacute" unicode="&#xdd;" horiz-adv-x="2299" 
d="M1277 2687l-34 72q-5 11 0.5 25t17.5 22l683 458q13 7 26.5 4t19.5 -13l50 -108q5 -10 0.5 -24t-18.5 -21l-700 -427q-13 -7 -26 -3.5t-19 15.5zM2431 2440q19 0 26.5 -11t-4.5 -29l-1186 -1528l-118 -839q-1 -13 -12.5 -23t-24.5 -10h-149q-13 0 -22.5 10t-7.5 23
l117 832l-764 1536q-8 17 2 28t29 11h173q24 0 36 -26l659 -1351l1037 1351q18 26 43 26h166z" />
    <glyph glyph-name="Thorn" unicode="&#xde;" horiz-adv-x="2207" 
d="M1315 1989q167 0 304.5 -34.5t232 -95t159.5 -145t95 -182t30 -207.5q0 -135 -40 -259.5t-124 -233t-204 -189t-291 -126.5t-375 -46h-701l-62 -438q-2 -13 -13.5 -23t-24.5 -10h-149q-13 0 -22.5 10t-7.5 23l335 2374q2 13 13.5 23t24.5 10h149q13 0 22 -10t7 -23
l-59 -418h701zM1089 656q148 0 271.5 25t212 70.5t154.5 106t105 134.5t58 152t19 163q0 83 -21.5 155t-71 136t-124 109t-187.5 71.5t-255 26.5h-662l-161 -1149h662z" />
    <glyph glyph-name="germandbls" unicode="&#xdf;" horiz-adv-x="2053" 
d="M1328 1281q0 -64 19 -114.5t51 -85t73.5 -63t88 -53.5t92.5 -50.5t87.5 -60t73.5 -76.5t51 -105.5t19 -141.5q0 -116 -41.5 -212t-109 -159.5t-155.5 -107.5t-179 -63t-183 -19q-152 0 -294.5 52t-240.5 136q-24 19 -9 46l58 101q21 34 44 17q113 -87 219.5 -132
t234.5 -45q67 0 131 12.5t123 40t103 68t70.5 100.5t26.5 133q0 60 -19.5 108t-53 80.5t-76 59.5t-90.5 51t-95.5 49.5t-90 59.5t-76 76t-53 105t-19.5 141q0 75 18 140t47.5 113.5t64.5 94.5t70 92.5t64.5 97.5t47.5 121t18 152q0 186 -91.5 290t-266.5 104
q-195 0 -322 -126t-156 -327l-273 -1948q-2 -14 -12.5 -23.5t-25.5 -9.5h-139q-15 0 -23.5 9.5t-6.5 23.5l277 1968q20 138 82 252.5t154 192t211 120.5t252 43q253 0 401 -146t148 -399q0 -85 -17.5 -159t-45.5 -127.5t-62 -101.5t-68.5 -91.5t-62.5 -87.5t-45.5 -99
t-17.5 -117z" />
    <glyph glyph-name="agrave" unicode="&#xe0;" horiz-adv-x="2104" 
d="M715 2340q-12 7 -13 21t8 24l80 108q9 10 22.5 13t25.5 -4l553 -458q10 -8 12 -22.5t-6 -24.5l-53 -72q-10 -12 -24 -15.5t-25 3.5zM1986 1645l-147 -1045q-13 -95 -17 -169.5t4 -143t16.5 -111.5t27.5 -120q8 -36 -27 -48l-102 -34q-20 -7 -31 5q-96 179 -101 389
q-123 -186 -309 -292t-409 -106q-153 0 -288 54.5t-234 151.5t-156.5 239.5t-57.5 310.5q0 171 54.5 326.5t149 273t218.5 205t267.5 132.5t291.5 45q219 0 371.5 -107t224.5 -296l48 340q2 14 12.5 23.5t25.5 9.5h139q15 0 23 -9.5t6 -23.5zM937 155q151 0 290 60
t241.5 162t163.5 246t61 304q0 262 -156 429t-407 167q-146 0 -282.5 -55.5t-242 -154.5t-169.5 -247.5t-64 -321.5q0 -134 43.5 -245.5t119.5 -186t179.5 -116t222.5 -41.5z" />
    <glyph glyph-name="aacute" unicode="&#xe1;" horiz-adv-x="2104" 
d="M1093 1925l-34 72q-5 11 0.5 25t17.5 22l683 458q13 7 26.5 4t19.5 -13l50 -108q5 -10 0.5 -24t-18.5 -21l-700 -427q-13 -7 -26 -3.5t-19 15.5zM1986 1645l-147 -1045q-13 -95 -17 -169.5t4 -143t16.5 -111.5t27.5 -120q8 -36 -27 -48l-102 -34q-20 -7 -31 5
q-96 179 -101 389q-123 -186 -309 -292t-409 -106q-153 0 -288 54.5t-234 151.5t-156.5 239.5t-57.5 310.5q0 171 54.5 326.5t149 273t218.5 205t267.5 132.5t291.5 45q219 0 371.5 -107t224.5 -296l48 340q2 14 12.5 23.5t25.5 9.5h139q15 0 23 -9.5t6 -23.5zM937 155
q151 0 290 60t241.5 162t163.5 246t61 304q0 262 -156 429t-407 167q-146 0 -282.5 -55.5t-242 -154.5t-169.5 -247.5t-64 -321.5q0 -134 43.5 -245.5t119.5 -186t179.5 -116t222.5 -41.5z" />
    <glyph glyph-name="acircumflex" unicode="&#xe2;" horiz-adv-x="2104" 
d="M733 1918q-21 0 -25.5 12t12.5 28l489 464q18 17 47 17h102q29 0 43 -17l357 -464q12 -16 5 -28t-28 -12h-151q-29 0 -43 20l-255 348l-354 -348q-20 -20 -46 -20h-153zM1986 1645l-147 -1045q-13 -95 -17 -169.5t4 -143t16.5 -111.5t27.5 -120q8 -36 -27 -48l-102 -34
q-20 -7 -31 5q-96 179 -101 389q-123 -186 -309 -292t-409 -106q-153 0 -288 54.5t-234 151.5t-156.5 239.5t-57.5 310.5q0 171 54.5 326.5t149 273t218.5 205t267.5 132.5t291.5 45q219 0 371.5 -107t224.5 -296l48 340q2 14 12.5 23.5t25.5 9.5h139q15 0 23 -9.5t6 -23.5z
M937 155q151 0 290 60t241.5 162t163.5 246t61 304q0 262 -156 429t-407 167q-146 0 -282.5 -55.5t-242 -154.5t-169.5 -247.5t-64 -321.5q0 -134 43.5 -245.5t119.5 -186t179.5 -116t222.5 -41.5z" />
    <glyph glyph-name="atilde" unicode="&#xe3;" horiz-adv-x="2104" 
d="M705 1961q-15 0 -22.5 9t-4.5 25q22 188 126.5 288t251.5 100q53 0 97 -15t74 -38.5t56 -52.5t49.5 -57.5t47.5 -52t57 -38.5t72 -15q182 0 232 236q9 33 41 33h57q15 0 21.5 -14.5t0.5 -39.5q-16 -120 -72 -205t-133 -124t-168 -39q-62 0 -112 20t-80 50t-61 65.5
t-56 65.5t-62.5 50t-82.5 20q-181 0 -232 -238q-8 -33 -40 -33h-57zM1986 1645l-147 -1045q-13 -95 -17 -169.5t4 -143t16.5 -111.5t27.5 -120q8 -36 -27 -48l-102 -34q-20 -7 -31 5q-96 179 -101 389q-123 -186 -309 -292t-409 -106q-153 0 -288 54.5t-234 151.5
t-156.5 239.5t-57.5 310.5q0 171 54.5 326.5t149 273t218.5 205t267.5 132.5t291.5 45q219 0 371.5 -107t224.5 -296l48 340q2 14 12.5 23.5t25.5 9.5h139q15 0 23 -9.5t6 -23.5zM937 155q151 0 290 60t241.5 162t163.5 246t61 304q0 262 -156 429t-407 167
q-146 0 -282.5 -55.5t-242 -154.5t-169.5 -247.5t-64 -321.5q0 -134 43.5 -245.5t119.5 -186t179.5 -116t222.5 -41.5z" />
    <glyph glyph-name="adieresis" unicode="&#xe4;" horiz-adv-x="2104" 
d="M899 2019q-53 0 -88 37t-35 90q0 63 49.5 110.5t113.5 47.5q53 0 88.5 -37t35.5 -89q0 -64 -50 -111.5t-114 -47.5zM1600 2019q-53 0 -88.5 37t-35.5 90q0 63 50 110.5t114 47.5q53 0 88.5 -37t35.5 -89q0 -64 -50 -111.5t-114 -47.5zM1986 1645l-147 -1045
q-13 -95 -17 -169.5t4 -143t16.5 -111.5t27.5 -120q8 -36 -27 -48l-102 -34q-20 -7 -31 5q-96 179 -101 389q-123 -186 -309 -292t-409 -106q-153 0 -288 54.5t-234 151.5t-156.5 239.5t-57.5 310.5q0 171 54.5 326.5t149 273t218.5 205t267.5 132.5t291.5 45
q219 0 371.5 -107t224.5 -296l48 340q2 14 12.5 23.5t25.5 9.5h139q15 0 23 -9.5t6 -23.5zM937 155q151 0 290 60t241.5 162t163.5 246t61 304q0 262 -156 429t-407 167q-146 0 -282.5 -55.5t-242 -154.5t-169.5 -247.5t-64 -321.5q0 -134 43.5 -245.5t119.5 -186
t179.5 -116t222.5 -41.5z" />
    <glyph glyph-name="aring" unicode="&#xe5;" horiz-adv-x="2104" 
d="M1227 1856q-147 0 -244 99.5t-97 245.5q0 115 63.5 216.5t167.5 160.5t219 59q147 0 243.5 -100.5t96.5 -246.5q0 -115 -63 -216t-167 -159.5t-219 -58.5zM1319 2515q-124 0 -214 -89.5t-90 -211.5q0 -99 64 -166.5t165 -67.5q124 0 214 89t90 210q0 100 -63.5 168
t-165.5 68zM1986 1645l-147 -1045q-13 -95 -17 -169.5t4 -143t16.5 -111.5t27.5 -120q8 -36 -27 -48l-102 -34q-20 -7 -31 5q-96 179 -101 389q-123 -186 -309 -292t-409 -106q-153 0 -288 54.5t-234 151.5t-156.5 239.5t-57.5 310.5q0 171 54.5 326.5t149 273t218.5 205
t267.5 132.5t291.5 45q219 0 371.5 -107t224.5 -296l48 340q2 14 12.5 23.5t25.5 9.5h139q15 0 23 -9.5t6 -23.5zM937 155q151 0 290 60t241.5 162t163.5 246t61 304q0 262 -156 429t-407 167q-146 0 -282.5 -55.5t-242 -154.5t-169.5 -247.5t-64 -321.5q0 -134 43.5 -245.5
t119.5 -186t179.5 -116t222.5 -41.5z" />
    <glyph glyph-name="ae" unicode="&#xe6;" horiz-adv-x="3143" 
d="M2965 849h-1425q-6 -51 -6 -105q0 -134 43.5 -245.5t119.5 -186t179.5 -116t222.5 -41.5q378 0 584 334q20 30 48 16l113 -57q29 -15 9 -45q-131 -214 -334.5 -323.5t-455.5 -109.5q-250 0 -438.5 128.5t-264.5 351.5q-71 -133 -188 -240.5t-272 -173.5t-316 -66
q-223 0 -351.5 121.5t-128.5 309.5q0 215 150 370t422 208t652 -33l-8 -60l23 166q18 117 9 205t-48.5 147.5t-118.5 89t-200 29.5q-138 0 -260 -35t-280 -107q-13 -6 -26.5 -1t-17.5 18l-32 103q-10 32 23 45q176 82 326 122t313 40q166 0 276 -44t163 -119.5t69 -187.5
q138 166 336 258.5t420 92.5q171 0 306 -54t227.5 -158.5t129.5 -270t7 -376.5zM2271 1533q-234 0 -428 -144.5t-270 -384.5h1175q9 132 -23.5 234.5t-99 166t-156 96t-198.5 32.5zM659 145q118 0 230 46t194.5 120.5t138 170t68.5 192.5l18 127q-252 60 -437 55.5
t-307 -65.5t-181 -153t-59 -205q0 -133 91.5 -210.5t243.5 -77.5z" />
    <glyph glyph-name="ccedilla" unicode="&#xe7;" horiz-adv-x="1957" 
d="M1841 1266q11 -31 -23 -45l-128 -57q-30 -13 -43 15q-55 161 -176.5 252.5t-311.5 91.5q-210 0 -384 -95t-279 -275.5t-105 -412.5q0 -268 160.5 -426.5t419.5 -158.5q362 0 580 344q23 28 48 15l112 -56q30 -15 10 -46q-118 -193 -308 -312.5t-441 -128.5l-107 -218
q124 26 222 13t159 -76.5t61 -164.5q0 -82 -35 -151.5t-94 -115.5t-136 -71.5t-162 -25.5q-179 0 -303 84q-25 19 -7 47l23 38q9 15 23 18.5t26 -3.5q66 -34 121 -51t125 -17q113 0 186 61.5t73 167.5q0 62 -35 100t-95.5 50t-134.5 6.5t-160 -27.5q-23 -5 -30 3t4 32
l151 304q-146 14 -270 73.5t-213.5 155.5t-139.5 230.5t-50 291.5q0 172 53.5 327t148.5 273t220.5 205t275 132.5t307.5 45.5q265 0 430.5 -120.5t231.5 -321.5z" />
    <glyph glyph-name="egrave" unicode="&#xe8;" horiz-adv-x="2001" 
d="M626 2340q-12 7 -13 21t8 24l80 108q9 10 22.5 13t25.5 -4l553 -458q10 -8 12 -22.5t-6 -24.5l-53 -72q-10 -12 -24 -15.5t-25 3.5zM1823 849h-1425q-6 -51 -6 -105q0 -134 43.5 -245.5t119.5 -186t179.5 -116t222.5 -41.5q378 0 584 334q20 30 48 16l113 -57
q29 -15 9 -45q-131 -214 -334.5 -323.5t-455.5 -109.5q-213 0 -382 92.5t-266.5 265t-97.5 396.5q0 214 80 399.5t214 312.5t312 199.5t372 72.5q171 0 306 -54t227.5 -158.5t129.5 -270t7 -376.5zM1129 1533q-234 0 -428 -144.5t-270 -384.5h1175q9 132 -23.5 234.5
t-99 166t-156 96t-198.5 32.5z" />
    <glyph glyph-name="eacute" unicode="&#xe9;" horiz-adv-x="2001" 
d="M1004 1925l-34 72q-5 11 0.5 25t17.5 22l683 458q13 7 26.5 4t19.5 -13l50 -108q5 -10 0.5 -24t-18.5 -21l-700 -427q-13 -7 -26 -3.5t-19 15.5zM1823 849h-1425q-6 -51 -6 -105q0 -134 43.5 -245.5t119.5 -186t179.5 -116t222.5 -41.5q378 0 584 334q20 30 48 16
l113 -57q29 -15 9 -45q-131 -214 -334.5 -323.5t-455.5 -109.5q-213 0 -382 92.5t-266.5 265t-97.5 396.5q0 214 80 399.5t214 312.5t312 199.5t372 72.5q171 0 306 -54t227.5 -158.5t129.5 -270t7 -376.5zM1129 1533q-234 0 -428 -144.5t-270 -384.5h1175
q9 132 -23.5 234.5t-99 166t-156 96t-198.5 32.5z" />
    <glyph glyph-name="ecircumflex" unicode="&#xea;" horiz-adv-x="2001" 
d="M644 1918q-21 0 -25.5 12t12.5 28l489 464q18 17 47 17h102q29 0 43 -17l357 -464q12 -16 5 -28t-28 -12h-151q-29 0 -43 20l-255 348l-354 -348q-20 -20 -46 -20h-153zM1823 849h-1425q-6 -51 -6 -105q0 -134 43.5 -245.5t119.5 -186t179.5 -116t222.5 -41.5
q378 0 584 334q20 30 48 16l113 -57q29 -15 9 -45q-131 -214 -334.5 -323.5t-455.5 -109.5q-213 0 -382 92.5t-266.5 265t-97.5 396.5q0 214 80 399.5t214 312.5t312 199.5t372 72.5q171 0 306 -54t227.5 -158.5t129.5 -270t7 -376.5zM1129 1533q-234 0 -428 -144.5
t-270 -384.5h1175q9 132 -23.5 234.5t-99 166t-156 96t-198.5 32.5z" />
    <glyph glyph-name="edieresis" unicode="&#xeb;" horiz-adv-x="2001" 
d="M810 2019q-53 0 -88 37t-35 90q0 63 49.5 110.5t113.5 47.5q53 0 88.5 -37t35.5 -89q0 -64 -50 -111.5t-114 -47.5zM1511 2019q-53 0 -88.5 37t-35.5 90q0 63 50 110.5t114 47.5q53 0 88.5 -37t35.5 -89q0 -64 -50 -111.5t-114 -47.5zM1823 849h-1425q-6 -51 -6 -105
q0 -134 43.5 -245.5t119.5 -186t179.5 -116t222.5 -41.5q378 0 584 334q20 30 48 16l113 -57q29 -15 9 -45q-131 -214 -334.5 -323.5t-455.5 -109.5q-213 0 -382 92.5t-266.5 265t-97.5 396.5q0 214 80 399.5t214 312.5t312 199.5t372 72.5q171 0 306 -54t227.5 -158.5
t129.5 -270t7 -376.5zM1129 1533q-234 0 -428 -144.5t-270 -384.5h1175q9 132 -23.5 234.5t-99 166t-156 96t-198.5 32.5z" />
    <glyph glyph-name="igrave" unicode="&#xec;" horiz-adv-x="678" 
d="M551 1913l-580 427q-12 7 -13 21t8 24l80 108q9 10 22.5 13t25.5 -4l553 -458q10 -8 12 -22.5t-6 -24.5l-53 -72q-10 -12 -24 -15.5t-25 3.5zM349 1645q2 14 12.5 23.5t25.5 9.5h140q14 0 22.5 -9.5t6.5 -23.5l-227 -1612q-2 -14 -13 -23.5t-25 -9.5h-140
q-14 0 -22.5 9.5t-6.5 23.5z" />
    <glyph glyph-name="iacute" unicode="&#xed;" horiz-adv-x="678" 
d="M394 1913q-13 -7 -26 -3.5t-19 15.5l-34 72q-5 11 0.5 25t17.5 22l683 458q13 7 26.5 4t19.5 -13l50 -108q5 -10 0.5 -24t-18.5 -21zM349 1645q2 14 12.5 23.5t25.5 9.5h140q14 0 22.5 -9.5t6.5 -23.5l-227 -1612q-2 -14 -13 -23.5t-25 -9.5h-140q-14 0 -22.5 9.5
t-6.5 23.5z" />
    <glyph glyph-name="icircumflex" unicode="&#xee;" horiz-adv-x="678" 
d="M797 1938l-255 348l-354 -348q-20 -20 -46 -20h-153q-21 0 -25.5 12t12.5 28l489 464q18 17 47 17h102q29 0 43 -17l357 -464q12 -16 5 -28t-28 -12h-151q-29 0 -43 20zM349 1645q2 14 12.5 23.5t25.5 9.5h140q14 0 22.5 -9.5t6.5 -23.5l-227 -1612q-2 -14 -13 -23.5
t-25 -9.5h-140q-14 0 -22.5 9.5t-6.5 23.5z" />
    <glyph glyph-name="idieresis" unicode="&#xef;" horiz-adv-x="678" 
d="M155 2019q-53 0 -88 37t-35 90q0 63 49.5 110.5t113.5 47.5q53 0 88.5 -37t35.5 -89q0 -64 -50 -111.5t-114 -47.5zM856 2019q-53 0 -88.5 37t-35.5 90q0 63 50 110.5t114 47.5q53 0 88.5 -37t35.5 -89q0 -64 -50 -111.5t-114 -47.5zM349 1645q2 14 12.5 23.5t25.5 9.5
h140q14 0 22.5 -9.5t6.5 -23.5l-227 -1612q-2 -14 -13 -23.5t-25 -9.5h-140q-14 0 -22.5 9.5t-6.5 23.5z" />
    <glyph glyph-name="eth" unicode="&#xf0;" horiz-adv-x="2084" 
d="M1311 2421q112 -66 202.5 -153t152 -185.5t107.5 -205t70 -219.5t37.5 -220.5t13.5 -217t-6.5 -199.5t-18.5 -177q-27 -196 -118 -361.5t-221.5 -277t-292 -173.5t-330.5 -62t-314.5 62.5t-246.5 172t-147.5 270t-20.5 345.5t113.5 345t214.5 269.5t287 172t328 62.5
q191 0 335.5 -79t225.5 -223q-46 640 -475 910l-196 -273q-9 -13 -22.5 -16.5t-24.5 3.5l-35 22q-26 17 -6 46l193 269q-124 63 -285 99q-19 5 -24.5 20.5t5.5 32.5l44 75q14 26 41 19q177 -35 321 -104l179 249q21 29 47 12l35 -21q28 -16 6 -46zM933 155q174 0 329 81
t262.5 234t134.5 350q21 148 -11.5 273.5t-106.5 210.5t-183 132.5t-238 47.5q-130 0 -252 -47.5t-220 -132.5t-165.5 -210.5t-88.5 -273.5t11.5 -274t106.5 -211t183 -132.5t238 -47.5z" />
    <glyph glyph-name="ntilde" unicode="&#xf1;" horiz-adv-x="2019" 
d="M1806 2383q15 0 21.5 -14.5t0.5 -39.5q-16 -120 -72 -205t-133 -124t-168 -39q-62 0 -112 20t-80 50t-61 65.5t-56 65.5t-62.5 50t-82.5 20q-181 0 -232 -238q-7 -33 -40 -33h-57q-15 0 -22.5 9t-4.5 25q22 188 126.5 288t251.5 100q53 0 97 -15t74 -38.5t56 -52.5
t49.5 -57.5t47.5 -52t57 -38.5t72 -15q182 0 232 236q9 33 41 33h57zM1277 1718q130 0 230 -32t164.5 -91.5t103 -144t45 -188.5t-8.5 -226l-141 -1003q-2 -14 -12.5 -23.5t-25.5 -9.5h-139q-15 0 -23.5 9.5t-6.5 23.5l131 927q80 574 -401 574q-178 0 -340.5 -86.5
t-271 -236.5t-133.5 -329l-119 -849q-2 -14 -12.5 -23.5t-25.5 -9.5h-139q-15 0 -23.5 9.5t-6.5 23.5l227 1612q2 14 13 23.5t26 9.5h139q15 0 23 -9.5t6 -23.5l-51 -357q51 79 126 152t172 137t221 102.5t253 38.5z" />
    <glyph glyph-name="ograve" unicode="&#xf2;" horiz-adv-x="2107" 
d="M1264 1913l-580 427q-12 7 -13 21t8 24l80 108q9 10 22.5 13t25.5 -4l553 -458q10 -8 12 -22.5t-6 -24.5l-53 -72q-10 -12 -24 -15.5t-25 3.5zM1176 1708q159 0 298.5 -54.5t240.5 -151.5t159 -239.5t58 -310.5q0 -143 -38.5 -275.5t-106.5 -239.5t-162 -195.5
t-205 -147.5t-236 -91.5t-253 -32.5q-160 0 -299 54.5t-240 152t-159 240t-58 310.5q0 143 38.5 275.5t106.5 239t162 195t205 147.5t236 91.5t253 32.5zM957 155q144 0 279.5 55.5t242 154.5t171 247.5t64.5 321.5q0 134 -43.5 245.5t-119.5 186t-179 116t-222 41.5
q-144 0 -280 -55.5t-242.5 -154.5t-171 -247.5t-64.5 -321.5q0 -134 43.5 -245.5t119.5 -186t179.5 -116t222.5 -41.5z" />
    <glyph glyph-name="oacute" unicode="&#xf3;" horiz-adv-x="2107" 
d="M1107 1913q-13 -7 -26 -3.5t-19 15.5l-34 72q-5 11 0.5 25t17.5 22l683 458q13 7 26.5 4t19.5 -13l50 -108q5 -10 0.5 -24t-18.5 -21zM1176 1708q159 0 298.5 -54.5t240.5 -151.5t159 -239.5t58 -310.5q0 -143 -38.5 -275.5t-106.5 -239.5t-162 -195.5t-205 -147.5
t-236 -91.5t-253 -32.5q-160 0 -299 54.5t-240 152t-159 240t-58 310.5q0 143 38.5 275.5t106.5 239t162 195t205 147.5t236 91.5t253 32.5zM957 155q144 0 279.5 55.5t242 154.5t171 247.5t64.5 321.5q0 134 -43.5 245.5t-119.5 186t-179 116t-222 41.5q-144 0 -280 -55.5
t-242.5 -154.5t-171 -247.5t-64.5 -321.5q0 -134 43.5 -245.5t119.5 -186t179.5 -116t222.5 -41.5z" />
    <glyph glyph-name="ocircumflex" unicode="&#xf4;" horiz-adv-x="2107" 
d="M1510 1938l-255 348l-354 -348q-20 -20 -46 -20h-153q-21 0 -25.5 12t12.5 28l489 464q18 17 47 17h102q29 0 43 -17l357 -464q12 -16 5 -28t-28 -12h-151q-29 0 -43 20zM1176 1708q159 0 298.5 -54.5t240.5 -151.5t159 -239.5t58 -310.5q0 -143 -38.5 -275.5
t-106.5 -239.5t-162 -195.5t-205 -147.5t-236 -91.5t-253 -32.5q-160 0 -299 54.5t-240 152t-159 240t-58 310.5q0 143 38.5 275.5t106.5 239t162 195t205 147.5t236 91.5t253 32.5zM957 155q144 0 279.5 55.5t242 154.5t171 247.5t64.5 321.5q0 134 -43.5 245.5t-119.5 186
t-179 116t-222 41.5q-144 0 -280 -55.5t-242.5 -154.5t-171 -247.5t-64.5 -321.5q0 -134 43.5 -245.5t119.5 -186t179.5 -116t222.5 -41.5z" />
    <glyph glyph-name="otilde" unicode="&#xf5;" horiz-adv-x="2107" 
d="M674 1961q-15 0 -22.5 9t-4.5 25q22 188 126.5 288t251.5 100q53 0 97 -15t74 -38.5t56 -52.5t49.5 -57.5t47.5 -52t57 -38.5t72 -15q182 0 232 236q9 33 41 33h57q15 0 21.5 -14.5t0.5 -39.5q-16 -120 -72 -205t-133 -124t-168 -39q-62 0 -112 20t-80 50t-61 65.5
t-56 65.5t-62.5 50t-82.5 20q-181 0 -232 -238q-7 -33 -40 -33h-57zM1176 1708q159 0 298.5 -54.5t240.5 -151.5t159 -239.5t58 -310.5q0 -143 -38.5 -275.5t-106.5 -239.5t-162 -195.5t-205 -147.5t-236 -91.5t-253 -32.5q-160 0 -299 54.5t-240 152t-159 240t-58 310.5
q0 143 38.5 275.5t106.5 239t162 195t205 147.5t236 91.5t253 32.5zM957 155q144 0 279.5 55.5t242 154.5t171 247.5t64.5 321.5q0 134 -43.5 245.5t-119.5 186t-179 116t-222 41.5q-144 0 -280 -55.5t-242.5 -154.5t-171 -247.5t-64.5 -321.5q0 -134 43.5 -245.5
t119.5 -186t179.5 -116t222.5 -41.5z" />
    <glyph glyph-name="odieresis" unicode="&#xf6;" horiz-adv-x="2107" 
d="M868 2019q-53 0 -88 37t-35 90q0 63 49.5 110.5t113.5 47.5q53 0 88.5 -37t35.5 -89q0 -64 -50 -111.5t-114 -47.5zM1569 2019q-53 0 -88.5 37t-35.5 90q0 63 50 110.5t114 47.5q53 0 88.5 -37t35.5 -89q0 -64 -50 -111.5t-114 -47.5zM1176 1708q159 0 298.5 -54.5
t240.5 -151.5t159 -239.5t58 -310.5q0 -143 -38.5 -275.5t-106.5 -239.5t-162 -195.5t-205 -147.5t-236 -91.5t-253 -32.5q-160 0 -299 54.5t-240 152t-159 240t-58 310.5q0 143 38.5 275.5t106.5 239t162 195t205 147.5t236 91.5t253 32.5zM957 155q144 0 279.5 55.5
t242 154.5t171 247.5t64.5 321.5q0 134 -43.5 245.5t-119.5 186t-179 116t-222 41.5q-144 0 -280 -55.5t-242.5 -154.5t-171 -247.5t-64.5 -321.5q0 -134 43.5 -245.5t119.5 -186t179.5 -116t222.5 -41.5z" />
    <glyph glyph-name="divide" unicode="&#xf7;" horiz-adv-x="2056" 
d="M994 1451q-44 0 -72 29.5t-28 73.5q0 63 55 112t119 49q44 0 72 -29.5t28 -73.5q0 -63 -54.5 -112t-119.5 -49zM274 983q-15 0 -22.5 9.5t-5.5 23.5l13 99q1 14 12.5 23.5t25.5 9.5h1548q15 0 23 -9.5t6 -23.5l-14 -99q-2 -14 -12.5 -23.5t-25.5 -9.5h-1548zM849 416
q-44 0 -72 30t-28 74q0 63 55 112t119 49q44 0 72 -30t28 -74q0 -63 -55 -112t-119 -49z" />
    <glyph glyph-name="oslash" unicode="&#xf8;" horiz-adv-x="2121" 
d="M2023 1622q8 -10 6.5 -23.5t-13.5 -23.5l-208 -182q127 -188 127 -441q0 -171 -54 -326.5t-149.5 -273t-221.5 -205t-274 -132.5t-302 -45q-316 0 -527 195l-203 -178q-11 -10 -24.5 -10t-21.5 10l-61 70q-21 24 7 47l203 178q-129 189 -129 445q0 143 38.5 275.5
t106.5 239t162 195t205 147.5t236 91.5t253 32.5q156 0 291.5 -51t236.5 -146l208 182q25 22 46 0zM396 744q0 -179 77 -316l1075 943q-157 152 -395 152q-145 0 -281.5 -55.5t-242 -154.5t-169.5 -247.5t-64 -321.5zM1718 934q0 178 -75 314l-1076 -943q156 -150 393 -150
q146 0 282.5 55.5t242 154.5t169.5 247.5t64 321.5z" />
    <glyph glyph-name="ugrave" unicode="&#xf9;" horiz-adv-x="2018" 
d="M1221 1913l-580 427q-12 7 -13 21t8 24l80 108q9 10 22.5 13t25.5 -4l553 -458q10 -8 12 -22.5t-6 -24.5l-53 -72q-10 -12 -24 -15.5t-25 3.5zM1867 1678q15 0 23 -9.5t6 -23.5l-227 -1612q-2 -14 -12.5 -23.5t-25.5 -9.5h-139q-15 0 -23 9.5t-6 23.5l51 357
q-51 -79 -126 -152t-172 -137t-221 -102.5t-254 -38.5t-230 32t-164 91.5t-102.5 144t-45 188.5t8.5 226l141 1003q2 14 12.5 23.5t25.5 9.5h139q15 0 23 -9.5t6 -23.5l-130 -927q-40 -284 57.5 -428.5t342.5 -144.5q134 0 262 51t228 137.5t168.5 207.5t87.5 255l119 849
q2 14 12.5 23.5t25.5 9.5h139z" />
    <glyph glyph-name="uacute" unicode="&#xfa;" horiz-adv-x="2018" 
d="M1064 1913q-13 -7 -26 -3.5t-19 15.5l-34 72q-5 11 0.5 25t17.5 22l683 458q13 7 26.5 4t19.5 -13l50 -108q5 -10 0.5 -24t-18.5 -21zM1867 1678q15 0 23 -9.5t6 -23.5l-227 -1612q-2 -14 -12.5 -23.5t-25.5 -9.5h-139q-15 0 -23 9.5t-6 23.5l51 357q-51 -79 -126 -152
t-172 -137t-221 -102.5t-254 -38.5t-230 32t-164 91.5t-102.5 144t-45 188.5t8.5 226l141 1003q2 14 12.5 23.5t25.5 9.5h139q15 0 23 -9.5t6 -23.5l-130 -927q-40 -284 57.5 -428.5t342.5 -144.5q134 0 262 51t228 137.5t168.5 207.5t87.5 255l119 849q2 14 12.5 23.5
t25.5 9.5h139z" />
    <glyph glyph-name="ucircumflex" unicode="&#xfb;" horiz-adv-x="2018" 
d="M1467 1938l-255 348l-354 -348q-20 -20 -46 -20h-153q-21 0 -25.5 12t12.5 28l489 464q18 17 47 17h102q29 0 43 -17l357 -464q12 -16 5 -28t-28 -12h-151q-29 0 -43 20zM1867 1678q15 0 23 -9.5t6 -23.5l-227 -1612q-2 -14 -12.5 -23.5t-25.5 -9.5h-139q-15 0 -23 9.5
t-6 23.5l51 357q-51 -79 -126 -152t-172 -137t-221 -102.5t-254 -38.5t-230 32t-164 91.5t-102.5 144t-45 188.5t8.5 226l141 1003q2 14 12.5 23.5t25.5 9.5h139q15 0 23 -9.5t6 -23.5l-130 -927q-40 -284 57.5 -428.5t342.5 -144.5q134 0 262 51t228 137.5t168.5 207.5
t87.5 255l119 849q2 14 12.5 23.5t25.5 9.5h139z" />
    <glyph glyph-name="udieresis" unicode="&#xfc;" horiz-adv-x="2018" 
d="M825 2019q-53 0 -88 37t-35 90q0 63 49.5 110.5t113.5 47.5q53 0 88.5 -37t35.5 -89q0 -64 -50 -111.5t-114 -47.5zM1526 2019q-53 0 -88.5 37t-35.5 90q0 63 50 110.5t114 47.5q53 0 88.5 -37t35.5 -89q0 -64 -50 -111.5t-114 -47.5zM1867 1678q15 0 23 -9.5t6 -23.5
l-227 -1612q-2 -14 -12.5 -23.5t-25.5 -9.5h-139q-15 0 -23 9.5t-6 23.5l51 357q-51 -79 -126 -152t-172 -137t-221 -102.5t-254 -38.5t-230 32t-164 91.5t-102.5 144t-45 188.5t8.5 226l141 1003q2 14 12.5 23.5t25.5 9.5h139q15 0 23 -9.5t6 -23.5l-130 -927
q-40 -284 57.5 -428.5t342.5 -144.5q134 0 262 51t228 137.5t168.5 207.5t87.5 255l119 849q2 14 12.5 23.5t25.5 9.5h139z" />
    <glyph glyph-name="yacute" unicode="&#xfd;" horiz-adv-x="1694" 
d="M850 1925l-34 72q-5 11 0.5 25t17.5 22l683 458q13 7 26.5 4t19.5 -13l50 -108q5 -10 0.5 -24t-18.5 -21l-700 -427q-13 -7 -26 -3.5t-19 15.5zM1752 1678q24 0 32 -18.5t-7 -42.5l-967 -1621q-111 -187 -201.5 -319.5t-185.5 -243.5t-184 -177t-187 -102t-206 -36
q-38 0 -33 34l14 103q6 30 37 33q181 9 355 193.5t450 648.5l-533 1487q-10 24 3.5 42.5t39.5 18.5h151q21 0 28 -22l439 -1310l773 1310q11 22 39 22h143z" />
    <glyph glyph-name="thorn" unicode="&#xfe;" horiz-adv-x="2129" 
d="M1217 1708q153 0 288.5 -54.5t234.5 -151.5t156.5 -239.5t57.5 -310.5q0 -171 -54.5 -326.5t-149 -273t-218.5 -205t-267.5 -132.5t-291.5 -45q-219 0 -371.5 107t-224.5 296l-172 -1221q-2 -15 -12.5 -24.5t-25.5 -9.5h-139q-15 0 -23 9.5t-6 24.5l474 3375
q2 14 12.5 23.5t25.5 9.5h139q15 0 23 -9.5t6 -23.5l-168 -1199q123 179 305.5 279.5t400.5 100.5zM979 155q116 0 227.5 35t207 103t167.5 161t113.5 217t41.5 263q0 178 -75 313t-202.5 205.5t-286.5 70.5q-151 0 -290 -59.5t-242 -161.5t-164 -246t-61 -305
q0 -262 156.5 -429t407.5 -167z" />
    <glyph glyph-name="ydieresis" unicode="&#xff;" horiz-adv-x="1694" 
d="M656 2019q-53 0 -88 37t-35 90q0 63 49.5 110.5t113.5 47.5q53 0 88.5 -37t35.5 -89q0 -64 -50 -111.5t-114 -47.5zM1357 2019q-53 0 -88.5 37t-35.5 90q0 63 50 110.5t114 47.5q53 0 88.5 -37t35.5 -89q0 -64 -50 -111.5t-114 -47.5zM1752 1678q24 0 32 -18.5t-7 -42.5
l-967 -1621q-111 -187 -201.5 -319.5t-185.5 -243.5t-184 -177t-187 -102t-206 -36q-38 0 -33 34l14 103q6 30 37 33q181 9 355 193.5t450 648.5l-533 1487q-10 24 3.5 42.5t39.5 18.5h151q21 0 28 -22l439 -1310l773 1310q11 22 39 22h143z" />
    <glyph glyph-name="Amacron" unicode="&#x100;" 
d="M1020 2851q-14 0 -22.5 10.5t-6.5 23.5l12 86q1 13 12.5 23.5t25.5 10.5h1011q13 0 21.5 -10t6.5 -24l-12 -86q-1 -13 -12.5 -23.5t-25.5 -10.5h-1010zM2282 39q6 -18 -3.5 -28.5t-27.5 -10.5h-177q-30 0 -36 26l-216 740h-1196l-434 -740q-16 -26 -43 -26h-174
q-19 0 -26 10t3 29l1449 2415q16 26 42 26h62q29 0 36 -26zM729 941h1042l-346 1186z" />
    <glyph glyph-name="amacron" unicode="&#x101;" horiz-adv-x="2104" 
d="M755 2089q-14 0 -22.5 10.5t-6.5 23.5l12 86q1 13 12.5 23.5t25.5 10.5h1011q13 0 21.5 -10t6.5 -24l-12 -86q-1 -13 -12.5 -23.5t-25.5 -10.5h-1010zM1986 1645l-147 -1045q-13 -95 -17 -169.5t4 -143t16.5 -111.5t27.5 -120q8 -36 -27 -48l-102 -34q-20 -7 -31 5
q-96 179 -101 389q-123 -186 -309 -292t-409 -106q-153 0 -288 54.5t-234 151.5t-156.5 239.5t-57.5 310.5q0 171 54.5 326.5t149 273t218.5 205t267.5 132.5t291.5 45q219 0 371.5 -107t224.5 -296l48 340q2 14 12.5 23.5t25.5 9.5h139q15 0 23 -9.5t6 -23.5zM937 155
q151 0 290 60t241.5 162t163.5 246t61 304q0 262 -156 429t-407 167q-146 0 -282.5 -55.5t-242 -154.5t-169.5 -247.5t-64 -321.5q0 -134 43.5 -245.5t119.5 -186t179.5 -116t222.5 -41.5z" />
    <glyph glyph-name="Abreve" unicode="&#x102;" 
d="M1498 2661q-203 0 -337 117t-134 307q0 53 10 73t31 20h91q31 0 31 -55q0 -94 47.5 -161.5t121 -98t163.5 -30.5q95 0 179.5 34t150.5 107.5t89 175.5q8 28 42 28h90q27 0 27 -28q0 -134 -85 -247.5t-223.5 -177.5t-293.5 -64zM2282 39q6 -18 -3.5 -28.5t-27.5 -10.5
h-177q-30 0 -36 26l-216 740h-1196l-434 -740q-16 -26 -43 -26h-174q-19 0 -26 10t3 29l1449 2415q16 26 42 26h62q29 0 36 -26zM729 941h1042l-346 1186z" />
    <glyph glyph-name="abreve" unicode="&#x103;" horiz-adv-x="2104" 
d="M1233 1899q-203 0 -337 117t-134 307q0 53 10 73t31 20h91q31 0 31 -55q0 -94 47.5 -161.5t121 -98t163.5 -30.5q95 0 179.5 34t150.5 107.5t89 175.5q8 28 42 28h90q27 0 27 -28q0 -134 -85 -247.5t-223.5 -177.5t-293.5 -64zM1986 1645l-147 -1045q-13 -95 -17 -169.5
t4 -143t16.5 -111.5t27.5 -120q8 -36 -27 -48l-102 -34q-20 -7 -31 5q-96 179 -101 389q-123 -186 -309 -292t-409 -106q-153 0 -288 54.5t-234 151.5t-156.5 239.5t-57.5 310.5q0 171 54.5 326.5t149 273t218.5 205t267.5 132.5t291.5 45q219 0 371.5 -107t224.5 -296
l48 340q2 14 12.5 23.5t25.5 9.5h139q15 0 23 -9.5t6 -23.5zM937 155q151 0 290 60t241.5 162t163.5 246t61 304q0 262 -156 429t-407 167q-146 0 -282.5 -55.5t-242 -154.5t-169.5 -247.5t-64 -321.5q0 -134 43.5 -245.5t119.5 -186t179.5 -116t222.5 -41.5z" />
    <glyph glyph-name="Aogonek" unicode="&#x104;" 
d="M2282 39q6 -18 -3.5 -28.5t-27.5 -10.5h-66q-411 -229 -411 -504q0 -90 50.5 -142t145.5 -52q88 0 163 31q21 6 31 -0.5t7 -25.5l-8 -65q-4 -27 -32 -39q-101 -42 -220 -42q-152 0 -230.5 78.5t-78.5 206.5q0 167 120 326t315 259l-215 735h-1196l-434 -740
q-16 -26 -43 -26h-174q-19 0 -26 10t3 29l1449 2415q16 26 42 26h62q29 0 36 -26zM729 941h1042l-346 1186z" />
    <glyph glyph-name="aogonek" unicode="&#x105;" horiz-adv-x="2103" 
d="M1986 1645l-147 -1045q-18 -125 -17 -225t11.5 -160t35.5 -159q7 -30 -24 -47q-194 -110 -315.5 -226t-140.5 -246q-32 -227 178 -227q84 0 159 31q21 6 31 -0.5t7 -25.5l-9 -65q-5 -29 -31 -39q-94 -42 -215 -42q-86 0 -148.5 26t-96 73t-44.5 107t-1 132
q39 279 458 523q-65 162 -66 340q-123 -187 -309.5 -293.5t-410.5 -106.5q-153 0 -288 54.5t-234 151.5t-156.5 239.5t-57.5 310.5q0 171 54.5 326.5t149 273t218.5 205t267.5 132.5t291.5 45q219 0 371.5 -107t224.5 -296l48 340q2 14 12.5 23.5t25.5 9.5h139q15 0 23 -9.5
t6 -23.5zM937 155q151 0 290 61t241.5 164t163.5 246.5t61 300.5q0 168 -70 303.5t-199 214t-294 78.5q-146 0 -282.5 -55.5t-242 -154.5t-169.5 -247.5t-64 -321.5q0 -134 43.5 -245.5t119.5 -186t179.5 -116t222.5 -41.5z" />
    <glyph glyph-name="Cacute" unicode="&#x106;" horiz-adv-x="2615" 
d="M1587 2675q-13 -7 -26 -3.5t-19 15.5l-34 72q-5 11 0.5 25t17.5 22l683 458q13 7 26.5 4t19.5 -13l50 -108q5 -10 0.5 -24t-18.5 -21zM2388 652q30 -14 9 -47q-407 -635 -1093 -635q-218 0 -411 76.5t-336.5 214.5t-227 343.5t-83.5 449.5q0 251 79 477t215.5 395
t315 293t384 187.5t415.5 63.5q686 0 915 -635q11 -33 -22 -47l-123 -55q-32 -14 -44 18q-193 534 -752 534q-153 0 -299.5 -40.5t-274 -115t-235.5 -184t-184.5 -242t-119.5 -295.5t-43 -339q0 -203 64 -374t176.5 -289.5t271.5 -184.5t345 -66q555 0 902 534q20 32 50 18z
" />
    <glyph glyph-name="cacute" unicode="&#x107;" horiz-adv-x="1957" 
d="M1115 1913q-13 -7 -26 -3.5t-19 15.5l-34 72q-5 11 0.5 25t17.5 22l683 458q13 7 26.5 4t19.5 -13l50 -108q5 -10 0.5 -24t-18.5 -21zM1711 458q30 -15 10 -46q-122 -200 -321.5 -321t-465.5 -121q-163 0 -303 54t-241 151.5t-158.5 239.5t-57.5 310q0 172 53.5 327
t148.5 273t220.5 205t275 132.5t307.5 45.5q265 0 430.5 -120.5t231.5 -321.5q11 -31 -23 -45l-128 -57q-30 -13 -43 15q-55 161 -176.5 252.5t-311.5 91.5q-210 0 -384 -95t-279 -275.5t-105 -412.5q0 -268 160.5 -426.5t419.5 -158.5q362 0 580 344q23 28 48 15z" />
    <glyph glyph-name="Cdotaccent" unicode="&#x10a;" horiz-adv-x="2615" 
d="M1699 2780q-55 0 -92 38.5t-37 93.5q0 65 52 114.5t119 49.5q54 0 91 -38.5t37 -93.5q0 -65 -51.5 -114.5t-118.5 -49.5zM2388 652q30 -14 9 -47q-407 -635 -1093 -635q-218 0 -411 76.5t-336.5 214.5t-227 343.5t-83.5 449.5q0 251 79 477t215.5 395t315 293t384 187.5
t415.5 63.5q686 0 915 -635q11 -33 -22 -47l-123 -55q-32 -14 -44 18q-193 534 -752 534q-153 0 -299.5 -40.5t-274 -115t-235.5 -184t-184.5 -242t-119.5 -295.5t-43 -339q0 -203 64 -374t176.5 -289.5t271.5 -184.5t345 -66q555 0 902 534q20 32 50 18z" />
    <glyph glyph-name="cdotaccent" unicode="&#x10b;" horiz-adv-x="1957" 
d="M1227 2018q-55 0 -92 38.5t-37 93.5q0 65 52 114.5t119 49.5q54 0 91 -38.5t37 -93.5q0 -65 -51.5 -114.5t-118.5 -49.5zM1711 458q30 -15 10 -46q-122 -200 -321.5 -321t-465.5 -121q-163 0 -303 54t-241 151.5t-158.5 239.5t-57.5 310q0 172 53.5 327t148.5 273
t220.5 205t275 132.5t307.5 45.5q265 0 430.5 -120.5t231.5 -321.5q11 -31 -23 -45l-128 -57q-30 -13 -43 15q-55 161 -176.5 252.5t-311.5 91.5q-210 0 -384 -95t-279 -275.5t-105 -412.5q0 -268 160.5 -426.5t419.5 -158.5q362 0 580 344q23 28 48 15z" />
    <glyph glyph-name="Ccaron" unicode="&#x10c;" horiz-adv-x="2615" 
d="M2058 3180q20 19 48 19h151q21 0 25.5 -11.5t-12.5 -27.5l-488 -464q-21 -18 -48 -18h-102q-28 0 -43 18l-357 464q-13 16 -5.5 27.5t28.5 11.5h154q25 0 40 -19l256 -349zM2388 652q30 -14 9 -47q-407 -635 -1093 -635q-218 0 -411 76.5t-336.5 214.5t-227 343.5
t-83.5 449.5q0 251 79 477t215.5 395t315 293t384 187.5t415.5 63.5q686 0 915 -635q11 -33 -22 -47l-123 -55q-32 -14 -44 18q-193 534 -752 534q-153 0 -299.5 -40.5t-274 -115t-235.5 -184t-184.5 -242t-119.5 -295.5t-43 -339q0 -203 64 -374t176.5 -289.5t271.5 -184.5
t345 -66q555 0 902 534q20 32 50 18z" />
    <glyph glyph-name="ccaron" unicode="&#x10d;" horiz-adv-x="1957" 
d="M1586 2418q20 19 48 19h151q21 0 25.5 -11.5t-12.5 -27.5l-488 -464q-21 -18 -48 -18h-102q-28 0 -43 18l-357 464q-13 16 -5.5 27.5t28.5 11.5h154q25 0 40 -19l256 -349zM1711 458q30 -15 10 -46q-122 -200 -321.5 -321t-465.5 -121q-163 0 -303 54t-241 151.5
t-158.5 239.5t-57.5 310q0 172 53.5 327t148.5 273t220.5 205t275 132.5t307.5 45.5q265 0 430.5 -120.5t231.5 -321.5q11 -31 -23 -45l-128 -57q-30 -13 -43 15q-55 161 -176.5 252.5t-311.5 91.5q-210 0 -384 -95t-279 -275.5t-105 -412.5q0 -268 160.5 -426.5
t419.5 -158.5q362 0 580 344q23 28 48 15z" />
    <glyph glyph-name="Dcaron" unicode="&#x10e;" horiz-adv-x="2559" 
d="M1333 2696l-357 464q-13 16 -5.5 27.5t28.5 11.5h154q25 0 40 -19l256 -349l353 349q20 19 48 19h151q21 0 25.5 -11.5t-12.5 -27.5l-488 -464q-21 -18 -48 -18h-102q-28 0 -43 18zM1337 2440q232 0 429.5 -70.5t343 -202t228 -331t82.5 -444.5q0 -257 -76 -481.5
t-210 -389.5t-313.5 -283.5t-390.5 -178t-436 -59.5h-749h-94q-13 0 -22 10t-7 23l334 2374q1 13 12.5 23t25.5 10h149h694zM1000 185q198 0 378.5 52.5t328.5 155t257 245t169 331t60 403.5q0 272 -113.5 473t-316.5 305.5t-471 104.5h-641l-292 -2070h641z" />
    <glyph glyph-name="dcaron" unicode="&#x10f;" horiz-adv-x="2520" 
d="M2498 2597q47 0 83.5 -33t36.5 -103q0 -124 -99 -292.5t-238 -266.5q-25 -17 -42 6l-8 12q-12 23 10 44q78 67 129 149.5t51 159.5q0 23 -9 37.5t-32 32.5q-46 37 -46 94q0 65 50 112.5t114 47.5zM2101 2560q14 0 22.5 -9.5t6.5 -23.5l-351 -2494q-2 -14 -12.5 -23.5
t-25.5 -9.5h-139q-15 0 -23 9.5t-6 23.5l44 316q-124 -178 -306 -278.5t-400 -100.5q-153 0 -288 54.5t-234 151.5t-156.5 239.5t-57.5 310.5q0 171 54.5 326.5t149 273t218.5 205t267.5 132.5t291.5 45q219 0 371.5 -107t224.5 -296l171 1222q2 14 13 23.5t25 9.5h140z
M957 155q151 0 290 60t241.5 162t163.5 246t61 304q0 262 -156 429t-407 167q-146 0 -282.5 -55.5t-242 -154.5t-169.5 -247.5t-64 -321.5q0 -134 43.5 -245.5t119.5 -186t179.5 -116t222.5 -41.5z" />
    <glyph glyph-name="Dcroat" unicode="&#x110;" horiz-adv-x="2559" 
d="M1337 2440q232 0 429.5 -70.5t343 -202t228 -331t82.5 -444.5q0 -257 -76 -481.5t-210 -389.5t-313.5 -283.5t-390.5 -178t-436 -59.5h-749h-94q-13 0 -22 10t-7 23l155 1101h-303q-14 0 -22 9t-6 24l13 98q1 15 12.5 24.5t25.5 9.5h303l156 1108q1 13 12.5 23t25.5 10
h149h694zM1000 185q198 0 378.5 52.5t328.5 155t257 245t169 331t60 403.5q0 272 -113.5 473t-316.5 305.5t-471 104.5h-641l-135 -956h666q14 0 22 -9.5t6 -24.5l-13 -98q-2 -15 -13 -24t-26 -9h-665l-134 -949h641z" />
    <glyph glyph-name="dcroat" unicode="&#x111;" horiz-adv-x="2238" 
d="M2370 2159q15 0 23 -9.5t6 -24.5l-9 -59q-2 -15 -12.5 -24t-24.5 -9h-293l-281 -2000q-2 -14 -12.5 -23.5t-25.5 -9.5h-139q-15 0 -23 9.5t-6 23.5l44 316q-124 -178 -306 -278.5t-400 -100.5q-153 0 -288 54.5t-234 151.5t-156.5 239.5t-57.5 310.5q0 171 54.5 326.5
t149 273t218.5 205t267.5 132.5t291.5 45q219 0 371.5 -107t224.5 -296l102 728h-526q-15 0 -23 9t-6 24l9 59q2 15 12.5 24.5t25.5 9.5h525l52 368q2 14 13 23.5t25 9.5h140q14 0 22.5 -9.5t6.5 -23.5l-52 -368h292zM957 155q151 0 290 60t241.5 162t163.5 246t61 304
q0 262 -156 429t-407 167q-146 0 -282.5 -55.5t-242 -154.5t-169.5 -247.5t-64 -321.5q0 -134 43.5 -245.5t119.5 -186t179.5 -116t222.5 -41.5z" />
    <glyph glyph-name="Emacron" unicode="&#x112;" horiz-adv-x="2187" 
d="M894 2851q-14 0 -22.5 10.5t-6.5 23.5l12 86q1 13 12.5 23.5t25.5 10.5h1011q13 0 21.5 -10t6.5 -24l-12 -86q-1 -13 -12.5 -23.5t-25.5 -10.5h-1010zM2143 2440q15 0 23 -9.5t6 -23.5l-16 -118q-7 -34 -39 -34h-1466l-126 -896h1306q15 0 23 -9.5t6 -24.5l-16 -118
q-7 -33 -39 -33h-1306l-140 -989h1507q15 0 23 -9.5t6 -24.5l-16 -118q-7 -33 -39 -33h-1599h-90q-13 0 -22 10t-7 23l334 2374q1 13 12.5 23t25.5 10h149h1500z" />
    <glyph glyph-name="emacron" unicode="&#x113;" horiz-adv-x="2001" 
d="M666 2089q-14 0 -22.5 10.5t-6.5 23.5l12 86q1 13 12.5 23.5t25.5 10.5h1011q13 0 21.5 -10t6.5 -24l-12 -86q-1 -13 -12.5 -23.5t-25.5 -10.5h-1010zM1823 849h-1425q-6 -51 -6 -105q0 -134 43.5 -245.5t119.5 -186t179.5 -116t222.5 -41.5q378 0 584 334q20 30 48 16
l113 -57q29 -15 9 -45q-131 -214 -334.5 -323.5t-455.5 -109.5q-213 0 -382 92.5t-266.5 265t-97.5 396.5q0 214 80 399.5t214 312.5t312 199.5t372 72.5q171 0 306 -54t227.5 -158.5t129.5 -270t7 -376.5zM1129 1533q-234 0 -428 -144.5t-270 -384.5h1175
q9 132 -23.5 234.5t-99 166t-156 96t-198.5 32.5z" />
    <glyph glyph-name="Edotaccent" unicode="&#x116;" horiz-adv-x="2187" 
d="M1389 2780q-55 0 -92 38.5t-37 93.5q0 65 52 114.5t119 49.5q54 0 91 -38.5t37 -93.5q0 -65 -51.5 -114.5t-118.5 -49.5zM2143 2440q15 0 23 -9.5t6 -23.5l-16 -118q-7 -34 -39 -34h-1466l-126 -896h1306q15 0 23 -9.5t6 -24.5l-16 -118q-7 -33 -39 -33h-1306l-140 -989
h1507q15 0 23 -9.5t6 -24.5l-16 -118q-7 -33 -39 -33h-1599h-90q-13 0 -22 10t-7 23l334 2374q1 13 12.5 23t25.5 10h149h1500z" />
    <glyph glyph-name="edotaccent" unicode="&#x117;" horiz-adv-x="2001" 
d="M1161 2018q-55 0 -92 38.5t-37 93.5q0 65 52 114.5t119 49.5q54 0 91 -38.5t37 -93.5q0 -65 -51.5 -114.5t-118.5 -49.5zM1823 849h-1425q-6 -51 -6 -105q0 -134 43.5 -245.5t119.5 -186t179.5 -116t222.5 -41.5q378 0 584 334q20 30 48 16l113 -57q29 -15 9 -45
q-131 -214 -334.5 -323.5t-455.5 -109.5q-213 0 -382 92.5t-266.5 265t-97.5 396.5q0 214 80 399.5t214 312.5t312 199.5t372 72.5q171 0 306 -54t227.5 -158.5t129.5 -270t7 -376.5zM1129 1533q-234 0 -428 -144.5t-270 -384.5h1175q9 132 -23.5 234.5t-99 166t-156 96
t-198.5 32.5z" />
    <glyph glyph-name="Eogonek" unicode="&#x118;" horiz-adv-x="2187" 
d="M2143 2440q15 0 23 -9.5t6 -23.5l-16 -118q-7 -34 -39 -34h-1466l-126 -896h1306q15 0 23 -9.5t6 -24.5l-16 -118q-7 -33 -39 -33h-1306l-140 -989h1507q15 0 23 -9.5t6 -24.5l-16 -118q-7 -33 -39 -33h-91q-411 -229 -411 -504q0 -90 50.5 -142t145.5 -52q88 0 163 31
q21 6 31 -0.5t7 -25.5l-8 -65q-4 -27 -32 -39q-101 -42 -220 -42q-152 0 -230.5 78.5t-78.5 206.5q0 154 103 302.5t276 251.5h-1304h-90q-13 0 -22 10t-7 23l334 2374q1 13 12.5 23t25.5 10h149h1500z" />
    <glyph glyph-name="eogonek" unicode="&#x119;" horiz-adv-x="2001" 
d="M1823 849h-1425q-6 -51 -6 -105q0 -134 43.5 -245.5t119.5 -186t179.5 -116t222.5 -41.5q378 0 584 334q20 30 48 16l113 -57q29 -15 9 -45q-165 -269 -444 -373q-167 -108 -251 -224t-84 -251q0 -108 58.5 -170t167.5 -62q90 0 159 30q19 7 30 0.5t11 -25.5v-65
q0 -28 -25 -40q-92 -42 -215 -42q-170 0 -260.5 93.5t-90.5 240.5q0 126 63.5 246.5t175.5 211.5q-42 -3 -85 -3q-213 0 -382 92.5t-266.5 265t-97.5 396.5q0 214 80 399.5t214 312.5t312 199.5t372 72.5q171 0 306 -54t227.5 -158.5t129.5 -270t7 -376.5zM1129 1533
q-234 0 -428 -144.5t-270 -384.5h1175q9 132 -23.5 234.5t-99 166t-156 96t-198.5 32.5z" />
    <glyph glyph-name="Ecaron" unicode="&#x11a;" horiz-adv-x="2187" 
d="M1279 2696l-357 464q-13 16 -5.5 27.5t28.5 11.5h154q25 0 40 -19l256 -349l353 349q20 19 48 19h151q21 0 25.5 -11.5t-12.5 -27.5l-488 -464q-21 -18 -48 -18h-102q-28 0 -43 18zM2143 2440q15 0 23 -9.5t6 -23.5l-16 -118q-7 -34 -39 -34h-1466l-126 -896h1306
q15 0 23 -9.5t6 -24.5l-16 -118q-7 -33 -39 -33h-1306l-140 -989h1507q15 0 23 -9.5t6 -24.5l-16 -118q-7 -33 -39 -33h-1599h-90q-13 0 -22 10t-7 23l334 2374q1 13 12.5 23t25.5 10h149h1500z" />
    <glyph glyph-name="ecaron" unicode="&#x11b;" horiz-adv-x="2001" 
d="M1051 1934l-357 464q-13 16 -5.5 27.5t28.5 11.5h154q25 0 40 -19l256 -349l353 349q20 19 48 19h151q21 0 25.5 -11.5t-12.5 -27.5l-488 -464q-21 -18 -48 -18h-102q-28 0 -43 18zM1823 849h-1425q-6 -51 -6 -105q0 -134 43.5 -245.5t119.5 -186t179.5 -116t222.5 -41.5
q378 0 584 334q20 30 48 16l113 -57q29 -15 9 -45q-131 -214 -334.5 -323.5t-455.5 -109.5q-213 0 -382 92.5t-266.5 265t-97.5 396.5q0 214 80 399.5t214 312.5t312 199.5t372 72.5q171 0 306 -54t227.5 -158.5t129.5 -270t7 -376.5zM1129 1533q-234 0 -428 -144.5
t-270 -384.5h1175q9 132 -23.5 234.5t-99 166t-156 96t-198.5 32.5z" />
    <glyph glyph-name="Gbreve" unicode="&#x11e;" horiz-adv-x="2672" 
d="M1657 2661q-203 0 -337 117t-134 307q0 53 10 73t31 20h91q31 0 31 -55q0 -94 47.5 -161.5t121 -98t163.5 -30.5q95 0 179.5 34t150.5 107.5t89 175.5q8 28 42 28h90q27 0 27 -28q0 -134 -85 -247.5t-223.5 -177.5t-293.5 -64zM2571 1910q14 -30 -22 -48l-123 -54
q-33 -14 -45 18q-120 242 -301.5 350.5t-450.5 108.5q-153 0 -299.5 -40.5t-274 -115t-235.5 -184t-184.5 -242t-119.5 -295.5t-43 -339q0 -203 64 -374t176.5 -289.5t271.5 -184.5t345 -66q237 0 434.5 50t409.5 165l93 666q2 15 13 24.5t26 9.5h129q15 0 23 -9.5t6 -24.5
l-106 -754q-250 -157 -503 -234.5t-551 -77.5q-218 0 -411 76.5t-336.5 214.5t-227 343.5t-83.5 449.5q0 251 79 477t215.5 395t315 293t384 187.5t415.5 63.5q333 0 553.5 -133.5t362.5 -426.5z" />
    <glyph glyph-name="gbreve" unicode="&#x11f;" horiz-adv-x="1928" 
d="M1100 1899q-203 0 -337 117t-134 307q0 53 10 73t31 20h91q31 0 31 -55q0 -94 47.5 -161.5t121 -98t163.5 -30.5q95 0 179.5 34t150.5 107.5t89 175.5q8 28 42 28h90q27 0 27 -28q0 -134 -85 -247.5t-223.5 -177.5t-293.5 -64zM1926 1748q16 0 22 -6.5t4 -21.5l-19 -131
q-3 -27 -30 -27q-91 0 -167.5 -42.5t-117.5 -119.5q52 -91 52 -211q0 -128 -59.5 -246t-160.5 -204.5t-243 -138t-300 -51.5h-231q-176 0 -264.5 -63t-88.5 -161q0 -169 297 -169h289q355 0 543 -124.5t188 -343.5q0 -126 -55 -232.5t-161 -186.5t-275 -125t-384 -45
q-360 0 -548.5 123.5t-188.5 324.5q0 163 116 285.5t308 192.5q-320 33 -320 263q0 138 104 234.5t309 127.5q-114 61 -178.5 173t-64.5 244q0 172 100.5 319t277 234.5t387.5 87.5q150 0 271.5 -47t202.5 -132q67 103 170 161t215 58zM928 714q142 0 264.5 60.5t196 166.5
t73.5 232q0 162 -117 266t-301 104q-141 0 -264.5 -61.5t-197 -168t-73.5 -229.5q0 -160 116.5 -265t302.5 -105zM886 -9q-186 0 -336 -52.5t-235.5 -145.5t-85.5 -209q0 -153 140.5 -241.5t413.5 -88.5q320 0 488.5 111.5t168.5 295.5q0 149 -140.5 239.5t-413.5 90.5z" />
    <glyph glyph-name="Gdotaccent" unicode="&#x120;" horiz-adv-x="2672" 
d="M1674 2780q-55 0 -92 38.5t-37 93.5q0 65 52 114.5t119 49.5q54 0 91 -38.5t37 -93.5q0 -65 -51.5 -114.5t-118.5 -49.5zM2435 1070q15 0 23 -9.5t6 -24.5l-106 -754q-250 -157 -503 -234.5t-551 -77.5q-218 0 -411 76.5t-336.5 214.5t-227 343.5t-83.5 449.5
q0 251 79 477t215.5 395t315 293t384 187.5t415.5 63.5q333 0 553.5 -133.5t362.5 -426.5q14 -30 -22 -48l-123 -54q-33 -14 -45 18q-120 242 -301.5 350.5t-450.5 108.5q-153 0 -299.5 -40.5t-274 -115t-235.5 -184t-184.5 -242t-119.5 -295.5t-43 -339q0 -203 64 -374
t176.5 -289.5t271.5 -184.5t345 -66q237 0 434.5 50t409.5 165l93 666q2 15 13 24.5t26 9.5h129z" />
    <glyph glyph-name="gdotaccent" unicode="&#x121;" horiz-adv-x="1928" 
d="M1117 2018q-55 0 -92 38.5t-37 93.5q0 65 52 114.5t119 49.5q54 0 91 -38.5t37 -93.5q0 -65 -51.5 -114.5t-118.5 -49.5zM1926 1748q16 0 22 -6.5t4 -21.5l-19 -131q-3 -27 -30 -27q-91 0 -167.5 -42.5t-117.5 -119.5q52 -91 52 -211q0 -128 -59.5 -246t-160.5 -204.5
t-243 -138t-300 -51.5h-231q-176 0 -264.5 -63t-88.5 -161q0 -169 297 -169h289q355 0 543 -124.5t188 -343.5q0 -126 -55 -232.5t-161 -186.5t-275 -125t-384 -45q-360 0 -548.5 123.5t-188.5 324.5q0 163 116 285.5t308 192.5q-320 33 -320 263q0 138 104 234.5t309 127.5
q-114 61 -178.5 173t-64.5 244q0 172 100.5 319t277 234.5t387.5 87.5q150 0 271.5 -47t202.5 -132q67 103 170 161t215 58zM928 714q142 0 264.5 60.5t196 166.5t73.5 232q0 162 -117 266t-301 104q-141 0 -264.5 -61.5t-197 -168t-73.5 -229.5q0 -160 116.5 -265
t302.5 -105zM1440 -339q0 149 -140.5 239.5t-413.5 90.5q-186 0 -336 -52.5t-235.5 -145.5t-85.5 -209q0 -153 140.5 -241.5t413.5 -88.5q320 0 488.5 111.5t168.5 295.5z" />
    <glyph glyph-name="Gcommaaccent" unicode="&#x122;" horiz-adv-x="2672" 
d="M2435 1070q15 0 23 -9.5t6 -24.5l-106 -754q-250 -157 -503 -234.5t-551 -77.5q-218 0 -411 76.5t-336.5 214.5t-227 343.5t-83.5 449.5q0 251 79 477t215.5 395t315 293t384 187.5t415.5 63.5q333 0 553.5 -133.5t362.5 -426.5q14 -30 -22 -48l-123 -54q-33 -14 -45 18
q-120 242 -301.5 350.5t-450.5 108.5q-153 0 -299.5 -40.5t-274 -115t-235.5 -184t-184.5 -242t-119.5 -295.5t-43 -339q0 -203 64 -374t176.5 -289.5t271.5 -184.5t345 -66q237 0 434.5 50t409.5 165l93 666q2 15 13 24.5t26 9.5h129zM1172 -253q47 0 82 -32t35 -100
q0 -123 -96.5 -289.5t-233.5 -263.5q-25 -17 -41 7l-8 11q-13 22 9 41q78 67 129 150.5t51 160.5q0 22 -9 36t-31 31q-45 36 -45 92q0 63 48 109.5t110 46.5z" />
    <glyph glyph-name="gcommaaccent" unicode="&#x123;" horiz-adv-x="1928" 
d="M1112 2016q-47 0 -82 32t-35 100q0 123 96.5 289.5t233.5 263.5q25 17 41 -7l8 -11q13 -22 -9 -41q-78 -67 -129 -150.5t-51 -160.5q0 -22 9 -36t31 -31q45 -36 45 -92q0 -63 -48 -109.5t-110 -46.5zM1926 1748q16 0 22 -6.5t4 -21.5l-19 -131q-3 -27 -30 -27
q-91 0 -167.5 -42.5t-117.5 -119.5q52 -91 52 -211q0 -128 -59.5 -246t-160.5 -204.5t-243 -138t-300 -51.5h-231q-176 0 -264.5 -63t-88.5 -161q0 -169 297 -169h289q355 0 543 -124.5t188 -343.5q0 -126 -55 -232.5t-161 -186.5t-275 -125t-384 -45q-360 0 -548.5 123.5
t-188.5 324.5q0 163 116 285.5t308 192.5q-320 33 -320 263q0 138 104 234.5t309 127.5q-114 61 -178.5 173t-64.5 244q0 172 100.5 319t277 234.5t387.5 87.5q150 0 271.5 -47t202.5 -132q67 103 170 161t215 58zM928 714q142 0 264.5 60.5t196 166.5t73.5 232
q0 162 -117 266t-301 104q-141 0 -264.5 -61.5t-197 -168t-73.5 -229.5q0 -160 116.5 -265t302.5 -105zM1440 -339q0 149 -140.5 239.5t-413.5 90.5q-186 0 -336 -52.5t-235.5 -145.5t-85.5 -209q0 -153 140.5 -241.5t413.5 -88.5q320 0 488.5 111.5t168.5 295.5z" />
    <glyph glyph-name="Hbar" unicode="&#x126;" horiz-adv-x="2617" 
d="M2744 1988q15 0 23 -9t6 -24l-14 -98q-2 -15 -12.5 -24.5t-25.5 -9.5h-236l-251 -1790q-2 -13 -14 -23t-25 -10h-149q-13 0 -21.5 10t-6.5 23l160 1141h-1644l-161 -1141q-2 -13 -13.5 -23t-24.5 -10h-149q-13 0 -22 10t-7 23l252 1790h-238q-14 0 -22.5 9.5t-6.5 24.5
l14 98q2 15 13 24t25 9h238l59 419q1 13 12.5 23t25.5 10h149q13 0 21.5 -10t7.5 -23l-59 -419h1644l59 419q1 13 13 23t25 10h149q13 0 22 -10t7 -23l-59 -419h236zM2204 1359l65 464h-1644l-65 -464h1644z" />
    <glyph glyph-name="hbar" unicode="&#x127;" horiz-adv-x="2151" 
d="M1410 1718q130 0 230 -32t164.5 -91.5t103 -144t45 -188.5t-8.5 -226l-141 -1003q-2 -14 -12.5 -23.5t-25.5 -9.5h-139q-15 0 -23.5 9.5t-6.5 23.5l131 927q80 574 -401 574q-168 0 -322 -77t-262.5 -214t-147.5 -307l-127 -903q-2 -14 -12.5 -23.5t-25.5 -9.5h-139
q-15 0 -23.5 9.5t-6.5 23.5l281 2000h-319q-15 0 -23 9t-6 24l8 59q2 15 13 24.5t25 9.5h320l52 368q2 14 13 23.5t25 9.5h140q14 0 22 -9.5t6 -23.5l-52 -368h499q14 0 22 -9.5t6 -24.5l-8 -59q-5 -33 -38 -33h-498l-103 -731q54 79 129.5 150.5t171.5 132.5t217 97t247 36
z" />
    <glyph glyph-name="Imacron" unicode="&#x12a;" horiz-adv-x="687" 
d="M104 2971q1 13 12.5 23.5t25.5 10.5h1011q13 0 21.5 -10t6.5 -24l-12 -86q-1 -13 -12.5 -23.5t-25.5 -10.5h-1010q-14 0 -22.5 10.5t-6.5 23.5zM456 2407q2 13 13.5 23t24.5 10h149q13 0 22 -10t7 -23l-334 -2374q-2 -13 -13.5 -23t-24.5 -10h-149q-13 0 -22 10t-7 23z
" />
    <glyph glyph-name="imacron" unicode="&#x12b;" horiz-adv-x="678" 
d="M-6 2209q1 13 12.5 23.5t25.5 10.5h1011q13 0 21.5 -10t6.5 -24l-12 -86q-1 -13 -12.5 -23.5t-25.5 -10.5h-1010q-14 0 -22.5 10.5t-6.5 23.5zM349 1645q2 14 12.5 23.5t25.5 9.5h140q14 0 22.5 -9.5t6.5 -23.5l-227 -1612q-2 -14 -13 -23.5t-25 -9.5h-140
q-14 0 -22.5 9.5t-6.5 23.5z" />
    <glyph glyph-name="Iogonek" unicode="&#x12e;" horiz-adv-x="687" 
d="M643 2440q13 0 22 -10t7 -23l-334 -2374q-2 -13 -13.5 -23t-24.5 -10h-49q-411 -229 -411 -504q0 -90 50.5 -142t145.5 -52q88 0 163 31q21 6 31 -0.5t7 -25.5l-8 -65q-4 -27 -32 -39q-101 -42 -220 -42q-152 0 -230.5 78.5t-78.5 206.5q0 171 126 333.5t329 261.5
l333 2366q2 13 13.5 23t24.5 10h149z" />
    <glyph glyph-name="iogonek" unicode="&#x12f;" horiz-adv-x="678" 
d="M548 2314q54 0 91 -38.5t37 -93.5q0 -65 -51.5 -114.5t-118.5 -49.5q-55 0 -92 38.5t-37 93.5q0 65 52 114.5t119 49.5zM527 1678q14 0 22.5 -9.5t6.5 -23.5l-227 -1612q-2 -14 -13 -23.5t-25 -9.5h-37q-411 -229 -411 -504q0 -90 50.5 -142t145.5 -52q88 0 163 31
q21 6 31 -0.5t7 -25.5l-8 -65q-4 -27 -32 -39q-101 -42 -220 -42q-152 0 -230.5 78.5t-78.5 206.5q0 171 125 333t327 261l226 1605q2 14 12.5 23.5t25.5 9.5h140z" />
    <glyph glyph-name="Idotaccent" unicode="&#x130;" horiz-adv-x="687" 
d="M616 2780q-55 0 -92 38.5t-37 93.5q0 65 52 114.5t119 49.5q54 0 91 -38.5t37 -93.5q0 -65 -51.5 -114.5t-118.5 -49.5zM456 2407q2 13 13.5 23t24.5 10h149q13 0 22 -10t7 -23l-334 -2374q-2 -13 -13.5 -23t-24.5 -10h-149q-13 0 -22 10t-7 23z" />
    <glyph glyph-name="dotlessi" unicode="&#x131;" horiz-adv-x="678" 
d="M349 1645q2 14 12.5 23.5t25.5 9.5h140q14 0 22.5 -9.5t6.5 -23.5l-227 -1612q-2 -14 -13 -23.5t-25 -9.5h-140q-14 0 -22.5 9.5t-6.5 23.5z" />
    <glyph glyph-name="Kcommaaccent" unicode="&#x136;" horiz-adv-x="2326" 
d="M644 2440q13 0 21.5 -10t6.5 -23l-333 -2374q-2 -13 -13.5 -23t-24.5 -10h-149q-13 0 -22.5 10t-7.5 23l335 2374q2 13 13.5 23t24.5 10h149zM2063 41q12 -16 4.5 -28.5t-29.5 -12.5h-191q-27 0 -43 20l-982 1221l1314 1179q20 20 48 20h177q22 0 26 -12t-14 -29
l-1279 -1150zM952 -253q47 0 82 -32t35 -100q0 -123 -96.5 -289.5t-233.5 -263.5q-25 -17 -41 7l-8 11q-13 22 9 41q78 67 129 150.5t51 160.5q0 22 -9 36t-31 31q-45 36 -45 92q0 63 48 109.5t110 46.5z" />
    <glyph glyph-name="kcommaaccent" unicode="&#x137;" horiz-adv-x="1752" 
d="M473 2527q1 14 12 23.5t25 9.5h140q14 0 22.5 -9.5t6.5 -23.5l-350 -2494q-2 -14 -13 -23.5t-26 -9.5h-139q-15 0 -23 9.5t-6 23.5zM1345 0q-26 0 -41 22l-684 897l865 742q18 17 45 17h172q21 0 24.5 -12t-11.5 -27l-851 -726l665 -872q12 -18 5 -29.5t-28 -11.5h-161z
M686 -253q47 0 82 -32t35 -100q0 -123 -96.5 -289.5t-233.5 -263.5q-25 -17 -41 7l-8 11q-13 22 9 41q78 67 129 150.5t51 160.5q0 22 -9 36t-31 31q-45 36 -45 92q0 63 48 109.5t110 46.5z" />
    <glyph glyph-name="Lacute" unicode="&#x139;" horiz-adv-x="1973" 
d="M505 2675q-13 -7 -26 -3.5t-19 15.5l-34 72q-5 11 0.5 25t17.5 22l683 458q13 7 26.5 4t19.5 -13l50 -108q5 -10 0.5 -24t-18.5 -21zM1753 185q15 0 23 -9.5t5 -24.5l-16 -118q-2 -14 -12.5 -23.5t-25.5 -9.5h-1575q-13 0 -22.5 10t-7.5 23l335 2374q2 13 13.5 23
t24.5 10h149q13 0 22 -10t7 -23l-313 -2222h1393z" />
    <glyph glyph-name="lacute" unicode="&#x13a;" horiz-adv-x="677" 
d="M509 2734q-13 -7 -26 -3.5t-19 15.5l-34 72q-5 11 0.5 25t17.5 22l683 458q13 7 26.5 4t19.5 -13l50 -108q5 -10 0.5 -24t-18.5 -21zM473 2527q1 14 12.5 23.5t25.5 9.5h140q14 0 22 -9.5t6 -23.5l-350 -2494q-2 -14 -13 -23.5t-25 -9.5h-140q-14 0 -22.5 9.5t-6.5 23.5z
" />
    <glyph glyph-name="Lcommaaccent" unicode="&#x13b;" horiz-adv-x="1973" 
d="M1753 185q15 0 23 -9.5t5 -24.5l-16 -118q-2 -14 -12.5 -23.5t-25.5 -9.5h-1575q-13 0 -22.5 10t-7.5 23l335 2374q2 13 13.5 23t24.5 10h149q13 0 22 -10t7 -23l-313 -2222h1393zM851 -253q47 0 82 -32t35 -100q0 -123 -96.5 -289.5t-233.5 -263.5q-25 -17 -41 7l-8 11
q-13 22 9 41q78 67 129 150.5t51 160.5q0 22 -9 36t-31 31q-45 36 -45 92q0 63 48 109.5t110 46.5z" />
    <glyph glyph-name="lcommaaccent" unicode="&#x13c;" horiz-adv-x="677" 
d="M473 2527q1 14 12.5 23.5t25.5 9.5h140q14 0 22 -9.5t6 -23.5l-350 -2494q-2 -14 -13 -23.5t-25 -9.5h-140q-14 0 -22.5 9.5t-6.5 23.5zM146 -253q47 0 82 -32t35 -100q0 -123 -96.5 -289.5t-233.5 -263.5q-25 -17 -41 7l-8 11q-13 22 9 41q78 67 129 150.5t51 160.5
q0 22 -9 36t-31 31q-45 36 -45 92q0 63 48 109.5t110 46.5z" />
    <glyph glyph-name="Lcaron" unicode="&#x13d;" horiz-adv-x="1973" 
d="M1453 2597q47 0 83.5 -33t36.5 -103q0 -124 -99 -292.5t-238 -266.5q-25 -17 -42 6l-8 12q-12 23 10 44q78 67 129 149.5t51 159.5q0 23 -9 37.5t-32 32.5q-46 37 -46 94q0 65 50 112.5t114 47.5zM1753 185q15 0 23 -9.5t5 -24.5l-16 -118q-2 -14 -12.5 -23.5t-25.5 -9.5
h-1575q-13 0 -22.5 10t-7.5 23l335 2374q2 13 13.5 23t24.5 10h149q13 0 22 -10t7 -23l-313 -2222h1393z" />
    <glyph glyph-name="lcaron" unicode="&#x13e;" horiz-adv-x="1068" 
d="M1047 2597q47 0 83.5 -33t36.5 -103q0 -124 -99 -292.5t-238 -266.5q-25 -17 -42 6l-8 12q-12 23 10 44q78 67 129 149.5t51 159.5q0 23 -9 37.5t-32 32.5q-46 37 -46 94q0 65 50 112.5t114 47.5zM473 2527q1 14 12.5 23.5t25.5 9.5h140q14 0 22 -9.5t6 -23.5l-350 -2494
q-2 -14 -13 -23.5t-25 -9.5h-140q-14 0 -22.5 9.5t-6.5 23.5z" />
    <glyph glyph-name="Lslash" unicode="&#x141;" horiz-adv-x="2209" 
d="M1989 185q15 0 23 -9.5t5 -24.5l-16 -118q-2 -14 -12.5 -23.5t-25.5 -9.5h-1575q-13 0 -22.5 10t-7.5 23l133 943l-398 -201q-14 -7 -25.5 -3t-16.5 17l-32 89q-5 13 1 25.5t21 18.5l476 241l176 1244q2 13 13.5 23t24.5 10h149q13 0 22 -10t7 -23l-159 -1126l941 475
q33 15 43 -14l32 -89q9 -30 -22 -45l-1020 -515l-128 -908h1393z" />
    <glyph glyph-name="lslash" unicode="&#x142;" horiz-adv-x="994" 
d="M1062 1460q10 -30 -22 -44l-361 -181l-169 -1202q-2 -14 -13 -23.5t-25 -9.5h-140q-14 0 -22.5 9.5t-6.5 23.5l153 1091l-310 -156q-15 -7 -26.5 -2.5t-16.5 17.5l-31 88q-11 30 22 44l389 195l171 1217q1 14 12.5 23.5t25.5 9.5h140q14 0 22 -9.5t6 -23.5l-155 -1106
l282 141q34 16 44 -14z" />
    <glyph glyph-name="Nacute" unicode="&#x143;" horiz-adv-x="2587" 
d="M1495 2675q-13 -7 -26 -3.5t-19 15.5l-34 72q-5 11 0.5 25t17.5 22l683 458q13 7 26.5 4t19.5 -13l50 -108q5 -10 0.5 -24t-18.5 -21zM2543 2440q15 0 23 -9.5t6 -23.5l-339 -2414q-2 -14 -12.5 -23.5t-25.5 -9.5h-10q-27 0 -42 17l-1523 2057l-282 -2001
q-2 -14 -12.5 -23.5t-25.5 -9.5h-149q-15 0 -23 9.5t-6 23.5l340 2414q1 14 12 23.5t25 9.5h10q27 0 42 -17l1524 -2057l281 2001q1 14 12.5 23.5t25.5 9.5h149z" />
    <glyph glyph-name="nacute" unicode="&#x144;" horiz-adv-x="2019" 
d="M1105 1913q-13 -7 -26 -3.5t-19 15.5l-34 72q-5 11 0.5 25t17.5 22l683 458q13 7 26.5 4t19.5 -13l50 -108q5 -10 0.5 -24t-18.5 -21zM1277 1718q130 0 230 -32t164.5 -91.5t103 -144t45 -188.5t-8.5 -226l-141 -1003q-2 -14 -12.5 -23.5t-25.5 -9.5h-139
q-15 0 -23.5 9.5t-6.5 23.5l131 927q80 574 -401 574q-178 0 -340.5 -86.5t-271 -236.5t-133.5 -329l-119 -849q-2 -14 -12.5 -23.5t-25.5 -9.5h-139q-15 0 -23.5 9.5t-6.5 23.5l227 1612q2 14 13 23.5t26 9.5h139q15 0 23 -9.5t6 -23.5l-51 -357q51 79 126 152t172 137
t221 102.5t253 38.5z" />
    <glyph glyph-name="Ncommaaccent" unicode="&#x145;" horiz-adv-x="2587" 
d="M2543 2440q15 0 23 -9.5t6 -23.5l-339 -2414q-2 -14 -12.5 -23.5t-25.5 -9.5h-10q-27 0 -42 17l-1523 2057l-282 -2001q-2 -14 -12.5 -23.5t-25.5 -9.5h-149q-15 0 -23 9.5t-6 23.5l340 2414q1 14 12 23.5t25 9.5h10q27 0 42 -17l1524 -2057l281 2001q1 14 12.5 23.5
t25.5 9.5h149zM1140 -253q47 0 82 -32t35 -100q0 -123 -96.5 -289.5t-233.5 -263.5q-25 -17 -41 7l-8 11q-13 22 9 41q78 67 129 150.5t51 160.5q0 22 -9 36t-31 31q-45 36 -45 92q0 63 48 109.5t110 46.5z" />
    <glyph glyph-name="ncommaaccent" unicode="&#x146;" horiz-adv-x="2019" 
d="M1277 1718q130 0 230 -32t164.5 -91.5t103 -144t45 -188.5t-8.5 -226l-141 -1003q-2 -14 -12.5 -23.5t-25.5 -9.5h-139q-15 0 -23.5 9.5t-6.5 23.5l131 927q80 574 -401 574q-178 0 -340.5 -86.5t-271 -236.5t-133.5 -329l-119 -849q-2 -14 -12.5 -23.5t-25.5 -9.5h-139
q-15 0 -23.5 9.5t-6.5 23.5l227 1612q2 14 13 23.5t26 9.5h139q15 0 23 -9.5t6 -23.5l-51 -357q51 79 126 152t172 137t221 102.5t253 38.5zM817 -253q47 0 82 -32t35 -100q0 -123 -96.5 -289.5t-233.5 -263.5q-25 -17 -41 7l-8 11q-13 22 9 41q78 67 129 150.5t51 160.5
q0 22 -9 36t-31 31q-45 36 -45 92q0 63 48 109.5t110 46.5z" />
    <glyph glyph-name="Ncaron" unicode="&#x147;" horiz-adv-x="2587" 
d="M1966 3180q20 19 48 19h151q21 0 25.5 -11.5t-12.5 -27.5l-488 -464q-21 -18 -48 -18h-102q-28 0 -43 18l-357 464q-13 16 -5.5 27.5t28.5 11.5h154q25 0 40 -19l256 -349zM2543 2440q15 0 23 -9.5t6 -23.5l-339 -2414q-2 -14 -12.5 -23.5t-25.5 -9.5h-10q-27 0 -42 17
l-1523 2057l-282 -2001q-2 -14 -12.5 -23.5t-25.5 -9.5h-149q-15 0 -23 9.5t-6 23.5l340 2414q1 14 12 23.5t25 9.5h10q27 0 42 -17l1524 -2057l281 2001q1 14 12.5 23.5t25.5 9.5h149z" />
    <glyph glyph-name="ncaron" unicode="&#x148;" horiz-adv-x="2019" 
d="M1576 2418q20 19 48 19h151q21 0 25.5 -11.5t-12.5 -27.5l-488 -464q-21 -18 -48 -18h-102q-28 0 -43 18l-357 464q-13 16 -5.5 27.5t28.5 11.5h154q25 0 40 -19l256 -349zM1277 1718q130 0 230 -32t164.5 -91.5t103 -144t45 -188.5t-8.5 -226l-141 -1003
q-2 -14 -12.5 -23.5t-25.5 -9.5h-139q-15 0 -23.5 9.5t-6.5 23.5l131 927q80 574 -401 574q-178 0 -340.5 -86.5t-271 -236.5t-133.5 -329l-119 -849q-2 -14 -12.5 -23.5t-25.5 -9.5h-139q-15 0 -23.5 9.5t-6.5 23.5l227 1612q2 14 13 23.5t26 9.5h139q15 0 23 -9.5t6 -23.5
l-51 -357q51 79 126 152t172 137t221 102.5t253 38.5z" />
    <glyph glyph-name="Eng" unicode="&#x14a;" horiz-adv-x="2588" 
d="M2543 2440q15 0 23 -9.5t6 -23.5l-364 -2595q-21 -147 -69 -266t-123.5 -207.5t-183 -136.5t-240.5 -48q-14 0 -23 9.5t-8 24.5l15 98q1 13 11.5 22t23.5 11q175 10 266 133.5t125 359.5l39 282l-1421 1940l-282 -2001q-2 -14 -12.5 -23.5t-25.5 -9.5h-149q-15 0 -23 9.5
t-6 23.5l340 2414q1 14 12 23.5t25 9.5h10q28 0 41 -16l1525 -2058l281 2001q2 14 13 23.5t25 9.5h149z" />
    <glyph glyph-name="eng" unicode="&#x14b;" horiz-adv-x="2018" 
d="M1277 1718q130 0 230 -32t164 -91.5t102.5 -144t45 -188.5t-8.5 -226l-172 -1224q-21 -147 -69 -266t-123 -207.5t-182.5 -136.5t-240.5 -48q-15 0 -23.5 9.5t-7.5 24.5l14 98q1 13 11.5 22t24.5 11q175 10 266 133.5t124 359.5l161 1148q40 285 -57.5 429.5
t-343.5 144.5q-178 0 -340 -86.5t-270.5 -236.5t-133.5 -329l-119 -849q-2 -14 -13 -23.5t-26 -9.5h-139q-15 0 -23 9.5t-6 23.5l227 1612q2 14 12.5 23.5t25.5 9.5h139q15 0 23 -9.5t6 -23.5l-50 -357q51 79 125.5 152t171.5 137t221 102.5t254 38.5z" />
    <glyph glyph-name="Omacron" unicode="&#x14c;" horiz-adv-x="2852" 
d="M1187 2971q1 13 12.5 23.5t25.5 10.5h1011q13 0 21.5 -10t6.5 -24l-12 -86q-1 -13 -12.5 -23.5t-25.5 -10.5h-1010q-14 0 -22.5 10.5t-6.5 23.5zM1655 2470q218 0 411 -76.5t336.5 -214.5t227 -343.5t83.5 -449.5q0 -210 -55.5 -403.5t-153.5 -347t-232 -280
t-290.5 -210.5t-329.5 -129.5t-348 -45.5q-218 0 -411 76.5t-336.5 214.5t-227 343.5t-83.5 449.5q0 251 79 477t215.5 395t315 293t384 187.5t415.5 63.5zM1330 155q153 0 300 40.5t274.5 115t235 184t184 242t119.5 295.5t43 339q0 203 -63.5 374t-176.5 289.5t-272 184.5
t-345 66q-153 0 -299.5 -40.5t-274 -115t-235.5 -184t-184.5 -242t-119.5 -295.5t-43 -339q0 -203 64 -374t176.5 -289.5t271.5 -184.5t345 -66z" />
    <glyph glyph-name="omacron" unicode="&#x14d;" horiz-adv-x="2107" 
d="M707 2209q1 13 12.5 23.5t25.5 10.5h1011q13 0 21.5 -10t6.5 -24l-12 -86q-1 -13 -12.5 -23.5t-25.5 -10.5h-1010q-14 0 -22.5 10.5t-6.5 23.5zM1176 1708q159 0 298.5 -54.5t240.5 -151.5t159 -239.5t58 -310.5q0 -143 -38.5 -275.5t-106.5 -239.5t-162 -195.5
t-205 -147.5t-236 -91.5t-253 -32.5q-160 0 -299 54.5t-240 152t-159 240t-58 310.5q0 143 38.5 275.5t106.5 239t162 195t205 147.5t236 91.5t253 32.5zM957 155q144 0 279.5 55.5t242 154.5t171 247.5t64.5 321.5q0 134 -43.5 245.5t-119.5 186t-179 116t-222 41.5
q-144 0 -280 -55.5t-242.5 -154.5t-171 -247.5t-64.5 -321.5q0 -134 43.5 -245.5t119.5 -186t179.5 -116t222.5 -41.5z" />
    <glyph glyph-name="Ohungarumlaut" unicode="&#x150;" horiz-adv-x="2852" 
d="M1440 2687q-8 -13 -23 -17t-26 3l-68 42q-9 7 -11 20t5 27l433 695q9 12 23.5 16t24.5 -2l101 -61q10 -7 12.5 -20t-6.5 -26zM1953 2675q-13 -7 -26.5 -3.5t-18.5 15.5l-34 72q-4 11 1 25t17 22l683 458q13 7 27 4t19 -13l50 -108q5 -10 0.5 -24t-18.5 -21zM1655 2470
q218 0 411 -76.5t336.5 -214.5t227 -343.5t83.5 -449.5q0 -210 -55.5 -403.5t-153.5 -347t-232 -280t-290.5 -210.5t-329.5 -129.5t-348 -45.5q-218 0 -411 76.5t-336.5 214.5t-227 343.5t-83.5 449.5q0 251 79 477t215.5 395t315 293t384 187.5t415.5 63.5zM1330 155
q153 0 300 40.5t274.5 115t235 184t184 242t119.5 295.5t43 339q0 203 -63.5 374t-176.5 289.5t-272 184.5t-345 66q-153 0 -299.5 -40.5t-274 -115t-235.5 -184t-184.5 -242t-119.5 -295.5t-43 -339q0 -203 64 -374t176.5 -289.5t271.5 -184.5t345 -66z" />
    <glyph glyph-name="ohungarumlaut" unicode="&#x151;" horiz-adv-x="2107" 
d="M960 1925q-8 -13 -23 -17t-26 3l-68 42q-9 7 -11 20t5 27l433 695q9 12 23.5 16t24.5 -2l101 -61q10 -7 12.5 -20t-6.5 -26zM1473 1913q-13 -7 -26.5 -3.5t-18.5 15.5l-34 72q-4 11 1 25t17 22l683 458q13 7 27 4t19 -13l50 -108q5 -10 0.5 -24t-18.5 -21zM1176 1708
q159 0 298.5 -54.5t240.5 -151.5t159 -239.5t58 -310.5q0 -143 -38.5 -275.5t-106.5 -239.5t-162 -195.5t-205 -147.5t-236 -91.5t-253 -32.5q-160 0 -299 54.5t-240 152t-159 240t-58 310.5q0 143 38.5 275.5t106.5 239t162 195t205 147.5t236 91.5t253 32.5zM957 155
q144 0 279.5 55.5t242 154.5t171 247.5t64.5 321.5q0 134 -43.5 245.5t-119.5 186t-179 116t-222 41.5q-144 0 -280 -55.5t-242.5 -154.5t-171 -247.5t-64.5 -321.5q0 -134 43.5 -245.5t119.5 -186t179.5 -116t222.5 -41.5z" />
    <glyph glyph-name="OE" unicode="&#x152;" horiz-adv-x="3855" 
d="M3811 2440q15 0 23 -9.5t6 -23.5l-16 -118q-2 -15 -13 -24.5t-26 -9.5h-1468q186 -147 282.5 -376.5t81.5 -519.5h819q14 0 22 -9.5t6 -24.5l-17 -118q-2 -14 -12.5 -23.5t-24.5 -9.5h-814q-55 -323 -226 -577t-420 -412h1520q15 0 23 -9.5t6 -24.5l-17 -118
q-2 -14 -12.5 -23.5t-25.5 -9.5h-1952q-130 -26 -258 -26q-159 0 -307 39t-272.5 114t-223 183.5t-160.5 247.5t-85 306.5t5 359.5q26 188 96 359.5t171.5 307.5t230.5 246.5t274.5 184t304.5 113t318 39.5q146 0 285 -34h1876zM2467 1224q33 234 -16 434.5t-163 338
t-286 215t-379 77.5t-400.5 -77.5t-346 -215t-258 -337.5t-138.5 -435q-26 -188 0 -355t98.5 -296t182 -222.5t253.5 -142.5t310 -49q207 0 400.5 77.5t346 215t258 337.5t138.5 435z" />
    <glyph glyph-name="oe" unicode="&#x153;" horiz-adv-x="3537" 
d="M3359 849h-1425q-6 -51 -6 -105q0 -134 43.5 -245.5t119.5 -186t179.5 -116t222.5 -41.5q378 0 584 334q20 30 48 16l113 -57q29 -15 9 -45q-131 -214 -334.5 -323.5t-455.5 -109.5q-239 0 -422 117t-266 322q-138 -205 -362.5 -322t-475.5 -117q-160 0 -299 54.5
t-240 152t-159 240t-58 310.5q0 143 38.5 275.5t106.5 239t162 195t205 147.5t236 91.5t253 32.5q238 0 423.5 -116t270.5 -320q134 204 351.5 320t467.5 116q171 0 306 -54t227.5 -158.5t129.5 -270t7 -376.5zM2665 1533q-234 0 -428 -144.5t-270 -384.5h1175
q9 132 -23.5 234.5t-99 166t-156 96t-198.5 32.5zM957 155q144 0 279.5 55.5t242 154.5t171 247.5t64.5 321.5q0 134 -43.5 245.5t-119.5 186t-179 116t-222 41.5q-144 0 -280 -55.5t-242.5 -154.5t-171 -247.5t-64.5 -321.5q0 -134 43.5 -245.5t119.5 -186t179.5 -116
t222.5 -41.5z" />
    <glyph glyph-name="Racute" unicode="&#x154;" horiz-adv-x="2342" 
d="M1178 2687l-34 72q-5 11 0.5 25t17.5 22l683 458q13 7 26.5 4t19.5 -13l50 -108q5 -10 0.5 -24t-18.5 -21l-700 -427q-13 -7 -26 -3.5t-19 15.5zM2162 1794q0 -143 -46 -271.5t-135 -236t-230.5 -185.5t-322.5 -112l488 -922q13 -24 -1.5 -45.5t-43.5 -21.5h-151
q-19 0 -27 18l-493 945q-23 -1 -70 -1h-661l-131 -929q-2 -13 -13.5 -23t-24.5 -10h-149q-13 0 -22 10t-7 23l334 2374q1 13 12.5 23t25.5 10h149h695q209 0 369.5 -50t258 -138.5t147 -204t49.5 -253.5zM1116 1146q178 0 319 34t233 92t153 139.5t87 171.5t26 193
q0 82 -22 152.5t-71.5 131.5t-125 103.5t-188 67t-254.5 24.5h-622l-156 -1109h621z" />
    <glyph glyph-name="racute" unicode="&#x155;" horiz-adv-x="1163" 
d="M640 1913q-13 -7 -26 -3.5t-19 15.5l-34 72q-5 11 0.5 25t17.5 22l683 458q13 7 26.5 4t19.5 -13l50 -108q5 -10 0.5 -24t-18.5 -21zM1150 1716q19 0 26.5 -7.5t4.5 -25.5l-22 -155q-3 -28 -38 -34q-79 -6 -164.5 -37t-170 -87t-155 -129.5t-121 -174t-66.5 -210.5
l-115 -823q-2 -14 -12.5 -23.5t-25.5 -9.5h-139q-15 0 -23.5 9.5t-6.5 23.5l227 1612q2 14 13 23.5t26 9.5h139q15 0 23 -9.5t6 -23.5l-57 -402q64 121 178 231t242 176t231 66z" />
    <glyph glyph-name="Rcommaaccent" unicode="&#x156;" horiz-adv-x="2342" 
d="M2162 1794q0 -143 -46 -271.5t-135 -236t-230.5 -185.5t-322.5 -112l488 -922q13 -24 -1.5 -45.5t-43.5 -21.5h-151q-19 0 -27 18l-493 945q-23 -1 -70 -1h-661l-131 -929q-2 -13 -13.5 -23t-24.5 -10h-149q-13 0 -22 10t-7 23l334 2374q1 13 12.5 23t25.5 10h149h695
q209 0 369.5 -50t258 -138.5t147 -204t49.5 -253.5zM1116 1146q178 0 319 34t233 92t153 139.5t87 171.5t26 193q0 82 -22 152.5t-71.5 131.5t-125 103.5t-188 67t-254.5 24.5h-622l-156 -1109h621zM868 -253q47 0 82 -32t35 -100q0 -123 -96.5 -289.5t-233.5 -263.5
q-25 -17 -41 7l-8 11q-13 22 9 41q78 67 129 150.5t51 160.5q0 22 -9 36t-31 31q-45 36 -45 92q0 63 48 109.5t110 46.5z" />
    <glyph glyph-name="rcommaaccent" unicode="&#x157;" horiz-adv-x="1163" 
d="M1150 1716q19 0 26.5 -7.5t4.5 -25.5l-22 -155q-3 -28 -38 -34q-79 -6 -164.5 -37t-170 -87t-155 -129.5t-121 -174t-66.5 -210.5l-115 -823q-2 -14 -12.5 -23.5t-25.5 -9.5h-139q-15 0 -23.5 9.5t-6.5 23.5l227 1612q2 14 13 23.5t26 9.5h139q15 0 23 -9.5t6 -23.5
l-57 -402q64 121 178 231t242 176t231 66zM153 -249q47 0 82 -32t35 -100q0 -123 -96.5 -289.5t-233.5 -263.5q-25 -17 -41 7l-8 11q-13 22 9 41q78 67 129 150.5t51 160.5q0 22 -9 36t-31 31q-45 36 -45 92q0 63 48 109.5t110 46.5z" />
    <glyph glyph-name="Rcaron" unicode="&#x158;" horiz-adv-x="2342" 
d="M1225 2696l-357 464q-13 16 -5.5 27.5t28.5 11.5h154q25 0 40 -19l256 -349l353 349q20 19 48 19h151q21 0 25.5 -11.5t-12.5 -27.5l-488 -464q-21 -18 -48 -18h-102q-28 0 -43 18zM2162 1794q0 -143 -46 -271.5t-135 -236t-230.5 -185.5t-322.5 -112l488 -922
q13 -24 -1.5 -45.5t-43.5 -21.5h-151q-19 0 -27 18l-493 945q-23 -1 -70 -1h-661l-131 -929q-2 -13 -13.5 -23t-24.5 -10h-149q-13 0 -22 10t-7 23l334 2374q1 13 12.5 23t25.5 10h149h695q209 0 369.5 -50t258 -138.5t147 -204t49.5 -253.5zM1116 1146q178 0 319 34t233 92
t153 139.5t87 171.5t26 193q0 82 -22 152.5t-71.5 131.5t-125 103.5t-188 67t-254.5 24.5h-622l-156 -1109h621z" />
    <glyph glyph-name="rcaron" unicode="&#x159;" horiz-adv-x="1163" 
d="M1111 2418q20 19 48 19h151q21 0 25.5 -11.5t-12.5 -27.5l-488 -464q-21 -18 -48 -18h-102q-28 0 -43 18l-357 464q-13 16 -5.5 27.5t28.5 11.5h154q25 0 40 -19l256 -349zM1150 1716q19 0 26.5 -7.5t4.5 -25.5l-22 -155q-3 -28 -38 -34q-79 -6 -164.5 -37t-170 -87
t-155 -129.5t-121 -174t-66.5 -210.5l-115 -823q-2 -14 -12.5 -23.5t-25.5 -9.5h-139q-15 0 -23.5 9.5t-6.5 23.5l227 1612q2 14 13 23.5t26 9.5h139q15 0 23 -9.5t6 -23.5l-57 -402q64 121 178 231t242 176t231 66z" />
    <glyph glyph-name="Sacute" unicode="&#x15a;" horiz-adv-x="2206" 
d="M1282 2675q-13 -7 -26 -3.5t-19 15.5l-34 72q-5 11 0.5 25t17.5 22l683 458q13 7 26.5 4t19.5 -13l50 -108q5 -10 0.5 -24t-18.5 -21zM617 1776q0 -57 19 -105.5t44.5 -84t78 -69.5t92 -55t116 -47t121 -39t134.5 -38q81 -22 123 -34t118 -37t118 -44t105 -50.5
t98.5 -62.5t78 -75t64 -91.5t37 -109t15.5 -130.5q0 -150 -56.5 -274t-152.5 -208t-226.5 -142t-275.5 -84t-302 -26q-483 0 -828 267q-30 20 -11 49l66 110q24 33 51 13q80 -59 148 -99.5t160.5 -78.5t204 -57t244.5 -19q156 0 288.5 30t236 90.5t162.5 160.5t59 231
q0 210 -193 332q-114 72 -364 144q-262 75 -280 81q-259 83 -376 194q-138 131 -138 336q0 155 66 286t188.5 226.5t307.5 149.5t412 54q132 0 246.5 -18.5t207.5 -54t156 -68.5t135 -79q28 -17 8 -48l-71 -117q-18 -32 -53 -8q-61 43 -117.5 74.5t-139.5 66.5t-185.5 53.5
t-217.5 18.5q-175 0 -313 -39t-227 -108t-135.5 -162.5t-46.5 -204.5z" />
    <glyph glyph-name="sacute" unicode="&#x15b;" horiz-adv-x="1670" 
d="M879 1913q-13 -7 -26 -3.5t-19 15.5l-34 72q-5 11 0.5 25t17.5 22l683 458q13 7 26.5 4t19.5 -13l50 -108q5 -10 0.5 -24t-18.5 -21zM490 1218q0 -61 32.5 -107t87 -75.5t125.5 -53t150 -44t157.5 -43t149.5 -55t125.5 -75.5t87 -110t32.5 -153q0 -113 -41 -205
t-109.5 -152t-161 -100t-191 -57.5t-205.5 -17.5q-340 0 -625 188q-26 16 -9 45l62 102q8 15 21 20.5t27 -2.5q131 -87 259 -132.5t283 -45.5q72 0 136 9t126 31t107 56.5t72.5 89.5t27.5 126q0 64 -32 113t-86.5 81.5t-124.5 58.5t-148 48t-155.5 46t-147.5 57t-124.5 75.5
t-86.5 107.5t-32 148q0 161 88.5 278.5t244 177.5t359.5 60q293 0 538 -163q27 -16 9 -46l-63 -105q-19 -30 -46 -13q-108 75 -218.5 113.5t-241.5 38.5q-203 0 -331 -86t-128 -229z" />
    <glyph glyph-name="Scedilla" unicode="&#x15e;" horiz-adv-x="2206" 
d="M2115 2250q28 -17 8 -48l-71 -117q-18 -32 -53 -8q-61 43 -117.5 74.5t-139.5 66.5t-185.5 53.5t-217.5 18.5q-175 0 -313 -39t-227 -108t-135.5 -162.5t-46.5 -204.5q0 -57 19 -105.5t44.5 -84t78 -69.5t92 -55t116 -47t121 -39t134.5 -38q81 -22 123 -34t118 -37
t118 -44t105 -50.5t98.5 -62.5t78 -75t64 -91.5t37 -109t15.5 -130.5q0 -146 -53 -267t-144 -204.5t-215.5 -142t-263.5 -87t-291 -32.5l-107 -218q124 26 222 13t159 -76.5t61 -164.5q0 -82 -35 -151.5t-94 -115.5t-136 -71.5t-162 -25.5q-179 0 -303 84q-25 19 -7 47
l23 38q9 15 23 18.5t26 -3.5q66 -34 121 -51t125 -17q113 0 186 61.5t73 167.5q0 62 -35 100t-95.5 50t-134.5 6.5t-160 -27.5q-23 -5 -30 3t4 32l150 302q-431 20 -748 265q-30 20 -11 49l66 110q24 33 51 13q80 -59 148 -99.5t160.5 -78.5t204 -57t244.5 -19
q156 0 288.5 30t236 90.5t162.5 160.5t59 231q0 210 -193 332q-114 72 -364 144q-262 75 -280 81q-259 83 -376 194q-138 131 -138 336q0 155 66 286t188.5 226.5t307.5 149.5t412 54q132 0 246.5 -18.5t207.5 -54t156 -68.5t135 -79z" />
    <glyph glyph-name="scedilla" unicode="&#x15f;" horiz-adv-x="1670" 
d="M1509 1545q27 -16 9 -46l-63 -105q-19 -30 -46 -13q-108 75 -218.5 113.5t-241.5 38.5q-203 0 -331 -86t-128 -229q0 -61 32.5 -107t87 -75.5t125.5 -53t150 -44t157.5 -43t149.5 -55t125.5 -75.5t87 -110t32.5 -153q0 -111 -39 -200.5t-104 -149.5t-154 -101t-184.5 -60
t-199.5 -21l-107 -217q124 26 222 13t159 -76.5t61 -164.5q0 -82 -35 -151.5t-94 -115.5t-136 -71.5t-162 -25.5q-179 0 -303 84q-25 19 -7 47l23 38q9 15 23 18.5t26 -3.5q66 -34 121 -51t125 -17q113 0 186 61.5t73 167.5q0 62 -35 100t-95.5 50t-134.5 6.5t-160 -27.5
q-23 -5 -30 3t4 32l151 304q-286 25 -527 184q-26 16 -9 45l62 102q8 15 21 20.5t27 -2.5q131 -87 259 -132.5t283 -45.5q72 0 136 9t126 31t107 56.5t72.5 89.5t27.5 126q0 64 -32 113t-86.5 81.5t-124.5 58.5t-148 48t-155.5 46t-147.5 57t-124.5 75.5t-86.5 107.5
t-32 148q0 161 88.5 278.5t244 177.5t359.5 60q293 0 538 -163z" />
    <glyph glyph-name="Scaron" unicode="&#x160;" horiz-adv-x="2206" 
d="M1753 3180q20 19 48 19h151q21 0 25.5 -11.5t-12.5 -27.5l-488 -464q-21 -18 -48 -18h-102q-28 0 -43 18l-357 464q-13 16 -5.5 27.5t28.5 11.5h154q25 0 40 -19l256 -349zM617 1776q0 -57 19 -105.5t44.5 -84t78 -69.5t92 -55t116 -47t121 -39t134.5 -38q81 -22 123 -34
t118 -37t118 -44t105 -50.5t98.5 -62.5t78 -75t64 -91.5t37 -109t15.5 -130.5q0 -150 -56.5 -274t-152.5 -208t-226.5 -142t-275.5 -84t-302 -26q-483 0 -828 267q-30 20 -11 49l66 110q24 33 51 13q80 -59 148 -99.5t160.5 -78.5t204 -57t244.5 -19q156 0 288.5 30
t236 90.5t162.5 160.5t59 231q0 210 -193 332q-114 72 -364 144q-262 75 -280 81q-259 83 -376 194q-138 131 -138 336q0 155 66 286t188.5 226.5t307.5 149.5t412 54q132 0 246.5 -18.5t207.5 -54t156 -68.5t135 -79q28 -17 8 -48l-71 -117q-18 -32 -53 -8
q-61 43 -117.5 74.5t-139.5 66.5t-185.5 53.5t-217.5 18.5q-175 0 -313 -39t-227 -108t-135.5 -162.5t-46.5 -204.5z" />
    <glyph glyph-name="scaron" unicode="&#x161;" horiz-adv-x="1670" 
d="M1350 2418q20 19 48 19h151q21 0 25.5 -11.5t-12.5 -27.5l-488 -464q-21 -18 -48 -18h-102q-28 0 -43 18l-357 464q-13 16 -5.5 27.5t28.5 11.5h154q25 0 40 -19l256 -349zM490 1218q0 -61 32.5 -107t87 -75.5t125.5 -53t150 -44t157.5 -43t149.5 -55t125.5 -75.5
t87 -110t32.5 -153q0 -113 -41 -205t-109.5 -152t-161 -100t-191 -57.5t-205.5 -17.5q-340 0 -625 188q-26 16 -9 45l62 102q8 15 21 20.5t27 -2.5q131 -87 259 -132.5t283 -45.5q72 0 136 9t126 31t107 56.5t72.5 89.5t27.5 126q0 64 -32 113t-86.5 81.5t-124.5 58.5
t-148 48t-155.5 46t-147.5 57t-124.5 75.5t-86.5 107.5t-32 148q0 161 88.5 278.5t244 177.5t359.5 60q293 0 538 -163q27 -16 9 -46l-63 -105q-19 -30 -46 -13q-108 75 -218.5 113.5t-241.5 38.5q-203 0 -331 -86t-128 -229z" />
    <glyph glyph-name="uni0162" unicode="&#x162;" horiz-adv-x="2408" 
d="M2424 2440q13 0 22 -10t7 -23l-16 -118q-2 -13 -13.5 -23.5t-24.5 -10.5h-888l-312 -2222q-2 -13 -13.5 -23t-24.5 -10h-11l-122 -247q124 26 222 13t159 -76.5t61 -164.5q0 -82 -35 -151.5t-94 -115.5t-136 -71.5t-162 -25.5q-179 0 -303 84q-25 19 -7 47l23 38
q9 15 23 18.5t26 -3.5q66 -34 121 -51t125 -17q113 0 186 61.5t73 167.5q0 62 -35 100t-95.5 50t-134.5 6.5t-160 -27.5q-23 -5 -30 3t4 32l164 330h-11q-13 0 -22 10t-7 23l312 2222h-887q-13 0 -21.5 10t-6.5 24l16 118q1 13 12.5 23t24.5 10h1070h921z" />
    <glyph glyph-name="uni0163" unicode="&#x163;" horiz-adv-x="1525" 
d="M1418 1678q15 0 23 -9.5t6 -23.5l-16 -118q-2 -15 -13 -24t-25 -9h-654l-126 -896q-16 -90 -10.5 -170.5t29.5 -141t84 -96t153 -35.5q165 0 330 114q35 19 48 -12l32 -95q13 -31 -22 -51q-200 -131 -415 -140l-107 -218q124 26 222 13t159 -76.5t61 -164.5
q0 -82 -35 -151.5t-94 -115.5t-136 -71.5t-162 -25.5q-179 0 -303 84q-25 19 -7 47l23 38q9 15 23 18.5t26 -3.5q66 -34 121 -51t125 -17q113 0 186 61.5t73 167.5q0 62 -35 100t-95.5 50t-134.5 6.5t-160 -27.5q-23 -5 -30 3t4 32l152 307q-391 57 -315 602h1l128 915h-307
q-14 0 -22 9t-6 24l16 118q2 14 12.5 23.5t25.5 9.5h307l52 370q4 24 38 35l139 39q24 6 31.5 -1.5t4.5 -24.5l-59 -418h654z" />
    <glyph glyph-name="Tcaron" unicode="&#x164;" horiz-adv-x="2408" 
d="M1367 2696l-357 464q-13 16 -5.5 27.5t28.5 11.5h154q25 0 40 -19l256 -349l353 349q20 19 48 19h151q21 0 25.5 -11.5t-12.5 -27.5l-488 -464q-21 -18 -48 -18h-102q-28 0 -43 18zM2424 2440q13 0 22 -10t7 -23l-16 -118q-2 -13 -13.5 -23.5t-24.5 -10.5h-888
l-312 -2222q-2 -13 -13.5 -23t-24.5 -10h-149q-13 0 -22 10t-7 23l312 2222h-887q-13 0 -21.5 10t-6.5 24l16 118q1 13 12.5 23t24.5 10h1070h921z" />
    <glyph glyph-name="tcaron" unicode="&#x165;" horiz-adv-x="1718" 
d="M1810 2597q47 0 83.5 -33t36.5 -103q0 -124 -99 -292.5t-238 -266.5q-25 -17 -42 6l-8 12q-12 23 10 44q78 67 129 149.5t51 159.5q0 23 -9 37.5t-32 32.5q-46 37 -46 94q0 65 50 112.5t114 47.5zM1418 1678q15 0 23 -9.5t6 -23.5l-16 -118q-2 -15 -13 -24t-25 -9h-654
l-126 -896q-16 -90 -10.5 -170.5t29.5 -141t84 -96t153 -35.5q165 0 330 114q35 19 48 -12l32 -95q13 -31 -22 -51q-215 -141 -443 -141q-495 0 -411 609h1l128 915h-307q-14 0 -22 9t-6 24l16 118q2 14 12.5 23.5t25.5 9.5h307l52 370q4 24 38 35l139 39q24 6 31.5 -1.5
t4.5 -24.5l-59 -418h654z" />
    <glyph glyph-name="Tbar" unicode="&#x166;" horiz-adv-x="2408" 
d="M2424 2440q13 0 22 -10t7 -23l-16 -118q-2 -13 -13.5 -23.5t-24.5 -10.5h-888l-98 -695h483q14 0 22 -9.5t6 -24.5l-13 -98q-2 -15 -13 -24t-26 -9h-482l-191 -1362q-2 -13 -13.5 -23t-24.5 -10h-149q-13 0 -22 10t-7 23l191 1362h-486q-14 0 -22 9t-6 24l13 98
q1 15 12.5 24.5t25.5 9.5h486l98 695h-887q-13 0 -21.5 10t-6.5 24l16 118q1 13 12.5 23t24.5 10h1070h921z" />
    <glyph glyph-name="tbar" unicode="&#x167;" horiz-adv-x="1525" 
d="M1418 1678q15 0 23 -9.5t6 -23.5l-16 -118q-2 -15 -13 -24t-25 -9h-654l-53 -375h547q15 0 23 -9.5t6 -23.5l-8 -59q-2 -15 -13 -24.5t-25 -9.5h-548l-55 -395q-16 -90 -10.5 -170.5t29.5 -141t84 -96t153 -35.5q165 0 330 114q35 19 48 -12l32 -95q13 -31 -22 -51
q-215 -141 -443 -141q-495 0 -411 609h1l58 414h-271q-14 0 -22 9.5t-7 24.5l9 59q2 14 13 23.5t25 9.5h271l52 375h-307q-14 0 -22 9t-6 24l16 118q2 14 12.5 23.5t25.5 9.5h307l52 370q4 24 38 35l139 39q24 6 31.5 -1.5t4.5 -24.5l-59 -418h654z" />
    <glyph glyph-name="Umacron" unicode="&#x16a;" horiz-adv-x="2508" 
d="M1015 2971q1 13 12.5 23.5t25.5 10.5h1011q13 0 21.5 -10t6.5 -24l-12 -86q-1 -13 -12.5 -23.5t-25.5 -10.5h-1010q-14 0 -22.5 10.5t-6.5 23.5zM2463 2440q13 0 22 -10t7 -23l-195 -1387q-36 -258 -137.5 -460t-254.5 -333t-349 -199t-426 -68t-407 68t-293 199
t-160.5 333t-8.5 460l195 1387q1 13 12.5 23t25.5 10h149q13 0 21.5 -10t7.5 -23l-190 -1348q-61 -437 107 -675.5t567 -238.5t634 238.5t297 675.5l189 1348q1 13 13 23t25 10h149z" />
    <glyph glyph-name="umacron" unicode="&#x16b;" horiz-adv-x="2018" 
d="M664 2209q1 13 12.5 23.5t25.5 10.5h1011q13 0 21.5 -10t6.5 -24l-12 -86q-1 -13 -12.5 -23.5t-25.5 -10.5h-1010q-14 0 -22.5 10.5t-6.5 23.5zM1867 1678q15 0 23 -9.5t6 -23.5l-227 -1612q-2 -14 -12.5 -23.5t-25.5 -9.5h-139q-15 0 -23 9.5t-6 23.5l51 357
q-51 -79 -126 -152t-172 -137t-221 -102.5t-254 -38.5t-230 32t-164 91.5t-102.5 144t-45 188.5t8.5 226l141 1003q2 14 12.5 23.5t25.5 9.5h139q15 0 23 -9.5t6 -23.5l-130 -927q-40 -284 57.5 -428.5t342.5 -144.5q134 0 262 51t228 137.5t168.5 207.5t87.5 255l119 849
q2 14 12.5 23.5t25.5 9.5h139z" />
    <glyph glyph-name="Uring" unicode="&#x16e;" horiz-adv-x="2508" 
d="M1504 2618q-147 0 -244 99.5t-97 245.5q0 115 63.5 216.5t167.5 160.5t219 59q147 0 243.5 -100.5t96.5 -246.5q0 -115 -63 -216t-167 -159.5t-219 -58.5zM1521 2742q124 0 214 89t90 210q0 100 -63.5 168t-165.5 68q-124 0 -214 -89.5t-90 -211.5q0 -99 64 -166.5
t165 -67.5zM2463 2440q13 0 22 -10t7 -23l-195 -1387q-36 -258 -137.5 -460t-254.5 -333t-349 -199t-426 -68t-407 68t-293 199t-160.5 333t-8.5 460l195 1387q1 13 12.5 23t25.5 10h149q13 0 21.5 -10t7.5 -23l-190 -1348q-61 -437 107 -675.5t567 -238.5t634 238.5
t297 675.5l189 1348q1 13 13 23t25 10h149z" />
    <glyph glyph-name="uring" unicode="&#x16f;" horiz-adv-x="2018" 
d="M1153 1856q-147 0 -244 99.5t-97 245.5q0 115 63.5 216.5t167.5 160.5t219 59q147 0 243.5 -100.5t96.5 -246.5q0 -115 -63 -216t-167 -159.5t-219 -58.5zM1170 1980q124 0 214 89t90 210q0 100 -63.5 168t-165.5 68q-124 0 -214 -89.5t-90 -211.5q0 -99 64 -166.5
t165 -67.5zM1867 1678q15 0 23 -9.5t6 -23.5l-227 -1612q-2 -14 -12.5 -23.5t-25.5 -9.5h-139q-15 0 -23 9.5t-6 23.5l51 357q-51 -79 -126 -152t-172 -137t-221 -102.5t-254 -38.5t-230 32t-164 91.5t-102.5 144t-45 188.5t8.5 226l141 1003q2 14 12.5 23.5t25.5 9.5h139
q15 0 23 -9.5t6 -23.5l-130 -927q-40 -284 57.5 -428.5t342.5 -144.5q134 0 262 51t228 137.5t168.5 207.5t87.5 255l119 849q2 14 12.5 23.5t25.5 9.5h139z" />
    <glyph glyph-name="Uhungarumlaut" unicode="&#x170;" horiz-adv-x="2508" 
d="M1268 2687q-8 -13 -23 -17t-26 3l-68 42q-9 7 -11 20t5 27l433 695q9 12 23.5 16t24.5 -2l101 -61q10 -7 12.5 -20t-6.5 -26zM1781 2675q-13 -7 -26.5 -3.5t-18.5 15.5l-34 72q-4 11 1 25t17 22l683 458q13 7 27 4t19 -13l50 -108q5 -10 0.5 -24t-18.5 -21zM2463 2440
q13 0 22 -10t7 -23l-195 -1387q-36 -258 -137.5 -460t-254.5 -333t-349 -199t-426 -68t-407 68t-293 199t-160.5 333t-8.5 460l195 1387q1 13 12.5 23t25.5 10h149q13 0 21.5 -10t7.5 -23l-190 -1348q-61 -437 107 -675.5t567 -238.5t634 238.5t297 675.5l189 1348
q1 13 13 23t25 10h149z" />
    <glyph glyph-name="uhungarumlaut" unicode="&#x171;" horiz-adv-x="2018" 
d="M917 1925q-8 -13 -23 -17t-26 3l-68 42q-9 7 -11 20t5 27l433 695q9 12 23.5 16t24.5 -2l101 -61q10 -7 12.5 -20t-6.5 -26zM1430 1913q-13 -7 -26.5 -3.5t-18.5 15.5l-34 72q-4 11 1 25t17 22l683 458q13 7 27 4t19 -13l50 -108q5 -10 0.5 -24t-18.5 -21zM1867 1678
q15 0 23 -9.5t6 -23.5l-227 -1612q-2 -14 -12.5 -23.5t-25.5 -9.5h-139q-15 0 -23 9.5t-6 23.5l51 357q-51 -79 -126 -152t-172 -137t-221 -102.5t-254 -38.5t-230 32t-164 91.5t-102.5 144t-45 188.5t8.5 226l141 1003q2 14 12.5 23.5t25.5 9.5h139q15 0 23 -9.5t6 -23.5
l-130 -927q-40 -284 57.5 -428.5t342.5 -144.5q134 0 262 51t228 137.5t168.5 207.5t87.5 255l119 849q2 14 12.5 23.5t25.5 9.5h139z" />
    <glyph glyph-name="Uogonek" unicode="&#x172;" horiz-adv-x="2508" 
d="M2463 2440q13 0 22 -10t7 -23l-195 -1387q-60 -427 -290 -689.5t-584 -340.5q-394 -224 -394 -494q0 -90 50.5 -142t145.5 -52q88 0 163 31q21 6 31 -0.5t7 -25.5l-8 -65q-4 -27 -32 -39q-101 -42 -220 -42q-152 0 -230.5 78.5t-78.5 206.5q0 140 85.5 276t232.5 239
q-15 -1 -45 -1q-230 0 -407 68t-293 199t-160.5 333t-8.5 460l195 1387q1 13 12.5 23t25.5 10h149q13 0 21.5 -10t7.5 -23l-190 -1348q-61 -437 107 -675.5t567 -238.5t634 238.5t297 675.5l189 1348q1 13 13 23t25 10h149z" />
    <glyph glyph-name="uogonek" unicode="&#x173;" horiz-adv-x="2018" 
d="M1867 1678q15 0 23 -9.5t6 -23.5l-227 -1612q-2 -14 -12.5 -23.5t-25.5 -9.5h-29q-411 -229 -411 -504q0 -90 50.5 -142t145.5 -52q88 0 163 31q21 6 31 -0.5t7 -25.5l-8 -65q-4 -27 -32 -39q-101 -42 -220 -42q-152 0 -230.5 78.5t-78.5 206.5q0 169 122.5 330
t321.5 260l51 354q-51 -79 -126 -152t-172 -137t-221 -102.5t-254 -38.5t-230 32t-164 91.5t-102.5 144t-45 188.5t8.5 226l141 1003q2 14 12.5 23.5t25.5 9.5h139q15 0 23 -9.5t6 -23.5l-130 -927q-40 -284 57.5 -428.5t342.5 -144.5q134 0 262 51t228 137.5t168.5 207.5
t87.5 255l119 849q2 14 12.5 23.5t25.5 9.5h139z" />
    <glyph glyph-name="Wcircumflex" unicode="&#x174;" horiz-adv-x="3312" 
d="M1424 2680q-21 0 -25.5 12t12.5 28l489 464q18 17 47 17h102q29 0 43 -17l357 -464q12 -16 5 -28t-28 -12h-151q-29 0 -43 20l-255 348l-354 -348q-20 -20 -46 -20h-153zM3447 2440q40 0 21 -39l-1145 -2415q-13 -26 -42 -26h-46q-28 0 -35 26l-395 1908l-925 -1908
q-13 -26 -42 -26h-51q-29 0 -35 26l-469 2414q-8 40 32 40h166q29 0 36 -26l365 -2042l912 1903q12 25 42 25h45q29 0 35 -25l395 -1903l930 2043q12 25 42 25h164z" />
    <glyph glyph-name="wcircumflex" unicode="&#x175;" horiz-adv-x="2602" 
d="M952 1918q-21 0 -25.5 12t12.5 28l489 464q18 17 47 17h102q29 0 43 -17l357 -464q12 -16 5 -28t-28 -12h-151q-29 0 -43 20l-255 348l-354 -348q-20 -20 -46 -20h-153zM2663 1678q22 0 29.5 -17t-4.5 -40l-856 -1649q-8 -12 -24 -12h-24q-16 0 -21 12l-416 1192
l-752 -1192q-8 -12 -23 -12h-23q-16 0 -20 12l-395 1649q-5 22 7 39.5t35 17.5h149q21 0 28 -24l293 -1302l711 1139q11 20 26 20h24q16 0 22 -20l391 -1139l662 1302q14 24 35 24h146z" />
    <glyph glyph-name="Ycircumflex" unicode="&#x176;" horiz-adv-x="2299" 
d="M917 2680q-21 0 -25.5 12t12.5 28l489 464q18 17 47 17h102q29 0 43 -17l357 -464q12 -16 5 -28t-28 -12h-151q-29 0 -43 20l-255 348l-354 -348q-20 -20 -46 -20h-153zM2431 2440q19 0 26.5 -11t-4.5 -29l-1186 -1528l-118 -839q-1 -13 -12.5 -23t-24.5 -10h-149
q-13 0 -22.5 10t-7.5 23l117 832l-764 1536q-8 17 2 28t29 11h173q24 0 36 -26l659 -1351l1037 1351q18 26 43 26h166z" />
    <glyph glyph-name="ycircumflex" unicode="&#x177;" horiz-adv-x="1694" 
d="M490 1918q-21 0 -25.5 12t12.5 28l489 464q18 17 47 17h102q29 0 43 -17l357 -464q12 -16 5 -28t-28 -12h-151q-29 0 -43 20l-255 348l-354 -348q-20 -20 -46 -20h-153zM1752 1678q24 0 32 -18.5t-7 -42.5l-967 -1621q-111 -187 -201.5 -319.5t-185.5 -243.5t-184 -177
t-187 -102t-206 -36q-38 0 -33 34l14 103q6 30 37 33q181 9 355 193.5t450 648.5l-533 1487q-10 24 3.5 42.5t39.5 18.5h151q21 0 28 -22l439 -1310l773 1310q11 22 39 22h143z" />
    <glyph glyph-name="Ydieresis" unicode="&#x178;" horiz-adv-x="2299" 
d="M1083 2781q-53 0 -88 37t-35 90q0 63 49.5 110.5t113.5 47.5q53 0 88.5 -37t35.5 -89q0 -64 -50 -111.5t-114 -47.5zM1784 2781q-53 0 -88.5 37t-35.5 90q0 63 50 110.5t114 47.5q53 0 88.5 -37t35.5 -89q0 -64 -50 -111.5t-114 -47.5zM2431 2440q19 0 26.5 -11t-4.5 -29
l-1186 -1528l-118 -839q-1 -13 -12.5 -23t-24.5 -10h-149q-13 0 -22.5 10t-7.5 23l117 832l-764 1536q-8 17 2 28t29 11h173q24 0 36 -26l659 -1351l1037 1351q18 26 43 26h166z" />
    <glyph glyph-name="Zacute" unicode="&#x179;" horiz-adv-x="2412" 
d="M1402 2675q-13 -7 -26 -3.5t-19 15.5l-34 72q-5 11 0.5 25t17.5 22l683 458q13 7 26.5 4t19.5 -13l50 -108q5 -10 0.5 -24t-18.5 -21zM110 0q-14 0 -22 9.5t-6 23.5l5 38q3 24 20 41l1955 2143h-1555q-13 0 -22 10.5t-7 23.5l17 118q2 13 13.5 23t24.5 10h1850
q15 0 23 -9.5t6 -23.5l-5 -38q-3 -24 -20 -41l-1954 -2143h1673q13 0 22 -10t7 -24l-16 -118q-2 -13 -14 -23t-25 -10h-1970z" />
    <glyph glyph-name="zacute" unicode="&#x17a;" horiz-adv-x="1878" 
d="M989 1913q-13 -7 -26 -3.5t-19 15.5l-34 72q-5 11 0.5 25t17.5 22l683 458q13 7 26.5 4t19.5 -13l50 -108q5 -10 0.5 -24t-18.5 -21zM61 0q-14 0 -22 8.5t-7 21.5l1 10q5 23 20 41l1333 1413h-1035q-13 0 -22 9.5t-7 23.5l16 118q2 13 14 23t25 10h1351q15 0 23 -7.5
t6 -19.5l-2 -12q-4 -23 -20 -42l-1335 -1412h1137q13 0 22 -10t7 -24l-16 -118q-1 -13 -13 -23t-26 -10h-1450z" />
    <glyph glyph-name="Zdotaccent" unicode="&#x17b;" horiz-adv-x="2412" 
d="M1514 2780q-55 0 -92 38.5t-37 93.5q0 65 52 114.5t119 49.5q54 0 91 -38.5t37 -93.5q0 -65 -51.5 -114.5t-118.5 -49.5zM110 0q-14 0 -22 9.5t-6 23.5l5 38q3 24 20 41l1955 2143h-1555q-13 0 -22 10.5t-7 23.5l17 118q2 13 13.5 23t24.5 10h1850q15 0 23 -9.5t6 -23.5
l-5 -38q-3 -24 -20 -41l-1954 -2143h1673q13 0 22 -10t7 -24l-16 -118q-2 -13 -14 -23t-25 -10h-1970z" />
    <glyph glyph-name="zdotaccent" unicode="&#x17c;" horiz-adv-x="1878" 
d="M1101 2018q-55 0 -92 38.5t-37 93.5q0 65 52 114.5t119 49.5q54 0 91 -38.5t37 -93.5q0 -65 -51.5 -114.5t-118.5 -49.5zM61 0q-14 0 -22 8.5t-7 21.5l1 10q5 23 20 41l1333 1413h-1035q-13 0 -22 9.5t-7 23.5l16 118q2 13 14 23t25 10h1351q15 0 23 -7.5t6 -19.5l-2 -12
q-4 -23 -20 -42l-1335 -1412h1137q13 0 22 -10t7 -24l-16 -118q-1 -13 -13 -23t-26 -10h-1450z" />
    <glyph glyph-name="Zcaron" unicode="&#x17d;" horiz-adv-x="2412" 
d="M1873 3180q20 19 48 19h151q21 0 25.5 -11.5t-12.5 -27.5l-488 -464q-21 -18 -48 -18h-102q-28 0 -43 18l-357 464q-13 16 -5.5 27.5t28.5 11.5h154q25 0 40 -19l256 -349zM110 0q-14 0 -22 9.5t-6 23.5l5 38q3 24 20 41l1955 2143h-1555q-13 0 -22 10.5t-7 23.5l17 118
q2 13 13.5 23t24.5 10h1850q15 0 23 -9.5t6 -23.5l-5 -38q-3 -24 -20 -41l-1954 -2143h1673q13 0 22 -10t7 -24l-16 -118q-2 -13 -14 -23t-25 -10h-1970z" />
    <glyph glyph-name="zcaron" unicode="&#x17e;" horiz-adv-x="1878" 
d="M1460 2418q20 19 48 19h151q21 0 25.5 -11.5t-12.5 -27.5l-488 -464q-21 -18 -48 -18h-102q-28 0 -43 18l-357 464q-13 16 -5.5 27.5t28.5 11.5h154q25 0 40 -19l256 -349zM61 0q-14 0 -22 8.5t-7 21.5l1 10q5 23 20 41l1333 1413h-1035q-13 0 -22 9.5t-7 23.5l16 118
q2 13 14 23t25 10h1351q15 0 23 -7.5t6 -19.5l-2 -12q-4 -23 -20 -42l-1335 -1412h1137q13 0 22 -10t7 -24l-16 -118q-1 -13 -13 -23t-26 -10h-1450z" />
    <glyph glyph-name="Scommaaccent" unicode="&#x218;" horiz-adv-x="2206" 
d="M617 1776q0 -57 19 -105.5t44.5 -84t78 -69.5t92 -55t116 -47t121 -39t134.5 -38q81 -22 123 -34t118 -37t118 -44t105 -50.5t98.5 -62.5t78 -75t64 -91.5t37 -109t15.5 -130.5q0 -150 -56.5 -274t-152.5 -208t-226.5 -142t-275.5 -84t-302 -26q-483 0 -828 267
q-30 20 -11 49l66 110q24 33 51 13q80 -59 148 -99.5t160.5 -78.5t204 -57t244.5 -19q156 0 288.5 30t236 90.5t162.5 160.5t59 231q0 210 -193 332q-114 72 -364 144q-262 75 -280 81q-259 83 -376 194q-138 131 -138 336q0 155 66 286t188.5 226.5t307.5 149.5t412 54
q132 0 246.5 -18.5t207.5 -54t156 -68.5t135 -79q28 -17 8 -48l-71 -117q-18 -32 -53 -8q-61 43 -117.5 74.5t-139.5 66.5t-185.5 53.5t-217.5 18.5q-175 0 -313 -39t-227 -108t-135.5 -162.5t-46.5 -204.5zM887 -253q47 0 82 -32t35 -100q0 -123 -96.5 -289.5
t-233.5 -263.5q-25 -17 -41 7l-8 11q-13 22 9 41q78 67 129 150.5t51 160.5q0 22 -9 36t-31 31q-45 36 -45 92q0 63 48 109.5t110 46.5z" />
    <glyph glyph-name="scommaaccent" unicode="&#x219;" horiz-adv-x="1670" 
d="M490 1218q0 -61 32.5 -107t87 -75.5t125.5 -53t150 -44t157.5 -43t149.5 -55t125.5 -75.5t87 -110t32.5 -153q0 -113 -41 -205t-109.5 -152t-161 -100t-191 -57.5t-205.5 -17.5q-340 0 -625 188q-26 16 -9 45l62 102q8 15 21 20.5t27 -2.5q131 -87 259 -132.5t283 -45.5
q72 0 136 9t126 31t107 56.5t72.5 89.5t27.5 126q0 64 -32 113t-86.5 81.5t-124.5 58.5t-148 48t-155.5 46t-147.5 57t-124.5 75.5t-86.5 107.5t-32 148q0 161 88.5 278.5t244 177.5t359.5 60q293 0 538 -163q27 -16 9 -46l-63 -105q-19 -30 -46 -13q-108 75 -218.5 113.5
t-241.5 38.5q-203 0 -331 -86t-128 -229zM631 -253q47 0 82 -32t35 -100q0 -123 -96.5 -289.5t-233.5 -263.5q-25 -17 -41 7l-8 11q-13 22 9 41q78 67 129 150.5t51 160.5q0 22 -9 36t-31 31q-45 36 -45 92q0 63 48 109.5t110 46.5z" />
    <glyph glyph-name="uni021A" unicode="&#x21a;" horiz-adv-x="2408" 
d="M2424 2440q13 0 22 -10t7 -23l-16 -118q-2 -13 -13.5 -23.5t-24.5 -10.5h-888l-312 -2222q-2 -13 -13.5 -23t-24.5 -10h-149q-13 0 -22 10t-7 23l312 2222h-887q-13 0 -21.5 10t-6.5 24l16 118q1 13 12.5 23t24.5 10h1070h921zM1010 -253q47 0 82 -32t35 -100
q0 -123 -96.5 -289.5t-233.5 -263.5q-25 -17 -41 7l-8 11q-13 22 9 41q78 67 129 150.5t51 160.5q0 22 -9 36t-31 31q-45 36 -45 92q0 63 48 109.5t110 46.5z" />
    <glyph glyph-name="uni021B" unicode="&#x21b;" horiz-adv-x="1525" 
d="M1418 1678q15 0 23 -9.5t6 -23.5l-16 -118q-2 -15 -13 -24t-25 -9h-654l-126 -896q-16 -90 -10.5 -170.5t29.5 -141t84 -96t153 -35.5q165 0 330 114q35 19 48 -12l32 -95q13 -31 -22 -51q-215 -141 -443 -141q-495 0 -411 609h1l128 915h-307q-14 0 -22 9t-6 24l16 118
q2 14 12.5 23.5t25.5 9.5h307l52 370q4 24 38 35l139 39q24 6 31.5 -1.5t4.5 -24.5l-59 -418h654zM717 -253q47 0 82 -32t35 -100q0 -123 -96.5 -289.5t-233.5 -263.5q-25 -17 -41 7l-8 11q-13 22 9 41q78 67 129 150.5t51 160.5q0 22 -9 36t-31 31q-45 36 -45 92
q0 63 48 109.5t110 46.5z" />
    <glyph glyph-name="circumflex" unicode="&#x2c6;" horiz-adv-x="1060" 
d="M835 1938l-255 348l-354 -348q-20 -20 -46 -20h-153q-21 0 -25.5 12t12.5 28l489 464q18 17 47 17h102q29 0 43 -17l357 -464q12 -16 5 -28t-28 -12h-151q-29 0 -43 20z" />
    <glyph glyph-name="caron" unicode="&#x2c7;" horiz-adv-x="1060" 
d="M834 2418q20 19 48 19h151q21 0 25.5 -11.5t-12.5 -27.5l-488 -464q-21 -18 -48 -18h-102q-28 0 -43 18l-357 464q-13 16 -5.5 27.5t28.5 11.5h154q25 0 40 -19l256 -349z" />
    <glyph glyph-name="breve" unicode="&#x2d8;" horiz-adv-x="2405" 
d="M1091 2416q27 0 27 -28q0 -134 -85 -247.5t-223.5 -177.5t-293.5 -64q-203 0 -337 117t-134 307q0 53 10 73t31 20h91q31 0 31 -55q0 -94 47.5 -161.5t121 -98t163.5 -30.5q95 0 179.5 34t150.5 107.5t89 175.5q8 28 42 28h90z" />
    <glyph glyph-name="dotaccent" unicode="&#x2d9;" horiz-adv-x="763" 
d="M363 2018q-55 0 -92 38.5t-37 93.5q0 65 52 114.5t119 49.5q54 0 91 -38.5t37 -93.5q0 -65 -51.5 -114.5t-118.5 -49.5z" />
    <glyph glyph-name="ring" unicode="&#x2da;" horiz-adv-x="847" 
d="M369 1856q-147 0 -244 99.5t-97 245.5q0 115 63.5 216.5t167.5 160.5t219 59q147 0 243.5 -100.5t96.5 -246.5q0 -115 -63 -216t-167 -159.5t-219 -58.5zM386 1980q124 0 214 89t90 210q0 100 -63.5 168t-165.5 68q-124 0 -214 -89.5t-90 -211.5q0 -99 64 -166.5
t165 -67.5z" />
    <glyph glyph-name="ogonek" unicode="&#x2db;" horiz-adv-x="1451" 
d="M332 -839q-152 0 -230.5 78.5t-78.5 206.5q0 173 128.5 337t334.5 262l124 -43q-415 -229 -415 -506q0 -90 50.5 -142t145.5 -52q88 0 163 31q21 6 31 -0.5t7 -25.5l-8 -65q-4 -27 -32 -39q-101 -42 -220 -42z" />
    <glyph glyph-name="tilde" unicode="&#x2dc;" horiz-adv-x="1751" 
d="M1218 2383q15 0 21.5 -14.5t0.5 -39.5q-16 -120 -72 -205t-133 -124t-168 -39q-62 0 -112 20t-80 50t-61 65.5t-56 65.5t-62.5 50t-82.5 20q-181 0 -232 -238q-7 -33 -40 -33h-57q-15 0 -22.5 9t-4.5 25q22 188 126.5 288t251.5 100q53 0 97 -15t74 -38.5t56 -52.5
t49.5 -57.5t47.5 -52t57 -38.5t72 -15q182 0 232 236q9 33 41 33h57z" />
    <glyph glyph-name="hungarumlaut" unicode="&#x2dd;" horiz-adv-x="1470" 
d="M208 1925q-8 -13 -23 -17t-26 3l-68 42q-9 7 -11 20t5 27l433 695q9 12 23.5 16t24.5 -2l101 -61q10 -7 12.5 -20t-6.5 -26zM721 1913q-13 -7 -26.5 -3.5t-18.5 15.5l-34 72q-4 11 1 25t17 22l683 458q13 7 27 4t19 -13l50 -108q5 -10 0.5 -24t-18.5 -21z" />
    <glyph glyph-name="uni0326" unicode="&#x326;" horiz-adv-x="0" 
d="M-1034 -253q47 0 82 -32t35 -100q0 -123 -96.5 -289.5t-233.5 -263.5q-25 -17 -41 7l-8 11q-13 22 9 41q78 67 129 150.5t51 160.5q0 22 -9 36t-31 31q-45 36 -45 92q0 63 48 109.5t110 46.5z" />
    <glyph glyph-name="uni0335" unicode="&#x335;" horiz-adv-x="0" 
 />
    <glyph glyph-name="uni0336" unicode="&#x336;" horiz-adv-x="0" 
d="M-2105 1261q-14 0 -22 9t-6 24l13 98q1 15 12.5 24.5t25.5 9.5h1185q14 0 22 -9.5t6 -24.5l-13 -98q-2 -15 -13 -24t-26 -9h-1184z" />
    <glyph glyph-name="uni0337" unicode="&#x337;" horiz-adv-x="0" 
 />
    <glyph glyph-name="Wgrave" unicode="&#x1e80;" horiz-adv-x="3312" 
d="M1406 3102q-12 7 -13 21t8 24l80 108q9 10 22.5 13t25.5 -4l553 -458q10 -8 12 -22.5t-6 -24.5l-53 -72q-10 -12 -24 -15.5t-25 3.5zM3447 2440q40 0 21 -39l-1145 -2415q-13 -26 -42 -26h-46q-28 0 -35 26l-395 1908l-925 -1908q-13 -26 -42 -26h-51q-29 0 -35 26
l-469 2414q-8 40 32 40h166q29 0 36 -26l365 -2042l912 1903q12 25 42 25h45q29 0 35 -25l395 -1903l930 2043q12 25 42 25h164z" />
    <glyph glyph-name="wgrave" unicode="&#x1e81;" horiz-adv-x="2602" 
d="M934 2340q-12 7 -13 21t8 24l80 108q9 10 22.5 13t25.5 -4l553 -458q10 -8 12 -22.5t-6 -24.5l-53 -72q-10 -12 -24 -15.5t-25 3.5zM2663 1678q22 0 29.5 -17t-4.5 -40l-856 -1649q-8 -12 -24 -12h-24q-16 0 -21 12l-416 1192l-752 -1192q-8 -12 -23 -12h-23
q-16 0 -20 12l-395 1649q-5 22 7 39.5t35 17.5h149q21 0 28 -24l293 -1302l711 1139q11 20 26 20h24q16 0 22 -20l391 -1139l662 1302q14 24 35 24h146z" />
    <glyph glyph-name="Wacute" unicode="&#x1e82;" horiz-adv-x="3312" 
d="M1784 2687l-34 72q-5 11 0.5 25t17.5 22l683 458q13 7 26.5 4t19.5 -13l50 -108q5 -10 0.5 -24t-18.5 -21l-700 -427q-13 -7 -26 -3.5t-19 15.5zM3447 2440q40 0 21 -39l-1145 -2415q-13 -26 -42 -26h-46q-28 0 -35 26l-395 1908l-925 -1908q-13 -26 -42 -26h-51
q-29 0 -35 26l-469 2414q-8 40 32 40h166q29 0 36 -26l365 -2042l912 1903q12 25 42 25h45q29 0 35 -25l395 -1903l930 2043q12 25 42 25h164z" />
    <glyph glyph-name="wacute" unicode="&#x1e83;" horiz-adv-x="2602" 
d="M1312 1925l-34 72q-5 11 0.5 25t17.5 22l683 458q13 7 26.5 4t19.5 -13l50 -108q5 -10 0.5 -24t-18.5 -21l-700 -427q-13 -7 -26 -3.5t-19 15.5zM2663 1678q22 0 29.5 -17t-4.5 -40l-856 -1649q-8 -12 -24 -12h-24q-16 0 -21 12l-416 1192l-752 -1192q-8 -12 -23 -12h-23
q-16 0 -20 12l-395 1649q-5 22 7 39.5t35 17.5h149q21 0 28 -24l293 -1302l711 1139q11 20 26 20h24q16 0 22 -20l391 -1139l662 1302q14 24 35 24h146z" />
    <glyph glyph-name="Wdieresis" unicode="&#x1e84;" horiz-adv-x="3312" 
d="M1590 2781q-53 0 -88 37t-35 90q0 63 49.5 110.5t113.5 47.5q53 0 88.5 -37t35.5 -89q0 -64 -50 -111.5t-114 -47.5zM2291 2781q-53 0 -88.5 37t-35.5 90q0 63 50 110.5t114 47.5q53 0 88.5 -37t35.5 -89q0 -64 -50 -111.5t-114 -47.5zM3447 2440q40 0 21 -39
l-1145 -2415q-13 -26 -42 -26h-46q-28 0 -35 26l-395 1908l-925 -1908q-13 -26 -42 -26h-51q-29 0 -35 26l-469 2414q-8 40 32 40h166q29 0 36 -26l365 -2042l912 1903q12 25 42 25h45q29 0 35 -25l395 -1903l930 2043q12 25 42 25h164z" />
    <glyph glyph-name="wdieresis" unicode="&#x1e85;" horiz-adv-x="2602" 
d="M1118 2019q-53 0 -88 37t-35 90q0 63 49.5 110.5t113.5 47.5q53 0 88.5 -37t35.5 -89q0 -64 -50 -111.5t-114 -47.5zM1819 2019q-53 0 -88.5 37t-35.5 90q0 63 50 110.5t114 47.5q53 0 88.5 -37t35.5 -89q0 -64 -50 -111.5t-114 -47.5zM2663 1678q22 0 29.5 -17t-4.5 -40
l-856 -1649q-8 -12 -24 -12h-24q-16 0 -21 12l-416 1192l-752 -1192q-8 -12 -23 -12h-23q-16 0 -20 12l-395 1649q-5 22 7 39.5t35 17.5h149q21 0 28 -24l293 -1302l711 1139q11 20 26 20h24q16 0 22 -20l391 -1139l662 1302q14 24 35 24h146z" />
    <glyph glyph-name="Ygrave" unicode="&#x1ef2;" horiz-adv-x="2299" 
d="M899 3102q-12 7 -13 21t8 24l80 108q9 10 22.5 13t25.5 -4l553 -458q10 -8 12 -22.5t-6 -24.5l-53 -72q-10 -12 -24 -15.5t-25 3.5zM2431 2440q19 0 26.5 -11t-4.5 -29l-1186 -1528l-118 -839q-1 -13 -12.5 -23t-24.5 -10h-149q-13 0 -22.5 10t-7.5 23l117 832l-764 1536
q-8 17 2 28t29 11h173q24 0 36 -26l659 -1351l1037 1351q18 26 43 26h166z" />
    <glyph glyph-name="ygrave" unicode="&#x1ef3;" horiz-adv-x="1694" 
d="M472 2340q-12 7 -13 21t8 24l80 108q9 10 22.5 13t25.5 -4l553 -458q10 -8 12 -22.5t-6 -24.5l-53 -72q-10 -12 -24 -15.5t-25 3.5zM1752 1678q24 0 32 -18.5t-7 -42.5l-967 -1621q-111 -187 -201.5 -319.5t-185.5 -243.5t-184 -177t-187 -102t-206 -36q-38 0 -33 34
l14 103q6 30 37 33q181 9 355 193.5t450 648.5l-533 1487q-10 24 3.5 42.5t39.5 18.5h151q21 0 28 -22l439 -1310l773 1310q11 22 39 22h143z" />
    <glyph glyph-name="endash" unicode="&#x2013;" horiz-adv-x="1912" 
d="M71 883q-15 0 -23 9.5t-6 23.5l13 99q2 14 13.5 23.5t25.5 9.5h1748q15 0 22.5 -9.5t5.5 -23.5l-13 -99q-2 -14 -12.5 -23.5t-25.5 -9.5h-1748z" />
    <glyph glyph-name="emdash" unicode="&#x2014;" horiz-adv-x="3112" 
d="M71 883q-15 0 -23 9.5t-6 23.5l13 99q2 14 13.5 23.5t25.5 9.5h2948q15 0 22.5 -9.5t5.5 -23.5l-13 -99q-2 -14 -12.5 -23.5t-25.5 -9.5h-2948z" />
    <glyph glyph-name="quoteleft" unicode="&#x2018;" horiz-adv-x="756" 
d="M529 1906q-50 0 -88 34.5t-38 107.5q0 84 46 193.5t128.5 217t178.5 175.5q28 17 44 -7l8 -12q14 -24 -10 -46q-81 -70 -135 -156.5t-54 -167.5q0 -24 9.5 -39t33.5 -34q48 -38 48 -98q0 -68 -52 -118t-119 -50z" />
    <glyph glyph-name="quoteright" unicode="&#x2019;" horiz-adv-x="756" 
d="M623 2590q50 0 88 -34.5t38 -107.5q0 -84 -46 -193.5t-128.5 -217t-178.5 -175.5q-28 -17 -44 7l-8 12q-14 24 10 46q81 70 135 156.5t54 167.5q0 24 -9.5 39t-33.5 34q-48 38 -48 98q0 68 52 118t119 50z" />
    <glyph glyph-name="quotesinglbase" unicode="&#x201a;" horiz-adv-x="756" 
d="M296 266q50 0 88 -34.5t38 -107.5q0 -84 -46 -193.5t-128.5 -217t-178.5 -175.5q-28 -17 -44 7l-8 12q-14 24 10 46q81 70 135 156.5t54 167.5q0 24 -9.5 39t-33.5 34q-48 38 -48 98q0 68 52 118t119 50z" />
    <glyph glyph-name="quotedblleft" unicode="&#x201c;" horiz-adv-x="1207" 
d="M529 1906q-50 0 -88 34.5t-38 107.5q0 84 46 193.5t128.5 217t178.5 175.5q28 17 44 -7l8 -12q14 -24 -10 -46q-81 -70 -135 -156.5t-54 -167.5q0 -24 9.5 -39t33.5 -34q48 -38 48 -98q0 -68 -52 -118t-119 -50zM980 1906q-50 0 -88 34.5t-38 107.5q0 84 46 193.5
t128.5 217t178.5 175.5q28 17 44 -7l8 -12q14 -24 -10 -46q-81 -70 -135 -156.5t-54 -167.5q0 -24 9.5 -39t33.5 -34q48 -38 48 -98q0 -68 -52 -118t-119 -50z" />
    <glyph glyph-name="quotedblright" unicode="&#x201d;" horiz-adv-x="1207" 
d="M623 2590q50 0 88 -34.5t38 -107.5q0 -84 -46 -193.5t-128.5 -217t-178.5 -175.5q-28 -17 -44 7l-8 12q-14 24 10 46q81 70 135 156.5t54 167.5q0 24 -9.5 39t-33.5 34q-48 38 -48 98q0 68 52 118t119 50zM1073 2590q50 0 88 -34.5t38 -107.5q0 -84 -46 -193.5
t-128.5 -217t-178.5 -175.5q-28 -17 -44 7l-8 12q-14 24 10 46q81 70 135 156.5t54 167.5q0 24 -9.5 39t-33.5 34q-48 38 -48 98q0 68 52 118t119 50z" />
    <glyph glyph-name="quotedblbase" unicode="&#x201e;" horiz-adv-x="1207" 
d="M296 266q50 0 88 -34.5t38 -107.5q0 -84 -46 -193.5t-128.5 -217t-178.5 -175.5q-28 -17 -44 7l-8 12q-14 24 10 46q81 70 135 156.5t54 167.5q0 24 -9.5 39t-33.5 34q-48 38 -48 98q0 68 52 118t119 50zM747 266q50 0 88 -34.5t38 -107.5q0 -84 -46 -193.5t-128.5 -217
t-178.5 -175.5q-28 -17 -44 7l-8 12q-14 24 10 46q81 70 135 156.5t54 167.5q0 24 -9.5 39t-33.5 34q-48 38 -48 98q0 68 52 118t119 50z" />
    <glyph glyph-name="dagger" unicode="&#x2020;" horiz-adv-x="1664" 
d="M1621 2019q14 0 22 -9.5t6 -23.5l-12 -89q-2 -14 -12.5 -23.5t-25.5 -9.5h-534l-286 -2031q-1 -14 -12.5 -23.5t-25.5 -9.5h-110q-15 0 -23 9.5t-6 23.5l286 2031h-535q-14 0 -22.5 9.5t-6.5 23.5l13 89q2 14 12.5 23.5t25.5 9.5h534l100 708q2 14 12.5 23.5t25.5 9.5
h110q14 0 22.5 -9.5t6.5 -23.5l-100 -708h535z" />
    <glyph glyph-name="daggerdbl" unicode="&#x2021;" horiz-adv-x="1664" 
d="M1620 2019q15 0 23 -9.5t6 -23.5l-12 -89q-2 -14 -13 -23.5t-26 -9.5h-533l-165 -1168h534q15 0 23 -9.5t6 -23.5l-12 -89q-2 -14 -13 -23.5t-26 -9.5h-533l-100 -708q-2 -14 -13 -23.5t-26 -9.5h-110q-14 0 -22 9.5t-6 23.5l99 708h-534q-15 0 -23 9.5t-6 23.5l13 89
q1 14 12 23.5t25 9.5h535l164 1168h-534q-15 0 -23 9.5t-6 23.5l13 89q1 14 12 23.5t25 9.5h535l99 708q2 14 13 23.5t25 9.5h110q15 0 23.5 -9.5t6.5 -23.5l-100 -708h534z" />
    <glyph glyph-name="bullet" unicode="&#x2022;" horiz-adv-x="999" 
d="M515 595q-121 0 -203 85t-82 207q0 95 53.5 179t140.5 133.5t182 49.5q121 0 203 -85t82 -207q0 -144 -114.5 -253t-261.5 -109z" />
    <glyph glyph-name="ellipsis" unicode="&#x2026;" horiz-adv-x="2011" 
d="M257 -30q-55 0 -92 38.5t-37 93.5q0 65 52 114.5t118 49.5q55 0 92 -38.5t37 -93.5q0 -65 -51.5 -114.5t-118.5 -49.5zM884 -30q-55 0 -92 38.5t-37 93.5q0 65 52 114.5t118 49.5q55 0 92 -38.5t37 -93.5q0 -65 -51.5 -114.5t-118.5 -49.5zM1510 -30q-55 0 -92 38.5
t-37 93.5q0 65 52 114.5t118 49.5q55 0 92 -38.5t37 -93.5q0 -65 -51.5 -114.5t-118.5 -49.5z" />
    <glyph glyph-name="perthousand" unicode="&#x2030;" horiz-adv-x="4642" 
d="M2539 2495q11 -5 14 -18.5t-4 -25.5l-1536 -2540q-8 -13 -22 -17.5t-26 0.5l-84 43q-11 6 -14 19t4 25l1536 2540q7 12 21.5 17t25.5 -1zM1469 1702q-49 -349 -239 -558t-442 -209t-383.5 209t-82.5 558t239 558.5t442 209.5q166 0 282.5 -92.5t166 -268t17.5 -407.5z
M811 1103q187 0 310.5 161t162.5 438t-39 438t-265 161q-185 0 -309.5 -161t-163.5 -438t40 -438t264 -161zM2622 1505q124 0 222.5 -53.5t160.5 -153t85.5 -241.5t-2.5 -319q-49 -349 -239 -558.5t-442 -209.5q-165 0 -282 92.5t-166.5 268t-17.5 407.5q50 349 239.5 558
t441.5 209zM3962 1505q252 0 383.5 -209t82.5 -558t-239.5 -558.5t-442.5 -209.5q-165 0 -282 92.5t-166.5 268t-17.5 407.5q50 349 239.5 558t442.5 209zM2431 139q187 0 310 161t162 438t-39 438t-265 161q-185 0 -309.5 -161t-163.5 -438q-26 -182 0 -316t103.5 -208.5
t201.5 -74.5zM3770 139q187 0 310 161t162 438t-39 438t-265 161q-185 0 -309 -161t-164 -438q-38 -277 41 -438t264 -161z" />
    <glyph glyph-name="guilsinglleft" unicode="&#x2039;" horiz-adv-x="1188" 
d="M993 1448q22 15 40.5 5.5t15.5 -34.5l-12 -85q-2 -12 -14 -20l-634 -447l509 -446q9 -9 7 -20l-12 -85q-3 -25 -24 -34.5t-40 5.5l-604 505q-10 8 -8 21l8 54l8 55q2 13 14 21z" />
    <glyph glyph-name="guilsinglright" unicode="&#x203a;" horiz-adv-x="1188" 
d="M971 943q10 -8 8 -21l-8 -55l-8 -54q-2 -13 -14 -21l-745 -505q-22 -15 -41 -5.5t-16 34.5l12 85q2 12 14 20l634 446h1l-510 447q-8 8 -8 20l12 85q4 25 25 34.5t39 -5.5z" />
    <glyph glyph-name="fraction" unicode="&#x2044;" horiz-adv-x="1392" 
d="M1539 2405q8 12 22 17t25 -1l68 -34q11 -5 14 -18.5t-4 -25.5l-1607 -2648q-7 -13 -21 -17.5t-26 0.5l-67 34q-12 6 -15.5 19.5t4.5 24.5z" />
    <glyph glyph-name="Euro" unicode="&#x20ac;" horiz-adv-x="2962" 
d="M2916 1835q12 -33 -22 -47l-122 -55q-33 -14 -45 18q-197 534 -752 534q-345 0 -633.5 -194.5t-424.5 -521.5h1207l-123 -142h-1133q-48 -172 -48 -358q0 -39 1 -58h1120l-120 -141h-984q56 -327 283.5 -521t556.5 -194q563 0 901 534q20 32 50 18l107 -55q29 -15 8 -47
q-402 -635 -1092 -635q-197 0 -374.5 62.5t-316 177t-232.5 284.5t-123 376h-425l20 141h393q-1 14 -1 43q0 190 47 373h-380l19 142h407q79 206 218.5 376.5t314 285t376 177t407.5 62.5q685 0 915 -635z" />
    <glyph glyph-name="trademark" unicode="&#x2122;" horiz-adv-x="3445" 
d="M3417 2467q20 0 18 -21l-210 -1499q-4 -20 -24 -20h-93q-9 0 -14 6t-3 14l170 1214l-753 -950q-18 -21 -30 0l-486 950l-171 -1214q-4 -20 -24 -20h-92q-10 0 -15 6t-3 14l211 1499q2 21 23 21h29q16 0 25 -16l547 -1040l830 1040q15 16 30 16h35zM1657 2442q8 0 13.5 -6
t4.5 -14l-10 -74q-1 -8 -8 -14.5t-15 -6.5h-552l-194 -1380q-1 -8 -8 -14t-15 -6h-93q-8 0 -14 6.5t-4 13.5l194 1380h-551q-8 0 -13.5 6.5t-3.5 14.5l10 74q0 7 7.5 13.5t15.5 6.5h664h572z" />
    <glyph glyph-name="oneeighth" unicode="&#x215b;" horiz-adv-x="3942" 
d="M2554 2436q11 -5 14 -18.5t-4 -25.5l-1607 -2648q-7 -13 -21 -17.5t-26 0.5l-67 34q-12 6 -15.5 19.5t4.5 24.5l1607 2649q8 12 22 17t25 -1zM1008 2397q8 0 14 -6.5t5 -14.5l-220 -1561q-1 -8 -9 -15t-16 -7h-98q-9 0 -14.5 6.5t-4.5 15.5l202 1437l-331 -160
q-10 -4 -18.5 -1t-11.5 12l-22 67q-5 19 15 29l396 192q15 6 30 6h83zM3091 846q133 -38 221 -131.5t88 -237.5q0 -220 -176 -358.5t-461 -138.5q-238 0 -374.5 107.5t-136.5 286.5q0 97 36.5 179t99.5 138.5t135 94.5t155 60q-114 34 -191.5 116t-77.5 208q0 122 71.5 225
t207 166t307.5 63q219 0 344.5 -104.5t125.5 -262.5q0 -84 -32.5 -155t-88 -120.5t-119 -82.5t-134.5 -53zM2547 1172q0 -119 96 -194t250 -75q181 0 306 94t125 238q0 119 -94 197t-251 78q-185 0 -308.5 -98.5t-123.5 -239.5zM2780 102q213 0 346.5 106t133.5 273
q0 136 -103 218.5t-281 82.5q-213 0 -346.5 -106t-133.5 -274q0 -135 103 -217.5t281 -82.5z" />
    <glyph glyph-name="threeeighths" unicode="&#x215c;" horiz-adv-x="3886" 
d="M2803 2436q11 -5 14 -18.5t-4 -25.5l-1607 -2648q-7 -13 -21 -17.5t-26 0.5l-67 34q-12 6 -15.5 19.5t4.5 24.5l1607 2649q8 12 22 17t25 -1zM1399 1266q0 -225 -172.5 -359t-459.5 -134q-102 0 -188.5 19.5t-152.5 56.5t-114 78t-92 94q-17 21 -5 32l65 65
q12 12 18.5 14t16.5 -8q41 -50 83 -87.5t98.5 -71.5t128.5 -52t156 -18q214 0 344.5 94.5t130.5 263.5q0 65 -25.5 118t-81.5 96.5t-155 68.5t-235 27q-23 2 -20 22l8 56q1 10 8.5 16.5t17.5 6.5q142 2 250 34t171.5 85.5t94.5 119t31 140.5q0 121 -82 186.5t-244 65.5
q-137 0 -248.5 -51.5t-227.5 -147.5q-20 -15 -34 5l-41 59q-9 12 14 32q265 225 571 225q218 0 326 -95.5t108 -250.5q0 -160 -108 -279.5t-310 -171.5q178 -33 266.5 -123t88.5 -231zM3340 846q133 -38 221 -131.5t88 -237.5q0 -220 -176 -358.5t-461 -138.5
q-238 0 -374.5 107.5t-136.5 286.5q0 97 36.5 179t99.5 138.5t135 94.5t155 60q-114 34 -191.5 116t-77.5 208q0 122 71.5 225t207 166t307.5 63q219 0 344.5 -104.5t125.5 -262.5q0 -84 -32.5 -155t-88 -120.5t-119 -82.5t-134.5 -53zM2796 1172q0 -119 96 -194t250 -75
q181 0 306 94t125 238q0 119 -94 197t-251 78q-185 0 -308.5 -98.5t-123.5 -239.5zM3029 102q213 0 346.5 106t133.5 273q0 136 -103 218.5t-281 82.5q-213 0 -346.5 -106t-133.5 -274q0 -135 103 -217.5t281 -82.5z" />
    <glyph glyph-name="fiveeighths" unicode="&#x215d;" horiz-adv-x="3906" 
d="M2803 2436q11 -5 14 -18.5t-4 -25.5l-1607 -2648q-7 -13 -21 -17.5t-26 0.5l-67 34q-12 6 -15.5 19.5t4.5 24.5l1607 2649q8 12 22 17t25 -1zM1425 1336q0 -172 -86.5 -301t-234 -195.5t-334.5 -66.5q-189 0 -312.5 61t-218.5 174q-18 19 -6 32l65 65q12 12 18 13.5
t17 -7.5q89 -104 193.5 -160t257.5 -56q137 0 248 47t180 145t69 231q0 152 -107 243t-286 91q-212 0 -405 -106q-11 -4 -18 0l-67 29q-12 7 -9 21l197 780q4 21 25 21h854q9 0 14.5 -6.5t4.5 -14.5l-11 -78q-4 -22 -25 -22h-755l-152 -597q181 87 385 87
q143 -3 253.5 -49.5t178 -144.5t67.5 -236zM3340 846q133 -38 221 -131.5t88 -237.5q0 -220 -176 -358.5t-461 -138.5q-238 0 -374.5 107.5t-136.5 286.5q0 97 36.5 179t99.5 138.5t135 94.5t155 60q-114 34 -191.5 116t-77.5 208q0 122 71.5 225t207 166t307.5 63
q219 0 344.5 -104.5t125.5 -262.5q0 -84 -32.5 -155t-88 -120.5t-119 -82.5t-134.5 -53zM2796 1172q0 -119 96 -194t250 -75q181 0 306 94t125 238q0 119 -94 197t-251 78q-185 0 -308.5 -98.5t-123.5 -239.5zM3029 102q213 0 346.5 106t133.5 273q0 136 -103 218.5
t-281 82.5q-213 0 -346.5 -106t-133.5 -274q0 -135 103 -217.5t281 -82.5z" />
    <glyph glyph-name="seveneighths" unicode="&#x215e;" horiz-adv-x="3670" 
d="M2552 2436q11 -5 14 -18.5t-4 -25.5l-1607 -2648q-7 -13 -21 -17.5t-26 0.5l-67 34q-12 6 -15.5 19.5t4.5 24.5l1607 2649q8 12 22 17t25 -1zM1516 2351q-1 -14 -12 -27l-930 -1520q-8 -11 -19 -11h-93q-16 0 -21.5 12t3.5 27l884 1444h-958q-9 0 -14.5 6.5t-4.5 15.5
l11 78q0 8 7.5 14.5t16.5 6.5h1114q22 0 20 -21zM3089 846q133 -38 221 -131.5t88 -237.5q0 -220 -176 -358.5t-461 -138.5q-238 0 -374.5 107.5t-136.5 286.5q0 97 36.5 179t99.5 138.5t135 94.5t155 60q-114 34 -191.5 116t-77.5 208q0 122 71.5 225t207 166t307.5 63
q219 0 344.5 -104.5t125.5 -262.5q0 -84 -32.5 -155t-88 -120.5t-119 -82.5t-134.5 -53zM2545 1172q0 -119 96 -194t250 -75q181 0 306 94t125 238q0 119 -94 197t-251 78q-185 0 -308.5 -98.5t-123.5 -239.5zM2778 102q213 0 346.5 106t133.5 273q0 136 -103 218.5
t-281 82.5q-213 0 -346.5 -106t-133.5 -274q0 -135 103 -217.5t281 -82.5z" />
    <glyph glyph-name="partialdiff" unicode="&#x2202;" horiz-adv-x="2049" 
d="M897 2574q166 -33 304.5 -96.5t238.5 -145t178.5 -184.5t128.5 -210.5t82.5 -229t46.5 -233.5t16.5 -230.5t-4 -213t-19.5 -187.5q-27 -195 -118.5 -361t-222 -277.5t-292 -173.5t-330.5 -62q-168 0 -314 62.5t-246.5 172t-147 270t-20.5 345.5t113.5 345t214.5 269.5
t287 172t328 62.5q190 0 334.5 -78.5t225.5 -222.5q-8 100 -25.5 192t-50 187t-78 178.5t-112 162.5t-149.5 142t-194 114.5t-241 82.5q-19 5 -24.5 20.5t5.5 32.5l44 75q14 26 41 19zM933 155q174 0 328.5 81t262 234t135.5 350v2q21 147 -12 272.5t-107 210t-183 132
t-238 47.5t-251.5 -47.5t-220 -132.5t-165 -210.5t-88.5 -273.5t11.5 -274t106.5 -211t183 -132.5t238 -47.5z" />
    <glyph glyph-name="emptyset" unicode="&#x2205;" horiz-adv-x="2764" 
d="M2727 2072q20 -25 -11 -53l-412 -354q93 -137 130.5 -305t11.5 -351q-24 -169 -99.5 -327.5t-190 -286t-256 -224t-307 -149t-333.5 -52.5q-189 0 -352.5 65.5t-285.5 184.5l-412 -354q-33 -30 -54 -3l-71 84q-21 24 11 53l413 355q-93 136 -130.5 303.5t-11.5 350.5
q29 211 139.5 403.5t270 331.5t363 221.5t413.5 82.5q188 0 351.5 -65t285.5 -184l412 354q34 28 54 3zM563 1009q-41 -296 97 -525l1383 1189q-98 95 -230 147t-286 52q-231 0 -440 -113t-349.5 -311.5t-174.5 -438.5zM2249 1009q41 296 -96 526l-1384 -1189
q98 -95 230 -147t286 -52q231 0 440 113t349.5 311.5t174.5 437.5z" />
    <glyph glyph-name="product" unicode="&#x220f;" horiz-adv-x="2002" 
d="M2028 2940q13 0 22 -10t7 -23l-467 -3322q-1 -13 -12.5 -23.5t-25.5 -10.5h-100q-13 0 -22 10t-7 24l449 3200h-1196l-450 -3200q-1 -13 -12.5 -23.5t-25.5 -10.5h-100q-13 0 -22 10t-7 24l467 3322q2 13 13.5 23t24.5 10h1405h59z" />
    <glyph glyph-name="summation" unicode="&#x2211;" horiz-adv-x="2034" 
d="M2117 2818q-2 -15 -13 -24t-26 -9h-1385l689 -1524q6 -15 -4 -31l-1118 -1524h1386q14 0 22 -9t7 -24l-13 -88q-2 -15 -12.5 -24.5t-25.5 -9.5h-1552q-14 0 -22 9.5t-7 24.5l12 84q5 37 25 62l1120 1515l-695 1514q-12 25 -7 62l12 85q2 14 12.5 23.5t25.5 9.5h1552
q14 0 22.5 -9.5t6.5 -23.5z" />
    <glyph glyph-name="minus" unicode="&#x2212;" horiz-adv-x="2056" 
d="M274 983q-15 0 -22.5 9.5t-5.5 23.5l13 99q1 14 12.5 23.5t25.5 9.5h1548q15 0 23 -9.5t6 -23.5l-14 -99q-2 -14 -12.5 -23.5t-25.5 -9.5h-1548z" />
    <glyph glyph-name="radical" unicode="&#x221a;" horiz-adv-x="2214" 
d="M2241 2938q9 22 32 22h140q21 0 30 -15.5t-1 -35.5l-1415 -2888q-11 -21 -32 -21h-117q-20 0 -25 19l-376 1374h-345q-14 0 -22.5 10t-6.5 24l13 97q2 14 13.5 24t25.5 10h480q21 0 26 -20l317 -1258z" />
    <glyph glyph-name="infinity" unicode="&#x221e;" horiz-adv-x="2804" 
d="M811 1612q108 0 198.5 -31t165 -94t133 -137t123.5 -181v-238q-65 -107 -123.5 -181t-133 -137t-165 -94t-198.5 -31q-114 0 -217 43.5t-177 118t-117.5 179t-43.5 221.5t43.5 221.5t117.5 179t177 118t217 43.5zM2052 1612q114 0 217 -43.5t177 -118t117.5 -179
t43.5 -221.5t-43.5 -221.5t-117.5 -179t-177 -118t-217 -43.5q-108 0 -198.5 31t-165 94t-133 137t-123.5 181v238q65 107 123.5 181t133 137t165 94t198.5 31zM805 650q83 0 157 28.5t139 85t119 124t115 162.5q-61 95 -115 162.5t-119 124t-139 85t-157 28.5
q-105 0 -190 -54.5t-132 -146t-47 -199.5t47 -199.5t132 -146t190 -54.5zM2058 650q105 0 190 54.5t132 146t47 199.5t-47 199.5t-132 146t-190 54.5q-83 0 -157 -28.5t-139 -85t-119 -124t-115 -162.5q61 -95 115 -162.5t119 -124t139 -85t157 -28.5z" />
    <glyph glyph-name="integral" unicode="&#x222b;" horiz-adv-x="1638" 
d="M1932 2905q14 -14 15.5 -24.5t-9.5 -26.5l-59 -87q-21 -30 -53 -9q-132 107 -291 107q-98 0 -174.5 -34t-127 -96.5t-81.5 -142.5t-45 -180l-377 -2685q-38 -273 -210 -441t-427 -168q-116 0 -223 39t-168 96q-15 14 -16 25t10 27l59 86q19 31 52 10q131 -108 291 -108
q98 0 174.5 34t127 96.5t81.5 142.5t45 180l377 2686q39 273 211 440.5t426 167.5q117 0 223.5 -38.5t168.5 -96.5z" />
    <glyph glyph-name="approxequal" unicode="&#x2248;" horiz-adv-x="2206" 
d="M2076 1596q20 -14 8 -37q-82 -169 -229 -271.5t-304 -102.5q-102 0 -190 28.5t-152.5 69.5t-125.5 82t-136 69.5t-157 28.5q-118 0 -226.5 -71.5t-167.5 -174.5q-10 -14 -24 -18.5t-27 2.5l-53 31q-22 14 -9 38q82 168 229 270.5t304 102.5q86 0 163.5 -20.5t131 -51.5
t111 -67t106 -67t113.5 -51.5t135 -20.5q119 0 227 71.5t168 174.5q23 33 52 16zM1974 877q22 -14 9 -38q-82 -168 -229 -270.5t-304 -102.5q-102 0 -190 28.5t-152.5 69.5t-125.5 82t-136 69.5t-157 28.5q-118 0 -226.5 -71.5t-167.5 -174.5q-10 -15 -24 -19.5t-28 3.5
l-53 31q-21 12 -8 37q82 169 229 271.5t304 102.5q86 0 163.5 -20.5t131 -51.5t111 -67t106 -67t113.5 -51.5t135 -20.5q119 0 227 71.5t168 173.5q22 33 51 17z" />
    <glyph glyph-name="notequal" unicode="&#x2260;" horiz-adv-x="2056" 
d="M1896 1513q15 0 23 -9.5t6 -24.5l-14 -98q-1 -15 -12 -24t-26 -9h-539l-322 -570h782q14 0 22 -9t6 -24l-14 -98q-1 -15 -12 -24.5t-25 -9.5h-852l-311 -551q-7 -12 -21.5 -17t-25.5 0l-85 42q-11 6 -14 20t4 25l271 481h-514q-15 0 -23.5 9.5t-6.5 24.5l14 98
q2 15 13 24t26 9h585l321 570h-826q-15 0 -23 9t-6 24l14 98q2 15 12.5 24.5t25.5 9.5h896l295 522q8 12 22 17t26 0l85 -42q11 -5 14 -18.5t-4 -26.5l-255 -452h468z" />
    <glyph glyph-name="lessequal" unicode="&#x2264;" horiz-adv-x="2056" 
d="M1966 1768q-1 -9 -7.5 -16t-12 -9.5t-18.5 -8.5l-1469 -617l1296 -617q11 -5 16 -8t9 -9.5t3 -15.5l-19 -135q-2 -15 -12.5 -22.5t-23.5 -1.5l-1450 700q-30 14 -28 39l20 140q4 25 38 39l1647 700q14 7 23 -0.5t7 -22.5zM130 -50q-15 0 -23.5 9.5t-6.5 24.5l14 98
q2 14 13 23.5t26 9.5h1548q14 0 22 -9.5t6 -23.5l-14 -98q-1 -15 -12 -24.5t-26 -9.5h-1547z" />
    <glyph glyph-name="greaterequal" unicode="&#x2265;" horiz-adv-x="2057" 
d="M351 1768l19 135q2 15 13.5 22.5t23.5 0.5l1449 -700q32 -15 28 -39l-19 -140q-4 -24 -39 -39l-1646 -700q-15 -6 -23.5 1.5t-6.5 22.5l18 135q1 9 7.5 15.5t12.5 9.5t19 8l1469 617l-1296 617q-9 4 -12.5 6t-9 6.5t-7 9.5t-0.5 12zM1677 -50h-1547q-15 0 -23.5 9.5
t-6.5 24.5l14 98q2 14 13 23.5t26 9.5h1548q14 0 22 -9.5t6 -23.5l-14 -98q-1 -15 -12 -24.5t-26 -9.5z" />
    <glyph glyph-name="lozenge" unicode="&#x25ca;" horiz-adv-x="2212" 
d="M1341 2749q16 19 36 19t30 -19l660 -1332q9 -16 -4 -34l-1035 -1332q-15 -19 -35.5 -19t-30.5 19l-660 1332q-8 18 4 34zM1028 279l851 1121l-537 1121l-852 -1121z" />
    <glyph glyph-name="i.loclTRK" horiz-adv-x="678" 
d="M506 2018q-55 0 -92 38.5t-37 93.5q0 65 52 114.5t119 49.5q54 0 91 -38.5t37 -93.5q0 -65 -51.5 -114.5t-118.5 -49.5zM349 1645q2 14 12.5 23.5t25.5 9.5h140q14 0 22.5 -9.5t6.5 -23.5l-227 -1612q-2 -14 -13 -23.5t-25 -9.5h-140q-14 0 -22.5 9.5t-6.5 23.5z" />
    <glyph glyph-name="zero.osf" horiz-adv-x="2098" 
d="M1185 1808q177 0 325.5 -63.5t251 -179.5t147.5 -291t15 -385q-24 -169 -89.5 -316t-161 -256.5t-215 -188t-255 -118.5t-276.5 -40t-265.5 40t-222 118.5t-162.5 188t-89 256.5t-1 316q30 210 124 385t229 291t301.5 179.5t343.5 63.5zM953 155q133 0 257 49t227 140
t175 232t96 313t-8 313t-109.5 232t-188 140t-243.5 49t-257 -49t-227 -140t-175.5 -232t-96.5 -313t8.5 -313t110 -232t188 -140t243.5 -49z" />
    <glyph glyph-name="one.osf" horiz-adv-x="1445" 
d="M1108 1778q13 0 22 -10t7 -23l-241 -1712q-2 -13 -13.5 -23t-24.5 -10h-139q-13 0 -22 10t-7 23l214 1524l-504 -243q-14 -7 -27.5 -2t-17.5 18l-33 102q-4 13 2 25.5t19 19.5l603 291q21 10 46 10h116z" />
    <glyph glyph-name="two.osf" horiz-adv-x="1848" 
d="M1486 185q13 0 22 -10t7 -24l-16 -118q-2 -13 -14 -23t-25 -10h-1390q-14 0 -22 9.5t-6 23.5l5 38q4 31 20 41q178 108 300 183t250.5 157t211 138t167.5 119t135.5 108t100 97.5t74.5 94.5t45.5 91t27.5 96t7 102q0 157 -98 241t-284 84q-320 0 -635 -288
q-18 -14 -27.5 -12.5t-24.5 20.5l-67 90q-14 18 23 48q356 327 779 327q269 0 412 -130.5t143 -344.5q0 -151 -60 -282t-201 -269t-351.5 -278.5t-533.5 -318.5h1025z" />
    <glyph glyph-name="three.osf" horiz-adv-x="1894" 
d="M1088 621q246 -53 380 -188.5t134 -341.5q0 -213 -115.5 -375t-316 -248t-454.5 -86q-472 0 -741 332q-15 15 -17.5 24t8.5 23l98 100q18 18 28 20.5t26 -11.5q258 -304 630 -304q131 0 245.5 33.5t202.5 96.5t139 163.5t51 226.5q0 79 -29.5 146t-82 114t-119 83
t-147 57.5t-159.5 33t-162 14.5q-35 7 -31 34l12 86q5 31 40 34q61 0 127.5 9t141 29.5t143 50t132 74.5t110 100t74.5 130t28 161q0 173 -118 277t-318 104q-179 0 -344.5 -78t-302.5 -196q-17 -12 -28.5 -11t-23.5 20l-57 90q-12 18 22 48q176 152 381.5 232t407.5 80
q143 0 258 -41.5t188 -114t112 -167t39 -202.5q0 -234 -157.5 -406t-434.5 -256z" />
    <glyph glyph-name="four.osf" horiz-adv-x="2036" 
d="M1790 185q14 0 22.5 -9.5t6.5 -24.5l-16 -118q-2 -14 -13 -23.5t-25 -9.5h-380l-78 -555q-2 -13 -13.5 -23t-25.5 -10h-139q-13 0 -22 9.5t-7 23.5l78 555h-1162q-15 0 -23 9.5t-6 23.5l17 118l1453 1607q18 20 47 20h96q13 0 22 -10t7 -23l-218 -1560h379zM248 185h956
l176 1249z" />
    <glyph glyph-name="five.osf" horiz-adv-x="2140" 
d="M1877 1778q13 0 21.5 -10t6.5 -23l-16 -118q-2 -13 -13.5 -23t-24.5 -10h-1080l-224 -855q149 72 279.5 102t284.5 30q154 -3 280.5 -44t220.5 -119t146 -198.5t52 -274.5q0 -255 -121 -447.5t-334 -294t-488 -101.5q-137 0 -252 24.5t-207 72.5t-164.5 108t-141.5 142
q-9 10 -13 16t-3.5 15t8.5 17l99 100q18 17 27.5 19.5t25.5 -11.5q131 -155 281.5 -236.5t361.5 -81.5q149 0 277 42.5t223 121t149 198.5t54 268q0 224 -142.5 358t-397.5 134q-153 0 -291.5 -38t-300.5 -123q-13 -7 -26 -2l-102 46q-20 9 -14 32l292 1131q2 14 13 23.5
t25 9.5h1229z" />
    <glyph glyph-name="six.osf" horiz-adv-x="2175" 
d="M1150 1504q166 0 300 -60t218 -163t120 -243.5t14 -297.5q-22 -156 -102 -297t-200.5 -245.5t-283.5 -166t-341 -61.5q-238 0 -408.5 109t-246.5 307t-40 452q105 743 517 1139.5t1071 396.5q15 0 23 -9.5t6 -24.5l-16 -117q-2 -14 -13 -23.5t-25 -10.5
q-513 -6 -835 -263.5t-468 -799.5q124 171 310 274.5t400 103.5zM901 155q132 0 251.5 47.5t206 127.5t144 186.5t73.5 223.5q22 159 -27.5 289.5t-173 210.5t-300.5 80q-131 0 -252.5 -50.5t-209.5 -132.5t-147 -186t-74 -211q-16 -117 12 -223.5t92.5 -186.5t169.5 -127.5
t235 -47.5z" />
    <glyph glyph-name="seven.osf" horiz-adv-x="1728" 
d="M236 -588q-24 0 -32.5 18t5.5 41l1333 2123h-1383q-13 0 -21.5 10t-6.5 23l16 118q2 13 13.5 23t24.5 10h1621q14 0 22.5 -9.5t6.5 -23.5l-5 -38q-4 -23 -20 -41l-1404 -2238q-11 -16 -29 -16h-141z" />
    <glyph glyph-name="eight.osf" horiz-adv-x="2071" 
d="M1402 1248q92 -27 172 -73.5t146.5 -112.5t105 -159.5t38.5 -202.5q0 -213 -120 -379t-337 -258.5t-494 -92.5q-354 0 -560 159.5t-206 423.5q0 115 37.5 216t98.5 175.5t145.5 136t172 101t183.5 66.5q-79 24 -148.5 65t-128 99.5t-92.5 140t-34 175.5q0 133 63.5 253
t176 209.5t277 142t355.5 52.5q163 0 297 -42t222 -114.5t136 -170t48 -209.5q0 -97 -33 -184t-87 -151.5t-127.5 -118.5t-149.5 -89t-157 -58zM591 1729q0 -170 145.5 -282.5t368.5 -112.5q170 0 316 63t233.5 174t87.5 244q0 173 -141.5 285.5t-372.5 112.5
q-178 0 -324.5 -64.5t-229.5 -175.5t-83 -244zM939 154q205 0 367.5 70.5t253 197t90.5 286.5q0 197 -154.5 319.5t-416.5 122.5q-153 0 -285.5 -41.5t-226 -114.5t-146.5 -176t-53 -222q0 -199 154.5 -320.5t416.5 -121.5z" />
    <glyph glyph-name="nine.osf" horiz-adv-x="2041" 
d="M1155 1808q246 0 421.5 -109.5t254 -309.5t42.5 -458q-106 -749 -524 -1143t-1088 -394q-15 0 -23.5 10t-6.5 24l17 117q2 14 12.5 23.5t25.5 10.5q517 6 846.5 263.5t478.5 795.5q-128 -175 -319.5 -279.5t-413.5 -104.5q-226 0 -391 103.5t-237.5 280t-42.5 391.5
q30 214 160 391.5t338 282.5t450 105zM953 439q136 0 262 50.5t217.5 133t152 189t76.5 217.5q23 161 -34 296t-187.5 216.5t-310.5 81.5q-136 0 -259 -47.5t-212.5 -128.5t-148.5 -189.5t-76 -228.5q-23 -164 29.5 -297t180 -213t310.5 -80z" />
    <glyph glyph-name="zero.dnom" horiz-adv-x="1609" 
d="M913 1617q269 0 405.5 -223.5t83.5 -598.5t-251.5 -598.5t-467.5 -223.5t-405.5 223.5t-83.5 598.5t251.5 598.5t467.5 223.5zM700 95q217 0 363 190t191 510q29 211 -1 367.5t-121.5 244.5t-235.5 88q-214 0 -361 -190t-192 -510q-30 -210 0.5 -367t122 -245t234.5 -88z
" />
    <glyph glyph-name="one.dnom" horiz-adv-x="1297" 
d="M897 1604q8 0 14 -6.5t5 -14.5l-220 -1561q-1 -8 -9 -15t-16 -7h-98q-9 0 -14.5 6.5t-4.5 15.5l202 1437l-331 -160q-10 -4 -18.5 -1t-11.5 12l-22 67q-5 19 15 29l396 192q15 6 30 6h83z" />
    <glyph glyph-name="two.dnom" horiz-adv-x="1506" 
d="M1305 1181q-17 -124 -83 -244.5t-191.5 -252.5t-285 -264t-396.5 -305h838q8 0 14 -7t5 -16l-11 -77q-2 -8 -9.5 -15t-15.5 -7h-1069q-21 0 -18 22l2 25q2 19 13 27q551 392 793 643.5t271 458.5q21 154 -56.5 240t-251.5 86q-138 0 -255.5 -59.5t-228.5 -163.5
q-15 -9 -20.5 -7t-13.5 13l-44 60q-9 10 15 31q124 114 263.5 181t315.5 67q121 0 209.5 -33t137.5 -92.5t67 -138t5 -172.5z" />
    <glyph glyph-name="three.dnom" horiz-adv-x="1524" 
d="M931 820q178 -33 266.5 -123t88.5 -231q0 -225 -172.5 -359t-459.5 -134q-102 0 -188.5 19.5t-152.5 56.5t-114 78t-92 94q-17 21 -5 32l65 65q12 12 18.5 14t16.5 -8q41 -50 83 -87.5t98.5 -71.5t128.5 -52t156 -18q214 0 344.5 94.5t130.5 263.5q0 65 -25.5 118
t-81.5 96.5t-155 68.5t-235 27q-23 2 -20 22l8 56q1 10 8.5 16.5t17.5 6.5q142 2 250 34t171.5 85.5t94.5 119t31 140.5q0 121 -82 186.5t-244 65.5q-137 0 -248.5 -51.5t-227.5 -147.5q-20 -15 -34 5l-41 59q-9 12 14 32q265 225 571 225q218 0 326 -95.5t108 -250.5
q0 -160 -108 -279.5t-310 -171.5z" />
    <glyph glyph-name="four.dnom" horiz-adv-x="1548" 
d="M1333 508q10 0 15.5 -6t3.5 -15l-10 -78q-3 -22 -26 -22h-250l-51 -365q-1 -8 -9 -15t-16 -7h-98q-9 0 -14.5 6.5t-4.5 15.5l51 365h-854q-22 0 -19 22l9 71q2 8 6 12l1033 1099q11 13 31 13h85q9 0 14.5 -6.5t4.5 -14.5l-151 -1075h250zM238 508h703l125 886z" />
    <glyph glyph-name="five.dnom" horiz-adv-x="1562" 
d="M1354 1604q9 0 14.5 -6.5t4.5 -14.5l-11 -78q-4 -22 -25 -22h-755l-152 -597q181 87 385 87q143 -3 253.5 -49.5t178 -144.5t67.5 -236q0 -172 -86.5 -301t-234 -195.5t-334.5 -66.5q-189 0 -312.5 61t-218.5 174q-18 19 -6 32l65 65q12 12 18 13.5t17 -7.5
q89 -104 193.5 -160t257.5 -56q137 0 248 47t180 145t69 231q0 152 -107 243t-286 91q-212 0 -405 -106q-11 -4 -18 0l-67 29q-12 7 -9 21l197 780q3 21 25 21h854z" />
    <glyph glyph-name="six.dnom" horiz-adv-x="1532" 
d="M831 1015q152 0 263 -68t160.5 -185.5t29.5 -261.5t-108 -262.5t-227.5 -188t-302.5 -69.5q-165 0 -283.5 72.5t-172 205.5t-29.5 306q70 500 356 779.5t725 279.5q22 0 19 -22l-10 -76q-3 -21 -25 -23q-339 -4 -564.5 -190t-326.5 -553q86 116 215.5 186t280.5 70z
M663 102q184 0 316 115t156 283q24 169 -72 281.5t-282 112.5q-122 0 -229 -57t-171.5 -146.5t-79.5 -190.5q-23 -168 77.5 -283t284.5 -115z" />
    <glyph glyph-name="seven.dnom" horiz-adv-x="1520" 
d="M351 0q-16 0 -21.5 12t3.5 27l884 1444h-958q-9 0 -14.5 6.5t-4.5 15.5l11 78q0 8 7.5 14.5t16.5 6.5h1114q22 0 20 -21l-4 -25q-1 -14 -12 -27l-930 -1520q-8 -11 -19 -11h-93z" />
    <glyph glyph-name="eight.dnom" horiz-adv-x="1545" 
d="M979 846q133 -38 221 -131.5t88 -237.5q0 -220 -176 -358.5t-461 -138.5q-238 0 -374.5 107.5t-136.5 286.5q0 97 36.5 179t99.5 138.5t135 94.5t155 60q-114 34 -191.5 116t-77.5 208q0 122 71.5 225t207 166t307.5 63q219 0 344.5 -104.5t125.5 -262.5
q0 -84 -32.5 -155t-88 -120.5t-119 -82.5t-134.5 -53zM435 1172q0 -119 96 -194t250 -75q181 0 306 94t125 238q0 119 -94 197t-251 78q-185 0 -308.5 -98.5t-123.5 -239.5zM668 102q213 0 346.5 106t133.5 273q0 136 -103 218.5t-281 82.5q-213 0 -346.5 -106t-133.5 -274
q0 -135 103 -217.5t281 -82.5z" />
    <glyph glyph-name="nine.dnom" horiz-adv-x="1512" 
d="M865 1623q162 0 278 -72t168 -205t28 -306q-33 -238 -121 -430t-223 -327.5t-319 -209t-404 -73.5q-22 0 -20 22l11 77q4 22 25 22q336 4 556.5 187t320.5 534q-85 -116 -212 -185t-273 -69q-225 0 -349.5 148t-92.5 369q30 219 207.5 368.5t419.5 149.5zM730 710
q179 0 313 119t157 276q24 167 -74.5 282t-277.5 115q-180 0 -309 -114.5t-153 -282.5q-24 -170 69 -282.5t275 -112.5z" />
    <glyph glyph-name="zero.numr" horiz-adv-x="1609" 
d="M1026 2417q269 0 405.5 -223.5t83.5 -598.5t-251.5 -598.5t-467.5 -223.5t-405.5 223.5t-83.5 598.5t251.5 598.5t467.5 223.5zM813 895q217 0 363 190t191 510q29 211 -1 367.5t-121.5 244.5t-235.5 88q-214 0 -361 -190t-192 -510q-30 -210 0.5 -367t122 -245
t234.5 -88z" />
    <glyph glyph-name="one.numr" horiz-adv-x="1296" 
d="M1008 2397q8 0 14 -6.5t5 -14.5l-220 -1561q-1 -8 -9 -15t-16 -7h-98q-9 0 -14.5 6.5t-4.5 15.5l202 1437l-331 -160q-10 -4 -18.5 -1t-11.5 12l-22 67q-5 19 15 29l396 192q15 6 30 6h83z" />
    <glyph glyph-name="two.numr" horiz-adv-x="1507" 
d="M1418 1981q-17 -124 -83 -244.5t-191.5 -252.5t-285 -264t-396.5 -305h838q8 0 14 -7t5 -16l-11 -77q-2 -8 -9.5 -15t-15.5 -7h-1069q-21 0 -18 22l2 25q2 19 13 27q551 392 793 643.5t271 458.5q21 154 -56.5 240t-251.5 86q-138 0 -255.5 -59.5t-228.5 -163.5
q-15 -9 -20.5 -7t-13.5 13l-44 60q-9 10 15 31q124 114 263.5 181t315.5 67q121 0 209.5 -33t137.5 -92.5t67 -138t5 -172.5z" />
    <glyph glyph-name="three.numr" horiz-adv-x="1524" 
d="M1044 1620q178 -33 266.5 -123t88.5 -231q0 -225 -172.5 -359t-459.5 -134q-102 0 -188.5 19.5t-152.5 56.5t-114 78t-92 94q-17 21 -5 32l65 65q12 12 18.5 14t16.5 -8q41 -50 83 -87.5t98.5 -71.5t128.5 -52t156 -18q214 0 344.5 94.5t130.5 263.5q0 65 -25.5 118
t-81.5 96.5t-155 68.5t-235 27q-23 2 -20 22l8 56q1 10 8.5 16.5t17.5 6.5q142 2 250 34t171.5 85.5t94.5 119t31 140.5q0 121 -82 186.5t-244 65.5q-137 0 -248.5 -51.5t-227.5 -147.5q-20 -15 -34 5l-41 59q-9 12 14 32q265 225 571 225q218 0 326 -95.5t108 -250.5
q0 -160 -108 -279.5t-310 -171.5z" />
    <glyph glyph-name="four.numr" horiz-adv-x="1547" 
d="M1444 1301q22 0 19 -21l-10 -78q-3 -22 -26 -22h-250l-51 -365q-1 -8 -9 -15t-16 -7h-98q-9 0 -14.5 6.5t-4.5 15.5l51 365h-854q-22 0 -19 22l9 71q2 8 6 12l1033 1099q11 13 31 13h85q9 0 14.5 -6.5t4.5 -14.5l-151 -1075h250zM349 1301h703l125 886z" />
    <glyph glyph-name="five.numr" horiz-adv-x="1562" 
d="M1465 2397q9 0 14.5 -6.5t4.5 -14.5l-11 -78q-4 -22 -25 -22h-755l-152 -597q181 87 385 87q143 -3 253.5 -49.5t178 -144.5t67.5 -236q0 -172 -86.5 -301t-234 -195.5t-334.5 -66.5q-189 0 -312.5 61t-218.5 174q-18 19 -6 32l65 65q12 12 18 13.5t17 -7.5
q89 -104 193.5 -160t257.5 -56q137 0 248 47t180 145t69 231q0 152 -107 243t-286 91q-212 0 -405 -106q-11 -4 -18 0l-67 29q-12 7 -9 21l197 780q4 21 25 21h854z" />
    <glyph glyph-name="six.numr" horiz-adv-x="1532" 
d="M943 1808q152 0 263 -68t160.5 -185.5t29.5 -261.5t-108 -262.5t-227.5 -188t-302.5 -69.5q-165 0 -283.5 72.5t-172 205.5t-29.5 306q70 500 356 779.5t725 279.5q22 0 19 -22l-10 -76q-3 -21 -25 -23q-339 -4 -564.5 -190t-326.5 -553q86 116 215.5 186t280.5 70z
M775 895q184 0 316 115t156 283q24 169 -72 281.5t-282 112.5q-122 0 -229 -57t-171.5 -146.5t-79.5 -190.5q-23 -168 77.5 -283t284.5 -115z" />
    <glyph glyph-name="seven.numr" horiz-adv-x="1519" 
d="M462 793q-16 0 -21.5 12t3.5 27l884 1444h-958q-9 0 -14.5 6.5t-4.5 15.5l11 78q0 8 7.5 14.5t16.5 6.5h1114q22 0 20 -21l-4 -25q-1 -14 -12 -27l-930 -1520q-8 -11 -19 -11h-93z" />
    <glyph glyph-name="eight.numr" horiz-adv-x="1545" 
d="M1091 1639q133 -38 221 -131.5t88 -237.5q0 -220 -176 -358.5t-461 -138.5q-238 0 -374.5 107.5t-136.5 286.5q0 97 36.5 179t99.5 138.5t135 94.5t155 60q-114 34 -191.5 116t-77.5 208q0 122 71.5 225t207 166t307.5 63q219 0 344.5 -104.5t125.5 -262.5
q0 -84 -32.5 -155t-88 -120.5t-119 -82.5t-134.5 -53zM547 1965q0 -119 96 -194t250 -75q181 0 306 94t125 238q0 119 -94 197t-251 78q-185 0 -308.5 -98.5t-123.5 -239.5zM780 895q213 0 346.5 106t133.5 273q0 136 -103 218.5t-281 82.5q-213 0 -346.5 -106t-133.5 -274
q0 -135 103 -217.5t281 -82.5z" />
    <glyph glyph-name="nine.numr" horiz-adv-x="1512" 
d="M977 2416q162 0 278 -72t168 -205t28 -306q-33 -238 -121 -430t-223 -327.5t-319 -209t-404 -73.5q-22 0 -20 22l11 77q4 22 25 22q336 4 556.5 187t320.5 534q-85 -116 -212 -185t-273 -69q-225 0 -349.5 148t-92.5 369q30 219 207.5 368.5t419.5 149.5zM842 1503
q179 0 313 119t157 276q24 167 -74.5 282t-277.5 115q-180 0 -309 -114.5t-153 -282.5q-24 -170 69 -282.5t275 -112.5z" />
    </font>
</defs>
</svg>
