<?xml version="1.0" standalone="no"?>
<!DOCTYPE svg PUBLIC "-//W3C//DTD SVG 1.1//EN" "http://www.w3.org/Graphics/SVG/1.1/DTD/svg11.dtd" >
<svg xmlns="http://www.w3.org/2000/svg" xmlns:xlink="http://www.w3.org/1999/xlink" version="1.1">
<metadata>
Created by FontForge 20170731 at Fri Jun 24 01:06:55 2016
 By Aleksey,,,
Copyright (c) 2015 by Mateusz Machalski. All rights reserved.
</metadata>
<defs>
<font id="Migrena_Grotesque-Light" horiz-adv-x="2018" >
  <font-face 
    font-family="Migrena_Grotesque Light"
    font-weight="400"
    font-stretch="normal"
    units-per-em="4000"
    panose-1="0 0 5 0 0 0 0 0 0 0"
    ascent="3200"
    descent="-800"
    x-height="1678"
    cap-height="2440"
    bbox="-2118 -960 4442 3473.6"
    underline-thickness="50"
    underline-position="-200"
    unicode-range="U+0020-25CA"
  />
<missing-glyph horiz-adv-x="1656" 
d="M1358 2560v-3311h-1050v3311h1050zM1103 2338h-547v-109h215v-123h-218v-109h550v109h-219v123h219v109zM884 1911h-331v-344h550v112h-219v232zM771 1798v-119h-109v119h109zM1103 1477h-550v-109h218v-122h-218v-110h331v232h219v109zM1103 1279h-110v-219h-440v-112
h550v331zM1103 875h-332v-186h113v76h109v-155h-331v265h-109v-374h550v374zM1103 302h-550v-374h550v374zM993 193v-156h-331v156h331zM1103 -148h-550v-110h232l-232 -155v-110h550v110h-338l232 155h106v110z" />
    <glyph glyph-name=".notdef" horiz-adv-x="1656" 
d="M1358 2560v-3311h-1050v3311h1050zM1103 2338h-547v-109h215v-123h-218v-109h550v109h-219v123h219v109zM884 1911h-331v-344h550v112h-219v232zM771 1798v-119h-109v119h109zM1103 1477h-550v-109h218v-122h-218v-110h331v232h219v109zM1103 1279h-110v-219h-440v-112
h550v331zM1103 875h-332v-186h113v76h109v-155h-331v265h-109v-374h550v374zM1103 302h-550v-374h550v374zM993 193v-156h-331v156h331zM1103 -148h-550v-110h232l-232 -155v-110h550v110h-338l232 155h106v110z" />
    <glyph glyph-name=".null" horiz-adv-x="0" 
 />
    <glyph glyph-name="nonmarkingreturn" horiz-adv-x="1333" 
 />
    <glyph glyph-name="space" unicode=" " horiz-adv-x="750" 
 />
    <glyph glyph-name="exclam" unicode="!" horiz-adv-x="756" 
d="M275 2407q0 14 9.5 23.5t24.5 9.5h139q15 0 24.5 -9.5t8.5 -23.5l-27 -1750q0 -15 -9 -24.5t-24 -9.5h-85q-15 0 -24 9.5t-10 24.5zM378 -30q-61 0 -104.5 43.5t-43.5 104.5t43.5 104.5t104.5 43.5t104.5 -43.5t43.5 -104.5t-43.5 -104.5t-104.5 -43.5z" />
    <glyph glyph-name="quotedbl" unicode="&#x22;" horiz-adv-x="1077" 
d="M186 2477q0 14 9.5 23.5t24.5 9.5h115q14 0 24 -9.5t9 -23.5l-22 -741q-1 -15 -10 -24.5t-23 -9.5h-76q-15 0 -24 9.5t-9 24.5zM710 2477q0 14 9.5 23.5t24.5 9.5h115q14 0 24 -9.5t9 -23.5l-22 -741q-1 -15 -10 -24.5t-23 -9.5h-76q-15 0 -24 9.5t-9 24.5z" />
    <glyph glyph-name="numbersign" unicode="#" horiz-adv-x="2588" 
d="M2322 1656q14 0 22.5 -9.5t7.5 -24.5l-10 -117q-1 -15 -11.5 -24.5t-24.5 -9.5h-405l-67 -682h386q15 0 23.5 -9.5t6.5 -24.5l-10 -117q-1 -15 -11.5 -24.5t-24.5 -9.5h-389l-56 -571q-2 -14 -12 -23.5t-25 -9.5h-139q-15 0 -23.5 9.5t-7.5 23.5l57 571h-732l-57 -571
q-1 -14 -11.5 -23.5t-25.5 -9.5h-139q-15 0 -23.5 9.5t-6.5 23.5l56 571h-404q-14 0 -23 9.5t-8 24.5l11 117q2 15 12 24.5t25 9.5h406l67 682h-388q-14 0 -22.5 9.5t-7.5 24.5l10 117q1 15 11.5 24.5t24.5 9.5h391l56 571q2 14 12 23.5t25 9.5h139q15 0 24 -9.5t7 -23.5
l-57 -571h732l57 571q2 14 12 23.5t24 9.5h140q14 0 22.5 -9.5t7.5 -23.5l-56 -571h402zM1627 789l68 682h-732l-68 -682h732z" />
    <glyph glyph-name="dollar" unicode="$" horiz-adv-x="2200" 
d="M1999 644q0 -125 -39.5 -229.5t-109 -179t-166.5 -129.5t-207.5 -86t-237.5 -43v-405q0 -13 -10.5 -23.5t-23.5 -10.5h-97q-13 0 -23.5 10.5t-10.5 23.5v398q-250 2 -453.5 72t-397.5 195q-33 20 -18 49l51 110q18 33 49 13q74 -44 106.5 -63t104 -56.5t124 -55.5
t128 -39.5t157 -30.5t172.5 -9q145 0 264.5 26t213.5 79t146.5 144t52.5 212q0 66 -14.5 122t-47 100.5t-66.5 80t-93 66t-104.5 52t-122.5 44.5t-126.5 36t-135.5 35q-112 28 -169.5 43.5t-157 49t-153.5 63t-124 80t-105.5 106.5t-61.5 135t-26 173q0 138 53 256
t153.5 207t254.5 142.5t346 61.5v374q0 13 10 23t23 10h98q14 0 24 -10t10 -23v-376q112 -7 212.5 -27.5t187 -54.5t146 -63.5t132.5 -71.5q30 -17 16 -48l-55 -117q-15 -31 -53 -8q-64 41 -124 72t-148 66.5t-193.5 55t-217.5 19.5q-164 0 -292 -36.5t-207 -101
t-119.5 -148.5t-40.5 -183q0 -109 52 -190.5t139.5 -131.5t201.5 -88t239.5 -69t251 -64.5t239.5 -84t201.5 -119t139.5 -178t52 -252.5z" />
    <glyph glyph-name="percent" unicode="%" horiz-adv-x="3304" 
d="M2306 2495q12 -5 17 -18.5t-1 -25.5l-1179 -2540q-5 -13 -18.5 -17.5t-25.5 0.5l-91 43q-12 6 -16.5 19t0.5 25l1178 2540q6 12 19.5 17t25.5 -1zM1348 1702q0 -349 -160.5 -558t-413.5 -209q-252 0 -413 209t-161 558t161 558.5t413 209.5q166 0 295.5 -92.5t204 -268
t74.5 -407.5zM774 1103q187 0 288 161t101 438t-101 438t-288 161q-185 0 -286.5 -161.5t-101.5 -437.5t101.5 -437.5t286.5 -161.5zM2529 1505q253 0 413.5 -209t160.5 -558q0 -232 -74.5 -407.5t-204 -268t-295.5 -92.5q-252 0 -413 209.5t-161 558.5t161 558t413 209z
M2529 139q187 0 288 161t101 438t-101 438t-288 161q-185 0 -286.5 -161.5t-101.5 -437.5t101.5 -437.5t286.5 -161.5z" />
    <glyph glyph-name="ampersand" unicode="&#x26;" horiz-adv-x="2293" 
d="M2179 78q22 -25 10.5 -51.5t-44.5 -26.5h-129q-24 0 -42 20l-275 292q-311 -352 -774 -352q-166 0 -305 47.5t-235.5 131.5t-150.5 204t-54 261q0 125 39 237t112.5 206t166 172t213.5 151q-114 140 -170 268.5t-56 262.5q0 110 34.5 203t95 160t144 114t182 69.5
t207.5 22.5q145 0 269 -41t254 -128q28 -17 13 -45l-50 -101q-7 -14 -21 -18t-28 4q-111 80 -215.5 117t-226.5 37q-209 0 -326.5 -101.5t-117.5 -283.5q0 -244 288 -550l700 -753q145 241 221 591q3 16 15 24t27 4l120 -27q14 -3 21 -14.5t4 -24.5q-92 -409 -278 -693z
M943 147q376 0 630 299l-742 789q-221 -136 -323 -278t-102 -329q0 -217 143 -349t394 -132z" />
    <glyph glyph-name="quotesingle" unicode="'" horiz-adv-x="652" 
d="M235 2477q0 14 9.5 23.5t24.5 9.5h115q14 0 24 -9.5t9 -23.5l-22 -741q-1 -15 -10 -24.5t-23 -9.5h-76q-15 0 -24 9.5t-9 24.5z" />
    <glyph glyph-name="parenleft" unicode="(" horiz-adv-x="990" 
d="M412 956q0 -416 105 -801t323 -713q15 -27 -11 -42l-70 -37q-23 -11 -37 9q-240 334 -363.5 742t-123.5 842q0 422 126.5 826t360.5 757q13 22 37 9l70 -37q26 -15 11 -42q-428 -683 -428 -1513z" />
    <glyph glyph-name="parenright" unicode=")" horiz-adv-x="990" 
d="M268 2539q234 -353 360.5 -757t126.5 -826q0 -434 -123.5 -842t-363.5 -742q-14 -20 -37 -9l-70 37q-26 15 -11 42q218 328 323 713t105 801q0 830 -428 1513q-15 27 11 42l70 37q24 13 37 -9z" />
    <glyph glyph-name="asterisk" unicode="*" horiz-adv-x="1605" 
d="M1418 2477q4 -12 -1 -22.5t-17 -14.5l-470 -152l291 -399q7 -10 5 -22t-12 -19l-80 -58q-10 -7 -22 -5.5t-19 11.5l-290 399l-290 -399q-8 -10 -19.5 -11.5t-21.5 5.5l-80 58q-10 7 -12 19t5 22l291 399l-470 152q-11 4 -16.5 14.5t-1.5 22.5l30 94q10 27 37 19l469 -153
v494q0 12 8.5 20.5t20.5 8.5h100q12 0 20.5 -8.5t8.5 -20.5v-494l469 153q12 4 22.5 -1.5t14.5 -17.5z" />
    <glyph glyph-name="plus" unicode="+" horiz-adv-x="2056" 
d="M1802 1148q14 0 23.5 -9.5t9.5 -23.5v-99q0 -14 -9.5 -23.5t-23.5 -9.5h-692v-692q0 -14 -9.5 -23.5t-23.5 -9.5h-99q-14 0 -23.5 9.5t-9.5 23.5v692h-691q-15 0 -24.5 9.5t-9.5 23.5v99q0 14 9.5 23.5t24.5 9.5h691v691q0 15 9.5 24.5t23.5 9.5h99q14 0 23.5 -9.5
t9.5 -24.5v-691h692z" />
    <glyph glyph-name="comma" unicode="," horiz-adv-x="754" 
d="M376 266q57 0 102.5 -41.5t45.5 -130.5q0 -128 -75.5 -293t-196.5 -263q-24 -17 -45 7l-10 12q-17 25 4 46q63 62 103.5 142.5t40.5 163.5q0 34 -11 51.5t-43 39.5q-63 44 -63 116q0 62 43.5 106t104.5 44z" />
    <glyph glyph-name="hyphen" unicode="-" horiz-adv-x="1753" 
d="M254 873q-15 0 -24.5 9.5t-9.5 24.5v117q0 15 9.5 24.5t24.5 9.5h1245q15 0 24.5 -9.5t9.5 -24.5v-117q0 -15 -9.5 -24.5t-24.5 -9.5h-1245z" />
    <glyph glyph-name="period" unicode="." horiz-adv-x="756" 
d="M378 -30q-61 0 -104.5 43.5t-43.5 104.5t43.5 104.5t104.5 43.5t104.5 -43.5t43.5 -104.5t-43.5 -104.5t-104.5 -43.5z" />
    <glyph glyph-name="slash" unicode="/" horiz-adv-x="1533" 
d="M1298 2629q6 13 19 17.5t26 -0.5l91 -43q11 -5 16 -18.5t0 -25.5l-1235 -2648q-6 -13 -19.5 -17.5t-25.5 0.5l-90 43q-13 5 -17.5 18.5t0.5 25.5z" />
    <glyph glyph-name="zero" unicode="0" horiz-adv-x="2238" 
d="M1119 2470q201 0 371 -88t291 -247.5t189 -395t68 -519.5t-68 -519.5t-189 -395t-291 -247.5t-371 -88t-371 88t-291 247.5t-189 395t-68 519.5t68 519.5t189 395t291 247.5t371 88zM1119 155q165 0 296.5 76.5t218 216.5t132.5 336.5t46 435.5t-46 435.5t-132.5 336.5
t-218 216.5t-296.5 76.5q-217 0 -374.5 -133.5t-238 -372.5t-80.5 -559t80.5 -559t238 -372.5t374.5 -133.5z" />
    <glyph glyph-name="one" unicode="1" horiz-adv-x="1564" 
d="M1046 2440q13 0 23 -10t10 -23v-2374q0 -13 -10 -23t-23 -10h-150q-13 0 -23 10t-10 23v2186l-469 -243q-14 -7 -27.5 -2.5t-20.5 18.5l-47 102q-6 13 -2 25.5t17 18.5l562 292q20 10 44 10h126z" />
    <glyph glyph-name="two" unicode="2" horiz-adv-x="2039" 
d="M1860 185q14 0 24 -10.5t10 -23.5v-118q0 -13 -10.5 -23t-23.5 -10h-1626q-14 0 -23.5 9.5t-9.5 23.5v38q0 30 14 41q508 402 808.5 699.5t436.5 531.5t136 445q0 235 -136 366t-401 131q-110 0 -210 -26t-185 -75.5t-154.5 -106t-139.5 -131.5q-11 -11 -21.5 -11
t-16 4.5t-15.5 15.5l-79 90q-3 3 -4.5 6.5t-2.5 6.5t0.5 6.5t2.5 5.5t4 6t4 5.5t5.5 6l5.5 5.5q78 82 157.5 144.5t181 118t225.5 85t264 29.5q184 0 326 -50.5t229.5 -140.5t131.5 -209t44 -263q0 -151 -51 -301.5t-144.5 -297t-249 -314t-340 -333.5t-441.5 -376h1274z
" />
    <glyph glyph-name="three" unicode="3" horiz-adv-x="2147" 
d="M1327 1258q619 -113 619 -624q0 -307 -231 -485.5t-629 -178.5q-155 0 -290.5 30t-243.5 85.5t-190 118t-160 143.5q-8 9 -11.5 13t-7.5 10.5t-3 12.5t6 12l85 100q15 18 25 20t28 -12q74 -76 145.5 -132.5t164.5 -108.5t206.5 -79.5t240.5 -27.5q298 0 473.5 126
t175.5 354q0 89 -24.5 164t-84.5 144t-152.5 117.5t-236 78t-327.5 32.5q-15 1 -25 10.5t-10 23.5v85q0 15 10 24.5t24 9.5q197 3 346.5 46t237 115t130 159.5t42.5 189.5q0 216 -139.5 333.5t-414.5 117.5q-209 0 -368.5 -78.5t-313.5 -225.5q-19 -13 -28.5 -10.5
t-24.5 18.5l-75 90q-17 20 16 48q351 343 820 343q188 0 332 -47t231.5 -131t131.5 -192.5t44 -238.5q0 -212 -139.5 -372t-404.5 -231z" />
    <glyph glyph-name="four" unicode="4" horiz-adv-x="2219" 
d="M2041 773q14 0 23.5 -9.5t9.5 -23.5v-118q0 -15 -9.5 -24.5t-23.5 -9.5h-381v-555q0 -13 -10 -23t-23 -10h-149q-13 0 -23.5 10t-10.5 23v555h-1300q-15 0 -24.5 9.5t-9.5 24.5v108q0 11 7 19l1335 1671q17 20 44 20h131q13 0 23 -10t10 -23v-1634h381zM375 773h1069
v1347z" />
    <glyph glyph-name="five" unicode="5" horiz-adv-x="2163" 
d="M1106 1480q141 -3 267 -33.5t234.5 -91.5t187 -148.5t123 -211t44.5 -271.5q0 -175 -65.5 -318t-182 -238t-278.5 -146.5t-355 -51.5q-150 0 -277.5 26t-231.5 76.5t-186 111t-163 143.5q-32 30 -16 48l85 100q14 18 24.5 20t27.5 -12q75 -76 147.5 -131t161.5 -102
t195.5 -71t228.5 -24q142 0 263 37t212 107t142.5 179.5t51.5 246.5q0 174 -85 306.5t-238 204t-351 71.5q-165 0 -309 -37.5t-285 -123.5q-14 -7 -26 -1l-108 45q-21 9 -19 32l134 1185q0 14 9 23.5t24 9.5h1298q13 0 23 -10t10 -23v-118q0 -14 -10 -24t-23 -10h-1148
l-103 -908q137 72 272.5 102.5t294.5 30.5z" />
    <glyph glyph-name="six" unicode="6" horiz-adv-x="2121" 
d="M1121 1544q174 0 323.5 -60.5t254 -165t163.5 -249.5t59 -309q0 -163 -63.5 -308.5t-175.5 -251.5t-273 -168t-347 -62q-251 0 -447 110t-305.5 312.5t-109.5 465.5q0 377 97 676t279 502.5t445.5 314.5t595.5 118q15 0 24.5 -9.5t9.5 -24.5v-116q0 -14 -9.5 -23.5
t-23.5 -10.5q-1047 -40 -1196 -1131q106 177 288.5 283.5t410.5 106.5zM1062 155q140 0 259.5 48t201 129.5t127 192.5t45.5 235q0 168 -74 303.5t-217.5 216t-331.5 80.5q-140 0 -262.5 -51t-205.5 -134.5t-130.5 -192t-47.5 -222.5q0 -124 46.5 -235t128.5 -192.5
t201.5 -129.5t259.5 -48z" />
    <glyph glyph-name="seven" unicode="7" horiz-adv-x="2122" 
d="M637 0q-25 0 -36 18.5t0 41.5l1035 2195h-1457q-13 0 -23.5 10.5t-10.5 23.5v118q0 13 10.5 23t23.5 10h1695q14 0 23.5 -9.5t9.5 -23.5v-35q0 -19 -14 -46l-1089 -2310q-8 -16 -26 -16h-141z" />
    <glyph glyph-name="eight" unicode="8" horiz-adv-x="2135" 
d="M1382 1287q110 -30 204.5 -82t175 -129t127 -187t46.5 -241q0 -305 -235.5 -491.5t-631.5 -186.5q-397 0 -632.5 186.5t-235.5 491.5q0 131 46.5 241t127 187t175.5 129t205 82q-75 21 -142.5 53t-131 81.5t-109.5 110t-73.5 142t-27.5 173.5q0 128 55.5 241t156 198
t252.5 134.5t334 49.5t334 -49.5t252 -134.5t155.5 -198t55.5 -241q0 -92 -27.5 -173.5t-73.5 -142t-109.5 -110t-130.5 -81.5t-142 -53zM481 1829q0 -132 76.5 -236t210 -161.5t300.5 -57.5q166 0 299.5 57.5t210 161.5t76.5 236q0 200 -163.5 334t-422.5 134
q-260 0 -423.5 -134t-163.5 -334zM1068 155q296 0 473.5 143t177.5 374q0 232 -177.5 375t-473.5 143q-297 0 -474.5 -143t-177.5 -375q0 -231 177.5 -374t474.5 -143z" />
    <glyph glyph-name="nine" unicode="9" horiz-adv-x="2090" 
d="M1044 2469q246 0 438.5 -110t300 -312t107.5 -465q0 -361 -92.5 -653.5t-268.5 -499t-441 -318t-599 -111.5q-15 0 -24.5 9.5t-9.5 24.5v116q0 15 9 24.5t24 9.5q511 7 807 285.5t373 812.5q-105 -176 -282.5 -281.5t-400.5 -105.5q-170 0 -317 60.5t-249.5 165.5
t-160.5 250t-58 309q0 131 39.5 251t115 217t178 169.5t234 112t277.5 39.5zM1034 1080q136 0 255.5 50.5t200.5 134t127.5 192t46.5 223.5q0 166 -77 303.5t-219.5 219.5t-323.5 82t-323.5 -82t-218.5 -219.5t-76 -303.5q0 -168 72.5 -303.5t212.5 -216t323 -80.5z" />
    <glyph glyph-name="colon" unicode=":" horiz-adv-x="756" 
d="M378 1412q-61 0 -104.5 43.5t-43.5 104.5t43.5 104.5t104.5 43.5t104.5 -43.5t43.5 -104.5t-43.5 -104.5t-104.5 -43.5zM378 -30q-61 0 -104.5 43.5t-43.5 104.5t43.5 104.5t104.5 43.5t104.5 -43.5t43.5 -104.5t-43.5 -104.5t-104.5 -43.5z" />
    <glyph glyph-name="semicolon" unicode=";" horiz-adv-x="756" 
d="M378 1412q-61 0 -104.5 43.5t-43.5 104.5t43.5 104.5t104.5 43.5t104.5 -43.5t43.5 -104.5t-43.5 -104.5t-104.5 -43.5zM376 266q57 0 102.5 -41.5t45.5 -130.5q0 -128 -75.5 -293t-196.5 -263q-24 -17 -45 7l-10 12q-17 25 4 46q63 62 103.5 142.5t40.5 163.5
q0 34 -11 51.5t-43 39.5q-63 44 -63 116q0 62 43.5 106t104.5 44z" />
    <glyph glyph-name="less" unicode="&#x3c;" horiz-adv-x="2056" 
d="M1835 1689q0 -9 -5.5 -15.5t-10.5 -9.5t-17 -8l-1382 -617l1382 -617q12 -5 17 -8t10.5 -9.5t5.5 -15.5v-135q0 -15 -10 -22.5t-23 -1.5l-1548 700q-34 15 -34 39v140q0 24 34 39l1548 700q13 6 23 -1.5t10 -22.5v-135z" />
    <glyph glyph-name="equal" unicode="=" horiz-adv-x="2056" 
d="M254 1348q-15 0 -24.5 9.5t-9.5 23.5v99q0 14 9.5 23.5t24.5 9.5h1548q14 0 23.5 -9.5t9.5 -23.5v-99q0 -14 -9.5 -23.5t-23.5 -9.5h-1548zM254 613q-15 0 -24.5 9.5t-9.5 23.5v99q0 14 9.5 23.5t24.5 9.5h1548q14 0 23.5 -9.5t9.5 -23.5v-99q0 -14 -9.5 -23.5
t-23.5 -9.5h-1548z" />
    <glyph glyph-name="greater" unicode="&#x3e;" horiz-adv-x="2056" 
d="M221 1689v135q0 15 10 22.5t23 1.5l1548 -700q34 -15 34 -39v-140q0 -24 -34 -39l-1548 -700q-13 -6 -23 1.5t-10 22.5v135q0 9 5.5 15.5t10.5 9.5t17 8l1382 617l-1382 617q-12 5 -17 8t-10.5 9.5t-5.5 15.5z" />
    <glyph glyph-name="question" unicode="?" horiz-adv-x="1751" 
d="M1456 1851q0 220 -125.5 327t-377.5 107q-190 0 -337 -69t-282 -194q-12 -11 -22 -11.5t-16 4.5t-15 15l-74 87q-9 7 -5.5 18t7.5 16t14 14q325 305 753 305q335 0 515.5 -149.5t180.5 -434.5q0 -94 -23.5 -177.5t-63 -148.5t-91 -125t-108 -113.5l-113 -107t-108 -113.5
t-91 -124.5t-63 -148t-23.5 -177.5q0 -12 -8.5 -20t-19.5 -8l-101 1q-12 0 -20 11.5t-8 29.5q0 121 34.5 227.5t89.5 186t122 153.5t133.5 142.5t121.5 138t89.5 156.5t34.5 182zM909 -30q-61 0 -104.5 43.5t-43.5 104.5t43.5 104.5t104.5 43.5t104.5 -43.5t43.5 -104.5
t-43.5 -104.5t-104.5 -43.5z" />
    <glyph glyph-name="at" unicode="@" horiz-adv-x="3241" 
d="M2059 -563q-2 -26 -27 -29q-296 -60 -546 -60q-194 0 -363.5 36.5t-300.5 102t-238 158t-181.5 203t-125 238.5t-74 263.5t-23.5 278.5q0 228 59 438t165.5 382t257.5 313t332 237t392.5 148t436.5 52q376 -1 653 -133t430.5 -393.5t153.5 -628.5q0 -154 -27 -303.5
t-83 -283.5t-134 -235.5t-187.5 -161t-236.5 -59.5q-106 0 -182.5 32.5t-119 92t-61 132.5t-17.5 164q-33 -73 -89.5 -145t-131.5 -135t-171 -102t-193 -39q-110 0 -204 35t-170 106t-119.5 192t-43.5 280q0 207 65 388.5t180 313t281 207.5t358 75q195 0 465 -71
q25 -6 23 -33l-89 -958q-37 -391 238 -391q118 0 212 80t150 211t85 283.5t29 311.5q0 503 -279 758.5t-796 255.5q-203 0 -392 -46t-350 -131.5t-294 -211.5t-226.5 -280t-145 -343.5t-51.5 -396.5q0 -182 36.5 -343t122.5 -308t215.5 -252.5t327 -168.5t445.5 -64
q232 0 521 59q19 4 31.5 -8t11.5 -31zM1456 135q103 0 201 46.5t177.5 131t134 213.5t68.5 282l54 595q-187 60 -338 60q-158 0 -290 -70t-218 -187.5t-133 -268t-47 -315.5q0 -131 31 -227.5t86 -152t123.5 -81.5t150.5 -26z" />
    <glyph glyph-name="A" unicode="A" horiz-adv-x="2476" 
d="M2392 39q8 -19 0.5 -29t-26.5 -10h-177q-29 0 -39 26l-320 740h-1206l-335 -740q-12 -26 -39 -26h-158q-19 0 -27.5 10.5t-0.5 28.5l1114 2415q12 26 39 26h55q28 0 40 -26zM704 941h1050l-513 1186z" />
    <glyph glyph-name="B" unicode="B" horiz-adv-x="2352" 
d="M1540 1250q126 -8 236 -51.5t194.5 -117.5t133 -185.5t48.5 -245.5q0 -106 -34 -202t-104.5 -178t-171 -142t-241.5 -94t-309 -34h-919h-105q-13 0 -23 10t-10 23v2374q0 13 10 23t23 10h150h804q209 0 371.5 -47.5t264 -132t153 -196t51.5 -244.5q0 -125 -41.5 -227.5
t-114 -171.5t-165 -112t-201.5 -59zM1836 1801q0 97 -32.5 175.5t-105 143t-203 100t-312.5 35.5h-732v-918h743q332 0 487 123t155 341zM1253 185q147 0 262.5 25t191.5 68.5t126 105.5t71.5 132t21.5 153q0 110 -39 197t-120.5 152.5t-216 100.5t-316.5 35h-783v-969h802z
" />
    <glyph glyph-name="C" unicode="C" horiz-adv-x="2609" 
d="M2408 652q32 -14 16 -47q-318 -635 -1004 -635q-192 0 -372.5 55.5t-333.5 163.5t-268 257.5t-180 349t-65 424.5t65 424.5t180 349t268 257.5t333.5 163.5t372.5 55.5q686 0 1004 -635q16 -33 -16 -47l-114 -55q-32 -14 -47 18q-270 534 -827 534q-207 0 -389.5 -77.5
t-316 -215t-210.5 -338t-77 -434.5t77 -434.5t210.5 -338t316 -215t389.5 -77.5q557 0 827 534q15 32 47 18z" />
    <glyph glyph-name="D" unicode="D" horiz-adv-x="2552" 
d="M1112 2440q204 0 389.5 -51.5t340.5 -154t269 -247.5t177.5 -341.5t63.5 -425.5t-63.5 -425.5t-177.5 -341.5t-269 -247.5t-340.5 -154t-389.5 -51.5h-749h-95q-13 0 -23 10t-10 23v2374q0 13 10 23t23 10h150h694zM1093 185q223 0 413 71.5t327.5 202.5t215 326.5
t77.5 434.5t-77.5 434.5t-215 326.5t-327.5 202.5t-413 71.5h-642v-2070h642z" />
    <glyph glyph-name="E" unicode="E" horiz-adv-x="2187" 
d="M1958 185q15 0 24.5 -9.5t9.5 -24.5v-118q0 -14 -9.5 -23.5t-24.5 -9.5h-1599h-91q-13 0 -23 10t-10 23v2374q0 13 10 23t23 10h150h1500q15 0 24.5 -9.5t9.5 -23.5v-118q0 -15 -9.5 -24.5t-24.5 -9.5h-1467v-896h1307q15 0 24.5 -9.5t9.5 -24.5v-118q0 -14 -9.5 -23.5
t-24.5 -9.5h-1307v-989h1507z" />
    <glyph glyph-name="F" unicode="F" horiz-adv-x="2087" 
d="M1878 2440q15 0 24.5 -9.5t9.5 -23.5v-118q0 -15 -9.5 -24.5t-24.5 -9.5h-1427v-1016h1347q15 0 24.5 -9.5t9.5 -24.5v-118q0 -14 -9.5 -23.5t-24.5 -9.5h-1347v-1021q0 -13 -10 -23t-23 -10h-150q-13 0 -23 10t-10 23v2374q0 13 10 23t23 10h150h1460z" />
    <glyph glyph-name="G" unicode="G" horiz-adv-x="2665" 
d="M2396 1070q15 0 24.5 -9.5t9.5 -24.5v-754q-228 -157 -470 -234.5t-540 -77.5q-192 0 -372.5 55.5t-333.5 163.5t-268 257.5t-180 349t-65 424.5t65 424.5t180 349t268 257.5t333.5 163.5t372.5 55.5q334 0 573 -133.5t421 -426.5q19 -31 -16 -48l-115 -54
q-31 -14 -47 18q-154 242 -351 350.5t-465 108.5q-207 0 -389.5 -77.5t-316 -215t-210.5 -338t-77 -434.5t77 -434.5t210.5 -338t316 -215t389.5 -77.5q239 0 429.5 50.5t383.5 162.5v668q0 15 9.5 24.5t24.5 9.5h129z" />
    <glyph glyph-name="H" unicode="H" horiz-adv-x="2547" 
d="M2279 2440q13 0 23 -10t10 -23v-2374q0 -13 -10 -23t-23 -10h-150q-13 0 -23 10t-10 23v1141h-1645v-1141q0 -13 -10 -23t-23 -10h-150q-13 0 -23 10t-10 23v2374q0 13 10 23t23 10h150q13 0 23 -10t10 -23v-1048h1645v1048q0 13 10 23t23 10h150z" />
    <glyph glyph-name="I" unicode="I" horiz-adv-x="687" 
d="M235 2407q0 13 10.5 23t23.5 10h149q13 0 23 -10t10 -23v-2374q0 -13 -10 -23t-23 -10h-149q-13 0 -23.5 10t-10.5 23v2374z" />
    <glyph glyph-name="J" unicode="J" horiz-adv-x="1833" 
d="M1564 2440q15 0 24 -9.5t9 -23.5v-1648q0 -377 -204 -583t-570 -206q-255 0 -437 118t-284 323q-16 32 14 47l122 56q28 13 46 -16q56 -105 123.5 -177.5t173 -119t238.5 -46.5q281 0 421.5 154t140.5 470v1628q0 14 9.5 23.5t24.5 9.5h149z" />
    <glyph glyph-name="K" unicode="K" horiz-adv-x="2325" 
d="M418 2440q13 0 23 -10t10 -23v-2374q0 -13 -10 -23t-23 -10h-150q-13 0 -23 10t-10 23v2374q0 13 10 23t23 10h150zM2174 41q15 -16 9 -28.5t-28 -12.5h-191q-28 0 -45 20l-1156 1220l1150 1180q17 20 45 20h177q21 0 27 -12t-9 -29l-1119 -1149z" />
    <glyph glyph-name="L" unicode="L" horiz-adv-x="1973" 
d="M1844 185q15 0 24 -9.5t9 -24.5v-118q0 -14 -9 -23.5t-24 -9.5h-1485h-91q-13 0 -23 10t-10 23v2374q0 13 10 23t23 10h150q13 0 23 -10t10 -23v-2222h1393z" />
    <glyph glyph-name="M" unicode="M" horiz-adv-x="2947" 
d="M2587 2454q19 26 44 26h47q15 0 24.5 -9.5t9.5 -23.5v-2414q0 -14 -9.5 -23.5t-24.5 -9.5h-149q-14 0 -23.5 9.5t-9.5 23.5v1954l-998 -1529q-24 -35 -49 0l-998 1529v-1954q0 -14 -9 -23.5t-24 -9.5h-149q-15 0 -24.5 9.5t-9.5 23.5v2414q0 14 9.5 23.5t24.5 9.5h47
q25 0 44 -26l1114 -1664z" />
    <glyph glyph-name="N" unicode="N" horiz-adv-x="2587" 
d="M2318 2440q15 0 24.5 -9.5t9.5 -23.5v-2414q0 -14 -9.5 -23.5t-24.5 -9.5h-10q-28 0 -44 17l-1813 2057v-2001q0 -14 -9 -23.5t-24 -9.5h-149q-15 0 -24.5 9.5t-9.5 23.5v2414q0 14 9.5 23.5t24.5 9.5h10q27 0 44 -17l1813 -2057v2001q0 14 9.5 23.5t23.5 9.5h149z" />
    <glyph glyph-name="O" unicode="O" horiz-adv-x="2839" 
d="M1420 2470q192 0 372.5 -55.5t333.5 -163.5t268 -257.5t180 -349t65 -424.5t-65 -424.5t-180 -349t-268 -257.5t-333.5 -163.5t-372.5 -55.5q-159 0 -312.5 39.5t-288.5 113t-249 184t-196 246.5t-128 307.5t-46 359.5t46 359.5t128 307.5t196 246.5t249 184t288.5 113
t312.5 39.5zM1420 155q207 0 389.5 77.5t316 215t210.5 338t77 434.5t-77 434.5t-210.5 338t-316 215t-389.5 77.5q-208 0 -390.5 -77.5t-316 -215t-210.5 -337.5t-77 -435t77 -435t210.5 -337.5t316 -215t390.5 -77.5z" />
    <glyph glyph-name="P" unicode="P" horiz-adv-x="2202" 
d="M1153 2440q185 0 338 -40t259.5 -110t179.5 -166t107.5 -207.5t34.5 -235.5t-34.5 -235.5t-107.5 -207.5t-179.5 -166t-259.5 -110t-338 -40h-702v-889q0 -13 -10 -23t-23 -10h-150q-13 0 -23 10t-10 23v2374q0 13 10 23t23 10h150h735zM1114 1106q158 0 283.5 31
t208.5 83.5t138 126.5t78.5 156.5t23.5 177.5t-23.5 177.5t-78.5 156t-138 126.5t-208.5 83.5t-283.5 30.5h-663v-1149h663z" />
    <glyph glyph-name="Q" unicode="Q" horiz-adv-x="2839" 
d="M2351 -322q33 0 33 -33v-140q0 -19 -8 -26.5t-27 -7.5q-104 0 -205.5 32.5t-192.5 95.5t-163 165.5t-109 232.5q-126 -27 -259 -27q-159 0 -312.5 39.5t-288.5 113t-249 184t-196 246.5t-128 307.5t-46 359.5t46 359.5t128 307.5t196 246.5t249 184t288.5 113t312.5 39.5
q192 0 372.5 -55.5t333.5 -163.5t268 -257.5t180 -349t65 -424.5q0 -218 -61 -412t-169.5 -341.5t-253 -256t-316.5 -169.5q65 -175 201.5 -269t310.5 -94zM426 1220q0 -235 77 -435t210.5 -337.5t316 -215t390.5 -77.5q207 0 389.5 77.5t316 215t210.5 338t77 434.5
t-77 434.5t-210.5 338t-316 215t-389.5 77.5q-208 0 -390.5 -77.5t-316 -215t-210.5 -337.5t-77 -435z" />
    <glyph glyph-name="R" unicode="R" horiz-adv-x="2227" 
d="M2024 67q16 -24 5 -45.5t-40 -21.5h-151q-18 0 -30 18l-625 945q-23 -1 -70 -1h-662v-929q0 -13 -10 -23t-23 -10h-150q-13 0 -23 10t-10 23v2374q0 13 10 23t23 10h150h695q185 0 337.5 -38t259.5 -105t180 -160t107.5 -202.5t34.5 -233.5q0 -265 -158 -456t-467 -255z
M1074 1146q158 0 283.5 28.5t208.5 78.5t137.5 121t78.5 152t24 175t-24 175t-78.5 151.5t-137.5 120.5t-208.5 78.5t-283.5 28.5h-623v-1109h623z" />
    <glyph glyph-name="S" unicode="S" horiz-adv-x="2200" 
d="M483 1821q0 -109 52 -190.5t139.5 -131.5t201.5 -88t239.5 -69t251 -64.5t239.5 -84t201.5 -119t139.5 -178t52 -252.5q0 -139 -49.5 -253t-134.5 -191t-202 -130t-248 -76.5t-277 -23.5q-255 0 -461.5 70.5t-403.5 196.5q-33 20 -18 49l51 110q18 33 49 13
q74 -44 106.5 -63t104 -56.5t124 -55.5t128 -39.5t157 -30.5t172.5 -9q145 0 264.5 26t213.5 79t146.5 144t52.5 212q0 66 -14.5 122t-47 100.5t-66.5 80t-93 66t-104.5 52t-122.5 44.5t-126.5 36t-135.5 35q-112 28 -169.5 43.5t-157 49t-153.5 63t-124 80t-105.5 106.5
t-61.5 135t-26 173q0 144 57.5 265.5t166 211.5t275 140.5t373.5 50.5q133 0 250 -18.5t215.5 -54.5t165 -68t147.5 -79q30 -17 16 -48l-55 -117q-15 -31 -53 -8q-64 41 -124 72t-148 66.5t-193.5 55t-217.5 19.5q-164 0 -292 -36.5t-207 -101t-119.5 -148.5t-40.5 -183z
" />
    <glyph glyph-name="T" unicode="T" horiz-adv-x="2408" 
d="M2200 2440q13 0 23 -10t10 -23v-118q0 -13 -10 -23.5t-23 -10.5h-888v-2222q0 -13 -10 -23t-23 -10h-150q-13 0 -23 10t-10 23v2222h-887q-13 0 -23.5 10.5t-10.5 23.5v118q0 13 10.5 23t23.5 10h1070h921z" />
    <glyph glyph-name="U" unicode="U" horiz-adv-x="2507" 
d="M2238 2440q13 0 23.5 -10t10.5 -23v-1387q0 -258 -73 -460t-207.5 -333t-321 -199t-416.5 -68t-417 68t-321.5 199t-207.5 333t-73 460v1387q0 13 10.5 23t23.5 10h149q13 0 23 -10t10 -23v-1348q0 -437 202 -675.5t601 -238.5q398 0 600 238.5t202 675.5v1348
q0 13 10 23t23 10h149z" />
    <glyph glyph-name="V" unicode="V" horiz-adv-x="2396" 
d="M2284 2440q19 0 27.5 -10.5t0.5 -29.5l-1059 -2414q-12 -26 -40 -26h-45q-29 0 -39 26l-1064 2415q-8 19 -0.5 29t25.5 10h183q29 0 39 -26l885 -2097l887 2097q12 26 40 26h160z" />
    <glyph glyph-name="W" unicode="W" horiz-adv-x="3332" 
d="M3222 2440q40 0 26 -39l-806 -2415q-9 -26 -38 -26h-46q-27 0 -39 26l-663 1908l-662 -1908q-10 -26 -39 -26h-45q-29 0 -38 26l-809 2414q-6 19 1 29.5t25 10.5h167q30 0 39 -26l652 -2042l650 1903q11 25 39 25h40q28 0 38 -25l662 -1903l643 2043q8 25 38 25h165z" />
    <glyph glyph-name="X" unicode="X" horiz-adv-x="2361" 
d="M2247 41q14 -18 7.5 -29.5t-27.5 -11.5h-188q-29 0 -45 22l-826 1045l-822 -1047q-15 -20 -41 -20h-171q-21 0 -27.5 11.5t7.5 31.5l934 1176l-932 1178q-14 20 -7 31.5t29 11.5h184q29 0 48 -24l812 -1027l809 1029q17 22 46 22h170q23 0 28.5 -12t-8.5 -29l-925 -1162z
" />
    <glyph glyph-name="Y" unicode="Y" horiz-adv-x="2318" 
d="M2205 2440q20 0 29 -11t-1 -28l-970 -1527v-841q0 -13 -10.5 -23t-23.5 -10h-149q-13 0 -23 10t-10 23v830l-981 1538q-9 17 -1 28t26 11h179q24 0 39 -26l849 -1351l847 1351q15 26 40 26h160z" />
    <glyph glyph-name="Z" unicode="Z" horiz-adv-x="2362" 
d="M179 0q-15 0 -24.5 9.5t-9.5 23.5v38q0 24 14 41l1654 2143h-1555q-13 0 -23 10.5t-10 23.5v118q0 13 10 23t23 10h1851q14 0 23.5 -9.5t9.5 -23.5v-38q0 -26 -14 -41l-1653 -2143h1673q14 0 24 -10.5t10 -23.5v-118q0 -13 -10.5 -23t-23.5 -10h-1969z" />
    <glyph glyph-name="bracketleft" unicode="[" horiz-adv-x="967" 
d="M788 2414h-386v-2917h386q15 0 24 -9.5t9 -24.5v-78q0 -15 -9 -24.5t-24 -9.5h-465h-54q-13 0 -23.5 10.5t-10.5 23.5v3142q0 13 10.5 23t23.5 10h100h419q15 0 24 -9.5t9 -23.5v-79q0 -15 -9 -24.5t-24 -9.5z" />
    <glyph glyph-name="backslash" unicode="\" horiz-adv-x="1533" 
d="M215 2629l1235 -2648q5 -12 0.5 -25.5t-17.5 -18.5l-90 -43q-12 -5 -25.5 -0.5t-19.5 17.5l-1235 2648q-5 12 0 25.5t16 18.5l91 43q13 5 26 0.5t19 -17.5z" />
    <glyph glyph-name="bracketright" unicode="]" horiz-adv-x="967" 
d="M698 2560q13 0 23.5 -10t10.5 -23v-3142q0 -13 -10 -23.5t-24 -10.5h-100h-419q-15 0 -24 9.5t-9 24.5v78q0 15 9 24.5t24 9.5h386v2917h-386q-15 0 -24 9.5t-9 24.5v79q0 14 9 23.5t24 9.5h465h54z" />
    <glyph glyph-name="asciicircum" unicode="^" horiz-adv-x="1717" 
d="M1627 1852q17 -23 5 -47t-41 -24h-89q-15 0 -24 13l-629 886l-630 -886q-9 -13 -24 -13h-89q-29 0 -41 24t5 47l685 935q9 13 23 13h141q14 0 23 -13z" />
    <glyph glyph-name="underscore" unicode="_" horiz-adv-x="1415" 
d="M33 -165q-14 0 -23.5 9.5t-9.5 23.5v99q0 14 9.5 23.5t23.5 9.5h1348q15 0 24.5 -9.5t9.5 -23.5v-99q0 -14 -9.5 -23.5t-24.5 -9.5h-1348z" />
    <glyph glyph-name="grave" unicode="`" horiz-adv-x="785" 
d="M686 1913l-639 427q-13 7 -16 21t4 24l65 108q8 10 21.5 13t25.5 -4l618 -458q12 -8 15 -22.5t-3 -24.5l-43 -72q-8 -12 -22 -15.5t-26 3.5z" />
    <glyph glyph-name="a" unicode="a" horiz-adv-x="1754" 
d="M1630 56q12 -36 -20 -48l-97 -34q-20 -7 -33 5q-106 161 -146 360q-89 -165 -253 -267t-372 -102q-247 0 -398 140t-151 351q0 200 137.5 338t394.5 183.5t624 -36.5v106q0 121 -20.5 206t-69 146t-131.5 90t-204 29q-140 0 -259 -35t-261 -107q-13 -6 -26 -1t-19 18
l-47 103q-14 32 16 45q163 82 307.5 122t308.5 40q142 0 248.5 -30.5t175 -84t111 -134.5t59.5 -173.5t17 -210.5v-475q0 -124 15.5 -225t34.5 -160t58 -159zM759 145q156 0 286 78t200.5 199t70.5 252v127q-243 56 -420.5 54.5t-293 -55t-171 -136.5t-55.5 -189
q0 -150 107.5 -240t275.5 -90z" />
    <glyph glyph-name="b" unicode="b" horiz-adv-x="2123" 
d="M1093 1708q112 0 219.5 -28t201.5 -80t173 -129.5t135.5 -172.5t88 -212.5t31.5 -246.5t-31.5 -246.5t-88 -212.5t-135.5 -172.5t-173 -129.5t-201.5 -80t-219.5 -28q-218 0 -386 104t-266 288v-329q0 -14 -9.5 -23.5t-23.5 -9.5h-140q-14 0 -23.5 9.5t-9.5 23.5v2494
q0 14 9.5 23.5t23.5 9.5h140q14 0 23.5 -9.5t9.5 -23.5v-1211q98 184 266 288t386 104zM1074 155q132 0 250 48t207.5 134.5t142 216.5t52.5 285t-52.5 285t-142 216.5t-207.5 134.5t-250 48q-110 0 -210.5 -34t-180 -96.5t-139 -146.5t-91.5 -188.5t-32 -218.5t32 -218.5
t91.5 -188.5t139 -146.5t180 -96.5t210.5 -34z" />
    <glyph glyph-name="c" unicode="c" horiz-adv-x="1953" 
d="M1761 458q31 -15 16 -46q-94 -200 -276.5 -321t-448.5 -121q-179 0 -339 62.5t-277.5 174t-186.5 275.5t-69 357t69 357t186.5 275.5t277.5 174t339 62.5q266 0 448.5 -120.5t276.5 -321.5q15 -31 -16 -45l-121 -57q-27 -13 -45 15q-172 344 -531 344q-142 0 -264.5 -48
t-212 -135t-140.5 -216.5t-51 -284.5t51 -284.5t140.5 -216.5t212 -135t264.5 -48q366 0 531 344q18 28 45 15z" />
    <glyph glyph-name="d" unicode="d" horiz-adv-x="2123" 
d="M1855 2560q14 0 23.5 -9.5t9.5 -23.5v-2494q0 -14 -9.5 -23.5t-23.5 -9.5h-140q-14 0 -23.5 9.5t-9.5 23.5v329q-98 -184 -266 -288t-386 -104q-112 0 -219.5 28t-201.5 80t-173 129.5t-135.5 172.5t-88 212.5t-31.5 246.5t31.5 246.5t88 212.5t135.5 172.5t173 129.5
t201.5 80t219.5 28q218 0 386 -104t266 -288v1211q0 14 9.5 23.5t23.5 9.5h140zM1049 155q110 0 210.5 34t180 96.5t139 146.5t91.5 188.5t32 218.5t-32 218.5t-91.5 188.5t-139 146.5t-180 96.5t-210.5 34q-132 0 -250 -48t-207.5 -134.5t-142 -216.5t-52.5 -285t52.5 -285
t142 -216.5t207.5 -134.5t250 -48z" />
    <glyph glyph-name="e" unicode="e" horiz-adv-x="1997" 
d="M1752 448q31 -14 16 -45q-102 -214 -289.5 -323.5t-439.5 -109.5q-140 0 -269.5 39.5t-236.5 115.5t-186 180.5t-123 242t-44 291.5q0 256 113.5 456t305.5 306.5t427 106.5q171 0 314 -54t250 -158.5t167 -270t60 -376.5h-1421v-10q0 -124 34 -233t95 -191t142.5 -141
t179 -89t202.5 -30q386 0 537 334q16 30 45 16zM1026 1533q-227 0 -397.5 -143.5t-217.5 -385.5h1168q-10 132 -57.5 234.5t-122.5 166t-169.5 96t-203.5 32.5z" />
    <glyph glyph-name="f" unicode="f" horiz-adv-x="1360" 
d="M1363 2474q29 -23 13 -51l-47 -86q-15 -29 -51 -10q-145 107 -306 107q-98 0 -170 -34t-113.5 -96t-61 -142t-19.5 -181v-303h654q14 0 23.5 -9.5t9.5 -23.5v-118q0 -15 -9.5 -24t-23.5 -9h-654v-1461q0 -14 -9.5 -23.5t-24.5 -9.5h-139q-15 0 -24.5 9.5t-9.5 23.5v1461
h-268q-14 0 -23.5 9t-9.5 24v118q0 14 9.5 23.5t23.5 9.5h268v323q0 272 148 440t403 168q117 0 229.5 -38.5t181.5 -96.5z" />
    <glyph glyph-name="g" unicode="g" horiz-adv-x="1897" 
d="M1797 1748q16 0 22.5 -6t6.5 -22v-131q0 -27 -27 -27q-86 0 -154.5 -38t-105.5 -109q83 -133 83 -287q0 -118 -50 -224t-138 -184.5t-215 -124.5t-273 -46h-231q-162 0 -242.5 -56t-80.5 -143q0 -194 323 -194h289q387 0 592.5 -136.5t205.5 -382.5q0 -116 -49.5 -213
t-146 -170t-250.5 -114t-352 -41q-197 0 -351 37.5t-251 105t-147 158t-50 198.5q0 140 89 248t244 174q-333 45 -333 310q0 119 84 203.5t254 120.5q-131 79 -204.5 204t-73.5 270q0 159 85.5 291.5t241.5 210.5t352 78q150 0 277.5 -46.5t219.5 -130.5q57 104 152 160.5
t204 56.5zM944 714q199 0 335.5 119t136.5 295t-136.5 295.5t-335.5 119.5q-200 0 -336.5 -119.5t-136.5 -295.5t136.5 -295t336.5 -119zM1605 -376q0 165 -153.5 266t-447.5 101q-174 0 -312 -48t-214 -131.5t-76 -187.5q0 -170 153.5 -270t448.5 -100q296 0 448.5 99.5
t152.5 270.5z" />
    <glyph glyph-name="h" unicode="h" horiz-adv-x="2013" 
d="M1148 1718q161 0 283 -49.5t197 -140.5t112 -214.5t37 -277.5v-1003q0 -14 -9.5 -23.5t-24.5 -9.5h-139q-15 0 -24 9.5t-9 23.5v927q0 574 -482 574q-163 0 -304 -73.5t-231.5 -202t-111.5 -286.5v-939q0 -14 -9.5 -23.5t-24.5 -9.5h-139q-15 0 -24.5 9.5t-9.5 23.5v2494
q0 14 9.5 23.5t24.5 9.5h139q15 0 24.5 -9.5t9.5 -23.5v-1227q42 78 106 149t151.5 133t204.5 99t244 37z" />
    <glyph glyph-name="i" unicode="i" horiz-adv-x="667" 
d="M334 2018q-61 0 -104.5 43.5t-43.5 104.5t43.5 104.5t104.5 43.5t104.5 -43.5t43.5 -104.5t-43.5 -104.5t-104.5 -43.5zM230 1645q0 14 9.5 23.5t24.5 9.5h139q15 0 24 -9.5t9 -23.5v-1612q0 -14 -9 -23.5t-24 -9.5h-139q-15 0 -24.5 9.5t-9.5 23.5v1612z" />
    <glyph glyph-name="j" unicode="j" horiz-adv-x="692" 
d="M360 2314q61 0 104.5 -43.5t43.5 -104.5t-43.5 -104.5t-104.5 -43.5t-104.5 43.5t-43.5 104.5t43.5 104.5t104.5 43.5zM429 1678q15 0 24.5 -9.5t9.5 -23.5v-1869q0 -198 -57 -344.5t-176 -230t-288 -83.5q-38 0 -38 34v103q0 27 32 33q76 5 132.5 32t100 83t65.5 150.5
t22 227.5v1864q0 14 9.5 23.5t24.5 9.5h139z" />
    <glyph glyph-name="k" unicode="k" horiz-adv-x="1759" 
d="M235 2527q0 14 9.5 23.5t24.5 9.5h139q15 0 24.5 -9.5t9.5 -23.5v-2494q0 -14 -9.5 -23.5t-24.5 -9.5h-139q-15 0 -24.5 9.5t-9.5 23.5v2494zM1463 0q-26 0 -45 22l-810 897l766 742q17 17 44 17h167q20 0 25.5 -12t-8.5 -27l-738 -710l784 -888q15 -17 9.5 -29
t-26.5 -12h-168z" />
    <glyph glyph-name="l" unicode="l" horiz-adv-x="677" 
d="M235 2527q0 14 9.5 23.5t24.5 9.5h139q15 0 24.5 -9.5t9.5 -23.5v-2494q0 -14 -9.5 -23.5t-24.5 -9.5h-139q-15 0 -24.5 9.5t-9.5 23.5v2494z" />
    <glyph glyph-name="m" unicode="m" horiz-adv-x="3158" 
d="M2323 1718q154 0 270 -49.5t187.5 -141.5t106.5 -215.5t35 -277.5v-1001q0 -14 -9 -23.5t-24 -9.5h-139q-15 0 -24.5 9.5t-9.5 23.5v927q0 574 -452 574q-115 0 -222 -51t-186 -137t-126.5 -207.5t-47.5 -254.5v-851q0 -14 -9.5 -23.5t-23.5 -9.5h-140q-14 0 -23.5 9.5
t-9.5 23.5v927q0 574 -452 574q-115 0 -222 -51t-186 -137t-126.5 -207t-47.5 -255v404q32 64 73 122t100.5 115.5t127 99t155.5 67.5t184 26q247 0 391 -123t189 -344q41 94 104.5 177t146.5 148.5t189 103.5t221 38zM408 1678q14 0 23.5 -9.5t9.5 -23.5v-1612
q0 -14 -9.5 -23.5t-23.5 -9.5h-140q-14 0 -23.5 9.5t-9.5 23.5v1612q0 14 9.5 23.5t23.5 9.5h140z" />
    <glyph glyph-name="n" unicode="n" 
d="M1154 1718q161 0 283 -49.5t197 -140.5t112 -214.5t37 -277.5v-1003q0 -14 -9.5 -23.5t-24.5 -9.5h-139q-15 0 -24 9.5t-9 23.5v927q0 574 -482 574q-178 0 -328 -86.5t-237.5 -236.5t-87.5 -329v406q32 62 78 121.5t112.5 116t143.5 99t175 68t203 25.5zM408 1678
q14 0 23.5 -9.5t9.5 -23.5v-1612q0 -14 -9.5 -23.5t-23.5 -9.5h-140q-14 0 -23.5 9.5t-9.5 23.5v1612q0 14 9.5 23.5t23.5 9.5h140z" />
    <glyph glyph-name="o" unicode="o" horiz-adv-x="2098" 
d="M1049 1708q140 0 270.5 -39.5t238.5 -115.5t188.5 -180.5t125.5 -242t45 -291.5t-45 -291.5t-125.5 -242t-188.5 -180.5t-238.5 -115.5t-270.5 -39.5t-270.5 39.5t-239 115.5t-189 180.5t-125.5 242t-45 291.5t45 291.5t125.5 242t189 180.5t239 115.5t270.5 39.5z
M1049 155q132 0 250 48t207.5 134.5t142 216.5t52.5 285t-52.5 285t-142 216.5t-207.5 134.5t-250 48q-105 0 -202.5 -30t-179 -89t-142.5 -141t-95 -191t-34 -233t34 -233t95 -191t142.5 -141t179 -89t202.5 -30z" />
    <glyph glyph-name="p" unicode="p" horiz-adv-x="2123" 
d="M1093 1708q112 0 219.5 -28t201.5 -80t173 -129.5t135.5 -172.5t88 -212.5t31.5 -246.5t-31.5 -246.5t-88 -212.5t-135.5 -172.5t-173 -129.5t-201.5 -80t-219.5 -28q-218 0 -386 104t-266 288v-1211q0 -14 -9.5 -23.5t-23.5 -9.5h-140q-14 0 -23.5 9.5t-9.5 23.5v2494
q0 14 9.5 23.5t23.5 9.5h140q14 0 23.5 -9.5t9.5 -23.5v-329q98 184 266 288t386 104zM1074 155q132 0 250 48t207.5 134.5t142 216.5t52.5 285t-52.5 285t-142 216.5t-207.5 134.5t-250 48q-110 0 -210.5 -34t-180 -96.5t-139 -146.5t-91.5 -188.5t-32 -218.5t32 -218.5
t91.5 -188.5t139 -146.5t180 -96.5t210.5 -34z" />
    <glyph glyph-name="q" unicode="q" horiz-adv-x="2123" 
d="M1855 1674q14 0 23.5 -9.5t9.5 -23.5v-2494q0 -14 -9.5 -23.5t-23.5 -9.5h-140q-14 0 -23.5 9.5t-9.5 23.5v1211q-98 -184 -266 -288t-386 -104q-112 0 -219.5 28t-201.5 80t-173 129.5t-135.5 172.5t-88 212.5t-31.5 246.5t31.5 246.5t88 212.5t135.5 172.5t173 129.5
t201.5 80t219.5 28q218 0 386 -104t266 -288v329q0 14 9.5 23.5t23.5 9.5h140zM1049 151q110 0 210.5 34t180 96.5t139 146.5t91.5 188.5t32 218.5t-32 218.5t-91.5 188.5t-139 146.5t-180 96.5t-210.5 34q-132 0 -250 -48t-207.5 -134.5t-142 -216.5t-52.5 -285t52.5 -285
t142 -216.5t207.5 -134.5t250 -48z" />
    <glyph glyph-name="r" unicode="r" horiz-adv-x="1162" 
d="M1026 1716q19 0 27.5 -7.5t8.5 -25.5v-155q0 -28 -34 -34q-78 -6 -159 -37t-157.5 -87t-136.5 -129.5t-96.5 -174t-36.5 -210.5v387q46 121 145 231t218 176t221 66zM235 1645q0 14 9.5 23.5t23.5 9.5h140q14 0 23.5 -9.5t9.5 -23.5v-1612q0 -14 -9.5 -23.5t-23.5 -9.5
h-140q-14 0 -23.5 9.5t-9.5 23.5v1612z" />
    <glyph glyph-name="s" unicode="s" horiz-adv-x="1668" 
d="M435 1247q0 -70 36 -122t97 -84t140 -57t166 -46.5t174 -45t166 -60t140 -85t97 -125.5t36 -177q0 -102 -37.5 -183.5t-100 -135t-147.5 -89.5t-176 -51.5t-190 -15.5q-338 0 -636 188q-28 16 -16 45l48 102q5 15 18 20.5t28 -2.5q143 -87 274.5 -132.5t286.5 -45.5
q67 0 126 7.5t116.5 27.5t98.5 50.5t66 79.5t25 112q0 73 -35.5 128.5t-96 90t-139 61.5t-164.5 49t-172.5 46t-165 59.5t-139 82.5t-96 121t-35.5 170q0 221 173.5 349.5t457.5 128.5q154 0 285 -41t266 -122q30 -16 15 -46l-48 -105q-15 -30 -43 -13q-120 75 -235.5 113.5
t-246.5 38.5q-188 0 -302.5 -77t-114.5 -209z" />
    <glyph glyph-name="t" unicode="t" horiz-adv-x="1525" 
d="M1375 162q15 -30 -15 -51q-197 -141 -423 -141q-497 0 -497 609v915h-307q-14 0 -23.5 9t-9.5 24v118q0 14 9.5 23.5t23.5 9.5h307v370q0 24 34 35l133 39q40 11 40 -26v-418h654q14 0 23.5 -9.5t9.5 -23.5v-118q0 -15 -9.5 -24t-23.5 -9h-654v-896q0 -77 8.5 -139
t30 -120t57 -97.5t92 -63t131.5 -23.5q167 0 314 114q33 21 49 -12z" />
    <glyph glyph-name="u" unicode="u" 
d="M1749 1678q14 0 23.5 -9.5t9.5 -23.5v-1612q0 -14 -9.5 -23.5t-23.5 -9.5h-140q-14 0 -23.5 9.5t-9.5 23.5v357q-32 -62 -78 -121.5t-112.5 -116t-143.5 -99t-175 -68t-203 -25.5q-161 0 -283 49.5t-197 140.5t-112 214.5t-37 277.5v1003q0 14 9.5 23.5t24.5 9.5h139
q15 0 24 -9.5t9 -23.5v-927q0 -574 482 -574q178 0 328 86.5t237.5 236.5t87.5 329v849q0 14 9.5 23.5t23.5 9.5h140z" />
    <glyph glyph-name="v" unicode="v" horiz-adv-x="1722" 
d="M1642 1678q24 0 34.5 -18.5t-1.5 -42.5l-780 -1645q-6 -12 -22 -12h-21q-16 0 -22 12l-784 1645q-11 22 -1 41.5t36 19.5h153q20 0 31 -22l608 -1333l598 1333q11 22 34 22h137z" />
    <glyph glyph-name="w" unicode="w" horiz-adv-x="2643" 
d="M2566 1678q22 0 31.5 -17t0.5 -40l-626 -1649q-6 -12 -22 -12h-22q-15 0 -21 12l-585 1192l-586 -1192q-6 -12 -20 -12h-22q-16 0 -22 12l-627 1649q-9 22 0.5 39.5t32.5 17.5h149q22 0 32 -24l476 -1302l551 1139q9 20 24 20h24q15 0 24 -20l551 -1139l480 1302
q10 24 32 24h145z" />
    <glyph glyph-name="x" unicode="x" horiz-adv-x="1788" 
d="M1677 41q14 -19 8 -30t-25 -11h-183q-26 0 -41 20l-553 679l-542 -677q-17 -22 -45 -22h-167q-20 0 -26.5 11.5t8.5 31.5l651 804l-643 790q-14 19 -8 30t26 11h182q29 0 46 -21l527 -649l526 649q16 21 43 21h171q21 0 26.5 -11t-9.5 -30l-636 -778z" />
    <glyph glyph-name="y" unicode="y" horiz-adv-x="1722" 
d="M1642 1678q24 0 34.5 -18.5t-1.5 -42.5l-744 -1621q-70 -157 -128 -272t-122 -218.5t-125.5 -172t-132 -119t-148 -73.5t-167.5 -23q-37 0 -37 34v103q0 30 31 33q182 9 332 194.5t356 645.5l-743 1489q-13 24 -2.5 42.5t36.5 18.5h151q20 0 31 -22l624 -1311l588 1311
q9 22 34 22h133z" />
    <glyph glyph-name="z" unicode="z" horiz-adv-x="1878" 
d="M179 0q-15 0 -24.5 8.5t-9.5 21.5v10q0 22 14 41l1135 1413h-1036q-13 0 -23 10t-10 23v118q0 13 10 23t23 10h1351q33 0 33 -27v-12q0 -22 -14 -42l-1136 -1412h1137q13 0 23 -10.5t10 -23.5v-118q0 -13 -10 -23t-23 -10h-1450z" />
    <glyph glyph-name="braceleft" unicode="{" horiz-adv-x="957" 
d="M785 2421q-139 -12 -207.5 -87.5t-68.5 -238.5q0 -77 36 -332t35 -348q-1 -191 -61.5 -302.5t-186.5 -156.5q126 -46 186.5 -157.5t61.5 -301.5q1 -93 -35 -348.5t-36 -332.5q0 -162 68.5 -238t207.5 -88q12 -2 19.5 -9.5t7.5 -18.5v-75q0 -13 -8.5 -21.5t-21.5 -8.5
q-212 4 -328.5 115t-116.5 331q0 80 35.5 339t35.5 352q0 356 -236 401q-27 5 -27 29v63q0 11 7.5 19.5t19.5 9.5q236 39 236 401q0 94 -35.5 352.5t-35.5 338.5q0 220 116.5 331t328.5 115q13 0 21.5 -8.5t8.5 -21.5v-75q0 -11 -7.5 -18.5t-19.5 -9.5z" />
    <glyph glyph-name="bar" unicode="|" horiz-adv-x="638" 
d="M235 2907q0 13 10.5 23t23.5 10h100q13 0 23 -10t10 -23v-3322q0 -14 -10 -24t-23 -10h-100q-13 0 -23.5 10.5t-10.5 23.5v3322z" />
    <glyph glyph-name="braceright" unicode="}" horiz-adv-x="957" 
d="M785 1016q12 -1 19.5 -9.5t7.5 -19.5v-63q0 -24 -27 -29q-236 -45 -236 -401q0 -93 35.5 -352t35.5 -339q0 -220 -116.5 -331t-328.5 -115q-13 0 -21.5 8.5t-8.5 21.5v75q0 11 7.5 18.5t19.5 9.5q139 12 207.5 88t68.5 238q0 77 -36 332.5t-35 348.5q1 190 61.5 301.5
t186.5 157.5q-126 45 -186.5 156.5t-61.5 302.5q-1 93 35 348t36 332q0 163 -68.5 238.5t-207.5 87.5q-12 2 -19.5 9.5t-7.5 18.5v75q0 13 8.5 21.5t21.5 8.5q212 -4 328.5 -115t116.5 -331q0 -80 -35.5 -338.5t-35.5 -352.5q0 -362 236 -401z" />
    <glyph glyph-name="asciitilde" unicode="~" horiz-adv-x="2206" 
d="M1969 1231q24 -12 14 -37q-58 -169 -190.5 -271.5t-289.5 -102.5q-102 0 -194.5 28.5t-162 69.5t-136.5 82t-146 69.5t-161 28.5q-119 0 -216.5 -71.5t-143.5 -173.5q-8 -15 -21.5 -19.5t-27.5 2.5l-57 31q-23 13 -15 38q59 168 191.5 270.5t289.5 102.5
q86 0 166.5 -20.5t138.5 -51.5t120.5 -67t115.5 -67t121 -51.5t138 -20.5q119 0 216.5 71.5t142.5 174.5q19 33 50 16z" />
    <glyph glyph-name="exclamdown" unicode="&#xa1;" horiz-adv-x="756" 
d="M378 1708q61 0 104.5 -43.5t43.5 -104.5t-43.5 -104.5t-104.5 -43.5t-104.5 43.5t-43.5 104.5t43.5 104.5t104.5 43.5zM275 -729l27 1750q1 15 10 24.5t24 9.5h85q15 0 24 -9.5t9 -24.5l27 -1750q1 -14 -8.5 -23.5t-24.5 -9.5h-139q-15 0 -24.5 9.5t-9.5 23.5z" />
    <glyph glyph-name="cent" unicode="&#xa2;" horiz-adv-x="1953" 
d="M1761 458q31 -15 16 -46q-87 -186 -252 -305t-402 -135v-400q0 -13 -10 -23.5t-23 -10.5h-98q-13 0 -23.5 10.5t-10.5 23.5v402q-164 16 -306 85t-247 179t-165 265.5t-60 335.5t60.5 335.5t165.5 266t247 179t306 84.5v368q0 13 10 23t23 10h98q13 0 23 -10t10 -23v-366
q238 -16 402.5 -134.5t251.5 -305.5q15 -31 -16 -45l-121 -57q-27 -13 -45 15q-172 344 -531 344q-142 0 -264.5 -48t-212 -135t-140.5 -216.5t-51 -284.5t51 -284.5t140.5 -216.5t212 -135t264.5 -48q366 0 531 344q18 28 45 15z" />
    <glyph glyph-name="sterling" unicode="&#xa3;" horiz-adv-x="2188" 
d="M1992 197q21 6 36 -4.5t15 -31.5v-116q0 -25 -31 -32q-131 -40 -264.5 -53.5t-248.5 -4.5t-230 26.5t-225.5 35.5t-217 27t-222.5 -3t-226 -50q-13 -5 -25 -0.5t-17 15.5l-44 104q-6 13 4 28q100 171 160 313t80.5 257t18.5 202.5t-22 183.5h-354q-14 0 -24 10t-10 24v97
q0 14 10 24t24 10h312q-29 104 -44 162.5t-30.5 166.5t-15.5 214q0 114 31 214.5t94 183.5t153.5 143.5t215 93.5t272.5 33q140 0 264.5 -29.5t226 -85t180.5 -118t157 -144.5l2 -2q10 -10 13.5 -15t6.5 -15t-6 -16l-80 -90q-9 -11 -15 -16t-16.5 -4.5t-21.5 11.5
q-70 75 -139 131.5t-154 106t-185.5 75.5t-209.5 26q-269 0 -421 -135.5t-152 -366.5q0 -43 2.5 -83t9.5 -85.5t11 -72t17.5 -78t17 -65.5t20 -74t18.5 -66h798q14 0 23.5 -10t9.5 -24v-97q0 -14 -9.5 -24t-23.5 -10h-758q14 -77 17.5 -147.5t-8 -158.5t-41.5 -178.5
t-87 -202.5t-139 -234q101 35 212 46.5t213.5 3t209.5 -24.5l214 -32t211.5 -23.5t218 5t218.5 49.5z" />
    <glyph glyph-name="currency" unicode="&#xa4;" horiz-adv-x="2800" 
d="M2567 0q13 -10 14 -25.5t-10 -27.5l-83 -84q-11 -12 -27 -11t-26 14l-335 378q-141 -129 -322 -201t-378 -72h-1q-197 0 -378 72t-322 201l-335 -378q-10 -13 -26 -14t-27 11l-83 84q-11 12 -10 27.5t14 25.5l381 333q-120 139 -186.5 312.5t-66.5 363.5v1
q0 190 66.5 363.5t186.5 312.5l-381 333q-13 10 -14 25.5t10 27.5l83 84q11 12 27 11t26 -14l335 -378q141 129 322 201t378 72h1q197 0 378 -72t322 -201l335 378q10 13 26 14t27 -11l83 -84q11 -12 10 -27.5t-14 -25.5l-381 -333q120 -139 186.5 -312.5t66.5 -363.5v-1
q0 -190 -66.5 -363.5t-186.5 -312.5zM1400 147q173 0 328.5 67t268.5 181t179 274.5t66 340.5q0 179 -66 339.5t-179 274.5t-268.5 181t-328.5 67q-231 0 -424.5 -113t-306 -311.5t-112.5 -437.5q0 -180 66 -340.5t179 -274.5t269 -181t329 -67z" />
    <glyph glyph-name="yen" unicode="&#xa5;" horiz-adv-x="2318" 
d="M2205 2440q20 0 29 -11t-1 -28l-872 -1373h381q15 0 24 -9.5t9 -23.5v-74q0 -15 -9 -24.5t-24 -9.5h-471l-8 -13v-295h479q15 0 24 -9.5t9 -23.5v-74q0 -15 -9 -24.5t-24 -9.5h-479v-405q0 -13 -10.5 -23t-23.5 -10h-149q-13 0 -23 10t-10 23v405h-489q-15 0 -24.5 9.5
t-9.5 24.5v74q0 14 9.5 23.5t24.5 9.5h489v284l-15 24h-474q-15 0 -24.5 9.5t-9.5 24.5v74q0 14 9.5 23.5t24.5 9.5h384l-876 1373q-9 17 -1 28t26 11h179q24 0 39 -26l849 -1351l847 1351q15 26 40 26h160z" />
    <glyph glyph-name="brokenbar" unicode="&#xa6;" horiz-adv-x="638" 
d="M235 2907q0 13 10.5 23t23.5 10h100q13 0 23 -10t10 -23v-1074q0 -13 -10 -23t-23 -10h-100q-13 0 -23.5 10t-10.5 23v1074zM235 658q0 13 10.5 23t23.5 10h100q13 0 23 -10t10 -23v-1073q0 -14 -10 -24t-23 -10h-100q-13 0 -23.5 10.5t-10.5 23.5v1073z" />
    <glyph glyph-name="section" unicode="&#xa7;" horiz-adv-x="2214" 
d="M1816 235q197 -171 197 -439q0 -233 -112 -404.5t-315 -261.5t-472 -90q-389 0 -623 187t-290 531q-3 18 7.5 30t27.5 12h140q24 0 31 -25q101 -561 707 -561q326 0 504.5 156.5t178.5 425.5q0 99 -43 182.5t-95 136t-165 110t-180.5 84t-214.5 78.5q-114 41 -172.5 63
t-161.5 67.5t-155 81.5t-126 97.5t-104 122.5t-59 149t-20 185t41 223.5t97 270.5q-194 171 -194 437q0 232 111.5 404.5t309.5 262t458 89.5q373 0 595 -186.5t278 -531.5q3 -18 -7.5 -30t-28.5 -12h-139q-24 0 -31 25q-50 273 -210.5 416.5t-456.5 143.5
q-312 0 -487.5 -156.5t-175.5 -424.5q0 -72 23 -135.5t51 -109.5t92.5 -94.5t106 -75.5t137 -68t139 -57.5t154.5 -56.5q115 -42 173 -64t161.5 -68.5t155.5 -82.5t125.5 -97t103 -121.5t57.5 -148t18.5 -183.5t-43 -220.5t-99.5 -266.5zM575 1551q-53 -136 -70.5 -251.5
t-4 -202t55 -161t100 -127t138.5 -100.5t164 -82.5t182 -71.5t186 -67.5t184 -72t169 -83.5q52 136 69 251.5t3 202.5t-55.5 161t-100.5 127t-138.5 100.5t-163 81.5t-181.5 71t-186 67.5t-183.5 72t-167.5 84.5z" />
    <glyph glyph-name="dieresis" unicode="&#xa8;" horiz-adv-x="1014" 
d="M158 2019q-59 0 -101.5 42.5t-42.5 101.5t42.5 102t101.5 43t102 -43t43 -102t-43 -101.5t-102 -42.5zM859 2019q-59 0 -101.5 42.5t-42.5 101.5t42.5 102t101.5 43t102 -43t43 -102t-43 -101.5t-102 -42.5z" />
    <glyph glyph-name="copyright" unicode="&#xa9;" horiz-adv-x="2881" 
d="M1440 2460q169 0 330 -44.5t297 -124.5t250 -194.5t194 -250.5t124.5 -296.5t44.5 -329.5q0 -253 -98 -482.5t-264 -395.5t-395.5 -264t-482.5 -98t-482.5 98t-395.5 264t-264 395.5t-98 482.5q0 169 44.5 329.5t124.5 296.5t194 250.5t250 194.5t297 124.5t330 44.5z
M1440 61q235 0 449 91.5t368.5 247t246 370t91.5 450.5t-91.5 451t-246 370t-368.5 247t-449 92t-448.5 -92t-368 -247t-246 -370t-91.5 -451q0 -158 41.5 -308.5t116 -277.5t181 -234t233 -181.5t276 -116t306.5 -41.5zM1466 1868q-127 0 -238 -47t-192.5 -131t-128.5 -206
t-47 -265t47 -265t128.5 -206t192.5 -131t238 -47q340 0 504 325q9 19 29 11l69 -33q20 -10 10 -29q-194 -387 -612 -387q-117 0 -227 33.5t-203 99.5t-163.5 157t-110 212.5t-39.5 259.5q0 171 61 316t164 241.5t237.5 150.5t280.5 54q418 0 612 -387q10 -21 -10 -29
l-69 -33q-19 -10 -29 11q-165 325 -504 325z" />
    <glyph glyph-name="guillemotleft" unicode="&#xab;" horiz-adv-x="1885" 
d="M956 421q10 -8 10 -20v-85q0 -25 -19.5 -34.5t-40.5 5.5l-675 505q-11 8 -11 21v109q0 13 11 21l675 505q21 15 40.5 5.5t19.5 -34.5v-85q0 -12 -10 -20l-572 -447zM1664 1334q0 -12 -10 -20l-572 -447l572 -446q10 -8 10 -20v-85q0 -25 -19.5 -34.5t-40.5 5.5l-675 505
q-11 8 -11 21v109q0 13 11 21l675 505q21 15 40.5 5.5t19.5 -34.5v-85z" />
    <glyph glyph-name="logicalnot" unicode="&#xac;" horiz-adv-x="2056" 
d="M1802 1148q14 0 23.5 -9.5t9.5 -23.5v-99v-431q0 -15 -9.5 -24.5t-23.5 -9.5h-115q-15 0 -24.5 9.5t-9.5 24.5v398h-1399q-15 0 -24.5 9.5t-9.5 23.5v99q0 14 9.5 23.5t24.5 9.5h1548z" />
    <glyph glyph-name="registered" unicode="&#xae;" horiz-adv-x="2881" 
d="M1440 2460q169 0 330 -44.5t297 -124.5t250 -194.5t194 -250.5t124.5 -296.5t44.5 -329.5q0 -253 -98 -482.5t-264 -395.5t-395.5 -264t-482.5 -98t-482.5 98t-395.5 264t-264 395.5t-98 482.5q0 169 44.5 329.5t124.5 296.5t194 250.5t250 194.5t297 124.5t330 44.5z
M1440 61q235 0 449 91.5t368.5 247t246 370t91.5 450.5t-91.5 451t-246 370t-368.5 247t-449 92t-448.5 -92t-368 -247t-246 -370t-91.5 -451q0 -158 41.5 -308.5t116 -277.5t181 -234t233 -181.5t276 -116t306.5 -41.5zM1681 1079l377 -563q10 -15 3 -28t-24 -13h-92
q-11 0 -19 11l-381 577q-14 -1 -42 -1h-404v-567q0 -7 -6.5 -13.5t-13.5 -6.5h-92q-7 0 -13.5 6.5t-6.5 13.5v1448q0 7 6.5 13.5t13.5 6.5h92h424q140 0 249 -35.5t176 -97.5t101 -142.5t34 -175.5q0 -161 -96.5 -278t-285.5 -155zM1479 1174q120 0 208.5 26t139 73.5
t74.5 106.5t24 132t-24 132t-74.5 106.5t-139 73.5t-208.5 26h-380v-676h380z" />
    <glyph glyph-name="macron" unicode="&#xaf;" horiz-adv-x="1038" 
d="M-20 2209q0 13 10 23.5t24 10.5h1010q14 0 24 -10.5t10 -23.5v-86q0 -13 -10 -23.5t-24 -10.5h-1010q-14 0 -24 10.5t-10 23.5v86z" />
    <glyph glyph-name="degree" unicode="&#xb0;" horiz-adv-x="923" 
d="M452 1748q-162 0 -277 113.5t-115 275.5t115 276.5t277 114.5q161 0 276 -114.5t115 -276.5t-114.5 -275.5t-276.5 -113.5zM452 1896q102 0 171 70.5t69 170.5q0 103 -69 174t-171 71t-171 -71t-69 -174q0 -100 69 -170.5t171 -70.5z" />
    <glyph glyph-name="plusminus" unicode="&#xb1;" horiz-adv-x="2056" 
d="M1802 1220q14 0 23.5 -9.5t9.5 -23.5v-99q0 -14 -9.5 -23.5t-23.5 -9.5h-692v-692q0 -14 -9.5 -23.5t-23.5 -9.5h-99q-14 0 -23.5 9.5t-9.5 23.5v692h-691q-15 0 -24.5 9.5t-9.5 23.5v99q0 14 9.5 23.5t24.5 9.5h691v691q0 15 9.5 24.5t23.5 9.5h99q14 0 23.5 -9.5
t9.5 -24.5v-691h692zM1802 165q14 0 23.5 -9.5t9.5 -23.5v-99q0 -14 -9.5 -23.5t-23.5 -9.5h-1548q-15 0 -24.5 9.5t-9.5 23.5v99q0 14 9.5 23.5t24.5 9.5h1548z" />
    <glyph glyph-name="acute" unicode="&#xb4;" horiz-adv-x="785" 
d="M99 1913q-12 -7 -26 -3.5t-22 15.5l-43 72q-6 10 -3 24.5t15 22.5l618 458q12 7 25.5 4t21.5 -13l65 -108q7 -10 4 -24t-16 -21z" />
    <glyph glyph-name="paragraph" unicode="&#xb6;" horiz-adv-x="2210" 
d="M1941 2440q13 0 23 -10t10 -23v-2822q0 -14 -10 -24t-23 -10h-42q-13 0 -23 10.5t-10 23.5v2753h-841v-2753q0 -14 -10 -24t-23 -10h-42q-13 0 -23 10.5t-10 23.5v1356q-197 8 -361.5 110t-260 271t-95.5 368q0 153 59.5 291.5t160 239t239 160t291.5 59.5h949h42z" />
    <glyph glyph-name="periodcentered" unicode="&#xb7;" horiz-adv-x="756" 
d="M378 721q-61 0 -104.5 43.5t-43.5 104.5t43.5 104.5t104.5 43.5t104.5 -43.5t43.5 -104.5t-43.5 -104.5t-104.5 -43.5z" />
    <glyph glyph-name="cedilla" unicode="&#xb8;" horiz-adv-x="1533" 
d="M332 -839q-182 0 -314 84q-28 20 -14 47l18 38q14 30 47 15q70 -34 127.5 -51t127.5 -17q102 0 165.5 53.5t63.5 147.5q0 72 -37 116.5t-101 59t-141 9.5t-166 -28q-23 -5 -31 3.5t0 31.5l125 355h128l-96 -272q94 26 180.5 18t152 -39t104.5 -95t39 -151
q0 -148 -108.5 -236.5t-269.5 -88.5z" />
    <glyph glyph-name="guillemotright" unicode="&#xbb;" horiz-adv-x="1885" 
d="M967 813q0 -13 -11 -21l-675 -505q-21 -15 -40.5 -5.5t-19.5 34.5v85q0 12 10 20l572 446l-572 447q-10 8 -10 20v85q0 25 19.5 34.5t40.5 -5.5l675 -505q11 -8 11 -21v-109zM1654 943q11 -8 11 -21v-109q0 -13 -11 -21l-675 -505q-21 -15 -40.5 -5.5t-19.5 34.5v85
q0 12 10 20l572 446l-572 447q-10 8 -10 20v85q0 25 19.5 34.5t40.5 -5.5z" />
    <glyph glyph-name="onequarter" unicode="&#xbc;" horiz-adv-x="3559" 
d="M2186 2454q5 12 18.5 17t25.5 -1l73 -34q12 -5 17 -18.5t0 -25.5l-1235 -2648q-6 -13 -19.5 -17.5t-25.5 0.5l-73 34q-12 6 -17 19.5t1 24.5zM789 2397q8 0 14.5 -6.5t6.5 -14.5v-1561q0 -8 -6.5 -15t-14.5 -7h-99q-8 0 -15 7t-7 15v1437l-308 -160q-9 -4 -18 -1t-14 12
l-30 67q-10 19 9 29l370 192q13 6 29 6h83zM3392 508q9 0 15.5 -6t6.5 -15v-78q0 -10 -6.5 -16t-15.5 -6h-251v-365q0 -8 -6.5 -15t-14.5 -7h-98q-9 0 -16 7t-7 15v365h-854q-10 0 -16.5 6t-6.5 16v71q0 7 5 12l878 1099q10 13 29 13h86q8 0 14.5 -6.5t6.5 -14.5v-1075h251z
M2297 508h702v886z" />
    <glyph glyph-name="onehalf" unicode="&#xbd;" horiz-adv-x="3571" 
d="M2303 2436q12 -5 17 -18.5t0 -25.5l-1235 -2648q-6 -13 -19.5 -17.5t-25.5 0.5l-73 34q-12 6 -17 19.5t1 24.5l1235 2649q5 12 18.5 17t25.5 -1zM789 2397q8 0 14.5 -6.5t6.5 -14.5v-1561q0 -8 -6.5 -15t-14.5 -7h-99q-8 0 -15 7t-7 15v1437l-308 -160q-9 -4 -18 -1
t-14 12l-30 67q-10 19 9 29l370 192q13 6 29 6h83zM3404 115q9 0 15.5 -7t6.5 -16v-77q0 -8 -6.5 -15t-15.5 -7h-1069q-22 0 -22 22v25q0 20 9 27q495 392 701.5 643.5t206.5 458.5q0 154 -89.5 240t-263.5 86q-138 0 -247 -60t-206 -163q-14 -9 -19.5 -7t-15.5 13l-52 60
q-2 2 -3.5 4.5t-1 5t1 4t2.5 4.5l3 4.5t4 4.5l4 4q109 115 239 181.5t306 66.5q238 0 359 -120.5t121 -315.5q0 -100 -33.5 -198.5t-95 -195t-163.5 -206.5t-223.5 -219t-290.5 -247h838z" />
    <glyph glyph-name="threequarters" unicode="&#xbe;" horiz-adv-x="3863" 
d="M2435 2454q5 12 18.5 17t25.5 -1l73 -34q12 -5 17 -18.5t0 -25.5l-1235 -2648q-6 -13 -19.5 -17.5t-25.5 0.5l-73 34q-12 6 -17 19.5t1 24.5zM935 1620q406 -74 406 -410q0 -202 -151.5 -319.5t-413.5 -117.5q-102 0 -191 19.5t-160 56.5t-125 78t-105 94q-20 20 -11 32
l56 65q11 12 17.5 14t17.5 -8q102 -106 220 -167.5t278 -61.5q196 0 311 83t115 233q0 74 -27 133.5t-87.5 109.5t-169 78.5t-258.5 30.5q-23 2 -23 22v56q0 10 6.5 16.5t15.5 6.5q130 2 228.5 30t155.5 75.5t85 105t28 124.5q0 142 -91.5 219t-272.5 77q-137 0 -242 -51.5
t-206 -147.5q-13 -9 -19 -7.5t-16 12.5l-49 59q-11 13 10 32q232 225 539 225q124 0 219 -31t152.5 -86t86 -126.5t28.5 -156.5q0 -139 -91.5 -244.5t-265.5 -152.5zM3641 508q9 0 15.5 -6t6.5 -15v-78q0 -10 -6.5 -16t-15.5 -6h-251v-365q0 -8 -6.5 -15t-14.5 -7h-98
q-9 0 -16 7t-7 15v365h-854q-10 0 -16.5 6t-6.5 16v71q0 7 5 12l878 1099q10 13 29 13h86q8 0 14.5 -6.5t6.5 -14.5v-1075h251zM2546 508h702v886z" />
    <glyph glyph-name="questiondown" unicode="&#xbf;" horiz-adv-x="1611" 
d="M823 1708q61 0 104.5 -43.5t43.5 -104.5t-43.5 -104.5t-104.5 -43.5t-104.5 43.5t-43.5 104.5t43.5 104.5t104.5 43.5zM276 -173q0 -220 125.5 -327t377.5 -107q190 0 337 69t282 194q12 11 22 11.5t16 -4.5t15 -15l74 -87q9 -7 5.5 -18t-7.5 -16t-14 -14
q-325 -305 -753 -305q-335 0 -515.5 149.5t-180.5 434.5q0 94 23.5 177.5t63 148.5t91 125t108 113.5l113 107t108 113.5t91 124.5t63 148t23.5 177.5q0 12 8.5 20t19.5 8l101 -1q12 0 20 -11.5t8 -29.5q0 -121 -34.5 -227.5t-89.5 -186t-122 -153.5t-133.5 -142.5
t-121.5 -138t-89.5 -156.5t-34.5 -182z" />
    <glyph glyph-name="Agrave" unicode="&#xc0;" horiz-adv-x="2476" 
d="M660 3102q-13 7 -16 21t4 24l65 108q8 10 21.5 13t25.5 -4l618 -458q12 -8 15 -22.5t-3 -24.5l-43 -72q-8 -12 -22 -15.5t-26 3.5zM2392 39q8 -19 0.5 -29t-26.5 -10h-177q-29 0 -39 26l-320 740h-1206l-335 -740q-12 -26 -39 -26h-158q-19 0 -27.5 10.5t-0.5 28.5
l1114 2415q12 26 39 26h55q28 0 40 -26zM704 941h1050l-513 1186z" />
    <glyph glyph-name="Aacute" unicode="&#xc1;" horiz-adv-x="2476" 
d="M1095 2687l-43 72q-6 10 -3 24.5t15 22.5l618 458q12 7 25.5 4t21.5 -13l65 -108q7 -10 4 -24t-16 -21l-639 -427q-12 -7 -26 -3.5t-22 15.5zM2392 39q8 -19 0.5 -29t-26.5 -10h-177q-29 0 -39 26l-320 740h-1206l-335 -740q-12 -26 -39 -26h-158q-19 0 -27.5 10.5
t-0.5 28.5l1114 2415q12 26 39 26h55q28 0 40 -26zM704 941h1050l-513 1186z" />
    <glyph glyph-name="Acircumflex" unicode="&#xc2;" horiz-adv-x="2476" 
d="M737 2681q-22 0 -28 11.5t10 27.5l422 464q18 18 45 18h102q28 0 46 -18l422 -464q15 -16 9.5 -27.5t-27.5 -11.5h-151q-27 0 -45 19l-305 349l-304 -349q-18 -19 -43 -19h-153zM2392 39q8 -19 0.5 -29t-26.5 -10h-177q-29 0 -39 26l-320 740h-1206l-335 -740
q-12 -26 -39 -26h-158q-19 0 -27.5 10.5t-0.5 28.5l1114 2415q12 26 39 26h55q28 0 40 -26zM704 941h1050l-513 1186z" />
    <glyph glyph-name="Atilde" unicode="&#xc3;" horiz-adv-x="2476" 
d="M702 2723q-15 0 -23.5 9.5t-7.5 25.5q7 196 96 291.5t227 95.5q53 0 99.5 -15t79.5 -38.5t63 -52.5t57.5 -57.5t55 -52t62.5 -38.5t74 -15q95 0 145.5 60.5t53.5 175.5q3 33 36 33h57q15 0 23.5 -15t7.5 -40q-11 -186 -100 -276.5t-223 -90.5q-62 0 -114.5 20t-87 50
t-70 65.5t-64.5 65.5t-69.5 50t-85.5 20q-94 0 -145 -62t-54 -176q-3 -33 -36 -33h-57zM2392 39q8 -19 0.5 -29t-26.5 -10h-177q-29 0 -39 26l-320 740h-1206l-335 -740q-12 -26 -39 -26h-158q-19 0 -27.5 10.5t-0.5 28.5l1114 2415q12 26 39 26h55q28 0 40 -26zM704 941
h1050l-513 1186z" />
    <glyph glyph-name="Adieresis" unicode="&#xc4;" horiz-adv-x="2476" 
d="M890 2781q-59 0 -101.5 42.5t-42.5 101.5t42.5 102t101.5 43t102 -43t43 -102t-43 -101.5t-102 -42.5zM1591 2781q-59 0 -101.5 42.5t-42.5 101.5t42.5 102t101.5 43t102 -43t43 -102t-43 -101.5t-102 -42.5zM2392 39q8 -19 0.5 -29t-26.5 -10h-177q-29 0 -39 26
l-320 740h-1206l-335 -740q-12 -26 -39 -26h-158q-19 0 -27.5 10.5t-0.5 28.5l1114 2415q12 26 39 26h55q28 0 40 -26zM704 941h1050l-513 1186z" />
    <glyph glyph-name="Aring" unicode="&#xc5;" horiz-adv-x="2476" 
d="M2392 39q8 -19 0.5 -29t-26.5 -10h-177q-29 0 -39 26l-320 740h-1206l-335 -740q-12 -26 -39 -26h-158q-19 0 -27.5 10.5t-0.5 28.5l1096 2375q-133 30 -220 136t-87 245q0 161 115 276t277 115q161 0 276 -115t115 -276q0 -139 -87 -245t-219 -136zM981 2795
q0 -110 76 -188t188 -78q111 0 187 78t76 188q0 112 -75.5 190.5t-187.5 78.5t-188 -78.5t-76 -190.5zM704 941h1050l-513 1186z" />
    <glyph glyph-name="AE" unicode="&#xc6;" horiz-adv-x="3475" 
d="M3252 185q15 0 24.5 -9.5t9.5 -24.5v-118q0 -14 -9.5 -23.5t-24.5 -9.5h-1599h-91q-13 0 -23 10t-10 23v733h-792l-437 -747q-12 -19 -39 -19h-165q-19 0 -30.5 14t-0.5 32l1400 2375q11 19 39 19h67h141h1500q15 0 24.5 -9.5t9.5 -23.5v-118q0 -15 -9.5 -24.5
t-24.5 -9.5h-1467v-896h1307q15 0 24.5 -9.5t9.5 -24.5v-118q0 -14 -9.5 -23.5t-24.5 -9.5h-1307v-989h1507zM839 941h690v1180z" />
    <glyph glyph-name="Ccedilla" unicode="&#xc7;" horiz-adv-x="2609" 
d="M2408 652q32 -14 16 -47q-305 -610 -951 -634l-77 -218q94 26 180.5 18t152 -39t104.5 -95t39 -151q0 -148 -108.5 -236.5t-269.5 -88.5q-182 0 -314 84q-28 20 -14 47l18 38q14 30 47 15q70 -34 127.5 -51t127.5 -17q102 0 165.5 53.5t63.5 147.5q0 72 -37 116.5
t-101 59t-141 9.5t-166 -28q-23 -5 -31 3.5t0 31.5l106 302q-183 11 -353 72t-313.5 170.5t-250 256t-167 339.5t-60.5 410q0 225 65 424.5t180 349t268 257.5t333.5 163.5t372.5 55.5q686 0 1004 -635q16 -33 -16 -47l-114 -55q-32 -14 -47 18q-270 534 -827 534
q-207 0 -389.5 -77.5t-316 -215t-210.5 -338t-77 -434.5t77 -434.5t210.5 -338t316 -215t389.5 -77.5q557 0 827 534q15 32 47 18z" />
    <glyph glyph-name="Egrave" unicode="&#xc8;" horiz-adv-x="2187" 
d="M537 3102q-13 7 -16 21t4 24l65 108q8 10 21.5 13t25.5 -4l618 -458q12 -8 15 -22.5t-3 -24.5l-43 -72q-8 -12 -22 -15.5t-26 3.5zM1958 185q15 0 24.5 -9.5t9.5 -24.5v-118q0 -14 -9.5 -23.5t-24.5 -9.5h-1599h-91q-13 0 -23 10t-10 23v2374q0 13 10 23t23 10h150h1500
q15 0 24.5 -9.5t9.5 -23.5v-118q0 -15 -9.5 -24.5t-24.5 -9.5h-1467v-896h1307q15 0 24.5 -9.5t9.5 -24.5v-118q0 -14 -9.5 -23.5t-24.5 -9.5h-1307v-989h1507z" />
    <glyph glyph-name="Eacute" unicode="&#xc9;" horiz-adv-x="2187" 
d="M972 2687l-43 72q-6 10 -3 24.5t15 22.5l618 458q12 7 25.5 4t21.5 -13l65 -108q7 -10 4 -24t-16 -21l-639 -427q-12 -7 -26 -3.5t-22 15.5zM1958 185q15 0 24.5 -9.5t9.5 -24.5v-118q0 -14 -9.5 -23.5t-24.5 -9.5h-1599h-91q-13 0 -23 10t-10 23v2374q0 13 10 23t23 10
h150h1500q15 0 24.5 -9.5t9.5 -23.5v-118q0 -15 -9.5 -24.5t-24.5 -9.5h-1467v-896h1307q15 0 24.5 -9.5t9.5 -24.5v-118q0 -14 -9.5 -23.5t-24.5 -9.5h-1307v-989h1507z" />
    <glyph glyph-name="Ecircumflex" unicode="&#xca;" horiz-adv-x="2187" 
d="M614 2681q-22 0 -28 11.5t10 27.5l422 464q18 18 45 18h102q28 0 46 -18l422 -464q15 -16 9.5 -27.5t-27.5 -11.5h-151q-27 0 -45 19l-305 349l-304 -349q-18 -19 -43 -19h-153zM1958 185q15 0 24.5 -9.5t9.5 -24.5v-118q0 -14 -9.5 -23.5t-24.5 -9.5h-1599h-91
q-13 0 -23 10t-10 23v2374q0 13 10 23t23 10h150h1500q15 0 24.5 -9.5t9.5 -23.5v-118q0 -15 -9.5 -24.5t-24.5 -9.5h-1467v-896h1307q15 0 24.5 -9.5t9.5 -24.5v-118q0 -14 -9.5 -23.5t-24.5 -9.5h-1307v-989h1507z" />
    <glyph glyph-name="Edieresis" unicode="&#xcb;" horiz-adv-x="2187" 
d="M767 2781q-59 0 -101.5 42.5t-42.5 101.5t42.5 102t101.5 43t102 -43t43 -102t-43 -101.5t-102 -42.5zM1468 2781q-59 0 -101.5 42.5t-42.5 101.5t42.5 102t101.5 43t102 -43t43 -102t-43 -101.5t-102 -42.5zM1958 185q15 0 24.5 -9.5t9.5 -24.5v-118q0 -14 -9.5 -23.5
t-24.5 -9.5h-1599h-91q-13 0 -23 10t-10 23v2374q0 13 10 23t23 10h150h1500q15 0 24.5 -9.5t9.5 -23.5v-118q0 -15 -9.5 -24.5t-24.5 -9.5h-1467v-896h1307q15 0 24.5 -9.5t9.5 -24.5v-118q0 -14 -9.5 -23.5t-24.5 -9.5h-1307v-989h1507z" />
    <glyph glyph-name="Igrave" unicode="&#xcc;" horiz-adv-x="687" 
d="M403 2675l-639 427q-13 7 -16 21t4 24l65 108q8 10 21.5 13t25.5 -4l618 -458q12 -8 15 -22.5t-3 -24.5l-43 -72q-8 -12 -22 -15.5t-26 3.5zM235 2407q0 13 10.5 23t23.5 10h149q13 0 23 -10t10 -23v-2374q0 -13 -10 -23t-23 -10h-149q-13 0 -23.5 10t-10.5 23v2374z" />
    <glyph glyph-name="Iacute" unicode="&#xcd;" horiz-adv-x="687" 
d="M247 2675q-12 -7 -26 -3.5t-22 15.5l-43 72q-6 10 -3 24.5t15 22.5l618 458q12 7 25.5 4t21.5 -13l65 -108q7 -10 4 -24t-16 -21zM235 2407q0 13 10.5 23t23.5 10h149q13 0 23 -10t10 -23v-2374q0 -13 -10 -23t-23 -10h-149q-13 0 -23.5 10t-10.5 23v2374z" />
    <glyph glyph-name="Icircumflex" unicode="&#xce;" horiz-adv-x="687" 
d="M646 2700l-305 349l-304 -349q-18 -19 -43 -19h-153q-22 0 -28 11.5t10 27.5l422 464q18 18 45 18h102q28 0 46 -18l422 -464q15 -16 9.5 -27.5t-27.5 -11.5h-151q-27 0 -45 19zM235 2407q0 13 10.5 23t23.5 10h149q13 0 23 -10t10 -23v-2374q0 -13 -10 -23t-23 -10h-149
q-13 0 -23.5 10t-10.5 23v2374z" />
    <glyph glyph-name="Idieresis" unicode="&#xcf;" horiz-adv-x="687" 
d="M-6 2781q-59 0 -101.5 42.5t-42.5 101.5t42.5 102t101.5 43t102 -43t43 -102t-43 -101.5t-102 -42.5zM695 2781q-59 0 -101.5 42.5t-42.5 101.5t42.5 102t101.5 43t102 -43t43 -102t-43 -101.5t-102 -42.5zM235 2407q0 13 10.5 23t23.5 10h149q13 0 23 -10t10 -23v-2374
q0 -13 -10 -23t-23 -10h-149q-13 0 -23.5 10t-10.5 23v2374z" />
    <glyph glyph-name="Eth" unicode="&#xd0;" horiz-adv-x="2552" 
d="M1112 2440q204 0 389.5 -51.5t340.5 -154t269 -247.5t177.5 -341.5t63.5 -425.5t-63.5 -425.5t-177.5 -341.5t-269 -247.5t-340.5 -154t-389.5 -51.5h-749h-95q-13 0 -23 10t-10 23v1101h-302q-14 0 -23.5 9t-9.5 24v98q0 15 9.5 24.5t23.5 9.5h302v1108q0 13 10 23
t23 10h150h694zM1093 185q223 0 413 71.5t327.5 202.5t215 326.5t77.5 434.5t-77.5 434.5t-215 326.5t-327.5 202.5t-413 71.5h-642v-956h666q15 0 24.5 -9.5t9.5 -24.5v-98q0 -15 -9.5 -24t-24.5 -9h-666v-949h642z" />
    <glyph glyph-name="Ntilde" unicode="&#xd1;" horiz-adv-x="2587" 
d="M797 2723q-15 0 -23.5 9.5t-7.5 25.5q7 196 96 291.5t227 95.5q53 0 99.5 -15t79.5 -38.5t63 -52.5t57.5 -57.5t55 -52t62.5 -38.5t74 -15q95 0 145.5 60.5t53.5 175.5q3 33 36 33h57q15 0 23.5 -15t7.5 -40q-11 -186 -100 -276.5t-223 -90.5q-62 0 -114.5 20t-87 50
t-70 65.5t-64.5 65.5t-69.5 50t-85.5 20q-94 0 -145 -62t-54 -176q-3 -33 -36 -33h-57zM2318 2440q15 0 24.5 -9.5t9.5 -23.5v-2414q0 -14 -9.5 -23.5t-24.5 -9.5h-10q-28 0 -44 17l-1813 2057v-2001q0 -14 -9 -23.5t-24 -9.5h-149q-15 0 -24.5 9.5t-9.5 23.5v2414
q0 14 9.5 23.5t24.5 9.5h10q27 0 44 -17l1813 -2057v2001q0 14 9.5 23.5t23.5 9.5h149z" />
    <glyph glyph-name="Ograve" unicode="&#xd2;" horiz-adv-x="2839" 
d="M1480 2675l-639 427q-13 7 -16 21t4 24l65 108q8 10 21.5 13t25.5 -4l618 -458q12 -8 15 -22.5t-3 -24.5l-43 -72q-8 -12 -22 -15.5t-26 3.5zM1420 2470q192 0 372.5 -55.5t333.5 -163.5t268 -257.5t180 -349t65 -424.5t-65 -424.5t-180 -349t-268 -257.5t-333.5 -163.5
t-372.5 -55.5q-159 0 -312.5 39.5t-288.5 113t-249 184t-196 246.5t-128 307.5t-46 359.5t46 359.5t128 307.5t196 246.5t249 184t288.5 113t312.5 39.5zM1420 155q207 0 389.5 77.5t316 215t210.5 338t77 434.5t-77 434.5t-210.5 338t-316 215t-389.5 77.5
q-208 0 -390.5 -77.5t-316 -215t-210.5 -337.5t-77 -435t77 -435t210.5 -337.5t316 -215t390.5 -77.5z" />
    <glyph glyph-name="Oacute" unicode="&#xd3;" horiz-adv-x="2839" 
d="M1324 2675q-12 -7 -26 -3.5t-22 15.5l-43 72q-6 10 -3 24.5t15 22.5l618 458q12 7 25.5 4t21.5 -13l65 -108q7 -10 4 -24t-16 -21zM1420 2470q192 0 372.5 -55.5t333.5 -163.5t268 -257.5t180 -349t65 -424.5t-65 -424.5t-180 -349t-268 -257.5t-333.5 -163.5
t-372.5 -55.5q-159 0 -312.5 39.5t-288.5 113t-249 184t-196 246.5t-128 307.5t-46 359.5t46 359.5t128 307.5t196 246.5t249 184t288.5 113t312.5 39.5zM1420 155q207 0 389.5 77.5t316 215t210.5 338t77 434.5t-77 434.5t-210.5 338t-316 215t-389.5 77.5
q-208 0 -390.5 -77.5t-316 -215t-210.5 -337.5t-77 -435t77 -435t210.5 -337.5t316 -215t390.5 -77.5z" />
    <glyph glyph-name="Ocircumflex" unicode="&#xd4;" horiz-adv-x="2839" 
d="M1723 2700l-305 349l-304 -349q-18 -19 -43 -19h-153q-22 0 -28 11.5t10 27.5l422 464q18 18 45 18h102q28 0 46 -18l422 -464q15 -16 9.5 -27.5t-27.5 -11.5h-151q-27 0 -45 19zM1420 2470q192 0 372.5 -55.5t333.5 -163.5t268 -257.5t180 -349t65 -424.5t-65 -424.5
t-180 -349t-268 -257.5t-333.5 -163.5t-372.5 -55.5q-159 0 -312.5 39.5t-288.5 113t-249 184t-196 246.5t-128 307.5t-46 359.5t46 359.5t128 307.5t196 246.5t249 184t288.5 113t312.5 39.5zM1420 155q207 0 389.5 77.5t316 215t210.5 338t77 434.5t-77 434.5t-210.5 338
t-316 215t-389.5 77.5q-208 0 -390.5 -77.5t-316 -215t-210.5 -337.5t-77 -435t77 -435t210.5 -337.5t316 -215t390.5 -77.5z" />
    <glyph glyph-name="Otilde" unicode="&#xd5;" horiz-adv-x="2839" 
d="M883 2723q-15 0 -23.5 9.5t-7.5 25.5q7 196 96 291.5t227 95.5q53 0 99.5 -15t79.5 -38.5t63 -52.5t57.5 -57.5t55 -52t62.5 -38.5t74 -15q95 0 145.5 60.5t53.5 175.5q3 33 36 33h57q15 0 23.5 -15t7.5 -40q-11 -186 -100 -276.5t-223 -90.5q-62 0 -114.5 20t-87 50
t-70 65.5t-64.5 65.5t-69.5 50t-85.5 20q-94 0 -145 -62t-54 -176q-3 -33 -36 -33h-57zM1420 2470q192 0 372.5 -55.5t333.5 -163.5t268 -257.5t180 -349t65 -424.5t-65 -424.5t-180 -349t-268 -257.5t-333.5 -163.5t-372.5 -55.5q-159 0 -312.5 39.5t-288.5 113t-249 184
t-196 246.5t-128 307.5t-46 359.5t46 359.5t128 307.5t196 246.5t249 184t288.5 113t312.5 39.5zM1420 155q207 0 389.5 77.5t316 215t210.5 338t77 434.5t-77 434.5t-210.5 338t-316 215t-389.5 77.5q-208 0 -390.5 -77.5t-316 -215t-210.5 -337.5t-77 -435t77 -435
t210.5 -337.5t316 -215t390.5 -77.5z" />
    <glyph glyph-name="Odieresis" unicode="&#xd6;" horiz-adv-x="2839" 
d="M1071 2781q-59 0 -101.5 42.5t-42.5 101.5t42.5 102t101.5 43t102 -43t43 -102t-43 -101.5t-102 -42.5zM1772 2781q-59 0 -101.5 42.5t-42.5 101.5t42.5 102t101.5 43t102 -43t43 -102t-43 -101.5t-102 -42.5zM1420 2470q192 0 372.5 -55.5t333.5 -163.5t268 -257.5
t180 -349t65 -424.5t-65 -424.5t-180 -349t-268 -257.5t-333.5 -163.5t-372.5 -55.5q-159 0 -312.5 39.5t-288.5 113t-249 184t-196 246.5t-128 307.5t-46 359.5t46 359.5t128 307.5t196 246.5t249 184t288.5 113t312.5 39.5zM1420 155q207 0 389.5 77.5t316 215t210.5 338
t77 434.5t-77 434.5t-210.5 338t-316 215t-389.5 77.5q-208 0 -390.5 -77.5t-316 -215t-210.5 -337.5t-77 -435t77 -435t210.5 -337.5t316 -215t390.5 -77.5z" />
    <glyph glyph-name="multiply" unicode="&#xd7;" horiz-adv-x="1957" 
d="M1096 1015l630 -630q23 -23 0 -47l-70 -70q-10 -10 -23 -10t-24 10l-630 630l-631 -630q-10 -10 -23 -10t-24 10l-70 70q-23 24 0 47l630 630l-630 630q-22 24 0 48l70 70q23 23 47 0l631 -630l630 630q23 23 46 0l71 -70q22 -24 0 -48z" />
    <glyph glyph-name="Oslash" unicode="&#xd8;" horiz-adv-x="2839" 
d="M2353 2044q137 -161 211.5 -370t74.5 -454q0 -225 -65 -424.5t-180 -349t-268 -257.5t-333.5 -163.5t-372.5 -55.5q-232 0 -446 81.5t-381 232.5l-195 -195q-24 -23 -47 0l-70 71q-23 23 0 47l198 198q-133 161 -206 367.5t-73 447.5q0 188 46 359.5t128 307.5t196 246.5
t249 184t288.5 113t312.5 39.5q229 0 440 -79.5t377 -227.5l199 199q24 23 47 0l71 -70q10 -10 10 -23t-10 -24zM426 1220q0 -388 201 -667l1469 1469q-133 127 -306.5 195t-369.5 68q-208 0 -390.5 -77.5t-316 -215t-210.5 -337.5t-77 -435zM1420 155q207 0 389.5 77.5
t316 215t210.5 338t77 434.5q0 395 -208 676l-1470 -1470q134 -131 309.5 -201t375.5 -70z" />
    <glyph glyph-name="Ugrave" unicode="&#xd9;" horiz-adv-x="2507" 
d="M675 3102q-13 7 -16 21t4 24l65 108q8 10 21.5 13t25.5 -4l618 -458q12 -8 15 -22.5t-3 -24.5l-43 -72q-8 -12 -22 -15.5t-26 3.5zM2238 2440q13 0 23.5 -10t10.5 -23v-1387q0 -258 -73 -460t-207.5 -333t-321 -199t-416.5 -68t-417 68t-321.5 199t-207.5 333t-73 460
v1387q0 13 10.5 23t23.5 10h149q13 0 23 -10t10 -23v-1348q0 -437 202 -675.5t601 -238.5q398 0 600 238.5t202 675.5v1348q0 13 10 23t23 10h149z" />
    <glyph glyph-name="Uacute" unicode="&#xda;" horiz-adv-x="2507" 
d="M1110 2687l-43 72q-6 10 -3 24.5t15 22.5l618 458q12 7 25.5 4t21.5 -13l65 -108q7 -10 4 -24t-16 -21l-639 -427q-12 -7 -26 -3.5t-22 15.5zM2238 2440q13 0 23.5 -10t10.5 -23v-1387q0 -258 -73 -460t-207.5 -333t-321 -199t-416.5 -68t-417 68t-321.5 199t-207.5 333
t-73 460v1387q0 13 10.5 23t23.5 10h149q13 0 23 -10t10 -23v-1348q0 -437 202 -675.5t601 -238.5q398 0 600 238.5t202 675.5v1348q0 13 10 23t23 10h149z" />
    <glyph glyph-name="Ucircumflex" unicode="&#xdb;" horiz-adv-x="2507" 
d="M752 2681q-22 0 -28 11.5t10 27.5l422 464q18 18 45 18h102q28 0 46 -18l422 -464q15 -16 9.5 -27.5t-27.5 -11.5h-151q-27 0 -45 19l-305 349l-304 -349q-18 -19 -43 -19h-153zM2238 2440q13 0 23.5 -10t10.5 -23v-1387q0 -258 -73 -460t-207.5 -333t-321 -199
t-416.5 -68t-417 68t-321.5 199t-207.5 333t-73 460v1387q0 13 10.5 23t23.5 10h149q13 0 23 -10t10 -23v-1348q0 -437 202 -675.5t601 -238.5q398 0 600 238.5t202 675.5v1348q0 13 10 23t23 10h149z" />
    <glyph glyph-name="Udieresis" unicode="&#xdc;" horiz-adv-x="2507" 
d="M905 2781q-59 0 -101.5 42.5t-42.5 101.5t42.5 102t101.5 43t102 -43t43 -102t-43 -101.5t-102 -42.5zM1606 2781q-59 0 -101.5 42.5t-42.5 101.5t42.5 102t101.5 43t102 -43t43 -102t-43 -101.5t-102 -42.5zM2238 2440q13 0 23.5 -10t10.5 -23v-1387q0 -258 -73 -460
t-207.5 -333t-321 -199t-416.5 -68t-417 68t-321.5 199t-207.5 333t-73 460v1387q0 13 10.5 23t23.5 10h149q13 0 23 -10t10 -23v-1348q0 -437 202 -675.5t601 -238.5q398 0 600 238.5t202 675.5v1348q0 13 10 23t23 10h149z" />
    <glyph glyph-name="Yacute" unicode="&#xdd;" horiz-adv-x="2318" 
d="M1016 2687l-43 72q-6 10 -3 24.5t15 22.5l618 458q12 7 25.5 4t21.5 -13l65 -108q7 -10 4 -24t-16 -21l-639 -427q-12 -7 -26 -3.5t-22 15.5zM2205 2440q20 0 29 -11t-1 -28l-970 -1527v-841q0 -13 -10.5 -23t-23.5 -10h-149q-13 0 -23 10t-10 23v830l-981 1538
q-9 17 -1 28t26 11h179q24 0 39 -26l849 -1351l847 1351q15 26 40 26h160z" />
    <glyph glyph-name="Thorn" unicode="&#xde;" horiz-adv-x="2202" 
d="M1153 1989q185 0 338 -40t259.5 -110t179.5 -166t107.5 -207.5t34.5 -235.5t-34.5 -235.5t-107.5 -207.5t-179.5 -166t-259.5 -110t-338 -40h-702v-438q0 -13 -10 -23t-23 -10h-150q-13 0 -23 10t-10 23v2374q0 13 10 23t23 10h150q13 0 23 -10t10 -23v-418h702z
M1114 656q158 0 283.5 30.5t208.5 83.5t138 126.5t78.5 156t23.5 177.5t-23.5 177.5t-78.5 156.5t-138 126.5t-208.5 83.5t-283.5 31h-663v-1149h663z" />
    <glyph glyph-name="germandbls" unicode="&#xdf;" horiz-adv-x="2047" 
d="M1264 1319q0 -72 22.5 -129t61 -95.5t88.5 -70.5t105 -59.5t109.5 -56t104.5 -66.5t88.5 -85t61 -117.5t22.5 -158.5q0 -110 -36 -199t-94.5 -146t-137 -95.5t-159.5 -54.5t-167 -16q-150 0 -297.5 52t-260.5 136q-27 20 -15 46l43 101q15 34 43 17q124 -87 237 -132
t242 -45q62 0 118.5 10.5t109 35t91 60.5t61.5 91.5t23 123.5q0 67 -23 120.5t-62.5 89.5t-90 66.5t-107 56.5t-112.5 54t-106.5 66t-90 85t-62.5 117.5t-23 157.5q0 85 22.5 158.5t54.5 128t64.5 110.5t55 132.5t22.5 166.5q0 206 -109 332.5t-305 126.5t-305 -126
t-109 -327v-1948q0 -14 -9.5 -23.5t-24.5 -9.5h-139q-15 0 -24.5 9.5t-9.5 23.5v1968q0 173 78 312t220 217.5t322 78.5q272 0 446.5 -171t174.5 -442q0 -97 -22 -179t-53 -139t-62 -109.5t-53 -116t-22 -133.5z" />
    <glyph glyph-name="agrave" unicode="&#xe0;" horiz-adv-x="1754" 
d="M332 2340q-13 7 -16 21t4 24l65 108q8 10 21.5 13t25.5 -4l618 -458q12 -8 15 -22.5t-3 -24.5l-43 -72q-8 -12 -22 -15.5t-26 3.5zM1630 56q12 -36 -20 -48l-97 -34q-20 -7 -33 5q-106 161 -146 360q-89 -165 -253 -267t-372 -102q-247 0 -398 140t-151 351
q0 200 137.5 338t394.5 183.5t624 -36.5v106q0 121 -20.5 206t-69 146t-131.5 90t-204 29q-140 0 -259 -35t-261 -107q-13 -6 -26 -1t-19 18l-47 103q-14 32 16 45q163 82 307.5 122t308.5 40q142 0 248.5 -30.5t175 -84t111 -134.5t59.5 -173.5t17 -210.5v-475
q0 -124 15.5 -225t34.5 -160t58 -159zM759 145q156 0 286 78t200.5 199t70.5 252v127q-243 56 -420.5 54.5t-293 -55t-171 -136.5t-55.5 -189q0 -150 107.5 -240t275.5 -90z" />
    <glyph glyph-name="aacute" unicode="&#xe1;" horiz-adv-x="1754" 
d="M767 1925l-43 72q-6 10 -3 24.5t15 22.5l618 458q12 7 25.5 4t21.5 -13l65 -108q7 -10 4 -24t-16 -21l-639 -427q-12 -7 -26 -3.5t-22 15.5zM1630 56q12 -36 -20 -48l-97 -34q-20 -7 -33 5q-106 161 -146 360q-89 -165 -253 -267t-372 -102q-247 0 -398 140t-151 351
q0 200 137.5 338t394.5 183.5t624 -36.5v106q0 121 -20.5 206t-69 146t-131.5 90t-204 29q-140 0 -259 -35t-261 -107q-13 -6 -26 -1t-19 18l-47 103q-14 32 16 45q163 82 307.5 122t308.5 40q142 0 248.5 -30.5t175 -84t111 -134.5t59.5 -173.5t17 -210.5v-475
q0 -124 15.5 -225t34.5 -160t58 -159zM759 145q156 0 286 78t200.5 199t70.5 252v127q-243 56 -420.5 54.5t-293 -55t-171 -136.5t-55.5 -189q0 -150 107.5 -240t275.5 -90z" />
    <glyph glyph-name="acircumflex" unicode="&#xe2;" horiz-adv-x="1754" 
d="M409 1919q-22 0 -28 11.5t10 27.5l422 464q18 18 45 18h102q28 0 46 -18l422 -464q15 -16 9.5 -27.5t-27.5 -11.5h-151q-27 0 -45 19l-305 349l-304 -349q-18 -19 -43 -19h-153zM1630 56q12 -36 -20 -48l-97 -34q-20 -7 -33 5q-106 161 -146 360q-89 -165 -253 -267
t-372 -102q-247 0 -398 140t-151 351q0 200 137.5 338t394.5 183.5t624 -36.5v106q0 121 -20.5 206t-69 146t-131.5 90t-204 29q-140 0 -259 -35t-261 -107q-13 -6 -26 -1t-19 18l-47 103q-14 32 16 45q163 82 307.5 122t308.5 40q142 0 248.5 -30.5t175 -84t111 -134.5
t59.5 -173.5t17 -210.5v-475q0 -124 15.5 -225t34.5 -160t58 -159zM759 145q156 0 286 78t200.5 199t70.5 252v127q-243 56 -420.5 54.5t-293 -55t-171 -136.5t-55.5 -189q0 -150 107.5 -240t275.5 -90z" />
    <glyph glyph-name="atilde" unicode="&#xe3;" horiz-adv-x="1754" 
d="M374 1961q-15 0 -23.5 9.5t-7.5 25.5q7 196 96 291.5t227 95.5q53 0 99.5 -15t79.5 -38.5t63 -52.5t57.5 -57.5t55 -52t62.5 -38.5t74 -15q95 0 145.5 60.5t53.5 175.5q3 33 36 33h57q15 0 23.5 -15t7.5 -40q-11 -186 -100 -276.5t-223 -90.5q-62 0 -114.5 20t-87 50
t-70 65.5t-64.5 65.5t-69.5 50t-85.5 20q-94 0 -145 -62t-54 -176q-3 -33 -36 -33h-57zM1630 56q12 -36 -20 -48l-97 -34q-20 -7 -33 5q-106 161 -146 360q-89 -165 -253 -267t-372 -102q-247 0 -398 140t-151 351q0 200 137.5 338t394.5 183.5t624 -36.5v106
q0 121 -20.5 206t-69 146t-131.5 90t-204 29q-140 0 -259 -35t-261 -107q-13 -6 -26 -1t-19 18l-47 103q-14 32 16 45q163 82 307.5 122t308.5 40q142 0 248.5 -30.5t175 -84t111 -134.5t59.5 -173.5t17 -210.5v-475q0 -124 15.5 -225t34.5 -160t58 -159zM759 145
q156 0 286 78t200.5 199t70.5 252v127q-243 56 -420.5 54.5t-293 -55t-171 -136.5t-55.5 -189q0 -150 107.5 -240t275.5 -90z" />
    <glyph glyph-name="adieresis" unicode="&#xe4;" horiz-adv-x="1754" 
d="M562 2019q-59 0 -101.5 42.5t-42.5 101.5t42.5 102t101.5 43t102 -43t43 -102t-43 -101.5t-102 -42.5zM1263 2019q-59 0 -101.5 42.5t-42.5 101.5t42.5 102t101.5 43t102 -43t43 -102t-43 -101.5t-102 -42.5zM1630 56q12 -36 -20 -48l-97 -34q-20 -7 -33 5
q-106 161 -146 360q-89 -165 -253 -267t-372 -102q-247 0 -398 140t-151 351q0 200 137.5 338t394.5 183.5t624 -36.5v106q0 121 -20.5 206t-69 146t-131.5 90t-204 29q-140 0 -259 -35t-261 -107q-13 -6 -26 -1t-19 18l-47 103q-14 32 16 45q163 82 307.5 122t308.5 40
q142 0 248.5 -30.5t175 -84t111 -134.5t59.5 -173.5t17 -210.5v-475q0 -124 15.5 -225t34.5 -160t58 -159zM759 145q156 0 286 78t200.5 199t70.5 252v127q-243 56 -420.5 54.5t-293 -55t-171 -136.5t-55.5 -189q0 -150 107.5 -240t275.5 -90z" />
    <glyph glyph-name="aring" unicode="&#xe5;" horiz-adv-x="1754" 
d="M911 1856q-162 0 -277 114t-115 276q0 161 115 276t277 115q161 0 276 -115t115 -276q0 -162 -114.5 -276t-276.5 -114zM911 2515q-112 0 -188 -78.5t-76 -190.5q0 -110 76 -188t188 -78q111 0 187 78t76 188q0 112 -75.5 190.5t-187.5 78.5zM1630 56q12 -36 -20 -48
l-97 -34q-20 -7 -33 5q-106 161 -146 360q-89 -165 -253 -267t-372 -102q-247 0 -398 140t-151 351q0 200 137.5 338t394.5 183.5t624 -36.5v106q0 121 -20.5 206t-69 146t-131.5 90t-204 29q-140 0 -259 -35t-261 -107q-13 -6 -26 -1t-19 18l-47 103q-14 32 16 45
q163 82 307.5 122t308.5 40q142 0 248.5 -30.5t175 -84t111 -134.5t59.5 -173.5t17 -210.5v-475q0 -124 15.5 -225t34.5 -160t58 -159zM759 145q156 0 286 78t200.5 199t70.5 252v127q-243 56 -420.5 54.5t-293 -55t-171 -136.5t-55.5 -189q0 -150 107.5 -240t275.5 -90z
" />
    <glyph glyph-name="ae" unicode="&#xe6;" horiz-adv-x="3147" 
d="M2902 448q31 -14 16 -45q-102 -214 -289.5 -323.5t-439.5 -109.5q-250 0 -455 122t-311 335q-86 -197 -276 -327t-423 -130q-123 0 -226 38t-172.5 104t-107.5 156t-38 193q0 200 136.5 338t392.5 183.5t622 -36.5v106q0 121 -20.5 206t-69 146t-131.5 90t-204 29
q-140 0 -259 -35t-260 -107q-13 -6 -26.5 -1t-19.5 18l-47 103q-14 32 16 45q163 82 307.5 122t308.5 40q244 0 376.5 -90t180.5 -260q114 166 295.5 258t397.5 92q171 0 314 -54t250 -158.5t167 -270t60 -376.5h-1421v-10q0 -124 34 -233t95 -191t142.5 -141t179 -89
t202.5 -30q386 0 537 334q16 30 45 16zM2176 1533q-227 0 -397.5 -143.5t-217.5 -385.5h1168q-10 132 -57.5 234.5t-122.5 166t-169.5 96t-203.5 32.5zM774 145q156 0 286 78t200.5 199t70.5 252v119v8q-243 56 -419.5 54.5t-291 -55t-169.5 -136.5t-55 -189
q0 -150 105 -240t273 -90z" />
    <glyph glyph-name="ccedilla" unicode="&#xe7;" horiz-adv-x="1953" 
d="M1761 458q31 -15 16 -46q-44 -93 -106.5 -169.5t-147 -136.5t-195.5 -95.5t-239 -39.5l-77 -218q94 26 180.5 18t152 -39t104.5 -95t39 -151q0 -148 -108.5 -236.5t-269.5 -88.5q-182 0 -314 84q-28 20 -14 47l18 38q14 30 47 15q70 -34 127.5 -51t127.5 -17
q102 0 165.5 53.5t63.5 147.5q0 72 -37 116.5t-101 59t-141 9.5t-166 -28q-23 -5 -31 3.5t0 31.5l107 304q-164 15 -307 83.5t-248.5 179t-166 266t-60.5 336.5q0 193 69 357t186.5 275.5t277.5 174t339 62.5q266 0 448.5 -120.5t276.5 -321.5q15 -31 -16 -45l-121 -57
q-27 -13 -45 15q-172 344 -531 344q-142 0 -264.5 -48t-212 -135t-140.5 -216.5t-51 -284.5t51 -284.5t140.5 -216.5t212 -135t264.5 -48q366 0 531 344q18 28 45 15z" />
    <glyph glyph-name="egrave" unicode="&#xe8;" horiz-adv-x="1997" 
d="M412 2340q-13 7 -16 21t4 24l65 108q8 10 21.5 13t25.5 -4l618 -458q12 -8 15 -22.5t-3 -24.5l-43 -72q-8 -12 -22 -15.5t-26 3.5zM1752 448q31 -14 16 -45q-102 -214 -289.5 -323.5t-439.5 -109.5q-140 0 -269.5 39.5t-236.5 115.5t-186 180.5t-123 242t-44 291.5
q0 256 113.5 456t305.5 306.5t427 106.5q171 0 314 -54t250 -158.5t167 -270t60 -376.5h-1421v-10q0 -124 34 -233t95 -191t142.5 -141t179 -89t202.5 -30q386 0 537 334q16 30 45 16zM1026 1533q-227 0 -397.5 -143.5t-217.5 -385.5h1168q-10 132 -57.5 234.5t-122.5 166
t-169.5 96t-203.5 32.5z" />
    <glyph glyph-name="eacute" unicode="&#xe9;" horiz-adv-x="1997" 
d="M847 1925l-43 72q-6 10 -3 24.5t15 22.5l618 458q12 7 25.5 4t21.5 -13l65 -108q7 -10 4 -24t-16 -21l-639 -427q-12 -7 -26 -3.5t-22 15.5zM1752 448q31 -14 16 -45q-102 -214 -289.5 -323.5t-439.5 -109.5q-140 0 -269.5 39.5t-236.5 115.5t-186 180.5t-123 242
t-44 291.5q0 256 113.5 456t305.5 306.5t427 106.5q171 0 314 -54t250 -158.5t167 -270t60 -376.5h-1421v-10q0 -124 34 -233t95 -191t142.5 -141t179 -89t202.5 -30q386 0 537 334q16 30 45 16zM1026 1533q-227 0 -397.5 -143.5t-217.5 -385.5h1168q-10 132 -57.5 234.5
t-122.5 166t-169.5 96t-203.5 32.5z" />
    <glyph glyph-name="ecircumflex" unicode="&#xea;" horiz-adv-x="1997" 
d="M489 1919q-22 0 -28 11.5t10 27.5l422 464q18 18 45 18h102q28 0 46 -18l422 -464q15 -16 9.5 -27.5t-27.5 -11.5h-151q-27 0 -45 19l-305 349l-304 -349q-18 -19 -43 -19h-153zM1752 448q31 -14 16 -45q-102 -214 -289.5 -323.5t-439.5 -109.5q-140 0 -269.5 39.5
t-236.5 115.5t-186 180.5t-123 242t-44 291.5q0 256 113.5 456t305.5 306.5t427 106.5q171 0 314 -54t250 -158.5t167 -270t60 -376.5h-1421v-10q0 -124 34 -233t95 -191t142.5 -141t179 -89t202.5 -30q386 0 537 334q16 30 45 16zM1026 1533q-227 0 -397.5 -143.5
t-217.5 -385.5h1168q-10 132 -57.5 234.5t-122.5 166t-169.5 96t-203.5 32.5z" />
    <glyph glyph-name="edieresis" unicode="&#xeb;" horiz-adv-x="1997" 
d="M642 2019q-59 0 -101.5 42.5t-42.5 101.5t42.5 102t101.5 43t102 -43t43 -102t-43 -101.5t-102 -42.5zM1343 2019q-59 0 -101.5 42.5t-42.5 101.5t42.5 102t101.5 43t102 -43t43 -102t-43 -101.5t-102 -42.5zM1752 448q31 -14 16 -45q-102 -214 -289.5 -323.5
t-439.5 -109.5q-140 0 -269.5 39.5t-236.5 115.5t-186 180.5t-123 242t-44 291.5q0 256 113.5 456t305.5 306.5t427 106.5q171 0 314 -54t250 -158.5t167 -270t60 -376.5h-1421v-10q0 -124 34 -233t95 -191t142.5 -141t179 -89t202.5 -30q386 0 537 334q16 30 45 16z
M1026 1533q-227 0 -397.5 -143.5t-217.5 -385.5h1168q-10 132 -57.5 234.5t-122.5 166t-169.5 96t-203.5 32.5z" />
    <glyph glyph-name="igrave" unicode="&#xec;" horiz-adv-x="667" 
d="M394 1913l-639 427q-13 7 -16 21t4 24l65 108q8 10 21.5 13t25.5 -4l618 -458q12 -8 15 -22.5t-3 -24.5l-43 -72q-8 -12 -22 -15.5t-26 3.5zM230 1645q0 14 9.5 23.5t24.5 9.5h139q15 0 24 -9.5t9 -23.5v-1612q0 -14 -9 -23.5t-24 -9.5h-139q-15 0 -24.5 9.5t-9.5 23.5
v1612z" />
    <glyph glyph-name="iacute" unicode="&#xed;" horiz-adv-x="667" 
d="M238 1913q-12 -7 -26 -3.5t-22 15.5l-43 72q-6 10 -3 24.5t15 22.5l618 458q12 7 25.5 4t21.5 -13l65 -108q7 -10 4 -24t-16 -21zM230 1645q0 14 9.5 23.5t24.5 9.5h139q15 0 24 -9.5t9 -23.5v-1612q0 -14 -9 -23.5t-24 -9.5h-139q-15 0 -24.5 9.5t-9.5 23.5v1612z" />
    <glyph glyph-name="icircumflex" unicode="&#xee;" horiz-adv-x="667" 
d="M637 1938l-305 349l-304 -349q-18 -19 -43 -19h-153q-22 0 -28 11.5t10 27.5l422 464q18 18 45 18h102q28 0 46 -18l422 -464q15 -16 9.5 -27.5t-27.5 -11.5h-151q-27 0 -45 19zM230 1645q0 14 9.5 23.5t24.5 9.5h139q15 0 24 -9.5t9 -23.5v-1612q0 -14 -9 -23.5
t-24 -9.5h-139q-15 0 -24.5 9.5t-9.5 23.5v1612z" />
    <glyph glyph-name="idieresis" unicode="&#xef;" horiz-adv-x="667" 
d="M-15 2019q-59 0 -101.5 42.5t-42.5 101.5t42.5 102t101.5 43t102 -43t43 -102t-43 -101.5t-102 -42.5zM686 2019q-59 0 -101.5 42.5t-42.5 101.5t42.5 102t101.5 43t102 -43t43 -102t-43 -101.5t-102 -42.5zM230 1645q0 14 9.5 23.5t24.5 9.5h139q15 0 24 -9.5t9 -23.5
v-1612q0 -14 -9 -23.5t-24 -9.5h-139q-15 0 -24.5 9.5t-9.5 23.5v1612z" />
    <glyph glyph-name="eth" unicode="&#xf0;" horiz-adv-x="2044" 
d="M1089 2421q137 -75 251.5 -179t193.5 -215.5t140 -242t96.5 -252t58.5 -251t31 -233t8 -204.5q0 -196 -67.5 -361.5t-182.5 -277t-267.5 -173.5t-321.5 -62q-168 0 -322.5 62.5t-271 172t-186 270t-69.5 345.5t65.5 345t177.5 269.5t263 172t319 62.5q191 0 346.5 -79
t257.5 -223q-137 639 -603 910l-158 -273q-8 -13 -20.5 -16.5t-25.5 3.5l-38 22q-29 17 -12 46l155 269q-134 63 -299 99q-19 5 -26.5 20.5t0.5 32.5l33 75q11 26 39 19q182 -35 335 -104l144 249q17 29 46 12l38 -21q28 -17 12 -46zM1029 155q104 0 199 30t174 88t137 138
t90.5 185t32.5 224q0 148 -50 273.5t-136 210.5t-201.5 132.5t-245.5 47.5q-129 0 -244.5 -47.5t-201.5 -132.5t-136.5 -210.5t-50.5 -273.5q0 -197 86.5 -350t230 -234t316.5 -81z" />
    <glyph glyph-name="ntilde" unicode="&#xf1;" 
d="M513 1961q-15 0 -23.5 9.5t-7.5 25.5q7 196 96 291.5t227 95.5q53 0 99.5 -15t79.5 -38.5t63 -52.5t57.5 -57.5t55 -52t62.5 -38.5t74 -15q95 0 145.5 60.5t53.5 175.5q3 33 36 33h57q15 0 23.5 -15t7.5 -40q-11 -186 -100 -276.5t-223 -90.5q-62 0 -114.5 20t-87 50
t-70 65.5t-64.5 65.5t-69.5 50t-85.5 20q-94 0 -145 -62t-54 -176q-3 -33 -36 -33h-57zM1154 1718q161 0 283 -49.5t197 -140.5t112 -214.5t37 -277.5v-1003q0 -14 -9.5 -23.5t-24.5 -9.5h-139q-15 0 -24 9.5t-9 23.5v927q0 574 -482 574q-178 0 -328 -86.5t-237.5 -236.5
t-87.5 -329v406q32 62 78 121.5t112.5 116t143.5 99t175 68t203 25.5zM408 1678q14 0 23.5 -9.5t9.5 -23.5v-1612q0 -14 -9.5 -23.5t-23.5 -9.5h-140q-14 0 -23.5 9.5t-9.5 23.5v1612q0 14 9.5 23.5t23.5 9.5h140z" />
    <glyph glyph-name="ograve" unicode="&#xf2;" horiz-adv-x="2098" 
d="M1109 1913l-639 427q-13 7 -16 21t4 24l65 108q8 10 21.5 13t25.5 -4l618 -458q12 -8 15 -22.5t-3 -24.5l-43 -72q-8 -12 -22 -15.5t-26 3.5zM1049 1708q140 0 270.5 -39.5t238.5 -115.5t188.5 -180.5t125.5 -242t45 -291.5t-45 -291.5t-125.5 -242t-188.5 -180.5
t-238.5 -115.5t-270.5 -39.5t-270.5 39.5t-239 115.5t-189 180.5t-125.5 242t-45 291.5t45 291.5t125.5 242t189 180.5t239 115.5t270.5 39.5zM1049 155q132 0 250 48t207.5 134.5t142 216.5t52.5 285t-52.5 285t-142 216.5t-207.5 134.5t-250 48q-105 0 -202.5 -30
t-179 -89t-142.5 -141t-95 -191t-34 -233t34 -233t95 -191t142.5 -141t179 -89t202.5 -30z" />
    <glyph glyph-name="oacute" unicode="&#xf3;" horiz-adv-x="2098" 
d="M953 1913q-12 -7 -26 -3.5t-22 15.5l-43 72q-6 10 -3 24.5t15 22.5l618 458q12 7 25.5 4t21.5 -13l65 -108q7 -10 4 -24t-16 -21zM1049 1708q140 0 270.5 -39.5t238.5 -115.5t188.5 -180.5t125.5 -242t45 -291.5t-45 -291.5t-125.5 -242t-188.5 -180.5t-238.5 -115.5
t-270.5 -39.5t-270.5 39.5t-239 115.5t-189 180.5t-125.5 242t-45 291.5t45 291.5t125.5 242t189 180.5t239 115.5t270.5 39.5zM1049 155q132 0 250 48t207.5 134.5t142 216.5t52.5 285t-52.5 285t-142 216.5t-207.5 134.5t-250 48q-105 0 -202.5 -30t-179 -89t-142.5 -141
t-95 -191t-34 -233t34 -233t95 -191t142.5 -141t179 -89t202.5 -30z" />
    <glyph glyph-name="ocircumflex" unicode="&#xf4;" horiz-adv-x="2098" 
d="M1352 1938l-305 349l-304 -349q-18 -19 -43 -19h-153q-22 0 -28 11.5t10 27.5l422 464q18 18 45 18h102q28 0 46 -18l422 -464q15 -16 9.5 -27.5t-27.5 -11.5h-151q-27 0 -45 19zM1049 1708q140 0 270.5 -39.5t238.5 -115.5t188.5 -180.5t125.5 -242t45 -291.5
t-45 -291.5t-125.5 -242t-188.5 -180.5t-238.5 -115.5t-270.5 -39.5t-270.5 39.5t-239 115.5t-189 180.5t-125.5 242t-45 291.5t45 291.5t125.5 242t189 180.5t239 115.5t270.5 39.5zM1049 155q132 0 250 48t207.5 134.5t142 216.5t52.5 285t-52.5 285t-142 216.5
t-207.5 134.5t-250 48q-105 0 -202.5 -30t-179 -89t-142.5 -141t-95 -191t-34 -233t34 -233t95 -191t142.5 -141t179 -89t202.5 -30z" />
    <glyph glyph-name="otilde" unicode="&#xf5;" horiz-adv-x="2098" 
d="M512 1961q-15 0 -23.5 9.5t-7.5 25.5q7 196 96 291.5t227 95.5q53 0 99.5 -15t79.5 -38.5t63 -52.5t57.5 -57.5t55 -52t62.5 -38.5t74 -15q95 0 145.5 60.5t53.5 175.5q3 33 36 33h57q15 0 23.5 -15t7.5 -40q-11 -186 -100 -276.5t-223 -90.5q-62 0 -114.5 20t-87 50
t-70 65.5t-64.5 65.5t-69.5 50t-85.5 20q-94 0 -145 -62t-54 -176q-3 -33 -36 -33h-57zM1049 1708q140 0 270.5 -39.5t238.5 -115.5t188.5 -180.5t125.5 -242t45 -291.5t-45 -291.5t-125.5 -242t-188.5 -180.5t-238.5 -115.5t-270.5 -39.5t-270.5 39.5t-239 115.5
t-189 180.5t-125.5 242t-45 291.5t45 291.5t125.5 242t189 180.5t239 115.5t270.5 39.5zM1049 155q132 0 250 48t207.5 134.5t142 216.5t52.5 285t-52.5 285t-142 216.5t-207.5 134.5t-250 48q-105 0 -202.5 -30t-179 -89t-142.5 -141t-95 -191t-34 -233t34 -233t95 -191
t142.5 -141t179 -89t202.5 -30z" />
    <glyph glyph-name="odieresis" unicode="&#xf6;" horiz-adv-x="2098" 
d="M700 2019q-59 0 -101.5 42.5t-42.5 101.5t42.5 102t101.5 43t102 -43t43 -102t-43 -101.5t-102 -42.5zM1401 2019q-59 0 -101.5 42.5t-42.5 101.5t42.5 102t101.5 43t102 -43t43 -102t-43 -101.5t-102 -42.5zM1049 1708q140 0 270.5 -39.5t238.5 -115.5t188.5 -180.5
t125.5 -242t45 -291.5t-45 -291.5t-125.5 -242t-188.5 -180.5t-238.5 -115.5t-270.5 -39.5t-270.5 39.5t-239 115.5t-189 180.5t-125.5 242t-45 291.5t45 291.5t125.5 242t189 180.5t239 115.5t270.5 39.5zM1049 155q132 0 250 48t207.5 134.5t142 216.5t52.5 285t-52.5 285
t-142 216.5t-207.5 134.5t-250 48q-105 0 -202.5 -30t-179 -89t-142.5 -141t-95 -191t-34 -233t34 -233t95 -191t142.5 -141t179 -89t202.5 -30z" />
    <glyph glyph-name="divide" unicode="&#xf7;" horiz-adv-x="2056" 
d="M1027 1450q-57 0 -97.5 41t-40.5 97q0 57 40.5 97.5t97.5 40.5q56 0 97 -40.5t41 -97.5q0 -56 -41 -97t-97 -41zM254 983q-15 0 -24.5 9.5t-9.5 23.5v99q0 14 9.5 23.5t24.5 9.5h1548q14 0 23.5 -9.5t9.5 -23.5v-99q0 -14 -9.5 -23.5t-23.5 -9.5h-1548zM1027 416
q-57 0 -97.5 41t-40.5 97q0 57 40.5 97.5t97.5 40.5q56 0 97 -40.5t41 -97.5q0 -56 -41 -97t-97 -41z" />
    <glyph glyph-name="oslash" unicode="&#xf8;" horiz-adv-x="2116" 
d="M1732 1398q191 -234 191 -559q0 -154 -45 -291.5t-125.5 -242t-189 -180.5t-239 -115.5t-270.5 -39.5q-157 0 -300 49.5t-258 142.5l-175 -175q-23 -22 -47 0l-69 70q-24 24 0 47l173 174q-192 234 -192 561q0 154 45 291.5t125.5 242t188.5 180.5t238.5 115.5
t270.5 39.5q158 0 302 -50t258 -143l178 178q24 22 48 0l70 -71q10 -10 10 -23t-10 -24zM402 839q0 -238 122 -415l950 951q-177 148 -420 148q-132 0 -250 -48t-207.5 -134.5t-142 -216.5t-52.5 -285zM1054 155q177 0 324.5 81.5t238 239.5t90.5 363q0 238 -121 413
l-950 -950q178 -147 418 -147z" />
    <glyph glyph-name="ugrave" unicode="&#xf9;" 
d="M431 2340q-13 7 -16 21t4 24l65 108q8 10 21.5 13t25.5 -4l618 -458q12 -8 15 -22.5t-3 -24.5l-43 -72q-8 -12 -22 -15.5t-26 3.5zM1749 1678q14 0 23.5 -9.5t9.5 -23.5v-1612q0 -14 -9.5 -23.5t-23.5 -9.5h-140q-14 0 -23.5 9.5t-9.5 23.5v357q-32 -62 -78 -121.5
t-112.5 -116t-143.5 -99t-175 -68t-203 -25.5q-161 0 -283 49.5t-197 140.5t-112 214.5t-37 277.5v1003q0 14 9.5 23.5t24.5 9.5h139q15 0 24 -9.5t9 -23.5v-927q0 -574 482 -574q178 0 328 86.5t237.5 236.5t87.5 329v849q0 14 9.5 23.5t23.5 9.5h140z" />
    <glyph glyph-name="uacute" unicode="&#xfa;" 
d="M866 1925l-43 72q-6 10 -3 24.5t15 22.5l618 458q12 7 25.5 4t21.5 -13l65 -108q7 -10 4 -24t-16 -21l-639 -427q-12 -7 -26 -3.5t-22 15.5zM1749 1678q14 0 23.5 -9.5t9.5 -23.5v-1612q0 -14 -9.5 -23.5t-23.5 -9.5h-140q-14 0 -23.5 9.5t-9.5 23.5v357
q-32 -62 -78 -121.5t-112.5 -116t-143.5 -99t-175 -68t-203 -25.5q-161 0 -283 49.5t-197 140.5t-112 214.5t-37 277.5v1003q0 14 9.5 23.5t24.5 9.5h139q15 0 24 -9.5t9 -23.5v-927q0 -574 482 -574q178 0 328 86.5t237.5 236.5t87.5 329v849q0 14 9.5 23.5t23.5 9.5h140z
" />
    <glyph glyph-name="ucircumflex" unicode="&#xfb;" 
d="M508 1919q-22 0 -28 11.5t10 27.5l422 464q18 18 45 18h102q28 0 46 -18l422 -464q15 -16 9.5 -27.5t-27.5 -11.5h-151q-27 0 -45 19l-305 349l-304 -349q-18 -19 -43 -19h-153zM1749 1678q14 0 23.5 -9.5t9.5 -23.5v-1612q0 -14 -9.5 -23.5t-23.5 -9.5h-140
q-14 0 -23.5 9.5t-9.5 23.5v357q-32 -62 -78 -121.5t-112.5 -116t-143.5 -99t-175 -68t-203 -25.5q-161 0 -283 49.5t-197 140.5t-112 214.5t-37 277.5v1003q0 14 9.5 23.5t24.5 9.5h139q15 0 24 -9.5t9 -23.5v-927q0 -574 482 -574q178 0 328 86.5t237.5 236.5t87.5 329
v849q0 14 9.5 23.5t23.5 9.5h140z" />
    <glyph glyph-name="udieresis" unicode="&#xfc;" 
d="M661 2019q-59 0 -101.5 42.5t-42.5 101.5t42.5 102t101.5 43t102 -43t43 -102t-43 -101.5t-102 -42.5zM1362 2019q-59 0 -101.5 42.5t-42.5 101.5t42.5 102t101.5 43t102 -43t43 -102t-43 -101.5t-102 -42.5zM1749 1678q14 0 23.5 -9.5t9.5 -23.5v-1612q0 -14 -9.5 -23.5
t-23.5 -9.5h-140q-14 0 -23.5 9.5t-9.5 23.5v357q-32 -62 -78 -121.5t-112.5 -116t-143.5 -99t-175 -68t-203 -25.5q-161 0 -283 49.5t-197 140.5t-112 214.5t-37 277.5v1003q0 14 9.5 23.5t24.5 9.5h139q15 0 24 -9.5t9 -23.5v-927q0 -574 482 -574q178 0 328 86.5
t237.5 236.5t87.5 329v849q0 14 9.5 23.5t23.5 9.5h140z" />
    <glyph glyph-name="yacute" unicode="&#xfd;" horiz-adv-x="1722" 
d="M717 1925l-43 72q-6 10 -3 24.5t15 22.5l618 458q12 7 25.5 4t21.5 -13l65 -108q7 -10 4 -24t-16 -21l-639 -427q-12 -7 -26 -3.5t-22 15.5zM1642 1678q24 0 34.5 -18.5t-1.5 -42.5l-744 -1621q-70 -157 -128 -272t-122 -218.5t-125.5 -172t-132 -119t-148 -73.5
t-167.5 -23q-37 0 -37 34v103q0 30 31 33q182 9 332 194.5t356 645.5l-743 1489q-13 24 -2.5 42.5t36.5 18.5h151q20 0 31 -22l624 -1311l588 1311q9 22 34 22h133z" />
    <glyph glyph-name="thorn" unicode="&#xfe;" horiz-adv-x="2123" 
d="M1093 1708q112 0 219.5 -28t201.5 -80t173 -129.5t135.5 -172.5t88 -212.5t31.5 -246.5t-31.5 -246.5t-88 -212.5t-135.5 -172.5t-173 -129.5t-201.5 -80t-219.5 -28q-218 0 -386 104t-266 288v-1211q0 -14 -9.5 -23.5t-23.5 -9.5h-140q-14 0 -23.5 9.5t-9.5 23.5v2494
v882q0 14 9.5 23.5t24.5 9.5h139q15 0 24.5 -9.5t9.5 -23.5v-1209q98 184 265.5 287t385.5 103zM1074 155q132 0 250 48t207.5 134.5t142 216.5t52.5 285t-52.5 285t-142 216.5t-207.5 134.5t-250 48q-110 0 -210.5 -34t-180 -96.5t-139 -146.5t-91.5 -188.5t-32 -218.5
t32 -218.5t91.5 -188.5t139 -146.5t180 -96.5t210.5 -34z" />
    <glyph glyph-name="ydieresis" unicode="&#xff;" horiz-adv-x="1722" 
d="M512 2019q-59 0 -101.5 42.5t-42.5 101.5t42.5 102t101.5 43t102 -43t43 -102t-43 -101.5t-102 -42.5zM1213 2019q-59 0 -101.5 42.5t-42.5 101.5t42.5 102t101.5 43t102 -43t43 -102t-43 -101.5t-102 -42.5zM1642 1678q24 0 34.5 -18.5t-1.5 -42.5l-744 -1621
q-70 -157 -128 -272t-122 -218.5t-125.5 -172t-132 -119t-148 -73.5t-167.5 -23q-37 0 -37 34v103q0 30 31 33q182 9 332 194.5t356 645.5l-743 1489q-13 24 -2.5 42.5t36.5 18.5h151q20 0 31 -22l624 -1311l588 1311q9 22 34 22h133z" />
    <glyph glyph-name="Amacron" unicode="&#x100;" horiz-adv-x="2476" 
d="M734 2851q-14 0 -24 10.5t-10 23.5v86q0 13 10 23.5t24 10.5h1010q14 0 24 -10.5t10 -23.5v-86q0 -13 -10 -23.5t-24 -10.5h-1010zM2392 39q8 -19 0.5 -29t-26.5 -10h-177q-29 0 -39 26l-320 740h-1206l-335 -740q-12 -26 -39 -26h-158q-19 0 -27.5 10.5t-0.5 28.5
l1114 2415q12 26 39 26h55q28 0 40 -26zM704 941h1050l-513 1186z" />
    <glyph glyph-name="amacron" unicode="&#x101;" horiz-adv-x="1754" 
d="M406 2089q-14 0 -24 10.5t-10 23.5v86q0 13 10 23.5t24 10.5h1010q14 0 24 -10.5t10 -23.5v-86q0 -13 -10 -23.5t-24 -10.5h-1010zM1630 56q12 -36 -20 -48l-97 -34q-20 -7 -33 5q-106 161 -146 360q-89 -165 -253 -267t-372 -102q-247 0 -398 140t-151 351
q0 200 137.5 338t394.5 183.5t624 -36.5v106q0 121 -20.5 206t-69 146t-131.5 90t-204 29q-140 0 -259 -35t-261 -107q-13 -6 -26 -1t-19 18l-47 103q-14 32 16 45q163 82 307.5 122t308.5 40q142 0 248.5 -30.5t175 -84t111 -134.5t59.5 -173.5t17 -210.5v-475
q0 -124 15.5 -225t34.5 -160t58 -159zM759 145q156 0 286 78t200.5 199t70.5 252v127q-243 56 -420.5 54.5t-293 -55t-171 -136.5t-55.5 -189q0 -150 107.5 -240t275.5 -90z" />
    <glyph glyph-name="Abreve" unicode="&#x102;" horiz-adv-x="2476" 
d="M1239 2661q-145 0 -266 58.5t-194.5 170t-73.5 253.5q0 35 31 35h91q14 0 25 -7.5t12 -20.5q5 -102 60.5 -176t137 -107.5t177.5 -33.5q95 0 176.5 33.5t137.5 107.5t60 176q1 13 12.5 20.5t25.5 7.5h90q32 0 32 -35q0 -142 -73.5 -253.5t-194.5 -170t-266 -58.5z
M2392 39q8 -19 0.5 -29t-26.5 -10h-177q-29 0 -39 26l-320 740h-1206l-335 -740q-12 -26 -39 -26h-158q-19 0 -27.5 10.5t-0.5 28.5l1114 2415q12 26 39 26h55q28 0 40 -26zM704 941h1050l-513 1186z" />
    <glyph glyph-name="abreve" unicode="&#x103;" horiz-adv-x="1754" 
d="M911 1899q-145 0 -266 58.5t-194.5 170t-73.5 253.5q0 35 31 35h91q14 0 25 -7.5t12 -20.5q5 -102 60.5 -176t137 -107.5t177.5 -33.5q95 0 176.5 33.5t137.5 107.5t60 176q1 13 12.5 20.5t25.5 7.5h90q32 0 32 -35q0 -142 -73.5 -253.5t-194.5 -170t-266 -58.5zM1630 56
q12 -36 -20 -48l-97 -34q-20 -7 -33 5q-106 161 -146 360q-89 -165 -253 -267t-372 -102q-247 0 -398 140t-151 351q0 200 137.5 338t394.5 183.5t624 -36.5v106q0 121 -20.5 206t-69 146t-131.5 90t-204 29q-140 0 -259 -35t-261 -107q-13 -6 -26 -1t-19 18l-47 103
q-14 32 16 45q163 82 307.5 122t308.5 40q142 0 248.5 -30.5t175 -84t111 -134.5t59.5 -173.5t17 -210.5v-475q0 -124 15.5 -225t34.5 -160t58 -159zM759 145q156 0 286 78t200.5 199t70.5 252v127q-243 56 -420.5 54.5t-293 -55t-171 -136.5t-55.5 -189q0 -150 107.5 -240
t275.5 -90z" />
    <glyph glyph-name="Aogonek" unicode="&#x104;" horiz-adv-x="2476" 
d="M2301 0q-343 -207 -343 -466q0 -107 59 -169.5t167 -62.5q92 0 159 31q42 13 42 -26v-65q0 -27 -26 -39q-95 -42 -214 -42q-171 0 -261.5 93t-90.5 241q0 156 96 300.5t259 235.5l-318 735h-1206l-335 -740q-12 -26 -39 -26h-158q-19 0 -27.5 10.5t-0.5 28.5l1114 2415
q12 26 39 26h55q28 0 40 -26l1080 -2415q8 -19 0.5 -29t-26.5 -10h-65zM704 941h1050l-513 1186z" />
    <glyph glyph-name="aogonek" unicode="&#x105;" horiz-adv-x="1844" 
d="M1602 -659q42 13 42 -26v-65q0 -29 -26 -39q-92 -42 -209 -42q-170 0 -253 89.5t-83 239.5q0 141 107 279t277 250q-80 148 -109 309q-90 -164 -253.5 -265t-370.5 -101q-123 0 -226 38t-172.5 104t-107.5 156t-38 193q0 200 136.5 338t392.5 183.5t622 -36.5v106
q0 121 -20.5 206t-69 146t-131.5 90t-204 29q-140 0 -259 -35t-260 -107q-13 -6 -26.5 -1t-19.5 18l-47 103q-14 32 16 45q163 82 307.5 122t308.5 40q142 0 248.5 -30.5t175 -84t111 -134.5t59.5 -173.5t17 -210.5v-475q0 -124 15.5 -225t34.5 -160t58 -159q10 -30 -18 -47
q-87 -58 -148.5 -106.5t-120.5 -109t-89.5 -125t-30.5 -131.5q0 -227 210 -227q87 0 154 31zM774 145q156 0 286 78t200.5 199t70.5 252v127q-243 56 -419.5 54.5t-291 -55t-169.5 -136.5t-55 -189q0 -150 105 -240t273 -90z" />
    <glyph glyph-name="Cacute" unicode="&#x106;" horiz-adv-x="2609" 
d="M1276 2687l-43 72q-6 10 -3 24.5t15 22.5l618 458q12 7 25.5 4t21.5 -13l65 -108q7 -10 4 -24t-16 -21l-639 -427q-12 -7 -26 -3.5t-22 15.5zM2408 652q32 -14 16 -47q-318 -635 -1004 -635q-192 0 -372.5 55.5t-333.5 163.5t-268 257.5t-180 349t-65 424.5t65 424.5
t180 349t268 257.5t333.5 163.5t372.5 55.5q686 0 1004 -635q16 -33 -16 -47l-114 -55q-32 -14 -47 18q-270 534 -827 534q-207 0 -389.5 -77.5t-316 -215t-210.5 -338t-77 -434.5t77 -434.5t210.5 -338t316 -215t389.5 -77.5q557 0 827 534q15 32 47 18z" />
    <glyph glyph-name="cacute" unicode="&#x107;" horiz-adv-x="1953" 
d="M913 1925l-43 72q-6 10 -3 24.5t15 22.5l618 458q12 7 25.5 4t21.5 -13l65 -108q7 -10 4 -24t-16 -21l-639 -427q-12 -7 -26 -3.5t-22 15.5zM1761 458q31 -15 16 -46q-94 -200 -276.5 -321t-448.5 -121q-179 0 -339 62.5t-277.5 174t-186.5 275.5t-69 357t69 357
t186.5 275.5t277.5 174t339 62.5q266 0 448.5 -120.5t276.5 -321.5q15 -31 -16 -45l-121 -57q-27 -13 -45 15q-172 344 -531 344q-142 0 -264.5 -48t-212 -135t-140.5 -216.5t-51 -284.5t51 -284.5t140.5 -216.5t212 -135t264.5 -48q366 0 531 344q18 28 45 15z" />
    <glyph glyph-name="Cdotaccent" unicode="&#x10a;" horiz-adv-x="2609" 
d="M1420 2780q-61 0 -104.5 43.5t-43.5 104.5t43.5 104.5t104.5 43.5t104.5 -43.5t43.5 -104.5t-43.5 -104.5t-104.5 -43.5zM2408 652q32 -14 16 -47q-318 -635 -1004 -635q-192 0 -372.5 55.5t-333.5 163.5t-268 257.5t-180 349t-65 424.5t65 424.5t180 349t268 257.5
t333.5 163.5t372.5 55.5q686 0 1004 -635q16 -33 -16 -47l-114 -55q-32 -14 -47 18q-270 534 -827 534q-207 0 -389.5 -77.5t-316 -215t-210.5 -338t-77 -434.5t77 -434.5t210.5 -338t316 -215t389.5 -77.5q557 0 827 534q15 32 47 18z" />
    <glyph glyph-name="cdotaccent" unicode="&#x10b;" horiz-adv-x="1953" 
d="M1057 2018q-61 0 -104.5 43.5t-43.5 104.5t43.5 104.5t104.5 43.5t104.5 -43.5t43.5 -104.5t-43.5 -104.5t-104.5 -43.5zM1761 458q31 -15 16 -46q-94 -200 -276.5 -321t-448.5 -121q-179 0 -339 62.5t-277.5 174t-186.5 275.5t-69 357t69 357t186.5 275.5t277.5 174
t339 62.5q266 0 448.5 -120.5t276.5 -321.5q15 -31 -16 -45l-121 -57q-27 -13 -45 15q-172 344 -531 344q-142 0 -264.5 -48t-212 -135t-140.5 -216.5t-51 -284.5t51 -284.5t140.5 -216.5t212 -135t264.5 -48q366 0 531 344q18 28 45 15z" />
    <glyph glyph-name="Ccaron" unicode="&#x10c;" horiz-adv-x="2609" 
d="M1322 2696l-422 464q-16 16 -10 27.5t28 11.5h153q25 0 43 -19l304 -349l305 349q18 19 45 19h151q22 0 27.5 -11.5t-9.5 -27.5l-422 -464q-18 -18 -46 -18h-102q-27 0 -45 18zM2408 652q32 -14 16 -47q-318 -635 -1004 -635q-192 0 -372.5 55.5t-333.5 163.5t-268 257.5
t-180 349t-65 424.5t65 424.5t180 349t268 257.5t333.5 163.5t372.5 55.5q686 0 1004 -635q16 -33 -16 -47l-114 -55q-32 -14 -47 18q-270 534 -827 534q-207 0 -389.5 -77.5t-316 -215t-210.5 -338t-77 -434.5t77 -434.5t210.5 -338t316 -215t389.5 -77.5q557 0 827 534
q15 32 47 18z" />
    <glyph glyph-name="ccaron" unicode="&#x10d;" horiz-adv-x="1953" 
d="M959 1934l-422 464q-16 16 -10 27.5t28 11.5h153q25 0 43 -19l304 -349l305 349q18 19 45 19h151q22 0 27.5 -11.5t-9.5 -27.5l-422 -464q-18 -18 -46 -18h-102q-27 0 -45 18zM1761 458q31 -15 16 -46q-94 -200 -276.5 -321t-448.5 -121q-179 0 -339 62.5t-277.5 174
t-186.5 275.5t-69 357t69 357t186.5 275.5t277.5 174t339 62.5q266 0 448.5 -120.5t276.5 -321.5q15 -31 -16 -45l-121 -57q-27 -13 -45 15q-172 344 -531 344q-142 0 -264.5 -48t-212 -135t-140.5 -216.5t-51 -284.5t51 -284.5t140.5 -216.5t212 -135t264.5 -48
q366 0 531 344q18 28 45 15z" />
    <glyph glyph-name="Dcaron" unicode="&#x10e;" horiz-adv-x="2552" 
d="M1072 2696l-422 464q-16 16 -10 27.5t28 11.5h153q25 0 43 -19l304 -349l305 349q18 19 45 19h151q22 0 27.5 -11.5t-9.5 -27.5l-422 -464q-18 -18 -46 -18h-102q-27 0 -45 18zM1112 2440q204 0 389.5 -51.5t340.5 -154t269 -247.5t177.5 -341.5t63.5 -425.5
t-63.5 -425.5t-177.5 -341.5t-269 -247.5t-340.5 -154t-389.5 -51.5h-749h-95q-13 0 -23 10t-10 23v2374q0 13 10 23t23 10h150h694zM1093 185q223 0 413 71.5t327.5 202.5t215 326.5t77.5 434.5t-77.5 434.5t-215 326.5t-327.5 202.5t-413 71.5h-642v-2070h642z" />
    <glyph glyph-name="dcaron" unicode="&#x10f;" horiz-adv-x="2480" 
d="M2269 2597q55 0 98.5 -39.5t43.5 -124.5q0 -122 -72.5 -280t-187.5 -251q-22 -17 -43 6l-10 12q-16 23 4 44q60 59 99 135.5t39 156.5q0 32 -11 48.5t-41 38.5q-60 43 -60 111q0 59 41.5 101t99.5 42zM1855 2560q14 0 23.5 -9.5t9.5 -23.5v-2494q0 -14 -9.5 -23.5
t-23.5 -9.5h-140q-14 0 -23.5 9.5t-9.5 23.5v329q-98 -184 -266 -288t-386 -104q-112 0 -219.5 28t-201.5 80t-173 129.5t-135.5 172.5t-88 212.5t-31.5 246.5t31.5 246.5t88 212.5t135.5 172.5t173 129.5t201.5 80t219.5 28q218 0 386 -104t266 -288v1211q0 14 9.5 23.5
t23.5 9.5h140zM1049 155q110 0 210.5 34t180 96.5t139 146.5t91.5 188.5t32 218.5t-32 218.5t-91.5 188.5t-139 146.5t-180 96.5t-210.5 34q-132 0 -250 -48t-207.5 -134.5t-142 -216.5t-52.5 -285t52.5 -285t142 -216.5t207.5 -134.5t250 -48z" />
    <glyph glyph-name="Dcroat" unicode="&#x110;" horiz-adv-x="2552" 
d="M1112 2440q204 0 389.5 -51.5t340.5 -154t269 -247.5t177.5 -341.5t63.5 -425.5t-63.5 -425.5t-177.5 -341.5t-269 -247.5t-340.5 -154t-389.5 -51.5h-749h-95q-13 0 -23 10t-10 23v1101h-302q-14 0 -23.5 9t-9.5 24v98q0 15 9.5 24.5t23.5 9.5h302v1108q0 13 10 23
t23 10h150h694zM1093 185q223 0 413 71.5t327.5 202.5t215 326.5t77.5 434.5t-77.5 434.5t-215 326.5t-327.5 202.5t-413 71.5h-642v-956h666q15 0 24.5 -9.5t9.5 -24.5v-98q0 -15 -9.5 -24t-24.5 -9h-666v-949h642z" />
    <glyph glyph-name="dcroat" unicode="&#x111;" horiz-adv-x="2306" 
d="M2232 2159q15 0 24.5 -9.5t9.5 -24.5v-59q0 -15 -9.5 -24t-24.5 -9h-344v-2000q0 -14 -9.5 -23.5t-23.5 -9.5h-140q-14 0 -23.5 9.5t-9.5 23.5v329q-98 -184 -266 -288t-386 -104q-112 0 -219.5 28t-201.5 80t-173 129.5t-135.5 172.5t-88 212.5t-31.5 246.5t31.5 246.5
t88 212.5t135.5 172.5t173 129.5t201.5 80t219.5 28q218 0 386 -104t266 -288v717h-474q-15 0 -24.5 9t-9.5 24v59q0 15 9.5 24.5t24.5 9.5h474v368q0 14 9.5 23.5t23.5 9.5h140q14 0 23.5 -9.5t9.5 -23.5v-368h344zM1049 155q110 0 210.5 34t180 96.5t139 146.5t91.5 188.5
t32 218.5t-32 218.5t-91.5 188.5t-139 146.5t-180 96.5t-210.5 34q-132 0 -250 -48t-207.5 -134.5t-142 -216.5t-52.5 -285t52.5 -285t142 -216.5t207.5 -134.5t250 -48z" />
    <glyph glyph-name="Emacron" unicode="&#x112;" horiz-adv-x="2187" 
d="M611 2851q-13 0 -23.5 10.5t-10.5 23.5v86q0 13 10.5 23.5t23.5 10.5h1010q13 0 23.5 -10.5t10.5 -23.5v-86q0 -13 -10.5 -23.5t-23.5 -10.5h-1010zM1958 185q15 0 24.5 -9.5t9.5 -24.5v-118q0 -14 -9.5 -23.5t-24.5 -9.5h-1599h-91q-13 0 -23 10t-10 23v2374q0 13 10 23
t23 10h150h1500q15 0 24.5 -9.5t9.5 -23.5v-118q0 -15 -9.5 -24.5t-24.5 -9.5h-1467v-896h1307q15 0 24.5 -9.5t9.5 -24.5v-118q0 -14 -9.5 -23.5t-24.5 -9.5h-1307v-989h1507z" />
    <glyph glyph-name="emacron" unicode="&#x113;" horiz-adv-x="1997" 
d="M486 2089q-14 0 -24 10.5t-10 23.5v86q0 13 10 23.5t24 10.5h1010q14 0 24 -10.5t10 -23.5v-86q0 -13 -10 -23.5t-24 -10.5h-1010zM1752 448q31 -14 16 -45q-102 -214 -289.5 -323.5t-439.5 -109.5q-140 0 -269.5 39.5t-236.5 115.5t-186 180.5t-123 242t-44 291.5
q0 256 113.5 456t305.5 306.5t427 106.5q171 0 314 -54t250 -158.5t167 -270t60 -376.5h-1421v-10q0 -124 34 -233t95 -191t142.5 -141t179 -89t202.5 -30q386 0 537 334q16 30 45 16zM1026 1533q-227 0 -397.5 -143.5t-217.5 -385.5h1168q-10 132 -57.5 234.5t-122.5 166
t-169.5 96t-203.5 32.5z" />
    <glyph glyph-name="Edotaccent" unicode="&#x116;" horiz-adv-x="2187" 
d="M1116 2780q-61 0 -104.5 43.5t-43.5 104.5t43.5 104.5t104.5 43.5t104.5 -43.5t43.5 -104.5t-43.5 -104.5t-104.5 -43.5zM1958 185q15 0 24.5 -9.5t9.5 -24.5v-118q0 -14 -9.5 -23.5t-24.5 -9.5h-1599h-91q-13 0 -23 10t-10 23v2374q0 13 10 23t23 10h150h1500
q15 0 24.5 -9.5t9.5 -23.5v-118q0 -15 -9.5 -24.5t-24.5 -9.5h-1467v-896h1307q15 0 24.5 -9.5t9.5 -24.5v-118q0 -14 -9.5 -23.5t-24.5 -9.5h-1307v-989h1507z" />
    <glyph glyph-name="edotaccent" unicode="&#x117;" horiz-adv-x="1997" 
d="M991 2018q-61 0 -104.5 43.5t-43.5 104.5t43.5 104.5t104.5 43.5t104.5 -43.5t43.5 -104.5t-43.5 -104.5t-104.5 -43.5zM1752 448q31 -14 16 -45q-102 -214 -289.5 -323.5t-439.5 -109.5q-140 0 -269.5 39.5t-236.5 115.5t-186 180.5t-123 242t-44 291.5q0 256 113.5 456
t305.5 306.5t427 106.5q171 0 314 -54t250 -158.5t167 -270t60 -376.5h-1421v-10q0 -124 34 -233t95 -191t142.5 -141t179 -89t202.5 -30q386 0 537 334q16 30 45 16zM1026 1533q-227 0 -397.5 -143.5t-217.5 -385.5h1168q-10 132 -57.5 234.5t-122.5 166t-169.5 96
t-203.5 32.5z" />
    <glyph glyph-name="Eogonek" unicode="&#x118;" horiz-adv-x="2187" 
d="M1958 185q15 0 24.5 -9.5t9.5 -24.5v-118q0 -14 -9.5 -23.5t-24.5 -9.5h-91q-343 -207 -343 -466q0 -107 59 -169.5t167 -62.5q92 0 159 31q42 13 42 -26v-65q0 -27 -26 -39q-95 -42 -214 -42q-171 0 -261.5 93t-90.5 241q0 143 81.5 277.5t222.5 227.5h-1304h-91
q-13 0 -23 10t-10 23v2374q0 13 10 23t23 10h150h1500q15 0 24.5 -9.5t9.5 -23.5v-118q0 -15 -9.5 -24.5t-24.5 -9.5h-1467v-896h1307q15 0 24.5 -9.5t9.5 -24.5v-118q0 -14 -9.5 -23.5t-24.5 -9.5h-1307v-989h1507z" />
    <glyph glyph-name="eogonek" unicode="&#x119;" horiz-adv-x="1997" 
d="M1752 448q31 -14 16 -45q-133 -280 -414 -382q-322 -211 -322 -466q0 -108 58.5 -170t167.5 -62q90 0 159 30q19 7 30 0.5t11 -25.5v-65q0 -28 -25 -40q-92 -42 -215 -42q-170 0 -260.5 93.5t-90.5 240.5q0 126 63 245.5t175 211.5q-44 -2 -66 -2q-140 0 -269.5 39.5
t-236.5 115.5t-186 180.5t-123 242t-44 291.5q0 256 113.5 456t305.5 306.5t427 106.5q171 0 314 -54t250 -158.5t167 -270t60 -376.5h-1421v-10q0 -124 34 -233t95 -191t142.5 -141t179 -89t202.5 -30q386 0 537 334q16 30 45 16zM1026 1533q-227 0 -397.5 -143.5
t-217.5 -385.5h1168q-10 132 -57.5 234.5t-122.5 166t-169.5 96t-203.5 32.5z" />
    <glyph glyph-name="Ecaron" unicode="&#x11a;" horiz-adv-x="2187" 
d="M1018 2696l-422 464q-16 16 -10 27.5t28 11.5h153q25 0 43 -19l304 -349l305 349q18 19 45 19h151q22 0 27.5 -11.5t-9.5 -27.5l-422 -464q-18 -18 -46 -18h-102q-27 0 -45 18zM1958 185q15 0 24.5 -9.5t9.5 -24.5v-118q0 -14 -9.5 -23.5t-24.5 -9.5h-1599h-91
q-13 0 -23 10t-10 23v2374q0 13 10 23t23 10h150h1500q15 0 24.5 -9.5t9.5 -23.5v-118q0 -15 -9.5 -24.5t-24.5 -9.5h-1467v-896h1307q15 0 24.5 -9.5t9.5 -24.5v-118q0 -14 -9.5 -23.5t-24.5 -9.5h-1307v-989h1507z" />
    <glyph glyph-name="ecaron" unicode="&#x11b;" horiz-adv-x="1997" 
d="M893 1934l-422 464q-16 16 -10 27.5t28 11.5h153q25 0 43 -19l304 -349l305 349q18 19 45 19h151q22 0 27.5 -11.5t-9.5 -27.5l-422 -464q-18 -18 -46 -18h-102q-27 0 -45 18zM1752 448q31 -14 16 -45q-102 -214 -289.5 -323.5t-439.5 -109.5q-140 0 -269.5 39.5
t-236.5 115.5t-186 180.5t-123 242t-44 291.5q0 256 113.5 456t305.5 306.5t427 106.5q171 0 314 -54t250 -158.5t167 -270t60 -376.5h-1421v-10q0 -124 34 -233t95 -191t142.5 -141t179 -89t202.5 -30q386 0 537 334q16 30 45 16zM1026 1533q-227 0 -397.5 -143.5
t-217.5 -385.5h1168q-10 132 -57.5 234.5t-122.5 166t-169.5 96t-203.5 32.5z" />
    <glyph glyph-name="Gbreve" unicode="&#x11e;" horiz-adv-x="2665" 
d="M1399 2661q-145 0 -266 58.5t-194.5 170t-73.5 253.5q0 35 31 35h91q14 0 25 -7.5t12 -20.5q5 -102 60.5 -176t137 -107.5t177.5 -33.5q95 0 176.5 33.5t137.5 107.5t60 176q1 13 12.5 20.5t25.5 7.5h90q32 0 32 -35q0 -142 -73.5 -253.5t-194.5 -170t-266 -58.5z
M2396 1070q15 0 24.5 -9.5t9.5 -24.5v-754q-228 -157 -470 -234.5t-540 -77.5q-192 0 -372.5 55.5t-333.5 163.5t-268 257.5t-180 349t-65 424.5t65 424.5t180 349t268 257.5t333.5 163.5t372.5 55.5q334 0 573 -133.5t421 -426.5q19 -31 -16 -48l-115 -54q-31 -14 -47 18
q-154 242 -351 350.5t-465 108.5q-207 0 -389.5 -77.5t-316 -215t-210.5 -338t-77 -434.5t77 -434.5t210.5 -338t316 -215t389.5 -77.5q239 0 429.5 50.5t383.5 162.5v668q0 15 9.5 24.5t24.5 9.5h129z" />
    <glyph glyph-name="gbreve" unicode="&#x11f;" horiz-adv-x="1897" 
d="M949 1899q-145 0 -266 58.5t-194.5 170t-73.5 253.5q0 35 31 35h91q14 0 25 -7.5t12 -20.5q5 -102 60.5 -176t137 -107.5t177.5 -33.5q95 0 176.5 33.5t137.5 107.5t60 176q1 13 12.5 20.5t25.5 7.5h90q32 0 32 -35q0 -142 -73.5 -253.5t-194.5 -170t-266 -58.5z
M1797 1748q16 0 22.5 -6t6.5 -22v-131q0 -27 -27 -27q-86 0 -154.5 -38t-105.5 -109q83 -133 83 -287q0 -118 -50 -224t-138 -184.5t-215 -124.5t-273 -46h-231q-162 0 -242.5 -56t-80.5 -143q0 -194 323 -194h289q387 0 592.5 -136.5t205.5 -382.5q0 -116 -49.5 -213
t-146 -170t-250.5 -114t-352 -41q-197 0 -351 37.5t-251 105t-147 158t-50 198.5q0 140 89 248t244 174q-333 45 -333 310q0 119 84 203.5t254 120.5q-131 79 -204.5 204t-73.5 270q0 159 85.5 291.5t241.5 210.5t352 78q150 0 277.5 -46.5t219.5 -130.5q57 104 152 160.5
t204 56.5zM944 714q199 0 335.5 119t136.5 295t-136.5 295.5t-335.5 119.5q-200 0 -336.5 -119.5t-136.5 -295.5t136.5 -295t336.5 -119zM1605 -376q0 165 -153.5 266t-447.5 101q-174 0 -312 -48t-214 -131.5t-76 -187.5q0 -170 153.5 -270t448.5 -100q296 0 448.5 99.5
t152.5 270.5z" />
    <glyph glyph-name="Gdotaccent" unicode="&#x120;" horiz-adv-x="2665" 
d="M1399 2780q-61 0 -104.5 43.5t-43.5 104.5t43.5 104.5t104.5 43.5t104.5 -43.5t43.5 -104.5t-43.5 -104.5t-104.5 -43.5zM2396 1070q15 0 24.5 -9.5t9.5 -24.5v-754q-228 -157 -470 -234.5t-540 -77.5q-192 0 -372.5 55.5t-333.5 163.5t-268 257.5t-180 349t-65 424.5
t65 424.5t180 349t268 257.5t333.5 163.5t372.5 55.5q334 0 573 -133.5t421 -426.5q19 -31 -16 -48l-115 -54q-31 -14 -47 18q-154 242 -351 350.5t-465 108.5q-207 0 -389.5 -77.5t-316 -215t-210.5 -338t-77 -434.5t77 -434.5t210.5 -338t316 -215t389.5 -77.5
q239 0 429.5 50.5t383.5 162.5v668q0 15 9.5 24.5t24.5 9.5h129z" />
    <glyph glyph-name="gdotaccent" unicode="&#x121;" horiz-adv-x="1897" 
d="M949 2018q-61 0 -104.5 43.5t-43.5 104.5t43.5 104.5t104.5 43.5t104.5 -43.5t43.5 -104.5t-43.5 -104.5t-104.5 -43.5zM1797 1748q16 0 22.5 -6t6.5 -22v-131q0 -27 -27 -27q-86 0 -154.5 -38t-105.5 -109q83 -133 83 -287q0 -118 -50 -224t-138 -184.5t-215 -124.5
t-273 -46h-231q-162 0 -242.5 -56t-80.5 -143q0 -194 323 -194h289q387 0 592.5 -136.5t205.5 -382.5q0 -116 -49.5 -213t-146 -170t-250.5 -114t-352 -41q-197 0 -351 37.5t-251 105t-147 158t-50 198.5q0 140 89 248t244 174q-333 45 -333 310q0 119 84 203.5t254 120.5
q-131 79 -204.5 204t-73.5 270q0 159 85.5 291.5t241.5 210.5t352 78q150 0 277.5 -46.5t219.5 -130.5q57 104 152 160.5t204 56.5zM944 714q199 0 335.5 119t136.5 295t-136.5 295.5t-335.5 119.5q-200 0 -336.5 -119.5t-136.5 -295.5t136.5 -295t336.5 -119zM1605 -376
q0 165 -153.5 266t-447.5 101q-174 0 -312 -48t-214 -131.5t-76 -187.5q0 -170 153.5 -270t448.5 -100q296 0 448.5 99.5t152.5 270.5z" />
    <glyph glyph-name="Gcommaaccent" unicode="&#x122;" horiz-adv-x="2665" 
d="M2396 1070q15 0 24.5 -9.5t9.5 -24.5v-754q-228 -157 -470 -234.5t-540 -77.5q-192 0 -372.5 55.5t-333.5 163.5t-268 257.5t-180 349t-65 424.5t65 424.5t180 349t268 257.5t333.5 163.5t372.5 55.5q334 0 573 -133.5t421 -426.5q19 -31 -16 -48l-115 -54
q-31 -14 -47 18q-154 242 -351 350.5t-465 108.5q-207 0 -389.5 -77.5t-316 -215t-210.5 -338t-77 -434.5t77 -434.5t210.5 -338t316 -215t389.5 -77.5q239 0 429.5 50.5t383.5 162.5v668q0 15 9.5 24.5t24.5 9.5h129zM1322 -246q55 0 98.5 -39.5t43.5 -124.5
q0 -122 -72.5 -280t-187.5 -251q-22 -17 -43 6l-10 12q-16 23 4 44q60 59 99 135.5t39 156.5q0 32 -11 48.5t-41 38.5q-60 43 -60 111q0 59 41.5 101t99.5 42z" />
    <glyph glyph-name="gcommaaccent" unicode="&#x123;" horiz-adv-x="1847" 
d="M987 2009q-55 0 -98.5 39.5t-43.5 124.5q0 122 72.5 280t187.5 251q22 17 43 -6l10 -12q16 -23 -4 -44q-60 -59 -99 -135.5t-39 -156.5q0 -32 11 -48.5t41 -38.5q60 -43 60 -111q0 -59 -41.5 -101t-99.5 -42zM1797 1748q16 0 22.5 -6t6.5 -22v-131q0 -27 -27 -27
q-86 0 -154.5 -38t-105.5 -109q83 -133 83 -287q0 -118 -50 -224t-138 -184.5t-215 -124.5t-273 -46h-231q-162 0 -242.5 -56t-80.5 -143q0 -194 323 -194h289q387 0 592.5 -136.5t205.5 -382.5q0 -116 -49.5 -213t-146 -170t-250.5 -114t-352 -41q-197 0 -351 37.5
t-251 105t-147 158t-50 198.5q0 140 89 248t244 174q-333 45 -333 310q0 119 84 203.5t254 120.5q-131 79 -204.5 204t-73.5 270q0 159 85.5 291.5t241.5 210.5t352 78q150 0 277.5 -46.5t219.5 -130.5q57 104 152 160.5t204 56.5zM944 714q199 0 335.5 119t136.5 295
t-136.5 295.5t-335.5 119.5q-200 0 -336.5 -119.5t-136.5 -295.5t136.5 -295t336.5 -119zM1605 -376q0 165 -153.5 266t-447.5 101q-174 0 -312 -48t-214 -131.5t-76 -187.5q0 -170 153.5 -270t448.5 -100q296 0 448.5 99.5t152.5 270.5z" />
    <glyph glyph-name="Hbar" unicode="&#x126;" horiz-adv-x="2617" 
d="M2583 1988q15 0 24.5 -9t9.5 -24v-98q0 -15 -9.5 -24.5t-24.5 -9.5h-236v-1790q0 -13 -10 -23t-23 -10h-150q-13 0 -23 10t-10 23v1141h-1645v-1141q0 -13 -10 -23t-23 -10h-150q-13 0 -23 10t-10 23v1790h-237q-14 0 -23.5 9.5t-9.5 24.5v98q0 15 9.5 24t23.5 9h237v419
q0 13 10 23t23 10h150q13 0 23 -10t10 -23v-419h1645v419q0 13 10 23t23 10h150q13 0 23 -10t10 -23v-419h236zM2131 1359v464h-1645v-464h1645z" />
    <glyph glyph-name="hbar" unicode="&#x127;" horiz-adv-x="2182" 
d="M1318 1718q161 0 283 -49.5t197 -140.5t112 -214.5t37 -277.5v-1003q0 -14 -9.5 -23.5t-24.5 -9.5h-139q-15 0 -24 9.5t-9 23.5v927q0 574 -482 574q-163 0 -304 -73.5t-231.5 -202t-111.5 -286.5v-939q0 -14 -9.5 -23.5t-24.5 -9.5h-139q-15 0 -24.5 9.5t-9.5 23.5v2000
h-332q-14 0 -23.5 9t-9.5 24v59q0 15 9.5 24.5t23.5 9.5h332v368q0 14 9.5 23.5t24.5 9.5h139q15 0 24.5 -9.5t9.5 -23.5v-368h486q14 0 23.5 -9.5t9.5 -24.5v-59q0 -15 -9.5 -24t-23.5 -9h-486v-733q42 78 106 149t151.5 133t204.5 99t244 37z" />
    <glyph glyph-name="Imacron" unicode="&#x12a;" horiz-adv-x="687" 
d="M-196 2971q0 13 10 23.5t24 10.5h1010q14 0 24 -10.5t10 -23.5v-86q0 -13 -10 -23.5t-24 -10.5h-1010q-14 0 -24 10.5t-10 23.5v86zM235 2407q0 13 10.5 23t23.5 10h149q13 0 23 -10t10 -23v-2374q0 -13 -10 -23t-23 -10h-149q-13 0 -23.5 10t-10.5 23v2374z" />
    <glyph glyph-name="imacron" unicode="&#x12b;" horiz-adv-x="667" 
d="M-205 2209q0 13 10.5 23.5t23.5 10.5h1010q13 0 23.5 -10.5t10.5 -23.5v-86q0 -13 -10.5 -23.5t-23.5 -10.5h-1010q-13 0 -23.5 10.5t-10.5 23.5v86zM230 1645q0 14 9.5 23.5t24.5 9.5h139q15 0 24 -9.5t9 -23.5v-1612q0 -14 -9 -23.5t-24 -9.5h-139q-15 0 -24.5 9.5
t-9.5 23.5v1612z" />
    <glyph glyph-name="Iogonek" unicode="&#x12e;" horiz-adv-x="687" 
d="M411 -667q42 13 42 -26v-65q0 -27 -26 -39q-95 -42 -214 -42q-171 0 -261.5 93t-90.5 241q0 160 101.5 308.5t272.5 237.5v2366q0 13 10.5 23t23.5 10h149q13 0 23 -10t10 -23v-2374q0 -13 -10 -23t-23 -10h-49q-343 -207 -343 -466q0 -107 59 -169.5t167 -62.5
q92 0 159 31z" />
    <glyph glyph-name="iogonek" unicode="&#x12f;" horiz-adv-x="667" 
d="M334 2018q-61 0 -104.5 43.5t-43.5 104.5t43.5 104.5t104.5 43.5t104.5 -43.5t43.5 -104.5t-43.5 -104.5t-104.5 -43.5zM408 -667q42 13 42 -26v-65q0 -27 -26 -39q-95 -42 -214 -42q-171 0 -261.5 93t-90.5 241q0 160 101 308t271 237v1605q0 14 9.5 23.5t24.5 9.5h139
q15 0 24 -9.5t9 -23.5v-1612q0 -14 -9 -23.5t-24 -9.5h-37q-343 -207 -343 -466q0 -107 59 -169.5t167 -62.5q92 0 159 31z" />
    <glyph glyph-name="Idotaccent" unicode="&#x130;" horiz-adv-x="687" 
d="M343 2780q-61 0 -104.5 43.5t-43.5 104.5t43.5 104.5t104.5 43.5t104.5 -43.5t43.5 -104.5t-43.5 -104.5t-104.5 -43.5zM235 2407q0 13 10.5 23t23.5 10h149q13 0 23 -10t10 -23v-2374q0 -13 -10 -23t-23 -10h-149q-13 0 -23.5 10t-10.5 23v2374z" />
    <glyph glyph-name="dotlessi" unicode="&#x131;" horiz-adv-x="667" 
d="M230 1645q0 14 9.5 23.5t24.5 9.5h139q15 0 24 -9.5t9 -23.5v-1612q0 -14 -9 -23.5t-24 -9.5h-139q-15 0 -24.5 9.5t-9.5 23.5v1612z" />
    <glyph glyph-name="Kcommaaccent" unicode="&#x136;" horiz-adv-x="2325" 
d="M418 2440q13 0 23 -10t10 -23v-2374q0 -13 -10 -23t-23 -10h-150q-13 0 -23 10t-10 23v2374q0 13 10 23t23 10h150zM2174 41q15 -16 9 -28.5t-28 -12.5h-191q-28 0 -45 20l-1156 1220l1150 1180q17 20 45 20h177q21 0 27 -12t-9 -29l-1119 -1149zM1107 -246
q55 0 98.5 -39.5t43.5 -124.5q0 -122 -72.5 -280t-187.5 -251q-22 -17 -43 6l-10 12q-16 23 4 44q60 59 99 135.5t39 156.5q0 32 -11 48.5t-41 38.5q-60 43 -60 111q0 59 41.5 101t99.5 42z" />
    <glyph glyph-name="kcommaaccent" unicode="&#x137;" horiz-adv-x="1759" 
d="M235 2527q0 14 9.5 23.5t24.5 9.5h139q15 0 24.5 -9.5t9.5 -23.5v-2494q0 -14 -9.5 -23.5t-24.5 -9.5h-139q-15 0 -24.5 9.5t-9.5 23.5v2494zM1463 0q-26 0 -45 22l-810 897l766 742q17 17 44 17h167q20 0 25.5 -12t-8.5 -27l-738 -710l784 -888q15 -17 9.5 -29
t-26.5 -12h-168zM842 -246q55 0 98.5 -39.5t43.5 -124.5q0 -122 -72.5 -280t-187.5 -251q-22 -17 -43 6l-10 12q-16 23 4 44q60 59 99 135.5t39 156.5q0 32 -11 48.5t-41 38.5q-60 43 -60 111q0 59 41.5 101t99.5 42z" />
    <glyph glyph-name="Lacute" unicode="&#x139;" horiz-adv-x="1973" 
d="M886 3102l-639 -427q-12 -7 -26 -3.5t-22 15.5l-43 72q-6 10 -3 24.5t15 22.5l618 458q12 7 25.5 4t21.5 -13l65 -108q7 -10 4 -24t-16 -21zM1844 185q15 0 24 -9.5t9 -24.5v-118q0 -14 -9 -23.5t-24 -9.5h-1485h-91q-13 0 -23 10t-10 23v2374q0 13 10 23t23 10h150
q13 0 23 -10t10 -23v-2222h1393z" />
    <glyph glyph-name="lacute" unicode="&#x13a;" horiz-adv-x="677" 
d="M243 2734q-12 -7 -26 -3.5t-22 15.5l-43 72q-6 10 -3 24.5t15 22.5l618 458q12 7 25.5 4t21.5 -13l65 -108q7 -10 4 -24t-16 -21zM235 2527q0 14 9.5 23.5t24.5 9.5h139q15 0 24.5 -9.5t9.5 -23.5v-2494q0 -14 -9.5 -23.5t-24.5 -9.5h-139q-15 0 -24.5 9.5t-9.5 23.5
v2494z" />
    <glyph glyph-name="Lcommaaccent" unicode="&#x13b;" horiz-adv-x="1973" 
d="M1844 185q15 0 24 -9.5t9 -24.5v-118q0 -14 -9 -23.5t-24 -9.5h-1485h-91q-13 0 -23 10t-10 23v2374q0 13 10 23t23 10h150q13 0 23 -10t10 -23v-2222h1393zM1006 -246q55 0 98.5 -39.5t43.5 -124.5q0 -122 -72.5 -280t-187.5 -251q-22 -17 -43 6l-10 12q-16 23 4 44
q60 59 99 135.5t39 156.5q0 32 -11 48.5t-41 38.5q-60 43 -60 111q0 59 41.5 101t99.5 42z" />
    <glyph glyph-name="lcommaaccent" unicode="&#x13c;" horiz-adv-x="677" 
d="M235 2527q0 14 9.5 23.5t24.5 9.5h139q15 0 24.5 -9.5t9.5 -23.5v-2494q0 -14 -9.5 -23.5t-24.5 -9.5h-139q-15 0 -24.5 9.5t-9.5 23.5v2494zM301 -246q55 0 98.5 -39.5t43.5 -124.5q0 -122 -72.5 -280t-187.5 -251q-22 -17 -43 6l-10 12q-16 23 4 44q60 59 99 135.5
t39 156.5q0 32 -11 48.5t-41 38.5q-60 43 -60 111q0 59 41.5 101t99.5 42z" />
    <glyph glyph-name="Lcaron" unicode="&#x13d;" horiz-adv-x="1973" 
d="M1368 1908l-10 12q-16 23 4 44q60 59 99 135.5t39 156.5q0 32 -11 48.5t-41 38.5q-60 43 -60 111q0 59 41.5 101t99.5 42q55 0 98.5 -39.5t43.5 -124.5q0 -122 -72.5 -280t-187.5 -251q-22 -17 -43 6zM1844 185q15 0 24 -9.5t9 -24.5v-118q0 -14 -9 -23.5t-24 -9.5h-1485
h-91q-13 0 -23 10t-10 23v2374q0 13 10 23t23 10h150q13 0 23 -10t10 -23v-2222h1393z" />
    <glyph glyph-name="lcaron" unicode="&#x13e;" horiz-adv-x="971" 
d="M797 2597q55 0 98.5 -39.5t43.5 -124.5q0 -122 -72.5 -280t-187.5 -251q-22 -17 -43 6l-10 12q-16 23 4 44q60 59 99 135.5t39 156.5q0 32 -11 48.5t-41 38.5q-60 43 -60 111q0 59 41.5 101t99.5 42zM235 2527q0 14 9.5 23.5t24.5 9.5h139q15 0 24.5 -9.5t9.5 -23.5
v-2494q0 -14 -9.5 -23.5t-24.5 -9.5h-139q-15 0 -24.5 9.5t-9.5 23.5v2494z" />
    <glyph glyph-name="Lslash" unicode="&#x141;" horiz-adv-x="2209" 
d="M2080 185q15 0 24 -9.5t9 -24.5v-118q0 -14 -9 -23.5t-24 -9.5h-1485h-91q-13 0 -23 10t-10 23v947l-378 -205q-30 -14 -45 14l-44 89q-6 13 -2 25.5t17 18.5l452 246v1239q0 13 10 23t23 10h150q13 0 23 -10t10 -23v-1122l865 471q31 15 46 -14l44 -89q6 -13 1.5 -25.5
t-17.5 -19.5l-939 -510v-913h1393z" />
    <glyph glyph-name="lslash" unicode="&#x142;" horiz-adv-x="993" 
d="M974 1460q15 -31 -15 -44l-349 -188v-1195q0 -14 -9.5 -23.5t-24.5 -9.5h-139q-15 0 -24.5 9.5t-9.5 23.5v1083l-275 -148q-30 -14 -46 15l-43 88q-14 30 15 44l349 188v1224q0 14 9.5 23.5t24.5 9.5h139q15 0 24.5 -9.5t9.5 -23.5v-1113l275 148q14 7 27 3.5t19 -17.5z
" />
    <glyph glyph-name="Nacute" unicode="&#x143;" horiz-adv-x="2587" 
d="M1238 2675q-12 -7 -26 -3.5t-22 15.5l-43 72q-6 10 -3 24.5t15 22.5l618 458q12 7 25.5 4t21.5 -13l65 -108q7 -10 4 -24t-16 -21zM2318 2440q15 0 24.5 -9.5t9.5 -23.5v-2414q0 -14 -9.5 -23.5t-24.5 -9.5h-10q-28 0 -44 17l-1813 2057v-2001q0 -14 -9 -23.5t-24 -9.5
h-149q-15 0 -24.5 9.5t-9.5 23.5v2414q0 14 9.5 23.5t24.5 9.5h10q27 0 44 -17l1813 -2057v2001q0 14 9.5 23.5t23.5 9.5h149z" />
    <glyph glyph-name="nacute" unicode="&#x144;" 
d="M906 1925l-43 72q-6 10 -3 24.5t15 22.5l618 458q12 7 25.5 4t21.5 -13l65 -108q7 -10 4 -24t-16 -21l-639 -427q-12 -7 -26 -3.5t-22 15.5zM1154 1718q161 0 283 -49.5t197 -140.5t112 -214.5t37 -277.5v-1003q0 -14 -9.5 -23.5t-24.5 -9.5h-139q-15 0 -24 9.5t-9 23.5
v927q0 574 -482 574q-178 0 -328 -86.5t-237.5 -236.5t-87.5 -329v406q32 62 78 121.5t112.5 116t143.5 99t175 68t203 25.5zM408 1678q14 0 23.5 -9.5t9.5 -23.5v-1612q0 -14 -9.5 -23.5t-23.5 -9.5h-140q-14 0 -23.5 9.5t-9.5 23.5v1612q0 14 9.5 23.5t23.5 9.5h140z" />
    <glyph glyph-name="Ncommaaccent" unicode="&#x145;" horiz-adv-x="2587" 
d="M2318 2440q15 0 24.5 -9.5t9.5 -23.5v-2414q0 -14 -9.5 -23.5t-24.5 -9.5h-10q-28 0 -44 17l-1813 2057v-2001q0 -14 -9 -23.5t-24 -9.5h-149q-15 0 -24.5 9.5t-9.5 23.5v2414q0 14 9.5 23.5t24.5 9.5h10q27 0 44 -17l1813 -2057v2001q0 14 9.5 23.5t23.5 9.5h149z
M1296 -246q55 0 98.5 -39.5t43.5 -124.5q0 -122 -72.5 -280t-187.5 -251q-22 -17 -43 6l-10 12q-16 23 4 44q60 59 99 135.5t39 156.5q0 32 -11 48.5t-41 38.5q-60 43 -60 111q0 59 41.5 101t99.5 42z" />
    <glyph glyph-name="ncommaaccent" unicode="&#x146;" 
d="M1154 1718q161 0 283 -49.5t197 -140.5t112 -214.5t37 -277.5v-1003q0 -14 -9.5 -23.5t-24.5 -9.5h-139q-15 0 -24 9.5t-9 23.5v927q0 574 -482 574q-178 0 -328 -86.5t-237.5 -236.5t-87.5 -329v406q32 62 78 121.5t112.5 116t143.5 99t175 68t203 25.5zM408 1678
q14 0 23.5 -9.5t9.5 -23.5v-1612q0 -14 -9.5 -23.5t-23.5 -9.5h-140q-14 0 -23.5 9.5t-9.5 23.5v1612q0 14 9.5 23.5t23.5 9.5h140zM972 -246q55 0 98.5 -39.5t43.5 -124.5q0 -122 -72.5 -280t-187.5 -251q-22 -17 -43 6l-10 12q-16 23 4 44q60 59 99 135.5t39 156.5
q0 32 -11 48.5t-41 38.5q-60 43 -60 111q0 59 41.5 101t99.5 42z" />
    <glyph glyph-name="Ncaron" unicode="&#x147;" horiz-adv-x="2587" 
d="M1637 3180q18 19 45 19h151q22 0 27.5 -11.5t-9.5 -27.5l-422 -464q-18 -18 -46 -18h-102q-27 0 -45 18l-422 464q-16 16 -10 27.5t28 11.5h153q25 0 43 -19l304 -349zM2318 2440q15 0 24.5 -9.5t9.5 -23.5v-2414q0 -14 -9.5 -23.5t-24.5 -9.5h-10q-28 0 -44 17
l-1813 2057v-2001q0 -14 -9 -23.5t-24 -9.5h-149q-15 0 -24.5 9.5t-9.5 23.5v2414q0 14 9.5 23.5t24.5 9.5h10q27 0 44 -17l1813 -2057v2001q0 14 9.5 23.5t23.5 9.5h149z" />
    <glyph glyph-name="ncaron" unicode="&#x148;" 
d="M952 1934l-422 464q-16 16 -10 27.5t28 11.5h153q25 0 43 -19l304 -349l305 349q18 19 45 19h151q22 0 27.5 -11.5t-9.5 -27.5l-422 -464q-18 -18 -46 -18h-102q-27 0 -45 18zM1154 1718q161 0 283 -49.5t197 -140.5t112 -214.5t37 -277.5v-1003q0 -14 -9.5 -23.5
t-24.5 -9.5h-139q-15 0 -24 9.5t-9 23.5v927q0 574 -482 574q-178 0 -328 -86.5t-237.5 -236.5t-87.5 -329v406q32 62 78 121.5t112.5 116t143.5 99t175 68t203 25.5zM408 1678q14 0 23.5 -9.5t9.5 -23.5v-1612q0 -14 -9.5 -23.5t-23.5 -9.5h-140q-14 0 -23.5 9.5t-9.5 23.5
v1612q0 14 9.5 23.5t23.5 9.5h140z" />
    <glyph glyph-name="Eng" unicode="&#x14a;" horiz-adv-x="2587" 
d="M2318 2440q15 0 24.5 -9.5t9.5 -23.5v-2595q0 -147 -31.5 -266t-94 -207.5t-163.5 -136.5t-234 -48q-15 0 -25 9.5t-10 24.5v98q0 13 9 22.5t22 10.5q89 5 151.5 40t99.5 100t53.5 151t16.5 202v299l-1695 1923v-2001q0 -14 -9 -23.5t-24 -9.5h-149q-15 0 -24.5 9.5
t-9.5 23.5v2414q0 14 9.5 23.5t24.5 9.5h10q27 0 43 -16l1814 -2058v2001q0 14 9.5 23.5t23.5 9.5h149z" />
    <glyph glyph-name="eng" unicode="&#x14b;" 
d="M1153 1718q162 0 283.5 -49.5t196.5 -140.5t112 -214.5t37 -277.5v-1224q0 -147 -31.5 -266.5t-94 -207.5t-163.5 -136t-233 -48q-15 0 -25.5 9.5t-10.5 24.5v98q0 13 9 22t23 11q173 10 246.5 133.5t73.5 359.5v1148q0 285 -118 429.5t-364 144.5q-133 0 -253.5 -51
t-208 -138t-139 -208t-51.5 -255v406q40 79 104 152t152 137t206.5 102.5t248.5 38.5zM408 1678q14 0 23.5 -9.5t9.5 -23.5v-1612q0 -14 -9.5 -23.5t-23.5 -9.5h-140q-14 0 -23.5 9.5t-9.5 23.5v1612q0 14 9.5 23.5t23.5 9.5h140z" />
    <glyph glyph-name="Omacron" unicode="&#x14c;" horiz-adv-x="2839" 
d="M881 2971q0 13 10.5 23.5t23.5 10.5h1010q13 0 23.5 -10.5t10.5 -23.5v-86q0 -13 -10.5 -23.5t-23.5 -10.5h-1010q-13 0 -23.5 10.5t-10.5 23.5v86zM1420 2470q192 0 372.5 -55.5t333.5 -163.5t268 -257.5t180 -349t65 -424.5t-65 -424.5t-180 -349t-268 -257.5
t-333.5 -163.5t-372.5 -55.5q-159 0 -312.5 39.5t-288.5 113t-249 184t-196 246.5t-128 307.5t-46 359.5t46 359.5t128 307.5t196 246.5t249 184t288.5 113t312.5 39.5zM1420 155q207 0 389.5 77.5t316 215t210.5 338t77 434.5t-77 434.5t-210.5 338t-316 215t-389.5 77.5
q-208 0 -390.5 -77.5t-316 -215t-210.5 -337.5t-77 -435t77 -435t210.5 -337.5t316 -215t390.5 -77.5z" />
    <glyph glyph-name="omacron" unicode="&#x14d;" horiz-adv-x="2098" 
d="M510 2209q0 13 10 23.5t24 10.5h1010q14 0 24 -10.5t10 -23.5v-86q0 -13 -10 -23.5t-24 -10.5h-1010q-14 0 -24 10.5t-10 23.5v86zM1049 1708q140 0 270.5 -39.5t238.5 -115.5t188.5 -180.5t125.5 -242t45 -291.5t-45 -291.5t-125.5 -242t-188.5 -180.5t-238.5 -115.5
t-270.5 -39.5t-270.5 39.5t-239 115.5t-189 180.5t-125.5 242t-45 291.5t45 291.5t125.5 242t189 180.5t239 115.5t270.5 39.5zM1049 155q132 0 250 48t207.5 134.5t142 216.5t52.5 285t-52.5 285t-142 216.5t-207.5 134.5t-250 48q-105 0 -202.5 -30t-179 -89t-142.5 -141
t-95 -191t-34 -233t34 -233t95 -191t142.5 -141t179 -89t202.5 -30z" />
    <glyph glyph-name="Ohungarumlaut" unicode="&#x150;" horiz-adv-x="2839" 
d="M1178 2686q-7 -12 -21.5 -15.5t-26.5 3.5l-71 44q-11 7 -14.5 20.5t3.5 26.5l337 691q7 12 21 16t24 -2l108 -66q11 -7 14 -19.5t-4 -26.5zM1689 2675q-12 -7 -26 -3.5t-22 15.5l-43 72q-6 10 -3 24.5t15 22.5l618 458q12 7 25.5 4t21.5 -13l65 -108q7 -10 4 -24t-16 -21
zM1420 2470q192 0 372.5 -55.5t333.5 -163.5t268 -257.5t180 -349t65 -424.5t-65 -424.5t-180 -349t-268 -257.5t-333.5 -163.5t-372.5 -55.5q-159 0 -312.5 39.5t-288.5 113t-249 184t-196 246.5t-128 307.5t-46 359.5t46 359.5t128 307.5t196 246.5t249 184t288.5 113
t312.5 39.5zM1420 155q207 0 389.5 77.5t316 215t210.5 338t77 434.5t-77 434.5t-210.5 338t-316 215t-389.5 77.5q-208 0 -390.5 -77.5t-316 -215t-210.5 -337.5t-77 -435t77 -435t210.5 -337.5t316 -215t390.5 -77.5z" />
    <glyph glyph-name="ohungarumlaut" unicode="&#x151;" horiz-adv-x="2098" 
d="M807 1924q-7 -12 -21.5 -15.5t-26.5 3.5l-71 44q-11 7 -14.5 20.5t3.5 26.5l337 691q7 12 21 16t24 -2l108 -66q11 -7 14 -19.5t-4 -26.5zM1318 1913q-12 -7 -26 -3.5t-22 15.5l-43 72q-6 10 -3 24.5t15 22.5l618 458q12 7 25.5 4t21.5 -13l65 -108q7 -10 4 -24t-16 -21z
M1049 1708q140 0 270.5 -39.5t238.5 -115.5t188.5 -180.5t125.5 -242t45 -291.5t-45 -291.5t-125.5 -242t-188.5 -180.5t-238.5 -115.5t-270.5 -39.5t-270.5 39.5t-239 115.5t-189 180.5t-125.5 242t-45 291.5t45 291.5t125.5 242t189 180.5t239 115.5t270.5 39.5zM1049 155
q132 0 250 48t207.5 134.5t142 216.5t52.5 285t-52.5 285t-142 216.5t-207.5 134.5t-250 48q-105 0 -202.5 -30t-179 -89t-142.5 -141t-95 -191t-34 -233t34 -233t95 -191t142.5 -141t179 -89t202.5 -30z" />
    <glyph glyph-name="OE" unicode="&#x152;" horiz-adv-x="3805" 
d="M3626 185q15 0 24.5 -9.5t9.5 -24.5v-118q0 -14 -9.5 -23.5t-24.5 -9.5h-1952q-125 -26 -254 -26q-192 0 -372.5 55.5t-333.5 163.5t-268 257.5t-180 349t-65 424.5t65 424.5t180 349t268 257.5t333.5 163.5t372.5 55.5q146 0 290 -34h1876q15 0 24.5 -9.5t9.5 -23.5
v-118q0 -15 -9.5 -24.5t-24.5 -9.5h-1468q206 -147 335 -376.5t155 -519.5h818q15 0 24.5 -9.5t9.5 -24.5v-118q0 -14 -9.5 -23.5t-24.5 -9.5h-813q-10 -323 -145 -577t-362 -412h1520zM427 1224q0 -234 77 -434.5t210.5 -338t316 -215t389.5 -77.5t389.5 77.5t316 215
t210.5 338t77 434.5t-77 434.5t-210.5 338t-316 215t-389.5 77.5t-389.5 -77.5t-316 -215t-210.5 -338t-77 -434.5z" />
    <glyph glyph-name="oe" unicode="&#x153;" horiz-adv-x="3526" 
d="M3281 448q31 -14 16 -45q-102 -214 -289.5 -323.5t-439.5 -109.5q-244 0 -445.5 116t-310.5 321q-112 -204 -315.5 -320.5t-447.5 -116.5q-140 0 -270.5 39.5t-239 115.5t-189 180.5t-125.5 242t-45 291.5t45 291.5t125.5 242t189 180.5t239 115.5t270.5 39.5
q244 0 447 -116t314 -319q107 204 304.5 319.5t440.5 115.5q171 0 314 -54t250 -158.5t167 -270t60 -376.5h-1421v-10q0 -124 34 -233t95 -191t142.5 -141t179 -89t202.5 -30q386 0 537 334q16 30 45 16zM2555 1533q-227 0 -397.5 -143.5t-217.5 -385.5h1168
q-10 132 -57.5 234.5t-122.5 166t-169.5 96t-203.5 32.5zM1049 155q132 0 250 48t207.5 134.5t142 216.5t52.5 285t-52.5 285t-142 216.5t-207.5 134.5t-250 48q-105 0 -202.5 -30t-179 -89t-142.5 -141t-95 -191t-34 -233t34 -233t95 -191t142.5 -141t179 -89t202.5 -30z
" />
    <glyph glyph-name="Racute" unicode="&#x154;" horiz-adv-x="2227" 
d="M918 2687l-43 72q-6 10 -3 24.5t15 22.5l618 458q12 7 25.5 4t21.5 -13l65 -108q7 -10 4 -24t-16 -21l-639 -427q-12 -7 -26 -3.5t-22 15.5zM2024 67q16 -24 5 -45.5t-40 -21.5h-151q-18 0 -30 18l-625 945q-23 -1 -70 -1h-662v-929q0 -13 -10 -23t-23 -10h-150
q-13 0 -23 10t-10 23v2374q0 13 10 23t23 10h150h695q185 0 337.5 -38t259.5 -105t180 -160t107.5 -202.5t34.5 -233.5q0 -265 -158 -456t-467 -255zM1074 1146q158 0 283.5 28.5t208.5 78.5t137.5 121t78.5 152t24 175t-24 175t-78.5 151.5t-137.5 120.5t-208.5 78.5
t-283.5 28.5h-623v-1109h623z" />
    <glyph glyph-name="racute" unicode="&#x155;" horiz-adv-x="1162" 
d="M490 1913q-12 -7 -26 -3.5t-22 15.5l-43 72q-6 10 -3 24.5t15 22.5l618 458q12 7 25.5 4t21.5 -13l65 -108q7 -10 4 -24t-16 -21zM1026 1716q19 0 27.5 -7.5t8.5 -25.5v-155q0 -28 -34 -34q-78 -6 -159 -37t-157.5 -87t-136.5 -129.5t-96.5 -174t-36.5 -210.5v387
q46 121 145 231t218 176t221 66zM235 1645q0 14 9.5 23.5t23.5 9.5h140q14 0 23.5 -9.5t9.5 -23.5v-1612q0 -14 -9.5 -23.5t-23.5 -9.5h-140q-14 0 -23.5 9.5t-9.5 23.5v1612z" />
    <glyph glyph-name="Rcommaaccent" unicode="&#x156;" horiz-adv-x="2227" 
d="M2024 67q16 -24 5 -45.5t-40 -21.5h-151q-18 0 -30 18l-625 945q-23 -1 -70 -1h-662v-929q0 -13 -10 -23t-23 -10h-150q-13 0 -23 10t-10 23v2374q0 13 10 23t23 10h150h695q185 0 337.5 -38t259.5 -105t180 -160t107.5 -202.5t34.5 -233.5q0 -265 -158 -456t-467 -255z
M1074 1146q158 0 283.5 28.5t208.5 78.5t137.5 121t78.5 152t24 175t-24 175t-78.5 151.5t-137.5 120.5t-208.5 78.5t-283.5 28.5h-623v-1109h623zM1024 -246q55 0 98.5 -39.5t43.5 -124.5q0 -122 -72.5 -280t-187.5 -251q-22 -17 -43 6l-10 12q-16 23 4 44q60 59 99 135.5
t39 156.5q0 32 -11 48.5t-41 38.5q-60 43 -60 111q0 59 41.5 101t99.5 42z" />
    <glyph glyph-name="rcommaaccent" unicode="&#x157;" horiz-adv-x="1162" 
d="M1026 1716q19 0 27.5 -7.5t8.5 -25.5v-155q0 -28 -34 -34q-78 -6 -159 -37t-157.5 -87t-136.5 -129.5t-96.5 -174t-36.5 -210.5v387q46 121 145 231t218 176t221 66zM235 1645q0 14 9.5 23.5t23.5 9.5h140q14 0 23.5 -9.5t9.5 -23.5v-1612q0 -14 -9.5 -23.5t-23.5 -9.5
h-140q-14 0 -23.5 9.5t-9.5 23.5v1612zM307 -242q55 0 98.5 -39.5t43.5 -124.5q0 -122 -72.5 -280t-187.5 -251q-22 -17 -43 6l-10 12q-16 23 4 44q60 59 99 135.5t39 156.5q0 32 -11 48.5t-41 38.5q-60 43 -60 111q0 59 41.5 101t99.5 42z" />
    <glyph glyph-name="Rcaron" unicode="&#x158;" horiz-adv-x="2227" 
d="M964 2696l-422 464q-16 16 -10 27.5t28 11.5h153q25 0 43 -19l304 -349l305 349q18 19 45 19h151q22 0 27.5 -11.5t-9.5 -27.5l-422 -464q-18 -18 -46 -18h-102q-27 0 -45 18zM2024 67q16 -24 5 -45.5t-40 -21.5h-151q-18 0 -30 18l-625 945q-23 -1 -70 -1h-662v-929
q0 -13 -10 -23t-23 -10h-150q-13 0 -23 10t-10 23v2374q0 13 10 23t23 10h150h695q185 0 337.5 -38t259.5 -105t180 -160t107.5 -202.5t34.5 -233.5q0 -265 -158 -456t-467 -255zM1074 1146q158 0 283.5 28.5t208.5 78.5t137.5 121t78.5 152t24 175t-24 175t-78.5 151.5
t-137.5 120.5t-208.5 78.5t-283.5 28.5h-623v-1109h623z" />
    <glyph glyph-name="rcaron" unicode="&#x159;" horiz-adv-x="1162" 
d="M889 2418q18 19 45 19h151q22 0 27.5 -11.5t-9.5 -27.5l-422 -464q-18 -18 -46 -18h-102q-27 0 -45 18l-422 464q-16 16 -10 27.5t28 11.5h153q25 0 43 -19l304 -349zM1026 1716q19 0 27.5 -7.5t8.5 -25.5v-155q0 -28 -34 -34q-78 -6 -159 -37t-157.5 -87t-136.5 -129.5
t-96.5 -174t-36.5 -210.5v387q46 121 145 231t218 176t221 66zM235 1645q0 14 9.5 23.5t23.5 9.5h140q14 0 23.5 -9.5t9.5 -23.5v-1612q0 -14 -9.5 -23.5t-23.5 -9.5h-140q-14 0 -23.5 9.5t-9.5 23.5v1612z" />
    <glyph glyph-name="Sacute" unicode="&#x15a;" horiz-adv-x="2200" 
d="M1024 2675q-12 -7 -26 -3.5t-22 15.5l-43 72q-6 10 -3 24.5t15 22.5l618 458q12 7 25.5 4t21.5 -13l65 -108q7 -10 4 -24t-16 -21zM483 1821q0 -109 52 -190.5t139.5 -131.5t201.5 -88t239.5 -69t251 -64.5t239.5 -84t201.5 -119t139.5 -178t52 -252.5q0 -139 -49.5 -253
t-134.5 -191t-202 -130t-248 -76.5t-277 -23.5q-255 0 -461.5 70.5t-403.5 196.5q-33 20 -18 49l51 110q18 33 49 13q74 -44 106.5 -63t104 -56.5t124 -55.5t128 -39.5t157 -30.5t172.5 -9q145 0 264.5 26t213.5 79t146.5 144t52.5 212q0 66 -14.5 122t-47 100.5t-66.5 80
t-93 66t-104.5 52t-122.5 44.5t-126.5 36t-135.5 35q-112 28 -169.5 43.5t-157 49t-153.5 63t-124 80t-105.5 106.5t-61.5 135t-26 173q0 144 57.5 265.5t166 211.5t275 140.5t373.5 50.5q133 0 250 -18.5t215.5 -54.5t165 -68t147.5 -79q30 -17 16 -48l-55 -117
q-15 -31 -53 -8q-64 41 -124 72t-148 66.5t-193.5 55t-217.5 19.5q-164 0 -292 -36.5t-207 -101t-119.5 -148.5t-40.5 -183z" />
    <glyph glyph-name="sacute" unicode="&#x15b;" horiz-adv-x="1668" 
d="M729 1913q-12 -7 -26 -3.5t-22 15.5l-43 72q-6 10 -3 24.5t15 22.5l618 458q12 7 25.5 4t21.5 -13l65 -108q7 -10 4 -24t-16 -21zM435 1247q0 -70 36 -122t97 -84t140 -57t166 -46.5t174 -45t166 -60t140 -85t97 -125.5t36 -177q0 -102 -37.5 -183.5t-100 -135
t-147.5 -89.5t-176 -51.5t-190 -15.5q-338 0 -636 188q-28 16 -16 45l48 102q5 15 18 20.5t28 -2.5q143 -87 274.5 -132.5t286.5 -45.5q67 0 126 7.5t116.5 27.5t98.5 50.5t66 79.5t25 112q0 73 -35.5 128.5t-96 90t-139 61.5t-164.5 49t-172.5 46t-165 59.5t-139 82.5
t-96 121t-35.5 170q0 221 173.5 349.5t457.5 128.5q154 0 285 -41t266 -122q30 -16 15 -46l-48 -105q-15 -30 -43 -13q-120 75 -235.5 113.5t-246.5 38.5q-188 0 -302.5 -77t-114.5 -209z" />
    <glyph glyph-name="Scedilla" unicode="&#x15e;" horiz-adv-x="2200" 
d="M1999 644q0 -135 -46.5 -246t-126.5 -187.5t-191 -130t-236.5 -79.5t-265.5 -30l-77 -218q94 26 180.5 18t152 -39t104.5 -95t39 -151q0 -148 -108.5 -236.5t-269.5 -88.5q-182 0 -314 84q-28 20 -14 47l18 38q14 30 47 15q70 -34 127.5 -51t127.5 -17q102 0 165.5 53.5
t63.5 147.5q0 72 -37 116.5t-101 59t-141 9.5t-166 -28q-23 -5 -31 3.5t0 31.5l106 302q-227 11 -414.5 80t-367.5 185q-33 20 -18 49l51 110q18 33 49 13q74 -44 106.5 -63t104 -56.5t124 -55.5t128 -39.5t157 -30.5t172.5 -9q145 0 264.5 26t213.5 79t146.5 144t52.5 212
q0 66 -14.5 122t-47 100.5t-66.5 80t-93 66t-104.5 52t-122.5 44.5t-126.5 36t-135.5 35q-112 28 -169.5 43.5t-157 49t-153.5 63t-124 80t-105.5 106.5t-61.5 135t-26 173q0 144 57.5 265.5t166 211.5t275 140.5t373.5 50.5q133 0 250 -18.5t215.5 -54.5t165 -68t147.5 -79
q30 -17 16 -48l-55 -117q-15 -31 -53 -8q-64 41 -124 72t-148 66.5t-193.5 55t-217.5 19.5q-164 0 -292 -36.5t-207 -101t-119.5 -148.5t-40.5 -183q0 -109 52 -190.5t139.5 -131.5t201.5 -88t239.5 -69t251 -64.5t239.5 -84t201.5 -119t139.5 -178t52 -252.5z" />
    <glyph glyph-name="scedilla" unicode="&#x15f;" horiz-adv-x="1668" 
d="M1487 445q0 -97 -34.5 -176.5t-92 -132.5t-136.5 -90t-165 -54.5t-181 -20.5l-77 -218q95 26 181 18t151.5 -39t104.5 -95t39 -151q0 -148 -108.5 -236.5t-269.5 -88.5q-182 0 -314 84q-28 20 -14 47l18 38q14 30 47 15q70 -34 127.5 -51t127.5 -17q102 0 165.5 53.5
t63.5 147.5q0 72 -37 116.5t-101 59t-141 9.5t-166 -28q-23 -5 -31 3.5t0 31.5l107 303q-289 20 -551 185q-28 16 -16 45l48 102q5 15 18 20.5t28 -2.5q143 -87 274.5 -132.5t286.5 -45.5q67 0 126 7.5t116.5 27.5t98.5 50.5t66 79.5t25 112q0 73 -35.5 128.5t-96 90
t-139 61.5t-164.5 49t-172.5 46t-165 59.5t-139 82.5t-96 121t-35.5 170q0 221 173.5 349.5t457.5 128.5q154 0 285 -41t266 -122q30 -16 15 -46l-48 -105q-15 -30 -43 -13q-120 75 -235.5 113.5t-246.5 38.5q-188 0 -302.5 -77t-114.5 -209q0 -70 36 -122t97 -84t140 -57
t166 -46.5t174 -45t166 -60t140 -85t97 -125.5t36 -177z" />
    <glyph glyph-name="Scaron" unicode="&#x160;" horiz-adv-x="2200" 
d="M1423 3180q18 19 45 19h151q22 0 27.5 -11.5t-9.5 -27.5l-422 -464q-18 -18 -46 -18h-102q-27 0 -45 18l-422 464q-16 16 -10 27.5t28 11.5h153q25 0 43 -19l304 -349zM483 1821q0 -109 52 -190.5t139.5 -131.5t201.5 -88t239.5 -69t251 -64.5t239.5 -84t201.5 -119
t139.5 -178t52 -252.5q0 -139 -49.5 -253t-134.5 -191t-202 -130t-248 -76.5t-277 -23.5q-255 0 -461.5 70.5t-403.5 196.5q-33 20 -18 49l51 110q18 33 49 13q74 -44 106.5 -63t104 -56.5t124 -55.5t128 -39.5t157 -30.5t172.5 -9q145 0 264.5 26t213.5 79t146.5 144
t52.5 212q0 66 -14.5 122t-47 100.5t-66.5 80t-93 66t-104.5 52t-122.5 44.5t-126.5 36t-135.5 35q-112 28 -169.5 43.5t-157 49t-153.5 63t-124 80t-105.5 106.5t-61.5 135t-26 173q0 144 57.5 265.5t166 211.5t275 140.5t373.5 50.5q133 0 250 -18.5t215.5 -54.5t165 -68
t147.5 -79q30 -17 16 -48l-55 -117q-15 -31 -53 -8q-64 41 -124 72t-148 66.5t-193.5 55t-217.5 19.5q-164 0 -292 -36.5t-207 -101t-119.5 -148.5t-40.5 -183z" />
    <glyph glyph-name="scaron" unicode="&#x161;" horiz-adv-x="1668" 
d="M1128 2418q18 19 45 19h151q22 0 27.5 -11.5t-9.5 -27.5l-422 -464q-18 -18 -46 -18h-102q-27 0 -45 18l-422 464q-16 16 -10 27.5t28 11.5h153q25 0 43 -19l304 -349zM435 1247q0 -70 36 -122t97 -84t140 -57t166 -46.5t174 -45t166 -60t140 -85t97 -125.5t36 -177
q0 -102 -37.5 -183.5t-100 -135t-147.5 -89.5t-176 -51.5t-190 -15.5q-338 0 -636 188q-28 16 -16 45l48 102q5 15 18 20.5t28 -2.5q143 -87 274.5 -132.5t286.5 -45.5q67 0 126 7.5t116.5 27.5t98.5 50.5t66 79.5t25 112q0 73 -35.5 128.5t-96 90t-139 61.5t-164.5 49
t-172.5 46t-165 59.5t-139 82.5t-96 121t-35.5 170q0 221 173.5 349.5t457.5 128.5q154 0 285 -41t266 -122q30 -16 15 -46l-48 -105q-15 -30 -43 -13q-120 75 -235.5 113.5t-246.5 38.5q-188 0 -302.5 -77t-114.5 -209z" />
    <glyph glyph-name="uni0162" unicode="&#x162;" horiz-adv-x="2408" 
d="M2200 2440q13 0 23 -10t10 -23v-118q0 -13 -10 -23.5t-23 -10.5h-888v-2222q0 -13 -10 -23t-23 -10h-12l-87 -247q94 26 180.5 18t152 -39t104.5 -95t39 -151q0 -148 -108.5 -236.5t-269.5 -88.5q-182 0 -314 84q-28 20 -14 47l18 38q14 30 47 15q70 -34 127.5 -51
t127.5 -17q102 0 165.5 53.5t63.5 147.5q0 72 -37 116.5t-101 59t-141 9.5t-166 -28q-23 -5 -31 3.5t0 31.5l116 330h-10q-13 0 -23 10t-10 23v2222h-887q-13 0 -23.5 10.5t-10.5 23.5v118q0 13 10.5 23t23.5 10h1070h921z" />
    <glyph glyph-name="uni0163" unicode="&#x163;" horiz-adv-x="1525" 
d="M1360 111q-185 -133 -396 -140l-77 -218q95 26 181 18t151.5 -39t104.5 -95t39 -151q0 -148 -108.5 -236.5t-269.5 -88.5q-182 0 -314 84q-28 20 -14 47l18 38q14 30 47 15q70 -34 127.5 -51t127.5 -17q102 0 165.5 53.5t63.5 147.5q0 72 -37 116.5t-101 59t-141 9.5
t-166 -28q-23 -5 -31 3.5t0 31.5l108 307q-398 58 -398 602v915h-307q-14 0 -23.5 9t-9.5 24v118q0 14 9.5 23.5t23.5 9.5h307v370q0 24 34 35l133 39q40 11 40 -26v-418h654q14 0 23.5 -9.5t9.5 -23.5v-118q0 -15 -9.5 -24t-23.5 -9h-654v-896q0 -77 8.5 -139t30 -120
t57 -97.5t92 -63t131.5 -23.5q167 0 314 114q33 21 49 -12l46 -95q15 -30 -15 -51z" />
    <glyph glyph-name="Tcaron" unicode="&#x164;" horiz-adv-x="2408" 
d="M1106 2696l-422 464q-16 16 -10 27.5t28 11.5h153q25 0 43 -19l304 -349l305 349q18 19 45 19h151q22 0 27.5 -11.5t-9.5 -27.5l-422 -464q-18 -18 -46 -18h-102q-27 0 -45 18zM2200 2440q13 0 23 -10t10 -23v-118q0 -13 -10 -23.5t-23 -10.5h-888v-2222q0 -13 -10 -23
t-23 -10h-150q-13 0 -23 10t-10 23v2222h-887q-13 0 -23.5 10.5t-10.5 23.5v118q0 13 10.5 23t23.5 10h1070h921z" />
    <glyph glyph-name="tcaron" unicode="&#x165;" horiz-adv-x="1737" 
d="M1562 2597q55 0 98.5 -39.5t43.5 -124.5q0 -122 -72.5 -280t-187.5 -251q-22 -17 -43 6l-10 12q-16 23 4 44q60 59 99 135.5t39 156.5q0 32 -11 48.5t-41 38.5q-60 43 -60 111q0 59 41.5 101t99.5 42zM1329 257l46 -95q15 -30 -15 -51q-197 -141 -423 -141
q-497 0 -497 609v915h-307q-14 0 -23.5 9t-9.5 24v118q0 14 9.5 23.5t23.5 9.5h307v370q0 24 34 35l133 39q40 11 40 -26v-418h654q14 0 23.5 -9.5t9.5 -23.5v-118q0 -15 -9.5 -24t-23.5 -9h-654v-896q0 -77 8.5 -139t30 -120t57 -97.5t92 -63t131.5 -23.5q167 0 314 114
q33 21 49 -12z" />
    <glyph glyph-name="Tbar" unicode="&#x166;" horiz-adv-x="2308" 
d="M2200 2440q13 0 23 -10t10 -23v-118q0 -13 -10 -23.5t-23 -10.5h-888v-695h434q15 0 24.5 -9.5t9.5 -24.5v-98q0 -15 -9.5 -24t-24.5 -9h-434v-1362q0 -13 -10 -23t-23 -10h-150q-13 0 -23 10t-10 23v1362h-534q-14 0 -23.5 9t-9.5 24v98q0 15 9.5 24.5t23.5 9.5h534v695
h-887q-13 0 -23.5 10.5t-10.5 23.5v118q0 13 10.5 23t23.5 10h1070h921z" />
    <glyph glyph-name="tbar" unicode="&#x167;" horiz-adv-x="1525" 
d="M1375 162q15 -30 -15 -51q-197 -141 -423 -141q-497 0 -497 609v414h-305q-14 0 -23.5 9.5t-9.5 24.5v59q0 14 9.5 23.5t23.5 9.5h305v375h-307q-14 0 -23.5 9t-9.5 24v118q0 14 9.5 23.5t23.5 9.5h307v370q0 24 34 35l133 39q40 11 40 -26v-418h654q14 0 23.5 -9.5
t9.5 -23.5v-118q0 -15 -9.5 -24t-23.5 -9h-654v-375h513q14 0 23.5 -9.5t9.5 -23.5v-59q0 -15 -9.5 -24.5t-23.5 -9.5h-513v-395q0 -77 8.5 -139t30 -120t57 -97.5t92 -63t131.5 -23.5q167 0 314 114q33 21 49 -12z" />
    <glyph glyph-name="Umacron" unicode="&#x16a;" horiz-adv-x="2507" 
d="M749 2851q-13 0 -23.5 10.5t-10.5 23.5v86q0 13 10.5 23.5t23.5 10.5h1010q13 0 23.5 -10.5t10.5 -23.5v-86q0 -13 -10.5 -23.5t-23.5 -10.5h-1010zM2238 2440q13 0 23.5 -10t10.5 -23v-1387q0 -258 -73 -460t-207.5 -333t-321 -199t-416.5 -68t-417 68t-321.5 199
t-207.5 333t-73 460v1387q0 13 10.5 23t23.5 10h149q13 0 23 -10t10 -23v-1348q0 -437 202 -675.5t601 -238.5q398 0 600 238.5t202 675.5v1348q0 13 10 23t23 10h149z" />
    <glyph glyph-name="umacron" unicode="&#x16b;" 
d="M505 2089q-13 0 -23.5 10.5t-10.5 23.5v86q0 13 10.5 23.5t23.5 10.5h1010q13 0 23.5 -10.5t10.5 -23.5v-86q0 -13 -10.5 -23.5t-23.5 -10.5h-1010zM1749 1678q14 0 23.5 -9.5t9.5 -23.5v-1612q0 -14 -9.5 -23.5t-23.5 -9.5h-140q-14 0 -23.5 9.5t-9.5 23.5v357
q-32 -62 -78 -121.5t-112.5 -116t-143.5 -99t-175 -68t-203 -25.5q-161 0 -283 49.5t-197 140.5t-112 214.5t-37 277.5v1003q0 14 9.5 23.5t24.5 9.5h139q15 0 24 -9.5t9 -23.5v-927q0 -574 482 -574q178 0 328 86.5t237.5 236.5t87.5 329v849q0 14 9.5 23.5t23.5 9.5h140z
" />
    <glyph glyph-name="Uring" unicode="&#x16e;" horiz-adv-x="2507" 
d="M1254 2618q-162 0 -277 114t-115 276q0 161 115 276t277 115q161 0 276 -115t115 -276q0 -162 -114.5 -276t-276.5 -114zM1254 3277q-112 0 -188 -78.5t-76 -190.5q0 -110 76 -188t188 -78q111 0 187 78t76 188q0 112 -75.5 190.5t-187.5 78.5zM2238 2440q13 0 23.5 -10
t10.5 -23v-1387q0 -258 -73 -460t-207.5 -333t-321 -199t-416.5 -68t-417 68t-321.5 199t-207.5 333t-73 460v1387q0 13 10.5 23t23.5 10h149q13 0 23 -10t10 -23v-1348q0 -437 202 -675.5t601 -238.5q398 0 600 238.5t202 675.5v1348q0 13 10 23t23 10h149z" />
    <glyph glyph-name="uring" unicode="&#x16f;" 
d="M1010 1856q-162 0 -277 114t-115 276q0 161 115 276t277 115q161 0 276 -115t115 -276q0 -162 -114.5 -276t-276.5 -114zM1010 2515q-112 0 -188 -78.5t-76 -190.5q0 -110 76 -188t188 -78q111 0 187 78t76 188q0 112 -75.5 190.5t-187.5 78.5zM1749 1678q14 0 23.5 -9.5
t9.5 -23.5v-1612q0 -14 -9.5 -23.5t-23.5 -9.5h-140q-14 0 -23.5 9.5t-9.5 23.5v357q-32 -62 -78 -121.5t-112.5 -116t-143.5 -99t-175 -68t-203 -25.5q-161 0 -283 49.5t-197 140.5t-112 214.5t-37 277.5v1003q0 14 9.5 23.5t24.5 9.5h139q15 0 24 -9.5t9 -23.5v-927
q0 -574 482 -574q178 0 328 86.5t237.5 236.5t87.5 329v849q0 14 9.5 23.5t23.5 9.5h140z" />
    <glyph glyph-name="Uhungarumlaut" unicode="&#x170;" horiz-adv-x="2507" 
d="M893 2718q-11 7 -14.5 20.5t3.5 26.5l337 691q7 12 21 16t24 -2l108 -66q11 -7 14 -19.5t-4 -26.5l-370 -672q-7 -12 -21.5 -15.5t-26.5 3.5zM1475 2687l-43 72q-6 10 -3 24.5t15 22.5l618 458q12 7 25.5 4t21.5 -13l65 -108q7 -10 4 -24t-16 -21l-639 -427
q-12 -7 -26 -3.5t-22 15.5zM2238 2440q13 0 23.5 -10t10.5 -23v-1387q0 -258 -73 -460t-207.5 -333t-321 -199t-416.5 -68t-417 68t-321.5 199t-207.5 333t-73 460v1387q0 13 10.5 23t23.5 10h149q13 0 23 -10t10 -23v-1348q0 -437 202 -675.5t601 -238.5q398 0 600 238.5
t202 675.5v1348q0 13 10 23t23 10h149z" />
    <glyph glyph-name="uhungarumlaut" unicode="&#x171;" 
d="M649 1956q-11 7 -14.5 20.5t3.5 26.5l337 691q7 12 21 16t24 -2l108 -66q11 -7 14 -19.5t-4 -26.5l-370 -672q-7 -12 -21.5 -15.5t-26.5 3.5zM1930 2385q7 -10 4 -24t-16 -21l-639 -427q-12 -7 -26 -3.5t-22 15.5l-43 72q-6 10 -3 24.5t15 22.5l618 458q12 7 25.5 4
t21.5 -13zM1749 1678q14 0 23.5 -9.5t9.5 -23.5v-1612q0 -14 -9.5 -23.5t-23.5 -9.5h-140q-14 0 -23.5 9.5t-9.5 23.5v357q-32 -62 -78 -121.5t-112.5 -116t-143.5 -99t-175 -68t-203 -25.5q-161 0 -283 49.5t-197 140.5t-112 214.5t-37 277.5v1003q0 14 9.5 23.5t24.5 9.5
h139q15 0 24 -9.5t9 -23.5v-927q0 -574 482 -574q178 0 328 86.5t237.5 236.5t87.5 329v849q0 14 9.5 23.5t23.5 9.5h140z" />
    <glyph glyph-name="Uogonek" unicode="&#x172;" horiz-adv-x="2507" 
d="M2238 2440q13 0 23.5 -10t10.5 -23v-1387q0 -428 -193.5 -690.5t-537.5 -339.5q-326 -203 -326 -456q0 -107 59 -169.5t167 -62.5q92 0 159 31q42 13 42 -26v-65q0 -27 -26 -39q-95 -42 -214 -42q-171 0 -261.5 93t-90.5 241q0 128 66.5 250.5t183.5 215.5q-15 -1 -46 -1
q-230 0 -417 68t-321.5 199t-207.5 333t-73 460v1387q0 13 10.5 23t23.5 10h149q13 0 23 -10t10 -23v-1348q0 -437 202 -675.5t601 -238.5q398 0 600 238.5t202 675.5v1348q0 13 10 23t23 10h149z" />
    <glyph glyph-name="uogonek" unicode="&#x173;" 
d="M1762 -667q42 13 42 -26v-65q0 -27 -26 -39q-95 -42 -214 -42q-171 0 -261.5 93t-90.5 241q0 158 98.5 304.5t265.5 236.5v354q-32 -62 -78 -121.5t-112.5 -116t-143.5 -99t-175 -68t-203 -25.5q-161 0 -283 49.5t-197 140.5t-112 214.5t-37 277.5v1003q0 14 9.5 23.5
t24.5 9.5h139q15 0 24 -9.5t9 -23.5v-927q0 -574 482 -574q178 0 328 86.5t237.5 236.5t87.5 329v849q0 14 9.5 23.5t23.5 9.5h140q14 0 23.5 -9.5t9.5 -23.5v-1612q0 -14 -9.5 -23.5t-23.5 -9.5h-29q-343 -207 -343 -466q0 -107 59 -169.5t167 -62.5q92 0 159 31z" />
    <glyph glyph-name="Wcircumflex" unicode="&#x174;" horiz-adv-x="3332" 
d="M1166 2681q-22 0 -28 11.5t10 27.5l422 464q18 18 45 18h102q28 0 46 -18l422 -464q15 -16 9.5 -27.5t-27.5 -11.5h-151q-27 0 -45 19l-305 349l-304 -349q-18 -19 -43 -19h-153zM3222 2440q40 0 26 -39l-806 -2415q-9 -26 -38 -26h-46q-27 0 -39 26l-663 1908
l-662 -1908q-10 -26 -39 -26h-45q-29 0 -38 26l-809 2414q-6 19 1 29.5t25 10.5h167q30 0 39 -26l652 -2042l650 1903q11 25 39 25h40q28 0 38 -25l662 -1903l643 2043q8 25 38 25h165z" />
    <glyph glyph-name="wcircumflex" unicode="&#x175;" horiz-adv-x="2643" 
d="M822 1919q-22 0 -28 11.5t10 27.5l422 464q18 18 45 18h102q28 0 46 -18l422 -464q15 -16 9.5 -27.5t-27.5 -11.5h-151q-27 0 -45 19l-305 349l-304 -349q-18 -19 -43 -19h-153zM2566 1678q22 0 31.5 -17t0.5 -40l-626 -1649q-6 -12 -22 -12h-22q-15 0 -21 12l-585 1192
l-586 -1192q-6 -12 -20 -12h-22q-16 0 -22 12l-627 1649q-9 22 0.5 39.5t32.5 17.5h149q22 0 32 -24l476 -1302l551 1139q9 20 24 20h24q15 0 24 -20l551 -1139l480 1302q10 24 32 24h145z" />
    <glyph glyph-name="Ycircumflex" unicode="&#x176;" horiz-adv-x="2318" 
d="M658 2681q-22 0 -28 11.5t10 27.5l422 464q18 18 45 18h102q28 0 46 -18l422 -464q15 -16 9.5 -27.5t-27.5 -11.5h-151q-27 0 -45 19l-305 349l-304 -349q-18 -19 -43 -19h-153zM2205 2440q20 0 29 -11t-1 -28l-970 -1527v-841q0 -13 -10.5 -23t-23.5 -10h-149
q-13 0 -23 10t-10 23v830l-981 1538q-9 17 -1 28t26 11h179q24 0 39 -26l849 -1351l847 1351q15 26 40 26h160z" />
    <glyph glyph-name="ycircumflex" unicode="&#x177;" horiz-adv-x="1722" 
d="M359 1919q-22 0 -28 11.5t10 27.5l422 464q18 18 45 18h102q28 0 46 -18l422 -464q15 -16 9.5 -27.5t-27.5 -11.5h-151q-27 0 -45 19l-305 349l-304 -349q-18 -19 -43 -19h-153zM1642 1678q24 0 34.5 -18.5t-1.5 -42.5l-744 -1621q-70 -157 -128 -272t-122 -218.5
t-125.5 -172t-132 -119t-148 -73.5t-167.5 -23q-37 0 -37 34v103q0 30 31 33q182 9 332 194.5t356 645.5l-743 1489q-13 24 -2.5 42.5t36.5 18.5h151q20 0 31 -22l624 -1311l588 1311q9 22 34 22h133z" />
    <glyph glyph-name="Ydieresis" unicode="&#x178;" horiz-adv-x="2318" 
d="M811 2781q-59 0 -101.5 42.5t-42.5 101.5t42.5 102t101.5 43t102 -43t43 -102t-43 -101.5t-102 -42.5zM1512 2781q-59 0 -101.5 42.5t-42.5 101.5t42.5 102t101.5 43t102 -43t43 -102t-43 -101.5t-102 -42.5zM2205 2440q20 0 29 -11t-1 -28l-970 -1527v-841
q0 -13 -10.5 -23t-23.5 -10h-149q-13 0 -23 10t-10 23v830l-981 1538q-9 17 -1 28t26 11h179q24 0 39 -26l849 -1351l847 1351q15 26 40 26h160z" />
    <glyph glyph-name="Zacute" unicode="&#x179;" horiz-adv-x="2362" 
d="M1095 2675q-12 -7 -26 -3.5t-22 15.5l-43 72q-6 10 -3 24.5t15 22.5l618 458q12 7 25.5 4t21.5 -13l65 -108q7 -10 4 -24t-16 -21zM179 0q-15 0 -24.5 9.5t-9.5 23.5v38q0 24 14 41l1654 2143h-1555q-13 0 -23 10.5t-10 23.5v118q0 13 10 23t23 10h1851q14 0 23.5 -9.5
t9.5 -23.5v-38q0 -26 -14 -41l-1653 -2143h1673q14 0 24 -10.5t10 -23.5v-118q0 -13 -10.5 -23t-23.5 -10h-1969z" />
    <glyph glyph-name="zacute" unicode="&#x17a;" horiz-adv-x="1878" 
d="M838 1913q-12 -7 -26 -3.5t-22 15.5l-43 72q-6 10 -3 24.5t15 22.5l618 458q12 7 25.5 4t21.5 -13l65 -108q7 -10 4 -24t-16 -21zM179 0q-15 0 -24.5 8.5t-9.5 21.5v10q0 22 14 41l1135 1413h-1036q-13 0 -23 10t-10 23v118q0 13 10 23t23 10h1351q33 0 33 -27v-12
q0 -22 -14 -42l-1136 -1412h1137q13 0 23 -10.5t10 -23.5v-118q0 -13 -10 -23t-23 -10h-1450z" />
    <glyph glyph-name="Zdotaccent" unicode="&#x17b;" horiz-adv-x="2362" 
d="M1191 2780q-61 0 -104.5 43.5t-43.5 104.5t43.5 104.5t104.5 43.5t104.5 -43.5t43.5 -104.5t-43.5 -104.5t-104.5 -43.5zM179 0q-15 0 -24.5 9.5t-9.5 23.5v38q0 24 14 41l1654 2143h-1555q-13 0 -23 10.5t-10 23.5v118q0 13 10 23t23 10h1851q14 0 23.5 -9.5t9.5 -23.5
v-38q0 -26 -14 -41l-1653 -2143h1673q14 0 24 -10.5t10 -23.5v-118q0 -13 -10.5 -23t-23.5 -10h-1969z" />
    <glyph glyph-name="zdotaccent" unicode="&#x17c;" horiz-adv-x="1878" 
d="M934 2018q-61 0 -104.5 43.5t-43.5 104.5t43.5 104.5t104.5 43.5t104.5 -43.5t43.5 -104.5t-43.5 -104.5t-104.5 -43.5zM179 0q-15 0 -24.5 8.5t-9.5 21.5v10q0 22 14 41l1135 1413h-1036q-13 0 -23 10t-10 23v118q0 13 10 23t23 10h1351q33 0 33 -27v-12q0 -22 -14 -42
l-1136 -1412h1137q13 0 23 -10.5t10 -23.5v-118q0 -13 -10 -23t-23 -10h-1450z" />
    <glyph glyph-name="Zcaron" unicode="&#x17d;" horiz-adv-x="2362" 
d="M1494 3180q18 19 45 19h151q22 0 27.5 -11.5t-9.5 -27.5l-422 -464q-18 -18 -46 -18h-102q-27 0 -45 18l-422 464q-16 16 -10 27.5t28 11.5h153q25 0 43 -19l304 -349zM179 0q-15 0 -24.5 9.5t-9.5 23.5v38q0 24 14 41l1654 2143h-1555q-13 0 -23 10.5t-10 23.5v118
q0 13 10 23t23 10h1851q14 0 23.5 -9.5t9.5 -23.5v-38q0 -26 -14 -41l-1653 -2143h1673q14 0 24 -10.5t10 -23.5v-118q0 -13 -10.5 -23t-23.5 -10h-1969z" />
    <glyph glyph-name="zcaron" unicode="&#x17e;" horiz-adv-x="1878" 
d="M1237 2418q18 19 45 19h151q22 0 27.5 -11.5t-9.5 -27.5l-422 -464q-18 -18 -46 -18h-102q-27 0 -45 18l-422 464q-16 16 -10 27.5t28 11.5h153q25 0 43 -19l304 -349zM179 0q-15 0 -24.5 8.5t-9.5 21.5v10q0 22 14 41l1135 1413h-1036q-13 0 -23 10t-10 23v118
q0 13 10 23t23 10h1351q33 0 33 -27v-12q0 -22 -14 -42l-1136 -1412h1137q13 0 23 -10.5t10 -23.5v-118q0 -13 -10 -23t-23 -10h-1450z" />
    <glyph glyph-name="Scommaaccent" unicode="&#x218;" horiz-adv-x="2200" 
d="M483 1821q0 -109 52 -190.5t139.5 -131.5t201.5 -88t239.5 -69t251 -64.5t239.5 -84t201.5 -119t139.5 -178t52 -252.5q0 -139 -49.5 -253t-134.5 -191t-202 -130t-248 -76.5t-277 -23.5q-255 0 -461.5 70.5t-403.5 196.5q-33 20 -18 49l51 110q18 33 49 13
q74 -44 106.5 -63t104 -56.5t124 -55.5t128 -39.5t157 -30.5t172.5 -9q145 0 264.5 26t213.5 79t146.5 144t52.5 212q0 66 -14.5 122t-47 100.5t-66.5 80t-93 66t-104.5 52t-122.5 44.5t-126.5 36t-135.5 35q-112 28 -169.5 43.5t-157 49t-153.5 63t-124 80t-105.5 106.5
t-61.5 135t-26 173q0 144 57.5 265.5t166 211.5t275 140.5t373.5 50.5q133 0 250 -18.5t215.5 -54.5t165 -68t147.5 -79q30 -17 16 -48l-55 -117q-15 -31 -53 -8q-64 41 -124 72t-148 66.5t-193.5 55t-217.5 19.5q-164 0 -292 -36.5t-207 -101t-119.5 -148.5t-40.5 -183z
M1042 -246q55 0 98.5 -39.5t43.5 -124.5q0 -122 -72.5 -280t-187.5 -251q-22 -17 -43 6l-10 12q-16 23 4 44q60 59 99 135.5t39 156.5q0 32 -11 48.5t-41 38.5q-60 43 -60 111q0 59 41.5 101t99.5 42z" />
    <glyph glyph-name="scommaaccent" unicode="&#x219;" horiz-adv-x="1668" 
d="M435 1247q0 -70 36 -122t97 -84t140 -57t166 -46.5t174 -45t166 -60t140 -85t97 -125.5t36 -177q0 -102 -37.5 -183.5t-100 -135t-147.5 -89.5t-176 -51.5t-190 -15.5q-338 0 -636 188q-28 16 -16 45l48 102q5 15 18 20.5t28 -2.5q143 -87 274.5 -132.5t286.5 -45.5
q67 0 126 7.5t116.5 27.5t98.5 50.5t66 79.5t25 112q0 73 -35.5 128.5t-96 90t-139 61.5t-164.5 49t-172.5 46t-165 59.5t-139 82.5t-96 121t-35.5 170q0 221 173.5 349.5t457.5 128.5q154 0 285 -41t266 -122q30 -16 15 -46l-48 -105q-15 -30 -43 -13q-120 75 -235.5 113.5
t-246.5 38.5q-188 0 -302.5 -77t-114.5 -209zM787 -246q55 0 98.5 -39.5t43.5 -124.5q0 -122 -72.5 -280t-187.5 -251q-22 -17 -43 6l-10 12q-16 23 4 44q60 59 99 135.5t39 156.5q0 32 -11 48.5t-41 38.5q-60 43 -60 111q0 59 41.5 101t99.5 42z" />
    <glyph glyph-name="uni021A" unicode="&#x21a;" horiz-adv-x="2408" 
d="M2200 2440q13 0 23 -10t10 -23v-118q0 -13 -10 -23.5t-23 -10.5h-888v-2222q0 -13 -10 -23t-23 -10h-150q-13 0 -23 10t-10 23v2222h-887q-13 0 -23.5 10.5t-10.5 23.5v118q0 13 10.5 23t23.5 10h1070h921zM1166 -246q55 0 98.5 -39.5t43.5 -124.5q0 -122 -72.5 -280
t-187.5 -251q-22 -17 -43 6l-10 12q-16 23 4 44q60 59 99 135.5t39 156.5q0 32 -11 48.5t-41 38.5q-60 43 -60 111q0 59 41.5 101t99.5 42z" />
    <glyph glyph-name="uni021B" unicode="&#x21b;" horiz-adv-x="1525" 
d="M1375 162q15 -30 -15 -51q-197 -141 -423 -141q-497 0 -497 609v915h-307q-14 0 -23.5 9t-9.5 24v118q0 14 9.5 23.5t23.5 9.5h307v370q0 24 34 35l133 39q40 11 40 -26v-418h654q14 0 23.5 -9.5t9.5 -23.5v-118q0 -15 -9.5 -24t-23.5 -9h-654v-896q0 -77 8.5 -139
t30 -120t57 -97.5t92 -63t131.5 -23.5q167 0 314 114q33 21 49 -12zM873 -246q55 0 98.5 -39.5t43.5 -124.5q0 -122 -72.5 -280t-187.5 -251q-22 -17 -43 6l-10 12q-16 23 4 44q60 59 99 135.5t39 156.5q0 32 -11 48.5t-41 38.5q-60 43 -60 111q0 59 41.5 101t99.5 42z" />
    <glyph glyph-name="circumflex" unicode="&#x2c6;" horiz-adv-x="1061" 
d="M835 1938l-305 349l-304 -349q-18 -19 -43 -19h-153q-22 0 -28 11.5t10 27.5l422 464q18 18 45 18h102q28 0 46 -18l422 -464q15 -16 9.5 -27.5t-27.5 -11.5h-151q-27 0 -45 19z" />
    <glyph glyph-name="caron" unicode="&#x2c7;" horiz-adv-x="1061" 
d="M835 2418q18 19 45 19h151q22 0 27.5 -11.5t-9.5 -27.5l-422 -464q-18 -18 -46 -18h-102q-27 0 -45 18l-422 464q-16 16 -10 27.5t28 11.5h153q25 0 43 -19l304 -349z" />
    <glyph glyph-name="breve" unicode="&#x2d8;" horiz-adv-x="2400" 
d="M1081 2416q32 0 32 -35q0 -142 -73.5 -253.5t-194.5 -170t-266 -58.5t-266 58.5t-194.5 170t-73.5 253.5q0 35 31 35h91q14 0 25 -7.5t12 -20.5q5 -102 60.5 -176t137 -107.5t177.5 -33.5q95 0 176.5 33.5t137.5 107.5t60 176q1 13 12.5 20.5t25.5 7.5h90z" />
    <glyph glyph-name="dotaccent" unicode="&#x2d9;" horiz-adv-x="756" 
d="M378 2018q-61 0 -104.5 43.5t-43.5 104.5t43.5 104.5t104.5 43.5t104.5 -43.5t43.5 -104.5t-43.5 -104.5t-104.5 -43.5z" />
    <glyph glyph-name="ring" unicode="&#x2da;" horiz-adv-x="839" 
d="M420 1856q-162 0 -277 114t-115 276q0 161 115 276t277 115q161 0 276 -115t115 -276q0 -162 -114.5 -276t-276.5 -114zM420 1980q111 0 187 78t76 188q0 112 -75.5 190.5t-187.5 78.5t-188 -78.5t-76 -190.5q0 -110 76 -188t188 -78z" />
    <glyph glyph-name="ogonek" unicode="&#x2db;" horiz-adv-x="1455" 
d="M375 -839q-171 0 -261.5 93t-90.5 241q0 163 104 312t278 238l129 -43q-346 -208 -346 -468q0 -107 59 -169.5t167 -62.5q92 0 159 31q42 13 42 -26v-65q0 -27 -26 -39q-95 -42 -214 -42z" />
    <glyph glyph-name="tilde" unicode="&#x2dc;" horiz-adv-x="1697" 
d="M1161 2383q15 0 23.5 -15t7.5 -40q-11 -186 -100 -276.5t-223 -90.5q-62 0 -114.5 20t-87 50t-70 65.5t-64.5 65.5t-69.5 50t-85.5 20q-94 0 -145 -62t-54 -176q-3 -33 -36 -33h-57q-15 0 -23.5 9.5t-7.5 25.5q7 196 96 291.5t227 95.5q53 0 99.5 -15t79.5 -38.5
t63 -52.5t57.5 -57.5t55 -52t62.5 -38.5t74 -15q95 0 145.5 60.5t53.5 175.5q3 33 36 33h57z" />
    <glyph glyph-name="hungarumlaut" unicode="&#x2dd;" horiz-adv-x="1415" 
d="M220 1924q-7 -12 -21.5 -15.5t-26.5 3.5l-71 44q-11 7 -14.5 20.5t3.5 26.5l337 691q7 12 21 16t24 -2l108 -66q11 -7 14 -19.5t-4 -26.5zM731 1913q-12 -7 -26 -3.5t-22 15.5l-43 72q-6 10 -3 24.5t15 22.5l618 458q12 7 25.5 4t21.5 -13l65 -108q7 -10 4 -24t-16 -21z
" />
    <glyph glyph-name="uni0326" unicode="&#x326;" horiz-adv-x="0" 
d="M-1035 -246q55 0 98.5 -39.5t43.5 -124.5q0 -122 -72.5 -280t-187.5 -251q-22 -17 -43 6l-10 12q-16 23 4 44q60 59 99 135.5t39 156.5q0 32 -11 48.5t-41 38.5q-60 43 -60 111q0 59 41.5 101t99.5 42z" />
    <glyph glyph-name="uni0335" unicode="&#x335;" horiz-adv-x="0" 
 />
    <glyph glyph-name="uni0336" unicode="&#x336;" horiz-adv-x="0" 
d="M-2085 1261q-14 0 -23.5 9t-9.5 24v98q0 15 9.5 24.5t23.5 9.5h1184q15 0 24.5 -9.5t9.5 -24.5v-98q0 -15 -9.5 -24t-24.5 -9h-1184z" />
    <glyph glyph-name="uni0337" unicode="&#x337;" horiz-adv-x="0" 
 />
    <glyph glyph-name="Wgrave" unicode="&#x1e80;" horiz-adv-x="3332" 
d="M1089 3102q-13 7 -16 21t4 24l65 108q8 10 21.5 13t25.5 -4l618 -458q12 -8 15 -22.5t-3 -24.5l-43 -72q-8 -12 -22 -15.5t-26 3.5zM3222 2440q40 0 26 -39l-806 -2415q-9 -26 -38 -26h-46q-27 0 -39 26l-663 1908l-662 -1908q-10 -26 -39 -26h-45q-29 0 -38 26
l-809 2414q-6 19 1 29.5t25 10.5h167q30 0 39 -26l652 -2042l650 1903q11 25 39 25h40q28 0 38 -25l662 -1903l643 2043q8 25 38 25h165z" />
    <glyph glyph-name="wgrave" unicode="&#x1e81;" horiz-adv-x="2643" 
d="M745 2340q-13 7 -16 21t4 24l65 108q8 10 21.5 13t25.5 -4l618 -458q12 -8 15 -22.5t-3 -24.5l-43 -72q-8 -12 -22 -15.5t-26 3.5zM2566 1678q22 0 31.5 -17t0.5 -40l-626 -1649q-6 -12 -22 -12h-22q-15 0 -21 12l-585 1192l-586 -1192q-6 -12 -20 -12h-22q-16 0 -22 12
l-627 1649q-9 22 0.5 39.5t32.5 17.5h149q22 0 32 -24l476 -1302l551 1139q9 20 24 20h24q15 0 24 -20l551 -1139l480 1302q10 24 32 24h145z" />
    <glyph glyph-name="Wacute" unicode="&#x1e82;" horiz-adv-x="3332" 
d="M1524 2687l-43 72q-6 10 -3 24.5t15 22.5l618 458q12 7 25.5 4t21.5 -13l65 -108q7 -10 4 -24t-16 -21l-639 -427q-12 -7 -26 -3.5t-22 15.5zM3222 2440q40 0 26 -39l-806 -2415q-9 -26 -38 -26h-46q-27 0 -39 26l-663 1908l-662 -1908q-10 -26 -39 -26h-45q-29 0 -38 26
l-809 2414q-6 19 1 29.5t25 10.5h167q30 0 39 -26l652 -2042l650 1903q11 25 39 25h40q28 0 38 -25l662 -1903l643 2043q8 25 38 25h165z" />
    <glyph glyph-name="wacute" unicode="&#x1e83;" horiz-adv-x="2643" 
d="M1180 1925l-43 72q-6 10 -3 24.5t15 22.5l618 458q12 7 25.5 4t21.5 -13l65 -108q7 -10 4 -24t-16 -21l-639 -427q-12 -7 -26 -3.5t-22 15.5zM2566 1678q22 0 31.5 -17t0.5 -40l-626 -1649q-6 -12 -22 -12h-22q-15 0 -21 12l-585 1192l-586 -1192q-6 -12 -20 -12h-22
q-16 0 -22 12l-627 1649q-9 22 0.5 39.5t32.5 17.5h149q22 0 32 -24l476 -1302l551 1139q9 20 24 20h24q15 0 24 -20l551 -1139l480 1302q10 24 32 24h145z" />
    <glyph glyph-name="Wdieresis" unicode="&#x1e84;" horiz-adv-x="3332" 
d="M1319 2781q-59 0 -101.5 42.5t-42.5 101.5t42.5 102t101.5 43t102 -43t43 -102t-43 -101.5t-102 -42.5zM2020 2781q-59 0 -101.5 42.5t-42.5 101.5t42.5 102t101.5 43t102 -43t43 -102t-43 -101.5t-102 -42.5zM3222 2440q40 0 26 -39l-806 -2415q-9 -26 -38 -26h-46
q-27 0 -39 26l-663 1908l-662 -1908q-10 -26 -39 -26h-45q-29 0 -38 26l-809 2414q-6 19 1 29.5t25 10.5h167q30 0 39 -26l652 -2042l650 1903q11 25 39 25h40q28 0 38 -25l662 -1903l643 2043q8 25 38 25h165z" />
    <glyph glyph-name="wdieresis" unicode="&#x1e85;" horiz-adv-x="2643" 
d="M975 2019q-59 0 -101.5 42.5t-42.5 101.5t42.5 102t101.5 43t102 -43t43 -102t-43 -101.5t-102 -42.5zM1676 2019q-59 0 -101.5 42.5t-42.5 101.5t42.5 102t101.5 43t102 -43t43 -102t-43 -101.5t-102 -42.5zM2566 1678q22 0 31.5 -17t0.5 -40l-626 -1649q-6 -12 -22 -12
h-22q-15 0 -21 12l-585 1192l-586 -1192q-6 -12 -20 -12h-22q-16 0 -22 12l-627 1649q-9 22 0.5 39.5t32.5 17.5h149q22 0 32 -24l476 -1302l551 1139q9 20 24 20h24q15 0 24 -20l551 -1139l480 1302q10 24 32 24h145z" />
    <glyph glyph-name="Ygrave" unicode="&#x1ef2;" horiz-adv-x="2318" 
d="M581 3102q-13 7 -16 21t4 24l65 108q8 10 21.5 13t25.5 -4l618 -458q12 -8 15 -22.5t-3 -24.5l-43 -72q-8 -12 -22 -15.5t-26 3.5zM2205 2440q20 0 29 -11t-1 -28l-970 -1527v-841q0 -13 -10.5 -23t-23.5 -10h-149q-13 0 -23 10t-10 23v830l-981 1538q-9 17 -1 28t26 11
h179q24 0 39 -26l849 -1351l847 1351q15 26 40 26h160z" />
    <glyph glyph-name="ygrave" unicode="&#x1ef3;" horiz-adv-x="1722" 
d="M282 2340q-13 7 -16 21t4 24l65 108q8 10 21.5 13t25.5 -4l618 -458q12 -8 15 -22.5t-3 -24.5l-43 -72q-8 -12 -22 -15.5t-26 3.5zM1642 1678q24 0 34.5 -18.5t-1.5 -42.5l-744 -1621q-70 -157 -128 -272t-122 -218.5t-125.5 -172t-132 -119t-148 -73.5t-167.5 -23
q-37 0 -37 34v103q0 30 31 33q182 9 332 194.5t356 645.5l-743 1489q-13 24 -2.5 42.5t36.5 18.5h151q20 0 31 -22l624 -1311l588 1311q9 22 34 22h133z" />
    <glyph glyph-name="endash" unicode="&#x2013;" horiz-adv-x="1893" 
d="M73 883q-15 0 -24.5 9.5t-9.5 23.5v99q0 14 9.5 23.5t24.5 9.5h1747q15 0 24.5 -9.5t9.5 -23.5v-99q0 -14 -9.5 -23.5t-24.5 -9.5h-1747z" />
    <glyph glyph-name="emdash" unicode="&#x2014;" horiz-adv-x="3093" 
d="M73 883q-15 0 -24.5 9.5t-9.5 23.5v99q0 14 9.5 23.5t24.5 9.5h2947q15 0 24.5 -9.5t9.5 -23.5v-99q0 -14 -9.5 -23.5t-24.5 -9.5h-2947z" />
    <glyph glyph-name="quoteleft" unicode="&#x2018;" horiz-adv-x="754" 
d="M378 1906q-57 0 -102.5 41.5t-45.5 130.5q0 128 75.5 293t196.5 263q24 17 45 -7l10 -12q18 -25 -4 -46q-63 -62 -103.5 -142.5t-40.5 -163.5q0 -34 11 -51.5t43 -39.5q63 -44 63 -116q0 -62 -43.5 -106t-104.5 -44z" />
    <glyph glyph-name="quoteright" unicode="&#x2019;" horiz-adv-x="754" 
d="M376 2590q57 0 102.5 -41.5t45.5 -130.5q0 -128 -75.5 -293t-196.5 -263q-24 -17 -45 7l-10 12q-17 24 4 46q63 62 103.5 142.5t40.5 163.5q0 34 -11 51.5t-43 39.5q-63 44 -63 116q0 62 43.5 106t104.5 44z" />
    <glyph glyph-name="quotesinglbase" unicode="&#x201a;" horiz-adv-x="754" 
d="M376 266q57 0 102.5 -41.5t45.5 -130.5q0 -128 -75.5 -293t-196.5 -263q-24 -17 -45 7l-10 12q-17 25 4 46q63 62 103.5 142.5t40.5 163.5q0 34 -11 51.5t-43 39.5q-63 44 -63 116q0 62 43.5 106t104.5 44z" />
    <glyph glyph-name="quotedblleft" unicode="&#x201c;" horiz-adv-x="1205" 
d="M378 1906q-57 0 -102.5 41.5t-45.5 130.5q0 128 75.5 293t196.5 263q24 17 45 -7l10 -12q18 -25 -4 -46q-63 -62 -103.5 -142.5t-40.5 -163.5q0 -34 11 -51.5t43 -39.5q63 -44 63 -116q0 -62 -43.5 -106t-104.5 -44zM829 1906q-57 0 -102.5 41.5t-45.5 130.5
q0 128 75.5 293t196.5 263q24 17 45 -7l10 -12q18 -25 -4 -46q-63 -62 -103.5 -142.5t-40.5 -163.5q0 -34 11 -51.5t43 -39.5q63 -44 63 -116q0 -62 -43.5 -106t-104.5 -44z" />
    <glyph glyph-name="quotedblright" unicode="&#x201d;" horiz-adv-x="1205" 
d="M376 2590q57 0 102.5 -41.5t45.5 -130.5q0 -128 -75.5 -293t-196.5 -263q-24 -17 -45 7l-10 12q-17 24 4 46q63 62 103.5 142.5t40.5 163.5q0 34 -11 51.5t-43 39.5q-63 44 -63 116q0 62 43.5 106t104.5 44zM827 2590q57 0 102.5 -41.5t45.5 -130.5q0 -128 -75.5 -293
t-196.5 -263q-24 -17 -45 7l-10 12q-18 24 4 46q63 62 103.5 142.5t40.5 163.5q0 34 -11 51.5t-43 39.5q-63 44 -63 116q0 62 43.5 106t104.5 44z" />
    <glyph glyph-name="quotedblbase" unicode="&#x201e;" horiz-adv-x="1205" 
d="M376 266q57 0 102.5 -41.5t45.5 -130.5q0 -128 -75.5 -293t-196.5 -263q-24 -17 -45 7l-10 12q-17 25 4 46q63 62 103.5 142.5t40.5 163.5q0 34 -11 51.5t-43 39.5q-63 44 -63 116q0 62 43.5 106t104.5 44zM827 266q57 0 102.5 -41.5t45.5 -130.5q0 -128 -75.5 -293
t-196.5 -263q-24 -17 -45 7l-10 12q-18 25 4 46q63 62 103.5 142.5t40.5 163.5q0 34 -11 51.5t-43 39.5q-63 44 -63 116q0 62 43.5 106t104.5 44z" />
    <glyph glyph-name="dagger" unicode="&#x2020;" horiz-adv-x="1563" 
d="M1404 2019q15 0 24.5 -9.5t9.5 -23.5v-89q0 -14 -9.5 -23.5t-24.5 -9.5h-534v-2031q0 -14 -9.5 -23.5t-23.5 -9.5h-110q-15 0 -24.5 9.5t-9.5 23.5v2031h-534q-15 0 -24.5 9.5t-9.5 23.5v89q0 14 9.5 23.5t24.5 9.5h534v708q0 14 9.5 23.5t24.5 9.5h110q14 0 23.5 -9.5
t9.5 -23.5v-708h534z" />
    <glyph glyph-name="daggerdbl" unicode="&#x2021;" horiz-adv-x="1563" 
d="M1404 1864h-534v-1168h534q15 0 24.5 -9.5t9.5 -23.5v-89q0 -14 -9.5 -23.5t-24.5 -9.5h-534v-708q0 -14 -9.5 -23.5t-23.5 -9.5h-110q-15 0 -24.5 9.5t-9.5 23.5v708h-534q-15 0 -24.5 9.5t-9.5 23.5v89q0 14 9.5 23.5t24.5 9.5h534v1168h-534q-15 0 -24.5 9.5
t-9.5 23.5v89q0 14 9.5 23.5t24.5 9.5h534v708q0 14 9.5 23.5t24.5 9.5h110q14 0 23.5 -9.5t9.5 -23.5v-708h534q15 0 24.5 -9.5t9.5 -23.5v-89q0 -14 -9.5 -23.5t-24.5 -9.5z" />
    <glyph glyph-name="bullet" unicode="&#x2022;" horiz-adv-x="996" 
d="M551 595q-134 0 -230.5 96.5t-96.5 230.5t96.5 230.5t230.5 96.5t230.5 -96.5t96.5 -230.5t-96.5 -230.5t-230.5 -96.5z" />
    <glyph glyph-name="ellipsis" unicode="&#x2026;" horiz-adv-x="2010" 
d="M378 -30q-61 0 -104.5 43.5t-43.5 104.5t43.5 104.5t104.5 43.5t104.5 -43.5t43.5 -104.5t-43.5 -104.5t-104.5 -43.5zM1005 -30q-61 0 -104.5 43.5t-43.5 104.5t43.5 104.5t104.5 43.5t104.5 -43.5t43.5 -104.5t-43.5 -104.5t-104.5 -43.5zM1631 -30q-61 0 -104.5 43.5
t-43.5 104.5t43.5 104.5t104.5 43.5t104.5 -43.5t43.5 -104.5t-43.5 -104.5t-104.5 -43.5z" />
    <glyph glyph-name="perthousand" unicode="&#x2030;" horiz-adv-x="4643" 
d="M2306 2495q12 -5 17 -18.5t-1 -25.5l-1179 -2540q-5 -13 -18.5 -17.5t-25.5 0.5l-91 43q-12 6 -16.5 19t0.5 25l1178 2540q6 12 19.5 17t25.5 -1zM1348 1702q0 -349 -160.5 -558t-413.5 -209q-252 0 -413 209t-161 558t161 558.5t413 209.5q166 0 295.5 -92.5t204 -268
t74.5 -407.5zM774 1103q187 0 288 161t101 438t-101 438t-288 161q-185 0 -286.5 -161.5t-101.5 -437.5t101.5 -437.5t286.5 -161.5zM2529 1505q253 0 413.5 -209t160.5 -558q0 -232 -74.5 -407.5t-204 -268t-295.5 -92.5q-252 0 -413 209.5t-161 558.5t161 558t413 209z
M3868 1505q253 0 413.5 -209t160.5 -558q0 -232 -74.5 -407.5t-204 -268t-295.5 -92.5q-165 0 -295 92.5t-204 268t-74 407.5q0 349 160.5 558t412.5 209zM2529 139q187 0 288 161t101 438t-101 438t-288 161q-185 0 -286.5 -161.5t-101.5 -437.5t101.5 -437.5t286.5 -161.5
zM3868 139q187 0 288 161t101 438t-101 438t-288 161q-185 0 -286.5 -161.5t-101.5 -437.5t101.5 -437.5t286.5 -161.5z" />
    <glyph glyph-name="guilsinglleft" unicode="&#x2039;" horiz-adv-x="1187" 
d="M966 1334q0 -12 -10 -20l-572 -447l572 -446q10 -8 10 -20v-85q0 -25 -19.5 -34.5t-40.5 5.5l-675 505q-11 8 -11 21v109q0 13 11 21l675 505q21 15 40.5 5.5t19.5 -34.5v-85z" />
    <glyph glyph-name="guilsinglright" unicode="&#x203a;" horiz-adv-x="1187" 
d="M956 943q11 -8 11 -21v-109q0 -13 -11 -21l-675 -505q-21 -15 -40.5 -5.5t-19.5 34.5v85q0 12 10 20l572 446l-572 447q-10 8 -10 20v85q0 25 19.5 34.5t40.5 -5.5z" />
    <glyph glyph-name="fraction" unicode="&#x2044;" horiz-adv-x="1392" 
d="M1286 2405q5 12 18.5 17t25.5 -1l73 -34q12 -5 17 -18.5t0 -25.5l-1235 -2648q-6 -13 -19.5 -17.5t-25.5 0.5l-73 34q-12 6 -17 19.5t1 24.5z" />
    <glyph glyph-name="Euro" unicode="&#x20ac;" horiz-adv-x="2895" 
d="M2694 652q32 -14 16 -47q-318 -635 -1004 -635q-201 0 -390 62t-344.5 176t-271.5 284.5t-170 377.5h-355v141h327q-15 101 -15 209t15 207h-327v142h355q53 207 169 377.5t272 284.5t345 176.5t390 62.5q686 0 1004 -635q16 -33 -16 -47l-114 -55q-32 -14 -47 18
q-270 534 -827 534q-337 0 -593.5 -193.5t-351.5 -522.5h1260l-103 -142h-1189q-16 -106 -16 -207q0 -102 16 -209h1188l-101 -141h-1055q96 -329 352 -522t593 -193q557 0 827 534q15 32 47 18z" />
    <glyph glyph-name="trademark" unicode="&#x2122;" horiz-adv-x="3426" 
d="M3169 2467q9 0 15 -6t6 -15v-1499q0 -8 -6 -14t-15 -6h-93q-9 0 -14.5 6t-5.5 14v1214l-620 -950q-16 -22 -30 0l-620 950v-1214q0 -8 -5.5 -14t-14.5 -6h-93q-9 0 -15 6t-6 14v1499q0 9 6 15t15 6h29q15 0 28 -16l691 -1033l691 1033q13 16 28 16h29zM1414 2442
q8 0 14 -6t6 -14v-74q0 -8 -6 -14.5t-14 -6.5h-551v-1380q0 -8 -6.5 -14t-14.5 -6h-93q-8 0 -14 6t-6 14v1380h-551q-8 0 -14.5 6.5t-6.5 14.5v74q0 8 6.5 14t14.5 6h664h572z" />
    <glyph glyph-name="oneeighth" unicode="&#x215b;" horiz-adv-x="3938" 
d="M2303 2436q12 -5 17 -18.5t0 -25.5l-1235 -2648q-6 -13 -19.5 -17.5t-25.5 0.5l-73 34q-12 6 -17 19.5t1 24.5l1235 2649q5 12 18.5 17t25.5 -1zM789 2397q8 0 14.5 -6.5t6.5 -14.5v-1561q0 -8 -6.5 -15t-14.5 -7h-99q-8 0 -15 7t-7 15v1437l-308 -160q-9 -4 -18 -1
t-14 12l-30 67q-10 19 9 29l370 192q13 6 29 6h83zM3090 846q72 -20 134 -54t115 -84.5t83.5 -123t30.5 -158.5q0 -201 -154.5 -323.5t-415.5 -122.5t-415.5 122.5t-154.5 323.5q0 86 30.5 158.5t83 123t115 84.5t135.5 54q-62 17 -116.5 47t-101 74.5t-73.5 108t-27 138.5
q0 174 143 292t381 118q239 0 381.5 -118t142.5 -292q0 -75 -27 -138.5t-73.5 -108t-100.5 -74.5t-116 -47zM2497 1203q0 -132 109.5 -216t276.5 -84q166 0 276 84t110 216q0 131 -107.5 219t-278.5 88t-278.5 -88t-107.5 -219zM2883 102q195 0 311.5 94t116.5 246
q0 153 -116.5 246.5t-311.5 93.5t-311.5 -93.5t-116.5 -246.5q0 -152 116.5 -246t311.5 -94z" />
    <glyph glyph-name="threeeighths" unicode="&#x215c;" horiz-adv-x="3902" 
d="M2552 2436q12 -5 17 -18.5t0 -25.5l-1235 -2648q-6 -13 -19.5 -17.5t-25.5 0.5l-73 34q-12 6 -17 19.5t1 24.5l1235 2649q5 12 18.5 17t25.5 -1zM1341 1210q0 -202 -151.5 -319.5t-413.5 -117.5q-102 0 -191 19.5t-160 56.5t-125 78t-105 94q-20 20 -11 32l56 65
q11 12 17.5 14t17.5 -8q102 -106 220 -167.5t278 -61.5q196 0 311 83t115 233q0 74 -27 133.5t-87.5 109.5t-169 78.5t-258.5 30.5q-23 2 -23 22v56q0 10 6.5 16.5t15.5 6.5q130 2 228.5 30t155.5 75.5t85 105t28 124.5q0 142 -91.5 219t-272.5 77q-137 0 -242 -51.5
t-206 -147.5q-13 -9 -19 -7.5t-16 12.5l-49 59q-11 13 10 32q232 225 539 225q124 0 219 -31t152.5 -86t86 -126.5t28.5 -156.5q0 -139 -91.5 -244.5t-265.5 -152.5q406 -74 406 -410zM3339 846q72 -20 134 -54t115 -84.5t83.5 -123t30.5 -158.5q0 -201 -154.5 -323.5
t-415.5 -122.5t-415.5 122.5t-154.5 323.5q0 86 30.5 158.5t83 123t115 84.5t135.5 54q-62 17 -116.5 47t-101 74.5t-73.5 108t-27 138.5q0 174 143 292t381 118q239 0 381.5 -118t142.5 -292q0 -75 -27 -138.5t-73.5 -108t-100.5 -74.5t-116 -47zM2746 1203
q0 -132 109.5 -216t276.5 -84q166 0 276 84t110 216q0 131 -107.5 219t-278.5 88t-278.5 -88t-107.5 -219zM3132 102q195 0 311.5 94t116.5 246q0 153 -116.5 246.5t-311.5 93.5t-311.5 -93.5t-116.5 -246.5q0 -152 116.5 -246t311.5 -94z" />
    <glyph glyph-name="fiveeighths" unicode="&#x215d;" horiz-adv-x="3903" 
d="M2552 2436q12 -5 17 -18.5t0 -25.5l-1235 -2648q-6 -13 -19.5 -17.5t-25.5 0.5l-73 34q-12 6 -17 19.5t1 24.5l1235 2649q5 12 18.5 17t25.5 -1zM1359 1269q0 -231 -160.5 -363.5t-418.5 -132.5q-189 0 -321.5 61t-242.5 174q-21 20 -11 32l56 65q17 22 34 6
q103 -104 216 -160t266 -56q125 0 223 41.5t157.5 127.5t59.5 206q0 172 -122.5 277t-320.5 105q-219 0 -391 -106q-10 -4 -17 0l-71 29q-14 6 -12 21l88 780q0 21 21 21h854q9 0 15.5 -6.5t6.5 -14.5v-78q0 -9 -6.5 -15.5t-15.5 -6.5h-755l-68 -597q169 87 373 87
q93 -2 176 -22t154 -60.5t122.5 -98t81 -138.5t29.5 -178zM3339 846q72 -20 134 -54t115 -84.5t83.5 -123t30.5 -158.5q0 -201 -154.5 -323.5t-415.5 -122.5t-415.5 122.5t-154.5 323.5q0 86 30.5 158.5t83 123t115 84.5t135.5 54q-62 17 -116.5 47t-101 74.5t-73.5 108
t-27 138.5q0 174 143 292t381 118q239 0 381.5 -118t142.5 -292q0 -75 -27 -138.5t-73.5 -108t-100.5 -74.5t-116 -47zM2746 1203q0 -132 109.5 -216t276.5 -84q166 0 276 84t110 216q0 131 -107.5 219t-278.5 88t-278.5 -88t-107.5 -219zM3132 102q195 0 311.5 94
t116.5 246q0 153 -116.5 246.5t-311.5 93.5t-311.5 -93.5t-116.5 -246.5q0 -152 116.5 -246t311.5 -94z" />
    <glyph glyph-name="seveneighths" unicode="&#x215e;" horiz-adv-x="3665" 
d="M2301 2436q12 -5 17 -18.5t0 -25.5l-1235 -2648q-6 -13 -19.5 -17.5t-25.5 0.5l-73 34q-12 6 -17 19.5t1 24.5l1235 2649q5 12 18.5 17t25.5 -1zM1304 2353q0 -11 -9 -31l-716 -1518q-6 -11 -17 -11h-93q-16 0 -23.5 12t-0.5 27l681 1444h-958q-9 0 -16 6.5t-7 15.5v78
q0 8 7 14.5t16 6.5h1114q10 0 16 -6t6 -15v-23zM3088 846q72 -20 134 -54t115 -84.5t83.5 -123t30.5 -158.5q0 -201 -154.5 -323.5t-415.5 -122.5t-415.5 122.5t-154.5 323.5q0 86 30.5 158.5t83 123t115 84.5t135.5 54q-62 17 -116.5 47t-101 74.5t-73.5 108t-27 138.5
q0 174 143 292t381 118q239 0 381.5 -118t142.5 -292q0 -75 -27 -138.5t-73.5 -108t-100.5 -74.5t-116 -47zM2495 1203q0 -132 109.5 -216t276.5 -84q166 0 276 84t110 216q0 131 -107.5 219t-278.5 88t-278.5 -88t-107.5 -219zM2881 102q195 0 311.5 94t116.5 246
q0 153 -116.5 246.5t-311.5 93.5t-311.5 -93.5t-116.5 -246.5q0 -152 116.5 -246t311.5 -94z" />
    <glyph glyph-name="partialdiff" unicode="&#x2202;" horiz-adv-x="2049" 
d="M654 2574q217 -42 397 -134t303 -208t218 -264.5t149.5 -291.5t89 -302t46 -283.5t11.5 -246.5q0 -196 -67.5 -361.5t-182.5 -277t-267.5 -173.5t-321.5 -62q-168 0 -322.5 62.5t-271 172t-186 270t-69.5 345.5t65.5 345t177.5 269.5t263 172t319 62.5q191 0 346.5 -79
t257.5 -223q-31 144 -79 271t-129.5 256.5t-188.5 230.5t-261.5 181.5t-342.5 120.5q-19 5 -26.5 20.5t0.5 32.5l33 75q11 26 39 19zM1029 155q104 0 199 30t174 88t137 138t90.5 185t32.5 224q0 148 -50 273.5t-136 210.5t-201.5 132.5t-245.5 47.5q-129 0 -244.5 -47.5
t-201.5 -132.5t-136.5 -210.5t-50.5 -273.5q0 -197 86.5 -350t230 -234t316.5 -81z" />
    <glyph glyph-name="emptyset" unicode="&#x2205;" horiz-adv-x="2764" 
d="M2553 2072q25 -25 -3 -53l-363 -354q112 -137 173.5 -304.5t61.5 -351.5q0 -211 -83 -403.5t-223 -331.5t-332 -221.5t-402 -82.5q-189 0 -361.5 65.5t-311.5 184.5l-362 -354q-29 -29 -54 -3l-82 84q-11 11 -10 26t13 27l363 355q-112 136 -173 303.5t-61 350.5
q0 211 83 403.5t222.5 331.5t331.5 221.5t402 82.5q188 0 361 -65.5t312 -183.5l362 354q29 28 54 3zM539 1009q0 -296 170 -525l1217 1189q-234 199 -544 199q-173 0 -329 -67t-268.5 -181t-179 -274.5t-66.5 -340.5zM2225 1009q0 297 -170 526l-1217 -1189
q234 -199 544 -199q173 0 329 67t268.5 181t179 274.5t66.5 339.5z" />
    <glyph glyph-name="product" unicode="&#x220f;" horiz-adv-x="2001" 
d="M1733 2940q13 0 23 -10t10 -23v-3322q0 -13 -10 -23.5t-23 -10.5h-101q-13 0 -23 10.5t-10 23.5v3200h-1197v-3200q0 -14 -10 -24t-23 -10h-100q-13 0 -23.5 10.5t-10.5 23.5v3322q0 13 10.5 23t23.5 10h100h1305h59z" />
    <glyph glyph-name="summation" unicode="&#x2211;" horiz-adv-x="1868" 
d="M1723 2818q0 -15 -9.5 -24t-24.5 -9h-1385l903 -1524q8 -15 0 -31l-903 -1524h1385q15 0 24.5 -9t9.5 -24v-88q0 -15 -9.5 -24.5t-24.5 -9.5h-1552q-14 0 -23.5 9.5t-9.5 24.5v84q0 36 15 62l908 1515l-908 1514q-15 26 -15 62v85q0 14 9.5 23.5t23.5 9.5h1552
q15 0 24.5 -9.5t9.5 -23.5v-89z" />
    <glyph glyph-name="minus" unicode="&#x2212;" horiz-adv-x="2056" 
d="M254 983q-15 0 -24.5 9.5t-9.5 23.5v99q0 14 9.5 23.5t24.5 9.5h1548q14 0 23.5 -9.5t9.5 -23.5v-99q0 -14 -9.5 -23.5t-23.5 -9.5h-1548z" />
    <glyph glyph-name="radical" unicode="&#x221a;" horiz-adv-x="2243" 
d="M1955 2938q6 22 29 22h140q21 0 32 -15.5t4 -35.5l-1009 -2888q-6 -21 -29 -21h-117q-20 0 -28 19l-568 1374h-346q-14 0 -24 10t-10 24v97q0 14 10 24t24 10h480q22 0 29 -20l494 -1258z" />
    <glyph glyph-name="infinity" unicode="&#x221e;" horiz-adv-x="2792" 
d="M2016 1612q114 0 217 -43.5t177 -118t117.5 -179t43.5 -221.5t-43.5 -221.5t-117.5 -179t-177 -118t-217 -43.5q-108 0 -198.5 31t-165 94t-133 137t-123.5 181q-65 -107 -123.5 -181t-133 -137t-165 -94t-198.5 -31q-114 0 -217 43.5t-177 118t-117.5 179t-43.5 221.5
t43.5 221.5t117.5 179t177 118t217 43.5q108 0 198.5 -31t165 -94t133 -137t123.5 -181q65 107 123.5 181t133 137t165 94t198.5 31zM770 650q83 0 157 28.5t139 85t119 124t115 162.5q-61 95 -115 162.5t-119 124t-139 85t-157 28.5q-105 0 -190 -54.5t-132 -146
t-47 -199.5t47 -199.5t132 -146t190 -54.5zM2022 650q105 0 190 54.5t132 146t47 199.5t-47 199.5t-132 146t-190 54.5q-83 0 -157 -28.5t-139 -85t-119 -124t-115 -162.5q61 -95 115 -162.5t119 -124t139 -85t157 -28.5z" />
    <glyph glyph-name="integral" unicode="&#x222b;" horiz-adv-x="1638" 
d="M1641 2905q17 -13 20 -24.5t-6 -26.5l-47 -87q-16 -30 -52 -9q-147 107 -306 107q-98 0 -169.5 -34t-113.5 -96.5t-61.5 -142.5t-19.5 -180v-2685q0 -273 -148.5 -441t-402.5 -168q-117 0 -229 38.5t-181 96.5q-17 14 -20 24.5t6 27.5l47 86q16 30 51 10
q146 -108 306 -108q98 0 170 34t114 96.5t61.5 142.5t19.5 180v2686q0 273 148 440.5t403 167.5q116 0 228.5 -38.5t181.5 -96.5z" />
    <glyph glyph-name="approxequal" unicode="&#x2248;" horiz-adv-x="2206" 
d="M237 1232q-23 13 -15 38q59 168 191.5 270.5t289.5 102.5q86 0 166.5 -20.5t138.5 -51.5t120.5 -67t115.5 -67t121 -51.5t138 -20.5q119 0 216.5 71.5t142.5 174.5q19 33 50 16l57 -31q24 -12 14 -37q-58 -169 -190.5 -271.5t-289.5 -102.5q-102 0 -194.5 28.5t-162 69.5
t-136.5 82t-146 69.5t-161 28.5q-119 0 -216.5 -71.5t-143.5 -173.5q-8 -15 -21.5 -19.5t-27.5 2.5zM1969 876q24 -12 14 -37q-58 -169 -190.5 -271.5t-289.5 -102.5q-102 0 -194.5 28.5t-162 69.5t-136.5 82t-146 69.5t-161 28.5q-119 0 -216.5 -71.5t-143.5 -173.5
q-8 -15 -21.5 -19.5t-27.5 2.5l-57 31q-23 13 -15 38q59 168 191.5 270.5t289.5 102.5q86 0 166.5 -20.5t138.5 -51.5t120.5 -67t115.5 -67t121 -51.5t138 -20.5q119 0 216.5 71.5t142.5 174.5q19 33 50 16z" />
    <glyph glyph-name="notequal" unicode="&#x2260;" horiz-adv-x="2056" 
d="M1802 1348h-540l-241 -570h781q14 0 23.5 -9.5t9.5 -23.5v-99q0 -14 -9.5 -23.5t-23.5 -9.5h-851l-234 -551q-5 -12 -19 -17t-26 0l-91 42q-12 6 -16.5 20t1.5 25l204 481h-516q-15 0 -24.5 9.5t-9.5 23.5v99q0 14 9.5 23.5t24.5 9.5h586l241 570h-827q-15 0 -24.5 9.5
t-9.5 23.5v99q0 14 9.5 23.5t24.5 9.5h897l221 522q6 12 19 17t26 0l91 -42q12 -5 17 -18.5t-1 -26.5l-192 -452h470q14 0 23.5 -9.5t9.5 -23.5v-99q0 -14 -9.5 -23.5t-23.5 -9.5z" />
    <glyph glyph-name="lessequal" unicode="&#x2264;" horiz-adv-x="2056" 
d="M1835 1767q0 -9 -5.5 -15.5t-10.5 -9.5t-17 -8l-1382 -617l1382 -617q12 -5 17 -8t10.5 -9.5t5.5 -15.5v-135q0 -15 -10 -22.5t-23 -1.5l-1548 700q-34 15 -34 39v140q0 24 34 39l1548 700q13 6 23 -1.5t10 -22.5v-135zM254 -50q-15 0 -24.5 9.5t-9.5 23.5v99
q0 14 9.5 23.5t24.5 9.5h1548q14 0 23.5 -9.5t9.5 -23.5v-99q0 -14 -9.5 -23.5t-23.5 -9.5h-1548z" />
    <glyph glyph-name="greaterequal" unicode="&#x2265;" horiz-adv-x="2056" 
d="M221 1767v135q0 15 10 22.5t23 1.5l1548 -700q34 -15 34 -39v-140q0 -24 -34 -39l-1548 -700q-13 -6 -23 1.5t-10 22.5v135q0 9 5.5 15.5t10.5 9.5t17 8l1382 617l-1382 617q-12 5 -17 8t-10.5 9.5t-5.5 15.5zM1802 -50h-1548q-14 0 -23.5 9.5t-9.5 23.5v99
q0 14 9.5 23.5t23.5 9.5h1548q15 0 24.5 -9.5t9.5 -23.5v-99q0 -14 -9.5 -23.5t-24.5 -9.5z" />
    <glyph glyph-name="lozenge" unicode="&#x25ca;" horiz-adv-x="2212" 
d="M1073 2749q13 19 33 19t33 -19l847 -1332q11 -17 0 -34l-847 -1332q-13 -19 -33 -19t-33 19l-848 1332q-10 18 0 34zM1106 279l694 1121l-694 1121l-694 -1121z" />
    <glyph glyph-name="i.loclTRK" horiz-adv-x="667" 
d="M334 2018q-61 0 -104.5 43.5t-43.5 104.5t43.5 104.5t104.5 43.5t104.5 -43.5t43.5 -104.5t-43.5 -104.5t-104.5 -43.5zM230 1645q0 14 9.5 23.5t24.5 9.5h139q15 0 24 -9.5t9 -23.5v-1612q0 -14 -9 -23.5t-24 -9.5h-139q-15 0 -24.5 9.5t-9.5 23.5v1612z" />
    <glyph glyph-name="zero.osf" horiz-adv-x="2098" 
d="M1049 1808q177 0 334.5 -63.5t276 -179.5t188 -291t69.5 -385t-69.5 -385t-188 -291t-276 -179.5t-334.5 -63.5t-334.5 63.5t-276.5 179.5t-188.5 291t-69.5 385t69.5 385t188.5 291t276.5 179.5t334.5 63.5zM1049 155q133 0 250.5 49t207 140t142 232t52.5 313
t-52.5 313t-142 232t-207 140t-250.5 49t-250.5 -49t-207.5 -140t-142.5 -232t-52.5 -313t52.5 -313t142.5 -232t207.5 -140t250.5 -49z" />
    <glyph glyph-name="one.osf" horiz-adv-x="1345" 
d="M927 1778q13 0 23 -10t10 -23v-1712q0 -13 -10 -23t-23 -10h-140q-13 0 -23 10t-10 23v1524l-469 -243q-32 -15 -48 16l-47 102q-6 13 -2 25.5t17 19.5l562 291q19 10 44 10h116z" />
    <glyph glyph-name="two.osf" horiz-adv-x="1848" 
d="M1579 185q13 0 23.5 -10.5t10.5 -23.5v-118q0 -13 -10.5 -23t-23.5 -10h-1390q-15 0 -24 9.5t-9 23.5v38q0 32 13 41q146 97 250.5 167.5t212.5 146t182 130.5t148 114.5t121.5 105t92 95.5t70 92t45.5 89t27.5 91.5t7.5 94.5q0 186 -111.5 285.5t-320.5 99.5
q-325 0 -594 -288q-16 -14 -25.5 -12.5t-27.5 20.5l-80 90q-16 18 16 48q310 327 733 327q299 0 462.5 -152t163.5 -398q0 -138 -54.5 -262t-177 -254t-304.5 -262.5t-453 -294.5h1026z" />
    <glyph glyph-name="three.osf" horiz-adv-x="1891" 
d="M1117 621q283 -60 438 -213t155 -390q0 -194 -100 -339t-278.5 -221t-411.5 -76q-473 0 -788 332q-31 29 -16 47l85 100q15 18 25 20.5t28 -11.5q301 -304 672 -304q162 0 288 50t203 156.5t77 256.5q0 107 -47 193t-122.5 141.5t-178 94t-205 56t-212.5 20.5
q-35 7 -35 34v86q0 14 9.5 23.5t25.5 10.5q56 0 116.5 8t127.5 26t128.5 44.5t118 67t98.5 90t66.5 117t24.5 145.5q0 197 -136 317t-356 120q-179 0 -334.5 -78t-273.5 -196q-16 -12 -27.5 -11t-25.5 20l-70 90q-16 19 16 48q153 152 347.5 232t396.5 80q157 0 286.5 -48
t213 -130t129 -189.5t45.5 -228.5q0 -209 -132.5 -362.5t-370.5 -228.5z" />
    <glyph glyph-name="four.osf" horiz-adv-x="2036" 
d="M1883 185q14 0 23.5 -9.5t9.5 -24.5v-118q0 -14 -9.5 -23.5t-23.5 -9.5h-381v-555q0 -13 -10 -23t-23 -10h-140q-13 0 -23 10t-10 23v555h-1162q-15 0 -24.5 9.5t-9.5 23.5v118l1228 1607q15 20 44 20h96q13 0 23.5 -10t10.5 -23v-1560h381zM341 185h955l-1 1249z" />
    <glyph glyph-name="five.osf" horiz-adv-x="2137" 
d="M1106 871q171 -3 314 -51t251.5 -138.5t169 -232.5t60.5 -323q0 -225 -103 -391.5t-290.5 -254.5t-436.5 -88q-137 0 -255.5 24.5t-217.5 72.5t-179.5 108t-161.5 142q-10 10 -14 15.5t-7 16t6 16.5l85 100q15 17 24.5 19.5t27.5 -11.5q74 -75 144.5 -129.5t155 -99
t181.5 -67t207 -22.5q181 0 319 62.5t218.5 188.5t80.5 299q0 259 -164.5 415.5t-448.5 156.5q-151 0 -283 -38.5t-286 -122.5q-12 -7 -27 -2l-108 46q-21 10 -18 32l133 1131q0 14 9.5 23.5t24.5 9.5h1228q13 0 23 -10t10 -23v-118q0 -13 -10 -23t-23 -10h-1080l-103 -855
q138 72 264.5 102t279.5 30z" />
    <glyph glyph-name="six.osf" horiz-adv-x="2129" 
d="M1056 1504q166 0 309 -60t241 -163t154 -243.5t56 -297.5q0 -156 -60.5 -297t-166 -245.5t-260 -166t-332.5 -61.5t-330 64t-259 177t-167.5 275t-60.5 352q0 738 355 1127t1017 409q15 0 24.5 -9.5t9.5 -24.5v-117q0 -14 -9.5 -23.5t-23.5 -10.5q-255 -11 -450 -77
t-341 -193.5t-236 -324.5t-126 -467q101 171 272 274t384 103zM997 155q176 0 313 81.5t208.5 214t71.5 289.5q0 159 -68 289.5t-202.5 210.5t-312.5 80q-131 0 -245.5 -50.5t-191 -132.5t-120.5 -186t-44 -211q0 -157 72.5 -290t209 -214t309.5 -81z" />
    <glyph glyph-name="seven.osf" horiz-adv-x="1747" 
d="M447 -588q-25 0 -36.5 18t-0.5 41l1036 2123h-1383q-14 0 -24 10t-10 23v118q0 13 10.5 23t23.5 10h1621q14 0 23.5 -9.5t9.5 -23.5v-38q0 -23 -14 -41l-1089 -2238q-8 -16 -27 -16h-140z" />
    <glyph glyph-name="eight.osf" horiz-adv-x="2065" 
d="M1342 1248q84 -24 159.5 -60t147 -91t123 -121.5t82.5 -156t31 -190.5q0 -195 -104.5 -344.5t-298.5 -232t-449 -82.5q-256 0 -450 82.5t-298.5 231.5t-104.5 345q0 101 31 190.5t82.5 156t123 121.5t147.5 91t160 60q-91 27 -171.5 72t-150.5 110t-111 158t-41 200
q0 124 55 232.5t154.5 189.5t248 128t325.5 47t325 -47t247.5 -128t154.5 -190t55 -232q0 -87 -27.5 -164.5t-73 -136t-107.5 -106.5t-128 -80t-137 -53zM461 1770q0 -122 75.5 -222t207 -157t289.5 -57t289 57t206.5 157t75.5 222q0 191 -160.5 317t-410.5 126
q-251 0 -411.5 -126t-160.5 -317zM1033 154q286 0 461 138t175 361q0 220 -175.5 358.5t-460.5 138.5q-286 0 -461.5 -138.5t-175.5 -358.5q0 -223 175 -361t462 -138z" />
    <glyph glyph-name="nine.osf" horiz-adv-x="2040" 
d="M1019 1808q245 0 436.5 -109.5t298 -309.5t106.5 -458q0 -749 -362.5 -1143t-1033.5 -394q-15 0 -24.5 10t-9.5 24v117q0 14 9 23.5t24 10.5q516 6 809.5 263.5t366.5 795.5q-104 -174 -280.5 -279t-398.5 -105q-226 0 -405.5 103.5t-277 280t-97.5 391.5q0 160 62 303
t171 248t266.5 166.5t339.5 61.5zM1008 439q136 0 255 50.5t199 133t126 189t46 217.5q0 161 -75.5 296t-217.5 216.5t-322 81.5q-181 0 -322.5 -81.5t-216 -216.5t-74.5 -296q0 -122 41.5 -229.5t117.5 -187.5t190.5 -126.5t252.5 -46.5z" />
    <glyph glyph-name="zero.dnom" horiz-adv-x="1609" 
d="M805 1617q269 0 436.5 -223.5t167.5 -598.5t-167.5 -598.5t-436.5 -223.5t-436.5 223.5t-167.5 598.5t167.5 598.5t436.5 223.5zM805 95q144 0 247.5 88t155.5 244.5t52 367.5t-52 367.5t-155.5 244.5t-247.5 88q-215 0 -335.5 -190t-120.5 -510q0 -319 120.5 -509.5
t335.5 -190.5z" />
    <glyph glyph-name="one.dnom" horiz-adv-x="1296" 
d="M789 1604q8 0 14.5 -6.5t6.5 -14.5v-1561q0 -8 -6.5 -15t-14.5 -7h-99q-8 0 -15 7t-7 15v1437l-308 -160q-9 -4 -18 -1t-14 12l-30 67q-10 19 9 29l370 192q14 6 29 6h83z" />
    <glyph glyph-name="two.dnom" horiz-adv-x="1459" 
d="M1292 115q9 0 15.5 -7t6.5 -16v-77q0 -8 -6.5 -15t-15.5 -7h-1069q-22 0 -22 22v25q0 20 9 27q495 392 701.5 643.5t206.5 458.5q0 154 -89.5 240t-263.5 86q-138 0 -247 -60t-206 -163q-14 -9 -19.5 -7t-15.5 13l-52 60q-2 2 -3.5 4.5t-1 5t1 4t2.5 4.5l3 4.5t4 4.5l4 4
q109 115 239 181.5t306 66.5q238 0 359 -120.5t121 -315.5q0 -100 -33.5 -198.5t-95 -195t-163.5 -206.5t-223.5 -219t-290.5 -247h838z" />
    <glyph glyph-name="three.dnom" horiz-adv-x="1542" 
d="M935 820q406 -74 406 -410q0 -202 -151.5 -319.5t-413.5 -117.5q-102 0 -191 19.5t-160 56.5t-125 78t-105 94q-20 20 -11 32l56 65q11 12 17.5 14t17.5 -8q102 -106 220 -167.5t278 -61.5q196 0 311 83t115 233q0 74 -27 133.5t-87.5 109.5t-169 78.5t-258.5 30.5
q-23 2 -23 22v56q0 10 6.5 16.5t15.5 6.5q130 2 228.5 30t155.5 75.5t85 105t28 124.5q0 142 -91.5 219t-272.5 77q-137 0 -242 -51.5t-206 -147.5q-13 -9 -19 -7.5t-16 12.5l-49 59q-11 13 10 32q232 225 539 225q124 0 219 -31t152.5 -86t86 -126.5t28.5 -156.5
q0 -139 -91.5 -244.5t-265.5 -152.5z" />
    <glyph glyph-name="four.dnom" horiz-adv-x="1547" 
d="M1380 508q9 0 15.5 -6t6.5 -15v-78q0 -10 -6.5 -16t-15.5 -6h-251v-365q0 -8 -6.5 -15t-14.5 -7h-98q-9 0 -16 7t-7 15v365h-854q-10 0 -16.5 6t-6.5 16v71q0 7 5 12l878 1099q10 13 29 13h86q8 0 14.5 -6.5t6.5 -14.5v-1075h251zM285 508h702v886z" />
    <glyph glyph-name="five.dnom" horiz-adv-x="1560" 
d="M796 973q93 -2 176 -22t154 -60.5t122.5 -98t81 -138.5t29.5 -178q0 -231 -160.5 -363.5t-418.5 -132.5q-189 0 -321.5 61t-242.5 174q-21 20 -11 32l56 65q17 22 34 6q103 -104 216 -160t266 -56q125 0 223 41.5t157.5 127.5t59.5 206q0 172 -122.5 277t-320.5 105
q-219 0 -391 -106q-10 -4 -17 0l-71 29q-14 6 -12 21l88 780q0 21 21 21h854q9 0 15.5 -6.5t6.5 -14.5v-78q0 -9 -6.5 -15.5t-15.5 -6.5h-755l-68 -597q169 87 373 87z" />
    <glyph glyph-name="six.dnom" horiz-adv-x="1532" 
d="M806 1015q230 0 378 -147.5t148 -367.5q0 -144 -71 -262.5t-201 -188t-293 -69.5q-250 0 -408 161t-158 423q0 497 245.5 773t685.5 286q10 0 16.5 -6t6.5 -16v-76q0 -21 -22 -23q-687 -25 -787 -744q69 117 189.5 187t270.5 70zM767 102q184 0 300 115t116 283
q0 169 -111.5 281.5t-297.5 112.5q-122 0 -221 -57t-151.5 -146.5t-52.5 -190.5q0 -168 117 -283t301 -115z" />
    <glyph glyph-name="seven.dnom" horiz-adv-x="1519" 
d="M469 0q-16 0 -23.5 12t-0.5 27l681 1444h-958q-9 0 -16 6.5t-7 15.5v78q0 8 7 14.5t16 6.5h1114q10 0 16 -6t6 -15v-23q0 -12 -9 -31l-716 -1518q-6 -11 -17 -11h-93z" />
    <glyph glyph-name="eight.dnom" horiz-adv-x="1541" 
d="M978 846q72 -20 134 -54t115 -84.5t83.5 -123t30.5 -158.5q0 -201 -154.5 -323.5t-415.5 -122.5t-415.5 122.5t-154.5 323.5q0 86 30.5 158.5t83 123t115 84.5t135.5 54q-62 17 -116.5 47t-101 74.5t-73.5 108t-27 138.5q0 174 143 292t381 118q239 0 381.5 -118
t142.5 -292q0 -75 -27 -138.5t-73.5 -108t-100.5 -74.5t-116 -47zM385 1203q0 -132 109.5 -216t276.5 -84q166 0 276 84t110 216q0 131 -107.5 219t-278.5 88t-278.5 -88t-107.5 -219zM771 102q195 0 311.5 94t116.5 246q0 153 -116.5 246.5t-311.5 93.5t-311.5 -93.5
t-116.5 -246.5q0 -152 116.5 -246t311.5 -94z" />
    <glyph glyph-name="nine.dnom" horiz-adv-x="1512" 
d="M755 1623q247 0 402 -160.5t155 -422.5q0 -238 -61 -430t-176.5 -327.5t-289.5 -209t-394 -73.5q-23 0 -23 22v77q0 9 6 15.5t16 6.5q336 4 530.5 187.5t245.5 534.5q-69 -116 -185.5 -185.5t-263.5 -69.5q-226 0 -371 148t-145 369q0 107 41 202.5t113 165t176 110
t224 40.5zM749 710q119 0 215.5 57t147.5 146.5t51 191.5q0 168 -114 282.5t-294 114.5t-293 -114.5t-113 -282.5q0 -170 109.5 -282.5t290.5 -112.5z" />
    <glyph glyph-name="zero.numr" horiz-adv-x="1609" 
d="M805 2417q269 0 436.5 -223.5t167.5 -598.5t-167.5 -598.5t-436.5 -223.5t-436.5 223.5t-167.5 598.5t167.5 598.5t436.5 223.5zM805 895q144 0 247.5 88t155.5 244.5t52 367.5t-52 367.5t-155.5 244.5t-247.5 88q-215 0 -335.5 -190t-120.5 -510q0 -319 120.5 -509.5
t335.5 -190.5z" />
    <glyph glyph-name="one.numr" horiz-adv-x="1296" 
d="M789 2397q8 0 14.5 -6.5t6.5 -14.5v-1561q0 -8 -6.5 -15t-14.5 -7h-99q-8 0 -15 7t-7 15v1437l-308 -160q-9 -4 -18 -1t-14 12l-30 67q-10 19 9 29l370 192q13 6 29 6h83z" />
    <glyph glyph-name="two.numr" horiz-adv-x="1459" 
d="M1292 915q9 0 15.5 -7t6.5 -16v-77q0 -8 -6.5 -15t-15.5 -7h-1069q-22 0 -22 22v25q0 20 9 27q495 392 701.5 643.5t206.5 458.5q0 154 -89.5 240t-263.5 86q-138 0 -247 -60t-206 -163q-14 -9 -19.5 -7t-15.5 13l-52 60q-2 2 -3.5 4.5t-1 5t1 4t2.5 4.5l3 4.5t4 4.5l4 4
q109 115 239 181.5t306 66.5q238 0 359 -120.5t121 -315.5q0 -100 -33.5 -198.5t-95 -195t-163.5 -206.5t-223.5 -219t-290.5 -247h838z" />
    <glyph glyph-name="three.numr" horiz-adv-x="1542" 
d="M935 1620q406 -74 406 -410q0 -202 -151.5 -319.5t-413.5 -117.5q-102 0 -191 19.5t-160 56.5t-125 78t-105 94q-20 20 -11 32l56 65q11 12 17.5 14t17.5 -8q102 -106 220 -167.5t278 -61.5q196 0 311 83t115 233q0 74 -27 133.5t-87.5 109.5t-169 78.5t-258.5 30.5
q-23 2 -23 22v56q0 10 6.5 16.5t15.5 6.5q130 2 228.5 30t155.5 75.5t85 105t28 124.5q0 142 -91.5 219t-272.5 77q-137 0 -242 -51.5t-206 -147.5q-13 -9 -19 -7.5t-16 12.5l-49 59q-11 13 10 32q232 225 539 225q124 0 219 -31t152.5 -86t86 -126.5t28.5 -156.5
q0 -139 -91.5 -244.5t-265.5 -152.5z" />
    <glyph glyph-name="four.numr" horiz-adv-x="1547" 
d="M1380 1301q9 0 15.5 -6t6.5 -15v-78q0 -10 -6.5 -16t-15.5 -6h-251v-365q0 -8 -6.5 -15t-14.5 -7h-98q-9 0 -16 7t-7 15v365h-854q-10 0 -16.5 6t-6.5 16v71q0 7 5 12l878 1099q10 13 29 13h86q8 0 14.5 -6.5t6.5 -14.5v-1075h251zM285 1301h702v886z" />
    <glyph glyph-name="five.numr" horiz-adv-x="1560" 
d="M796 1766q93 -2 176 -22t154 -60.5t122.5 -98t81 -138.5t29.5 -178q0 -231 -160.5 -363.5t-418.5 -132.5q-189 0 -321.5 61t-242.5 174q-21 20 -11 32l56 65q17 22 34 6q103 -104 216 -160t266 -56q125 0 223 41.5t157.5 127.5t59.5 206q0 172 -122.5 277t-320.5 105
q-219 0 -391 -106q-10 -4 -17 0l-71 29q-14 6 -12 21l88 780q0 21 21 21h854q9 0 15.5 -6.5t6.5 -14.5v-78q0 -9 -6.5 -15.5t-15.5 -6.5h-755l-68 -597q169 87 373 87z" />
    <glyph glyph-name="six.numr" horiz-adv-x="1532" 
d="M806 1808q230 0 378 -147.5t148 -367.5q0 -144 -71 -262.5t-201 -188t-293 -69.5q-250 0 -408 161t-158 423q0 497 245.5 773t685.5 286q10 0 16.5 -6t6.5 -16v-76q0 -21 -22 -23q-687 -25 -787 -744q69 117 189.5 187t270.5 70zM767 895q184 0 300 115t116 283
q0 169 -111.5 281.5t-297.5 112.5q-122 0 -221 -57t-151.5 -146.5t-52.5 -190.5q0 -168 117 -283t301 -115z" />
    <glyph glyph-name="seven.numr" horiz-adv-x="1519" 
d="M469 793q-16 0 -23.5 12t-0.5 27l681 1444h-958q-9 0 -16 6.5t-7 15.5v78q0 8 7 14.5t16 6.5h1114q10 0 16 -6t6 -15v-23q0 -11 -9 -31l-716 -1518q-6 -11 -17 -11h-93z" />
    <glyph glyph-name="eight.numr" horiz-adv-x="1541" 
d="M978 1639q72 -20 134 -54t115 -84.5t83.5 -123t30.5 -158.5q0 -201 -154.5 -323.5t-415.5 -122.5t-415.5 122.5t-154.5 323.5q0 86 30.5 158.5t83 123t115 84.5t135.5 54q-62 17 -116.5 47t-101 74.5t-73.5 108t-27 138.5q0 174 143 292t381 118q239 0 381.5 -118
t142.5 -292q0 -75 -27 -138.5t-73.5 -108t-100.5 -74.5t-116 -47zM385 1996q0 -132 109.5 -216t276.5 -84q166 0 276 84t110 216q0 131 -107.5 219t-278.5 88t-278.5 -88t-107.5 -219zM771 895q195 0 311.5 94t116.5 246q0 153 -116.5 246.5t-311.5 93.5t-311.5 -93.5
t-116.5 -246.5q0 -152 116.5 -246t311.5 -94z" />
    <glyph glyph-name="nine.numr" horiz-adv-x="1512" 
d="M755 2416q247 0 402 -160.5t155 -422.5q0 -238 -61 -430t-176.5 -327.5t-289.5 -209t-394 -73.5q-23 0 -23 22v77q0 9 6 15.5t16 6.5q336 4 530.5 187.5t245.5 534.5q-69 -116 -185.5 -185.5t-263.5 -69.5q-226 0 -371 148t-145 369q0 107 41 202.5t113 165t176 110
t224 40.5zM749 1503q119 0 215.5 57t147.5 146.5t51 191.5q0 168 -114 282.5t-294 114.5t-293 -114.5t-113 -282.5q0 -170 109.5 -282.5t290.5 -112.5z" />
    <glyph glyph-name="com_I" horiz-adv-x="836" 
d="M310 2407q0 14 9.5 23.5t24.5 9.5h149q14 0 23.5 -9.5t9.5 -23.5v-2374q0 -14 -9.5 -23.5t-23.5 -9.5h-149q-15 0 -24.5 9.5t-9.5 23.5v2374z" />
    <glyph glyph-name="com_o" horiz-adv-x="2400" 
d="M516 880q0 154 45 291.5t125.5 242t188.5 180.5t238.5 115.5t270.5 39.5v-185q-132 0 -250 -48t-207.5 -134.5t-142 -216.5t-52.5 -285h-216z" />
    <glyph glyph-name="com_n" horiz-adv-x="2214" 
d="M1312 1718q161 0 283 -49.5t197 -140.5t112 -214.5t37 -277.5v-1003q0 -14 -9.5 -23.5t-24.5 -9.5h-139q-15 0 -24 9.5t-9 23.5v927q0 574 -482 574q-178 0 -328 -86.5t-237.5 -236.5t-87.5 -329v406q32 62 78 121.5t112.5 116t143.5 99t175 68t203 25.5z" />
    <glyph glyph-name="com_c" horiz-adv-x="2263" 
d="M1060 1595v185q485 0 719 -443q17 -30 -16 -45l-121 -57q-28 -14 -46 16q-181 344 -536 344z" />
    <glyph glyph-name="com_C" horiz-adv-x="2400" 
d="M2378 1903q-32 -14 -47 18q-270 534 -827 534v185q686 0 1004 -635q16 -33 -16 -47z" />
    <glyph glyph-name="com_O" horiz-adv-x="2400" 
 />
    <glyph glyph-name="com_i_base" horiz-adv-x="646" 
d="M220 1645q0 14 9.5 23.5t23.5 9.5h140q14 0 23.5 -9.5t9.5 -23.5v-1612q0 -14 -9.5 -23.5t-23.5 -9.5h-140q-14 0 -23.5 9.5t-9.5 23.5v1612z" />
    <glyph glyph-name="com_d" horiz-adv-x="2292" 
d="M1020 1749q228 0 402 -114t267.5 -310t98.5 -445h-96q0 114 -32 218.5t-91.5 188.5t-139 146.5t-180 96.5t-210.5 34q-132 0 -250 -48t-207.5 -134.5t-142 -216.5t-52.5 -285h-216q0 129 31.5 246.5t88 212.5t135.5 172.5t173 129.5t201.5 80t219.5 28z" />
    <glyph glyph-name="com_g_gora" horiz-adv-x="2322" 
d="M321 1200q0 119 50.5 225.5t139 184.5t215.5 124t274 46v-166q-200 0 -336 -119t-136 -295h-207z" />
    <glyph glyph-name="newGlyph" horiz-adv-x="2400" 
 />
    <glyph glyph-name="com_duze_I" horiz-adv-x="216" 
d="M0 2407q0 13 10 23t23 10h150q13 0 23 -10t10 -23v-2374q0 -13 -10 -23t-23 -10h-150q-13 0 -23 10t-10 23v2374z" />
    <glyph glyph-name="com_duze_I_bok" horiz-adv-x="216" 
d="M0 2407q0 13 10 23t23 10h150q13 0 23 -10t10 -23v-2374q0 -13 -10 -23t-23 -10h-150q-13 0 -23 10t-10 23v2374z" />
    <glyph glyph-name="com_currency" horiz-adv-x="1985" 
d="M552 1593q142 129 322.5 201t378.5 72v-176q-173 0 -329 -67t-269 -181t-179 -274.5t-66 -340.5h-197q0 190 66.5 363.5t186.5 313.5l-381 333q-13 10 -14 25.5t10 27.5l83 84q11 12 27 11t26 -14z" />
    <glyph glyph-name="com_infinity" horiz-adv-x="2400" 
d="M231 1050q0 117 43.5 221.5t117.5 179t177 118t217 43.5q108 0 198.5 -31t165 -94t133 -137t123.5 -181v-119h-96q-61 95 -115 162.5t-119 124t-139 85t-157 28.5q-105 0 -190 -54.5t-132 -146t-47 -199.5h-180z" />
    </font>
</defs>
</svg>
