<?xml version="1.0" standalone="no"?>
<!DOCTYPE svg PUBLIC "-//W3C//DTD SVG 1.1//EN" "http://www.w3.org/Graphics/SVG/1.1/DTD/svg11.dtd" >
<svg xmlns="http://www.w3.org/2000/svg" xmlns:xlink="http://www.w3.org/1999/xlink" version="1.1">
<metadata>
Created by FontForge 20170731 at Fri Jun 24 01:07:07 2016
 By Aleksey,,,
Copyright (c) 2015 by Mateusz Machalski. All rights reserved.
</metadata>
<defs>
<font id="Migrena_Grotesque-Bolditalic" horiz-adv-x="1042" >
  <font-face 
    font-family="Migrena_Grotesque"
    font-weight="800"
    font-style="italic"
    font-stretch="normal"
    units-per-em="4000"
    panose-1="0 0 9 0 0 0 0 0 0 0"
    ascent="3200"
    descent="-800"
    x-height="1878"
    cap-height="2440"
    bbox="-2203.59 -1340 5145.5 3706"
    underline-thickness="50"
    underline-position="-200"
    slope="-8"
    unicode-range="U+0020-25CA"
  />
<missing-glyph horiz-adv-x="1593" 
d="M1306 2560v-3186h-1010v3186h1010zM1061 2347h-526v-106h207v-117h-210v-106h529v106h-210v117h210v106zM851 1936h-319v-332h529v109h-210v223zM742 1827v-114h-105v114h105zM1061 1518h-529v-105h210v-118h-210v-105h319v223h210v105zM1061 1327h-105v-210h-424v-109
h529v319zM1061 938h-319v-178h109v73h105v-150h-319v255h-105v-360h529v360zM1061 387h-529v-360h529v360zM956 282v-150h-319v150h319zM1061 -46h-529v-105h223l-223 -150v-105h529v105h-325l223 150h102v105z" />
    <glyph glyph-name=".notdef" horiz-adv-x="1593" 
d="M1306 2560v-3186h-1010v3186h1010zM1061 2347h-526v-106h207v-117h-210v-106h529v106h-210v117h210v106zM851 1936h-319v-332h529v109h-210v223zM742 1827v-114h-105v114h105zM1061 1518h-529v-105h210v-118h-210v-105h319v223h210v105zM1061 1327h-105v-210h-424v-109
h529v319zM1061 938h-319v-178h109v73h105v-150h-319v255h-105v-360h529v360zM1061 387h-529v-360h529v360zM956 282v-150h-319v150h319zM1061 -46h-529v-105h223l-223 -150v-105h529v105h-325l223 150h102v105z" />
    <glyph glyph-name=".null" horiz-adv-x="0" 
 />
    <glyph glyph-name="nonmarkingreturn" horiz-adv-x="1333" 
 />
    <glyph glyph-name="space" unicode=" " horiz-adv-x="669" 
 />
    <glyph glyph-name="exclam" unicode="!" horiz-adv-x="1069" 
d="M361 2365q3 36 26 55.5t59 19.5h601q36 0 53.5 -20t10.5 -55l-290 -1442q-16 -75 -85 -75h-426q-71 0 -65 75zM391 -40q-142 0 -234.5 95.5t-92.5 236.5q0 169 130.5 293.5t300.5 124.5q141 0 234 -95.5t93 -235.5q0 -169 -130.5 -294t-300.5 -125z" />
    <glyph glyph-name="quotedbl" unicode="&#x22;" horiz-adv-x="1728" 
d="M357 2435q2 35 25 55t60 20h476q37 0 54.5 -20t10.5 -55l-187 -834q-17 -75 -86 -75h-340q-69 0 -64 75zM1166 2435q2 35 25 55t60 20h476q37 0 54.5 -20t10.5 -55l-187 -834q-17 -75 -86 -75h-340q-69 0 -64 75z" />
    <glyph glyph-name="numbersign" unicode="#" horiz-adv-x="2808" 
d="M2706 1834q43 0 60.5 -23.5t8.5 -66.5l-74 -323q-10 -43 -38.5 -66.5t-71.5 -23.5h-237l-96 -402h235q43 0 61 -23.5t8 -66.5l-74 -323q-10 -43 -38.5 -66.5t-71.5 -23.5h-241l-85 -351q-19 -75 -91 -75h-527q-36 0 -51.5 19.5t-6.5 55.5l85 351h-398l-84 -351
q-19 -75 -92 -75h-526q-36 0 -51.5 19.5t-6.5 55.5l84 351h-230q-43 0 -61.5 23.5t-8.5 66.5l75 323q22 90 109 90h237l97 402h-236q-43 0 -60.5 23.5t-7.5 66.5l73 323q9 43 38 66.5t72 23.5h242l84 351q17 75 92 75h526q36 0 51 -19.5t7 -55.5l-84 -351h397l85 351
q17 75 92 75h526q36 0 51 -19.5t7 -55.5l-85 -351h231zM1582 929l96 402h-397l-97 -402h398z" />
    <glyph glyph-name="dollar" unicode="$" horiz-adv-x="2333" 
d="M1420 1943q-165 0 -245 -47t-80 -117q0 -41 48.5 -76t107 -56t170.5 -55q95 -29 147 -46t146 -54.5t149.5 -72t126.5 -92t110 -120t67 -150t28 -188.5q0 -149 -46 -277.5t-127 -225.5t-194.5 -173t-244.5 -125t-281 -76l-59 -417q-5 -31 -29.5 -53t-55.5 -22h-387
q-31 0 -50 22t-15 53l55 393q-392 36 -699 212q-65 43 -21 122l227 381q47 78 117 43q84 -41 118.5 -57t106 -45t120.5 -40.5t121.5 -21.5t149.5 -10q161 0 250.5 40t89.5 118q0 44 -36 80t-96.5 63t-139.5 53t-166 56t-174 66.5t-166 90t-139.5 120.5t-96.5 164t-36 215
q0 327 218.5 553t603.5 296l56 398q5 31 29.5 53t55.5 22h387q31 0 50 -22t15 -53l-53 -381q202 -22 364.5 -77t259.5 -114q69 -44 24 -119l-208 -346q-49 -81 -133 -40q-62 32 -103 51t-115 47.5t-155 42.5t-167 14z" />
    <glyph glyph-name="percent" unicode="%" horiz-adv-x="3743" 
d="M2834 2515q26 -13 32.5 -42.5t-10.5 -57.5l-1562 -2537q-18 -28 -48.5 -39t-56.5 2l-202 102q-27 13 -34 42.5t10 57.5l1564 2537q17 28 47.5 38.5t57.5 -2.5zM1661 1712q-25 -179 -101.5 -327.5t-187.5 -247.5t-249 -153.5t-287 -54.5t-272 54.5t-206 153.5
t-118.5 247.5t-10.5 327.5t102 327.5t187.5 247.5t249 153.5t287.5 54.5t272 -54.5t206 -153.5t118 -247.5t10 -327.5zM899 1380q84 0 142 90.5t80 241.5q22 152 -11 242.5t-118 90.5q-84 0 -142 -90.5t-80 -242.5q-21 -150 12 -241t117 -91zM2987 1511q149 0 272 -54.5
t206 -153.5t117.5 -247.5t9.5 -327.5t-101.5 -327.5t-187.5 -247.5t-249 -153.5t-287 -54.5t-272 54.5t-206 153.5t-118.5 247.5t-10.5 327.5t102 327.5t188 247.5t249.5 153.5t287.5 54.5zM2830 396q84 0 142 90.5t80 241.5q22 152 -11 242.5t-118 90.5q-84 0 -142 -90.5
t-80 -242.5q-21 -150 12 -241t117 -91z" />
    <glyph glyph-name="ampersand" unicode="&#x26;" horiz-adv-x="2662" 
d="M2495 1372q32 -5 47 -29.5t5 -57.5q-128 -408 -393 -721l305 -393q25 -38 20 -76t-40 -66.5t-83 -28.5h-538q-29 0 -49 10t-41 36l-83 103q-353 -189 -757 -189q-139 0 -263 27.5t-226.5 82.5t-177.5 132.5t-116 182.5t-41 227q0 114 29 219t79 192t123.5 169.5
t155.5 148.5t183 131q-64 147 -64 289q0 149 52 272.5t141 208t210 142.5t257 84.5t285 26.5q339 0 615 -149q24 -13 29.5 -39t-8.5 -53l-175 -341q-19 -36 -53.5 -47.5t-66.5 6.5q-155 89 -300 89q-122 0 -191.5 -50t-69.5 -144q0 -46 30.5 -108t65 -109t88.5 -116
q12 -14 17 -21l293 -378q100 153 165 335q11 32 37 49t57 13zM1020 520q132 0 274 65l-385 478q-141 -145 -141 -307q0 -107 64 -171.5t188 -64.5z" />
    <glyph glyph-name="quotesingle" unicode="'" horiz-adv-x="919" 
d="M357 2435q2 35 25 55t60 20h476q37 0 54.5 -20t10.5 -55l-187 -834q-17 -75 -86 -75h-340q-69 0 -64 75z" />
    <glyph glyph-name="parenleft" unicode="(" horiz-adv-x="1076" 
d="M541 577q0 -282 51 -576t158 -539q15 -35 -1.5 -68t-54.5 -46l-169 -59q-52 -18 -76 23q-152 269 -236 611t-84 700q0 283 55.5 552t161 514t244.5 465.5t320 437.5q34 42 83 23l152 -59q35 -13 42 -46t-18 -67q-121 -169 -217.5 -338.5t-161 -314t-112 -294t-73.5 -267
t-41 -245.5t-19 -216t-4 -191z" />
    <glyph glyph-name="parenright" unicode=")" horiz-adv-x="1076" 
d="M630 2592q151 -273 235.5 -616t84.5 -700q0 -1041 -781 -1964q-35 -41 -83 -23l-152 59q-34 13 -41 46.5t17 67.5q121 169 218 338.5t161.5 314t112 294t73.5 267t41 245t19 216t4 190.5q0 282 -51 576t-159 540q-15 34 2 67t55 46l168 59q53 19 76 -23z" />
    <glyph glyph-name="asterisk" unicode="*" horiz-adv-x="1789" 
d="M1838 2356q6 -30 -11 -56t-49 -37l-390 -121l186 -317q15 -26 6.5 -55t-37.5 -48l-226 -150q-28 -19 -56.5 -14t-44.5 31l-186 317l-275 -317q-22 -26 -52.5 -31t-53.5 14l-184 150q-23 19 -23.5 48t21.5 55l276 317h-1l-355 121q-29 10 -38.5 36.5t4.5 56.5l112 241
q14 31 42 44.5t57 3.5l356 -122l55 393q5 32 29.5 53t55.5 21h254q31 0 49.5 -21t13.5 -53l-55 -393l389 122q32 10 57 -3.5t30 -44.5z" />
    <glyph glyph-name="plus" unicode="+" horiz-adv-x="2195" 
d="M1994 1358q42 0 62 -23t14 -66l-45 -328q-6 -43 -33 -66.5t-69 -23.5h-584l-82 -583q-6 -43 -33 -66.5t-69 -23.5h-328q-43 0 -63 23.5t-14 66.5l82 583h-584q-42 0 -62.5 23.5t-14.5 66.5l46 328q6 43 32.5 66t69.5 23h584l82 584q6 43 32.5 66.5t69.5 23.5h328
q43 0 63 -23.5t14 -66.5l-82 -584h584z" />
    <glyph glyph-name="comma" unicode="," horiz-adv-x="1036" 
d="M472 736q64 0 122.5 -21.5t106.5 -63t76.5 -110.5t28.5 -157q0 -165 -100.5 -355.5t-263.5 -350.5t-346 -249q-25 -12 -47 -7t-35 22l-47 64q-16 22 -11.5 51t30.5 53q8 7 46 40.5t50.5 45.5t40 43t38.5 52t21.5 53t10.5 64q0 47 -20.5 81t-59.5 72q-89 90 -89 232
q0 120 63 222.5t166 160.5t219 58z" />
    <glyph glyph-name="hyphen" unicode="-" horiz-adv-x="2069" 
d="M219 642q-43 0 -63 23.5t-14 66.5l56 398q6 42 32.5 65.5t69.5 23.5h1548q43 0 63 -23.5t14 -65.5l-56 -398q-6 -43 -32.5 -66.5t-69.5 -23.5h-1548z" />
    <glyph glyph-name="period" unicode="." horiz-adv-x="1071" 
d="M399 -40q-146 0 -242 99t-96 244q0 175 135 304t311 129q146 0 242 -99t96 -244q0 -175 -135 -304t-311 -129z" />
    <glyph glyph-name="slash" unicode="/" horiz-adv-x="1609" 
d="M1481 2662q17 28 47.5 39t58.5 -2l201 -102q26 -13 32.5 -42t-10.5 -58l-1589 -2619q-17 -28 -48 -38.5t-56 1.5l-203 102q-27 13 -33 42.5t11 57.5z" />
    <glyph glyph-name="zero" unicode="0" horiz-adv-x="2557" 
d="M1497 2495q194 0 361.5 -56.5t295.5 -163.5t212.5 -262.5t113 -354.5t-3.5 -438q-41 -292 -164.5 -533.5t-302 -403t-402.5 -250t-467 -88.5q-194 0 -361.5 56.5t-295.5 163.5t-212.5 262.5t-113 354.5t3.5 438q41 292 164.5 533.5t302.5 403t402.5 250t466.5 88.5z
M1229 581q162 0 274 174t153 465q24 191 8.5 333t-81.5 224t-175 82q-161 0 -274 -174.5t-154 -464.5q-24 -191 -7.5 -333t82.5 -224t174 -82z" />
    <glyph glyph-name="one" unicode="1" horiz-adv-x="2039" 
d="M1779 2440q31 0 50 -22t15 -53l-322 -2290q-4 -31 -29.5 -53t-56.5 -22h-635q-31 0 -50 22t-14 53l236 1677l-376 -163q-31 -14 -59 -3.5t-37 40.5l-132 410q-10 31 5 60t47 43l669 279q51 22 110 22h579z" />
    <glyph glyph-name="two" unicode="2" horiz-adv-x="2278" 
d="M2230 1713q-44 -308 -280 -589.5t-693 -561.5h788q30 0 49 -22t15 -53l-58 -412q-4 -31 -29.5 -53t-55.5 -22h-1878q-42 0 -62.5 23.5t-14.5 66.5l22 157q13 84 55 111q316 207 553 383.5t381 305t235.5 240.5t128.5 188.5t47 150.5q19 136 -44.5 203t-212.5 67
q-80 0 -157.5 -19.5t-155.5 -60t-131.5 -74.5t-133.5 -91q-21 -14 -39 -16.5t-33 6t-25.5 20t-24.5 30.5l-186 266q-15 21 -18.5 39.5t4 35t20 30.5t33.5 32q220 184 495.5 292.5t597.5 108.5q220 0 386.5 -56.5t266 -159.5t139.5 -246.5t16 -319.5z" />
    <glyph glyph-name="three" unicode="3" horiz-adv-x="2349" 
d="M1838 1261q181 -80 278.5 -211t97.5 -308q0 -243 -152 -425.5t-414 -277t-596 -94.5q-181 0 -333.5 29.5t-271.5 85.5t-210 125.5t-171 160.5q-23 27 -32 43.5t-3.5 40.5t33.5 53l265 271q19 20 33 31t31.5 20t34 6t33.5 -17q61 -51 94.5 -77.5t94 -65.5t110.5 -58
t122 -34t151 -15q170 0 279.5 60t109.5 168q0 100 -124.5 166.5t-342.5 73.5q-32 1 -50 22t-14 53l39 282q5 31 29 52t58 23q241 13 361 91t120 193q0 81 -69 124.5t-196 43.5q-86 0 -168.5 -18t-163 -55t-132 -66t-129.5 -78q-21 -13 -38 -16t-31.5 4.5t-26 19t-25.5 32.5
l-174 251q-15 22 -19 40.5t5 35.5t20.5 29.5t33.5 31.5q214 180 498.5 284t601.5 104q386 0 598.5 -158t212.5 -426q0 -213 -118 -376.5t-340 -273.5z" />
    <glyph glyph-name="four" unicode="4" horiz-adv-x="2482" 
d="M2344 993q42 0 62.5 -23.5t14.5 -65.5l-46 -324q-6 -43 -32.5 -66.5t-69.5 -23.5h-273l-59 -415q-4 -31 -29 -53t-56 -22h-562q-30 0 -48.5 22t-14.5 53l58 415h-1202q-42 0 -62.5 23.5t-14.5 66.5l32 229q3 21 19 38l1434 1541q49 52 114 52h589q31 0 50 -22t15 -53
l-193 -1372h274zM834 993h526l93 663z" />
    <glyph glyph-name="five" unicode="5" horiz-adv-x="2388" 
d="M2122 1856h-964l-93 -357q142 54 365 54q181 -2 329 -44.5t258 -125.5t170.5 -213.5t60.5 -298.5q0 -204 -88 -377t-242 -293.5t-369.5 -188t-464.5 -67.5q-352 0 -593 95.5t-409 278.5q-23 25 -32 42.5t-3.5 41.5t33.5 52l265 271q19 20 32.5 31t31 20t34.5 6t35 -16
q72 -56 124 -91t122 -68t150 -48.5t176 -15.5q171 0 284 78t113 210q0 97 -75.5 157t-237.5 60q-210 0 -384 -63q-29 -8 -49 5l-341 224q-36 21 -24 66l272 1069q21 90 103 90h1494q31 0 49.5 -22t14.5 -53l-61 -434q-4 -31 -29.5 -53t-56.5 -22z" />
    <glyph glyph-name="six" unicode="6" horiz-adv-x="2358" 
d="M1569 1550q143 0 261 -41t196.5 -111.5t128 -165t65 -202.5t-0.5 -223q-27 -196 -129.5 -359.5t-254.5 -272.5t-344.5 -169.5t-401.5 -60.5q-230 0 -420.5 71.5t-323 204t-191.5 335.5t-24 451q24 168 75.5 323.5t138.5 303.5t204 274.5t276.5 233.5t350 183t432 120.5
t516.5 49.5q35 0 54.5 -22t14.5 -55l-57 -409q-4 -32 -28.5 -53t-58.5 -22q-430 -9 -691 -157t-397 -449q228 222 609 222zM1156 478q133 0 222 89t106 210q17 126 -46.5 213t-197.5 87q-138 0 -224.5 -86.5t-104.5 -213.5q-11 -78 10 -144.5t82 -110.5t153 -44z" />
    <glyph glyph-name="seven" unicode="7" horiz-adv-x="2322" 
d="M324 0q-54 0 -74 40t10 89l1038 1675h-1046q-30 0 -49 22t-15 53l69 486q4 31 29 53t56 22h1975q42 0 62.5 -23.5t14.5 -66.5l-22 -157q-5 -39 -51 -111l-1237 -2043q-23 -39 -66 -39h-694z" />
    <glyph glyph-name="eight" unicode="8" horiz-adv-x="2466" 
d="M1941 1294q176 -65 273.5 -210.5t97.5 -330.5q0 -131 -48 -250.5t-147.5 -221.5t-242 -176.5t-343 -117t-438.5 -42.5q-204 0 -372 33.5t-286 93t-198.5 142.5t-118.5 180t-38 207q0 234 147.5 421.5t396.5 271.5q-133 60 -215 184.5t-82 287.5q0 154 74 286.5t213 231.5
t354.5 155t483.5 56q230 0 411 -44.5t295.5 -125t173.5 -187.5t59 -236q0 -107 -36 -204.5t-98.5 -173.5t-142.5 -134.5t-173 -95.5zM1382 1998q-130 0 -217 -71.5t-87 -186.5q0 -91 65.5 -146t173.5 -55q131 0 218 71.5t87 186.5q0 91 -66 146t-174 55zM1172 499
q158 0 254 87.5t96 215.5q0 104 -72 170t-203 66q-158 0 -254.5 -87.5t-96.5 -215.5q0 -103 72.5 -169.5t203.5 -66.5z" />
    <glyph glyph-name="nine" unicode="9" horiz-adv-x="2358" 
d="M1349 2495q230 0 420.5 -71.5t323 -204t191 -335.5t23.5 -451q-24 -168 -75.5 -321.5t-137.5 -298.5t-202.5 -267t-275 -224t-349 -172.5t-431 -110t-514.5 -39.5q-35 0 -54.5 21.5t-14.5 55.5l57 408q5 32 29 53.5t58 22.5q431 11 686.5 140t388.5 406
q-228 -218 -604 -218q-144 0 -261.5 41t-196 111.5t-128 165t-65 203t0.5 223.5q27 195 129.5 358.5t254.5 273t345 170t402 60.5zM1197 1363q138 0 225 86.5t105 212.5q11 79 -10 145.5t-82 110.5t-154 44q-133 0 -221.5 -89t-105.5 -211q-18 -125 45.5 -212t197.5 -87z
" />
    <glyph glyph-name="colon" unicode=":" horiz-adv-x="1081" 
d="M574 1142q-146 0 -242 99t-96 244q0 175 135 304t311 129q146 0 242 -99t96 -244q0 -175 -135 -304t-311 -129zM399 -40q-146 0 -242 99t-96 244q0 175 135 304t311 129q146 0 242 -99t96 -244q0 -175 -135 -304t-311 -129z" />
    <glyph glyph-name="semicolon" unicode=";" horiz-adv-x="1036" 
d="M527 1142q-146 0 -242 99t-96 244q0 175 135 304t311 129q146 0 242 -99t96 -244q0 -175 -135 -304t-311 -129zM472 736q64 0 122.5 -21.5t106.5 -63t76.5 -110.5t28.5 -157q0 -165 -100.5 -355.5t-263.5 -350.5t-346 -249q-25 -12 -47 -7t-35 22l-47 64q-16 22 -11.5 51
t30.5 53q8 7 46 40.5t50.5 45.5t40 43t38.5 52t21.5 53t10.5 64q0 47 -20.5 81t-59.5 72q-89 90 -89 232q0 120 63 222.5t166 160.5t219 58z" />
    <glyph glyph-name="less" unicode="&#x3c;" horiz-adv-x="2195" 
d="M2116 1591q-3 -21 -10.5 -35t-24.5 -24.5t-28 -15.5t-39 -15l-1179 -442l1054 -442q25 -10 35 -15t24 -15.5t17.5 -24.5t0.5 -35l-53 -383q-6 -45 -36.5 -72.5t-65.5 -11.5l-1576 700q-84 36 -74 107l53 384q10 71 106 107l1772 700q40 16 62 -11.5t16 -72.5z" />
    <glyph glyph-name="equal" unicode="=" horiz-adv-x="2374" 
d="M373 1268q-43 0 -63 23.5t-14 66.5l46 328q6 43 32.5 66t69.5 23h1674q43 0 63.5 -23t14.5 -66l-46 -328q-6 -43 -33 -66.5t-69 -23.5h-1675zM256 432q-43 0 -63.5 23t-14.5 66l46 328q6 43 33 66.5t69 23.5h1675q43 0 63 -23.5t14 -66.5l-46 -328q-6 -43 -32.5 -66
t-69.5 -23h-1674z" />
    <glyph glyph-name="greater" unicode="&#x3e;" horiz-adv-x="2195" 
d="M262 1591l54 383q6 45 36 72.5t65 11.5l1576 -700q86 -36 76 -107l-55 -384q-10 -71 -104 -107l-1773 -700q-40 -16 -62 11.5t-16 72.5l54 383q3 21 10.5 35t24.5 24.5t28 15.5t39 15l1179 442l-1055 442l-28 12t-21.5 11.5t-18.5 16t-7.5 20.5t-1.5 30z" />
    <glyph glyph-name="question" unicode="?" horiz-adv-x="1934" 
d="M1267 1744q0 174 -241 174q-68 0 -131.5 -14t-118 -40.5t-90.5 -48.5t-82 -53q-4 -3 -6.5 -5t-6.5 -4.5t-7 -4.5q-35 -25 -61.5 -17t-59.5 57l-170 256q-12 18 -13 34t11 32t24 26t35 27q206 156 434 244t508 88q167 0 305.5 -35t241.5 -103.5t160 -177.5t57 -250
q0 -115 -34.5 -210t-91.5 -162.5t-127 -126t-145 -112.5t-141 -109t-119 -129t-75 -160q-19 -71 -82 -71h-422q-31 0 -43.5 18t-12.5 55q0 74 28 145.5t72 129.5t98 114t108 109t98 103.5t72 107.5t28 113zM932 -40q-141 0 -233.5 95.5t-92.5 235.5q0 169 130 293.5
t300 124.5q141 0 233.5 -95.5t92.5 -235.5q0 -169 -130 -293.5t-300 -124.5z" />
    <glyph glyph-name="at" unicode="@" horiz-adv-x="3309" 
d="M2254 -385q-2 -23 -17 -40t-38 -21q-313 -66 -642 -66q-348 0 -625.5 96.5t-459.5 270t-278 414t-96 530.5q0 244 67.5 467.5t188.5 403.5t291 327t372 246.5t434 153t475 53.5q231 0 432 -49.5t363 -148.5t277.5 -241t178 -333.5t62.5 -419.5q0 -166 -38 -327.5
t-111 -299t-171.5 -243t-228.5 -165.5t-274 -60q-393 0 -475 264q-182 -264 -473 -264q-112 0 -210 38.5t-176.5 114t-124.5 200.5t-46 286q0 213 70.5 397t195 315.5t302.5 206.5t385 75q229 0 524 -84q26 -7 39.5 -27.5t11.5 -47.5l-84 -955q-7 -88 25.5 -135t96.5 -47
q78 0 139.5 74.5t95.5 191t51.5 240t17.5 240.5q0 197 -50.5 349t-156 262t-276.5 168t-402 58q-291 0 -540 -93t-424 -258.5t-274 -401t-99 -511.5q0 -139 26 -262t78.5 -233t138 -197t199.5 -150t268 -97t339 -34q269 0 559 60q46 10 77.5 -17t26.5 -74zM1586 494
q132 0 234.5 133t125.5 386l38 427q-90 30 -187 30q-133 0 -232 -89.5t-147 -233t-48 -318.5q0 -168 60.5 -251.5t155.5 -83.5z" />
    <glyph glyph-name="A" unicode="A" horiz-adv-x="2798" 
d="M2661 105q13 -48 -10 -76.5t-72 -28.5h-668q-75 0 -90 71l-80 331h-871l-169 -331q-35 -71 -112 -71h-632q-50 0 -65 28t11 77l1279 2278q37 67 112 67h638q76 0 94 -67zM1123 900h499l-160 665z" />
    <glyph glyph-name="B" unicode="B" horiz-adv-x="2605" 
d="M1963 1240q104 -14 193.5 -53.5t159.5 -101.5t110.5 -153.5t40.5 -201.5q0 -164 -69 -298t-201.5 -230t-336 -149t-461.5 -53h-747h-563q-31 0 -50 22t-15 53l323 2290q4 31 29 53t56 22h635h571q431 0 653 -151t222 -415q0 -132 -43.5 -243t-119.5 -189t-174 -129
t-213 -73zM1347 1474q86 0 152 16t103.5 39.5t61 57t31 63t7.5 61.5q0 33 -11.5 61.5t-40 57.5t-87 46t-141.5 17h-357l-59 -419h341zM1337 547q81 0 143 16.5t97.5 41t57.5 58t29.5 63t7.5 60.5q0 80 -66 132.5t-220 52.5h-451l-60 -424h462z" />
    <glyph glyph-name="C" unicode="C" horiz-adv-x="2727" 
d="M2535 679q36 -18 42.5 -49.5t-19.5 -73.5q-103 -155 -242.5 -274t-295.5 -191.5t-320.5 -109t-332.5 -36.5q-207 0 -392 48.5t-335 144t-259 228.5t-168.5 310t-59.5 381q0 217 59 414t164 353.5t251.5 283.5t320.5 211.5t371.5 130t404.5 45.5q168 0 322.5 -36.5
t290.5 -109t242.5 -191.5t165.5 -274q15 -40 -0.5 -72.5t-56.5 -50.5l-509 -226q-79 -35 -116 41q-60 135 -171.5 209t-256.5 74q-140 0 -262 -56t-209 -154t-136.5 -235.5t-49.5 -294.5q0 -242 128.5 -390t349.5 -148q144 0 275.5 74t231.5 209q59 76 128 41z" />
    <glyph glyph-name="D" unicode="D" horiz-adv-x="2790" 
d="M1510 2440q207 0 390 -45t332.5 -134.5t257.5 -215.5t167 -296.5t59 -369.5q0 -214 -57.5 -405t-161 -341t-247 -270.5t-315.5 -199.5t-367 -121t-401 -42h-780h-298q-31 0 -50 22t-15 53l323 2290q4 31 29 53t56 22h635h443zM1212 606q145 0 270 51t215.5 142.5
t142 224.5t51.5 290q0 239 -136.5 379.5t-369.5 140.5h-329l-172 -1228h328z" />
    <glyph glyph-name="E" unicode="E" horiz-adv-x="2324" 
d="M2314 2440q74 0 65 -75l-65 -457q-4 -35 -27 -54.5t-59 -19.5h-1172l-45 -325h1012q35 0 52 -19.5t12 -55.5l-56 -398q-11 -74 -85 -74h-1012l-50 -356h1212q36 0 52.5 -19.5t11.5 -54.5l-64 -457q-11 -75 -85 -75h-1503h-419q-31 0 -50 22t-15 53l323 2290q4 31 29 53
t56 22h635h1247z" />
    <glyph glyph-name="F" unicode="F" horiz-adv-x="2224" 
d="M2274 2440q74 0 65 -75l-65 -457q-4 -35 -27 -54.5t-59 -19.5h-1132l-62 -445h1052q35 0 52 -19.5t12 -55.5l-60 -427q-4 -36 -26.5 -55.5t-58.5 -19.5h-1052l-104 -737q-5 -31 -29.5 -53t-55.5 -22h-635q-31 0 -50 22t-15 53l323 2290q4 31 29 53t56 22h635h1207z" />
    <glyph glyph-name="G" unicode="G" horiz-adv-x="2790" 
d="M2572 1124q97 0 85 -89l-107 -758q-226 -147 -532 -239.5t-651 -92.5q-207 0 -392 48.5t-335 144t-259 228.5t-168.5 310t-59.5 381q0 217 59 414t164 353.5t251.5 283.5t320.5 211.5t371.5 130t404.5 45.5q132 0 254.5 -20t239 -64.5t213.5 -110.5t177.5 -163
t133.5 -217q17 -39 0.5 -71.5t-57.5 -51.5l-508 -226q-77 -34 -117 40q-139 248 -425 248q-140 0 -262 -56t-209 -154t-136.5 -235.5t-49.5 -294.5q0 -242 128.5 -390t349.5 -148q236 0 432 70l53 384q6 43 33 66t69 23h529z" />
    <glyph glyph-name="H" unicode="H" horiz-adv-x="2828" 
d="M2818 2440q31 0 50 -22t15 -53l-323 -2290q-4 -31 -29 -53t-56 -22h-635q-31 0 -50 22t-14 53l121 857h-967l-121 -857q-5 -31 -29.5 -53t-55.5 -22h-635q-31 0 -50 22t-15 53l323 2290q4 31 29 53t56 22h635q31 0 50 -22t14 -53l-116 -827h967l116 827q4 31 29 53t56 22
h635z" />
    <glyph glyph-name="I" unicode="I" horiz-adv-x="1077" 
d="M347 2365q4 31 29 53t56 22h635q31 0 50 -22t14 -53l-322 -2290q-5 -31 -29.5 -53t-55.5 -22h-635q-31 0 -50 22t-15 53z" />
    <glyph glyph-name="J" unicode="J" horiz-adv-x="2111" 
d="M2086 2440q42 0 62.5 -23.5t14.5 -66.5l-214 -1520q-24 -168 -98 -312.5t-183 -248.5t-247 -178t-291.5 -110t-314.5 -36q-143 0 -270.5 30.5t-218.5 77.5t-163 107.5t-113.5 118t-61.5 111.5q-30 83 57 122l470 204q45 19 67.5 10.5t48.5 -49.5q24 -42 49 -69t74 -49
t114 -22q125 0 208.5 76.5t104.5 226.5l212 1510q6 43 32.5 66.5t69.5 23.5h591z" />
    <glyph glyph-name="K" unicode="K" horiz-adv-x="2783" 
d="M1067 2440q31 0 50 -22t14 -53l-322 -2290q-4 -31 -29 -53t-56 -22h-635q-31 0 -50 22t-15 53l323 2290q4 31 29 53t56 22h635zM2620 108q25 -46 3.5 -77t-75.5 -31h-695q-70 0 -99 56l-674 1184l1006 1144q47 56 116 56h649q55 0 68 -31t-27 -77l-952 -1057z" />
    <glyph glyph-name="L" unicode="L" horiz-adv-x="2154" 
d="M1986 636q74 0 65 -75l-69 -486q-11 -75 -85 -75h-1808q-31 0 -50 22t-15 53l323 2290q4 31 29 53t56 22h635q31 0 50 -22t15 -53l-244 -1729h1098z" />
    <glyph glyph-name="M" unicode="M" horiz-adv-x="3199" 
d="M2725 2402q48 48 119 48h331q43 0 63 -23t14 -66l-319 -2271q-6 -43 -32.5 -66.5t-69.5 -23.5h-606q-42 0 -62.5 23.5t-14.5 66.5l134 946l-708 -728q-32 -31 -68.5 -31t-59.5 31l-501 728l-134 -946q-6 -43 -32.5 -66.5t-69.5 -23.5h-605q-43 0 -63 23.5t-14 66.5
l319 2271q6 43 32.5 66t69.5 23h284q68 0 103 -49l809 -1145z" />
    <glyph glyph-name="N" unicode="N" horiz-adv-x="2838" 
d="M2814 2440q43 0 63 -23.5t14 -66.5l-320 -2271q-6 -43 -32.5 -66t-69.5 -23h-205q-67 0 -107 36l-1195 1131l-151 -1067q-6 -43 -32.5 -66.5t-69.5 -23.5h-605q-43 0 -63 23.5t-14 66.5l319 2271q6 43 32.5 66t69.5 23h205q66 0 107 -36l1195 -1137l151 1073
q6 43 33 66.5t69 23.5h606z" />
    <glyph glyph-name="O" unicode="O" horiz-adv-x="3012" 
d="M1724 2495q207 0 392 -48.5t335 -144t259 -228.5t168.5 -310t59.5 -381q0 -217 -59 -414t-164 -353.5t-251.5 -283.5t-320.5 -211.5t-371.5 -130t-404.5 -45.5t-392 48.5t-335 144t-259 228.5t-168.5 310t-59.5 381q0 217 59 414t164 353.5t251.5 283.5t320.5 211.5
t371.5 130t404.5 45.5zM1456 581q140 0 262 56t209 154t136.5 235.5t49.5 294.5q0 242 -128.5 390t-349.5 148q-140 0 -262 -56t-209 -154t-136.5 -235.5t-49.5 -294.5q0 -242 128.5 -390t349.5 -148z" />
    <glyph glyph-name="P" unicode="P" horiz-adv-x="2437" 
d="M1575 2440q177 0 325 -38t254.5 -106t181 -162.5t110.5 -207.5t36 -241q0 -197 -78.5 -371.5t-222.5 -306t-363.5 -208.5t-484.5 -77h-433l-91 -647q-5 -31 -29.5 -53t-55.5 -22h-635q-31 0 -50 22t-15 53l323 2290q4 31 29 53t56 22h635h508zM1275 1298q104 0 183.5 28
t124 74.5t66.5 101t22 114.5q0 106 -76.5 176.5t-240.5 70.5h-294l-79 -565h294z" />
    <glyph glyph-name="Q" unicode="Q" horiz-adv-x="3012" 
d="M2938 1383q0 -222 -61.5 -423t-173 -361t-262 -285t-334.5 -210q49 -102 144.5 -154t209.5 -55q69 -4 58 -72l-59 -424q-6 -39 -28.5 -57t-65.5 -18q-305 0 -512 171.5t-253 464.5q-115 -15 -234 -15q-207 0 -392 48.5t-335 144t-259 228.5t-168.5 310t-59.5 381
q0 217 59 414t164 353.5t251.5 283.5t320.5 211.5t371.5 130t404.5 45.5t392 -48.5t335 -144t259 -228.5t168.5 -310t59.5 -381zM1456 581q140 0 262 56t209 154t136.5 235.5t49.5 294.5q0 242 -128.5 390t-349.5 148q-140 0 -262 -56t-209 -154t-136.5 -235.5t-49.5 -294.5
q0 -242 128.5 -390t349.5 -148z" />
    <glyph glyph-name="R" unicode="R" horiz-adv-x="2524" 
d="M1969 898l306 -734q25 -62 -12.5 -113t-107.5 -51h-610q-22 0 -39.5 12.5t-25.5 32.5l-270 705h-306l-95 -675q-5 -31 -29.5 -53t-55.5 -22h-635q-31 0 -50 22t-15 53l323 2290q4 31 29 53t56 22h635h483q177 0 325 -36.5t255.5 -103t181.5 -158.5t110.5 -204t36.5 -240
q0 -254 -127.5 -464t-362.5 -336zM1060 1863l-75 -536h254q410 0 410 308q0 228 -335 228h-254z" />
    <glyph glyph-name="S" unicode="S" horiz-adv-x="2334" 
d="M1095 1779q0 -41 48.5 -76t107 -56t170.5 -55q95 -29 147 -46t146 -54.5t149.5 -72t126.5 -92t110 -120t67 -150t28 -188.5q0 -183 -70 -335.5t-189 -257t-280.5 -177t-341.5 -106t-374 -33.5q-259 0 -482.5 60.5t-395.5 159.5q-65 43 -21 122l227 381q47 78 117 43
q84 -41 118.5 -57t106 -45t120.5 -40.5t121.5 -21.5t149.5 -10q161 0 250.5 40t89.5 118q0 44 -36 80t-96.5 63t-139.5 53t-166 56t-174 66.5t-166 90t-139.5 120.5t-96.5 164t-36 215q0 194 80.5 357t228 277.5t363 178.5t477.5 64q144 0 282 -20t243.5 -52.5t181.5 -64.5
t130 -65q69 -44 24 -119l-208 -346q-49 -81 -133 -40q-62 32 -103 51t-115 47.5t-155 42.5t-167 14q-165 0 -245 -47t-80 -117z" />
    <glyph glyph-name="T" unicode="T" horiz-adv-x="2510" 
d="M2560 2440q31 0 50 -22t14 -53l-68 -486q-4 -31 -29.5 -53t-56.5 -22h-701l-243 -1729q-4 -31 -29.5 -53t-55.5 -22h-636q-31 0 -50 22t-14 53l243 1729h-702q-30 0 -49 22t-15 53l69 486q4 31 29 53t56 22h1411h777z" />
    <glyph glyph-name="U" unicode="U" horiz-adv-x="2788" 
d="M2778 2440q31 0 50 -22t15 -53l-187 -1325q-31 -217 -118 -395.5t-215.5 -304.5t-297 -212.5t-361.5 -127t-408 -40.5t-396.5 40.5t-325.5 127t-237.5 212.5t-130.5 304.5t-6 395.5l187 1325q4 31 29 53t56 22h635q31 0 50 -22t14 -53l-162 -1156q-42 -295 49.5 -454
t327.5 -159q235 0 371 159t178 454l163 1156q4 31 29 53t56 22h635z" />
    <glyph glyph-name="V" unicode="V" horiz-adv-x="2765" 
d="M2886 2440q50 0 65.5 -28t-11.5 -77l-1294 -2278q-39 -67 -113 -67h-489q-72 0 -94 67l-732 2278q-15 48 8.5 76.5t73.5 28.5h665q73 0 91 -71l380 -1374l700 1374q36 71 114 71h636z" />
    <glyph glyph-name="W" unicode="W" horiz-adv-x="3708" 
d="M3833 2440q48 0 62 -27.5t-9 -77.5l-1075 -2278q-30 -67 -113 -67h-437q-81 0 -93 67l-259 1279l-614 -1279q-31 -67 -113 -67h-440q-81 0 -94 67l-434 2278q-9 50 12.5 77.5t69.5 27.5h649q81 0 91 -71l173 -1229l519 1069q16 34 46 52.5t68 18.5h416q38 0 62.5 -18.5
t30.5 -52.5l209 -1069l545 1229q31 71 110 71h618z" />
    <glyph glyph-name="X" unicode="X" horiz-adv-x="3132" 
d="M2983 2440q56 0 67 -32.5t-29 -77.5l-986 -1107l686 -1115q27 -45 7 -76.5t-75 -31.5h-711q-66 0 -100 54l-391 636l-506 -636q-42 -54 -115 -54h-655q-56 0 -68 32t27 78l969 1146l-662 1077q-27 45 -7.5 76t75.5 31h711q65 0 99 -54l375 -610l518 610q45 54 115 54h656
z" />
    <glyph glyph-name="Y" unicode="Y" horiz-adv-x="2690" 
d="M2809 2440q49 0 66.5 -31t-12.5 -74l-1140 -1556l-99 -704q-4 -31 -29.5 -53t-56.5 -22h-635q-31 0 -49.5 22t-14.5 53l99 703l-718 1557q-20 43 6.5 74t76.5 31h674q62 0 91 -71l384 -932l617 932q44 71 113 71h627z" />
    <glyph glyph-name="Z" unicode="Z" horiz-adv-x="2644" 
d="M63 0q-42 0 -62 23.5t-14 66.5l22 157q9 64 54 111l1373 1446h-1034q-30 0 -49 22t-15 53l69 486q4 31 29 53t56 22h2142q42 0 62.5 -23.5t14.5 -66.5l-22 -157q-9 -66 -52 -111l-1362 -1446h1150q31 0 50 -22t15 -53l-69 -486q-5 -31 -29.5 -53t-55.5 -22h-2273z" />
    <glyph glyph-name="bracketleft" unicode="[" horiz-adv-x="1179" 
d="M1174 2300h-448l-379 -2696h449q43 0 63 -23t14 -66l-22 -155q-6 -43 -32.5 -66.5t-69.5 -23.5h-763q-31 0 -50 22t-14 53l452 3214q4 31 29 53t56 22h763q42 0 62.5 -23.5t14.5 -66.5l-22 -154q-6 -43 -33 -66.5t-70 -23.5z" />
    <glyph glyph-name="backslash" unicode="\" horiz-adv-x="2322" 
d="M577 2662l1589 -2619q17 -28 11 -57.5t-33 -42.5l-203 -102q-25 -12 -56 -1.5t-48 38.5l-1589 2619q-17 29 -10.5 58t32.5 42l201 102q28 13 58.5 2t47.5 -39z" />
    <glyph glyph-name="bracketright" unicode="]" horiz-adv-x="1180" 
d="M1197 2634q31 0 50 -22t14 -53l-451 -3214q-5 -31 -29.5 -53t-55.5 -22h-763q-43 0 -63 23.5t-14 66.5l21 155q6 43 33 66t69 23h449l379 2696h-449q-42 0 -62 23.5t-14 66.5l22 154q5 43 32 66.5t70 23.5h762z" />
    <glyph glyph-name="asciicircum" unicode="^" horiz-adv-x="1756" 
d="M1862 1900q28 -53 -5 -101.5t-97 -48.5h-328q-37 0 -52 31l-297 617l-470 -617q-24 -31 -61 -31h-328q-64 0 -83 49t24 101l713 871q23 29 58 29h408q35 0 50 -29z" />
    <glyph glyph-name="underscore" unicode="_" horiz-adv-x="1789" 
d="M85 -507q-43 0 -63 23.5t-14 65.5l46 328q6 43 32.5 66.5t69.5 23.5h1548q43 0 63 -23.5t14 -66.5l-45 -328q-6 -42 -33 -65.5t-69 -23.5h-1549z" />
    <glyph glyph-name="grave" unicode="`" horiz-adv-x="1076" 
d="M853 2063l-763 323q-35 14 -41.5 48.5t17.5 72.5l184 291q22 35 58 47t68 -7l683 -440q31 -19 39 -55t-12 -70l-105 -169q-21 -32 -56.5 -44t-71.5 3z" />
    <glyph glyph-name="a" unicode="a" horiz-adv-x="2375" 
d="M2340 1804l-163 -1160q-15 -106 -15.5 -190.5t6.5 -137.5t25 -142q18 -92 -73 -117l-450 -114q-71 -18 -107 26q-53 61 -91.5 144t-50.5 166q-226 -334 -603 -334q-233 0 -403 106.5t-256 292.5t-86 431q0 243 74.5 456t207 368t325 244.5t417.5 89.5q334 0 475 -258
l18 129q5 35 27 54.5t58 19.5h600q36 0 53 -19.5t12 -54.5zM1118 537q162 0 272 129.5t110 347.5q0 155 -73.5 241.5t-194.5 86.5q-76 0 -144.5 -32t-121.5 -91t-84 -151t-31 -204q0 -155 74 -241t193 -86z" />
    <glyph glyph-name="b" unicode="b" horiz-adv-x="2384" 
d="M1546 1933q233 0 403 -106.5t256.5 -292.5t86.5 -430q0 -194 -47.5 -371t-137.5 -319.5t-214 -248t-284.5 -163t-341.5 -57.5q-334 0 -475 259l-18 -129q-4 -36 -26.5 -55.5t-58.5 -19.5h-600q-74 0 -65 75l340 2410q4 36 26.5 55.5t58.5 19.5h600q74 0 65 -75l-115 -810
q213 258 547 258zM1132 537q76 0 144.5 32t121.5 91t84.5 151t31.5 204q0 155 -74.5 241t-193.5 86q-161 0 -271.5 -130t-110.5 -348q0 -154 73.5 -240.5t194.5 -86.5z" />
    <glyph glyph-name="c" unicode="c" horiz-adv-x="2140" 
d="M1934 512q41 -22 45.5 -52t-22.5 -70q-33 -53 -87 -109.5t-140 -117.5t-187.5 -108.5t-237.5 -78.5t-281 -31q-192 0 -360 57.5t-295 164t-200.5 272t-73.5 369.5q0 211 67 394t183 315.5t269.5 227.5t329 141.5t359.5 46.5q145 0 272 -31t215 -78t157 -108.5t107 -118
t57 -109.5q16 -40 3 -70t-59 -51l-448 -206q-25 -12 -43.5 -13.5t-32 7t-21.5 18t-19 28.5q-17 31 -34.5 53t-44.5 44t-65 33t-87 11q-182 0 -286.5 -129t-104.5 -357q0 -154 73.5 -236.5t207.5 -82.5q92 0 152 37t115 103q16 19 27 29t26.5 18.5t33.5 6.5t40 -14z" />
    <glyph glyph-name="d" unicode="d" horiz-adv-x="2384" 
d="M2391 2560q36 0 52.5 -19.5t11.5 -55.5l-339 -2410q-4 -36 -26.5 -55.5t-58.5 -19.5h-600q-74 0 -65 75l19 128q-213 -258 -547 -258q-233 0 -403 106.5t-256 292.5t-86 431q0 243 74.5 456t207 368t325 244.5t417.5 89.5q334 0 474 -258l114 810q5 36 27.5 55.5
t57.5 19.5h601zM1138 537q162 0 272 129.5t110 347.5q0 155 -73.5 241.5t-194.5 86.5q-76 0 -144.5 -32t-121.5 -91t-84 -151t-31 -204q0 -155 74 -241t193 -86z" />
    <glyph glyph-name="e" unicode="e" horiz-adv-x="2273" 
d="M1313 1933q165 0 305.5 -39.5t256.5 -122t188.5 -210.5t101.5 -305t-5 -406h-1361q4 -94 32.5 -165.5t74 -112t99 -60.5t112.5 -20q110 0 189.5 34.5t138.5 108.5q34 41 59 50t68 -10l360 -189q42 -22 45.5 -53.5t-22.5 -68.5q-71 -111 -208.5 -205.5t-330.5 -154
t-396 -59.5q-200 0 -369 56.5t-293 163t-194 269.5t-70 365q0 214 65 398t179 317.5t267.5 229t333.5 142.5t374 47zM1233 1450q-119 0 -218.5 -68t-155.5 -193h631q-16 135 -84.5 198t-172.5 63z" />
    <glyph glyph-name="f" unicode="f" horiz-adv-x="1686" 
d="M1928 2536q20 -16 28.5 -29t6.5 -37t-22 -57l-160 -255q-48 -77 -128 -39q-102 53 -189 53q-104 0 -166 -70t-84 -224h468q42 0 62.5 -23t14.5 -66l-56 -398q-6 -43 -33 -66t-69 -23h-468l-170 -1212q-6 -43 -32.5 -66.5t-69.5 -23.5h-571q-43 0 -63 23.5t-14 66.5
l170 1212h-180q-42 0 -62.5 23t-14.5 66l56 398q6 43 33 66t69 23h180l14 97q25 176 103 317t194.5 232.5t262.5 140.5t310 49q185 0 337.5 -54t242.5 -124z" />
    <glyph glyph-name="g" unicode="g" horiz-adv-x="2310" 
d="M2341 2062q61 0 54 -56l-62 -440q-8 -53 -60 -53q-111 0 -192 -63q4 -27 4 -75q0 -139 -73 -263t-201.5 -214.5t-314.5 -143.5t-402 -53h-269q-164 0 -164 -108q0 -84 138 -84h485q377 0 580 -140t203 -383q0 -111 -35.5 -210.5t-118 -190.5t-206 -156.5t-311 -104
t-421.5 -38.5q-458 0 -693.5 131.5t-235.5 355.5q0 209 201 356q-92 50 -143 136t-51 192q0 150 95.5 270t270.5 189q-70 67 -107 156.5t-37 187.5q0 139 73 262.5t201.5 214t315 143.5t402.5 53q328 0 542 -125q105 124 242.5 189t289.5 65zM1154 1131q117 0 196.5 56.5
t79.5 149.5q0 76 -62 121t-162 45q-116 0 -195 -56.5t-79 -149.5q0 -76 61.5 -121t160.5 -45zM1397 -122q0 68 -81 105t-240 37q-180 0 -273 -45t-93 -126q0 -143 322 -143q365 0 365 172z" />
    <glyph glyph-name="h" unicode="h" horiz-adv-x="2327" 
d="M1686 1918q633 0 537 -684l-163 -1159q-5 -36 -27.5 -55.5t-57.5 -19.5h-601q-36 0 -52.5 19.5t-11.5 55.5l129 915q24 172 -23 247t-164 75q-136 0 -233.5 -98t-122.5 -275l-122 -864q-4 -36 -26.5 -55.5t-58.5 -19.5h-600q-74 0 -65 75l340 2410q4 36 26.5 55.5
t58.5 19.5h600q36 0 53 -19.5t12 -55.5l-125 -887q115 149 292 234.5t405 85.5z" />
    <glyph glyph-name="i" unicode="i" horiz-adv-x="1070" 
d="M690 2038q-146 0 -241.5 99t-95.5 244q0 115 62.5 215.5t165.5 159t218 58.5q146 0 241.5 -99.5t95.5 -244.5q0 -115 -62.5 -215t-165.5 -158.5t-218 -58.5zM282 1804q5 35 27 54.5t58 19.5h600q36 0 53 -19.5t12 -54.5l-244 -1729q-4 -36 -26.5 -55.5t-58.5 -19.5h-600
q-74 0 -65 75z" />
    <glyph glyph-name="j" unicode="j" horiz-adv-x="1058" 
d="M676 2038q-146 0 -242 99t-96 244q0 115 62.5 215.5t166 159t218.5 58.5q146 0 241.5 -99.5t95.5 -244.5q0 -115 -62.5 -215t-165.5 -158.5t-218 -58.5zM-290 -682q-35 0 -54.5 21.5t-14.5 56.5l55 386q6 56 78 74q28 7 43 11.5t44 17t46.5 26.5t42 39.5t40 57.5t30.5 79
t23 105l226 1612q5 35 27.5 54.5t58.5 19.5h600q36 0 53 -19.5t12 -54.5l-230 -1637q-22 -153 -73 -281t-139 -234t-209.5 -179.5t-288 -114t-370.5 -40.5z" />
    <glyph glyph-name="k" unicode="k" horiz-adv-x="2323" 
d="M364 2485q4 36 26.5 55.5t58.5 19.5h600q74 0 65 -75l-340 -2410q-4 -36 -26.5 -55.5t-58.5 -19.5h-600q-74 0 -65 75zM1419 0q-79 0 -99 60l-366 930l570 830q40 58 117 58h613q53 0 62.5 -32.5t-22.5 -74.5l-575 -769l404 -894q21 -49 0.5 -78.5t-73.5 -29.5h-631z" />
    <glyph glyph-name="l" unicode="l" 
d="M364 2485q4 36 26.5 55.5t58.5 19.5h600q74 0 65 -75l-340 -2410q-4 -36 -26.5 -55.5t-58.5 -19.5h-600q-74 0 -65 75z" />
    <glyph glyph-name="m" unicode="m" horiz-adv-x="3512" 
d="M2893 1918q610 0 510 -713l-157 -1115q-6 -43 -32.5 -66.5t-69.5 -23.5h-571q-42 0 -62.5 23.5t-14.5 66.5l127 901q24 167 -18.5 244t-148.5 77q-116 0 -208.5 -100.5t-118.5 -286.5l-118 -835q-6 -43 -32.5 -66.5t-69.5 -23.5h-570q-43 0 -63.5 23.5t-14.5 66.5
l127 901q24 167 -18 244t-149 77q-116 0 -208.5 -100.5t-118.5 -286.5l-120 -850q-4 -36 -26.5 -55.5t-58.5 -19.5h-600q-74 0 -65 75l244 1729q5 35 27 54.5t58 19.5h600q36 0 53 -19.5t12 -54.5l-29 -206q130 152 298.5 236t367.5 84q449 0 516 -383q152 200 339 291.5
t383 91.5z" />
    <glyph glyph-name="n" unicode="n" horiz-adv-x="2327" 
d="M1686 1918q633 0 537 -684l-163 -1159q-5 -36 -27.5 -55.5t-57.5 -19.5h-601q-36 0 -52.5 19.5t-11.5 55.5l129 915q24 172 -23 247t-164 75q-136 0 -233.5 -98t-122.5 -275l-122 -864q-4 -36 -26.5 -55.5t-58.5 -19.5h-600q-74 0 -65 75l244 1729q5 35 27 54.5t58 19.5
h600q36 0 53 -19.5t12 -54.5l-29 -206q115 149 292 234.5t405 85.5z" />
    <glyph glyph-name="o" unicode="o" horiz-adv-x="2389" 
d="M1334 1933q161 0 305 -35.5t264 -108t207 -174.5t135.5 -241.5t48.5 -303.5q0 -177 -47 -334t-131.5 -279.5t-200.5 -220t-254 -161t-291.5 -97t-314.5 -33.5t-305.5 35.5t-264 108t-206.5 174.5t-135.5 241.5t-48.5 303.5q0 177 47 334t131.5 279.5t200.5 220t254 161
t291.5 97t314.5 33.5zM1138 537q76 0 144.5 32t121.5 91t84.5 151t31.5 204q0 155 -75 241t-194 86q-76 0 -144.5 -32t-121.5 -91t-84.5 -151t-31.5 -204q0 -155 75 -241t194 -86z" />
    <glyph glyph-name="p" unicode="p" horiz-adv-x="2384" 
d="M1546 1933q233 0 403 -106.5t256 -292.5t86 -430q0 -243 -74.5 -456.5t-207 -368.5t-325 -244.5t-417.5 -89.5q-334 0 -474 258l-115 -810q-4 -36 -26.5 -55.5t-58.5 -19.5h-600q-74 0 -65 75l340 2411q5 35 27 54.5t58 19.5h600q36 0 53 -19.5t12 -54.5l-19 -129
q213 258 547 258zM1132 537q76 0 144.5 32t121.5 91t84.5 151t31.5 204q0 155 -74.5 241t-194.5 86q-161 0 -271 -130t-110 -348q0 -154 73 -240.5t195 -86.5z" />
    <glyph glyph-name="q" unicode="q" horiz-adv-x="2385" 
d="M2296 1877q35 0 52 -19.5t12 -55.5l-339 -2410q-5 -36 -27.5 -55.5t-57.5 -19.5h-601q-36 0 -52.5 19.5t-11.5 55.5l114 810q-212 -258 -546 -258q-233 0 -403.5 106.5t-256.5 292.5t-86 430q0 194 47.5 371t137.5 320t214 248t284.5 162.5t341.5 57.5q334 0 474 -258
l18 128q11 75 85 75h601zM1139 535q161 0 271.5 130t110.5 348q0 154 -73.5 240.5t-195.5 86.5q-76 0 -144 -32t-121 -91t-84.5 -151t-31.5 -204q0 -155 74.5 -241t193.5 -86z" />
    <glyph glyph-name="r" unicode="r" horiz-adv-x="1493" 
d="M1482 1911q83 0 71 -74l-87 -625q-5 -35 -24.5 -49.5t-55.5 -22.5q-49 -10 -84 -19t-89.5 -29t-94.5 -42.5t-87 -60.5t-79.5 -83.5t-58.5 -111t-37 -143.5l-82 -576q-4 -36 -26.5 -55.5t-58.5 -19.5h-600q-74 0 -65 75l244 1729q5 35 27 54.5t58 19.5h600q36 0 53 -19.5
t12 -54.5l-41 -286q61 122 156 214.5t185 135.5t164 43z" />
    <glyph glyph-name="s" unicode="s" horiz-adv-x="1986" 
d="M976 1355q0 -30 29.5 -55t79.5 -44.5t114.5 -39t136 -43t143 -52.5t136 -72.5t114.5 -96.5t79.5 -130.5t29.5 -170.5q0 -140 -51.5 -256t-144 -198.5t-220 -140t-278.5 -84.5t-322 -27q-239 0 -455.5 51.5t-326.5 126.5q-37 27 -42.5 55t16.5 64l181 298q51 86 128 47
q141 -73 247 -107t242 -34q96 0 155 23.5t59 74.5q0 30 -28.5 54.5t-76 44.5t-110 39.5t-131 44t-137 53.5t-131 72t-110 95.5t-76 128.5t-28.5 166q0 211 118 368t332 240t496 83q221 0 420 -51.5t309 -127.5q36 -26 43 -51.5t-16 -67.5l-160 -265q-50 -86 -123 -45
q-220 131 -437 131q-102 0 -153 -27t-51 -74z" />
    <glyph glyph-name="t" unicode="t" horiz-adv-x="1849" 
d="M1732 1878q43 0 63 -23t14 -66l-56 -398q-6 -43 -32.5 -66t-69.5 -23h-496l-69 -489q-21 -144 14 -217.5t145 -73.5q97 0 225 65q90 45 117 -39l97 -302q25 -78 -52 -120q-164 -89 -326.5 -135t-364.5 -46q-217 0 -369.5 82t-222 236.5t-40.5 361.5l95 677h-201
q-42 0 -62.5 23t-14.5 66l56 398q6 43 33 66t69 23h201l35 245q11 77 103 105l582 163q49 14 74.5 -2.5t19.5 -58.5l-63 -452h496z" />
    <glyph glyph-name="u" unicode="u" horiz-adv-x="2328" 
d="M2239 1878q36 0 52.5 -19.5t11.5 -54.5l-243 -1729q-4 -36 -26.5 -55.5t-58.5 -19.5h-600q-74 0 -65 75l29 205q-115 -148 -292.5 -234t-404.5 -86q-633 0 -537 684l163 1160q5 35 27.5 54.5t57.5 19.5h601q36 0 52.5 -19.5t11.5 -54.5l-129 -915q-24 -173 23 -248
t164 -75q135 0 233 98t123 275l121 865q5 35 27.5 54.5t58.5 19.5h600z" />
    <glyph glyph-name="v" unicode="v" horiz-adv-x="2323" 
d="M2338 1878q63 0 88 -48t-10 -104l-1061 -1676q-37 -60 -102 -60h-447q-66 0 -87 60l-591 1676q-20 56 18.5 104t102.5 48h648q26 0 44 -14.5t23 -37.5l215 -875l461 875q26 52 83 52h615z" />
    <glyph glyph-name="w" unicode="w" horiz-adv-x="3165" 
d="M3183 1878q61 0 85 -46t-6 -104l-867 -1675q-32 -63 -100 -63h-358q-69 0 -85 60l-270 883l-517 -883q-33 -60 -103 -60h-359q-67 0 -82 63l-396 1675q-14 58 22.5 104t97.5 46h598q28 0 46.5 -14.5t20.5 -38.5l138 -796l360 661q30 62 106 62h365q76 0 89 -62l174 -661
l364 796q9 24 31.5 38.5t50.5 14.5h595z" />
    <glyph glyph-name="x" unicode="x" horiz-adv-x="2326" 
d="M2310 1878q55 0 67 -32.5t-29 -77.5l-763 -816l526 -841q27 -43 6 -77t-77 -34h-690q-68 0 -100 54l-216 357l-296 -354q-46 -57 -116 -57h-610q-56 0 -67.5 33t29.5 77l748 816l-512 845q-28 46 -8.5 76.5t76.5 30.5h661q66 0 99 -53l221 -353l295 350q47 56 116 56h640
z" />
    <glyph glyph-name="y" unicode="y" horiz-adv-x="2269" 
d="M2285 1878q62 0 87 -47t-10 -105l-916 -1483q-109 -177 -203 -305t-198.5 -235.5t-209 -177t-231 -118t-269.5 -69t-319 -20.5q-35 0 -54.5 21.5t-14.5 56.5l54 386q9 66 79 74q122 15 210.5 54t179 124.5t201.5 238.5l-542 1453q-21 57 18 104.5t103 47.5h631
q51 0 68 -52l232 -732l422 732q29 52 84 52h598z" />
    <glyph glyph-name="z" unicode="z" horiz-adv-x="2153" 
d="M13 0q-42 0 -62 23t-15 65l6 40q8 61 52 111l927 1048h-612q-31 0 -50 22t-14 53l62 442q5 30 29.5 52t55.5 22h1671q43 0 64 -22t15 -64l-7 -42q-8 -58 -51 -110l-965 -1078h765q31 0 50 -22t15 -53l-59 -412q-4 -31 -29 -53t-56 -22h-1792z" />
    <glyph glyph-name="braceleft" unicode="{" horiz-adv-x="1013" 
d="M1041 2326q-111 -25 -163 -106.5t-52 -247.5q0 -54 5.5 -203.5t5.5 -211.5q0 -266 -94.5 -410.5t-287.5 -194.5q250 -68 250 -369q0 -85 -30 -207t-66.5 -223t-66.5 -209t-30 -169q0 -163 143 -196q27 -7 41 -25t10 -44l-23 -164q-5 -33 -29.5 -54.5t-56.5 -20.5
q-122 5 -212 28.5t-158 73t-102.5 132t-34.5 198.5q0 93 30.5 215t67.5 220.5t67.5 211t30.5 188.5q0 124 -49 190t-142 90q-25 6 -37.5 24t-8.5 43l19 134q8 53 64 68q95 22 157 71t99 150.5t37 256.5q0 53 -6 196t-6 205q0 185 44 314t132 204.5t204 110t276 38.5
q32 1 51 -20.5t15 -53.5l-24 -164q-4 -26 -23 -44.5t-47 -24.5z" />
    <glyph glyph-name="bar" unicode="|" horiz-adv-x="681" 
d="M417 2865q4 31 29.5 53t56.5 22h239q31 0 49.5 -22t13.5 -53l-462 -3290q-5 -31 -29.5 -53t-55.5 -22h-239q-31 0 -50 22t-15 53z" />
    <glyph glyph-name="braceright" unicode="}" horiz-adv-x="1013" 
d="M923 1087q24 -7 36.5 -25t8.5 -43l-19 -134q-3 -25 -21 -43t-44 -24q-71 -17 -122 -48.5t-91 -86.5t-60 -141t-20 -203q0 -52 6.5 -195t6.5 -206q0 -149 -29.5 -261t-83 -186.5t-136.5 -122t-181 -70t-226 -27.5q-33 -1 -52 20.5t-14 54.5l23 164q4 26 23 44t48 25
q111 25 163 106t52 247q0 54 -6 204t-6 211q0 266 94.5 411t287.5 194q-250 68 -250 369q0 86 30.5 208t66.5 223t66.5 208.5t30.5 168.5q0 163 -143 197q-27 6 -41 24.5t-10 44.5l23 164q5 32 29.5 53.5t56.5 20.5q122 -3 212.5 -26.5t158 -73t102 -132.5t34.5 -199
q0 -93 -31 -215t-67.5 -221t-67.5 -211.5t-31 -188.5q0 -124 50 -190t143 -89z" />
    <glyph glyph-name="asciitilde" unicode="~" horiz-adv-x="2315" 
d="M2166 1344q20 -12 26 -34t-5 -47q-58 -132 -138 -233.5t-167.5 -161.5t-176 -90t-174.5 -30q-111 0 -205 23t-159.5 56t-126 65.5t-131.5 55.5t-147 23q-178 0 -326 -171q-22 -26 -50 -33t-53 8l-138 85q-20 12 -25.5 34t4.5 48q58 131 138 232.5t167.5 161.5t176.5 90
t175 30q111 0 205 -23t159.5 -55.5t125.5 -65t131 -55.5t147 -23q180 0 326 170q23 26 51 33t53 -8z" />
    <glyph glyph-name="exclamdown" unicode="&#xa1;" horiz-adv-x="1069" 
d="M680 1933q142 0 234.5 -95.5t92.5 -236.5q0 -169 -130.5 -293.5t-300.5 -124.5q-141 0 -234 95.5t-93 235.5q0 169 130.5 294t300.5 125zM710 -472q-3 -36 -26 -55.5t-59 -19.5h-601q-36 0 -53.5 20t-10.5 55l290 1442q16 75 85 75h426q71 0 65 -75z" />
    <glyph glyph-name="cent" unicode="&#xa2;" horiz-adv-x="2140" 
d="M2111 1488q16 -40 3 -70t-59 -51l-448 -206q-25 -12 -43.5 -13.5t-32 7t-21.5 18t-19 28.5q-17 31 -34.5 53t-44.5 44t-65 33t-87 11q-182 0 -286.5 -129t-104.5 -357q0 -154 73.5 -236.5t207.5 -82.5q92 0 152 37t115 103q16 19 27 29t26.5 18.5t33.5 6.5t40 -14
l390 -205q41 -22 45.5 -52t-22.5 -70q-34 -54 -92.5 -113t-142 -120t-201 -111.5t-246.5 -76.5l-55 -394q-4 -31 -29 -53t-56 -22h-387q-31 0 -50 22t-14 53l57 404q-190 48 -333 155.5t-228 281t-85 392.5q0 178 48 336t132 281t200 220t251 161t285 96l58 411q4 31 29 53
t56 22h387q31 0 50 -22t15 -53l-57 -404q121 -26 223.5 -76.5t169 -111.5t108 -119.5t61.5 -113.5z" />
    <glyph glyph-name="sterling" unicode="&#xa3;" horiz-adv-x="2423" 
d="M1167 1624q-15 -102 -11 -235h465q33 0 52 -22t14 -55l-33 -235q-5 -33 -30 -55t-58 -22h-411q-21 -120 -96.5 -234.5t-234.5 -239.5q143 41 282 45.5t255 -14t230 -38t252 -20t276 33.5q48 11 77 -12.5t23 -69.5l-56 -394q-3 -26 -24 -46t-53 -26q-151 -31 -304.5 -38
t-283 4.5t-259.5 30t-252.5 35t-241 24t-246 -7t-248.5 -54.5q-31 -11 -57.5 -0.5t-33.5 39.5l-62 277q-8 32 15 61q169 213 237.5 363t74.5 281h-234q-33 0 -52 22t-14 55l33 235q5 33 29.5 55t57.5 22h141q-14 163 8 321q25 175 109.5 320t218 248t319.5 160t407 57
q321 0 566 -108.5t413 -292.5q22 -25 31 -42.5t3.5 -42t-33.5 -52.5l-261 -266q-19 -19 -33 -30.5t-31.5 -20t-34 -6t-33.5 16.5q-51 45 -85 73t-88 64.5t-101 57t-109.5 35.5t-127.5 15q-151 0 -245 -69.5t-112 -202.5z" />
    <glyph glyph-name="currency" unicode="&#xa4;" horiz-adv-x="2964" 
d="M2987 2143q24 -29 15.5 -65t-43.5 -59l-416 -266q167 -292 117 -654q-50 -359 -301 -654l341 -266q29 -22 27.5 -58.5t-33.5 -64.5l-282 -248q-32 -28 -68 -25t-55 36l-210 374q-343 -233 -734 -233t-669 233l-317 -374q-27 -33 -64 -36t-61 25l-212 248q-24 28 -16 64.5
t44 58.5l416 267q-166 293 -116 653t300 654l-342 266q-29 22 -27 59t34 65l282 247q32 28 68 25t54 -35l212 -375q343 233 734 233q195 0 365.5 -60.5t302.5 -172.5l317 375q27 32 64 35t60 -25zM1422 517q156 0 293 72t230 206t117 304q18 128 -10 237.5t-91.5 185
t-160 118t-213.5 42.5q-157 0 -294 -72t-229.5 -206t-116.5 -305q-24 -170 31 -304t171.5 -206t272.5 -72z" />
    <glyph glyph-name="yen" unicode="&#xa5;" horiz-adv-x="2690" 
d="M2809 2440q49 0 66.5 -31t-12.5 -74l-825 -1126h174q42 0 62.5 -23.5t14.5 -66.5l-26 -182q-6 -42 -32.5 -65.5t-69.5 -23.5h-388l-50 -69l-10 -70h429q42 0 62.5 -23.5t14.5 -66.5l-26 -182q-6 -42 -32.5 -65.5t-69.5 -23.5h-429l-38 -273q-4 -31 -29.5 -53t-56.5 -22
h-635q-31 0 -49.5 22t-14.5 53l39 273h-454q-42 0 -62.5 23.5t-14.5 65.5l26 182q6 43 32.5 66.5t69.5 23.5h453l10 69l-32 70h-412q-42 0 -62.5 23.5t-14.5 65.5l26 182q6 43 32.5 66.5t69.5 23.5h194l-519 1126q-20 43 6.5 74t76.5 31h674q62 0 91 -71l384 -932l617 932
q44 71 113 71h627z" />
    <glyph glyph-name="brokenbar" unicode="&#xa6;" horiz-adv-x="681" 
d="M417 2865q4 31 29.5 53t56.5 22h239q31 0 49.5 -22t13.5 -53l-149 -1064q-5 -31 -29.5 -53t-55.5 -22h-239q-31 0 -50 22t-15 53zM104 639q5 31 29.5 53t55.5 22h239q31 0 50 -22t15 -53l-150 -1064q-5 -31 -29.5 -53t-55.5 -22h-239q-31 0 -50 22t-15 53z" />
    <glyph glyph-name="section" unicode="&#xa7;" horiz-adv-x="2449" 
d="M2476 2083q2 -38 -25 -65t-66 -27h-468q-25 0 -41 15t-20 40q-48 296 -427 296q-188 0 -313 -77t-144 -212q-15 -105 127 -185q87 -48 323 -126q278 -92 401 -147q315 -143 425 -348q188 -349 -159 -949q126 -167 93 -406q-35 -251 -207 -439t-436.5 -285.5t-584.5 -97.5
q-461 0 -714.5 202t-269.5 585q-1 38 25.5 64.5t65.5 26.5h467q27 0 43.5 -15.5t19.5 -42.5q39 -323 434 -323q193 0 337.5 78.5t163.5 210.5q15 107 -128 194q-86 52 -320 138q-273 102 -394 161q-309 154 -418 363q-184 353 149 934q-129 159 -95 401q34 239 192.5 419
t414 277t572.5 97q451 0 704.5 -197.5t272.5 -559.5zM1691 567q21 80 22.5 151t-12.5 126.5t-47.5 106t-72.5 88t-98 74t-113.5 62t-129 55t-134.5 50.5t-140 49.5t-137 51.5q-24 -78 -27 -147t10.5 -123.5t46 -104t72.5 -86.5t99 -73.5t115 -63t130 -56.5t136.5 -52.5
t141.5 -52.5t138 -55z" />
    <glyph glyph-name="dieresis" unicode="&#xa8;" horiz-adv-x="1760" 
d="M386 2097q-123 0 -203.5 83t-80.5 206q0 148 113.5 256.5t262.5 108.5q123 0 204 -83.5t81 -205.5q0 -148 -114 -256.5t-263 -108.5zM1280 2097q-123 0 -203.5 83t-80.5 206q0 148 113.5 256.5t262.5 108.5q123 0 204 -83.5t81 -205.5q0 -148 -113.5 -256.5
t-263.5 -108.5z" />
    <glyph glyph-name="copyright" unicode="&#xa9;" horiz-adv-x="2731" 
d="M1580 2460q230 0 431.5 -86t343 -233t222.5 -349t81 -429q0 -185 -54 -363.5t-149.5 -330t-230.5 -280t-291.5 -218.5t-337 -140.5t-364.5 -50.5q-230 0 -431.5 85.5t-343 232.5t-222.5 349.5t-81 429.5q0 184 54 363t149.5 330t230.5 280t291.5 219t337 140.5
t364.5 50.5zM1262 197q150 0 298.5 41.5t277.5 116t239.5 180.5t189.5 231t123.5 272.5t44.5 299.5q0 250 -113 457t-316.5 328t-455.5 121q-150 0 -298.5 -42t-277.5 -116t-240 -180.5t-189.5 -231t-123.5 -272.5t-45 -300q0 -187 67 -354t183 -288t281.5 -192t354.5 -71z
M2004 920q42 -21 12 -68q-75 -113 -185.5 -190.5t-229 -112t-243.5 -34.5q-192 0 -343 72.5t-239 213.5t-88 328q0 143 46 270t128 222t190.5 164t237.5 104t266 35q125 0 234 -34.5t198 -112.5t132 -191q17 -47 -32 -68l-281 -125q-44 -19 -64 23q-33 75 -94.5 115.5
t-142.5 40.5q-157 0 -260 -116t-103 -293q0 -134 71 -215.5t193 -81.5q80 0 152.5 41t128.5 115q32 42 70 23z" />
    <glyph glyph-name="guillemotleft" unicode="&#xab;" horiz-adv-x="2118" 
d="M967 603q27 -25 22 -53l-32 -232q-9 -65 -63 -90.5t-101 13.5l-622 515q-23 20 -18 51l18 130l18 131q5 31 33 50l767 515q58 39 104.5 13.5t37.5 -90.5l-33 -231q-4 -28 -37 -54l-436 -334zM1893 1633q57 39 104 13.5t38 -90.5l-33 -231q-4 -28 -37 -54l-436 -334
l342 -334q26 -26 22 -53l-33 -232q-8 -65 -62 -90.5t-101 13.5l-623 515q-23 21 -18 51l19 130l18 131q5 30 32 50z" />
    <glyph glyph-name="logicalnot" unicode="&#xac;" horiz-adv-x="2205" 
d="M2004 1358q43 0 63 -23t14 -66l-106 -747q-4 -36 -26.5 -55.5t-58.5 -19.5h-365q-74 0 -65 75l46 329h-1258q-42 0 -62.5 23.5t-14.5 66.5l46 328q6 43 32.5 66t69.5 23h1685z" />
    <glyph glyph-name="registered" unicode="&#xae;" horiz-adv-x="2731" 
d="M1580 2460q230 0 431.5 -86t343 -233t222.5 -349t81 -429q0 -185 -54 -363.5t-149.5 -330t-230.5 -280t-291.5 -218.5t-337 -140.5t-364.5 -50.5q-230 0 -431.5 85.5t-343 232.5t-222.5 349.5t-81 429.5q0 184 54 363t149.5 330t230.5 280t291.5 219t337 140.5
t364.5 50.5zM1262 197q150 0 298.5 41.5t277.5 116t239.5 180.5t189.5 231t123.5 272.5t44.5 299.5q0 250 -113 457t-316.5 328t-455.5 121q-150 0 -298.5 -42t-277.5 -116t-240 -180.5t-189.5 -231t-123.5 -272.5t-45 -300q0 -187 67 -354t183 -288t281.5 -192t354.5 -71z
M2079 1483q0 -141 -70.5 -257t-200.5 -185l169 -405q13 -34 -7.5 -62.5t-58.5 -28.5h-337q-28 0 -36 25l-150 389h-169l-52 -373q-2 -17 -16 -29t-31 -12h-351q-17 0 -27.5 12.5t-8.5 28.5l179 1266q1 16 15.5 28.5t31.5 12.5h351h266q242 0 372.5 -114t130.5 -296z
M1306 1574l-42 -296h141q226 0 226 170q0 126 -185 126h-140z" />
    <glyph glyph-name="macron" unicode="&#xaf;" horiz-adv-x="1406" 
d="M31 2499q5 37 35 63t67 26h1199q38 0 60 -26t17 -63l-35 -245q-5 -38 -35 -64t-67 -26h-1198q-37 0 -59.5 26t-17.5 64z" />
    <glyph glyph-name="degree" unicode="&#xb0;" horiz-adv-x="1146" 
d="M657 1535q-136 0 -248.5 63.5t-177 173.5t-64.5 243q0 159 92.5 299t240.5 221t309 81q206 0 347.5 -140t141.5 -343q0 -160 -92.5 -299t-240 -219t-308.5 -80zM711 1920q71 0 122.5 51.5t51.5 120.5q0 59 -36 99.5t-94 40.5q-72 0 -123 -53.5t-51 -123.5q0 -57 36 -96
t94 -39z" />
    <glyph glyph-name="plusminus" unicode="&#xb1;" horiz-adv-x="2195" 
d="M2055 1788q42 0 62 -23.5t14 -66.5l-46 -328q-6 -43 -32.5 -66.5t-69.5 -23.5h-583l-82 -583q-6 -43 -33 -66.5t-70 -23.5h-328q-43 0 -62.5 23.5t-13.5 66.5l82 583h-584q-43 0 -63.5 23.5t-14.5 66.5l47 328q6 43 32.5 66.5t69.5 23.5h584l82 583q6 43 32.5 66.5
t69.5 23.5h328q43 0 63 -23.5t14 -66.5l-82 -583h584zM1874 507q43 0 63 -23.5t14 -65.5l-46 -328q-6 -43 -32.5 -66.5t-69.5 -23.5h-1674q-43 0 -63 23.5t-14 66.5l45 328q6 42 33 65.5t70 23.5h1674z" />
    <glyph glyph-name="acute" unicode="&#xb4;" horiz-adv-x="1115" 
d="M152 2063q-41 -15 -73 -3t-43 44l-59 169q-11 33 8 69.5t55 55.5l807 440q36 19 69 6.5t44 -46.5l103 -291q13 -39 -3 -73t-55 -48z" />
    <glyph glyph-name="paragraph" unicode="&#xb6;" horiz-adv-x="2159" 
d="M2149 2440q31 0 50 -22t14 -53l-392 -2790q-5 -31 -29.5 -53t-55.5 -22h-60q-31 0 -50 22t-15 53l373 2658h-864l-373 -2658q-5 -31 -29.5 -53t-55.5 -22h-60q-31 0 -50 22t-15 53l192 1369q-253 27 -415 213t-162 446q0 167 72 322.5t190.5 267.5t276.5 179.5t324 67.5
h1074h60z" />
    <glyph glyph-name="periodcentered" unicode="&#xb7;" horiz-adv-x="1071" 
d="M482 556q-146 0 -242 99t-96 244q0 175 135 304t311 129q146 0 242 -99t96 -244q0 -175 -135 -304t-311 -129z" />
    <glyph glyph-name="cedilla" unicode="&#xb8;" horiz-adv-x="2441" 
d="M323 -880q-178 0 -300 75q-61 43 -24 120l26 54q41 85 127 48q76 -38 143 -38q79 0 133 40.5t54 116.5q0 19 -4.5 34t-14.5 25.5t-20.5 19t-29 13t-32 8t-38 3.5h-39t-42.5 -2.5t-41 -4t-41 -4.5q-62 -6 -81 14.5t8 71.5l182 326h322l-109 -181q197 26 312.5 -48.5
t115.5 -231.5q0 -111 -48.5 -200t-132 -144.5t-192.5 -85t-234 -29.5z" />
    <glyph glyph-name="guillemotright" unicode="&#xbb;" horiz-adv-x="2118" 
d="M1025 807q-4 -30 -32 -51l-768 -515q-58 -39 -104.5 -13.5t-37.5 90.5l33 232q4 27 37 53l436 334l-342 334q-26 26 -22 54l32 231q9 65 63 90t100 -13l624 -515q22 -20 17 -50l-18 -131zM1947 1118q23 -20 18 -50l-18 -131l-19 -130q-3 -30 -31 -51l-768 -515
q-40 -24 -74 -22.5t-54 29.5t-14 70l33 232q2 27 37 53l436 334l-342 334q-27 25 -22 54l32 231q9 65 62.5 90t100.5 -13z" />
    <glyph glyph-name="onequarter" unicode="&#xbc;" horiz-adv-x="3895" 
d="M2387 2588q14 28 43 38.5t58 -2.5l193 -92q27 -13 37 -42t-4 -57l-1318 -2620q-14 -28 -43.5 -38.5t-56.5 2.5l-194 91q-28 13 -37.5 42.5t4.5 57.5zM1307 2397q20 0 32.5 -14.5t9.5 -34.5l-211 -1506q-3 -20 -20 -34.5t-37 -14.5h-417q-20 0 -32.5 14.5t-9.5 34.5
l155 1103l-247 -107q-21 -9 -39.5 -2t-24.5 26l-86 270q-7 20 3 39.5t31 27.5l440 184q34 14 72 14h381zM3740 653q28 0 41.5 -15.5t9.5 -43.5l-30 -213q-10 -59 -68 -59h-179l-39 -273q-2 -20 -19 -34.5t-37 -14.5h-369q-20 0 -32.5 14.5t-9.5 34.5l39 273h-791
q-28 0 -41 15.5t-9 43.5l21 151q2 13 12 25l943 1013q32 34 75 34h387q20 0 32.5 -14.5t10.5 -34.5l-127 -902h180zM2747 653h346l61 436z" />
    <glyph glyph-name="onehalf" unicode="&#xbd;" horiz-adv-x="3973" 
d="M2681 2532q27 -13 37 -42t-4 -57l-1318 -2620q-14 -28 -43.5 -38.5t-56.5 2.5l-194 91q-28 13 -37.5 42.5t4.5 57.5l1318 2620q14 28 43 38.5t58 -2.5zM1138 842q-3 -20 -20 -34.5t-37 -14.5h-417q-20 0 -32.5 14.5t-9.5 34.5l155 1103l-247 -107q-21 -9 -39.5 -2
t-24.5 26l-86 270q-7 20 3 39.5t31 27.5l440 184q34 14 72 14h381q20 0 32.5 -14.5t9.5 -34.5zM3858 1119q-29 -202 -184 -387.5t-456 -368.5h519q20 0 32.5 -15t9.5 -35l-38 -271q-3 -20 -19.5 -34.5t-36.5 -14.5h-1235q-28 0 -41.5 15.5t-9.5 43.5l15 103q8 55 36 73
q257 169 434 305t269.5 234t132 165.5t48.5 129.5q25 178 -169 178q-53 0 -103.5 -12.5t-102 -39.5t-86 -49t-88.5 -60q-14 -9 -25.5 -11t-21.5 3.5t-17 13t-16 20.5l-122 175q-15 17 -13 34t10.5 28.5t27.5 27.5q318 263 719 263q289 0 426.5 -139t104.5 -375z" />
    <glyph glyph-name="threequarters" unicode="&#xbe;" horiz-adv-x="4166" 
d="M2613 2588q14 28 43 38.5t58 -2.5l193 -92q27 -13 37 -42t-4 -57l-1318 -2620q-14 -28 -43.5 -38.5t-56.5 2.5l-194 91q-28 13 -37.5 42.5t4.5 57.5zM1309 1622q119 -52 183.5 -138.5t64.5 -202.5q0 -160 -100 -280t-272 -182t-392 -62q-119 0 -219.5 19.5t-178.5 56
t-138 82t-113 105.5q-15 18 -20.5 29t-2 27t21.5 35l174 178q13 13 22 20t20.5 13t22.5 4t22 -11q50 -42 79 -63t77.5 -49t102 -40t117.5 -12q112 0 184 39.5t72 110.5q0 65 -82 109t-225 48q-21 2 -32.5 15.5t-9.5 34.5l25 185q4 21 19.5 34t38.5 15q158 9 237 60.5
t79 126.5q0 53 -45.5 82t-128.5 29q-74 0 -152 -25t-123 -49.5t-115 -68.5q-17 -14 -32.5 -11t-25 11t-22.5 26l-114 165q-10 14 -12.5 26.5t3.5 24t13.5 19.5t21.5 20q141 119 328 187t395 68q254 0 394 -103.5t140 -280.5q0 -278 -302 -427zM3966 653q28 0 41.5 -15.5
t9.5 -43.5l-30 -213q-10 -59 -68 -59h-179l-39 -273q-2 -20 -19 -34.5t-37 -14.5h-369q-20 0 -32.5 14.5t-9.5 34.5l39 273h-791q-28 0 -41 15.5t-9 43.5l21 151q2 13 12 25l943 1013q32 34 75 34h387q20 0 32.5 -14.5t10.5 -34.5l-127 -902h180zM2973 653h346l61 436z" />
    <glyph glyph-name="questiondown" unicode="&#xbf;" horiz-adv-x="1825" 
d="M1005 1933q141 0 233.5 -95.5t92.5 -235.5q0 -169 -130 -293.5t-300 -124.5q-141 0 -233.5 95.5t-92.5 235.5q0 169 130 293.5t300 124.5zM670 149q0 -174 241 -174q68 0 131.5 14t118 40.5t90.5 48.5t82 53q13 10 20 14q35 25 61.5 17t59.5 -57l170 -256q12 -18 13 -34
t-11 -32t-24 -26t-35 -27q-206 -156 -434 -244t-508 -88q-167 0 -305 35t-241.5 103.5t-160.5 177.5t-57 250q0 115 34.5 210t91.5 162.5t127 126t145 112.5t141 109t119 129t75 160q19 71 82 71h422q31 0 43.5 -18t12.5 -55q0 -74 -28 -145.5t-72 -129.5t-98 -114
t-108 -109t-98 -103.5t-72 -107.5t-28 -113z" />
    <glyph glyph-name="Agrave" unicode="&#xc0;" horiz-adv-x="2798" 
d="M1031 2948q-35 14 -41.5 48.5t17.5 72.5l184 291q22 35 58 47t68 -7l683 -440q31 -19 39 -55t-12 -70l-105 -169q-21 -32 -56.5 -44t-71.5 3zM2661 105q13 -48 -10 -76.5t-72 -28.5h-668q-75 0 -90 71l-80 331h-871l-169 -331q-35 -71 -112 -71h-632q-50 0 -65 28t11 77
l1279 2278q37 67 112 67h638q76 0 94 -67zM1123 900h499l-160 665z" />
    <glyph glyph-name="Aacute" unicode="&#xc1;" horiz-adv-x="2798" 
d="M1325 2666l-59 169q-11 33 8 69.5t55 55.5l807 440q36 19 69 6.5t44 -46.5l103 -291q13 -39 -3 -73t-55 -48l-853 -323q-41 -15 -73 -3t-43 44zM2661 105q13 -48 -10 -76.5t-72 -28.5h-668q-75 0 -90 71l-80 331h-871l-169 -331q-35 -71 -112 -71h-632q-50 0 -65 28
t11 77l1279 2278q37 67 112 67h638q76 0 94 -67zM1123 900h499l-160 665z" />
    <glyph glyph-name="Acircumflex" unicode="&#xc2;" horiz-adv-x="2798" 
d="M1051 2651q-59 0 -68.5 33t37.5 78l487 460q52 48 118 48h239q66 0 105 -48l357 -460q34 -45 15.5 -78t-77.5 -33h-359q-71 0 -100 59l-109 211l-169 -211q-47 -59 -117 -59h-359zM2661 105q13 -48 -10 -76.5t-72 -28.5h-668q-75 0 -90 71l-80 331h-871l-169 -331
q-35 -71 -112 -71h-632q-50 0 -65 28t11 77l1279 2278q37 67 112 67h638q76 0 94 -67zM1123 900h499l-160 665z" />
    <glyph glyph-name="Atilde" unicode="&#xc3;" horiz-adv-x="2798" 
d="M1009 2655q-43 0 -64 24.5t-11 69.5q57 258 208.5 398.5t340.5 140.5q84 0 149.5 -21.5t106 -52t75.5 -61.5t77 -52.5t91 -21.5q71 0 121 35t76 93q21 41 45.5 61t62.5 20h109q44 0 63 -38.5t1 -105.5q-64 -241 -210 -365t-328 -124q-84 0 -149.5 21.5t-106 52.5t-75 62
t-76.5 52.5t-91 21.5q-69 0 -120.5 -36.5t-77.5 -92.5q-21 -42 -45 -61.5t-63 -19.5h-109zM2661 105q13 -48 -10 -76.5t-72 -28.5h-668q-75 0 -90 71l-80 331h-871l-169 -331q-35 -71 -112 -71h-632q-50 0 -65 28t11 77l1279 2278q37 67 112 67h638q76 0 94 -67zM1123 900
h499l-160 665z" />
    <glyph glyph-name="Adieresis" unicode="&#xc4;" horiz-adv-x="2798" 
d="M1210 2659q-123 0 -203.5 83t-80.5 206q0 148 113.5 256.5t262.5 108.5q123 0 204 -83.5t81 -205.5q0 -148 -114 -256.5t-263 -108.5zM2104 2659q-123 0 -203.5 83t-80.5 206q0 148 113.5 256.5t262.5 108.5q123 0 204 -83.5t81 -205.5q0 -148 -113.5 -256.5
t-263.5 -108.5zM2661 105q13 -48 -10 -76.5t-72 -28.5h-668q-75 0 -90 71l-80 331h-871l-169 -331q-35 -71 -112 -71h-632q-50 0 -65 28t11 77l1279 2278q37 67 112 67h638q76 0 94 -67zM1123 900h499l-160 665z" />
    <glyph glyph-name="Aring" unicode="&#xc5;" horiz-adv-x="2798" 
d="M2661 105q13 -48 -10 -76.5t-72 -28.5h-668q-75 0 -90 71l-80 331h-871l-169 -331q-35 -71 -112 -71h-632q-50 0 -65 28t11 77l1266 2255q-85 121 -85 274q0 159 92.5 299t241 221t308.5 81q136 0 248.5 -64t177 -175t64.5 -245q0 -113 -48 -217t-132 -187zM1676 2880
q-84 0 -145.5 -63.5t-61.5 -146.5q0 -67 43 -114t112 -47q85 0 145.5 61.5t60.5 144.5q0 69 -42.5 117t-111.5 48zM1123 900h499l-160 665z" />
    <glyph glyph-name="AE" unicode="&#xc6;" horiz-adv-x="3803" 
d="M3793 2440q74 0 65 -75l-65 -457q-4 -35 -27 -54.5t-59 -19.5h-1172l-45 -325h1012q35 0 52 -19.5t12 -55.5l-56 -398q-11 -74 -85 -74h-1012l-50 -356h1212q36 0 52.5 -19.5t11.5 -54.5l-64 -457q-11 -75 -85 -75h-1503h-419q-31 0 -50 22t-15 53l46 327h-645l-213 -334
q-41 -68 -122 -68h-619q-49 0 -60.5 29t20.5 79l1522 2267q42 65 122 65h348v-1q3 1 9 1h635h1247zM1222 900h397l113 801z" />
    <glyph glyph-name="Ccedilla" unicode="&#xc7;" horiz-adv-x="2727" 
d="M2745 1884q15 -40 -0.5 -72.5t-56.5 -50.5l-509 -226q-79 -35 -116 41q-60 135 -171.5 209t-256.5 74q-140 0 -262 -56t-209 -154t-136.5 -235.5t-49.5 -294.5q0 -242 128.5 -390t349.5 -148q144 0 275.5 74t231.5 209q59 76 128 41l444 -226q36 -18 42.5 -49.5
t-19.5 -73.5q-120 -180 -290.5 -311.5t-354.5 -201t-384 -90.5l-57 -94q197 26 312.5 -48.5t115.5 -231.5q0 -111 -48.5 -200t-132 -144.5t-192.5 -85t-234 -29.5q-178 0 -300 75q-61 43 -24 120l26 54q41 85 127 48q76 -38 143 -38q79 0 133 40.5t54 116.5q0 19 -4.5 34
t-14.5 25.5t-20.5 19t-29 13t-32 8t-38 3.5h-39t-42.5 -2.5t-41 -4t-41 -4.5q-62 -6 -81 14.5t8 71.5l133 238q-230 22 -424 108t-334.5 225.5t-219.5 338t-79 433.5q0 217 59 414t164 353.5t251.5 283.5t320.5 211.5t371.5 130t404.5 45.5q168 0 322.5 -36.5t290.5 -109
t242.5 -191.5t165.5 -274z" />
    <glyph glyph-name="Egrave" unicode="&#xc8;" horiz-adv-x="2324" 
d="M822 2948q-35 14 -41.5 48.5t17.5 72.5l184 291q22 35 58 47t68 -7l683 -440q31 -19 39 -55t-12 -70l-105 -169q-21 -32 -56.5 -44t-71.5 3zM2314 2440q74 0 65 -75l-65 -457q-4 -35 -27 -54.5t-59 -19.5h-1172l-45 -325h1012q35 0 52 -19.5t12 -55.5l-56 -398
q-11 -74 -85 -74h-1012l-50 -356h1212q36 0 52.5 -19.5t11.5 -54.5l-64 -457q-11 -75 -85 -75h-1503h-419q-31 0 -50 22t-15 53l323 2290q4 31 29 53t56 22h635h1247z" />
    <glyph glyph-name="Eacute" unicode="&#xc9;" horiz-adv-x="2324" 
d="M1116 2666l-59 169q-11 33 8 69.5t55 55.5l807 440q36 19 69 6.5t44 -46.5l103 -291q13 -39 -3 -73t-55 -48l-853 -323q-41 -15 -73 -3t-43 44zM2314 2440q74 0 65 -75l-65 -457q-4 -35 -27 -54.5t-59 -19.5h-1172l-45 -325h1012q35 0 52 -19.5t12 -55.5l-56 -398
q-11 -74 -85 -74h-1012l-50 -356h1212q36 0 52.5 -19.5t11.5 -54.5l-64 -457q-11 -75 -85 -75h-1503h-419q-31 0 -50 22t-15 53l323 2290q4 31 29 53t56 22h635h1247z" />
    <glyph glyph-name="Ecircumflex" unicode="&#xca;" horiz-adv-x="2324" 
d="M842 2651q-59 0 -68.5 33t37.5 78l487 460q52 48 118 48h239q66 0 105 -48l357 -460q34 -45 15.5 -78t-77.5 -33h-359q-70 0 -100 59l-109 211l-169 -211q-47 -59 -117 -59h-359zM2314 2440q74 0 65 -75l-65 -457q-4 -35 -27 -54.5t-59 -19.5h-1172l-45 -325h1012
q35 0 52 -19.5t12 -55.5l-56 -398q-11 -74 -85 -74h-1012l-50 -356h1212q36 0 52.5 -19.5t11.5 -54.5l-64 -457q-11 -75 -85 -75h-1503h-419q-31 0 -50 22t-15 53l323 2290q4 31 29 53t56 22h635h1247z" />
    <glyph glyph-name="Edieresis" unicode="&#xcb;" horiz-adv-x="2324" 
d="M1001 2659q-123 0 -203.5 83t-80.5 206q0 148 113.5 256.5t262.5 108.5q123 0 204 -83.5t81 -205.5q0 -148 -114 -256.5t-263 -108.5zM1895 2659q-123 0 -203.5 83t-80.5 206q0 148 113.5 256.5t262.5 108.5q123 0 204 -83.5t81 -205.5q0 -148 -113.5 -256.5
t-263.5 -108.5zM2314 2440q74 0 65 -75l-65 -457q-4 -35 -27 -54.5t-59 -19.5h-1172l-45 -325h1012q35 0 52 -19.5t12 -55.5l-56 -398q-11 -74 -85 -74h-1012l-50 -356h1212q36 0 52.5 -19.5t11.5 -54.5l-64 -457q-11 -75 -85 -75h-1503h-419q-31 0 -50 22t-15 53l323 2290
q4 31 29 53t56 22h635h1247z" />
    <glyph glyph-name="Igrave" unicode="&#xcc;" horiz-adv-x="1077" 
d="M916 2625l-763 323q-35 14 -41.5 48.5t17.5 72.5l184 291q22 35 58 47t68 -7l683 -440q31 -19 39 -55t-12 -70l-105 -169q-21 -32 -56.5 -44t-71.5 3zM347 2365q4 31 29 53t56 22h635q31 0 50 -22t14 -53l-322 -2290q-5 -31 -29.5 -53t-55.5 -22h-635q-31 0 -50 22
t-15 53z" />
    <glyph glyph-name="Iacute" unicode="&#xcd;" horiz-adv-x="1077" 
d="M563 2625q-41 -15 -73 -3t-43 44l-59 169q-11 33 8 69.5t55 55.5l807 440q36 19 69 6.5t44 -46.5l103 -291q13 -39 -3 -73t-55 -48zM347 2365q4 31 29 53t56 22h635q31 0 50 -22t14 -53l-322 -2290q-5 -31 -29.5 -53t-55.5 -22h-635q-31 0 -50 22t-15 53z" />
    <glyph glyph-name="Icircumflex" unicode="&#xce;" horiz-adv-x="1077" 
d="M927 2710l-109 211l-169 -211q-47 -59 -117 -59h-359q-59 0 -68.5 33t37.5 78l487 460q52 48 118 48h239q66 0 105 -48l357 -460q34 -45 15.5 -78t-77.5 -33h-359q-71 0 -100 59zM347 2365q4 31 29 53t56 22h635q31 0 50 -22t14 -53l-322 -2290q-5 -31 -29.5 -53
t-55.5 -22h-635q-31 0 -50 22t-15 53z" />
    <glyph glyph-name="Idieresis" unicode="&#xcf;" horiz-adv-x="1077" 
d="M332 2659q-123 0 -203.5 83t-80.5 206q0 148 113.5 256.5t262.5 108.5q123 0 204 -83.5t81 -205.5q0 -148 -114 -256.5t-263 -108.5zM1226 2659q-123 0 -203.5 83t-80.5 206q0 148 113.5 256.5t262.5 108.5q123 0 204 -83.5t81 -205.5q0 -148 -113.5 -256.5
t-263.5 -108.5zM347 2365q4 31 29 53t56 22h635q31 0 50 -22t14 -53l-322 -2290q-5 -31 -29.5 -53t-55.5 -22h-635q-31 0 -50 22t-15 53z" />
    <glyph glyph-name="Eth" unicode="&#xd0;" horiz-adv-x="2790" 
d="M1510 2440q207 0 390 -45t332.5 -134.5t257.5 -215.5t167 -296.5t59 -369.5q0 -214 -57.5 -405t-161 -341t-247 -270.5t-315.5 -199.5t-367 -121t-401 -42h-780h-298q-31 0 -50 22t-15 53l128 905h-199q-43 0 -63 23.5t-14 65.5l38 269q6 43 32.5 66.5t69.5 23.5h199
l132 937q4 31 29 53t56 22h635h443zM1212 606q145 0 270 51t215.5 142.5t142 224.5t51.5 290q0 239 -136.5 379.5t-369.5 140.5h-329l-57 -406h388q42 0 62.5 -23.5t14.5 -66.5l-38 -269q-6 -42 -32.5 -65.5t-69.5 -23.5h-388l-52 -374h328z" />
    <glyph glyph-name="Ntilde" unicode="&#xd1;" horiz-adv-x="2838" 
d="M1051 2655q-43 0 -64 24.5t-11 69.5q57 258 208.5 398.5t340.5 140.5q84 0 149.5 -21.5t106 -52t75.5 -61.5t77 -52.5t91 -21.5q71 0 121 35t76 93q21 41 45.5 61t62.5 20h109q44 0 63 -38.5t1 -105.5q-64 -241 -210 -365t-328 -124q-84 0 -149.5 21.5t-106 52.5t-75 62
t-76.5 52.5t-91 21.5q-69 0 -120.5 -36.5t-77.5 -92.5q-21 -42 -45 -61.5t-63 -19.5h-109zM2814 2440q43 0 63 -23.5t14 -66.5l-320 -2271q-6 -43 -32.5 -66t-69.5 -23h-205q-67 0 -107 36l-1195 1131l-151 -1067q-6 -43 -32.5 -66.5t-69.5 -23.5h-605q-43 0 -63 23.5
t-14 66.5l319 2271q6 43 32.5 66t69.5 23h205q66 0 107 -36l1195 -1137l151 1073q6 43 33 66.5t69 23.5h606z" />
    <glyph glyph-name="Ograve" unicode="&#xd2;" horiz-adv-x="3012" 
d="M1883 2625l-763 323q-35 14 -41.5 48.5t17.5 72.5l184 291q22 35 58 47t68 -7l683 -440q31 -19 39 -55t-12 -70l-105 -169q-21 -32 -56.5 -44t-71.5 3zM1724 2495q207 0 392 -48.5t335 -144t259 -228.5t168.5 -310t59.5 -381q0 -217 -59 -414t-164 -353.5t-251.5 -283.5
t-320.5 -211.5t-371.5 -130t-404.5 -45.5t-392 48.5t-335 144t-259 228.5t-168.5 310t-59.5 381q0 217 59 414t164 353.5t251.5 283.5t320.5 211.5t371.5 130t404.5 45.5zM1456 581q140 0 262 56t209 154t136.5 235.5t49.5 294.5q0 242 -128.5 390t-349.5 148
q-140 0 -262 -56t-209 -154t-136.5 -235.5t-49.5 -294.5q0 -242 128.5 -390t349.5 -148z" />
    <glyph glyph-name="Oacute" unicode="&#xd3;" horiz-adv-x="3012" 
d="M1530 2625q-41 -15 -73 -3t-43 44l-59 169q-11 33 8 69.5t55 55.5l807 440q36 19 69 6.5t44 -46.5l103 -291q13 -39 -3 -73t-55 -48zM1724 2495q207 0 392 -48.5t335 -144t259 -228.5t168.5 -310t59.5 -381q0 -217 -59 -414t-164 -353.5t-251.5 -283.5t-320.5 -211.5
t-371.5 -130t-404.5 -45.5t-392 48.5t-335 144t-259 228.5t-168.5 310t-59.5 381q0 217 59 414t164 353.5t251.5 283.5t320.5 211.5t371.5 130t404.5 45.5zM1456 581q140 0 262 56t209 154t136.5 235.5t49.5 294.5q0 242 -128.5 390t-349.5 148q-140 0 -262 -56t-209 -154
t-136.5 -235.5t-49.5 -294.5q0 -242 128.5 -390t349.5 -148z" />
    <glyph glyph-name="Ocircumflex" unicode="&#xd4;" horiz-adv-x="3012" 
d="M1894 2710l-109 211l-169 -211q-47 -59 -117 -59h-359q-59 0 -68.5 33t37.5 78l487 460q52 48 118 48h239q66 0 105 -48l357 -460q34 -45 15.5 -78t-77.5 -33h-359q-70 0 -100 59zM1724 2495q207 0 392 -48.5t335 -144t259 -228.5t168.5 -310t59.5 -381q0 -217 -59 -414
t-164 -353.5t-251.5 -283.5t-320.5 -211.5t-371.5 -130t-404.5 -45.5t-392 48.5t-335 144t-259 228.5t-168.5 310t-59.5 381q0 217 59 414t164 353.5t251.5 283.5t320.5 211.5t371.5 130t404.5 45.5zM1456 581q140 0 262 56t209 154t136.5 235.5t49.5 294.5
q0 242 -128.5 390t-349.5 148q-140 0 -262 -56t-209 -154t-136.5 -235.5t-49.5 -294.5q0 -242 128.5 -390t349.5 -148z" />
    <glyph glyph-name="Otilde" unicode="&#xd5;" horiz-adv-x="3012" 
d="M1098 2655q-43 0 -64 24.5t-11 69.5q57 258 208.5 398.5t340.5 140.5q84 0 149.5 -21.5t106 -52t75.5 -61.5t77 -52.5t91 -21.5q71 0 121 35t76 93q21 41 45.5 61t62.5 20h109q44 0 63 -38.5t1 -105.5q-64 -241 -210 -365t-328 -124q-84 0 -149.5 21.5t-106 52.5t-75 62
t-76.5 52.5t-91 21.5q-69 0 -120.5 -36.5t-77.5 -92.5q-21 -42 -45 -61.5t-63 -19.5h-109zM1724 2495q207 0 392 -48.5t335 -144t259 -228.5t168.5 -310t59.5 -381q0 -217 -59 -414t-164 -353.5t-251.5 -283.5t-320.5 -211.5t-371.5 -130t-404.5 -45.5t-392 48.5t-335 144
t-259 228.5t-168.5 310t-59.5 381q0 217 59 414t164 353.5t251.5 283.5t320.5 211.5t371.5 130t404.5 45.5zM1456 581q140 0 262 56t209 154t136.5 235.5t49.5 294.5q0 242 -128.5 390t-349.5 148q-140 0 -262 -56t-209 -154t-136.5 -235.5t-49.5 -294.5q0 -242 128.5 -390
t349.5 -148z" />
    <glyph glyph-name="Odieresis" unicode="&#xd6;" horiz-adv-x="3012" 
d="M1299 2659q-123 0 -203.5 83t-80.5 206q0 148 113.5 256.5t262.5 108.5q123 0 204 -83.5t81 -205.5q0 -148 -114 -256.5t-263 -108.5zM2193 2659q-123 0 -203.5 83t-80.5 206q0 148 113.5 256.5t262.5 108.5q123 0 204 -83.5t81 -205.5q0 -148 -113.5 -256.5
t-263.5 -108.5zM1724 2495q207 0 392 -48.5t335 -144t259 -228.5t168.5 -310t59.5 -381q0 -217 -59 -414t-164 -353.5t-251.5 -283.5t-320.5 -211.5t-371.5 -130t-404.5 -45.5t-392 48.5t-335 144t-259 228.5t-168.5 310t-59.5 381q0 217 59 414t164 353.5t251.5 283.5
t320.5 211.5t371.5 130t404.5 45.5zM1456 581q140 0 262 56t209 154t136.5 235.5t49.5 294.5q0 242 -128.5 390t-349.5 148q-140 0 -262 -56t-209 -154t-136.5 -235.5t-49.5 -294.5q0 -242 128.5 -390t349.5 -148z" />
    <glyph glyph-name="multiply" unicode="&#xd7;" horiz-adv-x="2226" 
d="M2138 1735q53 -63 -18 -126l-632 -554l476 -554q26 -30 21 -63.5t-39 -63.5l-264 -232q-73 -63 -128 1l-475 553l-632 -554q-34 -30 -67 -30t-59 30l-200 232q-54 65 18 127l632 554l-476 554q-26 30 -21.5 63t38.5 63l265 233q71 62 127 0l476 -554l632 554
q34 29 67 29.5t59 -29.5z" />
    <glyph glyph-name="Oslash" unicode="&#xd8;" horiz-adv-x="3012" 
d="M2969 2346q56 -62 -18 -125l-212 -186q199 -273 199 -652q0 -217 -59 -414t-164 -353.5t-251.5 -283.5t-320.5 -211.5t-371.5 -130t-404.5 -45.5q-449 0 -764 217l-212 -186q-72 -63 -126 -1l-110 129q-55 62 18 126l187 164q-207 276 -207 663q0 217 59 414t164 353.5
t251.5 283.5t320.5 211.5t371.5 130t404.5 45.5q457 0 776 -225l233 204q73 64 125 1zM978 1119q0 -91 18 -167l930 815q-120 92 -291 92q-140 0 -262 -56t-209 -154t-136.5 -235.5t-49.5 -294.5zM2113 1321q0 81 -15 152l-922 -808q117 -84 280 -84q140 0 262 56t209 154
t136.5 235.5t49.5 294.5z" />
    <glyph glyph-name="Ugrave" unicode="&#xd9;" horiz-adv-x="2788" 
d="M1771 2625l-763 323q-35 14 -41.5 48.5t17.5 72.5l184 291q22 35 58 47t68 -7l683 -440q31 -19 39 -55t-12 -70l-105 -169q-21 -32 -56.5 -44t-71.5 3zM2778 2440q31 0 50 -22t15 -53l-187 -1325q-31 -217 -118 -395.5t-215.5 -304.5t-297 -212.5t-361.5 -127t-408 -40.5
t-396.5 40.5t-325.5 127t-237.5 212.5t-130.5 304.5t-6 395.5l187 1325q4 31 29 53t56 22h635q31 0 50 -22t14 -53l-162 -1156q-42 -295 49.5 -454t327.5 -159q235 0 371 159t178 454l163 1156q4 31 29 53t56 22h635z" />
    <glyph glyph-name="Uacute" unicode="&#xda;" horiz-adv-x="2788" 
d="M1418 2625q-41 -15 -73 -3t-43 44l-59 169q-11 33 8 69.5t55 55.5l807 440q36 19 69 6.5t44 -46.5l103 -291q13 -39 -3 -73t-55 -48zM2778 2440q31 0 50 -22t15 -53l-187 -1325q-31 -217 -118 -395.5t-215.5 -304.5t-297 -212.5t-361.5 -127t-408 -40.5t-396.5 40.5
t-325.5 127t-237.5 212.5t-130.5 304.5t-6 395.5l187 1325q4 31 29 53t56 22h635q31 0 50 -22t14 -53l-162 -1156q-42 -295 49.5 -454t327.5 -159q235 0 371 159t178 454l163 1156q4 31 29 53t56 22h635z" />
    <glyph glyph-name="Ucircumflex" unicode="&#xdb;" horiz-adv-x="2788" 
d="M1782 2710l-109 211l-169 -211q-47 -59 -117 -59h-359q-59 0 -68.5 33t37.5 78l487 460q52 48 118 48h239q66 0 105 -48l357 -460q34 -45 15.5 -78t-77.5 -33h-359q-70 0 -100 59zM2778 2440q31 0 50 -22t15 -53l-187 -1325q-31 -217 -118 -395.5t-215.5 -304.5
t-297 -212.5t-361.5 -127t-408 -40.5t-396.5 40.5t-325.5 127t-237.5 212.5t-130.5 304.5t-6 395.5l187 1325q4 31 29 53t56 22h635q31 0 50 -22t14 -53l-162 -1156q-42 -295 49.5 -454t327.5 -159q235 0 371 159t178 454l163 1156q4 31 29 53t56 22h635z" />
    <glyph glyph-name="Udieresis" unicode="&#xdc;" horiz-adv-x="2788" 
d="M1187 2659q-123 0 -203.5 83t-80.5 206q0 148 113.5 256.5t262.5 108.5q123 0 204 -83.5t81 -205.5q0 -148 -114 -256.5t-263 -108.5zM2081 2659q-123 0 -203.5 83t-80.5 206q0 148 113.5 256.5t262.5 108.5q123 0 204 -83.5t81 -205.5q0 -148 -113.5 -256.5
t-263.5 -108.5zM2778 2440q31 0 50 -22t15 -53l-187 -1325q-31 -217 -118 -395.5t-215.5 -304.5t-297 -212.5t-361.5 -127t-408 -40.5t-396.5 40.5t-325.5 127t-237.5 212.5t-130.5 304.5t-6 395.5l187 1325q4 31 29 53t56 22h635q31 0 50 -22t14 -53l-162 -1156
q-42 -295 49.5 -454t327.5 -159q235 0 371 159t178 454l163 1156q4 31 29 53t56 22h635z" />
    <glyph glyph-name="Yacute" unicode="&#xdd;" horiz-adv-x="2690" 
d="M1264 2666l-59 169q-11 33 8 69.5t55 55.5l807 440q36 19 69 6.5t44 -46.5l103 -291q13 -39 -3 -73t-55 -48l-853 -323q-41 -15 -73 -3t-43 44zM2809 2440q49 0 66.5 -31t-12.5 -74l-1140 -1556l-99 -704q-4 -31 -29.5 -53t-56.5 -22h-635q-31 0 -49.5 22t-14.5 53
l99 703l-718 1557q-20 43 6.5 74t76.5 31h674q62 0 91 -71l384 -932l617 932q44 71 113 71h627z" />
    <glyph glyph-name="Thorn" unicode="&#xde;" horiz-adv-x="2438" 
d="M1524 2079q177 0 325 -38t255 -106t181.5 -162t110.5 -207.5t36 -241.5q0 -157 -49 -301t-147 -264t-234.5 -209t-321 -139t-397.5 -50h-433l-41 -286q-4 -31 -29 -53t-56 -22h-635q-31 0 -50 22t-15 53l323 2290q4 31 29 53t56 22h635q31 0 50 -22t15 -53l-41 -286h433z
M1225 938q104 0 183.5 27.5t124 74.5t66.5 101t22 114q0 106 -77 176.5t-241 70.5h-293l-79 -564h294z" />
    <glyph glyph-name="germandbls" unicode="&#xdf;" horiz-adv-x="2607" 
d="M1983 1414q0 -53 29.5 -95.5t76.5 -75.5t104 -67t114.5 -79t104.5 -102t76.5 -146t29.5 -201q0 -142 -47.5 -260t-128.5 -199t-191 -137t-233 -81.5t-256 -25.5q-209 0 -396 58.5t-276 134.5q-30 27 -34.5 54t14.5 65l158 298q46 87 110 47q62 -38 83.5 -50.5t73 -39.5
t82 -37t75.5 -19.5t89 -9.5q83 0 132 30.5t49 82.5q0 34 -24.5 64t-65 54t-92.5 53.5t-105.5 59t-105.5 74t-92.5 96t-65 127t-24.5 164.5q0 93 27.5 172t66.5 135.5t78.5 110.5t67 121.5t27.5 143.5q0 112 -55 175t-148 63q-105 0 -184 -77.5t-99 -218.5l-254 -1801
q-4 -36 -26.5 -55.5t-58.5 -19.5h-600q-74 0 -65 75l257 1826q25 175 92.5 313.5t165 231t228 153.5t274.5 88t310 27q410 0 640 -177t230 -472q0 -101 -24.5 -188.5t-59.5 -148t-70 -112t-59.5 -103t-24.5 -99.5z" />
    <glyph glyph-name="agrave" unicode="&#xe0;" horiz-adv-x="2375" 
d="M784 2386q-35 14 -41.5 48.5t17.5 72.5l184 291q22 35 58 47t68 -7l683 -440q31 -19 39 -55t-12 -70l-105 -169q-21 -32 -56.5 -44t-71.5 3zM2340 1804l-163 -1160q-15 -106 -15.5 -190.5t6.5 -137.5t25 -142q18 -92 -73 -117l-450 -114q-71 -18 -107 26
q-53 61 -91.5 144t-50.5 166q-226 -334 -603 -334q-233 0 -403 106.5t-256 292.5t-86 431q0 243 74.5 456t207 368t325 244.5t417.5 89.5q334 0 475 -258l18 129q5 35 27 54.5t58 19.5h600q36 0 53 -19.5t12 -54.5zM1118 537q162 0 272 129.5t110 347.5q0 155 -73.5 241.5
t-194.5 86.5q-76 0 -144.5 -32t-121.5 -91t-84 -151t-31 -204q0 -155 74 -241t193 -86z" />
    <glyph glyph-name="aacute" unicode="&#xe1;" horiz-adv-x="2375" 
d="M1078 2104l-59 169q-11 33 8 69.5t55 55.5l807 440q36 19 69 6.5t44 -46.5l103 -291q13 -39 -3 -73t-55 -48l-853 -323q-41 -15 -73 -3t-43 44zM2340 1804l-163 -1160q-15 -106 -15.5 -190.5t6.5 -137.5t25 -142q18 -92 -73 -117l-450 -114q-71 -18 -107 26
q-53 61 -91.5 144t-50.5 166q-226 -334 -603 -334q-233 0 -403 106.5t-256 292.5t-86 431q0 243 74.5 456t207 368t325 244.5t417.5 89.5q334 0 475 -258l18 129q5 35 27 54.5t58 19.5h600q36 0 53 -19.5t12 -54.5zM1118 537q162 0 272 129.5t110 347.5q0 155 -73.5 241.5
t-194.5 86.5q-76 0 -144.5 -32t-121.5 -91t-84 -151t-31 -204q0 -155 74 -241t193 -86z" />
    <glyph glyph-name="acircumflex" unicode="&#xe2;" horiz-adv-x="2375" 
d="M804 2089q-59 0 -68.5 33t37.5 78l487 460q52 48 118 48h239q66 0 105 -48l357 -460q34 -45 15.5 -78t-77.5 -33h-359q-70 0 -100 59l-109 211l-169 -211q-47 -59 -117 -59h-359zM2340 1804l-163 -1160q-15 -106 -15.5 -190.5t6.5 -137.5t25 -142q18 -92 -73 -117
l-450 -114q-71 -18 -107 26q-53 61 -91.5 144t-50.5 166q-226 -334 -603 -334q-233 0 -403 106.5t-256 292.5t-86 431q0 243 74.5 456t207 368t325 244.5t417.5 89.5q334 0 475 -258l18 129q5 35 27 54.5t58 19.5h600q36 0 53 -19.5t12 -54.5zM1118 537q162 0 272 129.5
t110 347.5q0 155 -73.5 241.5t-194.5 86.5q-76 0 -144.5 -32t-121.5 -91t-84 -151t-31 -204q0 -155 74 -241t193 -86z" />
    <glyph glyph-name="atilde" unicode="&#xe3;" horiz-adv-x="2375" 
d="M762 2093q-43 0 -64 24.5t-11 69.5q57 258 208.5 398.5t340.5 140.5q84 0 149.5 -21.5t106 -52t75.5 -61.5t77 -52.5t91 -21.5q71 0 121 35t76 93q21 41 45.5 61t62.5 20h109q44 0 63 -38.5t1 -105.5q-64 -241 -210 -365t-328 -124q-84 0 -149.5 21.5t-106 52.5t-75 62
t-76.5 52.5t-91 21.5q-69 0 -120.5 -36.5t-77.5 -92.5q-21 -42 -45 -61.5t-63 -19.5h-109zM2340 1804l-163 -1160q-15 -106 -15.5 -190.5t6.5 -137.5t25 -142q18 -92 -73 -117l-450 -114q-71 -18 -107 26q-53 61 -91.5 144t-50.5 166q-226 -334 -603 -334q-233 0 -403 106.5
t-256 292.5t-86 431q0 243 74.5 456t207 368t325 244.5t417.5 89.5q334 0 475 -258l18 129q5 35 27 54.5t58 19.5h600q36 0 53 -19.5t12 -54.5zM1118 537q162 0 272 129.5t110 347.5q0 155 -73.5 241.5t-194.5 86.5q-76 0 -144.5 -32t-121.5 -91t-84 -151t-31 -204
q0 -155 74 -241t193 -86z" />
    <glyph glyph-name="adieresis" unicode="&#xe4;" horiz-adv-x="2375" 
d="M963 2097q-123 0 -203.5 83t-80.5 206q0 148 113.5 256.5t262.5 108.5q123 0 204 -83.5t81 -205.5q0 -148 -114 -256.5t-263 -108.5zM1857 2097q-123 0 -203.5 83t-80.5 206q0 148 113.5 256.5t262.5 108.5q123 0 204 -83.5t81 -205.5q0 -148 -113.5 -256.5
t-263.5 -108.5zM2340 1804l-163 -1160q-15 -106 -15.5 -190.5t6.5 -137.5t25 -142q18 -92 -73 -117l-450 -114q-71 -18 -107 26q-53 61 -91.5 144t-50.5 166q-226 -334 -603 -334q-233 0 -403 106.5t-256 292.5t-86 431q0 243 74.5 456t207 368t325 244.5t417.5 89.5
q334 0 475 -258l18 129q5 35 27 54.5t58 19.5h600q36 0 53 -19.5t12 -54.5zM1118 537q162 0 272 129.5t110 347.5q0 155 -73.5 241.5t-194.5 86.5q-76 0 -144.5 -32t-121.5 -91t-84 -151t-31 -204q0 -155 74 -241t193 -86z" />
    <glyph glyph-name="aring" unicode="&#xe5;" horiz-adv-x="2375" 
d="M1386 2063q-206 0 -348 139t-142 341q0 159 92.5 299t241 221t308.5 81q136 0 248.5 -64t177 -175t64.5 -245q0 -120 -55 -231.5t-144 -191t-206 -127t-237 -47.5zM1488 2789q-84 0 -145.5 -63.5t-61.5 -146.5q0 -67 43 -114t112 -47q85 0 145.5 61.5t60.5 144.5
q0 69 -42.5 117t-111.5 48zM2340 1804l-163 -1160q-15 -106 -15.5 -190.5t6.5 -137.5t25 -142q18 -92 -73 -117l-450 -114q-71 -18 -107 26q-53 61 -91.5 144t-50.5 166q-226 -334 -603 -334q-233 0 -403 106.5t-256 292.5t-86 431q0 243 74.5 456t207 368t325 244.5
t417.5 89.5q334 0 475 -258l18 129q5 35 27 54.5t58 19.5h600q36 0 53 -19.5t12 -54.5zM1118 537q162 0 272 129.5t110 347.5q0 155 -73.5 241.5t-194.5 86.5q-76 0 -144.5 -32t-121.5 -91t-84 -151t-31 -204q0 -155 74 -241t193 -86z" />
    <glyph glyph-name="ae" unicode="&#xe6;" horiz-adv-x="3368" 
d="M2407 1933q165 0 305.5 -39.5t256.5 -122t188.5 -210.5t101.5 -305t-5 -406h-1361q4 -94 32.5 -165.5t74 -112t99 -60.5t112.5 -20q110 0 189.5 34.5t138.5 108.5q34 41 59 50t68 -10l360 -189q42 -22 45.5 -53.5t-22.5 -68.5q-71 -111 -208.5 -205.5t-330.5 -154
t-396 -59.5q-265 0 -472.5 97t-324.5 280q-135 -170 -339.5 -273.5t-447.5 -103.5q-131 0 -232 40t-161 109t-90.5 154t-30.5 182q0 127 46.5 242.5t141 212.5t237.5 158.5t335.5 80.5t435.5 -22l-52 -367q-127 30 -217 30t-147.5 -28t-84 -71t-26.5 -98q0 -64 41.5 -102
t111.5 -38q112 0 207 83.5t112 202.5l57 398q20 143 -46.5 201t-238.5 58q-112 0 -205.5 -20.5t-221.5 -63.5q-87 -28 -113 47l-98 301q-26 77 59 119q159 79 389.5 129t453.5 50q358 0 512 -186q305 186 702 186zM2327 1450q-119 0 -218.5 -68t-155.5 -193h631
q-16 135 -84.5 198t-172.5 63z" />
    <glyph glyph-name="ccedilla" unicode="&#xe7;" horiz-adv-x="2140" 
d="M2111 1488q16 -40 3 -70t-59 -51l-448 -206q-25 -12 -43.5 -13.5t-32 7t-21.5 18t-19 28.5q-17 31 -34.5 53t-44.5 44t-65 33t-87 11q-182 0 -286.5 -129t-104.5 -357q0 -154 73.5 -236.5t207.5 -82.5q92 0 152 37t115 103q16 19 27 29t26.5 18.5t33.5 6.5t40 -14
l390 -205q41 -22 45.5 -52t-22.5 -70q-36 -59 -101 -122.5t-159 -128t-227 -115t-279 -68.5l-58 -97q197 26 312.5 -48.5t115.5 -231.5q0 -111 -48.5 -200t-132 -144.5t-192.5 -85t-234 -29.5q-178 0 -300 75q-61 43 -24 120l26 54q41 85 127 48q76 -38 143 -38
q79 0 133 40.5t54 116.5q0 19 -4.5 34t-14.5 25.5t-20.5 19t-29 13t-32 8t-38 3.5h-39t-42.5 -2.5t-41 -4t-41 -4.5q-62 -6 -81 14.5t8 71.5l134 240q-166 21 -306.5 87t-246 172t-165 259t-59.5 336q0 211 67 394t183 315.5t269.5 227.5t329 141.5t359.5 46.5
q145 0 272 -31t215 -78t157 -108.5t107 -118t57 -109.5z" />
    <glyph glyph-name="egrave" unicode="&#xe8;" horiz-adv-x="2273" 
d="M667 2386q-35 14 -41.5 48.5t17.5 72.5l184 291q22 35 58 47t68 -7l683 -440q31 -19 39 -55t-12 -70l-105 -169q-21 -32 -56.5 -44t-71.5 3zM1313 1933q165 0 305.5 -39.5t256.5 -122t188.5 -210.5t101.5 -305t-5 -406h-1361q4 -94 32.5 -165.5t74 -112t99 -60.5
t112.5 -20q110 0 189.5 34.5t138.5 108.5q34 41 59 50t68 -10l360 -189q42 -22 45.5 -53.5t-22.5 -68.5q-71 -111 -208.5 -205.5t-330.5 -154t-396 -59.5q-200 0 -369 56.5t-293 163t-194 269.5t-70 365q0 214 65 398t179 317.5t267.5 229t333.5 142.5t374 47zM1233 1450
q-119 0 -218.5 -68t-155.5 -193h631q-16 135 -84.5 198t-172.5 63z" />
    <glyph glyph-name="eacute" unicode="&#xe9;" horiz-adv-x="2273" 
d="M961 2104l-59 169q-11 33 8 69.5t55 55.5l807 440q36 19 69 6.5t44 -46.5l103 -291q13 -39 -3 -73t-55 -48l-853 -323q-41 -15 -73 -3t-43 44zM1313 1933q165 0 305.5 -39.5t256.5 -122t188.5 -210.5t101.5 -305t-5 -406h-1361q4 -94 32.5 -165.5t74 -112t99 -60.5
t112.5 -20q110 0 189.5 34.5t138.5 108.5q34 41 59 50t68 -10l360 -189q42 -22 45.5 -53.5t-22.5 -68.5q-71 -111 -208.5 -205.5t-330.5 -154t-396 -59.5q-200 0 -369 56.5t-293 163t-194 269.5t-70 365q0 214 65 398t179 317.5t267.5 229t333.5 142.5t374 47zM1233 1450
q-119 0 -218.5 -68t-155.5 -193h631q-16 135 -84.5 198t-172.5 63z" />
    <glyph glyph-name="ecircumflex" unicode="&#xea;" horiz-adv-x="2273" 
d="M687 2089q-59 0 -68.5 33t37.5 78l487 460q52 48 118 48h239q66 0 105 -48l357 -460q34 -45 15.5 -78t-77.5 -33h-359q-71 0 -100 59l-109 211l-169 -211q-47 -59 -117 -59h-359zM1313 1933q165 0 305.5 -39.5t256.5 -122t188.5 -210.5t101.5 -305t-5 -406h-1361
q4 -94 32.5 -165.5t74 -112t99 -60.5t112.5 -20q110 0 189.5 34.5t138.5 108.5q34 41 59 50t68 -10l360 -189q42 -22 45.5 -53.5t-22.5 -68.5q-71 -111 -208.5 -205.5t-330.5 -154t-396 -59.5q-200 0 -369 56.5t-293 163t-194 269.5t-70 365q0 214 65 398t179 317.5
t267.5 229t333.5 142.5t374 47zM1233 1450q-119 0 -218.5 -68t-155.5 -193h631q-16 135 -84.5 198t-172.5 63z" />
    <glyph glyph-name="edieresis" unicode="&#xeb;" horiz-adv-x="2273" 
d="M846 2097q-123 0 -203.5 83t-80.5 206q0 148 113.5 256.5t262.5 108.5q123 0 204 -83.5t81 -205.5q0 -148 -114 -256.5t-263 -108.5zM1740 2097q-123 0 -203.5 83t-80.5 206q0 148 113.5 256.5t262.5 108.5q123 0 204 -83.5t81 -205.5q0 -148 -113.5 -256.5
t-263.5 -108.5zM1313 1933q165 0 305.5 -39.5t256.5 -122t188.5 -210.5t101.5 -305t-5 -406h-1361q4 -94 32.5 -165.5t74 -112t99 -60.5t112.5 -20q110 0 189.5 34.5t138.5 108.5q34 41 59 50t68 -10l360 -189q42 -22 45.5 -53.5t-22.5 -68.5q-71 -111 -208.5 -205.5
t-330.5 -154t-396 -59.5q-200 0 -369 56.5t-293 163t-194 269.5t-70 365q0 214 65 398t179 317.5t267.5 229t333.5 142.5t374 47zM1233 1450q-119 0 -218.5 -68t-155.5 -193h631q-16 135 -84.5 198t-172.5 63z" />
    <glyph glyph-name="igrave" unicode="&#xec;" 
d="M820 2063l-763 323q-35 14 -41.5 48.5t17.5 72.5l184 291q22 35 58 47t68 -7l683 -440q31 -19 39 -55t-12 -70l-105 -169q-21 -32 -56.5 -44t-71.5 3zM268 1804q5 35 27 54.5t58 19.5h600q36 0 53 -19.5t12 -54.5l-244 -1729q-4 -36 -26.5 -55.5t-58.5 -19.5h-600
q-74 0 -65 75z" />
    <glyph glyph-name="iacute" unicode="&#xed;" 
d="M467 2063q-41 -15 -73 -3t-43 44l-59 169q-11 33 8 69.5t55 55.5l807 440q36 19 69 6.5t44 -46.5l103 -291q13 -39 -3 -73t-55 -48zM268 1804q5 35 27 54.5t58 19.5h600q36 0 53 -19.5t12 -54.5l-244 -1729q-4 -36 -26.5 -55.5t-58.5 -19.5h-600q-74 0 -65 75z" />
    <glyph glyph-name="icircumflex" unicode="&#xee;" 
d="M831 2148l-109 211l-169 -211q-47 -59 -117 -59h-359q-59 0 -68.5 33t37.5 78l487 460q52 48 118 48h239q66 0 105 -48l357 -460q34 -45 15.5 -78t-77.5 -33h-359q-71 0 -100 59zM268 1804q5 35 27 54.5t58 19.5h600q36 0 53 -19.5t12 -54.5l-244 -1729
q-4 -36 -26.5 -55.5t-58.5 -19.5h-600q-74 0 -65 75z" />
    <glyph glyph-name="idieresis" unicode="&#xef;" 
d="M236 2097q-123 0 -203.5 83t-80.5 206q0 148 113.5 256.5t262.5 108.5q123 0 204 -83.5t81 -205.5q0 -148 -114 -256.5t-263 -108.5zM1130 2097q-123 0 -203.5 83t-80.5 206q0 148 113.5 256.5t262.5 108.5q123 0 204 -83.5t81 -205.5q0 -148 -113.5 -256.5
t-263.5 -108.5zM268 1804q5 35 27 54.5t58 19.5h600q36 0 53 -19.5t12 -54.5l-244 -1729q-4 -36 -26.5 -55.5t-58.5 -19.5h-600q-74 0 -65 75z" />
    <glyph glyph-name="eth" unicode="&#xf0;" horiz-adv-x="2289" 
d="M1415 2509q129 -65 236.5 -147t184.5 -169t137 -186.5t98 -194.5t62.5 -198.5t34.5 -193.5t11.5 -184t-3.5 -166t-15 -143q-33 -233 -138 -420.5t-259.5 -309.5t-347.5 -187t-407 -65q-305 0 -527 109t-327.5 313.5t-67.5 472.5q28 201 126.5 369.5t243.5 283
t330.5 178.5t386.5 64q141 0 262 -50q-100 226 -328 382l-139 -200q-45 -65 -107 -27l-84 53q-59 38 -14 102l132 189q-72 32 -153 60q-38 13 -47.5 47t12.5 69l164 270q32 52 98 36q109 -26 217 -62l125 179q21 30 49 37.5t56 -10.5l86 -54q58 -35 13 -102zM1093 537
q121 0 211.5 88.5t108.5 214.5q18 127 -48 215t-188 88q-121 0 -211.5 -88.5t-108.5 -214.5q-18 -127 48 -215t188 -88z" />
    <glyph glyph-name="ntilde" unicode="&#xf1;" horiz-adv-x="2327" 
d="M746 2093q-43 0 -64 24.5t-11 69.5q57 258 208.5 398.5t340.5 140.5q84 0 149.5 -21.5t106 -52t75.5 -61.5t77 -52.5t91 -21.5q71 0 121 35t76 93q21 41 45.5 61t62.5 20h109q44 0 63 -38.5t1 -105.5q-64 -241 -210 -365t-328 -124q-84 0 -149.5 21.5t-106 52.5t-75 62
t-76.5 52.5t-91 21.5q-69 0 -120.5 -36.5t-77.5 -92.5q-21 -42 -45 -61.5t-63 -19.5h-109zM1686 1918q633 0 537 -684l-163 -1159q-5 -36 -27.5 -55.5t-57.5 -19.5h-601q-36 0 -52.5 19.5t-11.5 55.5l129 915q24 172 -23 247t-164 75q-136 0 -233.5 -98t-122.5 -275
l-122 -864q-4 -36 -26.5 -55.5t-58.5 -19.5h-600q-74 0 -65 75l244 1729q5 35 27 54.5t58 19.5h600q36 0 53 -19.5t12 -54.5l-29 -206q115 149 292 234.5t405 85.5z" />
    <glyph glyph-name="ograve" unicode="&#xf2;" horiz-adv-x="2389" 
d="M1492 2063l-763 323q-35 14 -41.5 48.5t17.5 72.5l184 291q22 35 58 47t68 -7l683 -440q31 -19 39 -55t-12 -70l-105 -169q-21 -32 -56.5 -44t-71.5 3zM1334 1933q161 0 305 -35.5t264 -108t207 -174.5t135.5 -241.5t48.5 -303.5q0 -177 -47 -334t-131.5 -279.5
t-200.5 -220t-254 -161t-291.5 -97t-314.5 -33.5t-305.5 35.5t-264 108t-206.5 174.5t-135.5 241.5t-48.5 303.5q0 177 47 334t131.5 279.5t200.5 220t254 161t291.5 97t314.5 33.5zM1138 537q76 0 144.5 32t121.5 91t84.5 151t31.5 204q0 155 -75 241t-194 86
q-76 0 -144.5 -32t-121.5 -91t-84.5 -151t-31.5 -204q0 -155 75 -241t194 -86z" />
    <glyph glyph-name="oacute" unicode="&#xf3;" horiz-adv-x="2389" 
d="M1139 2063q-41 -15 -73 -3t-43 44l-59 169q-11 33 8 69.5t55 55.5l807 440q36 19 69 6.5t44 -46.5l103 -291q13 -39 -3 -73t-55 -48zM1334 1933q161 0 305 -35.5t264 -108t207 -174.5t135.5 -241.5t48.5 -303.5q0 -177 -47 -334t-131.5 -279.5t-200.5 -220t-254 -161
t-291.5 -97t-314.5 -33.5t-305.5 35.5t-264 108t-206.5 174.5t-135.5 241.5t-48.5 303.5q0 177 47 334t131.5 279.5t200.5 220t254 161t291.5 97t314.5 33.5zM1138 537q76 0 144.5 32t121.5 91t84.5 151t31.5 204q0 155 -75 241t-194 86q-76 0 -144.5 -32t-121.5 -91
t-84.5 -151t-31.5 -204q0 -155 75 -241t194 -86z" />
    <glyph glyph-name="ocircumflex" unicode="&#xf4;" horiz-adv-x="2389" 
d="M1503 2148l-109 211l-169 -211q-47 -59 -117 -59h-359q-59 0 -68.5 33t37.5 78l487 460q52 48 118 48h239q66 0 105 -48l357 -460q34 -45 15.5 -78t-77.5 -33h-359q-71 0 -100 59zM1334 1933q161 0 305 -35.5t264 -108t207 -174.5t135.5 -241.5t48.5 -303.5
q0 -177 -47 -334t-131.5 -279.5t-200.5 -220t-254 -161t-291.5 -97t-314.5 -33.5t-305.5 35.5t-264 108t-206.5 174.5t-135.5 241.5t-48.5 303.5q0 177 47 334t131.5 279.5t200.5 220t254 161t291.5 97t314.5 33.5zM1138 537q76 0 144.5 32t121.5 91t84.5 151t31.5 204
q0 155 -75 241t-194 86q-76 0 -144.5 -32t-121.5 -91t-84.5 -151t-31.5 -204q0 -155 75 -241t194 -86z" />
    <glyph glyph-name="otilde" unicode="&#xf5;" horiz-adv-x="2389" 
d="M707 2093q-43 0 -64 24.5t-11 69.5q57 258 208.5 398.5t340.5 140.5q84 0 149.5 -21.5t106 -52t75.5 -61.5t77 -52.5t91 -21.5q71 0 121 35t76 93q21 41 45.5 61t62.5 20h109q44 0 63 -38.5t1 -105.5q-64 -241 -210 -365t-328 -124q-84 0 -149.5 21.5t-106 52.5t-75 62
t-76.5 52.5t-91 21.5q-69 0 -120.5 -36.5t-77.5 -92.5q-21 -42 -45 -61.5t-63 -19.5h-109zM1334 1933q161 0 305 -35.5t264 -108t207 -174.5t135.5 -241.5t48.5 -303.5q0 -177 -47 -334t-131.5 -279.5t-200.5 -220t-254 -161t-291.5 -97t-314.5 -33.5t-305.5 35.5t-264 108
t-206.5 174.5t-135.5 241.5t-48.5 303.5q0 177 47 334t131.5 279.5t200.5 220t254 161t291.5 97t314.5 33.5zM1138 537q76 0 144.5 32t121.5 91t84.5 151t31.5 204q0 155 -75 241t-194 86q-76 0 -144.5 -32t-121.5 -91t-84.5 -151t-31.5 -204q0 -155 75 -241t194 -86z" />
    <glyph glyph-name="odieresis" unicode="&#xf6;" horiz-adv-x="2389" 
d="M908 2097q-123 0 -203.5 83t-80.5 206q0 148 113.5 256.5t262.5 108.5q123 0 204 -83.5t81 -205.5q0 -148 -114 -256.5t-263 -108.5zM1802 2097q-123 0 -203.5 83t-80.5 206q0 148 113.5 256.5t262.5 108.5q123 0 204 -83.5t81 -205.5q0 -148 -113.5 -256.5
t-263.5 -108.5zM1334 1933q161 0 305 -35.5t264 -108t207 -174.5t135.5 -241.5t48.5 -303.5q0 -177 -47 -334t-131.5 -279.5t-200.5 -220t-254 -161t-291.5 -97t-314.5 -33.5t-305.5 35.5t-264 108t-206.5 174.5t-135.5 241.5t-48.5 303.5q0 177 47 334t131.5 279.5
t200.5 220t254 161t291.5 97t314.5 33.5zM1138 537q76 0 144.5 32t121.5 91t84.5 151t31.5 204q0 155 -75 241t-194 86q-76 0 -144.5 -32t-121.5 -91t-84.5 -151t-31.5 -204q0 -155 75 -241t194 -86z" />
    <glyph glyph-name="divide" unicode="&#xf7;" horiz-adv-x="2195" 
d="M1994 1358q42 0 62 -23t14 -66l-45 -328q-6 -43 -33 -66.5t-69 -23.5h-619q8 -32 8 -65q0 -95 -57.5 -180t-148 -135t-185.5 -50q-100 0 -162 65.5t-62 164.5q0 105 72 200h-521q-42 0 -62.5 23.5t-14.5 66.5l46 328q6 43 32.5 66t69.5 23h494q-8 34 -8 66q0 95 57.5 180
t148 134.5t185.5 49.5q100 0 162.5 -65.5t62.5 -164.5q0 -105 -72 -200h645z" />
    <glyph glyph-name="oslash" unicode="&#xf8;" horiz-adv-x="2397" 
d="M2313 1819q53 -62 -18 -125l-146 -128q147 -209 147 -496q0 -177 -47 -334t-131.5 -279.5t-200.5 -220t-254 -161t-291.5 -97t-314.5 -33.5q-339 0 -584 152l-234 -205q-73 -64 -126 -1l-111 129q-54 62 19 125l210 184q-134 203 -134 479q0 177 47 334t131.5 279.5
t200.5 220t254 161t291.5 97t314.5 33.5q324 0 564 -140l176 155q72 62 125 0zM796 845v-20l632 554q-73 37 -165 37q-94 0 -176.5 -34t-148.5 -101t-104 -179t-38 -257zM1597 1033q0 16 -2 48l-650 -570q77 -48 185 -48q75 0 142.5 20.5t127 65.5t103.5 110.5t69 161.5
t25 212z" />
    <glyph glyph-name="ugrave" unicode="&#xf9;" horiz-adv-x="2328" 
d="M1462 2063l-763 323q-35 14 -41.5 48.5t17.5 72.5l184 291q22 35 58 47t68 -7l683 -440q31 -19 39 -55t-12 -70l-105 -169q-21 -32 -56.5 -44t-71.5 3zM2239 1878q36 0 52.5 -19.5t11.5 -54.5l-243 -1729q-4 -36 -26.5 -55.5t-58.5 -19.5h-600q-74 0 -65 75l29 205
q-115 -148 -292.5 -234t-404.5 -86q-633 0 -537 684l163 1160q5 35 27.5 54.5t57.5 19.5h601q36 0 52.5 -19.5t11.5 -54.5l-129 -915q-24 -173 23 -248t164 -75q135 0 233 98t123 275l121 865q5 35 27.5 54.5t58.5 19.5h600z" />
    <glyph glyph-name="uacute" unicode="&#xfa;" horiz-adv-x="2328" 
d="M1109 2063q-41 -15 -73 -3t-43 44l-59 169q-11 33 8 69.5t55 55.5l807 440q36 19 69 6.5t44 -46.5l103 -291q13 -39 -3 -73t-55 -48zM2239 1878q36 0 52.5 -19.5t11.5 -54.5l-243 -1729q-4 -36 -26.5 -55.5t-58.5 -19.5h-600q-74 0 -65 75l29 205q-115 -148 -292.5 -234
t-404.5 -86q-633 0 -537 684l163 1160q5 35 27.5 54.5t57.5 19.5h601q36 0 52.5 -19.5t11.5 -54.5l-129 -915q-24 -173 23 -248t164 -75q135 0 233 98t123 275l121 865q5 35 27.5 54.5t58.5 19.5h600z" />
    <glyph glyph-name="ucircumflex" unicode="&#xfb;" horiz-adv-x="2328" 
d="M1473 2148l-109 211l-169 -211q-47 -59 -117 -59h-359q-59 0 -68.5 33t37.5 78l487 460q52 48 118 48h239q66 0 105 -48l357 -460q34 -45 15.5 -78t-77.5 -33h-359q-71 0 -100 59zM2239 1878q36 0 52.5 -19.5t11.5 -54.5l-243 -1729q-4 -36 -26.5 -55.5t-58.5 -19.5h-600
q-74 0 -65 75l29 205q-115 -148 -292.5 -234t-404.5 -86q-633 0 -537 684l163 1160q5 35 27.5 54.5t57.5 19.5h601q36 0 52.5 -19.5t11.5 -54.5l-129 -915q-24 -173 23 -248t164 -75q135 0 233 98t123 275l121 865q5 35 27.5 54.5t58.5 19.5h600z" />
    <glyph glyph-name="udieresis" unicode="&#xfc;" horiz-adv-x="2328" 
d="M878 2097q-123 0 -203.5 83t-80.5 206q0 148 113.5 256.5t262.5 108.5q123 0 204 -83.5t81 -205.5q0 -148 -114 -256.5t-263 -108.5zM1772 2097q-123 0 -203.5 83t-80.5 206q0 148 113.5 256.5t262.5 108.5q123 0 204 -83.5t81 -205.5q0 -148 -113.5 -256.5
t-263.5 -108.5zM2239 1878q36 0 52.5 -19.5t11.5 -54.5l-243 -1729q-4 -36 -26.5 -55.5t-58.5 -19.5h-600q-74 0 -65 75l29 205q-115 -148 -292.5 -234t-404.5 -86q-633 0 -537 684l163 1160q5 35 27.5 54.5t57.5 19.5h601q36 0 52.5 -19.5t11.5 -54.5l-129 -915
q-24 -173 23 -248t164 -75q135 0 233 98t123 275l121 865q5 35 27.5 54.5t58.5 19.5h600z" />
    <glyph glyph-name="yacute" unicode="&#xfd;" horiz-adv-x="2269" 
d="M932 2104l-59 169q-11 33 8 69.5t55 55.5l807 440q36 19 69 6.5t44 -46.5l103 -291q13 -39 -3 -73t-55 -48l-853 -323q-41 -15 -73 -3t-43 44zM2285 1878q62 0 87 -47t-10 -105l-916 -1483q-109 -177 -203 -305t-198.5 -235.5t-209 -177t-231 -118t-269.5 -69t-319 -20.5
q-35 0 -54.5 21.5t-14.5 56.5l54 386q9 66 79 74q122 15 210.5 54t179 124.5t201.5 238.5l-542 1453q-21 57 18 104.5t103 47.5h631q51 0 68 -52l232 -732l422 732q29 52 84 52h598z" />
    <glyph glyph-name="thorn" unicode="&#xfe;" horiz-adv-x="2384" 
d="M1546 1933q233 0 403 -106.5t256.5 -292.5t86.5 -430q0 -194 -47.5 -371t-137.5 -319.5t-214 -248t-284.5 -163t-341.5 -57.5q-334 0 -474 258l-114 -810q-11 -75 -85 -75h-601q-35 0 -52 19.5t-12 55.5l435 3092q4 36 26.5 55.5t58.5 19.5h600q74 0 65 -75l-114 -809
q212 257 546 257zM1296 710q91 63 118 173t-21 260q-43 64 -100 87.5t-112 6.5t-99 -68q-92 -61 -120 -172t23 -262q40 -64 97 -89t114 -7.5t100 71.5z" />
    <glyph glyph-name="ydieresis" unicode="&#xff;" horiz-adv-x="2269" 
d="M817 2097q-123 0 -203.5 83t-80.5 206q0 148 113.5 256.5t262.5 108.5q123 0 204 -83.5t81 -205.5q0 -148 -114 -256.5t-263 -108.5zM1711 2097q-123 0 -203.5 83t-80.5 206q0 148 113.5 256.5t262.5 108.5q123 0 204 -83.5t81 -205.5q0 -148 -113.5 -256.5
t-263.5 -108.5zM2285 1878q62 0 87 -47t-10 -105l-916 -1483q-109 -177 -203 -305t-198.5 -235.5t-209 -177t-231 -118t-269.5 -69t-319 -20.5q-35 0 -54.5 21.5t-14.5 56.5l54 386q9 66 79 74q122 15 210.5 54t179 124.5t201.5 238.5l-542 1453q-21 57 18 104.5t103 47.5
h631q51 0 68 -52l232 -732l422 732q29 52 84 52h598z" />
    <glyph glyph-name="Amacron" unicode="&#x100;" horiz-adv-x="2798" 
d="M1069 2726q-37 0 -59.5 26t-17.5 64l34 245q5 37 35 63t67 26h1199q38 0 60 -26t17 -63l-35 -245q-5 -38 -35 -64t-67 -26h-1198zM2661 105q13 -48 -10 -76.5t-72 -28.5h-668q-75 0 -90 71l-80 331h-871l-169 -331q-35 -71 -112 -71h-632q-50 0 -65 28t11 77l1279 2278
q37 67 112 67h638q76 0 94 -67zM1123 900h499l-160 665z" />
    <glyph glyph-name="amacron" unicode="&#x101;" horiz-adv-x="2375" 
d="M822 2164q-37 0 -59.5 26t-17.5 64l34 245q5 37 35 63t67 26h1199q38 0 60 -26t17 -63l-35 -245q-5 -38 -35 -64t-67 -26h-1198zM2340 1804l-163 -1160q-15 -106 -15.5 -190.5t6.5 -137.5t25 -142q18 -92 -73 -117l-450 -114q-71 -18 -107 26q-53 61 -91.5 144t-50.5 166
q-226 -334 -603 -334q-233 0 -403 106.5t-256 292.5t-86 431q0 243 74.5 456t207 368t325 244.5t417.5 89.5q334 0 475 -258l18 129q5 35 27 54.5t58 19.5h600q36 0 53 -19.5t12 -54.5zM1118 537q162 0 272 129.5t110 347.5q0 155 -73.5 241.5t-194.5 86.5q-76 0 -144.5 -32
t-121.5 -91t-84 -151t-31 -204q0 -155 74 -241t193 -86z" />
    <glyph glyph-name="Abreve" unicode="&#x102;" horiz-adv-x="2798" 
d="M1652 2611q-182 0 -325 73.5t-219.5 196.5t-76.5 271q0 82 23 120t78 38h227q86 0 94 -72q12 -116 76.5 -167t179.5 -51q117 0 195.5 51t123.5 170q28 69 113 69h226q76 0 76 -68q0 -116 -62.5 -230t-167.5 -202.5t-253 -143.5t-308 -55zM2661 105q13 -48 -10 -76.5
t-72 -28.5h-668q-75 0 -90 71l-80 331h-871l-169 -331q-35 -71 -112 -71h-632q-50 0 -65 28t11 77l1279 2278q37 67 112 67h638q76 0 94 -67zM1123 900h499l-160 665z" />
    <glyph glyph-name="abreve" unicode="&#x103;" horiz-adv-x="2375" 
d="M1405 2049q-182 0 -325 73.5t-219.5 196.5t-76.5 271q0 82 23 120t78 38h227q86 0 94 -72q12 -116 76.5 -167t179.5 -51q117 0 195.5 51t123.5 170q28 69 113 69h226q76 0 76 -68q0 -116 -62.5 -230t-167.5 -202.5t-253 -143.5t-308 -55zM2340 1804l-163 -1160
q-15 -106 -15.5 -190.5t6.5 -137.5t25 -142q18 -92 -73 -117l-450 -114q-71 -18 -107 26q-53 61 -91.5 144t-50.5 166q-226 -334 -603 -334q-233 0 -403 106.5t-256 292.5t-86 431q0 243 74.5 456t207 368t325 244.5t417.5 89.5q334 0 475 -258l18 129q5 35 27 54.5t58 19.5
h600q36 0 53 -19.5t12 -54.5zM1118 537q162 0 272 129.5t110 347.5q0 155 -73.5 241.5t-194.5 86.5q-76 0 -144.5 -32t-121.5 -91t-84 -151t-31 -204q0 -155 74 -241t193 -86z" />
    <glyph glyph-name="Aogonek" unicode="&#x104;" horiz-adv-x="2798" 
d="M2661 105q13 -48 -10 -76.5t-72 -28.5h-365q-94 -67 -155 -152.5t-61 -165.5q0 -53 31.5 -81.5t92.5 -28.5q41 0 89 12q41 9 60 -7t14 -56l-32 -227q-9 -63 -74 -90q-130 -54 -297 -54q-186 0 -303 100.5t-117 261.5q0 165 97 313.5t261 248.5l-79 328h-871l-169 -331
q-35 -71 -112 -71h-632q-50 0 -65 28t11 77l1279 2278q37 67 112 67h638q76 0 94 -67zM1123 900h499l-160 665z" />
    <glyph glyph-name="aogonek" unicode="&#x105;" horiz-adv-x="2375" 
d="M2340 1804l-163 -1160q-15 -105 -15.5 -190.5t7 -137.5t25.5 -142q3 -14 2.5 -25.5t-2 -20t-7.5 -17.5t-10.5 -14.5t-16 -13.5t-17.5 -12t-21 -13q-294 -178 -323 -380q-17 -132 120 -132q34 0 89 12q41 9 60.5 -7.5t13.5 -55.5l-32 -226q-9 -65 -74 -91
q-136 -54 -297 -54q-203 0 -320.5 117t-92.5 300q35 250 284 446q-111 141 -130 291q-225 -333 -602 -333q-233 0 -403 106.5t-256 292.5t-86 431q0 243 74.5 456t207 368t325 244.5t417.5 89.5q334 0 475 -258l18 129q5 35 27 54.5t58 19.5h600q36 0 53 -19.5t12 -54.5z
M1118 537q162 0 272 129.5t110 347.5q0 155 -73.5 241.5t-194.5 86.5q-76 0 -144.5 -32t-121.5 -91t-84 -151t-31 -204q0 -155 74 -241t193 -86z" />
    <glyph glyph-name="Cacute" unicode="&#x106;" horiz-adv-x="2727" 
d="M1530 2625q-41 -15 -73 -3t-43 44l-59 169q-11 33 8 69.5t55 55.5l807 440q36 19 69 6.5t44 -46.5l103 -291q13 -39 -3 -73t-55 -48zM2535 679q36 -18 42.5 -49.5t-19.5 -73.5q-103 -155 -242.5 -274t-295.5 -191.5t-320.5 -109t-332.5 -36.5q-207 0 -392 48.5t-335 144
t-259 228.5t-168.5 310t-59.5 381q0 217 59 414t164 353.5t251.5 283.5t320.5 211.5t371.5 130t404.5 45.5q168 0 322.5 -36.5t290.5 -109t242.5 -191.5t165.5 -274q15 -40 -0.5 -72.5t-56.5 -50.5l-509 -226q-79 -35 -116 41q-60 135 -171.5 209t-256.5 74q-140 0 -262 -56
t-209 -154t-136.5 -235.5t-49.5 -294.5q0 -242 128.5 -390t349.5 -148q144 0 275.5 74t231.5 209q59 76 128 41z" />
    <glyph glyph-name="cacute" unicode="&#x107;" horiz-adv-x="2140" 
d="M1112 2063q-41 -15 -73 -3t-43 44l-59 169q-11 33 8 69.5t55 55.5l807 440q36 19 69 6.5t44 -46.5l103 -291q13 -39 -3 -73t-55 -48zM1934 512q41 -22 45.5 -52t-22.5 -70q-33 -53 -87 -109.5t-140 -117.5t-187.5 -108.5t-237.5 -78.5t-281 -31q-192 0 -360 57.5
t-295 164t-200.5 272t-73.5 369.5q0 211 67 394t183 315.5t269.5 227.5t329 141.5t359.5 46.5q145 0 272 -31t215 -78t157 -108.5t107 -118t57 -109.5q16 -40 3 -70t-59 -51l-448 -206q-25 -12 -43.5 -13.5t-32 7t-21.5 18t-19 28.5q-17 31 -34.5 53t-44.5 44t-65 33t-87 11
q-182 0 -286.5 -129t-104.5 -357q0 -154 73.5 -236.5t207.5 -82.5q92 0 152 37t115 103q16 19 27 29t26.5 18.5t33.5 6.5t40 -14z" />
    <glyph glyph-name="Cdotaccent" unicode="&#x10a;" horiz-adv-x="2727" 
d="M1740 2600q-146 0 -242 99t-96 244q0 175 135 304t311 129q146 0 242 -99.5t96 -244.5q0 -115 -62.5 -215t-165.5 -158.5t-218 -58.5zM2535 679q36 -18 42.5 -49.5t-19.5 -73.5q-103 -155 -242.5 -274t-295.5 -191.5t-320.5 -109t-332.5 -36.5q-207 0 -392 48.5t-335 144
t-259 228.5t-168.5 310t-59.5 381q0 217 59 414t164 353.5t251.5 283.5t320.5 211.5t371.5 130t404.5 45.5q168 0 322.5 -36.5t290.5 -109t242.5 -191.5t165.5 -274q15 -40 -0.5 -72.5t-56.5 -50.5l-509 -226q-79 -35 -116 41q-60 135 -171.5 209t-256.5 74q-140 0 -262 -56
t-209 -154t-136.5 -235.5t-49.5 -294.5q0 -242 128.5 -390t349.5 -148q144 0 275.5 74t231.5 209q59 76 128 41z" />
    <glyph glyph-name="cdotaccent" unicode="&#x10b;" horiz-adv-x="2140" 
d="M1322 2038q-146 0 -242 99t-96 244q0 175 135 304t311 129q146 0 242 -99.5t96 -244.5q0 -115 -62.5 -215t-165.5 -158.5t-218 -58.5zM1934 512q41 -22 45.5 -52t-22.5 -70q-33 -53 -87 -109.5t-140 -117.5t-187.5 -108.5t-237.5 -78.5t-281 -31q-192 0 -360 57.5
t-295 164t-200.5 272t-73.5 369.5q0 211 67 394t183 315.5t269.5 227.5t329 141.5t359.5 46.5q145 0 272 -31t215 -78t157 -108.5t107 -118t57 -109.5q16 -40 3 -70t-59 -51l-448 -206q-25 -12 -43.5 -13.5t-32 7t-21.5 18t-19 28.5q-17 31 -34.5 53t-44.5 44t-65 33t-87 11
q-182 0 -286.5 -129t-104.5 -357q0 -154 73.5 -236.5t207.5 -82.5q92 0 152 37t115 103q16 19 27 29t26.5 18.5t33.5 6.5t40 -14z" />
    <glyph glyph-name="Ccaron" unicode="&#x10c;" horiz-adv-x="2727" 
d="M1965 3210q47 60 116 60h359q59 0 68.5 -33.5t-37.5 -77.5l-487 -461q-51 -47 -117 -47h-240q-67 0 -104 47l-358 461q-34 44 -15 77.5t78 33.5h359q71 0 100 -60l109 -210zM2535 679q36 -18 42.5 -49.5t-19.5 -73.5q-103 -155 -242.5 -274t-295.5 -191.5t-320.5 -109
t-332.5 -36.5q-207 0 -392 48.5t-335 144t-259 228.5t-168.5 310t-59.5 381q0 217 59 414t164 353.5t251.5 283.5t320.5 211.5t371.5 130t404.5 45.5q168 0 322.5 -36.5t290.5 -109t242.5 -191.5t165.5 -274q15 -40 -0.5 -72.5t-56.5 -50.5l-509 -226q-79 -35 -116 41
q-60 135 -171.5 209t-256.5 74q-140 0 -262 -56t-209 -154t-136.5 -235.5t-49.5 -294.5q0 -242 128.5 -390t349.5 -148q144 0 275.5 74t231.5 209q59 76 128 41z" />
    <glyph glyph-name="ccaron" unicode="&#x10d;" horiz-adv-x="2140" 
d="M1547 2648q47 60 116 60h359q59 0 68.5 -33.5t-37.5 -77.5l-487 -461q-51 -47 -117 -47h-240q-67 0 -104 47l-358 461q-34 44 -15 77.5t78 33.5h359q71 0 100 -60l109 -210zM1934 512q41 -22 45.5 -52t-22.5 -70q-33 -53 -87 -109.5t-140 -117.5t-187.5 -108.5
t-237.5 -78.5t-281 -31q-192 0 -360 57.5t-295 164t-200.5 272t-73.5 369.5q0 211 67 394t183 315.5t269.5 227.5t329 141.5t359.5 46.5q145 0 272 -31t215 -78t157 -108.5t107 -118t57 -109.5q16 -40 3 -70t-59 -51l-448 -206q-25 -12 -43.5 -13.5t-32 7t-21.5 18t-19 28.5
q-17 31 -34.5 53t-44.5 44t-65 33t-87 11q-182 0 -286.5 -129t-104.5 -357q0 -154 73.5 -236.5t207.5 -82.5q92 0 152 37t115 103q16 19 27 29t26.5 18.5t33.5 6.5t40 -14z" />
    <glyph glyph-name="Dcaron" unicode="&#x10e;" horiz-adv-x="2790" 
d="M1305 2698l-358 461q-34 44 -15 77.5t78 33.5h359q71 0 100 -60l109 -210l169 210q47 60 116 60h359q59 0 68.5 -33.5t-37.5 -77.5l-487 -461q-51 -47 -117 -47h-240q-67 0 -104 47zM1510 2440q207 0 390 -45t332.5 -134.5t257.5 -215.5t167 -296.5t59 -369.5
q0 -214 -57.5 -405t-161 -341t-247 -270.5t-315.5 -199.5t-367 -121t-401 -42h-780h-298q-31 0 -50 22t-15 53l323 2290q4 31 29 53t56 22h635h443zM1212 606q145 0 270 51t215.5 142.5t142 224.5t51.5 290q0 239 -136.5 379.5t-369.5 140.5h-329l-172 -1228h328z" />
    <glyph glyph-name="dcaron" unicode="&#x10f;" horiz-adv-x="3087" 
d="M2960 2620q74 0 136.5 -30.5t104.5 -100t42 -167.5q0 -106 -50.5 -227t-133.5 -230t-192.5 -203t-225.5 -150q-22 -10 -40.5 -6t-28.5 19l-40 54q-14 18 -10 42.5t26 45.5q6 5 38.5 34t43 38.5t34.5 36t33 44.5t18 45.5t9 54.5q0 40 -17.5 68.5t-50.5 60.5
q-76 77 -76 197q0 102 53.5 188.5t140.5 136t186 49.5zM2391 2560q36 0 52.5 -19.5t11.5 -55.5l-339 -2410q-4 -36 -26.5 -55.5t-58.5 -19.5h-600q-74 0 -65 75l19 128q-213 -258 -547 -258q-233 0 -403 106.5t-256 292.5t-86 431q0 243 74.5 456t207 368t325 244.5
t417.5 89.5q334 0 474 -258l114 810q5 36 27.5 55.5t57.5 19.5h601zM1138 537q162 0 272 129.5t110 347.5q0 155 -73.5 241.5t-194.5 86.5q-76 0 -144.5 -32t-121.5 -91t-84 -151t-31 -204q0 -155 74 -241t193 -86z" />
    <glyph glyph-name="Dcroat" unicode="&#x110;" horiz-adv-x="2790" 
d="M1510 2440q207 0 390 -45t332.5 -134.5t257.5 -215.5t167 -296.5t59 -369.5q0 -214 -57.5 -405t-161 -341t-247 -270.5t-315.5 -199.5t-367 -121t-401 -42h-780h-298q-31 0 -50 22t-15 53l128 905h-199q-43 0 -63 23.5t-14 65.5l38 269q6 43 32.5 66.5t69.5 23.5h199
l132 937q4 31 29 53t56 22h635h443zM1212 606q145 0 270 51t215.5 142.5t142 224.5t51.5 290q0 239 -136.5 379.5t-369.5 140.5h-329l-57 -406h388q42 0 62.5 -23.5t14.5 -66.5l-38 -269q-6 -42 -32.5 -65.5t-69.5 -23.5h-388l-52 -374h328z" />
    <glyph glyph-name="dcroat" unicode="&#x111;" horiz-adv-x="2552" 
d="M2652 2318q42 0 62 -23.5t14 -66.5l-14 -100q-6 -43 -32.5 -66.5t-69.5 -23.5h-220l-276 -1963q-4 -36 -26.5 -55.5t-58.5 -19.5h-600q-74 0 -65 75l19 128q-213 -258 -547 -258q-233 0 -403 106.5t-256 292.5t-86 431q0 243 74.5 456t207 368t325 244.5t417.5 89.5
q334 0 474 -258l51 363h-359q-43 0 -63 23.5t-14 66.5l14 100q6 43 33 66.5t69 23.5h360l23 167q5 36 27.5 55.5t57.5 19.5h601q36 0 52.5 -19.5t11.5 -55.5l-23 -167h220zM1138 537q162 0 272 129.5t110 347.5q0 155 -73.5 241.5t-194.5 86.5q-76 0 -144.5 -32t-121.5 -91
t-84 -151t-31 -204q0 -155 74 -241t193 -86z" />
    <glyph glyph-name="Emacron" unicode="&#x112;" horiz-adv-x="2324" 
d="M860 2726q-37 0 -59.5 26t-17.5 64l34 245q5 37 35 63t67 26h1199q38 0 60 -26t17 -63l-35 -245q-5 -38 -35 -64t-67 -26h-1198zM2314 2440q74 0 65 -75l-65 -457q-4 -35 -27 -54.5t-59 -19.5h-1172l-45 -325h1012q35 0 52 -19.5t12 -55.5l-56 -398q-11 -74 -85 -74
h-1012l-50 -356h1212q36 0 52.5 -19.5t11.5 -54.5l-64 -457q-11 -75 -85 -75h-1503h-419q-31 0 -50 22t-15 53l323 2290q4 31 29 53t56 22h635h1247z" />
    <glyph glyph-name="emacron" unicode="&#x113;" horiz-adv-x="2273" 
d="M705 2164q-37 0 -59.5 26t-17.5 64l34 245q5 37 35 63t67 26h1199q38 0 60 -26t17 -63l-35 -245q-5 -38 -35 -64t-67 -26h-1198zM1313 1933q165 0 305.5 -39.5t256.5 -122t188.5 -210.5t101.5 -305t-5 -406h-1361q4 -94 32.5 -165.5t74 -112t99 -60.5t112.5 -20
q110 0 189.5 34.5t138.5 108.5q34 41 59 50t68 -10l360 -189q42 -22 45.5 -53.5t-22.5 -68.5q-71 -111 -208.5 -205.5t-330.5 -154t-396 -59.5q-200 0 -369 56.5t-293 163t-194 269.5t-70 365q0 214 65 398t179 317.5t267.5 229t333.5 142.5t374 47zM1233 1450
q-119 0 -218.5 -68t-155.5 -193h631q-16 135 -84.5 198t-172.5 63z" />
    <glyph glyph-name="Edotaccent" unicode="&#x116;" horiz-adv-x="2324" 
d="M1442 2600q-146 0 -242 99t-96 244q0 175 135 304t311 129q146 0 242 -99.5t96 -244.5q0 -115 -62.5 -215t-165.5 -158.5t-218 -58.5zM2314 2440q74 0 65 -75l-65 -457q-4 -35 -27 -54.5t-59 -19.5h-1172l-45 -325h1012q35 0 52 -19.5t12 -55.5l-56 -398q-11 -74 -85 -74
h-1012l-50 -356h1212q36 0 52.5 -19.5t11.5 -54.5l-64 -457q-11 -75 -85 -75h-1503h-419q-31 0 -50 22t-15 53l323 2290q4 31 29 53t56 22h635h1247z" />
    <glyph glyph-name="edotaccent" unicode="&#x117;" horiz-adv-x="2273" 
d="M1287 2038q-146 0 -242 99t-96 244q0 175 135 304t311 129q146 0 242 -99.5t96 -244.5q0 -115 -62.5 -215t-165.5 -158.5t-218 -58.5zM1313 1933q165 0 305.5 -39.5t256.5 -122t188.5 -210.5t101.5 -305t-5 -406h-1361q4 -94 32.5 -165.5t74 -112t99 -60.5t112.5 -20
q110 0 189.5 34.5t138.5 108.5q34 41 59 50t68 -10l360 -189q42 -22 45.5 -53.5t-22.5 -68.5q-71 -111 -208.5 -205.5t-330.5 -154t-396 -59.5q-200 0 -369 56.5t-293 163t-194 269.5t-70 365q0 214 65 398t179 317.5t267.5 229t333.5 142.5t374 47zM1233 1450
q-119 0 -218.5 -68t-155.5 -193h631q-16 135 -84.5 198t-172.5 63z" />
    <glyph glyph-name="Eogonek" unicode="&#x118;" horiz-adv-x="2324" 
d="M2314 2440q74 0 65 -75l-65 -457q-4 -35 -27 -54.5t-59 -19.5h-1172l-45 -325h1012q35 0 52 -19.5t12 -55.5l-56 -398q-11 -74 -85 -74h-1012l-50 -356h1212q36 0 52.5 -19.5t11.5 -54.5l-64 -457q-11 -75 -85 -75h-110q-111 -65 -187 -161t-76 -187q0 -53 31.5 -81.5
t92.5 -28.5q41 0 89 12q41 9 60 -7t14 -56l-32 -227q-9 -63 -74 -90q-130 -54 -297 -54q-186 0 -303 100.5t-117 261.5q0 148 78.5 283t214.5 235h-887h-419q-31 0 -50 22t-15 53l323 2290q4 31 29 53t56 22h635h1247z" />
    <glyph glyph-name="eogonek" unicode="&#x119;" horiz-adv-x="2273" 
d="M1313 1933q165 0 305.5 -39.5t256.5 -122t188.5 -210.5t101.5 -305t-5 -406h-1361q4 -94 32.5 -165.5t74 -112t99 -60.5t112.5 -20q110 0 189.5 34.5t138.5 108.5q34 41 59 50t68 -10l360 -189q42 -22 45.5 -53.5t-22.5 -68.5q-59 -93 -169 -176t-254 -142
q-131 -105 -178.5 -191t-47.5 -181q0 -63 39 -97.5t109 -34.5q40 0 87 12q40 9 61.5 -7t21.5 -56v-227q0 -63 -61 -90q-124 -54 -290 -54q-205 0 -342.5 115.5t-137.5 296.5q0 235 173 414q-190 8 -349 68t-276 166t-182 265t-65 354q0 214 65 398t179 317.5t267.5 229
t333.5 142.5t374 47zM1233 1450q-119 0 -218.5 -68t-155.5 -193h631q-16 135 -84.5 198t-172.5 63z" />
    <glyph glyph-name="Ecaron" unicode="&#x11a;" horiz-adv-x="2324" 
d="M1225 2698l-358 461q-34 44 -15 77.5t78 33.5h359q71 0 100 -60l109 -210l169 210q47 60 116 60h359q59 0 68.5 -33.5t-37.5 -77.5l-487 -461q-51 -47 -117 -47h-240q-67 0 -104 47zM2314 2440q74 0 65 -75l-65 -457q-4 -35 -27 -54.5t-59 -19.5h-1172l-45 -325h1012
q35 0 52 -19.5t12 -55.5l-56 -398q-11 -74 -85 -74h-1012l-50 -356h1212q36 0 52.5 -19.5t11.5 -54.5l-64 -457q-11 -75 -85 -75h-1503h-419q-31 0 -50 22t-15 53l323 2290q4 31 29 53t56 22h635h1247z" />
    <glyph glyph-name="ecaron" unicode="&#x11b;" horiz-adv-x="2273" 
d="M1070 2136l-358 461q-34 44 -15 77.5t78 33.5h359q71 0 100 -60l109 -210l169 210q46 60 116 60h359q59 0 68.5 -33.5t-37.5 -77.5l-487 -461q-51 -47 -117 -47h-240q-67 0 -104 47zM1313 1933q165 0 305.5 -39.5t256.5 -122t188.5 -210.5t101.5 -305t-5 -406h-1361
q4 -94 32.5 -165.5t74 -112t99 -60.5t112.5 -20q110 0 189.5 34.5t138.5 108.5q34 41 59 50t68 -10l360 -189q42 -22 45.5 -53.5t-22.5 -68.5q-71 -111 -208.5 -205.5t-330.5 -154t-396 -59.5q-200 0 -369 56.5t-293 163t-194 269.5t-70 365q0 214 65 398t179 317.5
t267.5 229t333.5 142.5t374 47zM1233 1450q-119 0 -218.5 -68t-155.5 -193h631q-16 135 -84.5 198t-172.5 63z" />
    <glyph glyph-name="Gbreve" unicode="&#x11e;" horiz-adv-x="2790" 
d="M1715 2611q-182 0 -325 73.5t-219.5 196.5t-76.5 271q0 82 23 120t78 38h227q86 0 94 -72q12 -116 76.5 -167t179.5 -51q117 0 195.5 51t123.5 170q28 69 113 69h226q76 0 76 -68q0 -116 -62.5 -230t-167.5 -202.5t-253 -143.5t-308 -55zM2742 1920q17 -39 0.5 -71.5
t-57.5 -51.5l-508 -226q-77 -34 -117 40q-139 248 -425 248q-140 0 -262 -56t-209 -154t-136.5 -235.5t-49.5 -294.5q0 -242 128.5 -390t349.5 -148q236 0 432 70l53 384q6 43 33 66t69 23h529q97 0 85 -89l-107 -758q-226 -147 -532 -239.5t-651 -92.5q-207 0 -392 48.5
t-335 144t-259 228.5t-168.5 310t-59.5 381q0 217 59 414t164 353.5t251.5 283.5t320.5 211.5t371.5 130t404.5 45.5q132 0 254.5 -20t239 -64.5t213.5 -110.5t177.5 -163t133.5 -217z" />
    <glyph glyph-name="gbreve" unicode="&#x11f;" horiz-adv-x="2310" 
d="M1313 2049q-182 0 -325 73.5t-219.5 196.5t-76.5 271q0 82 23 120t78 38h227q86 0 94 -72q12 -116 76.5 -167t179.5 -51q117 0 195.5 51t123.5 170q28 69 113 69h226q76 0 76 -68q0 -116 -62.5 -230t-167.5 -202.5t-253 -143.5t-308 -55zM2341 2062q61 0 54 -56l-62 -440
q-8 -53 -60 -53q-111 0 -192 -63q4 -27 4 -75q0 -139 -73 -263t-201.5 -214.5t-314.5 -143.5t-402 -53h-269q-164 0 -164 -108q0 -84 138 -84h485q377 0 580 -140t203 -383q0 -111 -35.5 -210.5t-118 -190.5t-206 -156.5t-311 -104t-421.5 -38.5q-458 0 -693.5 131.5
t-235.5 355.5q0 209 201 356q-92 50 -143 136t-51 192q0 150 95.5 270t270.5 189q-70 67 -107 156.5t-37 187.5q0 139 73 262.5t201.5 214t315 143.5t402.5 53q328 0 542 -125q105 124 242.5 189t289.5 65zM1154 1131q117 0 196.5 56.5t79.5 149.5q0 76 -62 121t-162 45
q-116 0 -195 -56.5t-79 -149.5q0 -76 61.5 -121t160.5 -45zM1076 20q-180 0 -273 -45t-93 -126q0 -143 322 -143q365 0 365 172q0 68 -81 105t-240 37z" />
    <glyph glyph-name="Gdotaccent" unicode="&#x120;" horiz-adv-x="2790" 
d="M1714 2600q-146 0 -242 99t-96 244q0 175 135 304t311 129q146 0 242 -99.5t96 -244.5q0 -115 -62.5 -215t-165.5 -158.5t-218 -58.5zM2572 1124q97 0 85 -89l-107 -758q-226 -147 -532 -239.5t-651 -92.5q-207 0 -392 48.5t-335 144t-259 228.5t-168.5 310t-59.5 381
q0 217 59 414t164 353.5t251.5 283.5t320.5 211.5t371.5 130t404.5 45.5q132 0 254.5 -20t239 -64.5t213.5 -110.5t177.5 -163t133.5 -217q17 -39 0.5 -71.5t-57.5 -51.5l-508 -226q-77 -34 -117 40q-139 248 -425 248q-140 0 -262 -56t-209 -154t-136.5 -235.5
t-49.5 -294.5q0 -242 128.5 -390t349.5 -148q236 0 432 70l53 384q6 43 33 66t69 23h529z" />
    <glyph glyph-name="gdotaccent" unicode="&#x121;" horiz-adv-x="2310" 
d="M1312 2038q-146 0 -242 99t-96 244q0 175 135 304t311 129q146 0 242 -99.5t96 -244.5q0 -115 -62.5 -215t-165.5 -158.5t-218 -58.5zM2341 2062q61 0 54 -56l-62 -440q-8 -53 -60 -53q-111 0 -192 -63q4 -27 4 -75q0 -139 -73 -263t-201.5 -214.5t-314.5 -143.5
t-402 -53h-269q-164 0 -164 -108q0 -84 138 -84h485q377 0 580 -140t203 -383q0 -111 -35.5 -210.5t-118 -190.5t-206 -156.5t-311 -104t-421.5 -38.5q-458 0 -693.5 131.5t-235.5 355.5q0 209 201 356q-92 50 -143 136t-51 192q0 150 95.5 270t270.5 189q-70 67 -107 156.5
t-37 187.5q0 139 73 262.5t201.5 214t315 143.5t402.5 53q328 0 542 -125q105 124 242.5 189t289.5 65zM1154 1131q117 0 196.5 56.5t79.5 149.5q0 76 -62 121t-162 45q-116 0 -195 -56.5t-79 -149.5q0 -76 61.5 -121t160.5 -45zM1397 -122q0 68 -81 105t-240 37
q-180 0 -273 -45t-93 -126q0 -143 322 -143q365 0 365 172z" />
    <glyph glyph-name="Gcommaaccent" unicode="&#x122;" horiz-adv-x="2790" 
d="M2572 1124q97 0 85 -89l-107 -758q-226 -147 -532 -239.5t-651 -92.5q-207 0 -392 48.5t-335 144t-259 228.5t-168.5 310t-59.5 381q0 217 59 414t164 353.5t251.5 283.5t320.5 211.5t371.5 130t404.5 45.5q132 0 254.5 -20t239 -64.5t213.5 -110.5t177.5 -163
t133.5 -217q17 -39 0.5 -71.5t-57.5 -51.5l-508 -226q-77 -34 -117 40q-139 248 -425 248q-140 0 -262 -56t-209 -154t-136.5 -235.5t-49.5 -294.5q0 -242 128.5 -390t349.5 -148q236 0 432 70l53 384q6 43 33 66t69 23h529zM1260 -232q54 0 103.5 -18t90 -52.5t64.5 -93
t24 -132.5q0 -139 -85 -300t-222.5 -296t-290.5 -210q-21 -9 -40 -4.5t-31 19.5l-38 52q-14 18 -9.5 42.5t25.5 44.5q6 5 33.5 29t36.5 33t31.5 31t31 36.5t21.5 36t17.5 43t4.5 45.5q0 40 -17 68.5t-50 60.5q-75 75 -75 195q0 100 52.5 186t138.5 135t184 49z" />
    <glyph glyph-name="gcommaaccent" unicode="&#x123;" horiz-adv-x="2310" 
d="M1315 2039q-54 0 -103.5 18t-90 52.5t-64.5 93t-24 132.5q0 139 85 300t222.5 296t290.5 210q21 9 40 4.5t31 -19.5l38 -52q14 -18 9.5 -42.5t-25.5 -44.5q-6 -5 -33.5 -29t-36.5 -33t-31.5 -31t-31 -36.5t-21.5 -36t-17.5 -43t-4.5 -45.5q0 -40 17 -68.5t50 -60.5
q75 -75 75 -195q0 -100 -52.5 -186t-138.5 -135t-184 -49zM2341 2062q61 0 54 -56l-62 -440q-8 -53 -60 -53q-111 0 -192 -63q4 -27 4 -75q0 -139 -73 -263t-201.5 -214.5t-314.5 -143.5t-402 -53h-269q-164 0 -164 -108q0 -84 138 -84h485q377 0 580 -140t203 -383
q0 -111 -35.5 -210.5t-118 -190.5t-206 -156.5t-311 -104t-421.5 -38.5q-458 0 -693.5 131.5t-235.5 355.5q0 209 201 356q-92 50 -143 136t-51 192q0 150 95.5 270t270.5 189q-70 67 -107 156.5t-37 187.5q0 139 73 262.5t201.5 214t315 143.5t402.5 53q328 0 542 -125
q105 124 242.5 189t289.5 65zM1154 1131q117 0 196.5 56.5t79.5 149.5q0 76 -62 121t-162 45q-116 0 -195 -56.5t-79 -149.5q0 -76 61.5 -121t160.5 -45zM1397 -122q0 68 -81 105t-240 37q-180 0 -273 -45t-93 -126q0 -143 322 -143q365 0 365 172z" />
    <glyph glyph-name="Hbar" unicode="&#x126;" horiz-adv-x="2908" 
d="M3054 2193q42 0 62.5 -23.5t14.5 -65.5l-30 -210q-6 -43 -32.5 -66.5t-69.5 -23.5h-155l-244 -1729q-4 -31 -29 -53t-56 -22h-635q-31 0 -50 22t-14 53l121 857h-967l-121 -857q-5 -31 -29.5 -53t-55.5 -22h-635q-31 0 -50 22t-15 53l244 1729h-156q-43 0 -63 23.5
t-14 66.5l29 210q6 42 33 65.5t70 23.5h156l24 172q4 31 29 53t56 22h635q31 0 50 -22t14 -53l-24 -172h967l24 172q4 31 29 53t56 22h635q31 0 50 -22t15 -53l-24 -172h155zM2022 1538l37 266h-967l-37 -266h967z" />
    <glyph glyph-name="hbar" unicode="&#x127;" horiz-adv-x="2514" 
d="M1872 1918q633 0 537 -684l-163 -1159q-5 -36 -27.5 -55.5t-57.5 -19.5h-601q-36 0 -52.5 19.5t-11.5 55.5l129 915q24 172 -23 247t-164 75q-136 0 -233.5 -98t-122.5 -275l-122 -864q-4 -36 -26.5 -55.5t-58.5 -19.5h-600q-74 0 -65 75l277 1963h-237q-43 0 -63 23.5
t-14 66.5l14 100q6 43 32.5 66.5t69.5 23.5h237l24 167q4 36 26.5 55.5t58.5 19.5h600q36 0 53 -19.5t12 -55.5l-24 -167h342q43 0 63 -23.5t14 -66.5l-14 -100q-6 -43 -32.5 -66.5t-69.5 -23.5h-342l-62 -440q115 149 292 234.5t405 85.5z" />
    <glyph glyph-name="Imacron" unicode="&#x12a;" horiz-adv-x="1077" 
d="M148 3061q5 37 35 63t67 26h1199q38 0 60 -26t17 -63l-35 -245q-5 -38 -35 -64t-67 -26h-1198q-37 0 -59.5 26t-17.5 64zM347 2365q4 31 29 53t56 22h635q31 0 50 -22t14 -53l-322 -2290q-5 -31 -29.5 -53t-55.5 -22h-635q-31 0 -50 22t-15 53z" />
    <glyph glyph-name="imacron" unicode="&#x12b;" 
d="M52 2499q5 37 35 63t67 26h1199q38 0 60 -26t17 -63l-35 -245q-5 -38 -35 -64t-67 -26h-1198q-37 0 -59.5 26t-17.5 64zM268 1804q5 35 27 54.5t58 19.5h600q36 0 53 -19.5t12 -54.5l-244 -1729q-4 -36 -26.5 -55.5t-58.5 -19.5h-600q-74 0 -65 75z" />
    <glyph glyph-name="Iogonek" unicode="&#x12e;" horiz-adv-x="1077" 
d="M1067 2440q31 0 50 -22t14 -53l-322 -2290q-5 -31 -29.5 -53t-55.5 -22h-348q-111 -65 -187 -161t-76 -187q0 -53 31.5 -81.5t92.5 -28.5q41 0 89 12q41 9 60 -7t14 -56l-32 -227q-9 -63 -74 -90q-130 -54 -297 -54q-186 0 -303 100.5t-117 261.5q0 188 124 352t325 259
l321 2272q4 31 29 53t56 22h635z" />
    <glyph glyph-name="iogonek" unicode="&#x12f;" 
d="M677 2038q-146 0 -242 99t-96 244q0 175 135 304t311 129q146 0 242 -99.5t96 -244.5q0 -115 -62.5 -215t-165.5 -158.5t-218 -58.5zM953 1878q36 0 53 -19.5t12 -54.5l-244 -1729q-4 -36 -26.5 -55.5t-58.5 -19.5h-293q-111 -65 -187 -161t-76 -187q0 -53 31.5 -81.5
t92.5 -28.5q41 0 89 12q41 9 60 -7t14 -56l-32 -227q-9 -63 -74 -90q-130 -54 -297 -54q-186 0 -303 100.5t-117 261.5q0 183 117.5 343.5t310.5 256.5l243 1722q5 35 27 54.5t58 19.5h600z" />
    <glyph glyph-name="Idotaccent" unicode="&#x130;" horiz-adv-x="1077" 
d="M773 2600q-146 0 -242 99t-96 244q0 175 135 304t311 129q146 0 242 -99.5t96 -244.5q0 -115 -62.5 -215t-165.5 -158.5t-218 -58.5zM347 2365q4 31 29 53t56 22h635q31 0 50 -22t14 -53l-322 -2290q-5 -31 -29.5 -53t-55.5 -22h-635q-31 0 -50 22t-15 53z" />
    <glyph glyph-name="dotlessi" unicode="&#x131;" 
d="M268 1804q5 35 27 54.5t58 19.5h600q36 0 53 -19.5t12 -54.5l-244 -1729q-4 -36 -26.5 -55.5t-58.5 -19.5h-600q-74 0 -65 75z" />
    <glyph glyph-name="Kcommaaccent" unicode="&#x136;" horiz-adv-x="2783" 
d="M1067 2440q31 0 50 -22t14 -53l-322 -2290q-4 -31 -29 -53t-56 -22h-635q-31 0 -50 22t-15 53l323 2290q4 31 29 53t56 22h635zM2620 108q25 -46 3.5 -77t-75.5 -31h-695q-70 0 -99 56l-674 1184l1006 1144q47 56 116 56h649q55 0 68 -31t-27 -77l-952 -1057zM1204 -232
q54 0 103.5 -18t90 -52.5t64.5 -93t24 -132.5q0 -139 -85 -300t-222.5 -296t-290.5 -210q-21 -9 -40 -4.5t-31 19.5l-38 52q-14 18 -9.5 42.5t25.5 44.5q6 5 33.5 29t36.5 33t31.5 31t31 36.5t21.5 36t17.5 43t4.5 45.5q0 40 -17 68.5t-50 60.5q-75 75 -75 195
q0 100 52.5 186t138.5 135t184 49z" />
    <glyph glyph-name="kcommaaccent" unicode="&#x137;" horiz-adv-x="2323" 
d="M364 2485q4 36 26.5 55.5t58.5 19.5h600q74 0 65 -75l-340 -2410q-4 -36 -26.5 -55.5t-58.5 -19.5h-600q-74 0 -65 75zM1419 0q-79 0 -99 60l-366 930l570 830q40 58 117 58h613q53 0 62.5 -32.5t-22.5 -74.5l-575 -769l404 -894q21 -49 0.5 -78.5t-73.5 -29.5h-631z
M993 -232q54 0 103.5 -18t90 -52.5t64.5 -93t24 -132.5q0 -139 -85 -300t-222.5 -296t-290.5 -210q-21 -9 -40 -4.5t-31 19.5l-38 52q-14 18 -9.5 42.5t25.5 44.5q6 5 33.5 29t36.5 33t31.5 31t31 36.5t21.5 36t17.5 43t4.5 45.5q0 40 -17 68.5t-50 60.5q-75 75 -75 195
q0 100 52.5 186t138.5 135t184 49z" />
    <glyph glyph-name="Lacute" unicode="&#x139;" horiz-adv-x="2154" 
d="M563 2625q-41 -15 -73 -3t-43 44l-59 169q-11 33 8 69.5t55 55.5l807 440q36 19 69 6.5t44 -46.5l103 -291q13 -39 -3 -73t-55 -48zM1986 636q74 0 65 -75l-69 -486q-11 -75 -85 -75h-1808q-31 0 -50 22t-15 53l323 2290q4 31 29 53t56 22h635q31 0 50 -22t15 -53
l-244 -1729h1098z" />
    <glyph glyph-name="lacute" unicode="&#x13a;" 
d="M563 2745q-41 -15 -73 -3t-43 44l-59 169q-11 33 8 69.5t55 55.5l807 440q36 19 69 6.5t44 -46.5l103 -291q13 -39 -3 -73t-55 -48zM364 2485q4 36 26.5 55.5t58.5 19.5h600q74 0 65 -75l-340 -2410q-4 -36 -26.5 -55.5t-58.5 -19.5h-600q-74 0 -65 75z" />
    <glyph glyph-name="Lcommaaccent" unicode="&#x13b;" horiz-adv-x="2154" 
d="M1986 636q74 0 65 -75l-69 -486q-11 -75 -85 -75h-1808q-31 0 -50 22t-15 53l323 2290q4 31 29 53t56 22h635q31 0 50 -22t15 -53l-244 -1729h1098zM947 -232q54 0 103.5 -18t90 -52.5t64.5 -93t24 -132.5q0 -139 -85 -300t-222.5 -296t-290.5 -210q-21 -9 -40 -4.5
t-31 19.5l-38 52q-14 18 -9.5 42.5t25.5 44.5q6 5 33.5 29t36.5 33t31.5 31t31 36.5t21.5 36t17.5 43t4.5 45.5q0 40 -17 68.5t-50 60.5q-75 75 -75 195q0 100 52.5 186t138.5 135t184 49z" />
    <glyph glyph-name="lcommaaccent" unicode="&#x13c;" 
d="M364 2485q4 36 26.5 55.5t58.5 19.5h600q74 0 65 -75l-340 -2410q-4 -36 -26.5 -55.5t-58.5 -19.5h-600q-74 0 -65 75zM354 -232q54 0 103.5 -18t90 -52.5t64.5 -93t24 -132.5q0 -139 -85 -300t-222.5 -296t-290.5 -210q-21 -9 -40 -4.5t-31 19.5l-38 52
q-14 18 -9.5 42.5t25.5 44.5q6 5 33.5 29t36.5 33t31.5 31t31 36.5t21.5 36t17.5 43t4.5 45.5q0 40 -17 68.5t-50 60.5q-75 75 -75 195q0 100 52.5 186t138.5 135t184 49z" />
    <glyph glyph-name="Lcaron" unicode="&#x13d;" horiz-adv-x="2154" 
d="M1798 2620q74 0 136.5 -30.5t104.5 -100t42 -167.5q0 -106 -50.5 -227t-133.5 -230t-192.5 -203t-225.5 -150q-22 -10 -40.5 -6t-28.5 19l-40 54q-14 18 -10 42.5t26 45.5q6 5 38.5 34t43 38.5t34.5 36t33 44.5t18 45.5t9 54.5q0 40 -17.5 68.5t-50.5 60.5
q-76 77 -76 197q0 102 53.5 188.5t140.5 136t186 49.5zM1986 636q74 0 65 -75l-69 -486q-11 -75 -85 -75h-1808q-31 0 -50 22t-15 53l323 2290q4 31 29 53t56 22h635q31 0 50 -22t15 -53l-244 -1729h1098z" />
    <glyph glyph-name="lcaron" unicode="&#x13e;" horiz-adv-x="1748" 
d="M1621 2620q74 0 136.5 -30.5t104.5 -100t42 -167.5q0 -106 -50.5 -227t-133.5 -230t-192.5 -203t-225.5 -150q-22 -10 -40.5 -6t-28.5 19l-40 54q-14 18 -10 42.5t26 45.5q6 5 38.5 34t43 38.5t34.5 36t33 44.5t18 45.5t9 54.5q0 40 -17.5 68.5t-50.5 60.5
q-76 77 -76 197q0 102 53.5 188.5t140.5 136t186 49.5zM364 2485q4 36 26.5 55.5t58.5 19.5h600q74 0 65 -75l-340 -2410q-4 -36 -26.5 -55.5t-58.5 -19.5h-600q-74 0 -65 75z" />
    <glyph glyph-name="Lslash" unicode="&#x141;" horiz-adv-x="2460" 
d="M2292 636q74 0 65 -75l-69 -486q-11 -75 -85 -75h-1808q-31 0 -50 22t-15 53l94 665l-197 -87q-41 -19 -70.5 -7.5t-42.5 50.5l-98 297q-13 38 3 69t57 49l427 189l150 1065q4 31 29 53t56 22h635q31 0 50 -22t15 -53l-98 -695l614 272q42 18 72 7t43 -50l97 -297
q13 -38 -3 -69.5t-57 -48.5l-845 -374l-67 -474h1098z" />
    <glyph glyph-name="lslash" unicode="&#x142;" horiz-adv-x="1538" 
d="M1598 1468q13 -38 -2.5 -69t-56.5 -49l-354 -156l-158 -1119q-4 -36 -26.5 -55.5t-58.5 -19.5h-600q-74 0 -65 75l108 766l-122 -54q-41 -19 -70.5 -7.5t-42.5 50.5l-98 296q-13 38 3.5 69.5t57.5 49.5l351 155l153 1085q4 36 26.5 55.5t58.5 19.5h600q74 0 65 -75
l-103 -731l123 54q87 39 114 -42z" />
    <glyph glyph-name="Nacute" unicode="&#x143;" horiz-adv-x="2838" 
d="M1483 2625q-41 -15 -73 -3t-43 44l-59 169q-11 33 8 69.5t55 55.5l807 440q36 19 69 6.5t44 -46.5l103 -291q13 -39 -3 -73t-55 -48zM2814 2440q43 0 63 -23.5t14 -66.5l-320 -2271q-6 -43 -32.5 -66t-69.5 -23h-205q-67 0 -107 36l-1195 1131l-151 -1067
q-6 -43 -32.5 -66.5t-69.5 -23.5h-605q-43 0 -63 23.5t-14 66.5l319 2271q6 43 32.5 66t69.5 23h205q66 0 107 -36l1195 -1137l151 1073q6 43 33 66.5t69 23.5h606z" />
    <glyph glyph-name="nacute" unicode="&#x144;" horiz-adv-x="2327" 
d="M1178 2063q-41 -15 -73 -3t-43 44l-59 169q-11 33 8 69.5t55 55.5l807 440q36 19 69 6.5t44 -46.5l103 -291q13 -39 -3 -73t-55 -48zM1686 1918q633 0 537 -684l-163 -1159q-5 -36 -27.5 -55.5t-57.5 -19.5h-601q-36 0 -52.5 19.5t-11.5 55.5l129 915q24 172 -23 247
t-164 75q-136 0 -233.5 -98t-122.5 -275l-122 -864q-4 -36 -26.5 -55.5t-58.5 -19.5h-600q-74 0 -65 75l244 1729q5 35 27 54.5t58 19.5h600q36 0 53 -19.5t12 -54.5l-29 -206q115 149 292 234.5t405 85.5z" />
    <glyph glyph-name="Ncommaaccent" unicode="&#x145;" horiz-adv-x="2838" 
d="M2814 2440q43 0 63 -23.5t14 -66.5l-320 -2271q-6 -43 -32.5 -66t-69.5 -23h-205q-67 0 -107 36l-1195 1131l-151 -1067q-6 -43 -32.5 -66.5t-69.5 -23.5h-605q-43 0 -63 23.5t-14 66.5l319 2271q6 43 32.5 66t69.5 23h205q66 0 107 -36l1195 -1137l151 1073
q6 43 33 66.5t69 23.5h606zM1291 -232q54 0 103.5 -18t90 -52.5t64.5 -93t24 -132.5q0 -139 -85 -300t-222.5 -296t-290.5 -210q-21 -9 -40 -4.5t-31 19.5l-38 52q-14 18 -9.5 42.5t25.5 44.5q6 5 33.5 29t36.5 33t31.5 31t31 36.5t21.5 36t17.5 43t4.5 45.5q0 40 -17 68.5
t-50 60.5q-75 75 -75 195q0 100 52.5 186t138.5 135t184 49z" />
    <glyph glyph-name="ncommaaccent" unicode="&#x146;" horiz-adv-x="2327" 
d="M1686 1918q633 0 537 -684l-163 -1159q-5 -36 -27.5 -55.5t-57.5 -19.5h-601q-36 0 -52.5 19.5t-11.5 55.5l129 915q24 172 -23 247t-164 75q-136 0 -233.5 -98t-122.5 -275l-122 -864q-4 -36 -26.5 -55.5t-58.5 -19.5h-600q-74 0 -65 75l244 1729q5 35 27 54.5t58 19.5
h600q36 0 53 -19.5t12 -54.5l-29 -206q115 149 292 234.5t405 85.5zM996 -232q54 0 103.5 -18t90 -52.5t64.5 -93t24 -132.5q0 -139 -85 -300t-222.5 -296t-290.5 -210q-21 -9 -40 -4.5t-31 19.5l-38 52q-14 18 -9.5 42.5t25.5 44.5q6 5 33.5 29t36.5 33t31.5 31t31 36.5
t21.5 36t17.5 43t4.5 45.5q0 40 -17 68.5t-50 60.5q-75 75 -75 195q0 100 52.5 186t138.5 135t184 49z" />
    <glyph glyph-name="Ncaron" unicode="&#x147;" horiz-adv-x="2838" 
d="M1918 3210q47 60 116 60h359q59 0 68.5 -33.5t-37.5 -77.5l-487 -461q-51 -47 -117 -47h-240q-67 0 -104 47l-358 461q-34 44 -15 77.5t78 33.5h359q71 0 100 -60l109 -210zM2814 2440q43 0 63 -23.5t14 -66.5l-320 -2271q-6 -43 -32.5 -66t-69.5 -23h-205q-67 0 -107 36
l-1195 1131l-151 -1067q-6 -43 -32.5 -66.5t-69.5 -23.5h-605q-43 0 -63 23.5t-14 66.5l319 2271q6 43 32.5 66t69.5 23h205q66 0 107 -36l1195 -1137l151 1073q6 43 33 66.5t69 23.5h606z" />
    <glyph glyph-name="ncaron" unicode="&#x148;" horiz-adv-x="2327" 
d="M1613 2648q46 60 116 60h359q59 0 68.5 -33.5t-37.5 -77.5l-487 -461q-51 -47 -117 -47h-240q-67 0 -104 47l-358 461q-34 44 -15 77.5t78 33.5h359q71 0 100 -60l109 -210zM1686 1918q633 0 537 -684l-163 -1159q-5 -36 -27.5 -55.5t-57.5 -19.5h-601q-36 0 -52.5 19.5
t-11.5 55.5l129 915q24 172 -23 247t-164 75q-136 0 -233.5 -98t-122.5 -275l-122 -864q-4 -36 -26.5 -55.5t-58.5 -19.5h-600q-74 0 -65 75l244 1729q5 35 27 54.5t58 19.5h600q36 0 53 -19.5t12 -54.5l-29 -206q115 149 292 234.5t405 85.5z" />
    <glyph glyph-name="Eng" unicode="&#x14a;" horiz-adv-x="2839" 
d="M2814 2440q43 0 63 -23.5t14 -66.5l-305 -2172q-21 -153 -71.5 -280.5t-138.5 -234t-209 -180t-288.5 -114t-373.5 -40.5q-34 0 -53 22t-15 56l47 331q4 28 25.5 48.5t52.5 25.5q227 36 269 336l22 154l-891 855l-151 -1067q-6 -43 -32.5 -66.5t-69.5 -23.5h-605
q-43 0 -63 23.5t-14 66.5l319 2271q6 43 32.5 66t69.5 23h205q67 0 107 -36l1195 -1137l151 1073q6 43 33 66.5t69 23.5h606z" />
    <glyph glyph-name="eng" unicode="&#x14b;" horiz-adv-x="2327" 
d="M1685 1918q634 0 538 -684l-149 -1056q-21 -153 -71.5 -280.5t-138 -234t-208.5 -180t-288.5 -114t-373.5 -40.5q-34 0 -53 22t-15 56l47 331q3 28 24.5 48.5t53.5 25.5q227 36 269 336l118 842q24 172 -22.5 247t-163.5 75q-136 0 -233.5 -98t-122.5 -275l-122 -864
q-4 -36 -26.5 -55.5t-58.5 -19.5h-600q-74 0 -65 75l244 1729q5 35 27 54.5t58 19.5h600q36 0 53 -19.5t12 -54.5l-30 -206q115 149 292.5 234.5t404.5 85.5z" />
    <glyph glyph-name="Omacron" unicode="&#x14c;" horiz-adv-x="3012" 
d="M1115 3061q5 37 35 63t67 26h1199q38 0 60 -26t17 -63l-35 -245q-5 -38 -35 -64t-67 -26h-1198q-37 0 -59.5 26t-17.5 64zM1724 2495q207 0 392 -48.5t335 -144t259 -228.5t168.5 -310t59.5 -381q0 -217 -59 -414t-164 -353.5t-251.5 -283.5t-320.5 -211.5t-371.5 -130
t-404.5 -45.5t-392 48.5t-335 144t-259 228.5t-168.5 310t-59.5 381q0 217 59 414t164 353.5t251.5 283.5t320.5 211.5t371.5 130t404.5 45.5zM1456 581q140 0 262 56t209 154t136.5 235.5t49.5 294.5q0 242 -128.5 390t-349.5 148q-140 0 -262 -56t-209 -154t-136.5 -235.5
t-49.5 -294.5q0 -242 128.5 -390t349.5 -148z" />
    <glyph glyph-name="omacron" unicode="&#x14d;" horiz-adv-x="2389" 
d="M724 2499q5 37 35 63t67 26h1199q38 0 60 -26t17 -63l-35 -245q-5 -38 -35 -64t-67 -26h-1198q-37 0 -59.5 26t-17.5 64zM1334 1933q161 0 305 -35.5t264 -108t207 -174.5t135.5 -241.5t48.5 -303.5q0 -177 -47 -334t-131.5 -279.5t-200.5 -220t-254 -161t-291.5 -97
t-314.5 -33.5t-305.5 35.5t-264 108t-206.5 174.5t-135.5 241.5t-48.5 303.5q0 177 47 334t131.5 279.5t200.5 220t254 161t291.5 97t314.5 33.5zM1138 537q76 0 144.5 32t121.5 91t84.5 151t31.5 204q0 155 -75 241t-194 86q-76 0 -144.5 -32t-121.5 -91t-84.5 -151
t-31.5 -204q0 -155 75 -241t194 -86z" />
    <glyph glyph-name="Ohungarumlaut" unicode="&#x150;" horiz-adv-x="3012" 
d="M1482 2655q-28 -33 -65 -42.5t-65 8.5l-149 94q-28 19 -32 57.5t17 72.5l485 779q22 34 59.5 43.5t66.5 -9.5l260 -161q34 -21 39 -56t-23 -68zM2064 2625q-41 -15 -73 -3t-43 44l-59 169q-10 33 9 69.5t54 55.5l807 440q37 19 69.5 7t44.5 -47l103 -291
q13 -38 -3.5 -72.5t-55.5 -48.5zM1724 2495q207 0 392 -48.5t335 -144t259 -228.5t168.5 -310t59.5 -381q0 -217 -59 -414t-164 -353.5t-251.5 -283.5t-320.5 -211.5t-371.5 -130t-404.5 -45.5t-392 48.5t-335 144t-259 228.5t-168.5 310t-59.5 381q0 217 59 414t164 353.5
t251.5 283.5t320.5 211.5t371.5 130t404.5 45.5zM1456 581q140 0 262 56t209 154t136.5 235.5t49.5 294.5q0 242 -128.5 390t-349.5 148q-140 0 -262 -56t-209 -154t-136.5 -235.5t-49.5 -294.5q0 -242 128.5 -390t349.5 -148z" />
    <glyph glyph-name="ohungarumlaut" unicode="&#x151;" horiz-adv-x="2389" 
d="M1091 2093q-28 -33 -65 -42.5t-65 8.5l-149 94q-28 19 -32 57.5t17 72.5l485 779q22 34 59.5 43.5t66.5 -9.5l260 -161q34 -21 39 -56t-23 -68zM1673 2063q-41 -15 -73 -3t-43 44l-59 169q-10 33 9 69.5t54 55.5l807 440q37 19 69.5 7t44.5 -47l103 -291
q13 -38 -3.5 -72.5t-55.5 -48.5zM1334 1933q161 0 305 -35.5t264 -108t207 -174.5t135.5 -241.5t48.5 -303.5q0 -177 -47 -334t-131.5 -279.5t-200.5 -220t-254 -161t-291.5 -97t-314.5 -33.5t-305.5 35.5t-264 108t-206.5 174.5t-135.5 241.5t-48.5 303.5q0 177 47 334
t131.5 279.5t200.5 220t254 161t291.5 97t314.5 33.5zM1138 537q76 0 144.5 32t121.5 91t84.5 151t31.5 204q0 155 -75 241t-194 86q-76 0 -144.5 -32t-121.5 -91t-84.5 -151t-31.5 -204q0 -155 75 -241t194 -86z" />
    <glyph glyph-name="OE" unicode="&#x152;" horiz-adv-x="3908" 
d="M3898 2440q74 0 65 -75l-65 -457q-5 -35 -27.5 -54.5t-58.5 -19.5h-1053q47 -154 51 -325h797q36 0 52.5 -19.5t11.5 -55.5l-56 -398q-5 -35 -27 -54.5t-58 -19.5h-793q-58 -194 -155 -356h1098q36 0 52.5 -19.5t11.5 -54.5l-64 -457q-4 -36 -26.5 -55.5t-58.5 -19.5
h-1825q-194 -51 -410 -51q-189 0 -360 39t-313 114.5t-253.5 185.5t-180.5 252t-95 313.5t3 370.5q33 234 131.5 437.5t246.5 355.5t335 261.5t402 165t442 55.5q232 0 423 -59h1757zM980 1224q-40 -284 89 -461.5t380 -177.5t430 177.5t219 461.5t-89 461.5t-380 177.5
t-430 -177.5t-219 -461.5z" />
    <glyph glyph-name="oe" unicode="&#x153;" horiz-adv-x="3766" 
d="M2805 1933q165 0 305.5 -39.5t256.5 -122t188.5 -210.5t101.5 -305t-5 -406h-1361q4 -94 32.5 -165.5t74 -112t99 -60.5t112.5 -20q110 0 189.5 34.5t138.5 108.5q34 41 59 50t68 -10l360 -189q42 -22 45.5 -53.5t-22.5 -68.5q-71 -111 -208.5 -205.5t-330.5 -154
t-396 -59.5q-206 0 -379 59t-296 173q-164 -113 -365.5 -172.5t-416.5 -59.5q-161 0 -305.5 35.5t-264 108t-206.5 174.5t-135.5 241.5t-48.5 303.5q0 177 47 334t131.5 279.5t200.5 220t254 161t291.5 97t314.5 33.5q207 0 386 -60t309 -175q160 115 359.5 175t416.5 60z
M2725 1450q-119 0 -218.5 -68t-155.5 -193h631q-16 135 -84.5 198t-172.5 63zM1138 537q76 0 144.5 32t121.5 91t84.5 151t31.5 204q0 155 -75 241t-194 86q-76 0 -144.5 -32t-121.5 -91t-84.5 -151t-31.5 -204q0 -155 75 -241t194 -86z" />
    <glyph glyph-name="Racute" unicode="&#x154;" horiz-adv-x="2524" 
d="M1117 2666l-59 169q-11 33 8 69.5t55 55.5l807 440q36 19 69 6.5t44 -46.5l103 -291q13 -39 -3 -73t-55 -48l-853 -323q-41 -15 -73 -3t-43 44zM1969 898l306 -734q25 -62 -12.5 -113t-107.5 -51h-610q-22 0 -39.5 12.5t-25.5 32.5l-270 705h-306l-95 -675
q-5 -31 -29.5 -53t-55.5 -22h-635q-31 0 -50 22t-15 53l323 2290q4 31 29 53t56 22h635h483q177 0 325 -36.5t255.5 -103t181.5 -158.5t110.5 -204t36.5 -240q0 -254 -127.5 -464t-362.5 -336zM1060 1863l-75 -536h254q410 0 410 308q0 228 -335 228h-254z" />
    <glyph glyph-name="racute" unicode="&#x155;" horiz-adv-x="1493" 
d="M692 2063q-41 -15 -73 -3t-43 44l-59 169q-11 33 8 69.5t55 55.5l807 440q36 19 69 6.5t44 -46.5l103 -291q13 -39 -3 -73t-55 -48zM1482 1911q83 0 71 -74l-87 -625q-5 -35 -24.5 -49.5t-55.5 -22.5q-49 -10 -84 -19t-89.5 -29t-94.5 -42.5t-87 -60.5t-79.5 -83.5
t-58.5 -111t-37 -143.5l-82 -576q-4 -36 -26.5 -55.5t-58.5 -19.5h-600q-74 0 -65 75l244 1729q5 35 27 54.5t58 19.5h600q36 0 53 -19.5t12 -54.5l-41 -286q61 122 156 214.5t185 135.5t164 43z" />
    <glyph glyph-name="Rcommaaccent" unicode="&#x156;" horiz-adv-x="2524" 
d="M1969 898l306 -734q25 -62 -12.5 -113t-107.5 -51h-610q-22 0 -39.5 12.5t-25.5 32.5l-270 705h-306l-95 -675q-5 -31 -29.5 -53t-55.5 -22h-635q-31 0 -50 22t-15 53l323 2290q4 31 29 53t56 22h635h483q177 0 325 -36.5t255.5 -103t181.5 -158.5t110.5 -204t36.5 -240
q0 -254 -127.5 -464t-362.5 -336zM1060 1863l-75 -536h254q410 0 410 308q0 228 -335 228h-254zM1041 -232q54 0 103.5 -18t90 -52.5t64.5 -93t24 -132.5q0 -139 -85 -300t-222.5 -296t-290.5 -210q-21 -9 -40 -4.5t-31 19.5l-38 52q-14 18 -9.5 42.5t25.5 44.5q6 5 33.5 29
t36.5 33t31.5 31t31 36.5t21.5 36t17.5 43t4.5 45.5q0 40 -17 68.5t-50 60.5q-75 75 -75 195q0 100 52.5 186t138.5 135t184 49z" />
    <glyph glyph-name="rcommaaccent" unicode="&#x157;" horiz-adv-x="1493" 
d="M1482 1911q83 0 71 -74l-87 -625q-5 -35 -24.5 -49.5t-55.5 -22.5q-49 -10 -84 -19t-89.5 -29t-94.5 -42.5t-87 -60.5t-79.5 -83.5t-58.5 -111t-37 -143.5l-82 -576q-4 -36 -26.5 -55.5t-58.5 -19.5h-600q-74 0 -65 75l244 1729q5 35 27 54.5t58 19.5h600q36 0 53 -19.5
t12 -54.5l-41 -286q61 122 156 214.5t185 135.5t164 43zM318 -232q54 0 103.5 -18t90 -52.5t64.5 -93t24 -132.5q0 -139 -85 -300t-222.5 -296t-290.5 -210q-21 -9 -40 -4.5t-31 19.5l-38 52q-14 18 -9.5 42.5t25.5 44.5q6 5 33.5 29t36.5 33t31.5 31t31 36.5t21.5 36
t17.5 43t4.5 45.5q0 40 -17 68.5t-50 60.5q-75 75 -75 195q0 100 52.5 186t138.5 135t184 49z" />
    <glyph glyph-name="Rcaron" unicode="&#x158;" horiz-adv-x="2524" 
d="M1226 2698l-358 461q-34 44 -15 77.5t78 33.5h359q71 0 100 -60l109 -210l169 210q46 60 116 60h359q59 0 68.5 -33.5t-37.5 -77.5l-487 -461q-51 -47 -117 -47h-240q-67 0 -104 47zM1969 898l306 -734q25 -62 -12.5 -113t-107.5 -51h-610q-22 0 -39.5 12.5t-25.5 32.5
l-270 705h-306l-95 -675q-5 -31 -29.5 -53t-55.5 -22h-635q-31 0 -50 22t-15 53l323 2290q4 31 29 53t56 22h635h483q177 0 325 -36.5t255.5 -103t181.5 -158.5t110.5 -204t36.5 -240q0 -254 -127.5 -464t-362.5 -336zM1060 1863l-75 -536h254q410 0 410 308q0 228 -335 228
h-254z" />
    <glyph glyph-name="rcaron" unicode="&#x159;" horiz-adv-x="1493" 
d="M1127 2648q47 60 116 60h359q59 0 68.5 -33.5t-37.5 -77.5l-487 -461q-51 -47 -117 -47h-240q-67 0 -104 47l-358 461q-34 44 -15 77.5t78 33.5h359q71 0 100 -60l109 -210zM1482 1911q83 0 71 -74l-87 -625q-5 -35 -24.5 -49.5t-55.5 -22.5q-49 -10 -84 -19t-89.5 -29
t-94.5 -42.5t-87 -60.5t-79.5 -83.5t-58.5 -111t-37 -143.5l-82 -576q-4 -36 -26.5 -55.5t-58.5 -19.5h-600q-74 0 -65 75l244 1729q5 35 27 54.5t58 19.5h600q36 0 53 -19.5t12 -54.5l-41 -286q61 122 156 214.5t185 135.5t164 43z" />
    <glyph glyph-name="Sacute" unicode="&#x15a;" horiz-adv-x="2334" 
d="M1210 2625q-41 -15 -73 -3t-43 44l-59 169q-11 33 8 69.5t55 55.5l807 440q36 19 69 6.5t44 -46.5l103 -291q13 -39 -3 -73t-55 -48zM1095 1779q0 -41 48.5 -76t107 -56t170.5 -55q95 -29 147 -46t146 -54.5t149.5 -72t126.5 -92t110 -120t67 -150t28 -188.5
q0 -183 -70 -335.5t-189 -257t-280.5 -177t-341.5 -106t-374 -33.5q-259 0 -482.5 60.5t-395.5 159.5q-65 43 -21 122l227 381q47 78 117 43q84 -41 118.5 -57t106 -45t120.5 -40.5t121.5 -21.5t149.5 -10q161 0 250.5 40t89.5 118q0 44 -36 80t-96.5 63t-139.5 53t-166 56
t-174 66.5t-166 90t-139.5 120.5t-96.5 164t-36 215q0 194 80.5 357t228 277.5t363 178.5t477.5 64q144 0 282 -20t243.5 -52.5t181.5 -64.5t130 -65q69 -44 24 -119l-208 -346q-49 -81 -133 -40q-62 32 -103 51t-115 47.5t-155 42.5t-167 14q-165 0 -245 -47t-80 -117z" />
    <glyph glyph-name="sacute" unicode="&#x15b;" horiz-adv-x="1986" 
d="M928 2063q-41 -15 -73 -3t-43 44l-59 169q-11 33 8 69.5t55 55.5l807 440q36 19 69 6.5t44 -46.5l103 -291q13 -39 -3 -73t-55 -48zM976 1355q0 -30 29.5 -55t79.5 -44.5t114.5 -39t136 -43t143 -52.5t136 -72.5t114.5 -96.5t79.5 -130.5t29.5 -170.5q0 -140 -51.5 -256
t-144 -198.5t-220 -140t-278.5 -84.5t-322 -27q-239 0 -455.5 51.5t-326.5 126.5q-37 27 -42.5 55t16.5 64l181 298q51 86 128 47q141 -73 247 -107t242 -34q96 0 155 23.5t59 74.5q0 30 -28.5 54.5t-76 44.5t-110 39.5t-131 44t-137 53.5t-131 72t-110 95.5t-76 128.5
t-28.5 166q0 211 118 368t332 240t496 83q221 0 420 -51.5t309 -127.5q36 -26 43 -51.5t-16 -67.5l-160 -265q-50 -86 -123 -45q-220 131 -437 131q-102 0 -153 -27t-51 -74z" />
    <glyph glyph-name="Scedilla" unicode="&#x15e;" horiz-adv-x="2334" 
d="M1420 1943q-165 0 -245 -47t-80 -117q0 -41 48.5 -76t107 -56t170.5 -55q95 -29 147 -46t146 -54.5t149.5 -72t126.5 -92t110 -120t67 -150t28 -188.5q0 -160 -53.5 -297t-147 -237.5t-222.5 -176t-277 -120.5t-314 -64l-69 -115q197 26 312.5 -48.5t115.5 -231.5
q0 -111 -48.5 -200t-132 -144.5t-192.5 -85t-234 -29.5q-178 0 -300 75q-61 43 -24 120l26 54q41 85 127 48q76 -38 143 -38q79 0 133 40.5t54 116.5q0 19 -4.5 34t-14.5 25.5t-20.5 19t-29 13t-32 8t-38 3.5h-39t-42.5 -2.5t-41 -4t-41 -4.5q-62 -6 -81 14.5t8 71.5
l138 248q-447 19 -793 218q-65 43 -21 122l227 381q47 78 117 43q84 -41 118.5 -57t106 -45t120.5 -40.5t121.5 -21.5t149.5 -10q161 0 250.5 40t89.5 118q0 44 -36 80t-96.5 63t-139.5 53t-166 56t-174 66.5t-166 90t-139.5 120.5t-96.5 164t-36 215q0 194 80.5 357
t228 277.5t363 178.5t477.5 64q144 0 282 -20t243.5 -52.5t181.5 -64.5t130 -65q69 -44 24 -119l-208 -346q-49 -81 -133 -40q-62 32 -103 51t-115 47.5t-155 42.5t-167 14z" />
    <glyph glyph-name="scedilla" unicode="&#x15f;" horiz-adv-x="1986" 
d="M1180 1456q-102 0 -153 -27t-51 -74q0 -30 29.5 -55t79.5 -44.5t114.5 -39t136 -43t143 -52.5t136 -72.5t114.5 -96.5t79.5 -130.5t29.5 -170.5q0 -155 -63 -280.5t-176 -210.5t-262.5 -137t-330.5 -69l-57 -95q197 26 312.5 -48.5t115.5 -231.5q0 -111 -48.5 -200
t-132 -144.5t-192.5 -85t-234 -29.5q-178 0 -300 75q-61 43 -24 120l26 54q41 85 127 48q76 -38 143 -38q79 0 133 40.5t54 116.5q0 19 -4.5 34t-14.5 25.5t-20.5 19t-29 13t-32 8t-38 3.5h-39t-42.5 -2.5t-41 -4t-41 -4.5q-62 -6 -81 14.5t8 71.5l132 236
q-202 13 -377.5 61t-268.5 112q-37 27 -42.5 55t16.5 64l181 298q51 86 128 47q141 -73 247 -107t242 -34q96 0 155 23.5t59 74.5q0 30 -28.5 54.5t-76 44.5t-110 39.5t-131 44t-137 53.5t-131 72t-110 95.5t-76 128.5t-28.5 166q0 211 118 368t332 240t496 83
q221 0 420 -51.5t309 -127.5q36 -26 43 -51.5t-16 -67.5l-160 -265q-50 -86 -123 -45q-220 131 -437 131z" />
    <glyph glyph-name="Scaron" unicode="&#x160;" horiz-adv-x="2334" 
d="M1645 3210q47 60 116 60h359q59 0 68.5 -33.5t-37.5 -77.5l-487 -461q-51 -47 -117 -47h-240q-67 0 -104 47l-358 461q-34 44 -15 77.5t78 33.5h359q71 0 100 -60l109 -210zM1095 1779q0 -41 48.5 -76t107 -56t170.5 -55q95 -29 147 -46t146 -54.5t149.5 -72t126.5 -92
t110 -120t67 -150t28 -188.5q0 -183 -70 -335.5t-189 -257t-280.5 -177t-341.5 -106t-374 -33.5q-259 0 -482.5 60.5t-395.5 159.5q-65 43 -21 122l227 381q47 78 117 43q84 -41 118.5 -57t106 -45t120.5 -40.5t121.5 -21.5t149.5 -10q161 0 250.5 40t89.5 118q0 44 -36 80
t-96.5 63t-139.5 53t-166 56t-174 66.5t-166 90t-139.5 120.5t-96.5 164t-36 215q0 194 80.5 357t228 277.5t363 178.5t477.5 64q144 0 282 -20t243.5 -52.5t181.5 -64.5t130 -65q69 -44 24 -119l-208 -346q-49 -81 -133 -40q-62 32 -103 51t-115 47.5t-155 42.5t-167 14
q-165 0 -245 -47t-80 -117z" />
    <glyph glyph-name="scaron" unicode="&#x161;" horiz-adv-x="1986" 
d="M1363 2648q47 60 116 60h359q59 0 68.5 -33.5t-37.5 -77.5l-487 -461q-51 -47 -117 -47h-240q-67 0 -104 47l-358 461q-34 44 -15 77.5t78 33.5h359q71 0 100 -60l109 -210zM976 1355q0 -30 29.5 -55t79.5 -44.5t114.5 -39t136 -43t143 -52.5t136 -72.5t114.5 -96.5
t79.5 -130.5t29.5 -170.5q0 -140 -51.5 -256t-144 -198.5t-220 -140t-278.5 -84.5t-322 -27q-239 0 -455.5 51.5t-326.5 126.5q-37 27 -42.5 55t16.5 64l181 298q51 86 128 47q141 -73 247 -107t242 -34q96 0 155 23.5t59 74.5q0 30 -28.5 54.5t-76 44.5t-110 39.5t-131 44
t-137 53.5t-131 72t-110 95.5t-76 128.5t-28.5 166q0 211 118 368t332 240t496 83q221 0 420 -51.5t309 -127.5q36 -26 43 -51.5t-16 -67.5l-160 -265q-50 -86 -123 -45q-220 131 -437 131q-102 0 -153 -27t-51 -74z" />
    <glyph glyph-name="uni0162" unicode="&#x162;" horiz-adv-x="2510" 
d="M2560 2440q31 0 50 -22t14 -53l-68 -486q-4 -31 -29.5 -53t-56.5 -22h-701l-243 -1729q-4 -31 -29.5 -53t-55.5 -22h-135l-85 -141q197 26 312.5 -48.5t115.5 -231.5q0 -111 -48.5 -200t-132 -144.5t-192.5 -85t-234 -29.5q-178 0 -300 75q-61 43 -24 120l26 54
q41 85 127 48q76 -38 143 -38q79 0 133 40.5t54 116.5q0 19 -4.5 34t-14.5 25.5t-20.5 19t-29 13t-32 8t-38 3.5h-39t-42.5 -2.5t-41 -4t-41 -4.5q-62 -6 -81 14.5t8 71.5l160 286h-181q-31 0 -50 22t-14 53l243 1729h-702q-30 0 -49 22t-15 53l69 486q4 31 29 53t56 22
h1411h777z" />
    <glyph glyph-name="uni0163" unicode="&#x163;" horiz-adv-x="1849" 
d="M1732 1878q43 0 63 -23t14 -66l-56 -398q-6 -43 -32.5 -66t-69.5 -23h-496l-69 -489q-21 -144 14 -217.5t145 -73.5q97 0 225 65q90 45 117 -39l97 -302q25 -78 -52 -120q-288 -157 -583 -177l-54 -90q197 26 312.5 -48.5t115.5 -231.5q0 -111 -48.5 -200t-132 -144.5
t-192.5 -85t-234 -29.5q-178 0 -300 75q-61 43 -24 120l26 54q41 85 127 48q76 -38 143 -38q79 0 133 40.5t54 116.5q0 19 -4.5 34t-14.5 25.5t-20.5 19t-29 13t-32 8t-38 3.5h-39t-42.5 -2.5t-41 -4t-41 -4.5q-62 -6 -81 14.5t8 71.5l141 252q-236 52 -352 225.5t-80 433.5
l95 677h-201q-42 0 -62.5 23t-14.5 66l56 398q6 43 33 66t69 23h201l35 245q11 77 103 105l582 163q49 14 74.5 -2.5t19.5 -58.5l-63 -452h496z" />
    <glyph glyph-name="Tcaron" unicode="&#x164;" horiz-adv-x="2510" 
d="M1272 2698l-358 461q-34 44 -15 77.5t78 33.5h359q71 0 100 -60l109 -210l169 210q46 60 116 60h359q59 0 68.5 -33.5t-37.5 -77.5l-487 -461q-51 -47 -117 -47h-240q-67 0 -104 47zM2560 2440q31 0 50 -22t14 -53l-68 -486q-4 -31 -29.5 -53t-56.5 -22h-701l-243 -1729
q-4 -31 -29.5 -53t-55.5 -22h-636q-31 0 -50 22t-14 53l243 1729h-702q-30 0 -49 22t-15 53l69 486q4 31 29 53t56 22h1411h777z" />
    <glyph glyph-name="tcaron" unicode="&#x165;" horiz-adv-x="2419" 
d="M2324 2620q74 0 136.5 -30.5t104.5 -100t42 -167.5q0 -106 -50.5 -227t-133.5 -230t-192.5 -203t-225.5 -150q-22 -10 -40.5 -6t-28.5 19l-40 54q-14 18 -10 42.5t26 45.5q6 5 38.5 34t43 38.5t34.5 36t33 44.5t18 45.5t9 54.5q0 40 -17.5 68.5t-50.5 60.5
q-76 77 -76 197q0 102 53.5 188.5t140.5 136t186 49.5zM1732 1878q43 0 63 -23t14 -66l-56 -398q-6 -43 -32.5 -66t-69.5 -23h-496l-69 -489q-21 -144 14 -217.5t145 -73.5q97 0 225 65q90 45 117 -39l97 -302q25 -78 -52 -120q-164 -89 -326.5 -135t-364.5 -46
q-217 0 -369.5 82t-222 236.5t-40.5 361.5l95 677h-201q-42 0 -62.5 23t-14.5 66l56 398q6 43 33 66t69 23h201l35 245q11 77 103 105l582 163q49 14 74.5 -2.5t19.5 -58.5l-63 -452h496z" />
    <glyph glyph-name="Tbar" unicode="&#x166;" horiz-adv-x="2510" 
d="M2560 2440q31 0 50 -22t14 -53l-68 -486q-4 -31 -29.5 -53t-56.5 -22h-701l-42 -303h282q42 0 62.5 -23.5t14.5 -66.5l-38 -269q-6 -42 -32.5 -65.5t-69.5 -23.5h-282l-138 -978q-4 -31 -29.5 -53t-55.5 -22h-636q-31 0 -50 22t-14 53l138 978h-304q-43 0 -63 23.5
t-14 65.5l38 269q6 43 32.5 66.5t69.5 23.5h304l42 303h-702q-30 0 -49 22t-15 53l69 486q4 31 29 53t56 22h1411h777z" />
    <glyph glyph-name="tbar" unicode="&#x167;" horiz-adv-x="1849" 
d="M1732 1878q43 0 63 -23t14 -66l-56 -398q-6 -43 -32.5 -66t-69.5 -23h-496l-21 -148h390q42 0 62 -23.5t14 -66.5l-14 -100q-6 -42 -32.5 -65.5t-69.5 -23.5h-389l-9 -62q-21 -144 14 -217.5t145 -73.5q97 0 225 65q90 45 117 -39l97 -302q25 -78 -52 -120
q-164 -89 -326.5 -135t-364.5 -46q-217 0 -369.5 82t-222 236.5t-40.5 361.5l35 250h-189q-43 0 -63 23.5t-14 65.5l14 100q6 43 33 66.5t69 23.5h190l20 148h-201q-42 0 -62.5 23t-14.5 66l56 398q6 43 33 66t69 23h201l35 245q11 77 103 105l582 163q49 14 74.5 -2.5
t19.5 -58.5l-63 -452h496z" />
    <glyph glyph-name="Umacron" unicode="&#x16a;" horiz-adv-x="2788" 
d="M1003 3061q5 37 35 63t67 26h1199q38 0 60 -26t17 -63l-35 -245q-5 -38 -35 -64t-67 -26h-1198q-37 0 -59.5 26t-17.5 64zM2778 2440q31 0 50 -22t15 -53l-187 -1325q-31 -217 -118 -395.5t-215.5 -304.5t-297 -212.5t-361.5 -127t-408 -40.5t-396.5 40.5t-325.5 127
t-237.5 212.5t-130.5 304.5t-6 395.5l187 1325q4 31 29 53t56 22h635q31 0 50 -22t14 -53l-162 -1156q-42 -295 49.5 -454t327.5 -159q235 0 371 159t178 454l163 1156q4 31 29 53t56 22h635z" />
    <glyph glyph-name="umacron" unicode="&#x16b;" horiz-adv-x="2328" 
d="M694 2499q5 37 35 63t67 26h1199q38 0 60 -26t17 -63l-35 -245q-5 -38 -35 -64t-67 -26h-1198q-37 0 -59.5 26t-17.5 64zM2239 1878q36 0 52.5 -19.5t11.5 -54.5l-243 -1729q-4 -36 -26.5 -55.5t-58.5 -19.5h-600q-74 0 -65 75l29 205q-115 -148 -292.5 -234t-404.5 -86
q-633 0 -537 684l163 1160q5 35 27.5 54.5t57.5 19.5h601q36 0 52.5 -19.5t11.5 -54.5l-129 -915q-24 -173 23 -248t164 -75q135 0 233 98t123 275l121 865q5 35 27.5 54.5t58.5 19.5h600z" />
    <glyph glyph-name="Uring" unicode="&#x16e;" horiz-adv-x="2788" 
d="M1610 2625q-206 0 -348 139t-142 341q0 159 92.5 299t241 221t308.5 81q136 0 248.5 -64t177 -175t64.5 -245q0 -120 -55 -231.5t-144 -191t-206 -127t-237 -47.5zM1660 2980q85 0 145.5 61.5t60.5 144.5q0 69 -42.5 117t-111.5 48q-84 0 -145.5 -63.5t-61.5 -146.5
q0 -67 43 -114t112 -47zM2778 2440q31 0 50 -22t15 -53l-187 -1325q-31 -217 -118 -395.5t-215.5 -304.5t-297 -212.5t-361.5 -127t-408 -40.5t-396.5 40.5t-325.5 127t-237.5 212.5t-130.5 304.5t-6 395.5l187 1325q4 31 29 53t56 22h635q31 0 50 -22t14 -53l-162 -1156
q-42 -295 49.5 -454t327.5 -159q235 0 371 159t178 454l163 1156q4 31 29 53t56 22h635z" />
    <glyph glyph-name="uring" unicode="&#x16f;" horiz-adv-x="2328" 
d="M1301 2063q-206 0 -348 139t-142 341q0 159 92.5 299t241 221t308.5 81q136 0 248.5 -64t177 -175t64.5 -245q0 -120 -55 -231.5t-144 -191t-206 -127t-237 -47.5zM1351 2418q85 0 145.5 61.5t60.5 144.5q0 69 -42.5 117t-111.5 48q-84 0 -145.5 -63.5t-61.5 -146.5
q0 -67 43 -114t112 -47zM2239 1878q36 0 52.5 -19.5t11.5 -54.5l-243 -1729q-4 -36 -26.5 -55.5t-58.5 -19.5h-600q-74 0 -65 75l29 205q-115 -148 -292.5 -234t-404.5 -86q-633 0 -537 684l163 1160q5 35 27.5 54.5t57.5 19.5h601q36 0 52.5 -19.5t11.5 -54.5l-129 -915
q-24 -173 23 -248t164 -75q135 0 233 98t123 275l121 865q5 35 27.5 54.5t58.5 19.5h600z" />
    <glyph glyph-name="Uhungarumlaut" unicode="&#x170;" horiz-adv-x="2788" 
d="M1370 2655q-28 -33 -65 -42.5t-65 8.5l-149 94q-28 19 -32 57.5t17 72.5l485 779q22 34 59.5 43.5t66.5 -9.5l260 -161q34 -21 39 -56t-23 -68zM1952 2625q-41 -15 -73 -3t-43 44l-59 169q-10 33 9 69.5t54 55.5l807 440q37 19 69.5 7t44.5 -47l103 -291
q13 -38 -3.5 -72.5t-55.5 -48.5zM2778 2440q31 0 50 -22t15 -53l-187 -1325q-31 -217 -118 -395.5t-215.5 -304.5t-297 -212.5t-361.5 -127t-408 -40.5t-396.5 40.5t-325.5 127t-237.5 212.5t-130.5 304.5t-6 395.5l187 1325q4 31 29 53t56 22h635q31 0 50 -22t14 -53
l-162 -1156q-42 -295 49.5 -454t327.5 -159q235 0 371 159t178 454l163 1156q4 31 29 53t56 22h635z" />
    <glyph glyph-name="uhungarumlaut" unicode="&#x171;" horiz-adv-x="2328" 
d="M1061 2093q-28 -33 -65 -42.5t-65 8.5l-149 94q-28 19 -32 57.5t17 72.5l485 779q22 34 59.5 43.5t66.5 -9.5l260 -161q34 -21 39 -56t-23 -68zM1643 2063q-41 -15 -73 -3t-43 44l-59 169q-10 33 9 69.5t54 55.5l807 440q37 19 69.5 7t44.5 -47l103 -291
q13 -38 -3.5 -72.5t-55.5 -48.5zM2239 1878q36 0 52.5 -19.5t11.5 -54.5l-243 -1729q-4 -36 -26.5 -55.5t-58.5 -19.5h-600q-74 0 -65 75l29 205q-115 -148 -292.5 -234t-404.5 -86q-633 0 -537 684l163 1160q5 35 27.5 54.5t57.5 19.5h601q36 0 52.5 -19.5t11.5 -54.5
l-129 -915q-24 -173 23 -248t164 -75q135 0 233 98t123 275l121 865q5 35 27.5 54.5t58.5 19.5h600z" />
    <glyph glyph-name="Uogonek" unicode="&#x172;" horiz-adv-x="2788" 
d="M2778 2440q31 0 50 -22t15 -53l-187 -1325q-32 -226 -123.5 -409t-231 -311t-314.5 -210.5t-383 -119.5q-105 -67 -175.5 -159t-70.5 -179q0 -53 31.5 -81.5t92.5 -28.5q41 0 89 12q41 9 60 -7t14 -56l-32 -227q-9 -63 -74 -90q-130 -54 -297 -54q-186 0 -303 100.5
t-117 261.5q0 136 67 262t185 224q-185 17 -338 67.5t-273.5 139.5t-197 211.5t-105 288.5t-0.5 365l187 1325q4 31 29 53t56 22h635q31 0 50 -22t14 -53l-162 -1156q-42 -295 49.5 -454t327.5 -159q235 0 371 159t178 454l163 1156q4 31 29 53t56 22h635z" />
    <glyph glyph-name="uogonek" unicode="&#x173;" horiz-adv-x="2328" 
d="M2239 1878q36 0 52.5 -19.5t11.5 -54.5l-243 -1729q-4 -36 -26.5 -55.5t-58.5 -19.5h-266q-111 -65 -187 -161t-76 -187q0 -53 31.5 -81.5t92.5 -28.5q41 0 89 12q41 9 60 -7t14 -56l-32 -227q-9 -63 -74 -90q-130 -54 -297 -54q-186 0 -303 100.5t-117 261.5
q0 175 109 331t290 254q0 1 0.5 4t0.5 4l29 205q-115 -148 -292.5 -234t-404.5 -86q-633 0 -537 684l163 1160q5 35 27.5 54.5t57.5 19.5h601q36 0 52.5 -19.5t11.5 -54.5l-129 -915q-24 -173 23 -248t164 -75q135 0 233 98t123 275l121 865q5 35 27.5 54.5t58.5 19.5h600z
" />
    <glyph glyph-name="Wcircumflex" unicode="&#x174;" horiz-adv-x="3708" 
d="M1500 2651q-59 0 -68.5 33t37.5 78l487 460q52 48 118 48h239q66 0 105 -48l357 -460q34 -45 15.5 -78t-77.5 -33h-359q-70 0 -100 59l-109 211l-169 -211q-47 -59 -117 -59h-359zM3833 2440q48 0 62 -27.5t-9 -77.5l-1075 -2278q-30 -67 -113 -67h-437q-81 0 -93 67
l-259 1279l-614 -1279q-31 -67 -113 -67h-440q-81 0 -94 67l-434 2278q-9 50 12.5 77.5t69.5 27.5h649q81 0 91 -71l173 -1229l519 1069q16 34 46 52.5t68 18.5h416q38 0 62.5 -18.5t30.5 -52.5l209 -1069l545 1229q31 71 110 71h618z" />
    <glyph glyph-name="wcircumflex" unicode="&#x175;" horiz-adv-x="3165" 
d="M1138 2089q-59 0 -68.5 33t37.5 78l487 460q52 48 118 48h239q66 0 105 -48l357 -460q34 -45 15.5 -78t-77.5 -33h-359q-70 0 -100 59l-109 211l-169 -211q-47 -59 -117 -59h-359zM3183 1878q61 0 85 -46t-6 -104l-867 -1675q-32 -63 -100 -63h-358q-69 0 -85 60
l-270 883l-517 -883q-33 -60 -103 -60h-359q-67 0 -82 63l-396 1675q-14 58 22.5 104t97.5 46h598q28 0 46.5 -14.5t20.5 -38.5l138 -796l360 661q30 62 106 62h365q76 0 89 -62l174 -661l364 796q9 24 31.5 38.5t50.5 14.5h595z" />
    <glyph glyph-name="Ycircumflex" unicode="&#x176;" horiz-adv-x="2690" 
d="M990 2651q-59 0 -68.5 33t37.5 78l487 460q52 48 118 48h239q66 0 105 -48l357 -460q34 -45 15.5 -78t-77.5 -33h-359q-70 0 -100 59l-109 211l-169 -211q-47 -59 -117 -59h-359zM2809 2440q49 0 66.5 -31t-12.5 -74l-1140 -1556l-99 -704q-4 -31 -29.5 -53t-56.5 -22
h-635q-31 0 -49.5 22t-14.5 53l99 703l-718 1557q-20 43 6.5 74t76.5 31h674q62 0 91 -71l384 -932l617 932q44 71 113 71h627z" />
    <glyph glyph-name="ycircumflex" unicode="&#x177;" horiz-adv-x="2269" 
d="M658 2089q-59 0 -68.5 33t37.5 78l487 460q52 48 118 48h239q66 0 105 -48l357 -460q34 -45 15.5 -78t-77.5 -33h-359q-70 0 -100 59l-109 211l-169 -211q-47 -59 -117 -59h-359zM2285 1878q62 0 87 -47t-10 -105l-916 -1483q-109 -177 -203 -305t-198.5 -235.5
t-209 -177t-231 -118t-269.5 -69t-319 -20.5q-35 0 -54.5 21.5t-14.5 56.5l54 386q9 66 79 74q122 15 210.5 54t179 124.5t201.5 238.5l-542 1453q-21 57 18 104.5t103 47.5h631q51 0 68 -52l232 -732l422 732q29 52 84 52h598z" />
    <glyph glyph-name="Ydieresis" unicode="&#x178;" horiz-adv-x="2690" 
d="M1149 2659q-123 0 -203.5 83t-80.5 206q0 148 113.5 256.5t262.5 108.5q123 0 204 -83.5t81 -205.5q0 -148 -114 -256.5t-263 -108.5zM2043 2659q-123 0 -203.5 83t-80.5 206q0 148 113.5 256.5t262.5 108.5q123 0 204 -83.5t81 -205.5q0 -148 -113.5 -256.5
t-263.5 -108.5zM2809 2440q49 0 66.5 -31t-12.5 -74l-1140 -1556l-99 -704q-4 -31 -29.5 -53t-56.5 -22h-635q-31 0 -49.5 22t-14.5 53l99 703l-718 1557q-20 43 6.5 74t76.5 31h674q62 0 91 -71l384 -932l617 932q44 71 113 71h627z" />
    <glyph glyph-name="Zacute" unicode="&#x179;" horiz-adv-x="2644" 
d="M1401 2625q-41 -15 -73 -3t-43 44l-59 169q-11 33 8 69.5t55 55.5l807 440q36 19 69 6.5t44 -46.5l103 -291q13 -39 -3 -73t-55 -48zM63 0q-42 0 -62 23.5t-14 66.5l22 157q9 64 54 111l1373 1446h-1034q-30 0 -49 22t-15 53l69 486q4 31 29 53t56 22h2142
q42 0 62.5 -23.5t14.5 -66.5l-22 -157q-9 -66 -52 -111l-1362 -1446h1150q31 0 50 -22t15 -53l-69 -486q-5 -31 -29.5 -53t-55.5 -22h-2273z" />
    <glyph glyph-name="zacute" unicode="&#x17a;" horiz-adv-x="2153" 
d="M1047 2063q-41 -15 -73 -3t-43 44l-59 169q-11 33 8 69.5t55 55.5l807 440q36 19 69 6.5t44 -46.5l103 -291q13 -39 -3 -73t-55 -48zM13 0q-42 0 -62 23t-15 65l6 40q8 61 52 111l927 1048h-612q-31 0 -50 22t-14 53l62 442q5 30 29.5 52t55.5 22h1671q43 0 64 -22
t15 -64l-7 -42q-8 -58 -51 -110l-965 -1078h765q31 0 50 -22t15 -53l-59 -412q-4 -31 -29 -53t-56 -22h-1792z" />
    <glyph glyph-name="Zdotaccent" unicode="&#x17b;" horiz-adv-x="2644" 
d="M1611 2600q-146 0 -242 99t-96 244q0 175 135 304t311 129q146 0 242 -99.5t96 -244.5q0 -115 -62.5 -215t-165.5 -158.5t-218 -58.5zM63 0q-42 0 -62 23.5t-14 66.5l22 157q9 64 54 111l1373 1446h-1034q-30 0 -49 22t-15 53l69 486q4 31 29 53t56 22h2142
q42 0 62.5 -23.5t14.5 -66.5l-22 -157q-9 -66 -52 -111l-1362 -1446h1150q31 0 50 -22t15 -53l-69 -486q-5 -31 -29.5 -53t-55.5 -22h-2273z" />
    <glyph glyph-name="zdotaccent" unicode="&#x17c;" horiz-adv-x="2153" 
d="M1257 2038q-146 0 -242 99t-96 244q0 175 135 304t311 129q146 0 242 -99.5t96 -244.5q0 -115 -62.5 -215t-165.5 -158.5t-218 -58.5zM13 0q-42 0 -62 23t-15 65l6 40q8 61 52 111l927 1048h-612q-31 0 -50 22t-14 53l62 442q5 30 29.5 52t55.5 22h1671q43 0 64 -22
t15 -64l-7 -42q-8 -58 -51 -110l-965 -1078h765q31 0 50 -22t15 -53l-59 -412q-4 -31 -29 -53t-56 -22h-1792z" />
    <glyph glyph-name="Zcaron" unicode="&#x17d;" horiz-adv-x="2644" 
d="M1836 3210q46 60 116 60h359q59 0 68.5 -33.5t-37.5 -77.5l-487 -461q-51 -47 -117 -47h-240q-67 0 -104 47l-358 461q-34 44 -15 77.5t78 33.5h359q71 0 100 -60l109 -210zM63 0q-42 0 -62 23.5t-14 66.5l22 157q9 64 54 111l1373 1446h-1034q-30 0 -49 22t-15 53
l69 486q4 31 29 53t56 22h2142q42 0 62.5 -23.5t14.5 -66.5l-22 -157q-9 -66 -52 -111l-1362 -1446h1150q31 0 50 -22t15 -53l-69 -486q-5 -31 -29.5 -53t-55.5 -22h-2273z" />
    <glyph glyph-name="zcaron" unicode="&#x17e;" horiz-adv-x="2153" 
d="M1482 2648q46 60 116 60h359q59 0 68.5 -33.5t-37.5 -77.5l-487 -461q-51 -47 -117 -47h-240q-67 0 -104 47l-358 461q-34 44 -15 77.5t78 33.5h359q71 0 100 -60l109 -210zM13 0q-42 0 -62 23t-15 65l6 40q8 61 52 111l927 1048h-612q-31 0 -50 22t-14 53l62 442
q5 30 29.5 52t55.5 22h1671q43 0 64 -22t15 -64l-7 -42q-8 -58 -51 -110l-965 -1078h765q31 0 50 -22t15 -53l-59 -412q-4 -31 -29 -53t-56 -22h-1792z" />
    <glyph glyph-name="Scommaaccent" unicode="&#x218;" horiz-adv-x="2334" 
d="M1095 1779q0 -41 48.5 -76t107 -56t170.5 -55q95 -29 147 -46t146 -54.5t149.5 -72t126.5 -92t110 -120t67 -150t28 -188.5q0 -183 -70 -335.5t-189 -257t-280.5 -177t-341.5 -106t-374 -33.5q-259 0 -482.5 60.5t-395.5 159.5q-65 43 -21 122l227 381q47 78 117 43
q84 -41 118.5 -57t106 -45t120.5 -40.5t121.5 -21.5t149.5 -10q161 0 250.5 40t89.5 118q0 44 -36 80t-96.5 63t-139.5 53t-166 56t-174 66.5t-166 90t-139.5 120.5t-96.5 164t-36 215q0 194 80.5 357t228 277.5t363 178.5t477.5 64q144 0 282 -20t243.5 -52.5t181.5 -64.5
t130 -65q69 -44 24 -119l-208 -346q-49 -81 -133 -40q-62 32 -103 51t-115 47.5t-155 42.5t-167 14q-165 0 -245 -47t-80 -117zM978 -232q54 0 103.5 -18t90 -52.5t64.5 -93t24 -132.5q0 -139 -85 -300t-222.5 -296t-290.5 -210q-21 -9 -40 -4.5t-31 19.5l-38 52
q-14 18 -9.5 42.5t25.5 44.5q6 5 33.5 29t36.5 33t31.5 31t31 36.5t21.5 36t17.5 43t4.5 45.5q0 40 -17 68.5t-50 60.5q-75 75 -75 195q0 100 52.5 186t138.5 135t184 49z" />
    <glyph glyph-name="scommaaccent" unicode="&#x219;" horiz-adv-x="1986" 
d="M976 1355q0 -30 29.5 -55t79.5 -44.5t114.5 -39t136 -43t143 -52.5t136 -72.5t114.5 -96.5t79.5 -130.5t29.5 -170.5q0 -140 -51.5 -256t-144 -198.5t-220 -140t-278.5 -84.5t-322 -27q-239 0 -455.5 51.5t-326.5 126.5q-37 27 -42.5 55t16.5 64l181 298q51 86 128 47
q141 -73 247 -107t242 -34q96 0 155 23.5t59 74.5q0 30 -28.5 54.5t-76 44.5t-110 39.5t-131 44t-137 53.5t-131 72t-110 95.5t-76 128.5t-28.5 166q0 211 118 368t332 240t496 83q221 0 420 -51.5t309 -127.5q36 -26 43 -51.5t-16 -67.5l-160 -265q-50 -86 -123 -45
q-220 131 -437 131q-102 0 -153 -27t-51 -74zM815 -232q54 0 103.5 -18t90 -52.5t64.5 -93t24 -132.5q0 -139 -85 -300t-222.5 -296t-290.5 -210q-21 -9 -40 -4.5t-31 19.5l-38 52q-14 18 -9.5 42.5t25.5 44.5q6 5 33.5 29t36.5 33t31.5 31t31 36.5t21.5 36t17.5 43
t4.5 45.5q0 40 -17 68.5t-50 60.5q-75 75 -75 195q0 100 52.5 186t138.5 135t184 49z" />
    <glyph glyph-name="uni021A" unicode="&#x21a;" horiz-adv-x="2510" 
d="M2560 2440q31 0 50 -22t14 -53l-68 -486q-4 -31 -29.5 -53t-56.5 -22h-701l-243 -1729q-4 -31 -29.5 -53t-55.5 -22h-636q-31 0 -50 22t-14 53l243 1729h-702q-30 0 -49 22t-15 53l69 486q4 31 29 53t56 22h1411h777zM1087 -232q54 0 103.5 -18t90 -52.5t64.5 -93
t24 -132.5q0 -139 -85 -300t-222.5 -296t-290.5 -210q-21 -9 -40 -4.5t-31 19.5l-38 52q-14 18 -9.5 42.5t25.5 44.5q6 5 33.5 29t36.5 33t31.5 31t31 36.5t21.5 36t17.5 43t4.5 45.5q0 40 -17 68.5t-50 60.5q-75 75 -75 195q0 100 52.5 186t138.5 135t184 49z" />
    <glyph glyph-name="uni021B" unicode="&#x21b;" horiz-adv-x="1849" 
d="M1732 1878q43 0 63 -23t14 -66l-56 -398q-6 -43 -32.5 -66t-69.5 -23h-496l-69 -489q-21 -144 14 -217.5t145 -73.5q97 0 225 65q90 45 117 -39l97 -302q25 -78 -52 -120q-164 -89 -326.5 -135t-364.5 -46q-217 0 -369.5 82t-222 236.5t-40.5 361.5l95 677h-201
q-42 0 -62.5 23t-14.5 66l56 398q6 43 33 66t69 23h201l35 245q11 77 103 105l582 163q49 14 74.5 -2.5t19.5 -58.5l-63 -452h496zM861 -232q54 0 103.5 -18t90 -52.5t64.5 -93t24 -132.5q0 -139 -85 -300t-222.5 -296t-290.5 -210q-21 -9 -40 -4.5t-31 19.5l-38 52
q-14 18 -9.5 42.5t25.5 44.5q6 5 33.5 29t36.5 33t31.5 31t31 36.5t21.5 36t17.5 43t4.5 45.5q0 40 -17 68.5t-50 60.5q-75 75 -75 195q0 100 52.5 186t138.5 135t184 49z" />
    <glyph glyph-name="circumflex" unicode="&#x2c6;" horiz-adv-x="1370" 
d="M826 2148l-109 211l-169 -211q-47 -59 -117 -59h-359q-59 0 -68.5 33t37.5 78l487 460q52 48 118 48h239q66 0 105 -48l357 -460q34 -45 15.5 -78t-77.5 -33h-359q-70 0 -100 59z" />
    <glyph glyph-name="caron" unicode="&#x2c7;" horiz-adv-x="1370" 
d="M823 2648q47 60 116 60h359q59 0 68.5 -33.5t-37.5 -77.5l-487 -461q-51 -47 -117 -47h-240q-67 0 -104 47l-358 461q-34 44 -15 77.5t78 33.5h359q71 0 100 -60l109 -210z" />
    <glyph glyph-name="breve" unicode="&#x2d8;" horiz-adv-x="2408" 
d="M1335 2748q76 0 76 -68q0 -116 -62.5 -230t-167.5 -202.5t-253 -143.5t-308 -55q-182 0 -325 73.5t-219.5 196.5t-76.5 271q0 82 23 120t78 38h227q86 0 94 -72q12 -116 76.5 -167t179.5 -51q117 0 195.5 51t123.5 170q28 69 113 69h226z" />
    <glyph glyph-name="dotaccent" unicode="&#x2d9;" horiz-adv-x="1076" 
d="M484 2038q-146 0 -242 99t-96 244q0 175 135 304t311 129q146 0 242 -99.5t96 -244.5q0 -115 -62.5 -215t-165.5 -158.5t-218 -58.5z" />
    <glyph glyph-name="ring" unicode="&#x2da;" horiz-adv-x="1062" 
d="M455 1915q-206 0 -348 139t-142 341q0 159 92.5 299t241 221t308.5 81q136 0 248.5 -64t177 -175t64.5 -245q0 -120 -55 -231.5t-144 -191t-206 -127t-237 -47.5zM505 2270q85 0 145.5 61.5t60.5 144.5q0 69 -42.5 117t-111.5 48q-84 0 -145.5 -63.5t-61.5 -146.5
q0 -67 43 -114t112 -47z" />
    <glyph glyph-name="ogonek" unicode="&#x2db;" horiz-adv-x="1223" 
d="M421 -880q-186 0 -303 100.5t-117 261.5q0 199 138.5 370.5t357.5 260.5l305 -112q-112 -65 -188.5 -161.5t-76.5 -187.5q0 -53 31.5 -81.5t92.5 -28.5q41 0 89 12q41 9 60 -7t14 -56l-32 -227q-9 -63 -74 -90q-130 -54 -297 -54z" />
    <glyph glyph-name="tilde" unicode="&#x2dc;" horiz-adv-x="2479" 
d="M1533 2726q44 0 63 -38.5t1 -105.5q-64 -241 -210 -365t-328 -124q-84 0 -149.5 21.5t-106 52.5t-75 62t-76.5 52.5t-91 21.5q-69 0 -120.5 -36.5t-77.5 -92.5q-21 -42 -45 -61.5t-63 -19.5h-109q-43 0 -64 24.5t-11 69.5q57 258 208.5 398.5t340.5 140.5
q84 0 149.5 -21.5t106 -52t75.5 -61.5t77 -52.5t91 -21.5q71 0 121 35t76 93q21 41 45.5 61t62.5 20h109z" />
    <glyph glyph-name="hungarumlaut" unicode="&#x2dd;" horiz-adv-x="1802" 
d="M305 2093q-28 -33 -65 -42.5t-65 8.5l-149 94q-28 19 -32 57.5t17 72.5l485 779q22 34 59.5 43.5t66.5 -9.5l260 -161q34 -21 39 -56t-23 -68zM887 2063q-41 -15 -73 -3t-43 44l-59 169q-10 33 9 69.5t54 55.5l807 440q37 19 69.5 7t44.5 -47l103 -291q13 -38 -3.5 -72.5
t-55.5 -48.5z" />
    <glyph glyph-name="uni0326" unicode="&#x326;" horiz-adv-x="0" 
d="M-1768 -232q54 0 103.5 -18t90 -52.5t64.5 -93t24 -132.5q0 -139 -85 -300t-222.5 -296t-290.5 -210q-21 -9 -40 -4.5t-31 19.5l-38 52q-14 18 -9.5 42.5t25.5 44.5q6 5 33.5 29t36.5 33t31.5 31t31 36.5t21.5 36t17.5 43t4.5 45.5q0 40 -17 68.5t-50 60.5
q-75 75 -75 195q0 100 52.5 186t138.5 135t184 49z" />
    <glyph glyph-name="uni0335" unicode="&#x335;" horiz-adv-x="0" 
 />
    <glyph glyph-name="uni0336" unicode="&#x336;" horiz-adv-x="0" 
d="M-2021 1187q-43 0 -63 23.5t-14 65.5l38 269q6 43 32.5 66.5t69.5 23.5h1371q42 0 62.5 -23.5t14.5 -66.5l-38 -269q-6 -42 -32.5 -65.5t-69.5 -23.5h-1371z" />
    <glyph glyph-name="uni0337" unicode="&#x337;" horiz-adv-x="0" 
 />
    <glyph glyph-name="Wgrave" unicode="&#x1e80;" horiz-adv-x="3708" 
d="M1480 2948q-35 14 -41.5 48.5t17.5 72.5l184 291q22 35 58 47t68 -7l683 -440q31 -19 39 -55t-12 -70l-105 -169q-21 -32 -56.5 -44t-71.5 3zM3833 2440q48 0 62 -27.5t-9 -77.5l-1075 -2278q-30 -67 -113 -67h-437q-81 0 -93 67l-259 1279l-614 -1279q-31 -67 -113 -67
h-440q-81 0 -94 67l-434 2278q-9 50 12.5 77.5t69.5 27.5h649q81 0 91 -71l173 -1229l519 1069q16 34 46 52.5t68 18.5h416q38 0 62.5 -18.5t30.5 -52.5l209 -1069l545 1229q31 71 110 71h618z" />
    <glyph glyph-name="wgrave" unicode="&#x1e81;" horiz-adv-x="3165" 
d="M1118 2386q-35 14 -41.5 48.5t17.5 72.5l184 291q22 35 58 47t68 -7l683 -440q31 -19 39 -55t-12 -70l-105 -169q-21 -32 -56.5 -44t-71.5 3zM3183 1878q61 0 85 -46t-6 -104l-867 -1675q-32 -63 -100 -63h-358q-69 0 -85 60l-270 883l-517 -883q-33 -60 -103 -60h-359
q-67 0 -82 63l-396 1675q-14 58 22.5 104t97.5 46h598q28 0 46.5 -14.5t20.5 -38.5l138 -796l360 661q30 62 106 62h365q76 0 89 -62l174 -661l364 796q9 24 31.5 38.5t50.5 14.5h595z" />
    <glyph glyph-name="Wacute" unicode="&#x1e82;" horiz-adv-x="3708" 
d="M1774 2666l-59 169q-11 33 8 69.5t55 55.5l807 440q36 19 69 6.5t44 -46.5l103 -291q13 -39 -3 -73t-55 -48l-853 -323q-41 -15 -73 -3t-43 44zM3833 2440q48 0 62 -27.5t-9 -77.5l-1075 -2278q-30 -67 -113 -67h-437q-81 0 -93 67l-259 1279l-614 -1279
q-31 -67 -113 -67h-440q-81 0 -94 67l-434 2278q-9 50 12.5 77.5t69.5 27.5h649q81 0 91 -71l173 -1229l519 1069q16 34 46 52.5t68 18.5h416q38 0 62.5 -18.5t30.5 -52.5l209 -1069l545 1229q31 71 110 71h618z" />
    <glyph glyph-name="wacute" unicode="&#x1e83;" horiz-adv-x="3165" 
d="M1412 2104l-59 169q-11 33 8 69.5t55 55.5l807 440q36 19 69 6.5t44 -46.5l103 -291q13 -39 -3 -73t-55 -48l-853 -323q-41 -15 -73 -3t-43 44zM3183 1878q61 0 85 -46t-6 -104l-867 -1675q-32 -63 -100 -63h-358q-69 0 -85 60l-270 883l-517 -883q-33 -60 -103 -60h-359
q-67 0 -82 63l-396 1675q-14 58 22.5 104t97.5 46h598q28 0 46.5 -14.5t20.5 -38.5l138 -796l360 661q30 62 106 62h365q76 0 89 -62l174 -661l364 796q9 24 31.5 38.5t50.5 14.5h595z" />
    <glyph glyph-name="Wdieresis" unicode="&#x1e84;" horiz-adv-x="3708" 
d="M1659 2659q-123 0 -203.5 83t-80.5 206q0 148 113.5 256.5t262.5 108.5q123 0 204 -83.5t81 -205.5q0 -148 -114 -256.5t-263 -108.5zM2553 2659q-123 0 -203.5 83t-80.5 206q0 148 113.5 256.5t262.5 108.5q123 0 204 -83.5t81 -205.5q0 -148 -113.5 -256.5
t-263.5 -108.5zM3833 2440q48 0 62 -27.5t-9 -77.5l-1075 -2278q-30 -67 -113 -67h-437q-81 0 -93 67l-259 1279l-614 -1279q-31 -67 -113 -67h-440q-81 0 -94 67l-434 2278q-9 50 12.5 77.5t69.5 27.5h649q81 0 91 -71l173 -1229l519 1069q16 34 46 52.5t68 18.5h416
q38 0 62.5 -18.5t30.5 -52.5l209 -1069l545 1229q31 71 110 71h618z" />
    <glyph glyph-name="wdieresis" unicode="&#x1e85;" horiz-adv-x="3165" 
d="M1297 2097q-123 0 -203.5 83t-80.5 206q0 148 113.5 256.5t262.5 108.5q123 0 204 -83.5t81 -205.5q0 -148 -114 -256.5t-263 -108.5zM2191 2097q-123 0 -203.5 83t-80.5 206q0 148 113.5 256.5t262.5 108.5q123 0 204 -83.5t81 -205.5q0 -148 -113.5 -256.5
t-263.5 -108.5zM3183 1878q61 0 85 -46t-6 -104l-867 -1675q-32 -63 -100 -63h-358q-69 0 -85 60l-270 883l-517 -883q-33 -60 -103 -60h-359q-67 0 -82 63l-396 1675q-14 58 22.5 104t97.5 46h598q28 0 46.5 -14.5t20.5 -38.5l138 -796l360 661q30 62 106 62h365
q76 0 89 -62l174 -661l364 796q9 24 31.5 38.5t50.5 14.5h595z" />
    <glyph glyph-name="Ygrave" unicode="&#x1ef2;" horiz-adv-x="2690" 
d="M970 2948q-35 14 -41.5 48.5t17.5 72.5l184 291q22 35 58 47t68 -7l683 -440q31 -19 39 -55t-12 -70l-105 -169q-21 -32 -56.5 -44t-71.5 3zM2809 2440q49 0 66.5 -31t-12.5 -74l-1140 -1556l-99 -704q-4 -31 -29.5 -53t-56.5 -22h-635q-31 0 -49.5 22t-14.5 53l99 703
l-718 1557q-20 43 6.5 74t76.5 31h674q62 0 91 -71l384 -932l617 932q44 71 113 71h627z" />
    <glyph glyph-name="ygrave" unicode="&#x1ef3;" horiz-adv-x="2269" 
d="M638 2386q-35 14 -41.5 48.5t17.5 72.5l184 291q22 35 58 47t68 -7l683 -440q31 -19 39 -55t-12 -70l-105 -169q-21 -32 -56.5 -44t-71.5 3zM2285 1878q62 0 87 -47t-10 -105l-916 -1483q-109 -177 -203 -305t-198.5 -235.5t-209 -177t-231 -118t-269.5 -69t-319 -20.5
q-35 0 -54.5 21.5t-14.5 56.5l54 386q9 66 79 74q122 15 210.5 54t179 124.5t201.5 238.5l-542 1453q-21 57 18 104.5t103 47.5h631q51 0 68 -52l232 -732l422 732q29 52 84 52h598z" />
    <glyph glyph-name="endash" unicode="&#x2013;" horiz-adv-x="2231" 
d="M106 677q-43 0 -63 23.5t-14 66.5l45 328q6 43 33 66t70 23h1948q43 0 63 -23t14 -66l-46 -328q-6 -43 -32.5 -66.5t-69.5 -23.5h-1948z" />
    <glyph glyph-name="emdash" unicode="&#x2014;" horiz-adv-x="3431" 
d="M106 677q-43 0 -63 23.5t-14 66.5l45 328q6 43 33 66t70 23h3148q43 0 63 -23t14 -66l-46 -328q-6 -43 -32.5 -66.5t-69.5 -23.5h-3148z" />
    <glyph glyph-name="quoteleft" unicode="&#x2018;" horiz-adv-x="1035" 
d="M596 1374q-64 0 -122.5 21.5t-106.5 63t-76.5 110.5t-28.5 157q0 165 100.5 355.5t263.5 350.5t346 249q25 12 47 7t35 -22l47 -64q16 -22 11.5 -51t-30.5 -53q-8 -7 -46 -40.5t-50.5 -45.5t-40 -43t-38.5 -52t-21.5 -53t-10.5 -64q0 -47 20.5 -81t59.5 -72
q89 -90 89 -232q0 -120 -63 -222.5t-166 -160.5t-219 -58z" />
    <glyph glyph-name="quoteright" unicode="&#x2019;" horiz-adv-x="1036" 
d="M736 2614q64 0 122.5 -21.5t106.5 -63t76.5 -110.5t28.5 -157q0 -165 -100.5 -355.5t-263.5 -350.5t-346 -249q-25 -12 -47 -7t-35 22l-47 64q-16 22 -11.5 51t30.5 53q8 7 46 40.5t50.5 45.5t40 43t38.5 52t21.5 53t10.5 64q0 47 -20.5 81t-59.5 72q-89 90 -89 232
q0 120 63 222.5t166 160.5t219 58z" />
    <glyph glyph-name="quotesinglbase" unicode="&#x201a;" horiz-adv-x="1036" 
d="M472 736q64 0 122.5 -21.5t106.5 -63t76.5 -110.5t28.5 -157q0 -165 -100.5 -355.5t-263.5 -350.5t-346 -249q-25 -12 -47 -7t-35 22l-47 64q-16 22 -11.5 51t30.5 53q8 7 46 40.5t50.5 45.5t40 43t38.5 52t21.5 53t10.5 64q0 47 -20.5 81t-59.5 72q-89 90 -89 232
q0 120 63 222.5t166 160.5t219 58z" />
    <glyph glyph-name="quotedblleft" unicode="&#x201c;" horiz-adv-x="1931" 
d="M596 1374q-64 0 -122.5 21.5t-106.5 63t-76.5 110.5t-28.5 157q0 165 100.5 355.5t263.5 350.5t346 249q25 12 47 7t35 -22l47 -64q16 -22 11.5 -51t-30.5 -53q-8 -7 -46 -40.5t-50.5 -45.5t-40 -43t-38.5 -52t-21.5 -53t-10.5 -64q0 -47 20.5 -81t59.5 -72
q89 -90 89 -232q0 -120 -63 -222.5t-166 -160.5t-219 -58zM1492 1374q-64 0 -122.5 21.5t-106.5 63t-76.5 110.5t-28.5 157q0 165 100.5 355.5t263.5 350.5t346 249q25 12 47 7t35 -22l47 -64q16 -22 11.5 -51t-30.5 -53q-8 -7 -46 -40.5t-50.5 -45.5t-40 -43t-38.5 -52
t-21.5 -53t-10.5 -64q0 -47 20.5 -81t59.5 -72q89 -90 89 -232q0 -120 -63 -222.5t-166 -160.5t-219 -58z" />
    <glyph glyph-name="quotedblright" unicode="&#x201d;" horiz-adv-x="1932" 
d="M736 2614q64 0 122.5 -21.5t106.5 -63t76.5 -110.5t28.5 -157q0 -165 -100.5 -355.5t-263.5 -350.5t-346 -249q-25 -12 -47 -7t-35 22l-47 64q-16 22 -11.5 51t30.5 53q8 7 46 40.5t50.5 45.5t40 43t38.5 52t21.5 53t10.5 64q0 47 -20.5 81t-59.5 72q-89 90 -89 232
q0 120 63 222.5t166 160.5t219 58zM1632 2614q64 0 122.5 -21.5t106.5 -63t76.5 -110.5t28.5 -157q0 -165 -100.5 -355.5t-263.5 -350.5t-346 -249q-25 -12 -47 -7t-35 22l-47 64q-16 22 -11.5 51t30.5 53q8 7 46 40.5t50.5 45.5t40 43t38.5 52t21.5 53t10.5 64
q0 47 -20.5 81t-59.5 72q-89 90 -89 232q0 120 63 222.5t166 160.5t219 58z" />
    <glyph glyph-name="quotedblbase" unicode="&#x201e;" horiz-adv-x="1932" 
d="M472 736q64 0 122.5 -21.5t106.5 -63t76.5 -110.5t28.5 -157q0 -165 -100.5 -355.5t-263.5 -350.5t-346 -249q-25 -12 -47 -7t-35 22l-47 64q-16 22 -11.5 51t30.5 53q8 7 46 40.5t50.5 45.5t40 43t38.5 52t21.5 53t10.5 64q0 47 -20.5 81t-59.5 72q-89 90 -89 232
q0 120 63 222.5t166 160.5t219 58zM1368 736q64 0 122.5 -21.5t106.5 -63t76.5 -110.5t28.5 -157q0 -165 -100.5 -355.5t-263.5 -350.5t-346 -249q-25 -12 -47 -7t-35 22l-47 64q-16 22 -11.5 51t30.5 53q8 7 46 40.5t50.5 45.5t40 43t38.5 52t21.5 53t10.5 64
q0 47 -20.5 81t-59.5 72q-89 90 -89 232q0 120 63 222.5t166 160.5t219 58z" />
    <glyph glyph-name="dagger" unicode="&#x2020;" horiz-adv-x="1900" 
d="M1884 2077q43 0 63 -23.5t14 -66.5l-43 -308q-6 -43 -32.5 -66.5t-69.5 -23.5h-481l-241 -1714q-4 -36 -27 -55.5t-59 -19.5h-437q-74 0 -63 75l240 1714h-481q-42 0 -62.5 23.5t-14.5 66.5l44 308q6 43 32.5 66.5t69.5 23.5h481l85 608q11 75 85 75h437q74 0 65 -75
l-85 -608h480z" />
    <glyph glyph-name="daggerdbl" unicode="&#x2021;" horiz-adv-x="1900" 
d="M1884 2077q42 0 62.5 -23.5t14.5 -66.5l-43 -308q-6 -43 -32.5 -66.5t-69.5 -23.5h-481l-88 -618h482q43 0 63 -23.5t14 -66.5l-44 -308q-6 -43 -32.5 -66.5t-69.5 -23.5h-481l-86 -608q-4 -36 -26.5 -55.5t-58.5 -19.5h-437q-36 0 -52.5 19.5t-11.5 55.5l85 608h-480
q-43 0 -63 23.5t-14 66.5l43 308q6 43 33 66.5t69 23.5h481l87 618h-481q-42 0 -62.5 23.5t-14.5 66.5l43 308q6 43 33 66.5t69 23.5h482l85 608q11 75 85 75h437q74 0 65 -75l-86 -608h481z" />
    <glyph glyph-name="bullet" unicode="&#x2022;" horiz-adv-x="1397" 
d="M625 394q-210 0 -347.5 141.5t-137.5 349.5q0 165 90 309t237.5 228t312.5 84q138 0 249.5 -65.5t173 -178t61.5 -248.5q0 -124 -53 -239t-140.5 -198t-205 -133t-240.5 -50z" />
    <glyph glyph-name="ellipsis" unicode="&#x2026;" horiz-adv-x="2957" 
d="M399 -40q-146 0 -242 99t-96 244q0 175 135 304t311 129q146 0 242 -99t96 -244q0 -175 -135 -304t-311 -129zM1342 -40q-146 0 -242 99t-96 244q0 175 135 304t311 129q146 0 242 -99t96 -244q0 -175 -135 -304t-311 -129zM2285 -40q-146 0 -242 99t-96 244
q0 175 135 304t311 129q146 0 242 -99t96 -244q0 -175 -135 -304t-311 -129z" />
    <glyph glyph-name="perthousand" unicode="&#x2030;" horiz-adv-x="5286" 
d="M2834 2515q26 -13 32.5 -42.5t-10.5 -57.5l-1562 -2537q-18 -28 -48.5 -39t-56.5 2l-202 102q-27 13 -34 42.5t10 57.5l1564 2537q17 28 47.5 38.5t57.5 -2.5zM1661 1712q-25 -179 -101.5 -327.5t-187.5 -247.5t-249 -153.5t-287 -54.5t-272 54.5t-206 153.5
t-118.5 247.5t-10.5 327.5t102 327.5t187.5 247.5t249 153.5t287.5 54.5t272 -54.5t206 -153.5t118 -247.5t10 -327.5zM899 1380q84 0 142 90.5t80 241.5q22 152 -11 242.5t-118 90.5q-84 0 -142 -90.5t-80 -242.5q-21 -150 12 -241t117 -91zM2987 1511q149 0 272 -54.5
t206 -153.5t117.5 -247.5t9.5 -327.5t-101.5 -327.5t-187.5 -247.5t-249 -153.5t-287 -54.5t-272 54.5t-206 153.5t-118.5 247.5t-10.5 327.5t102 327.5t188 247.5t249.5 153.5t287.5 54.5zM4530 1511q149 0 272 -54.5t206 -153.5t117.5 -247.5t9.5 -327.5t-101.5 -327.5
t-187.5 -247.5t-249 -153.5t-287 -54.5t-272 54.5t-206 153.5t-118.5 247.5t-10.5 327.5t102 327.5t188 247.5t249.5 153.5t287.5 54.5zM2830 396q84 0 142 90.5t80 241.5q22 152 -11 242.5t-118 90.5q-84 0 -142 -90.5t-80 -242.5q-21 -150 12 -241t117 -91zM4373 396
q84 0 142 90.5t80 241.5t-11.5 242t-117.5 91t-142.5 -91t-79.5 -242q-21 -150 12 -241t117 -91z" />
    <glyph glyph-name="guilsinglleft" unicode="&#x2039;" horiz-adv-x="1215" 
d="M989 1633q58 39 104.5 13.5t37.5 -90.5l-33 -231q-4 -28 -37 -54l-436 -334l342 -334q27 -25 22 -53l-32 -232q-9 -65 -63 -90.5t-101 13.5l-622 515q-23 20 -18 51l18 130l18 131q5 31 33 50z" />
    <glyph glyph-name="guilsinglright" unicode="&#x203a;" horiz-adv-x="1214" 
d="M1044 1118q22 -20 17 -50l-18 -131l-18 -130q-4 -30 -32 -51l-768 -515q-58 -39 -104.5 -13.5t-37.5 90.5l33 232q4 27 37 53l436 334l-342 334q-26 26 -22 54l32 231q9 65 63 90t100 -13z" />
    <glyph glyph-name="fraction" unicode="&#x2044;" horiz-adv-x="1327" 
d="M1339 2562q14 28 43 38.5t58 -2.5l193 -92q27 -13 37 -42t-4 -57l-1318 -2620q-14 -28 -43.5 -38.5t-56.5 2.5l-194 91q-28 13 -37.5 42.5t4.5 57.5z" />
    <glyph glyph-name="Euro" unicode="&#x20ac;" horiz-adv-x="2923" 
d="M2941 1884q16 -40 0 -72t-57 -51l-508 -226q-80 -36 -117 41q-60 135 -171.5 209t-256.5 74q-156 0 -287 -67.5t-221 -188.5h640l-208 -287h-560q-21 -91 -21 -194h618l-205 -287h-354q57 -120 165 -187t254 -67q144 0 275.5 74t231.5 209q59 76 128 41l444 -226
q36 -18 42.5 -49.5t-19.5 -73.5q-103 -155 -242.5 -274t-295.5 -191.5t-320.5 -109t-332.5 -36.5q-308 0 -560 105t-419 307.5t-216 477.5h-297l41 287h238q4 99 21 194h-232l40 287h276q114 275 338.5 478.5t514.5 308.5t612 105q168 0 322.5 -36.5t290.5 -109
t242.5 -191.5t165.5 -274z" />
    <glyph glyph-name="trademark" unicode="&#x2122;" horiz-adv-x="3671" 
d="M3681 2448q56 0 48 -55l-198 -1410q-8 -56 -63 -56h-376q-26 0 -39 14.5t-9 41.5l83 587l-440 -452q-20 -19 -42.5 -19t-36.5 19l-311 452l-83 -587q-8 -56 -64 -56h-375q-56 0 -48 56l198 1410q8 55 63 55h176q44 0 64 -30l503 -711l671 711q30 30 74 30h205zM1703 2442
q19 0 30.5 -14t8.5 -33l-42 -301q-3 -19 -18.5 -33t-34.5 -14h-436l-151 -1073q-2 -19 -17.5 -33t-34.5 -14h-395q-20 0 -31.5 14t-8.5 33l151 1073h-436q-19 0 -30.5 14t-9.5 33l43 301q2 19 18 33t35 14h876h483z" />
    <glyph glyph-name="oneeighth" unicode="&#x215b;" horiz-adv-x="4303" 
d="M2681 2532q27 -13 37 -42t-4 -57l-1318 -2620q-14 -28 -43.5 -38.5t-56.5 2.5l-194 91q-28 13 -37.5 42.5t4.5 57.5l1318 2620q14 28 43 38.5t58 -2.5zM1138 842q-3 -20 -20 -34.5t-37 -14.5h-417q-20 0 -32.5 14.5t-9.5 34.5l155 1103l-247 -107q-21 -9 -39.5 -2
t-24.5 26l-86 270q-7 20 3 39.5t31 27.5l440 184q34 14 72 14h381q20 0 32.5 -14.5t9.5 -34.5zM3595 851q116 -43 180 -138.5t64 -217.5q0 -109 -51 -203.5t-148 -168.5t-252 -116.5t-350 -42.5q-167 0 -296.5 33.5t-209 93t-120 136.5t-40.5 168q0 153 97 276.5t260 179.5
q-87 39 -141 121t-54 189q0 102 48.5 188.5t140 151.5t233.5 102t318 37q299 0 458 -107.5t159 -281.5q0 -138 -84 -243.5t-212 -156.5zM3228 1314q-86 0 -143 -47.5t-57 -122.5q0 -60 43 -96t114 -36q86 0 143 47t57 123q0 60 -43 96t-114 36zM3090 328q104 0 167 57.5
t63 141.5q0 68 -47.5 111.5t-133.5 43.5q-104 0 -167.5 -57.5t-63.5 -141.5q0 -68 48 -111.5t134 -43.5z" />
    <glyph glyph-name="threeeighths" unicode="&#x215c;" horiz-adv-x="4241" 
d="M2914 2532q27 -13 37 -42t-4 -57l-1318 -2620q-14 -28 -43.5 -38.5t-56.5 2.5l-194 91q-28 13 -37.5 42.5t4.5 57.5l1318 2620q14 28 43 38.5t58 -2.5zM1557 1281q0 -160 -100 -280t-272 -182t-392 -62q-119 0 -219.5 19.5t-178.5 56t-138 82t-113 105.5q-15 18 -20.5 29
t-2 27t21.5 35l174 178q13 13 22 20t20.5 13t22.5 4t22 -11q50 -42 79 -63t77.5 -49t102 -40t117.5 -12q112 0 184 39.5t72 110.5q0 65 -82 109t-225 48q-21 2 -32.5 15.5t-9.5 34.5l25 185q4 21 19.5 34t38.5 15q158 9 237 60.5t79 126.5q0 53 -45.5 82t-128.5 29
q-74 0 -152 -25t-123 -49.5t-115 -68.5q-17 -14 -32.5 -11t-25 11t-22.5 26l-114 165q-10 14 -12.5 26.5t3.5 24t13.5 19.5t21.5 20q141 119 328 187t395 68q254 0 394 -103.5t140 -280.5q0 -278 -302 -427q119 -52 183.5 -138.5t64.5 -202.5zM3829 851q116 -43 180 -138.5
t64 -217.5q0 -109 -51 -203.5t-148 -168.5t-252 -116.5t-350 -42.5q-167 0 -296.5 33.5t-209 93t-120 136.5t-40.5 168q0 153 97 276.5t260 179.5q-87 39 -141 121t-54 189q0 102 48.5 188.5t140 151.5t233.5 102t318 37q299 0 458 -107.5t159 -281.5q0 -138 -84 -243.5
t-212 -156.5zM3462 1314q-86 0 -143 -47.5t-57 -122.5q0 -60 43 -96t114 -36q86 0 143 47t57 123q0 60 -43 96t-114 36zM3324 328q104 0 167 57.5t63 141.5q0 68 -47.5 111.5t-133.5 43.5q-104 0 -167.5 -57.5t-63.5 -141.5q0 -68 48 -111.5t134 -43.5z" />
    <glyph glyph-name="fiveeighths" unicode="&#x215d;" horiz-adv-x="4261" 
d="M2914 2532q27 -13 37 -42t-4 -57l-1318 -2620q-14 -28 -43.5 -38.5t-56.5 2.5l-194 91q-28 13 -37.5 42.5t4.5 57.5l1318 2620q14 28 43 38.5t58 -2.5zM1586 1366q0 -179 -99 -318t-273 -215t-393 -76q-231 0 -390 62.5t-269 183.5q-16 17 -21.5 28t-2 26.5t22.5 34.5
l174 178q13 13 21.5 20.5t20 13.5t22.5 4t23 -11q96 -75 176.5 -110.5t199.5 -35.5q113 0 187 51.5t74 137.5q0 64 -49 103.5t-156 39.5q-140 0 -253 -42q-19 -5 -32 4l-224 147q-25 13 -16 43l179 703q12 59 67 59h983q20 0 32 -14.5t10 -34.5l-40 -285q-3 -20 -20 -35
t-37 -15h-634l-61 -234q94 35 240 35q160 -2 279 -50t189 -150t70 -248zM3829 851q116 -43 180 -138.5t64 -217.5q0 -109 -51 -203.5t-148 -168.5t-252 -116.5t-350 -42.5q-167 0 -296.5 33.5t-209 93t-120 136.5t-40.5 168q0 153 97 276.5t260 179.5q-87 39 -141 121
t-54 189q0 102 48.5 188.5t140 151.5t233.5 102t318 37q299 0 458 -107.5t159 -281.5q0 -138 -84 -243.5t-212 -156.5zM3462 1314q-86 0 -143 -47.5t-57 -122.5q0 -60 43 -96t114 -36q86 0 143 47t57 123q0 60 -43 96t-114 36zM3324 328q104 0 167 57.5t63 141.5
q0 68 -47.5 111.5t-133.5 43.5q-104 0 -167.5 -57.5t-63.5 -141.5q0 -68 48 -111.5t134 -43.5z" />
    <glyph glyph-name="seveneighths" unicode="&#x215e;" horiz-adv-x="3992" 
d="M2640 2532q27 -13 37 -42t-4 -57l-1318 -2620q-14 -28 -43.5 -38.5t-56.5 2.5l-194 91q-28 13 -37.5 42.5t4.5 57.5l1318 2620q14 28 43 38.5t58 -2.5zM1646 2235q-4 -26 -34 -73l-813 -1343q-15 -26 -44 -26h-456q-35 0 -48 26.5t6 58.5l682 1101h-687q-20 0 -32.5 14.5
t-9.5 34.5l45 320q2 20 19 34.5t37 14.5h1298q28 0 41.5 -15.5t9.5 -43.5zM3555 851q116 -43 180 -138.5t64 -217.5q0 -109 -51 -203.5t-148 -168.5t-252 -116.5t-350 -42.5q-167 0 -296.5 33.5t-209 93t-120 136.5t-40.5 168q0 153 97 276.5t260 179.5q-87 39 -141 121
t-54 189q0 102 48.5 188.5t140 151.5t233.5 102t318 37q299 0 458 -107.5t159 -281.5q0 -138 -84 -243.5t-212 -156.5zM3188 1314q-86 0 -143 -47.5t-57 -122.5q0 -60 43 -96t114 -36q86 0 143 47t57 123q0 60 -43 96t-114 36zM3050 328q104 0 167 57.5t63 141.5
q0 68 -47.5 111.5t-133.5 43.5q-104 0 -167.5 -57.5t-63.5 -141.5q0 -68 48 -111.5t134 -43.5z" />
    <glyph glyph-name="partialdiff" unicode="&#x2202;" horiz-adv-x="2263" 
d="M969 2666q200 -47 368 -121.5t288.5 -163t215.5 -196.5t155 -216t100.5 -229t58 -227.5t22.5 -219.5t0 -198t-17 -168q-33 -233 -137.5 -420.5t-259 -309.5t-347.5 -187t-407 -65q-305 0 -527 109t-327.5 313.5t-67.5 472.5q28 200 126 369t243.5 283.5t331 178.5
t386.5 64q142 0 262 -51q-165 379 -693 560q-38 13 -48 47t12 69l165 270q31 52 97 36zM1092 537q121 0 212 88t109 215t-48 215t-188 88q-121 0 -211.5 -88.5t-108.5 -214.5t47.5 -214.5t187.5 -88.5z" />
    <glyph glyph-name="emptyset" unicode="&#x2205;" horiz-adv-x="2945" 
d="M2973 2158q23 -30 14 -62.5t-43 -60.5l-380 -325q140 -278 94 -611q-33 -232 -153.5 -442.5t-296.5 -363t-402.5 -243t-462.5 -90.5q-345 0 -605 184l-380 -325q-34 -29 -67 -33t-59 22l-212 248q-22 30 -13.5 62t41.5 61l384 329q-130 272 -84 591q32 232 153 442.5
t296.5 363.5t402.5 243t463 90q332 0 588 -172l384 329q34 29 66.5 33.5t58.5 -21.5zM946 1099q-11 -78 -5 -155l827 708q-84 30 -183 30q-157 0 -293.5 -72t-229 -206t-116.5 -305zM2060 1099q13 92 2 180l-845 -724q93 -38 204 -38q156 0 293 72t229.5 206t116.5 304z" />
    <glyph glyph-name="product" unicode="&#x220f;" horiz-adv-x="2237" 
d="M2297 2940q31 0 50 -22t14 -53l-462 -3290q-5 -31 -29.5 -53t-55.5 -22h-314q-30 0 -49 22t-15 53l411 2930h-1019l-411 -2930q-5 -31 -29.5 -53t-55.5 -22h-313q-31 0 -50 22t-15 53l463 3290q4 31 29 53t56 22h1639h156z" />
    <glyph glyph-name="summation" unicode="&#x2211;" horiz-adv-x="2209" 
d="M2335 2587q-6 -43 -33 -66.5t-69 -23.5h-1117l657 -1239q20 -38 -11 -76l-1006 -1247h1117q43 0 63 -23t14 -66l-36 -256q-6 -43 -33 -66.5t-69 -23.5h-1703q-42 0 -62.5 23.5t-14.5 66.5l17 119q13 89 60 146l1123 1365l-740 1357q-32 61 -19 147l17 119q6 43 32.5 66.5
t69.5 23.5h1702q43 0 63 -23.5t14 -66.5z" />
    <glyph glyph-name="minus" unicode="&#x2212;" horiz-adv-x="2195" 
d="M248 851q-42 0 -62.5 23.5t-14.5 66.5l46 328q6 43 32.5 66t69.5 23h1675q42 0 62 -23t14 -66l-45 -328q-6 -43 -33 -66.5t-69 -23.5h-1675z" />
    <glyph glyph-name="radical" unicode="&#x221a;" horiz-adv-x="2586" 
d="M2170 2911q21 49 73 49h529q48 0 67.5 -35t-2.5 -81l-1400 -2798q-22 -46 -72 -46h-546q-21 0 -36.5 11t-20.5 30l-346 1240h-286q-33 0 -51.5 21.5t-13.5 54.5l45 325q4 33 29 54.5t58 21.5h772q49 0 59 -46l186 -916z" />
    <glyph glyph-name="infinity" unicode="&#x221e;" horiz-adv-x="3067" 
d="M2199 1835q150 0 280 -48t227 -136.5t152.5 -223t55.5 -298.5t-55.5 -298.5t-152.5 -223t-227 -136.5t-280 -48q-376 0 -638 366q-264 -366 -639 -366q-150 0 -280 48t-227 136.5t-152.5 223t-55.5 298.5t55.5 298.5t152.5 223t227 136.5t280 48q375 0 639 -366
q262 366 638 366zM941 875q48 0 89 19.5t76 58t60 74.5t59 90q2 4 3.5 6.5t3.5 5.5q-76 123 -116 166q-80 88 -175 88q-88 0 -141.5 -72.5t-53.5 -181.5t53.5 -181.5t141.5 -72.5zM2180 875q88 0 141.5 72.5t53.5 181.5t-53.5 181.5t-141.5 72.5q-48 0 -89 -19.5t-76 -58
t-60 -74.5t-59 -90q-2 -4 -3.5 -6.5t-3.5 -5.5q76 -123 116 -166q80 -87 175 -88z" />
    <glyph glyph-name="integral" unicode="&#x222b;" horiz-adv-x="1877" 
d="M2165 2862q20 -16 28.5 -28.5t6.5 -37t-22 -57.5l-161 -255q-46 -76 -128 -39q-100 53 -188 53q-104 0 -166.5 -71t-83.5 -225l-301 -2144q-25 -176 -103 -317.5t-194.5 -233t-262.5 -140.5t-310 -49q-186 0 -339 54t-241 125q-20 16 -28.5 28.5t-6 36.5t22.5 57l159 255
q48 75 128 39q106 -53 189 -53q104 0 166 71t84 226l300 2144q25 176 103.5 317t195 232.5t262.5 140.5t310 49q185 0 338.5 -54t241.5 -124z" />
    <glyph glyph-name="approxequal" unicode="&#x2248;" horiz-adv-x="2316" 
d="M2225 1759q20 -12 26 -34.5t-5 -47.5q-58 -131 -138 -232.5t-167.5 -161.5t-176 -90t-174.5 -30q-111 0 -205 23t-159.5 55.5t-126 65t-131.5 55.5t-147 23q-94 0 -177.5 -47.5t-148.5 -122.5q-23 -26 -51 -33t-53 8l-137 84q-20 13 -26 35t4 47q58 132 138.5 233.5
t168 161.5t176 90t174.5 30q111 0 205 -23t159.5 -55.5t126 -65.5t131.5 -56t147 -23q94 0 177.5 47.5t148.5 123.5q23 25 51 32t53 -7zM2108 930q20 -12 26 -34t-5 -48q-58 -131 -138 -232.5t-167.5 -161.5t-176 -90t-174.5 -30q-111 0 -205 23t-159.5 55.5t-126 65
t-131.5 55.5t-147 23q-178 0 -326 -170q-22 -26 -50 -33t-53 8l-138 85q-20 12 -25.5 34t4.5 47q58 132 138 233.5t167.5 161.5t176.5 90t175 30q111 0 205 -23t159.5 -56t125.5 -65.5t131 -55.5t147 -23q179 0 326 171q23 26 51 33t53 -8z" />
    <glyph glyph-name="notequal" unicode="&#x2260;" horiz-adv-x="2194" 
d="M2052 1775q42 0 62.5 -23t14.5 -66l-46 -328q-6 -43 -32.5 -66.5t-69.5 -23.5h-543l-198 -329h694q43 0 63 -23.5t14 -66.5l-46 -328q-6 -43 -32.5 -66t-69.5 -23h-930l-305 -506q-16 -28 -48 -38.5t-57 2.5l-202 101q-26 13 -32.5 42.5t10.5 57.5l206 341h-316
q-43 0 -63 23t-14 66l45 328q6 43 33 66.5t70 23.5h551l198 329h-703q-42 0 -62.5 23.5t-14.5 66.5l46 328q6 43 33 66t69 23h938l287 476q17 27 48 38t58 -2l201 -101q26 -13 33 -42.5t-10 -57.5l-188 -311h308z" />
    <glyph glyph-name="lessequal" unicode="&#x2264;" horiz-adv-x="2194" 
d="M2168 1965q-3 -20 -10.5 -34t-24 -24.5t-28 -15.5t-39.5 -15l-1179 -442l1055 -443q24 -9 34.5 -14t24.5 -15.5t17.5 -24.5t0.5 -35l-54 -383q-6 -45 -36 -72.5t-65 -12.5l-1576 700q-85 37 -75 107l54 385q6 40 32 64t72 43l1773 700q39 16 61.5 -11.5t16.5 -72.5z
M104 -174q-43 0 -63 23.5t-14 66.5l45 328q6 42 33 65.5t70 23.5h1674q43 0 63 -23.5t14 -65.5l-46 -328q-6 -43 -32.5 -66.5t-69.5 -23.5h-1674z" />
    <glyph glyph-name="greaterequal" unicode="&#x2265;" horiz-adv-x="2195" 
d="M315 1965l54 384q6 45 36.5 72.5t64.5 11.5l1577 -700q41 -18 60.5 -42.5t13.5 -64.5l-53 -385q-6 -39 -32.5 -64t-73.5 -43l-1773 -700q-40 -15 -61.5 12.5t-15.5 72.5l54 383q3 21 10.5 35t24.5 24.5t28.5 15t38.5 14.5l1179 443l-1054 442q-25 10 -35 15t-24 15.5
t-18 24.5t-1 34zM1779 -174h-1674q-43 0 -63.5 23.5t-14.5 66.5l46 328q6 42 33 65.5t69 23.5h1675q42 0 62.5 -23.5t14.5 -65.5l-46 -328q-6 -43 -32.5 -66.5t-69.5 -23.5z" />
    <glyph glyph-name="lozenge" unicode="&#x25ca;" horiz-adv-x="2399" 
d="M1382 2710q32 36 71.5 36t61.5 -36l770 -1267q25 -42 -12 -86l-1126 -1267q-32 -36 -71.5 -36t-62.5 36l-769 1267q-25 42 12 86zM1184 830l468 570l-307 570l-468 -570z" />
    <glyph glyph-name="i.loclTRK" 
d="M677 2038q-146 0 -242 99t-96 244q0 175 135 304t311 129q146 0 242 -99.5t96 -244.5q0 -115 -62.5 -215t-165.5 -158.5t-218 -58.5zM268 1804q5 35 27 54.5t58 19.5h600q36 0 53 -19.5t12 -54.5l-244 -1729q-4 -36 -26.5 -55.5t-58.5 -19.5h-600q-74 0 -65 75z" />
    <glyph glyph-name="zero.osf" horiz-adv-x="2378" 
d="M1342 2033q177 0 332 -41t280.5 -126.5t209 -208t116 -294t4.5 -374.5q-29 -203 -110 -374.5t-198.5 -294t-267 -208t-316 -126.5t-343.5 -41t-332 41t-280.5 126.5t-208.5 208t-116 294t-4 374.5q28 203 109 374.5t198.5 294t267 208t316 126.5t343.5 41zM1132 537
q141 0 246 114t136 338q31 225 -41.5 339t-212.5 114q-68 0 -128.5 -27t-112 -81t-88.5 -142t-53 -203q-31 -224 41.5 -338t212.5 -114z" />
    <glyph glyph-name="one.osf" horiz-adv-x="1894" 
d="M1619 1978q31 0 50 -22t14 -52l-257 -1829q-5 -31 -29.5 -53t-55.5 -22h-601q-30 0 -49 22t-15 53l171 1215l-376 -163q-31 -14 -58.5 -3t-37.5 41l-132 410q-10 30 5.5 59.5t47.5 42.5l669 279q54 22 109 22h545z" />
    <glyph glyph-name="two.osf" horiz-adv-x="2172" 
d="M1890 510q31 0 50 -22t15 -53l-51 -360q-5 -31 -29.5 -53t-55.5 -22h-1781q-43 0 -63 23.5t-14 66.5l18 128q10 74 85 118q511 310 673 418q316 211 422 353q72 97 72 185q0 150 -210 150q-138 0 -263.5 -57t-283.5 -163q-25 -19 -47.5 -16.5t-38 15t-36.5 41.5l-185 266
q-15 23 -19 41.5t4 35.5t20.5 30t34.5 30q216 176 490 272t567 96q170 0 310.5 -35.5t246 -105t164 -180.5t58.5 -254q0 -132 -43 -251.5t-138 -239t-257.5 -234.5t-390.5 -223h676z" />
    <glyph glyph-name="three.osf" horiz-adv-x="2220" 
d="M1638 812q185 -80 284 -213.5t99 -309.5q0 -174 -87.5 -320.5t-240 -245t-359.5 -153.5t-445 -55q-613 0 -953 393q-18 21 -26.5 34t-12.5 30t5 34t31 38l262 256q22 21 35 31.5t30.5 19.5t34 6t33.5 -17q63 -51 99 -78.5t94 -64t104.5 -54.5t110 -31.5t132.5 -13.5
q160 0 264.5 59.5t104.5 169.5q0 36 -16.5 67t-39.5 51.5t-63 38t-71.5 27.5t-82 19.5t-77.5 13t-74 8.5l-12 1.5t-10.5 1t-11.5 1.5q-73 8 -64 75l40 281q4 31 27.5 52t58.5 24q6 1 21 2q39 4 64.5 7t76.5 12t85.5 20.5t78.5 32.5t70.5 46.5t45.5 64.5t19 86
q0 82 -65 128.5t-180 46.5q-99 0 -212.5 -38t-169.5 -69t-159 -93q-13 -7 -19 -11q-26 -19 -48.5 -16.5t-38 15.5t-35.5 41l-170 251q-15 22 -19 40.5t5 35.5t20 29t33 31q212 179 489 281t577 102q367 0 575.5 -158.5t208.5 -424.5q0 -413 -456 -638z" />
    <glyph glyph-name="four.osf" horiz-adv-x="2347" 
d="M2131 510q43 0 63 -23.5t14 -65.5l-46 -331q-6 -43 -32.5 -66.5t-69.5 -23.5h-274l-52 -371q-4 -31 -29 -53t-56 -22h-526q-31 0 -50 22t-15 53l52 371h-1087q-43 0 -63 23.5t-14 66.5l35 249l1391 1588q46 51 114 51h504q31 0 50 -22t14 -52l-196 -1394h273zM719 510
h463l89 634z" />
    <glyph glyph-name="five.osf" horiz-adv-x="2393" 
d="M2055 1394h-952l-91 -347q144 55 358 55q174 -2 318 -44.5t251.5 -125.5t167 -213t59.5 -298q0 -197 -87 -366.5t-238.5 -288t-362.5 -185.5t-452 -67q-341 0 -574 92.5t-407 266.5q-24 24 -33 42t-2.5 41.5t34.5 52.5l264 271q19 20 33 31t31 19.5t34 6t35 -15.5
q62 -48 97.5 -73.5t92 -59.5t104.5 -50t114.5 -28t141.5 -12q167 0 277 77.5t110 206.5q0 97 -72.5 156.5t-232.5 59.5q-197 0 -376 -63q-30 -8 -50 5l-324 223q-34 23 -25 67l270 1059q22 89 104 89h1466q31 0 49.5 -22t13.5 -52l-60 -435q-4 -31 -29.5 -53t-56.5 -22z" />
    <glyph glyph-name="six.osf" horiz-adv-x="2357" 
d="M1510 1510q101 0 188 -20.5t153.5 -57.5t120 -89t87 -114.5t54.5 -134.5t23 -149t-8 -158q-22 -155 -89.5 -289.5t-170.5 -235t-234 -172.5t-284 -108.5t-316 -36.5q-179 0 -334 43t-276.5 130t-202 210.5t-111 292t-2.5 366.5q24 166 75.5 319t138 297t202 266t272 224
t343.5 175t421 115t500 46q34 1 53.5 -21t14.5 -55l-57 -409q-5 -32 -29 -53.5t-58 -22.5q-433 -10 -685 -146t-382 -426q222 214 593 214zM1100 463q123 0 207.5 88t101.5 206q17 121 -43 208t-184 87q-127 0 -209 -86.5t-99 -208.5q-11 -76 8.5 -141t76 -109t141.5 -44z
" />
    <glyph glyph-name="seven.osf" horiz-adv-x="2088" 
d="M222 -446q-54 0 -73 40t10 89l1018 1704h-1034q-31 0 -50 22t-14 53l62 442q4 30 29.5 52t56.5 22h1913q42 0 62 -23.5t14 -65.5l-22 -158q-3 -20 -12 -41.5t-15 -31.5t-24 -37l-1235 -2028q-23 -39 -65 -39h-621z" />
    <glyph glyph-name="eight.osf" horiz-adv-x="2347" 
d="M1841 1281q176 -65 274 -207.5t98 -325.5q0 -163 -77 -307t-222 -255t-372 -176t-508 -65q-241 0 -429.5 51.5t-306 141.5t-178 207t-60.5 254q0 231 147 414.5t396 267.5q-134 61 -216 185t-82 284q0 149 73.5 278.5t209 226.5t342.5 153t458 56q217 0 390 -45
t283.5 -124t169 -185t58.5 -230q0 -137 -63 -259t-162 -206t-223 -134zM1319 1975q-122 0 -207.5 -71t-85.5 -181q0 -88 64 -142.5t166 -54.5q123 0 208 71t85 181q0 88 -64 142.5t-166 54.5zM1112 499q150 0 245 87.5t95 211.5q0 102 -70.5 168.5t-194.5 66.5
q-150 0 -245.5 -87.5t-95.5 -212.5q0 -101 71 -167.5t195 -66.5z" />
    <glyph glyph-name="nine.osf" horiz-adv-x="2275" 
d="M1242 2033q182 0 338.5 -43t280 -130.5t204.5 -211t112 -293.5t3 -369q-24 -167 -76 -320.5t-138.5 -297.5t-203 -265.5t-274 -223.5t-345.5 -174.5t-424 -114.5t-503 -46q-34 -1 -54 21t-15 55l57 409q5 32 29.5 53.5t58.5 22.5q434 10 689.5 145.5t387.5 423.5
q-226 -216 -604 -216q-118 0 -218 27.5t-172 77t-126 117.5t-81 149t-37.5 171.5t5.5 185.5q22 157 90.5 292.5t172.5 236.5t237 173t287 108.5t319 36.5zM1092 916q133 0 219 87t104 213q17 122 -45 211t-193 89q-128 0 -215.5 -89.5t-105.5 -210.5q-17 -124 45 -212
t191 -88z" />
    <glyph glyph-name="zero.dnom" horiz-adv-x="1764" 
d="M979 1633q160 0 291 -58t219 -164t124.5 -265t9.5 -351t-108.5 -351t-198.5 -265t-264 -164t-307 -58t-291 58t-219 164t-124.5 265t-9.5 351t108 351t198.5 265t264.5 164t307 58zM803 375q107 0 180.5 114.5t100.5 305.5t-14.5 305.5t-148.5 114.5
q-106 0 -180.5 -114.5t-101.5 -305.5q-26 -191 16 -305.5t148 -114.5z" />
    <glyph glyph-name="one.dnom" horiz-adv-x="1547" 
d="M1195 1604q20 0 32.5 -14.5t9.5 -34.5l-211 -1506q-3 -20 -20 -34.5t-37 -14.5h-417q-20 0 -32.5 14.5t-9.5 34.5l155 1103l-247 -107q-21 -9 -39.5 -2t-24.5 26l-86 270q-7 20 3 39.5t31 27.5l440 184q34 14 72 14h381z" />
    <glyph glyph-name="two.dnom" horiz-adv-x="1575" 
d="M1461 1119q-29 -202 -184 -387.5t-456 -368.5h519q20 0 32.5 -15t9.5 -35l-38 -271q-3 -20 -19.5 -34.5t-36.5 -14.5h-1235q-28 0 -41.5 15.5t-9.5 43.5l15 103q8 55 36 73q257 169 434 305t269.5 234t132 165.5t48.5 129.5q25 178 -169 178q-53 0 -103.5 -12.5
t-102 -39.5t-86 -49t-88.5 -60q-14 -9 -25.5 -11t-21.5 3.5t-17 13t-16 20.5l-122 175q-15 17 -13 34t10.5 28.5t27.5 27.5q318 263 719 263q289 0 426.5 -139t104.5 -375z" />
    <glyph glyph-name="three.dnom" horiz-adv-x="1614" 
d="M1196 822q119 -52 183.5 -138.5t64.5 -202.5q0 -160 -100 -280t-272 -182t-392 -62q-119 0 -219.5 19.5t-178.5 56t-138 82t-113 105.5q-15 18 -20.5 29t-2 27t21.5 35l174 178q13 13 22 20t20.5 13t22.5 4t22 -11q50 -42 79 -63t77.5 -49t102 -40t117.5 -12
q112 0 184 39.5t72 110.5q0 65 -82 109t-225 48q-21 2 -32.5 15.5t-9.5 34.5l25 185q4 21 19.5 34t38.5 15q158 9 237 60.5t79 126.5q0 53 -45.5 82t-128.5 29q-74 0 -152 -25t-123 -49.5t-115 -68.5q-17 -14 -32.5 -11t-25 11t-22.5 26l-114 165q-10 14 -12.5 26.5t3.5 24
t13.5 19.5t21.5 20q141 119 328 187t395 68q254 0 394 -103.5t140 -280.5q0 -278 -302 -427z" />
    <glyph glyph-name="four.dnom" horiz-adv-x="1672" 
d="M1517 653q28 0 41.5 -15.5t9.5 -43.5l-30 -213q-10 -59 -68 -59h-179l-39 -273q-2 -20 -19 -34.5t-37 -14.5h-369q-20 0 -32.5 14.5t-9.5 34.5l39 273h-791q-28 0 -41 15.5t-9 43.5l21 151q2 13 12 25l943 1013q32 34 75 34h387q20 0 32.5 -14.5t10.5 -34.5l-127 -902
h180zM524 653h346l61 436z" />
    <glyph glyph-name="five.dnom" horiz-adv-x="1653" 
d="M1391 1220h-634l-61 -234q94 35 240 35q160 -2 279 -50t189 -150t70 -248q0 -179 -99 -318t-273 -215t-393 -76q-231 0 -390 62.5t-269 183.5q-16 17 -21.5 28t-2 26.5t22.5 34.5l174 178q13 13 21.5 20.5t20 13.5t22.5 4t23 -11q96 -75 176.5 -110.5t199.5 -35.5
q113 0 187 51.5t74 137.5q0 64 -49 103.5t-156 39.5q-140 0 -253 -42q-19 -5 -32 4l-224 147q-25 13 -16 43l179 703q12 59 67 59h983q20 0 32 -14.5t10 -34.5l-40 -285q-3 -20 -20 -35t-37 -15z" />
    <glyph glyph-name="six.dnom" horiz-adv-x="1633" 
d="M1028 1019q117 0 207 -41t141 -110t71.5 -155.5t7.5 -181.5q-18 -129 -85 -236.5t-167 -179.5t-226.5 -111.5t-264.5 -39.5q-151 0 -276.5 47t-212.5 134t-126 220.5t-16 296.5q22 156 80.5 294.5t165 263.5t252.5 215.5t354 145.5t459 59q23 0 36 -14t9 -36l-37 -269
q-3 -21 -19 -35t-38 -14q-284 -7 -455.5 -104t-260.5 -295q151 146 401 146zM756 314q88 0 146.5 58.5t69.5 138.5q11 83 -31 140t-130 57q-91 0 -148 -57t-68 -140q-11 -81 30 -139t131 -58z" />
    <glyph glyph-name="seven.dnom" horiz-adv-x="1589" 
d="M187 0q-35 0 -48 26.5t6 58.5l682 1101h-687q-20 0 -32.5 14.5t-9.5 34.5l45 320q2 20 19 34.5t37 14.5h1298q28 0 41.5 -15.5t9.5 -43.5l-14 -103q-4 -26 -34 -73l-813 -1343q-15 -26 -44 -26h-456z" />
    <glyph glyph-name="eight.dnom" horiz-adv-x="1704" 
d="M1272 851q116 -43 180 -138.5t64 -217.5q0 -109 -51 -203.5t-148 -168.5t-252 -116.5t-350 -42.5q-167 0 -296.5 33.5t-209 93t-120 136.5t-40.5 168q0 153 97 276.5t260 179.5q-87 39 -141 121t-54 189q0 102 48.5 188.5t140 151.5t233.5 102t318 37q299 0 458 -107.5
t159 -281.5q0 -138 -84 -243.5t-212 -156.5zM905 1314q-86 0 -143 -47.5t-57 -122.5q0 -60 43 -96t114 -36q86 0 143 47t57 123q0 60 -43 96t-114 36zM767 328q104 0 167 57.5t63 141.5q0 68 -47.5 111.5t-133.5 43.5q-104 0 -167.5 -57.5t-63.5 -141.5q0 -68 48 -111.5
t134 -43.5z" />
    <glyph glyph-name="nine.dnom" horiz-adv-x="1633" 
d="M883 1640q151 0 276.5 -47t212.5 -134t125.5 -220.5t15.5 -296.5q-22 -156 -80 -292t-163.5 -257t-251 -207t-353 -136t-457.5 -50q-23 0 -36 14.5t-10 36.5l38 268q3 21 19 35t38 15q283 7 451 92t256 267q-149 -143 -397 -143q-117 0 -207.5 41t-141.5 110t-71.5 156
t-7.5 182q24 171 132 301t267.5 197.5t344.5 67.5zM783 896q91 0 148.5 57t68.5 140q11 81 -30 139t-132 58q-87 0 -145.5 -58.5t-69.5 -138.5q-11 -82 30.5 -139.5t129.5 -57.5z" />
    <glyph glyph-name="zero.numr" horiz-adv-x="1764" 
d="M1091 2433q160 0 291 -58t219 -164t124.5 -265t9.5 -351t-108.5 -351t-198.5 -265t-264 -164t-307 -58t-291 58t-219 164t-124.5 265t-9.5 351t108 351t198.5 265t264.5 164t307 58zM915 1175q107 0 180.5 114.5t100.5 305.5t-14.5 305.5t-148.5 114.5
q-106 0 -180.5 -114.5t-101.5 -305.5q-26 -191 16 -305.5t148 -114.5z" />
    <glyph glyph-name="one.numr" horiz-adv-x="1547" 
d="M1307 2397q20 0 32.5 -14.5t9.5 -34.5l-211 -1506q-3 -20 -20 -34.5t-37 -14.5h-417q-20 0 -32.5 14.5t-9.5 34.5l155 1103l-247 -107q-21 -9 -39.5 -2t-24.5 26l-86 270q-7 20 3 39.5t31 27.5l440 184q34 14 72 14h381z" />
    <glyph glyph-name="two.numr" horiz-adv-x="1576" 
d="M1574 1919q-29 -202 -184 -387.5t-456 -368.5h519q20 0 32.5 -15t9.5 -35l-38 -271q-3 -20 -19.5 -34.5t-36.5 -14.5h-1235q-28 0 -41.5 15.5t-9.5 43.5l15 103q8 55 36 73q257 169 434 305t269.5 234t132 165.5t48.5 129.5q25 178 -169 178q-53 0 -103.5 -12.5
t-102 -39.5t-86 -49t-88.5 -60q-14 -9 -25.5 -11t-21.5 3.5t-17 13t-16 20.5l-122 175q-15 17 -13 34t10.5 28.5t27.5 27.5q318 263 719 263q289 0 426.5 -139t104.5 -375z" />
    <glyph glyph-name="three.numr" horiz-adv-x="1614" 
d="M1309 1622q119 -52 183.5 -138.5t64.5 -202.5q0 -160 -100 -280t-272 -182t-392 -62q-119 0 -219.5 19.5t-178.5 56t-138 82t-113 105.5q-15 18 -20.5 29t-2 27t21.5 35l174 178q13 13 22 20t20.5 13t22.5 4t22 -11q50 -42 79 -63t77.5 -49t102 -40t117.5 -12
q112 0 184 39.5t72 110.5q0 65 -82 109t-225 48q-21 2 -32.5 15.5t-9.5 34.5l25 185q4 21 19.5 34t38.5 15q158 9 237 60.5t79 126.5q0 53 -45.5 82t-128.5 29q-74 0 -152 -25t-123 -49.5t-115 -68.5q-17 -14 -32.5 -11t-25 11t-22.5 26l-114 165q-10 14 -12.5 26.5t3.5 24
t13.5 19.5t21.5 20q141 119 328 187t395 68q254 0 394 -103.5t140 -280.5q0 -278 -302 -427z" />
    <glyph glyph-name="four.numr" horiz-adv-x="1672" 
d="M1628 1446q28 0 41.5 -15.5t9.5 -43.5l-30 -213q-10 -59 -68 -59h-179l-39 -273q-2 -20 -19 -34.5t-37 -14.5h-369q-20 0 -32.5 14.5t-9.5 34.5l39 273h-791q-28 0 -41 15.5t-9 43.5l21 151q2 13 12 25l943 1013q32 34 75 34h387q20 0 32.5 -14.5t10.5 -34.5l-127 -902
h180zM635 1446h346l61 436z" />
    <glyph glyph-name="five.numr" horiz-adv-x="1653" 
d="M1503 2013h-634l-61 -234q94 35 240 35q160 -2 279 -50t189 -150t70 -248q0 -179 -99 -318t-273 -215t-393 -76q-231 0 -390 62.5t-269 183.5q-16 17 -21.5 28t-2 26.5t22.5 34.5l174 178q13 13 21.5 20.5t20 13.5t22.5 4t23 -11q96 -75 176.5 -110.5t199.5 -35.5
q113 0 187 51.5t74 137.5q0 64 -49 103.5t-156 39.5q-140 0 -253 -42q-19 -5 -32 4l-224 147q-25 13 -16 43l179 703q12 59 67 59h983q20 0 32 -14.5t10 -34.5l-40 -285q-3 -20 -20 -35t-37 -15z" />
    <glyph glyph-name="six.numr" horiz-adv-x="1633" 
d="M1140 1812q117 0 207 -41t141 -110t71.5 -155.5t7.5 -181.5q-18 -129 -85 -236.5t-167 -179.5t-226.5 -111.5t-264.5 -39.5q-151 0 -276.5 47t-212.5 134t-126 220.5t-16 296.5q22 156 80.5 294.5t165 263.5t252.5 215.5t354 145.5t459 59q23 0 36 -14t9 -36l-37 -269
q-3 -21 -19 -35t-38 -14q-284 -7 -455.5 -104t-260.5 -295q151 146 401 146zM868 1107q88 0 146.5 58.5t69.5 138.5q11 83 -31 140t-130 57q-91 0 -148 -57t-68 -140q-11 -81 30 -139t131 -58z" />
    <glyph glyph-name="seven.numr" horiz-adv-x="1589" 
d="M299 793q-35 0 -48 26.5t6 58.5l682 1101h-687q-20 0 -32.5 14.5t-9.5 34.5l45 320q2 20 19 34.5t37 14.5h1298q28 0 41.5 -15.5t9.5 -43.5l-14 -103q-4 -26 -34 -73l-813 -1343q-15 -26 -44 -26h-456z" />
    <glyph glyph-name="eight.numr" horiz-adv-x="1704" 
d="M1383 1644q116 -43 180 -138.5t64 -217.5q0 -109 -51 -203.5t-148 -168.5t-252 -116.5t-350 -42.5q-167 0 -296.5 33.5t-209 93t-120 136.5t-40.5 168q0 153 97 276.5t260 179.5q-87 39 -141 121t-54 189q0 102 48.5 188.5t140 151.5t233.5 102t318 37q299 0 458 -107.5
t159 -281.5q0 -138 -84 -243.5t-212 -156.5zM1016 2107q-86 0 -143 -47.5t-57 -122.5q0 -60 43 -96t114 -36q86 0 143 47t57 123q0 60 -43 96t-114 36zM878 1121q104 0 167 57.5t63 141.5q0 68 -47.5 111.5t-133.5 43.5q-104 0 -167.5 -57.5t-63.5 -141.5q0 -68 48 -111.5
t134 -43.5z" />
    <glyph glyph-name="nine.numr" horiz-adv-x="1633" 
d="M994 2433q151 0 276.5 -47t212.5 -134t125.5 -220.5t15.5 -296.5q-22 -156 -80 -292t-163.5 -257t-251 -207t-353 -136t-457.5 -50q-23 0 -36 14.5t-10 36.5l38 268q3 21 19 35t38 15q283 7 451 92t256 267q-149 -143 -397 -143q-117 0 -207.5 41t-141.5 110t-71.5 156
t-7.5 182q24 171 132 301t267.5 197.5t344.5 67.5zM894 1689q91 0 148.5 57t68.5 140q11 81 -30 139t-132 58q-87 0 -145.5 -58.5t-69.5 -138.5q-11 -82 30.5 -139.5t129.5 -57.5z" />
    </font>
</defs>
</svg>
