<?xml version="1.0" standalone="no"?>
<!DOCTYPE svg PUBLIC "-//W3C//DTD SVG 1.1//EN" "http://www.w3.org/Graphics/SVG/1.1/DTD/svg11.dtd" >
<svg xmlns="http://www.w3.org/2000/svg" xmlns:xlink="http://www.w3.org/1999/xlink" version="1.1">
<metadata>
Created by FontForge 20170731 at Fri Jun 24 01:06:55 2016
 By Aleksey,,,
Copyright (c) 2015 by Mateusz Machalski. All rights reserved.
</metadata>
<defs>
<font id="Migrena_Grotesque-ExtraLight" horiz-adv-x="1937" >
  <font-face 
    font-family="Migrena_Grotesque ExtraLight"
    font-weight="250"
    font-stretch="normal"
    units-per-em="4000"
    panose-1="0 0 3 0 0 0 0 0 0 0"
    ascent="3200"
    descent="-800"
    x-height="1613"
    cap-height="2440"
    bbox="-2053 -960 4203 3384.07"
    underline-thickness="50"
    underline-position="-200"
    unicode-range="U+0020-25CA"
  />
<missing-glyph horiz-adv-x="1676" 
d="M1374 2560v-3352h-1062v3352h1062zM1116 2335h-553v-110h218v-124h-221v-111h556v111h-221v124h221v110zM895 1903h-335v-349h556v114h-221v235zM781 1789v-121h-111v121h111zM1116 1464h-556v-111h221v-124h-221v-110h335v234h221v111zM1116 1263h-110v-221h-446v-114
h556v335zM1116 854h-335v-188h114v77h111v-157h-336v268h-110v-379h556v379zM1116 274h-556v-379h556v379zM1006 163v-157h-336v157h336zM1116 -182h-556v-111h234l-234 -157v-111h556v111h-342l235 157h107v111z" />
    <glyph glyph-name=".notdef" horiz-adv-x="1676" 
d="M1374 2560v-3352h-1062v3352h1062zM1116 2335h-553v-110h218v-124h-221v-111h556v111h-221v124h221v110zM895 1903h-335v-349h556v114h-221v235zM781 1789v-121h-111v121h111zM1116 1464h-556v-111h221v-124h-221v-110h335v234h221v111zM1116 1263h-110v-221h-446v-114
h556v335zM1116 854h-335v-188h114v77h111v-157h-336v268h-110v-379h556v379zM1116 274h-556v-379h556v379zM1006 163v-157h-336v157h336zM1116 -182h-556v-111h234l-234 -157v-111h556v111h-342l235 157h107v111z" />
    <glyph glyph-name=".null" horiz-adv-x="0" 
 />
    <glyph glyph-name="nonmarkingreturn" horiz-adv-x="1333" 
 />
    <glyph glyph-name="space" unicode=" " horiz-adv-x="750" 
 />
    <glyph glyph-name="exclam" unicode="!" horiz-adv-x="627" 
d="M279 2428q0 5 4 8.5t9 3.5h43q5 0 9 -3.5t4 -8.5l-9 -1853q0 -12 -13 -12h-26q-12 0 -12 12zM313 -22q-30 0 -52.5 22.5t-22.5 52.5q0 31 22.5 53t52.5 22q31 0 53 -22t22 -53q0 -30 -22 -52.5t-53 -22.5z" />
    <glyph glyph-name="quotedbl" unicode="&#x22;" horiz-adv-x="963" 
d="M198 2498q-1 4 3 8t9 4h39q5 0 9 -3.5t4 -8.5l-8 -702q0 -13 -13 -13h-24q-12 0 -12 13zM702 2498q-1 4 3 8t9 4h39q5 0 9 -3.5t4 -8.5l-8 -702q0 -13 -13 -13h-24q-12 0 -12 13z" />
    <glyph glyph-name="numbersign" unicode="#" horiz-adv-x="2465" 
d="M2206 1573q12 0 12 -12l-4 -37q0 -12 -13 -12h-451l-76 -764h434q11 0 11 -12l-3 -37q-2 -12 -13 -12h-435l-67 -675q0 -4 -4 -8t-9 -4h-44q-11 0 -11 12l67 675h-822l-67 -675q0 -4 -4 -8t-9 -4h-44q-11 0 -11 12l67 675h-451q-5 0 -8.5 4t-2.5 8l3 37q0 12 14 12h451
l75 764h-434q-11 0 -11 12l4 37q0 5 4 8.5t8 3.5h435l67 675q2 12 14 12h44q11 0 11 -12l-67 -675h821l67 675q2 12 14 12h44q11 0 11 -12l-67 -675h450zM1606 748l75 764h-821l-76 -764h822z" />
    <glyph glyph-name="dollar" unicode="$" horiz-adv-x="2159" 
d="M1943 613q0 -128 -42.5 -232t-115.5 -175t-174 -121t-213.5 -74.5t-238.5 -30.5v-398q0 -5 -4.5 -9t-9.5 -4h-31q-5 0 -9 4t-4 9v396h-17q-252 0 -457.5 72t-396.5 204q-19 11 -11 25l15 28q9 13 24 3q80 -51 127 -79t134 -70t162 -64.5t181 -39.5t221 -17q126 0 238 18
t214 60.5t175.5 106.5t117 161t43.5 219q0 90 -25 164.5t-60 127.5t-103.5 99.5t-122.5 74.5t-151.5 58t-157 45t-170.5 40q-114 26 -172 40.5t-158 45t-153.5 58.5t-123 75.5t-104.5 101.5t-60.5 130t-25.5 167q0 288 215 458.5t602 171.5v352q0 11 12 11h33q13 0 13 -11
v-353q151 -5 290.5 -40.5t228.5 -77t187 -101.5q13 -9 6 -23l-16 -30q-8 -15 -23 -3q-152 97 -324.5 156t-394.5 59q-366 0 -562.5 -152t-196.5 -409q0 -114 45 -202.5t108 -142.5t176 -99.5t201 -69t230 -55.5q117 -26 177 -41t163.5 -47.5t159.5 -62t129 -80t109.5 -108
t63.5 -139.5t27 -180z" />
    <glyph glyph-name="percent" unicode="%" horiz-adv-x="3113" 
d="M2165 2497q4 -1 6 -6.5t0 -9.5l-1160 -2549q-6 -12 -17 -6l-32 16q-12 6 -6 16l1159 2548q6 11 16 6zM1288 1700q0 -349 -146.5 -556t-388.5 -207q-243 0 -389.5 207t-146.5 556t146.5 555.5t389.5 206.5q242 0 388.5 -207t146.5 -555zM753 994q219 0 345 189t126 517
q0 326 -126 515.5t-345 189.5q-220 0 -346 -189.5t-126 -515.5q0 -328 126 -517t346 -189zM2361 1503q242 0 389 -207t147 -555q0 -349 -147 -556t-389 -207t-389 207t-147 556q0 348 147 555t389 207zM2361 35q219 0 345.5 189.5t126.5 516.5t-126.5 516t-345.5 189
q-220 0 -346 -189t-126 -516t126 -516.5t346 -189.5z" />
    <glyph glyph-name="ampersand" unicode="&#x26;" horiz-adv-x="2231" 
d="M2108 29q8 -9 5 -19t-15 -10h-39q-8 0 -14 7l-369 383q-305 -430 -782 -430q-204 0 -362.5 76.5t-246.5 217t-88 323.5q0 239 145 425.5t418 338.5q-267 296 -267 587q0 130 45.5 232.5t126.5 168t190 99.5t239 34q146 0 269 -45.5t256 -148.5q12 -7 4 -18l-21 -31
q-8 -12 -18 -3q-124 101 -241.5 143.5t-250.5 42.5q-241 0 -385 -121t-144 -350q0 -294 302 -607l805 -838q166 262 262 654q3 12 16 10l33 -7q11 -3 9 -15q-100 -411 -279 -686zM897 22q449 0 737 411l-832 863q-270 -151 -402 -320.5t-132 -391.5q0 -255 172.5 -408.5
t456.5 -153.5z" />
    <glyph glyph-name="quotesingle" unicode="'" horiz-adv-x="559" 
d="M248 2498q-1 4 3 8t9 4h39q5 0 9 -3.5t4 -8.5l-8 -702q0 -13 -13 -13h-24q-12 0 -12 13z" />
    <glyph glyph-name="parenleft" unicode="(" horiz-adv-x="946" 
d="M311 976q0 -902 475 -1546q8 -11 -4 -18l-24 -14q-9 -6 -16 3q-247 332 -370.5 732t-123.5 843q0 853 494 1575q7 9 16 3l24 -15q12 -5 4 -17q-475 -709 -475 -1546z" />
    <glyph glyph-name="parenright" unicode=")" horiz-adv-x="946" 
d="M204 2551q494 -722 494 -1575q0 -443 -123.5 -843t-370.5 -732q-7 -9 -16 -3l-24 14q-12 7 -4 18q475 644 475 1546q0 837 -475 1546q-8 12 4 17l24 15q9 6 16 -3z" />
    <glyph glyph-name="asterisk" unicode="*" horiz-adv-x="1539" 
d="M1340 2532q5 -11 -7 -15l-516 -168l319 -438q6 -8 -3 -17l-30 -20q-3 -2 -8.5 -2t-7.5 4l-318 438l-318 -438q-3 -4 -8 -4t-8 2l-30 20q-9 9 -3 17l319 438l-516 168q-11 4 -7 15l11 34q4 12 14 8l516 -168v542q0 12 12 12h36q12 0 12 -12v-542l516 168q10 4 14 -8z" />
    <glyph glyph-name="plus" unicode="+" horiz-adv-x="2039" 
d="M1790 1075q5 0 9 -3.5t4 -8.5v-34q0 -5 -4 -8.5t-9 -3.5h-741v-741q0 -5 -3.5 -9t-8.5 -4h-34q-5 0 -8.5 4t-3.5 9v741h-742q-12 0 -12 12v34q0 12 12 12h742v742q0 12 12 12h34q12 0 12 -12v-742h741z" />
    <glyph glyph-name="comma" unicode="," horiz-adv-x="642" 
d="M329 128q32 0 53.5 -24.5t21.5 -70.5q0 -59 -11.5 -125t-53 -157t-108.5 -155q-10 -10 -21 1l-8 9q-8 9 1 18q57 58 92 141t35 166q0 24 -6.5 34.5t-29.5 21.5q-40 20 -40 66q0 31 22 53t53 22z" />
    <glyph glyph-name="hyphen" unicode="-" horiz-adv-x="1656" 
d="M249 915q-12 0 -12 13v36q0 13 12 13h1158q12 0 12 -13v-36q0 -13 -12 -13h-1158z" />
    <glyph glyph-name="period" unicode="." horiz-adv-x="627" 
d="M313 -22q-30 0 -52.5 22.5t-22.5 52.5q0 31 22.5 53t52.5 22q31 0 53 -22t22 -53q0 -30 -22 -52.5t-53 -22.5z" />
    <glyph glyph-name="slash" unicode="/" horiz-adv-x="1466" 
d="M1312 2607q5 11 17 7l34 -16q4 -1 6 -6.5t0 -9.5l-1236 -2650q-6 -12 -17 -6l-33 16q-4 1 -6 6.5t0 9.5z" />
    <glyph glyph-name="zero" unicode="0" horiz-adv-x="2173" 
d="M1087 2462q195 0 356.5 -87.5t275 -247t176 -392.5t62.5 -515t-62.5 -515t-176 -392.5t-275 -247t-356.5 -87.5q-260 0 -457 150.5t-305 432.5t-108 659t108 659t305 432.5t457 150.5zM1087 40q240 0 421 145t279 412.5t98 622.5t-98 622.5t-279 412.5t-421 145
t-421 -145t-279.5 -412.5t-98.5 -622.5t98.5 -622.5t279.5 -412.5t421 -145z" />
    <glyph glyph-name="one" unicode="1" horiz-adv-x="1431" 
d="M921 2440q5 0 8.5 -4t3.5 -8v-2416q0 -4 -3.5 -8t-8.5 -4h-46q-5 0 -8.5 4t-3.5 8v2356l-520 -275q-12 -6 -18 6l-16 33q-6 11 6 17l550 286q9 5 23 5h33z" />
    <glyph glyph-name="two" unicode="2" horiz-adv-x="1990" 
d="M1820 61q5 0 9 -3.5t4 -8.5v-37q0 -5 -4 -8.5t-9 -3.5h-1591q-12 0 -12 12v20q0 13 5 17q374 298 636.5 538t448.5 461t274 412.5t88 369.5q0 264 -157 417t-465 153q-415 0 -728 -369q-11 -11 -23 3l-22 23q-7 8 6 22q334 383 780 383q168 0 298 -46.5t213 -130.5
t125.5 -198.5t42.5 -253.5q0 -152 -58.5 -309t-167 -317t-285 -346t-389.5 -375.5t-504 -424.5h1485z" />
    <glyph glyph-name="three" unicode="3" horiz-adv-x="2070" 
d="M1147 1259q359 -43 532.5 -207t173.5 -436q0 -201 -99 -345.5t-279 -218.5t-423 -74q-143 0 -273 31t-234.5 86t-187 120.5t-152.5 145.5q-12 15 -6 22l22 25q13 13 23 3q141 -164 344.5 -267.5t453.5 -103.5q346 0 543.5 150t197.5 426q0 142 -50.5 252.5t-156.5 191.5
t-281 124.5t-412 44.5q-5 0 -9 3.5t-4 8.5v27q0 4 4 8t8 4q198 1 355 47.5t256.5 127.5t151.5 186.5t52 229.5q0 256 -155.5 392.5t-470.5 136.5q-424 0 -727 -347q-10 -10 -23 3l-20 23q-7 7 6 22q318 361 778 361q336 0 508.5 -155t172.5 -432q0 -232 -160 -397.5
t-459 -218.5z" />
    <glyph glyph-name="four" unicode="4" horiz-adv-x="2158" 
d="M1988 704q4 0 8 -4t4 -8v-37q0 -5 -4 -8.5t-8 -3.5h-434v-631q0 -4 -4 -8t-8 -4h-46q-4 0 -8 4t-4 8v631h-1346q-4 0 -8 3.5t-4 8.5v33q0 5 3 9l1356 1736q5 7 23 7h34q4 0 8 -4t4 -8v-1724h434zM218 704h1266v1623z" />
    <glyph glyph-name="five" unicode="5" horiz-adv-x="2090" 
d="M1031 1436q138 0 262.5 -30t230.5 -91t183.5 -147.5t121.5 -207.5t44 -263q0 -139 -43 -256.5t-120 -202t-182 -143.5t-229.5 -88t-263.5 -29q-185 0 -339.5 48.5t-262.5 125t-207 189.5q-13 14 -6 22l22 25q13 13 23 3q300 -351 761 -351q163 0 302 41.5t246 121
t168 206.5t61 289q0 161 -61 291.5t-167.5 214.5t-247 128.5t-302.5 44.5q-336 0 -625 -176q-4 -3 -9 0l-42 18q-7 4 -7 11l135 1198q0 5 4 8.5t9 3.5h1244q5 0 9 -3.5t4 -8.5v-37q0 -5 -4 -8.5t-9 -3.5h-1192l-127 -1110q155 87 302.5 127t313.5 40z" />
    <glyph glyph-name="six" unicode="6" horiz-adv-x="2051" 
d="M1051 1516q171 0 317 -57t248 -157.5t160 -242.5t58 -307q0 -221 -104.5 -398.5t-289.5 -276.5t-416 -99q-173 0 -323 58.5t-256.5 162t-167 251t-60.5 318.5q0 387 84 692.5t250 524.5t423 341t594 136q13 0 13 -13v-36q0 -13 -13 -13q-293 -13 -522 -112t-386 -277.5
t-249 -427.5t-118 -567q86 221 290 360.5t468 139.5zM1024 40q156 0 293.5 54.5t235 148.5t153.5 226.5t56 282.5q0 203 -89.5 363t-254 249.5t-376.5 89.5q-157 0 -298.5 -59.5t-240.5 -157t-157 -225t-58 -260.5q0 -150 56 -282.5t153 -226.5t234 -148.5t293 -54.5z" />
    <glyph glyph-name="seven" unicode="7" horiz-adv-x="2029" 
d="M630 0q-8 0 -12 7t0 15l1098 2357h-1546q-12 0 -12 12v37q0 12 12 12h1619q5 0 9 -3.5t4 -8.5v-19q0 -8 -6 -22l-1108 -2381q-4 -6 -10 -6h-48z" />
    <glyph glyph-name="eight" unicode="8" horiz-adv-x="2073" 
d="M1237 1278q93 -16 178.5 -47t167 -85t141 -123.5t96 -169t36.5 -215.5q0 -202 -102 -352t-287 -229t-431 -79q-245 0 -430 79t-287 229t-102 352q0 116 36.5 215.5t96 169t141 123.5t167 85t178.5 47q-80 15 -155 44t-148 77.5t-127 110t-87 149.5t-33 189
q0 128 53 240.5t149 195.5t237.5 130.5t310.5 47.5t310.5 -47.5t237.5 -130.5t149.5 -195.5t53.5 -240.5q0 -101 -33 -189t-87 -149.5t-127 -110t-148 -77.5t-155 -44zM355 1845q0 -158 90 -281t244.5 -189t346.5 -66t347 66t245 189t90 281q0 116 -49 218t-136.5 177
t-216 118.5t-280.5 43.5t-280.5 -43.5t-215.5 -118.5t-136 -177t-49 -218zM1036 40q223 0 393.5 75.5t263.5 212t93 314.5q0 270 -206.5 436.5t-543.5 166.5q-222 0 -392.5 -75.5t-263.5 -212.5t-93 -315t93 -314.5t263.5 -212t392.5 -75.5z" />
    <glyph glyph-name="nine" unicode="9" horiz-adv-x="1996" 
d="M999 2462q167 0 311.5 -58.5t247.5 -162t162 -251t59 -318.5q0 -203 -24 -387t-75 -353t-127 -310.5t-184 -257.5t-241.5 -196t-304.5 -124t-368 -44q-12 0 -12 12v37q0 12 12 12q237 1 432 68t335.5 186t242 289.5t158.5 372t78 439.5q-85 -217 -281.5 -354.5
t-446.5 -137.5q-219 0 -391.5 97.5t-268.5 272t-96 394.5q0 221 101.5 398.5t280 276.5t400.5 99zM981 985q150 0 286.5 59.5t232 157t151.5 225.5t56 261q0 201 -92 364t-254 255.5t-362 92.5q-150 0 -282 -54.5t-226 -148.5t-148.5 -226.5t-54.5 -282.5q0 -203 86.5 -363
t244.5 -250t362 -90z" />
    <glyph glyph-name="colon" unicode=":" horiz-adv-x="627" 
d="M313 1485q-30 0 -52.5 22.5t-22.5 52.5q0 31 22.5 53t52.5 22q31 0 53 -22t22 -53q0 -30 -22 -52.5t-53 -22.5zM313 -22q-30 0 -52.5 22.5t-22.5 52.5q0 31 22.5 53t52.5 22q31 0 53 -22t22 -53q0 -30 -22 -52.5t-53 -22.5z" />
    <glyph glyph-name="semicolon" unicode=";" horiz-adv-x="647" 
d="M333 1485q-30 0 -52.5 22.5t-22.5 52.5q0 31 22.5 53t52.5 22q31 0 53 -22t22 -53q0 -30 -22 -52.5t-53 -22.5zM329 128q32 0 53.5 -24.5t21.5 -70.5q0 -59 -11.5 -125t-53 -157t-108.5 -155q-10 -10 -21 1l-8 9q-8 9 1 18q57 58 92 141t35 166q0 24 -6.5 34.5
t-29.5 21.5q-40 20 -40 66q0 31 22 53t53 22z" />
    <glyph glyph-name="less" unicode="&#x3c;" horiz-adv-x="2039" 
d="M1803 1721q0 -7 -13 -13l-1484 -671l1484 -672q13 -6 13 -13v-43q0 -6 -4 -9.5t-9 -1.5l-1541 700q-12 6 -12 15v47q0 9 12 15l1541 700q5 2 9 -1.5t4 -9.5v-43z" />
    <glyph glyph-name="equal" unicode="=" horiz-adv-x="2039" 
d="M249 1370q-12 0 -12 12v34q0 12 12 12h1541q5 0 9 -3.5t4 -8.5v-34q0 -5 -4 -8.5t-9 -3.5h-1541zM249 664q-12 0 -12 12v34q0 12 12 12h1541q5 0 9 -3.5t4 -8.5v-34q0 -5 -4 -8.5t-9 -3.5h-1541z" />
    <glyph glyph-name="greater" unicode="&#x3e;" horiz-adv-x="2039" 
d="M236 1721v43q0 6 4 9.5t9 1.5l1541 -700q12 -6 12 -15v-47q0 -9 -12 -15l-1541 -700q-5 -2 -9 1.5t-4 9.5v43q0 7 13 13l1484 672l-1484 671q-13 6 -13 13z" />
    <glyph glyph-name="question" unicode="?" horiz-adv-x="1677" 
d="M1512 1895q0 505 -584 505q-206 0 -365 -73.5t-301 -208.5q-12 -12 -23 3l-20 26q-7 10 6 22q157 140 325 216.5t391 76.5q312 0 476.5 -143t164.5 -423q0 -91 -23.5 -173t-64 -147t-92.5 -126t-109.5 -118t-114.5 -115.5t-109 -126.5t-92.5 -142t-64 -170t-23.5 -204
q0 -11 -11 -11h-37q-12 0 -12 13q0 139 37.5 259.5t98 208.5t133 167.5t145.5 153.5t133.5 150t98 173t37.5 207zM859 -22q-30 0 -52.5 22.5t-22.5 52.5q0 31 22.5 53t52.5 22q31 0 53 -22t22 -53q0 -30 -22 -52.5t-53 -22.5z" />
    <glyph glyph-name="at" unicode="@" horiz-adv-x="3199" 
d="M2008 -532q-2 -10 -10 -10q-326 -76 -580 -76q-180 0 -337.5 34.5t-280 97t-223 150.5t-170.5 194t-117.5 228.5t-70 253t-22.5 268.5q0 222 57 426.5t160.5 371.5t250 304.5t322 231t381.5 144.5t424 51q213 0 396 -43.5t333.5 -133t257 -220.5t165 -314t58.5 -406
q0 -120 -17.5 -241t-51 -235t-86 -213t-118.5 -172.5t-152.5 -116t-183.5 -42.5q-91 0 -157.5 28.5t-104 78t-59 117t-23 145.5t4.5 164q-13 -58 -47.5 -126.5t-93 -141t-130 -131.5t-166 -96.5t-193.5 -37.5q-87 0 -161.5 19.5t-140.5 64t-112.5 112.5t-73.5 170t-27 230
q0 203 61.5 383t170 310.5t265.5 206t339 74.5q89 -1 185.5 -18.5t261.5 -58.5q8 -3 8 -12l-88 -904q-14 -119 -5.5 -215.5t37.5 -164.5t92.5 -105.5t159.5 -37.5q106 0 196.5 57.5t153 153.5t107 221.5t65.5 260.5t21 271q0 270 -84 475.5t-238 333t-361.5 191t-465.5 63.5
q-208 0 -404.5 -49t-365 -139t-310 -222.5t-241 -293.5t-155 -358t-55.5 -410q0 -186 41 -354t131.5 -318t223.5 -259.5t329 -174t436 -65.5q248 -1 572 74q7 2 12 -2.5t5 -11.5zM1432 56q117 0 227 56t196 153.5t144.5 237t74.5 300.5l63 644q-228 70 -396 70t-312 -71
t-244 -194t-156.5 -293t-56.5 -362q0 -119 24 -212.5t65.5 -154.5t101 -100.5t125.5 -56.5t144 -17z" />
    <glyph glyph-name="A" unicode="A" horiz-adv-x="2400" 
d="M2302 13q7 -13 -11 -13h-50q-12 0 -16 11l-391 903h-1283l-399 -903q-6 -11 -16 -11h-47q-18 0 -12 13l1096 2456q5 11 17 11h22q12 0 17 -11zM578 973h1231l-609 1407z" />
    <glyph glyph-name="B" unicode="B" horiz-adv-x="2251" 
d="M1349 1258q144 -3 268.5 -46t217.5 -120t146 -193t53 -257q0 -140 -50 -255t-150 -202.5t-264 -136t-379 -48.5h-903h-28q-4 0 -8 4t-4 8v2416q0 4 4 8t8 4h46h807q216 0 378.5 -42.5t262.5 -123t149 -189.5t49 -248q0 -136 -48.5 -246t-132 -180.5t-191.5 -109.5
t-231 -43zM1881 1833q0 546 -775 546h-788v-1093h856q356 0 531.5 144t175.5 403zM1184 61q164 0 295.5 29t221 80.5t149 125t86.5 160.5t27 189q0 129 -46 234t-138.5 184t-244.5 122.5t-353 43.5h-863v-1168h866z" />
    <glyph glyph-name="C" unicode="C" horiz-adv-x="2583" 
d="M216 1220q0 187 43.5 356.5t122 304.5t188 245t241 183.5t282.5 113t310 39.5v-62q-150 0 -292 -38t-265 -108.5t-226.5 -175.5t-176.5 -233.5t-114 -288.5t-41 -336t41 -336t114 -288.5t176.5 -233.5t226.5 -175.5t265 -108.5t292 -38v-62q-159 0 -310 39.5t-282.5 113
t-241 183.5t-188 245t-122 304.5t-43.5 356.5zM2328 1800q-156 311 -387 456t-537 145v61q665 0 981 -634q7 -14 -6 -18l-33 -16q-13 -4 -18 6zM2379 630q13 -4 6 -18q-316 -634 -981 -634v61q306 0 537 145t387 456q5 10 18 6z" />
    <glyph glyph-name="D" unicode="D" horiz-adv-x="2451" 
d="M1011 2440q204 0 388 -51.5t336.5 -154t264 -247.5t173 -341.5t61.5 -425.5t-61.5 -425.5t-173 -341.5t-264 -247.5t-336.5 -154t-388 -51.5h-725h-26q-4 0 -8 4t-4 8v2416q0 4 4 8t8 4h46h705zM1008 61q193 0 366.5 49.5t317.5 147.5t249 236t163.5 324t58.5 402
t-58.5 402t-163.5 324t-249 236t-317.5 147.5t-366.5 49.5h-690v-2318h690z" />
    <glyph glyph-name="E" unicode="E" horiz-adv-x="2082" 
d="M1862 61q12 0 12 -12v-37q0 -4 -4 -8t-8 -4h-1570h-32q-4 0 -8 4t-4 8v2416q0 4 4 8t8 4h46h1516q12 0 12 -12v-37q0 -12 -12 -12h-1504v-1069h1344q12 0 12 -12v-37q0 -12 -12 -12h-1344v-1188h1544z" />
    <glyph glyph-name="F" unicode="F" horiz-adv-x="1982" 
d="M1782 2440q12 0 12 -12v-37q0 -12 -12 -12h-1464v-1189h1384q12 0 12 -12v-37q0 -12 -12 -12h-1384v-1117q0 -4 -4 -8t-8 -4h-46q-4 0 -8 4t-4 8v2416q0 4 4 8t8 4h46h1476z" />
    <glyph glyph-name="G" unicode="G" horiz-adv-x="2629" 
d="M2370 1062q5 0 8.5 -4t3.5 -9v-775q-242 -161 -467 -228.5t-512 -67.5q-159 0 -310 39.5t-282.5 113t-241 183.5t-188 245t-122 304.5t-43.5 356.5t43.5 356.5t122 304.5t188 245t241 183.5t282.5 113t310 39.5q329 0 557.5 -136.5t409.5 -427.5q7 -10 -6 -18l-35 -16
q-10 -5 -18 7q-172 276 -386 402.5t-522 126.5q-150 0 -292 -38t-265 -108.5t-226.5 -175.5t-176.5 -233.5t-114 -288.5t-41 -336t41 -336t114 -288.5t176.5 -233.5t226.5 -175.5t265 -108.5t292 -38q260 0 471 58.5t441 200.5v750q0 13 13 13h42z" />
    <glyph glyph-name="H" unicode="H" horiz-adv-x="2442" 
d="M2182 2440q4 0 8 -4t4 -8v-2416q0 -4 -4 -8t-8 -4h-46q-4 0 -8 4t-4 8v1237h-1806v-1237q0 -4 -4 -8t-8 -4h-46q-4 0 -8 4t-4 8v2416q0 4 4 8t8 4h46q4 0 8 -4t4 -8v-1118h1806v1118q0 4 4 8t8 4h46z" />
    <glyph glyph-name="I" unicode="I" horiz-adv-x="565" 
d="M248 2428q0 12 12 12h45q5 0 9 -4t4 -8v-2416q0 -4 -4 -8t-9 -4h-45q-12 0 -12 12v2416z" />
    <glyph glyph-name="J" unicode="J" horiz-adv-x="1733" 
d="M1474 2440q4 0 8 -4t4 -8v-1701q0 -370 -180 -559.5t-519 -189.5q-454 0 -676 445q-7 15 4 20l38 16q12 6 18 -8q101 -202 250 -306.5t362 -104.5q633 0 633 690v1698q0 4 4 8t8 4h46z" />
    <glyph glyph-name="K" unicode="K" horiz-adv-x="2177" 
d="M306 2440q4 0 8 -4t4 -8v-2416q0 -4 -4 -8t-8 -4h-46q-4 0 -8 4t-4 8v2416q0 4 4 8t8 4h46zM1998 17q7 -7 5 -12t-11 -5h-56q-15 0 -24 10l-1226 1230l1225 1190q9 10 24 10h53q7 0 8.5 -4.5t-5.5 -12.5l-1216 -1181z" />
    <glyph glyph-name="L" unicode="L" horiz-adv-x="1888" 
d="M1768 61q12 0 12 -12v-37q0 -4 -4 -8t-8 -4h-1476h-32q-4 0 -8 4t-4 8v2416q0 4 4 8t8 4h46q4 0 8 -4t4 -8v-2367h1450z" />
    <glyph glyph-name="M" unicode="M" horiz-adv-x="2842" 
d="M2550 2466q10 14 20 14h12q12 0 12 -12v-2456q0 -12 -12 -12h-45q-5 0 -9 3.5t-4 8.5v2294l-1092 -1773q-10 -18 -22 0l-1092 1773v-2294q0 -5 -4 -8.5t-9 -3.5h-45q-12 0 -12 12v2456q0 12 12 12h11q11 0 21 -14l1129 -1827z" />
    <glyph glyph-name="N" unicode="N" horiz-adv-x="2482" 
d="M2222 2440q12 0 12 -12v-2456q0 -12 -12 -12h-5q-14 0 -20 9l-1879 2362v-2319q0 -5 -4 -8.5t-9 -3.5h-45q-12 0 -12 12v2456q0 12 12 12h5q11 0 19 -9l1880 -2362v2319q0 5 4 8.5t9 3.5h45z" />
    <glyph glyph-name="O" unicode="O" horiz-adv-x="2807" 
d="M1403 2462q159 0 310 -39.5t282.5 -113t241 -183.5t188 -245t122 -304.5t43.5 -356.5t-43.5 -356.5t-122 -304.5t-188 -245t-241 -183.5t-282.5 -113t-310 -39.5q-191 0 -368.5 55.5t-325.5 163t-258.5 256t-172 346t-61.5 421.5t61.5 421.5t172 346t258.5 256t325.5 163
t368.5 55.5zM1403 40q150 0 292 38t265 108.5t226.5 175.5t176.5 233.5t114 288.5t41 336t-41 336t-114 288.5t-176.5 233.5t-226.5 175.5t-265 108.5t-292 38q-180 0 -347 -53.5t-306 -156.5t-242.5 -244.5t-161.5 -328.5t-58 -397t58 -397t161.5 -328.5t242.5 -244.5
t306 -156.5t347 -53.5z" />
    <glyph glyph-name="P" unicode="P" horiz-adv-x="2101" 
d="M1068 2440q184 0 334 -40t251.5 -108t170 -161.5t99.5 -198t31 -219.5q0 -95 -22 -183.5t-66.5 -170.5t-117.5 -149.5t-169 -117.5t-226.5 -77.5t-284.5 -27.5h-750v-975q0 -4 -4 -8t-8 -4h-46q-4 0 -8 4t-4 8v2416q0 4 4 8t8 4h46h762zM1061 1048q175 0 315.5 37
t233.5 99t155.5 148t90 181t27.5 200q0 87 -19.5 167.5t-60 156.5t-107 137.5t-155.5 107.5t-211.5 71.5t-268.5 25.5h-743v-1331h743z" />
    <glyph glyph-name="Q" unicode="Q" horiz-adv-x="2807" 
d="M2299 -423q12 0 12 -13v-40q0 -12 -13 -12q-75 0 -151 19.5t-149.5 60t-135 98t-109 140.5t-70.5 180q-137 -32 -280 -32q-191 0 -368.5 55.5t-325.5 163t-258.5 256t-172 346t-61.5 421.5t61.5 421.5t172 346t258.5 256t325.5 163t368.5 55.5q159 0 310 -39.5
t282.5 -113t241 -183.5t188 -245t122 -304.5t43.5 -356.5q0 -229 -64.5 -430t-179.5 -351.5t-270 -256.5t-338 -158q27 -111 88 -199t139 -140.5t163.5 -80t170.5 -27.5zM288 1220q0 -210 58 -397t161.5 -328.5t242.5 -244.5t306 -156.5t347 -53.5q150 0 292 38t265 108.5
t226.5 175.5t176.5 233.5t114 288.5t41 336t-41 336t-114 288.5t-176.5 233.5t-226.5 175.5t-265 108.5t-292 38q-180 0 -347 -53.5t-306 -156.5t-242.5 -244.5t-161.5 -328.5t-58 -397z" />
    <glyph glyph-name="R" unicode="R" horiz-adv-x="2121" 
d="M1920 25q5 -7 1.5 -16t-14.5 -9h-43q-9 0 -18 13l-674 1020q-69 -6 -144 -6h-710v-1015q0 -4 -4 -8t-8 -4h-46q-4 0 -8 4t-4 8v2416q0 4 4 8t8 4h46h722q184 0 334 -37.5t251.5 -103t170 -156t99.5 -193t31 -217.5q0 -126 -39 -237.5t-117.5 -205t-209 -158.5t-302.5 -90
zM1021 1088q175 0 315.5 34.5t233.5 94t155.5 142.5t90 176t27.5 198t-27.5 198t-90 176.5t-155.5 143t-233.5 94t-315.5 34.5h-703v-1291h703z" />
    <glyph glyph-name="S" unicode="S" horiz-adv-x="2159" 
d="M354 1840q0 -114 45 -202.5t108 -142.5t176 -99.5t201 -69t230 -55.5q117 -26 177 -41t163.5 -47.5t159.5 -62t129 -80t109.5 -108t63.5 -139.5t27 -180q0 -135 -48 -244t-128.5 -181t-192 -120t-233.5 -69t-257 -21q-252 0 -457.5 72t-396.5 204q-19 11 -11 25l15 28
q9 13 24 3q80 -51 127 -79t134 -70t162 -64.5t181 -39.5t221 -17q126 0 238 18t214 60.5t175.5 106.5t117 161t43.5 219q0 90 -25 164.5t-60 127.5t-103.5 99.5t-122.5 74.5t-151.5 58t-157 45t-170.5 40q-114 26 -172 40.5t-158 45t-153.5 58.5t-123 75.5t-104.5 101.5
t-60.5 130t-25.5 167q0 288 215.5 459t603.5 171q126 0 240.5 -18t209.5 -52.5t165.5 -68.5t146.5 -81q13 -9 6 -23l-16 -30q-8 -15 -23 -3q-152 97 -324.5 156t-394.5 59q-366 0 -562.5 -152t-196.5 -409z" />
    <glyph glyph-name="T" unicode="T" horiz-adv-x="2352" 
d="M2152 2440q4 0 8 -4t4 -8v-37q0 -5 -4 -8.5t-8 -3.5h-941v-2367q0 -4 -3.5 -8t-8.5 -4h-46q-5 0 -8.5 4t-3.5 8v2367h-941q-12 0 -12 12v37q0 12 12 12h999h953z" />
    <glyph glyph-name="U" unicode="U" horiz-adv-x="2402" 
d="M2142 2440q4 0 8 -4t4 -8v-1425q0 -498 -250 -770.5t-703 -272.5t-703 272.5t-250 770.5v1425q0 12 12 12h45q5 0 9 -4t4 -8v-1418q0 -474 228 -731.5t655 -257.5t655 257.5t228 731.5v1418q0 5 4 8.5t9 3.5h45z" />
    <glyph glyph-name="V" unicode="V" horiz-adv-x="2320" 
d="M2211 2440q17 0 11 -14l-1036 -2455q-4 -11 -17 -11h-21q-12 0 -17 11l-1054 2456q-6 13 11 13h51q11 0 17 -11l1004 -2368l987 2368q5 11 17 11h47z" />
    <glyph glyph-name="W" unicode="W" horiz-adv-x="3207" 
d="M3098 2440q16 0 12 -13l-760 -2456q-4 -11 -16 -11h-21q-12 0 -15 11l-705 2213l-701 -2213q-4 -11 -16 -11h-21q-12 0 -15 11l-764 2455q-5 14 12 14h45q13 0 16 -11l719 -2349l699 2226q5 11 16 11h20q11 0 16 -11l704 -2226l714 2350q4 10 16 10h45z" />
    <glyph glyph-name="X" unicode="X" horiz-adv-x="2264" 
d="M2135 17q13 -17 -7 -17h-48q-16 0 -25 10l-930 1165l-930 -1168q-6 -7 -17 -7h-42q-23 0 -7 21l958 1202l-954 1196q-16 21 10 21h41q11 0 15.5 -2.5t12.5 -12.5l917 -1149l913 1154q10 10 24 10h46q20 0 6 -17l-950 -1195z" />
    <glyph glyph-name="Y" unicode="Y" horiz-adv-x="2240" 
d="M2131 2440q20 0 12 -13l-989 -1537v-878q0 -4 -4 -8t-8 -4h-45q-5 0 -9 3.5t-4 8.5v877l-1006 1538q-8 13 11 13h50q10 0 17 -11l964 -1475l947 1475q7 11 18 11h46z" />
    <glyph glyph-name="Z" unicode="Z" horiz-adv-x="2261" 
d="M170 0q-12 0 -12 12v20q0 12 5 17l1779 2330h-1709q-5 0 -8.5 3.5t-3.5 8.5v37q0 4 3.5 8t8.5 4h1796q5 0 8.5 -4t3.5 -8v-20q0 -11 -6 -17l-1778 -2330h1795q4 0 8 -3.5t4 -8.5v-37q0 -4 -4 -8t-8 -4h-1882z" />
    <glyph glyph-name="bracketleft" unicode="[" horiz-adv-x="809" 
d="M639 2505h-330v-3059h330q12 0 12 -12v-30q0 -12 -12 -12h-362h-17q-12 0 -12 12v3144q0 12 12 12h37h342q5 0 8.5 -4t3.5 -8v-30q0 -5 -3.5 -9t-8.5 -4z" />
    <glyph glyph-name="backslash" unicode="\" horiz-adv-x="1465" 
d="M133 2607l1235 -2649q2 -4 0 -9.5t-6 -6.5l-33 -16q-11 -6 -17 6l-1236 2650q-2 4 0 9.5t6 6.5l34 16q12 4 17 -7z" />
    <glyph glyph-name="bracketright" unicode="]" horiz-adv-x="809" 
d="M548 2560q12 0 12 -12v-3144q0 -12 -12 -12h-37h-342q-12 0 -12 12v30q0 12 12 12h330v3059h-330q-5 0 -8.5 4t-3.5 9v30q0 4 3.5 8t8.5 4h362h17z" />
    <glyph glyph-name="asciicircum" unicode="^" horiz-adv-x="1612" 
d="M1512 1856q7 -8 2.5 -17t-15.5 -9h-36q-6 0 -9 5l-658 918l-658 -918q-3 -5 -9 -5h-36q-10 0 -15 9t1 17l680 938q5 6 9 6h56q4 0 9 -6z" />
    <glyph glyph-name="underscore" unicode="_" horiz-adv-x="1366" 
d="M12 -58q-4 0 -8 4t-4 8v34q0 4 4 8t8 4h1342q4 0 8 -4t4 -8v-34q0 -4 -4 -8t-8 -4h-1342z" />
    <glyph glyph-name="grave" unicode="`" horiz-adv-x="658" 
d="M611 1869l-553 458q-11 8 -2 17l21 29q9 9 18 1l550 -463q9 -8 2 -18l-18 -22q-8 -10 -18 -2z" />
    <glyph glyph-name="a" unicode="a" horiz-adv-x="1671" 
d="M1540 21q5 -14 -6 -20l-25 -10q-12 -5 -17 4q-111 214 -134 467q-72 -205 -258 -344.5t-418 -139.5q-226 0 -365.5 131.5t-139.5 328.5q0 141 76 252.5t224.5 180.5t368 75t506.5 -65v158q0 101 -12 178t-43.5 146.5t-84 114t-137 70.5t-198.5 26q-153 0 -278.5 -41.5
t-283.5 -129.5q-13 -6 -18 7l-15 31q-4 12 8 18q168 92 300 134t292 42q126 0 221 -29t155 -79.5t97 -127t51.5 -162t14.5 -194.5v-443q0 -193 28.5 -312t90.5 -267zM690 38q140 0 266 57t211 147t135 202t50 222v161q-274 69 -481 67t-345.5 -63.5t-208.5 -162.5t-70 -232
q0 -175 120.5 -286.5t322.5 -111.5z" />
    <glyph glyph-name="b" unicode="b" horiz-adv-x="2063" 
d="M1058 1635q130 0 251 -37.5t221.5 -110t176 -172t117.5 -230.5t42 -278t-42 -278t-117.5 -230.5t-176 -172t-221.5 -110t-251 -37.5q-260 0 -459 145.5t-283 385.5v-498q0 -12 -12 -12h-44q-4 0 -8 4t-4 8v2536q0 4 4 8t8 4h44q12 0 12 -12v-1444q84 240 283 385.5
t459 145.5zM1054 40q150 0 285.5 55t236.5 153t160.5 243t59.5 316t-59.5 316t-160.5 243t-236.5 153t-285.5 55q-154 0 -292.5 -62t-236.5 -166t-155 -245t-57 -294t57 -294t155 -245t236.5 -166t292.5 -62z" />
    <glyph glyph-name="c" unicode="c" horiz-adv-x="1877" 
d="M1682 443q12 -5 6 -18q-93 -214 -263 -330.5t-412 -116.5q-168 0 -317 60t-259.5 166t-175 262.5t-64.5 340.5t64.5 340t175 262.5t259.5 166t317 59.5q242 0 412 -116.5t263 -330.5q6 -13 -6 -18l-35 -16q-12 -4 -18 6q-187 414 -612 414q-155 0 -292.5 -55t-238.5 -153
t-160 -243t-59 -316t59 -316t160 -243t238.5 -153t292.5 -55q437 0 612 413q6 12 18 6z" />
    <glyph glyph-name="d" unicode="d" horiz-adv-x="2063" 
d="M1803 2560q5 0 8.5 -4t3.5 -8v-2536q0 -4 -3.5 -8t-8.5 -4h-44q-12 0 -12 12v498q-84 -240 -283 -385.5t-459 -145.5q-130 0 -251 37.5t-221.5 110t-176 172t-117.5 230.5t-42 278t42 278t117.5 230.5t176 172t221.5 110t251 37.5q260 0 459 -145.5t283 -385.5v1444
q0 12 12 12h44zM1009 40q154 0 292.5 62t236.5 166t155 245t57 294t-57 294t-155 245t-236.5 166t-292.5 62q-150 0 -285.5 -55t-236.5 -153t-160.5 -243t-59.5 -316t59.5 -316t160.5 -243t236.5 -153t285.5 -55z" />
    <glyph glyph-name="e" unicode="e" horiz-adv-x="1900" 
d="M1676 441q11 -5 6 -17q-95 -218 -265.5 -332t-409.5 -114q-164 0 -311.5 60t-258 166t-175.5 263t-65 340q0 184 62 340t168.5 262.5t251.5 166t309 59.5q320 0 517.5 -209t197.5 -555h-1434q-2 -42 -2 -64q0 -171 59.5 -316t160.5 -243t236 -153t285 -55
q219 0 375 103.5t239 308.5q6 11 18 6zM988 1575q-182 0 -335 -78t-253.5 -226t-125.5 -343h1355q-13 295 -188 471t-453 176z" />
    <glyph glyph-name="f" unicode="f" horiz-adv-x="1362" 
d="M1314 2444q15 -14 6 -25l-18 -25q-9 -10 -26 2q-148 129 -345 129q-112 0 -194 -38t-128.5 -107t-68.5 -155.5t-22 -194.5v-417h732q13 0 13 -12v-37q0 -5 -4 -8.5t-9 -3.5h-732v-1540q0 -12 -12 -12h-44q-4 0 -8 4t-4 8v1540h-338q-4 0 -8 4t-4 8v37q0 12 12 12h338v420
q0 119 28 217t84 174t148.5 118.5t214.5 42.5q111 0 214.5 -39.5t174.5 -101.5z" />
    <glyph glyph-name="g" unicode="g" horiz-adv-x="1775" 
d="M1684 1675q13 0 13 -12v-38q0 -12 -12 -12q-105 0 -184 -53t-106 -147q126 -151 126 -341q0 -151 -80 -279.5t-224.5 -206.5t-322.5 -78h-191q-213 0 -316.5 -69.5t-103.5 -176.5q0 -42 11 -75t39.5 -64t75 -51.5t121 -32.5t173.5 -12h248q350 0 541.5 -131t191.5 -356
q0 -224 -192 -357t-541 -133t-541 131t-192 352q0 152 117.5 267.5t306.5 172.5q-123 4 -208.5 27.5t-131.5 63.5t-65 87t-19 108q0 119 103 201t308 97q-168 67 -268 206.5t-100 308.5q0 113 47.5 216t129.5 179.5t200.5 122t252.5 45.5q139 0 258 -47t205 -131
q40 100 129.5 159t200.5 59zM891 566q159 0 289 69.5t201.5 185t71.5 251.5q0 135 -71.5 250.5t-201.5 185t-289 69.5t-289 -69.5t-201.5 -185t-71.5 -250.5q0 -136 71.5 -251.5t201.5 -185t289 -69.5zM1618 -462q0 198 -173.5 314.5t-493.5 116.5q-172 0 -323.5 -52.5
t-247.5 -153t-96 -225.5q0 -200 173.5 -316t493.5 -116t493.5 116t173.5 316z" />
    <glyph glyph-name="h" unicode="h" horiz-adv-x="1928" 
d="M1075 1653q156 0 273 -49t189 -140t107.5 -214t35.5 -277v-961q0 -12 -12 -12h-44q-4 0 -8 4t-4 8v948q0 146 -31 260.5t-96 198.5t-171 128.5t-249 44.5q-136 0 -265 -49.5t-227.5 -132t-167 -193.5t-89.5 -231v-974q0 -4 -4 -8t-8 -4h-44q-12 0 -12 12v2536q0 12 12 12
h44q4 0 8 -4t4 -8v-1389q26 63 70.5 128.5t114.5 132t153 117.5t193 83.5t228 32.5z" />
    <glyph glyph-name="i" unicode="i" horiz-adv-x="545" 
d="M273 2026q-30 0 -52.5 22.5t-22.5 52.5q0 31 22.5 53t52.5 22q31 0 53 -22t22 -53q0 -30 -22 -52.5t-53 -22.5zM238 1601q0 12 13 12h43q13 0 13 -12v-1589q0 -5 -4 -8.5t-9 -3.5h-43q-5 0 -9 3.5t-4 8.5v1589z" />
    <glyph glyph-name="j" unicode="j" horiz-adv-x="591" 
d="M318 2176q31 0 53 -22t22 -53q0 -30 -22 -52.5t-53 -22.5q-30 0 -52.5 22.5t-22.5 52.5q0 31 22.5 53t52.5 22zM342 1613q12 0 12 -12v-1971q0 -107 -12.5 -193t-41.5 -159t-75 -121.5t-116 -76t-162 -27.5q-13 0 -13 13v34q0 10 12 12q184 1 262 128t78 391v1970
q0 12 12 12h44z" />
    <glyph glyph-name="k" unicode="k" horiz-adv-x="1634" 
d="M248 2548q0 12 12 12h44q4 0 8 -4t4 -8v-2536q0 -4 -4 -8t-8 -4h-44q-12 0 -12 12v2536zM1449 0q-13 0 -23 10l-874 877l830 720q7 6 18 6h61q6 0 8.5 -4t-1.5 -9l-823 -712l867 -871q15 -17 -6 -17h-57z" />
    <glyph glyph-name="l" unicode="l" horiz-adv-x="563" 
d="M248 2548q0 12 12 12h44q4 0 8 -4t4 -8v-2536q0 -4 -4 -8t-8 -4h-44q-12 0 -12 12v2536z" />
    <glyph glyph-name="m" unicode="m" horiz-adv-x="3077" 
d="M2246 1653q154 0 267.5 -49.5t182 -142t101 -214.5t32.5 -278v-957q0 -12 -12 -12h-44q-12 0 -12 12v945q0 635 -525 635q-179 0 -333 -101t-242 -264t-88 -343v-872q0 -5 -4 -8.5t-9 -3.5h-43q-5 0 -9 3.5t-4 8.5v945q0 635 -525 635q-179 0 -333 -101t-242 -264
t-88 -343v-872q0 -12 -12 -12h-44q-4 0 -8 4t-4 8v1589q0 12 12 12h44q12 0 12 -12v-466q23 65 59.5 131t96.5 137.5t132 125.5t173 89t212 35q266 0 407 -142.5t169 -397.5q23 75 63 148.5t101.5 145t136.5 125.5t174 87.5t206 33.5z" />
    <glyph glyph-name="n" unicode="n" 
d="M1084 1653q156 0 273 -49t189 -140t107.5 -214t35.5 -277v-961q0 -12 -12 -12h-44q-5 0 -8.5 4t-3.5 8v948q0 146 -31 260.5t-96 198.5t-171 128.5t-249 44.5q-150 0 -291 -60t-242.5 -157.5t-163 -227t-61.5 -263.5v-872q0 -12 -12 -12h-44q-4 0 -8 4t-4 8v1589
q0 12 12 12h44q12 0 12 -12v-466q22 63 65 131t113 138t155 124.5t199 89.5t236 35z" />
    <glyph glyph-name="o" unicode="o" horiz-adv-x="2017" 
d="M1008 1635q131 0 253 -37.5t223 -110t176.5 -172t117.5 -230.5t42 -278q0 -183 -65 -340t-176 -263t-259 -166t-312 -60t-311.5 60t-258.5 166t-176 263t-65 340q0 147 42 278t117.5 230.5t176.5 172t222.5 110t252.5 37.5zM1008 40q150 0 285.5 55t236.5 153t160.5 243
t59.5 316t-59.5 316t-160.5 243t-236.5 153t-285.5 55t-285 -55t-236 -153t-160.5 -243t-59.5 -316t59.5 -316t160.5 -243t236 -153t285 -55z" />
    <glyph glyph-name="p" unicode="p" horiz-adv-x="2063" 
d="M1058 1634q130 0 251 -37.5t221.5 -110t176 -172t117.5 -230.5t42 -278t-42 -278t-117.5 -230.5t-176 -172t-221.5 -110t-251 -37.5q-260 0 -459 145.5t-283 385.5v-1444q0 -12 -12 -12h-44q-4 0 -8 3.5t-4 8.5v2536q0 5 4 8.5t8 3.5h44q12 0 12 -12v-498
q84 240 283 385.5t459 145.5zM1054 39q150 0 285.5 55t236.5 153t160.5 243t59.5 316t-59.5 316t-160.5 243t-236.5 153t-285.5 55q-154 0 -292.5 -62t-236.5 -166t-155 -245t-57 -294t57 -294t155 -245t236.5 -166t292.5 -62z" />
    <glyph glyph-name="q" unicode="q" horiz-adv-x="2063" 
d="M1803 1613q5 0 8.5 -3.5t3.5 -8.5v-2536q0 -5 -3.5 -8.5t-8.5 -3.5h-44q-12 0 -12 12v1444q-84 -240 -283 -385.5t-459 -145.5q-130 0 -251 37.5t-221.5 110t-176 172t-117.5 230.5t-42 278t42 278t117.5 230.5t176 172t221.5 110t251 37.5q260 0 459 -145.5t283 -385.5
v498q0 12 12 12h44zM1009 39q154 0 292.5 62t236.5 166t155 245t57 294t-57 294t-155 245t-236.5 166t-292.5 62q-150 0 -285.5 -55t-236.5 -153t-160.5 -243t-59.5 -316t59.5 -316t160.5 -243t236.5 -153t285.5 -55z" />
    <glyph glyph-name="r" unicode="r" horiz-adv-x="1053" 
d="M923 1653q13 0 13 -12v-43q0 -12 -13 -13q-98 -1 -207 -60.5t-197 -152t-145.5 -216.5t-57.5 -244v-900q0 -12 -12 -12h-44q-4 0 -8 4t-4 8v1589q0 12 12 12h44q12 0 12 -12v-483q26 116 122 240.5t230.5 209.5t254.5 85z" />
    <glyph glyph-name="s" unicode="s" horiz-adv-x="1586" 
d="M314 1221q0 -82 37 -143t99 -98t142.5 -64t170 -47.5t178.5 -42.5t169.5 -55t142.5 -78t99 -119t37 -172q0 -96 -36 -171.5t-93 -122t-135.5 -77t-156.5 -42t-163 -11.5q-316 0 -601 182q-11 6 -6 17l16 31q7 13 19 5q142 -88 279 -131.5t292 -43.5q59 0 114.5 6
t116 20.5t109.5 41.5t89.5 65t63 96t22.5 129q0 189 -173 286q-96 55 -312 107q-214 52 -280 74q-201 68 -268 186q-40 71 -40 166q0 194 152.5 307t399.5 113q151 0 282 -45t265 -133q12 -7 6 -19l-14 -29q-6 -12 -17 -6q-136 89 -260 130.5t-262 41.5q-219 0 -351.5 -95
t-132.5 -259z" />
    <glyph glyph-name="t" unicode="t" horiz-adv-x="1445" 
d="M1285 154q7 -13 -7 -25q-182 -151 -392 -151q-100 0 -177 32t-124 83.5t-76.5 125t-40.5 148.5t-11 163v1022h-345q-4 0 -8 4t-4 8v37q0 12 12 12h345v414q0 11 12 15l43 12q13 4 13 -9v-432h732q12 0 12 -12v-37q0 -12 -12 -12h-732v-1019q0 -77 9.5 -144t35.5 -133
t66 -112.5t105 -75t150 -28.5q97 0 190.5 36t166.5 105q14 10 22 -2z" />
    <glyph glyph-name="u" unicode="u" 
d="M1677 1613q12 0 12 -12v-1589q0 -12 -12 -12h-44q-5 0 -8.5 4t-3.5 8v466q-22 -63 -65 -131t-113 -138t-155 -124.5t-199 -89.5t-236 -35q-156 0 -273 49t-189 140t-107.5 214t-35.5 277v961q0 12 12 12h44q4 0 8 -3.5t4 -8.5v-948q0 -146 31 -260.5t96 -198.5
t171 -128.5t249 -44.5q150 0 291 60t242.5 157.5t163 227t61.5 263.5v872q0 12 12 12h44z" />
    <glyph glyph-name="v" unicode="v" horiz-adv-x="1606" 
d="M1537 1613q9 0 11.5 -7t-2.5 -16l-724 -1621q-4 -9 -14 -9h-10q-9 0 -14 9l-724 1621q-5 8 -2.5 15.5t11.5 7.5h43q11 0 19 -13l674 -1528l673 1528q6 13 19 13h40z" />
    <glyph glyph-name="w" unicode="w" horiz-adv-x="2606" 
d="M2537 1613q19 0 9 -23l-598 -1621q-4 -9 -14 -9h-10q-9 0 -14 9l-607 1331l-608 -1331q-4 -9 -13 -9h-10q-10 0 -14 9l-598 1621q-10 23 9 23h42q11 0 19 -14l552 -1522l598 1315q7 17 18 17h10q11 0 18 -17l598 -1315l553 1522q6 14 19 14h41z" />
    <glyph glyph-name="x" unicode="x" horiz-adv-x="1669" 
d="M1548 17q14 -17 -3 -17h-55q-10 0 -17 7l-648 764l-630 -761q-10 -10 -24 -10h-42q-4 0 -7.5 1.5t-5 6t6.5 13.5l661 797l-660 778q-14 17 3 17h54q16 0 25 -10l621 -733l613 733q10 10 21 10h52q18 0 3 -17l-649 -774z" />
    <glyph glyph-name="y" unicode="y" horiz-adv-x="1606" 
d="M1537 1613q9 0 11.5 -7t-2.5 -16l-701 -1601q-84 -201 -150 -340t-139.5 -259t-144 -190t-152.5 -108.5t-175 -38.5q-13 0 -13 13v34q0 12 12 12q97 1 181.5 51.5t169 163.5t166.5 273.5t183 402.5l-723 1587q-5 9 -2.5 16t11.5 7h43q12 0 18 -13l685 -1523l663 1523
q7 13 19 13h40z" />
    <glyph glyph-name="z" unicode="z" horiz-adv-x="1788" 
d="M170 0q-12 0 -12 12v11q0 12 5 17l1270 1512h-1200q-5 0 -8.5 4t-3.5 8v37q0 5 3.5 8.5t8.5 3.5h1296q12 0 12 -11v-12q0 -10 -6 -17l-1270 -1512h1284q5 0 8.5 -3.5t3.5 -8.5v-37q0 -4 -3.5 -8t-8.5 -4h-1379z" />
    <glyph glyph-name="braceleft" unicode="{" horiz-adv-x="936" 
d="M768 2504q-172 -8 -265.5 -102.5t-93.5 -307.5q0 -86 32 -346.5t32 -331.5q-1 -181 -56 -286t-166 -154q111 -49 166 -154t56 -286q0 -71 -32 -332t-32 -347q0 -110 25.5 -188.5t74.5 -125t112.5 -69t146.5 -26.5q11 -2 11 -12v-22q0 -12 -12 -12q-197 1 -309 111.5
t-112 341.5q0 89 32.5 349t32.5 331q0 101 -20 178t-56 123.5t-76.5 73t-90.5 38.5q-10 2 -10 12v32q0 9 10 11q49 12 90 38.5t77 73.5t56 124t20 177q0 71 -32.5 331.5t-32.5 348.5q0 232 112 342.5t309 111.5q12 0 12 -12v-23q0 -11 -11 -11z" />
    <glyph glyph-name="bar" unicode="|" horiz-adv-x="557" 
d="M248 2928q0 12 12 12h37q5 0 8.5 -4t3.5 -8v-3324q0 -4 -3.5 -8t-8.5 -4h-37q-12 0 -12 12v3324z" />
    <glyph glyph-name="braceright" unicode="}" horiz-adv-x="936" 
d="M768 1003q10 -2 10 -11v-32q0 -10 -10 -12q-50 -12 -90.5 -38.5t-76.5 -73t-56 -123.5t-20 -178q0 -71 32.5 -331t32.5 -349q0 -231 -112 -341.5t-309 -111.5q-12 0 -12 12v22q0 10 11 12q83 4 146.5 26.5t112.5 69t74.5 125t25.5 188.5q0 86 -32 347t-32 332
q1 181 56 286t166 154q-111 49 -166 154t-56 286q0 71 32 331.5t32 346.5q0 213 -93.5 307.5t-265.5 102.5q-11 0 -11 11v23q0 12 12 12q197 -1 309 -111.5t112 -342.5q0 -88 -32.5 -348.5t-32.5 -331.5q0 -100 20 -177t56 -124t77 -73.5t90 -38.5z" />
    <glyph glyph-name="asciitilde" unicode="~" horiz-adv-x="2165" 
d="M1923 1175q7 -5 5 -13q-44 -129 -167 -227t-279 -98q-81 0 -157 23.5t-133 58.5t-120.5 76t-118 76t-126 58.5t-145.5 23.5q-133 0 -245.5 -85t-152.5 -197q-5 -14 -20 -7l-22 11q-8 5 -5 13q43 129 166.5 227t278.5 98q95 0 183.5 -32.5t158 -79t138 -93t151 -79
t169.5 -32.5q134 0 246.5 85t151.5 197q7 14 20 7z" />
    <glyph glyph-name="exclamdown" unicode="&#xa1;" horiz-adv-x="627" 
d="M313 1635q31 0 53 -22.5t22 -52.5q0 -31 -22 -53t-53 -22q-30 0 -52.5 22t-22.5 53q0 30 22.5 52.5t52.5 22.5zM279 -815l9 1853q0 12 12 12h26q13 0 13 -12l9 -1853q0 -5 -4 -8.5t-9 -3.5h-43q-5 0 -9 3.5t-4 8.5z" />
    <glyph glyph-name="cent" unicode="&#xa2;" horiz-adv-x="1877" 
d="M1682 443q12 -5 6 -18q-92 -210 -257 -326.5t-400 -120.5v-396q0 -5 -4 -9t-9 -4h-32q-4 0 -8.5 4.5t-4.5 8.5v397q-161 7 -303 69.5t-247 168.5t-165.5 259t-60.5 331t61 331t166 258.5t247 168t303 69.5v352q0 11 11 11h34q12 0 12 -11v-351q235 -4 400 -120.5
t257 -326.5q6 -13 -6 -18l-35 -16q-12 -4 -18 6q-187 414 -612 414q-155 0 -292.5 -55t-238.5 -153t-160 -243t-59 -316t59 -316t160 -243t238.5 -153t292.5 -55q437 0 612 413q6 12 18 6z" />
    <glyph glyph-name="sterling" unicode="&#xa3;" horiz-adv-x="2132" 
d="M1955 92q8 3 13.5 -1t5.5 -12v-34q0 -9 -9 -11q-118 -46 -239.5 -63.5t-229.5 -10t-216.5 25.5t-216.5 37t-214 29.5t-225 -1.5t-233 -51q-9 -4 -14 4l-25 31q-5 6 -1 13q94 198 150.5 367t75 305t16.5 239.5t-22 209.5h-401q-12 0 -12 12v33q0 13 12 13h389
q-12 53 -47.5 180t-52.5 223.5t-17 201.5q0 138 47 253.5t136 199.5t224 130.5t303 46.5q445 0 779 -383q14 -14 6 -22l-21 -23q-13 -15 -23 -3q-315 369 -728 369q-312 0 -482.5 -155.5t-170.5 -415.5q0 -101 18 -198t52.5 -220t47.5 -184h882q5 0 8.5 -4t3.5 -9v-33
q0 -5 -4 -8.5t-8 -3.5h-870q19 -106 20.5 -210t-18.5 -239t-77 -301.5t-150 -359.5q108 39 224.5 51t222 1.5t214 -29t216.5 -36t214 -25t222 9t225 61.5z" />
    <glyph glyph-name="currency" unicode="&#xa4;" horiz-adv-x="2747" 
d="M660 1694q139 140 323.5 218.5t389.5 78.5v-63q-189 0 -362.5 -75.5t-300 -202t-202 -301t-75.5 -364.5t75.5 -364.5t202 -301t300 -202t362.5 -75.5v-63q-205 0 -389.5 78.5t-323.5 218.5l-388 -392q-9 -11 -19 -1l-27 28q-9 9 1 19l397 384q-122 136 -189.5 308.5
t-67.5 362.5t67.5 362.5t189.5 308.5l-397 384q-10 10 -1 19l27 28q10 10 19 -1zM2123 314l397 -384q10 -10 1 -19l-27 -28q-10 -10 -19 1l-388 392q-139 -140 -323.5 -218.5t-389.5 -78.5v63q189 0 362.5 75.5t300 202t202 301t75.5 364.5t-75.5 364.5t-202 301t-300 202
t-362.5 75.5v63q205 0 389.5 -78.5t323.5 -218.5l388 392q9 11 19 1l27 -28q9 -9 -1 -19l-397 -384q122 -136 189.5 -308.5t67.5 -362.5t-67.5 -362.5t-189.5 -308.5z" />
    <glyph glyph-name="yen" unicode="&#xa5;" horiz-adv-x="2240" 
d="M2131 2440q20 0 12 -13l-947 -1472h438q5 0 9 -3.5t4 -8.5v-29q0 -13 -13 -13h-473l-7 -11v-343h480q13 0 13 -13v-29q0 -12 -13 -12h-480v-481q0 -4 -4 -8t-8 -4h-45q-5 0 -9 3.5t-4 8.5v481h-498q-12 0 -12 12v29q0 5 3.5 9t8.5 4h498v342l-8 12h-490q-5 0 -8.5 4
t-3.5 9v29q0 5 4 8.5t8 3.5h455l-963 1472q-8 13 11 13h50q10 0 17 -11l963 -1474h2l946 1474q7 11 18 11h46z" />
    <glyph glyph-name="brokenbar" unicode="&#xa6;" horiz-adv-x="557" 
d="M248 2928q0 12 12 12h37q5 0 8.5 -4t3.5 -8v-1116q0 -4 -3.5 -8t-8.5 -4h-37q-12 0 -12 12v1116zM248 719q0 13 12 13h37q5 0 8.5 -4t3.5 -9v-1115q0 -4 -3.5 -8t-8.5 -4h-37q-12 0 -12 12v1115z" />
    <glyph glyph-name="section" unicode="&#xa7;" horiz-adv-x="2202" 
d="M1797 215q188 -165 188 -432q0 -344 -234.5 -543.5t-648.5 -199.5q-385 0 -610.5 193.5t-274.5 551.5q-2 15 13 15h43q10 0 12 -10q47 -334 252 -512.5t565 -178.5q387 0 600 183t213 501q0 273 -221 435q-135 99 -412 190q-48 16 -146 47q-276 86 -397 143
q-254 117 -346 294q-145 278 61 778q-181 163 -181 427q0 342 228.5 542.5t618.5 200.5q377 0 586 -191.5t259 -553.5q0 -15 -14 -15h-43q-9 0 -12 10q-98 690 -776 690q-363 0 -570 -183.5t-207 -499.5q0 -274 222 -436q134 -98 410 -190q48 -16 145 -47q274 -86 395 -143
q252 -117 343 -294q143 -276 -61 -772zM501 1631q-53 -133 -78 -248.5t-28 -205t25.5 -168t60.5 -134t100.5 -108t122.5 -85.5t148.5 -71t157 -59t168.5 -54q419 -132 572 -245q190 483 23 744q-100 157 -355 266q-105 45 -375 130q-276 87 -406 154q-77 39 -136 84z" />
    <glyph glyph-name="dieresis" unicode="&#xa8;" horiz-adv-x="803" 
d="M77 2026q-30 0 -52.5 22.5t-22.5 52.5t22.5 52t52.5 22q31 0 52.5 -21.5t21.5 -52.5q0 -30 -22 -52.5t-52 -22.5zM727 2026q-30 0 -52.5 22.5t-22.5 52.5t22.5 52t52.5 22q31 0 52.5 -21.5t21.5 -52.5q0 -30 -22 -52.5t-52 -22.5z" />
    <glyph glyph-name="copyright" unicode="&#xa9;" horiz-adv-x="2913" 
d="M1457 2460q169 0 330 -44.5t297 -124.5t250 -194.5t194 -250.5t124.5 -296.5t44.5 -329.5q0 -253 -98 -482.5t-264 -395.5t-395.5 -264t-482.5 -98t-482.5 98t-395.5 264t-264 395.5t-98 482.5q0 169 44.5 329.5t124.5 296.5t194 250.5t250 194.5t297 124.5t330 44.5z
M1457 11q163 0 319 43.5t288.5 121.5t243.5 189.5t188.5 244t121 289.5t43.5 321q0 246 -95.5 470t-257 386t-384 258t-467.5 96t-468 -96t-384 -258t-256.5 -386t-95.5 -470q0 -164 43.5 -321t121 -289.5t188.5 -244t243 -189.5t288 -121.5t320 -43.5zM1486 1953
q-140 0 -266.5 -53t-221 -146.5t-150.5 -232.5t-56 -302t56 -302t150.5 -233t221 -146.5t266.5 -52.5v-1q387 0 575 374q2 4 11 4l21 -10q8 -4 3 -11q-197 -395 -610 -395q-149 0 -283.5 55t-235.5 153t-160.5 245t-59.5 320t59.5 319.5t160.5 245t235.5 153t283.5 54.5
q414 0 610 -394q2 -4 1.5 -6t-2 -3.5t-2.5 -1.5l-21 -10q-8 -4 -11 4q-188 373 -575 373z" />
    <glyph glyph-name="guillemotleft" unicode="&#xab;" horiz-adv-x="1765" 
d="M906 357q5 -3 5 -9v-27q0 -9 -8.5 -12t-15.5 3l-645 493q-5 3 -5 8v34q0 5 5 8l645 493q7 6 15.5 3t8.5 -12v-27q0 -6 -5 -10l-618 -472zM1528 1312q0 -6 -5 -10l-618 -472l618 -473q5 -3 5 -9v-27q0 -9 -8 -12t-16 3l-645 493q-5 3 -5 8v34q0 5 5 8l645 493q8 6 16 3
t8 -12v-27z" />
    <glyph glyph-name="logicalnot" unicode="&#xac;" horiz-adv-x="2039" 
d="M1790 1075q5 0 9 -3.5t4 -8.5v-34v-425q0 -12 -13 -12h-39q-13 0 -13 12v413h-1489q-12 0 -12 12v34q0 12 12 12h1541z" />
    <glyph glyph-name="registered" unicode="&#xae;" horiz-adv-x="2913" 
d="M1457 2460q169 0 330 -44.5t297 -124.5t250 -194.5t194 -250.5t124.5 -296.5t44.5 -329.5q0 -253 -98 -482.5t-264 -395.5t-395.5 -264t-482.5 -98t-482.5 98t-395.5 264t-264 395.5t-98 482.5q0 169 44.5 329.5t124.5 296.5t194 250.5t250 194.5t297 124.5t330 44.5z
M1457 11q163 0 319 43.5t288.5 121.5t243.5 189.5t188.5 244t121 289.5t43.5 321q0 246 -95.5 470t-257 386t-384 258t-467.5 96t-468 -96t-384 -258t-256.5 -386t-95.5 -470q0 -164 43.5 -321t121 -289.5t188.5 -244t243 -189.5t288 -121.5t320 -43.5zM1641 1108l419 -632
q3 -5 1 -10.5t-9 -5.5h-27q-5 0 -11 8l-419 635q-39 -4 -90 -4h-441v-632q0 -7 -8 -7h-28q-8 0 -8 7v1503q0 8 8 8h28h449q142 0 251 -35.5t173 -97.5t95.5 -139.5t31.5 -167.5q0 -164 -103 -281.5t-312 -148.5zM1501 1137q135 0 236.5 32.5t160 89t86.5 126.5t28 153
t-28 153t-86.5 127t-160 89.5t-236.5 32.5h-437v-803h437z" />
    <glyph glyph-name="macron" unicode="&#xaf;" horiz-adv-x="973" 
d="M-3 2109q0 5 3.5 8.5t8.5 3.5h955q5 0 9 -3.5t4 -8.5v-32q0 -5 -4 -8.5t-9 -3.5h-955q-5 0 -8.5 3.5t-3.5 8.5v32z" />
    <glyph glyph-name="degree" unicode="&#xb0;" horiz-adv-x="909" 
d="M445 1738q-153 0 -261 106.5t-108 258.5t108.5 260.5t260.5 108.5t260 -108.5t108 -260.5t-108 -258.5t-260 -106.5zM445 1792q131 0 220.5 90.5t89.5 220.5q0 132 -89 223.5t-221 91.5t-221.5 -91.5t-89.5 -223.5q0 -130 90 -220.5t221 -90.5z" />
    <glyph glyph-name="plusminus" unicode="&#xb1;" horiz-adv-x="2039" 
d="M1790 1087q5 0 9 -3.5t4 -8.5v-34q0 -5 -4 -8.5t-9 -3.5h-741v-741q0 -5 -3.5 -9t-8.5 -4h-34q-5 0 -8.5 4t-3.5 9v741h-742q-12 0 -12 12v34q0 12 12 12h742v742q0 12 12 12h34q12 0 12 -12v-742h741zM1790 58q5 0 9 -3.5t4 -8.5v-34q0 -5 -4 -8.5t-9 -3.5h-1541
q-12 0 -12 12v34q0 12 12 12h1541z" />
    <glyph glyph-name="acute" unicode="&#xb4;" horiz-adv-x="658" 
d="M47 1869q-10 -8 -18 2l-18 22q-7 10 2 18l550 463q9 8 18 -1l21 -29q9 -9 -2 -17z" />
    <glyph glyph-name="paragraph" unicode="&#xb6;" horiz-adv-x="2162" 
d="M1902 2440q4 0 8 -4t4 -8v-2824q0 -4 -4 -8t-8 -4h-27q-5 0 -8.5 4t-3.5 8v2789h-857v-2789q0 -4 -4 -8t-8 -4h-27q-5 0 -9 3.5t-4 8.5v1336q-150 3 -286.5 63t-235.5 160t-157 238t-58 289q0 153 59.5 291.5t160 239t239 160t291.5 59.5h908h27z" />
    <glyph glyph-name="periodcentered" unicode="&#xb7;" horiz-adv-x="627" 
d="M313 770q-30 0 -52.5 22.5t-22.5 52.5q0 31 22.5 53t52.5 22q31 0 53 -22t22 -53q0 -30 -22 -52.5t-53 -22.5z" />
    <glyph glyph-name="cedilla" unicode="&#xb8;" horiz-adv-x="845" 
d="M332 -807q-169 0 -322 84q-11 7 -6 18l10 20q5 10 18 6q78 -38 145 -58t154 -20q113 0 180.5 62.5t67.5 164.5q0 151 -133.5 203.5t-334.5 -14.5q-11 -3 -13.5 1t1.5 15l121 338h55l-106 -297q87 29 171.5 24.5t150.5 -32t107 -89.5t41 -148q0 -124 -86 -201t-221 -77z
" />
    <glyph glyph-name="guillemotright" unicode="&#xbb;" horiz-adv-x="1765" 
d="M911 813q0 -5 -5 -8l-645 -493q-7 -6 -15.5 -3t-8.5 12v27q0 6 5 9l618 473l-618 472q-5 4 -5 10v27q0 9 8.5 12t15.5 -3l645 -493q5 -3 5 -8v-34zM1523 855q5 -3 5 -8v-34q0 -5 -5 -8l-645 -493q-8 -6 -16 -3t-8 12v27q0 6 5 9l618 473l-618 472q-5 4 -5 10v27q0 9 8 12
t16 -3z" />
    <glyph glyph-name="onequarter" unicode="&#xbc;" horiz-adv-x="3495" 
d="M711 2397q7 0 7 -8v-1588q0 -8 -7 -8h-31q-8 0 -8 8v1549l-341 -181q-9 -3 -12 4l-11 22q-4 7 4 11l362 188q4 3 15 3h22zM2190 2357q6 12 17 6l22 -10q11 -6 7 -16l-1236 -2650q-6 -11 -16 -6l-23 11q-11 6 -6 16zM3330 463q8 0 8 -8v-24q0 -8 -8 -8h-285v-415
q0 -8 -8 -8h-30q-8 0 -8 8v415h-885q-8 0 -8 8v21q0 4 2 6l891 1142q3 4 16 4h22q8 0 8 -8v-1133h285zM2166 463h833v1067z" />
    <glyph glyph-name="onehalf" unicode="&#xbd;" horiz-adv-x="3516" 
d="M711 2397q7 0 7 -8v-1588q0 -8 -7 -8h-31q-8 0 -8 8v1549l-341 -181q-9 -3 -12 4l-11 22q-4 7 4 11l362 188q4 3 15 3h22zM2229 2353q11 -6 7 -16l-1236 -2650q-6 -11 -16 -6l-23 11q-11 6 -6 16l1235 2649q6 12 17 6zM3351 33q8 0 8 -8v-24q0 -8 -8 -8h-1046q-8 0 -8 8
v13q0 9 3 11q494 393 722.5 668t228.5 503q0 173 -103 274t-306 101q-274 0 -478 -243q-6 -6 -15 2l-15 15q-5 6 4 15q220 252 513 252q218 0 332 -113t114 -301q0 -124 -56.5 -252t-178 -272.5t-285 -295.5t-403.5 -345h977z" />
    <glyph glyph-name="threequarters" unicode="&#xbe;" horiz-adv-x="3763" 
d="M821 1621q464 -55 464 -423q0 -199 -142 -309t-384 -110q-336 0 -557 251q-8 10 -4 15l14 16q8 9 15 2q93 -108 227 -176t298 -68q227 0 357 98.5t130 280.5q0 400 -591 403q-9 0 -9 8v18q0 8 8 8q130 1 233.5 31.5t168.5 83.5t99.5 122.5t34.5 150.5q0 168 -102.5 258
t-309.5 90q-278 0 -478 -228q-7 -7 -15 2l-13 15q-5 5 4 14q210 238 511 238q222 0 335 -102t113 -284q0 -153 -105.5 -262t-301.5 -143zM2398 2357q6 12 17 6l22 -10q11 -6 7 -16l-1236 -2650q-6 -11 -16 -6l-23 11q-11 6 -6 16zM3538 463q8 0 8 -8v-24q0 -8 -8 -8h-285
v-415q0 -8 -8 -8h-30q-8 0 -8 8v415h-885q-8 0 -8 8v21q0 4 2 6l891 1142q3 4 16 4h22q8 0 8 -8v-1133h285zM2374 463h833v1067z" />
    <glyph glyph-name="questiondown" unicode="&#xbf;" horiz-adv-x="1536" 
d="M798 1635q30 0 52.5 -22.5t22.5 -52.5q0 -31 -22.5 -53t-52.5 -22q-31 0 -53 22t-22 53q0 30 22 52.5t53 22.5zM145 -282q0 -505 584 -505q206 0 365 73.5t301 208.5q12 12 23 -3l20 -26q7 -10 -6 -22q-157 -140 -325 -216.5t-391 -76.5q-312 0 -476.5 143t-164.5 423
q0 91 23.5 173t64 147t92.5 126t109.5 118t114.5 115.5t109 126.5t92.5 142t64 170t23.5 204q0 11 11 11h37q12 0 12 -13q0 -139 -37.5 -259.5t-98 -208.5t-133 -167.5t-145.5 -153.5t-133.5 -150t-98 -173t-37.5 -207z" />
    <glyph glyph-name="Agrave" unicode="&#xc0;" horiz-adv-x="2400" 
d="M697 3154q-11 8 -2 17l21 29q9 9 18 1l550 -463q9 -8 2 -18l-18 -22q-8 -10 -18 -2zM2302 13q7 -13 -11 -13h-50q-12 0 -16 11l-391 903h-1283l-399 -903q-6 -11 -16 -11h-47q-18 0 -12 13l1096 2456q5 11 17 11h22q12 0 17 -11zM578 973h1231l-609 1407z" />
    <glyph glyph-name="Aacute" unicode="&#xc1;" horiz-adv-x="2400" 
d="M1136 2698l-18 22q-7 10 2 18l550 463q9 8 18 -1l21 -29q9 -9 -2 -17l-553 -458q-10 -8 -18 2zM2302 13q7 -13 -11 -13h-50q-12 0 -16 11l-391 903h-1283l-399 -903q-6 -11 -16 -11h-47q-18 0 -12 13l1096 2456q5 11 17 11h22q12 0 17 -11zM578 973h1231l-609 1407z" />
    <glyph glyph-name="Acircumflex" unicode="&#xc2;" horiz-adv-x="2400" 
d="M740 2680q-20 0 -7 13l427 471q6 6 21 6h31q15 0 21 -6l427 -471q13 -13 -6 -13h-43q-14 0 -21 7l-393 434l-394 -434q-6 -7 -17 -7h-46zM2302 13q7 -13 -11 -13h-50q-12 0 -16 11l-391 903h-1283l-399 -903q-6 -11 -16 -11h-47q-18 0 -12 13l1096 2456q5 11 17 11h22
q12 0 17 -11zM578 973h1231l-609 1407z" />
    <glyph glyph-name="Atilde" unicode="&#xc3;" horiz-adv-x="2400" 
d="M690 2734q-5 0 -8.5 4t-3.5 9q1 181 78 269.5t203 88.5q49 0 92 -17.5t74 -45t59 -61t55.5 -67.5t55.5 -61.5t65.5 -45t80.5 -17.5q109 0 170.5 76t62.5 226q0 13 13 13h23q12 0 12 -20q-2 -176 -80 -263.5t-201 -87.5q-49 0 -92 17.5t-74 45t-59 61.5t-55.5 67.5
t-55.5 61t-65.5 45t-80.5 17.5q-109 0 -170.5 -76.5t-62.5 -226.5q0 -12 -13 -12h-23zM2302 13q7 -13 -11 -13h-50q-12 0 -16 11l-391 903h-1283l-399 -903q-6 -11 -16 -11h-47q-18 0 -12 13l1096 2456q5 11 17 11h22q12 0 17 -11zM578 973h1231l-609 1407z" />
    <glyph glyph-name="Adieresis" unicode="&#xc4;" horiz-adv-x="2400" 
d="M875 2853q-30 0 -52.5 22.5t-22.5 52.5t22.5 52t52.5 22q31 0 52.5 -21.5t21.5 -52.5q0 -30 -22 -52.5t-52 -22.5zM1525 2853q-30 0 -52.5 22.5t-22.5 52.5t22.5 52t52.5 22q31 0 52.5 -21.5t21.5 -52.5q0 -30 -22 -52.5t-52 -22.5zM2302 13q7 -13 -11 -13h-50
q-12 0 -16 11l-391 903h-1283l-399 -903q-6 -11 -16 -11h-47q-18 0 -12 13l1096 2456q5 11 17 11h22q12 0 17 -11zM578 973h1231l-609 1407z" />
    <glyph glyph-name="Aring" unicode="&#xc5;" horiz-adv-x="2400" 
d="M2302 13q7 -13 -11 -13h-50q-12 0 -16 11l-391 903h-1283l-399 -903q-6 -11 -16 -11h-47q-18 0 -12 13l1089 2440q-140 13 -236.5 117t-96.5 246q0 152 108.5 260t259.5 108q152 0 260.5 -108t108.5 -260q0 -142 -96.5 -246t-237.5 -117zM881 2816q0 -134 92.5 -227.5
t227.5 -93.5q136 0 228.5 93.5t92.5 227.5q0 136 -92.5 230t-228.5 94q-135 0 -227.5 -94t-92.5 -230zM578 973h1231l-609 1407z" />
    <glyph glyph-name="AE" unicode="&#xc6;" horiz-adv-x="3340" 
d="M3163 61q12 0 12 -12v-37q0 -4 -3.5 -8t-8.5 -4h-1570h-32q-5 0 -8.5 4t-3.5 8v902h-850l-541 -905q-5 -9 -16 -9h-52q-7 0 -12 4t0 11l1450 2416q5 9 17 9h19h43h1516q12 0 12 -12v-37q0 -12 -12 -12h-1504v-1069h1344q12 0 12 -12v-37q0 -12 -12 -12h-1344v-1188h1544z
M734 973h815v1365z" />
    <glyph glyph-name="Ccedilla" unicode="&#xc7;" horiz-adv-x="2583" 
d="M2379 630q13 -4 6 -18q-312 -626 -965 -634l-94 -262q87 29 171.5 24.5t150.5 -32t107 -89.5t41 -148q0 -124 -86 -201t-221 -77q-169 0 -322 84q-11 7 -6 18l10 20q5 10 18 6q78 -38 145 -58t154 -20q113 0 180.5 62.5t67.5 164.5q0 151 -133.5 203.5t-334.5 -14.5
q-11 -3 -13.5 1t1.5 15l109 304q-187 5 -359 63.5t-315.5 167t-249.5 255.5t-165.5 341.5t-59.5 413.5q0 187 43.5 356.5t122 304.5t188 245t241 183.5t282.5 113t310 39.5v-62q-150 0 -292 -38t-265 -108.5t-226.5 -175.5t-176.5 -233.5t-114 -288.5t-41 -336t41 -336
t114 -288.5t176.5 -233.5t226.5 -175.5t265 -108.5t292 -38v-27h1v26q306 0 537 145t387 456q5 10 18 6zM2328 1800q-156 311 -387 456t-537 145v61q665 0 981 -634q7 -14 -6 -18l-33 -16q-13 -4 -18 6z" />
    <glyph glyph-name="Egrave" unicode="&#xc8;" horiz-adv-x="2082" 
d="M562 3154q-11 8 -2 17l21 29q9 9 18 1l550 -463q9 -8 2 -18l-18 -22q-8 -10 -18 -2zM1862 61q12 0 12 -12v-37q0 -4 -4 -8t-8 -4h-1570h-32q-4 0 -8 4t-4 8v2416q0 4 4 8t8 4h46h1516q12 0 12 -12v-37q0 -12 -12 -12h-1504v-1069h1344q12 0 12 -12v-37q0 -12 -12 -12
h-1344v-1188h1544z" />
    <glyph glyph-name="Eacute" unicode="&#xc9;" horiz-adv-x="2082" 
d="M1001 2698l-18 22q-7 10 2 18l550 463q9 8 18 -1l21 -29q9 -9 -2 -17l-553 -458q-10 -8 -18 2zM1862 61q12 0 12 -12v-37q0 -4 -4 -8t-8 -4h-1570h-32q-4 0 -8 4t-4 8v2416q0 4 4 8t8 4h46h1516q12 0 12 -12v-37q0 -12 -12 -12h-1504v-1069h1344q12 0 12 -12v-37
q0 -12 -12 -12h-1344v-1188h1544z" />
    <glyph glyph-name="Ecircumflex" unicode="&#xca;" horiz-adv-x="2082" 
d="M605 2680q-20 0 -7 13l427 471q6 6 21 6h31q15 0 21 -6l427 -471q13 -13 -6 -13h-43q-14 0 -21 7l-393 434l-394 -434q-6 -7 -17 -7h-46zM1862 61q12 0 12 -12v-37q0 -4 -4 -8t-8 -4h-1570h-32q-4 0 -8 4t-4 8v2416q0 4 4 8t8 4h46h1516q12 0 12 -12v-37q0 -12 -12 -12
h-1504v-1069h1344q12 0 12 -12v-37q0 -12 -12 -12h-1344v-1188h1544z" />
    <glyph glyph-name="Edieresis" unicode="&#xcb;" horiz-adv-x="2082" 
d="M740 2853q-30 0 -52.5 22.5t-22.5 52.5t22.5 52t52.5 22q31 0 52.5 -21.5t21.5 -52.5q0 -30 -22 -52.5t-52 -22.5zM1390 2853q-30 0 -52.5 22.5t-22.5 52.5t22.5 52t52.5 22q31 0 52.5 -21.5t21.5 -52.5q0 -30 -22 -52.5t-52 -22.5zM1862 61q12 0 12 -12v-37q0 -4 -4 -8
t-8 -4h-1570h-32q-4 0 -8 4t-4 8v2416q0 4 4 8t8 4h46h1516q12 0 12 -12v-37q0 -12 -12 -12h-1504v-1069h1344q12 0 12 -12v-37q0 -12 -12 -12h-1344v-1188h1544z" />
    <glyph glyph-name="Igrave" unicode="&#xcc;" horiz-adv-x="565" 
d="M333 2696l-553 458q-11 8 -2 17l21 29q9 9 18 1l550 -463q9 -8 2 -18l-18 -22q-8 -10 -18 -2zM248 2428q0 12 12 12h45q5 0 9 -4t4 -8v-2416q0 -4 -4 -8t-9 -4h-45q-12 0 -12 12v2416z" />
    <glyph glyph-name="Iacute" unicode="&#xcd;" horiz-adv-x="565" 
d="M237 2696q-10 -8 -18 2l-18 22q-7 10 2 18l550 463q9 8 18 -1l21 -29q9 -9 -2 -17zM248 2428q0 12 12 12h45q5 0 9 -4t4 -8v-2416q0 -4 -4 -8t-9 -4h-45q-12 0 -12 12v2416z" />
    <glyph glyph-name="Icircumflex" unicode="&#xce;" horiz-adv-x="565" 
d="M673 2687l-393 434l-394 -434q-6 -7 -17 -7h-46q-20 0 -7 13l427 471q6 6 21 6h31q15 0 21 -6l427 -471q13 -13 -6 -13h-43q-14 0 -21 7zM248 2428q0 12 12 12h45q5 0 9 -4t4 -8v-2416q0 -4 -4 -8t-9 -4h-45q-12 0 -12 12v2416z" />
    <glyph glyph-name="Idieresis" unicode="&#xcf;" horiz-adv-x="565" 
d="M-42 2853q-30 0 -52.5 22.5t-22.5 52.5t22.5 52t52.5 22q31 0 52.5 -21.5t21.5 -52.5q0 -30 -22 -52.5t-52 -22.5zM608 2853q-30 0 -52.5 22.5t-22.5 52.5t22.5 52t52.5 22q31 0 52.5 -21.5t21.5 -52.5q0 -30 -22 -52.5t-52 -22.5zM248 2428q0 12 12 12h45q5 0 9 -4t4 -8
v-2416q0 -4 -4 -8t-9 -4h-45q-12 0 -12 12v2416z" />
    <glyph glyph-name="Eth" unicode="&#xd0;" horiz-adv-x="2451" 
d="M1011 2440q204 0 388 -51.5t336.5 -154t264 -247.5t173 -341.5t61.5 -425.5t-61.5 -425.5t-173 -341.5t-264 -247.5t-336.5 -154t-388 -51.5h-725h-26q-4 0 -8 4t-4 8v1180h-317q-12 0 -12 12v33q0 13 12 13h317v1178q0 4 4 8t8 4h46h705zM1008 61q193 0 366.5 49.5
t317.5 147.5t249 236t163.5 324t58.5 402t-58.5 402t-163.5 324t-249 236t-317.5 147.5t-366.5 49.5h-690v-1129h661q12 0 12 -13v-33q0 -12 -12 -12h-661v-1131h690z" />
    <glyph glyph-name="Ntilde" unicode="&#xd1;" horiz-adv-x="2482" 
d="M771 2734q-5 0 -8.5 4t-3.5 9q1 181 78 269.5t203 88.5q49 0 92 -17.5t74 -45t59 -61t55.5 -67.5t55.5 -61.5t65.5 -45t80.5 -17.5q109 0 170.5 76t62.5 226q0 13 13 13h23q12 0 12 -20q-2 -176 -80 -263.5t-201 -87.5q-49 0 -92 17.5t-74 45t-59 61.5t-55.5 67.5
t-55.5 61t-65.5 45t-80.5 17.5q-109 0 -170.5 -76.5t-62.5 -226.5q0 -12 -13 -12h-23zM2222 2440q12 0 12 -12v-2456q0 -12 -12 -12h-5q-14 0 -20 9l-1879 2362v-2319q0 -5 -4 -8.5t-9 -3.5h-45q-12 0 -12 12v2456q0 12 12 12h5q11 0 19 -9l1880 -2362v2319q0 5 4 8.5t9 3.5
h45z" />
    <glyph glyph-name="Ograve" unicode="&#xd2;" horiz-adv-x="2807" 
d="M1453 2696l-553 458q-11 8 -2 17l21 29q9 9 18 1l550 -463q9 -8 2 -18l-18 -22q-8 -10 -18 -2zM1403 2462q159 0 310 -39.5t282.5 -113t241 -183.5t188 -245t122 -304.5t43.5 -356.5t-43.5 -356.5t-122 -304.5t-188 -245t-241 -183.5t-282.5 -113t-310 -39.5
q-191 0 -368.5 55.5t-325.5 163t-258.5 256t-172 346t-61.5 421.5t61.5 421.5t172 346t258.5 256t325.5 163t368.5 55.5zM1403 40q150 0 292 38t265 108.5t226.5 175.5t176.5 233.5t114 288.5t41 336t-41 336t-114 288.5t-176.5 233.5t-226.5 175.5t-265 108.5t-292 38
q-180 0 -347 -53.5t-306 -156.5t-242.5 -244.5t-161.5 -328.5t-58 -397t58 -397t161.5 -328.5t242.5 -244.5t306 -156.5t347 -53.5z" />
    <glyph glyph-name="Oacute" unicode="&#xd3;" horiz-adv-x="2807" 
d="M1357 2696q-10 -8 -18 2l-18 22q-7 10 2 18l550 463q9 8 18 -1l21 -29q9 -9 -2 -17zM1403 2462q159 0 310 -39.5t282.5 -113t241 -183.5t188 -245t122 -304.5t43.5 -356.5t-43.5 -356.5t-122 -304.5t-188 -245t-241 -183.5t-282.5 -113t-310 -39.5q-191 0 -368.5 55.5
t-325.5 163t-258.5 256t-172 346t-61.5 421.5t61.5 421.5t172 346t258.5 256t325.5 163t368.5 55.5zM1403 40q150 0 292 38t265 108.5t226.5 175.5t176.5 233.5t114 288.5t41 336t-41 336t-114 288.5t-176.5 233.5t-226.5 175.5t-265 108.5t-292 38q-180 0 -347 -53.5
t-306 -156.5t-242.5 -244.5t-161.5 -328.5t-58 -397t58 -397t161.5 -328.5t242.5 -244.5t306 -156.5t347 -53.5z" />
    <glyph glyph-name="Ocircumflex" unicode="&#xd4;" horiz-adv-x="2807" 
d="M1793 2687l-393 434l-394 -434q-6 -7 -17 -7h-46q-20 0 -7 13l427 471q6 6 21 6h31q15 0 21 -6l427 -471q13 -13 -6 -13h-43q-14 0 -21 7zM1403 2462q159 0 310 -39.5t282.5 -113t241 -183.5t188 -245t122 -304.5t43.5 -356.5t-43.5 -356.5t-122 -304.5t-188 -245
t-241 -183.5t-282.5 -113t-310 -39.5q-191 0 -368.5 55.5t-325.5 163t-258.5 256t-172 346t-61.5 421.5t61.5 421.5t172 346t258.5 256t325.5 163t368.5 55.5zM1403 40q150 0 292 38t265 108.5t226.5 175.5t176.5 233.5t114 288.5t41 336t-41 336t-114 288.5t-176.5 233.5
t-226.5 175.5t-265 108.5t-292 38q-180 0 -347 -53.5t-306 -156.5t-242.5 -244.5t-161.5 -328.5t-58 -397t58 -397t161.5 -328.5t242.5 -244.5t306 -156.5t347 -53.5z" />
    <glyph glyph-name="Otilde" unicode="&#xd5;" horiz-adv-x="2807" 
d="M893 2734q-5 0 -8.5 4t-3.5 9q1 181 78 269.5t203 88.5q49 0 92 -17.5t74 -45t59 -61t55.5 -67.5t55.5 -61.5t65.5 -45t80.5 -17.5q109 0 170.5 76t62.5 226q0 13 13 13h23q12 0 12 -20q-2 -176 -80 -263.5t-201 -87.5q-49 0 -92 17.5t-74 45t-59 61.5t-55.5 67.5
t-55.5 61t-65.5 45t-80.5 17.5q-109 0 -170.5 -76.5t-62.5 -226.5q0 -12 -13 -12h-23zM1403 2462q159 0 310 -39.5t282.5 -113t241 -183.5t188 -245t122 -304.5t43.5 -356.5t-43.5 -356.5t-122 -304.5t-188 -245t-241 -183.5t-282.5 -113t-310 -39.5q-191 0 -368.5 55.5
t-325.5 163t-258.5 256t-172 346t-61.5 421.5t61.5 421.5t172 346t258.5 256t325.5 163t368.5 55.5zM1403 40q150 0 292 38t265 108.5t226.5 175.5t176.5 233.5t114 288.5t41 336t-41 336t-114 288.5t-176.5 233.5t-226.5 175.5t-265 108.5t-292 38q-180 0 -347 -53.5
t-306 -156.5t-242.5 -244.5t-161.5 -328.5t-58 -397t58 -397t161.5 -328.5t242.5 -244.5t306 -156.5t347 -53.5z" />
    <glyph glyph-name="Odieresis" unicode="&#xd6;" horiz-adv-x="2807" 
d="M1078 2853q-30 0 -52.5 22.5t-22.5 52.5t22.5 52t52.5 22q31 0 52.5 -21.5t21.5 -52.5q0 -30 -22 -52.5t-52 -22.5zM1728 2853q-30 0 -52.5 22.5t-22.5 52.5t22.5 52t52.5 22q31 0 52.5 -21.5t21.5 -52.5q0 -30 -22 -52.5t-52 -22.5zM1403 2462q159 0 310 -39.5
t282.5 -113t241 -183.5t188 -245t122 -304.5t43.5 -356.5t-43.5 -356.5t-122 -304.5t-188 -245t-241 -183.5t-282.5 -113t-310 -39.5q-191 0 -368.5 55.5t-325.5 163t-258.5 256t-172 346t-61.5 421.5t61.5 421.5t172 346t258.5 256t325.5 163t368.5 55.5zM1403 40
q150 0 292 38t265 108.5t226.5 175.5t176.5 233.5t114 288.5t41 336t-41 336t-114 288.5t-176.5 233.5t-226.5 175.5t-265 108.5t-292 38q-180 0 -347 -53.5t-306 -156.5t-242.5 -244.5t-161.5 -328.5t-58 -397t58 -397t161.5 -328.5t242.5 -244.5t306 -156.5t347 -53.5z
" />
    <glyph glyph-name="multiply" unicode="&#xd7;" horiz-adv-x="1895" 
d="M989 996l666 -666q7 -7 0 -17l-25 -24q-8 -9 -17 0l-665 666l-666 -666q-8 -9 -17 0l-25 24q-8 9 0 17l666 666l-666 666q-8 8 0 17l25 24q9 9 17 0l666 -665l665 665q9 9 17 0l25 -24q9 -9 0 -17z" />
    <glyph glyph-name="Oslash" unicode="&#xd8;" horiz-adv-x="2807" 
d="M2290 2070q143 -164 221.5 -379.5t78.5 -470.5q0 -187 -43.5 -356.5t-122 -304.5t-188 -245t-241 -183.5t-282.5 -113t-310 -39.5q-247 0 -467 92t-384 262l-214 -214q-8 -8 -17 0l-24 25q-3 2 -3.5 7.5t3.5 9.5l215 215q-141 162 -218 376.5t-77 468.5q0 224 61.5 421.5
t172 346t258.5 256t325.5 163t368.5 55.5q245 0 464 -90.5t383 -258.5l198 198q9 8 17 0l24 -25q9 -8 0 -17zM288 1220q0 -237 71.5 -438.5t202.5 -356.5l1639 1639q-154 161 -360.5 248.5t-437.5 87.5q-180 0 -347 -53.5t-306 -156.5t-242.5 -244.5t-161.5 -328.5t-58 -397
zM1403 40q150 0 292 38t265 108.5t226.5 175.5t176.5 233.5t114 288.5t41 336q0 238 -73 441.5t-205 358.5l-1639 -1639q154 -164 362 -252.5t440 -88.5z" />
    <glyph glyph-name="Ugrave" unicode="&#xd9;" horiz-adv-x="2402" 
d="M698 3154q-11 8 -2 17l21 29q9 9 18 1l550 -463q9 -8 2 -18l-18 -22q-8 -10 -18 -2zM2142 2440q4 0 8 -4t4 -8v-1425q0 -498 -250 -770.5t-703 -272.5t-703 272.5t-250 770.5v1425q0 12 12 12h45q5 0 9 -4t4 -8v-1418q0 -474 228 -731.5t655 -257.5t655 257.5t228 731.5
v1418q0 5 4 8.5t9 3.5h45z" />
    <glyph glyph-name="Uacute" unicode="&#xda;" horiz-adv-x="2402" 
d="M1137 2698l-18 22q-7 10 2 18l550 463q9 8 18 -1l21 -29q9 -9 -2 -17l-553 -458q-10 -8 -18 2zM2142 2440q4 0 8 -4t4 -8v-1425q0 -498 -250 -770.5t-703 -272.5t-703 272.5t-250 770.5v1425q0 12 12 12h45q5 0 9 -4t4 -8v-1418q0 -474 228 -731.5t655 -257.5t655 257.5
t228 731.5v1418q0 5 4 8.5t9 3.5h45z" />
    <glyph glyph-name="Ucircumflex" unicode="&#xdb;" horiz-adv-x="2402" 
d="M741 2680q-20 0 -7 13l427 471q6 6 21 6h31q15 0 21 -6l427 -471q13 -13 -6 -13h-43q-14 0 -21 7l-393 434l-394 -434q-6 -7 -17 -7h-46zM2142 2440q4 0 8 -4t4 -8v-1425q0 -498 -250 -770.5t-703 -272.5t-703 272.5t-250 770.5v1425q0 12 12 12h45q5 0 9 -4t4 -8v-1418
q0 -474 228 -731.5t655 -257.5t655 257.5t228 731.5v1418q0 5 4 8.5t9 3.5h45z" />
    <glyph glyph-name="Udieresis" unicode="&#xdc;" horiz-adv-x="2402" 
d="M876 2853q-30 0 -52.5 22.5t-22.5 52.5t22.5 52t52.5 22q31 0 52.5 -21.5t21.5 -52.5q0 -30 -22 -52.5t-52 -22.5zM1526 2853q-30 0 -52.5 22.5t-22.5 52.5t22.5 52t52.5 22q31 0 52.5 -21.5t21.5 -52.5q0 -30 -22 -52.5t-52 -22.5zM2142 2440q4 0 8 -4t4 -8v-1425
q0 -498 -250 -770.5t-703 -272.5t-703 272.5t-250 770.5v1425q0 12 12 12h45q5 0 9 -4t4 -8v-1418q0 -474 228 -731.5t655 -257.5t655 257.5t228 731.5v1418q0 5 4 8.5t9 3.5h45z" />
    <glyph glyph-name="Yacute" unicode="&#xdd;" horiz-adv-x="2240" 
d="M1056 2698l-18 22q-7 10 2 18l550 463q9 8 18 -1l21 -29q9 -9 -2 -17l-553 -458q-10 -8 -18 2zM2131 2440q20 0 12 -13l-989 -1537v-878q0 -4 -4 -8t-8 -4h-45q-5 0 -9 3.5t-4 8.5v877l-1006 1538q-8 13 11 13h50q10 0 17 -11l964 -1475l947 1475q7 11 18 11h46z" />
    <glyph glyph-name="Thorn" unicode="&#xde;" horiz-adv-x="2101" 
d="M1068 1965q184 0 334 -40t251.5 -108t170 -161.5t99.5 -198t31 -219.5q0 -95 -22 -183.5t-66.5 -170.5t-117.5 -149.5t-169 -117.5t-226.5 -77.5t-284.5 -27.5h-750v-500q0 -4 -4 -8t-8 -4h-46q-4 0 -8 4t-4 8v2416q0 4 4 8t8 4h46q4 0 8 -4t4 -8v-463h750zM1061 573
q175 0 315.5 37t233.5 99t155.5 148t90 181t27.5 200q0 87 -19.5 167.5t-60 156.5t-107 137.5t-155.5 107.5t-211.5 71.5t-268.5 25.5h-743v-1331h743z" />
    <glyph glyph-name="germandbls" unicode="&#xdf;" horiz-adv-x="1882" 
d="M1082 1311q0 -86 22.5 -153t61 -111.5t88.5 -79.5t105 -62.5t109.5 -55t104.5 -63t88.5 -79.5t61 -111t22.5 -152q0 -107 -36 -191t-91 -134.5t-129.5 -83.5t-144.5 -45t-142 -12q-265 0 -501 182q-13 9 -7 19l15 29q8 11 18 5q118 -88 231 -131.5t241 -43.5
q62 0 122 9.5t126.5 36.5t116 69.5t82 115.5t32.5 167q0 80 -22.5 142.5t-61 103.5t-88.5 73.5t-105 59t-110.5 54t-105.5 65t-88.5 84.5t-61 120t-22.5 165q0 93 23.5 168.5t56.5 130t66.5 109t57 133.5t23.5 176q0 227 -119.5 366t-341.5 139q-113 0 -202.5 -38.5
t-145.5 -106t-85.5 -156.5t-29.5 -194v-2018q0 -4 -4 -8t-8 -4h-44q-12 0 -12 12v2021q0 116 36 216.5t102 175t167 117.5t225 43t225 -42.5t167.5 -117t102 -175.5t35.5 -217q0 -104 -23.5 -188t-56.5 -141t-66 -111t-56.5 -125.5t-23.5 -156.5z" />
    <glyph glyph-name="agrave" unicode="&#xe0;" horiz-adv-x="1671" 
d="M384 2327q-11 8 -2 17l21 29q9 9 18 1l550 -463q9 -8 2 -18l-18 -22q-8 -10 -18 -2zM1540 21q5 -14 -6 -20l-25 -10q-12 -5 -17 4q-111 214 -134 467q-72 -205 -258 -344.5t-418 -139.5q-226 0 -365.5 131.5t-139.5 328.5q0 141 76 252.5t224.5 180.5t368 75t506.5 -65
v158q0 101 -12 178t-43.5 146.5t-84 114t-137 70.5t-198.5 26q-153 0 -278.5 -41.5t-283.5 -129.5q-13 -6 -18 7l-15 31q-4 12 8 18q168 92 300 134t292 42q126 0 221 -29t155 -79.5t97 -127t51.5 -162t14.5 -194.5v-443q0 -193 28.5 -312t90.5 -267zM690 38q140 0 266 57
t211 147t135 202t50 222v161q-274 69 -481 67t-345.5 -63.5t-208.5 -162.5t-70 -232q0 -175 120.5 -286.5t322.5 -111.5z" />
    <glyph glyph-name="aacute" unicode="&#xe1;" horiz-adv-x="1671" 
d="M823 1871l-18 22q-7 10 2 18l550 463q9 8 18 -1l21 -29q9 -9 -2 -17l-553 -458q-10 -8 -18 2zM1540 21q5 -14 -6 -20l-25 -10q-12 -5 -17 4q-111 214 -134 467q-72 -205 -258 -344.5t-418 -139.5q-226 0 -365.5 131.5t-139.5 328.5q0 141 76 252.5t224.5 180.5t368 75
t506.5 -65v158q0 101 -12 178t-43.5 146.5t-84 114t-137 70.5t-198.5 26q-153 0 -278.5 -41.5t-283.5 -129.5q-13 -6 -18 7l-15 31q-4 12 8 18q168 92 300 134t292 42q126 0 221 -29t155 -79.5t97 -127t51.5 -162t14.5 -194.5v-443q0 -193 28.5 -312t90.5 -267zM690 38
q140 0 266 57t211 147t135 202t50 222v161q-274 69 -481 67t-345.5 -63.5t-208.5 -162.5t-70 -232q0 -175 120.5 -286.5t322.5 -111.5z" />
    <glyph glyph-name="acircumflex" unicode="&#xe2;" horiz-adv-x="1671" 
d="M427 1853q-20 0 -7 13l427 471q6 6 21 6h31q15 0 21 -6l427 -471q13 -13 -6 -13h-43q-14 0 -21 7l-393 434l-394 -434q-6 -7 -17 -7h-46zM1540 21q5 -14 -6 -20l-25 -10q-12 -5 -17 4q-111 214 -134 467q-72 -205 -258 -344.5t-418 -139.5q-226 0 -365.5 131.5
t-139.5 328.5q0 141 76 252.5t224.5 180.5t368 75t506.5 -65v158q0 101 -12 178t-43.5 146.5t-84 114t-137 70.5t-198.5 26q-153 0 -278.5 -41.5t-283.5 -129.5q-13 -6 -18 7l-15 31q-4 12 8 18q168 92 300 134t292 42q126 0 221 -29t155 -79.5t97 -127t51.5 -162
t14.5 -194.5v-443q0 -193 28.5 -312t90.5 -267zM690 38q140 0 266 57t211 147t135 202t50 222v161q-274 69 -481 67t-345.5 -63.5t-208.5 -162.5t-70 -232q0 -175 120.5 -286.5t322.5 -111.5z" />
    <glyph glyph-name="atilde" unicode="&#xe3;" horiz-adv-x="1671" 
d="M377 1907q-5 0 -8.5 4t-3.5 9q1 181 78 269.5t203 88.5q49 0 92 -17.5t74 -45t59 -61t55.5 -67.5t55.5 -61.5t65.5 -45t80.5 -17.5q109 0 170.5 76t62.5 226q0 13 13 13h23q12 0 12 -20q-2 -176 -80 -263.5t-201 -87.5q-49 0 -92 17.5t-74 45t-59 61.5t-55.5 67.5
t-55.5 61t-65.5 45t-80.5 17.5q-109 0 -170.5 -76.5t-62.5 -226.5q0 -12 -13 -12h-23zM1540 21q5 -14 -6 -20l-25 -10q-12 -5 -17 4q-111 214 -134 467q-72 -205 -258 -344.5t-418 -139.5q-226 0 -365.5 131.5t-139.5 328.5q0 141 76 252.5t224.5 180.5t368 75t506.5 -65
v158q0 101 -12 178t-43.5 146.5t-84 114t-137 70.5t-198.5 26q-153 0 -278.5 -41.5t-283.5 -129.5q-13 -6 -18 7l-15 31q-4 12 8 18q168 92 300 134t292 42q126 0 221 -29t155 -79.5t97 -127t51.5 -162t14.5 -194.5v-443q0 -193 28.5 -312t90.5 -267zM690 38q140 0 266 57
t211 147t135 202t50 222v161q-274 69 -481 67t-345.5 -63.5t-208.5 -162.5t-70 -232q0 -175 120.5 -286.5t322.5 -111.5z" />
    <glyph glyph-name="adieresis" unicode="&#xe4;" horiz-adv-x="1671" 
d="M562 2026q-30 0 -52.5 22.5t-22.5 52.5t22.5 52t52.5 22q31 0 52.5 -21.5t21.5 -52.5q0 -30 -22 -52.5t-52 -22.5zM1212 2026q-30 0 -52.5 22.5t-22.5 52.5t22.5 52t52.5 22q31 0 52.5 -21.5t21.5 -52.5q0 -30 -22 -52.5t-52 -22.5zM1540 21q5 -14 -6 -20l-25 -10
q-12 -5 -17 4q-111 214 -134 467q-72 -205 -258 -344.5t-418 -139.5q-226 0 -365.5 131.5t-139.5 328.5q0 141 76 252.5t224.5 180.5t368 75t506.5 -65v158q0 101 -12 178t-43.5 146.5t-84 114t-137 70.5t-198.5 26q-153 0 -278.5 -41.5t-283.5 -129.5q-13 -6 -18 7l-15 31
q-4 12 8 18q168 92 300 134t292 42q126 0 221 -29t155 -79.5t97 -127t51.5 -162t14.5 -194.5v-443q0 -193 28.5 -312t90.5 -267zM690 38q140 0 266 57t211 147t135 202t50 222v161q-274 69 -481 67t-345.5 -63.5t-208.5 -162.5t-70 -232q0 -175 120.5 -286.5t322.5 -111.5z
" />
    <glyph glyph-name="aring" unicode="&#xe5;" horiz-adv-x="1671" 
d="M887 1790q-152 0 -260 106.5t-108 258.5q0 151 108.5 259.5t259.5 108.5q152 0 260.5 -108t108.5 -260t-108 -258.5t-261 -106.5zM887 2479q-135 0 -227.5 -94t-92.5 -230q0 -134 92.5 -227.5t227.5 -93.5q136 0 228.5 93.5t92.5 227.5q0 136 -92.5 230t-228.5 94z
M1540 21q5 -14 -6 -20l-25 -10q-12 -5 -17 4q-111 214 -134 467q-72 -205 -258 -344.5t-418 -139.5q-226 0 -365.5 131.5t-139.5 328.5q0 141 76 252.5t224.5 180.5t368 75t506.5 -65v158q0 101 -12 178t-43.5 146.5t-84 114t-137 70.5t-198.5 26q-153 0 -278.5 -41.5
t-283.5 -129.5q-13 -6 -18 7l-15 31q-4 12 8 18q168 92 300 134t292 42q126 0 221 -29t155 -79.5t97 -127t51.5 -162t14.5 -194.5v-443q0 -193 28.5 -312t90.5 -267zM690 38q140 0 266 57t211 147t135 202t50 222v161q-274 69 -481 67t-345.5 -63.5t-208.5 -162.5t-70 -232
q0 -175 120.5 -286.5t322.5 -111.5z" />
    <glyph glyph-name="ae" unicode="&#xe6;" horiz-adv-x="3075" 
d="M2851 441q11 -5 6 -17q-95 -218 -265.5 -332t-409.5 -114q-269 0 -481 152t-290 410q-25 -111 -90.5 -213t-157.5 -179.5t-212.5 -123.5t-248.5 -46q-226 0 -365.5 131.5t-139.5 328.5q0 141 75.5 252.5t224 180.5t368 75t507.5 -65v158q0 101 -12 178t-44 146.5
t-84.5 114t-137 70.5t-198.5 26q-154 0 -279 -42t-282 -129q-14 -6 -19 7l-15 31q-4 12 8 18q168 92 300 134t292 42q142 0 243 -35.5t160.5 -104.5t88 -155.5t36.5 -203.5q87 232 285 365.5t449 133.5q320 0 517.5 -209t197.5 -555h-1434q-2 -42 -2 -64q0 -171 59.5 -316
t160.5 -243t236 -153t285 -55q219 0 375 103.5t239 308.5q6 11 18 6zM2163 1575q-182 0 -335 -78t-253.5 -226t-125.5 -343h1355q-13 295 -188 471t-453 176zM709 38q140 0 266 57t211.5 147t135.5 202t50 222v161q-274 69 -481 67t-346 -63.5t-208.5 -162.5t-69.5 -232
q0 -175 120 -286.5t322 -111.5z" />
    <glyph glyph-name="ccedilla" unicode="&#xe7;" horiz-adv-x="1877" 
d="M1682 443q12 -5 6 -18q-93 -214 -263 -330.5t-412 -116.5h-16l-94 -262q87 29 171.5 24.5t150.5 -32t107 -89.5t41 -148q0 -124 -86 -201t-221 -77q-169 0 -322 84q-11 7 -6 18l10 20q5 10 18 6q78 -38 145 -58t154 -20q113 0 180.5 62.5t67.5 164.5q0 151 -133.5 203.5
t-334.5 -14.5q-11 -3 -13.5 1t1.5 15l109 306q-156 12 -292 76.5t-236.5 170t-158.5 255.5t-58 324q0 184 64.5 340t175 262.5t259.5 166t317 59.5q242 0 412 -116.5t263 -330.5q6 -13 -6 -18l-35 -16q-12 -4 -18 6q-187 414 -612 414q-155 0 -292.5 -55t-238.5 -153
t-160 -243t-59 -316t59 -316t160 -243t238.5 -153t292.5 -55q437 0 612 413q6 12 18 6z" />
    <glyph glyph-name="egrave" unicode="&#xe8;" horiz-adv-x="1900" 
d="M439 2327q-11 8 -2 17l21 29q9 9 18 1l550 -463q9 -8 2 -18l-18 -22q-8 -10 -18 -2zM1676 441q11 -5 6 -17q-95 -218 -265.5 -332t-409.5 -114q-164 0 -311.5 60t-258 166t-175.5 263t-65 340q0 184 62 340t168.5 262.5t251.5 166t309 59.5q320 0 517.5 -209t197.5 -555
h-1434q-2 -42 -2 -64q0 -171 59.5 -316t160.5 -243t236 -153t285 -55q219 0 375 103.5t239 308.5q6 11 18 6zM988 1575q-182 0 -335 -78t-253.5 -226t-125.5 -343h1355q-13 295 -188 471t-453 176z" />
    <glyph glyph-name="eacute" unicode="&#xe9;" horiz-adv-x="1900" 
d="M878 1871l-18 22q-7 10 2 18l550 463q9 8 18 -1l21 -29q9 -9 -2 -17l-553 -458q-10 -8 -18 2zM1676 441q11 -5 6 -17q-95 -218 -265.5 -332t-409.5 -114q-164 0 -311.5 60t-258 166t-175.5 263t-65 340q0 184 62 340t168.5 262.5t251.5 166t309 59.5q320 0 517.5 -209
t197.5 -555h-1434q-2 -42 -2 -64q0 -171 59.5 -316t160.5 -243t236 -153t285 -55q219 0 375 103.5t239 308.5q6 11 18 6zM988 1575q-182 0 -335 -78t-253.5 -226t-125.5 -343h1355q-13 295 -188 471t-453 176z" />
    <glyph glyph-name="ecircumflex" unicode="&#xea;" horiz-adv-x="1900" 
d="M482 1853q-20 0 -7 13l427 471q6 6 21 6h31q15 0 21 -6l427 -471q13 -13 -6 -13h-43q-14 0 -21 7l-393 434l-394 -434q-6 -7 -17 -7h-46zM1676 441q11 -5 6 -17q-95 -218 -265.5 -332t-409.5 -114q-164 0 -311.5 60t-258 166t-175.5 263t-65 340q0 184 62 340
t168.5 262.5t251.5 166t309 59.5q320 0 517.5 -209t197.5 -555h-1434q-2 -42 -2 -64q0 -171 59.5 -316t160.5 -243t236 -153t285 -55q219 0 375 103.5t239 308.5q6 11 18 6zM988 1575q-182 0 -335 -78t-253.5 -226t-125.5 -343h1355q-13 295 -188 471t-453 176z" />
    <glyph glyph-name="edieresis" unicode="&#xeb;" horiz-adv-x="1900" 
d="M617 2026q-30 0 -52.5 22.5t-22.5 52.5t22.5 52t52.5 22q31 0 52.5 -21.5t21.5 -52.5q0 -30 -22 -52.5t-52 -22.5zM1267 2026q-30 0 -52.5 22.5t-22.5 52.5t22.5 52t52.5 22q31 0 52.5 -21.5t21.5 -52.5q0 -30 -22 -52.5t-52 -22.5zM1676 441q11 -5 6 -17
q-95 -218 -265.5 -332t-409.5 -114q-164 0 -311.5 60t-258 166t-175.5 263t-65 340q0 184 62 340t168.5 262.5t251.5 166t309 59.5q320 0 517.5 -209t197.5 -555h-1434q-2 -42 -2 -64q0 -171 59.5 -316t160.5 -243t236 -153t285 -55q219 0 375 103.5t239 308.5q6 11 18 6z
M988 1575q-182 0 -335 -78t-253.5 -226t-125.5 -343h1355q-13 295 -188 471t-453 176z" />
    <glyph glyph-name="igrave" unicode="&#xec;" horiz-adv-x="545" 
d="M323 1869l-553 458q-11 8 -2 17l21 29q9 9 18 1l550 -463q9 -8 2 -18l-18 -22q-8 -10 -18 -2zM238 1601q0 12 13 12h43q13 0 13 -12v-1589q0 -5 -4 -8.5t-9 -3.5h-43q-5 0 -9 3.5t-4 8.5v1589z" />
    <glyph glyph-name="iacute" unicode="&#xed;" horiz-adv-x="545" 
d="M227 1869q-10 -8 -18 2l-18 22q-7 10 2 18l550 463q9 8 18 -1l21 -29q9 -9 -2 -17zM238 1601q0 12 13 12h43q13 0 13 -12v-1589q0 -5 -4 -8.5t-9 -3.5h-43q-5 0 -9 3.5t-4 8.5v1589z" />
    <glyph glyph-name="icircumflex" unicode="&#xee;" horiz-adv-x="545" 
d="M663 1860l-393 434l-394 -434q-6 -7 -17 -7h-46q-20 0 -7 13l427 471q6 6 21 6h31q15 0 21 -6l427 -471q13 -13 -6 -13h-43q-14 0 -21 7zM238 1601q0 12 13 12h43q13 0 13 -12v-1589q0 -5 -4 -8.5t-9 -3.5h-43q-5 0 -9 3.5t-4 8.5v1589z" />
    <glyph glyph-name="idieresis" unicode="&#xef;" horiz-adv-x="545" 
d="M-52 2026q-30 0 -52.5 22.5t-22.5 52.5t22.5 52t52.5 22q31 0 52.5 -21.5t21.5 -52.5q0 -30 -22 -52.5t-52 -22.5zM598 2026q-30 0 -52.5 22.5t-22.5 52.5t22.5 52t52.5 22q31 0 52.5 -21.5t21.5 -52.5q0 -30 -22 -52.5t-52 -22.5zM238 1601q0 12 13 12h43q13 0 13 -12
v-1589q0 -5 -4 -8.5t-9 -3.5h-43q-5 0 -9 3.5t-4 8.5v1589z" />
    <glyph glyph-name="eth" unicode="&#xf0;" horiz-adv-x="2003" 
d="M1043 2411q131 -73 241.5 -176.5t188 -216.5t138.5 -244.5t98 -256.5t61 -257t33 -240.5t9 -212.5q0 -184 -65 -340.5t-175.5 -263t-257 -166t-309.5 -59.5q-162 0 -309.5 60t-258 165.5t-175.5 261.5t-65 338t64.5 338t174 262t256.5 165.5t309 59.5q235 0 426.5 -119.5
t287.5 -328.5q-20 135 -53 261t-90.5 262.5t-132.5 253t-184 223.5t-240 182l-195 -337q-7 -11 -17 -5l-20 11q-11 9 -4 17l194 337q-170 88 -377 126q-18 5 -10 23l9 19q6 9 18 7q211 -36 388 -127l168 291q5 11 17 5l19 -12q10 -5 5 -17zM1005 40q150 0 284.5 55
t235 152.5t159.5 242t59 313.5q0 170 -59 314.5t-159.5 242t-235 152.5t-284.5 55t-284.5 -55t-235 -152.5t-159.5 -242t-59 -314.5q0 -169 59 -313.5t159.5 -242t235 -152.5t284.5 -55z" />
    <glyph glyph-name="ntilde" unicode="&#xf1;" 
d="M500 1907q-5 0 -8.5 4t-3.5 9q1 181 78 269.5t203 88.5q49 0 92 -17.5t74 -45t59 -61t55.5 -67.5t55.5 -61.5t65.5 -45t80.5 -17.5q109 0 170.5 76t62.5 226q0 13 13 13h23q12 0 12 -20q-2 -176 -80 -263.5t-201 -87.5q-49 0 -92 17.5t-74 45t-59 61.5t-55.5 67.5
t-55.5 61t-65.5 45t-80.5 17.5q-109 0 -170.5 -76.5t-62.5 -226.5q0 -12 -13 -12h-23zM1084 1653q156 0 273 -49t189 -140t107.5 -214t35.5 -277v-961q0 -12 -12 -12h-44q-5 0 -8.5 4t-3.5 8v948q0 146 -31 260.5t-96 198.5t-171 128.5t-249 44.5q-150 0 -291 -60
t-242.5 -157.5t-163 -227t-61.5 -263.5v-872q0 -12 -12 -12h-44q-4 0 -8 4t-4 8v1589q0 12 12 12h44q12 0 12 -12v-466q22 63 65 131t113 138t155 124.5t199 89.5t236 35z" />
    <glyph glyph-name="ograve" unicode="&#xf2;" horiz-adv-x="2017" 
d="M1058 1869l-553 458q-11 8 -2 17l21 29q9 9 18 1l550 -463q9 -8 2 -18l-18 -22q-8 -10 -18 -2zM1008 1635q131 0 253 -37.5t223 -110t176.5 -172t117.5 -230.5t42 -278q0 -183 -65 -340t-176 -263t-259 -166t-312 -60t-311.5 60t-258.5 166t-176 263t-65 340
q0 147 42 278t117.5 230.5t176.5 172t222.5 110t252.5 37.5zM1008 40q150 0 285.5 55t236.5 153t160.5 243t59.5 316t-59.5 316t-160.5 243t-236.5 153t-285.5 55t-285 -55t-236 -153t-160.5 -243t-59.5 -316t59.5 -316t160.5 -243t236 -153t285 -55z" />
    <glyph glyph-name="oacute" unicode="&#xf3;" horiz-adv-x="2017" 
d="M962 1869q-10 -8 -18 2l-18 22q-7 10 2 18l550 463q9 8 18 -1l21 -29q9 -9 -2 -17zM1008 1635q131 0 253 -37.5t223 -110t176.5 -172t117.5 -230.5t42 -278q0 -183 -65 -340t-176 -263t-259 -166t-312 -60t-311.5 60t-258.5 166t-176 263t-65 340q0 147 42 278
t117.5 230.5t176.5 172t222.5 110t252.5 37.5zM1008 40q150 0 285.5 55t236.5 153t160.5 243t59.5 316t-59.5 316t-160.5 243t-236.5 153t-285.5 55t-285 -55t-236 -153t-160.5 -243t-59.5 -316t59.5 -316t160.5 -243t236 -153t285 -55z" />
    <glyph glyph-name="ocircumflex" unicode="&#xf4;" horiz-adv-x="2017" 
d="M1398 1860l-393 434l-394 -434q-6 -7 -17 -7h-46q-20 0 -7 13l427 471q6 6 21 6h31q15 0 21 -6l427 -471q13 -13 -6 -13h-43q-14 0 -21 7zM1008 1635q131 0 253 -37.5t223 -110t176.5 -172t117.5 -230.5t42 -278q0 -183 -65 -340t-176 -263t-259 -166t-312 -60t-311.5 60
t-258.5 166t-176 263t-65 340q0 147 42 278t117.5 230.5t176.5 172t222.5 110t252.5 37.5zM1008 40q150 0 285.5 55t236.5 153t160.5 243t59.5 316t-59.5 316t-160.5 243t-236.5 153t-285.5 55t-285 -55t-236 -153t-160.5 -243t-59.5 -316t59.5 -316t160.5 -243t236 -153
t285 -55z" />
    <glyph glyph-name="otilde" unicode="&#xf5;" horiz-adv-x="2017" 
d="M498 1907q-5 0 -8.5 4t-3.5 9q1 181 78 269.5t203 88.5q49 0 92 -17.5t74 -45t59 -61t55.5 -67.5t55.5 -61.5t65.5 -45t80.5 -17.5q109 0 170.5 76t62.5 226q0 13 13 13h23q12 0 12 -20q-2 -176 -80 -263.5t-201 -87.5q-49 0 -92 17.5t-74 45t-59 61.5t-55.5 67.5
t-55.5 61t-65.5 45t-80.5 17.5q-109 0 -170.5 -76.5t-62.5 -226.5q0 -12 -13 -12h-23zM1008 1635q131 0 253 -37.5t223 -110t176.5 -172t117.5 -230.5t42 -278q0 -183 -65 -340t-176 -263t-259 -166t-312 -60t-311.5 60t-258.5 166t-176 263t-65 340q0 147 42 278
t117.5 230.5t176.5 172t222.5 110t252.5 37.5zM1008 40q150 0 285.5 55t236.5 153t160.5 243t59.5 316t-59.5 316t-160.5 243t-236.5 153t-285.5 55t-285 -55t-236 -153t-160.5 -243t-59.5 -316t59.5 -316t160.5 -243t236 -153t285 -55z" />
    <glyph glyph-name="odieresis" unicode="&#xf6;" horiz-adv-x="2017" 
d="M683 2026q-30 0 -52.5 22.5t-22.5 52.5t22.5 52t52.5 22q31 0 52.5 -21.5t21.5 -52.5q0 -30 -22 -52.5t-52 -22.5zM1333 2026q-30 0 -52.5 22.5t-22.5 52.5t22.5 52t52.5 22q31 0 52.5 -21.5t21.5 -52.5q0 -30 -22 -52.5t-52 -22.5zM1008 1635q131 0 253 -37.5t223 -110
t176.5 -172t117.5 -230.5t42 -278q0 -183 -65 -340t-176 -263t-259 -166t-312 -60t-311.5 60t-258.5 166t-176 263t-65 340q0 147 42 278t117.5 230.5t176.5 172t222.5 110t252.5 37.5zM1008 40q150 0 285.5 55t236.5 153t160.5 243t59.5 316t-59.5 316t-160.5 243
t-236.5 153t-285.5 55t-285 -55t-236 -153t-160.5 -243t-59.5 -316t59.5 -316t160.5 -243t236 -153t285 -55z" />
    <glyph glyph-name="divide" unicode="&#xf7;" horiz-adv-x="2039" 
d="M1005 1458q-29 0 -51.5 22.5t-22.5 51.5q0 30 22.5 52.5t51.5 22.5q31 0 53 -22t22 -53q0 -30 -22 -52t-53 -22zM249 1017q-12 0 -12 12v34q0 12 12 12h1541q5 0 9 -3.5t4 -8.5v-34q0 -5 -4 -8.5t-9 -3.5h-1541zM1005 488q-29 0 -51.5 22.5t-22.5 51.5q0 30 22.5 52.5
t51.5 22.5q31 0 53 -22t22 -53q0 -30 -22 -52t-53 -22z" />
    <glyph glyph-name="oslash" unicode="&#xf8;" horiz-adv-x="2020" 
d="M1617 1369q97 -109 150.5 -252t53.5 -310q0 -183 -65 -340t-176 -263t-259 -166t-312 -60q-161 0 -306.5 57t-255.5 163l-181 -181q-9 -9 -18 0l-23 23q-9 9 0 18l181 181q-208 229 -208 568q0 147 42 278t117.5 230.5t176.5 172t222.5 110t252.5 37.5q164 0 311 -58.5
t258 -166.5l173 173q9 9 17 0l23 -23q9 -8 0 -17zM268 807q0 -310 185 -521l1079 1078q-102 101 -237 155.5t-286 54.5q-150 0 -285 -55t-236 -153t-160.5 -243t-59.5 -316zM1009 40q150 0 285.5 55t236.5 153t160.5 243t59.5 316q0 305 -180 516l-1078 -1079
q101 -98 234.5 -151t281.5 -53z" />
    <glyph glyph-name="ugrave" unicode="&#xf9;" 
d="M467 2327q-11 8 -2 17l21 29q9 9 18 1l550 -463q9 -8 2 -18l-18 -22q-8 -10 -18 -2zM1677 1613q12 0 12 -12v-1589q0 -12 -12 -12h-44q-5 0 -8.5 4t-3.5 8v466q-22 -63 -65 -131t-113 -138t-155 -124.5t-199 -89.5t-236 -35q-156 0 -273 49t-189 140t-107.5 214
t-35.5 277v961q0 12 12 12h44q4 0 8 -3.5t4 -8.5v-948q0 -146 31 -260.5t96 -198.5t171 -128.5t249 -44.5q150 0 291 60t242.5 157.5t163 227t61.5 263.5v872q0 12 12 12h44z" />
    <glyph glyph-name="uacute" unicode="&#xfa;" 
d="M906 1871l-18 22q-7 10 2 18l550 463q9 8 18 -1l21 -29q9 -9 -2 -17l-553 -458q-10 -8 -18 2zM1677 1613q12 0 12 -12v-1589q0 -12 -12 -12h-44q-5 0 -8.5 4t-3.5 8v466q-22 -63 -65 -131t-113 -138t-155 -124.5t-199 -89.5t-236 -35q-156 0 -273 49t-189 140t-107.5 214
t-35.5 277v961q0 12 12 12h44q4 0 8 -3.5t4 -8.5v-948q0 -146 31 -260.5t96 -198.5t171 -128.5t249 -44.5q150 0 291 60t242.5 157.5t163 227t61.5 263.5v872q0 12 12 12h44z" />
    <glyph glyph-name="ucircumflex" unicode="&#xfb;" 
d="M510 1853q-20 0 -7 13l427 471q6 6 21 6h31q15 0 21 -6l427 -471q13 -13 -6 -13h-43q-14 0 -21 7l-393 434l-394 -434q-6 -7 -17 -7h-46zM1677 1613q12 0 12 -12v-1589q0 -12 -12 -12h-44q-5 0 -8.5 4t-3.5 8v466q-22 -63 -65 -131t-113 -138t-155 -124.5t-199 -89.5
t-236 -35q-156 0 -273 49t-189 140t-107.5 214t-35.5 277v961q0 12 12 12h44q4 0 8 -3.5t4 -8.5v-948q0 -146 31 -260.5t96 -198.5t171 -128.5t249 -44.5q150 0 291 60t242.5 157.5t163 227t61.5 263.5v872q0 12 12 12h44z" />
    <glyph glyph-name="udieresis" unicode="&#xfc;" 
d="M645 2026q-30 0 -52.5 22.5t-22.5 52.5t22.5 52t52.5 22q31 0 52.5 -21.5t21.5 -52.5q0 -30 -22 -52.5t-52 -22.5zM1295 2026q-30 0 -52.5 22.5t-22.5 52.5t22.5 52t52.5 22q31 0 52.5 -21.5t21.5 -52.5q0 -30 -22 -52.5t-52 -22.5zM1677 1613q12 0 12 -12v-1589
q0 -12 -12 -12h-44q-5 0 -8.5 4t-3.5 8v466q-22 -63 -65 -131t-113 -138t-155 -124.5t-199 -89.5t-236 -35q-156 0 -273 49t-189 140t-107.5 214t-35.5 277v961q0 12 12 12h44q4 0 8 -3.5t4 -8.5v-948q0 -146 31 -260.5t96 -198.5t171 -128.5t249 -44.5q150 0 291 60
t242.5 157.5t163 227t61.5 263.5v872q0 12 12 12h44z" />
    <glyph glyph-name="yacute" unicode="&#xfd;" horiz-adv-x="1606" 
d="M739 1871l-18 22q-7 10 2 18l550 463q9 8 18 -1l21 -29q9 -9 -2 -17l-553 -458q-10 -8 -18 2zM1537 1613q9 0 11.5 -7t-2.5 -16l-701 -1601q-84 -201 -150 -340t-139.5 -259t-144 -190t-152.5 -108.5t-175 -38.5q-13 0 -13 13v34q0 12 12 12q97 1 181.5 51.5t169 163.5
t166.5 273.5t183 402.5l-723 1587q-5 9 -2.5 16t11.5 7h43q12 0 18 -13l685 -1523l663 1523q7 13 19 13h40z" />
    <glyph glyph-name="thorn" unicode="&#xfe;" horiz-adv-x="2063" 
d="M1058 1634q130 0 251 -37.5t221.5 -110t176 -172t117.5 -230.5t42 -278t-42 -278t-117.5 -230.5t-176 -172t-221.5 -110t-251 -37.5q-260 0 -459 145.5t-283 385.5v-1444q0 -12 -12 -12h-44q-4 0 -8 3.5t-4 8.5v2536v947q0 12 12 12h44q4 0 8 -4t4 -8v-1366v-79
q84 240 283 385.5t459 145.5zM1054 39q150 0 285.5 55t236.5 153t160.5 243t59.5 316t-59.5 316t-160.5 243t-236.5 153t-285.5 55q-154 0 -292.5 -62t-236.5 -166t-155 -245t-57 -294t57 -294t155 -245t236.5 -166t292.5 -62z" />
    <glyph glyph-name="ydieresis" unicode="&#xff;" horiz-adv-x="1606" 
d="M478 2026q-30 0 -52.5 22.5t-22.5 52.5t22.5 52t52.5 22q31 0 52.5 -21.5t21.5 -52.5q0 -30 -22 -52.5t-52 -22.5zM1128 2026q-30 0 -52.5 22.5t-22.5 52.5t22.5 52t52.5 22q31 0 52.5 -21.5t21.5 -52.5q0 -30 -22 -52.5t-52 -22.5zM1537 1613q9 0 11.5 -7t-2.5 -16
l-701 -1601q-84 -201 -150 -340t-139.5 -259t-144 -190t-152.5 -108.5t-175 -38.5q-13 0 -13 13v34q0 12 12 12q97 1 181.5 51.5t169 163.5t166.5 273.5t183 402.5l-723 1587q-5 9 -2.5 16t11.5 7h43q12 0 18 -13l685 -1523l663 1523q7 13 19 13h40z" />
    <glyph glyph-name="Amacron" unicode="&#x100;" horiz-adv-x="2400" 
d="M722 2892q-4 0 -8 4t-4 8v32q0 4 4 8t8 4h955q5 0 9 -3.5t4 -8.5v-32q0 -5 -4 -8.5t-9 -3.5h-955zM2302 13q7 -13 -11 -13h-50q-12 0 -16 11l-391 903h-1283l-399 -903q-6 -11 -16 -11h-47q-18 0 -12 13l1096 2456q5 11 17 11h22q12 0 17 -11zM578 973h1231l-609 1407z
" />
    <glyph glyph-name="amacron" unicode="&#x101;" horiz-adv-x="1671" 
d="M409 2065q-5 0 -8.5 3.5t-3.5 8.5v32q0 5 3.5 8.5t8.5 3.5h955q5 0 9 -3.5t4 -8.5v-32q0 -5 -4 -8.5t-9 -3.5h-955zM1540 21q5 -14 -6 -20l-25 -10q-12 -5 -17 4q-111 214 -134 467q-72 -205 -258 -344.5t-418 -139.5q-226 0 -365.5 131.5t-139.5 328.5q0 141 76 252.5
t224.5 180.5t368 75t506.5 -65v158q0 101 -12 178t-43.5 146.5t-84 114t-137 70.5t-198.5 26q-153 0 -278.5 -41.5t-283.5 -129.5q-13 -6 -18 7l-15 31q-4 12 8 18q168 92 300 134t292 42q126 0 221 -29t155 -79.5t97 -127t51.5 -162t14.5 -194.5v-443q0 -193 28.5 -312
t90.5 -267zM690 38q140 0 266 57t211 147t135 202t50 222v161q-274 69 -481 67t-345.5 -63.5t-208.5 -162.5t-70 -232q0 -175 120.5 -286.5t322.5 -111.5z" />
    <glyph glyph-name="Abreve" unicode="&#x102;" horiz-adv-x="2400" 
d="M1200 2677q-119 0 -221 46.5t-168.5 141.5t-66.5 219q0 13 12 13h32q13 0 13 -11q1 -110 60.5 -192t148.5 -121.5t190 -39.5t190 39.5t148.5 121.5t60.5 192q0 11 13 11h32q12 0 12 -13q0 -124 -66.5 -219t-168.5 -141.5t-221 -46.5zM2302 13q7 -13 -11 -13h-50
q-12 0 -16 11l-391 903h-1283l-399 -903q-6 -11 -16 -11h-47q-18 0 -12 13l1096 2456q5 11 17 11h22q12 0 17 -11zM578 973h1231l-609 1407z" />
    <glyph glyph-name="abreve" unicode="&#x103;" horiz-adv-x="1671" 
d="M887 1850q-119 0 -221 46.5t-168.5 141.5t-66.5 219q0 13 12 13h32q13 0 13 -11q1 -110 60.5 -192t148.5 -121.5t190 -39.5t190 39.5t148.5 121.5t60.5 192q0 11 13 11h32q12 0 12 -13q0 -124 -66.5 -219t-168.5 -141.5t-221 -46.5zM1540 21q5 -14 -6 -20l-25 -10
q-12 -5 -17 4q-111 214 -134 467q-72 -205 -258 -344.5t-418 -139.5q-226 0 -365.5 131.5t-139.5 328.5q0 141 76 252.5t224.5 180.5t368 75t506.5 -65v158q0 101 -12 178t-43.5 146.5t-84 114t-137 70.5t-198.5 26q-153 0 -278.5 -41.5t-283.5 -129.5q-13 -6 -18 7l-15 31
q-4 12 8 18q168 92 300 134t292 42q126 0 221 -29t155 -79.5t97 -127t51.5 -162t14.5 -194.5v-443q0 -193 28.5 -312t90.5 -267zM690 38q140 0 266 57t211 147t135 202t50 222v161q-274 69 -481 67t-345.5 -63.5t-208.5 -162.5t-70 -232q0 -175 120.5 -286.5t322.5 -111.5z
" />
    <glyph glyph-name="Aogonek" unicode="&#x104;" horiz-adv-x="2400" 
d="M2336 -711q8 4 14.5 2t6.5 -10v-21q0 -12 -15 -20q-99 -47 -222 -47q-133 0 -210 83t-77 218q0 143 104 287.5t285 236.5l-388 896h-1283l-399 -903q-6 -11 -16 -11h-47q-18 0 -12 13l1096 2456q5 11 17 11h22q12 0 17 -11l1073 -2456q7 -13 -11 -13h-21
q-184 -106 -281.5 -233.5t-97.5 -265.5q0 -119 62 -188t174 -69q118 0 209 45zM578 973h1231l-609 1407z" />
    <glyph glyph-name="aogonek" unicode="&#x105;" horiz-adv-x="1769" 
d="M1553 2q-102 -69 -173 -125t-135 -121t-96 -130.5t-32 -132.5q0 -248 217 -248q108 0 200 45q20 9 20 -7v-21q0 -14 -14 -20q-94 -47 -213 -47q-132 0 -200 77t-68 214q0 129 120.5 266t318.5 263q-99 201 -121 448q-72 -206 -257.5 -345.5t-417.5 -139.5
q-226 0 -365.5 131.5t-139.5 328.5q0 141 75.5 252.5t224 180.5t368 75t507.5 -65v158q0 101 -12 178t-44 146.5t-84.5 114t-137 70.5t-198.5 26q-154 0 -279 -42t-282 -129q-14 -6 -19 7l-15 31q-4 12 8 18q168 92 300 134t292 42q126 0 221 -29t155 -79.5t97 -127
t51.5 -162t14.5 -194.5v-443q0 -134 17.5 -243t39 -172.5t63.5 -163.5q5 -13 -7 -19zM709 38q140 0 266 57t211.5 147t135.5 202t50 222v161q-274 69 -481 67t-346 -63.5t-208.5 -162.5t-69.5 -232q0 -175 120 -286.5t322 -111.5z" />
    <glyph glyph-name="Cacute" unicode="&#x106;" horiz-adv-x="2583" 
d="M1339 2698l-18 22q-7 10 2 18l550 463q9 8 18 -1l21 -29q9 -9 -2 -17l-553 -458q-10 -8 -18 2zM216 1220q0 187 43.5 356.5t122 304.5t188 245t241 183.5t282.5 113t310 39.5v-62q-150 0 -292 -38t-265 -108.5t-226.5 -175.5t-176.5 -233.5t-114 -288.5t-41 -336t41 -336
t114 -288.5t176.5 -233.5t226.5 -175.5t265 -108.5t292 -38v-62q-159 0 -310 39.5t-282.5 113t-241 183.5t-188 245t-122 304.5t-43.5 356.5zM1404 2401v61q665 0 981 -634q7 -14 -6 -18l-33 -16q-13 -4 -18 6q-156 311 -387 456t-537 145zM2379 630q13 -4 6 -18
q-316 -634 -981 -634v61q306 0 537 145t387 456q5 10 18 6z" />
    <glyph glyph-name="cacute" unicode="&#x107;" horiz-adv-x="1877" 
d="M952 1871l-18 22q-7 10 2 18l550 463q9 8 18 -1l21 -29q9 -9 -2 -17l-553 -458q-10 -8 -18 2zM1682 443q12 -5 6 -18q-93 -214 -263 -330.5t-412 -116.5q-168 0 -317 60t-259.5 166t-175 262.5t-64.5 340.5t64.5 340t175 262.5t259.5 166t317 59.5q242 0 412 -116.5
t263 -330.5q6 -13 -6 -18l-35 -16q-12 -4 -18 6q-187 414 -612 414q-155 0 -292.5 -55t-238.5 -153t-160 -243t-59 -316t59 -316t160 -243t238.5 -153t292.5 -55q437 0 612 413q6 12 18 6z" />
    <glyph glyph-name="Cdotaccent" unicode="&#x10a;" horiz-adv-x="2583" 
d="M1478 2928q0 -30 -22 -52.5t-53 -22.5q-30 0 -52.5 22.5t-22.5 52.5q0 31 22.5 53t52.5 22q31 0 53 -22t22 -53zM216 1220q0 187 43.5 356.5t122 304.5t188 245t241 183.5t282.5 113t310 39.5v-62q-150 0 -292 -38t-265 -108.5t-226.5 -175.5t-176.5 -233.5t-114 -288.5
t-41 -336t41 -336t114 -288.5t176.5 -233.5t226.5 -175.5t265 -108.5t292 -38v-62q-159 0 -310 39.5t-282.5 113t-241 183.5t-188 245t-122 304.5t-43.5 356.5zM1404 2401v61q665 0 981 -634q7 -14 -6 -18l-33 -16q-13 -4 -18 6q-156 311 -387 456t-537 145zM2379 630
q13 -4 6 -18q-316 -634 -981 -634v61q306 0 537 145t387 456q5 10 18 6z" />
    <glyph glyph-name="cdotaccent" unicode="&#x10b;" horiz-adv-x="1877" 
d="M1016 2026q-30 0 -52.5 22.5t-22.5 52.5q0 31 22.5 53t52.5 22q31 0 53 -22t22 -53q0 -30 -22 -52.5t-53 -22.5zM1682 443q12 -5 6 -18q-93 -214 -263 -330.5t-412 -116.5q-168 0 -317 60t-259.5 166t-175 262.5t-64.5 340.5t64.5 340t175 262.5t259.5 166t317 59.5
q242 0 412 -116.5t263 -330.5q6 -13 -6 -18l-35 -16q-12 -4 -18 6q-187 414 -612 414q-155 0 -292.5 -55t-238.5 -153t-160 -243t-59 -316t59 -316t160 -243t238.5 -153t292.5 -55q437 0 612 413q6 12 18 6z" />
    <glyph glyph-name="Ccaron" unicode="&#x10c;" horiz-adv-x="2583" 
d="M1363 2683l-427 471q-13 13 7 13h46q11 0 17 -7l394 -434l393 434q7 7 21 7h43q19 0 6 -13l-427 -471q-6 -6 -21 -6h-31q-15 0 -21 6zM216 1220q0 187 43.5 356.5t122 304.5t188 245t241 183.5t282.5 113t310 39.5v-62q-150 0 -292 -38t-265 -108.5t-226.5 -175.5
t-176.5 -233.5t-114 -288.5t-41 -336t41 -336t114 -288.5t176.5 -233.5t226.5 -175.5t265 -108.5t292 -38v-62q-159 0 -310 39.5t-282.5 113t-241 183.5t-188 245t-122 304.5t-43.5 356.5zM1404 2401v61q665 0 981 -634q7 -14 -6 -18l-33 -16q-13 -4 -18 6
q-156 311 -387 456t-537 145zM2379 630q13 -4 6 -18q-316 -634 -981 -634v61q306 0 537 145t387 456q5 10 18 6z" />
    <glyph glyph-name="ccaron" unicode="&#x10d;" horiz-adv-x="1877" 
d="M976 1856l-427 471q-13 13 7 13h46q11 0 17 -7l394 -434l393 434q7 7 21 7h43q19 0 6 -13l-427 -471q-6 -6 -21 -6h-31q-15 0 -21 6zM1682 443q12 -5 6 -18q-93 -214 -263 -330.5t-412 -116.5q-168 0 -317 60t-259.5 166t-175 262.5t-64.5 340.5t64.5 340t175 262.5
t259.5 166t317 59.5q242 0 412 -116.5t263 -330.5q6 -13 -6 -18l-35 -16q-12 -4 -18 6q-187 414 -612 414q-155 0 -292.5 -55t-238.5 -153t-160 -243t-59 -316t59 -316t160 -243t238.5 -153t292.5 -55q437 0 612 413q6 12 18 6z" />
    <glyph glyph-name="Dcaron" unicode="&#x10e;" horiz-adv-x="2451" 
d="M1080 2683l-427 471q-13 13 7 13h46q11 0 17 -7l394 -434l393 434q7 7 21 7h43q19 0 6 -13l-427 -471q-6 -6 -21 -6h-31q-15 0 -21 6zM1011 2440q204 0 388 -51.5t336.5 -154t264 -247.5t173 -341.5t61.5 -425.5t-61.5 -425.5t-173 -341.5t-264 -247.5t-336.5 -154
t-388 -51.5h-725h-26q-4 0 -8 4t-4 8v2416q0 4 4 8t8 4h46h705zM1008 61q193 0 366.5 49.5t317.5 147.5t249 236t163.5 324t58.5 402t-58.5 402t-163.5 324t-249 236t-317.5 147.5t-366.5 49.5h-690v-2318h690z" />
    <glyph glyph-name="dcaron" unicode="&#x10f;" horiz-adv-x="2322" 
d="M2162 2584q31 0 52.5 -24t21.5 -70q0 -59 -11.5 -124.5t-53 -155.5t-107.5 -154q-10 -10 -21 1l-8 9q-6 9 1 18q57 57 92 139.5t35 165.5q0 23 -6.5 33.5t-29.5 21.5q-40 20 -40 66q0 30 22 52t53 22zM1803 2560q5 0 8.5 -4t3.5 -8v-2536q0 -4 -3.5 -8t-8.5 -4h-44
q-12 0 -12 12v498q-84 -240 -283 -385.5t-459 -145.5q-130 0 -251 37.5t-221.5 110t-176 172t-117.5 230.5t-42 278t42 278t117.5 230.5t176 172t221.5 110t251 37.5q260 0 459 -145.5t283 -385.5v1444q0 12 12 12h44zM1009 40q154 0 292.5 62t236.5 166t155 245t57 294
t-57 294t-155 245t-236.5 166t-292.5 62q-150 0 -285.5 -55t-236.5 -153t-160.5 -243t-59.5 -316t59.5 -316t160.5 -243t236.5 -153t285.5 -55z" />
    <glyph glyph-name="Dcroat" unicode="&#x110;" horiz-adv-x="2451" 
d="M1011 2440q204 0 388 -51.5t336.5 -154t264 -247.5t173 -341.5t61.5 -425.5t-61.5 -425.5t-173 -341.5t-264 -247.5t-336.5 -154t-388 -51.5h-725h-26q-4 0 -8 4t-4 8v1180h-317q-12 0 -12 12v33q0 13 12 13h317v1178q0 4 4 8t8 4h46h705zM1008 61q193 0 366.5 49.5
t317.5 147.5t249 236t163.5 324t58.5 402t-58.5 402t-163.5 324t-249 236t-317.5 147.5t-366.5 49.5h-690v-1129h661q12 0 12 -13v-33q0 -12 -12 -12h-661v-1131h690z" />
    <glyph glyph-name="dcroat" unicode="&#x111;" horiz-adv-x="2231" 
d="M2162 2110q5 0 9 -3.5t4 -8.5v-27q0 -12 -13 -12h-347v-2047q0 -4 -3.5 -8t-8.5 -4h-44q-12 0 -12 12v498q-84 -240 -283 -385.5t-459 -145.5q-130 0 -251 37.5t-221.5 110t-176 172t-117.5 230.5t-42 278t42 278t117.5 230.5t176 172t221.5 110t251 37.5
q260 0 459 -145.5t283 -385.5v955h-473q-12 0 -12 12v27q0 4 4 8t8 4h473v438q0 12 12 12h44q5 0 8.5 -4t3.5 -8v-438h347zM1009 40q154 0 292.5 62t236.5 166t155 245t57 294t-57 294t-155 245t-236.5 166t-292.5 62q-150 0 -285.5 -55t-236.5 -153t-160.5 -243t-59.5 -316
t59.5 -316t160.5 -243t236.5 -153t285.5 -55z" />
    <glyph glyph-name="Emacron" unicode="&#x112;" horiz-adv-x="2082" 
d="M587 2892q-5 0 -8.5 4t-3.5 8v32q0 4 3.5 8t8.5 4h955q5 0 9 -3.5t4 -8.5v-32q0 -5 -4 -8.5t-9 -3.5h-955zM1862 61q12 0 12 -12v-37q0 -4 -4 -8t-8 -4h-1570h-32q-4 0 -8 4t-4 8v2416q0 4 4 8t8 4h46h1516q12 0 12 -12v-37q0 -12 -12 -12h-1504v-1069h1344q12 0 12 -12
v-37q0 -12 -12 -12h-1344v-1188h1544z" />
    <glyph glyph-name="emacron" unicode="&#x113;" horiz-adv-x="1900" 
d="M464 2065q-4 0 -8 3.5t-4 8.5v32q0 5 4 8.5t8 3.5h955q5 0 9 -3.5t4 -8.5v-32q0 -5 -4 -8.5t-9 -3.5h-955zM1676 441q11 -5 6 -17q-95 -218 -265.5 -332t-409.5 -114q-164 0 -311.5 60t-258 166t-175.5 263t-65 340q0 184 62 340t168.5 262.5t251.5 166t309 59.5
q320 0 517.5 -209t197.5 -555h-1434q-2 -42 -2 -64q0 -171 59.5 -316t160.5 -243t236 -153t285 -55q219 0 375 103.5t239 308.5q6 11 18 6zM988 1575q-182 0 -335 -78t-253.5 -226t-125.5 -343h1355q-13 295 -188 471t-453 176z" />
    <glyph glyph-name="Edotaccent" unicode="&#x116;" horiz-adv-x="2082" 
d="M1065 2853q-30 0 -52.5 22.5t-22.5 52.5q0 31 22.5 53t52.5 22q31 0 53 -22t22 -53q0 -30 -22 -52.5t-53 -22.5zM1862 61q12 0 12 -12v-37q0 -4 -4 -8t-8 -4h-1570h-32q-4 0 -8 4t-4 8v2416q0 4 4 8t8 4h46h1516q12 0 12 -12v-37q0 -12 -12 -12h-1504v-1069h1344
q12 0 12 -12v-37q0 -12 -12 -12h-1344v-1188h1544z" />
    <glyph glyph-name="edotaccent" unicode="&#x117;" horiz-adv-x="1900" 
d="M942 2026q-30 0 -52.5 22.5t-22.5 52.5q0 31 22.5 53t52.5 22q31 0 53 -22t22 -53q0 -30 -22 -52.5t-53 -22.5zM1676 441q11 -5 6 -17q-95 -218 -265.5 -332t-409.5 -114q-164 0 -311.5 60t-258 166t-175.5 263t-65 340q0 184 62 340t168.5 262.5t251.5 166t309 59.5
q320 0 517.5 -209t197.5 -555h-1434q-2 -42 -2 -64q0 -171 59.5 -316t160.5 -243t236 -153t285 -55q219 0 375 103.5t239 308.5q6 11 18 6zM988 1575q-182 0 -335 -78t-253.5 -226t-125.5 -343h1355q-13 295 -188 471t-453 176z" />
    <glyph glyph-name="Eogonek" unicode="&#x118;" horiz-adv-x="2082" 
d="M1862 61q12 0 12 -12v-37q0 -4 -4 -8t-8 -4h-98q-184 -106 -281.5 -233.5t-97.5 -265.5q0 -119 62 -188t174 -69q118 0 209 45q8 4 14.5 2t6.5 -10v-21q0 -12 -15 -20q-99 -47 -222 -47q-133 0 -210 83t-77 218q0 136 94.5 274t260.5 232h-1390h-32q-4 0 -8 4t-4 8v2416
q0 4 4 8t8 4h46h1516q12 0 12 -12v-37q0 -12 -12 -12h-1504v-1069h1344q12 0 12 -12v-37q0 -12 -12 -12h-1344v-1188h1544z" />
    <glyph glyph-name="eogonek" unicode="&#x119;" horiz-adv-x="1900" 
d="M1676 441q11 -5 6 -17q-131 -300 -397 -399q-174 -106 -264 -230t-90 -257q0 -119 62 -188t174 -69q120 0 209 45q21 8 21 -8v-21q0 -13 -15 -20q-93 -47 -222 -47q-133 0 -210 83t-77 218q0 119 74 242t207 217q-69 -12 -147 -12q-164 0 -311.5 60t-258 166t-175.5 263
t-65 340q0 184 62 340t168.5 262.5t251.5 166t309 59.5q320 0 517.5 -209t197.5 -555h-1434q-2 -42 -2 -64q0 -171 59.5 -316t160.5 -243t236 -153t285 -55q219 0 375 103.5t239 308.5q6 11 18 6zM988 1575q-182 0 -335 -78t-253.5 -226t-125.5 -343h1355q-13 295 -188 471
t-453 176z" />
    <glyph glyph-name="Ecaron" unicode="&#x11a;" horiz-adv-x="2082" 
d="M1025 2683l-427 471q-13 13 7 13h46q11 0 17 -7l394 -434l393 434q7 7 21 7h43q19 0 6 -13l-427 -471q-6 -6 -21 -6h-31q-15 0 -21 6zM1862 61q12 0 12 -12v-37q0 -4 -4 -8t-8 -4h-1570h-32q-4 0 -8 4t-4 8v2416q0 4 4 8t8 4h46h1516q12 0 12 -12v-37q0 -12 -12 -12
h-1504v-1069h1344q12 0 12 -12v-37q0 -12 -12 -12h-1344v-1188h1544z" />
    <glyph glyph-name="ecaron" unicode="&#x11b;" horiz-adv-x="1900" 
d="M902 1856l-427 471q-13 13 7 13h46q11 0 17 -7l394 -434l393 434q7 7 21 7h43q19 0 6 -13l-427 -471q-6 -6 -21 -6h-31q-15 0 -21 6zM1676 441q11 -5 6 -17q-95 -218 -265.5 -332t-409.5 -114q-164 0 -311.5 60t-258 166t-175.5 263t-65 340q0 184 62 340t168.5 262.5
t251.5 166t309 59.5q320 0 517.5 -209t197.5 -555h-1434q-2 -42 -2 -64q0 -171 59.5 -316t160.5 -243t236 -153t285 -55q219 0 375 103.5t239 308.5q6 11 18 6zM988 1575q-182 0 -335 -78t-253.5 -226t-125.5 -343h1355q-13 295 -188 471t-453 176z" />
    <glyph glyph-name="Gbreve" unicode="&#x11e;" horiz-adv-x="2629" 
d="M1375 2677q-119 0 -221 46.5t-168.5 141.5t-66.5 219q0 13 12 13h32q13 0 13 -11q1 -110 60.5 -192t148.5 -121.5t190 -39.5t190 39.5t148.5 121.5t60.5 192q0 11 13 11h32q12 0 12 -13q0 -124 -66.5 -219t-168.5 -141.5t-221 -46.5zM2370 1062q5 0 8.5 -4t3.5 -9v-775
q-242 -161 -467 -228.5t-512 -67.5q-159 0 -310 39.5t-282.5 113t-241 183.5t-188 245t-122 304.5t-43.5 356.5t43.5 356.5t122 304.5t188 245t241 183.5t282.5 113t310 39.5q329 0 557.5 -136.5t409.5 -427.5q7 -10 -6 -18l-35 -16q-10 -5 -18 7q-172 276 -386 402.5
t-522 126.5q-150 0 -292 -38t-265 -108.5t-226.5 -175.5t-176.5 -233.5t-114 -288.5t-41 -336t41 -336t114 -288.5t176.5 -233.5t226.5 -175.5t265 -108.5t292 -38q260 0 471 58.5t441 200.5v750q0 13 13 13h42z" />
    <glyph glyph-name="gbreve" unicode="&#x11f;" horiz-adv-x="1775" 
d="M892 1850q-119 0 -221 46.5t-168.5 141.5t-66.5 219q0 13 12 13h32q13 0 13 -11q1 -110 60.5 -192t148.5 -121.5t190 -39.5t190 39.5t148.5 121.5t60.5 192q0 11 13 11h32q12 0 12 -13q0 -124 -66.5 -219t-168.5 -141.5t-221 -46.5zM1684 1675q13 0 13 -12v-38
q0 -12 -12 -12q-105 0 -184 -53t-106 -147q126 -151 126 -341q0 -151 -80 -279.5t-224.5 -206.5t-322.5 -78h-191q-213 0 -316.5 -69.5t-103.5 -176.5q0 -42 11 -75t39.5 -64t75 -51.5t121 -32.5t173.5 -12h248q350 0 541.5 -131t191.5 -356q0 -224 -192 -357t-541 -133
t-541 131t-192 352q0 152 117.5 267.5t306.5 172.5q-123 4 -208.5 27.5t-131.5 63.5t-65 87t-19 108q0 119 103 201t308 97q-168 67 -268 206.5t-100 308.5q0 113 47.5 216t129.5 179.5t200.5 122t252.5 45.5q139 0 258 -47t205 -131q40 100 129.5 159t200.5 59zM891 566
q159 0 289 69.5t201.5 185t71.5 251.5q0 135 -71.5 250.5t-201.5 185t-289 69.5t-289 -69.5t-201.5 -185t-71.5 -250.5q0 -136 71.5 -251.5t201.5 -185t289 -69.5zM1618 -462q0 198 -173.5 314.5t-493.5 116.5q-172 0 -323.5 -52.5t-247.5 -153t-96 -225.5
q0 -200 173.5 -316t493.5 -116t493.5 116t173.5 316z" />
    <glyph glyph-name="Gdotaccent" unicode="&#x120;" horiz-adv-x="2629" 
d="M1375 2853q-30 0 -52.5 22.5t-22.5 52.5q0 31 22.5 53t52.5 22q31 0 53 -22t22 -53q0 -30 -22 -52.5t-53 -22.5zM2370 1062q5 0 8.5 -4t3.5 -9v-775q-242 -161 -467 -228.5t-512 -67.5q-159 0 -310 39.5t-282.5 113t-241 183.5t-188 245t-122 304.5t-43.5 356.5
t43.5 356.5t122 304.5t188 245t241 183.5t282.5 113t310 39.5q329 0 557.5 -136.5t409.5 -427.5q7 -10 -6 -18l-35 -16q-10 -5 -18 7q-172 276 -386 402.5t-522 126.5q-150 0 -292 -38t-265 -108.5t-226.5 -175.5t-176.5 -233.5t-114 -288.5t-41 -336t41 -336t114 -288.5
t176.5 -233.5t226.5 -175.5t265 -108.5t292 -38q260 0 471 58.5t441 200.5v750q0 13 13 13h42z" />
    <glyph glyph-name="gdotaccent" unicode="&#x121;" horiz-adv-x="1775" 
d="M892 2026q-30 0 -52.5 22.5t-22.5 52.5q0 31 22.5 53t52.5 22q31 0 53 -22t22 -53q0 -30 -22 -52.5t-53 -22.5zM1684 1675q13 0 13 -12v-38q0 -12 -12 -12q-105 0 -184 -53t-106 -147q126 -151 126 -341q0 -151 -80 -279.5t-224.5 -206.5t-322.5 -78h-191
q-213 0 -316.5 -69.5t-103.5 -176.5q0 -42 11 -75t39.5 -64t75 -51.5t121 -32.5t173.5 -12h248q350 0 541.5 -131t191.5 -356q0 -224 -192 -357t-541 -133t-541 131t-192 352q0 152 117.5 267.5t306.5 172.5q-123 4 -208.5 27.5t-131.5 63.5t-65 87t-19 108q0 119 103 201
t308 97q-168 67 -268 206.5t-100 308.5q0 113 47.5 216t129.5 179.5t200.5 122t252.5 45.5q139 0 258 -47t205 -131q40 100 129.5 159t200.5 59zM891 566q159 0 289 69.5t201.5 185t71.5 251.5q0 135 -71.5 250.5t-201.5 185t-289 69.5t-289 -69.5t-201.5 -185t-71.5 -250.5
q0 -136 71.5 -251.5t201.5 -185t289 -69.5zM1618 -462q0 198 -173.5 314.5t-493.5 116.5q-172 0 -323.5 -52.5t-247.5 -153t-96 -225.5q0 -200 173.5 -316t493.5 -116t493.5 116t173.5 316z" />
    <glyph glyph-name="Gcommaaccent" unicode="&#x122;" horiz-adv-x="2629" 
d="M2370 1062q5 0 8.5 -4t3.5 -9v-775q-242 -161 -467 -228.5t-512 -67.5q-159 0 -310 39.5t-282.5 113t-241 183.5t-188 245t-122 304.5t-43.5 356.5t43.5 356.5t122 304.5t188 245t241 183.5t282.5 113t310 39.5q329 0 557.5 -136.5t409.5 -427.5q7 -10 -6 -18l-35 -16
q-10 -5 -18 7q-172 276 -386 402.5t-522 126.5q-150 0 -292 -38t-265 -108.5t-226.5 -175.5t-176.5 -233.5t-114 -288.5t-41 -336t41 -336t114 -288.5t176.5 -233.5t226.5 -175.5t265 -108.5t292 -38q260 0 471 58.5t441 200.5v750q0 13 13 13h42zM1303 -290q31 0 52.5 -24
t21.5 -70q0 -59 -11.5 -124.5t-53 -155.5t-107.5 -154q-10 -10 -21 1l-8 9q-6 9 1 18q57 57 92 139.5t35 165.5q0 23 -6.5 33.5t-29.5 21.5q-40 20 -40 66q0 30 22 52t53 22z" />
    <glyph glyph-name="gcommaaccent" unicode="&#x123;" horiz-adv-x="1742" 
d="M935 2021q-31 0 -52.5 24t-21.5 70q0 59 11.5 124.5t53 155.5t107.5 154q10 10 21 -1l8 -9q6 -9 -1 -18q-57 -57 -92 -139.5t-35 -165.5q0 -23 6.5 -33.5t29.5 -21.5q40 -20 40 -66q0 -30 -22 -52t-53 -22zM1684 1675q13 0 13 -12v-38q0 -12 -12 -12q-105 0 -184 -53
t-106 -147q126 -151 126 -341q0 -151 -80 -279.5t-224.5 -206.5t-322.5 -78h-191q-213 0 -316.5 -69.5t-103.5 -176.5q0 -42 11 -75t39.5 -64t75 -51.5t121 -32.5t173.5 -12h248q350 0 541.5 -131t191.5 -356q0 -224 -192 -357t-541 -133t-541 131t-192 352
q0 152 117.5 267.5t306.5 172.5q-123 4 -208.5 27.5t-131.5 63.5t-65 87t-19 108q0 119 103 201t308 97q-168 67 -268 206.5t-100 308.5q0 113 47.5 216t129.5 179.5t200.5 122t252.5 45.5q139 0 258 -47t205 -131q40 100 129.5 159t200.5 59zM891 566q159 0 289 69.5
t201.5 185t71.5 251.5q0 135 -71.5 250.5t-201.5 185t-289 69.5t-289 -69.5t-201.5 -185t-71.5 -250.5q0 -136 71.5 -251.5t201.5 -185t289 -69.5zM1618 -462q0 198 -173.5 314.5t-493.5 116.5q-172 0 -323.5 -52.5t-247.5 -153t-96 -225.5q0 -200 173.5 -316t493.5 -116
t493.5 116t173.5 316z" />
    <glyph glyph-name="Hbar" unicode="&#x126;" horiz-adv-x="2503" 
d="M2491 1932q12 0 12 -13v-33q0 -12 -12 -12h-266v-1862q0 -4 -3.5 -8t-8.5 -4h-46q-5 0 -8.5 4t-3.5 8v1237h-1806v-1237q0 -4 -3.5 -8t-8.5 -4h-46q-5 0 -8.5 4t-3.5 8v1862h-267q-12 0 -12 12v33q0 5 3.5 9t8.5 4h267v496q0 4 3.5 8t8.5 4h46q5 0 8.5 -4t3.5 -8v-496
h1806v496q0 4 3.5 8t8.5 4h46q5 0 8.5 -4t3.5 -8v-496h266zM2155 1310v564h-1806v-564h1806z" />
    <glyph glyph-name="hbar" unicode="&#x127;" horiz-adv-x="2106" 
d="M1253 1653q156 0 273 -49t189 -140t107.5 -214t35.5 -277v-961q0 -12 -12 -12h-44q-4 0 -8 4t-4 8v948q0 146 -31 260.5t-96 198.5t-171 128.5t-249 44.5q-136 0 -265 -49.5t-227.5 -132t-167 -193.5t-89.5 -231v-974q0 -4 -4 -8t-8 -4h-44q-12 0 -12 12v2047h-357
q-12 0 -12 12v27q0 12 12 12h357v438q0 12 12 12h44q4 0 8 -4t4 -8v-438h463q12 0 12 -12v-27q0 -12 -12 -12h-463v-900q26 63 70.5 128.5t114.5 132t153 117.5t193 83.5t228 32.5z" />
    <glyph glyph-name="Imacron" unicode="&#x12a;" horiz-adv-x="565" 
d="M-207 2936q0 4 3.5 8t8.5 4h955q5 0 9 -3.5t4 -8.5v-32q0 -5 -4 -8.5t-9 -3.5h-955q-5 0 -8.5 4t-3.5 8v32zM248 2428q0 12 12 12h45q5 0 9 -4t4 -8v-2416q0 -4 -4 -8t-9 -4h-45q-12 0 -12 12v2416z" />
    <glyph glyph-name="imacron" unicode="&#x12b;" horiz-adv-x="545" 
d="M-217 2109q0 5 3.5 8.5t8.5 3.5h955q5 0 9 -3.5t4 -8.5v-32q0 -5 -4 -8.5t-9 -3.5h-955q-5 0 -8.5 3.5t-3.5 8.5v32zM238 1601q0 12 13 12h43q13 0 13 -12v-1589q0 -5 -4 -8.5t-9 -3.5h-43q-5 0 -9 3.5t-4 8.5v1589z" />
    <glyph glyph-name="Iogonek" unicode="&#x12e;" horiz-adv-x="565" 
d="M363 -711q8 4 14.5 2t6.5 -10v-21q0 -12 -15 -20q-99 -47 -222 -47q-133 0 -210 83t-77 218q0 142 103.5 286.5t284.5 236.5v2411q0 12 12 12h45q5 0 9 -4t4 -8v-2416q0 -4 -4 -8t-9 -4h-8q-184 -106 -281.5 -233.5t-97.5 -265.5q0 -119 62 -188t174 -69q118 0 209 45z
" />
    <glyph glyph-name="iogonek" unicode="&#x12f;" horiz-adv-x="545" 
d="M273 2026q-30 0 -52.5 22.5t-22.5 52.5q0 31 22.5 53t52.5 22q31 0 53 -22t22 -53q0 -30 -22 -52.5t-53 -22.5zM354 -711q8 4 14.5 2t6.5 -10v-21q0 -12 -15 -20q-99 -47 -222 -47q-133 0 -210 83t-77 218q0 142 103.5 286t283.5 237v1584q0 12 13 12h43q13 0 13 -12
v-1589q0 -5 -4 -8.5t-9 -3.5h-6q-184 -106 -281.5 -233.5t-97.5 -265.5q0 -119 62 -188t174 -69q118 0 209 45z" />
    <glyph glyph-name="Idotaccent" unicode="&#x130;" horiz-adv-x="565" 
d="M283 2853q-30 0 -52.5 22.5t-22.5 52.5q0 31 22.5 53t52.5 22q31 0 53 -22t22 -53q0 -30 -22 -52.5t-53 -22.5zM248 2428q0 12 12 12h45q5 0 9 -4t4 -8v-2416q0 -4 -4 -8t-9 -4h-45q-12 0 -12 12v2416z" />
    <glyph glyph-name="dotlessi" unicode="&#x131;" horiz-adv-x="545" 
d="M238 1601q0 12 13 12h43q13 0 13 -12v-1589q0 -5 -4 -8.5t-9 -3.5h-43q-5 0 -9 3.5t-4 8.5v1589z" />
    <glyph glyph-name="Kcommaaccent" unicode="&#x136;" horiz-adv-x="2177" 
d="M306 2440q4 0 8 -4t4 -8v-2416q0 -4 -4 -8t-8 -4h-46q-4 0 -8 4t-4 8v2416q0 4 4 8t8 4h46zM1998 17q7 -7 5 -12t-11 -5h-56q-15 0 -24 10l-1226 1230l1225 1190q9 10 24 10h53q7 0 8.5 -4.5t-5.5 -12.5l-1216 -1181zM1033 -290q31 0 52.5 -24t21.5 -70
q0 -59 -11.5 -124.5t-53 -155.5t-107.5 -154q-10 -10 -21 1l-8 9q-6 9 1 18q57 57 92 139.5t35 165.5q0 23 -6.5 33.5t-29.5 21.5q-40 20 -40 66q0 30 22 52t53 22z" />
    <glyph glyph-name="kcommaaccent" unicode="&#x137;" horiz-adv-x="1634" 
d="M248 2548q0 12 12 12h44q4 0 8 -4t4 -8v-2536q0 -4 -4 -8t-8 -4h-44q-12 0 -12 12v2536zM1449 0q-13 0 -23 10l-874 877l830 720q7 6 18 6h61q6 0 8.5 -4t-1.5 -9l-823 -712l867 -871q15 -17 -6 -17h-57zM777 -290q31 0 52.5 -24t21.5 -70q0 -59 -11.5 -124.5t-53 -155.5
t-107.5 -154q-10 -10 -21 1l-8 9q-6 9 1 18q57 57 92 139.5t35 165.5q0 23 -6.5 33.5t-29.5 21.5q-40 20 -40 66q0 30 22 52t53 22z" />
    <glyph glyph-name="Lacute" unicode="&#x139;" horiz-adv-x="1888" 
d="M792 3171q9 -9 -2 -17l-553 -458q-10 -8 -18 2l-18 22q-7 10 2 18l550 463q9 8 18 -1zM1768 61q12 0 12 -12v-37q0 -4 -4 -8t-8 -4h-1476h-32q-4 0 -8 4t-4 8v2416q0 4 4 8t8 4h46q4 0 8 -4t4 -8v-2367h1450z" />
    <glyph glyph-name="lacute" unicode="&#x13a;" horiz-adv-x="563" 
d="M236 2706q-10 -8 -18 2l-18 22q-7 10 2 18l550 463q9 8 18 -1l21 -29q9 -9 -2 -17zM248 2548q0 12 12 12h44q4 0 8 -4t4 -8v-2536q0 -4 -4 -8t-8 -4h-44q-12 0 -12 12v2536z" />
    <glyph glyph-name="Lcommaaccent" unicode="&#x13b;" horiz-adv-x="1888" 
d="M1768 61q12 0 12 -12v-37q0 -4 -4 -8t-8 -4h-1476h-32q-4 0 -8 4t-4 8v2416q0 4 4 8t8 4h46q4 0 8 -4t4 -8v-2367h1450zM959 -290q31 0 52.5 -24t21.5 -70q0 -59 -11.5 -124.5t-53 -155.5t-107.5 -154q-10 -10 -21 1l-8 9q-6 9 1 18q57 57 92 139.5t35 165.5
q0 23 -6.5 33.5t-29.5 21.5q-40 20 -40 66q0 30 22 52t53 22z" />
    <glyph glyph-name="lcommaaccent" unicode="&#x13c;" horiz-adv-x="563" 
d="M248 2548q0 12 12 12h44q4 0 8 -4t4 -8v-2536q0 -4 -4 -8t-8 -4h-44q-12 0 -12 12v2536zM242 -290q31 0 52.5 -24t21.5 -70q0 -59 -11.5 -124.5t-53 -155.5t-107.5 -154q-10 -10 -21 1l-8 9q-6 9 1 18q57 57 92 139.5t35 165.5q0 23 -6.5 33.5t-29.5 21.5q-40 20 -40 66
q0 30 22 52t53 22z" />
    <glyph glyph-name="Lcaron" unicode="&#x13d;" horiz-adv-x="1888" 
d="M1320 2057l-8 9q-6 9 1 18q57 57 92 139.5t35 165.5q0 23 -6.5 33.5t-29.5 21.5q-40 20 -40 66q0 30 22 52t53 22t52.5 -24t21.5 -70q0 -59 -11.5 -124.5t-53 -155.5t-107.5 -154q-10 -10 -21 1zM1768 61q12 0 12 -12v-37q0 -4 -4 -8t-8 -4h-1476h-32q-4 0 -8 4t-4 8
v2416q0 4 4 8t8 4h46q4 0 8 -4t4 -8v-2367h1450z" />
    <glyph glyph-name="lcaron" unicode="&#x13e;" horiz-adv-x="730" 
d="M617 2584q31 0 52.5 -24t21.5 -70q0 -59 -11.5 -124.5t-53 -155.5t-107.5 -154q-10 -10 -21 1l-8 9q-6 9 1 18q57 57 92 139.5t35 165.5q0 23 -6.5 33.5t-29.5 21.5q-40 20 -40 66q0 30 22 52t53 22zM248 2548q0 12 12 12h44q4 0 8 -4t4 -8v-2536q0 -4 -4 -8t-8 -4h-44
q-12 0 -12 12v2536z" />
    <glyph glyph-name="Lslash" unicode="&#x141;" horiz-adv-x="2119" 
d="M2000 61q12 0 12 -12v-37q0 -4 -4 -8t-8 -4h-1476h-32q-4 0 -8 4t-4 8v1028l-445 -263q-11 -5 -17 5l-16 30q-7 11 5 17l473 280v1319q0 4 4 8t8 4h46q4 0 8 -4t4 -8v-1278l955 565q9 5 17 -5l16 -30q4 -12 -5 -17l-983 -581v-1021h1450z" />
    <glyph glyph-name="lslash" unicode="&#x142;" horiz-adv-x="837" 
d="M816 1455q6 -10 -5 -17l-349 -206v-1220q0 -4 -4 -8t-8 -4h-44q-12 0 -12 12v1180l-321 -189q-12 -7 -16 5l-16 29q-6 12 5 17l348 205v1289q0 12 12 12h44q4 0 8 -4t4 -8v-1249l322 190q11 6 17 -5z" />
    <glyph glyph-name="Nacute" unicode="&#x143;" horiz-adv-x="2482" 
d="M1235 2696q-10 -8 -18 2l-18 22q-7 10 2 18l550 463q9 8 18 -1l21 -29q9 -9 -2 -17zM2222 2440q12 0 12 -12v-2456q0 -12 -12 -12h-5q-14 0 -20 9l-1879 2362v-2319q0 -5 -4 -8.5t-9 -3.5h-45q-12 0 -12 12v2456q0 12 12 12h5q11 0 19 -9l1880 -2362v2319q0 5 4 8.5
t9 3.5h45z" />
    <glyph glyph-name="nacute" unicode="&#x144;" 
d="M946 1871l-18 22q-7 10 2 18l550 463q9 8 18 -1l21 -29q9 -9 -2 -17l-553 -458q-10 -8 -18 2zM1084 1653q156 0 273 -49t189 -140t107.5 -214t35.5 -277v-961q0 -12 -12 -12h-44q-5 0 -8.5 4t-3.5 8v948q0 146 -31 260.5t-96 198.5t-171 128.5t-249 44.5q-150 0 -291 -60
t-242.5 -157.5t-163 -227t-61.5 -263.5v-872q0 -12 -12 -12h-44q-4 0 -8 4t-4 8v1589q0 12 12 12h44q12 0 12 -12v-466q22 63 65 131t113 138t155 124.5t199 89.5t236 35z" />
    <glyph glyph-name="Ncommaaccent" unicode="&#x145;" horiz-adv-x="2482" 
d="M2222 2440q12 0 12 -12v-2456q0 -12 -12 -12h-5q-14 0 -20 9l-1879 2362v-2319q0 -5 -4 -8.5t-9 -3.5h-45q-12 0 -12 12v2456q0 12 12 12h5q11 0 19 -9l1880 -2362v2319q0 5 4 8.5t9 3.5h45zM1241 -290q31 0 52.5 -24t21.5 -70q0 -59 -11.5 -124.5t-53 -155.5
t-107.5 -154q-10 -10 -21 1l-8 9q-6 9 1 18q57 57 92 139.5t35 165.5q0 23 -6.5 33.5t-29.5 21.5q-40 20 -40 66q0 30 22 52t53 22z" />
    <glyph glyph-name="ncommaaccent" unicode="&#x146;" 
d="M1084 1653q156 0 273 -49t189 -140t107.5 -214t35.5 -277v-961q0 -12 -12 -12h-44q-5 0 -8.5 4t-3.5 8v948q0 146 -31 260.5t-96 198.5t-171 128.5t-249 44.5q-150 0 -291 -60t-242.5 -157.5t-163 -227t-61.5 -263.5v-872q0 -12 -12 -12h-44q-4 0 -8 4t-4 8v1589
q0 12 12 12h44q12 0 12 -12v-466q22 63 65 131t113 138t155 124.5t199 89.5t236 35zM930 -290q31 0 52.5 -24t21.5 -70q0 -59 -11.5 -124.5t-53 -155.5t-107.5 -154q-10 -10 -21 1l-8 9q-6 9 1 18q57 57 92 139.5t35 165.5q0 23 -6.5 33.5t-29.5 21.5q-40 20 -40 66
q0 30 22 52t53 22z" />
    <glyph glyph-name="Ncaron" unicode="&#x147;" horiz-adv-x="2482" 
d="M1671 3160q7 7 21 7h43q19 0 6 -13l-427 -471q-6 -6 -21 -6h-31q-15 0 -21 6l-427 471q-13 13 7 13h46q11 0 17 -7l394 -434zM2222 2440q12 0 12 -12v-2456q0 -12 -12 -12h-5q-14 0 -20 9l-1879 2362v-2319q0 -5 -4 -8.5t-9 -3.5h-45q-12 0 -12 12v2456q0 12 12 12h5
q11 0 19 -9l1880 -2362v2319q0 5 4 8.5t9 3.5h45z" />
    <glyph glyph-name="ncaron" unicode="&#x148;" 
d="M970 1856l-427 471q-13 13 7 13h46q11 0 17 -7l394 -434l393 434q7 7 21 7h43q19 0 6 -13l-427 -471q-6 -6 -21 -6h-31q-15 0 -21 6zM1084 1653q156 0 273 -49t189 -140t107.5 -214t35.5 -277v-961q0 -12 -12 -12h-44q-5 0 -8.5 4t-3.5 8v948q0 146 -31 260.5t-96 198.5
t-171 128.5t-249 44.5q-150 0 -291 -60t-242.5 -157.5t-163 -227t-61.5 -263.5v-872q0 -12 -12 -12h-44q-4 0 -8 4t-4 8v1589q0 12 12 12h44q12 0 12 -12v-466q22 63 65 131t113 138t155 124.5t199 89.5t236 35z" />
    <glyph glyph-name="Eng" unicode="&#x14a;" horiz-adv-x="2482" 
d="M2222 2440q12 0 12 -12v-2765q0 -107 -12 -192.5t-41 -159t-75 -122t-116.5 -76t-162.5 -27.5q-5 0 -9 3.5t-4 8.5v34q0 12 12 12q96 1 162.5 35t105 102.5t55.5 161t17 220.5v346l-1848 2322v-2319q0 -5 -4 -8.5t-9 -3.5h-45q-12 0 -12 12v2456q0 12 12 12h5q12 0 17 -6
l1882 -2365v2319q0 5 4 8.5t9 3.5h45z" />
    <glyph glyph-name="eng" unicode="&#x14b;" 
d="M1084 1653q156 0 273 -49t189 -140t107.5 -214t35.5 -277v-1310q0 -107 -12 -192.5t-41 -159t-75 -122t-116.5 -76t-162.5 -27.5q-5 0 -9 3.5t-4 8.5v34q0 12 12 12q96 1 162.5 35t105 102.5t55.5 161t17 220.5v1297q0 146 -31 260.5t-96 198.5t-171 128.5t-249 44.5
q-150 0 -291 -60t-242.5 -157.5t-163 -227t-61.5 -263.5v-872q0 -12 -12 -12h-44q-4 0 -8 4t-4 8v1589q0 12 12 12h44q12 0 12 -12v-466q22 63 65 131t113 138t155 124.5t199 89.5t236 35z" />
    <glyph glyph-name="Omacron" unicode="&#x14c;" horiz-adv-x="2807" 
d="M913 2936q0 4 3.5 8t8.5 4h955q5 0 9 -3.5t4 -8.5v-32q0 -5 -4 -8.5t-9 -3.5h-955q-5 0 -8.5 4t-3.5 8v32zM1403 2462q159 0 310 -39.5t282.5 -113t241 -183.5t188 -245t122 -304.5t43.5 -356.5t-43.5 -356.5t-122 -304.5t-188 -245t-241 -183.5t-282.5 -113t-310 -39.5
q-191 0 -368.5 55.5t-325.5 163t-258.5 256t-172 346t-61.5 421.5t61.5 421.5t172 346t258.5 256t325.5 163t368.5 55.5zM1403 40q150 0 292 38t265 108.5t226.5 175.5t176.5 233.5t114 288.5t41 336t-41 336t-114 288.5t-176.5 233.5t-226.5 175.5t-265 108.5t-292 38
q-180 0 -347 -53.5t-306 -156.5t-242.5 -244.5t-161.5 -328.5t-58 -397t58 -397t161.5 -328.5t242.5 -244.5t306 -156.5t347 -53.5z" />
    <glyph glyph-name="omacron" unicode="&#x14d;" horiz-adv-x="2017" 
d="M518 2109q0 5 4 8.5t8 3.5h955q5 0 9 -3.5t4 -8.5v-32q0 -5 -4 -8.5t-9 -3.5h-955q-4 0 -8 3.5t-4 8.5v32zM1008 1635q131 0 253 -37.5t223 -110t176.5 -172t117.5 -230.5t42 -278q0 -183 -65 -340t-176 -263t-259 -166t-312 -60t-311.5 60t-258.5 166t-176 263t-65 340
q0 147 42 278t117.5 230.5t176.5 172t222.5 110t252.5 37.5zM1008 40q150 0 285.5 55t236.5 153t160.5 243t59.5 316t-59.5 316t-160.5 243t-236.5 153t-285.5 55t-285 -55t-236 -153t-160.5 -243t-59.5 -316t59.5 -316t160.5 -243t236 -153t285 -55z" />
    <glyph glyph-name="Ohungarumlaut" unicode="&#x150;" horiz-adv-x="2807" 
d="M1156 2699q-6 -11 -18 -6l-25 12q-10 7 -6 17l298 654q5 11 16 7l32 -17q13 -5 5 -16zM1628 2696q-10 -8 -18 2l-18 22q-7 10 2 18l550 463q9 8 18 -1l21 -29q9 -9 -2 -17zM1403 2462q159 0 310 -39.5t282.5 -113t241 -183.5t188 -245t122 -304.5t43.5 -356.5
t-43.5 -356.5t-122 -304.5t-188 -245t-241 -183.5t-282.5 -113t-310 -39.5q-191 0 -368.5 55.5t-325.5 163t-258.5 256t-172 346t-61.5 421.5t61.5 421.5t172 346t258.5 256t325.5 163t368.5 55.5zM1403 40q150 0 292 38t265 108.5t226.5 175.5t176.5 233.5t114 288.5
t41 336t-41 336t-114 288.5t-176.5 233.5t-226.5 175.5t-265 108.5t-292 38q-180 0 -347 -53.5t-306 -156.5t-242.5 -244.5t-161.5 -328.5t-58 -397t58 -397t161.5 -328.5t242.5 -244.5t306 -156.5t347 -53.5z" />
    <glyph glyph-name="ohungarumlaut" unicode="&#x151;" horiz-adv-x="2017" 
d="M761 1872q-6 -10 -18 -6l-25 12q-10 7 -6 17l298 654q5 11 16 7l32 -17q13 -5 5 -16zM1233 1869q-10 -8 -18 2l-18 22q-7 10 2 18l550 463q9 8 18 -1l21 -29q9 -9 -2 -17zM1008 1635q131 0 253 -37.5t223 -110t176.5 -172t117.5 -230.5t42 -278q0 -183 -65 -340
t-176 -263t-259 -166t-312 -60t-311.5 60t-258.5 166t-176 263t-65 340q0 147 42 278t117.5 230.5t176.5 172t222.5 110t252.5 37.5zM1008 40q150 0 285.5 55t236.5 153t160.5 243t59.5 316t-59.5 316t-160.5 243t-236.5 153t-285.5 55t-285 -55t-236 -153t-160.5 -243
t-59.5 -316t59.5 -316t160.5 -243t236 -153t285 -55z" />
    <glyph glyph-name="OE" unicode="&#x152;" horiz-adv-x="3801" 
d="M3631 61q12 0 12 -12v-37q0 -12 -12 -12h-2016q-103 -18 -212 -18q-159 0 -310 39.5t-282.5 113t-241 183.5t-188 245t-122 304.5t-43.5 356.5t43.5 356.5t122 304.5t188 245t241 183.5t282.5 113t310 39.5q129 0 254 -26h1934q12 0 12 -12v-37q0 -12 -12 -12h-1733
q203 -82 359.5 -230.5t254.5 -365t112 -473.5h847q12 0 12 -12v-37q0 -12 -12 -12h-845v-25q0 -213 -56 -402.5t-156 -335.5t-236 -254t-300 -171h1793zM288 1224q0 -176 41 -336t114 -288.5t176.5 -233.5t226.5 -175.5t265 -108.5t292 -38t292 38t265 108.5t226.5 175.5
t176.5 233.5t114 288.5t41 336t-41 336t-114 288.5t-176.5 233.5t-226.5 175.5t-265 108.5t-292 38t-292 -38t-265 -108.5t-226.5 -175.5t-176.5 -233.5t-114 -288.5t-41 -336z" />
    <glyph glyph-name="oe" unicode="&#x153;" horiz-adv-x="3461" 
d="M3237 441q11 -5 6 -17q-95 -218 -265.5 -332t-409.5 -114q-276 0 -491 159.5t-288 428.5q-73 -268 -289 -428t-492 -160q-164 0 -311.5 60t-258.5 166t-176 263t-65 340q0 147 42 278t117.5 230.5t176.5 172t222.5 110t252.5 37.5q181 0 340.5 -70.5t275 -204
t164.5 -310.5q70 269 278 427t483 158q320 0 517.5 -209t197.5 -555h-1434q-2 -42 -2 -64q0 -171 59.5 -316t160.5 -243t236 -153t285 -55q219 0 375 103.5t239 308.5q6 11 18 6zM2549 1575q-182 0 -335 -78t-253.5 -226t-125.5 -343h1355q-13 295 -188 471t-453 176z
M1008 40q150 0 285.5 55t236.5 153t160.5 243t59.5 316t-59.5 316t-160.5 243t-236.5 153t-285.5 55t-285 -55t-236 -153t-160.5 -243t-59.5 -316t59.5 -316t160.5 -243t236 -153t285 -55z" />
    <glyph glyph-name="Racute" unicode="&#x154;" horiz-adv-x="2121" 
d="M952 2698l-18 22q-7 10 2 18l550 463q9 8 18 -1l21 -29q9 -9 -2 -17l-553 -458q-10 -8 -18 2zM1920 25q5 -7 1.5 -16t-14.5 -9h-43q-9 0 -18 13l-674 1020q-69 -6 -144 -6h-710v-1015q0 -4 -4 -8t-8 -4h-46q-4 0 -8 4t-4 8v2416q0 4 4 8t8 4h46h722q184 0 334 -37.5
t251.5 -103t170 -156t99.5 -193t31 -217.5q0 -126 -39 -237.5t-117.5 -205t-209 -158.5t-302.5 -90zM1021 1088q175 0 315.5 34.5t233.5 94t155.5 142.5t90 176t27.5 198t-27.5 198t-90 176.5t-155.5 143t-233.5 94t-315.5 34.5h-703v-1291h703z" />
    <glyph glyph-name="racute" unicode="&#x155;" horiz-adv-x="1053" 
d="M1042 2344q9 -9 -2 -17l-553 -458q-10 -8 -18 2l-18 22q-7 10 2 18l550 463q9 8 18 -1zM923 1653q13 0 13 -12v-43q0 -12 -13 -13q-98 -1 -207 -60.5t-197 -152t-145.5 -216.5t-57.5 -244v-900q0 -12 -12 -12h-44q-4 0 -8 4t-4 8v1589q0 12 12 12h44q12 0 12 -12v-483
q26 116 122 240.5t230.5 209.5t254.5 85z" />
    <glyph glyph-name="Rcommaaccent" unicode="&#x156;" horiz-adv-x="2121" 
d="M1920 25q5 -7 1.5 -16t-14.5 -9h-43q-9 0 -18 13l-674 1020q-69 -6 -144 -6h-710v-1015q0 -4 -4 -8t-8 -4h-46q-4 0 -8 4t-4 8v2416q0 4 4 8t8 4h46h722q184 0 334 -37.5t251.5 -103t170 -156t99.5 -193t31 -217.5q0 -126 -39 -237.5t-117.5 -205t-209 -158.5t-302.5 -90
zM1021 1088q175 0 315.5 34.5t233.5 94t155.5 142.5t90 176t27.5 198t-27.5 198t-90 176.5t-155.5 143t-233.5 94t-315.5 34.5h-703v-1291h703zM976 -290q31 0 52.5 -24t21.5 -70q0 -59 -11.5 -124.5t-53 -155.5t-107.5 -154q-10 -10 -21 1l-8 9q-6 9 1 18q57 57 92 139.5
t35 165.5q0 23 -6.5 33.5t-29.5 21.5q-40 20 -40 66q0 30 22 52t53 22z" />
    <glyph glyph-name="rcommaaccent" unicode="&#x157;" horiz-adv-x="1053" 
d="M923 1653q13 0 13 -12v-43q0 -12 -13 -13q-98 -1 -207 -60.5t-197 -152t-145.5 -216.5t-57.5 -244v-900q0 -12 -12 -12h-44q-4 0 -8 4t-4 8v1589q0 12 12 12h44q12 0 12 -12v-483q26 116 122 240.5t230.5 209.5t254.5 85zM243 -283q31 0 52.5 -24t21.5 -70
q0 -59 -11.5 -124.5t-53 -155.5t-107.5 -154q-10 -10 -21 1l-8 9q-6 9 1 18q57 57 92 139.5t35 165.5q0 23 -6.5 33.5t-29.5 21.5q-40 20 -40 66q0 30 22 52t53 22z" />
    <glyph glyph-name="Rcaron" unicode="&#x158;" horiz-adv-x="2121" 
d="M976 2683l-427 471q-13 13 7 13h46q11 0 17 -7l394 -434l393 434q7 7 21 7h43q19 0 6 -13l-427 -471q-6 -6 -21 -6h-31q-15 0 -21 6zM1920 25q5 -7 1.5 -16t-14.5 -9h-43q-9 0 -18 13l-674 1020q-69 -6 -144 -6h-710v-1015q0 -4 -4 -8t-8 -4h-46q-4 0 -8 4t-4 8v2416
q0 4 4 8t8 4h46h722q184 0 334 -37.5t251.5 -103t170 -156t99.5 -193t31 -217.5q0 -126 -39 -237.5t-117.5 -205t-209 -158.5t-302.5 -90zM1021 1088q175 0 315.5 34.5t233.5 94t155.5 142.5t90 176t27.5 198t-27.5 198t-90 176.5t-155.5 143t-233.5 94t-315.5 34.5h-703
v-1291h703z" />
    <glyph glyph-name="rcaron" unicode="&#x159;" horiz-adv-x="1053" 
d="M987 2340q19 0 6 -13l-427 -471q-6 -6 -21 -6h-31q-15 0 -21 6l-427 471q-13 13 7 13h46q11 0 17 -7l394 -434l393 434q7 7 21 7h43zM923 1653q13 0 13 -12v-43q0 -12 -13 -13q-98 -1 -207 -60.5t-197 -152t-145.5 -216.5t-57.5 -244v-900q0 -12 -12 -12h-44q-4 0 -8 4
t-4 8v1589q0 12 12 12h44q12 0 12 -12v-483q26 116 122 240.5t230.5 209.5t254.5 85z" />
    <glyph glyph-name="Sacute" unicode="&#x15a;" horiz-adv-x="2159" 
d="M1053 2696q-10 -8 -18 2l-18 22q-7 10 2 18l550 463q9 8 18 -1l21 -29q9 -9 -2 -17zM354 1840q0 -114 45 -202.5t108 -142.5t176 -99.5t201 -69t230 -55.5q117 -26 177 -41t163.5 -47.5t159.5 -62t129 -80t109.5 -108t63.5 -139.5t27 -180q0 -135 -48 -244t-128.5 -181
t-192 -120t-233.5 -69t-257 -21q-252 0 -457.5 72t-396.5 204q-19 11 -11 25l15 28q9 13 24 3q80 -51 127 -79t134 -70t162 -64.5t181 -39.5t221 -17q126 0 238 18t214 60.5t175.5 106.5t117 161t43.5 219q0 90 -25 164.5t-60 127.5t-103.5 99.5t-122.5 74.5t-151.5 58
t-157 45t-170.5 40q-114 26 -172 40.5t-158 45t-153.5 58.5t-123 75.5t-104.5 101.5t-60.5 130t-25.5 167q0 288 215.5 459t603.5 171q126 0 240.5 -18t209.5 -52.5t165.5 -68.5t146.5 -81q13 -9 6 -23l-16 -30q-8 -15 -23 -3q-152 97 -324.5 156t-394.5 59
q-366 0 -562.5 -152t-196.5 -409z" />
    <glyph glyph-name="sacute" unicode="&#x15b;" horiz-adv-x="1586" 
d="M739 1869q-10 -8 -18 2l-18 22q-7 10 2 18l550 463q9 8 18 -1l21 -29q9 -9 -2 -17zM314 1221q0 -82 37 -143t99 -98t142.5 -64t170 -47.5t178.5 -42.5t169.5 -55t142.5 -78t99 -119t37 -172q0 -96 -36 -171.5t-93 -122t-135.5 -77t-156.5 -42t-163 -11.5q-316 0 -601 182
q-11 6 -6 17l16 31q7 13 19 5q142 -88 279 -131.5t292 -43.5q59 0 114.5 6t116 20.5t109.5 41.5t89.5 65t63 96t22.5 129q0 189 -173 286q-96 55 -312 107q-214 52 -280 74q-201 68 -268 186q-40 71 -40 166q0 194 152.5 307t399.5 113q151 0 282 -45t265 -133q12 -7 6 -19
l-14 -29q-6 -12 -17 -6q-136 89 -260 130.5t-262 41.5q-219 0 -351.5 -95t-132.5 -259z" />
    <glyph glyph-name="Scedilla" unicode="&#x15e;" horiz-adv-x="2159" 
d="M1084 -22h-8l-94 -262q87 29 171.5 24.5t150.5 -32t107 -89.5t41 -148q0 -124 -86 -201t-221 -77q-169 0 -322 84q-11 7 -6 18l10 20q5 10 18 6q78 -38 145 -58t154 -20q113 0 180.5 62.5t67.5 164.5q0 151 -133.5 203.5t-334.5 -14.5q-11 -3 -13.5 1t1.5 15l109 304
q-230 9 -421.5 80t-369.5 195q-19 11 -11 25l15 28q9 13 24 3q80 -51 127 -79t134 -70t162 -64.5t181 -39.5t221 -17q126 0 238 18t214 60.5t175.5 106.5t117 161t43.5 219q0 90 -25 164.5t-60 127.5t-103.5 99.5t-122.5 74.5t-151.5 58t-157 45t-170.5 40
q-114 26 -172 40.5t-158 45t-153.5 58.5t-123 75.5t-104.5 101.5t-60.5 130t-25.5 167q0 288 215.5 459t603.5 171q126 0 240.5 -18t209.5 -52.5t165.5 -68.5t146.5 -81q13 -9 6 -23l-16 -30q-8 -15 -23 -3q-152 97 -324.5 156t-394.5 59q-366 0 -562.5 -152t-196.5 -409
q0 -114 45 -202.5t108 -142.5t176 -99.5t201 -69t230 -55.5q117 -26 177 -41t163.5 -47.5t159.5 -62t129 -80t109.5 -108t63.5 -139.5t27 -180q0 -135 -48 -244t-128.5 -181t-192 -120t-233.5 -69t-257 -21z" />
    <glyph glyph-name="scedilla" unicode="&#x15f;" horiz-adv-x="1586" 
d="M805 -22h-3l-94 -262q87 29 171.5 24.5t150.5 -32t107 -89.5t41 -148q0 -124 -86 -201t-221 -77q-169 0 -322 84q-11 7 -6 18l10 20q5 10 18 6q78 -38 145 -58t154 -20q113 0 180.5 62.5t67.5 164.5q0 151 -133.5 203.5t-334.5 -14.5q-11 -3 -13.5 1t1.5 15l109 304
q-283 15 -543 181q-11 6 -6 17l16 31q7 13 19 5q142 -88 279 -131.5t292 -43.5q59 0 114.5 6t116 20.5t109.5 41.5t89.5 65t63 96t22.5 129q0 189 -173 286q-96 55 -312 107q-214 52 -280 74q-201 68 -268 186q-40 71 -40 166q0 194 152.5 307t399.5 113q151 0 282 -45
t265 -133q12 -7 6 -19l-14 -29q-6 -12 -17 -6q-136 89 -260 130.5t-262 41.5q-219 0 -351.5 -95t-132.5 -259q0 -82 37 -143t99 -98t142.5 -64t170 -47.5t178.5 -42.5t169.5 -55t142.5 -78t99 -119t37 -172q0 -96 -36 -171.5t-93 -122t-135.5 -77t-156.5 -42t-163 -11.5z
" />
    <glyph glyph-name="Scaron" unicode="&#x160;" horiz-adv-x="2159" 
d="M1489 3160q7 7 21 7h43q19 0 6 -13l-427 -471q-6 -6 -21 -6h-31q-15 0 -21 6l-427 471q-13 13 7 13h46q11 0 17 -7l394 -434zM354 1840q0 -114 45 -202.5t108 -142.5t176 -99.5t201 -69t230 -55.5q117 -26 177 -41t163.5 -47.5t159.5 -62t129 -80t109.5 -108t63.5 -139.5
t27 -180q0 -135 -48 -244t-128.5 -181t-192 -120t-233.5 -69t-257 -21q-252 0 -457.5 72t-396.5 204q-19 11 -11 25l15 28q9 13 24 3q80 -51 127 -79t134 -70t162 -64.5t181 -39.5t221 -17q126 0 238 18t214 60.5t175.5 106.5t117 161t43.5 219q0 90 -25 164.5t-60 127.5
t-103.5 99.5t-122.5 74.5t-151.5 58t-157 45t-170.5 40q-114 26 -172 40.5t-158 45t-153.5 58.5t-123 75.5t-104.5 101.5t-60.5 130t-25.5 167q0 288 215.5 459t603.5 171q126 0 240.5 -18t209.5 -52.5t165.5 -68.5t146.5 -81q13 -9 6 -23l-16 -30q-8 -15 -23 -3
q-152 97 -324.5 156t-394.5 59q-366 0 -562.5 -152t-196.5 -409z" />
    <glyph glyph-name="scaron" unicode="&#x161;" horiz-adv-x="1586" 
d="M1175 2333q7 7 21 7h43q19 0 6 -13l-427 -471q-6 -6 -21 -6h-31q-15 0 -21 6l-427 471q-13 13 7 13h46q11 0 17 -7l394 -434zM314 1221q0 -82 37 -143t99 -98t142.5 -64t170 -47.5t178.5 -42.5t169.5 -55t142.5 -78t99 -119t37 -172q0 -96 -36 -171.5t-93 -122
t-135.5 -77t-156.5 -42t-163 -11.5q-316 0 -601 182q-11 6 -6 17l16 31q7 13 19 5q142 -88 279 -131.5t292 -43.5q59 0 114.5 6t116 20.5t109.5 41.5t89.5 65t63 96t22.5 129q0 189 -173 286q-96 55 -312 107q-214 52 -280 74q-201 68 -268 186q-40 71 -40 166
q0 194 152.5 307t399.5 113q151 0 282 -45t265 -133q12 -7 6 -19l-14 -29q-6 -12 -17 -6q-136 89 -260 130.5t-262 41.5q-219 0 -351.5 -95t-132.5 -259z" />
    <glyph glyph-name="uni0162" unicode="&#x162;" horiz-adv-x="2352" 
d="M2152 2440q4 0 8 -4t4 -8v-37q0 -5 -4 -8.5t-8 -3.5h-941v-2367q0 -10 -11 -12l-101 -284q87 29 171.5 24.5t150.5 -32t107 -89.5t41 -148q0 -124 -86 -201t-221 -77q-169 0 -322 84q-11 7 -6 18l10 20q5 10 18 6q78 -38 145 -58t154 -20q113 0 180.5 62.5t67.5 164.5
q0 151 -133.5 203.5t-334.5 -14.5q-11 -3 -13.5 1t1.5 15l117 327q-5 5 -5 10v2367h-941q-12 0 -12 12v37q0 12 12 12h999h953z" />
    <glyph glyph-name="uni0163" unicode="&#x163;" horiz-adv-x="1445" 
d="M1285 154q7 -13 -7 -25q-180 -150 -389 -151l-94 -262q87 29 171.5 24.5t150.5 -32t107 -89.5t41 -148q0 -124 -86 -201t-221 -77q-169 0 -322 84q-11 7 -6 18l10 20q5 10 18 6q78 -38 145 -58t154 -20q113 0 180.5 62.5t67.5 164.5q0 151 -133.5 203.5t-334.5 -14.5
q-11 -3 -13.5 1t1.5 15l109 305q-88 8 -155 43.5t-108.5 87t-67.5 122.5t-36 142.5t-10 154.5v1022h-345q-4 0 -8 4t-4 8v37q0 12 12 12h345v414q0 11 12 15l43 12q13 4 13 -9v-432h732q12 0 12 -12v-37q0 -12 -12 -12h-732v-1019q0 -77 9.5 -144t35.5 -133t66 -112.5
t105 -75t150 -28.5q97 0 190.5 36t166.5 105q14 10 22 -2z" />
    <glyph glyph-name="Tcaron" unicode="&#x164;" horiz-adv-x="2352" 
d="M1136 2683l-427 471q-13 13 7 13h46q11 0 17 -7l394 -434l393 434q7 7 21 7h43q19 0 6 -13l-427 -471q-6 -6 -21 -6h-31q-15 0 -21 6zM2152 2440q4 0 8 -4t4 -8v-37q0 -5 -4 -8.5t-8 -3.5h-941v-2367q0 -4 -3.5 -8t-8.5 -4h-46q-5 0 -8.5 4t-3.5 8v2367h-941
q-12 0 -12 12v37q0 12 12 12h999h953z" />
    <glyph glyph-name="tcaron" unicode="&#x165;" horiz-adv-x="1531" 
d="M1402 2584q31 0 52.5 -24t21.5 -70q0 -59 -11.5 -124.5t-53 -155.5t-107.5 -154q-10 -10 -21 1l-8 9q-6 9 1 18q57 57 92 139.5t35 165.5q0 23 -6.5 33.5t-29.5 21.5q-40 20 -40 66q0 30 22 52t53 22zM1270 179l15 -25q7 -13 -7 -25q-182 -151 -392 -151q-100 0 -177 32
t-124 83.5t-76.5 125t-40.5 148.5t-11 163v1022h-345q-4 0 -8 4t-4 8v37q0 12 12 12h345v414q0 11 12 15l43 12q13 4 13 -9v-432h732q12 0 12 -12v-37q0 -12 -12 -12h-732v-1019q0 -77 9.5 -144t35.5 -133t66 -112.5t105 -75t150 -28.5q97 0 190.5 36t166.5 105q14 10 22 -2
z" />
    <glyph glyph-name="Tbar" unicode="&#x166;" horiz-adv-x="2252" 
d="M2152 2440q4 0 8 -4t4 -8v-37q0 -5 -4 -8.5t-8 -3.5h-941v-819h439q12 0 12 -13v-33q0 -12 -12 -12h-439v-1490q0 -4 -3.5 -8t-8.5 -4h-46q-5 0 -8.5 4t-3.5 8v1490h-539q-12 0 -12 12v33q0 13 12 13h539v819h-941q-12 0 -12 12v37q0 12 12 12h999h953z" />
    <glyph glyph-name="tbar" unicode="&#x167;" horiz-adv-x="1445" 
d="M1285 154q7 -13 -7 -25q-182 -151 -392 -151q-100 0 -177 32t-124 83.5t-76.5 125t-40.5 148.5t-11 163v505h-341q-12 0 -12 13v26q0 13 12 13h341v465h-345q-4 0 -8 4t-4 8v37q0 12 12 12h345v414q0 11 12 15l43 12q13 4 13 -9v-432h732q12 0 12 -12v-37q0 -12 -12 -12
h-732v-465h479q12 0 12 -13v-26q0 -13 -12 -13h-479v-502q0 -77 9.5 -144t35.5 -133t66 -112.5t105 -75t150 -28.5q97 0 190.5 36t166.5 105q14 10 22 -2z" />
    <glyph glyph-name="Umacron" unicode="&#x16a;" horiz-adv-x="2402" 
d="M723 2892q-5 0 -8.5 4t-3.5 8v32q0 4 3.5 8t8.5 4h955q5 0 9 -3.5t4 -8.5v-32q0 -5 -4 -8.5t-9 -3.5h-955zM2142 2440q4 0 8 -4t4 -8v-1425q0 -498 -250 -770.5t-703 -272.5t-703 272.5t-250 770.5v1425q0 12 12 12h45q5 0 9 -4t4 -8v-1418q0 -474 228 -731.5t655 -257.5
t655 257.5t228 731.5v1418q0 5 4 8.5t9 3.5h45z" />
    <glyph glyph-name="umacron" unicode="&#x16b;" 
d="M492 2065q-4 0 -8 3.5t-4 8.5v32q0 5 4 8.5t8 3.5h955q5 0 9 -3.5t4 -8.5v-32q0 -5 -4 -8.5t-9 -3.5h-955zM1677 1613q12 0 12 -12v-1589q0 -12 -12 -12h-44q-5 0 -8.5 4t-3.5 8v466q-22 -63 -65 -131t-113 -138t-155 -124.5t-199 -89.5t-236 -35q-156 0 -273 49
t-189 140t-107.5 214t-35.5 277v961q0 12 12 12h44q4 0 8 -3.5t4 -8.5v-948q0 -146 31 -260.5t96 -198.5t171 -128.5t249 -44.5q150 0 291 60t242.5 157.5t163 227t61.5 263.5v872q0 12 12 12h44z" />
    <glyph glyph-name="Uring" unicode="&#x16e;" horiz-adv-x="2402" 
d="M1201 2617q-152 0 -260 106.5t-108 258.5t108.5 260t259.5 108q152 0 260.5 -108t108.5 -260t-108 -258.5t-261 -106.5zM1201 3306q-135 0 -227.5 -94t-92.5 -230q0 -134 92.5 -227.5t227.5 -93.5q136 0 228.5 93.5t92.5 227.5q0 136 -92.5 230t-228.5 94zM2142 2440
q4 0 8 -4t4 -8v-1425q0 -498 -250 -770.5t-703 -272.5t-703 272.5t-250 770.5v1425q0 12 12 12h45q5 0 9 -4t4 -8v-1418q0 -474 228 -731.5t655 -257.5t655 257.5t228 731.5v1418q0 5 4 8.5t9 3.5h45z" />
    <glyph glyph-name="uring" unicode="&#x16f;" 
d="M970 1790q-152 0 -260 106.5t-108 258.5q0 151 108 259.5t260 108.5t260.5 -108t108.5 -260t-108 -258.5t-261 -106.5zM970 2479q-135 0 -227.5 -94t-92.5 -230q0 -134 92.5 -227.5t227.5 -93.5q136 0 228.5 93.5t92.5 227.5q0 136 -92.5 230t-228.5 94zM1677 1613
q12 0 12 -12v-1589q0 -12 -12 -12h-44q-5 0 -8.5 4t-3.5 8v466q-22 -63 -65 -131t-113 -138t-155 -124.5t-199 -89.5t-236 -35q-156 0 -273 49t-189 140t-107.5 214t-35.5 277v961q0 12 12 12h44q4 0 8 -3.5t4 -8.5v-948q0 -146 31 -260.5t96 -198.5t171 -128.5t249 -44.5
q150 0 291 60t242.5 157.5t163 227t61.5 263.5v872q0 12 12 12h44z" />
    <glyph glyph-name="Uhungarumlaut" unicode="&#x170;" horiz-adv-x="2402" 
d="M911 2705q-10 7 -6 17l298 654q5 11 16 7l32 -17q13 -5 5 -16l-302 -651q-6 -11 -18 -6zM1408 2698l-18 22q-7 10 2 18l550 463q9 8 18 -1l21 -29q9 -9 -2 -17l-553 -458q-10 -8 -18 2zM2142 2440q4 0 8 -4t4 -8v-1425q0 -498 -250 -770.5t-703 -272.5t-703 272.5
t-250 770.5v1425q0 12 12 12h45q5 0 9 -4t4 -8v-1418q0 -474 228 -731.5t655 -257.5t655 257.5t228 731.5v1418q0 5 4 8.5t9 3.5h45z" />
    <glyph glyph-name="uhungarumlaut" unicode="&#x171;" 
d="M680 1878q-10 7 -6 17l298 654q5 11 16 7l32 -17q13 -5 5 -16l-302 -651q-6 -10 -18 -6zM1750 2344q9 -9 -2 -17l-553 -458q-10 -8 -18 2l-18 22q-7 10 2 18l550 463q9 8 18 -1zM1677 1613q12 0 12 -12v-1589q0 -12 -12 -12h-44q-5 0 -8.5 4t-3.5 8v466q-22 -63 -65 -131
t-113 -138t-155 -124.5t-199 -89.5t-236 -35q-156 0 -273 49t-189 140t-107.5 214t-35.5 277v961q0 12 12 12h44q4 0 8 -3.5t4 -8.5v-948q0 -146 31 -260.5t96 -198.5t171 -128.5t249 -44.5q150 0 291 60t242.5 157.5t163 227t61.5 263.5v872q0 12 12 12h44z" />
    <glyph glyph-name="Uogonek" unicode="&#x172;" horiz-adv-x="2402" 
d="M2142 2440q4 0 8 -4t4 -8v-1425q0 -420 -180 -682t-513 -334q-173 -104 -264.5 -228.5t-91.5 -257.5q0 -119 62 -188t174 -69q118 0 209 45q8 4 14.5 2t6.5 -10v-21q0 -12 -15 -20q-99 -47 -222 -47q-133 0 -210 83t-77 218q0 124 80 252t223 222q-77 -8 -149 -8
q-453 0 -703 272.5t-250 770.5v1425q0 12 12 12h45q5 0 9 -4t4 -8v-1418q0 -474 228 -731.5t655 -257.5t655 257.5t228 731.5v1418q0 5 4 8.5t9 3.5h45z" />
    <glyph glyph-name="uogonek" unicode="&#x173;" 
d="M1738 -711q8 4 14.5 2t6.5 -10v-21q0 -12 -15 -20q-99 -47 -222 -47q-133 0 -210 83t-77 218q0 142 103 286t283 236v462q-22 -63 -65 -131t-113 -138t-155 -124.5t-199 -89.5t-236 -35q-156 0 -273 49t-189 140t-107.5 214t-35.5 277v961q0 12 12 12h44q4 0 8 -3.5
t4 -8.5v-948q0 -146 31 -260.5t96 -198.5t171 -128.5t249 -44.5q150 0 291 60t242.5 157.5t163 227t61.5 263.5v872q0 12 12 12h44q12 0 12 -12v-1589q0 -12 -12 -12h-5q-184 -106 -281.5 -233.5t-97.5 -265.5q0 -119 62 -188t174 -69q118 0 209 45z" />
    <glyph glyph-name="Wcircumflex" unicode="&#x174;" horiz-adv-x="3207" 
d="M1145 2680q-20 0 -7 13l427 471q6 6 21 6h31q15 0 21 -6l427 -471q13 -13 -6 -13h-43q-14 0 -21 7l-393 434l-394 -434q-6 -7 -17 -7h-46zM3098 2440q16 0 12 -13l-760 -2456q-4 -11 -16 -11h-21q-12 0 -15 11l-705 2213l-701 -2213q-4 -11 -16 -11h-21q-12 0 -15 11
l-764 2455q-5 14 12 14h45q13 0 16 -11l719 -2349l699 2226q5 11 16 11h20q11 0 16 -11l704 -2226l714 2350q4 10 16 10h45z" />
    <glyph glyph-name="wcircumflex" unicode="&#x175;" horiz-adv-x="2606" 
d="M843 1853q-20 0 -7 13l427 471q6 6 21 6h31q15 0 21 -6l427 -471q13 -13 -6 -13h-43q-14 0 -21 7l-393 434l-394 -434q-6 -7 -17 -7h-46zM2537 1613q19 0 9 -23l-598 -1621q-4 -9 -14 -9h-10q-9 0 -14 9l-607 1331l-608 -1331q-4 -9 -13 -9h-10q-10 0 -14 9l-598 1621
q-10 23 9 23h42q11 0 19 -14l552 -1522l598 1315q7 17 18 17h10q11 0 18 -17l598 -1315l553 1522q6 14 19 14h41z" />
    <glyph glyph-name="Ycircumflex" unicode="&#x176;" horiz-adv-x="2240" 
d="M660 2680q-20 0 -7 13l427 471q6 6 21 6h31q15 0 21 -6l427 -471q13 -13 -6 -13h-43q-14 0 -21 7l-393 434l-394 -434q-6 -7 -17 -7h-46zM2131 2440q20 0 12 -13l-989 -1537v-878q0 -4 -4 -8t-8 -4h-45q-5 0 -9 3.5t-4 8.5v877l-1006 1538q-8 13 11 13h50q10 0 17 -11
l964 -1475l947 1475q7 11 18 11h46z" />
    <glyph glyph-name="ycircumflex" unicode="&#x177;" horiz-adv-x="1606" 
d="M343 1853q-20 0 -7 13l427 471q6 6 21 6h31q15 0 21 -6l427 -471q13 -13 -6 -13h-43q-14 0 -21 7l-393 434l-394 -434q-6 -7 -17 -7h-46zM1537 1613q9 0 11.5 -7t-2.5 -16l-701 -1601q-84 -201 -150 -340t-139.5 -259t-144 -190t-152.5 -108.5t-175 -38.5q-13 0 -13 13
v34q0 12 12 12q97 1 181.5 51.5t169 163.5t166.5 273.5t183 402.5l-723 1587q-5 9 -2.5 16t11.5 7h43q12 0 18 -13l685 -1523l663 1523q7 13 19 13h40z" />
    <glyph glyph-name="Ydieresis" unicode="&#x178;" horiz-adv-x="2240" 
d="M795 2853q-30 0 -52.5 22.5t-22.5 52.5t22.5 52t52.5 22q31 0 52.5 -21.5t21.5 -52.5q0 -30 -22 -52.5t-52 -22.5zM1445 2853q-30 0 -52.5 22.5t-22.5 52.5t22.5 52t52.5 22q31 0 52.5 -21.5t21.5 -52.5q0 -30 -22 -52.5t-52 -22.5zM2131 2440q20 0 12 -13l-989 -1537
v-878q0 -4 -4 -8t-8 -4h-45q-5 0 -9 3.5t-4 8.5v877l-1006 1538q-8 13 11 13h50q10 0 17 -11l964 -1475l947 1475q7 11 18 11h46z" />
    <glyph glyph-name="Zacute" unicode="&#x179;" horiz-adv-x="2261" 
d="M1090 2696q-10 -8 -18 2l-18 22q-7 10 2 18l550 463q9 8 18 -1l21 -29q9 -9 -2 -17zM170 0q-12 0 -12 12v20q0 12 5 17l1779 2330h-1709q-5 0 -8.5 3.5t-3.5 8.5v37q0 4 3.5 8t8.5 4h1796q5 0 8.5 -4t3.5 -8v-20q0 -11 -6 -17l-1778 -2330h1795q4 0 8 -3.5t4 -8.5v-37
q0 -4 -4 -8t-8 -4h-1882z" />
    <glyph glyph-name="zacute" unicode="&#x17a;" horiz-adv-x="1788" 
d="M843 1869q-10 -8 -18 2l-18 22q-7 10 2 18l550 463q9 8 18 -1l21 -29q9 -9 -2 -17zM170 0q-12 0 -12 12v11q0 12 5 17l1270 1512h-1200q-5 0 -8.5 4t-3.5 8v37q0 5 3.5 8.5t8.5 3.5h1296q12 0 12 -11v-12q0 -10 -6 -17l-1270 -1512h1284q5 0 8.5 -3.5t3.5 -8.5v-37
q0 -4 -3.5 -8t-8.5 -4h-1379z" />
    <glyph glyph-name="Zdotaccent" unicode="&#x17b;" horiz-adv-x="2261" 
d="M1136 2853q-30 0 -52.5 22.5t-22.5 52.5q0 31 22.5 53t52.5 22q31 0 53 -22t22 -53q0 -30 -22 -52.5t-53 -22.5zM170 0q-12 0 -12 12v20q0 12 5 17l1779 2330h-1709q-5 0 -8.5 3.5t-3.5 8.5v37q0 4 3.5 8t8.5 4h1796q5 0 8.5 -4t3.5 -8v-20q0 -11 -6 -17l-1778 -2330
h1795q4 0 8 -3.5t4 -8.5v-37q0 -4 -4 -8t-8 -4h-1882z" />
    <glyph glyph-name="zdotaccent" unicode="&#x17c;" horiz-adv-x="1788" 
d="M889 2026q-30 0 -52.5 22.5t-22.5 52.5q0 31 22.5 53t52.5 22q31 0 53 -22t22 -53q0 -30 -22 -52.5t-53 -22.5zM170 0q-12 0 -12 12v11q0 12 5 17l1270 1512h-1200q-5 0 -8.5 4t-3.5 8v37q0 5 3.5 8.5t8.5 3.5h1296q12 0 12 -11v-12q0 -10 -6 -17l-1270 -1512h1284
q5 0 8.5 -3.5t3.5 -8.5v-37q0 -4 -3.5 -8t-8.5 -4h-1379z" />
    <glyph glyph-name="Zcaron" unicode="&#x17d;" horiz-adv-x="2261" 
d="M1526 3160q7 7 21 7h43q19 0 6 -13l-427 -471q-6 -6 -21 -6h-31q-15 0 -21 6l-427 471q-13 13 7 13h46q11 0 17 -7l394 -434zM170 0q-12 0 -12 12v20q0 12 5 17l1779 2330h-1709q-5 0 -8.5 3.5t-3.5 8.5v37q0 4 3.5 8t8.5 4h1796q5 0 8.5 -4t3.5 -8v-20q0 -11 -6 -17
l-1778 -2330h1795q4 0 8 -3.5t4 -8.5v-37q0 -4 -4 -8t-8 -4h-1882z" />
    <glyph glyph-name="zcaron" unicode="&#x17e;" horiz-adv-x="1788" 
d="M1279 2333q7 7 21 7h43q19 0 6 -13l-427 -471q-6 -6 -21 -6h-31q-15 0 -21 6l-427 471q-13 13 7 13h46q11 0 17 -7l394 -434zM170 0q-12 0 -12 12v11q0 12 5 17l1270 1512h-1200q-5 0 -8.5 4t-3.5 8v37q0 5 3.5 8.5t8.5 3.5h1296q12 0 12 -11v-12q0 -10 -6 -17
l-1270 -1512h1284q5 0 8.5 -3.5t3.5 -8.5v-37q0 -4 -3.5 -8t-8.5 -4h-1379z" />
    <glyph glyph-name="Scommaaccent" unicode="&#x218;" horiz-adv-x="2159" 
d="M354 1840q0 -114 45 -202.5t108 -142.5t176 -99.5t201 -69t230 -55.5q117 -26 177 -41t163.5 -47.5t159.5 -62t129 -80t109.5 -108t63.5 -139.5t27 -180q0 -135 -48 -244t-128.5 -181t-192 -120t-233.5 -69t-257 -21q-252 0 -457.5 72t-396.5 204q-19 11 -11 25l15 28
q9 13 24 3q80 -51 127 -79t134 -70t162 -64.5t181 -39.5t221 -17q126 0 238 18t214 60.5t175.5 106.5t117 161t43.5 219q0 90 -25 164.5t-60 127.5t-103.5 99.5t-122.5 74.5t-151.5 58t-157 45t-170.5 40q-114 26 -172 40.5t-158 45t-153.5 58.5t-123 75.5t-104.5 101.5
t-60.5 130t-25.5 167q0 288 215.5 459t603.5 171q126 0 240.5 -18t209.5 -52.5t165.5 -68.5t146.5 -81q13 -9 6 -23l-16 -30q-8 -15 -23 -3q-152 97 -324.5 156t-394.5 59q-366 0 -562.5 -152t-196.5 -409zM1019 -290q31 0 52.5 -24t21.5 -70q0 -59 -11.5 -124.5t-53 -155.5
t-107.5 -154q-10 -10 -21 1l-8 9q-6 9 1 18q57 57 92 139.5t35 165.5q0 23 -6.5 33.5t-29.5 21.5q-40 20 -40 66q0 30 22 52t53 22z" />
    <glyph glyph-name="scommaaccent" unicode="&#x219;" horiz-adv-x="1586" 
d="M314 1221q0 -82 37 -143t99 -98t142.5 -64t170 -47.5t178.5 -42.5t169.5 -55t142.5 -78t99 -119t37 -172q0 -96 -36 -171.5t-93 -122t-135.5 -77t-156.5 -42t-163 -11.5q-316 0 -601 182q-11 6 -6 17l16 31q7 13 19 5q142 -88 279 -131.5t292 -43.5q59 0 114.5 6
t116 20.5t109.5 41.5t89.5 65t63 96t22.5 129q0 189 -173 286q-96 55 -312 107q-214 52 -280 74q-201 68 -268 186q-40 71 -40 166q0 194 152.5 307t399.5 113q151 0 282 -45t265 -133q12 -7 6 -19l-14 -29q-6 -12 -17 -6q-136 89 -260 130.5t-262 41.5q-219 0 -351.5 -95
t-132.5 -259zM745 -290q31 0 52.5 -24t21.5 -70q0 -59 -11.5 -124.5t-53 -155.5t-107.5 -154q-10 -10 -21 1l-8 9q-6 9 1 18q57 57 92 139.5t35 165.5q0 23 -6.5 33.5t-29.5 21.5q-40 20 -40 66q0 30 22 52t53 22z" />
    <glyph glyph-name="uni021A" unicode="&#x21a;" horiz-adv-x="2352" 
d="M2152 2440q4 0 8 -4t4 -8v-37q0 -5 -4 -8.5t-8 -3.5h-941v-2367q0 -4 -3.5 -8t-8.5 -4h-46q-5 0 -8.5 4t-3.5 8v2367h-941q-12 0 -12 12v37q0 12 12 12h999h953zM1136 -290q31 0 52.5 -24t21.5 -70q0 -59 -11.5 -124.5t-53 -155.5t-107.5 -154q-10 -10 -21 1l-8 9
q-6 9 1 18q57 57 92 139.5t35 165.5q0 23 -6.5 33.5t-29.5 21.5q-40 20 -40 66q0 30 22 52t53 22z" />
    <glyph glyph-name="uni021B" unicode="&#x21b;" horiz-adv-x="1445" 
d="M1285 154q7 -13 -7 -25q-182 -151 -392 -151q-100 0 -177 32t-124 83.5t-76.5 125t-40.5 148.5t-11 163v1022h-345q-4 0 -8 4t-4 8v37q0 12 12 12h345v414q0 11 12 15l43 12q13 4 13 -9v-432h732q12 0 12 -12v-37q0 -12 -12 -12h-732v-1019q0 -77 9.5 -144t35.5 -133
t66 -112.5t105 -75t150 -28.5q97 0 190.5 36t166.5 105q14 10 22 -2zM832 -290q31 0 52.5 -24t21.5 -70q0 -59 -11.5 -124.5t-53 -155.5t-107.5 -154q-10 -10 -21 1l-8 9q-6 9 1 18q57 57 92 139.5t35 165.5q0 23 -6.5 33.5t-29.5 21.5q-40 20 -40 66q0 30 22 52t53 22z" />
    <glyph glyph-name="circumflex" unicode="&#x2c6;" horiz-adv-x="937" 
d="M862 1860l-393 434l-394 -434q-6 -7 -17 -7h-46q-20 0 -7 13l427 471q6 6 21 6h31q15 0 21 -6l427 -471q13 -13 -6 -13h-43q-14 0 -21 7z" />
    <glyph glyph-name="caron" unicode="&#x2c7;" horiz-adv-x="937" 
d="M862 2333q7 7 21 7h43q19 0 6 -13l-427 -471q-6 -6 -21 -6h-31q-15 0 -21 6l-427 471q-13 13 7 13h46q11 0 17 -7l394 -434z" />
    <glyph glyph-name="breve" unicode="&#x2d8;" horiz-adv-x="2400" 
d="M974 2270q12 0 12 -13q0 -124 -66.5 -219t-168.5 -141.5t-221 -46.5t-221 46.5t-168.5 141.5t-66.5 219q0 13 12 13h32q13 0 13 -11q1 -110 60.5 -192t148.5 -121.5t190 -39.5t190 39.5t148.5 121.5t60.5 192q0 11 13 11h32z" />
    <glyph glyph-name="dotaccent" unicode="&#x2d9;" horiz-adv-x="627" 
d="M313 2026q-30 0 -52.5 22.5t-22.5 52.5q0 31 22.5 53t52.5 22q31 0 53 -22t22 -53q0 -30 -22 -52.5t-53 -22.5z" />
    <glyph glyph-name="ring" unicode="&#x2da;" horiz-adv-x="807" 
d="M403 1790q-152 0 -260 106.5t-108 258.5q0 151 108.5 259.5t259.5 108.5q152 0 260.5 -108t108.5 -260t-108 -258.5t-261 -106.5zM403 1834q136 0 228.5 93.5t92.5 227.5q0 136 -92.5 230t-228.5 94q-135 0 -227.5 -94t-92.5 -230q0 -134 92.5 -227.5t227.5 -93.5z" />
    <glyph glyph-name="ogonek" unicode="&#x2db;" horiz-adv-x="706" 
d="M326 -807q-133 0 -210 83t-77 218q0 144 105.5 289.5t289.5 237.5l42 -21q-184 -106 -281.5 -233.5t-97.5 -265.5q0 -119 62 -188t174 -69q118 0 209 45q8 4 14.5 2t6.5 -10v-21q0 -12 -15 -20q-99 -47 -222 -47z" />
    <glyph glyph-name="tilde" unicode="&#x2dc;" horiz-adv-x="1139" 
d="M1041 2278q12 0 12 -20q-2 -176 -80 -263.5t-201 -87.5q-49 0 -92 17.5t-74 45t-59 61.5t-55.5 67.5t-55.5 61t-65.5 45t-80.5 17.5q-109 0 -170.5 -76.5t-62.5 -226.5q0 -12 -13 -12h-23q-5 0 -8.5 4t-3.5 9q1 181 78 269.5t203 88.5q49 0 92 -17.5t74 -45t59 -61
t55.5 -67.5t55.5 -61.5t65.5 -45t80.5 -17.5q109 0 170.5 76t62.5 226q0 13 13 13h23z" />
    <glyph glyph-name="hungarumlaut" unicode="&#x2dd;" horiz-adv-x="1290" 
d="M207 1872q-6 -10 -18 -6l-25 12q-10 7 -6 17l298 654q5 11 16 7l32 -17q13 -5 5 -16zM679 1869q-10 -8 -18 2l-18 22q-7 10 2 18l550 463q9 8 18 -1l21 -29q9 -9 -2 -17z" />
    <glyph glyph-name="uni0326" unicode="&#x326;" horiz-adv-x="0" 
d="M-462 -290q31 0 52.5 -24t21.5 -70q0 -59 -11.5 -124.5t-53 -155.5t-107.5 -154q-10 -10 -21 1l-8 9q-6 9 1 18q57 57 92 139.5t35 165.5q0 23 -6.5 33.5t-29.5 21.5q-40 20 -40 66q0 30 22 52t53 22z" />
    <glyph glyph-name="uni0335" unicode="&#x335;" horiz-adv-x="0" 
 />
    <glyph glyph-name="uni0336" unicode="&#x336;" horiz-adv-x="0" 
d="M-2041 1214q-12 0 -12 12v33q0 13 12 13h1048q12 0 12 -13v-33q0 -12 -12 -12h-1048z" />
    <glyph glyph-name="uni0337" unicode="&#x337;" horiz-adv-x="0" 
 />
    <glyph glyph-name="Wgrave" unicode="&#x1e80;" horiz-adv-x="3207" 
d="M1102 3154q-11 8 -2 17l21 29q9 9 18 1l550 -463q9 -8 2 -18l-18 -22q-8 -10 -18 -2zM3098 2440q16 0 12 -13l-760 -2456q-4 -11 -16 -11h-21q-12 0 -15 11l-705 2213l-701 -2213q-4 -11 -16 -11h-21q-12 0 -15 11l-764 2455q-5 14 12 14h45q13 0 16 -11l719 -2349
l699 2226q5 11 16 11h20q11 0 16 -11l704 -2226l714 2350q4 10 16 10h45z" />
    <glyph glyph-name="wgrave" unicode="&#x1e81;" horiz-adv-x="2606" 
d="M800 2327q-11 8 -2 17l21 29q9 9 18 1l550 -463q9 -8 2 -18l-18 -22q-8 -10 -18 -2zM2537 1613q19 0 9 -23l-598 -1621q-4 -9 -14 -9h-10q-9 0 -14 9l-607 1331l-608 -1331q-4 -9 -13 -9h-10q-10 0 -14 9l-598 1621q-10 23 9 23h42q11 0 19 -14l552 -1522l598 1315
q7 17 18 17h10q11 0 18 -17l598 -1315l553 1522q6 14 19 14h41z" />
    <glyph glyph-name="Wacute" unicode="&#x1e82;" horiz-adv-x="3207" 
d="M1541 2698l-18 22q-7 10 2 18l550 463q9 8 18 -1l21 -29q9 -9 -2 -17l-553 -458q-10 -8 -18 2zM3098 2440q16 0 12 -13l-760 -2456q-4 -11 -16 -11h-21q-12 0 -15 11l-705 2213l-701 -2213q-4 -11 -16 -11h-21q-12 0 -15 11l-764 2455q-5 14 12 14h45q13 0 16 -11
l719 -2349l699 2226q5 11 16 11h20q11 0 16 -11l704 -2226l714 2350q4 10 16 10h45z" />
    <glyph glyph-name="wacute" unicode="&#x1e83;" horiz-adv-x="2606" 
d="M1239 1871l-18 22q-7 10 2 18l550 463q9 8 18 -1l21 -29q9 -9 -2 -17l-553 -458q-10 -8 -18 2zM2537 1613q19 0 9 -23l-598 -1621q-4 -9 -14 -9h-10q-9 0 -14 9l-607 1331l-608 -1331q-4 -9 -13 -9h-10q-10 0 -14 9l-598 1621q-10 23 9 23h42q11 0 19 -14l552 -1522
l598 1315q7 17 18 17h10q11 0 18 -17l598 -1315l553 1522q6 14 19 14h41z" />
    <glyph glyph-name="Wdieresis" unicode="&#x1e84;" horiz-adv-x="3207" 
d="M1280 2853q-30 0 -52.5 22.5t-22.5 52.5t22.5 52t52.5 22q31 0 52.5 -21.5t21.5 -52.5q0 -30 -22 -52.5t-52 -22.5zM1930 2853q-30 0 -52.5 22.5t-22.5 52.5t22.5 52t52.5 22q31 0 52.5 -21.5t21.5 -52.5q0 -30 -22 -52.5t-52 -22.5zM3098 2440q16 0 12 -13l-760 -2456
q-4 -11 -16 -11h-21q-12 0 -15 11l-705 2213l-701 -2213q-4 -11 -16 -11h-21q-12 0 -15 11l-764 2455q-5 14 12 14h45q13 0 16 -11l719 -2349l699 2226q5 11 16 11h20q11 0 16 -11l704 -2226l714 2350q4 10 16 10h45z" />
    <glyph glyph-name="wdieresis" unicode="&#x1e85;" horiz-adv-x="2606" 
d="M978 2026q-30 0 -52.5 22.5t-22.5 52.5t22.5 52t52.5 22q31 0 52.5 -21.5t21.5 -52.5q0 -30 -22 -52.5t-52 -22.5zM1628 2026q-30 0 -52.5 22.5t-22.5 52.5t22.5 52t52.5 22q31 0 52.5 -21.5t21.5 -52.5q0 -30 -22 -52.5t-52 -22.5zM2537 1613q19 0 9 -23l-598 -1621
q-4 -9 -14 -9h-10q-9 0 -14 9l-607 1331l-608 -1331q-4 -9 -13 -9h-10q-10 0 -14 9l-598 1621q-10 23 9 23h42q11 0 19 -14l552 -1522l598 1315q7 17 18 17h10q11 0 18 -17l598 -1315l553 1522q6 14 19 14h41z" />
    <glyph glyph-name="Ygrave" unicode="&#x1ef2;" horiz-adv-x="2240" 
d="M617 3154q-11 8 -2 17l21 29q9 9 18 1l550 -463q9 -8 2 -18l-18 -22q-8 -10 -18 -2zM2131 2440q20 0 12 -13l-989 -1537v-878q0 -4 -4 -8t-8 -4h-45q-5 0 -9 3.5t-4 8.5v877l-1006 1538q-8 13 11 13h50q10 0 17 -11l964 -1475l947 1475q7 11 18 11h46z" />
    <glyph glyph-name="ygrave" unicode="&#x1ef3;" horiz-adv-x="1606" 
d="M300 2327q-11 8 -2 17l21 29q9 9 18 1l550 -463q9 -8 2 -18l-18 -22q-8 -10 -18 -2zM1537 1613q9 0 11.5 -7t-2.5 -16l-701 -1601q-84 -201 -150 -340t-139.5 -259t-144 -190t-152.5 -108.5t-175 -38.5q-13 0 -13 13v34q0 12 12 12q97 1 181.5 51.5t169 163.5
t166.5 273.5t183 402.5l-723 1587q-5 9 -2.5 16t11.5 7h43q12 0 18 -13l685 -1523l663 1523q7 13 19 13h40z" />
    <glyph glyph-name="endash" unicode="&#x2013;" horiz-adv-x="1779" 
d="M19 917q-12 0 -12 12v34q0 12 12 12h1741q5 0 9 -3.5t4 -8.5v-34q0 -5 -4 -8.5t-9 -3.5h-1741z" />
    <glyph glyph-name="emdash" unicode="&#x2014;" horiz-adv-x="2979" 
d="M19 917q-12 0 -12 12v34q0 12 12 12h2941q5 0 9 -3.5t4 -8.5v-34q0 -5 -4 -8.5t-9 -3.5h-2941z" />
    <glyph glyph-name="quoteleft" unicode="&#x2018;" horiz-adv-x="642" 
d="M313 2086q-32 0 -53.5 24.5t-21.5 70.5q0 59 11.5 125t53 157t108.5 155q10 10 21 -1l8 -9q8 -9 -1 -18q-57 -58 -92 -141t-35 -166q0 -24 6.5 -34.5t29.5 -21.5q40 -20 40 -66q0 -31 -22 -53t-53 -22z" />
    <glyph glyph-name="quoteright" unicode="&#x2019;" horiz-adv-x="642" 
d="M329 2581q32 0 53.5 -24.5t21.5 -70.5q0 -59 -11.5 -125t-53 -157t-108.5 -155q-10 -10 -21 1l-8 9q-8 9 1 18q57 58 92 141t35 166q0 24 -6.5 34.5t-29.5 21.5q-40 20 -40 66q0 31 22 53t53 22z" />
    <glyph glyph-name="quotesinglbase" unicode="&#x201a;" horiz-adv-x="642" 
d="M329 128q32 0 53.5 -24.5t21.5 -70.5q0 -59 -11.5 -125t-53 -157t-108.5 -155q-10 -10 -21 1l-8 9q-8 9 1 18q57 58 92 141t35 166q0 24 -6.5 34.5t-29.5 21.5q-40 20 -40 66q0 31 22 53t53 22z" />
    <glyph glyph-name="quotedblleft" unicode="&#x201c;" horiz-adv-x="974" 
d="M313 2086q-32 0 -53.5 24.5t-21.5 70.5q0 59 11.5 125t53 157t108.5 155q10 10 21 -1l8 -9q8 -9 -1 -18q-57 -58 -92 -141t-35 -166q0 -24 6.5 -34.5t29.5 -21.5q40 -20 40 -66q0 -31 -22 -53t-53 -22zM645 2086q-32 0 -53.5 24.5t-21.5 70.5q0 59 11.5 125t53 157
t108.5 155q10 10 21 -1l8 -9q8 -9 -1 -18q-57 -58 -92 -141t-35 -166q0 -24 6.5 -34.5t29.5 -21.5q40 -20 40 -66q0 -31 -22 -53t-53 -22z" />
    <glyph glyph-name="quotedblright" unicode="&#x201d;" horiz-adv-x="974" 
d="M329 2581q32 0 53.5 -24.5t21.5 -70.5q0 -59 -11.5 -125t-53 -157t-108.5 -155q-10 -10 -21 1l-8 9q-8 9 1 18q57 58 92 141t35 166q0 24 -6.5 34.5t-29.5 21.5q-40 20 -40 66q0 31 22 53t53 22zM661 2581q32 0 53.5 -24.5t21.5 -70.5q0 -59 -11.5 -125t-53 -157
t-108.5 -155q-10 -10 -21 1l-8 9q-8 9 1 18q57 58 92 141t35 166q0 24 -6.5 34.5t-29.5 21.5q-40 20 -40 66q0 31 22 53t53 22z" />
    <glyph glyph-name="quotedblbase" unicode="&#x201e;" horiz-adv-x="974" 
d="M329 128q32 0 53.5 -24.5t21.5 -70.5q0 -59 -11.5 -125t-53 -157t-108.5 -155q-10 -10 -21 1l-8 9q-8 9 1 18q57 58 92 141t35 166q0 24 -6.5 34.5t-29.5 21.5q-40 20 -40 66q0 31 22 53t53 22zM661 128q32 0 53.5 -24.5t21.5 -70.5q0 -59 -11.5 -125t-53 -157
t-108.5 -155q-10 -10 -21 1l-8 9q-8 9 1 18q57 58 92 141t35 166q0 24 -6.5 34.5t-29.5 21.5q-40 20 -40 66q0 31 22 53t53 22z" />
    <glyph glyph-name="dagger" unicode="&#x2020;" horiz-adv-x="1458" 
d="M1308 2027q12 0 12 -13v-31q0 -13 -12 -13h-547v-2158q0 -5 -4 -8.5t-9 -3.5h-38q-5 0 -9 3.5t-4 8.5v2158h-547q-13 0 -13 13v31q0 13 13 13h547v721q0 5 4 8.5t9 3.5h38q5 0 9 -3.5t4 -8.5v-721h547z" />
    <glyph glyph-name="daggerdbl" unicode="&#x2021;" horiz-adv-x="1458" 
d="M1308 1970h-547v-1380h547q12 0 12 -13v-31q0 -12 -12 -12h-547v-722q0 -5 -4 -8.5t-9 -3.5h-38q-5 0 -9 3.5t-4 8.5v722h-547q-13 0 -13 12v31q0 13 13 13h547v1380h-547q-13 0 -13 13v31q0 13 13 13h547v721q0 5 4 8.5t9 3.5h38q5 0 9 -3.5t4 -8.5v-721h547
q12 0 12 -13v-31q0 -13 -12 -13z" />
    <glyph glyph-name="bullet" unicode="&#x2022;" horiz-adv-x="853" 
d="M442 653q-82 0 -144 61.5t-62 144.5q0 84 61.5 145t144.5 61q84 0 144.5 -61t60.5 -145q0 -83 -60.5 -144.5t-144.5 -61.5z" />
    <glyph glyph-name="ellipsis" unicode="&#x2026;" horiz-adv-x="1637" 
d="M313 -22q-30 0 -52.5 22.5t-22.5 52.5q0 31 22.5 53t52.5 22q31 0 53 -22t22 -53q0 -30 -22 -52.5t-53 -22.5zM818 -22q-30 0 -52.5 22.5t-22.5 52.5q0 31 22.5 53t52.5 22q31 0 53 -22t22 -53q0 -30 -22 -52.5t-53 -22.5zM1323 -22q-30 0 -52.5 22.5t-22.5 52.5
q0 31 22.5 53t52.5 22q31 0 53 -22t22 -53q0 -30 -22 -52.5t-53 -22.5z" />
    <glyph glyph-name="perthousand" unicode="&#x2030;" horiz-adv-x="4420" 
d="M2165 2497q4 -1 6 -6.5t0 -9.5l-1160 -2549q-6 -12 -17 -6l-32 16q-12 6 -6 16l1159 2548q6 11 16 6zM1288 1700q0 -349 -146.5 -556t-388.5 -207q-243 0 -389.5 207t-146.5 556t146.5 555.5t389.5 206.5q242 0 388.5 -207t146.5 -555zM753 994q219 0 345 189t126 517
q0 326 -126 515.5t-345 189.5q-220 0 -346 -189.5t-126 -515.5q0 -328 126 -517t346 -189zM2361 1503q242 0 389 -207t147 -555q0 -349 -147 -556t-389 -207t-389 207t-147 556q0 348 147 555t389 207zM3667 1503q242 0 389 -207t147 -555q0 -349 -147 -556t-389 -207
t-389 207t-147 556q0 348 147 555t389 207zM2361 35q219 0 345.5 189.5t126.5 516.5t-126.5 516t-345.5 189q-220 0 -346 -189t-126 -516t126 -516.5t346 -189.5zM3667 35q220 0 346 189.5t126 516.5t-126 516t-346 189q-219 0 -345.5 -189t-126.5 -516t126.5 -516.5
t345.5 -189.5z" />
    <glyph glyph-name="guilsinglleft" unicode="&#x2039;" horiz-adv-x="1148" 
d="M911 1312q0 -6 -5 -10l-618 -472l618 -473q5 -3 5 -9v-27q0 -9 -8.5 -12t-15.5 3l-645 493q-5 3 -5 8v34q0 5 5 8l645 493q7 6 15.5 3t8.5 -12v-27z" />
    <glyph glyph-name="guilsinglright" unicode="&#x203a;" horiz-adv-x="1148" 
d="M906 855q5 -3 5 -8v-34q0 -5 -5 -8l-645 -493q-7 -6 -15.5 -3t-8.5 12v27q0 6 5 9l618 473l-618 472q-5 4 -5 10v27q0 9 8.5 12t15.5 -3z" />
    <glyph glyph-name="fraction" unicode="&#x2044;" horiz-adv-x="1293" 
d="M1290 2349q6 12 17 6l22 -10q11 -6 7 -16l-1236 -2650q-6 -11 -16 -6l-23 11q-11 6 -6 16z" />
    <glyph glyph-name="Euro" unicode="&#x20ac;" horiz-adv-x="2906" 
d="M2701 630q13 -4 6 -18q-316 -634 -981 -634q-164 0 -318 41t-289 120.5t-244.5 191.5t-188 260t-115.5 319h-383v54h373q-22 127 -22 256q0 134 23 261h-374v56h385q63 282 233.5 493.5t408.5 321.5t511 110q665 0 981 -634q7 -14 -6 -18l-33 -16q-13 -4 -18 6
q-156 311 -387 456t-537 145v-1q-254 0 -476 -103.5t-381.5 -300.5t-221.5 -459h1435l-51 -56h-1396q-24 -125 -24 -261q0 -132 23 -256h1343l-50 -54h-1282q61 -264 220.5 -462.5t382.5 -303t478 -104.5v-1q306 0 537 145t387 456q5 10 18 6z" />
    <glyph glyph-name="trademark" unicode="&#x2122;" horiz-adv-x="3353" 
d="M3097 2467q8 0 8 -8v-1525q0 -7 -8 -7h-28q-8 0 -8 7v1425l-678 -1101q-6 -12 -14 0l-678 1101v-1425q0 -7 -8 -7h-28q-7 0 -7 7v1525q0 8 7 8h7q7 0 13 -9l701 -1134l701 1134q7 9 13 9h7zM1388 2442q8 0 8 -7v-23q0 -8 -8 -8h-584v-1470q0 -7 -8 -7h-28q-8 0 -8 7v1470
h-584q-7 0 -7 8v23q0 7 7 7h620h592z" />
    <glyph glyph-name="oneeighth" unicode="&#x215b;" horiz-adv-x="3872" 
d="M711 2397q7 0 7 -8v-1588q0 -8 -7 -8h-31q-8 0 -8 8v1549l-341 -181q-9 -3 -12 4l-11 22q-4 7 4 11l362 188q4 3 15 3h22zM2229 2353q11 -6 7 -16l-1236 -2650q-6 -11 -16 -6l-23 11q-11 6 -6 16l1235 2649q6 12 17 6zM2967 840q78 -13 147 -43t129 -79.5t95.5 -126.5
t35.5 -172q0 -200 -147 -316.5t-392 -116.5t-391.5 116.5t-146.5 316.5q0 95 35.5 172t95.5 126.5t129 79.5t147 43q-53 10 -102.5 29t-97.5 51t-83.5 72.5t-57 98t-21.5 124.5q0 173 135.5 288.5t357.5 115.5t358 -115.5t136 -288.5q0 -83 -32.5 -151t-87 -112t-115 -71.5
t-127.5 -40.5zM2387 1213q0 -157 127.5 -254.5t320.5 -97.5t321 97.5t128 254.5t-124.5 261.5t-324.5 104.5t-324 -104.5t-124 -261.5zM2835 26q222 0 357.5 109.5t135.5 286.5q0 178 -135.5 287.5t-357.5 109.5q-221 0 -356.5 -109.5t-135.5 -287.5q0 -177 135 -286.5
t357 -109.5z" />
    <glyph glyph-name="threeeighths" unicode="&#x215c;" horiz-adv-x="3799" 
d="M1285 1198q0 -199 -142 -309t-384 -110q-336 0 -557 251q-8 10 -4 15l14 16q8 9 15 2q93 -108 227 -176t298 -68q227 0 357 98.5t130 280.5q0 400 -591 403q-9 0 -9 8v18q0 8 8 8q130 1 233.5 31.5t168.5 83.5t99.5 122.5t34.5 150.5q0 168 -102.5 258t-309.5 90
q-278 0 -478 -228q-7 -7 -15 2l-13 15q-5 5 4 14q210 238 511 238q222 0 335 -102t113 -284q0 -153 -105.5 -262t-301.5 -143q464 -55 464 -423zM2437 2353q11 -6 7 -16l-1236 -2650q-6 -11 -16 -6l-23 11q-11 6 -6 16l1235 2649q6 12 17 6zM3175 840q78 -13 147 -43
t129 -79.5t95.5 -126.5t35.5 -172q0 -200 -147 -316.5t-392 -116.5t-391.5 116.5t-146.5 316.5q0 95 35.5 172t95.5 126.5t129 79.5t147 43q-53 10 -102.5 29t-97.5 51t-83.5 72.5t-57 98t-21.5 124.5q0 173 135.5 288.5t357.5 115.5t358 -115.5t136 -288.5
q0 -83 -32.5 -151t-87 -112t-115 -71.5t-127.5 -40.5zM2595 1213q0 -157 127.5 -254.5t320.5 -97.5t321 97.5t128 254.5t-124.5 261.5t-324.5 104.5t-324 -104.5t-124 -261.5zM3043 26q222 0 357.5 109.5t135.5 286.5q0 178 -135.5 287.5t-357.5 109.5q-221 0 -356.5 -109.5
t-135.5 -287.5q0 -177 135 -286.5t357 -109.5z" />
    <glyph glyph-name="fiveeighths" unicode="&#x215d;" horiz-adv-x="3799" 
d="M1306 1251q0 -114 -43.5 -205t-119 -148.5t-174.5 -88t-213 -30.5q-179 0 -306 62t-226 176q-9 9 -4 15l14 16q8 8 15 2q199 -231 501 -231q144 0 257 46.5t183 146t70 240.5q0 85 -26 157.5t-73 125.5t-111 90t-140 55t-161 18q-223 0 -411 -115q-3 -3 -6 0l-28 11
q-4 3 -4 8l89 787q0 8 8 8h818q9 0 9 -8v-24q0 -8 -9 -8h-784l-83 -730q194 110 405 110q114 0 213.5 -31.5t175.5 -91t120 -153t44 -210.5zM2437 2353q11 -6 7 -16l-1236 -2650q-6 -11 -16 -6l-23 11q-11 6 -6 16l1235 2649q6 12 17 6zM3175 840q78 -13 147 -43t129 -79.5
t95.5 -126.5t35.5 -172q0 -200 -147 -316.5t-392 -116.5t-391.5 116.5t-146.5 316.5q0 95 35.5 172t95.5 126.5t129 79.5t147 43q-53 10 -102.5 29t-97.5 51t-83.5 72.5t-57 98t-21.5 124.5q0 173 135.5 288.5t357.5 115.5t358 -115.5t136 -288.5q0 -83 -32.5 -151t-87 -112
t-115 -71.5t-127.5 -40.5zM2595 1213q0 -157 127.5 -254.5t320.5 -97.5t321 97.5t128 254.5t-124.5 261.5t-324.5 104.5t-324 -104.5t-124 -261.5zM3043 26q222 0 357.5 109.5t135.5 286.5q0 178 -135.5 287.5t-357.5 109.5q-221 0 -356.5 -109.5t-135.5 -287.5
q0 -177 135 -286.5t357 -109.5z" />
    <glyph glyph-name="seveneighths" unicode="&#x215e;" horiz-adv-x="3517" 
d="M1239 2377q0 -5 -4 -15l-729 -1565q-2 -4 -6 -4h-32q-5 0 -7.5 4.5t-0.5 9.5l722 1550h-1016q-8 0 -8 8v24q0 8 8 8h1064q9 0 9 -8v-12zM2146 2353q11 -6 7 -16l-1236 -2650q-6 -11 -16 -6l-23 11q-11 6 -6 16l1235 2649q6 12 17 6zM2883 840q78 -13 147 -43t129 -79.5
t95.5 -126.5t35.5 -172q0 -200 -147 -316.5t-392 -116.5t-391.5 116.5t-146.5 316.5q0 95 35.5 172t95.5 126.5t129 79.5t147 43q-53 10 -102.5 29t-97.5 51t-83.5 72.5t-57 98t-21.5 124.5q0 173 135.5 288.5t357.5 115.5t358 -115.5t136 -288.5q0 -83 -32.5 -151t-87 -112
t-115 -71.5t-127.5 -40.5zM2303 1213q0 -157 127.5 -254.5t320.5 -97.5t321 97.5t128 254.5t-124.5 261.5t-324.5 104.5t-324 -104.5t-124 -261.5zM2751 26q222 0 357.5 109.5t135.5 286.5q0 178 -135.5 287.5t-357.5 109.5q-221 0 -356.5 -109.5t-135.5 -287.5
q0 -177 135 -286.5t357 -109.5z" />
    <glyph glyph-name="partialdiff" unicode="&#x2202;" horiz-adv-x="2008" 
d="M613 2560q163 -28 305.5 -88.5t251.5 -141t200.5 -183.5t156.5 -212.5t115.5 -233t82 -239.5t51.5 -237t28 -221.5t8 -196.5q0 -184 -65 -340.5t-175.5 -263t-257 -166t-309.5 -59.5q-162 0 -309.5 60t-258 165.5t-175.5 261.5t-65 338t64.5 338t174 262t256.5 165.5
t309 59.5q235 0 426.5 -119.5t287.5 -328.5q-18 121 -46.5 235.5t-76.5 238t-109.5 232t-150 212t-193.5 183.5t-244 140.5t-299 89.5q-18 5 -10 23l9 19q6 9 18 7zM1005 40q150 0 284.5 55t235 152.5t159.5 242t59 313.5q0 170 -59 314.5t-159.5 242t-235 152.5t-284.5 55
t-284.5 -55t-235 -152.5t-159.5 -242t-59 -314.5q0 -169 59 -313.5t159.5 -242t235 -152.5t284.5 -55z" />
    <glyph glyph-name="emptyset" unicode="&#x2205;" horiz-adv-x="2736" 
d="M2515 2060q8 -10 -1 -19l-398 -382q123 -137 191 -310t68 -364q0 -205 -80 -391.5t-215 -321t-321.5 -214.5t-390.5 -80q-201 0 -383 75.5t-320 211.5l-398 -382q-10 -8 -20 0l-26 27q-8 10 1 19l398 382q-123 137 -191 310t-68 364q0 205 80 391.5t215 321t321.5 214.5
t390.5 80q201 0 383 -75.5t320 -211.5l398 382q10 9 19 0zM428 985q0 -176 63.5 -337t177.5 -289l1353 1299q-130 128 -299 199t-355 71q-189 0 -363 -75.5t-300 -202t-201.5 -301t-75.5 -364.5zM2308 985q0 176 -63.5 337t-177.5 289l-1353 -1299q130 -128 299 -199
t355 -71q189 0 363 75.5t300 202t201.5 301t75.5 364.5z" />
    <glyph glyph-name="product" unicode="&#x220f;" horiz-adv-x="1868" 
d="M1608 2940q4 0 8 -4t4 -8v-3324q0 -4 -4 -8t-8 -4h-37q-5 0 -9 3.5t-4 8.5v3280h-1249v-3280q0 -4 -3.5 -8t-8.5 -4h-37q-12 0 -12 12v3324q0 12 12 12h37h1289h22z" />
    <glyph glyph-name="summation" unicode="&#x2211;" horiz-adv-x="1814" 
d="M1657 2896q0 -12 -13 -12h-1444l951 -1612q2 -6 0 -12l-951 -1612h1444q5 0 9 -3.5t4 -8.5v-32q0 -12 -13 -12h-1509q-12 0 -12 12v24q0 12 6 23l955 1615l-955 1614q-6 12 -6 24v24q0 4 3.5 8t8.5 4h1509q5 0 9 -3.5t4 -8.5v-32z" />
    <glyph glyph-name="minus" unicode="&#x2212;" horiz-adv-x="2039" 
d="M249 1017q-12 0 -12 12v34q0 12 12 12h1541q5 0 9 -3.5t4 -8.5v-34q0 -5 -4 -8.5t-9 -3.5h-1541z" />
    <glyph glyph-name="radical" unicode="&#x221a;" horiz-adv-x="2220" 
d="M2056 2952q3 8 11 8h42q8 0 12 -5.5t2 -13.5l-1027 -2933q-2 -8 -10 -8h-32q-8 0 -11 7l-597 1428h-396q-13 0 -13 13v33q0 12 13 12h436q8 0 10 -6l573 -1381z" />
    <glyph glyph-name="infinity" unicode="&#x221e;" horiz-adv-x="2792" 
d="M2555 1059v-1q0 -143 -68 -263t-187 -190t-264 -70q-109 0 -204 34t-173 99.5t-140.5 147t-122.5 189.5q-60 -108 -122.5 -189.5t-140.5 -147t-173 -99.5t-204 -34q-145 0 -264 70t-187 190t-68 263v1q0 143 68 263t187 190t264 70q109 0 204 -34t173 -99.5t140.5 -147
t122.5 -189.5q60 108 122.5 189.5t140.5 147t173 99.5t204 34q145 0 264 -70t187 -190t68 -263zM755 592q188 0 333.5 118t274.5 349q-129 230 -274.5 348t-333.5 118q-194 0 -324 -136t-130 -330t130 -330.5t324 -136.5zM2037 592q194 0 324 136.5t130 330.5t-130 330
t-324 136q-188 0 -333.5 -118t-274.5 -348q129 -231 274.5 -349t333.5 -118z" />
    <glyph glyph-name="integral" unicode="&#x222b;" horiz-adv-x="1651" 
d="M1604 2899q15 -14 5 -25l-18 -25q-9 -10 -25 2q-153 129 -346 129q-112 0 -193.5 -38t-128 -107t-68.5 -155.5t-22 -194.5v-2880q0 -119 -28 -217t-84 -174t-148.5 -118.5t-214.5 -42.5q-111 0 -214.5 39.5t-174.5 101.5q-16 13 -6 25l18 25q9 12 26 -2
q152 -129 346 -129q112 0 193.5 38t128 107t68.5 155.5t22 194.5v2880q0 119 28 217t84 174t148.5 118.5t214.5 42.5q111 0 214.5 -39.5t174.5 -101.5z" />
    <glyph glyph-name="approxequal" unicode="&#x2248;" horiz-adv-x="2165" 
d="M242 1236q-8 5 -5 13q43 129 166.5 227t278.5 98q95 0 183.5 -32.5t158 -79t138 -93t151 -79t169.5 -32.5q134 0 246.5 85t151.5 197q7 14 20 7l23 -11q7 -5 5 -13q-44 -129 -167 -227t-279 -98q-81 0 -157 23.5t-133 58.5t-120.5 76t-118 76t-126 58.5t-145.5 23.5
q-133 0 -245.5 -85t-152.5 -197q-5 -14 -20 -7zM1923 833q7 -5 5 -13q-44 -129 -167 -227t-279 -98q-81 0 -157 23.5t-133 58.5t-120.5 76t-118 76t-126 58.5t-145.5 23.5q-133 0 -245.5 -85t-152.5 -197q-5 -14 -20 -7l-22 11q-8 5 -5 13q43 129 166.5 227t278.5 98
q95 0 183.5 -32.5t158 -79t138 -93t151 -79t169.5 -32.5q134 0 246.5 85t151.5 197q7 14 20 7z" />
    <glyph glyph-name="notequal" unicode="&#x2260;" horiz-adv-x="2039" 
d="M1790 1370h-595l-249 -648h844q5 0 9 -3.5t4 -8.5v-34q0 -5 -4 -8.5t-9 -3.5h-866l-208 -540q-5 -11 -17 -6l-33 15q-8 4 -6 16l198 515h-609q-12 0 -12 12v34q0 12 12 12h631l249 648h-880q-12 0 -12 12v34q0 12 12 12h902l190 494q5 10 17 6l34 -13q12 -5 6 -18
l-180 -469h572q5 0 9 -3.5t4 -8.5v-34q0 -5 -4 -8.5t-9 -3.5z" />
    <glyph glyph-name="lessequal" unicode="&#x2264;" horiz-adv-x="2039" 
d="M1803 1734q0 -7 -13 -13l-1484 -671l1484 -672q13 -6 13 -13v-43q0 -6 -4 -9.5t-9 -1.5l-1541 700q-12 6 -12 15v47q0 9 12 15l1541 700q5 2 9 -1.5t4 -9.5v-43zM249 -10q-12 0 -12 12v34q0 12 12 12h1541q5 0 9 -3.5t4 -8.5v-34q0 -5 -4 -8.5t-9 -3.5h-1541z" />
    <glyph glyph-name="greaterequal" unicode="&#x2265;" horiz-adv-x="2039" 
d="M236 1734v43q0 6 4 9.5t9 1.5l1541 -700q12 -6 12 -15v-47q0 -9 -12 -15l-1541 -700q-5 -2 -9 1.5t-4 9.5v43q0 7 13 13l1484 672l-1484 671q-13 6 -13 13zM1790 -10h-1541q-5 0 -9 3.5t-4 8.5v34q0 5 4 8.5t9 3.5h1541q12 0 12 -12v-34q0 -12 -12 -12z" />
    <glyph glyph-name="lozenge" unicode="&#x25ca;" horiz-adv-x="2194" 
d="M1085 2780q5 7 12 7t12 -7l846 -1374q4 -6 0 -12l-846 -1374q-5 -7 -12 -7t-12 7l-847 1374q-4 6 0 12zM1097 101l794 1299l-794 1299l-795 -1299z" />
    <glyph glyph-name="i.loclTRK" horiz-adv-x="545" 
d="M273 2026q-30 0 -52.5 22.5t-22.5 52.5q0 31 22.5 53t52.5 22q31 0 53 -22t22 -53q0 -30 -22 -52.5t-53 -22.5zM238 1601q0 12 13 12h43q13 0 13 -12v-1589q0 -5 -4 -8.5t-9 -3.5h-43q-5 0 -9 3.5t-4 8.5v1589z" />
    <glyph glyph-name="zero.osf" horiz-adv-x="2017" 
d="M1008 1735q165 0 312 -60.5t258.5 -171t176.5 -278t65 -368.5t-65 -369t-176.5 -278t-258.5 -171t-312 -61t-311.5 61t-258 171t-176.5 278t-65 369t65 368.5t176.5 278t258 171t311.5 60.5zM1008 40q151 0 285.5 56t236 158t161 258t59.5 345t-59.5 345t-161 258
t-236 158t-285.5 56t-285 -56t-235.5 -158t-161 -258t-59.5 -345t59.5 -345t161 -258t235.5 -158t285 -56z" />
    <glyph glyph-name="one.osf" horiz-adv-x="1219" 
d="M809 1713q5 0 9 -3.5t4 -8.5v-1689q0 -5 -4 -8.5t-9 -3.5h-44q-5 0 -8.5 4t-3.5 8v1630l-520 -276q-12 -6 -18 6l-16 34q-5 10 6 16l550 286q9 5 23 5h31z" />
    <glyph glyph-name="two.osf" horiz-adv-x="1758" 
d="M1499 61q5 0 8.5 -3.5t3.5 -8.5v-37q0 -4 -3.5 -8t-8.5 -4h-1327q-5 0 -9 3.5t-4 8.5v20q0 12 6 17q243 156 408.5 267.5t309 219.5t228.5 190t146 167t85 162.5t24 165.5q0 205 -129 329t-384 124q-360 0 -621 -312q-9 -11 -23 3l-21 23q-8 8 6 22q272 325 675 325
q139 0 248 -39t178 -108t105 -162t36 -204q0 -112 -39 -212t-118 -200.5t-221.5 -216.5t-325 -240.5t-454.5 -291.5h1221z" />
    <glyph glyph-name="three.osf" horiz-adv-x="1777" 
d="M945 561q298 -42 467 -205.5t169 -415.5q0 -145 -55 -261t-151.5 -190t-225.5 -113.5t-280 -39.5q-220 0 -410.5 86t-323.5 239q-13 14 -6 22l22 25q14 12 23 3q128 -149 310 -231.5t385 -82.5q135 0 250.5 34.5t203.5 101t138 172t50 239.5q0 274 -219.5 430t-604.5 158
q-13 0 -13 12v26q0 11 13 13q152 0 286.5 40.5t234 113.5t157 182.5t57.5 241.5q0 229 -157.5 371t-403.5 142q-183 0 -347 -81.5t-289 -227.5q-11 -11 -23 3l-19 23q-8 8 6 22q135 154 311.5 238t369.5 84q179 0 320.5 -71.5t221 -202t79.5 -297.5q0 -230 -148.5 -387
t-397.5 -216z" />
    <glyph glyph-name="four.osf" horiz-adv-x="2011" 
d="M1871 61q12 0 12 -12v-37q0 -4 -3.5 -8t-8.5 -4h-435v-631q0 -12 -12 -12h-43q-5 0 -9 3.5t-4 8.5v631h-1239q-12 0 -12 12v37l1257 1658q5 6 22 6h28q4 0 8 -3.5t4 -8.5v-1640h435zM205 61h1163v1535z" />
    <glyph glyph-name="five.osf" horiz-adv-x="2027" 
d="M1022 773q221 -1 390.5 -82t268.5 -245.5t99 -392.5q0 -167 -58.5 -301t-162.5 -220.5t-244 -132t-306 -45.5q-246 0 -425 87.5t-327 256.5q-14 15 -6 23l22 24q12 14 23 3q139 -163 310 -248t393 -85q154 0 283.5 41t225 119.5t149 200.5t53.5 277q0 208 -88.5 358.5
t-244 226.5t-361.5 76q-152 0 -289 -43t-315 -133q-4 -3 -9 0l-42 18q-7 4 -6 12l135 1133q0 12 12 12h1158q5 0 9 -3.5t4 -8.5v-37q0 -5 -4 -8.5t-9 -3.5h-1109l-126 -1046q156 89 294.5 128t302.5 39z" />
    <glyph glyph-name="six.osf" horiz-adv-x="1986" 
d="M990 1476q163 0 302 -56.5t235.5 -155.5t151 -236.5t54.5 -295.5q0 -212 -98.5 -384.5t-275 -271t-396.5 -98.5t-395.5 99.5t-273 275t-97.5 395.5q0 765 319.5 1168.5t990.5 437.5q13 0 13 -12v-37q0 -12 -13 -12q-584 -33 -885 -357.5t-349 -944.5q82 213 275.5 349
t441.5 136zM963 40q198 0 358.5 92t250 250t89.5 350q0 194 -83.5 349t-239 244.5t-357.5 89.5q-100 0 -194.5 -27t-172 -74.5t-143 -113t-110 -141t-69 -159.5t-24.5 -168q0 -192 89 -350t249 -250t357 -92z" />
    <glyph glyph-name="seven.osf" horiz-adv-x="1666" 
d="M456 -643q-8 0 -12.5 7t-0.5 15l1099 2273h-1492q-5 0 -9 3.5t-4 8.5v37q0 5 4 8.5t9 3.5h1565q12 0 12 -12v-20q0 -7 -5 -17l-1108 -2301q-4 -6 -11 -6h-47z" />
    <glyph glyph-name="eight.osf" horiz-adv-x="1995" 
d="M1197 1223q88 -16 169.5 -46t161.5 -81.5t139 -118t95 -161t36 -205.5q0 -196 -101.5 -340.5t-282 -219t-417.5 -74.5t-417 75t-281.5 219t-101.5 340q0 111 36 205.5t95 161t139 118t161.5 81.5t169.5 46q-95 20 -184 61.5t-169.5 107t-129.5 164.5t-49 217
q0 259 201.5 422t529.5 163t530 -163t202 -422q0 -95 -33 -179t-86 -143.5t-124 -107.5t-143 -76.5t-146 -43.5zM335 1770q0 -148 89 -266.5t240.5 -184t332.5 -65.5q182 0 333.5 65.5t240.5 184t89 266.5q0 233 -184.5 380.5t-478.5 147.5t-478 -147.5t-184 -380.5zM997 39
q214 0 380 71t258.5 202.5t92.5 303.5q0 168 -92.5 299t-259 203t-379.5 72t-379.5 -72t-258.5 -203t-92 -299q0 -260 202.5 -418.5t527.5 -158.5z" />
    <glyph glyph-name="nine.osf" 
d="M970 1735q166 0 310 -58.5t245 -160t158.5 -245t57.5 -308.5q0 -382 -78 -676t-237.5 -503t-411 -317.5t-588.5 -108.5q-13 0 -13 12v36q0 13 13 13q293 1 517.5 88t375 255.5t236 407t109.5 551.5q-83 -214 -277 -350.5t-444 -136.5q-218 0 -388.5 97t-264 267
t-93.5 382q0 159 58 299t159.5 240t245.5 158t310 58zM952 296q150 0 285 59t228.5 155t148.5 219.5t55 250.5q0 144 -52.5 272t-144.5 221t-222.5 147t-279.5 54t-280 -54t-223.5 -147t-145.5 -221t-53 -272q0 -195 84 -350.5t240.5 -244.5t359.5 -89z" />
    <glyph glyph-name="zero.dnom" horiz-adv-x="1578" 
d="M789 1612q259 0 415.5 -221.5t156.5 -595.5t-156.5 -595t-415.5 -221q-260 0 -416 221t-156 595t156 595.5t416 221.5zM789 19q158 0 276.5 95.5t183 271.5t64.5 409t-64.5 409t-183 271.5t-276.5 95.5q-239 0 -382.5 -211.5t-143.5 -564.5t143.5 -564.5t382.5 -211.5z
" />
    <glyph glyph-name="one.dnom" horiz-adv-x="1216" 
d="M711 1604q7 0 7 -8v-1588q0 -8 -7 -8h-31q-8 0 -8 8v1549l-341 -181q-9 -3 -12 4l-11 22q-4 7 4 11l362 188q4 3 15 3h22z" />
    <glyph glyph-name="two.dnom" horiz-adv-x="1437" 
d="M1271 33q8 0 8 -8v-24q0 -8 -8 -8h-1046q-8 0 -8 8v13q0 9 3 11q494 393 722.5 668t228.5 503q0 173 -103 274t-306 101q-274 0 -478 -243q-6 -6 -15 2l-15 15q-5 6 4 15q220 252 513 252q218 0 332 -113t114 -301q0 -124 -56.5 -252t-178 -272.5t-285 -295.5
t-403.5 -345h977z" />
    <glyph glyph-name="three.dnom" horiz-adv-x="1502" 
d="M821 821q464 -55 464 -423q0 -199 -142 -309t-384 -110q-336 0 -557 251q-8 10 -4 15l14 16q8 9 15 2q93 -108 227 -176t298 -68q227 0 357 98.5t130 280.5q0 400 -591 403q-9 0 -9 8v18q0 8 8 8q130 1 233.5 31.5t168.5 83.5t99.5 122.5t34.5 150.5q0 168 -102.5 258
t-309.5 90q-278 0 -478 -228q-7 -7 -15 2l-13 15q-5 5 4 14q210 238 511 238q222 0 335 -102t113 -284q0 -153 -105.5 -262t-301.5 -143z" />
    <glyph glyph-name="four.dnom" horiz-adv-x="1515" 
d="M1350 463q8 0 8 -8v-24q0 -8 -8 -8h-285v-415q0 -8 -8 -8h-30q-8 0 -8 8v415h-885q-8 0 -8 8v21q0 4 2 6l891 1142q3 4 16 4h22q8 0 8 -8v-1133h285zM186 463h833v1067z" />
    <glyph glyph-name="five.dnom" horiz-adv-x="1524" 
d="M753 944q114 0 213.5 -31.5t175.5 -91t120 -153t44 -210.5q0 -114 -43.5 -205t-119 -148.5t-174.5 -88t-213 -30.5q-179 0 -306 62t-226 176q-9 9 -4 15l14 16q8 9 15 2q199 -231 501 -231q144 0 257 46.5t183 146t70 240.5q0 85 -26 157.5t-73 125.5t-111 90t-140 55
t-161 18q-223 0 -411 -115q-3 -3 -6 0l-28 11q-4 3 -4 8l89 787q0 8 8 8h818q9 0 9 -8v-24q0 -8 -9 -8h-784l-83 -730q194 110 405 110z" />
    <glyph glyph-name="six.dnom" horiz-adv-x="1496" 
d="M765 997q227 0 371 -141.5t144 -361.5q0 -221 -151 -364.5t-382 -143.5t-380.5 145.5t-149.5 373.5q0 340 96.5 583t296.5 381t495 150q9 0 9 -9v-23q0 -9 -9 -9q-383 -17 -593.5 -252t-244.5 -659q56 146 190.5 238t307.5 92zM747 26q208 0 347 134t139 334
q0 204 -131.5 333t-342.5 129q-103 0 -196.5 -39t-158.5 -103t-103 -148t-38 -172q0 -201 138 -334.5t346 -133.5z" />
    <glyph glyph-name="seven.dnom" horiz-adv-x="1466" 
d="M468 0q-5 0 -7.5 4.5t-0.5 9.5l722 1550h-1016q-8 0 -8 8v24q0 8 8 8h1064q9 0 9 -8v-12q0 -5 -4 -15l-729 -1565q-2 -4 -6 -4h-32z" />
    <glyph glyph-name="eight.dnom" horiz-adv-x="1511" 
d="M887 840q78 -13 147 -43t129 -79.5t95.5 -126.5t35.5 -172q0 -200 -147 -316.5t-392 -116.5t-391.5 116.5t-146.5 316.5q0 95 35.5 172t95.5 126.5t129 79.5t147 43q-53 10 -102.5 29t-97.5 51t-83.5 72.5t-57 98t-21.5 124.5q0 173 135.5 288.5t357.5 115.5t358 -115.5
t136 -288.5q0 -83 -32.5 -151t-87 -112t-115 -71.5t-127.5 -40.5zM307 1213q0 -157 127.5 -254.5t320.5 -97.5t321 97.5t128 254.5t-124.5 261.5t-324.5 104.5t-324 -104.5t-124 -261.5zM755 26q222 0 357.5 109.5t135.5 286.5q0 178 -135.5 287.5t-357.5 109.5
q-221 0 -356.5 -109.5t-135.5 -287.5q0 -177 135 -286.5t357 -109.5z" />
    <glyph glyph-name="nine.dnom" horiz-adv-x="1461" 
d="M731 1619q223 0 368 -146t145 -374q0 -188 -31 -350.5t-98.5 -301.5t-168 -237.5t-246.5 -154t-327 -55.5q-8 0 -8 8v24q0 8 8 8q156 0 284.5 44.5t220.5 123t159 191t104.5 245.5t51.5 289q-55 -144 -184.5 -234.5t-294.5 -90.5q-219 0 -358 141t-139 361q0 221 146 365
t368 144zM719 648q131 0 242 66t173 172t62 224q0 200 -133 334t-332 134q-200 0 -334 -134t-134 -334q0 -203 126.5 -332.5t329.5 -129.5z" />
    <glyph glyph-name="zero.numr" horiz-adv-x="1578" 
d="M789 2412q259 0 415.5 -221.5t156.5 -595.5t-156.5 -595t-415.5 -221q-260 0 -416 221t-156 595t156 595.5t416 221.5zM789 819q158 0 276.5 95.5t183 271.5t64.5 409t-64.5 409t-183 271.5t-276.5 95.5q-239 0 -382.5 -211.5t-143.5 -564.5t143.5 -564.5t382.5 -211.5z
" />
    <glyph glyph-name="one.numr" horiz-adv-x="1216" 
d="M711 2397q7 0 7 -8v-1588q0 -8 -7 -8h-31q-8 0 -8 8v1549l-341 -181q-9 -3 -12 4l-11 22q-4 7 4 11l362 188q4 3 15 3h22z" />
    <glyph glyph-name="two.numr" horiz-adv-x="1437" 
d="M1271 833q8 0 8 -8v-24q0 -8 -8 -8h-1046q-8 0 -8 8v13q0 9 3 11q494 393 722.5 668t228.5 503q0 173 -103 274t-306 101q-274 0 -478 -243q-6 -6 -15 2l-15 15q-5 6 4 15q220 252 513 252q218 0 332 -113t114 -301q0 -124 -56.5 -252t-178 -272.5t-285 -295.5
t-403.5 -345h977z" />
    <glyph glyph-name="three.numr" horiz-adv-x="1502" 
d="M821 1621q464 -55 464 -423q0 -199 -142 -309t-384 -110q-336 0 -557 251q-8 10 -4 15l14 16q8 9 15 2q93 -108 227 -176t298 -68q227 0 357 98.5t130 280.5q0 400 -591 403q-9 0 -9 8v18q0 8 8 8q130 1 233.5 31.5t168.5 83.5t99.5 122.5t34.5 150.5q0 168 -102.5 258
t-309.5 90q-278 0 -478 -228q-7 -7 -15 2l-13 15q-5 5 4 14q210 238 511 238q222 0 335 -102t113 -284q0 -153 -105.5 -262t-301.5 -143z" />
    <glyph glyph-name="four.numr" horiz-adv-x="1515" 
d="M1350 1256q8 0 8 -8v-24q0 -8 -8 -8h-285v-415q0 -8 -8 -8h-30q-8 0 -8 8v415h-885q-8 0 -8 8v21q0 4 2 6l891 1142q3 4 16 4h22q8 0 8 -8v-1133h285zM186 1256h833v1067z" />
    <glyph glyph-name="five.numr" horiz-adv-x="1524" 
d="M753 1737q114 0 213.5 -31.5t175.5 -91t120 -153t44 -210.5q0 -114 -43.5 -205t-119 -148.5t-174.5 -88t-213 -30.5q-179 0 -306 62t-226 176q-9 9 -4 15l14 16q8 8 15 2q199 -231 501 -231q144 0 257 46.5t183 146t70 240.5q0 85 -26 157.5t-73 125.5t-111 90t-140 55
t-161 18q-223 0 -411 -115q-3 -3 -6 0l-28 11q-4 3 -4 8l89 787q0 8 8 8h818q9 0 9 -8v-24q0 -8 -9 -8h-784l-83 -730q194 110 405 110z" />
    <glyph glyph-name="six.numr" horiz-adv-x="1496" 
d="M765 1790q227 0 371 -141.5t144 -361.5q0 -221 -151 -364.5t-382 -143.5t-380.5 145.5t-149.5 373.5q0 340 96.5 583t296.5 381t495 150q9 0 9 -9v-23q0 -9 -9 -9q-383 -17 -593.5 -252t-244.5 -659q56 146 190.5 238t307.5 92zM747 819q208 0 347 134t139 334
q0 204 -131.5 333t-342.5 129q-103 0 -196.5 -39t-158.5 -103t-103 -148t-38 -172q0 -201 138 -334.5t346 -133.5z" />
    <glyph glyph-name="seven.numr" horiz-adv-x="1466" 
d="M468 793q-5 0 -7.5 4.5t-0.5 9.5l722 1550h-1016q-8 0 -8 8v24q0 8 8 8h1064q9 0 9 -8v-12q0 -5 -4 -15l-729 -1565q-2 -4 -6 -4h-32z" />
    <glyph glyph-name="eight.numr" horiz-adv-x="1511" 
d="M887 1633q78 -13 147 -43t129 -79.5t95.5 -126.5t35.5 -172q0 -200 -147 -316.5t-392 -116.5t-391.5 116.5t-146.5 316.5q0 95 35.5 172t95.5 126.5t129 79.5t147 43q-53 10 -102.5 29t-97.5 51t-83.5 72.5t-57 98t-21.5 124.5q0 173 135.5 288.5t357.5 115.5t358 -115.5
t136 -288.5q0 -83 -32.5 -151t-87 -112t-115 -71.5t-127.5 -40.5zM307 2006q0 -157 127.5 -254.5t320.5 -97.5t321 97.5t128 254.5t-124.5 261.5t-324.5 104.5t-324 -104.5t-124 -261.5zM755 819q222 0 357.5 109.5t135.5 286.5q0 178 -135.5 287.5t-357.5 109.5
q-221 0 -356.5 -109.5t-135.5 -287.5q0 -177 135 -286.5t357 -109.5z" />
    <glyph glyph-name="nine.numr" horiz-adv-x="1461" 
d="M731 2412q223 0 368 -146t145 -374q0 -188 -31 -350.5t-98.5 -301.5t-168 -237.5t-246.5 -154t-327 -55.5q-8 0 -8 8v24q0 8 8 8q156 0 284.5 44.5t220.5 123t159 191t104.5 245.5t51.5 289q-55 -144 -184.5 -234.5t-294.5 -90.5q-219 0 -358 141t-139 361q0 221 146 365
t368 144zM719 1441q131 0 242 66t173 172t62 224q0 200 -133 334t-332 134q-200 0 -334 -134t-134 -334q0 -203 126.5 -332.5t329.5 -129.5z" />
    <glyph glyph-name="com_I" horiz-adv-x="707" 
d="M318 2428q0 5 4 8.5t9 3.5h45q12 0 12 -12v-2416q0 -12 -12 -12h-45q-5 0 -9 3.5t-4 8.5v2416z" />
    <glyph glyph-name="com_o" horiz-adv-x="2400" 
d="M572 880q0 147 42 278t117.5 230.5t176.5 172t223 110t253 37.5v-61q-150 0 -285.5 -55t-236.5 -153t-160.5 -243t-59.5 -316h-70z" />
    <glyph glyph-name="com_n" horiz-adv-x="2368" 
d="M1368 1653q156 0 273 -49t189 -140t107.5 -214t35.5 -277v-961q0 -12 -12 -12h-44q-5 0 -8.5 4t-3.5 8v948q0 146 -31 260.5t-96 198.5t-171 128.5t-249 44.5q-150 0 -291 -60t-242.5 -157.5t-163 -227t-61.5 -263.5v251q22 63 65 131t113 138t155 124.5t199 89.5t236 35
z" />
    <glyph glyph-name="com_c" horiz-adv-x="2377" 
d="M1067 1702v61q234 0 398 -114t275 -333q6 -13 -6 -17l-37 -17q-13 -4 -18 6q-201 414 -612 414z" />
    <glyph glyph-name="com_C" horiz-adv-x="2400" 
d="M2443 1972q-13 -4 -18 6q-156 311 -387 456t-537 145v61q665 0 981 -634q7 -14 -6 -18z" />
    <glyph glyph-name="com_O" horiz-adv-x="2400" 
 />
    <glyph glyph-name="com_i_base" horiz-adv-x="508" 
d="M220 1601q0 12 12 12h44q12 0 12 -12v-1589q0 -12 -12 -12h-44q-4 0 -8 4t-4 8v1589z" />
    <glyph glyph-name="com_d" horiz-adv-x="2382" 
d="M1003 1708q168 0 315 -64t251.5 -174.5t164.5 -264t61 -325.5h-47q0 153 -57 294t-155 245t-236.5 166t-292.5 62q-150 0 -285.5 -55t-236.5 -153t-160.5 -243t-59.5 -316h-70q0 147 42 278t117.5 230.5t176 172t221.5 110t251 37.5z" />
    <glyph glyph-name="com_g_gora" horiz-adv-x="2387" 
d="M370 1200q0 113 47.5 216t129.5 179.5t200.5 122t252.5 45.5v-58q-159 0 -289 -69.5t-201.5 -185t-71.5 -250.5h-68z" />
    <glyph glyph-name="newGlyph" horiz-adv-x="2400" 
 />
    <glyph glyph-name="com_duze_I" horiz-adv-x="70" 
d="M0 2428q0 4 4 8t8 4h46q4 0 8 -4t4 -8v-2416q0 -4 -4 -8t-8 -4h-46q-4 0 -8 4t-4 8v2416z" />
    <glyph glyph-name="com_duze_I_bok" horiz-adv-x="70" 
d="M0 2428q0 4 4 8t8 4h46q4 0 8 -4t4 -8v-2416q0 -4 -4 -8t-8 -4h-46q-4 0 -8 4t-4 8v2416z" />
    <glyph glyph-name="com_currency" horiz-adv-x="1656" 
d="M635 1547q139 140 323.5 218.5t389.5 78.5v-63q-189 0 -362.5 -75.5t-300 -202t-202 -301t-75.5 -364.5h-66q0 190 67.5 362.5t189.5 308.5l-397 384q-10 10 -1 19l27 28q10 10 19 -1z" />
    <glyph glyph-name="com_infinity" horiz-adv-x="2400" 
d="M255 1058q0 143 67.5 263.5t187 190.5t264.5 70q109 0 204 -34t173 -99.5t140.5 -147t122.5 -189.5v-54h-33q-129 231 -274.5 349t-333.5 118q-194 0 -324 -136.5t-130 -330.5h-64z" />
    </font>
</defs>
</svg>
