<svg width="210" height="30.648" viewBox="0 0 55.562 8.109" xmlns="http://www.w3.org/2000/svg">
  <g transform="translate(-.124) scale(.16831)">
    <rect transform="translate(.738 .838)" width="75.5" height="47" rx="4" fill="#fff"/>
    <path d="M70.575 0H4.513C2.624 0 .737 1.477.737 2.955v4.434h75.5V4.433Q76.236-.001 70.575 0z" fill="#265697"/>
    <path d="M.737 40.629v2.956q0 4.432 5.662 4.432h64.176q5.661 0 5.662-4.432v-2.956z" fill="#d97b16"/>
    <path d="M48.631 15.362a11.951 11.951 0 00-4.365-.778c-4.84 0-8.255 2.507-8.255 6.05-.043 2.637 2.421 4.106 4.279 4.971 1.9.907 2.55 1.469 2.55 2.29 0 1.21-1.513 1.772-2.939 1.772a10.189 10.189 0 01-4.624-.951l-.649-.3-.691 4.106a15.321 15.321 0 005.445.994c5.143 0 8.471-2.464 8.515-6.267 0-2.075-1.3-3.674-4.106-4.97-1.729-.865-2.766-1.426-2.766-2.291 0-.778.907-1.556 2.809-1.556a9.093 9.093 0 013.674.692l.432.216.691-3.976m12.534-.434h-3.76a2.445 2.445 0 00-2.55 1.512l-7.261 16.812h5.1s.821-2.247 1.037-2.766h6.267c.129.649.6 2.766.6 2.766h4.538zm-6.008 11.8c.389-1.037 1.945-5.143 1.945-5.143-.043.043.389-1.08.648-1.728l.346 1.6s.951 4.365 1.124 5.316zm-29.172 6.524l3.068-18.324h4.884l-3.069 18.324zM21.922 14.93l-4.8 12.49-.519-2.55a14.271 14.271 0 00-6.785-7.693l4.408 16.034h5.186l7.693-18.281h-5.186" fill="#265697"/>
    <path d="M12.91 15.141H5.242l-.041.377c5.95 1.467 9.888 5.028 11.522 9.3l-1.676-8.17a1.971 1.971 0 00-2.137-1.509" fill="#d97b16"/>
  </g>
  <path d="M54.741.026H43.262a.798.798 0 00-.82.77v6.543a.798.798 0 00.82.77h11.48a.798.798 0 00.82-.77V.796a.798.798 0 00-.82-.77z" fill="#3498d8" fill-rule="evenodd"/>
  <path d="M45.188 4.183h.656l-.328-.77zM54.33 2.72h-1.68l-.41.423-.37-.423h-3.566l-.327.693-.328-.693h-1.435v.308l-.164-.308h-1.23l-1.19 2.694h1.436l.164-.423h.41l.164.423h1.599v-.308l.123.308h.82l.123-.346v.346h3.28l.41-.423.368.423h1.681l-1.066-1.346zm-4.96 2.31h-.451V3.527l-.697 1.501h-.41l-.697-1.5v1.5h-.943l-.164-.423h-.984l-.164.423h-.533l.861-1.924h.697l.78 1.809V3.105h.778l.615 1.309.574-1.309h.779v1.924zm4.058 0h-.615l-.533-.655-.614.654H49.82V3.105h1.885l.574.616.615-.616h.574l-.902.962zm-3.156-1.54v.346h1.025v.385h-1.025v.385h1.147l.533-.577-.492-.539z" fill="#fff" fill-rule="evenodd"/>
  <path d="M28.35.026h12.006a.656.656 0 01.667.647v6.789a.656.656 0 01-.667.646H28.35a.656.656 0 01-.667-.646V.672a.656.656 0 01.667-.646z" fill="#b82126"/>
  <path d="M31.344 1.32h-1.382c-.612.027-1.111.266-1.255.758-.075.256-.116.538-.175.804-.299 1.352-.564 2.741-.85 4.066h10.764c.834 0 1.403-.17 1.557-.81.072-.298.14-.635.21-.962l.809-3.857h-9.678" fill="#b82126"/>
  <path d="M36.833 4.682c-.146.142-.552.182-.512-.156.035-.282.342-.341.676-.3a.832.832 0 01-.164.456zm-.46-1.096c-.013.077-.034.147-.052.222.167-.042.685-.169.735.052a.387.387 0 01-.033.209c-.468-.045-.85.032-.951.365a.411.411 0 00.151.503.63.63 0 00.729-.202.846.846 0 00-.02.209h.242a3.742 3.742 0 01.073-.627 2.457 2.457 0 00.078-.51c-.02-.358-.617-.231-.951-.221zm2.435 1.207c-.19.004-.284-.113-.289-.307-.007-.34.143-.717.447-.75a.744.744 0 01.348.052c-.096.382-.061.996-.506 1.005zm.63-1.796q-.036.317-.097.608c-.693-.218-1.117.288-1.11.914a.49.49 0 00.098.326.641.641 0 00.696.06.492.492 0 00.097-.098c.018-.023.047-.082.052-.065a1.45 1.45 0 00-.026.202h.256A17.733 17.733 0 0139.719 3zM32.213 4.69c-.151.159-.522.156-.552-.111a1.326 1.326 0 01.053-.36c.021-.121.037-.238.059-.346.149-.18.584-.202.63.097a.993.993 0 01-.19.72zm.223-1.104a.748.748 0 00-.656.119c0 .004-.003.005-.007.005l.007-.005c.002-.044.017-.074.02-.118h-.243a44.59 44.59 0 01-.348 1.965h.283c.04-.25.067-.517.125-.75.064.247.485.2.662.104.366-.198.649-1.136.157-1.32zm1.34.47h-.664a.39.39 0 01.374-.327c.204-.007.35.075.29.328zm-.27-.496a.74.74 0 00-.499.202 1.13 1.13 0 00-.236.822c.051.453.618.437 1.07.327.008-.08.027-.148.04-.222a.904.904 0 01-.703.045c-.144-.09-.145-.323-.097-.521a16.322 16.322 0 01.926 0 .961.961 0 00.026-.438c-.065-.185-.294-.232-.526-.215zm-2.48.026c-.008 0-.008.01-.007.02-.062.462-.146.905-.236 1.338h.283c.067-.466.145-.921.242-1.357zm7.362.006a.432.432 0 00-.538.21c.023-.065.024-.15.045-.216h-.247q-.101.7-.243 1.357h.289a3.07 3.07 0 01.065-.49c.06-.376.148-.79.59-.665.015-.063.021-.135.04-.195zm-3.17 1.032a.677.677 0 01-.026-.26.91.91 0 01.19-.523.695.695 0 01.67-.039c.007-.077.023-.147.032-.222a1.07 1.07 0 00-.931.177 1.11 1.11 0 00-.224.927c.101.33.557.349.926.222.017-.067.025-.14.04-.209-.201.105-.587.159-.676-.071zm-.157-1.038a.434.434 0 00-.537.23c.02-.072.029-.155.046-.23h-.25c-.062.47-.152.913-.237 1.358h.283a5.322 5.322 0 01.144-.875.394.394 0 01.471-.295.423.423 0 01.05.014c.002-.074.023-.131.03-.202zm-4.548-.55c-.04.26-.086.516-.13.771-.292.003-.59.014-.873-.006.053-.25.092-.515.145-.764h-.315c-.113.636-.216 1.283-.341 1.907h.321c.05-.32.098-.643.163-.947a7.907 7.907 0 01.866.007c-.054.316-.12.62-.17.94h.321c.103-.646.212-1.286.341-1.907zm.8.288c.057-.039.13-.215.047-.288a.157.157 0 00-.13-.02.159.159 0 00-.112.06c-.036.048-.068.193-.013.248s.174.025.21 0z" fill="#fff"/>
  <g fill-rule="evenodd">
    <path d="M25.563 0H14.786a.772.772 0 00-.77.77v6.543a.772.772 0 00.77.77h10.776a.772.772 0 00.77-.77V.77a.772.772 0 00-.77-.77z" fill="#34495e"/>
    <path d="M21.33 4.041a2.694 2.694 0 11-2.694-2.694 2.694 2.694 0 012.694 2.694z" fill="#e74c3c"/>
    <path d="M24.408 4.041a2.694 2.694 0 11-2.694-2.694 2.694 2.694 0 012.694 2.694z" fill="#f1c40f"/>
    <path d="M20.867 2.694h-2.156a3.424 3.424 0 00-.23.385h2.616a3.4 3.4 0 00-.23-.385zm-.616-.77h-.885a3.456 3.456 0 00-.346.385h1.615a3.576 3.576 0 01-.384-.385zm1 1.54h-2.886a1.375 1.375 0 00-.077.384h3.04c-.038-.115-.038-.269-.075-.384zm-2.54 1.924h2.156a3.389 3.389 0 00.23-.385h-2.616a3.412 3.412 0 00.23.385zm-.384-.77h2.886a1.368 1.368 0 00.077-.384h-3.04c.038.115.038.269.077.384zm1 1.54h.886a3.458 3.458 0 00.346-.385h-1.616a3.588 3.588 0 01.385.385z" fill="#e74c3c"/>
  </g>
</svg>
