<svg xmlns="http://www.w3.org/2000/svg" viewBox="0 0 60.854 6.845" height="25.87" width="230">
  <path d="M.006.006h8.412v6.73H.006z" fill="#f6f6f6"/>
  <path d="M7.788.006H.426a.453.453 0 00-.42.42v.631h8.412v-.42a.557.557 0 00-.63-.631z" fill="#265697"/>
  <path d="M.006 5.787v.421a.557.557 0 00.63.631h7.152a.557.557 0 00.63-.631v-.42z" fill="#d97b16"/>
  <path d="M5.874 2.361a1.454 1.454 0 00-.532-.094c-.59 0-1.004.305-1.004.738 0 .32.294.5.52.605.227.106.31.178.31.28 0 .147-.184.214-.357.214a1.24 1.24 0 01-.562-.115l-.08-.037-.083.5a1.86 1.86 0 00.663.122c.626 0 1.031-.3 1.036-.762 0-.253-.157-.447-.5-.606-.21-.104-.337-.173-.337-.279 0-.106.111-.19.342-.19a1.107 1.107 0 01.447.084l.053.026.084-.483M7.398 2.308H6.94a.298.298 0 00-.31.185l-.883 2.044h.615l.123-.337h.763c.016.08.073.337.073.337h.558zm-.731 1.436l.236-.626s.047-.132.079-.21l.042.194s.115.531.136.647zM3.118 4.537l.369-2.229h.594l-.369 2.23zM2.623 2.308l-.583 1.52-.066-.31a1.737 1.737 0 00-.825-.937l.54 1.952h.63l.937-2.225h-.633" fill="#265697"/>
  <path d="M1.5 2.303H.536v.047a1.978 1.978 0 011.437 1.168l-.21-1.025a.246.246 0 00-.269-.19" fill="#d97b16"/>
  <g>
    <g fill-rule="evenodd">
      <path d="M45.376.006h-9.119a.653.653 0 00-.65.65v5.536a.653.653 0 00.65.65h9.12a.653.653 0 00.65-.65V.656a.653.653 0 00-.65-.65z" fill="#3498d8"/>
      <path d="M37.788 3.52h.52l-.26-.65zm7.257-1.236h-1.334l-.326.358-.293-.358h-2.83l-.26.585-.261-.585h-1.14v.26l-.13-.26h-.976l-.944 2.278h1.14l.13-.358h.326l.13.358h1.268v-.26l.098.26h.65l.098-.293v.293h2.604l.326-.358.293.358h1.334l-.846-1.14zm-3.937 1.952h-.358v-1.27l-.554 1.27h-.326l-.553-1.27v1.27h-.748l-.13-.358h-.782l-.13.358h-.423l.684-1.627h.553l.615 1.53v-1.53h.615l.492 1.107.455-1.107h.616v1.627zm3.221 0h-.492l-.42-.557-.491.553h-1.46V2.61h1.497l.455.52.492-.52h.455l-.716.813zm-2.505-1.301v.292h.813v.329h-.813v.326h.911l.423-.492-.39-.455z" fill="#fff"/>
    </g>
  </g>
  <g>
    <path d="M33.432 5.984a.861.861 0 01-.855.855h-8.544a.861.861 0 01-.855-.855V.858a.861.861 0 01.855-.855h8.55a.861.861 0 01.855.855z" fill-rule="evenodd"/>
    <path d="M31.599 3.696a.477.477 0 01-.468.381.492.492 0 01-.151-.024l-.106.316a.812.812 0 001.052-.607zm-1.004.512l.221-.246a.477.477 0 010-.715l-.221-.246a.81.81 0 000 1.214zm.386-1.06a.477.477 0 01.615.357l.327-.066a.81.81 0 00-1.051-.607l.105.317zm-.984-.723V3.99l.272.113-.123.309-.268-.112a.306.306 0 01-.133-.11.35.35 0 01-.052-.195V2.426zm-1.238.37a.81.81 0 00-.691 1.252l1.468-.628a.81.81 0 00-.777-.625zm-.492.86a.296.296 0 010-.057.477.477 0 01.842-.3zm.807.29a.477.477 0 01-.34.137.471.471 0 01-.246-.074l-.178.283a.81.81 0 00.998-.105z" fill="#fff"/>
    <path d="M26.776 3.573a.782.782 0 01-1.013.584l-.174.52a1.329 1.329 0 001.722-.993z" fill="#ed412f" fill-rule="evenodd"/>
    <path d="M25.128 4.41L25.49 4a.781.781 0 010-1.17l-.363-.41a1.329 1.329 0 000 1.99" fill="#1aa5df" fill-rule="evenodd"/>
    <path d="M25.755 2.675a.782.782 0 011.014.586l.535-.11a1.33 1.33 0 00-1.722-.994z" fill="#ffca32" fill-rule="evenodd"/>
  </g>
  <g>
    <path d="M48.828.006h11.393a.593.593 0 01.632.546v5.742a.593.593 0 01-.632.546H48.828a.593.593 0 01-.632-.546V.552a.593.593 0 01.632-.546z" fill="#b82126"/>
    <path d="M51.671 1.1h-1.313c-.58.023-1.055.224-1.19.64-.07.22-.111.455-.166.68-.283 1.14-.536 2.32-.806 3.44h10.21c.791 0 1.331-.144 1.476-.685.068-.246.133-.537.198-.813.26-1.078.513-2.156.774-3.263h-9.183" fill="#b82126"/>
    <path d="M56.94 3.943c-.142.123-.538.154-.498-.133.034-.237.333-.287.658-.253a.65.65 0 01-.16.386zm-.448-.927c-.013.065-.034.123-.052.188.163-.035.668-.143.716.044a.29.29 0 01-.032.177c-.456-.037-.829.027-.926.31a.324.324 0 00.148.425.673.673 0 00.71-.171.626.626 0 00-.02.177h.236a2.758 2.758 0 01.07-.53 1.832 1.832 0 00.076-.43c-.02-.303-.601-.196-.926-.188zm2.372 1.02a.246.246 0 01-.282-.259c-.007-.288.14-.606.434-.635a.824.824 0 01.34.045c-.094.322-.06.842-.492.85zm.615-1.518a4.825 4.825 0 01-.095.514.784.784 0 00-1.08.772.378.378 0 00.095.276.704.704 0 00.678.049.451.451 0 00.094-.082c.018-.02.046-.07.05-.055a1.076 1.076 0 00-.025.171h.246a13.163 13.163 0 01.307-1.645zm-7.038 1.43c-.147.134-.508.133-.537-.093a.984.984 0 01.051-.304c.021-.103.037-.202.058-.293.145-.152.57-.17.615.082a.759.759 0 01-.184.61zm.218-.934a.82.82 0 00-.64.101h-.006.006c0-.037.017-.062.02-.1H51.8a32.52 32.52 0 01-.34 1.663h.276c.04-.213.067-.438.123-.635.063.209.473.17.646.088.357-.167.633-.96.154-1.115zm1.304.398h-.646a.369.369 0 01.369-.276c.198 0 .34.064.282.277zm-.262-.42a.78.78 0 00-.486.171.87.87 0 00-.23.697c.05.382.601.369 1.042.275.007-.067.026-.123.038-.188a1.003 1.003 0 01-.684.038c-.141-.077-.141-.273-.095-.442.297-.008.604-.006.902 0a.71.71 0 00.026-.369c-.064-.156-.287-.196-.513-.182zm-2.416.022c-.008 0-.008.01-.006.018-.06.39-.143.765-.23 1.131h.275c.067-.393.142-.78.236-1.147zm7.172 0a.449.449 0 00-.524.178c.022-.054.023-.123.044-.182h-.246q-.099.591-.236 1.147h.281a2.267 2.267 0 01.063-.414c.06-.319.145-.668.576-.564.015-.053.02-.114.038-.165zm-3.088.873a.503.503 0 01-.026-.222.711.711 0 01.186-.441.766.766 0 01.652-.034c.007-.065.022-.123.032-.188a1.171 1.171 0 00-.908.149.849.849 0 00-.218.784c.1.279.543.295.902.188.016-.057.025-.123.038-.177-.196.088-.57.134-.658-.06zm-.154-.879a.448.448 0 00-.523.195c.02-.06.029-.13.045-.193h-.246c-.06.397-.147.77-.23 1.147h.275a3.955 3.955 0 01.14-.738.342.342 0 01.191-.218.438.438 0 01.315-.02c0-.062.023-.11.03-.17zm-4.428-.465c-.04.22-.084.436-.123.652-.286 0-.576.013-.85 0 .051-.211.088-.434.14-.646h-.307c-.109.54-.21 1.085-.332 1.613h.314c.05-.27.095-.544.159-.8q.422-.018.844 0c-.053.266-.117.525-.167.794h.314c.101-.546.207-1.087.332-1.613zm.78.246c.055-.032.123-.18.044-.246a.172.172 0 00-.123-.017.162.162 0 00-.108.05c-.035.04-.067.163-.013.21a.22.22 0 00.204 0z" fill="#fff"/>
  </g>
  <g>
    <g fill-rule="evenodd">
      <path d="M20.355.006h-9.12a.653.653 0 00-.65.65v5.536a.653.653 0 00.65.65h9.12a.653.653 0 00.65-.65V.656a.653.653 0 00-.65-.65z" fill="#34495e"/>
      <path d="M16.769 3.423a2.278 2.278 0 11-2.278-2.278 2.278 2.278 0 012.278 2.278z" fill="#e74c3c"/>
      <path d="M19.37 3.423a2.278 2.278 0 11-2.275-2.278 2.278 2.278 0 012.276 2.278z" fill="#f1c40f"/>
      <path d="M16.38 2.284h-1.824a2.863 2.863 0 00-.196.326h2.215a2.863 2.863 0 00-.196-.326zm-.521-.651h-.75a2.934 2.934 0 00-.29.325h1.364a3.034 3.034 0 01-.325-.326zm.846 1.302h-2.442a1.156 1.156 0 00-.059.326h2.571c-.038-.098-.038-.228-.071-.325zm-2.149 1.627h1.823a2.863 2.863 0 00.196-.326H14.36a2.863 2.863 0 00.196.326zm-.326-.65h2.442a1.156 1.156 0 00.065-.327h-2.571c.038.095.038.23.064.326zm.846 1.3h.75a2.934 2.934 0 00.292-.325h-1.366a3.034 3.034 0 01.324.327z" fill="#e74c3c"/>
    </g>
  </g>
</svg>
