<svg xmlns="http://www.w3.org/2000/svg" width="309.685" height="124.384" viewBox="0 0 309.685 124.384"><g transform="translate(-1747.005 -7881.019)"><path d="M1760.3,7881.034h69.15v55.32H1760.3Z" fill="#f6f6f6"/><path d="M1824.263,7881.034h-60.506a3.718,3.718,0,0,0-3.457,3.458v5.186h69.15v-3.458Q1829.45,7881.035,1824.263,7881.034Z" fill="#265697"/><path d="M1760.3,7928.575v3.457q0,5.187,5.186,5.187h58.777q5.187,0,5.187-5.187v-3.457Z" fill="#d97b16"/><path d="M1808.532,7900.4a11.955,11.955,0,0,0-4.365-.778c-4.841,0-8.255,2.507-8.255,6.051-.043,2.636,2.42,4.106,4.278,4.97,1.9.908,2.55,1.47,2.55,2.291,0,1.21-1.512,1.772-2.938,1.772a10.205,10.205,0,0,1-4.625-.951l-.648-.3-.692,4.106a15.285,15.285,0,0,0,5.446.994c5.143,0,8.471-2.463,8.514-6.267,0-2.074-1.3-3.673-4.106-4.97-1.729-.864-2.766-1.426-2.766-2.29,0-.778.908-1.556,2.809-1.556a9.116,9.116,0,0,1,3.674.691l.432.216.692-3.976" fill="#265697"/><path d="M1821.065,7899.964h-3.76a2.447,2.447,0,0,0-2.55,1.513l-7.261,16.812h5.1s.821-2.248,1.038-2.766h6.266c.13.648.605,2.766.605,2.766h4.538Zm-6.007,11.8c.389-1.037,1.945-5.143,1.945-5.143-.044.043.389-1.081.648-1.729l.346,1.6s.95,4.365,1.123,5.316Z" fill="#265697"/><path d="M1785.885,7918.289l3.069-18.325h4.883l-3.068,18.325Z" fill="#265697"/><path d="M1781.822,7899.964l-4.8,12.49-.518-2.55a14.279,14.279,0,0,0-6.786-7.693l4.409,16.035h5.186l7.693-18.282h-5.187" fill="#265697"/><path d="M1772.574,7899.921h-7.909l-.044.389c6.137,1.512,10.2,5.186,11.886,9.594l-1.729-8.427a2.032,2.032,0,0,0-2.2-1.556" fill="#d97b16"/><path d="M1827.272,7949.216h-74.916a5.367,5.367,0,0,0-5.351,5.351v45.484a5.367,5.367,0,0,0,5.351,5.352h74.916a5.367,5.367,0,0,0,5.351-5.352v-45.484A5.367,5.367,0,0,0,1827.272,7949.216Z" fill="#3498d8" fill-rule="evenodd"/><path d="M1764.931,7978.112h4.281l-2.14-5.351Zm59.665-10.167h-10.969l-2.676,2.943-2.408-2.943h-23.277l-2.141,4.816-2.14-4.816h-9.365v2.14l-1.07-2.14h-8.027l-7.759,18.729h9.365l1.07-2.943h2.675l1.071,2.943h10.434v-2.141l.8,2.141h5.351l.8-2.408v2.408h21.4l2.676-2.943,2.408,2.943h10.97l-6.957-9.365ZM1792.222,7984h-2.943v-10.435L1784.73,7984h-2.675l-4.549-10.435V7984h-6.153l-1.071-2.943h-6.421l-1.07,2.943h-3.478l5.618-13.378h4.549l5.083,12.575V7970.62h5.084l4.013,9.1,3.746-9.1h5.084V7984Zm26.488,0H1814.7l-3.478-4.548L1807.2,7984h-12.04V7970.62h12.308l3.746,4.281,4.013-4.281h3.746l-5.887,6.689Zm-20.6-10.7v2.408h6.689v2.675h-6.689v2.676h7.492l3.478-4.013-3.211-3.746Z" fill="#fff" fill-rule="evenodd"/><path d="M2056.69,7998.378a7.044,7.044,0,0,1-7.023,7.023h-70.231a7.044,7.044,0,0,1-7.023-7.023v-42.139a7.043,7.043,0,0,1,7.023-7.023h70.231a7.043,7.043,0,0,1,7.023,7.023Z" fill="#074c95" fill-rule="evenodd"/><path d="M2023.134,7977.294a11.8,11.8,0,1,0-11.917,11.8A11.778,11.778,0,0,0,2023.134,7977.294Zm-11.494,12.875c-.1-.021-1.183-.056-1.28-.062a11.839,11.839,0,0,1-2.96-.552,12.818,12.818,0,0,1-5.982-3.951,12.35,12.35,0,0,1-2.971-6.745c-.033-.285-.076-.57-.113-.855v-1.242a2.411,2.411,0,0,0,.06-.263c.07-.564.108-1.133.209-1.692a12.179,12.179,0,0,1,3.259-6.422,12.609,12.609,0,0,1,7.93-3.825c.286-.031,1.612-.075,1.9-.111,2.467,0,6.544.053,6.64.063.378.041.758.056,1.132.117a13.454,13.454,0,0,1,7.064,3.291,12.34,12.34,0,0,1,4.217,10.408,10.349,10.349,0,0,1-1.11,4.109,13.588,13.588,0,0,1-10.786,7.618C2018.578,7990.1,2014.106,7990.169,2011.64,7990.169Z" fill="#fff"/><path d="M2014.053,7984.163v-13.744a7.365,7.365,0,0,1,0,13.744Z" fill="#fff" fill-rule="evenodd"/><path d="M2008.624,7984.167a7.373,7.373,0,0,1,0-13.755Z" fill="#fff" fill-rule="evenodd"/><path d="M2035.076,7930.181a7.043,7.043,0,0,1-7.023,7.023h-70.231a7.043,7.043,0,0,1-7.023-7.023v-42.139a7.044,7.044,0,0,1,7.023-7.023h70.231a7.043,7.043,0,0,1,7.023,7.023Z" fill-rule="evenodd"/><path d="M2020.009,7911.372a3.923,3.923,0,0,1-3.842,3.133,4,4,0,0,1-1.244-.2l-.871,2.6a6.673,6.673,0,0,0,8.645-4.984Zm-8.257,4.205,1.816-2.055a3.922,3.922,0,0,1,0-5.871l-1.817-2.055a6.663,6.663,0,0,0,0,9.981Zm3.172-8.71a3.924,3.924,0,0,1,5.085,2.937l2.688-.548a6.667,6.667,0,0,0-8.641-4.99l.868,2.6Zm-8.047-5.944v12.863l2.232.925-1.056,2.537-2.209-.917a2.524,2.524,0,0,1-1.087-.913,2.888,2.888,0,0,1-.427-1.6v-12.9Zm-10.169,3a6.663,6.663,0,0,0-5.683,10.3l12.066-5.158a6.662,6.662,0,0,0-6.383-5.139Zm-4,7.073a2.471,2.471,0,0,1-.02-.472,3.921,3.921,0,0,1,6.916-2.471Zm6.638,2.388a3.916,3.916,0,0,1-2.8,1.122,3.866,3.866,0,0,1-2.025-.607l-1.458,2.323a6.651,6.651,0,0,0,8.2-.872Z" fill="#fff"/><path d="M1980.368,7910.361a6.432,6.432,0,0,1-8.331,4.8l-1.427,4.263a10.926,10.926,0,0,0,14.161-8.164Z" fill="#ed412f" fill-rule="evenodd"/><path d="M1966.817,7917.237l2.978-3.367a6.419,6.419,0,0,1,0-9.619l-2.98-3.365a10.919,10.919,0,0,0,0,16.351" fill="#1aa5df" fill-rule="evenodd"/><path d="M1971.974,7902.978a6.433,6.433,0,0,1,8.333,4.81l4.4-.9a10.929,10.929,0,0,0-14.16-8.175Z" fill="#ffca32" fill-rule="evenodd"/><path d="M1855.7,7949.216h93.649c2.882,0,5.2,2.005,5.2,4.5v47.2c0,2.49-2.32,4.495-5.2,4.495H1855.7c-2.882,0-5.2-2-5.2-4.495v-47.2C1850.5,7951.221,1852.821,7949.216,1855.7,7949.216Z" fill="#b82126"/><path d="M1879.066,7958.206h-10.785c-4.774.2-8.66,1.852-9.784,5.272-.585,1.783-.908,3.742-1.368,5.59-2.331,9.4-4.4,19.058-6.628,28.27h83.958c6.5,0,10.946-1.185,12.151-5.637.559-2.067,1.095-4.409,1.631-6.681,2.086-8.857,4.175-17.712,6.313-26.814h-75.488" fill="#b82126"/><path d="M1922.384,7981.586c-1.166.984-4.423,1.265-4.1-1.09.278-1.955,2.742-2.371,5.411-2.088A5.34,5.34,0,0,1,1922.384,7981.586Zm-3.679-7.626c-.112.54-.281,1.027-.421,1.544,1.334-.287,5.486-1.173,5.884.364a2.378,2.378,0,0,1-.26,1.452c-3.754-.308-6.816.225-7.619,2.542a2.659,2.659,0,0,0,1.209,3.5,5.526,5.526,0,0,0,5.832-1.407,5.16,5.16,0,0,0-.158,1.452h1.943a22.644,22.644,0,0,1,.577-4.358,15.085,15.085,0,0,0,.63-3.542C1926.158,7973.012,1921.379,7973.893,1918.7,7973.96Zm19.495,8.394a2.01,2.01,0,0,1-2.313-2.132c-.06-2.362,1.139-4.985,3.574-5.221a6.765,6.765,0,0,1,2.786.364C1941.483,7978.019,1941.758,7982.291,1938.2,7982.354Zm5.044-12.484a39.686,39.686,0,0,1-.781,4.223c-5.543-1.515-8.941,2.007-8.881,6.356a3.1,3.1,0,0,0,.781,2.269,5.779,5.779,0,0,0,5.569.41,3.712,3.712,0,0,0,.781-.675c.145-.159.377-.573.418-.449a8.825,8.825,0,0,0-.21,1.407h2.05a108.2,108.2,0,0,1,2.523-13.527Zm-57.854,11.758c-1.21,1.106-4.18,1.09-4.422-.77a8.059,8.059,0,0,1,.421-2.5c.174-.847.3-1.661.473-2.407,1.192-1.256,4.683-1.407,5.044.674a6.244,6.244,0,0,1-1.516,5Zm1.787-7.672a6.734,6.734,0,0,0-5.255.825c0,.031-.023.036-.054.038l.054-.038c.018-.3.141-.515.159-.818h-1.943c-.809,4.656-1.772,9.182-2.786,13.664h2.26c.328-1.746.544-3.6,1-5.221.52,1.719,3.887,1.391,5.307.726,2.932-1.373,5.2-7.9,1.259-9.172Zm10.72,3.268h-5.307a3.007,3.007,0,0,1,2.995-2.27c1.628-.05,2.793.521,2.312,2.274Zm-2.154-3.45a6.414,6.414,0,0,0-3.993,1.407,7.146,7.146,0,0,0-1.891,5.719c.408,3.147,4.943,3.032,8.566,2.27.063-.553.216-1.025.315-1.544a8.237,8.237,0,0,1-5.622.317c-1.16-.634-1.165-2.247-.78-3.632,2.438-.067,4.969-.054,7.409,0a5.826,5.826,0,0,0,.21-3.04c-.522-1.284-2.351-1.616-4.214-1.493Zm-19.861.182c-.062,0-.057.072-.052.137-.5,3.216-1.171,6.293-1.891,9.306h2.26c.544-3.238,1.166-6.407,1.944-9.439Zm58.957.045a3.7,3.7,0,0,0-4.308,1.452c.185-.45.195-1.041.367-1.5h-2q-.807,4.863-1.943,9.439h2.312a18.677,18.677,0,0,1,.521-3.405c.483-2.621,1.191-5.495,4.729-4.63.119-.436.169-.937.317-1.353Zm-25.379,7.174a4.148,4.148,0,0,1-.211-1.816,5.84,5.84,0,0,1,1.525-3.632,6.3,6.3,0,0,1,5.359-.272c.057-.539.182-1.023.26-1.544a9.629,9.629,0,0,0-7.461,1.225,6.978,6.978,0,0,0-1.787,6.445c.814,2.3,4.459,2.425,7.408,1.544.131-.463.2-.977.315-1.452-1.607.729-4.7,1.1-5.411-.5Zm-1.262-7.219a3.68,3.68,0,0,0-4.3,1.593c.166-.492.234-1.069.367-1.589h-2.006c-.489,3.27-1.207,6.343-1.891,9.439h2.26a32.545,32.545,0,0,1,1.155-6.083,3.19,3.19,0,0,1,3.768-2.054,3.417,3.417,0,0,1,.394.1c.019-.515.193-.913.253-1.4Zm-36.418-3.821c-.323,1.809-.687,3.585-1.041,5.358-2.341.02-4.732.1-6.99-.045.427-1.735.731-3.573,1.155-5.31h-2.52c-.9,4.425-1.725,8.922-2.732,13.259h2.576c.4-2.222.78-4.47,1.3-6.582q3.467-.144,6.935.045c-.434,2.2-.959,4.315-1.365,6.537h2.575c.827-4.5,1.7-8.942,2.731-13.259Zm6.409,2c.45-.267,1.041-1.49.367-2a1.426,1.426,0,0,0-1.04-.137,1.34,1.34,0,0,0-.893.409c-.286.335-.546,1.349-.1,1.726a1.809,1.809,0,0,0,1.681,0Z" fill="#fff"/><path d="M1927.531,7881.034h-74.913a5.367,5.367,0,0,0-5.351,5.351v45.483a5.367,5.367,0,0,0,5.351,5.351h74.913a5.367,5.367,0,0,0,5.351-5.351v-45.483A5.366,5.366,0,0,0,1927.531,7881.034Z" fill="#34495e" fill-rule="evenodd"/><path d="M1898.1,7909.127a18.728,18.728,0,1,1-18.728-18.729A18.728,18.728,0,0,1,1898.1,7909.127Z" fill="#e74c3c" fill-rule="evenodd"/><path d="M1919.505,7909.127a18.729,18.729,0,1,1-18.729-18.729A18.728,18.728,0,0,1,1919.505,7909.127Z" fill="#f1c40f" fill-rule="evenodd"/><path d="M1894.89,7899.762h-14.982a23.735,23.735,0,0,0-1.606,2.676H1896.5A23.717,23.717,0,0,0,1894.89,7899.762Zm-4.28-5.35h-6.154a24.054,24.054,0,0,0-2.408,2.675h11.237A24.988,24.988,0,0,1,1890.61,7894.412Zm6.956,10.7H1877.5a9.5,9.5,0,0,0-.535,2.676H1898.1C1897.833,7906.986,1897.833,7905.916,1897.566,7905.113Zm-17.658,13.378h14.982a23.77,23.77,0,0,0,1.606-2.676H1878.3A23.788,23.788,0,0,0,1879.908,7918.491Zm-2.676-5.351H1897.3a9.493,9.493,0,0,0,.535-2.676H1876.7C1876.965,7911.267,1876.965,7912.337,1877.232,7913.14Zm6.956,10.7h6.154a24.168,24.168,0,0,0,2.408-2.676h-11.237A24.894,24.894,0,0,1,1884.188,7923.842Z" fill="#e74c3c" fill-rule="evenodd"/></g></svg>