<svg xmlns="http://www.w3.org/2000/svg" width="297.51" height="108.682" viewBox="0 0 297.51 108.682"><g transform="translate(-2386.579 -2257.601)"><path d="M2716.246,2314.058a17.6,17.6,0,0,1-9.4,2.584c-6.579,0-10.773-4.921-10.773-11.705v-23.054c0-.775.485-1.163,1.244-1.389l6.945-2.035c.969-.291,1.454.1,1.454.888v6.24h9.842a1.159,1.159,0,0,1,1.26,1.244v5.233a1.158,1.158,0,0,1-1.26,1.244h-9.842v10.3c0,3.311.775,5.3,3.634,5.3a7.477,7.477,0,0,0,3.78-1.163,1.1,1.1,0,0,1,1.711.533l1.906,4.1A1.2,1.2,0,0,1,2716.246,2314.058Z" transform="translate(-186.283 -12.496)" fill="#8b8b8b"/><path d="M2785.907,2312.614c0,9.82-7.624,15.57-16.588,15.57s-16.588-5.75-16.588-15.57,7.623-15.555,16.588-15.555S2785.907,2302.793,2785.907,2312.614Zm-9.966,0c0-4.959-3.037-7.688-6.623-7.688s-6.623,2.729-6.623,7.688c0,4.975,3.037,7.688,6.623,7.688S2775.941,2317.588,2775.941,2312.614Z" transform="translate(-220.386 -23.75)" fill="#8b8b8b"/><path d="M2871.589,2298.332v28.485a1.027,1.027,0,0,1-1.115,1.115h-7.414a1.027,1.027,0,0,1-1.115-1.115v-5.386a10.468,10.468,0,0,1-10.45,6.713c-5.362-.373-10.418-4.3-10.418-11.048v-18.748a1.028,1.028,0,0,1,1.114-1.115h7.43a1.015,1.015,0,0,1,1.1,1.115v13.387c0,4.684,1.584,6.992,4.862,7.728,3.577.8,6.364-2,6.364-6.729v-14.4a1.015,1.015,0,0,1,1.115-1.1h7.414A1.016,1.016,0,0,1,2871.589,2298.332Z" transform="translate(-273.562 -23.854)" fill="#8b8b8b"/><path d="M2946.807,2298.5v7.335c0,.71-.4.937-1.066,1.082-1.788.155-8.025,3.247-8.109,9.172v10.722a1.027,1.027,0,0,1-1.114,1.115H2929.1a1.027,1.027,0,0,1-1.114-1.115v-28.485a1.015,1.015,0,0,1,1.114-1.1h7.414a1.015,1.015,0,0,1,1.114,1.1v7.363c1.136-4.9,5.589-8.3,7.947-8.3C2946.436,2297.39,2946.807,2297.7,2946.807,2298.5Z" transform="translate(-325.874 -23.854)" fill="#8b8b8b"/><g transform="translate(2509.281 2319.361)"><path d="M2705.246,2458.928h-8.727a1.729,1.729,0,0,1-1.723-1.732V2414.47a1.729,1.729,0,0,1,1.723-1.732h32.028a1.618,1.618,0,0,1,1.722,1.732v6.456a1.61,1.61,0,0,1-1.722,1.714h-21.58v9.664h20.149a1.618,1.618,0,0,1,1.722,1.732v6.132a1.618,1.618,0,0,1-1.722,1.732h-20.149v15.3A1.75,1.75,0,0,1,2705.246,2458.928Zm-8.727-45.209a.749.749,0,0,0-.746.75V2457.2a.749.749,0,0,0,.746.75h8.727a.757.757,0,0,0,.745-.75v-16.278h21.125a.658.658,0,0,0,.746-.75v-6.132a.658.658,0,0,0-.746-.75H2705.99v-11.628h22.556c.509,0,.746-.233.746-.732v-6.456a.657.657,0,0,0-.746-.75Z" transform="translate(-2694.796 -2412.738)" fill="#8b8b8b" stroke="#464545" stroke-miterlimit="10" stroke-width="1"/></g><g transform="translate(2583.534 2319.361)"><path d="M2905.317,2459.159a24.813,24.813,0,0,1-16.788-6.188,23.689,23.689,0,0,1,0-34.045,24.814,24.814,0,0,1,16.788-6.188c8.818,0,15.727,4.043,19.455,11.385a1.931,1.931,0,0,1,.174,1.522,1.854,1.854,0,0,1-1.019,1.06l-6.528,3.132a1.809,1.809,0,0,1-2.5-.853,11.425,11.425,0,0,0-10.212-6.066,13.034,13.034,0,0,0,0,26.06,11.413,11.413,0,0,0,10.2-6.048,1.818,1.818,0,0,1,2.5-.872l6.534,3.135a1.853,1.853,0,0,1,1.016,1.059,1.928,1.928,0,0,1-.173,1.521v0C2921.045,2455.116,2914.135,2459.159,2905.317,2459.159Zm0-45.444c-11.448,0-23.036,7.637-23.036,22.234,0,11.048,7.913,22.233,23.036,22.233,8.438,0,15.042-3.854,18.595-10.853a.989.989,0,0,0,.119-.758.937.937,0,0,0-.512-.493l-6.534-3.135c-.4-.186-.821-.257-1.255.473a12.474,12.474,0,0,1-11.041,6.54,14.011,14.011,0,0,1,0-28.015,12.484,12.484,0,0,1,11.051,6.558c.423.713.852.64,1.247.453l6.528-3.132a.939.939,0,0,0,.515-.494.989.989,0,0,0-.119-.758C2920.359,2417.57,2913.755,2413.715,2905.317,2413.715Z" transform="translate(-2881.314 -2412.738)" fill="#8b8b8b" stroke="#464545" stroke-miterlimit="10" stroke-width="1"/></g><g transform="translate(2632.124 2319.361)"><path d="M3013.817,2458.928h-8.746a1.72,1.72,0,0,1-1.7-1.732V2414.47a1.72,1.72,0,0,1,1.7-1.732h8.746a1.719,1.719,0,0,1,1.7,1.732V2457.2A1.72,1.72,0,0,1,3013.817,2458.928Zm-8.746-45.209a.749.749,0,0,0-.728.75V2457.2a.749.749,0,0,0,.728.75h8.746a.749.749,0,0,0,.727-.75V2414.47a.749.749,0,0,0-.727-.75Z" transform="translate(-3003.368 -2412.738)" fill="#8b8b8b" stroke="#464545" stroke-miterlimit="10" stroke-width="1"/></g><g transform="translate(2648.922 2319.361)"><path d="M3078.508,2458.928h-31.224a1.729,1.729,0,0,1-1.722-1.732V2414.47a1.728,1.728,0,0,1,1.722-1.732h8.727a1.75,1.75,0,0,1,1.722,1.732v33.6h20.774a1.619,1.619,0,0,1,1.722,1.732v7.395A1.619,1.619,0,0,1,3078.508,2458.928Zm-31.224-45.209a.749.749,0,0,0-.746.75V2457.2a.749.749,0,0,0,.746.75h31.224a.657.657,0,0,0,.746-.75V2449.8a.658.658,0,0,0-.746-.75h-21.751V2414.47a.758.758,0,0,0-.746-.75Z" transform="translate(-3045.563 -2412.738)" fill="#8b8b8b" stroke="#464545" stroke-miterlimit="10" stroke-width="1"/></g><g transform="translate(2539.603 2319.2)"><path d="M2816.742,2458.846h-9.56a2.028,2.028,0,0,1-2.012-1.408l-11-27.459-10.795,27.467a2.1,2.1,0,0,1-2.045,1.4h-8.647a1.7,1.7,0,0,1-1.508-.7,1.734,1.734,0,0,1-.012-1.656l18.816-42.811a2.142,2.142,0,0,1,2.037-1.347h2.915l-.194.642a9.393,9.393,0,0,0-.4,2.714,9.2,9.2,0,0,0,9.113,9.265c.112,0,.221-.008.331-.016l.5-.029,13.943,31.582a1.7,1.7,0,0,1,0,1.671A1.667,1.667,0,0,1,2816.742,2458.846Zm-22.578-31.463,11.912,29.683a1.059,1.059,0,0,0,1.106.787h9.56a.774.774,0,0,0,.661-.232.834.834,0,0,0-.068-.724l-13.662-30.958c-.073,0-.147.007-.221.007a10.185,10.185,0,0,1-10.089-10.257,10.4,10.4,0,0,1,.272-2.364h-1.615a1.165,1.165,0,0,0-1.152.772l-18.811,42.8a.793.793,0,0,0-.059.708.8.8,0,0,0,.689.246h8.647a1.134,1.134,0,0,0,1.141-.784Z" transform="translate(-2770.963 -2412.333)" fill="#8b8b8b" stroke="#464545" stroke-miterlimit="10" stroke-width="1"/></g><g transform="translate(2566.988 2314.997)"><path d="M2847.237,2416.829a7.528,7.528,0,1,1,7.486-7.528A7.515,7.515,0,0,1,2847.237,2416.829Zm0-14.074a6.546,6.546,0,1,0,6.509,6.546A6.535,6.535,0,0,0,2847.237,2402.756Z" transform="translate(-2839.752 -2401.774)" fill="#8b8b8b" stroke="#464545" stroke-miterlimit="10" stroke-width="1"/></g><g transform="translate(2386.579 2257.601)"><g transform="translate(69.617 23.645)"><path d="M2569.118,2332.33a7.665,7.665,0,1,1,5.424-2.243A7.647,7.647,0,0,1,2569.118,2332.33Zm0-12.823a5.154,5.154,0,1,0,3.647,1.508A5.141,5.141,0,0,0,2569.118,2319.507Z" transform="translate(-2561.451 -2316.995)" fill="#8b8b8b"/></g><path d="M2473.617,2264.194a45.941,45.941,0,0,1,26.886,8.5,2.38,2.38,0,0,0,3.088-.244l1.289-1.289a2.374,2.374,0,0,0-.286-3.609,53.182,53.182,0,0,0-61.953,0,2.374,2.374,0,0,0-.287,3.61l1.342,1.342a2.375,2.375,0,0,0,3.042.269A48.455,48.455,0,0,1,2473.617,2264.194Z" transform="translate(-2419.728 -2257.601)" fill="#8b8b8b"/><g transform="translate(16.438 35.299)"><path d="M2480.089,2349.615a11.333,11.333,0,0,0-11.65-2.755l-38.491,12.795a3.017,3.017,0,0,0-1.591,4.509l.142.215,41.253-13.572a7.236,7.236,0,0,1,9.146,9.145l-13.787,41.076.182.147a2.992,2.992,0,0,0,1.877.655,3.25,3.25,0,0,0,.705-.078,3.026,3.026,0,0,0,2.174-1.994l12.8-38.493h0A11.362,11.362,0,0,0,2480.089,2349.615Z" transform="translate(-2427.87 -2346.271)" fill="#8b8b8b"/><path d="M2480.453,2371.389a4.108,4.108,0,0,0-5.192-5.193L2436.308,2379l2.068,2.068a3.03,3.03,0,0,0,3.1.739l34.994-11.632-11.639,34.987a3.029,3.029,0,0,0,.739,3.1l1.859,1.859,13.023-38.734Z" transform="translate(-2432.949 -2358.136)" fill="#8b8b8b"/></g><path d="M2393.172,2345.573a45.944,45.944,0,0,1,8.5-26.886,2.38,2.38,0,0,0-.244-3.089l-1.289-1.289a2.375,2.375,0,0,0-3.609.286,53.183,53.183,0,0,0,0,61.954,2.375,2.375,0,0,0,3.61.287l1.342-1.342a2.376,2.376,0,0,0,.269-3.042A48.453,48.453,0,0,1,2393.172,2345.573Z" transform="translate(-2386.579 -2291.313)" fill="#8b8b8b"/><path d="M2473.615,2498.147a45.94,45.94,0,0,1-26.886-8.5,2.379,2.379,0,0,0-3.088.244l-1.289,1.289a2.374,2.374,0,0,0,.286,3.609,53.182,53.182,0,0,0,61.953,0,2.375,2.375,0,0,0,.288-3.61l-1.342-1.342a2.376,2.376,0,0,0-3.042-.269A48.455,48.455,0,0,1,2473.615,2498.147Z" transform="translate(-2419.728 -2396.964)" fill="#8b8b8b"/><path d="M2627.124,2345.574a45.942,45.942,0,0,1-8.5,26.886,2.38,2.38,0,0,0,.245,3.088l1.289,1.289a2.374,2.374,0,0,0,3.609-.286,53.18,53.18,0,0,0,0-61.953,2.374,2.374,0,0,0-3.61-.287l-1.342,1.342a2.375,2.375,0,0,0-.269,3.042A48.457,48.457,0,0,1,2627.124,2345.574Z" transform="translate(-2525.941 -2291.313)" fill="#8b8b8b"/></g></g></svg>