<svg xmlns="http://www.w3.org/2000/svg" width="463" height="94.459" viewBox="0 0 463 94.459"><g transform="translate(58 -210)"><rect width="463" height="94" transform="translate(-58 210)" fill="none"/><g transform="translate(-431.439 -539.25)"><g transform="translate(481.681 769.474)"><path d="M656.425,847.207a24.854,24.854,0,0,1-13.275,3.649c-9.289,0-15.212-6.949-15.212-16.529V801.774c0-1.095.684-1.642,1.757-1.962l9.807-2.874c1.369-.41,2.053.137,2.053,1.255V807h13.9a1.636,1.636,0,0,1,1.779,1.757v7.39a1.636,1.636,0,0,1-1.779,1.756h-13.9V832.45c0,4.676,1.095,7.481,5.132,7.481a10.555,10.555,0,0,0,5.337-1.642,1.547,1.547,0,0,1,2.417.752l2.692,5.793a1.693,1.693,0,0,1-.708,2.373Z" transform="translate(-627.938 -796.802)" fill="#464545"/></g><g transform="translate(513.532 779.985)"><path d="M749.672,843.478c0,13.867-10.765,21.986-23.424,21.986s-23.424-8.119-23.424-21.986,10.765-21.964,23.424-21.964S749.672,829.611,749.672,843.478Zm-14.072,0c0-7-4.288-10.857-9.351-10.857s-9.351,3.855-9.351,10.857c0,7.024,4.288,10.856,9.351,10.856S735.6,850.5,735.6,843.478Z" transform="translate(-702.825 -821.514)" fill="#464545"/></g><g transform="translate(373.437 749.249)"><g transform="translate(189.758 30.834)"><path d="M862.678,823.3v40.222A1.451,1.451,0,0,1,861.1,865.1H850.635a1.45,1.45,0,0,1-1.573-1.574v-7.6c-2.317,5.54-7.629,9.974-14.757,9.479-7.571-.527-14.711-6.067-14.711-15.6V823.319a1.451,1.451,0,0,1,1.574-1.574H831.66a1.433,1.433,0,0,1,1.551,1.574v18.9c0,6.615,2.237,9.873,6.866,10.913,5.051,1.134,8.987-2.818,8.987-9.5V823.3a1.433,1.433,0,0,1,1.573-1.551H861.1a1.433,1.433,0,0,1,1.578,1.551Z" transform="translate(-819.594 -821.745)" fill="#464545"/></g><g transform="translate(238.616 30.834)"><path d="M961.038,823.54V833.9c0,1-.571,1.323-1.505,1.528-2.526.219-11.332,4.585-11.45,12.952v15.14a1.45,1.45,0,0,1-1.574,1.574H936.04a1.45,1.45,0,0,1-1.573-1.574V823.3a1.433,1.433,0,0,1,1.573-1.551h10.469a1.433,1.433,0,0,1,1.574,1.551v10.4c1.6-6.918,7.892-11.726,11.222-11.726C960.513,821.966,961.038,822.4,961.038,823.54Z" transform="translate(-934.467 -821.745)" fill="#464545"/></g><g transform="translate(61.02 20.725)"><path d="M523.627,811.418a6.719,6.719,0,1,1,4.754-1.966,6.719,6.719,0,0,1-4.754,1.966Zm0-11.239a4.518,4.518,0,1,0,3.2,1.322A4.518,4.518,0,0,0,523.627,800.179Z" transform="translate(-516.907 -797.978)" fill="#48b9de"/></g><g transform="translate(19.218)"><path d="M446.638,755.028a40.265,40.265,0,0,1,23.566,7.453,2.085,2.085,0,0,0,2.707-.215l1.13-1.129a2.081,2.081,0,0,0-.251-3.164,46.615,46.615,0,0,0-54.3,0,2.081,2.081,0,0,0-.252,3.164l1.176,1.176a2.082,2.082,0,0,0,2.667.235A42.469,42.469,0,0,1,446.638,755.028Z" transform="translate(-418.622 -749.249)" fill="#48b9de"/></g><g transform="translate(14.408 30.941)"><path d="M453.085,824.927a9.934,9.934,0,0,0-10.212-2.415l-33.738,11.215a2.645,2.645,0,0,0-1.394,3.952l.124.189,36.159-11.9a6.342,6.342,0,0,1,8.016,8.016l-12.084,36,.16.129a2.625,2.625,0,0,0,1.645.575,2.875,2.875,0,0,0,.618-.068,2.653,2.653,0,0,0,1.9-1.748l11.215-33.74h0a9.958,9.958,0,0,0-2.414-10.205Z" transform="translate(-407.314 -821.996)" fill="#48b9de"/><g transform="translate(2.944 6.879)"><path d="M452.93,842.907a3.6,3.6,0,0,0-4.551-4.551L414.236,849.58l1.813,1.813a2.657,2.657,0,0,0,2.719.647l30.672-10.2-10.2,30.667a2.655,2.655,0,0,0,.647,2.718l1.629,1.629L452.931,842.9Z" transform="translate(-414.236 -838.17)" fill="#48b9de"/></g></g><g transform="translate(0 19.544)"><path d="M379.216,823.216a40.269,40.269,0,0,1,7.453-23.566,2.086,2.086,0,0,0-.214-2.707l-1.129-1.129a2.081,2.081,0,0,0-3.164.251,46.613,46.613,0,0,0,0,54.3,2.081,2.081,0,0,0,3.164.252l1.176-1.176a2.082,2.082,0,0,0,.236-2.667A42.468,42.468,0,0,1,379.216,823.216Z" transform="translate(-373.437 -795.201)" fill="#48b9de"/></g><g transform="translate(19.218 80.793)"><path d="M446.637,947.1a40.263,40.263,0,0,1-23.566-7.453,2.086,2.086,0,0,0-2.707.214l-1.13,1.13a2.081,2.081,0,0,0,.251,3.163,46.615,46.615,0,0,0,54.3,0,2.081,2.081,0,0,0,.252-3.164l-1.176-1.176a2.082,2.082,0,0,0-2.667-.235,42.467,42.467,0,0,1-23.557,7.521Z" transform="translate(-418.622 -939.209)" fill="#48b9de"/></g><g transform="translate(80.793 19.544)"><path d="M571.292,823.217a40.268,40.268,0,0,1-7.453,23.566,2.086,2.086,0,0,0,.214,2.707l1.13,1.129a2.081,2.081,0,0,0,3.163-.25,46.614,46.614,0,0,0,0-54.3,2.081,2.081,0,0,0-3.164-.252l-1.176,1.176a2.083,2.083,0,0,0-.236,2.667,42.468,42.468,0,0,1,7.522,23.557Z" transform="translate(-563.397 -795.2)" fill="#48b9de"/></g><g transform="translate(278.692 22.221)"><path d="M1063.86,840.174v-6.259a1.87,1.87,0,0,0-1.97-1.98h-20.35V822.5h21.81a1.861,1.861,0,0,0,1.971-1.962V813.95a1.87,1.87,0,0,0-1.971-1.98h-32.685a1.977,1.977,0,0,0-1.971,1.98v43.6a1.978,1.978,0,0,0,1.971,1.981h8.906a2,2,0,0,0,1.969-1.981v-15.4h20.35a1.87,1.87,0,0,0,1.97-1.976Zm-33.745-26.226a.551.551,0,0,1,.549-.553h32.685c.4,0,.549.155.549.553v6.588c0,.389-.149.534-.549.534h-23.231v12.292h21.772c.4,0,.549.155.549.552v6.259c0,.4-.154.553-.549.553h-21.772v16.825a.558.558,0,0,1-.548.553h-8.906a.552.552,0,0,1-.549-.553Z" transform="translate(-1028.694 -807.514)" fill="#464545"/><path d="M1230.93,822.783a11.442,11.442,0,0,1,10.239,6.086,2.064,2.064,0,0,0,2.823.953l6.66-3.2a2.1,2.1,0,0,0,1.15-1.206,2.174,2.174,0,0,0-.188-1.718c-3.842-7.567-10.961-11.734-20.044-11.734a25.533,25.533,0,0,0-17.276,6.37,24.387,24.387,0,0,0,0,35.059,25.534,25.534,0,0,0,17.276,6.37c9.083,0,16.2-4.168,20.044-11.736a2.174,2.174,0,0,0,.188-1.717,2.094,2.094,0,0,0-1.145-1.2l-6.67-3.2a2.058,2.058,0,0,0-2.834.982,11.418,11.418,0,0,1-10.224,6.06c-7.277,0-12.765-5.625-12.765-13.085S1223.65,822.783,1230.93,822.783Zm-14.177,13.085a14.192,14.192,0,0,0,14.177,14.508,12.952,12.952,0,0,0,11.45-6.778c.375-.63.677-.554,1.006-.4l6.669,3.2a.759.759,0,0,1,.412.38.82.82,0,0,1-.11.608c-3.588,7.067-10.26,10.96-18.787,10.96-15.294,0-23.3-11.307-23.3-22.477,0-14.756,11.72-22.477,23.3-22.477,8.527,0,15.2,3.893,18.787,10.959a.813.813,0,0,1,.11.61.761.761,0,0,1-.416.38l-6.661,3.2c-.331.157-.633.236-.995-.37a12.973,12.973,0,0,0-11.465-6.8,14.192,14.192,0,0,0-14.18,14.5Z" transform="translate(-1131.083 -807.514)" fill="#464545"/><path d="M1334.32,811.968h-8.92a1.968,1.968,0,0,0-1.952,1.98v43.6a1.968,1.968,0,0,0,1.952,1.981h8.925a1.968,1.968,0,0,0,1.951-1.981v-43.6A1.968,1.968,0,0,0,1334.32,811.968Zm-9.455,1.98a.549.549,0,0,1,.53-.553h8.925a.549.549,0,0,1,.529.553v43.6a.549.549,0,0,1-.529.553h-8.92a.549.549,0,0,1-.53-.553Z" transform="translate(-1198.084 -807.514)" fill="#464545"/><path d="M1397.59,848.025H1376.6V813.948a2,2,0,0,0-1.97-1.98h-8.906a1.977,1.977,0,0,0-1.97,1.98v43.6a1.978,1.978,0,0,0,1.97,1.981h31.864a1.87,1.87,0,0,0,1.97-1.981V850a1.87,1.87,0,0,0-1.968-1.975Zm-32.413-34.077a.551.551,0,0,1,.548-.553h8.906a.558.558,0,0,1,.548.553v35.5h22.41c.4,0,.548.155.548.553v7.547c0,.4-.154.553-.548.553h-31.864a.551.551,0,0,1-.548-.553Z" transform="translate(-1221.248 -807.514)" fill="#464545"/><path d="M1135.86,824.541l-.06-.135-.691.041c-.1.006-.193.013-.291.013a9.176,9.176,0,0,1-9.087-9.242,9.373,9.373,0,0,1,.4-2.707l.28-.93h-3.261a2.391,2.391,0,0,0-2.273,1.5l-19.2,43.64a1.975,1.975,0,0,0,.029,1.891,1.936,1.936,0,0,0,1.718.811h8.824a2.345,2.345,0,0,0,2.284-1.563l10.82-27.483,11.023,27.472a2.267,2.267,0,0,0,2.252,1.574h9.757a1.9,1.9,0,0,0,1.688-.8,1.929,1.929,0,0,0,.019-1.906Zm13.016,33.307c-.032.051-.173.137-.494.137h-9.757a.871.871,0,0,1-.931-.67l-12.356-30.738-12.126,30.741a.951.951,0,0,1-.967.667h-8.824c-.315,0-.479-.083-.524-.153s-.047-.242.076-.524l19.2-43.625a.976.976,0,0,1,.982-.665h1.384a10.866,10.866,0,0,0-.226,2.2,10.608,10.608,0,0,0,10.509,10.68h.09l13.883,31.411a.715.715,0,0,1,.085.539Z" transform="translate(-1070.506 -807.291)" fill="#464545"/><path d="M1175.01,817.284a7.895,7.895,0,1,0-7.852-7.9,7.895,7.895,0,0,0,7.852,7.9Zm-6.43-7.9a6.43,6.43,0,1,1,6.43,6.468,6.43,6.43,0,0,1-6.43-6.468Z" transform="translate(-1108.268 -801.495)" fill="#464545"/></g></g></g></g></svg>