<?xml version="1.0" encoding="utf-8"?>
<!-- Generator: Adobe Illustrator 26.0.2, SVG Export Plug-In . SVG Version: 6.00 Build 0)  -->
<svg version="1.1" id="Camada_1" xmlns="http://www.w3.org/2000/svg" xmlns:xlink="http://www.w3.org/1999/xlink" x="0px" y="0px"
	 viewBox="0 0 297 108" style="enable-background:new 0 0 297 108;" xml:space="preserve">
<g>
	<g>
		<path d="M102.97,63.47c0,1.34,0.49,1.7,2.19,1.82h1.34v6.44h-6.14c-3.77-0.12-5.17-1.64-5.11-5.35V49.97h-3.22v-6.5h3.22v-7.54
			h7.72v7.54h3.53v6.5h-3.53V63.47z"/>
		<path d="M139.44,57.94c0,8.27-6.75,14.77-15.38,14.77c-8.88,0-15.26-6.26-15.26-15.02c0-8.94,6.26-15.08,15.38-15.08
			C133.06,42.62,139.44,49.06,139.44,57.94z M116.58,57.69c0,4.86,3.04,8.15,7.54,8.15c4.44,0,7.54-3.34,7.54-8.02
			c0-5.11-2.86-8.27-7.48-8.27C119.62,49.55,116.58,52.77,116.58,57.69z"/>
		<path d="M168.07,43.59V61.4c0,4.13-0.85,6.44-3.16,8.39c-2.25,1.88-5.41,2.92-9.12,2.92c-3.89,0-7.23-1.09-9.42-3.1
			c-2.01-1.82-2.98-4.5-2.98-8.21V43.59h7.72v17.33c0,3.16,1.88,5.29,4.68,5.29c2.86,0,4.56-1.82,4.56-4.8V43.59H168.07z"/>
		<path d="M181.69,43.59v4.13c0.79-2.07,1.34-2.92,2.49-3.77c1.22-0.85,2.86-1.34,4.56-1.34c0.18,0,0.49,0,0.91,0.06v7.9
			c-0.61-0.06-1.22-0.12-1.64-0.12c-2.13,0-4.07,0.97-5.17,2.55c-0.91,1.28-1.15,2.49-1.15,5.17v13.56h-7.72V43.59H181.69z"/>
		<path d="M202.17,71.74h-7.72V50.09h-3.1v-6.5h3.1v-1.58c0-7.54,3.71-11.06,11.43-10.82v7.11c-2.67,0.3-3.71,1.34-3.71,3.71v1.58
			h3.71v6.5h-3.71V71.74z"/>
		<path d="M231.17,43.59h7.72v28.15h-7.72v-3.89c-2.61,3.34-5.65,4.86-9.79,4.86c-7.9,0-13.56-6.14-13.56-14.71
			c0-8.88,5.96-15.38,14.16-15.38c3.83,0,6.44,1.34,9.18,4.56V43.59z M216.09,57.88c0,4.92,3.22,8.63,7.42,8.63
			c4.32,0,7.78-4.01,7.78-8.88c0-4.98-3.16-8.51-7.72-8.51C219.19,49.12,216.09,52.71,216.09,57.88z M233.48,30.88l-8.02,8.45h-4.8
			l5.05-8.45H233.48z"/>
		<path d="M269.16,68.51c-3.22,2.92-6.57,4.19-10.82,4.19c-8.57,0-14.89-6.32-14.89-14.89c0-8.88,6.2-15.2,14.96-15.2
			c4.19,0,7.66,1.46,11.25,4.68l-5.17,4.68c-1.7-1.7-3.53-2.49-5.78-2.49c-4.26,0-7.42,3.47-7.42,8.09c0,4.8,3.22,8.27,7.72,8.27
			c2.01,0,3.47-0.61,5.47-2.37L269.16,68.51z"/>
		<path d="M280.65,35.63c0,2.37-1.82,4.19-4.25,4.19c-2.49,0-4.32-1.82-4.32-4.26c0-2.49,1.82-4.32,4.32-4.32
			C278.89,31.25,280.65,33.07,280.65,35.63z M280.22,71.74h-7.72V43.59h7.72V71.74z"/>
		<path d="M286.67,71.74V31.19h7.72v40.55H286.67z"/>
	</g>
</g>
<g>
	<path d="M15.15,76.05c0.65,2.91,2.14,7.05,5.52,10.28c3.19,3.04,7.5,4.77,12.84,5.16c-0.51-0.11-1.01-0.25-1.5-0.4
		c-3.36-1.04-6.38-2.96-8.97-5.72c-2.52-2.68-3.64-5.09-3.84-5.55c-0.09-0.21-2.23-5.25-0.67-11.65l0,0l0,0
		c-5.16-3.75-7.76-7.86-7.93-8.14c-2.26-2.78-4.07-7.02-5.23-12.25c-0.92-4.13-1.39-8.65-1.39-13.22c0-0.99,0.02-1.99,0.07-2.99
		c0.05-1.03,0.16-2.02,0.35-2.96c-1.1,3.06-1.74,6.61-1.9,10.61c-0.23,5.69,0.52,11.16,2.23,16.26c1.81,5.41,4.36,9.14,6.18,11.31
		c1.97,2.35,3.51,3.42,3.53,3.44l0.12,0.09l-0.01,0.14C14.54,70.56,14.46,72.97,15.15,76.05z"/>
	<path d="M72.12,66.71c1.2-3.93,0.91-7.25,0.32-9.59c0.05,1.35-0.17,2.94-1.19,4.51c-1.35,2.09-3.86,3.88-7.66,5.48
		c-2.73,1.15-6.22,2.21-10.37,3.15l0,0l-0.19,0.04c-0.02,0-0.04,0.01-0.06,0.01l-0.26,0.06l0-0.01c-2.26,0.5-4.73,0.98-7.35,1.41
		c-1.6,0.26-3.67,0.4-5.99,0.4c-2.67,0-5.58-0.18-8.4-0.53c-5.4-0.66-9.69-1.79-11.89-3.13v0.03l-0.08-0.06
		c-1.43,6.19,0.67,11.06,0.69,11.11c1.23,2.84,5.42,8.79,12.48,10.98c1.86,0.58,3.82,0.87,5.83,0.87c0.42,0,0.85-0.01,1.27-0.04
		c0.19-0.01,0.38-0.02,0.57-0.04c0.57-0.05,1.15-0.12,1.72-0.21c4.21-0.67,8.75-2.51,13.49-5.49
		C64.31,79.86,70.06,73.47,72.12,66.71z"/>
	<path d="M71.79,55.84c0,0,0-0.01,0-0.01l-0.04-0.17c-0.01-0.06-0.02-0.13-0.04-0.19c0-0.01-0.01-0.03-0.01-0.05
		c-0.01-0.05-0.02-0.1-0.03-0.15c0-0.02-0.01-0.05-0.02-0.07c-0.01-0.04-0.02-0.09-0.03-0.13c-0.01-0.03-0.01-0.06-0.02-0.09
		c-0.01-0.04-0.02-0.08-0.03-0.11l0,0l0-0.02c0,0,0,0,0,0l-0.01-0.03c-0.02-0.08-0.04-0.17-0.06-0.26l-0.06,0.02l0-0.26
		c-0.05-0.11-0.1-0.21-0.15-0.3c-0.64-1.26-1.83-2.57-3.35-3.7c0,0,0,0,0,0l-0.06-0.04c-0.04-0.03-0.08-0.06-0.12-0.09
		c-0.03-0.02-0.05-0.04-0.08-0.05l-0.03-0.02c-0.05-0.03-0.09-0.07-0.14-0.1c-0.66-0.45-1.36-0.87-2.12-1.25
		c-0.45-0.23-0.92-0.45-1.4-0.65c-0.09-0.04-0.17-0.07-0.26-0.11c-0.06-0.03-0.13-0.05-0.19-0.08c-0.07-0.03-0.14-0.05-0.21-0.08
		c-0.09-0.03-0.18-0.07-0.27-0.1c-0.64-0.23-1.3-0.45-1.98-0.63c-0.24-0.07-0.5-0.13-0.75-0.19c0,0,0,0,0,0
		c-0.09-0.02-0.18-0.04-0.26-0.06l-0.34-0.08c-0.05-0.01-0.1-0.02-0.15-0.03c-0.05-0.01-0.1-0.02-0.15-0.03l-0.39-0.08
		c-0.1-0.02-0.19-0.04-0.29-0.05c-1.65-0.29-3.34-0.44-5.08-0.44c-0.02,0-0.04,0-0.05,0c-0.03,0-0.06,0-0.1,0
		c-1.73,0-3.49,0.15-5.29,0.43l0,0c-0.01,0-0.01,0-0.02,0l-0.05,0.01l-0.19,0.03l0,0c-0.1,0.02-0.19,0.03-0.29,0.05
		c-0.08,0.01-0.17,0.03-0.25,0.04c-0.11,0.02-0.23,0.04-0.34,0.06c-0.08,0.02-0.16,0.03-0.25,0.05c-0.12,0.02-0.24,0.05-0.35,0.07
		c-0.08,0.02-0.15,0.03-0.23,0.05c-0.13,0.03-0.26,0.06-0.4,0.09c-0.06,0.01-0.13,0.03-0.19,0.04c-0.2,0.04-0.39,0.09-0.59,0.14
		c-0.01,0-0.03,0.01-0.04,0.01c-0.18,0.05-0.37,0.09-0.55,0.14c-0.07,0.02-0.13,0.04-0.2,0.05c-0.13,0.03-0.26,0.07-0.39,0.11
		c-0.08,0.02-0.16,0.05-0.24,0.07c-0.14,0.04-0.29,0.08-0.43,0.12c-0.01,0-0.01,0-0.02,0.01l-0.14,0.04l0,0
		c-0.23,0.07-0.45,0.14-0.67,0.21c-0.14,0.04-0.27,0.09-0.41,0.13l-0.02,0.01c-0.11,0.03-0.21,0.07-0.32,0.11
		c-0.35,0.12-0.71,0.24-1.07,0.38l-0.02,0.01c-0.01,0-0.01,0.01-0.02,0.01c-0.15,0.05-0.3,0.11-0.45,0.17
		c-0.07,0.03-0.15,0.06-0.22,0.09c-0.08,0.03-0.17,0.06-0.25,0.1c-0.08,0.03-0.17,0.07-0.25,0.1c-0.07,0.03-0.15,0.06-0.22,0.09
		c-0.08,0.03-0.17,0.07-0.26,0.1c-0.07,0.03-0.15,0.06-0.22,0.09c-0.09,0.04-0.17,0.07-0.26,0.11c-0.07,0.03-0.15,0.06-0.22,0.09
		c-0.08,0.04-0.17,0.07-0.25,0.11c-0.07,0.03-0.15,0.06-0.22,0.1c-0.08,0.04-0.17,0.07-0.25,0.11c-0.08,0.03-0.15,0.07-0.23,0.1
		c-0.08,0.04-0.17,0.08-0.25,0.11c-0.08,0.04-0.15,0.07-0.23,0.11c-0.08,0.04-0.16,0.08-0.25,0.12c-0.08,0.04-0.16,0.07-0.23,0.11
		c-0.08,0.04-0.16,0.08-0.24,0.12c-0.08,0.04-0.16,0.08-0.24,0.11c-0.08,0.04-0.16,0.08-0.24,0.12c-0.08,0.04-0.16,0.08-0.24,0.12
		c-0.08,0.04-0.16,0.08-0.24,0.12c-0.08,0.04-0.16,0.08-0.24,0.12c-0.08,0.04-0.16,0.08-0.23,0.12c-0.08,0.04-0.16,0.09-0.24,0.13
		c-0.08,0.04-0.15,0.08-0.23,0.12c-0.08,0.04-0.16,0.09-0.25,0.13c-0.08,0.04-0.15,0.08-0.23,0.13c-0.08,0.04-0.16,0.09-0.25,0.14
		c-0.08,0.04-0.15,0.08-0.23,0.13c-0.12,0.07-0.23,0.13-0.35,0.2c-0.82,0.47-1.62,0.95-2.37,1.44c-0.06,0.04-0.11,0.07-0.16,0.11
		c-0.16,0.11-0.31,0.21-0.46,0.31c-1.25,0.85-2.42,1.76-3.48,2.69c-0.09,0.07-0.17,0.15-0.25,0.23c-0.39,0.35-0.77,0.71-1.13,1.08
		c-0.24,0.24-0.48,0.49-0.7,0.74c-0.34,0.37-0.67,0.75-0.98,1.12c-0.07,0.08-0.14,0.17-0.2,0.25c-0.07,0.08-0.13,0.17-0.2,0.25
		c-0.07,0.08-0.13,0.17-0.2,0.26c-0.06,0.08-0.13,0.17-0.19,0.25c-0.06,0.09-0.13,0.17-0.19,0.26c-0.06,0.09-0.13,0.18-0.19,0.26
		c-0.08,0.12-0.16,0.23-0.23,0.33c-0.02,0.04-0.05,0.07-0.07,0.1c-0.08,0.12-0.15,0.23-0.22,0.35c-0.06,0.09-0.11,0.18-0.16,0.27
		c-0.05,0.09-0.11,0.18-0.16,0.27c-0.16,0.27-0.31,0.54-0.46,0.81c-0.05,0.09-0.09,0.18-0.14,0.26c-0.05,0.09-0.09,0.18-0.13,0.27
		l-0.01,0.02c-0.01,0.02-0.01,0.03-0.02,0.05c-0.04,0.08-0.07,0.15-0.11,0.22c-0.04,0.09-0.08,0.17-0.12,0.26
		c-0.03,0.05-0.05,0.11-0.07,0.16c-0.31,0.69-0.58,1.4-0.81,2.11c-0.02,0.06-0.03,0.11-0.05,0.17l0,0.01
		c-0.02,0.05-0.03,0.09-0.04,0.14c-0.03,0.1-0.06,0.2-0.09,0.29c-0.03,0.1-0.06,0.2-0.08,0.29c-0.01,0.04-0.02,0.08-0.03,0.12
		c0.02,0.01,0.03,0.02,0.05,0.03c0.02,0.01,0.04,0.03,0.06,0.04c0.02,0.01,0.04,0.03,0.06,0.04c0.02,0.01,0.05,0.03,0.07,0.04
		c0.02,0.01,0.04,0.03,0.07,0.04c0.02,0.01,0.05,0.03,0.07,0.04c0.02,0.01,0.05,0.03,0.07,0.04c0.02,0.01,0.05,0.03,0.07,0.04
		c0.03,0.01,0.05,0.03,0.08,0.04c0.02,0.01,0.05,0.03,0.07,0.04c0.03,0.01,0.06,0.03,0.09,0.04c0.02,0.01,0.05,0.02,0.07,0.04
		c0.03,0.02,0.07,0.03,0.1,0.05c0.02,0.01,0.04,0.02,0.06,0.03c0.05,0.03,0.11,0.05,0.17,0.08c2.33,1.09,6.15,2,10.74,2.56
		c5.33,0.65,10.79,0.7,14.24,0.12c2.73-0.45,5.29-0.94,7.59-1.46c0.02,0,0.04-0.01,0.06-0.01l0.01,0l0,0
		c4.87-1.1,8.83-2.36,11.79-3.77c2.93-1.39,4.98-2.96,6.08-4.67h0c1-1.55,1.32-3.26,0.99-5.38l-0.01-0.01l0-0.02L71.79,55.84
		L71.79,55.84C71.79,55.84,71.79,55.84,71.79,55.84z"/>
	<path d="M4.49,34.64c0,10.46,2.46,20.08,6.52,25.07l0.02,0.02c0.11,0.17,2.63,4.2,7.64,7.88c0.02-0.07,0.04-0.14,0.06-0.21
		c0.06-0.21,0.12-0.42,0.19-0.62c0.02-0.06,0.04-0.13,0.06-0.19c0.04-0.12,0.08-0.24,0.12-0.36c0.02-0.06,0.04-0.11,0.06-0.17
		c0.03-0.09,0.06-0.17,0.1-0.26c0.03-0.07,0.06-0.15,0.09-0.23l0.01-0.04c0.03-0.09,0.07-0.17,0.1-0.26
		c0.17-0.42,0.36-0.84,0.57-1.27c0.04-0.08,0.08-0.16,0.12-0.24c0.02-0.03,0.03-0.07,0.05-0.11c0.03-0.06,0.06-0.12,0.09-0.17
		l0.01-0.01c0.04-0.08,0.08-0.15,0.12-0.23c0.02-0.04,0.04-0.08,0.07-0.12l0.02-0.03c0.11-0.2,0.22-0.39,0.34-0.6
		c0.05-0.08,0.1-0.17,0.15-0.25c0.03-0.04,0.06-0.09,0.08-0.14c0.02-0.04,0.05-0.08,0.07-0.12l0-0.01c0.46-0.73,0.97-1.46,1.53-2.16
		c2.41-3.02,5.73-5.75,9.88-8.1c0.49-0.28,0.97-0.54,1.46-0.8c2.11-1.12,4.24-2.07,6.33-2.84c0.19-0.12,2.02-1.22,4.87-2.27
		c0.8-0.3,1.63-0.57,2.46-0.81l0.07-0.02c0,0,0.01,0,0.01,0l0.19-0.05l0,0c3.11-0.87,6.19-1.26,9.13-1.16
		c0.77,0.05,1.23-0.19,1.36-0.72c0.03-0.11,0.04-0.23,0.04-0.37c0-1.71-2.2-5.39-7.33-10.02c-4.46-4.02-12.55-10.07-25.77-16
		c-1.01-0.1-2.03-0.15-3.02-0.15c-2.91,0-5.58,0.43-7.94,1.29l0,0l-0.41,0.15c-0.01,0.01-0.03,0.01-0.04,0.02c0,0,0,0-0.01,0l0,0
		l0,0h0l-0.01,0.01l-0.04,0.01l-0.08,0.03l0,0c-0.75,0.3-1.47,0.65-2.15,1.04c-0.6,0.35-1.18,0.73-1.71,1.15l-0.02,0.02l-0.02,0.01
		c-0.5,0.41-0.98,0.87-1.44,1.36c-0.61,0.65-1.18,1.38-1.71,2.16l-0.01,0.01c-1.35,2.2-2.11,4.84-2.24,7.84
		C4.52,32.62,4.49,33.64,4.49,34.64z"/>
	<path d="M51.51,32.28c2.56,2.31,4.61,4.58,5.93,6.56c1.03,1.55,1.57,2.85,1.58,3.81c0,0.01,0,0.02,0,0.03
		c0,0.18-0.02,0.35-0.06,0.5c-0.19,0.78-0.86,1.18-1.89,1.11c-2.95-0.1-6.03,0.31-9.15,1.2l-0.01,0c-0.01,0-0.01,0-0.02,0
		c-0.02,0-0.03,0.01-0.05,0.01l-0.21,0.07l0,0c-0.74,0.22-1.48,0.46-2.21,0.74c-0.66,0.24-1.26,0.49-1.8,0.73l0.13-0.04
		c0.05-0.02,0.11-0.03,0.16-0.05c0.07-0.02,0.14-0.04,0.22-0.06c0.2-0.05,0.4-0.11,0.59-0.15c0.08-0.02,0.17-0.04,0.25-0.06
		c0.18-0.04,0.35-0.09,0.52-0.13c0.08-0.02,0.16-0.04,0.24-0.05c0.16-0.04,0.33-0.07,0.49-0.11l0.04-0.01
		c0.08-0.02,0.16-0.03,0.23-0.05c0.13-0.03,0.26-0.05,0.38-0.08c0.11-0.02,0.23-0.04,0.34-0.07l0.02-0.01l0.04,0
		c0.19-0.03,0.34-0.06,0.49-0.09c0.04-0.01,0.07-0.01,0.11-0.02c0.05-0.01,0.11-0.02,0.16-0.03c0,0,0,0,0.01,0c0,0,0,0,0.01,0
		c0,0,0,0,0,0c0,0,0.01,0,0.01,0c0.02,0,0.04-0.01,0.05-0.01c0,0,0,0,0,0c0,0,0,0,0,0l0.01,0c0,0,0,0,0,0
		c0.04-0.01,0.08-0.01,0.13-0.02c0.01,0,0.01,0,0.02,0L48.39,46c0.05-0.01,0.09-0.01,0.14-0.02c0.08-0.01,0.17-0.03,0.25-0.04
		l0.25-0.03c0,0,0,0,0,0c0,0,0,0,0,0c0.25-0.03,0.51-0.07,0.79-0.1c0.01,0,0.01,0,0.02,0c0,0,0.01,0,0.01,0
		c0.08-0.01,0.16-0.02,0.23-0.03c0.08-0.01,0.16-0.02,0.24-0.03c0.02,0,0.05,0,0.08-0.01c4.07-0.39,7.91-0.05,11.44,1.01
		c0.14,0.04,0.29,0.09,0.43,0.13c0.14,0.05,0.28,0.09,0.42,0.14c0,0,0,0,0,0c0,0,0,0,0,0c0.13,0.04,0.25,0.09,0.38,0.13
		c0.08,0.03,0.17,0.06,0.25,0.09c0.07,0.03,0.14,0.05,0.21,0.08c0.04,0.02,0.08,0.03,0.12,0.05l0.05,0.02h0.05l0.04,0.03
		c0.04,0.02,0.08,0.03,0.13,0.05c0.06,0.02,0.11,0.05,0.17,0.07l0.01,0c0,0,0,0,0,0c0.09,0.04,0.17,0.07,0.25,0.11
		c0.1,0.04,0.2,0.09,0.3,0.13c0,0,0.01,0,0.01,0c0.84,0.37,1.63,0.79,2.37,1.24c0.01,0.01,0.03,0.02,0.04,0.03
		c0.04,0.03,0.08,0.05,0.12,0.08c0,0,0,0,0,0l0.08,0.05c0.04,0.03,0.08,0.05,0.12,0.08l0.01,0c0.01,0.01,0.02,0.01,0.03,0.02
		l0.02,0.01c0.03,0.02,0.06,0.04,0.09,0.06l0,0c0.03,0.02,0.07,0.04,0.1,0.07l0.01,0c0.01,0.01,0.03,0.02,0.04,0.03l0.02,0.01
		c0.03,0.02,0.05,0.04,0.08,0.05l0,0l0.01,0.01c0.03,0.02,0.06,0.04,0.09,0.06l0.05,0.04c0.04,0.03,0.08,0.06,0.12,0.08
		c0.02,0.01,0.04,0.02,0.05,0.04l0.03,0.02c0.01,0.01,0.02,0.02,0.03,0.02c0.03,0.02,0.06,0.04,0.09,0.07l0.02,0.01
		c0.05,0.03,0.09,0.07,0.14,0.1c0.05,0.04,0.1,0.08,0.15,0.12c0.05,0.04,0.1,0.08,0.15,0.12c0.5,0.39,0.95,0.81,1.36,1.23
		c0.03,0.03,0.06,0.07,0.09,0.1c0.21,0.22,0.41,0.45,0.59,0.68l0,0c-0.04-0.09-0.08-0.19-0.11-0.28c-0.02-0.05-0.04-0.1-0.06-0.14
		c-0.06-0.15-0.13-0.3-0.19-0.45c-1.28-2.9-3.43-6.33-6.38-10.17C56.1,30.88,47.08,24.93,40.91,21.75c-2.04-1.05-4.09-1.97-6.1-2.73
		l-0.01,0c-0.1-0.04-0.2-0.08-0.3-0.11c-0.01,0-0.02-0.01-0.03-0.01c-0.09-0.03-0.18-0.07-0.27-0.1c-0.03-0.01-0.07-0.02-0.1-0.04
		c-0.06-0.02-0.13-0.05-0.19-0.07c-0.04-0.02-0.08-0.03-0.13-0.04c-0.05-0.02-0.11-0.04-0.16-0.06c-0.05-0.02-0.09-0.03-0.14-0.05
		c-0.05-0.02-0.1-0.04-0.15-0.05c-0.05-0.02-0.1-0.03-0.14-0.05c-0.05-0.02-0.09-0.03-0.14-0.05c-0.05-0.02-0.1-0.03-0.15-0.05
		c-0.04-0.01-0.09-0.03-0.13-0.04c-0.05-0.02-0.1-0.03-0.15-0.05c-0.04-0.01-0.09-0.03-0.13-0.04c-0.05-0.02-0.1-0.03-0.14-0.05
		c-0.04-0.01-0.09-0.03-0.13-0.04c-0.05-0.02-0.1-0.03-0.14-0.05c-0.04-0.01-0.09-0.03-0.13-0.04c-0.05-0.01-0.09-0.03-0.14-0.04
		c-0.04-0.01-0.08-0.03-0.13-0.04c-0.05-0.01-0.09-0.03-0.14-0.04c-0.04-0.01-0.08-0.03-0.12-0.04c-0.05-0.01-0.09-0.03-0.14-0.04
		c-0.04-0.01-0.08-0.02-0.12-0.04c-0.05-0.01-0.09-0.03-0.13-0.04c-0.04-0.01-0.08-0.02-0.12-0.03c-0.04-0.01-0.09-0.02-0.13-0.04
		c-0.04-0.01-0.08-0.02-0.12-0.03c-0.04-0.01-0.08-0.02-0.13-0.04c-0.04-0.01-0.08-0.02-0.12-0.03c-0.04-0.01-0.08-0.02-0.13-0.03
		c-0.04-0.01-0.08-0.02-0.12-0.03c-0.04-0.01-0.08-0.02-0.12-0.03c-0.04-0.01-0.08-0.02-0.12-0.03c-0.04-0.01-0.08-0.02-0.12-0.03
		c-0.04-0.01-0.08-0.02-0.11-0.03c-0.04-0.01-0.08-0.02-0.12-0.03c-0.04-0.01-0.08-0.02-0.11-0.03c-0.04-0.01-0.08-0.02-0.11-0.03
		c-0.04-0.01-0.08-0.02-0.11-0.03c-0.04-0.01-0.07-0.02-0.11-0.03c-0.04-0.01-0.07-0.02-0.11-0.03c-0.04-0.01-0.07-0.02-0.11-0.02
		c-0.04-0.01-0.07-0.02-0.11-0.02c-0.04-0.01-0.07-0.02-0.11-0.02c-0.04-0.01-0.07-0.02-0.11-0.02c-0.04-0.01-0.07-0.02-0.1-0.02
		c-0.03-0.01-0.07-0.01-0.1-0.02c-0.03-0.01-0.07-0.01-0.1-0.02c-0.03-0.01-0.07-0.01-0.1-0.02c-0.03-0.01-0.07-0.01-0.1-0.02
		C28.04,17,28.01,17,27.97,16.99c-0.03-0.01-0.07-0.01-0.1-0.02c-0.03-0.01-0.06-0.01-0.09-0.02c-0.03-0.01-0.07-0.01-0.1-0.02
		c-0.03-0.01-0.06-0.01-0.09-0.02c-0.03-0.01-0.07-0.01-0.1-0.02c-0.03,0-0.05-0.01-0.08-0.01c-0.03-0.01-0.07-0.01-0.1-0.02
		c-0.02,0-0.05-0.01-0.07-0.01c-0.03-0.01-0.07-0.01-0.1-0.02c-0.01,0-0.01,0-0.02,0l0.02,0.01l-0.11-0.01
		C39.48,22.6,47.19,28.39,51.51,32.28z"/>
</g>
</svg>
