<?xml version="1.0" encoding="utf-8"?>
<!-- Generator: Adobe Illustrator 26.1.0, SVG Export Plug-In . SVG Version: 6.00 Build 0)  -->
<svg version="1.1" id="Camada_1" xmlns="http://www.w3.org/2000/svg" xmlns:xlink="http://www.w3.org/1999/xlink" x="0px" y="0px"
	 viewBox="0 0 568.9 118.25" style="enable-background:new 0 0 568.9 118.25;" xml:space="preserve">
<style type="text/css">
	.st0{fill:#3DBDED;}
	.st1{fill:#482777;}
	.st2{fill:#F8D700;}
	.st3{fill:#E73577;}
	.st4{fill:#E99500;}
</style>
<path class="st0" d="M34.2,4.16c0,0-16.51,4-17.65,32.6c-0.34,8.4,0.73,16.83,3.4,24.81c5.36,16.02,14.89,22.58,14.89,22.58
	s-1.62,35.91,38.37,32.19s8.94-80.4,8.94-80.4L34.2,4.16z"/>
<path class="st1" d="M121.98,59.54c4.22,15.92-20.7,23.2-42.81,25.57c-11.76,1.26-28.72,0.42-37.43-4.58
	c-2.5,9.92,0.93,17.69,0.93,17.69c2.45,5.68,18.98,31.53,54.23,9.39C129.63,87.04,125.41,66.83,121.98,59.54z"/>
<path class="st2" d="M62.7,56.06c31.06-17.59,54.26-6.46,59.03,2.93c0.09,0.16,0.16,0.34,0.25,0.52c-0.8-3.03-2.24-5.52-3.07-7.03
	c-2.98-5.41-18.09-31.57-50.44-45.6C51.14-2.16,20.7-1.01,19.52,25.07c-0.76,16.77,2.81,34.29,9.9,43.01c0,0,3.99,6.55,12.18,12.43
	C43.56,72.79,49.11,63.75,62.7,56.06z"/>
<path class="st3" d="M81.95,85.79c41.66-6.9,42.4-17.29,40.04-26.24c-0.09-0.17-0.17-0.35-0.25-0.52
	c-4.75-9.37-27.93-20.49-58.93-2.93C49.24,63.78,43.7,72.8,41.75,80.52C48.39,85.23,70.95,87.6,81.95,85.79z"/>
<g>
	<path class="st4" d="M121.71,59.02c0.09,0.16,0.16,0.34,0.25,0.52c0.19,0.68,0.35,1.38,0.47,2.09
		c-0.72-4.74-3.85-11.75-11.78-22.09C88.14,10.22,58.86,2.28,51.8,2.13c42.89,19.26,56.85,42.48,48,41.93
		c-14-0.46-25.19,6.52-25.19,6.52l0,0C99.57,41.44,117.59,50.88,121.71,59.02z"/>
</g>
<g>
	<path class="st3" d="M164.35,77.68c0,2.6,0.95,3.31,4.26,3.55h2.6v12.55h-11.95c-7.34-0.24-10.06-3.2-9.95-10.42V51.41h-6.27V38.75
		h6.27V24.06h15.04v14.68h6.87v12.67h-6.87V77.68z"/>
	<path class="st3" d="M235.36,66.92c0,16.09-13.14,28.77-29.95,28.77c-17.28,0-29.71-12.19-29.71-29.24
		c0-17.4,12.19-29.35,29.95-29.35C222.94,37.08,235.36,49.63,235.36,66.92z M190.86,66.44c0,9.47,5.91,15.86,14.68,15.86
		c8.64,0,14.68-6.51,14.68-15.62c0-9.95-5.56-16.09-14.56-16.09C196.77,50.57,190.86,56.85,190.86,66.44z"/>
	<path class="st3" d="M291.11,38.98v34.68c0,8.05-1.66,12.55-6.16,16.33c-4.38,3.67-10.53,5.68-17.75,5.68
		c-7.58,0-14.09-2.13-18.35-6.04c-3.91-3.55-5.8-8.76-5.8-15.98V38.98h15.04v33.73c0,6.16,3.67,10.29,9.11,10.29
		c5.56,0,8.87-3.55,8.87-9.35V38.98H291.11z"/>
	<path class="st3" d="M317.62,38.98v8.05c1.54-4.02,2.6-5.68,4.85-7.34c2.36-1.66,5.56-2.6,8.87-2.6c0.36,0,0.95,0,1.78,0.12V52.6
		c-1.18-0.12-2.36-0.24-3.2-0.24c-4.14,0-7.93,1.89-10.06,4.97c-1.78,2.49-2.25,4.85-2.25,10.06v26.4h-15.04V38.98H317.62z"/>
	<path class="st3" d="M357.5,93.78h-15.04V51.64h-6.04V38.98h6.04v-3.07c0-14.68,7.22-21.55,22.26-21.07v13.85
		c-5.2,0.6-7.22,2.6-7.22,7.22v3.07h7.22v12.66h-7.22V93.78L357.5,93.78z"/>
	<path class="st3" d="M413.96,38.98H429v54.81h-15.04v-7.58c-5.09,6.51-11,9.47-19.06,9.47c-15.38,0-26.4-11.95-26.4-28.64
		c0-17.28,11.6-29.95,27.58-29.95c7.46,0,12.55,2.6,17.87,8.87v-6.98H413.96z M384.61,66.79c0,9.58,6.27,16.8,14.44,16.8
		c8.4,0,15.15-7.82,15.15-17.28c0-9.71-6.16-16.57-15.04-16.57C390.65,49.75,384.61,56.73,384.61,66.79z M418.46,14.24L402.84,30.7
		h-9.35l9.82-16.46H418.46z"/>
	<path class="st3" d="M487.94,87.5c-6.27,5.68-12.78,8.17-21.07,8.17c-16.69,0-29-12.31-29-29c0-17.28,12.07-29.59,29.11-29.59
		c8.17,0,14.91,2.84,21.89,9.11l-10.06,9.11c-3.31-3.31-6.87-4.85-11.24-4.85c-8.29,0-14.44,6.75-14.44,15.75
		c0,9.35,6.27,16.09,15.04,16.09c3.91,0,6.75-1.18,10.65-4.62L487.94,87.5z"/>
	<path class="st3" d="M510.31,23.48c0,4.62-3.55,8.17-8.29,8.17c-4.85,0-8.4-3.55-8.4-8.29c0-4.85,3.55-8.4,8.4-8.4
		S510.31,18.5,510.31,23.48z M509.48,93.78h-15.04v-54.8h15.04V93.78z"/>
	<path class="st3" d="M522.02,93.78V14.84h15.04v78.95L522.02,93.78L522.02,93.78z"/>
</g>
</svg>
