<svg xmlns="http://www.w3.org/2000/svg" viewBox="0 0 180.085 59.738" height="225.781" width="680.636">
  <path d="M25.724 10.282c-1.383-.998-2.86-1.82-4.374-2.526-.354-.156-.656-.406-.921-.681a3.322 3.322 0 01-.647-.976 3.994 3.994 0 01-.314-1.198 3.563 3.563 0 01.092-1.274c.111-.427.3-.808.553-1.13.253-.317.565-.561.924-.734a2.876 2.876 0 011.186-.276c.423-.007.852.104 1.278.294 1.822.849 3.585 1.835 5.249 3.032.197.13.373.288.53.462.159.173.3.357.423.55.245.387.421.796.502 1.24.17.874.01 1.75-.475 2.452a2.914 2.914 0 01-1.9 1.234 2.995 2.995 0 01-1.085-.012 2.475 2.475 0 01-.522-.173 4.242 4.242 0 01-.5-.284M47.292 45.662c-.503-.3-1.004-.62-1.505-.93l-.752-.469-.745-.517a2.806 2.806 0 01-1.138-1.692c-.149-.68-.052-1.385.303-1.966l.295-.483a2.268 2.268 0 011.456-1.057c.566-.12 1.182-.048 1.703.322l.663.462.68.423c.454.28.906.57 1.363.843 1.09.61 1.552 2.146 1.03 3.429l-.22.531c-.523 1.285-1.927 1.781-3.133 1.104M54.119 42.558c-.272-.118-.534-.26-.8-.392-.62-.313-1.067-.888-1.274-1.558a3.233 3.233 0 01.141-2.17c.305-.709.813-1.22 1.374-1.482.573-.276 1.205-.308 1.775-.02.245.122.485.253.739.363.584.267 1.006.805 1.227 1.464a3.426 3.426 0 01-.003 2.162c-.494 1.487-1.915 2.214-3.18 1.633M33.697 32.627c-.842-1.426-1.555-2.85-2.199-4.196a2.803 2.803 0 01-.174-1.975c.18-.61.57-1.153 1.124-1.483l.072-.043c1.11-.662 2.459-.209 3.043 1.018.608 1.27 1.249 2.546 1.977 3.779.176.296.3.614.364.945.061.334.079.671.047 1.002-.067.662-.342 1.309-.83 1.752l-.065.058a1.852 1.852 0 01-1.729.435 2.274 2.274 0 01-.893-.445 3.137 3.137 0 01-.737-.847M44.828 36.426c-.473-.35-.899-.772-1.344-1.164-.22-.2-.443-.395-.66-.599l-.622-.65-.623-.65c-.21-.212-.393-.458-.59-.685-.399-.454-.752-.953-1.121-1.436a2.847 2.847 0 01-.456-2.161 2.98 2.98 0 011.158-1.86 2.92 2.92 0 011.93-.58c.311.02.592.115.852.238.26.126.477.315.65.562.286.37.555.76.862 1.103.153.174.286.363.454.528l.49.507.485.513c.176.164.361.323.54.486.368.32.702.663 1.11.96.247.194.44.449.58.746.139.297.224.639.276.986a3.684 3.684 0 01-.419 2.21c-.386.708-.97 1.186-1.622 1.37-.33.1-.66.103-.988.03a2.344 2.344 0 01-.942-.454M66.176 53.773c-3.295-.942-6.582-2.028-9.855-3.339-1.445-.6-2.176-2.343-1.63-3.903.541-1.533 2.069-2.335 3.41-1.776 3.083 1.235 6.219 2.273 9.38 3.177 1.384.397 2.249 1.997 1.92 3.625-.326 1.616-1.771 2.633-3.225 2.216M74.78 47.926a119.814 119.814 0 01-9.404-2.499c-.68-.217-1.216-.738-1.522-1.403-.306-.67-.38-1.489-.168-2.284.213-.797.668-1.421 1.229-1.804.563-.386 1.23-.524 1.878-.317 2.957.922 5.974 1.712 9.023 2.397 1.33.31 2.227 1.847 1.962 3.49-.259 1.631-1.608 2.743-2.999 2.42M16.443 13.138a17.128 17.128 0 00-4.08-.694c-.333.005-.666.005-1 .001-.337.007-.675.033-1.047.069-.738.07-1.56.189-2.476.323a2.42 2.42 0 01-1.059-.085 2.717 2.717 0 01-.96-.523c-.585-.482-.96-1.196-1.028-2.027a3.376 3.376 0 01.621-2.21c.427-.601 1.037-1.025 1.742-1.13.914-.134 1.815-.266 2.708-.352.447-.043.89-.077 1.333-.087h1.33c1.774.073 3.542.378 5.267.886.333.103.63.283.877.516.244.247.435.558.567.895.264.676.28 1.476.025 2.256-.255.78-.718 1.4-1.226 1.782a2.124 2.124 0 01-.79.38c-.27.077-.54.082-.804 0M79.352 56.019c-1.204-.231-2.408-.46-3.608-.717-.36-.075-.69-.23-.977-.444a2.857 2.857 0 01-.721-.82 3.31 3.31 0 01-.392-2.261c.145-.816.564-1.49 1.117-1.92.552-.428 1.24-.622 1.942-.48 1.166.25 2.337.473 3.508.697 1.403.258 2.366 1.789 2.15 3.436-.217 1.644-1.57 2.775-3.02 2.509M25.04 18.16l-.419-.402a2.103 2.103 0 01-.518-.771 3.617 3.617 0 01-.205-1.023 4.286 4.286 0 01.562-2.323c.43-.746 1.052-1.243 1.744-1.42.35-.093.701-.088 1.044.003.34.093.686.252.971.528l.55.525c.292.266.494.617.628.985.131.371.203.753.172 1.156a3.345 3.345 0 01-.981 2.15c-.587.594-1.29.93-1.908 1.033-.301.048-.625.05-.897-.023a1.758 1.758 0 01-.742-.418M31.9 20.756l-.36-.658a3.218 3.218 0 01-.357-1.088 3.901 3.901 0 01.03-1.16c.141-.775.522-1.546 1.138-2.09.626-.55 1.388-.747 2.13-.583.373.08.74.25 1.059.507.322.255.624.59.838.996l.423.775c.206.404.334.835.386 1.264.042.425.01.849-.092 1.247a3.108 3.108 0 01-1.387 1.9c-1.397.835-3.083.274-3.808-1.11M2.964 6.45c-.244 0-.488.016-.733.004-.769-.002-1.444-.464-1.83-1.11C.011 4.676-.09 3.83.08 2.962c.17-.87.541-1.614.923-2.129.202-.273.396-.465.62-.616.11-.073.221-.127.334-.159.12-.04.243-.06.368-.055.156.01.337-.004.505-.002.547-.019 1.11.298 1.606.824.478.536.867 1.29.955 2.177.093.882-.121 1.73-.555 2.363-.434.64-1.103 1.06-1.87 1.086M109.808 52.932l-2.466-.033-2.465-.07c-1.528-.067-2.704-1.563-2.625-3.348.079-1.774 1.337-3.165 2.81-3.1l2.388.068 2.387.032c1.472.002 2.682 1.44 2.703 3.215.022 1.787-1.202 3.239-2.732 3.236M146.609 56.558l-3.026.33c-1.203.135-2.278-.896-2.4-2.303l-.051-.583c-.123-1.407.754-2.657 1.958-2.791l3.041-.332c1.205-.135 2.273.912 2.386 2.318l.047.585c.112 1.409-.757 2.642-1.955 2.776M150.847 50.016l-.863.088c-1.341.136-2.534-1.025-2.664-2.593-.13-1.569.864-2.952 2.221-3.09l.872-.09c1.36-.132 2.558 1.049 2.665 2.618.109 1.572-.89 2.937-2.231 3.067M131.525 58.2l-3.821.36c-1.232.11-2.31-.966-2.395-2.378l-.006-.092c-.086-1.417.829-2.631 2.041-2.74l3.775-.355c1.21-.126 2.285.916 2.4 2.328l.008.091c.116 1.412-.78 2.66-2.002 2.786M140.14 50.79c-2.24.247-4.48.505-6.724.734-1.42.148-2.674-1.075-2.802-2.734-.127-1.656.907-3.12 2.31-3.265l3.34-.359 3.353-.372c1.419-.158 2.685 1.055 2.83 2.711.143 1.656-.889 3.127-2.306 3.286M165.067 55.494l-1.173.034c-.391.013-.785.04-1.177.06l-2.357.126c-.784.033-1.577.109-2.365.162l-2.368.177c-1.391.125-2.618-1.118-2.74-2.776-.12-1.658.932-3.105 2.35-3.233l2.418-.181c.806-.054 1.612-.13 2.418-.166l2.419-.13c.403-.02.806-.046 1.21-.06l1.21-.035c1.42-.042 2.587 1.273 2.605 2.937.018 1.664-1.079 3.045-2.45 3.085M172.02 47.581c-.815-.01-1.63-.002-2.444-.004-.814.007-1.63-.013-2.443.016l-2.441.071-1.22.036-1.22.066c-1.424.076-2.648-1.209-2.733-2.87-.085-1.661 1.037-3.072 2.505-3.15l1.25-.067 1.256-.037 2.515-.073c.837-.03 1.682-.01 2.524-.017.842.002 1.683-.007 2.527.005 1.49.046 2.657 1.432 2.604 3.095-.053 1.662-1.253 2.974-2.68 2.93M101.005 59.525c-3.798-.223-7.589-.57-11.367-1.04-1.464-.192-2.5-1.69-2.315-3.341.184-1.65 1.483-2.834 2.9-2.648 3.676.457 7.364.795 11.057 1.011 1.425.094 2.54 1.473 2.488 3.142-.052 1.657-1.29 2.972-2.763 2.876M177.407 54.849l-1.703-.112-1.711-.053c-1.365-.041-2.46-1.432-2.45-3.083.013-1.676 1.18-2.983 2.607-2.94l1.779.056 1.776.116c1.426.096 2.488 1.518 2.371 3.176-.117 1.659-1.312 2.93-2.669 2.84M113.98 59.725l-.755.012c-.79.016-1.508-.338-2.023-.925-.516-.584-.831-1.39-.83-2.28.002-.892.318-1.698.819-2.282.502-.58 1.19-.949 1.955-.964l.732-.012c1.524-.034 2.804 1.349 2.86 3.134.055 1.776-1.176 3.282-2.758 3.317M121.518 54.967l-.736.044c-.77.045-1.482-.274-2.006-.827-.525-.557-.863-1.357-.894-2.246a3.575 3.575 0 01.717-2.312c.47-.612 1.133-1.014 1.883-1.058l.717-.043c1.495-.078 2.8 1.246 2.909 3.029.107 1.772-1.047 3.331-2.59 3.413M86.227 51.083l-.724-.107c-1.515-.243-2.548-1.87-2.308-3.634.24-1.758 1.618-2.993 3.08-2.758l.702.103c1.462.224 2.505 1.81 2.325 3.58-.18 1.77-1.558 3.048-3.075 2.816" fill="#d7bfe1"/>
</svg>
