<svg xmlns="http://www.w3.org/2000/svg" width="578.097" height="226.059" viewBox="0 0 578.097 226.059"><path d="M241.7-674.074l-1.658-1.138-1.621-1.188-3.243-2.379-3.243-2.379c-1.084-.79-2.167-1.581-3.207-2.426-3.929-3.1-4.146-9.236-.483-13.7s9.582-5.754,13.217-2.878c.971.792,1.994,1.537,3.018,2.282l3.059,2.243,3.059,2.246,1.529,1.123,1.576,1.08c3.88,2.659,4.436,8.717,1.243,13.526s-9.124,6.415-13.247,3.587m94.062,77.319q-2.457-1.181-4.889-2.413l-4.528-2.308c-3.531-1.806-4.7-6.572-2.607-10.648l.867-1.691c2.091-4.074,6.634-5.92,10.148-4.122,2.957,1.512,5.928,3.041,8.978,4.5a7.4,7.4,0,0,1,3.75,4.37,9.075,9.075,0,0,1-.123,6.29l-.7,1.765a7.871,7.871,0,0,1-4.52,4.479,8.114,8.114,0,0,1-6.372-.225m23.28-12.154q-1.408-.354-2.8-.782a6.776,6.776,0,0,1-4.413-4.44,9.69,9.69,0,0,1,.457-6.884,11.9,11.9,0,0,1,4.391-5.254,6.169,6.169,0,0,1,5-1.089q.937.289,1.889.528a3.955,3.955,0,0,1,1.866,1.148,8.735,8.735,0,0,1,1.431,2.236,13.673,13.673,0,0,1,1.1,6.7A9.464,9.464,0,0,1,365.1-610.5a6.688,6.688,0,0,1-2.8,1.553,6.215,6.215,0,0,1-3.251.034m-67.967-10.946c-3.685-2.009-7.378-3.951-11.053-6.037-3.553-1.988-4.59-6.836-2.318-10.827l.147-.259c2.272-3.991,6.926-5.654,10.39-3.714,3.59,2.039,7.236,3.955,10.855,5.929,3.486,1.9,4.6,6.674,2.45,10.737l-.139.263c-2.147,4.056-6.773,5.85-10.332,3.908m36.362-4.539c-6.528-3.364-13.055-6.733-19.543-10.175-4.126-2.153-5.35-7.822-2.79-12.556s7.862-6.814,11.923-4.7c6.384,3.387,12.849,6.724,19.326,10.062,4.116,2.106,5.465,7.7,3.014,12.506s-7.792,6.976-11.93,4.859m80.632,34.188c-2.51.357-4.965.667-7.518,1.057l-8.076,1.209a140.12,140.12,0,0,1-18.795,1.573,10.768,10.768,0,0,1-7.748-3.166,8.575,8.575,0,0,1-2.409-7.2,10.848,10.848,0,0,1,3.6-6.547,9.831,9.831,0,0,1,6.45-2.6,121.1,121.1,0,0,0,16.167-1.381l7.869-1.18c2.6-.4,5.2-.73,7.807-1.1a7.58,7.58,0,0,1,6.212,2.044,10.636,10.636,0,0,1,3.237,6.578,10.836,10.836,0,0,1-1.531,7.118,7.563,7.563,0,0,1-5.269,3.6m19.772-27.772c-2.646.254-5.3.435-7.94.751l-7.924.9c-2.645.27-5.271.694-7.907,1.041-2.63.375-5.277.7-7.891,1.118-4.616.717-8.9-3.09-9.593-8.445a11.111,11.111,0,0,1,1.332-7.159,7.436,7.436,0,0,1,5.313-3.692l2.006-.305,2.054-.285,4.108-.568c2.741-.361,5.474-.8,8.224-1.082l8.239-.937c2.745-.328,5.5-.518,8.253-.782a8.176,8.176,0,0,1,6.415,2.309,10.329,10.329,0,0,1,3.047,6.714h0a10.494,10.494,0,0,1-1.994,7.047,8.1,8.1,0,0,1-5.742,3.372m-222.4-55.663a325.382,325.382,0,0,1-28.418-26.641,9.327,9.327,0,0,1,1.276-13.286c4.1-3.5,9.922-3.506,13.017-.009a306.048,306.048,0,0,0,26.557,24.886,8.172,8.172,0,0,1,2.908,5.985,10.585,10.585,0,0,1-2.29,6.985h0c-3.3,4.243-9.177,5.237-13.05,2.078m242.23,77.115c-3.712.18-7.416.471-11.125.7-4.43.326-8.424-3.651-8.933-9.033-.507-5.35,2.838-10.09,7.483-10.433,3.862-.239,7.719-.54,11.582-.727,4.655-.195,8.564,4.015,8.731,9.4s-3.3,9.908-7.737,10.092M240.547-648.162l-2.094-1.354c-4.352-2.949-5.178-9.215-1.869-13.937s9.312-6.27,13.422-3.481l2.008,1.3c4.175,2.695,5.08,8.849,2.024,13.744s-9.1,6.568-13.49,3.732m29.04,1.178L267.5-648.2c-4.321-2.64-5.35-8.753-2.3-13.653s8.872-6.826,13-4.3l2.017,1.176c4.2,2.447,5.289,8.5,2.433,13.513s-8.708,7.023-13.07,4.48M184.5-725.544l-1.481-1.869a8.232,8.232,0,0,1-1.529-6.86,10.974,10.974,0,0,1,4.3-6.469,12.4,12.4,0,0,1,7.431-2.524,7.561,7.561,0,0,1,6.023,2.672l1.341,1.7a7.743,7.743,0,0,1,1.456,2.96,8.564,8.564,0,0,1,.055,3.442,12.115,12.115,0,0,1-3.886,6.765,11.187,11.187,0,0,1-7.229,2.978,8.946,8.946,0,0,1-3.574-.665,7,7,0,0,1-2.906-2.131M543.284-611.626l-3.976-.573-3.987-.491-7.976-.965c-4.929-.486-8.512-5.536-8-11.286s5.112-10,10.278-9.492l8.3,1,4.149.513,4.138.6a8.765,8.765,0,0,1,6.089,3.972,10.991,10.991,0,0,1,1.531,7.727,11.374,11.374,0,0,1-3.781,6.881,8.5,8.5,0,0,1-6.765,2.117M650.1-562.253l-4.454-1.735c-1.488-.569-2.993-1.094-4.489-1.644-3.544-1.287-5.2-5.84-3.692-10.164l.628-1.793c1.506-4.325,5.726-6.741,9.426-5.4,1.552.57,3.113,1.117,4.659,1.707l4.622,1.8c3.67,1.426,5.24,6.023,3.5,10.286l-.715,1.76c-1.72,4.218-5.971,6.546-9.486,5.18m21.515-12.524-2.6-1.083c-4.031-1.688-5.784-6.883-3.912-11.6,1.89-4.768,6.834-7.211,11.041-5.449l2.7,1.124A7.52,7.52,0,0,1,683.1-587a9.8,9.8,0,0,1-.455,6.947,10.038,10.038,0,0,1-4.786,5.026,7.666,7.666,0,0,1-6.238.251m-66.311-2.473-2.837-.817-2.855-.754-5.71-1.5a5.945,5.945,0,0,1-2.428-1.312,6.949,6.949,0,0,1-1.7-2.238,9.232,9.232,0,0,1-.587-6.185l.071-.291a9.056,9.056,0,0,1,3.394-5.233,7.2,7.2,0,0,1,2.621-1.207,6.1,6.1,0,0,1,2.835.067l5.9,1.552,2.952.78,2.934.844c3.783,1.088,5.781,5.535,4.462,9.935l-.085.286c-1.318,4.4-5.336,7.119-8.972,6.073m34.157-11.189c-3.482-1.161-6.944-2.378-10.441-3.491L618.509-595.2c-4.447-1.278-6.882-6.525-5.441-11.719s6.378-8.323,11.024-6.986L635-610.511c3.629,1.156,7.224,2.419,10.838,3.624a8.006,8.006,0,0,1,4.851,4.751,10.311,10.311,0,0,1,.027,7.352,10.6,10.6,0,0,1-4.689,5.639,8.106,8.106,0,0,1-6.568.707m63.594,51.9-6.687-3.549-6.765-3.4-3.384-1.7-3.422-1.622-6.849-3.234c-4.04-1.8-5.577-7.258-3.428-12.2s7.328-7.432,11.561-5.543l7.127,3.364,3.56,1.69,3.524,1.765,7.041,3.54,6.962,3.694a7.261,7.261,0,0,1,2.508,2.2,8.438,8.438,0,0,1,1.3,3.13,10.6,10.6,0,0,1-1.246,7.216,10.884,10.884,0,0,1-5.432,4.864,8.181,8.181,0,0,1-3.241.579,6.864,6.864,0,0,1-3.13-.792m32.335-10.836-6.86-4.067-6.951-3.911L718.1-557.3l-3.52-1.871-7.046-3.738c-4.163-2.086-5.614-7.7-3.239-12.538s7.831-7,12.184-4.812l7.32,3.882,3.657,1.946,3.614,2.027,7.223,4.064,7.131,4.227a7.978,7.978,0,0,1,2.546,2.4,8.675,8.675,0,0,1,1.274,3.256,10.282,10.282,0,0,1-1.478,7.217,10.528,10.528,0,0,1-5.763,4.535,8.685,8.685,0,0,1-3.384.357,7.551,7.551,0,0,1-3.232-1.026M513.87-592.585q-17.153-1.427-34.372-1.751c-4.421-.019-8.023-4.409-8.046-9.8s3.714-9.741,8.348-9.718q17.9.335,35.755,1.822c4.612.451,7.888,5.163,7.319,10.522s-4.6,9.359-9,8.926M738.8-518.344c-3.073-2.082-6.265-3.986-9.4-5.975a6.925,6.925,0,0,1-2.263-2.322,8.3,8.3,0,0,1-1.129-3.105,10.838,10.838,0,0,1,1.486-7.142,10.566,10.566,0,0,1,5.636-4.681A8.353,8.353,0,0,1,736.5-542a7.34,7.34,0,0,1,3.173,1.081c3.267,2.071,6.589,4.057,9.793,6.225,3.889,2.567,4.578,8.258,1.541,12.71s-8.5,6.083-12.208,3.637M552.714-587.787l-2.246-.377a7.367,7.367,0,0,1-3.181-1.366,8.809,8.809,0,0,1-2.382-2.607,11.64,11.64,0,0,1-1.451-7.675,11.316,11.316,0,0,1,3.648-6.94,9.013,9.013,0,0,1,3.153-1.808,7.8,7.8,0,0,1,3.573-.233l2.344.393a8.188,8.188,0,0,1,5.716,4.075,11.368,11.368,0,0,1,1.219,7.756,11.6,11.6,0,0,1-3.844,6.788,8.091,8.091,0,0,1-6.549,2m26.108-9.579-2.292-.492c-4.761-1.065-7.781-6.345-6.7-12.025,1.08-5.657,6.043-9.535,11.037-8.421l2.386.513c5.011,1.036,7.946,6.605,6.607,12.209-1.343,5.624-6.264,9.2-11.042,8.217M466.459-616.628l-2.38.044a8.517,8.517,0,0,1-6.452-2.943,11.365,11.365,0,0,1-2.9-7.292A11.016,11.016,0,0,1,457.2-634.3a8.776,8.776,0,0,1,6.541-3.182l2.48-.045a8.6,8.6,0,0,1,6.625,3.039,11,11,0,0,1,2.68,7.4,11.363,11.363,0,0,1-2.7,7.377,8.694,8.694,0,0,1-6.37,3.082" transform="translate(-174.806 743.266)" fill="#fbd66f"/></svg>