<?xml version="1.0" standalone="no"?>
<!DOCTYPE svg PUBLIC "-//W3C//DTD SVG 1.1//EN" "http://www.w3.org/Graphics/SVG/1.1/DTD/svg11.dtd" >
<svg xmlns="http://www.w3.org/2000/svg" xmlns:xlink="http://www.w3.org/1999/xlink" version="1.1">
<metadata>
Created by FontForge 20170731 at Fri Jun 24 01:07:08 2016
 By Aleksey,,,
Copyright (c) 2015 by Mateusz Machalski. All rights reserved.
</metadata>
<defs>
<font id="Migrena_Grotesque-Blackitalic" horiz-adv-x="1120" >
  <font-face 
    font-family="Migrena_Grotesque Black italic"
    font-weight="900"
    font-style="italic"
    font-stretch="normal"
    units-per-em="4000"
    panose-1="0 0 10 0 0 0 0 0 0 0"
    ascent="3200"
    descent="-800"
    x-height="1920"
    cap-height="2440"
    bbox="-2246.84 -1425.23 5290.08 3792"
    underline-thickness="50"
    underline-position="-200"
    slope="-8"
    unicode-range="U+0020-25CA"
  />
<missing-glyph horiz-adv-x="1580" 
d="M1296 2560v-3160h-1002v3160h1002zM1052 2348h-521v-104h205v-117h-208v-104h524v104h-208v117h208v104zM844 1941h-316v-329h524v107h-208v222zM736 1833v-114h-104v114h104zM1052 1527h-524v-105h208v-117h-208v-104h316v221h208v105zM1052 1337h-104v-208h-420v-108
h524v316zM1052 952h-316v-177h108v72h104v-148h-316v253h-104v-358h524v358zM1052 405h-524v-357h524v357zM948 301v-149h-316v149h316zM1052 -25h-524v-104h221l-221 -149v-104h524v104h-322l221 149h101v104z" />
    <glyph glyph-name=".notdef" horiz-adv-x="1580" 
d="M1296 2560v-3160h-1002v3160h1002zM1052 2348h-521v-104h205v-117h-208v-104h524v104h-208v117h208v104zM844 1941h-316v-329h524v107h-208v222zM736 1833v-114h-104v114h104zM1052 1527h-524v-105h208v-117h-208v-104h316v221h208v105zM1052 1337h-104v-208h-420v-108
h524v316zM1052 952h-316v-177h108v72h104v-148h-316v253h-104v-358h524v358zM1052 405h-524v-357h524v357zM948 301v-149h-316v149h316zM1052 -25h-524v-104h221l-221 -149v-104h524v104h-322l221 149h101v104z" />
    <glyph glyph-name=".null" horiz-adv-x="0" 
 />
    <glyph glyph-name="nonmarkingreturn" horiz-adv-x="1333" 
 />
    <glyph glyph-name="space" unicode=" " horiz-adv-x="640" 
 />
    <glyph glyph-name="exclam" unicode="!" horiz-adv-x="1121" 
d="M317 2360q3 38 27 59t64 21h720q40 0 58.5 -21t10.5 -59l-294 -1380q-17 -80 -91 -80h-520q-75 0 -69 80zM410 -40q-158 0 -262 107t-104 264q0 94 40 181t106 150t155 100.5t182 37.5q158 0 262 -107t104 -265q0 -93 -40 -180t-106 -150t-155 -100.5t-182 -37.5z" />
    <glyph glyph-name="quotedbl" unicode="&#x22;" horiz-adv-x="1871" 
d="M327 2430q2 38 26.5 59t64.5 21h570q40 0 59 -21t10 -59l-199 -850q-18 -80 -92 -80h-410q-72 0 -69 80zM1227 2430q2 38 26.5 59t64.5 21h570q40 0 59 -21t10 -59l-199 -850q-18 -80 -92 -80h-410q-72 0 -69 80z" />
    <glyph glyph-name="numbersign" unicode="#" horiz-adv-x="2831" 
d="M2746 1860q48 0 68 -26t9 -74l-82 -360q-11 -48 -43 -74t-80 -26h-198l-82 -340h203q48 0 68 -26t9 -74l-82 -360q-11 -48 -42.5 -74t-80.5 -26h-210l-77 -320q-20 -80 -98 -80h-620q-39 0 -55.5 20.5t-6.5 59.5l77 320h-319l-77 -320q-20 -80 -98 -80h-620
q-39 0 -55.5 20.5t-6.5 59.5l77 320h-190q-48 0 -68.5 26t-9.5 74l84 360q23 100 121 100h198l81 340h-202q-48 0 -67.5 26t-8.5 74l81 360q10 48 42.5 74t80.5 26h209l77 320q18 80 98 80h620q80 0 62 -80l-77 -320h320l77 320q18 80 98 80h620q80 0 62 -80l-77 -320h191z
M1558 960l82 340h-320l-81 -340h319z" />
    <glyph glyph-name="dollar" unicode="$" horiz-adv-x="2360" 
d="M1446 1870q-123 0 -180.5 -25t-57.5 -61q0 -19 14.5 -34t59 -32.5t71 -26t102.5 -30.5q70 -21 109 -32.5t113.5 -38t120 -48t112 -58.5t108 -74t89.5 -90t75 -110.5t45 -132t18 -157.5q0 -153 -45.5 -285.5t-125.5 -233t-192.5 -180.5t-242 -133t-278.5 -85l-60 -423
q-4 -33 -31 -56.5t-60 -23.5h-460q-33 0 -53.5 23.5t-15.5 56.5l55 389q-204 19 -383 71.5t-312 127.5q-73 48 -22 136l262 440q51 85 128 50q126 -57 194 -83.5t171 -48.5t215 -22q254 0 254 89q0 29 -33.5 53t-90 44.5t-130 43t-154.5 52t-162 66t-154.5 92t-130 123.5
t-90 166t-33.5 214q0 341 219 574t603 309l55 394q4 33 31 56.5t60 23.5h460q33 0 53.5 -23.5t15.5 -56.5l-53 -376q198 -25 361 -77.5t242 -102.5q77 -48 26 -132l-233 -388q-26 -44 -65 -56.5t-82 7.5q-62 28 -102 44.5t-112 41.5t-146.5 37t-151.5 12z" />
    <glyph glyph-name="percent" unicode="%" horiz-adv-x="3813" 
d="M2877 2523q28 -14 35 -45.5t-12 -61.5l-1563 -2540q-19 -30 -52 -41.5t-60 2.5l-220 110q-28 14 -35.5 45.5t10.5 61.5l1565 2540q18 30 51 41.5t62 -2.5zM1704 1714q-25 -180 -104.5 -329.5t-194.5 -248.5t-259.5 -153.5t-300.5 -54.5t-285 54.5t-216.5 153.5
t-125 248.5t-12.5 329.5t104.5 329.5t194.5 248.5t259.5 153.5t300.5 54.5t285 -54.5t216.5 -153.5t125 -248.5t12.5 -329.5zM915 1428q63 0 111.5 79t66.5 207q18 129 -8.5 208t-89.5 79t-111.5 -79t-66.5 -208q-18 -128 8.5 -207t89.5 -79zM3042 1512q156 0 285 -54.5
t216.5 -153.5t124.5 -248.5t12 -329.5t-104.5 -329.5t-194.5 -248.5t-259.5 -153.5t-300.5 -54.5t-285 54.5t-216.5 153.5t-125 248.5t-12.5 329.5t104.5 329.5t195 248.5t260 153.5t300.5 54.5zM2891 440q63 0 111.5 79t66.5 207q18 129 -8.5 208t-89.5 79t-111.5 -79
t-66.5 -208q-18 -128 8.5 -207t89.5 -79z" />
    <glyph glyph-name="ampersand" unicode="&#x26;" horiz-adv-x="2763" 
d="M2584 1408q36 -5 52.5 -31t5.5 -62q-126 -411 -399 -728l318 -405q45 -57 7 -119.5t-116 -62.5h-642q-31 0 -53 10.5t-44 38.5l-65 80q-355 -169 -750 -169q-176 0 -330.5 44t-271.5 126.5t-185 211.5t-68 289q0 114 28.5 219.5t77 193t121 170t153.5 150t180 132.5
q-48 130 -48 253q0 156 54 283.5t146 213t218.5 144t268 84.5t298.5 26q367 0 655 -153q25 -13 31.5 -40.5t-8.5 -55.5l-197 -394q-20 -40 -57.5 -53t-71.5 7q-143 80 -278 80q-100 0 -159.5 -36t-59.5 -114q0 -14 3.5 -29t12 -33t15.5 -33t22.5 -38t25 -37t29.5 -40
t29 -37.5t31.5 -40t29.5 -37.5l227 -290q84 129 140 279q12 33 39 51t59 14zM1053 595q85 0 184 36l-315 385q-78 -107 -78 -215q0 -93 53.5 -149.5t155.5 -56.5z" />
    <glyph glyph-name="quotesingle" unicode="'" horiz-adv-x="971" 
d="M327 2430q2 38 26.5 59t64.5 21h570q40 0 59 -21t10 -59l-199 -850q-18 -80 -92 -80h-410q-72 0 -69 80z" />
    <glyph glyph-name="parenleft" unicode="(" horiz-adv-x="1066" 
d="M547 585q0 -280 52 -574.5t163 -547.5q17 -39 -2 -77t-62 -51l-181 -57q-56 -17 -81 26q-158 276 -246 618.5t-88 708.5q0 291 56.5 564t164.5 519t249.5 465t328.5 437q37 43 89 26l165 -57q39 -14 47.5 -51.5t-19.5 -76.5q-103 -144 -189 -288t-148 -266t-110.5 -251.5
t-79.5 -227t-53 -211.5t-32.5 -186.5t-16.5 -170.5t-6.5 -144.5t-0.5 -126.5z" />
    <glyph glyph-name="parenright" unicode=")" horiz-adv-x="1067" 
d="M630 2616q158 -276 246.5 -619t88.5 -708q0 -291 -56.5 -564t-165 -519t-250 -465t-328.5 -437q-37 -43 -89 -26l-165 57q-39 14 -47.5 51.5t19.5 76.5q103 144 189.5 288t148 265.5t110.5 251.5t79.5 227.5t52.5 212t32.5 186.5t16.5 170.5t6.5 144.5t0.5 126
q0 280 -52 574.5t-163 547.5q-17 39 2 76.5t63 51.5l180 57q56 17 81 -26z" />
    <glyph glyph-name="asterisk" unicode="*" horiz-adv-x="1790" 
d="M1859 2338q7 -34 -12.5 -63t-54.5 -40l-375 -117h-1l179 -305q17 -29 7.5 -61.5t-41.5 -53.5l-249 -165q-32 -21 -63.5 -15.5t-48.5 34.5l-179 305l-265 -305q-26 -29 -59 -34.5t-59 15.5l-203 165q-26 21 -26.5 53.5t24.5 61.5l265 305l-342 117q-32 11 -43 40t5 63
l124 266q16 34 47 49t63 4l343 -117l53 378q5 35 32 58.5t62 23.5h280q35 0 55 -23.5t15 -58.5l-53 -378l375 117q35 11 62.5 -4t33.5 -49z" />
    <glyph glyph-name="plus" unicode="+" horiz-adv-x="2237" 
d="M2038 1400q48 0 70.5 -26t15.5 -74l-53 -380q-7 -48 -36.5 -74t-77.5 -26h-568l-80 -568q-7 -48 -36.5 -74t-77.5 -26h-380q-48 0 -70.5 26t-15.5 74l80 568h-568q-48 0 -70.5 26t-15.5 74l53 380q7 48 36.5 74t77.5 26h568l80 568q7 48 36.5 74t77.5 26h380
q48 0 70.5 -26t15.5 -74l-80 -568h568z" />
    <glyph glyph-name="comma" unicode="," horiz-adv-x="1085" 
d="M506 840q75 0 142.5 -25t121 -73t85 -125.5t31.5 -174.5q0 -136 -65 -289.5t-172.5 -291t-250.5 -255.5t-296 -190q-26 -11 -49 -6.5t-36 22.5l-61 80q-18 24 -13 55t33 57q16 15 54 47.5t58 52.5t45.5 51t37 64.5t11.5 72.5q0 52 -22.5 89t-64.5 79q-97 97 -97 259
q0 137 71 253t188 182t249 66z" />
    <glyph glyph-name="hyphen" unicode="-" horiz-adv-x="2137" 
d="M207 580q-48 0 -70.5 26t-15.5 74l65 460q7 48 36.5 74t77.5 26h1616q48 0 70.5 -26t15.5 -74l-65 -460q-7 -48 -36.5 -74t-77.5 -26h-1616z" />
    <glyph glyph-name="period" unicode="." horiz-adv-x="1124" 
d="M422 -40q-166 0 -274.5 112t-108.5 277q0 131 71 245t187.5 180t247.5 66q166 0 274.5 -112t108.5 -277q0 -131 -71 -245t-187.5 -180t-247.5 -66z" />
    <glyph glyph-name="slash" unicode="/" horiz-adv-x="1613" 
d="M1464 2664q18 30 51 41.5t62 -2.5l219 -110q28 -14 35 -45.5t-11 -61.5l-1583 -2610q-19 -30 -52.5 -41.5t-59.5 2.5l-220 110q-29 14 -36 45.5t12 61.5z" />
    <glyph glyph-name="zero" unicode="0" horiz-adv-x="2640" 
d="M1537 2500q204 0 380.5 -56.5t312 -164t226 -263.5t122 -355.5t-0.5 -440.5q-33 -235 -123 -439.5t-222.5 -357.5t-299 -262.5t-358.5 -165t-396 -55.5t-380.5 56.5t-312 164t-226 263.5t-122.5 355.5t0 440.5q33 235 123 439.5t223 357.5t299.5 262.5t359 165
t395.5 55.5zM1282 680q119 0 210 149t125 391t-15.5 391t-168.5 149t-210.5 -149t-125.5 -391t16 -391t169 -149z" />
    <glyph glyph-name="one" unicode="1" horiz-adv-x="2147" 
d="M1905 2440q33 0 53.5 -23.5t15.5 -56.5l-321 -2280q-4 -33 -31 -56.5t-60 -23.5h-760q-33 0 -53.5 23.5t-15.5 56.5l222 1574l-356 -149q-34 -14 -63 -2.5t-39 42.5l-157 488q-11 33 5.5 65t52.5 46l687 272q58 24 122 24h698z" />
    <glyph glyph-name="two" unicode="2" horiz-adv-x="2325" 
d="M2302 1691q-41 -289 -260 -556t-632 -495h710q33 0 53.5 -23.5t15.5 -56.5l-68 -480q-4 -33 -31 -56.5t-60 -23.5h-1950q-48 0 -70.5 26t-15.5 74l27 192q13 94 61 124q305 193 535 360.5t366 287t223 223.5t119.5 171.5t41.5 129.5q16 114 -36.5 168t-178.5 54
q-43 0 -89 -8.5t-79 -16.5t-84 -32t-72.5 -34t-78.5 -45t-68 -42t-72 -47q-22 -14 -41 -16t-35.5 7.5t-29.5 23t-28 34.5l-206 298q-22 32 -22.5 59.5t14.5 48.5t48 48q225 188 519.5 300t625.5 112q453 0 676.5 -216.5t171.5 -592.5z" />
    <glyph glyph-name="three" unicode="3" horiz-adv-x="2392" 
d="M1919 1263q170 -84 263 -215.5t93 -304.5q0 -150 -60 -279t-169.5 -224.5t-259 -163.5t-331.5 -102t-385 -34q-670 0 -1024 412q-26 30 -35 49t-1.5 46t40.5 61l290 298q20 21 35.5 33.5t35.5 23t39 8.5t37 -16q58 -45 92 -70t91.5 -59t105.5 -52t114 -31t137 -13
q141 0 230 43t89 124q0 56 -56.5 97.5t-143 62t-194.5 25.5q-34 2 -52.5 24t-14.5 56l45 324q5 34 30.5 56t61.5 25q183 14 286 72t103 152q0 58 -55 88.5t-156 30.5q-66 0 -136.5 -14.5t-122.5 -32.5t-118.5 -51t-100 -52.5t-91.5 -54.5q-22 -13 -41 -15.5t-35 6.5
t-29 22.5t-28 35.5l-193 278q-18 26 -23 46.5t4 40t21.5 33.5t37.5 36q214 188 518.5 300t645.5 112q392 0 616 -155t224 -435q0 -415 -430 -647z" />
    <glyph glyph-name="four" unicode="4" horiz-adv-x="2547" 
d="M2428 1040q48 0 70.5 -26t15.5 -74l-51 -360q-7 -48 -36.5 -74t-77.5 -26h-259l-56 -400q-4 -33 -31.5 -56.5t-60.5 -23.5h-660q-33 0 -53 23.5t-15 56.5l56 400h-1187q-48 0 -70.5 26t-15.5 74l33 238q3 21 20 40l1400 1525q52 57 127 57h708q33 0 53.5 -23.5
t15.5 -56.5l-186 -1320h260zM927 1040h422l76 544z" />
    <glyph glyph-name="five" unicode="5" horiz-adv-x="2433" 
d="M2154 1770h-920l-67 -253q118 42 311 42q186 0 338 -43t263 -127t172 -215.5t61 -300.5q0 -206 -92.5 -381t-253 -295.5t-382 -188.5t-474.5 -68q-367 0 -622.5 97t-425.5 285q-26 29 -35.5 48.5t-1.5 46.5t41 61l290 298q21 21 35.5 33.5t34 23t39 8.5t38.5 -16
q92 -67 160.5 -105t167 -64t216.5 -26q139 0 231.5 56.5t92.5 152.5q0 150 -253 150q-148 0 -317 -35q-30 -6 -50 8l-396 274q-35 24 -24 69l263 1035q25 100 115 100h1540q33 0 53 -23.5t15 -56.5l-71 -510q-4 -33 -31.5 -56.5t-60.5 -23.5z" />
    <glyph glyph-name="six" unicode="6" horiz-adv-x="2410" 
d="M1661 1540q103 0 193 -21t157 -59t121 -90.5t87 -115.5t55 -134.5t23.5 -147t-7.5 -152.5q-23 -167 -97.5 -310t-185.5 -246.5t-251.5 -177t-300 -110t-328.5 -36.5q-158 0 -301 31.5t-265 93t-216.5 153t-155.5 211.5t-83 268t2 323q22 153 69 297t132 291t201 273.5
t282.5 239.5t368 193.5t467.5 130t572 55.5q38 1 59 -22.5t16 -59.5l-67 -476q-5 -35 -31 -57.5t-62 -23.5q-212 -4 -380 -39t-294 -102t-215 -159t-153 -217q212 196 588 196zM1201 540q97 0 163.5 71.5t80.5 168.5q14 101 -32.5 170.5t-144.5 69.5q-104 0 -166 -68
t-77 -172q-9 -63 5 -115.5t57.5 -88.5t113.5 -36z" />
    <glyph glyph-name="seven" unicode="7" horiz-adv-x="2350" 
d="M254 0q-57 0 -78 42.5t10 94.5l968 1563h-940q-33 0 -53.5 23.5t-15.5 56.5l82 580q4 33 31 56.5t60 23.5h2040q48 0 70.5 -26t15.5 -74l-27 -192q-2 -14 -5.5 -26.5t-10.5 -26.5t-11 -21.5t-15 -25t-15 -24.5l-1188 -1982q-25 -42 -71 -42h-847z" />
    <glyph glyph-name="eight" unicode="8" horiz-adv-x="2553" 
d="M2052 1292q177 -61 271.5 -205.5t94.5 -327.5q0 -132 -48.5 -252t-151.5 -224t-252 -180t-362.5 -119.5t-470.5 -43.5q-220 0 -400 34.5t-304.5 95.5t-209 145.5t-123.5 182.5t-39 209q0 149 62 284.5t185 241.5t290 159q-128 59 -207 184.5t-79 285.5q0 128 47.5 239.5
t145 203t237 157.5t332.5 102t423 36q247 0 439 -44.5t313 -124.5t183 -189t62 -242q0 -207 -125 -369.5t-313 -238.5zM1414 1939q-99 0 -163.5 -57t-64.5 -154q0 -75 48 -117.5t128 -42.5q99 0 164 57t65 155q0 75 -48.5 117t-128.5 42zM1222 569q120 0 193.5 73t73.5 175
q0 83 -54 137.5t-151 54.5q-120 0 -194 -73t-74 -175q0 -82 54 -137t152 -55z" />
    <glyph glyph-name="nine" unicode="9" horiz-adv-x="2410" 
d="M1357 2500q190 0 357.5 -44.5t301.5 -134.5t224.5 -217.5t127 -303t7.5 -380.5q-16 -118 -48 -229.5t-85.5 -226t-124.5 -217.5t-169.5 -201t-217 -180t-270.5 -150.5t-326.5 -115.5t-388.5 -73.5t-453 -26.5q-37 0 -58.5 23.5t-16.5 58.5l67 476q5 35 31 57.5t62 23.5
q411 9 652.5 117.5t368.5 329.5q-209 -186 -576 -186q-103 0 -193 21t-156.5 59t-121 90.5t-87.5 115.5t-54.5 134.5t-23 147t6.5 152.5q29 208 136.5 377t266 277.5t354 167t407.5 58.5zM1215 1420q104 0 166.5 68.5t77.5 171.5q9 63 -5 115.5t-57.5 88.5t-113.5 36
q-97 0 -163.5 -71.5t-80.5 -168.5q-14 -101 32 -170.5t144 -69.5z" />
    <glyph glyph-name="colon" unicode=":" horiz-adv-x="1137" 
d="M592 1080q-166 0 -274.5 112t-108.5 277q0 131 71 245t187.5 180t247.5 66q166 0 274.5 -112t108.5 -277q0 -131 -71 -245t-187.5 -180t-247.5 -66zM422 -40q-166 0 -274.5 112t-108.5 277q0 131 71 245t187.5 180t247.5 66q166 0 274.5 -112t108.5 -277q0 -131 -71 -245
t-187.5 -180t-247.5 -66z" />
    <glyph glyph-name="semicolon" unicode=";" horiz-adv-x="1085" 
d="M539 1080q-166 0 -274.5 112t-108.5 277q0 131 71 245t187.5 180t247.5 66q166 0 274.5 -112t108.5 -277q0 -131 -71 -245t-187.5 -180t-247.5 -66zM506 840q75 0 142.5 -25t121 -73t85 -125.5t31.5 -174.5q0 -136 -65 -289.5t-172.5 -291t-250.5 -255.5t-296 -190
q-26 -11 -49 -6.5t-36 22.5l-61 80q-18 24 -13 55t33 57q16 15 54 47.5t58 52.5t45.5 51t37 64.5t11.5 72.5q0 52 -22.5 89t-64.5 79q-97 97 -97 259q0 137 71 253t188 182t249 66z" />
    <glyph glyph-name="less" unicode="&#x3c;" horiz-adv-x="2237" 
d="M2162 1570q-3 -23 -11.5 -39t-27.5 -27.5t-31.5 -17t-43.5 -16.5l-1126 -405l1012 -405q28 -11 39 -16.5t26.5 -17t19.5 -27.5t1 -39l-60 -430q-7 -51 -41 -84t-73 -16l-1618 700q-46 20 -67.5 47.5t-15.5 72.5l60 430q6 45 36 72.5t82 47.5l1814 700q44 17 68.5 -16
t17.5 -84z" />
    <glyph glyph-name="equal" unicode="=" horiz-adv-x="2428" 
d="M376 1250q-48 0 -70.5 26t-15.5 74l53 380q7 48 36.5 74t77.5 26h1716q48 0 70.5 -26t15.5 -74l-53 -380q-7 -48 -36.5 -74t-77.5 -26h-1716zM255 390q-48 0 -70.5 26t-15.5 74l53 380q7 48 36.5 74t77.5 26h1716q48 0 70.5 -26t15.5 -74l-53 -380q-7 -48 -36.5 -74
t-77.5 -26h-1716z" />
    <glyph glyph-name="greater" unicode="&#x3e;" horiz-adv-x="2237" 
d="M246 1570l61 430q7 51 40.5 84t72.5 16l1618 -700q46 -20 68 -47.5t16 -72.5l-61 -430q-6 -45 -35.5 -72.5t-80.5 -47.5l-1815 -700q-44 -17 -68.5 16t-17.5 84l60 430q3 23 11.5 39t27.5 27.5t31.5 17t43.5 16.5l1126 405l-1012 405q-28 11 -39 16.5t-26.5 17
t-19.5 27.5t-1 39z" />
    <glyph glyph-name="question" unicode="?" horiz-adv-x="1970" 
d="M1180 1705q0 61 -48 98t-152 37q-54 0 -104.5 -10t-95 -29.5t-72.5 -34.5t-67 -40t-49 -31q-27 -16 -45 -19t-40.5 12.5t-48.5 55.5l-187 288q-13 21 -14.5 38.5t11.5 34.5t26.5 28.5t39.5 30.5q221 159 456 247.5t528 88.5q135 0 250.5 -20t214.5 -63t169 -108
t109.5 -159.5t39.5 -212.5q0 -83 -19.5 -155.5t-54 -128t-79 -105t-96.5 -92t-105 -83t-106 -83.5t-97.5 -87.5t-81.5 -102t-57 -120.5q-8 -24 -14 -37.5t-26 -27.5t-51 -14h-507q-36 0 -48.5 18.5t-12.5 59.5q0 65 24 129t62 117t84.5 105t93 99.5t84.5 92.5t62 92.5
t24 90.5zM958 -40q-158 0 -261.5 106.5t-103.5 263.5q0 125 67.5 233.5t179 171.5t235.5 63q158 0 261.5 -106.5t103.5 -263.5q0 -125 -67.5 -233.5t-179 -171.5t-235.5 -63z" />
    <glyph glyph-name="at" unicode="@" horiz-adv-x="3323" 
d="M2304 -308q-2 -25 -17.5 -42.5t-39.5 -22.5q-335 -75 -690 -75q-343 0 -619.5 90.5t-465 258t-290 409.5t-101.5 540q0 247 70 472.5t195 406.5t299.5 329t381.5 247.5t443.5 153t483.5 53.5q228 0 428.5 -47.5t365.5 -145.5t283.5 -238t184 -333.5t65.5 -424.5
q0 -167 -40.5 -329.5t-117 -301t-179.5 -244.5t-236 -166.5t-278 -60.5q-398 0 -491 258q-91 -135 -201 -196.5t-253 -61.5q-112 0 -209.5 38.5t-175.5 114t-123 201t-45 286.5q0 171 45 324t130 274.5t201 210.5t264.5 136.5t315.5 47.5q216 0 536 -91q28 -8 42.5 -30
t12.5 -51l-82 -930q-7 -77 18.5 -122t83.5 -45q70 0 125 75.5t86 191.5t46.5 236t15.5 228q0 185 -48.5 329t-149 249.5t-265.5 161.5t-388 56q-290 0 -537.5 -92.5t-421 -255.5t-271 -393.5t-97.5 -498.5q0 -165 38 -305.5t119 -256.5t200 -197.5t288 -126.5t377 -45
q297 0 594 67q50 11 84.5 -18.5t29.5 -79.5zM1626 585q112 0 199.5 127.5t110.5 370.5l36 389q-81 25 -160 25q-112 0 -197 -79t-129.5 -216.5t-44.5 -311.5q0 -152 52 -228.5t133 -76.5z" />
    <glyph glyph-name="A" unicode="A" horiz-adv-x="2885" 
d="M2756 116q13 -53 -12 -84.5t-80 -31.5h-784q-83 0 -100 80l-56 260h-785l-123 -260q-38 -80 -126 -80h-738q-55 0 -71.5 31t11.5 85l1216 2248q41 76 126 76h824q86 0 106 -76zM1203 900h399l-126 580z" />
    <glyph glyph-name="B" unicode="B" horiz-adv-x="2655" 
d="M2009 1240q108 -14 201.5 -53.5t166.5 -102t115 -154.5t42 -203q0 -349 -276.5 -538t-822.5 -189h-680h-690q-33 0 -53.5 23.5t-15.5 56.5l321 2280q4 33 31 56.5t60 23.5h760h490q456 0 686.5 -145t230.5 -417q0 -135 -44.5 -249t-122.5 -192.5t-179.5 -129
t-219.5 -67.5zM1366 1500q68 0 119 13.5t77.5 33t43 46t20.5 46t4 39.5q0 25 -9 47.5t-31 45t-68 36t-111 13.5h-250l-45 -320h250zM1362 620q61 0 107.5 13.5t71.5 33t40.5 45.5t20 46.5t4.5 40.5q0 25 -8.5 47t-28.5 44.5t-61.5 36t-100.5 13.5h-370l-45 -320h370z" />
    <glyph glyph-name="C" unicode="C" horiz-adv-x="2755" 
d="M2575 678q40 -21 47 -56t-22 -80q-101 -149 -244 -266t-304 -189.5t-330.5 -109.5t-337.5 -37q-273 0 -504 77t-397.5 218.5t-260 352.5t-93.5 467q0 219 59 416.5t165 355.5t255 285t327.5 212t384 130.5t423.5 45.5q168 0 327 -37.5t300 -109.5t251.5 -189t169.5 -266
q18 -44 0.5 -79.5t-63.5 -56.5l-606 -270q-87 -38 -130 44q-52 101 -143.5 162.5t-209.5 61.5q-156 0 -280 -81t-193.5 -225t-69.5 -323q0 -204 104.5 -327.5t287.5 -123.5q117 0 224.5 61.5t190.5 162.5q68 82 142 44z" />
    <glyph glyph-name="D" unicode="D" horiz-adv-x="2826" 
d="M1528 2440q214 0 403 -45t342.5 -134.5t264.5 -216.5t171.5 -297.5t60.5 -370.5q0 -255 -83 -476.5t-230 -385t-345.5 -280.5t-434.5 -175.5t-492 -58.5h-780h-340q-33 0 -53.5 23.5t-15.5 56.5l321 2280q4 33 31 56.5t60 23.5h760h360zM1243 700q117 0 219.5 43.5
t178 120.5t119 190t43.5 246q0 202 -112.5 321t-301.5 119h-239l-147 -1040h240z" />
    <glyph glyph-name="E" unicode="E" horiz-adv-x="2325" 
d="M2333 2440q80 0 69 -80l-76 -540q-11 -80 -92 -80h-1084l-28 -200h924q80 0 69 -80l-65 -460q-11 -80 -91 -80h-925l-31 -220h1125q80 0 69 -80l-76 -540q-11 -80 -91 -80h-1456h-509q-33 0 -53.5 23.5t-15.5 56.5l321 2280q4 33 31 56.5t60 23.5h760h1165z" />
    <glyph glyph-name="F" unicode="F" horiz-adv-x="2225" 
d="M2293 2440q80 0 69 -80l-76 -540q-11 -80 -92 -80h-1044l-45 -320h964q80 0 69 -80l-70 -500q-11 -80 -91 -80h-965l-96 -680q-4 -33 -31 -56.5t-60 -23.5h-760q-33 0 -53.5 23.5t-15.5 56.5l321 2280q4 33 31 56.5t60 23.5h760h1125z" />
    <glyph glyph-name="G" unicode="G" horiz-adv-x="2815" 
d="M2610 1140q110 0 96 -100l-108 -768q-225 -146 -541.5 -239t-672.5 -93q-273 0 -504 77t-397.5 218.5t-260 352.5t-93.5 467q0 219 59 416.5t165 355.5t255 285t327.5 212t384 130.5t423.5 45.5q132 0 257 -21t245.5 -66.5t221.5 -112.5t183.5 -164.5t133.5 -217.5
q18 -45 0.5 -80t-63.5 -56l-606 -270q-81 -36 -130 44q-60 100 -143.5 152t-202.5 52q-156 0 -280 -81t-193.5 -225t-69.5 -323q0 -204 104.5 -327.5t287.5 -123.5q188 0 333 39l45 321q7 48 36.5 74t77.5 26h630z" />
    <glyph glyph-name="H" unicode="H" horiz-adv-x="2880" 
d="M2888 2440q33 0 53.5 -23.5t15.5 -56.5l-321 -2280q-4 -33 -31 -56.5t-60 -23.5h-760q-33 0 -53.5 23.5t-15.5 56.5l113 800h-800l-113 -800q-4 -33 -31 -56.5t-60 -23.5h-760q-33 0 -53.5 23.5t-15.5 56.5l321 2280q4 33 31 56.5t60 23.5h760q33 0 53.5 -23.5
t15.5 -56.5l-110 -780h800l110 780q4 33 31 56.5t60 23.5h760z" />
    <glyph glyph-name="I" unicode="I" horiz-adv-x="1160" 
d="M317 2360q4 33 31 56.5t60 23.5h760q33 0 53.5 -23.5t15.5 -56.5l-321 -2280q-4 -33 -31 -56.5t-60 -23.5h-760q-33 0 -53.5 23.5t-15.5 56.5z" />
    <glyph glyph-name="J" unicode="J" horiz-adv-x="2165" 
d="M2152 2440q48 0 70.5 -26t15.5 -74l-210 -1500q-24 -174 -104.5 -322t-196.5 -253t-262 -179.5t-304.5 -110t-319.5 -35.5q-153 0 -290 33t-232 83t-170 112.5t-115.5 117.5t-57.5 102q-34 94 64 136l549 239q52 21 76 12.5t54 -55.5q31 -48 71.5 -74t106.5 -26
q86 0 151 57t80 163l210 1500q7 48 36.5 74t77.5 26h700z" />
    <glyph glyph-name="K" unicode="K" horiz-adv-x="2878" 
d="M1168 2440q33 0 53.5 -23.5t15.5 -56.5l-321 -2280q-4 -33 -31 -56.5t-60 -23.5h-760q-33 0 -53.5 23.5t-15.5 56.5l321 2280q4 33 31 56.5t60 23.5h760zM2739 120q27 -52 2.5 -86t-84.5 -34h-812q-79 0 -111 64l-595 1176l931 1136q52 64 130 64h760q61 0 75.5 -34.5
t-28.5 -85.5l-882 -1040z" />
    <glyph glyph-name="L" unicode="L" horiz-adv-x="2180" 
d="M2029 740q80 0 69 -80l-82 -580q-11 -80 -91 -80h-1860q-33 0 -53.5 23.5t-15.5 56.5l321 2280q4 33 31 56.5t60 23.5h760q33 0 53.5 -23.5t15.5 -56.5l-228 -1620h1020z" />
    <glyph glyph-name="M" unicode="M" horiz-adv-x="3240" 
d="M2687 2388q52 52 133 52h408q48 0 70.5 -26t15.5 -74l-315 -2240q-7 -48 -36.5 -74t-77.5 -26h-720q-48 0 -70.5 26t-15.5 74l105 744l-587 -556q-35 -33 -77 -33t-67 33l-429 556l-105 -744q-7 -48 -36.5 -74t-77.5 -26h-720q-48 0 -70.5 26t-15.5 74l315 2240
q7 48 36.5 74t77.5 26h352q75 0 115 -53l781 -1027z" />
    <glyph glyph-name="N" unicode="N" horiz-adv-x="2880" 
d="M2868 2440q48 0 70.5 -26t15.5 -74l-315 -2240q-7 -48 -36.5 -74t-77.5 -26h-272q-73 0 -119 40l-1091 940l-124 -880q-7 -48 -36.5 -74t-77.5 -26h-720q-48 0 -70.5 26t-15.5 74l315 2240q7 48 36.5 74t77.5 26h272q73 0 118 -40l1091 -948l125 888q7 48 36.5 74
t77.5 26h720z" />
    <glyph glyph-name="O" unicode="O" horiz-adv-x="3054" 
d="M1743 2500q273 0 504 -77t397.5 -218.5t260 -352.5t93.5 -467q0 -219 -59 -416.5t-165 -355.5t-255 -285t-327.5 -212t-384 -130.5t-423.5 -45.5q-273 0 -504 77t-397.5 218.5t-260 352.5t-93.5 467q0 219 59 416.5t165 355.5t255 285t327.5 212t384 130.5t423.5 45.5z
M1488 680q156 0 280 81t193.5 225t69.5 323q0 204 -104.5 327.5t-287.5 123.5q-156 0 -280 -81t-193.5 -225t-69.5 -323q0 -204 104.5 -327.5t287.5 -123.5z" />
    <glyph glyph-name="P" unicode="P" horiz-adv-x="2473" 
d="M1608 2440q223 0 401 -60t291.5 -165t173 -245t59.5 -304q0 -133 -36 -258.5t-104 -234.5t-170.5 -200t-230.5 -156t-289.5 -101t-342.5 -36h-360l-84 -600q-4 -33 -31 -56.5t-60 -23.5h-760q-33 0 -53.5 23.5t-15.5 56.5l321 2280q4 33 31 56.5t60 23.5h760h440z
M1293 1340q74 0 132.5 23t92 59.5t51 78t17.5 83.5q0 37 -12.5 70.5t-38.5 62.5t-72.5 46t-107.5 17h-200l-62 -440h200z" />
    <glyph glyph-name="Q" unicode="Q" horiz-adv-x="3054" 
d="M2998 1385q0 -219 -58.5 -416.5t-166 -356.5t-254.5 -284t-329 -212q25 -49 66 -86t88.5 -58.5t92.5 -32.5t90 -13q71 -4 61 -76l-67 -480q-12 -80 -101 -80q-328 0 -544 181t-260 482q-110 -13 -232 -13q-273 0 -504 77t-397.5 218.5t-260 352.5t-93.5 467
q0 219 59 416.5t165 355.5t255 285t327.5 212t384 130.5t423.5 45.5q273 0 504 -77t397.5 -218.5t260 -352.5t93.5 -467zM1096 1131q0 -204 104.5 -327.5t287.5 -123.5q156 0 280 81t193.5 225t69.5 323q0 204 -104.5 327.5t-287.5 123.5q-156 0 -280 -81t-193.5 -225
t-69.5 -323z" />
    <glyph glyph-name="R" unicode="R" horiz-adv-x="2546" 
d="M2088 901l266 -721q25 -68 -16.5 -124t-116.5 -56h-724q-24 0 -44.5 14t-28.5 38l-215 652h-205l-88 -624q-4 -33 -31 -56.5t-60 -23.5h-760q-33 0 -53.5 23.5t-15.5 56.5l321 2280q4 33 31 56.5t60 23.5h760h420q224 0 402 -58t292 -161.5t173.5 -241.5t59.5 -302
q0 -238 -111 -440.5t-316 -335.5zM1155 1780l-58 -416h160q312 0 312 239q0 177 -254 177h-160z" />
    <glyph glyph-name="S" unicode="S" horiz-adv-x="2360" 
d="M1208 1784q0 -19 14.5 -34t59 -32.5t71 -26t102.5 -30.5q70 -21 109 -32.5t113.5 -38t120 -48t112 -58.5t108 -74t89.5 -90t75 -110.5t45 -132t18 -157.5q0 -163 -51.5 -303t-143 -244t-215 -184t-271 -129.5t-306.5 -74.5t-326 -25q-261 0 -492.5 57.5t-398.5 150.5
q-73 48 -22 136l262 440q51 85 128 50q126 -57 194 -83.5t171 -48.5t215 -22q254 0 254 89q0 29 -33.5 53t-90 44.5t-130 43t-154.5 52t-162 66t-154.5 92t-130 123.5t-90 166t-33.5 214q0 277 145.5 485t414 320t624.5 112q277 0 515 -63.5t348 -132.5q77 -48 26 -132
l-233 -388q-26 -44 -65 -56.5t-82 7.5q-62 28 -102 44.5t-112 41.5t-146.5 37t-151.5 12q-123 0 -180.5 -25t-57.5 -61z" />
    <glyph glyph-name="T" unicode="T" horiz-adv-x="2520" 
d="M2588 2440q33 0 53.5 -23.5t15.5 -56.5l-82 -580q-4 -33 -31 -56.5t-60 -23.5h-660l-228 -1620q-4 -33 -31 -56.5t-60 -23.5h-760q-33 0 -53.5 23.5t-15.5 56.5l228 1620h-660q-33 0 -53.5 23.5t-15.5 56.5l82 580q4 33 31 56.5t60 23.5h1500h740z" />
    <glyph glyph-name="U" unicode="U" horiz-adv-x="2840" 
d="M2848 2440q33 0 53.5 -23.5t15.5 -56.5l-186 -1320q-31 -218 -120 -396t-222.5 -304t-308.5 -212.5t-375.5 -127t-425.5 -40.5t-414 41t-339.5 127t-248.5 212t-137.5 304t-8.5 396l186 1320q4 33 31 56.5t60 23.5h760q33 0 53 -23.5t15 -56.5l-157 -1120
q-37 -261 38 -400.5t266 -139.5t305 139.5t151 400.5l158 1120q4 33 31 56.5t60 23.5h760z" />
    <glyph glyph-name="V" unicode="V" horiz-adv-x="2868" 
d="M2988 2440q55 0 72.5 -31t-12.5 -85l-1260 -2248q-42 -76 -127 -76h-624q-80 0 -105 76l-728 2248q-17 53 10 84.5t82 31.5h776q80 0 102 -80l341 -1240l600 1240q38 80 127 80h746z" />
    <glyph glyph-name="W" unicode="W" horiz-adv-x="3792" 
d="M3916 2440q54 0 69.5 -30t-10.5 -86l-1031 -2248q-34 -76 -127 -76h-564q-92 0 -105 76l-209 1192l-543 -1192q-34 -76 -127 -76h-564q-91 0 -106 76l-399 2248q-10 55 14.5 85.5t77.5 30.5h764q41 0 69 -19.5t32 -60.5l116 -1080l425 920q37 80 128 80h536
q43 0 70.5 -21t33.5 -59l143 -920l460 1080q35 80 123 80h724z" />
    <glyph glyph-name="X" unicode="X" horiz-adv-x="3251" 
d="M3095 2440q62 0 74 -37t-32 -87l-963 -1103l662 -1093q30 -50 8.5 -85t-84.5 -35h-832q-74 0 -111 60l-323 534l-405 -534q-46 -60 -129 -60h-768q-63 0 -76.5 36t29.5 88l938 1148l-636 1049q-30 50 -8.5 84.5t84.5 34.5h832q73 0 111 -60l309 -510l420 510
q49 60 128 60h772z" />
    <glyph glyph-name="Y" unicode="Y" horiz-adv-x="2793" 
d="M2911 2440q55 0 74 -34t-14 -82l-1132 -1571l-95 -673q-4 -33 -31.5 -56.5t-60.5 -23.5h-760q-33 0 -53 23.5t-15 56.5l95 677l-713 1567q-22 47 7.5 81.5t85.5 34.5h796q68 0 101 -80l330 -840l522 840q21 35 54 57.5t73 22.5h736z" />
    <glyph glyph-name="Z" unicode="Z" horiz-adv-x="2680" 
d="M45 0q-48 0 -70.5 26t-15.5 74l27 192q10 72 61 124l1236 1284h-919q-33 0 -53.5 23.5t-15.5 56.5l82 580q4 33 31 56.5t60 23.5h2220q48 0 70.5 -26t15.5 -74l-27 -192q-11 -74 -58 -124l-1220 -1284h1020q33 0 53.5 -23.5t15.5 -56.5l-82 -580q-4 -33 -31 -56.5
t-60 -23.5h-2340z" />
    <glyph glyph-name="bracketleft" unicode="[" horiz-adv-x="1166" 
d="M1174 2300h-446l-376 -2680h446q48 0 70.5 -26t15.5 -74l-23 -160q-7 -48 -36.5 -74t-77.5 -26h-786q-33 0 -53.5 23.5t-15.5 56.5l456 3240q4 33 31 56.5t60 23.5h786q48 0 70.5 -26t15.5 -74l-23 -160q-7 -48 -36.5 -74t-77.5 -26z" />
    <glyph glyph-name="backslash" unicode="\" horiz-adv-x="2321" 
d="M590 2664l1583 -2610q19 -30 12 -61.5t-36 -45.5l-220 -110q-26 -14 -59.5 -2.5t-52.5 41.5l-1583 2610q-18 30 -11 61.5t35 45.5l219 110q29 14 62 2.5t51 -41.5z" />
    <glyph glyph-name="bracketright" unicode="]" horiz-adv-x="1167" 
d="M1206 2660q33 0 53 -23.5t15 -56.5l-455 -3240q-4 -33 -31 -56.5t-60 -23.5h-786q-48 0 -70.5 26t-15.5 74l22 160q7 48 36.5 74t77.5 26h446l377 2680h-446q-48 0 -70.5 26t-15.5 74l23 160q7 48 36.5 74t77.5 26h786z" />
    <glyph glyph-name="asciicircum" unicode="^" horiz-adv-x="1731" 
d="M1846 1919q29 -56 -6 -107.5t-102 -51.5h-389q-41 0 -56 35l-235 537l-385 -537q-26 -35 -66 -35h-389q-67 0 -87.5 51.5t24.5 107.5l674 849q24 32 63 32h464q38 0 55 -32z" />
    <glyph glyph-name="underscore" unicode="_" horiz-adv-x="1887" 
d="M95 -580q-48 0 -70.5 26t-15.5 74l53 380q7 48 36.5 74t77.5 26h1616q48 0 70.5 -26t15.5 -74l-53 -380q-7 -48 -36.5 -74t-77.5 -26h-1616z" />
    <glyph glyph-name="grave" unicode="`" horiz-adv-x="1135" 
d="M900 2096l-787 300q-40 15 -48 53t19 83l197 320q25 40 64 54t76 -7l698 -435q35 -22 45 -61t-13 -79l-109 -180q-23 -36 -61.5 -49.5t-80.5 1.5z" />
    <glyph glyph-name="a" unicode="a" horiz-adv-x="2446" 
d="M2431 1840l-166 -1180q-14 -104 -15 -186.5t6 -135t24 -138.5q20 -103 -82 -128l-539 -132q-86 -21 -127 32q-126 153 -146 319q-112 -176 -258.5 -263.5t-343.5 -87.5q-180 0 -321 62.5t-230.5 175t-135.5 264.5t-46 337q0 200 43.5 380.5t129.5 330t207 259t285 170.5
t354 61q328 0 464 -259l17 119q11 80 91 80h720q80 0 69 -80zM1159 620q126 0 210.5 109.5t84.5 302.5q0 130 -54 199t-145 69q-125 0 -209.5 -109.5t-84.5 -302.5q0 -130 54 -199t144 -69z" />
    <glyph glyph-name="b" unicode="b" horiz-adv-x="2447" 
d="M1643 1980q180 0 321 -62.5t230.5 -175t135.5 -264.5t46 -337q0 -200 -43.5 -380.5t-129.5 -330t-207 -259t-285 -170.5t-354 -61q-330 0 -464 259l-17 -119q-11 -80 -91 -80h-720q-80 0 -69 80l338 2400q11 80 91 80h720q80 0 69 -80l-107 -759q207 259 536 259z
M1172 620q125 0 210 109.5t85 302.5q0 130 -54 199t-145 69q-125 0 -210 -109.5t-85 -302.5q0 -130 54 -199t145 -69z" />
    <glyph glyph-name="c" unicode="c" horiz-adv-x="2170" 
d="M1978 524q45 -23 50.5 -56.5t-24.5 -79.5q-29 -48 -82 -102.5t-142 -117.5t-194 -112.5t-249 -82.5t-296 -33q-157 0 -300.5 35.5t-265 108.5t-211 176.5t-140 248t-50.5 315.5q0 185 49.5 349t137 289t206.5 224.5t259 163t292 97t309 33.5q152 0 286.5 -33t225.5 -82.5
t162.5 -112.5t109 -117.5t53.5 -102.5q17 -46 3 -79.5t-65 -56.5l-520 -240q-29 -13 -49.5 -15.5t-36 7.5t-23.5 20.5t-21 31.5q-29 49 -65 74.5t-105 25.5q-146 0 -224.5 -110t-78.5 -310q0 -129 52.5 -194.5t154.5 -65.5q69 0 112 25.5t86 74.5q19 22 30 32.5t29 20t38 7
t45 -15.5z" />
    <glyph glyph-name="d" unicode="d" horiz-adv-x="2447" 
d="M2472 2560q80 0 69 -80l-338 -2400q-11 -80 -91 -80h-720q-80 0 -69 80l17 119q-207 -259 -536 -259q-180 0 -321 62.5t-230.5 175t-135.5 264.5t-46 337q0 200 43.5 380.5t129.5 330t207 259t285 170.5t354 61q328 0 464 -259l107 759q11 80 91 80h720zM1179 620
q126 0 210.5 109.5t84.5 302.5q0 130 -54 199t-145 69q-125 0 -209.5 -109.5t-84.5 -302.5q0 -130 54 -199t144 -69z" />
    <glyph glyph-name="e" unicode="e" horiz-adv-x="2326" 
d="M1349 1980q142 0 267.5 -29t234.5 -88t190.5 -150.5t134.5 -215.5t67 -283t-11 -354h-1347q6 -83 32 -144.5t65 -93.5t80.5 -47t87.5 -15q95 0 160.5 25.5t116.5 84.5q21 24 34.5 36t30.5 19.5t35 4.5t42 -16l412 -218q48 -25 51 -60.5t-26 -75.5q-47 -74 -140.5 -148
t-217.5 -135t-284 -99t-321 -38q-210 0 -386.5 56.5t-307 164t-203.5 275t-73 378.5q0 224 68 415t187.5 328t281 233t349 143t390.5 47zM1257 1440q-101 0 -183.5 -56.5t-131.5 -163.5h526q-16 111 -71 165.5t-140 54.5z" />
    <glyph glyph-name="f" unicode="f" horiz-adv-x="1801" 
d="M1548 2120q-77 0 -127 -45t-74 -155h434q48 0 70.5 -26t15.5 -74l-65 -460q-7 -48 -36.5 -74t-77.5 -26h-436l-163 -1160q-7 -48 -36.5 -74t-77.5 -26h-680q-48 0 -70.5 26t-15.5 74l163 1160h-180q-48 0 -70.5 26t-15.5 74l65 460q7 48 36.5 74t77.5 26h180l8 60
q21 147 78 270.5t142 213.5t194.5 152.5t236 93t265.5 30.5q206 0 370 -59.5t265 -136.5q21 -16 31 -29t8 -41t-25 -66l-179 -287q-53 -85 -142 -44q-95 43 -169 43z" />
    <glyph glyph-name="g" unicode="g" horiz-adv-x="2394" 
d="M2434 2140q66 0 58 -59l-72 -507q-8 -56 -62 -56q-97 0 -175 -47q2 -28 2 -56q0 -141 -76.5 -265.5t-212 -216t-332.5 -144.5t-428 -53h-264q-77 0 -110.5 -23t-33.5 -68q0 -69 122 -69h536q370 0 572 -141.5t202 -385.5q0 -80 -18.5 -154.5t-59.5 -147t-103 -134.5
t-154 -114.5t-207 -89.5t-266.5 -58t-328.5 -21q-476 0 -722 131t-246 362q0 184 157 320q-86 57 -135 147t-49 196q0 154 99.5 280.5t275.5 200.5q-140 137 -140 336q0 112 48 214.5t140.5 186.5t219 146t291 96t349.5 34q328 0 551 -107q112 129 259 198t313 69z
M1203 1212q102 0 166 44.5t64 117.5q0 60 -51.5 95t-137.5 35q-101 0 -165 -44.5t-64 -117.5q0 -60 51 -95t137 -35zM1385 -80q0 100 -265 100q-148 0 -222.5 -28.5t-74.5 -91.5q0 -100 266 -100q148 0 222 28.5t74 91.5z" />
    <glyph glyph-name="h" unicode="h" horiz-adv-x="2400" 
d="M1797 1960q325 0 450 -173.5t77 -510.5l-168 -1196q-11 -80 -91 -80h-720q-80 0 -69 80l130 920q20 140 -14.5 200t-121.5 60q-103 0 -176.5 -77.5t-93.5 -222.5l-124 -880q-11 -80 -91 -80h-720q-80 0 -69 80l338 2400q11 80 91 80h720q81 0 69 -80l-118 -840
q110 146 288 233t413 87z" />
    <glyph glyph-name="i" unicode="i" horiz-adv-x="1123" 
d="M715 2048q-166 0 -274.5 112t-108.5 277q0 131 71 245t188 180t248 66q165 0 273.5 -112t108.5 -277q0 -131 -71 -245t-187.5 -180t-247.5 -66zM246 1840q11 80 91 80h720q80 0 69 -80l-248 -1760q-11 -80 -91 -80h-720q-80 0 -69 80z" />
    <glyph glyph-name="j" unicode="j" horiz-adv-x="1123" 
d="M713 2048q-166 0 -274.5 112t-108.5 277q0 131 71 245t187.5 180t247.5 66q166 0 274.5 -112t108.5 -277q0 -131 -71 -245t-187.5 -180t-247.5 -66zM-286 -640q-36 0 -56.5 24t-15.5 60l64 454q8 60 83 80q35 9 54 16t53.5 28t56 49t42.5 79.5t31 119.5l220 1570
q11 80 92 80h720q80 0 69 -80l-225 -1600q-23 -161 -75 -292t-146 -242t-226 -186.5t-319.5 -117.5t-421.5 -42z" />
    <glyph glyph-name="k" unicode="k" horiz-adv-x="2465" 
d="M334 2480q11 80 91 80h720q80 0 69 -80l-338 -2400q-11 -80 -91 -80h-720q-80 0 -69 80zM1441 0q-90 0 -111 68l-284 932l496 852q19 32 54 50t75 18h720q58 0 69 -36.5t-22 -83.5l-513 -780l344 -900q21 -55 -1.5 -87.5t-82.5 -32.5h-744z" />
    <glyph glyph-name="l" unicode="l" 
d="M334 2480q11 80 91 80h720q80 0 69 -80l-338 -2400q-11 -80 -91 -80h-720q-80 0 -69 80z" />
    <glyph glyph-name="m" unicode="m" horiz-adv-x="3600" 
d="M3013 1960q314 0 435 -183.5t71 -540.5l-160 -1136q-7 -48 -36.5 -74t-77.5 -26h-680q-48 0 -70.5 26t-15.5 74l127 900q20 140 -11.5 200t-112.5 60q-89 0 -155.5 -80t-89.5 -240l-118 -840q-7 -48 -36.5 -74t-77.5 -26h-680q-48 0 -70.5 26t-15.5 74l127 900
q20 140 -11.5 200t-112.5 60q-89 0 -155.5 -80t-89.5 -240l-121 -860q-11 -80 -91 -80h-720q-80 0 -69 80l248 1760q11 80 91 80h720q81 0 69 -80l-28 -200q131 151 301 235.5t372 84.5q449 0 514 -382q298 382 730 382z" />
    <glyph glyph-name="n" unicode="n" horiz-adv-x="2400" 
d="M1797 1960q325 0 450 -173.5t77 -510.5l-168 -1196q-11 -80 -91 -80h-720q-80 0 -69 80l130 920q20 140 -14.5 200t-121.5 60q-103 0 -176.5 -77.5t-93.5 -222.5l-124 -880q-11 -80 -91 -80h-720q-80 0 -69 80l248 1760q11 80 91 80h720q81 0 69 -80l-28 -200
q110 146 288 233t413 87z" />
    <glyph glyph-name="o" unicode="o" horiz-adv-x="2452" 
d="M1369 1980q169 0 320 -35.5t277 -108.5t218 -176.5t143 -248t51 -315.5q0 -222 -70.5 -411.5t-192.5 -324.5t-286.5 -231t-353.5 -142.5t-392 -46.5q-169 0 -320 35.5t-277 108.5t-218 176.5t-143 248t-51 315.5q0 160 36.5 303.5t103 258.5t159.5 211.5t205.5 167
t241 119t267 72.5t282.5 24zM1178 620q125 0 210 109.5t85 302.5q0 130 -54 199t-145 69q-125 0 -210 -109.5t-85 -302.5q0 -130 54 -199t145 -69z" />
    <glyph glyph-name="p" unicode="p" horiz-adv-x="2447" 
d="M1643 1980q180 0 321 -62.5t230.5 -175t135.5 -264.5t46 -337q0 -200 -43.5 -380.5t-129.5 -330t-207 -259t-285 -170.5t-354 -61q-328 0 -464 259l-107 -759q-11 -80 -91 -80h-720q-80 0 -69 80l338 2400q11 80 91 80h720q80 0 69 -80l-17 -119q207 259 536 259z
M1172 620q125 0 210 109.5t85 302.5q0 130 -54 199t-145 69q-126 0 -210.5 -109.5t-84.5 -302.5q0 -130 54 -199t145 -69z" />
    <glyph glyph-name="q" unicode="q" horiz-adv-x="2448" 
d="M2383 1921q80 0 69 -80l-338 -2400q-11 -80 -91 -80h-720q-80 0 -69 80l107 759q-207 -259 -536 -259q-180 0 -321 62.5t-230.5 175t-135.5 264.5t-46 337q0 200 43.5 380.5t129.5 330t207 259t285 170.5t354 61q330 0 464 -259l17 119q11 80 91 80h720zM1180 621
q126 0 210.5 109.5t84.5 302.5q0 130 -54 199t-145 69q-125 0 -209.5 -109.5t-84.5 -302.5q0 -130 54 -199t144 -69z" />
    <glyph glyph-name="r" unicode="r" horiz-adv-x="1560" 
d="M1551 1952q89 0 77 -80l-104 -740q-3 -20 -10.5 -34t-20.5 -22t-23.5 -12t-28.5 -8q-36 -8 -57 -13.5t-61.5 -18t-67.5 -24.5t-66 -32.5t-66 -43t-58 -56t-52 -71t-38 -87t-25 -106.5l-74 -524q-11 -80 -91 -80h-720q-80 0 -69 80l248 1760q11 80 91 80h720q80 0 69 -80
l-40 -280q39 92 99.5 168.5t124.5 124t127.5 73.5t115.5 26z" />
    <glyph glyph-name="s" unicode="s" horiz-adv-x="2060" 
d="M1094 1388q0 -22 23.5 -41t64 -34t94 -33t114 -36t124.5 -44.5t124.5 -57t114 -76t94 -98.5t64 -126.5t23.5 -158.5q0 -147 -54.5 -269t-152.5 -209t-235 -147t-300.5 -89t-349.5 -29q-258 0 -490.5 52t-329.5 120q-43 30 -49 62t19 70l204 336q17 28 35.5 44.5t37 19.5
t35 0t35.5 -12q139 -67 243 -97.5t235 -30.5q165 0 165 64q0 26 -34.5 49t-91 40.5t-129 42.5t-147.5 52t-147.5 72.5t-129 101t-91 139.5t-34.5 186q0 220 125 385.5t351.5 254.5t524.5 89q242 0 463.5 -57.5t326.5 -134.5q41 -30 48.5 -57.5t-18.5 -74.5l-173 -288
q-58 -97 -139 -52q-43 24 -70 37.5t-90.5 40t-136 40.5t-148.5 14q-148 0 -148 -60z" />
    <glyph glyph-name="t" unicode="t" horiz-adv-x="1927" 
d="M1821 1920q48 0 70.5 -26t15.5 -74l-65 -460q-7 -48 -36.5 -74t-77.5 -26h-476l-56 -400q-37 -260 143 -260q89 0 209 60q100 50 129 -44l111 -344q27 -86 -58 -132q-183 -100 -358.5 -150t-405.5 -50q-220 0 -385 81.5t-246.5 237.5t-52.5 361l90 640h-180
q-48 0 -70.5 26t-15.5 74l65 460q7 48 36.5 74t77.5 26h180l31 220q13 90 116 120l696 196q50 14 80 -3t23 -63l-66 -470h476z" />
    <glyph glyph-name="u" unicode="u" horiz-adv-x="2401" 
d="M2336 1920q80 0 68 -80l-247 -1760q-11 -80 -91 -80h-720q-80 0 -69 80l28 200q-110 -146 -288 -233t-413 -87q-324 0 -449.5 173.5t-78.5 510.5l168 1196q12 80 92 80h720q80 0 68 -80l-129 -920q-20 -140 14.5 -200t121.5 -60q103 0 176.5 77.5t93.5 222.5l123 880
q12 80 92 80h720z" />
    <glyph glyph-name="v" unicode="v" horiz-adv-x="2482" 
d="M2492 1920q70 0 98.5 -53t-10.5 -115l-1051 -1676q-47 -76 -126 -76h-592q-80 0 -106 76l-581 1676q-21 61 22.5 114.5t113.5 53.5h772q30 0 50.5 -16.5t25.5 -43.5l167 -800l392 800q14 27 38.5 43.5t54.5 16.5h732z" />
    <glyph glyph-name="w" unicode="w" horiz-adv-x="3331" 
d="M3344 1920q68 0 95 -52t-6 -116l-855 -1672q-42 -80 -123 -80h-472q-85 0 -104 76l-220 836l-453 -836q-41 -76 -127 -76h-472q-83 0 -101 80l-385 1672q-15 65 26 116.5t109 51.5h708q33 0 53.5 -16.5t22.5 -43.5l103 -716l269 572q34 76 130 76h480q96 0 110 -76
l107 -572l305 716q10 27 34.5 43.5t57.5 16.5h708z" />
    <glyph glyph-name="x" unicode="x" horiz-adv-x="2463" 
d="M2452 1920q62 0 75.5 -37t-33.5 -87l-775 -828l526 -843q31 -47 7.5 -86t-86.5 -39h-812q-74 0 -111 60l-167 279l-225 -275q-53 -64 -129 -64h-708q-62 0 -75.5 37t31.5 87l746 819l-512 857q-31 50 -9.5 85t85.5 35h772q73 0 111 -60l178 -285l233 281q53 64 130 64
h748z" />
    <glyph glyph-name="y" unicode="y" horiz-adv-x="2402" 
d="M2413 1920q69 0 97.5 -52t-10.5 -116l-879 -1426q-117 -189 -216.5 -324t-211 -248t-224.5 -184t-253 -120t-299 -69.5t-361 -20.5q-36 0 -56.5 24t-15.5 60l64 454q9 71 83 80q175 22 286.5 84t237.5 219l-530 1471q-22 62 22 115t114 53h752q57 0 76 -60l175 -608
l344 608q33 60 93 60h712z" />
    <glyph glyph-name="z" unicode="z" horiz-adv-x="2210" 
d="M-5 0q-48 0 -70.5 26t-15.5 74l7 52q9 68 58 124l851 964h-536q-33 0 -53 23.5t-15 56.5l73 520q5 33 31 56.5t59 23.5h1760q48 0 71 -26t16 -74l-8 -52q-10 -67 -57 -124l-901 -1004h700q33 0 53.5 -23.5t15.5 -56.5l-68 -480q-4 -33 -31 -56.5t-60 -23.5h-1880z" />
    <glyph glyph-name="braceleft" unicode="{" horiz-adv-x="1006" 
d="M1052 2329q-110 -28 -163.5 -111.5t-53.5 -241.5q0 -57 7 -216t7 -224q0 -254 -98 -391t-291 -185q260 -70 260 -369q0 -82 -30.5 -200.5t-67 -218t-67 -206.5t-30.5 -168q0 -170 142 -207q29 -8 44 -27.5t11 -48.5l-24 -172q-5 -36 -32 -59.5t-63 -22.5
q-103 4 -182 18.5t-148 47t-113 82.5t-69 126.5t-25 178.5t31 226.5t67.5 219.5t67.5 200.5t31 174.5q0 120 -50.5 185.5t-144.5 93.5q-26 8 -39 27t-9 46l21 146q8 56 68 73q69 19 120 49.5t91 80t60.5 123.5t20.5 173q0 53 -8 204.5t-8 223.5q0 161 32 281t88.5 198
t145 126.5t191.5 69.5t238 24q36 1 57 -22.5t16 -59.5l-25 -172q-8 -59 -76 -76z" />
    <glyph glyph-name="bar" unicode="|" horiz-adv-x="660" 
d="M387 2860q4 33 31.5 56.5t60.5 23.5h260q33 0 53 -23.5t15 -56.5l-461 -3280q-4 -33 -31 -56.5t-60 -23.5h-260q-33 0 -53.5 23.5t-15.5 56.5z" />
    <glyph glyph-name="braceright" unicode="}" horiz-adv-x="1005" 
d="M938 1106q25 -8 38 -27t9 -46l-20 -146q-4 -26 -22.5 -45.5t-46.5 -27.5q-69 -19 -120 -49.5t-91 -80t-60.5 -123.5t-20.5 -173q0 -53 8.5 -204.5t8.5 -223.5q0 -116 -16.5 -210t-46 -164.5t-76 -124t-102 -89.5t-129 -60t-152 -35.5t-174.5 -15.5q-36 -1 -56.5 22.5
t-15.5 59.5l24 172q8 59 77 76q110 28 163 111.5t53 241.5q0 57 -7 216t-7 224q0 254 98 391t291 185q-260 70 -260 369q0 82 30.5 200.5t67 218t67 206.5t30.5 168q0 169 -142 207q-29 8 -44 28t-11 48l24 172q5 36 32.5 59.5t63.5 22.5q129 -3 223 -25.5t167 -73t110 -139
t37 -215.5q0 -102 -31 -226.5t-68 -219.5t-68 -200.5t-31 -174.5q0 -120 51 -185.5t145 -93.5z" />
    <glyph glyph-name="asciitilde" unicode="~" horiz-adv-x="2336" 
d="M2194 1359q21 -13 27.5 -36.5t-4.5 -49.5q-59 -139 -141.5 -246t-173.5 -170t-183.5 -95t-182.5 -32q-111 0 -205 22.5t-159.5 55t-126 65t-131.5 55t-147 22.5q-172 0 -322 -160q-24 -26 -53 -32.5t-55 8.5l-153 95q-20 13 -26.5 36.5t3.5 49.5q47 112 111 203.5
t132.5 153.5t144.5 104.5t149 62t145 19.5q111 0 205 -22.5t159.5 -55t126 -65t131.5 -55t147 -22.5q173 0 321 160q24 26 53.5 32.5t55.5 -8.5z" />
    <glyph glyph-name="exclamdown" unicode="&#xa1;" 
d="M713 1980q158 0 262 -107t104 -264q0 -94 -40 -181t-106 -150t-155 -100.5t-182 -37.5q-158 0 -262 107t-104 265q0 93 40 180t106 150t155 100.5t182 37.5zM806 -420q-3 -38 -27 -59t-64 -21h-720q-40 0 -58.5 21t-10.5 59l294 1380q17 80 91 80h520q75 0 69 -80z" />
    <glyph glyph-name="cent" unicode="&#xa2;" horiz-adv-x="2170" 
d="M2164 1532q17 -46 3 -79.5t-65 -56.5l-520 -240q-29 -13 -49.5 -15.5t-36 7.5t-23.5 20.5t-21 31.5q-29 49 -65 74.5t-105 25.5q-146 0 -224.5 -110t-78.5 -310q0 -129 52.5 -194.5t154.5 -65.5q69 0 112 25.5t86 74.5q19 22 30 32.5t29 20t38 7t45 -15.5l452 -240
q45 -23 50.5 -56.5t-24.5 -79.5q-29 -48 -84.5 -103.5t-137.5 -116t-199.5 -114t-246.5 -82.5l-55 -392q-4 -33 -31 -56.5t-60 -23.5h-460q-33 0 -53.5 23.5t-15.5 56.5l56 402q-141 38 -256.5 110.5t-203 176.5t-135.5 246t-48 309q0 182 48 344t132.5 286t201 223
t251.5 164t286 101l59 418q4 33 31 56.5t60 23.5h460q33 0 53.5 -23.5t15.5 -56.5l-58 -413q97 -23 183.5 -63.5t146.5 -84.5t107 -94.5t73.5 -93t39.5 -79.5z" />
    <glyph glyph-name="sterling" unicode="&#xa3;" horiz-adv-x="2445" 
d="M1551 1810q-266 0 -297 -222q-10 -74 -12 -168h380q35 0 55.5 -23.5t15.5 -58.5l-36 -256q-5 -35 -32 -58.5t-62 -23.5h-348q-59 -210 -300 -400q108 30 209 40.5t183 4.5t161 -19t157.5 -27t157.5 -22.5t175.5 -2.5t198.5 30q50 12 81.5 -13t24.5 -74l-64 -456
q-4 -28 -26 -49t-55 -28q-150 -30 -305 -36.5t-287 5.5t-265 30.5t-259.5 35.5t-249.5 24t-255 -8t-257 -56q-34 -12 -62.5 -0.5t-35.5 42.5l-70 306q-8 35 14 66q146 194 212 338.5t78 268.5h-209q-35 0 -55 23.5t-15 58.5l36 256q4 35 31 58.5t62 23.5h116q-13 142 6 271
q53 374 346.5 591.5t748.5 217.5q331 0 593.5 -112t435.5 -300q25 -28 34.5 -48.5t1.5 -48t-40 -59.5l-290 -298q-21 -21 -37.5 -34.5t-35.5 -23t-37.5 -7.5t-36.5 16q-47 37 -58.5 46.5t-56 43t-65.5 44.5t-64 34t-74.5 32t-75 17t-86.5 8z" />
    <glyph glyph-name="currency" unicode="&#xa4;" horiz-adv-x="3020" 
d="M3062 2162q26 -31 17 -70t-48 -63l-423 -265q155 -289 106 -644q-49 -352 -287 -644l349 -265q32 -24 30 -63t-37 -70l-319 -280q-34 -30 -73.5 -26.5t-58.5 38.5l-208 379q-344 -229 -740 -229q-197 0 -369.5 59.5t-306.5 169.5l-316 -379q-28 -35 -68.5 -38.5
t-65.5 26.5l-241 280q-26 31 -17 70t48 63l424 266q-155 288 -106 643q49 351 287 643l-350 266q-32 24 -30 63t37 70l319 280q34 30 73.5 26.5t58.5 -38.5l209 -379q344 229 740 229q197 0 369.5 -59.5t306.5 -169.5l315 379q28 35 68.5 38.5t65.5 -26.5zM2033 1120
q16 115 -9.5 212.5t-83 164.5t-144 105t-190.5 38q-214 0 -377.5 -145t-195.5 -375q-16 -115 9 -212.5t82.5 -164.5t144 -105t190.5 -38q140 0 262.5 64t206 183.5t105.5 272.5z" />
    <glyph glyph-name="yen" unicode="&#xa5;" horiz-adv-x="2793" 
d="M2911 2440q55 0 74 -34t-14 -82l-781 -1084h130q48 0 70.5 -26t15.5 -74l-28 -200q-7 -48 -36.5 -74t-77.5 -26h-363l-62 -87l-2 -13h413q48 0 70.5 -26t15.5 -74l-28 -200q-7 -48 -36.5 -74t-77.5 -26h-413l-37 -260q-4 -33 -31.5 -56.5t-60.5 -23.5h-760
q-33 0 -53 23.5t-15 56.5l37 260h-443q-48 0 -70.5 26t-15.5 74l28 200q7 48 36.5 74t77.5 26h443l2 17l-37 83h-394q-48 0 -70.5 26t-15.5 74l28 200q7 48 36.5 74t77.5 26h155l-493 1084q-22 47 7.5 81.5t85.5 34.5h796q68 0 101 -80l330 -840l522 840q21 35 54 57.5
t73 22.5h736z" />
    <glyph glyph-name="brokenbar" unicode="&#xa6;" horiz-adv-x="660" 
d="M387 2860q4 33 31.5 56.5t60.5 23.5h260q33 0 53 -23.5t15 -56.5l-152 -1080q-4 -33 -31 -56.5t-60 -23.5h-260q-33 0 -53.5 23.5t-15.5 56.5zM78 660q4 33 31 56.5t60 23.5h260q33 0 53.5 -23.5t15.5 -56.5l-152 -1080q-4 -33 -31 -56.5t-60 -23.5h-260
q-33 0 -53.5 23.5t-15.5 56.5z" />
    <glyph glyph-name="section" unicode="&#xa7;" horiz-adv-x="2528" 
d="M2568 2058q2 -41 -27 -69.5t-71 -28.5h-541q-55 0 -65 59q-12 71 -48.5 122.5t-92.5 81t-122.5 43.5t-146.5 14q-168 0 -282.5 -60.5t-130.5 -171.5q-12 -87 121 -152q80 -39 318 -107q292 -85 433 -145q342 -148 452 -381q168 -354 -161 -953q110 -160 78 -390
q-36 -255 -216 -447t-461 -292.5t-621 -100.5q-483 0 -749.5 211t-281.5 612q-1 40 27.5 68.5t69.5 28.5h540q28 0 46 -17t21 -46q35 -297 406 -297q112 0 213.5 25.5t175 79.5t83.5 127q13 89 -122 163q-81 44 -316 126q-289 100 -428 168q-334 165 -442 402
q-162 356 152 925q-111 156 -79 384q34 238 197 419.5t431.5 281t604.5 99.5q479 0 747 -203.5t288 -578.5zM1742 617q48 272 -147 434q-119 100 -383 191q-53 18 -162 53q-126 40 -187 62q-14 -59 -16.5 -112t13.5 -99.5t29 -83.5t55 -74t65.5 -62t86 -56.5t91 -47t107 -45
t107 -39.5t115.5 -40q152 -52 226 -81z" />
    <glyph glyph-name="dieresis" unicode="&#xa8;" horiz-adv-x="1927" 
d="M441 2127q-136 0 -225 92t-89 228q0 164 125.5 284t290.5 120q137 0 226 -92t89 -228q0 -108 -58 -201.5t-154.5 -148t-204.5 -54.5zM1381 2127q-136 0 -225 92t-89 228q0 164 125.5 284t290.5 120q137 0 226 -92t89 -228q0 -108 -58 -201.5t-154.5 -148t-204.5 -54.5z
" />
    <glyph glyph-name="copyright" unicode="&#xa9;" horiz-adv-x="2690" 
d="M1556 2460q230 0 431.5 -86t343 -233t222.5 -349t81 -429q0 -185 -54 -363.5t-149.5 -330t-230.5 -280t-291.5 -218.5t-337 -140.5t-364.5 -50.5q-230 0 -431.5 85.5t-343 232.5t-222.5 349.5t-81 429.5q0 184 54 363t149.5 330t230.5 280t291.5 219t337 140.5
t364.5 50.5zM1242 223q147 0 291.5 40.5t270 113t233.5 176t184.5 225t120 265.5t43.5 292q0 182 -65 345t-178 281.5t-274 187.5t-345 69q-176 0 -347.5 -57t-313.5 -161t-251.5 -241t-170.5 -306.5t-61 -347.5q0 -182 65 -345t178 -281t274.5 -187t345.5 -69zM1979 928
q46 -24 14 -73q-107 -158 -286.5 -241t-368.5 -83q-197 0 -349 71t-239 208t-87 320q0 141 45 265t125.5 217t189 160t238.5 101.5t271 34.5q122 0 231.5 -34t199.5 -109t132 -181q20 -50 -34 -73l-326 -145q-45 -21 -70 23q-28 55 -77 88t-112 33q-127 0 -209.5 -96
t-82.5 -243q0 -109 56 -175.5t154 -66.5q125 0 224 120q36 43 76 24z" />
    <glyph glyph-name="guillemotleft" unicode="&#xab;" horiz-adv-x="2147" 
d="M1132 1569l-36 -258q-5 -30 -42 -60l-389 -306l303 -306q30 -30 25 -60l-36 -258q-10 -72 -69.5 -100t-111.5 15l-617 513q-25 22 -20 56l20 140l19 140q6 35 36 56l761 513q44 27 81.5 25t60 -32.5t15.5 -77.5zM1915 1654q44 27 81.5 25t60.5 -32.5t16 -77.5l-37 -258
q-3 -29 -42 -60l-389 -306l303 -306q30 -30 25 -60l-36 -258q-10 -72 -69.5 -100t-111.5 15l-617 513q-25 22 -20 56l20 140l19 140q6 35 36 56z" />
    <glyph glyph-name="logicalnot" unicode="&#xac;" horiz-adv-x="2236" 
d="M2038 1400q48 0 70.5 -26t15.5 -74l-117 -820q-11 -80 -91 -80h-420q-80 0 -69 80l48 340h-1234q-48 0 -70.5 26t-15.5 74l53 380q7 48 36.5 74t77.5 26h1716z" />
    <glyph glyph-name="registered" unicode="&#xae;" horiz-adv-x="2690" 
d="M1556 2460q230 0 431.5 -86t343 -233t222.5 -349t81 -429q0 -185 -54 -363.5t-149.5 -330t-230.5 -280t-291.5 -218.5t-337 -140.5t-364.5 -50.5q-230 0 -431.5 85.5t-343 232.5t-222.5 349.5t-81 429.5q0 184 54 363t149.5 330t230.5 280t291.5 219t337 140.5
t364.5 50.5zM1242 223q147 0 291.5 40.5t270 113t233.5 176t184.5 225t120 265.5t43.5 292q0 182 -65 345t-178 281.5t-274 187.5t-345 69q-176 0 -347.5 -57t-313.5 -161t-251.5 -241t-170.5 -306.5t-61 -347.5q0 -182 65 -345t178 -281t274.5 -187t345.5 -69zM1560 1875
q239 0 369 -114t130 -296q0 -128 -60 -237t-170 -180l143 -388q14 -37 -8.5 -67t-62.5 -30h-390q-29 0 -39 28l-116 351h-110l-47 -336q-3 -18 -17.5 -30.5t-31.5 -12.5h-409q-18 0 -28.5 12.5t-8.5 30.5l173 1226q2 18 16.5 30.5t31.5 12.5h409h226zM1327 1520l-31 -223h86
q168 0 168 128q0 95 -137 95h-86z" />
    <glyph glyph-name="macron" unicode="&#xaf;" horiz-adv-x="1495" 
d="M47 2556q6 42 39 71t75 29h1240q42 0 67 -29t19 -71l-39 -276q-6 -42 -39 -71t-75 -29h-1240q-42 0 -67 29t-19 71z" />
    <glyph glyph-name="degree" unicode="&#xb0;" horiz-adv-x="1224" 
d="M682 1456q-224 0 -379 150t-155 368q0 129 60 250t157.5 207.5t224.5 138.5t256 52q147 0 269.5 -69.5t193 -189.5t70.5 -264q0 -129 -60 -249.5t-157 -206t-223.5 -136.5t-256.5 -51zM742 1882q71 0 122.5 51.5t51.5 121.5q0 58 -36 99t-94 41q-72 0 -123 -54t-51 -124
q0 -57 36 -96t94 -39z" />
    <glyph glyph-name="plusminus" unicode="&#xb1;" horiz-adv-x="2237" 
d="M2113 1928q48 0 70.5 -26t15.5 -74l-54 -380q-7 -48 -36.5 -74t-77.5 -26h-567l-80 -568q-7 -48 -37 -74t-78 -26h-380q-48 0 -70 26t-15 74l80 568h-569q-48 0 -70.5 26t-15.5 74l54 380q7 48 36.5 74t77.5 26h568l80 568q7 48 36.5 74t77.5 26h380q48 0 70.5 -26
t15.5 -74l-80 -568h568zM1923 580q48 0 70.5 -26t15.5 -74l-53 -380q-7 -48 -36.5 -74t-77.5 -26h-1716q-48 0 -70.5 26t-15.5 74l53 380q7 48 36.5 74t77.5 26h1716z" />
    <glyph glyph-name="acute" unicode="&#xb4;" horiz-adv-x="1162" 
d="M156 2096q-47 -15 -81.5 -1.5t-46.5 49.5l-59 180q-12 38 9.5 78t62.5 62l821 435q42 21 77 7t48 -54l107 -320q15 -45 -4 -83t-63 -53z" />
    <glyph glyph-name="paragraph" unicode="&#xb6;" horiz-adv-x="2143" 
d="M2151 2440q33 0 53.5 -23.5t15.5 -56.5l-391 -2780q-4 -33 -31 -56.5t-60 -23.5h-60q-33 0 -53.5 23.5t-15.5 56.5l371 2640h-880l-371 -2640q-4 -33 -31 -56.5t-60 -23.5h-60q-33 0 -53.5 23.5t-15.5 56.5l192 1364q-166 19 -297 110t-203.5 235t-72.5 314
q0 167 72 322.5t190.5 267.5t276.5 179.5t324 67.5h1100h60z" />
    <glyph glyph-name="periodcentered" unicode="&#xb7;" horiz-adv-x="1123" 
d="M500 520q-166 0 -274.5 112t-108.5 277q0 131 71 245t187.5 180t247.5 66q166 0 274.5 -112t108.5 -277q0 -131 -71 -245t-187.5 -180t-247.5 -66z" />
    <glyph glyph-name="cedilla" unicode="&#xb8;" horiz-adv-x="2442" 
d="M326 -880q-93 0 -162.5 16.5t-139.5 55.5q-35 24 -42 55t13 77l23 52q43 94 140 56q66 -32 127 -32q73 0 122.5 38.5t49.5 106.5q0 24 -9 41.5t-22.5 28.5t-37 17t-43 8.5t-51 2t-51.5 -2t-53 -4.5q-70 -6 -91.5 17.5t9.5 78.5l180 308h359l-106 -160q195 22 308 -55.5
t113 -234.5q0 -115 -49.5 -206t-137 -148t-201.5 -86.5t-248 -29.5z" />
    <glyph glyph-name="guillemotright" unicode="&#xbb;" horiz-adv-x="2146" 
d="M1044 945l-20 -140q-5 -34 -35 -56l-761 -513q-64 -43 -116.5 -15t-41.5 100l37 258q4 30 42 60l389 306l-303 306q-30 30 -25 60l36 258q10 72 69 100t111 -15l618 -513q24 -21 19 -56zM1984 1141q24 -21 19 -56l-19 -140l-20 -140q-5 -34 -35 -56l-761 -513
q-64 -43 -116.5 -15t-41.5 100l37 258q4 30 42 60l389 306l-303 306q-30 30 -25 60l36 258q10 72 69 100t111 -15z" />
    <glyph glyph-name="onequarter" unicode="&#xbc;" horiz-adv-x="3985" 
d="M2356 2592q14 30 45 41.5t62 -2.5l217 -102q29 -14 40.5 -45t-2.5 -61l-1217 -2610q-14 -30 -45.5 -41.5t-59.5 2.5l-218 101q-31 15 -42 46t3 61zM1380 2397q21 0 34.5 -15t10.5 -37l-211 -1499q-3 -22 -20.5 -37.5t-39.5 -15.5h-500q-22 0 -35 15.5t-10 37.5l146 1035
l-234 -98q-22 -10 -41.5 -2.5t-25.5 28.5l-103 321q-8 22 3 42.5t35 30.5l451 179q37 15 81 15h459zM3850 684q32 0 46.5 -17.5t10.5 -48.5l-34 -237q-8 -65 -75 -65h-170l-37 -263q-3 -22 -20.5 -37.5t-39.5 -15.5h-434q-22 0 -35 15.5t-10 37.5l37 263h-780q-66 0 -57 65
l22 157q2 15 13 26l920 1003q34 37 84 37h465q22 0 35.5 -15t10.5 -37l-123 -868h171zM2864 684h277l50 357z" />
    <glyph glyph-name="onehalf" unicode="&#xbd;" horiz-adv-x="4073" 
d="M2680 2529q29 -14 40.5 -45t-2.5 -61l-1217 -2610q-14 -30 -45.5 -41.5t-59.5 2.5l-218 101q-31 15 -42 46t3 61l1217 2610q14 30 45 41.5t62 -2.5zM1214 846q-3 -22 -20.5 -37.5t-39.5 -15.5h-500q-22 0 -35 15.5t-10 37.5l146 1035l-234 -98q-22 -10 -41.5 -2.5
t-25.5 28.5l-103 321q-8 22 3 42.5t35 30.5l451 179q37 15 81 15h459q21 0 34.5 -15t10.5 -37zM3984 1105q-27 -190 -171.5 -365.5t-415.5 -325.5h467q22 0 35 -15.5t10 -37.5l-44 -315q-3 -22 -20.5 -37.5t-39.5 -15.5h-1282q-32 0 -46.5 17.5t-10.5 48.5l18 126
q8 60 40 82q200 127 351.5 237t241 188.5t146.5 147t78.5 112.5t27.5 85q10 75 -24.5 110.5t-117.5 35.5q-48 0 -94 -11t-99.5 -39.5t-78 -43t-85.5 -54.5q-45 -30 -88 32l-135 196q-20 35 -13 55.5t39 47.5q148 124 341.5 197.5t411.5 73.5q298 0 445 -142.5t113 -389.5z
" />
    <glyph glyph-name="threequarters" unicode="&#xbe;" horiz-adv-x="4235" 
d="M2556 2592q14 30 45 41.5t62 -2.5l217 -102q29 -14 40.5 -45t-2.5 -61l-1217 -2610q-14 -30 -45.5 -41.5t-59.5 2.5l-218 101q-31 15 -42 46t3 61zM1355 1623q112 -55 173 -141t61 -200q0 -164 -106 -285t-284 -182t-402 -61q-440 0 -674 270q-17 20 -23 32.5t-1 30.5
t27 40l191 196q59 61 96 32q49 -37 77.5 -57t75 -44.5t95.5 -35.5t107 -11q93 0 151.5 28.5t58.5 81.5q0 37 -37 64t-94 41t-128 17q-22 1 -34.5 15.5t-9.5 36.5l29 213q4 22 20.5 37t40.5 17q120 8 188 46.5t68 100.5q0 78 -139 78q-70 0 -147.5 -25t-120 -48t-106.5 -62
q-15 -9 -27 -10.5t-23 4.5t-19.5 15t-18.5 24l-126 182q-16 23 -15.5 41t10 30.5t31.5 31.5q141 123 341.5 197t423.5 74q258 0 405 -102t147 -286q0 -273 -282 -426zM4050 684q32 0 46.5 -17.5t10.5 -48.5l-34 -237q-8 -65 -75 -65h-170l-37 -263q-3 -22 -20.5 -37.5
t-39.5 -15.5h-434q-22 0 -35 15.5t-10 37.5l37 263h-780q-66 0 -57 65l22 157q2 15 13 26l920 1003q34 37 84 37h465q22 0 35.5 -15t10.5 -37l-123 -868h171zM3064 684h277l50 357z" />
    <glyph glyph-name="questiondown" unicode="&#xbf;" horiz-adv-x="1870" 
d="M1015 1980q158 0 261.5 -106.5t103.5 -263.5q0 -125 -67.5 -233.5t-179 -171.5t-235.5 -63q-158 0 -261.5 106.5t-103.5 263.5q0 125 67.5 233.5t179 171.5t235.5 63zM793 235q0 -61 48 -98t152 -37q54 0 104.5 10t95 29.5t72.5 34.5t67 40t49 31q27 16 45 19t40.5 -12.5
t48.5 -55.5l187 -288q13 -21 14.5 -38.5t-11.5 -34.5t-26.5 -28.5t-39.5 -30.5q-221 -159 -456 -247.5t-528 -88.5q-135 0 -250.5 20t-214.5 63t-169 108t-109.5 159.5t-39.5 212.5q0 83 19.5 155.5t54 128t79 105t96.5 92t105 83t106 83.5t97.5 87.5t81.5 102t57 120.5
q8 24 14 37.5t26 27.5t51 14h507q36 0 48.5 -18.5t12.5 -59.5q0 -65 -24 -129t-62 -117t-84.5 -105t-93 -99.5t-84.5 -92.5t-62 -92.5t-24 -90.5z" />
    <glyph glyph-name="Agrave" unicode="&#xc0;" horiz-adv-x="2885" 
d="M1072 2916q-40 15 -48 53t19 83l197 320q25 40 64 54t76 -7l698 -435q35 -22 45 -61t-13 -79l-109 -180q-23 -36 -61.5 -49.5t-80.5 1.5zM2756 116q13 -53 -12 -84.5t-80 -31.5h-784q-83 0 -100 80l-56 260h-785l-123 -260q-38 -80 -126 -80h-738q-55 0 -71.5 31t11.5 85
l1216 2248q41 76 126 76h824q86 0 106 -76zM1203 900h399l-126 580z" />
    <glyph glyph-name="Aacute" unicode="&#xc1;" horiz-adv-x="2885" 
d="M1334 2664l-59 180q-12 38 9.5 78t62.5 62l821 435q42 21 77 7t48 -54l107 -320q15 -45 -4 -83t-63 -53l-871 -300q-47 -15 -81.5 -1.5t-46.5 49.5zM2756 116q13 -53 -12 -84.5t-80 -31.5h-784q-83 0 -100 80l-56 260h-785l-123 -260q-38 -80 -126 -80h-738
q-55 0 -71.5 31t11.5 85l1216 2248q41 76 126 76h824q86 0 106 -76zM1203 900h399l-126 580z" />
    <glyph glyph-name="Acircumflex" unicode="&#xc2;" horiz-adv-x="2885" 
d="M1074 2640q-66 0 -76.5 37t42.5 87l489 463q57 53 131 53h256q73 0 116 -53l359 -463q38 -50 17.5 -87t-86.5 -37h-384q-79 0 -110 68l-92 200l-149 -200q-51 -68 -129 -68h-384zM2756 116q13 -53 -12 -84.5t-80 -31.5h-784q-83 0 -100 80l-56 260h-785l-123 -260
q-38 -80 -126 -80h-738q-55 0 -71.5 31t11.5 85l1216 2248q41 76 126 76h824q86 0 106 -76zM1203 900h399l-126 580z" />
    <glyph glyph-name="Atilde" unicode="&#xc3;" horiz-adv-x="2885" 
d="M1022 2636q-49 0 -72.5 27t-12.5 77q41 183 132 316t208 198.5t249 65.5q85 0 152 -21.5t108 -52t76.5 -61t78 -52t92.5 -21.5q69 0 122 33t83 87q25 46 51.5 67t68.5 21h112q50 0 71.5 -42.5t1.5 -117.5q-70 -257 -226 -390.5t-351 -133.5q-85 0 -152 21.5t-108 52
t-76.5 61t-78 52t-92.5 21.5q-66 0 -120.5 -34.5t-84.5 -85.5q-26 -46 -52 -67t-68 -21h-112zM2756 116q13 -53 -12 -84.5t-80 -31.5h-784q-83 0 -100 80l-56 260h-785l-123 -260q-38 -80 -126 -80h-738q-55 0 -71.5 31t11.5 85l1216 2248q41 76 126 76h824q86 0 106 -76z
M1203 900h399l-126 580z" />
    <glyph glyph-name="Adieresis" unicode="&#xc4;" horiz-adv-x="2885" 
d="M1227 2647q-136 0 -225 92t-89 228q0 164 125.5 284t290.5 120q137 0 226 -92t89 -228q0 -108 -58 -201.5t-154.5 -148t-204.5 -54.5zM2167 2647q-136 0 -225 92t-89 228q0 164 125.5 284t290.5 120q137 0 226 -92t89 -228q0 -108 -58 -201.5t-154.5 -148t-204.5 -54.5z
M2756 116q13 -53 -12 -84.5t-80 -31.5h-784q-83 0 -100 80l-56 260h-785l-123 -260q-38 -80 -126 -80h-738q-55 0 -71.5 31t11.5 85l1216 2248q41 76 126 76h824q86 0 106 -76zM1203 900h399l-126 580z" />
    <glyph glyph-name="Aring" unicode="&#xc5;" horiz-adv-x="2885" 
d="M2756 116q13 -53 -12 -84.5t-80 -31.5h-784q-83 0 -100 80l-56 260h-785l-123 -260q-38 -80 -126 -80h-738q-55 0 -71.5 31t11.5 85l1216 2248q7 12 8 13q-52 107 -52 227q0 129 60 250t157.5 207.5t224.5 138.5t256 52q147 0 269.5 -69.5t193 -189.5t70.5 -264
q0 -196 -131 -364v-1zM1705 2850q-82 0 -142 -62.5t-60 -143.5q0 -66 42 -111.5t109 -45.5q83 0 142 60t59 141q0 68 -41 115t-109 47zM1203 900h399l-126 580z" />
    <glyph glyph-name="AE" unicode="&#xc6;" horiz-adv-x="3870" 
d="M3878 2440q80 0 69 -80l-76 -540q-11 -80 -92 -80h-1084l-28 -200h924q80 0 69 -80l-65 -460q-11 -80 -91 -80h-925l-31 -220h1125q80 0 69 -80l-76 -540q-11 -80 -91 -80h-1456h-509q-33 0 -53.5 23.5t-15.5 56.5l37 260h-611l-158 -260q-49 -80 -141 -80h-728
q-54 0 -65 30t25 86l1473 2248q49 76 140 76h426v-1q4 1 14 1h760h1165zM1308 900h348l105 744z" />
    <glyph glyph-name="Ccedilla" unicode="&#xc7;" horiz-adv-x="2755" 
d="M2791 1898q18 -44 0.5 -79.5t-63.5 -56.5l-606 -270q-87 -38 -130 44q-52 101 -143.5 162.5t-209.5 61.5q-156 0 -280 -81t-193.5 -225t-69.5 -323q0 -204 104.5 -327.5t287.5 -123.5q117 0 224.5 61.5t190.5 162.5q68 82 142 44l530 -270q40 -21 47 -56t-22 -80
q-172 -254 -448.5 -404.5t-585.5 -186.5l-47 -71q195 22 308 -55.5t113 -234.5q0 -115 -49.5 -206t-137 -148t-201.5 -86.5t-248 -29.5q-93 0 -162.5 16.5t-139.5 55.5q-35 24 -42 55t13 77l23 52q43 94 140 56q66 -32 127 -32q73 0 122.5 38.5t49.5 106.5q0 24 -9 41.5
t-22.5 28.5t-37 17t-43 8.5t-51 2t-51.5 -2t-53 -4.5q-70 -6 -91.5 17.5t9.5 78.5l126 216q-240 23 -439.5 109.5t-342.5 226.5t-222 337.5t-79 433.5q0 219 59 416.5t165 355.5t255 285t327.5 212t384 130.5t423.5 45.5q168 0 327 -37.5t300 -109.5t251.5 -189t169.5 -266z
" />
    <glyph glyph-name="Egrave" unicode="&#xc8;" horiz-adv-x="2325" 
d="M827 2916q-40 15 -48 53t19 83l197 320q25 40 64 54t76 -7l698 -435q35 -22 45 -61t-13 -79l-109 -180q-23 -36 -61.5 -49.5t-80.5 1.5zM2333 2440q80 0 69 -80l-76 -540q-11 -80 -92 -80h-1084l-28 -200h924q80 0 69 -80l-65 -460q-11 -80 -91 -80h-925l-31 -220h1125
q80 0 69 -80l-76 -540q-11 -80 -91 -80h-1456h-509q-33 0 -53.5 23.5t-15.5 56.5l321 2280q4 33 31 56.5t60 23.5h760h1165z" />
    <glyph glyph-name="Eacute" unicode="&#xc9;" horiz-adv-x="2325" 
d="M1089 2664l-59 180q-12 38 9.5 78t62.5 62l821 435q42 21 77 7t48 -54l107 -320q15 -45 -4 -83t-63 -53l-871 -300q-47 -15 -81.5 -1.5t-46.5 49.5zM2333 2440q80 0 69 -80l-76 -540q-11 -80 -92 -80h-1084l-28 -200h924q80 0 69 -80l-65 -460q-11 -80 -91 -80h-925
l-31 -220h1125q80 0 69 -80l-76 -540q-11 -80 -91 -80h-1456h-509q-33 0 -53.5 23.5t-15.5 56.5l321 2280q4 33 31 56.5t60 23.5h760h1165z" />
    <glyph glyph-name="Ecircumflex" unicode="&#xca;" horiz-adv-x="2325" 
d="M829 2640q-66 0 -76.5 37t42.5 87l489 463q57 53 131 53h256q73 0 116 -53l359 -463q38 -50 17.5 -87t-86.5 -37h-384q-79 0 -110 68l-92 200l-149 -200q-51 -68 -129 -68h-384zM2333 2440q80 0 69 -80l-76 -540q-11 -80 -92 -80h-1084l-28 -200h924q80 0 69 -80
l-65 -460q-11 -80 -91 -80h-925l-31 -220h1125q80 0 69 -80l-76 -540q-11 -80 -91 -80h-1456h-509q-33 0 -53.5 23.5t-15.5 56.5l321 2280q4 33 31 56.5t60 23.5h760h1165z" />
    <glyph glyph-name="Edieresis" unicode="&#xcb;" horiz-adv-x="2325" 
d="M982 2647q-136 0 -225 92t-89 228q0 164 125.5 284t290.5 120q137 0 226 -92t89 -228q0 -108 -58 -201.5t-154.5 -148t-204.5 -54.5zM1922 2647q-136 0 -225 92t-89 228q0 164 125.5 284t290.5 120q137 0 226 -92t89 -228q0 -108 -58 -201.5t-154.5 -148t-204.5 -54.5z
M2333 2440q80 0 69 -80l-76 -540q-11 -80 -92 -80h-1084l-28 -200h924q80 0 69 -80l-65 -460q-11 -80 -91 -80h-925l-31 -220h1125q80 0 69 -80l-76 -540q-11 -80 -91 -80h-1456h-509q-33 0 -53.5 23.5t-15.5 56.5l321 2280q4 33 31 56.5t60 23.5h760h1165z" />
    <glyph glyph-name="Igrave" unicode="&#xcc;" horiz-adv-x="1160" 
d="M977 2616l-787 300q-40 15 -48 53t19 83l197 320q25 40 64 54t76 -7l698 -435q35 -22 45 -61t-13 -79l-109 -180q-23 -36 -61.5 -49.5t-80.5 1.5zM317 2360q4 33 31 56.5t60 23.5h760q33 0 53.5 -23.5t15.5 -56.5l-321 -2280q-4 -33 -31 -56.5t-60 -23.5h-760
q-33 0 -53.5 23.5t-15.5 56.5z" />
    <glyph glyph-name="Iacute" unicode="&#xcd;" horiz-adv-x="1160" 
d="M580 2616q-47 -15 -81.5 -1.5t-46.5 49.5l-59 180q-12 38 9.5 78t62.5 62l821 435q42 21 77 7t48 -54l107 -320q15 -45 -4 -83t-63 -53zM317 2360q4 33 31 56.5t60 23.5h760q33 0 53.5 -23.5t15.5 -56.5l-321 -2280q-4 -33 -31 -56.5t-60 -23.5h-760q-33 0 -53.5 23.5
t-15.5 56.5z" />
    <glyph glyph-name="Icircumflex" unicode="&#xce;" horiz-adv-x="1160" 
d="M946 2708l-92 200l-149 -200q-51 -68 -129 -68h-384q-66 0 -76.5 37t42.5 87l489 463q57 53 131 53h256q73 0 116 -53l359 -463q38 -50 17.5 -87t-86.5 -37h-384q-79 0 -110 68zM317 2360q4 33 31 56.5t60 23.5h760q33 0 53.5 -23.5t15.5 -56.5l-321 -2280
q-4 -33 -31 -56.5t-60 -23.5h-760q-33 0 -53.5 23.5t-15.5 56.5z" />
    <glyph glyph-name="Idieresis" unicode="&#xcf;" horiz-adv-x="1160" 
d="M345 2647q-136 0 -225 92t-89 228q0 164 125.5 284t290.5 120q137 0 226 -92t89 -228q0 -108 -58 -201.5t-154.5 -148t-204.5 -54.5zM1285 2647q-136 0 -225 92t-89 228q0 164 125.5 284t290.5 120q137 0 226 -92t89 -228q0 -108 -58 -201.5t-154.5 -148t-204.5 -54.5z
M317 2360q4 33 31 56.5t60 23.5h760q33 0 53.5 -23.5t15.5 -56.5l-321 -2280q-4 -33 -31 -56.5t-60 -23.5h-760q-33 0 -53.5 23.5t-15.5 56.5z" />
    <glyph glyph-name="Eth" unicode="&#xd0;" horiz-adv-x="2826" 
d="M1528 2440q214 0 403 -45t342.5 -134.5t264.5 -216.5t171.5 -297.5t60.5 -370.5q0 -255 -83 -476.5t-230 -385t-345.5 -280.5t-434.5 -175.5t-492 -58.5h-780h-340q-33 0 -53.5 23.5t-15.5 56.5l123 872h-169q-48 0 -70.5 26t-15.5 74l42 300q7 48 36.5 74t77.5 26h169
l128 908q4 33 31 56.5t60 23.5h760h360zM1243 700q117 0 219.5 43.5t178 120.5t119 190t43.5 246q0 202 -112.5 321t-301.5 119h-239l-41 -288h287q48 0 70.5 -26t15.5 -74l-42 -300q-7 -48 -36.5 -74t-77.5 -26h-287l-36 -252h240z" />
    <glyph glyph-name="Ntilde" unicode="&#xd1;" horiz-adv-x="2880" 
d="M1040 2636q-49 0 -72.5 27t-12.5 77q41 183 132 316t208 198.5t249 65.5q85 0 152 -21.5t108 -52t76.5 -61t78 -52t92.5 -21.5q69 0 122 33t83 87q25 46 51.5 67t68.5 21h112q50 0 71.5 -42.5t1.5 -117.5q-70 -257 -226 -390.5t-351 -133.5q-85 0 -152 21.5t-108 52
t-76.5 61t-78 52t-92.5 21.5q-66 0 -120.5 -34.5t-84.5 -85.5q-26 -46 -52 -67t-68 -21h-112zM2868 2440q48 0 70.5 -26t15.5 -74l-315 -2240q-7 -48 -36.5 -74t-77.5 -26h-272q-73 0 -119 40l-1091 940l-124 -880q-7 -48 -36.5 -74t-77.5 -26h-720q-48 0 -70.5 26t-15.5 74
l315 2240q7 48 36.5 74t77.5 26h272q73 0 118 -40l1091 -948l125 888q7 48 36.5 74t77.5 26h720z" />
    <glyph glyph-name="Ograve" unicode="&#xd2;" horiz-adv-x="3054" 
d="M1924 2616l-787 300q-40 15 -48 53t19 83l197 320q25 40 64 54t76 -7l698 -435q35 -22 45 -61t-13 -79l-109 -180q-23 -36 -61.5 -49.5t-80.5 1.5zM1743 2500q273 0 504 -77t397.5 -218.5t260 -352.5t93.5 -467q0 -219 -59 -416.5t-165 -355.5t-255 -285t-327.5 -212
t-384 -130.5t-423.5 -45.5q-273 0 -504 77t-397.5 218.5t-260 352.5t-93.5 467q0 219 59 416.5t165 355.5t255 285t327.5 212t384 130.5t423.5 45.5zM1488 680q156 0 280 81t193.5 225t69.5 323q0 204 -104.5 327.5t-287.5 123.5q-156 0 -280 -81t-193.5 -225t-69.5 -323
q0 -204 104.5 -327.5t287.5 -123.5z" />
    <glyph glyph-name="Oacute" unicode="&#xd3;" horiz-adv-x="3054" 
d="M1527 2616q-47 -15 -81.5 -1.5t-46.5 49.5l-59 180q-12 38 9.5 78t62.5 62l821 435q42 21 77 7t48 -54l107 -320q15 -45 -4 -83t-63 -53zM1743 2500q273 0 504 -77t397.5 -218.5t260 -352.5t93.5 -467q0 -219 -59 -416.5t-165 -355.5t-255 -285t-327.5 -212t-384 -130.5
t-423.5 -45.5q-273 0 -504 77t-397.5 218.5t-260 352.5t-93.5 467q0 219 59 416.5t165 355.5t255 285t327.5 212t384 130.5t423.5 45.5zM1488 680q156 0 280 81t193.5 225t69.5 323q0 204 -104.5 327.5t-287.5 123.5q-156 0 -280 -81t-193.5 -225t-69.5 -323
q0 -204 104.5 -327.5t287.5 -123.5z" />
    <glyph glyph-name="Ocircumflex" unicode="&#xd4;" horiz-adv-x="3054" 
d="M1893 2708l-92 200l-149 -200q-51 -68 -129 -68h-384q-66 0 -76.5 37t42.5 87l489 463q57 53 131 53h256q73 0 116 -53l359 -463q38 -50 17.5 -87t-86.5 -37h-384q-79 0 -110 68zM1743 2500q273 0 504 -77t397.5 -218.5t260 -352.5t93.5 -467q0 -219 -59 -416.5
t-165 -355.5t-255 -285t-327.5 -212t-384 -130.5t-423.5 -45.5q-273 0 -504 77t-397.5 218.5t-260 352.5t-93.5 467q0 219 59 416.5t165 355.5t255 285t327.5 212t384 130.5t423.5 45.5zM1488 680q156 0 280 81t193.5 225t69.5 323q0 204 -104.5 327.5t-287.5 123.5
q-156 0 -280 -81t-193.5 -225t-69.5 -323q0 -204 104.5 -327.5t287.5 -123.5z" />
    <glyph glyph-name="Otilde" unicode="&#xd5;" horiz-adv-x="3054" 
d="M1087 2636q-49 0 -72.5 27t-12.5 77q41 183 132 316t208 198.5t249 65.5q85 0 152 -21.5t108 -52t76.5 -61t78 -52t92.5 -21.5q69 0 122 33t83 87q25 46 51.5 67t68.5 21h112q50 0 71.5 -42.5t1.5 -117.5q-70 -257 -226 -390.5t-351 -133.5q-85 0 -152 21.5t-108 52
t-76.5 61t-78 52t-92.5 21.5q-66 0 -120.5 -34.5t-84.5 -85.5q-26 -46 -52 -67t-68 -21h-112zM1743 2500q273 0 504 -77t397.5 -218.5t260 -352.5t93.5 -467q0 -219 -59 -416.5t-165 -355.5t-255 -285t-327.5 -212t-384 -130.5t-423.5 -45.5q-273 0 -504 77t-397.5 218.5
t-260 352.5t-93.5 467q0 219 59 416.5t165 355.5t255 285t327.5 212t384 130.5t423.5 45.5zM1488 680q156 0 280 81t193.5 225t69.5 323q0 204 -104.5 327.5t-287.5 123.5q-156 0 -280 -81t-193.5 -225t-69.5 -323q0 -204 104.5 -327.5t287.5 -123.5z" />
    <glyph glyph-name="Odieresis" unicode="&#xd6;" horiz-adv-x="3054" 
d="M1292 2647q-136 0 -225 92t-89 228q0 164 125.5 284t290.5 120q137 0 226 -92t89 -228q0 -108 -58 -201.5t-154.5 -148t-204.5 -54.5zM2232 2647q-136 0 -225 92t-89 228q0 164 125.5 284t290.5 120q137 0 226 -92t89 -228q0 -108 -58 -201.5t-154.5 -148t-204.5 -54.5z
M1743 2500q273 0 504 -77t397.5 -218.5t260 -352.5t93.5 -467q0 -219 -59 -416.5t-165 -355.5t-255 -285t-327.5 -212t-384 -130.5t-423.5 -45.5q-273 0 -504 77t-397.5 218.5t-260 352.5t-93.5 467q0 219 59 416.5t165 355.5t255 285t327.5 212t384 130.5t423.5 45.5z
M1488 680q156 0 280 81t193.5 225t69.5 323q0 204 -104.5 327.5t-287.5 123.5q-156 0 -280 -81t-193.5 -225t-69.5 -323q0 -204 104.5 -327.5t287.5 -123.5z" />
    <glyph glyph-name="multiply" unicode="&#xd7;" horiz-adv-x="2293" 
d="M2210 1744q29 -34 23.5 -70.5t-43.5 -70.5l-619 -543l466 -543q29 -34 23.5 -70.5t-43.5 -70.5l-306 -269q-81 -70 -142 1l-466 542l-619 -543q-39 -34 -75.5 -34t-65.5 34l-231 269q-29 34 -24.5 70.5t43.5 70.5l620 543l-467 543q-61 71 20 141l307 269q38 34 75 34
t66 -34l466 -543l620 543q80 71 141 1z" />
    <glyph glyph-name="Oslash" unicode="&#xd8;" horiz-adv-x="3054" 
d="M3010 2363q60 -69 -20 -140l-200 -175q208 -275 208 -663q0 -219 -59 -416.5t-165 -355.5t-255 -285t-327.5 -212t-384 -130.5t-423.5 -45.5q-450 0 -770 200l-218 -191q-81 -70 -140 -1l-111 129q-60 69 21 140l182 160q-219 278 -219 678q0 219 59 416.5t165 355.5
t255 285t327.5 212t384 130.5t423.5 45.5q461 0 787 -210l229 201q81 70 140 1zM1096 1131q0 -48 6 -93l754 661q-92 61 -217 61q-156 0 -280 -81t-193.5 -225t-69.5 -323zM2031 1309q0 37 -3 70l-740 -648q87 -51 200 -51q156 0 280 81t193.5 225t69.5 323z" />
    <glyph glyph-name="Ugrave" unicode="&#xd9;" horiz-adv-x="2840" 
d="M1817 2616l-787 300q-40 15 -48 53t19 83l197 320q25 40 64 54t76 -7l698 -435q35 -22 45 -61t-13 -79l-109 -180q-23 -36 -61.5 -49.5t-80.5 1.5zM2848 2440q33 0 53.5 -23.5t15.5 -56.5l-186 -1320q-31 -218 -120 -396t-222.5 -304t-308.5 -212.5t-375.5 -127
t-425.5 -40.5t-414 41t-339.5 127t-248.5 212t-137.5 304t-8.5 396l186 1320q4 33 31 56.5t60 23.5h760q33 0 53 -23.5t15 -56.5l-157 -1120q-37 -261 38 -400.5t266 -139.5t305 139.5t151 400.5l158 1120q4 33 31 56.5t60 23.5h760z" />
    <glyph glyph-name="Uacute" unicode="&#xda;" horiz-adv-x="2840" 
d="M1420 2616q-47 -15 -81.5 -1.5t-46.5 49.5l-59 180q-12 38 9.5 78t62.5 62l821 435q42 21 77 7t48 -54l107 -320q15 -45 -4 -83t-63 -53zM2848 2440q33 0 53.5 -23.5t15.5 -56.5l-186 -1320q-31 -218 -120 -396t-222.5 -304t-308.5 -212.5t-375.5 -127t-425.5 -40.5
t-414 41t-339.5 127t-248.5 212t-137.5 304t-8.5 396l186 1320q4 33 31 56.5t60 23.5h760q33 0 53 -23.5t15 -56.5l-157 -1120q-37 -261 38 -400.5t266 -139.5t305 139.5t151 400.5l158 1120q4 33 31 56.5t60 23.5h760z" />
    <glyph glyph-name="Ucircumflex" unicode="&#xdb;" horiz-adv-x="2840" 
d="M1786 2708l-92 200l-149 -200q-51 -68 -129 -68h-384q-66 0 -76.5 37t42.5 87l489 463q57 53 131 53h256q73 0 116 -53l359 -463q38 -50 17.5 -87t-86.5 -37h-384q-79 0 -110 68zM2848 2440q33 0 53.5 -23.5t15.5 -56.5l-186 -1320q-31 -218 -120 -396t-222.5 -304
t-308.5 -212.5t-375.5 -127t-425.5 -40.5t-414 41t-339.5 127t-248.5 212t-137.5 304t-8.5 396l186 1320q4 33 31 56.5t60 23.5h760q33 0 53 -23.5t15 -56.5l-157 -1120q-37 -261 38 -400.5t266 -139.5t305 139.5t151 400.5l158 1120q4 33 31 56.5t60 23.5h760z" />
    <glyph glyph-name="Udieresis" unicode="&#xdc;" horiz-adv-x="2840" 
d="M1185 2647q-136 0 -225 92t-89 228q0 164 125.5 284t290.5 120q137 0 226 -92t89 -228q0 -108 -58 -201.5t-154.5 -148t-204.5 -54.5zM2125 2647q-136 0 -225 92t-89 228q0 164 125.5 284t290.5 120q137 0 226 -92t89 -228q0 -108 -58 -201.5t-154.5 -148t-204.5 -54.5z
M2848 2440q33 0 53.5 -23.5t15.5 -56.5l-186 -1320q-31 -218 -120 -396t-222.5 -304t-308.5 -212.5t-375.5 -127t-425.5 -40.5t-414 41t-339.5 127t-248.5 212t-137.5 304t-8.5 396l186 1320q4 33 31 56.5t60 23.5h760q33 0 53 -23.5t15 -56.5l-157 -1120
q-37 -261 38 -400.5t266 -139.5t305 139.5t151 400.5l158 1120q4 33 31 56.5t60 23.5h760z" />
    <glyph glyph-name="Yacute" unicode="&#xdd;" horiz-adv-x="2793" 
d="M1279 2664l-59 180q-12 38 9.5 78t62.5 62l821 435q42 21 77 7t48 -54l107 -320q15 -45 -4 -83t-63 -53l-871 -300q-47 -15 -81.5 -1.5t-46.5 49.5zM2911 2440q55 0 74 -34t-14 -82l-1132 -1571l-95 -673q-4 -33 -31.5 -56.5t-60.5 -23.5h-760q-33 0 -53 23.5t-15 56.5
l95 677l-713 1567q-22 47 7.5 81.5t85.5 34.5h796q68 0 101 -80l330 -840l522 840q21 35 54 57.5t73 22.5h736z" />
    <glyph glyph-name="Thorn" unicode="&#xde;" horiz-adv-x="2474" 
d="M1560 2100q224 0 402 -60t291.5 -165t173 -245t59.5 -304q0 -201 -81 -379.5t-228.5 -313.5t-371 -214t-492.5 -79h-360l-37 -260q-4 -33 -31 -56.5t-60 -23.5h-760q-33 0 -53.5 23.5t-15.5 56.5l321 2280q4 33 31 56.5t60 23.5h760q33 0 53.5 -23.5t15.5 -56.5l-37 -260
h360zM1246 1000q74 0 132.5 23t92 59.5t51 78t17.5 83.5q0 37 -13 70.5t-39 62.5t-72.5 46t-107.5 17h-200l-61 -440h200z" />
    <glyph glyph-name="germandbls" unicode="&#xdf;" horiz-adv-x="2729" 
d="M2133 1454q0 -50 29 -91.5t75.5 -74.5t103 -68.5t112.5 -83t102.5 -107t75.5 -152t29 -207.5q0 -150 -49.5 -273t-134 -207t-200 -141t-244.5 -83t-271 -26q-223 0 -416.5 59t-275.5 133q-35 32 -39.5 63t17.5 69l176 336q49 95 121 52q150 -87 207 -111q91 -37 175 -37
q125 0 125 66q0 31 -31.5 60.5t-81.5 57t-110.5 60.5t-121 79.5t-110.5 104.5t-81.5 145t-31.5 191q0 69 14 129.5t36 105.5t48.5 85.5t53 77.5t48.5 74t36 82.5t14 95.5q0 95 -46.5 148.5t-121.5 53.5q-84 0 -152 -66t-86 -194l-251 -1780q-11 -80 -91 -80h-720
q-80 0 -69 80l253 1800q121 860 1160 860q227 0 407 -49t297 -137.5t178.5 -209.5t61.5 -267q0 -98 -22.5 -183t-55 -143.5t-65 -108t-55 -97.5t-22.5 -91z" />
    <glyph glyph-name="agrave" unicode="&#xe0;" horiz-adv-x="2446" 
d="M808 2396q-40 15 -48 53t19 83l197 320q25 40 64 54t76 -7l698 -435q35 -22 45 -61t-13 -79l-109 -180q-23 -36 -61.5 -49.5t-80.5 1.5zM2431 1840l-166 -1180q-14 -104 -15 -186.5t6 -135t24 -138.5q20 -103 -82 -128l-539 -132q-86 -21 -127 32q-126 153 -146 319
q-112 -176 -258.5 -263.5t-343.5 -87.5q-180 0 -321 62.5t-230.5 175t-135.5 264.5t-46 337q0 200 43.5 380.5t129.5 330t207 259t285 170.5t354 61q328 0 464 -259l17 119q11 80 91 80h720q80 0 69 -80zM1159 620q126 0 210.5 109.5t84.5 302.5q0 130 -54 199t-145 69
q-125 0 -209.5 -109.5t-84.5 -302.5q0 -130 54 -199t144 -69z" />
    <glyph glyph-name="aacute" unicode="&#xe1;" horiz-adv-x="2446" 
d="M1070 2144l-59 180q-12 38 9.5 78t62.5 62l821 435q42 21 77 7t48 -54l107 -320q15 -45 -4 -83t-63 -53l-871 -300q-47 -15 -81.5 -1.5t-46.5 49.5zM2431 1840l-166 -1180q-14 -104 -15 -186.5t6 -135t24 -138.5q20 -103 -82 -128l-539 -132q-86 -21 -127 32
q-126 153 -146 319q-112 -176 -258.5 -263.5t-343.5 -87.5q-180 0 -321 62.5t-230.5 175t-135.5 264.5t-46 337q0 200 43.5 380.5t129.5 330t207 259t285 170.5t354 61q328 0 464 -259l17 119q11 80 91 80h720q80 0 69 -80zM1159 620q126 0 210.5 109.5t84.5 302.5
q0 130 -54 199t-145 69q-125 0 -209.5 -109.5t-84.5 -302.5q0 -130 54 -199t144 -69z" />
    <glyph glyph-name="acircumflex" unicode="&#xe2;" horiz-adv-x="2446" 
d="M810 2120q-66 0 -76.5 37t42.5 87l489 463q57 53 131 53h256q73 0 116 -53l359 -463q38 -50 17.5 -87t-86.5 -37h-384q-79 0 -110 68l-92 200l-149 -200q-51 -68 -129 -68h-384zM2431 1840l-166 -1180q-14 -104 -15 -186.5t6 -135t24 -138.5q20 -103 -82 -128l-539 -132
q-86 -21 -127 32q-126 153 -146 319q-112 -176 -258.5 -263.5t-343.5 -87.5q-180 0 -321 62.5t-230.5 175t-135.5 264.5t-46 337q0 200 43.5 380.5t129.5 330t207 259t285 170.5t354 61q328 0 464 -259l17 119q11 80 91 80h720q80 0 69 -80zM1159 620q126 0 210.5 109.5
t84.5 302.5q0 130 -54 199t-145 69q-125 0 -209.5 -109.5t-84.5 -302.5q0 -130 54 -199t144 -69z" />
    <glyph glyph-name="atilde" unicode="&#xe3;" horiz-adv-x="2446" 
d="M758 2116q-49 0 -72.5 27t-12.5 77q41 183 132 316t208 198.5t249 65.5q85 0 152 -21.5t108 -52t76.5 -61t78 -52t92.5 -21.5q69 0 122 33t83 87q25 46 51.5 67t68.5 21h112q50 0 71.5 -42.5t1.5 -117.5q-70 -257 -226 -390.5t-351 -133.5q-85 0 -152 21.5t-108 52
t-76.5 61t-78 52t-92.5 21.5q-66 0 -120.5 -34.5t-84.5 -85.5q-26 -46 -52 -67t-68 -21h-112zM2431 1840l-166 -1180q-14 -104 -15 -186.5t6 -135t24 -138.5q20 -103 -82 -128l-539 -132q-86 -21 -127 32q-126 153 -146 319q-112 -176 -258.5 -263.5t-343.5 -87.5
q-180 0 -321 62.5t-230.5 175t-135.5 264.5t-46 337q0 200 43.5 380.5t129.5 330t207 259t285 170.5t354 61q328 0 464 -259l17 119q11 80 91 80h720q80 0 69 -80zM1159 620q126 0 210.5 109.5t84.5 302.5q0 130 -54 199t-145 69q-125 0 -209.5 -109.5t-84.5 -302.5
q0 -130 54 -199t144 -69z" />
    <glyph glyph-name="adieresis" unicode="&#xe4;" horiz-adv-x="2446" 
d="M963 2127q-136 0 -225 92t-89 228q0 164 125.5 284t290.5 120q137 0 226 -92t89 -228q0 -108 -58 -201.5t-154.5 -148t-204.5 -54.5zM1903 2127q-136 0 -225 92t-89 228q0 164 125.5 284t290.5 120q137 0 226 -92t89 -228q0 -108 -58 -201.5t-154.5 -148t-204.5 -54.5z
M2431 1840l-166 -1180q-14 -104 -15 -186.5t6 -135t24 -138.5q20 -103 -82 -128l-539 -132q-86 -21 -127 32q-126 153 -146 319q-112 -176 -258.5 -263.5t-343.5 -87.5q-180 0 -321 62.5t-230.5 175t-135.5 264.5t-46 337q0 200 43.5 380.5t129.5 330t207 259t285 170.5
t354 61q328 0 464 -259l17 119q11 80 91 80h720q80 0 69 -80zM1159 620q126 0 210.5 109.5t84.5 302.5q0 130 -54 199t-145 69q-125 0 -209.5 -109.5t-84.5 -302.5q0 -130 54 -199t144 -69z" />
    <glyph glyph-name="aring" unicode="&#xe5;" horiz-adv-x="2446" 
d="M1404 2106q-224 0 -379 150t-155 368q0 129 60 250t157.5 207.5t224.5 138.5t256 52q147 0 269.5 -69.5t193 -189.5t70.5 -264q0 -129 -60 -249.5t-157 -206t-223.5 -136.5t-256.5 -51zM1511 2870q-82 0 -142 -62.5t-60 -143.5q0 -66 42 -111.5t109 -45.5q83 0 142 60
t59 141q0 68 -41 115t-109 47zM2431 1840l-166 -1180q-14 -104 -15 -186.5t6 -135t24 -138.5q20 -103 -82 -128l-539 -132q-86 -21 -127 32q-126 153 -146 319q-112 -176 -258.5 -263.5t-343.5 -87.5q-180 0 -321 62.5t-230.5 175t-135.5 264.5t-46 337q0 200 43.5 380.5
t129.5 330t207 259t285 170.5t354 61q328 0 464 -259l17 119q11 80 91 80h720q80 0 69 -80zM1159 620q126 0 210.5 109.5t84.5 302.5q0 130 -54 199t-145 69q-125 0 -209.5 -109.5t-84.5 -302.5q0 -130 54 -199t144 -69z" />
    <glyph glyph-name="ae" unicode="&#xe6;" horiz-adv-x="3412" 
d="M2435 1980q142 0 267.5 -29t234.5 -88t190.5 -150.5t134.5 -215.5t67 -283t-11 -354h-1347q6 -83 32 -144.5t65 -93.5t80.5 -47t87.5 -15q95 0 160.5 25.5t116.5 84.5q21 24 34.5 36t30.5 19.5t35 4.5t42 -16l412 -218q48 -25 51 -60.5t-26 -75.5q-47 -74 -140.5 -148
t-217.5 -135t-284 -99t-321 -38q-274 0 -488.5 94t-338.5 275q-137 -168 -343.5 -268.5t-455.5 -100.5q-107 0 -194 27.5t-145 74t-97.5 110.5t-56.5 134t-17 146q0 103 29.5 200t91.5 187.5t158 159.5t229 115.5t303.5 55t382.5 -21.5q16 114 -48.5 163t-228.5 49
q-76 0 -149.5 -11t-122 -24.5t-136.5 -40.5q-48 -16 -79 -4t-46 56l-112 340q-17 51 2 80t64 52q156 81 409.5 136.5t496.5 55.5q334 0 498 -167q308 167 700 167zM2343 1440q-101 0 -183.5 -56.5t-131.5 -163.5h526q-16 111 -71 165.5t-140 54.5zM868 480q87 0 167 71
t95 173q-128 35 -212 24t-124.5 -51t-40.5 -103q0 -50 30 -82t85 -32z" />
    <glyph glyph-name="ccedilla" unicode="&#xe7;" horiz-adv-x="2170" 
d="M2164 1532q17 -46 3 -79.5t-65 -56.5l-520 -240q-29 -13 -49.5 -15.5t-36 7.5t-23.5 20.5t-21 31.5q-29 49 -65 74.5t-105 25.5q-146 0 -224.5 -110t-78.5 -310q0 -129 52.5 -194.5t154.5 -65.5q69 0 112 25.5t86 74.5q19 22 30 32.5t29 20t38 7t45 -15.5l452 -240
q45 -23 50.5 -56.5t-24.5 -79.5q-25 -41 -69 -88.5t-115.5 -102.5t-156.5 -102.5t-200 -86.5t-237 -56l-48 -72q195 22 308 -55.5t113 -234.5q0 -115 -49.5 -206t-137 -148t-201.5 -86.5t-248 -29.5q-93 0 -162.5 16.5t-139.5 55.5q-35 24 -42 55t13 77l23 52q43 94 140 56
q66 -32 127 -32q73 0 122.5 38.5t49.5 106.5q0 24 -9 41.5t-22.5 28.5t-37 17t-43 8.5t-51 2t-51.5 -2t-53 -4.5q-70 -6 -91.5 17.5t9.5 78.5l128 219q-169 22 -313 89t-253 174t-171 263.5t-62 346.5q0 185 49.5 349t137 289t206.5 224.5t259 163t292 97t309 33.5
q152 0 286.5 -33t225.5 -82.5t162.5 -112.5t109 -117.5t53.5 -102.5z" />
    <glyph glyph-name="egrave" unicode="&#xe8;" horiz-adv-x="2326" 
d="M695 2396q-40 15 -48 53t19 83l197 320q25 40 64 54t76 -7l698 -435q35 -22 45 -61t-13 -79l-109 -180q-23 -36 -61.5 -49.5t-80.5 1.5zM1349 1980q142 0 267.5 -29t234.5 -88t190.5 -150.5t134.5 -215.5t67 -283t-11 -354h-1347q6 -83 32 -144.5t65 -93.5t80.5 -47
t87.5 -15q95 0 160.5 25.5t116.5 84.5q21 24 34.5 36t30.5 19.5t35 4.5t42 -16l412 -218q48 -25 51 -60.5t-26 -75.5q-47 -74 -140.5 -148t-217.5 -135t-284 -99t-321 -38q-210 0 -386.5 56.5t-307 164t-203.5 275t-73 378.5q0 224 68 415t187.5 328t281 233t349 143
t390.5 47zM1257 1440q-101 0 -183.5 -56.5t-131.5 -163.5h526q-16 111 -71 165.5t-140 54.5z" />
    <glyph glyph-name="eacute" unicode="&#xe9;" horiz-adv-x="2326" 
d="M957 2144l-59 180q-12 38 9.5 78t62.5 62l821 435q42 21 77 7t48 -54l107 -320q15 -45 -4 -83t-63 -53l-871 -300q-47 -15 -81.5 -1.5t-46.5 49.5zM1349 1980q142 0 267.5 -29t234.5 -88t190.5 -150.5t134.5 -215.5t67 -283t-11 -354h-1347q6 -83 32 -144.5t65 -93.5
t80.5 -47t87.5 -15q95 0 160.5 25.5t116.5 84.5q21 24 34.5 36t30.5 19.5t35 4.5t42 -16l412 -218q48 -25 51 -60.5t-26 -75.5q-47 -74 -140.5 -148t-217.5 -135t-284 -99t-321 -38q-210 0 -386.5 56.5t-307 164t-203.5 275t-73 378.5q0 224 68 415t187.5 328t281 233
t349 143t390.5 47zM1257 1440q-101 0 -183.5 -56.5t-131.5 -163.5h526q-16 111 -71 165.5t-140 54.5z" />
    <glyph glyph-name="ecircumflex" unicode="&#xea;" horiz-adv-x="2326" 
d="M697 2120q-66 0 -76.5 37t42.5 87l489 463q57 53 131 53h256q73 0 116 -53l359 -463q38 -50 17.5 -87t-86.5 -37h-384q-79 0 -110 68l-92 200l-149 -200q-51 -68 -129 -68h-384zM1349 1980q142 0 267.5 -29t234.5 -88t190.5 -150.5t134.5 -215.5t67 -283t-11 -354h-1347
q6 -83 32 -144.5t65 -93.5t80.5 -47t87.5 -15q95 0 160.5 25.5t116.5 84.5q21 24 34.5 36t30.5 19.5t35 4.5t42 -16l412 -218q48 -25 51 -60.5t-26 -75.5q-47 -74 -140.5 -148t-217.5 -135t-284 -99t-321 -38q-210 0 -386.5 56.5t-307 164t-203.5 275t-73 378.5
q0 224 68 415t187.5 328t281 233t349 143t390.5 47zM1257 1440q-101 0 -183.5 -56.5t-131.5 -163.5h526q-16 111 -71 165.5t-140 54.5z" />
    <glyph glyph-name="edieresis" unicode="&#xeb;" horiz-adv-x="2326" 
d="M850 2127q-136 0 -225 92t-89 228q0 164 125.5 284t290.5 120q137 0 226 -92t89 -228q0 -108 -58 -201.5t-154.5 -148t-204.5 -54.5zM1790 2127q-136 0 -225 92t-89 228q0 164 125.5 284t290.5 120q137 0 226 -92t89 -228q0 -108 -58 -201.5t-154.5 -148t-204.5 -54.5z
M1349 1980q142 0 267.5 -29t234.5 -88t190.5 -150.5t134.5 -215.5t67 -283t-11 -354h-1347q6 -83 32 -144.5t65 -93.5t80.5 -47t87.5 -15q95 0 160.5 25.5t116.5 84.5q21 24 34.5 36t30.5 19.5t35 4.5t42 -16l412 -218q48 -25 51 -60.5t-26 -75.5q-47 -74 -140.5 -148
t-217.5 -135t-284 -99t-321 -38q-210 0 -386.5 56.5t-307 164t-203.5 275t-73 378.5q0 224 68 415t187.5 328t281 233t349 143t390.5 47zM1257 1440q-101 0 -183.5 -56.5t-131.5 -163.5h526q-16 111 -71 165.5t-140 54.5z" />
    <glyph glyph-name="igrave" unicode="&#xec;" 
d="M884 2096l-787 300q-40 15 -48 53t19 83l197 320q25 40 64 54t76 -7l698 -435q35 -22 45 -61t-13 -79l-109 -180q-23 -36 -61.5 -49.5t-80.5 1.5zM244 1840q11 80 91 80h720q80 0 69 -80l-248 -1760q-11 -80 -91 -80h-720q-80 0 -69 80z" />
    <glyph glyph-name="iacute" unicode="&#xed;" 
d="M487 2096q-47 -15 -81.5 -1.5t-46.5 49.5l-59 180q-12 38 9.5 78t62.5 62l821 435q42 21 77 7t48 -54l107 -320q15 -45 -4 -83t-63 -53zM244 1840q11 80 91 80h720q80 0 69 -80l-248 -1760q-11 -80 -91 -80h-720q-80 0 -69 80z" />
    <glyph glyph-name="icircumflex" unicode="&#xee;" 
d="M853 2188l-92 200l-149 -200q-51 -68 -129 -68h-384q-66 0 -76.5 37t42.5 87l489 463q57 53 131 53h256q73 0 116 -53l359 -463q38 -50 17.5 -87t-86.5 -37h-384q-79 0 -110 68zM244 1840q11 80 91 80h720q80 0 69 -80l-248 -1760q-11 -80 -91 -80h-720q-80 0 -69 80z
" />
    <glyph glyph-name="idieresis" unicode="&#xef;" 
d="M252 2127q-136 0 -225 92t-89 228q0 164 125.5 284t290.5 120q137 0 226 -92t89 -228q0 -108 -58 -201.5t-154.5 -148t-204.5 -54.5zM1192 2127q-136 0 -225 92t-89 228q0 164 125.5 284t290.5 120q137 0 226 -92t89 -228q0 -108 -58 -201.5t-154.5 -148t-204.5 -54.5z
M244 1840q11 80 91 80h720q80 0 69 -80l-248 -1760q-11 -80 -91 -80h-720q-80 0 -69 80z" />
    <glyph glyph-name="eth" unicode="&#xf0;" horiz-adv-x="2341" 
d="M1431 2535q137 -66 252 -150t197.5 -172.5t147.5 -189t106 -197t68 -200.5t39 -195t14 -184.5t-2.5 -165.5t-14.5 -141q-34 -240 -142 -432t-268.5 -315t-362 -188t-428.5 -65q-329 0 -562.5 108.5t-342 312.5t-69.5 479q29 204 130.5 374.5t252 285t342.5 177.5t402 63
q100 0 192 -27q-99 180 -298 318l-139 -202q-22 -34 -52.5 -42t-61.5 12l-94 60q-63 39 -15 109l132 191q-80 37 -140 58q-40 15 -49.5 51.5t14.5 73.5l192 313q34 54 107 37q104 -25 203 -57l119 172q48 70 113 29l96 -60q61 -39 13 -109zM1133 620q90 0 154 66.5t76 153.5
q13 86 -33 153t-136 67t-154 -66.5t-77 -153.5q-12 -87 34 -153.5t136 -66.5z" />
    <glyph glyph-name="ntilde" unicode="&#xf1;" horiz-adv-x="2400" 
d="M767 2116q-49 0 -72.5 27t-12.5 77q41 183 132 316t208 198.5t249 65.5q85 0 152 -21.5t108 -52t76.5 -61t78 -52t92.5 -21.5q69 0 122 33t83 87q25 46 51.5 67t68.5 21h112q50 0 71.5 -42.5t1.5 -117.5q-70 -257 -226 -390.5t-351 -133.5q-85 0 -152 21.5t-108 52
t-76.5 61t-78 52t-92.5 21.5q-66 0 -120.5 -34.5t-84.5 -85.5q-26 -46 -52 -67t-68 -21h-112zM1797 1960q325 0 450 -173.5t77 -510.5l-168 -1196q-11 -80 -91 -80h-720q-80 0 -69 80l130 920q20 140 -14.5 200t-121.5 60q-103 0 -176.5 -77.5t-93.5 -222.5l-124 -880
q-11 -80 -91 -80h-720q-80 0 -69 80l248 1760q11 80 91 80h720q81 0 69 -80l-28 -200q110 146 288 233t413 87z" />
    <glyph glyph-name="ograve" unicode="&#xf2;" horiz-adv-x="2452" 
d="M1550 2096l-787 300q-40 15 -48 53t19 83l197 320q25 40 64 54t76 -7l698 -435q35 -22 45 -61t-13 -79l-109 -180q-23 -36 -61.5 -49.5t-80.5 1.5zM1369 1980q169 0 320 -35.5t277 -108.5t218 -176.5t143 -248t51 -315.5q0 -222 -70.5 -411.5t-192.5 -324.5t-286.5 -231
t-353.5 -142.5t-392 -46.5q-169 0 -320 35.5t-277 108.5t-218 176.5t-143 248t-51 315.5q0 160 36.5 303.5t103 258.5t159.5 211.5t205.5 167t241 119t267 72.5t282.5 24zM1178 620q125 0 210 109.5t85 302.5q0 130 -54 199t-145 69q-125 0 -210 -109.5t-85 -302.5
q0 -130 54 -199t145 -69z" />
    <glyph glyph-name="oacute" unicode="&#xf3;" horiz-adv-x="2452" 
d="M1153 2096q-47 -15 -81.5 -1.5t-46.5 49.5l-59 180q-12 38 9.5 78t62.5 62l821 435q42 21 77 7t48 -54l107 -320q15 -45 -4 -83t-63 -53zM1369 1980q169 0 320 -35.5t277 -108.5t218 -176.5t143 -248t51 -315.5q0 -222 -70.5 -411.5t-192.5 -324.5t-286.5 -231
t-353.5 -142.5t-392 -46.5q-169 0 -320 35.5t-277 108.5t-218 176.5t-143 248t-51 315.5q0 160 36.5 303.5t103 258.5t159.5 211.5t205.5 167t241 119t267 72.5t282.5 24zM1178 620q125 0 210 109.5t85 302.5q0 130 -54 199t-145 69q-125 0 -210 -109.5t-85 -302.5
q0 -130 54 -199t145 -69z" />
    <glyph glyph-name="ocircumflex" unicode="&#xf4;" horiz-adv-x="2452" 
d="M1519 2188l-92 200l-149 -200q-51 -68 -129 -68h-384q-66 0 -76.5 37t42.5 87l489 463q57 53 131 53h256q73 0 116 -53l359 -463q38 -50 17.5 -87t-86.5 -37h-384q-79 0 -110 68zM1369 1980q169 0 320 -35.5t277 -108.5t218 -176.5t143 -248t51 -315.5
q0 -222 -70.5 -411.5t-192.5 -324.5t-286.5 -231t-353.5 -142.5t-392 -46.5q-169 0 -320 35.5t-277 108.5t-218 176.5t-143 248t-51 315.5q0 160 36.5 303.5t103 258.5t159.5 211.5t205.5 167t241 119t267 72.5t282.5 24zM1178 620q125 0 210 109.5t85 302.5q0 130 -54 199
t-145 69q-125 0 -210 -109.5t-85 -302.5q0 -130 54 -199t145 -69z" />
    <glyph glyph-name="otilde" unicode="&#xf5;" horiz-adv-x="2452" 
d="M713 2116q-49 0 -72.5 27t-12.5 77q41 183 132 316t208 198.5t249 65.5q85 0 152 -21.5t108 -52t76.5 -61t78 -52t92.5 -21.5q69 0 122 33t83 87q25 46 51.5 67t68.5 21h112q50 0 71.5 -42.5t1.5 -117.5q-70 -257 -226 -390.5t-351 -133.5q-85 0 -152 21.5t-108 52
t-76.5 61t-78 52t-92.5 21.5q-66 0 -120.5 -34.5t-84.5 -85.5q-26 -46 -52 -67t-68 -21h-112zM1369 1980q169 0 320 -35.5t277 -108.5t218 -176.5t143 -248t51 -315.5q0 -222 -70.5 -411.5t-192.5 -324.5t-286.5 -231t-353.5 -142.5t-392 -46.5q-169 0 -320 35.5t-277 108.5
t-218 176.5t-143 248t-51 315.5q0 160 36.5 303.5t103 258.5t159.5 211.5t205.5 167t241 119t267 72.5t282.5 24zM1178 620q125 0 210 109.5t85 302.5q0 130 -54 199t-145 69q-125 0 -210 -109.5t-85 -302.5q0 -130 54 -199t145 -69z" />
    <glyph glyph-name="odieresis" unicode="&#xf6;" horiz-adv-x="2452" 
d="M918 2127q-136 0 -225 92t-89 228q0 164 125.5 284t290.5 120q137 0 226 -92t89 -228q0 -108 -58 -201.5t-154.5 -148t-204.5 -54.5zM1858 2127q-136 0 -225 92t-89 228q0 164 125.5 284t290.5 120q137 0 226 -92t89 -228q0 -108 -58 -201.5t-154.5 -148t-204.5 -54.5z
M1369 1980q169 0 320 -35.5t277 -108.5t218 -176.5t143 -248t51 -315.5q0 -222 -70.5 -411.5t-192.5 -324.5t-286.5 -231t-353.5 -142.5t-392 -46.5q-169 0 -320 35.5t-277 108.5t-218 176.5t-143 248t-51 315.5q0 160 36.5 303.5t103 258.5t159.5 211.5t205.5 167t241 119
t267 72.5t282.5 24zM1178 620q125 0 210 109.5t85 302.5q0 130 -54 199t-145 69q-125 0 -210 -109.5t-85 -302.5q0 -130 54 -199t145 -69z" />
    <glyph glyph-name="divide" unicode="&#xf7;" horiz-adv-x="2237" 
d="M1091 1499q-111 0 -179.5 72t-68.5 182q0 105 63.5 199t163.5 149t205 55q112 0 180.5 -72t68.5 -182q0 -105 -63.5 -199t-164 -149t-205.5 -55zM241 820q-48 0 -70.5 26t-15.5 74l53 380q7 48 36.5 74t77.5 26h1716q48 0 70.5 -26t15.5 -74l-53 -380q-7 -48 -36.5 -74
t-77.5 -26h-1716zM889 63q-111 0 -179.5 72t-68.5 182q0 105 63.5 199t163.5 149t205 55q112 0 180.5 -72t68.5 -182q0 -105 -63.5 -199t-164 -149t-205.5 -55z" />
    <glyph glyph-name="oslash" unicode="&#xf8;" horiz-adv-x="2452" 
d="M2341 1721l-121 -106q158 -215 158 -519q0 -222 -70.5 -411.5t-192.5 -324.5t-286.5 -231t-353.5 -142.5t-392 -46.5q-351 0 -605 148l-247 -217q-81 -70 -141 -1l-110 129q-61 70 20 140l216 189q-142 210 -142 496q0 160 36.5 303.5t103 258.5t159.5 211.5t205.5 167
t241.5 119t267.5 72.5t282.5 24q332 0 578 -133l162 142q80 71 140 1l111 -129q59 -70 -20 -140zM1288 1400q-81 0 -150.5 -27t-126.5 -83.5t-92 -153t-40 -226.5l534 467q-55 23 -125 23zM1165 520q85 0 156 29t129 89.5t91 165.5t34 245l-562 -493q62 -36 152 -36z" />
    <glyph glyph-name="ugrave" unicode="&#xf9;" horiz-adv-x="2401" 
d="M1525 2096l-787 300q-40 15 -48 53t19 83l197 320q25 40 64 54t76 -7l698 -435q35 -22 45 -61t-13 -79l-109 -180q-23 -36 -61.5 -49.5t-80.5 1.5zM2336 1920q80 0 68 -80l-247 -1760q-11 -80 -91 -80h-720q-80 0 -69 80l28 200q-110 -146 -288 -233t-413 -87
q-324 0 -449.5 173.5t-78.5 510.5l168 1196q12 80 92 80h720q80 0 68 -80l-129 -920q-20 -140 14.5 -200t121.5 -60q103 0 176.5 77.5t93.5 222.5l123 880q12 80 92 80h720z" />
    <glyph glyph-name="uacute" unicode="&#xfa;" horiz-adv-x="2401" 
d="M1128 2096q-47 -15 -81.5 -1.5t-46.5 49.5l-59 180q-12 38 9.5 78t62.5 62l821 435q42 21 77 7t48 -54l107 -320q15 -45 -4 -83t-63 -53zM2336 1920q80 0 68 -80l-247 -1760q-11 -80 -91 -80h-720q-80 0 -69 80l28 200q-110 -146 -288 -233t-413 -87q-324 0 -449.5 173.5
t-78.5 510.5l168 1196q12 80 92 80h720q80 0 68 -80l-129 -920q-20 -140 14.5 -200t121.5 -60q103 0 176.5 77.5t93.5 222.5l123 880q12 80 92 80h720z" />
    <glyph glyph-name="ucircumflex" unicode="&#xfb;" horiz-adv-x="2401" 
d="M1494 2188l-92 200l-149 -200q-51 -68 -129 -68h-384q-66 0 -76.5 37t42.5 87l489 463q57 53 131 53h256q73 0 116 -53l359 -463q38 -50 17.5 -87t-86.5 -37h-384q-79 0 -110 68zM2336 1920q80 0 68 -80l-247 -1760q-11 -80 -91 -80h-720q-80 0 -69 80l28 200
q-110 -146 -288 -233t-413 -87q-324 0 -449.5 173.5t-78.5 510.5l168 1196q12 80 92 80h720q80 0 68 -80l-129 -920q-20 -140 14.5 -200t121.5 -60q103 0 176.5 77.5t93.5 222.5l123 880q12 80 92 80h720z" />
    <glyph glyph-name="udieresis" unicode="&#xfc;" horiz-adv-x="2401" 
d="M893 2127q-136 0 -225 92t-89 228q0 164 125.5 284t290.5 120q137 0 226 -92t89 -228q0 -108 -58 -201.5t-154.5 -148t-204.5 -54.5zM1833 2127q-136 0 -225 92t-89 228q0 164 125.5 284t290.5 120q137 0 226 -92t89 -228q0 -108 -58 -201.5t-154.5 -148t-204.5 -54.5z
M2336 1920q80 0 68 -80l-247 -1760q-11 -80 -91 -80h-720q-80 0 -69 80l28 200q-110 -146 -288 -233t-413 -87q-324 0 -449.5 173.5t-78.5 510.5l168 1196q12 80 92 80h720q80 0 68 -80l-129 -920q-20 -140 14.5 -200t121.5 -60q103 0 176.5 77.5t93.5 222.5l123 880
q12 80 92 80h720z" />
    <glyph glyph-name="yacute" unicode="&#xfd;" horiz-adv-x="2402" 
d="M961 2144l-59 180q-12 38 9.5 78t62.5 62l821 435q42 21 77 7t48 -54l107 -320q15 -45 -4 -83t-63 -53l-871 -300q-47 -15 -81.5 -1.5t-46.5 49.5zM2413 1920q69 0 97.5 -52t-10.5 -116l-879 -1426q-117 -189 -216.5 -324t-211 -248t-224.5 -184t-253 -120t-299 -69.5
t-361 -20.5q-36 0 -56.5 24t-15.5 60l64 454q9 71 83 80q175 22 286.5 84t237.5 219l-530 1471q-22 62 22 115t114 53h752q57 0 76 -60l175 -608l344 608q33 60 93 60h712z" />
    <glyph glyph-name="thorn" unicode="&#xfe;" horiz-adv-x="2447" 
d="M1643 1980q180 0 321 -62.5t230.5 -175t135.5 -264.5t46 -337q0 -200 -43.5 -380.5t-129.5 -330t-207 -259t-285 -170.5t-354 -61q-328 0 -464 259l-107 -759q-11 -80 -91 -80h-720q-80 0 -69 80l428 3040q11 80 91 80h720q80 0 69 -80l-107 -759q207 259 536 259z
M1172 620q125 0 210 109.5t85 302.5q0 130 -54 199t-145 69q-126 0 -210.5 -109.5t-84.5 -302.5q0 -130 54 -199t145 -69z" />
    <glyph glyph-name="ydieresis" unicode="&#xff;" horiz-adv-x="2402" 
d="M854 2127q-136 0 -225 92t-89 228q0 164 125.5 284t290.5 120q137 0 226 -92t89 -228q0 -108 -58 -201.5t-154.5 -148t-204.5 -54.5zM1794 2127q-136 0 -225 92t-89 228q0 164 125.5 284t290.5 120q137 0 226 -92t89 -228q0 -108 -58 -201.5t-154.5 -148t-204.5 -54.5z
M2413 1920q69 0 97.5 -52t-10.5 -116l-879 -1426q-117 -189 -216.5 -324t-211 -248t-224.5 -184t-253 -120t-299 -69.5t-361 -20.5q-36 0 -56.5 24t-15.5 60l64 454q9 71 83 80q175 22 286.5 84t237.5 219l-530 1471q-22 62 22 115t114 53h752q57 0 76 -60l175 -608l344 608
q33 60 93 60h712z" />
    <glyph glyph-name="Amacron" unicode="&#x100;" horiz-adv-x="2885" 
d="M1087 2700q-42 0 -67 29t-19 71l39 276q6 42 39 71t75 29h1240q42 0 67 -29t19 -71l-39 -276q-6 -42 -39 -71t-75 -29h-1240zM2756 116q13 -53 -12 -84.5t-80 -31.5h-784q-83 0 -100 80l-56 260h-785l-123 -260q-38 -80 -126 -80h-738q-55 0 -71.5 31t11.5 85l1216 2248
q41 76 126 76h824q86 0 106 -76zM1203 900h399l-126 580z" />
    <glyph glyph-name="amacron" unicode="&#x101;" horiz-adv-x="2446" 
d="M823 2180q-42 0 -67 29t-19 71l39 276q6 42 39 71t75 29h1240q42 0 67 -29t19 -71l-39 -276q-6 -42 -39 -71t-75 -29h-1240zM2431 1840l-166 -1180q-14 -104 -15 -186.5t6 -135t24 -138.5q20 -103 -82 -128l-539 -132q-86 -21 -127 32q-126 153 -146 319
q-112 -176 -258.5 -263.5t-343.5 -87.5q-180 0 -321 62.5t-230.5 175t-135.5 264.5t-46 337q0 200 43.5 380.5t129.5 330t207 259t285 170.5t354 61q328 0 464 -259l17 119q11 80 91 80h720q80 0 69 -80zM1159 620q126 0 210.5 109.5t84.5 302.5q0 130 -54 199t-145 69
q-125 0 -209.5 -109.5t-84.5 -302.5q0 -130 54 -199t144 -69z" />
    <glyph glyph-name="Abreve" unicode="&#x102;" horiz-adv-x="2885" 
d="M1692 2600q-142 0 -263.5 44.5t-204 120.5t-129 176.5t-46.5 211.5q0 85 25 126t87 41h248q95 0 106 -76q17 -111 74 -157.5t165 -46.5q109 0 178.5 45.5t118.5 158.5q33 76 126 76h248q85 0 85 -74q0 -116 -64.5 -232t-172.5 -207.5t-261.5 -149t-319.5 -57.5zM2756 116
q13 -53 -12 -84.5t-80 -31.5h-784q-83 0 -100 80l-56 260h-785l-123 -260q-38 -80 -126 -80h-738q-55 0 -71.5 31t11.5 85l1216 2248q41 76 126 76h824q86 0 106 -76zM1203 900h399l-126 580z" />
    <glyph glyph-name="abreve" unicode="&#x103;" horiz-adv-x="2446" 
d="M1428 2080q-142 0 -263.5 44.5t-204 120.5t-129 176.5t-46.5 211.5q0 85 25 126t87 41h248q95 0 106 -76q17 -111 74 -157.5t165 -46.5q109 0 178.5 45.5t118.5 158.5q33 76 126 76h248q85 0 85 -74q0 -116 -64.5 -232t-172.5 -207.5t-261.5 -149t-319.5 -57.5z
M2431 1840l-166 -1180q-14 -104 -15 -186.5t6 -135t24 -138.5q20 -103 -82 -128l-539 -132q-86 -21 -127 32q-126 153 -146 319q-112 -176 -258.5 -263.5t-343.5 -87.5q-180 0 -321 62.5t-230.5 175t-135.5 264.5t-46 337q0 200 43.5 380.5t129.5 330t207 259t285 170.5
t354 61q328 0 464 -259l17 119q11 80 91 80h720q80 0 69 -80zM1159 620q126 0 210.5 109.5t84.5 302.5q0 130 -54 199t-145 69q-125 0 -209.5 -109.5t-84.5 -302.5q0 -130 54 -199t144 -69z" />
    <glyph glyph-name="Aogonek" unicode="&#x104;" horiz-adv-x="2885" 
d="M2756 116q13 -53 -12 -84.5t-80 -31.5h-446q-75 -59 -123 -134t-48 -137q0 -89 102 -89q29 0 86 12q43 9 63.5 -8.5t14.5 -59.5l-37 -264q-9 -69 -82 -100q-69 -29 -141.5 -44.5t-186.5 -15.5q-183 0 -308 104t-125 272q0 160 93 304t253 244l-55 256h-785l-123 -260
q-38 -80 -126 -80h-738q-55 0 -71.5 31t11.5 85l1216 2248q41 76 126 76h824q86 0 106 -76zM1203 900h399l-126 580z" />
    <glyph glyph-name="aogonek" unicode="&#x105;" horiz-adv-x="2446" 
d="M2431 1840l-166 -1180q-14 -104 -14.5 -187t6.5 -134.5t24 -138.5q3 -15 2.5 -28t-2 -22t-9 -19t-12 -15.5t-17.5 -15t-19.5 -13.5t-24.5 -15q-272 -166 -299 -364q-15 -108 100 -108q29 0 86 12q44 9 64.5 -8.5t14.5 -59.5l-38 -264q-5 -35 -23.5 -59.5t-58.5 -40.5
q-71 -29 -143 -44.5t-185 -15.5q-129 0 -232 51t-158 149t-38 224q17 121 81 229t166 194q-25 26 -52 62.5t-60.5 111t-39.5 147.5q-112 -174 -258.5 -261t-341.5 -87q-180 0 -321 62.5t-230.5 175t-135.5 264.5t-46 337q0 200 43.5 380.5t129.5 330t207 259t285 170.5
t354 61q328 0 464 -259l17 119q11 80 91 80h720q80 0 69 -80zM1159 620q126 0 210.5 109.5t84.5 302.5q0 130 -54 199t-145 69q-125 0 -209.5 -109.5t-84.5 -302.5q0 -130 54 -199t144 -69z" />
    <glyph glyph-name="Cacute" unicode="&#x106;" horiz-adv-x="2755" 
d="M1527 2616q-47 -15 -81.5 -1.5t-46.5 49.5l-59 180q-12 38 9.5 78t62.5 62l821 435q42 21 77 7t48 -54l107 -320q15 -45 -4 -83t-63 -53zM2575 678q40 -21 47 -56t-22 -80q-101 -149 -244 -266t-304 -189.5t-330.5 -109.5t-337.5 -37q-273 0 -504 77t-397.5 218.5
t-260 352.5t-93.5 467q0 219 59 416.5t165 355.5t255 285t327.5 212t384 130.5t423.5 45.5q168 0 327 -37.5t300 -109.5t251.5 -189t169.5 -266q18 -44 0.5 -79.5t-63.5 -56.5l-606 -270q-87 -38 -130 44q-52 101 -143.5 162.5t-209.5 61.5q-156 0 -280 -81t-193.5 -225
t-69.5 -323q0 -204 104.5 -327.5t287.5 -123.5q117 0 224.5 61.5t190.5 162.5q68 82 142 44z" />
    <glyph glyph-name="cacute" unicode="&#x107;" horiz-adv-x="2170" 
d="M1113 2096q-47 -15 -81.5 -1.5t-46.5 49.5l-59 180q-12 38 9.5 78t62.5 62l821 435q42 21 77 7t48 -54l107 -320q15 -45 -4 -83t-63 -53zM1978 524q45 -23 50.5 -56.5t-24.5 -79.5q-29 -48 -82 -102.5t-142 -117.5t-194 -112.5t-249 -82.5t-296 -33q-157 0 -300.5 35.5
t-265 108.5t-211 176.5t-140 248t-50.5 315.5q0 185 49.5 349t137 289t206.5 224.5t259 163t292 97t309 33.5q152 0 286.5 -33t225.5 -82.5t162.5 -112.5t109 -117.5t53.5 -102.5q17 -46 3 -79.5t-65 -56.5l-520 -240q-29 -13 -49.5 -15.5t-36 7.5t-23.5 20.5t-21 31.5
q-29 49 -65 74.5t-105 25.5q-146 0 -224.5 -110t-78.5 -310q0 -129 52.5 -194.5t154.5 -65.5q69 0 112 25.5t86 74.5q19 22 30 32.5t29 20t38 7t45 -15.5z" />
    <glyph glyph-name="Cdotaccent" unicode="&#x10a;" horiz-adv-x="2755" 
d="M1753 2568q-166 0 -274.5 112t-108.5 277q0 131 71 245t187.5 180t247.5 66q166 0 274.5 -112t108.5 -277q0 -131 -71 -245t-187.5 -180t-247.5 -66zM2575 678q40 -21 47 -56t-22 -80q-101 -149 -244 -266t-304 -189.5t-330.5 -109.5t-337.5 -37q-273 0 -504 77
t-397.5 218.5t-260 352.5t-93.5 467q0 219 59 416.5t165 355.5t255 285t327.5 212t384 130.5t423.5 45.5q168 0 327 -37.5t300 -109.5t251.5 -189t169.5 -266q18 -44 0.5 -79.5t-63.5 -56.5l-606 -270q-87 -38 -130 44q-52 101 -143.5 162.5t-209.5 61.5q-156 0 -280 -81
t-193.5 -225t-69.5 -323q0 -204 104.5 -327.5t287.5 -123.5q117 0 224.5 61.5t190.5 162.5q68 82 142 44z" />
    <glyph glyph-name="cdotaccent" unicode="&#x10b;" horiz-adv-x="2170" 
d="M1339 2048q-166 0 -274.5 112t-108.5 277q0 131 71 245t187.5 180t247.5 66q166 0 274.5 -112t108.5 -277q0 -131 -71 -245t-187.5 -180t-247.5 -66zM1978 524q45 -23 50.5 -56.5t-24.5 -79.5q-29 -48 -82 -102.5t-142 -117.5t-194 -112.5t-249 -82.5t-296 -33
q-157 0 -300.5 35.5t-265 108.5t-211 176.5t-140 248t-50.5 315.5q0 185 49.5 349t137 289t206.5 224.5t259 163t292 97t309 33.5q152 0 286.5 -33t225.5 -82.5t162.5 -112.5t109 -117.5t53.5 -102.5q17 -46 3 -79.5t-65 -56.5l-520 -240q-29 -13 -49.5 -15.5t-36 7.5
t-23.5 20.5t-21 31.5q-29 49 -65 74.5t-105 25.5q-146 0 -224.5 -110t-78.5 -310q0 -129 52.5 -194.5t154.5 -65.5q69 0 112 25.5t86 74.5q19 22 30 32.5t29 20t38 7t45 -15.5z" />
    <glyph glyph-name="Ccaron" unicode="&#x10c;" horiz-adv-x="2755" 
d="M1964 3212q51 68 129 68h384q66 0 76.5 -37t-42.5 -87l-489 -463q-57 -53 -131 -53h-256q-73 0 -116 53l-359 463q-38 50 -17.5 87t86.5 37h384q79 0 110 -68l92 -200zM2575 678q40 -21 47 -56t-22 -80q-101 -149 -244 -266t-304 -189.5t-330.5 -109.5t-337.5 -37
q-273 0 -504 77t-397.5 218.5t-260 352.5t-93.5 467q0 219 59 416.5t165 355.5t255 285t327.5 212t384 130.5t423.5 45.5q168 0 327 -37.5t300 -109.5t251.5 -189t169.5 -266q18 -44 0.5 -79.5t-63.5 -56.5l-606 -270q-87 -38 -130 44q-52 101 -143.5 162.5t-209.5 61.5
q-156 0 -280 -81t-193.5 -225t-69.5 -323q0 -204 104.5 -327.5t287.5 -123.5q117 0 224.5 61.5t190.5 162.5q68 82 142 44z" />
    <glyph glyph-name="ccaron" unicode="&#x10d;" horiz-adv-x="2170" 
d="M1550 2692q51 68 129 68h384q66 0 76.5 -37t-42.5 -87l-489 -463q-57 -53 -131 -53h-256q-73 0 -116 53l-359 463q-38 50 -17.5 87t86.5 37h384q79 0 110 -68l92 -200zM1978 524q45 -23 50.5 -56.5t-24.5 -79.5q-29 -48 -82 -102.5t-142 -117.5t-194 -112.5t-249 -82.5
t-296 -33q-157 0 -300.5 35.5t-265 108.5t-211 176.5t-140 248t-50.5 315.5q0 185 49.5 349t137 289t206.5 224.5t259 163t292 97t309 33.5q152 0 286.5 -33t225.5 -82.5t162.5 -112.5t109 -117.5t53.5 -102.5q17 -46 3 -79.5t-65 -56.5l-520 -240q-29 -13 -49.5 -15.5
t-36 7.5t-23.5 20.5t-21 31.5q-29 49 -65 74.5t-105 25.5q-146 0 -224.5 -110t-78.5 -310q0 -129 52.5 -194.5t154.5 -65.5q69 0 112 25.5t86 74.5q19 22 30 32.5t29 20t38 7t45 -15.5z" />
    <glyph glyph-name="Dcaron" unicode="&#x10e;" horiz-adv-x="2826" 
d="M1300 2693l-359 463q-38 50 -17.5 87t86.5 37h384q79 0 110 -68l92 -200l149 200q51 68 129 68h384q66 0 76.5 -37t-42.5 -87l-489 -463q-57 -53 -131 -53h-256q-73 0 -116 53zM1528 2440q214 0 403 -45t342.5 -134.5t264.5 -216.5t171.5 -297.5t60.5 -370.5
q0 -255 -83 -476.5t-230 -385t-345.5 -280.5t-434.5 -175.5t-492 -58.5h-780h-340q-33 0 -53.5 23.5t-15.5 56.5l321 2280q4 33 31 56.5t60 23.5h760h360zM1243 700q117 0 219.5 43.5t178 120.5t119 190t43.5 246q0 202 -112.5 321t-301.5 119h-239l-147 -1040h240z" />
    <glyph glyph-name="dcaron" unicode="&#x10f;" horiz-adv-x="3230" 
d="M3068 2618q131 0 222.5 -86t91.5 -243q0 -150 -90.5 -318.5t-239.5 -309t-318 -220.5q-21 -9 -40 -5t-30 19l-50 66q-15 19 -11 45t27 47q13 12 45 39.5t48 43.5t37 42t30.5 53.5t9.5 59.5q0 43 -18.5 74t-52.5 65q-81 81 -81 214q0 171 126 292.5t294 121.5zM2472 2560
q80 0 69 -80l-338 -2400q-11 -80 -91 -80h-720q-80 0 -69 80l17 119q-207 -259 -536 -259q-180 0 -321 62.5t-230.5 175t-135.5 264.5t-46 337q0 200 43.5 380.5t129.5 330t207 259t285 170.5t354 61q328 0 464 -259l107 759q11 80 91 80h720zM1179 620q126 0 210.5 109.5
t84.5 302.5q0 130 -54 199t-145 69q-125 0 -209.5 -109.5t-84.5 -302.5q0 -130 54 -199t144 -69z" />
    <glyph glyph-name="Dcroat" unicode="&#x110;" horiz-adv-x="2826" 
d="M1528 2440q214 0 403 -45t342.5 -134.5t264.5 -216.5t171.5 -297.5t60.5 -370.5q0 -255 -83 -476.5t-230 -385t-345.5 -280.5t-434.5 -175.5t-492 -58.5h-780h-340q-33 0 -53.5 23.5t-15.5 56.5l123 872h-169q-48 0 -70.5 26t-15.5 74l42 300q7 48 36.5 74t77.5 26h169
l128 908q4 33 31 56.5t60 23.5h760h360zM1243 700q117 0 219.5 43.5t178 120.5t119 190t43.5 246q0 202 -112.5 321t-301.5 119h-239l-41 -288h287q48 0 70.5 -26t15.5 -74l-42 -300q-7 -48 -36.5 -74t-77.5 -26h-287l-36 -252h240z" />
    <glyph glyph-name="dcroat" unicode="&#x111;" horiz-adv-x="2626" 
d="M2722 2352q48 0 70.5 -26t15.5 -74l-14 -100q-7 -48 -36.5 -74t-77.5 -26h-199l-278 -1972q-11 -80 -91 -80h-720q-80 0 -69 80l17 119q-207 -259 -536 -259q-180 0 -321 62.5t-230.5 175t-135.5 264.5t-46 337q0 200 43.5 380.5t129.5 330t207 259t285 170.5t354 61
q328 0 464 -259l47 331h-297q-48 0 -70.5 26t-15.5 74l14 100q7 48 36.5 74t77.5 26h297l18 128q11 80 91 80h720q80 0 69 -80l-18 -128h199zM1179 620q126 0 210.5 109.5t84.5 302.5q0 130 -54 199t-145 69q-125 0 -209.5 -109.5t-84.5 -302.5q0 -130 54 -199t144 -69z" />
    <glyph glyph-name="Emacron" unicode="&#x112;" horiz-adv-x="2325" 
d="M842 2700q-42 0 -67 29t-19 71l39 276q6 42 39 71t75 29h1240q42 0 67 -29t19 -71l-39 -276q-6 -42 -39 -71t-75 -29h-1240zM2333 2440q80 0 69 -80l-76 -540q-11 -80 -92 -80h-1084l-28 -200h924q80 0 69 -80l-65 -460q-11 -80 -91 -80h-925l-31 -220h1125q80 0 69 -80
l-76 -540q-11 -80 -91 -80h-1456h-509q-33 0 -53.5 23.5t-15.5 56.5l321 2280q4 33 31 56.5t60 23.5h760h1165z" />
    <glyph glyph-name="emacron" unicode="&#x113;" horiz-adv-x="2326" 
d="M710 2180q-42 0 -67 29t-19 71l39 276q6 42 39 71t75 29h1240q42 0 67 -29t19 -71l-39 -276q-6 -42 -39 -71t-75 -29h-1240zM1349 1980q142 0 267.5 -29t234.5 -88t190.5 -150.5t134.5 -215.5t67 -283t-11 -354h-1347q6 -83 32 -144.5t65 -93.5t80.5 -47t87.5 -15
q95 0 160.5 25.5t116.5 84.5q21 24 34.5 36t30.5 19.5t35 4.5t42 -16l412 -218q48 -25 51 -60.5t-26 -75.5q-47 -74 -140.5 -148t-217.5 -135t-284 -99t-321 -38q-210 0 -386.5 56.5t-307 164t-203.5 275t-73 378.5q0 224 68 415t187.5 328t281 233t349 143t390.5 47z
M1257 1440q-101 0 -183.5 -56.5t-131.5 -163.5h526q-16 111 -71 165.5t-140 54.5z" />
    <glyph glyph-name="Edotaccent" unicode="&#x116;" horiz-adv-x="2325" 
d="M1443 2568q-166 0 -274.5 112t-108.5 277q0 131 71 245t187.5 180t247.5 66q166 0 274.5 -112t108.5 -277q0 -131 -71 -245t-187.5 -180t-247.5 -66zM2333 2440q80 0 69 -80l-76 -540q-11 -80 -92 -80h-1084l-28 -200h924q80 0 69 -80l-65 -460q-11 -80 -91 -80h-925
l-31 -220h1125q80 0 69 -80l-76 -540q-11 -80 -91 -80h-1456h-509q-33 0 -53.5 23.5t-15.5 56.5l321 2280q4 33 31 56.5t60 23.5h760h1165z" />
    <glyph glyph-name="edotaccent" unicode="&#x117;" horiz-adv-x="2326" 
d="M1311 2048q-166 0 -274.5 112t-108.5 277q0 131 71 245t187.5 180t247.5 66q166 0 274.5 -112t108.5 -277q0 -131 -71 -245t-187.5 -180t-247.5 -66zM1349 1980q142 0 267.5 -29t234.5 -88t190.5 -150.5t134.5 -215.5t67 -283t-11 -354h-1347q6 -83 32 -144.5t65 -93.5
t80.5 -47t87.5 -15q95 0 160.5 25.5t116.5 84.5q21 24 34.5 36t30.5 19.5t35 4.5t42 -16l412 -218q48 -25 51 -60.5t-26 -75.5q-47 -74 -140.5 -148t-217.5 -135t-284 -99t-321 -38q-210 0 -386.5 56.5t-307 164t-203.5 275t-73 378.5q0 224 68 415t187.5 328t281 233
t349 143t390.5 47zM1257 1440q-101 0 -183.5 -56.5t-131.5 -163.5h526q-16 111 -71 165.5t-140 54.5z" />
    <glyph glyph-name="Eogonek" unicode="&#x118;" horiz-adv-x="2325" 
d="M2333 2440q80 0 69 -80l-76 -540q-11 -80 -92 -80h-1084l-28 -200h924q80 0 69 -80l-65 -460q-11 -80 -91 -80h-925l-31 -220h1125q80 0 69 -80l-76 -540q-11 -80 -91 -80h-120q-95 -55 -162.5 -145.5t-67.5 -165.5q0 -89 102 -89q29 0 86 12q43 9 63.5 -8.5t14.5 -59.5
l-37 -264q-9 -69 -82 -100q-69 -29 -141.5 -44.5t-186.5 -15.5q-183 0 -308 104t-125 272q0 143 75 274t207 230h-774h-509q-33 0 -53.5 23.5t-15.5 56.5l321 2280q4 33 31 56.5t60 23.5h760h1165z" />
    <glyph glyph-name="eogonek" unicode="&#x119;" horiz-adv-x="2326" 
d="M1349 1980q142 0 267.5 -29t234.5 -88t190.5 -150.5t134.5 -215.5t67 -283t-11 -354h-1347q6 -83 32 -144.5t65 -93.5t80.5 -47t87.5 -15q95 0 160.5 25.5t116.5 84.5q21 24 34.5 36t30.5 19.5t35 4.5t42 -16l412 -218q48 -25 51 -60.5t-26 -75.5q-51 -82 -158 -163
t-249 -142q-68 -55 -111.5 -105t-63 -93.5t-26 -76t-6.5 -72.5q0 -53 34 -80.5t92 -27.5q29 0 84 12q42 9 65 -8.5t23 -59.5v-264q0 -70 -68 -100q-66 -29 -136 -44.5t-184 -15.5q-96 0 -186 30t-159 84t-111 134.5t-42 175.5q0 224 163 398q-196 10 -358.5 71t-282.5 168.5
t-186.5 269t-66.5 363.5q0 224 68 415t187.5 328t281 233t349 143t390.5 47zM1257 1440q-101 0 -183.5 -56.5t-131.5 -163.5h526q-16 111 -71 165.5t-140 54.5z" />
    <glyph glyph-name="Ecaron" unicode="&#x11a;" horiz-adv-x="2325" 
d="M1209 2693l-359 463q-38 50 -17.5 87t86.5 37h384q79 0 110 -68l92 -200l149 200q51 68 129 68h384q66 0 76.5 -37t-42.5 -87l-489 -463q-57 -53 -131 -53h-256q-73 0 -116 53zM2333 2440q80 0 69 -80l-76 -540q-11 -80 -92 -80h-1084l-28 -200h924q80 0 69 -80l-65 -460
q-11 -80 -91 -80h-925l-31 -220h1125q80 0 69 -80l-76 -540q-11 -80 -91 -80h-1456h-509q-33 0 -53.5 23.5t-15.5 56.5l321 2280q4 33 31 56.5t60 23.5h760h1165z" />
    <glyph glyph-name="ecaron" unicode="&#x11b;" horiz-adv-x="2326" 
d="M1077 2173l-359 463q-38 50 -17.5 87t86.5 37h384q79 0 110 -68l92 -200l149 200q51 68 129 68h384q66 0 76.5 -37t-42.5 -87l-489 -463q-57 -53 -131 -53h-256q-73 0 -116 53zM1349 1980q142 0 267.5 -29t234.5 -88t190.5 -150.5t134.5 -215.5t67 -283t-11 -354h-1347
q6 -83 32 -144.5t65 -93.5t80.5 -47t87.5 -15q95 0 160.5 25.5t116.5 84.5q21 24 34.5 36t30.5 19.5t35 4.5t42 -16l412 -218q48 -25 51 -60.5t-26 -75.5q-47 -74 -140.5 -148t-217.5 -135t-284 -99t-321 -38q-210 0 -386.5 56.5t-307 164t-203.5 275t-73 378.5
q0 224 68 415t187.5 328t281 233t349 143t390.5 47zM1257 1440q-101 0 -183.5 -56.5t-131.5 -163.5h526q-16 111 -71 165.5t-140 54.5z" />
    <glyph glyph-name="Gbreve" unicode="&#x11e;" horiz-adv-x="2815" 
d="M1733 2600q-142 0 -263.5 44.5t-204 120.5t-129 176.5t-46.5 211.5q0 85 25 126t87 41h248q95 0 106 -76q17 -111 74 -157.5t165 -46.5q109 0 178.5 45.5t118.5 158.5q33 76 126 76h248q85 0 85 -74q0 -116 -64.5 -232t-172.5 -207.5t-261.5 -149t-319.5 -57.5z
M2784 1918q18 -45 0.5 -80t-63.5 -56l-606 -270q-81 -36 -130 44q-60 100 -143.5 152t-202.5 52q-156 0 -280 -81t-193.5 -225t-69.5 -323q0 -204 104.5 -327.5t287.5 -123.5q188 0 333 39l45 321q7 48 36.5 74t77.5 26h630q110 0 96 -100l-108 -768q-225 -146 -541.5 -239
t-672.5 -93q-273 0 -504 77t-397.5 218.5t-260 352.5t-93.5 467q0 219 59 416.5t165 355.5t255 285t327.5 212t384 130.5t423.5 45.5q132 0 257 -21t245.5 -66.5t221.5 -112.5t183.5 -164.5t133.5 -217.5z" />
    <glyph glyph-name="gbreve" unicode="&#x11f;" horiz-adv-x="2394" 
d="M1361 2080q-142 0 -263.5 44.5t-204 120.5t-129 176.5t-46.5 211.5q0 85 25 126t87 41h248q95 0 106 -76q17 -111 74 -157.5t165 -46.5q109 0 178.5 45.5t118.5 158.5q33 76 126 76h248q85 0 85 -74q0 -116 -64.5 -232t-172.5 -207.5t-261.5 -149t-319.5 -57.5z
M2434 2140q66 0 58 -59l-72 -507q-8 -56 -62 -56q-97 0 -175 -47q2 -28 2 -56q0 -141 -76.5 -265.5t-212 -216t-332.5 -144.5t-428 -53h-264q-77 0 -110.5 -23t-33.5 -68q0 -69 122 -69h536q370 0 572 -141.5t202 -385.5q0 -80 -18.5 -154.5t-59.5 -147t-103 -134.5
t-154 -114.5t-207 -89.5t-266.5 -58t-328.5 -21q-476 0 -722 131t-246 362q0 184 157 320q-86 57 -135 147t-49 196q0 154 99.5 280.5t275.5 200.5q-140 137 -140 336q0 112 48 214.5t140.5 186.5t219 146t291 96t349.5 34q328 0 551 -107q112 129 259 198t313 69z
M1203 1212q102 0 166 44.5t64 117.5q0 60 -51.5 95t-137.5 35q-101 0 -165 -44.5t-64 -117.5q0 -60 51 -95t137 -35zM1120 20q-148 0 -222.5 -28.5t-74.5 -91.5q0 -100 266 -100q148 0 222 28.5t74 91.5q0 100 -265 100z" />
    <glyph glyph-name="Gdotaccent" unicode="&#x120;" horiz-adv-x="2815" 
d="M1729 2568q-166 0 -274.5 112t-108.5 277q0 131 71 245t187.5 180t247.5 66q166 0 274.5 -112t108.5 -277q0 -131 -71 -245t-187.5 -180t-247.5 -66zM2610 1140q110 0 96 -100l-108 -768q-225 -146 -541.5 -239t-672.5 -93q-273 0 -504 77t-397.5 218.5t-260 352.5
t-93.5 467q0 219 59 416.5t165 355.5t255 285t327.5 212t384 130.5t423.5 45.5q132 0 257 -21t245.5 -66.5t221.5 -112.5t183.5 -164.5t133.5 -217.5q18 -45 0.5 -80t-63.5 -56l-606 -270q-81 -36 -130 44q-60 100 -143.5 152t-202.5 52q-156 0 -280 -81t-193.5 -225
t-69.5 -323q0 -204 104.5 -327.5t287.5 -123.5q188 0 333 39l45 321q7 48 36.5 74t77.5 26h630z" />
    <glyph glyph-name="gdotaccent" unicode="&#x121;" horiz-adv-x="2394" 
d="M1357 2048q-166 0 -274.5 112t-108.5 277q0 131 71 245t187.5 180t247.5 66q166 0 274.5 -112t108.5 -277q0 -131 -71 -245t-187.5 -180t-247.5 -66zM2434 2140q66 0 58 -59l-72 -507q-8 -56 -62 -56q-97 0 -175 -47q2 -28 2 -56q0 -141 -76.5 -265.5t-212 -216
t-332.5 -144.5t-428 -53h-264q-77 0 -110.5 -23t-33.5 -68q0 -69 122 -69h536q370 0 572 -141.5t202 -385.5q0 -80 -18.5 -154.5t-59.5 -147t-103 -134.5t-154 -114.5t-207 -89.5t-266.5 -58t-328.5 -21q-476 0 -722 131t-246 362q0 184 157 320q-86 57 -135 147t-49 196
q0 154 99.5 280.5t275.5 200.5q-140 137 -140 336q0 112 48 214.5t140.5 186.5t219 146t291 96t349.5 34q328 0 551 -107q112 129 259 198t313 69zM1203 1212q102 0 166 44.5t64 117.5q0 60 -51.5 95t-137.5 35q-101 0 -165 -44.5t-64 -117.5q0 -60 51 -95t137 -35z
M1385 -80q0 100 -265 100q-148 0 -222.5 -28.5t-74.5 -91.5q0 -100 266 -100q148 0 222 28.5t74 91.5z" />
    <glyph glyph-name="Gcommaaccent" unicode="&#x122;" horiz-adv-x="2815" 
d="M2610 1140q110 0 96 -100l-108 -768q-225 -146 -541.5 -239t-672.5 -93q-273 0 -504 77t-397.5 218.5t-260 352.5t-93.5 467q0 219 59 416.5t165 355.5t255 285t327.5 212t384 130.5t423.5 45.5q132 0 257 -21t245.5 -66.5t221.5 -112.5t183.5 -164.5t133.5 -217.5
q18 -45 0.5 -80t-63.5 -56l-606 -270q-81 -36 -130 44q-60 100 -143.5 152t-202.5 52q-156 0 -280 -81t-193.5 -225t-69.5 -323q0 -204 104.5 -327.5t287.5 -123.5q188 0 333 39l45 321q7 48 36.5 74t77.5 26h630zM1283 -242q131 0 223 -86t92 -243q0 -150 -90.5 -319
t-239.5 -309.5t-318 -219.5q-21 -9 -41 -5t-31 19l-49 66q-15 19 -11 45t27 47q12 11 44.5 38.5t48.5 43.5t37.5 42.5t31 54t9.5 59.5q0 30 -11.5 57.5t-24.5 43t-36 38.5q-80 80 -80 214q0 113 58.5 209t155 150.5t205.5 54.5z" />
    <glyph glyph-name="gcommaaccent" unicode="&#x123;" horiz-adv-x="2394" 
d="M1366 2050q-131 0 -223 86t-92 243q0 150 90.5 319t239.5 309.5t318 219.5q21 9 41 5t31 -19l49 -66q15 -19 11 -45t-27 -47q-12 -11 -44.5 -38.5t-48.5 -43.5t-37.5 -42.5t-31 -54t-9.5 -59.5q0 -30 11.5 -57.5t24.5 -43t36 -38.5q80 -80 80 -214q0 -113 -58.5 -209
t-155 -150.5t-205.5 -54.5zM2434 2140q66 0 58 -59l-72 -507q-8 -56 -62 -56q-97 0 -175 -47q2 -28 2 -56q0 -141 -76.5 -265.5t-212 -216t-332.5 -144.5t-428 -53h-264q-77 0 -110.5 -23t-33.5 -68q0 -69 122 -69h536q370 0 572 -141.5t202 -385.5q0 -80 -18.5 -154.5
t-59.5 -147t-103 -134.5t-154 -114.5t-207 -89.5t-266.5 -58t-328.5 -21q-476 0 -722 131t-246 362q0 184 157 320q-86 57 -135 147t-49 196q0 154 99.5 280.5t275.5 200.5q-140 137 -140 336q0 112 48 214.5t140.5 186.5t219 146t291 96t349.5 34q328 0 551 -107
q112 129 259 198t313 69zM1203 1212q102 0 166 44.5t64 117.5q0 60 -51.5 95t-137.5 35q-101 0 -165 -44.5t-64 -117.5q0 -60 51 -95t137 -35zM1385 -80q0 100 -265 100q-148 0 -222.5 -28.5t-74.5 -91.5q0 -100 266 -100q148 0 222 28.5t74 91.5z" />
    <glyph glyph-name="Hbar" unicode="&#x126;" horiz-adv-x="2960" 
d="M3120 2240q48 0 70.5 -26t15.5 -74l-31 -220q-7 -48 -36.5 -74t-77.5 -26h-140l-245 -1740q-4 -33 -31 -56.5t-60 -23.5h-760q-33 0 -53.5 23.5t-15.5 56.5l113 800h-800l-113 -800q-4 -33 -31 -56.5t-60 -23.5h-760q-33 0 -53.5 23.5t-15.5 56.5l245 1740h-140
q-48 0 -70.5 26t-15.5 74l31 220q7 48 36.5 74t77.5 26h140l17 120q4 33 31 56.5t60 23.5h760q33 0 53.5 -23.5t15.5 -56.5l-17 -120h800l17 120q4 33 31 56.5t60 23.5h760q33 0 53.5 -23.5t15.5 -56.5l-17 -120h140zM1967 1580l34 240h-800l-34 -240h800z" />
    <glyph glyph-name="hbar" unicode="&#x127;" horiz-adv-x="2600" 
d="M1997 1960q325 0 450 -173.5t77 -510.5l-168 -1196q-11 -80 -91 -80h-720q-80 0 -69 80l130 920q20 140 -14.5 200t-121.5 60q-103 0 -176.5 -77.5t-93.5 -222.5l-124 -880q-11 -80 -91 -80h-720q-80 0 -69 80l278 1972h-220q-48 0 -70.5 26t-15.5 74l14 100
q7 48 36.5 74t77.5 26h220l18 128q11 80 91 80h720q81 0 69 -80l-18 -128h276q48 0 70.5 -26t15.5 -74l-14 -100q-7 -48 -36.5 -74t-77.5 -26h-276l-58 -412q110 146 288 233t413 87z" />
    <glyph glyph-name="Imacron" unicode="&#x12a;" horiz-adv-x="1160" 
d="M158 3076q6 42 39 71t75 29h1240q42 0 67 -29t19 -71l-39 -276q-6 -42 -39 -71t-75 -29h-1240q-42 0 -67 29t-19 71zM317 2360q4 33 31 56.5t60 23.5h760q33 0 53.5 -23.5t15.5 -56.5l-321 -2280q-4 -33 -31 -56.5t-60 -23.5h-760q-33 0 -53.5 23.5t-15.5 56.5z" />
    <glyph glyph-name="imacron" unicode="&#x12b;" 
d="M65 2556q6 42 39 71t75 29h1240q42 0 67 -29t19 -71l-39 -276q-6 -42 -39 -71t-75 -29h-1240q-42 0 -67 29t-19 71zM244 1840q11 80 91 80h720q80 0 69 -80l-248 -1760q-11 -80 -91 -80h-720q-80 0 -69 80z" />
    <glyph glyph-name="Iogonek" unicode="&#x12e;" horiz-adv-x="1160" 
d="M1168 2440q33 0 53.5 -23.5t15.5 -56.5l-321 -2280q-4 -33 -31 -56.5t-60 -23.5h-435q-95 -55 -162.5 -145.5t-67.5 -165.5q0 -89 102 -89q29 0 86 12q43 9 63.5 -8.5t14.5 -59.5l-37 -264q-9 -69 -82 -100q-69 -29 -141.5 -44.5t-186.5 -15.5q-183 0 -308 104t-125 272
q0 187 124 349t329 256l318 2259q4 33 31 56.5t60 23.5h760z" />
    <glyph glyph-name="iogonek" unicode="&#x12f;" 
d="M713 2048q-166 0 -274.5 112t-108.5 277q0 131 71 245t187.5 180t247.5 66q166 0 274.5 -112t108.5 -277q0 -131 -71 -245t-187.5 -180t-247.5 -66zM1055 1920q80 0 69 -80l-248 -1760q-11 -80 -91 -80h-370q-95 -55 -162.5 -145.5t-67.5 -165.5q0 -89 102 -89
q29 0 86 12q43 9 63.5 -8.5t14.5 -59.5l-37 -264q-9 -69 -82 -100q-69 -29 -141.5 -44.5t-186.5 -15.5q-183 0 -308 104t-125 272q0 180 116 338.5t310 253.5l247 1752q11 80 91 80h720z" />
    <glyph glyph-name="Idotaccent" unicode="&#x130;" horiz-adv-x="1160" 
d="M806 2568q-166 0 -274.5 112t-108.5 277q0 131 71 245t187.5 180t247.5 66q166 0 274.5 -112t108.5 -277q0 -131 -71 -245t-187.5 -180t-247.5 -66zM317 2360q4 33 31 56.5t60 23.5h760q33 0 53.5 -23.5t15.5 -56.5l-321 -2280q-4 -33 -31 -56.5t-60 -23.5h-760
q-33 0 -53.5 23.5t-15.5 56.5z" />
    <glyph glyph-name="dotlessi" unicode="&#x131;" 
d="M244 1840q11 80 91 80h720q80 0 69 -80l-248 -1760q-11 -80 -91 -80h-720q-80 0 -69 80z" />
    <glyph glyph-name="Kcommaaccent" unicode="&#x136;" horiz-adv-x="2878" 
d="M1168 2440q33 0 53.5 -23.5t15.5 -56.5l-321 -2280q-4 -33 -31 -56.5t-60 -23.5h-760q-33 0 -53.5 23.5t-15.5 56.5l321 2280q4 33 31 56.5t60 23.5h760zM2739 120q27 -52 2.5 -86t-84.5 -34h-812q-79 0 -111 64l-595 1176l931 1136q52 64 130 64h760q61 0 75.5 -34.5
t-28.5 -85.5l-882 -1040zM1260 -242q131 0 223 -86t92 -243q0 -150 -90.5 -319t-239.5 -309.5t-318 -219.5q-21 -9 -41 -5t-31 19l-49 66q-15 19 -11 45t27 47q12 11 44.5 38.5t48.5 43.5t37.5 42.5t31 54t9.5 59.5q0 30 -11.5 57.5t-24.5 43t-36 38.5q-80 80 -80 214
q0 113 58.5 209t155 150.5t205.5 54.5z" />
    <glyph glyph-name="kcommaaccent" unicode="&#x137;" horiz-adv-x="2465" 
d="M334 2480q11 80 91 80h720q80 0 69 -80l-338 -2400q-11 -80 -91 -80h-720q-80 0 -69 80zM1441 0q-90 0 -111 68l-284 932l496 852q19 32 54 50t75 18h720q58 0 69 -36.5t-22 -83.5l-513 -780l344 -900q21 -55 -1.5 -87.5t-82.5 -32.5h-744zM1072 -242q131 0 223 -86
t92 -243q0 -150 -90.5 -319t-239.5 -309.5t-318 -219.5q-21 -9 -41 -5t-31 19l-49 66q-15 19 -11 45t27 47q12 11 44.5 38.5t48.5 43.5t37.5 42.5t31 54t9.5 59.5q0 30 -11.5 57.5t-24.5 43t-36 38.5q-80 80 -80 214q0 113 58.5 209t155 150.5t205.5 54.5z" />
    <glyph glyph-name="Lacute" unicode="&#x139;" horiz-adv-x="2180" 
d="M580 2616q-47 -15 -81.5 -1.5t-46.5 49.5l-59 180q-12 38 9.5 78t62.5 62l821 435q42 21 77 7t48 -54l107 -320q15 -45 -4 -83t-63 -53zM2029 740q80 0 69 -80l-82 -580q-11 -80 -91 -80h-1860q-33 0 -53.5 23.5t-15.5 56.5l321 2280q4 33 31 56.5t60 23.5h760
q33 0 53.5 -23.5t15.5 -56.5l-228 -1620h1020z" />
    <glyph glyph-name="lacute" unicode="&#x13a;" 
d="M577 2736q-47 -15 -81.5 -1.5t-46.5 49.5l-59 180q-12 38 9.5 78t62.5 62l821 435q42 21 77 7t48 -54l107 -320q15 -45 -4 -83t-63 -53zM334 2480q11 80 91 80h720q80 0 69 -80l-338 -2400q-11 -80 -91 -80h-720q-80 0 -69 80z" />
    <glyph glyph-name="Lcommaaccent" unicode="&#x13b;" horiz-adv-x="2180" 
d="M2029 740q80 0 69 -80l-82 -580q-11 -80 -91 -80h-1860q-33 0 -53.5 23.5t-15.5 56.5l321 2280q4 33 31 56.5t60 23.5h760q33 0 53.5 -23.5t15.5 -56.5l-228 -1620h1020zM960 -242q131 0 223 -86t92 -243q0 -150 -90.5 -319t-239.5 -309.5t-318 -219.5q-21 -9 -41 -5
t-31 19l-49 66q-15 19 -11 45t27 47q12 11 44.5 38.5t48.5 43.5t37.5 42.5t31 54t9.5 59.5q0 30 -11.5 57.5t-24.5 43t-36 38.5q-80 80 -80 214q0 113 58.5 209t155 150.5t205.5 54.5z" />
    <glyph glyph-name="lcommaaccent" unicode="&#x13c;" 
d="M334 2480q11 80 91 80h720q80 0 69 -80l-338 -2400q-11 -80 -91 -80h-720q-80 0 -69 80zM400 -242q131 0 223 -86t92 -243q0 -150 -90.5 -319t-239.5 -309.5t-318 -219.5q-21 -9 -41 -5t-31 19l-49 66q-15 19 -11 45t27 47q12 11 44.5 38.5t48.5 43.5t37.5 42.5t31 54
t9.5 59.5q0 30 -11.5 57.5t-24.5 43t-36 38.5q-80 80 -80 214q0 113 58.5 209t155 150.5t205.5 54.5z" />
    <glyph glyph-name="Lcaron" unicode="&#x13d;" horiz-adv-x="2180" 
d="M1870 2618q131 0 222.5 -86t91.5 -243q0 -150 -90.5 -318.5t-239.5 -309t-318 -220.5q-21 -9 -40 -5t-30 19l-50 66q-15 19 -11 45t27 47q13 12 45 39.5t48 43.5t37 42t30.5 53.5t9.5 59.5q0 43 -18.5 74t-52.5 65q-81 81 -81 214q0 171 126 292.5t294 121.5zM2029 740
q80 0 69 -80l-82 -580q-11 -80 -91 -80h-1860q-33 0 -53.5 23.5t-15.5 56.5l321 2280q4 33 31 56.5t60 23.5h760q33 0 53.5 -23.5t15.5 -56.5l-228 -1620h1020z" />
    <glyph glyph-name="lcaron" unicode="&#x13e;" horiz-adv-x="1906" 
d="M1744 2618q131 0 222.5 -86t91.5 -243q0 -150 -90.5 -318.5t-239.5 -309t-318 -220.5q-21 -9 -40 -5t-30 19l-50 66q-15 19 -11 45t27 47q13 12 45 39.5t48 43.5t37 42t30.5 53.5t9.5 59.5q0 43 -18.5 74t-52.5 65q-81 81 -81 214q0 171 126 292.5t294 121.5zM334 2480
q11 80 91 80h720q80 0 69 -80l-338 -2400q-11 -80 -91 -80h-720q-80 0 -69 80z" />
    <glyph glyph-name="Lslash" unicode="&#x141;" horiz-adv-x="2509" 
d="M2358 740q80 0 69 -80l-82 -580q-11 -80 -91 -80h-1860q-33 0 -53.5 23.5t-15.5 56.5l85 602l-162 -71q-97 -42 -126 49l-113 344q-29 89 68 132l423 185l146 1039q4 33 31 56.5t60 23.5h760q33 0 53.5 -23.5t15.5 -56.5l-86 -609l543 238q46 20 79.5 7.5t47.5 -56.5
l112 -344q14 -43 -4 -77.5t-63 -54.5l-805 -353l-52 -371h1020z" />
    <glyph glyph-name="lslash" unicode="&#x142;" horiz-adv-x="1660" 
d="M1719 1469q29 -89 -67 -132l-348 -153l-156 -1104q-11 -80 -91 -80h-720q-80 0 -69 80l98 693l-81 -35q-97 -42 -126 49l-113 344q-29 89 68 132l342 150l150 1067q11 80 91 80h720q80 0 69 -80l-92 -656l87 38q97 42 126 -48z" />
    <glyph glyph-name="Nacute" unicode="&#x143;" horiz-adv-x="2880" 
d="M1480 2616q-47 -15 -81.5 -1.5t-46.5 49.5l-59 180q-12 38 9.5 78t62.5 62l821 435q42 21 77 7t48 -54l107 -320q15 -45 -4 -83t-63 -53zM2868 2440q48 0 70.5 -26t15.5 -74l-315 -2240q-7 -48 -36.5 -74t-77.5 -26h-272q-73 0 -119 40l-1091 940l-124 -880
q-7 -48 -36.5 -74t-77.5 -26h-720q-48 0 -70.5 26t-15.5 74l315 2240q7 48 36.5 74t77.5 26h272q73 0 118 -40l1091 -948l125 888q7 48 36.5 74t77.5 26h720z" />
    <glyph glyph-name="nacute" unicode="&#x144;" horiz-adv-x="2400" 
d="M1207 2096q-47 -15 -81.5 -1.5t-46.5 49.5l-59 180q-12 38 9.5 78t62.5 62l821 435q42 21 77 7t48 -54l107 -320q15 -45 -4 -83t-63 -53zM1797 1960q325 0 450 -173.5t77 -510.5l-168 -1196q-11 -80 -91 -80h-720q-80 0 -69 80l130 920q20 140 -14.5 200t-121.5 60
q-103 0 -176.5 -77.5t-93.5 -222.5l-124 -880q-11 -80 -91 -80h-720q-80 0 -69 80l248 1760q11 80 91 80h720q81 0 69 -80l-28 -200q110 146 288 233t413 87z" />
    <glyph glyph-name="Ncommaaccent" unicode="&#x145;" horiz-adv-x="2880" 
d="M2868 2440q48 0 70.5 -26t15.5 -74l-315 -2240q-7 -48 -36.5 -74t-77.5 -26h-272q-73 0 -119 40l-1091 940l-124 -880q-7 -48 -36.5 -74t-77.5 -26h-720q-48 0 -70.5 26t-15.5 74l315 2240q7 48 36.5 74t77.5 26h272q73 0 118 -40l1091 -948l125 888q7 48 36.5 74
t77.5 26h720zM1320 -242q131 0 223 -86t92 -243q0 -150 -90.5 -319t-239.5 -309.5t-318 -219.5q-21 -9 -41 -5t-31 19l-49 66q-15 19 -11 45t27 47q12 11 44.5 38.5t48.5 43.5t37.5 42.5t31 54t9.5 59.5q0 30 -11.5 57.5t-24.5 43t-36 38.5q-80 80 -80 214q0 113 58.5 209
t155 150.5t205.5 54.5z" />
    <glyph glyph-name="ncommaaccent" unicode="&#x146;" horiz-adv-x="2400" 
d="M1797 1960q325 0 450 -173.5t77 -510.5l-168 -1196q-11 -80 -91 -80h-720q-80 0 -69 80l130 920q20 140 -14.5 200t-121.5 60q-103 0 -176.5 -77.5t-93.5 -222.5l-124 -880q-11 -80 -91 -80h-720q-80 0 -69 80l248 1760q11 80 91 80h720q81 0 69 -80l-28 -200
q110 146 288 233t413 87zM1040 -242q131 0 223 -86t92 -243q0 -150 -90.5 -319t-239.5 -309.5t-318 -219.5q-21 -9 -41 -5t-31 19l-49 66q-15 19 -11 45t27 47q12 11 44.5 38.5t48.5 43.5t37.5 42.5t31 54t9.5 59.5q0 30 -11.5 57.5t-24.5 43t-36 38.5q-80 80 -80 214
q0 113 58.5 209t155 150.5t205.5 54.5z" />
    <glyph glyph-name="Ncaron" unicode="&#x147;" horiz-adv-x="2880" 
d="M1917 3212q51 68 129 68h384q66 0 76.5 -37t-42.5 -87l-489 -463q-57 -53 -131 -53h-256q-73 0 -116 53l-359 463q-38 50 -17.5 87t86.5 37h384q79 0 110 -68l92 -200zM2868 2440q48 0 70.5 -26t15.5 -74l-315 -2240q-7 -48 -36.5 -74t-77.5 -26h-272q-73 0 -119 40
l-1091 940l-124 -880q-7 -48 -36.5 -74t-77.5 -26h-720q-48 0 -70.5 26t-15.5 74l315 2240q7 48 36.5 74t77.5 26h272q73 0 118 -40l1091 -948l125 888q7 48 36.5 74t77.5 26h720z" />
    <glyph glyph-name="ncaron" unicode="&#x148;" horiz-adv-x="2400" 
d="M1644 2692q51 68 129 68h384q66 0 76.5 -37t-42.5 -87l-489 -463q-57 -53 -131 -53h-256q-73 0 -116 53l-359 463q-38 50 -17.5 87t86.5 37h384q79 0 110 -68l92 -200zM1797 1960q325 0 450 -173.5t77 -510.5l-168 -1196q-11 -80 -91 -80h-720q-80 0 -69 80l130 920
q20 140 -14.5 200t-121.5 60q-103 0 -176.5 -77.5t-93.5 -222.5l-124 -880q-11 -80 -91 -80h-720q-80 0 -69 80l248 1760q11 80 91 80h720q81 0 69 -80l-28 -200q110 146 288 233t413 87z" />
    <glyph glyph-name="Eng" unicode="&#x14a;" horiz-adv-x="2880" 
d="M2868 2440q48 0 70.5 -26t15.5 -74l-295 -2100q-23 -161 -75 -292t-146 -242t-226 -186.5t-319.5 -117.5t-421.5 -42q-36 0 -56.5 24t-15.5 60l54 384q4 30 26.5 52t56.5 28q201 36 237 292l19 135l-749 645l-124 -880q-7 -48 -36.5 -74t-77.5 -26h-720q-48 0 -70.5 26
t-15.5 74l315 2240q7 48 36.5 74t77.5 26h272q74 0 118 -40l1091 -948l125 888q7 48 36.5 74t77.5 26h720z" />
    <glyph glyph-name="eng" unicode="&#x14b;" horiz-adv-x="2400" 
d="M1796 1960q325 0 450.5 -173.5t77.5 -510.5l-145 -1036q-23 -161 -75 -292t-146 -242t-226 -186.5t-319.5 -117.5t-421.5 -42q-36 0 -56.5 24t-15.5 60l54 384q4 30 26.5 52t56.5 28q201 36 237 292l112 800q20 140 -14 200t-121 60q-103 0 -176.5 -77.5t-93.5 -222.5
l-124 -880q-11 -80 -91 -80h-720q-80 0 -69 80l248 1760q11 80 91 80h720q80 0 69 -80l-29 -200q110 146 288 233t413 87z" />
    <glyph glyph-name="Omacron" unicode="&#x14c;" horiz-adv-x="3054" 
d="M1105 3076q6 42 39 71t75 29h1240q42 0 67 -29t19 -71l-39 -276q-6 -42 -39 -71t-75 -29h-1240q-42 0 -67 29t-19 71zM1743 2500q273 0 504 -77t397.5 -218.5t260 -352.5t93.5 -467q0 -219 -59 -416.5t-165 -355.5t-255 -285t-327.5 -212t-384 -130.5t-423.5 -45.5
q-273 0 -504 77t-397.5 218.5t-260 352.5t-93.5 467q0 219 59 416.5t165 355.5t255 285t327.5 212t384 130.5t423.5 45.5zM1488 680q156 0 280 81t193.5 225t69.5 323q0 204 -104.5 327.5t-287.5 123.5q-156 0 -280 -81t-193.5 -225t-69.5 -323q0 -204 104.5 -327.5
t287.5 -123.5z" />
    <glyph glyph-name="omacron" unicode="&#x14d;" horiz-adv-x="2452" 
d="M731 2556q6 42 39 71t75 29h1240q42 0 67 -29t19 -71l-39 -276q-6 -42 -39 -71t-75 -29h-1240q-42 0 -67 29t-19 71zM1369 1980q169 0 320 -35.5t277 -108.5t218 -176.5t143 -248t51 -315.5q0 -222 -70.5 -411.5t-192.5 -324.5t-286.5 -231t-353.5 -142.5t-392 -46.5
q-169 0 -320 35.5t-277 108.5t-218 176.5t-143 248t-51 315.5q0 160 36.5 303.5t103 258.5t159.5 211.5t205.5 167t241 119t267 72.5t282.5 24zM1178 620q125 0 210 109.5t85 302.5q0 130 -54 199t-145 69q-125 0 -210 -109.5t-85 -302.5q0 -130 54 -199t145 -69z" />
    <glyph glyph-name="Ohungarumlaut" unicode="&#x150;" horiz-adv-x="3054" 
d="M1490 2649q-32 -38 -72 -48.5t-72 10.5l-158 99q-33 21 -37 64t20 81l484 792q24 39 65.5 49t74.5 -12l284 -175q40 -25 45 -63.5t-26 -75.5zM2079 2616q-47 -15 -81.5 -1.5t-46.5 49.5l-59 180q-12 38 9.5 78t62.5 62l821 435q42 21 77 7t48 -54l107 -320q15 -45 -4 -83
t-63 -53zM1743 2500q273 0 504 -77t397.5 -218.5t260 -352.5t93.5 -467q0 -219 -59 -416.5t-165 -355.5t-255 -285t-327.5 -212t-384 -130.5t-423.5 -45.5q-273 0 -504 77t-397.5 218.5t-260 352.5t-93.5 467q0 219 59 416.5t165 355.5t255 285t327.5 212t384 130.5
t423.5 45.5zM1488 680q156 0 280 81t193.5 225t69.5 323q0 204 -104.5 327.5t-287.5 123.5q-156 0 -280 -81t-193.5 -225t-69.5 -323q0 -204 104.5 -327.5t287.5 -123.5z" />
    <glyph glyph-name="ohungarumlaut" unicode="&#x151;" horiz-adv-x="2452" 
d="M1116 2129q-32 -38 -72 -48.5t-72 10.5l-158 99q-33 21 -37 64t20 81l484 792q24 39 65.5 49t74.5 -12l284 -175q40 -25 45 -63.5t-26 -75.5zM1705 2096q-47 -15 -81.5 -1.5t-46.5 49.5l-59 180q-12 38 9.5 78t62.5 62l821 435q42 21 77 7t48 -54l107 -320q15 -45 -4 -83
t-63 -53zM1369 1980q169 0 320 -35.5t277 -108.5t218 -176.5t143 -248t51 -315.5q0 -222 -70.5 -411.5t-192.5 -324.5t-286.5 -231t-353.5 -142.5t-392 -46.5q-169 0 -320 35.5t-277 108.5t-218 176.5t-143 248t-51 315.5q0 160 36.5 303.5t103 258.5t159.5 211.5t205.5 167
t241 119t267 72.5t282.5 24zM1178 620q125 0 210 109.5t85 302.5q0 130 -54 199t-145 69q-125 0 -210 -109.5t-85 -302.5q0 -130 54 -199t145 -69z" />
    <glyph glyph-name="OE" unicode="&#x152;" horiz-adv-x="3925" 
d="M3933 2440q80 0 69 -80l-76 -540q-12 -80 -92 -80h-1013q19 -98 23 -200h802q80 0 69 -80l-65 -460q-11 -80 -91 -80h-800q-37 -118 -87 -220h1056q80 0 69 -80l-76 -540q-11 -80 -91 -80h-1807q-207 -56 -446 -56t-446.5 55.5t-368 165t-268 262.5t-149 357t-8.5 440
t132 440t249.5 357t341.5 262.5t414.5 165t462.5 55.5q253 0 457 -64h1739zM1097 1224q-34 -242 70.5 -391t313.5 -149t355.5 149t180.5 391t-70.5 391t-313.5 149t-355.5 -149t-180.5 -391z" />
    <glyph glyph-name="oe" unicode="&#x153;" horiz-adv-x="3816" 
d="M2839 1980q142 0 267.5 -29t234.5 -88t190.5 -150.5t134.5 -215.5t67 -283t-11 -354h-1347q6 -83 32 -144.5t65 -93.5t80.5 -47t87.5 -15q95 0 160.5 25.5t116.5 84.5q21 24 34.5 36t30.5 19.5t35 4.5t42 -16l412 -218q48 -25 51 -60.5t-26 -75.5q-47 -74 -140.5 -148
t-217.5 -135t-284 -99t-321 -38q-416 0 -675 206q-334 -206 -775 -206q-169 0 -320 35.5t-277 108.5t-218 176.5t-143 248t-51 315.5q0 160 36.5 303.5t103 258.5t159.5 211.5t205.5 167t241 119t267 72.5t282.5 24q205 0 383.5 -53.5t313.5 -156.5q331 210 773 210z
M2747 1440q-101 0 -183.5 -56.5t-131.5 -163.5h526q-16 111 -71 165.5t-140 54.5zM1178 620q125 0 210 109.5t85 302.5q0 130 -54 199t-145 69q-125 0 -210 -109.5t-85 -302.5q0 -130 54 -199t145 -69z" />
    <glyph glyph-name="Racute" unicode="&#x154;" horiz-adv-x="2546" 
d="M1112 2664l-59 180q-12 38 9.5 78t62.5 62l821 435q42 21 77 7t48 -54l107 -320q15 -45 -4 -83t-63 -53l-871 -300q-47 -15 -81.5 -1.5t-46.5 49.5zM2088 901l266 -721q25 -68 -16.5 -124t-116.5 -56h-724q-24 0 -44.5 14t-28.5 38l-215 652h-205l-88 -624
q-4 -33 -31 -56.5t-60 -23.5h-760q-33 0 -53.5 23.5t-15.5 56.5l321 2280q4 33 31 56.5t60 23.5h760h420q224 0 402 -58t292 -161.5t173.5 -241.5t59.5 -302q0 -238 -111 -440.5t-316 -335.5zM1155 1780l-58 -416h160q312 0 312 239q0 177 -254 177h-160z" />
    <glyph glyph-name="racute" unicode="&#x155;" horiz-adv-x="1560" 
d="M707 2096q-47 -15 -81.5 -1.5t-46.5 49.5l-59 180q-12 38 9.5 78t62.5 62l821 435q42 21 77 7t48 -54l107 -320q15 -45 -4 -83t-63 -53zM1551 1952q89 0 77 -80l-104 -740q-3 -20 -10.5 -34t-20.5 -22t-23.5 -12t-28.5 -8q-36 -8 -57 -13.5t-61.5 -18t-67.5 -24.5
t-66 -32.5t-66 -43t-58 -56t-52 -71t-38 -87t-25 -106.5l-74 -524q-11 -80 -91 -80h-720q-80 0 -69 80l248 1760q11 80 91 80h720q80 0 69 -80l-40 -280q39 92 99.5 168.5t124.5 124t127.5 73.5t115.5 26z" />
    <glyph glyph-name="Rcommaaccent" unicode="&#x156;" horiz-adv-x="2546" 
d="M2088 901l266 -721q25 -68 -16.5 -124t-116.5 -56h-724q-24 0 -44.5 14t-28.5 38l-215 652h-205l-88 -624q-4 -33 -31 -56.5t-60 -23.5h-760q-33 0 -53.5 23.5t-15.5 56.5l321 2280q4 33 31 56.5t60 23.5h760h420q224 0 402 -58t292 -161.5t173.5 -241.5t59.5 -302
q0 -238 -111 -440.5t-316 -335.5zM1155 1780l-58 -416h160q312 0 312 239q0 177 -254 177h-160zM1080 -242q131 0 223 -86t92 -243q0 -150 -90.5 -319t-239.5 -309.5t-318 -219.5q-21 -9 -41 -5t-31 19l-49 66q-15 19 -11 45t27 47q12 11 44.5 38.5t48.5 43.5t37.5 42.5
t31 54t9.5 59.5q0 30 -11.5 57.5t-24.5 43t-36 38.5q-80 80 -80 214q0 113 58.5 209t155 150.5t205.5 54.5z" />
    <glyph glyph-name="rcommaaccent" unicode="&#x157;" horiz-adv-x="1560" 
d="M1551 1952q89 0 77 -80l-104 -740q-3 -20 -10.5 -34t-20.5 -22t-23.5 -12t-28.5 -8q-36 -8 -57 -13.5t-61.5 -18t-67.5 -24.5t-66 -32.5t-66 -43t-58 -56t-52 -71t-38 -87t-25 -106.5l-74 -524q-11 -80 -91 -80h-720q-80 0 -69 80l248 1760q11 80 91 80h720q80 0 69 -80
l-40 -280q39 92 99.5 168.5t124.5 124t127.5 73.5t115.5 26zM348 -242q131 0 223 -86t92 -243q0 -150 -90.5 -319t-239.5 -309.5t-318 -219.5q-21 -9 -41 -5t-31 19l-49 66q-15 19 -11 45t27 47q12 11 44.5 38.5t48.5 43.5t37.5 42.5t31 54t9.5 59.5q0 30 -11.5 57.5
t-24.5 43t-36 38.5q-80 80 -80 214q0 113 58.5 209t155 150.5t205.5 54.5z" />
    <glyph glyph-name="Rcaron" unicode="&#x158;" horiz-adv-x="2546" 
d="M1232 2693l-359 463q-38 50 -17.5 87t86.5 37h384q79 0 110 -68l92 -200l149 200q51 68 129 68h384q66 0 76.5 -37t-42.5 -87l-489 -463q-57 -53 -131 -53h-256q-73 0 -116 53zM2088 901l266 -721q25 -68 -16.5 -124t-116.5 -56h-724q-24 0 -44.5 14t-28.5 38l-215 652
h-205l-88 -624q-4 -33 -31 -56.5t-60 -23.5h-760q-33 0 -53.5 23.5t-15.5 56.5l321 2280q4 33 31 56.5t60 23.5h760h420q224 0 402 -58t292 -161.5t173.5 -241.5t59.5 -302q0 -238 -111 -440.5t-316 -335.5zM1155 1780l-58 -416h160q312 0 312 239q0 177 -254 177h-160z" />
    <glyph glyph-name="rcaron" unicode="&#x159;" horiz-adv-x="1560" 
d="M1144 2692q51 68 129 68h384q66 0 76.5 -37t-42.5 -87l-489 -463q-57 -53 -131 -53h-256q-73 0 -116 53l-359 463q-38 50 -17.5 87t86.5 37h384q79 0 110 -68l92 -200zM1551 1952q89 0 77 -80l-104 -740q-3 -20 -10.5 -34t-20.5 -22t-23.5 -12t-28.5 -8q-36 -8 -57 -13.5
t-61.5 -18t-67.5 -24.5t-66 -32.5t-66 -43t-58 -56t-52 -71t-38 -87t-25 -106.5l-74 -524q-11 -80 -91 -80h-720q-80 0 -69 80l248 1760q11 80 91 80h720q80 0 69 -80l-40 -280q39 92 99.5 168.5t124.5 124t127.5 73.5t115.5 26z" />
    <glyph glyph-name="Sacute" unicode="&#x15a;" horiz-adv-x="2360" 
d="M1200 2616q-47 -15 -81.5 -1.5t-46.5 49.5l-59 180q-12 38 9.5 78t62.5 62l821 435q42 21 77 7t48 -54l107 -320q15 -45 -4 -83t-63 -53zM1208 1784q0 -19 14.5 -34t59 -32.5t71 -26t102.5 -30.5q70 -21 109 -32.5t113.5 -38t120 -48t112 -58.5t108 -74t89.5 -90
t75 -110.5t45 -132t18 -157.5q0 -163 -51.5 -303t-143 -244t-215 -184t-271 -129.5t-306.5 -74.5t-326 -25q-261 0 -492.5 57.5t-398.5 150.5q-73 48 -22 136l262 440q51 85 128 50q126 -57 194 -83.5t171 -48.5t215 -22q254 0 254 89q0 29 -33.5 53t-90 44.5t-130 43
t-154.5 52t-162 66t-154.5 92t-130 123.5t-90 166t-33.5 214q0 277 145.5 485t414 320t624.5 112q277 0 515 -63.5t348 -132.5q77 -48 26 -132l-233 -388q-26 -44 -65 -56.5t-82 7.5q-62 28 -102 44.5t-112 41.5t-146.5 37t-151.5 12q-123 0 -180.5 -25t-57.5 -61z" />
    <glyph glyph-name="sacute" unicode="&#x15b;" horiz-adv-x="2060" 
d="M948 2096q-47 -15 -81.5 -1.5t-46.5 49.5l-59 180q-12 38 9.5 78t62.5 62l821 435q42 21 77 7t48 -54l107 -320q15 -45 -4 -83t-63 -53zM1094 1388q0 -22 23.5 -41t64 -34t94 -33t114 -36t124.5 -44.5t124.5 -57t114 -76t94 -98.5t64 -126.5t23.5 -158.5
q0 -147 -54.5 -269t-152.5 -209t-235 -147t-300.5 -89t-349.5 -29q-258 0 -490.5 52t-329.5 120q-43 30 -49 62t19 70l204 336q17 28 35.5 44.5t37 19.5t35 0t35.5 -12q139 -67 243 -97.5t235 -30.5q165 0 165 64q0 26 -34.5 49t-91 40.5t-129 42.5t-147.5 52t-147.5 72.5
t-129 101t-91 139.5t-34.5 186q0 220 125 385.5t351.5 254.5t524.5 89q242 0 463.5 -57.5t326.5 -134.5q41 -30 48.5 -57.5t-18.5 -74.5l-173 -288q-58 -97 -139 -52q-43 24 -70 37.5t-90.5 40t-136 40.5t-148.5 14q-148 0 -148 -60z" />
    <glyph glyph-name="Scedilla" unicode="&#x15e;" horiz-adv-x="2360" 
d="M1446 1870q-123 0 -180.5 -25t-57.5 -61q0 -19 14.5 -34t59 -32.5t71 -26t102.5 -30.5q70 -21 109 -32.5t113.5 -38t120 -48t112 -58.5t108 -74t89.5 -90t75 -110.5t45 -132t18 -157.5q0 -167 -54.5 -310t-149 -247.5t-225.5 -184.5t-280.5 -128t-318.5 -71l-65 -99
q195 22 308 -55.5t113 -234.5q0 -115 -49.5 -206t-137 -148t-201.5 -86.5t-248 -29.5q-93 0 -162.5 16.5t-139.5 55.5q-35 24 -42 55t13 77l23 52q43 94 140 56q66 -32 127 -32q73 0 122.5 38.5t49.5 106.5q0 24 -9 41.5t-22.5 28.5t-37 17t-43 8.5t-51 2t-51.5 -2t-53 -4.5
q-70 -6 -91.5 17.5t9.5 78.5l134 229q-239 9 -449 65t-363 142q-73 48 -22 136l262 440q51 85 128 50q126 -57 194 -83.5t171 -48.5t215 -22q254 0 254 89q0 29 -33.5 53t-90 44.5t-130 43t-154.5 52t-162 66t-154.5 92t-130 123.5t-90 166t-33.5 214q0 277 145.5 485
t414 320t624.5 112q277 0 515 -63.5t348 -132.5q77 -48 26 -132l-233 -388q-26 -44 -65 -56.5t-82 7.5q-62 28 -102 44.5t-112 41.5t-146.5 37t-151.5 12z" />
    <glyph glyph-name="scedilla" unicode="&#x15f;" horiz-adv-x="2060" 
d="M1242 1448q-148 0 -148 -60q0 -22 23.5 -41t64 -34t94 -33t114 -36t124.5 -44.5t124.5 -57t114 -76t94 -98.5t64 -126.5t23.5 -158.5q0 -161 -65 -291.5t-183 -220t-275.5 -145t-350.5 -75.5l-47 -71q195 22 308 -55.5t113 -234.5q0 -115 -49.5 -206t-137 -148
t-201.5 -86.5t-248 -29.5q-93 0 -162.5 16.5t-139.5 55.5q-35 24 -42 55t13 77l23 52q43 94 140 56q66 -32 127 -32q73 0 122.5 38.5t49.5 106.5q0 24 -9 41.5t-22.5 28.5t-37 17t-43 8.5t-51 2t-51.5 -2t-53 -4.5q-70 -6 -91.5 17.5t9.5 78.5l124 212q-222 13 -410.5 61
t-271.5 107q-43 30 -49 62t19 70l204 336q17 28 35.5 44.5t37 19.5t35 0t35.5 -12q139 -67 243 -97.5t235 -30.5q165 0 165 64q0 26 -34.5 49t-91 40.5t-129 42.5t-147.5 52t-147.5 72.5t-129 101t-91 139.5t-34.5 186q0 220 125 385.5t351.5 254.5t524.5 89
q242 0 463.5 -57.5t326.5 -134.5q41 -30 48.5 -57.5t-18.5 -74.5l-173 -288q-58 -97 -139 -52q-43 24 -70 37.5t-90.5 40t-136 40.5t-148.5 14z" />
    <glyph glyph-name="Scaron" unicode="&#x160;" horiz-adv-x="2360" 
d="M1637 3212q51 68 129 68h384q66 0 76.5 -37t-42.5 -87l-489 -463q-57 -53 -131 -53h-256q-73 0 -116 53l-359 463q-38 50 -17.5 87t86.5 37h384q79 0 110 -68l92 -200zM1208 1784q0 -19 14.5 -34t59 -32.5t71 -26t102.5 -30.5q70 -21 109 -32.5t113.5 -38t120 -48
t112 -58.5t108 -74t89.5 -90t75 -110.5t45 -132t18 -157.5q0 -163 -51.5 -303t-143 -244t-215 -184t-271 -129.5t-306.5 -74.5t-326 -25q-261 0 -492.5 57.5t-398.5 150.5q-73 48 -22 136l262 440q51 85 128 50q126 -57 194 -83.5t171 -48.5t215 -22q254 0 254 89
q0 29 -33.5 53t-90 44.5t-130 43t-154.5 52t-162 66t-154.5 92t-130 123.5t-90 166t-33.5 214q0 277 145.5 485t414 320t624.5 112q277 0 515 -63.5t348 -132.5q77 -48 26 -132l-233 -388q-26 -44 -65 -56.5t-82 7.5q-62 28 -102 44.5t-112 41.5t-146.5 37t-151.5 12
q-123 0 -180.5 -25t-57.5 -61z" />
    <glyph glyph-name="scaron" unicode="&#x161;" horiz-adv-x="2060" 
d="M1385 2692q51 68 129 68h384q66 0 76.5 -37t-42.5 -87l-489 -463q-57 -53 -131 -53h-256q-73 0 -116 53l-359 463q-38 50 -17.5 87t86.5 37h384q79 0 110 -68l92 -200zM1094 1388q0 -22 23.5 -41t64 -34t94 -33t114 -36t124.5 -44.5t124.5 -57t114 -76t94 -98.5
t64 -126.5t23.5 -158.5q0 -147 -54.5 -269t-152.5 -209t-235 -147t-300.5 -89t-349.5 -29q-258 0 -490.5 52t-329.5 120q-43 30 -49 62t19 70l204 336q17 28 35.5 44.5t37 19.5t35 0t35.5 -12q139 -67 243 -97.5t235 -30.5q165 0 165 64q0 26 -34.5 49t-91 40.5t-129 42.5
t-147.5 52t-147.5 72.5t-129 101t-91 139.5t-34.5 186q0 220 125 385.5t351.5 254.5t524.5 89q242 0 463.5 -57.5t326.5 -134.5q41 -30 48.5 -57.5t-18.5 -74.5l-173 -288q-58 -97 -139 -52q-43 24 -70 37.5t-90.5 40t-136 40.5t-148.5 14q-148 0 -148 -60z" />
    <glyph glyph-name="uni0162" unicode="&#x162;" horiz-adv-x="2520" 
d="M2588 2440q33 0 53.5 -23.5t15.5 -56.5l-82 -580q-4 -33 -31 -56.5t-60 -23.5h-660l-228 -1620q-4 -33 -31 -56.5t-60 -23.5h-173l-80 -120q195 22 308 -55.5t113 -234.5q0 -115 -49.5 -206t-137 -148t-201.5 -86.5t-248 -29.5q-93 0 -162.5 16.5t-139.5 55.5
q-35 24 -42 55t13 77l23 52q43 94 140 56q66 -32 127 -32q73 0 122.5 38.5t49.5 106.5q0 24 -9 41.5t-22.5 28.5t-37 17t-43 8.5t-51 2t-51.5 -2t-53 -4.5q-70 -6 -91.5 17.5t9.5 78.5l157 268h-231q-33 0 -53.5 23.5t-15.5 56.5l228 1620h-660q-33 0 -53.5 23.5t-15.5 56.5
l82 580q4 33 31 56.5t60 23.5h1500h740z" />
    <glyph glyph-name="uni0163" unicode="&#x163;" horiz-adv-x="1927" 
d="M1821 1920q48 0 70.5 -26t15.5 -74l-65 -460q-7 -48 -36.5 -74t-77.5 -26h-476l-56 -400q-37 -260 143 -260q89 0 209 60q100 50 129 -44l111 -344q27 -86 -58 -132q-159 -86 -308.5 -135t-333.5 -61l-42 -64q195 22 308 -55.5t113 -234.5q0 -115 -49.5 -206t-137 -148
t-201.5 -86.5t-248 -29.5q-93 0 -162.5 16.5t-139.5 55.5q-35 24 -42 55t13 77l23 52q43 94 140 56q66 -32 127 -32q73 0 122.5 38.5t49.5 106.5q0 24 -9 41.5t-22.5 28.5t-37 17t-43 8.5t-51 2t-51.5 -2t-53 -4.5q-70 -6 -91.5 17.5t9.5 78.5l135 231q-244 56 -373 230
t-93 427l90 640h-180q-48 0 -70.5 26t-15.5 74l65 460q7 48 36.5 74t77.5 26h180l31 220q13 90 116 120l696 196q50 14 80 -3t23 -63l-66 -470h476z" />
    <glyph glyph-name="Tcaron" unicode="&#x164;" horiz-adv-x="2520" 
d="M1252 2693l-359 463q-38 50 -17.5 87t86.5 37h384q79 0 110 -68l92 -200l149 200q51 68 129 68h384q66 0 76.5 -37t-42.5 -87l-489 -463q-57 -53 -131 -53h-256q-73 0 -116 53zM2588 2440q33 0 53.5 -23.5t15.5 -56.5l-82 -580q-4 -33 -31 -56.5t-60 -23.5h-660
l-228 -1620q-4 -33 -31 -56.5t-60 -23.5h-760q-33 0 -53.5 23.5t-15.5 56.5l228 1620h-660q-33 0 -53.5 23.5t-15.5 56.5l82 580q4 33 31 56.5t60 23.5h1500h740z" />
    <glyph glyph-name="tcaron" unicode="&#x165;" horiz-adv-x="2566" 
d="M2434 2618q131 0 222.5 -86t91.5 -243q0 -150 -90.5 -318.5t-239.5 -309t-318 -220.5q-21 -9 -40 -5t-30 19l-50 66q-15 19 -11 45t27 47q13 12 45 39.5t48 43.5t37 42t30.5 53.5t9.5 59.5q0 43 -18.5 74t-52.5 65q-81 81 -81 214q0 171 126 292.5t294 121.5zM1821 1920
q48 0 70.5 -26t15.5 -74l-65 -460q-7 -48 -36.5 -74t-77.5 -26h-476l-56 -400q-37 -260 143 -260q89 0 209 60q100 50 129 -44l111 -344q27 -86 -58 -132q-183 -100 -358.5 -150t-405.5 -50q-220 0 -385 81.5t-246.5 237.5t-52.5 361l90 640h-180q-48 0 -70.5 26t-15.5 74
l65 460q7 48 36.5 74t77.5 26h180l31 220q13 90 116 120l696 196q50 14 80 -3t23 -63l-66 -470h476z" />
    <glyph glyph-name="Tbar" unicode="&#x166;" horiz-adv-x="2520" 
d="M2588 2440q33 0 53.5 -23.5t15.5 -56.5l-82 -580q-4 -33 -31 -56.5t-60 -23.5h-660l-31 -220h217q48 0 70.5 -26t15.5 -74l-42 -300q-7 -48 -36.5 -74t-77.5 -26h-217l-127 -900q-4 -33 -31 -56.5t-60 -23.5h-760q-33 0 -53.5 23.5t-15.5 56.5l127 900h-239
q-48 0 -70.5 26t-15.5 74l42 300q7 48 36.5 74t77.5 26h239l31 220h-660q-33 0 -53.5 23.5t-15.5 56.5l82 580q4 33 31 56.5t60 23.5h1500h740z" />
    <glyph glyph-name="tbar" unicode="&#x167;" horiz-adv-x="1927" 
d="M1821 1920q48 0 70.5 -26t15.5 -74l-65 -460q-7 -48 -36.5 -74t-77.5 -26h-476l-15 -108h331q48 0 70.5 -26t15.5 -74l-14 -100q-7 -48 -36.5 -74t-77.5 -26h-331q-34 -252 144 -252q89 0 209 60q100 50 129 -44l111 -344q27 -86 -58 -132q-183 -100 -358.5 -150
t-405.5 -50q-220 0 -385 81.5t-246.5 237.5t-52.5 361l33 232h-165q-48 0 -70.5 26t-15.5 74l14 100q7 48 36.5 74t77.5 26h165l15 108h-180q-48 0 -70.5 26t-15.5 74l65 460q7 48 36.5 74t77.5 26h180l31 220q13 90 116 120l696 196q50 14 80 -3t23 -63l-66 -470h476z" />
    <glyph glyph-name="Umacron" unicode="&#x16a;" horiz-adv-x="2840" 
d="M998 3076q6 42 39 71t75 29h1240q42 0 67 -29t19 -71l-39 -276q-6 -42 -39 -71t-75 -29h-1240q-42 0 -67 29t-19 71zM2848 2440q33 0 53.5 -23.5t15.5 -56.5l-186 -1320q-31 -218 -120 -396t-222.5 -304t-308.5 -212.5t-375.5 -127t-425.5 -40.5t-414 41t-339.5 127
t-248.5 212t-137.5 304t-8.5 396l186 1320q4 33 31 56.5t60 23.5h760q33 0 53 -23.5t15 -56.5l-157 -1120q-37 -261 38 -400.5t266 -139.5t305 139.5t151 400.5l158 1120q4 33 31 56.5t60 23.5h760z" />
    <glyph glyph-name="umacron" unicode="&#x16b;" horiz-adv-x="2401" 
d="M706 2556q6 42 39 71t75 29h1240q42 0 67 -29t19 -71l-39 -276q-6 -42 -39 -71t-75 -29h-1240q-42 0 -67 29t-19 71zM2336 1920q80 0 68 -80l-247 -1760q-11 -80 -91 -80h-720q-80 0 -69 80l28 200q-110 -146 -288 -233t-413 -87q-324 0 -449.5 173.5t-78.5 510.5
l168 1196q12 80 92 80h720q80 0 68 -80l-129 -920q-20 -140 14.5 -200t121.5 -60q103 0 176.5 77.5t93.5 222.5l123 880q12 80 92 80h720z" />
    <glyph glyph-name="Uring" unicode="&#x16e;" horiz-adv-x="2840" 
d="M1626 2626q-224 0 -379 150t-155 368q0 129 60 250t157.5 207.5t224.5 138.5t256 52q147 0 269.5 -69.5t193 -189.5t70.5 -264q0 -129 -60 -249.5t-157 -206t-223.5 -136.5t-256.5 -51zM1682 3027q83 0 142 60t59 141q0 68 -41 115t-109 47q-82 0 -142 -62.5t-60 -143.5
q0 -66 42 -111.5t109 -45.5zM2848 2440q33 0 53.5 -23.5t15.5 -56.5l-186 -1320q-31 -218 -120 -396t-222.5 -304t-308.5 -212.5t-375.5 -127t-425.5 -40.5t-414 41t-339.5 127t-248.5 212t-137.5 304t-8.5 396l186 1320q4 33 31 56.5t60 23.5h760q33 0 53 -23.5t15 -56.5
l-157 -1120q-37 -261 38 -400.5t266 -139.5t305 139.5t151 400.5l158 1120q4 33 31 56.5t60 23.5h760z" />
    <glyph glyph-name="uring" unicode="&#x16f;" horiz-adv-x="2401" 
d="M1334 2106q-224 0 -379 150t-155 368q0 129 60 250t157.5 207.5t224.5 138.5t256 52q147 0 269.5 -69.5t193 -189.5t70.5 -264q0 -129 -60 -249.5t-157 -206t-223.5 -136.5t-256.5 -51zM1390 2507q83 0 142 60t59 141q0 68 -41 115t-109 47q-82 0 -142 -62.5t-60 -143.5
q0 -66 42 -111.5t109 -45.5zM2336 1920q80 0 68 -80l-247 -1760q-11 -80 -91 -80h-720q-80 0 -69 80l28 200q-110 -146 -288 -233t-413 -87q-324 0 -449.5 173.5t-78.5 510.5l168 1196q12 80 92 80h720q80 0 68 -80l-129 -920q-20 -140 14.5 -200t121.5 -60
q103 0 176.5 77.5t93.5 222.5l123 880q12 80 92 80h720z" />
    <glyph glyph-name="Uhungarumlaut" unicode="&#x170;" horiz-adv-x="2840" 
d="M1383 2649q-32 -38 -72 -48.5t-72 10.5l-158 99q-33 21 -37 64t20 81l484 792q24 39 65.5 49t74.5 -12l284 -175q40 -25 45 -63.5t-26 -75.5zM1972 2616q-47 -15 -81.5 -1.5t-46.5 49.5l-59 180q-12 38 9.5 78t62.5 62l821 435q42 21 77 7t48 -54l107 -320q15 -45 -4 -83
t-63 -53zM2848 2440q33 0 53.5 -23.5t15.5 -56.5l-186 -1320q-31 -218 -120 -396t-222.5 -304t-308.5 -212.5t-375.5 -127t-425.5 -40.5t-414 41t-339.5 127t-248.5 212t-137.5 304t-8.5 396l186 1320q4 33 31 56.5t60 23.5h760q33 0 53 -23.5t15 -56.5l-157 -1120
q-37 -261 38 -400.5t266 -139.5t305 139.5t151 400.5l158 1120q4 33 31 56.5t60 23.5h760z" />
    <glyph glyph-name="uhungarumlaut" unicode="&#x171;" horiz-adv-x="2401" 
d="M1091 2129q-32 -38 -72 -48.5t-72 10.5l-158 99q-33 21 -37 64t20 81l484 792q24 39 65.5 49t74.5 -12l284 -175q40 -25 45 -63.5t-26 -75.5zM1680 2096q-47 -15 -81.5 -1.5t-46.5 49.5l-59 180q-12 38 9.5 78t62.5 62l821 435q42 21 77 7t48 -54l107 -320q15 -45 -4 -83
t-63 -53zM2336 1920q80 0 68 -80l-247 -1760q-11 -80 -91 -80h-720q-80 0 -69 80l28 200q-110 -146 -288 -233t-413 -87q-324 0 -449.5 173.5t-78.5 510.5l168 1196q12 80 92 80h720q80 0 68 -80l-129 -920q-20 -140 14.5 -200t121.5 -60q103 0 176.5 77.5t93.5 222.5
l123 880q12 80 92 80h720z" />
    <glyph glyph-name="Uogonek" unicode="&#x172;" horiz-adv-x="2840" 
d="M2848 2440q33 0 53.5 -23.5t15.5 -56.5l-186 -1320q-32 -227 -127 -411t-240.5 -312t-328.5 -210.5t-401 -118.5q-89 -57 -150 -142.5t-61 -156.5q0 -89 102 -89q29 0 86 12q43 9 63.5 -8.5t14.5 -59.5l-37 -264q-9 -69 -82 -100q-69 -29 -141.5 -44.5t-186.5 -15.5
q-183 0 -308 104t-125 272q0 133 65 256t180 219q-187 20 -341.5 72.5t-276 142t-198.5 210.5t-105.5 285t-1.5 359l186 1320q4 33 31 56.5t60 23.5h760q33 0 53 -23.5t15 -56.5l-157 -1120q-37 -261 38 -400.5t266 -139.5t305 139.5t151 400.5l158 1120q4 33 31 56.5
t60 23.5h760z" />
    <glyph glyph-name="uogonek" unicode="&#x173;" horiz-adv-x="2401" 
d="M2336 1920q80 0 68 -80l-247 -1760q-11 -80 -91 -80h-339q-95 -55 -162.5 -145.5t-67.5 -165.5q0 -89 102 -89q29 0 86 12q43 9 63.5 -8.5t14.5 -59.5l-37 -264q-9 -69 -82 -100q-69 -29 -141.5 -44.5t-186.5 -15.5q-183 0 -308 104t-125 272q0 172 106.5 324.5
t286.5 250.5q0 1 0.5 4t0.5 5l28 200q-110 -146 -288 -233t-413 -87q-324 0 -449.5 173.5t-78.5 510.5l168 1196q12 80 92 80h720q80 0 68 -80l-129 -920q-20 -140 14.5 -200t121.5 -60q103 0 176.5 77.5t93.5 222.5l123 880q12 80 92 80h720z" />
    <glyph glyph-name="Wcircumflex" unicode="&#x174;" horiz-adv-x="3792" 
d="M1520 2640q-66 0 -76.5 37t42.5 87l489 463q57 53 131 53h256q73 0 116 -53l359 -463q38 -50 17.5 -87t-86.5 -37h-384q-79 0 -110 68l-92 200l-149 -200q-51 -68 -129 -68h-384zM3916 2440q54 0 69.5 -30t-10.5 -86l-1031 -2248q-34 -76 -127 -76h-564q-92 0 -105 76
l-209 1192l-543 -1192q-34 -76 -127 -76h-564q-91 0 -106 76l-399 2248q-10 55 14.5 85.5t77.5 30.5h764q41 0 69 -19.5t32 -60.5l116 -1080l425 920q37 80 128 80h536q43 0 70.5 -21t33.5 -59l143 -920l460 1080q35 80 123 80h724z" />
    <glyph glyph-name="wcircumflex" unicode="&#x175;" horiz-adv-x="3331" 
d="M1204 2120q-66 0 -76.5 37t42.5 87l489 463q57 53 131 53h256q73 0 116 -53l359 -463q38 -50 17.5 -87t-86.5 -37h-384q-79 0 -110 68l-92 200l-149 -200q-51 -68 -129 -68h-384zM3344 1920q68 0 95 -52t-6 -116l-855 -1672q-42 -80 -123 -80h-472q-85 0 -104 76
l-220 836l-453 -836q-41 -76 -127 -76h-472q-83 0 -101 80l-385 1672q-15 65 26 116.5t109 51.5h708q33 0 53.5 -16.5t22.5 -43.5l103 -716l269 572q34 76 130 76h480q96 0 110 -76l107 -572l305 716q10 27 34.5 43.5t57.5 16.5h708z" />
    <glyph glyph-name="Ycircumflex" unicode="&#x176;" horiz-adv-x="2793" 
d="M1019 2640q-66 0 -76.5 37t42.5 87l489 463q57 53 131 53h256q73 0 116 -53l359 -463q38 -50 17.5 -87t-86.5 -37h-384q-79 0 -110 68l-92 200l-149 -200q-51 -68 -129 -68h-384zM2911 2440q55 0 74 -34t-14 -82l-1132 -1571l-95 -673q-4 -33 -31.5 -56.5t-60.5 -23.5
h-760q-33 0 -53 23.5t-15 56.5l95 677l-713 1567q-22 47 7.5 81.5t85.5 34.5h796q68 0 101 -80l330 -840l522 840q21 35 54 57.5t73 22.5h736z" />
    <glyph glyph-name="ycircumflex" unicode="&#x177;" horiz-adv-x="2402" 
d="M701 2120q-66 0 -76.5 37t42.5 87l489 463q57 53 131 53h256q73 0 116 -53l359 -463q38 -50 17.5 -87t-86.5 -37h-384q-79 0 -110 68l-92 200l-149 -200q-51 -68 -129 -68h-384zM2413 1920q69 0 97.5 -52t-10.5 -116l-879 -1426q-117 -189 -216.5 -324t-211 -248
t-224.5 -184t-253 -120t-299 -69.5t-361 -20.5q-36 0 -56.5 24t-15.5 60l64 454q9 71 83 80q175 22 286.5 84t237.5 219l-530 1471q-22 62 22 115t114 53h752q57 0 76 -60l175 -608l344 608q33 60 93 60h712z" />
    <glyph glyph-name="Ydieresis" unicode="&#x178;" horiz-adv-x="2793" 
d="M1172 2647q-136 0 -225 92t-89 228q0 164 125.5 284t290.5 120q137 0 226 -92t89 -228q0 -108 -58 -201.5t-154.5 -148t-204.5 -54.5zM2112 2647q-136 0 -225 92t-89 228q0 164 125.5 284t290.5 120q137 0 226 -92t89 -228q0 -108 -58 -201.5t-154.5 -148t-204.5 -54.5z
M2911 2440q55 0 74 -34t-14 -82l-1132 -1571l-95 -673q-4 -33 -31.5 -56.5t-60.5 -23.5h-760q-33 0 -53 23.5t-15 56.5l95 677l-713 1567q-22 47 7.5 81.5t85.5 34.5h796q68 0 101 -80l330 -840l522 840q21 35 54 57.5t73 22.5h736z" />
    <glyph glyph-name="Zacute" unicode="&#x179;" horiz-adv-x="2680" 
d="M1400 2616q-47 -15 -81.5 -1.5t-46.5 49.5l-59 180q-12 38 9.5 78t62.5 62l821 435q42 21 77 7t48 -54l107 -320q15 -45 -4 -83t-63 -53zM45 0q-48 0 -70.5 26t-15.5 74l27 192q10 72 61 124l1236 1284h-919q-33 0 -53.5 23.5t-15.5 56.5l82 580q4 33 31 56.5t60 23.5
h2220q48 0 70.5 -26t15.5 -74l-27 -192q-11 -74 -58 -124l-1220 -1284h1020q33 0 53.5 -23.5t15.5 -56.5l-82 -580q-4 -33 -31 -56.5t-60 -23.5h-2340z" />
    <glyph glyph-name="zacute" unicode="&#x17a;" horiz-adv-x="2210" 
d="M1068 2096q-47 -15 -81.5 -1.5t-46.5 49.5l-59 180q-12 38 9.5 78t62.5 62l821 435q42 21 77 7t48 -54l107 -320q15 -45 -4 -83t-63 -53zM-5 0q-48 0 -70.5 26t-15.5 74l7 52q9 68 58 124l851 964h-536q-33 0 -53 23.5t-15 56.5l73 520q5 33 31 56.5t59 23.5h1760
q48 0 71 -26t16 -74l-8 -52q-10 -67 -57 -124l-901 -1004h700q33 0 53.5 -23.5t15.5 -56.5l-68 -480q-4 -33 -31 -56.5t-60 -23.5h-1880z" />
    <glyph glyph-name="Zdotaccent" unicode="&#x17b;" horiz-adv-x="2680" 
d="M1626 2568q-166 0 -274.5 112t-108.5 277q0 131 71 245t187.5 180t247.5 66q166 0 274.5 -112t108.5 -277q0 -131 -71 -245t-187.5 -180t-247.5 -66zM45 0q-48 0 -70.5 26t-15.5 74l27 192q10 72 61 124l1236 1284h-919q-33 0 -53.5 23.5t-15.5 56.5l82 580q4 33 31 56.5
t60 23.5h2220q48 0 70.5 -26t15.5 -74l-27 -192q-11 -74 -58 -124l-1220 -1284h1020q33 0 53.5 -23.5t15.5 -56.5l-82 -580q-4 -33 -31 -56.5t-60 -23.5h-2340z" />
    <glyph glyph-name="zdotaccent" unicode="&#x17c;" horiz-adv-x="2210" 
d="M1294 2048q-166 0 -274.5 112t-108.5 277q0 131 71 245t187.5 180t247.5 66q166 0 274.5 -112t108.5 -277q0 -131 -71 -245t-187.5 -180t-247.5 -66zM-5 0q-48 0 -70.5 26t-15.5 74l7 52q9 68 58 124l851 964h-536q-33 0 -53 23.5t-15 56.5l73 520q5 33 31 56.5t59 23.5
h1760q48 0 71 -26t16 -74l-8 -52q-10 -67 -57 -124l-901 -1004h700q33 0 53.5 -23.5t15.5 -56.5l-68 -480q-4 -33 -31 -56.5t-60 -23.5h-1880z" />
    <glyph glyph-name="Zcaron" unicode="&#x17d;" horiz-adv-x="2680" 
d="M1837 3212q51 68 129 68h384q66 0 76.5 -37t-42.5 -87l-489 -463q-57 -53 -131 -53h-256q-73 0 -116 53l-359 463q-38 50 -17.5 87t86.5 37h384q79 0 110 -68l92 -200zM45 0q-48 0 -70.5 26t-15.5 74l27 192q10 72 61 124l1236 1284h-919q-33 0 -53.5 23.5t-15.5 56.5
l82 580q4 33 31 56.5t60 23.5h2220q48 0 70.5 -26t15.5 -74l-27 -192q-11 -74 -58 -124l-1220 -1284h1020q33 0 53.5 -23.5t15.5 -56.5l-82 -580q-4 -33 -31 -56.5t-60 -23.5h-2340z" />
    <glyph glyph-name="zcaron" unicode="&#x17e;" horiz-adv-x="2210" 
d="M1505 2692q51 68 129 68h384q66 0 76.5 -37t-42.5 -87l-489 -463q-57 -53 -131 -53h-256q-73 0 -116 53l-359 463q-38 50 -17.5 87t86.5 37h384q79 0 110 -68l92 -200zM-5 0q-48 0 -70.5 26t-15.5 74l7 52q9 68 58 124l851 964h-536q-33 0 -53 23.5t-15 56.5l73 520
q5 33 31 56.5t59 23.5h1760q48 0 71 -26t16 -74l-8 -52q-10 -67 -57 -124l-901 -1004h700q33 0 53.5 -23.5t15.5 -56.5l-68 -480q-4 -33 -31 -56.5t-60 -23.5h-1880z" />
    <glyph glyph-name="Scommaaccent" unicode="&#x218;" horiz-adv-x="2360" 
d="M1208 1784q0 -19 14.5 -34t59 -32.5t71 -26t102.5 -30.5q70 -21 109 -32.5t113.5 -38t120 -48t112 -58.5t108 -74t89.5 -90t75 -110.5t45 -132t18 -157.5q0 -163 -51.5 -303t-143 -244t-215 -184t-271 -129.5t-306.5 -74.5t-326 -25q-261 0 -492.5 57.5t-398.5 150.5
q-73 48 -22 136l262 440q51 85 128 50q126 -57 194 -83.5t171 -48.5t215 -22q254 0 254 89q0 29 -33.5 53t-90 44.5t-130 43t-154.5 52t-162 66t-154.5 92t-130 123.5t-90 166t-33.5 214q0 277 145.5 485t414 320t624.5 112q277 0 515 -63.5t348 -132.5q77 -48 26 -132
l-233 -388q-26 -44 -65 -56.5t-82 7.5q-62 28 -102 44.5t-112 41.5t-146.5 37t-151.5 12q-123 0 -180.5 -25t-57.5 -61zM1000 -242q131 0 223 -86t92 -243q0 -150 -90.5 -319t-239.5 -309.5t-318 -219.5q-21 -9 -41 -5t-31 19l-49 66q-15 19 -11 45t27 47q12 11 44.5 38.5
t48.5 43.5t37.5 42.5t31 54t9.5 59.5q0 30 -11.5 57.5t-24.5 43t-36 38.5q-80 80 -80 214q0 113 58.5 209t155 150.5t205.5 54.5z" />
    <glyph glyph-name="scommaaccent" unicode="&#x219;" horiz-adv-x="2060" 
d="M1094 1388q0 -22 23.5 -41t64 -34t94 -33t114 -36t124.5 -44.5t124.5 -57t114 -76t94 -98.5t64 -126.5t23.5 -158.5q0 -147 -54.5 -269t-152.5 -209t-235 -147t-300.5 -89t-349.5 -29q-258 0 -490.5 52t-329.5 120q-43 30 -49 62t19 70l204 336q17 28 35.5 44.5t37 19.5
t35 0t35.5 -12q139 -67 243 -97.5t235 -30.5q165 0 165 64q0 26 -34.5 49t-91 40.5t-129 42.5t-147.5 52t-147.5 72.5t-129 101t-91 139.5t-34.5 186q0 220 125 385.5t351.5 254.5t524.5 89q242 0 463.5 -57.5t326.5 -134.5q41 -30 48.5 -57.5t-18.5 -74.5l-173 -288
q-58 -97 -139 -52q-43 24 -70 37.5t-90.5 40t-136 40.5t-148.5 14q-148 0 -148 -60zM861 -242q131 0 223 -86t92 -243q0 -150 -90.5 -319t-239.5 -309.5t-318 -219.5q-21 -9 -41 -5t-31 19l-49 66q-15 19 -11 45t27 47q12 11 44.5 38.5t48.5 43.5t37.5 42.5t31 54t9.5 59.5
q0 30 -11.5 57.5t-24.5 43t-36 38.5q-80 80 -80 214q0 113 58.5 209t155 150.5t205.5 54.5z" />
    <glyph glyph-name="uni021A" unicode="&#x21a;" horiz-adv-x="2520" 
d="M2588 2440q33 0 53.5 -23.5t15.5 -56.5l-82 -580q-4 -33 -31 -56.5t-60 -23.5h-660l-228 -1620q-4 -33 -31 -56.5t-60 -23.5h-760q-33 0 -53.5 23.5t-15.5 56.5l228 1620h-660q-33 0 -53.5 23.5t-15.5 56.5l82 580q4 33 31 56.5t60 23.5h1500h740zM1100 -242
q131 0 223 -86t92 -243q0 -150 -90.5 -319t-239.5 -309.5t-318 -219.5q-21 -9 -41 -5t-31 19l-49 66q-15 19 -11 45t27 47q12 11 44.5 38.5t48.5 43.5t37.5 42.5t31 54t9.5 59.5q0 30 -11.5 57.5t-24.5 43t-36 38.5q-80 80 -80 214q0 113 58.5 209t155 150.5t205.5 54.5z
" />
    <glyph glyph-name="uni021B" unicode="&#x21b;" horiz-adv-x="1927" 
d="M1821 1920q48 0 70.5 -26t15.5 -74l-65 -460q-7 -48 -36.5 -74t-77.5 -26h-476l-56 -400q-37 -260 143 -260q89 0 209 60q100 50 129 -44l111 -344q27 -86 -58 -132q-183 -100 -358.5 -150t-405.5 -50q-220 0 -385 81.5t-246.5 237.5t-52.5 361l90 640h-180
q-48 0 -70.5 26t-15.5 74l65 460q7 48 36.5 74t77.5 26h180l31 220q13 90 116 120l696 196q50 14 80 -3t23 -63l-66 -470h476zM894 -242q131 0 223 -86t92 -243q0 -150 -90.5 -319t-239.5 -309.5t-318 -219.5q-21 -9 -41 -5t-31 19l-49 66q-15 19 -11 45t27 47
q12 11 44.5 38.5t48.5 43.5t37.5 42.5t31 54t9.5 59.5q0 30 -11.5 57.5t-24.5 43t-36 38.5q-80 80 -80 214q0 113 58.5 209t155 150.5t205.5 54.5z" />
    <glyph glyph-name="circumflex" unicode="&#x2c6;" horiz-adv-x="1425" 
d="M835 2188l-92 200l-149 -200q-51 -68 -129 -68h-384q-66 0 -76.5 37t42.5 87l489 463q57 53 131 53h256q73 0 116 -53l359 -463q38 -50 17.5 -87t-86.5 -37h-384q-79 0 -110 68z" />
    <glyph glyph-name="caron" unicode="&#x2c7;" horiz-adv-x="1425" 
d="M831 2692q51 68 129 68h384q66 0 76.5 -37t-42.5 -87l-489 -463q-57 -53 -131 -53h-256q-73 0 -116 53l-359 463q-38 50 -17.5 87t86.5 37h384q79 0 110 -68l92 -200z" />
    <glyph glyph-name="breve" unicode="&#x2d8;" horiz-adv-x="2409" 
d="M1372 2800q85 0 85 -74q0 -116 -64.5 -232t-172.5 -207.5t-261.5 -149t-319.5 -57.5q-142 0 -263.5 44.5t-204 120.5t-129 176.5t-46.5 211.5q0 85 25 126t87 41h248q95 0 106 -76q17 -111 74 -157.5t165 -46.5q109 0 178.5 45.5t118.5 158.5q33 76 126 76h248z" />
    <glyph glyph-name="dotaccent" unicode="&#x2d9;" horiz-adv-x="1129" 
d="M503 2048q-166 0 -274.5 112t-108.5 277q0 131 71 245t187.5 180t247.5 66q166 0 274.5 -112t108.5 -277q0 -131 -71 -245t-187.5 -180t-247.5 -66z" />
    <glyph glyph-name="ring" unicode="&#x2da;" horiz-adv-x="1123" 
d="M480 1906q-224 0 -379 150t-155 368q0 129 60 250t157.5 207.5t224.5 138.5t256 52q147 0 269.5 -69.5t193 -189.5t70.5 -264q0 -129 -60 -249.5t-157 -206t-223.5 -136.5t-256.5 -51zM536 2307q83 0 142 60t59 141q0 68 -41 115t-109 47q-82 0 -142 -62.5t-60 -143.5
q0 -66 42 -111.5t109 -45.5z" />
    <glyph glyph-name="ogonek" unicode="&#x2db;" horiz-adv-x="808" 
d="M433 -880q-183 0 -308 104t-125 272q0 200 141.5 371t370.5 259l332 -126q-95 -55 -162.5 -145.5t-67.5 -165.5q0 -89 102 -89q29 0 86 12q43 9 63.5 -8.5t14.5 -59.5l-37 -264q-9 -69 -82 -100q-69 -29 -141.5 -44.5t-186.5 -15.5z" />
    <glyph glyph-name="tilde" unicode="&#x2dc;" horiz-adv-x="2485" 
d="M1588 2800q50 0 71.5 -42.5t1.5 -117.5q-70 -257 -226 -390.5t-351 -133.5q-85 0 -152 21.5t-108 52t-76.5 61t-78 52t-92.5 21.5q-66 0 -120.5 -34.5t-84.5 -85.5q-26 -46 -52 -67t-68 -21h-112q-49 0 -72.5 27t-12.5 77q41 183 132 316t208 198.5t249 65.5
q85 0 152 -21.5t108 -52t76.5 -61t78 -52t92.5 -21.5q69 0 122 33t83 87q25 46 51.5 67t68.5 21h112z" />
    <glyph glyph-name="hungarumlaut" unicode="&#x2dd;" horiz-adv-x="1867" 
d="M336 2129q-32 -38 -72 -48.5t-72 10.5l-158 99q-33 21 -37 64t20 81l484 792q24 39 65.5 49t74.5 -12l284 -175q40 -25 45 -63.5t-26 -75.5zM925 2096q-47 -15 -81.5 -1.5t-46.5 49.5l-59 180q-12 38 9.5 78t62.5 62l821 435q42 21 77 7t48 -54l107 -320q15 -45 -4 -83
t-63 -53z" />
    <glyph glyph-name="uni0326" unicode="&#x326;" horiz-adv-x="0" 
d="M-1781 -242q131 0 223 -86t92 -243q0 -150 -90.5 -319t-239.5 -309.5t-318 -219.5q-21 -9 -41 -5t-31 19l-49 66q-15 19 -11 45t27 47q12 11 44.5 38.5t48.5 43.5t37.5 42.5t31 54t9.5 59.5q0 30 -11.5 57.5t-24.5 43t-36 38.5q-80 80 -80 214q0 113 58.5 209t155 150.5
t205.5 54.5z" />
    <glyph glyph-name="uni0335" unicode="&#x335;" horiz-adv-x="0" 
 />
    <glyph glyph-name="uni0336" unicode="&#x336;" horiz-adv-x="0" 
d="M-1965 1140q-48 0 -70.5 26t-15.5 74l42 300q7 48 36.5 74t77.5 26h1376q48 0 70.5 -26t15.5 -74l-42 -300q-7 -48 -36.5 -74t-77.5 -26h-1376z" />
    <glyph glyph-name="uni0337" unicode="&#x337;" horiz-adv-x="0" 
 />
    <glyph glyph-name="Wgrave" unicode="&#x1e80;" horiz-adv-x="3792" 
d="M1518 2916q-40 15 -48 53t19 83l197 320q25 40 64 54t76 -7l698 -435q35 -22 45 -61t-13 -79l-109 -180q-23 -36 -61.5 -49.5t-80.5 1.5zM3916 2440q54 0 69.5 -30t-10.5 -86l-1031 -2248q-34 -76 -127 -76h-564q-92 0 -105 76l-209 1192l-543 -1192q-34 -76 -127 -76
h-564q-91 0 -106 76l-399 2248q-10 55 14.5 85.5t77.5 30.5h764q41 0 69 -19.5t32 -60.5l116 -1080l425 920q37 80 128 80h536q43 0 70.5 -21t33.5 -59l143 -920l460 1080q35 80 123 80h724z" />
    <glyph glyph-name="wgrave" unicode="&#x1e81;" horiz-adv-x="3331" 
d="M1202 2396q-40 15 -48 53t19 83l197 320q25 40 64 54t76 -7l698 -435q35 -22 45 -61t-13 -79l-109 -180q-23 -36 -61.5 -49.5t-80.5 1.5zM3344 1920q68 0 95 -52t-6 -116l-855 -1672q-42 -80 -123 -80h-472q-85 0 -104 76l-220 836l-453 -836q-41 -76 -127 -76h-472
q-83 0 -101 80l-385 1672q-15 65 26 116.5t109 51.5h708q33 0 53.5 -16.5t22.5 -43.5l103 -716l269 572q34 76 130 76h480q96 0 110 -76l107 -572l305 716q10 27 34.5 43.5t57.5 16.5h708z" />
    <glyph glyph-name="Wacute" unicode="&#x1e82;" horiz-adv-x="3792" 
d="M1780 2664l-59 180q-12 38 9.5 78t62.5 62l821 435q42 21 77 7t48 -54l107 -320q15 -45 -4 -83t-63 -53l-871 -300q-47 -15 -81.5 -1.5t-46.5 49.5zM3916 2440q54 0 69.5 -30t-10.5 -86l-1031 -2248q-34 -76 -127 -76h-564q-92 0 -105 76l-209 1192l-543 -1192
q-34 -76 -127 -76h-564q-91 0 -106 76l-399 2248q-10 55 14.5 85.5t77.5 30.5h764q41 0 69 -19.5t32 -60.5l116 -1080l425 920q37 80 128 80h536q43 0 70.5 -21t33.5 -59l143 -920l460 1080q35 80 123 80h724z" />
    <glyph glyph-name="wacute" unicode="&#x1e83;" horiz-adv-x="3331" 
d="M1464 2144l-59 180q-12 38 9.5 78t62.5 62l821 435q42 21 77 7t48 -54l107 -320q15 -45 -4 -83t-63 -53l-871 -300q-47 -15 -81.5 -1.5t-46.5 49.5zM3344 1920q68 0 95 -52t-6 -116l-855 -1672q-42 -80 -123 -80h-472q-85 0 -104 76l-220 836l-453 -836q-41 -76 -127 -76
h-472q-83 0 -101 80l-385 1672q-15 65 26 116.5t109 51.5h708q33 0 53.5 -16.5t22.5 -43.5l103 -716l269 572q34 76 130 76h480q96 0 110 -76l107 -572l305 716q10 27 34.5 43.5t57.5 16.5h708z" />
    <glyph glyph-name="Wdieresis" unicode="&#x1e84;" horiz-adv-x="3792" 
d="M1673 2647q-136 0 -225 92t-89 228q0 164 125.5 284t290.5 120q137 0 226 -92t89 -228q0 -108 -58 -201.5t-154.5 -148t-204.5 -54.5zM2613 2647q-136 0 -225 92t-89 228q0 164 125.5 284t290.5 120q137 0 226 -92t89 -228q0 -108 -58 -201.5t-154.5 -148t-204.5 -54.5z
M3916 2440q54 0 69.5 -30t-10.5 -86l-1031 -2248q-34 -76 -127 -76h-564q-92 0 -105 76l-209 1192l-543 -1192q-34 -76 -127 -76h-564q-91 0 -106 76l-399 2248q-10 55 14.5 85.5t77.5 30.5h764q41 0 69 -19.5t32 -60.5l116 -1080l425 920q37 80 128 80h536q43 0 70.5 -21
t33.5 -59l143 -920l460 1080q35 80 123 80h724z" />
    <glyph glyph-name="wdieresis" unicode="&#x1e85;" horiz-adv-x="3331" 
d="M1357 2127q-136 0 -225 92t-89 228q0 164 125.5 284t290.5 120q137 0 226 -92t89 -228q0 -108 -58 -201.5t-154.5 -148t-204.5 -54.5zM2297 2127q-136 0 -225 92t-89 228q0 164 125.5 284t290.5 120q137 0 226 -92t89 -228q0 -108 -58 -201.5t-154.5 -148t-204.5 -54.5z
M3344 1920q68 0 95 -52t-6 -116l-855 -1672q-42 -80 -123 -80h-472q-85 0 -104 76l-220 836l-453 -836q-41 -76 -127 -76h-472q-83 0 -101 80l-385 1672q-15 65 26 116.5t109 51.5h708q33 0 53.5 -16.5t22.5 -43.5l103 -716l269 572q34 76 130 76h480q96 0 110 -76l107 -572
l305 716q10 27 34.5 43.5t57.5 16.5h708z" />
    <glyph glyph-name="Ygrave" unicode="&#x1ef2;" horiz-adv-x="2793" 
d="M1017 2916q-40 15 -48 53t19 83l197 320q25 40 64 54t76 -7l698 -435q35 -22 45 -61t-13 -79l-109 -180q-23 -36 -61.5 -49.5t-80.5 1.5zM2911 2440q55 0 74 -34t-14 -82l-1132 -1571l-95 -673q-4 -33 -31.5 -56.5t-60.5 -23.5h-760q-33 0 -53 23.5t-15 56.5l95 677
l-713 1567q-22 47 7.5 81.5t85.5 34.5h796q68 0 101 -80l330 -840l522 840q21 35 54 57.5t73 22.5h736z" />
    <glyph glyph-name="ygrave" unicode="&#x1ef3;" horiz-adv-x="2402" 
d="M699 2396q-40 15 -48 53t19 83l197 320q25 40 64 54t76 -7l698 -435q35 -22 45 -61t-13 -79l-109 -180q-23 -36 -61.5 -49.5t-80.5 1.5zM2413 1920q69 0 97.5 -52t-10.5 -116l-879 -1426q-117 -189 -216.5 -324t-211 -248t-224.5 -184t-253 -120t-299 -69.5t-361 -20.5
q-36 0 -56.5 24t-15.5 60l64 454q9 71 83 80q175 22 286.5 84t237.5 219l-530 1471q-22 62 22 115t114 53h752q57 0 76 -60l175 -608l344 608q33 60 93 60h712z" />
    <glyph glyph-name="endash" unicode="&#x2013;" horiz-adv-x="2287" 
d="M95 620q-48 0 -70.5 26t-15.5 74l53 380q7 48 36.5 74t77.5 26h2016q48 0 70.5 -26t15.5 -74l-53 -380q-7 -48 -36.5 -74t-77.5 -26h-2016z" />
    <glyph glyph-name="emdash" unicode="&#x2014;" horiz-adv-x="3487" 
d="M95 620q-48 0 -70.5 26t-15.5 74l53 380q7 48 36.5 74t77.5 26h3216q48 0 70.5 -26t15.5 -74l-53 -380q-7 -48 -36.5 -74t-77.5 -26h-3216z" />
    <glyph glyph-name="quoteleft" unicode="&#x2018;" horiz-adv-x="1084" 
d="M605 1267q-75 0 -142.5 25t-121 73t-85 125.5t-31.5 174.5q0 136 65 289.5t172.5 291t250.5 255.5t296 190q26 11 49 6.5t36 -22.5l61 -80q18 -24 13 -55t-33 -57q-16 -15 -54 -47.5t-58 -52.5t-45.5 -51t-37 -64.5t-11.5 -72.5q0 -52 22.5 -89t64.5 -79q97 -97 97 -259
q0 -137 -71 -253t-188 -182t-249 -66z" />
    <glyph glyph-name="quoteright" unicode="&#x2019;" horiz-adv-x="1085" 
d="M756 2619q75 0 142.5 -25t121 -73t85 -125.5t31.5 -174.5q0 -136 -65 -289.5t-172.5 -291t-250.5 -255.5t-296 -190q-26 -11 -49 -6.5t-36 22.5l-61 80q-18 24 -13 55t33 57q16 15 54 47.5t58 52.5t45.5 51t37 64.5t11.5 72.5q0 52 -22.5 89t-64.5 79q-97 97 -97 259
q0 137 71 253t188 182t249 66z" />
    <glyph glyph-name="quotesinglbase" unicode="&#x201a;" horiz-adv-x="1085" 
d="M506 840q75 0 142.5 -25t121 -73t85 -125.5t31.5 -174.5q0 -136 -65 -289.5t-172.5 -291t-250.5 -255.5t-296 -190q-26 -11 -49 -6.5t-36 22.5l-61 80q-18 24 -13 55t33 57q16 15 54 47.5t58 52.5t45.5 51t37 64.5t11.5 72.5q0 52 -22.5 89t-64.5 79q-97 97 -97 259
q0 137 71 253t188 182t249 66z" />
    <glyph glyph-name="quotedblleft" unicode="&#x201c;" horiz-adv-x="2084" 
d="M605 1267q-75 0 -142.5 25t-121 73t-85 125.5t-31.5 174.5q0 136 65 289.5t172.5 291t250.5 255.5t296 190q26 11 49 6.5t36 -22.5l61 -80q18 -24 13 -55t-33 -57q-16 -15 -54 -47.5t-58 -52.5t-45.5 -51t-37 -64.5t-11.5 -72.5q0 -52 22.5 -89t64.5 -79q97 -97 97 -259
q0 -137 -71 -253t-188 -182t-249 -66zM1605 1267q-75 0 -142.5 25t-121 73t-85 125.5t-31.5 174.5q0 136 65 289.5t172.5 291t250.5 255.5t296 190q26 11 49 6.5t36 -22.5l61 -80q18 -24 13 -55t-33 -57q-16 -15 -54 -47.5t-58 -52.5t-45.5 -51t-37 -64.5t-11.5 -72.5
q0 -52 22.5 -89t64.5 -79q97 -97 97 -259q0 -137 -71 -253t-188 -182t-249 -66z" />
    <glyph glyph-name="quotedblright" unicode="&#x201d;" horiz-adv-x="2085" 
d="M756 2619q75 0 142.5 -25t121 -73t85 -125.5t31.5 -174.5q0 -136 -65 -289.5t-172.5 -291t-250.5 -255.5t-296 -190q-26 -11 -49 -6.5t-36 22.5l-61 80q-18 24 -13 55t33 57q16 15 54 47.5t58 52.5t45.5 51t37 64.5t11.5 72.5q0 52 -22.5 89t-64.5 79q-97 97 -97 259
q0 137 71 253t188 182t249 66zM1756 2619q75 0 142.5 -25t121 -73t85 -125.5t31.5 -174.5q0 -136 -65 -289.5t-172.5 -291t-250.5 -255.5t-296 -190q-26 -11 -49 -6.5t-36 22.5l-61 80q-18 24 -13 55t33 57q16 15 54 47.5t58 52.5t45.5 51t37 64.5t11.5 72.5q0 52 -22.5 89
t-64.5 79q-97 97 -97 259q0 137 71 253t188 182t249 66z" />
    <glyph glyph-name="quotedblbase" unicode="&#x201e;" horiz-adv-x="2085" 
d="M506 840q75 0 142.5 -25t121 -73t85 -125.5t31.5 -174.5q0 -136 -65 -289.5t-172.5 -291t-250.5 -255.5t-296 -190q-26 -11 -49 -6.5t-36 22.5l-61 80q-18 24 -13 55t33 57q16 15 54 47.5t58 52.5t45.5 51t37 64.5t11.5 72.5q0 52 -22.5 89t-64.5 79q-97 97 -97 259
q0 137 71 253t188 182t249 66zM1506 840q75 0 142.5 -25t121 -73t85 -125.5t31.5 -174.5q0 -136 -65 -289.5t-172.5 -291t-250.5 -255.5t-296 -190q-26 -11 -49 -6.5t-36 22.5l-61 80q-18 24 -13 55t33 57q16 15 54 47.5t58 52.5t45.5 51t37 64.5t11.5 72.5q0 52 -22.5 89
t-64.5 79q-97 97 -97 259q0 137 71 253t188 182t249 66z" />
    <glyph glyph-name="dagger" unicode="&#x2020;" horiz-adv-x="1937" 
d="M1937 2100q48 0 70.5 -26t15.5 -74l-51 -360q-7 -48 -36.5 -74t-77.5 -26h-468l-233 -1660q-11 -80 -92 -80h-520q-79 0 -68 80l233 1660h-468q-48 0 -70.5 26t-15.5 74l51 360q7 48 36.5 74t77.5 26h468l81 580q12 80 91 80h520q80 0 69 -80l-81 -580h468z" />
    <glyph glyph-name="daggerdbl" unicode="&#x2021;" horiz-adv-x="1937" 
d="M1936 2100q48 0 70.5 -26t15.5 -74l-50 -360q-7 -48 -36.5 -74t-77.5 -26h-468l-74 -520h469q48 0 70.5 -26t15.5 -74l-51 -360q-7 -48 -36.5 -74t-77.5 -26h-468l-82 -580q-11 -80 -91 -80h-520q-80 0 -69 80l82 580h-468q-48 0 -70.5 26t-15.5 74l51 360q7 48 36.5 74
t77.5 26h467l74 520h-468q-48 0 -70.5 26t-15.5 74l50 360q7 48 36.5 74t77.5 26h468l82 580q11 80 91 80h520q80 0 69 -80l-82 -580h468z" />
    <glyph glyph-name="bullet" unicode="&#x2022;" horiz-adv-x="1473" 
d="M650 344q-114 0 -214 42.5t-170.5 115t-110.5 172.5t-40 213q0 183 99 342t262 251.5t346 92.5q153 0 276 -72t191 -196t68 -275q0 -183 -99 -342t-262 -251.5t-346 -92.5z" />
    <glyph glyph-name="ellipsis" unicode="&#x2026;" horiz-adv-x="3124" 
d="M422 -40q-166 0 -274.5 112t-108.5 277q0 131 71 245t187.5 180t247.5 66q166 0 274.5 -112t108.5 -277q0 -131 -71 -245t-187.5 -180t-247.5 -66zM1422 -40q-166 0 -274.5 112t-108.5 277q0 131 71 245t187.5 180t247.5 66q166 0 274.5 -112t108.5 -277q0 -131 -71 -245
t-187.5 -180t-247.5 -66zM2422 -40q-166 0 -274.5 112t-108.5 277q0 131 71 245t187.5 180t247.5 66q166 0 274.5 -112t108.5 -277q0 -131 -71 -245t-187.5 -180t-247.5 -66z" />
    <glyph glyph-name="perthousand" unicode="&#x2030;" horiz-adv-x="5413" 
d="M2877 2523q28 -14 35 -45.5t-12 -61.5l-1563 -2540q-19 -30 -52 -41.5t-60 2.5l-220 110q-28 14 -35.5 45.5t10.5 61.5l1565 2540q18 30 51 41.5t62 -2.5zM1704 1714q-25 -180 -104.5 -329.5t-194.5 -248.5t-259.5 -153.5t-300.5 -54.5t-285 54.5t-216.5 153.5
t-125 248.5t-12.5 329.5t104.5 329.5t194.5 248.5t259.5 153.5t300.5 54.5t285 -54.5t216.5 -153.5t125 -248.5t12.5 -329.5zM915 1428q63 0 111.5 79t66.5 207q18 129 -8.5 208t-89.5 79t-111.5 -79t-66.5 -208q-18 -128 8.5 -207t89.5 -79zM3042 1512q156 0 285 -54.5
t216.5 -153.5t124.5 -248.5t12 -329.5t-104.5 -329.5t-194.5 -248.5t-259.5 -153.5t-300.5 -54.5t-285 54.5t-216.5 153.5t-125 248.5t-12.5 329.5t104.5 329.5t195 248.5t260 153.5t300.5 54.5zM4642 1512q156 0 285 -54.5t216.5 -153.5t124.5 -248.5t12 -329.5
t-104.5 -329.5t-194.5 -248.5t-259.5 -153.5t-300.5 -54.5t-285 54.5t-216.5 153.5t-125 248.5t-12.5 329.5t104.5 329.5t195 248.5t260 153.5t300.5 54.5zM2891 440q63 0 111.5 79t66.5 207q18 129 -8.5 208t-89.5 79t-111.5 -79t-66.5 -208q-18 -128 8.5 -207t89.5 -79z
M4491 440q63 0 111.5 79t66.5 207q18 129 -8.5 208t-89.5 79t-111.5 -79t-66.5 -208q-18 -128 8.5 -207t89.5 -79z" />
    <glyph glyph-name="guilsinglleft" unicode="&#x2039;" horiz-adv-x="1207" 
d="M975 1654q44 27 81.5 25t60 -32.5t15.5 -77.5l-36 -258q-5 -30 -42 -60l-389 -306l303 -306q30 -30 25 -60l-36 -258q-10 -72 -69.5 -100t-111.5 15l-617 513q-25 22 -20 56l20 140l19 140q6 35 36 56z" />
    <glyph glyph-name="guilsinglright" unicode="&#x203a;" horiz-adv-x="1206" 
d="M1044 1141q24 -21 19 -56l-19 -140l-20 -140q-5 -34 -35 -56l-761 -513q-64 -43 -116.5 -15t-41.5 100l37 258q4 30 42 60l389 306l-303 306q-30 30 -25 60l36 258q10 72 69 100t111 -15z" />
    <glyph glyph-name="fraction" unicode="&#x2044;" horiz-adv-x="1261" 
d="M1256 2592q14 30 45 41.5t62 -2.5l217 -102q29 -14 40.5 -45t-2.5 -61l-1217 -2610q-14 -30 -45.5 -41.5t-59.5 2.5l-218 101q-31 15 -42 46t3 61z" />
    <glyph glyph-name="Euro" unicode="&#x20ac;" horiz-adv-x="2928" 
d="M2964 1898q18 -44 0.5 -79.5t-63.5 -56.5l-606 -270q-87 -38 -130 44q-52 101 -143.5 162.5t-209.5 61.5q-223 0 -373 -160h495l-210 -300h-438q-16 -79 -17 -160h496l-206 -300h-213q106 -160 315 -160q117 0 224.5 61.5t190.5 162.5q68 82 142 44l530 -270
q40 -21 47 -56t-22 -80q-101 -149 -244 -266t-304 -189.5t-330.5 -109.5t-337.5 -37q-326 0 -588 106t-431.5 310.5t-217.5 483.5h-277l42 300h219q4 77 17 160h-213l42 300h256q115 279 342.5 484t527.5 310.5t640 105.5q168 0 327 -37.5t300 -109.5t251.5 -189t169.5 -266
z" />
    <glyph glyph-name="trademark" unicode="&#x2122;" horiz-adv-x="3719" 
d="M1709 2442q20 0 32.5 -14.5t10.5 -35.5l-51 -360q-3 -20 -19.5 -34.5t-37.5 -14.5h-410l-141 -1006q-3 -21 -19.5 -35.5t-37.5 -14.5h-471q-21 0 -33.5 14.5t-9.5 35.5l141 1006h-410q-20 0 -32.5 14.5t-9.5 34.5l51 360q2 21 19 35.5t37 14.5h931h460zM3745 2442
q62 0 54 -62l-196 -1391q-9 -62 -71 -62h-447q-29 0 -43 16t-10 46l65 462l-364 -345q-22 -21 -48 -21t-42 21l-266 345l-65 -462q-9 -62 -71 -62h-447q-62 0 -54 62l196 1391q9 62 71 62h218q47 0 72 -33l485 -638l627 639q33 32 83 32h253z" />
    <glyph glyph-name="oneeighth" unicode="&#x215b;" horiz-adv-x="4400" 
d="M2680 2529q29 -14 40.5 -45t-2.5 -61l-1217 -2610q-14 -30 -45.5 -41.5t-59.5 2.5l-218 101q-31 15 -42 46t3 61l1217 2610q14 30 45 41.5t62 -2.5zM1214 846q-3 -22 -20.5 -37.5t-39.5 -15.5h-500q-22 0 -35 15.5t-10 37.5l146 1035l-234 -98q-22 -10 -41.5 -2.5
t-25.5 28.5l-103 321q-8 22 3 42.5t35 30.5l451 179q37 15 81 15h459q21 0 34.5 -15t10.5 -37zM3720 849q117 -40 179 -134.5t62 -215.5q0 -87 -32 -165.5t-99.5 -147t-165.5 -118.5t-238.5 -78.5t-309.5 -28.5q-145 0 -263.5 22.5t-200 62.5t-137.5 95.5t-81.5 120
t-25.5 137.5q0 150 94.5 274t259.5 176q-84 38 -136 121t-52 189q0 216 202.5 350.5t576.5 134.5q321 0 488 -108t167 -287q0 -136 -82 -242.5t-206 -157.5zM3301 1275q-65 0 -107.5 -37.5t-42.5 -101.5q0 -50 31.5 -77.5t84.5 -27.5q65 0 107.5 37.5t42.5 101.5
q0 49 -31.5 77t-84.5 28zM3174 374q79 0 127.5 48t48.5 115q0 54 -35.5 90t-99.5 36q-79 0 -127.5 -48t-48.5 -115q0 -54 35.5 -90t99.5 -36z" />
    <glyph glyph-name="threeeighths" unicode="&#x215c;" horiz-adv-x="4320" 
d="M2890 2529q29 -14 40.5 -45t-2.5 -61l-1217 -2610q-14 -30 -45.5 -41.5t-59.5 2.5l-218 101q-31 15 -42 46t3 61l1217 2610q14 30 45 41.5t62 -2.5zM1589 1282q0 -164 -106 -285t-284 -182t-402 -61q-440 0 -674 270q-17 20 -23 32.5t-1 30.5t27 40l191 196q59 61 96 32
q49 -37 77.5 -57t75 -44.5t95.5 -35.5t107 -11q93 0 151.5 28.5t58.5 81.5q0 37 -37 64t-94 41t-128 17q-22 1 -34.5 15.5t-9.5 36.5l29 213q4 22 20.5 37t40.5 17q120 8 188 46.5t68 100.5q0 78 -139 78q-70 0 -147.5 -25t-120 -48t-106.5 -62q-15 -9 -27 -10.5t-23 4.5
t-19.5 15t-18.5 24l-126 182q-16 23 -15.5 41t10 30.5t31.5 31.5q141 123 341.5 197t423.5 74q258 0 405 -102t147 -286q0 -273 -282 -426q112 -55 173 -141t61 -200zM3930 849q117 -40 179 -134.5t62 -215.5q0 -87 -32 -165.5t-99.5 -147t-165.5 -118.5t-238.5 -78.5
t-309.5 -28.5q-145 0 -263.5 22.5t-200 62.5t-137.5 95.5t-81.5 120t-25.5 137.5q0 150 94.5 274t259.5 176q-84 38 -136 121t-52 189q0 216 202.5 350.5t576.5 134.5q321 0 488 -108t167 -287q0 -136 -82 -242.5t-206 -157.5zM3511 1275q-65 0 -107.5 -37.5t-42.5 -101.5
q0 -50 31.5 -77.5t84.5 -27.5q65 0 107.5 37.5t42.5 101.5q0 49 -31.5 77t-84.5 28zM3384 374q79 0 127.5 48t48.5 115q0 54 -35.5 90t-99.5 36q-79 0 -127.5 -48t-48.5 -115q0 -54 35.5 -90t99.5 -36z" />
    <glyph glyph-name="fiveeighths" unicode="&#x215d;" horiz-adv-x="4340" 
d="M2890 2529q29 -14 40.5 -45t-2.5 -61l-1217 -2610q-14 -30 -45.5 -41.5t-59.5 2.5l-218 101q-31 15 -42 46t3 61l1217 2610q14 30 45 41.5t62 -2.5zM1620 1367q0 -135 -61 -250.5t-166.5 -194.5t-251 -123.5t-311.5 -44.5q-463 0 -689 251q-17 19 -23 31.5t-1 30.5t26 40
l191 196q13 14 23 22t23 15t25.5 5.5t25.5 -10.5q91 -66 168.5 -97t188.5 -31q92 0 152.5 37t60.5 101q0 98 -166 98q-102 0 -208 -23q-21 -3 -33 6l-261 180q-23 16 -15 45l173 681q15 65 75 65h1013q22 0 34.5 -15t9.5 -37l-46 -336q-3 -22 -21 -37t-40 -15h-605l-44 -167
q79 28 205 28q251 0 399.5 -115.5t148.5 -335.5zM3930 849q117 -40 179 -134.5t62 -215.5q0 -87 -32 -165.5t-99.5 -147t-165.5 -118.5t-238.5 -78.5t-309.5 -28.5q-145 0 -263.5 22.5t-200 62.5t-137.5 95.5t-81.5 120t-25.5 137.5q0 150 94.5 274t259.5 176
q-84 38 -136 121t-52 189q0 216 202.5 350.5t576.5 134.5q321 0 488 -108t167 -287q0 -136 -82 -242.5t-206 -157.5zM3511 1275q-65 0 -107.5 -37.5t-42.5 -101.5q0 -50 31.5 -77.5t84.5 -27.5q65 0 107.5 37.5t42.5 101.5q0 49 -31.5 77t-84.5 28zM3384 374q79 0 127.5 48
t48.5 115q0 54 -35.5 90t-99.5 36q-79 0 -127.5 -48t-48.5 -115q0 -54 35.5 -90t99.5 -36z" />
    <glyph glyph-name="seveneighths" unicode="&#x215e;" horiz-adv-x="4040" 
d="M2590 2529q29 -14 40.5 -45t-2.5 -61l-1217 -2610q-14 -30 -45.5 -41.5t-59.5 2.5l-218 101q-31 15 -42 46t3 61l1217 2610q14 30 45 41.5t62 -2.5zM1665 2205q-1 -11 -5.5 -23t-7 -17t-13 -22t-11.5 -19l-781 -1303q-17 -28 -47 -28h-557q-37 0 -51 28t6 62l637 1028
h-618q-22 0 -35.5 15t-10.5 37l54 382q3 22 20.5 37t39.5 15h1341q66 0 57 -65zM3630 849q117 -40 179 -134.5t62 -215.5q0 -87 -32 -165.5t-99.5 -147t-165.5 -118.5t-238.5 -78.5t-309.5 -28.5q-145 0 -263.5 22.5t-200 62.5t-137.5 95.5t-81.5 120t-25.5 137.5
q0 150 94.5 274t259.5 176q-84 38 -136 121t-52 189q0 216 202.5 350.5t576.5 134.5q321 0 488 -108t167 -287q0 -136 -82 -242.5t-206 -157.5zM3211 1275q-65 0 -107.5 -37.5t-42.5 -101.5q0 -50 31.5 -77.5t84.5 -27.5q65 0 107.5 37.5t42.5 101.5q0 49 -31.5 77t-84.5 28
zM3084 374q79 0 127.5 48t48.5 115q0 54 -35.5 90t-99.5 36q-79 0 -127.5 -48t-48.5 -115q0 -54 35.5 -90t99.5 -36z" />
    <glyph glyph-name="partialdiff" unicode="&#x2202;" horiz-adv-x="2320" 
d="M977 2692q210 -50 386 -127t302.5 -167t227 -200t164 -219t106.5 -230t63 -228.5t26 -219t1.5 -196t-16.5 -165.5q-34 -240 -141.5 -432t-268 -315t-362 -188t-428.5 -65q-329 0 -562.5 108.5t-342 312.5t-69.5 479q23 164 93 307t176 250.5t240.5 185t292 117.5
t325.5 40q103 0 194 -28q-176 325 -670 505q-41 15 -50.5 51.5t14.5 73.5l192 313q34 54 107 37zM1132 620q90 0 154.5 66.5t76.5 153.5t-33.5 153.5t-135.5 66.5t-154.5 -66.5t-76.5 -153.5t33.5 -153.5t135.5 -66.5z" />
    <glyph glyph-name="emptyset" unicode="&#x2205;" horiz-adv-x="2996" 
d="M3043 2183q24 -32 14.5 -67t-45.5 -66l-385 -328q131 -276 85 -602q-33 -236 -155.5 -450.5t-302 -370t-411.5 -247.5t-475 -92q-344 0 -606 177l-385 -327q-37 -31 -72 -35.5t-63 23.5l-240 280q-25 32 -16 67t46 66l391 333q-116 266 -73 576q33 236 155.5 450.5
t302 370t411.5 247.5t475 92q326 0 582 -161l391 332q37 31 72 36t63 -23zM1031 1120q-4 -33 -6 -65l677 576q-46 9 -98 9q-140 0 -262.5 -64t-205.5 -183.5t-105 -272.5zM2031 1120q8 53 6 101l-711 -604q63 -17 132 -17q140 0 262.5 64t205.5 183.5t105 272.5z" />
    <glyph glyph-name="product" unicode="&#x220f;" horiz-adv-x="2260" 
d="M2338 2940q33 0 53.5 -23.5t15.5 -56.5l-461 -3280q-4 -33 -31 -56.5t-60 -23.5h-360q-33 0 -53.5 23.5t-15.5 56.5l403 2870h-980l-403 -2870q-4 -33 -31 -56.5t-60 -23.5h-360q-33 0 -53.5 23.5t-15.5 56.5l461 3280q4 33 31 56.5t60 23.5h1686h174z" />
    <glyph glyph-name="summation" unicode="&#x2211;" horiz-adv-x="2246" 
d="M2388 2540q-7 -48 -36.5 -74t-77.5 -26h-1049l662 -1178q23 -42 -12 -84l-994 -1188h1049q48 0 70.5 -26t15.5 -74l-41 -290q-7 -48 -36.5 -74t-77.5 -26h-1736q-48 0 -70.5 26t-15.5 74l15 104q13 97 66 160l1151 1356l-771 1346q-35 64 -22 160l15 104q7 48 36.5 74
t77.5 26h1736q48 0 70.5 -26t15.5 -74z" />
    <glyph glyph-name="minus" unicode="&#x2212;" horiz-adv-x="2237" 
d="M241 820q-48 0 -70.5 26t-15.5 74l53 380q7 48 36.5 74t77.5 26h1716q48 0 70.5 -26t15.5 -74l-53 -380q-7 -48 -36.5 -74t-77.5 -26h-1716z" />
    <glyph glyph-name="radical" unicode="&#x221a;" horiz-adv-x="2703" 
d="M2189 2907q10 25 31 39t47 14h623q52 0 73 -37.5t-3 -86.5l-1405 -2787q-24 -49 -77 -49h-660q-48 0 -61 44l-345 1216h-287q-35 0 -55 23.5t-15 58.5l52 376q5 35 32 58.5t62 23.5h855q53 0 63 -50l167 -850z" />
    <glyph glyph-name="infinity" unicode="&#x221e;" horiz-adv-x="3159" 
d="M2262 1900q160 0 297 -49t239.5 -140.5t161 -233t58.5 -317.5t-58.5 -317.5t-161 -233t-239.5 -140.5t-297 -49q-194 0 -362 91.5t-292 260.5q-124 -169 -292 -260.5t-362 -91.5q-160 0 -297 49t-239.5 140.5t-161 233t-58.5 317.5t58.5 317.5t161 233t239.5 140.5
t297 49q194 0 362 -91.5t292 -260.5q124 169 292 260.5t362 91.5zM984 928q35 0 66.5 14.5t53.5 33.5t47 55t38.5 60.5t36.5 68.5q-23 44 -36.5 68.5t-38.5 60.5t-47 55t-53.5 33.5t-66.5 14.5q-79 0 -125.5 -65.5t-46.5 -166.5t46.5 -166.5t125.5 -65.5zM2232 928
q79 0 125.5 65.5t46.5 166.5t-46.5 166.5t-125.5 65.5q-35 0 -66.5 -14.5t-53.5 -33.5t-47 -55t-38.5 -60.5t-36.5 -68.5q23 -44 36.5 -68.5t38.5 -60.5t47 -55t53.5 -33.5t66.5 -14.5z" />
    <glyph glyph-name="integral" unicode="&#x222b;" horiz-adv-x="1967" 
d="M2232 2844q21 -17 30.5 -29t8 -40.5t-25.5 -66.5l-179 -287q-52 -84 -142 -44q-95 43 -169 43q-86 0 -138.5 -58t-72.5 -202l-286 -2040q-21 -147 -78 -270.5t-142 -213.5t-194.5 -152.5t-236 -93t-265.5 -30.5q-143 0 -276.5 33.5t-216 74.5t-142.5 88q-21 16 -31 29
t-8 41t26 66l178 287q53 84 142 44q95 -43 169 -43q86 0 138.5 58t73.5 202l285 2040q26 183 108 329t204 239.5t276 142.5t328 49q143 0 277 -33.5t216.5 -74.5t142.5 -88z" />
    <glyph glyph-name="approxequal" unicode="&#x2248;" horiz-adv-x="2337" 
d="M2255 1789q21 -13 27.5 -36.5t-4.5 -49.5q-59 -139 -141.5 -246t-173.5 -170t-183.5 -95t-182.5 -32q-111 0 -205 22.5t-159.5 55t-126 65t-131.5 55t-147 22.5q-172 0 -322 -160q-24 -26 -53 -32.5t-55 8.5l-153 95q-21 13 -27.5 36t4.5 50q47 112 111 203.5
t132.5 153.5t144.5 104.5t149 62t145 19.5q111 0 205 -22.5t159.5 -55t126 -65t131.5 -55t147 -22.5q173 0 321 160q24 26 53.5 32.5t55.5 -8.5zM2134 929q21 -13 27.5 -36.5t-4.5 -49.5q-59 -139 -141.5 -246t-173.5 -170t-183.5 -95t-182.5 -32q-111 0 -205 22.5
t-159.5 55t-126 65t-131.5 55t-147 22.5q-172 0 -322 -160q-24 -26 -53 -32.5t-55 8.5l-153 95q-20 13 -26.5 36.5t3.5 49.5q47 112 111 203.5t132.5 153.5t144.5 104.5t149 62t145 19.5q111 0 205 -22.5t159.5 -55t126 -65t131.5 -55t147 -22.5q173 0 321 160
q24 26 53.5 32.5t55.5 -8.5z" />
    <glyph glyph-name="notequal" unicode="&#x2260;" horiz-adv-x="2236" 
d="M2098 1830q48 0 70.5 -26t15.5 -74l-53 -380q-7 -48 -36.5 -74t-77.5 -26h-567l-168 -280h695q48 0 70.5 -26t15.5 -74l-53 -380q-7 -48 -36.5 -74t-77.5 -26h-964l-291 -484q-18 -30 -51.5 -41.5t-60.5 2.5l-220 110q-28 14 -35 45.5t11 61.5l184 306h-289
q-48 0 -70.5 26t-15.5 74l53 380q7 48 36.5 74t77.5 26h558l168 280h-686q-48 0 -70.5 26t-15.5 74l53 380q7 48 36.5 74t77.5 26h954l269 446q18 30 51 41.5t62 -2.5l219 -110q28 -14 35 -45.5t-11 -61.5l-161 -268h298z" />
    <glyph glyph-name="lessequal" unicode="&#x2264;" horiz-adv-x="2236" 
d="M2225 2020q-3 -23 -11.5 -39t-27.5 -27.5t-31.5 -17t-43.5 -16.5l-1126 -405l1012 -405q28 -11 39 -16.5t26.5 -17t19.5 -27.5t1 -39l-60 -430q-7 -51 -41 -84t-73 -16l-1618 700q-46 20 -67.5 47.5t-15.5 72.5l60 430q6 45 36 72.5t81 47.5l1814 700q44 17 68.5 -16
t17.5 -84zM97 -200q-48 0 -70.5 26t-15.5 74l53 380q7 48 36.5 74t77.5 26h1716q48 0 70.5 -26t15.5 -74l-53 -380q-7 -48 -36.5 -74t-77.5 -26h-1716z" />
    <glyph glyph-name="greaterequal" unicode="&#x2265;" horiz-adv-x="2237" 
d="M310 2020l60 430q7 51 41 84t73 16l1618 -700q46 -20 67.5 -47.5t15.5 -72.5l-60 -430q-6 -45 -36 -72.5t-82 -47.5l-1814 -700q-44 -17 -68.5 16t-17.5 84l61 430q3 23 11.5 39t27.5 27.5t31.5 17t43.5 16.5l1126 405l-1012 405q-28 11 -39 16.5t-26.5 17t-19.5 27.5
t-1 39zM1814 -200h-1716q-48 0 -70.5 26t-15.5 74l53 380q7 48 36.5 74t77.5 26h1716q48 0 70.5 -26t15.5 -74l-53 -380q-7 -48 -36.5 -74t-77.5 -26z" />
    <glyph glyph-name="lozenge" unicode="&#x25ca;" horiz-adv-x="2457" 
d="M1405 2710q34 37 75 37t64 -37l805 -1263q29 -47 -13 -94l-1160 -1263q-34 -37 -75 -37t-64 37l-805 1263q-29 47 13 94zM1226 944l389 456l-260 456l-388 -456z" />
    <glyph glyph-name="i.loclTRK" 
d="M713 2048q-166 0 -274.5 112t-108.5 277q0 131 71 245t187.5 180t247.5 66q166 0 274.5 -112t108.5 -277q0 -131 -71 -245t-187.5 -180t-247.5 -66zM244 1840q11 80 91 80h720q80 0 69 -80l-248 -1760q-11 -80 -91 -80h-720q-80 0 -69 80z" />
    <glyph glyph-name="zero.osf" horiz-adv-x="2440" 
d="M1377 2080q154 0 292.5 -29t258.5 -87t211.5 -146.5t152 -207.5t80 -268.5t-4.5 -331.5q-30 -212 -114.5 -389t-207.5 -301.5t-279 -211t-329.5 -127.5t-359.5 -41q-154 0 -292.5 29t-258.5 87t-211.5 146.5t-152 207.5t-80 269t4.5 331q30 212 114.5 389t207.5 301.5
t279 211t329.5 127.5t359.5 41zM1172 620q109 0 188 95.5t107 294.5t-24 294.5t-161 95.5t-188 -95.5t-107 -294.5t24 -294.5t161 -95.5z" />
    <glyph glyph-name="one.osf" horiz-adv-x="1996" 
d="M1745 2020q33 0 53.5 -23.5t15.5 -56.5l-262 -1860q-4 -33 -31 -56.5t-60 -23.5h-720q-33 0 -53.5 23.5t-15.5 56.5l163 1154l-356 -149q-34 -14 -62.5 -3t-39.5 43l-157 488q-11 33 6 65t53 46l686 272q61 24 122 24h658z" />
    <glyph glyph-name="two.osf" horiz-adv-x="2246" 
d="M1991 570q33 0 53.5 -23.5t15.5 -56.5l-58 -410q-4 -33 -31 -56.5t-60 -23.5h-1890q-48 0 -70.5 26t-15.5 74l21 152q11 80 103 134q491 290 675 413q351 235 433 387q28 53 28 99q0 115 -181 115q-70 0 -138.5 -15.5t-140 -49t-121.5 -62.5t-129 -78q-21 -13 -40 -15.5
t-35.5 6t-29.5 22.5t-29 36l-205 298q-24 35 -23 63.5t15.5 47.5t47.5 45q223 180 516.5 281t612.5 101q141 0 264 -21t228.5 -67t181 -114.5t118 -168.5t42.5 -224q0 -102 -22 -192t-77.5 -186t-144.5 -183.5t-228.5 -178t-325.5 -175.5h640z" />
    <glyph glyph-name="three.osf" horiz-adv-x="2284" 
d="M1753 853q170 -83 262.5 -219.5t92.5 -308.5q0 -145 -60.5 -270.5t-169 -218.5t-255.5 -160t-324.5 -101t-371.5 -34q-655 0 -1005 412q-27 31 -36.5 50t-2 46t41.5 60l287 277q23 22 37.5 33.5t34.5 23t38.5 9t36.5 -16.5q64 -49 99 -74.5t91.5 -59.5t100.5 -50.5
t103.5 -28.5t123.5 -12q135 0 223.5 44t88.5 126q0 29 -14.5 53t-36 41t-57.5 31t-66 22.5t-76 16t-73 10.5t-71 8q-36 4 -54 24.5t-14 55.5l46 324q4 34 29 55.5t62 25.5q39 4 61.5 7t68.5 11t75.5 17t67.5 25.5t60.5 36.5t38.5 49.5t16 64.5q0 63 -54 97.5t-151 34.5
q-59 0 -123 -14t-114 -32t-114 -50.5t-99 -52.5t-93 -56q-22 -13 -41 -15.5t-35 6.5t-29 22t-29 36l-192 278q-18 26 -23 46.5t4 40t21.5 33.5t37.5 36q217 190 511 301t625 111q382 0 604.5 -156t222.5 -436q0 -407 -428 -635z" />
    <glyph glyph-name="four.osf" horiz-adv-x="2445" 
d="M2240 570q48 0 70.5 -26t15.5 -74l-52 -370q-7 -48 -36 -74t-78 -26h-259l-48 -340q-4 -33 -31 -56.5t-60 -23.5h-620q-33 0 -53.5 23.5t-15.5 56.5l48 340h-1096q-48 0 -70.5 26t-15.5 74l37 260l1385 1603q49 57 127 57h617q34 0 54 -23.5t15 -56.5l-193 -1370h259z
M819 570h382l76 544z" />
    <glyph glyph-name="five.osf" horiz-adv-x="2433" 
d="M2095 1350h-920l-67 -253q118 42 311 42q180 0 328 -43t257 -127t169.5 -215.5t60.5 -300.5q0 -199 -92.5 -370.5t-251 -289.5t-375.5 -185.5t-461 -67.5q-360 0 -606.5 92.5t-423.5 269.5q-27 27 -36.5 47.5t-1 47.5t41.5 61l290 298q21 21 35.5 33.5t34 23t39 8.5
t38.5 -16q62 -44 95.5 -66.5t87.5 -52t98.5 -43t107 -23.5t134.5 -10q140 0 232 56.5t92 152.5q0 150 -253 150q-148 0 -317 -35q-31 -7 -51 8l-374 274q-35 25 -24 69l263 1035q25 100 115 100h1519q33 0 53 -23.5t15 -56.5l-71 -510q-4 -33 -31.5 -56.5t-60.5 -23.5z" />
    <glyph glyph-name="six.osf" horiz-adv-x="2359" 
d="M2057 1801q-284 -6 -487 -63.5t-332.5 -162t-211.5 -265.5q207 190 581 190q102 0 188.5 -20t151 -56t116 -86.5t82.5 -111.5t50.5 -130.5t20.5 -144t-8 -151.5q-23 -167 -95 -308t-179 -241.5t-244 -171.5t-292 -105t-321 -34q-187 0 -350.5 42.5t-294.5 129.5
t-218 211.5t-122 298t-6 378.5q21 152 69.5 294.5t133.5 285.5t201 266t280 231t362.5 185.5t456.5 124.5t554 53q37 1 58 -23t16 -59l-67 -476q-5 -35 -31 -57.5t-62 -23.5zM1216 1000q-97 0 -158 -68.5t-75 -171.5q-14 -98 28 -169t138 -71q90 0 155 72t79 168
q14 100 -31 170t-136 70z" />
    <glyph glyph-name="seven.osf" horiz-adv-x="2171" 
d="M216 -420q-57 0 -77.5 42.5t9.5 94.5l946 1623h-960q-33 0 -53.5 23.5t-15.5 56.5l73 520q4 33 31.5 56.5t60.5 23.5h1991q47 0 69.5 -26t15.5 -74l-27 -192q-2 -14 -5.5 -26.5t-10.5 -26.5t-11 -21.5t-15 -25t-15 -24.5l-1187 -1982q-25 -42 -71 -42h-748z" />
    <glyph glyph-name="eight.osf" horiz-adv-x="2413" 
d="M1931 1282q178 -61 272.5 -202t94.5 -322q0 -131 -48.5 -251t-149.5 -224t-245 -180t-347.5 -119.5t-444.5 -43.5q-207 0 -377.5 34.5t-289.5 95.5t-200.5 145.5t-120 182.5t-38.5 209q0 228 142 412t394 263q-128 58 -207 183.5t-79 286.5q0 156 76 288.5t217.5 230.5
t357.5 153.5t482 55.5q230 0 412 -44.5t298.5 -124t177.5 -187.5t61 -237q0 -137 -61 -260.5t-158 -209.5t-219 -135zM1343 1929q-92 0 -155 -57.5t-63 -154.5q0 -74 46 -116.5t120 -42.5q92 0 155 57.5t63 154.5q0 74 -46 116.5t-120 42.5zM1152 569q112 0 184.5 73.5
t72.5 174.5q0 82 -52 137t-143 55q-112 0 -185 -73.5t-73 -174.5q0 -82 52 -137t144 -55z" />
    <glyph glyph-name="nine.osf" horiz-adv-x="2311" 
d="M1248 2080q187 0 350.5 -42.5t294.5 -129.5t218.5 -211.5t122 -298t5.5 -378.5q-21 -152 -69 -294.5t-133 -285.5t-201 -266t-280 -231t-362.5 -185.5t-456.5 -124.5t-554 -53q-37 -1 -58.5 22.5t-16.5 59.5l67 476q4 34 31 57t63 24q284 6 487 63.5t332.5 161.5
t211.5 265q-208 -189 -581 -189q-102 0 -188.5 20t-151 56t-116 86.5t-82.5 111.5t-51 130.5t-21 144t8 151.5q23 167 95 308t179 241.5t244 171.5t292 105t321 34zM1109 1020q97 0 158.5 68.5t75.5 171.5q14 98 -28 169t-138 71q-90 0 -155 -72t-79 -168
q-14 -100 30.5 -170t135.5 -70z" />
    <glyph glyph-name="zero.dnom" horiz-adv-x="1805" 
d="M998 1637q168 0 306 -58.5t231.5 -164.5t133 -266t12.5 -353t-111.5 -352.5t-208 -266t-277.5 -164.5t-322 -58t-306.5 58t-232 164.5t-133.5 266t-13 352.5t112 353t208.5 266t278 164.5t322.5 58.5zM830 440q78 0 138 98t82 257q23 159 -10 257t-111 98t-138 -97.5
t-83 -257.5q-22 -159 11 -257t111 -98z" />
    <glyph glyph-name="one.dnom" horiz-adv-x="1600" 
d="M1268 1604q21 0 34.5 -15t10.5 -37l-211 -1499q-3 -22 -20.5 -37.5t-39.5 -15.5h-500q-22 0 -35 15.5t-10 37.5l146 1035l-234 -98q-22 -10 -41.5 -2.5t-25.5 28.5l-103 321q-8 22 3 42.5t35 30.5l451 179q37 15 81 15h459z" />
    <glyph glyph-name="two.dnom" horiz-adv-x="1590" 
d="M1501 1105q-27 -190 -171.5 -365.5t-415.5 -325.5h467q22 0 35 -15.5t10 -37.5l-44 -315q-3 -22 -20.5 -37.5t-39.5 -15.5h-1282q-32 0 -46.5 17.5t-10.5 48.5l18 126q8 60 40 82q200 127 351.5 237t241 188.5t146.5 147t78.5 112.5t27.5 85q10 75 -24.5 110.5
t-117.5 35.5q-48 0 -94 -11t-99.5 -39.5t-78 -43t-85.5 -54.5q-45 -30 -88 32l-135 196q-20 35 -13 55.5t39 47.5q148 124 341.5 197.5t411.5 73.5q298 0 445 -142.5t113 -389.5z" />
    <glyph glyph-name="three.dnom" horiz-adv-x="1628" 
d="M1242 823q112 -55 173 -141t61 -200q0 -164 -106 -285t-284 -182t-402 -61q-440 0 -674 270q-17 20 -23 32.5t-1 30.5t27 40l191 196q59 61 96 32q49 -37 77.5 -57t75 -44.5t95.5 -35.5t107 -11q93 0 151.5 28.5t58.5 81.5q0 37 -37 64t-94 41t-128 17q-22 1 -34.5 15.5
t-9.5 36.5l29 213q4 22 20.5 37t40.5 17q120 8 188 46.5t68 100.5q0 78 -139 78q-70 0 -147.5 -25t-120 -48t-106.5 -62q-15 -9 -27 -10.5t-23 4.5t-19.5 15t-18.5 24l-126 182q-16 23 -15.5 41t10 30.5t31.5 31.5q141 123 341.5 197t423.5 74q258 0 405 -102t147 -286
q0 -273 -282 -426z" />
    <glyph glyph-name="four.dnom" horiz-adv-x="1702" 
d="M1567 684q32 0 46.5 -17.5t10.5 -48.5l-34 -237q-8 -65 -75 -65h-170l-37 -263q-3 -22 -20.5 -37.5t-39.5 -15.5h-434q-22 0 -35 15.5t-10 37.5l37 263h-780q-66 0 -57 65l22 157q2 15 13 26l920 1003q34 37 84 37h465q22 0 35.5 -15t10.5 -37l-123 -868h171zM581 684
h277l50 357z" />
    <glyph glyph-name="five.dnom" horiz-adv-x="1668" 
d="M1404 1164h-605l-44 -167q79 28 205 28q251 0 399.5 -115.5t148.5 -335.5q0 -135 -61 -250.5t-166.5 -194.5t-251 -123.5t-311.5 -44.5q-463 0 -689 251q-17 19 -23 31.5t-1 30.5t26 40l191 196q13 14 23 22t23 15t25.5 5.5t25.5 -10.5q91 -66 168.5 -97t188.5 -31
q92 0 152.5 37t60.5 101q0 98 -166 98q-102 0 -208 -23q-21 -3 -33 6l-261 180q-23 16 -15 45l173 681q15 65 75 65h1013q22 0 34.5 -15t9.5 -37l-46 -336q-3 -22 -21 -37t-40 -15z" />
    <glyph glyph-name="six.dnom" horiz-adv-x="1653" 
d="M1080 1013q117 0 205.5 -40.5t136.5 -108.5t66.5 -151t5.5 -174q-16 -110 -64.5 -204t-121.5 -162t-166 -116t-197.5 -72t-215.5 -24q-157 0 -288.5 47t-225.5 134.5t-136.5 224t-19.5 304.5q14 101 45.5 195.5t87 191t132 180t186 157.5t242 127t307.5 85.5t376 36.5
q25 0 38.5 -15.5t10.5 -38.5l-44 -313q-3 -23 -20.5 -38t-40.5 -15q-274 -5 -437.5 -89.5t-247.5 -250.5q140 129 386 129zM778 355q63 0 107 47.5t53 110.5q9 66 -21.5 112t-94.5 46q-68 0 -109 -45t-51 -113q-9 -65 19.5 -111.5t96.5 -46.5z" />
    <glyph glyph-name="seven.dnom" horiz-adv-x="1590" 
d="M131 0q-37 0 -51 28t6 62l637 1028h-618q-22 0 -35.5 15t-10.5 37l54 382q3 22 20.5 37t39.5 15h1341q66 0 57 -65l-18 -127q-1 -11 -5.5 -23t-7 -17t-13 -22t-11.5 -19l-781 -1303q-17 -28 -47 -28h-557z" />
    <glyph glyph-name="eight.dnom" horiz-adv-x="1747" 
d="M1337 849q117 -40 179 -134.5t62 -215.5q0 -87 -32 -165.5t-99.5 -147t-165.5 -118.5t-238.5 -78.5t-309.5 -28.5q-145 0 -263.5 22.5t-200 62.5t-137.5 95.5t-81.5 120t-25.5 137.5q0 150 94.5 274t259.5 176q-84 38 -136 121t-52 189q0 216 202.5 350.5t576.5 134.5
q321 0 488 -108t167 -287q0 -136 -82 -242.5t-206 -157.5zM918 1275q-65 0 -107.5 -37.5t-42.5 -101.5q0 -50 31.5 -77.5t84.5 -27.5q65 0 107.5 37.5t42.5 101.5q0 49 -31.5 77t-84.5 28zM791 374q79 0 127.5 48t48.5 115q0 54 -35.5 90t-99.5 36q-79 0 -127.5 -48
t-48.5 -115q0 -54 35.5 -90t99.5 -36z" />
    <glyph glyph-name="nine.dnom" horiz-adv-x="1653" 
d="M880 1644q157 0 289 -47t225.5 -134.5t136.5 -224t19 -304.5q-14 -100 -45 -194t-86.5 -188.5t-131.5 -175t-185 -151t-241 -119.5t-306 -77.5t-375 -28.5q-25 0 -39 15.5t-10 38.5l44 313q3 23 20 37.5t41 15.5q270 6 429 77.5t243 217.5q-137 -123 -380 -123
q-117 0 -205 40.5t-136 108t-66.5 151t-5.5 173.5q19 137 89.5 248t175 182.5t233 110t267.5 38.5zM787 934q68 0 109 44.5t51 112.5q9 65 -19.5 111.5t-95.5 46.5q-64 0 -108 -47t-53 -111q-9 -66 21 -111.5t95 -45.5z" />
    <glyph glyph-name="zero.numr" horiz-adv-x="1804" 
d="M1110 2437q168 0 306 -58.5t231.5 -164.5t133 -266t12.5 -353t-111.5 -352.5t-208 -266t-277.5 -164.5t-322 -58t-306.5 58t-232 164.5t-133.5 266t-13 352.5t112 353t208.5 266t278 164.5t322.5 58.5zM942 1240q78 0 138 98t82 257q23 159 -10 257t-111 98t-138 -97.5
t-83 -257.5q-22 -159 11 -257t111 -98z" />
    <glyph glyph-name="one.numr" horiz-adv-x="1600" 
d="M1380 2397q21 0 34.5 -15t10.5 -37l-211 -1499q-3 -22 -20.5 -37.5t-39.5 -15.5h-500q-22 0 -35 15.5t-10 37.5l146 1035l-234 -98q-22 -10 -41.5 -2.5t-25.5 28.5l-103 321q-8 22 3 42.5t35 30.5l451 179q37 15 81 15h459z" />
    <glyph glyph-name="two.numr" horiz-adv-x="1591" 
d="M1614 1905q-27 -190 -171.5 -365.5t-415.5 -325.5h467q22 0 35 -15.5t10 -37.5l-44 -315q-3 -22 -20.5 -37.5t-39.5 -15.5h-1282q-32 0 -46.5 17.5t-10.5 48.5l18 126q8 60 40 82q200 127 351.5 237t241 188.5t146.5 147t78.5 112.5t27.5 85q10 75 -24.5 110.5
t-117.5 35.5q-48 0 -94 -11t-99.5 -39.5t-78 -43t-85.5 -54.5q-45 -30 -88 32l-135 196q-20 35 -13 55.5t39 47.5q148 124 341.5 197.5t411.5 73.5q298 0 445 -142.5t113 -389.5z" />
    <glyph glyph-name="three.numr" horiz-adv-x="1628" 
d="M1355 1623q112 -55 173 -141t61 -200q0 -164 -106 -285t-284 -182t-402 -61q-440 0 -674 270q-17 20 -23 32.5t-1 30.5t27 40l191 196q59 61 96 32q49 -37 77.5 -57t75 -44.5t95.5 -35.5t107 -11q93 0 151.5 28.5t58.5 81.5q0 37 -37 64t-94 41t-128 17q-22 1 -34.5 15.5
t-9.5 36.5l29 213q4 22 20.5 37t40.5 17q120 8 188 46.5t68 100.5q0 78 -139 78q-70 0 -147.5 -25t-120 -48t-106.5 -62q-15 -9 -27 -10.5t-23 4.5t-19.5 15t-18.5 24l-126 182q-16 23 -15.5 41t10 30.5t31.5 31.5q141 123 341.5 197t423.5 74q258 0 405 -102t147 -286
q0 -273 -282 -426z" />
    <glyph glyph-name="four.numr" horiz-adv-x="1702" 
d="M1678 1477q32 0 46.5 -17.5t10.5 -48.5l-34 -237q-8 -65 -75 -65h-170l-37 -263q-3 -22 -20.5 -37.5t-39.5 -15.5h-434q-22 0 -35 15.5t-10 37.5l37 263h-780q-66 0 -57 65l22 157q2 15 13 26l920 1003q34 37 84 37h465q22 0 35.5 -15t10.5 -37l-123 -868h171zM692 1477
h277l50 357z" />
    <glyph glyph-name="five.numr" horiz-adv-x="1669" 
d="M1516 1957h-605l-44 -167q79 28 205 28q251 0 399.5 -115.5t148.5 -335.5q0 -135 -61 -250.5t-166.5 -194.5t-251 -123.5t-311.5 -44.5q-463 0 -689 251q-17 19 -23 31.5t-1 30.5t26 40l191 196q13 14 23 22t23 15t25.5 5.5t25.5 -10.5q91 -66 168.5 -97t188.5 -31
q92 0 152.5 37t60.5 101q0 98 -166 98q-102 0 -208 -23q-21 -3 -33 6l-261 180q-23 16 -15 45l173 681q15 65 75 65h1013q22 0 34.5 -15t9.5 -37l-46 -336q-3 -22 -21 -37t-40 -15z" />
    <glyph glyph-name="six.numr" horiz-adv-x="1653" 
d="M1192 1806q117 0 205.5 -40.5t136.5 -108.5t66.5 -151t5.5 -174q-16 -110 -64.5 -204t-121.5 -162t-166 -116t-197.5 -72t-215.5 -24q-157 0 -288.5 47t-225.5 134.5t-136.5 224t-19.5 304.5q14 101 45.5 195.5t87 191t132 180t186 157.5t242 127t307.5 85.5t376 36.5
q25 0 38.5 -15.5t10.5 -38.5l-44 -313q-3 -23 -20.5 -38t-40.5 -15q-274 -5 -437.5 -89.5t-247.5 -250.5q140 129 386 129zM890 1148q63 0 107 47.5t53 110.5q9 66 -21.5 112t-94.5 46q-68 0 -109 -45t-51 -113q-9 -65 19.5 -111.5t96.5 -46.5z" />
    <glyph glyph-name="seven.numr" horiz-adv-x="1590" 
d="M243 793q-37 0 -51 28t6 62l637 1028h-618q-22 0 -35.5 15t-10.5 37l54 382q3 22 20.5 37t39.5 15h1341q66 0 57 -65l-18 -127q-1 -11 -5.5 -23t-7 -17t-13 -22t-11.5 -19l-781 -1303q-17 -28 -47 -28h-557z" />
    <glyph glyph-name="eight.numr" horiz-adv-x="1747" 
d="M1448 1642q117 -40 179 -134.5t62 -215.5q0 -87 -32 -165.5t-99.5 -147t-165.5 -118.5t-238.5 -78.5t-309.5 -28.5q-145 0 -263.5 22.5t-200 62.5t-137.5 95.5t-81.5 120t-25.5 137.5q0 150 94.5 274t259.5 176q-84 38 -136 121t-52 189q0 216 202.5 350.5t576.5 134.5
q321 0 488 -108t167 -287q0 -136 -82 -242.5t-206 -157.5zM1029 2068q-65 0 -107.5 -37.5t-42.5 -101.5q0 -50 31.5 -77.5t84.5 -27.5q65 0 107.5 37.5t42.5 101.5q0 49 -31.5 77t-84.5 28zM902 1167q79 0 127.5 48t48.5 115q0 54 -35.5 90t-99.5 36q-79 0 -127.5 -48
t-48.5 -115q0 -54 35.5 -90t99.5 -36z" />
    <glyph glyph-name="nine.numr" horiz-adv-x="1653" 
d="M991 2437q157 0 289 -47t225.5 -134.5t136.5 -224t19 -304.5q-14 -100 -45 -194t-86.5 -188.5t-131.5 -175t-185 -151t-241 -119.5t-306 -77.5t-375 -28.5q-25 0 -39 15.5t-10 38.5l44 313q3 23 20 37.5t41 15.5q270 6 429 77.5t243 217.5q-137 -123 -380 -123
q-117 0 -205 40.5t-136 108t-66.5 151t-5.5 173.5q19 137 89.5 248t175 182.5t233 110t267.5 38.5zM898 1727q68 0 109 44.5t51 112.5q9 65 -19.5 111.5t-95.5 46.5q-64 0 -108 -47t-53 -111q-9 -66 21 -111.5t95 -45.5z" />
    </font>
</defs>
</svg>
