<?xml version="1.0" standalone="no"?>
<!DOCTYPE svg PUBLIC "-//W3C//DTD SVG 1.1//EN" "http://www.w3.org/Graphics/SVG/1.1/DTD/svg11.dtd" >
<svg xmlns="http://www.w3.org/2000/svg" xmlns:xlink="http://www.w3.org/1999/xlink" version="1.1">
<metadata>
Created by FontForge 20170731 at Fri Jun 24 01:07:06 2016
 By Aleksey,,,
Copyright (c) 2015 by Mateusz Machalski. All rights reserved.
</metadata>
<defs>
<font id="Migrena_Grotesque-Thinitalic" horiz-adv-x="1921" >
  <font-face 
    font-family="Migrena_Grotesque Thin"
    font-weight="200"
    font-style="italic"
    font-stretch="normal"
    units-per-em="4000"
    panose-1="0 0 3 0 0 0 0 0 0 0"
    ascent="3200"
    descent="-800"
    x-height="1600"
    cap-height="2440"
    bbox="-2040.4 -960 4159.64 3365.82"
    underline-thickness="50"
    underline-position="-200"
    slope="-8"
    unicode-range="U+0020-25CA"
  />
<missing-glyph horiz-adv-x="1680" 
d="M1378 2560v-3360h-1066v3360h1066zM1119 2335h-555v-111h219v-124h-222v-111h558v111h-222v124h222v111zM897 1901h-336v-349h558v114h-222v235zM783 1787v-121h-111v121h111zM1119 1461h-558v-111h222v-124h-222v-111h336v235h222v111zM1119 1260h-111v-222h-447v-114
h558v336zM1119 850h-336v-188h114v77h111v-158h-336v269h-111v-380h558v380zM1119 268h-558v-379h558v379zM1008 158v-158h-336v158h336zM1119 -188h-558v-111h235l-235 -158v-111h558v111h-343l235 158h108v111z" />
    <glyph glyph-name=".notdef" horiz-adv-x="1680" 
d="M1378 2560v-3360h-1066v3360h1066zM1119 2335h-555v-111h219v-124h-222v-111h558v111h-222v124h222v111zM897 1901h-336v-349h558v114h-222v235zM783 1787v-121h-111v121h111zM1119 1461h-558v-111h222v-124h-222v-111h336v235h222v111zM1119 1260h-111v-222h-447v-114
h558v336zM1119 850h-336v-188h114v77h111v-158h-336v269h-111v-380h558v380zM1119 268h-558v-379h558v379zM1008 158v-158h-336v158h336zM1119 -188h-558v-111h235l-235 -158v-111h558v111h-343l235 158h108v111z" />
    <glyph glyph-name=".null" horiz-adv-x="0" 
 />
    <glyph glyph-name="nonmarkingreturn" horiz-adv-x="1333" 
 />
    <glyph glyph-name="space" unicode=" " horiz-adv-x="750" 
 />
    <glyph glyph-name="exclam" unicode="!" horiz-adv-x="601" 
d="M504 2432q2 8 10 8h24q8 0 6 -8l-268 -1874q-2 -8 -9 -8h-14q-9 0 -7 8zM185 -20q-22 0 -37 16t-15 38q0 26 21 46t48 20q22 0 37 -16t15 -38q0 -26 -21 -46t-48 -20z" />
    <glyph glyph-name="quotedbl" unicode="&#x22;" horiz-adv-x="1040" 
d="M489 2502q0 8 9 8h24q7 0 7 -8l-102 -694q-2 -8 -10 -8h-14q-8 0 -6 8zM989 2502q0 8 9 8h24q7 0 7 -8l-102 -694q-2 -8 -10 -8h-14q-8 0 -6 8z" />
    <glyph glyph-name="numbersign" unicode="#" horiz-adv-x="2440" 
d="M2288 1556q9 0 7 -8l-5 -20q-2 -8 -10 -8h-460l-187 -780h443q8 0 6 -8l-4 -20q-2 -8 -10 -8h-443l-167 -696q-2 -8 -11 -8h-24q-7 0 -5 8l167 696h-840l-167 -696q-2 -8 -11 -8h-24q-7 0 -5 8l167 696h-461q-8 0 -6 8l4 20q2 8 10 8h461l187 780h-444q-8 0 -6 8l5 20
q2 8 9 8h444l167 696q2 8 10 8h24q8 0 6 -8l-167 -696h840l167 696q2 8 10 8h24q8 0 6 -8l-167 -696h460zM1593 740l187 780h-840l-187 -780h840z" />
    <glyph glyph-name="dollar" unicode="$" horiz-adv-x="2154" 
d="M2055 2240q9 -7 1 -17l-9 -13q-6 -10 -17 -2q-141 99 -306 157.5t-390 58.5q-405 0 -636 -173t-231 -464q0 -220 201 -343q122 -74 386 -143q34 -9 105 -26q268 -67 385 -115q244 -100 323 -266q43 -91 43 -208q0 -148 -51.5 -267.5t-138 -198.5t-205.5 -133.5t-247 -79
t-269 -27.5l-56 -396q-2 -9 -10 -9h-18q-3 0 -6 3t-2 6l56 396q-505 1 -810 277q-12 12 -5 20l9 12q8 9 18 1q151 -133 338 -203.5t456 -70.5q97 0 190 11t183 36t168 62t144.5 90.5t114 120t74 153.5t26.5 187q0 80 -23 148t-56.5 116.5t-94.5 91.5t-114 70t-139 55
t-145 44t-157 40q-79 19 -119.5 29.5t-113.5 32t-112.5 37.5t-98.5 43t-91.5 53.5t-72 64t-59 79t-33.5 94.5t-14 113q0 307 236 488t650 185l49 348q2 7 8 7h20q9 0 7 -7l-49 -348q231 -3 401 -63t307 -157z" />
    <glyph glyph-name="percent" unicode="%" horiz-adv-x="3073" 
d="M2374 2497q2 -1 3 -4.5t-1 -5.5l-1514 -2550q-6 -8 -11 -4l-20 10q-5 3 -3 10l1514 2550q4 8 12 4zM1402 1699q-49 -349 -222 -555.5t-413 -206.5t-355 206.5t-66 555.5q49 348 222 554.5t413 206.5t355 -206t66 -555zM771 971q226 0 385 195t207 533q47 337 -56.5 532
t-330.5 195t-385.5 -195t-205.5 -532q-48 -337 55.5 -532.5t330.5 -195.5zM2424 1503q240 0 355 -206.5t66 -554.5q-49 -349 -222 -555.5t-413 -206.5t-355 206.5t-66 555.5t222 555t413 206zM2215 14q227 0 385.5 195.5t205.5 532.5t-56.5 532t-330.5 195t-385.5 -195
t-205.5 -532t56.5 -532.5t330.5 -195.5z" />
    <glyph glyph-name="ampersand" unicode="&#x26;" horiz-adv-x="2221" 
d="M2012 1131q6 -2 4 -10q-162 -413 -375 -684l346 -418q5 -6 2 -12.5t-10 -6.5h-20q-5 0 -9 4l-333 403q-366 -447 -844 -447q-277 0 -443 146t-166 388q0 265 174 468t512 374q-199 251 -199 522q0 145 51.5 260.5t142 189.5t211.5 113t263 39q141 0 254.5 -47.5
t243.5 -151.5q6 -5 -1 -12l-17 -17q-6 -6 -11 -1q-111 106 -225.5 149.5t-249.5 43.5q-180 0 -318 -61.5t-220.5 -189.5t-82.5 -308q0 -279 223 -549l703 -850q206 264 368 662q3 8 12 6zM777 -4q457 0 816 440l-721 873q-338 -171 -502.5 -362.5t-164.5 -447.5
q0 -230 155 -366.5t417 -136.5z" />
    <glyph glyph-name="quotesingle" unicode="'" horiz-adv-x="540" 
d="M489 2502q0 8 9 8h24q7 0 7 -8l-102 -694q-2 -8 -10 -8h-14q-8 0 -6 8z" />
    <glyph glyph-name="parenleft" unicode="(" horiz-adv-x="997" 
d="M294 629q0 -318 78.5 -629.5t219.5 -572.5q4 -8 -4 -12l-16 -10q-9 -4 -12 2q-151 247 -228 569t-77 661q0 535 189.5 1003.5t557.5 912.5q6 6 12 2l14 -10q8 -4 0 -12q-243 -297 -401 -585.5t-245.5 -621t-87.5 -697.5z" />
    <glyph glyph-name="parenright" unicode=")" horiz-adv-x="1000" 
d="M488 2553q146 -266 224 -592.5t78 -662.5q0 -529 -181.5 -1010.5t-562.5 -880.5q-6 -6 -13 -2l-13 10q-8 4 0 12q731 821 731 1873q0 331 -76 649t-219 584q-6 8 4 12l16 10q8 4 12 -2z" />
    <glyph glyph-name="asterisk" unicode="*" horiz-adv-x="1624" 
d="M1619 2543q2 -8 -7 -10l-549 -171l261 -446q5 -7 -3 -12l-21 -13q-2 -2 -6 -1.5t-5 2.5l-261 447l-387 -447q-5 -5 -11 -1l-17 13q-2 2 -2.5 6t1.5 6l387 446l-501 171q-7 2 -3 10l10 22q4 8 11 6l500 -171l78 552q0 8 9 8h24q7 0 7 -8l-78 -552l-23 -26l24 26l548 171
q2 1 5.5 -1t4.5 -5z" />
    <glyph glyph-name="plus" unicode="+" horiz-adv-x="2036" 
d="M1824 1060q7 0 7 -8l-2 -20q-2 -8 -10 -8h-752l-105 -752q-2 -8 -10 -8h-20q-8 0 -6 8l105 752h-752q-8 0 -6 8l2 20q0 8 9 8h753l105 752q0 8 9 8h20q7 0 7 -8l-105 -752h751z" />
    <glyph glyph-name="comma" unicode="," horiz-adv-x="622" 
d="M221 100q23 0 36.5 -16.5t13.5 -47.5q0 -54 -18.5 -122t-69 -154t-124.5 -152q-8 -7 -15 0l-8 8q-4 6 2 12q74 66 121.5 157t47.5 164q0 14 -5.5 21t-21.5 14q-28 13 -28 46q0 29 21 49.5t48 20.5z" />
    <glyph glyph-name="hyphen" unicode="-" horiz-adv-x="1637" 
d="M267 924q-8 0 -8 8l3 20q2 8 10 8h1140q8 0 6 -8l-2 -20q0 -8 -9 -8h-1140z" />
    <glyph glyph-name="period" unicode="." horiz-adv-x="601" 
d="M185 -20q-22 0 -37 16t-15 38q0 26 21 46t48 20q22 0 37 -16t15 -38q0 -26 -21 -46t-48 -20z" />
    <glyph glyph-name="slash" unicode="/" horiz-adv-x="1434" 
d="M1570 2603q4 8 12 4l20 -10q6 -2 3 -10l-1609 -2650q-4 -8 -12 -4l-19 10q-8 2 -3 10z" />
    <glyph glyph-name="zero" unicode="0" horiz-adv-x="2160" 
d="M1313 2460q258 0 431.5 -150.5t240.5 -432t14 -657.5q-40 -282 -134 -514t-228 -391.5t-306.5 -247t-365.5 -87.5q-258 0 -431.5 150.5t-240.5 432t-14 657.5q40 282 134 514t228 391.5t306.5 247t365.5 87.5zM970 16q244 0 450.5 147.5t347 421t191.5 635.5
q40 274 11 496.5t-113 380t-225 242.5t-324 85q-244 0 -450.5 -147.5t-347 -421t-191.5 -635.5q-40 -274 -11 -496.5t113 -380t225 -242.5t324 -85z" />
    <glyph glyph-name="one" unicode="1" horiz-adv-x="1404" 
d="M1126 2440q9 0 7 -8l-341 -2424q0 -8 -9 -8h-24q-7 0 -7 8l336 2391l-571 -282q-7 -4 -11 4l-7 19q-2 7 6 11l588 285q8 4 19 4h14z" />
    <glyph glyph-name="two" unicode="2" horiz-adv-x="2030" 
d="M1869 1838q-21 -152 -103.5 -310.5t-216.5 -321.5t-341.5 -352t-454 -383.5t-577.5 -434.5h1528q7 0 7 -8l-2 -20q-2 -8 -10 -8h-1584q-8 0 -6 8l2 16q0 9 5 12q330 236 582.5 434.5t460.5 388t346 354.5t221 322t103 303q19 132 -5 238t-90.5 184.5t-183.5 121
t-278 42.5q-415 0 -789 -376q-8 -8 -16 2l-8 9q-5 5 6 17q382 384 823 384q164 0 286 -45.5t192 -128.5t96.5 -196.5t6.5 -251.5z" />
    <glyph glyph-name="three" unicode="3" horiz-adv-x="2038" 
d="M1175 1259q326 -35 483.5 -179t157.5 -379q0 -226 -113 -390t-311.5 -247.5t-461.5 -83.5q-140 0 -264.5 31t-221 86t-169.5 121t-130 146q-8 11 -1 17l10 9q12 10 17 2q54 -78 127.5 -144t166.5 -119t211.5 -83t247.5 -30q258 0 449 78t297 232.5t106 370.5
q0 261 -204 402.5t-632 141.5q-8 0 -6 8l2 14q0 8 9 8q215 0 390 53.5t290 147.5t177 220.5t62 273.5q0 221 -142 339.5t-429 118.5q-432 0 -786 -356q-9 -9 -17 2l-8 9q-4 6 7 17q364 364 820 364q295 0 445 -128t150 -363q0 -274 -190.5 -464.5t-538.5 -245.5z" />
    <glyph glyph-name="four" unicode="4" horiz-adv-x="2146" 
d="M1962 690q7 0 7 -8l-2 -20q-2 -8 -10 -8h-444l-91 -646q-2 -8 -10 -8h-24q-8 0 -6 8l91 646h-1356q-8 0 -6 8l2 18q0 3 3 6l1607 1750q3 4 18 4h14q7 0 7 -8l-245 -1742h445zM171 690h1306l236 1679z" />
    <glyph glyph-name="five" unicode="5" horiz-adv-x="2078" 
d="M1953 2440q7 0 7 -8l-3 -20q-2 -8 -9 -8h-1202l-293 -1151q170 91 325.5 132.5t323.5 41.5q158 0 293 -42t236 -121t158.5 -201.5t57.5 -275.5q0 -157 -50.5 -289.5t-138.5 -226.5t-207 -160.5t-256 -98.5t-285 -32q-138 0 -254.5 26.5t-206.5 77t-158.5 113.5
t-128.5 147q-8 11 -1 17l10 9q12 10 17 2q245 -356 716 -356q145 0 277.5 30t247 92.5t198.5 152t132 216t48 277.5q0 146 -55 262.5t-151 191t-225 114t-279 39.5q-314 0 -656 -179q-3 -2 -5 0l-27 13q-4 3 -3 7l304 1200q0 8 9 8h1234z" />
    <glyph glyph-name="six" unicode="6" horiz-adv-x="2036" 
d="M1136 1510q227 0 391.5 -96.5t238.5 -269.5t43 -394q-31 -222 -159.5 -398t-324.5 -274t-424 -98q-227 0 -395 98t-246 274t-47 398q44 311 131 572.5t223 473t313.5 358.5t408.5 226.5t503 79.5q8 0 6 -8l-2 -20q-2 -8 -9 -8q-243 0 -453 -67t-375.5 -190.5t-297 -302
t-222.5 -399.5t-146 -485q110 232 340.5 381t502.5 149zM906 16q213 0 400.5 95t310.5 263t152 376q22 158 -13 292.5t-118 229.5t-213.5 148.5t-293.5 53.5q-160 0 -314.5 -61t-270.5 -161.5t-194.5 -232t-98.5 -268.5v-1q-29 -208 45.5 -376t234.5 -263t373 -95z" />
    <glyph glyph-name="seven" unicode="7" horiz-adv-x="2010" 
d="M516 0q-5 0 -6.5 4.5t1.5 9.5l1448 2390h-1566q-8 0 -6 8l2 20q0 8 9 8h1604q7 0 7 -8l-2 -16l-6 -12l-1449 -2400q-4 -4 -8 -4h-28z" />
    <glyph glyph-name="eight" unicode="8" horiz-adv-x="2067" 
d="M1277 1276q84 -13 161 -40t149 -74t124.5 -108.5t84 -149t31.5 -189.5q0 -222 -116.5 -390t-322.5 -256.5t-470 -88.5q-334 0 -529.5 153.5t-195.5 420.5q0 135 44.5 249t116 192.5t168.5 138.5t196 93t205 49q-92 16 -175 53.5t-155.5 97.5t-115.5 151.5t-43 203.5
q0 139 62 264t170 216t264.5 144.5t336.5 53.5q152 0 277 -41.5t208.5 -114.5t129 -172.5t45.5 -215.5t-40.5 -216t-105.5 -169.5t-152 -123.5t-174 -84.5t-178 -46.5zM474 1789q0 -147 80.5 -259.5t223.5 -173t325 -60.5q213 0 391 75.5t285.5 217.5t107.5 321
q0 223 -169.5 368.5t-455.5 145.5q-169 0 -317 -50.5t-250.5 -136.5t-161.5 -202.5t-59 -245.5zM923 16q248 0 445 87.5t308 245.5t111 359q0 248 -187 398t-503 150q-248 0 -444.5 -87.5t-307.5 -245.5t-111 -359q0 -248 187 -398t502 -150z" />
    <glyph glyph-name="nine" unicode="9" horiz-adv-x="1976" 
d="M1223 2460q163 0 297 -57.5t221 -158.5t125 -244.5t15 -309.5q-40 -285 -119.5 -532t-210 -462.5t-301.5 -368t-405 -240t-510 -87.5q-7 0 -7 8l3 20q2 8 9 8q244 0 455 72t370.5 198.5t286 306.5t211 388.5t136.5 451.5q-109 -229 -330.5 -376t-480.5 -147
q-217 0 -375 96.5t-228.5 270t-39.5 393.5q31 221 156 397.5t314.5 274.5t407.5 98zM993 966q153 0 301.5 61t261 161.5t189 232t96.5 268.5v1q29 208 -42.5 376t-224.5 263t-356 95q-152 0 -295 -56t-254 -152.5t-186.5 -233t-97.5 -292.5q-30 -211 36.5 -376t215.5 -256.5
t356 -91.5z" />
    <glyph glyph-name="colon" unicode=":" horiz-adv-x="601" 
d="M399 1500q-22 0 -37 16t-15 38q0 26 21 46t48 20q22 0 37 -16t15 -38q0 -26 -21 -46t-48 -20zM185 -20q-22 0 -37 16t-15 38q0 26 21 46t48 20q22 0 37 -16t15 -38q0 -26 -21 -46t-48 -20z" />
    <glyph glyph-name="semicolon" unicode=";" horiz-adv-x="622" 
d="M419 1500q-22 0 -37 16t-15 38q0 26 21 46t48 20q22 0 37 -16t15 -38q0 -26 -21 -46t-48 -20zM221 100q23 0 36.5 -16.5t13.5 -47.5q0 -54 -18.5 -122t-69 -154t-124.5 -152q-8 -7 -15 0l-8 8q-4 6 2 12q74 66 121.5 157t47.5 164q0 14 -5.5 21t-21.5 14q-28 13 -28 46
q0 29 21 49.5t48 20.5z" />
    <glyph glyph-name="less" unicode="&#x3c;" horiz-adv-x="2036" 
d="M1926 1727q-1 -4 -10 -8l-1601 -683l1409 -683q8 -4 7 -8l-3 -25q-1 -3 -4 -6t-5 -2l-1442 700q-7 4 -6 10l4 28q1 6 9 10l1638 700q3 1 5 -1.5t2 -6.5z" />
    <glyph glyph-name="equal" unicode="=" horiz-adv-x="2139" 
d="M346 1374q-7 0 -7 8l3 20q2 8 9 8h1540q9 0 7 -8l-3 -20q0 -8 -9 -8h-1540zM248 674q-8 0 -8 8l3 20q2 8 10 8h1540q8 0 6 -8l-2 -20q0 -8 -9 -8h-1540z" />
    <glyph glyph-name="greater" unicode="&#x3e;" horiz-adv-x="2037" 
d="M371 1727l4 25q1 3 4 6t5 2l1442 -700q7 -4 6 -10l-4 -28q0 -6 -9 -10l-1638 -700q-3 -1 -5.5 2t-2.5 6l4 25q1 4 10 8l1601 683l-1409 683q-8 4 -8 8z" />
    <glyph glyph-name="question" unicode="?" horiz-adv-x="1650" 
d="M1686 1962q0 220 -136.5 341t-398.5 121q-384 0 -716 -286q-12 -10 -17 2l-6 13q-4 9 6 17q179 140 354 215t395 75q270 0 414 -131t144 -367q0 -105 -24.5 -196.5t-67 -162t-98.5 -134.5t-121.5 -123t-132.5 -118t-134.5 -128.5t-126 -145.5t-108 -178t-78.5 -218
q-2 -8 -9 -8h-24q-3 0 -5.5 2t-1.5 5q29 117 79 221t108 181.5t126 148t135 130t132.5 119t121.5 123t98.5 133t67 158.5t24.5 191zM751 -20q-22 0 -37 16t-15 38q0 26 21 46t48 20q22 0 37 -16t15 -38q0 -26 -21 -46t-48 -20z" />
    <glyph glyph-name="at" unicode="@" horiz-adv-x="3165" 
d="M1986 -525q0 -7 -6 -7q-332 -79 -587 -79q-246 0 -448.5 66t-341 179.5t-233 269t-138 331t-43.5 369.5q0 221 57 424t159.5 369.5t248 303t320.5 229.5t379.5 143.5t421.5 50.5q211 0 392 -42t331.5 -130.5t257 -218t165 -312.5t58.5 -406q0 -143 -24 -286t-73.5 -274.5
t-119 -232.5t-168 -161.5t-212.5 -60.5q-92 0 -158.5 29.5t-103 81.5t-57 122.5t-20 152t7.5 170.5q-10 -58 -43.5 -129t-92 -146.5t-131.5 -138t-171 -102.5t-201 -40q-87 0 -161 19t-139.5 63.5t-111 111.5t-72 168.5t-26.5 229.5q0 271 103 493t293 351.5t430 127.5
q88 -1 180 -18t263 -60q5 -1 5 -8l-88 -893q-15 -123 -6.5 -224t38 -173.5t95.5 -112t167 -39.5q108 0 200.5 58.5t157 156t110.5 225t67.5 264.5t21.5 275q0 220 -56.5 398.5t-158.5 303t-247.5 208.5t-321 123.5t-380.5 39.5q-209 0 -407 -49.5t-368.5 -140.5
t-313.5 -224.5t-244 -296t-157 -360.5t-56 -413q0 -132 21.5 -257t67 -242.5t112.5 -219t162.5 -186.5t212.5 -145t267 -94t321 -35q251 -1 582 77q4 1 7.5 -1t3.5 -7v-19zM1416 40q160 0 302 98t236.5 273t116.5 391l65 654q-237 72 -408 72q-227 0 -407 -122
t-279.5 -335.5t-99.5 -478.5q0 -122 25 -217.5t67.5 -157.5t104 -102.5t129.5 -57.5t148 -17z" />
    <glyph glyph-name="A" unicode="A" horiz-adv-x="2370" 
d="M2178 8q1 -4 -0.5 -6t-3.5 -2h-5h-24q-9 0 -11 8l-273 936h-1299l-544 -936q-5 -8 -13 -8h-28q-12 0 -7 8l1439 2464q5 8 12 8h20q8 0 11 -8zM583 980h1268l-424 1452z" />
    <glyph glyph-name="B" unicode="B" horiz-adv-x="2213" 
d="M1374 1260q180 -2 319.5 -66t220 -187.5t80.5 -288.5q0 -121 -33.5 -227t-107 -197t-181.5 -156t-265 -101.5t-350 -36.5h-900h-12q-8 0 -6 8l340 2424q0 8 9 8h24h808q390 0 576.5 -135t186.5 -382q0 -126 -38.5 -234t-106 -185.5t-157.5 -132.5t-193 -82.5t-214 -28.5z
M515 2404l-158 -1128h880q400 0 603 172t203 472q0 484 -728 484h-800zM1062 36q187 0 337.5 35t253 96t171 148t99.5 187.5t31 216.5t-42.5 210.5t-128 165.5t-225.5 110t-326 39h-880l-169 -1208h879z" />
    <glyph glyph-name="C" unicode="C" horiz-adv-x="2585" 
d="M2356 626q1 0 1.5 -1l2 -4t-1.5 -7q-406 -634 -1066 -634q-216 0 -403.5 75.5t-324 212t-215 338.5t-78.5 442q0 209 52.5 400.5t145.5 345.5t222 280t280.5 210t322.5 130t346 46q654 0 888 -634q1 -4 0 -6.5t-3 -3.5l-2 -2l-19 -8q-8 -4 -11 4q-114 318 -329 466
t-529 148q-167 0 -331.5 -45t-311 -127t-271.5 -204.5t-215.5 -271.5t-142 -334t-51.5 -386q0 -233 76 -429t208.5 -329t313 -207.5t387.5 -74.5q634 0 1030 614q2 4 5.5 5t5.5 0l2 -1z" />
    <glyph glyph-name="D" unicode="D" horiz-adv-x="2437" 
d="M1220 2440q231 0 426 -70.5t337 -201.5t221.5 -329t79.5 -442q0 -216 -52 -409.5t-145.5 -345.5t-223.5 -274t-286.5 -202.5t-334 -123t-365.5 -42.5h-720h-12q-8 0 -6 8l340 2424q0 8 9 8h24h708zM882 36q216 0 418 58.5t373 174t299 276.5t200 378t72 466
q0 236 -78 429t-215.5 320.5t-326 196.5t-409.5 69h-700l-332 -2368h699z" />
    <glyph glyph-name="E" unicode="E" horiz-adv-x="2060" 
d="M2032 2440q7 0 7 -8l-3 -20q-2 -8 -9 -8h-1512l-155 -1104h1352q7 0 7 -8l-3 -20q-2 -8 -9 -8h-1352l-172 -1228h1551q7 0 7 -8l-2 -20q-2 -8 -10 -8h-1564h-20q-8 0 -6 8l340 2424q0 8 9 8h24h1520z" />
    <glyph glyph-name="F" unicode="F" horiz-adv-x="1960" 
d="M1992 2440q7 0 7 -8l-3 -20q-2 -8 -9 -8h-1472l-172 -1224h1392q7 0 7 -8l-3 -20q-2 -8 -9 -8h-1392l-159 -1136q-2 -8 -10 -8h-24q-8 0 -6 8l340 2424q0 8 9 8h24h1480z" />
    <glyph glyph-name="G" unicode="G" horiz-adv-x="2629" 
d="M2408 1060q6 0 6 -8l-110 -780q-267 -162 -497 -227t-515 -65q-216 0 -403.5 75.5t-324 212t-215 338.5t-78.5 442q0 209 52.5 400.5t145.5 345.5t222 280t280.5 210t322.5 130t346 46q167 0 300 -35t239.5 -107t188.5 -175t154 -247q2 -4 0.5 -6.5t-4.5 -3.5l-2 -2
l-19 -8q-7 -4 -11 4q-137 283 -336 413.5t-515 130.5q-167 0 -331.5 -45t-311 -127t-271.5 -204.5t-215.5 -271.5t-142 -334t-51.5 -386q0 -233 76 -429t208.5 -329t313 -207.5t387.5 -74.5q264 0 487.5 60.5t481.5 209.5l108 766q0 8 10 8h24z" />
    <glyph glyph-name="H" unicode="H" horiz-adv-x="2420" 
d="M2392 2440q7 0 7 -8l-340 -2424q-2 -8 -10 -8h-24q-8 0 -6 8l176 1256h-1840l-176 -1256q-2 -8 -10 -8h-24q-8 0 -6 8l340 2424q0 8 9 8h24q7 0 7 -8l-159 -1132h1840l159 1132q0 8 9 8h24z" />
    <glyph glyph-name="I" unicode="I" horiz-adv-x="540" 
d="M479 2432q0 8 9 8h24q7 0 7 -8l-340 -2424q-2 -8 -10 -8h-24q-8 0 -6 8z" />
    <glyph glyph-name="J" unicode="J" horiz-adv-x="1713" 
d="M1685 2440q9 0 7 -8l-241 -1712q-52 -368 -253.5 -554t-534.5 -186q-232 0 -377 113.5t-226 331.5q-4 11 4 15l21 8q9 3 12 -6q74 -211 212 -318.5t355 -107.5q648 0 747 704l241 1712q0 8 9 8h24z" />
    <glyph glyph-name="K" unicode="K" horiz-adv-x="2147" 
d="M514 2440q8 0 6 -8l-340 -2424q0 -8 -9 -8h-24q-8 0 -8 8l341 2424q2 8 10 8h24zM1852 12q10 -12 -5 -12h-28q-12 0 -19 8l-1065 1234l1405 1190q10 8 22 8h28q7 0 3 -7q-1 -2 -5 -5l-1401 -1190z" />
    <glyph glyph-name="L" unicode="L" horiz-adv-x="1871" 
d="M1646 36q8 0 6 -8l-2 -20q0 -8 -9 -8h-1494q-8 0 -8 8l341 2424q2 8 10 8h24q8 0 6 -8l-337 -2396h1463z" />
    <glyph glyph-name="M" unicode="M" horiz-adv-x="2820" 
d="M2776 2468q9 12 18 12h4q7 0 7 -8l-346 -2464q-2 -8 -10 -8h-24q-8 0 -6 8l332 2364l-1368 -1824q-11 -14 -17 0l-855 1824l-332 -2364q-2 -8 -10 -8h-24q-8 0 -6 8l346 2464q0 8 9 8h4q8 0 14 -12l871 -1860z" />
    <glyph glyph-name="N" unicode="N" horiz-adv-x="2460" 
d="M2432 2440q7 0 7 -8l-346 -2464q-2 -8 -9 -8h-4q-10 0 -14 7l-1552 2425l-335 -2384q-2 -8 -10 -8h-24q-8 0 -6 8l346 2464q0 8 9 8h4q7 0 13 -7l1553 -2425l335 2384q0 8 9 8h24z" />
    <glyph glyph-name="O" unicode="O" horiz-adv-x="2813" 
d="M1640 2460q216 0 403.5 -75.5t324 -212t215 -338.5t78.5 -442q0 -209 -52.5 -400.5t-145.5 -345.5t-222 -280t-280.5 -210t-322.5 -130t-346 -46q-216 0 -403.5 75.5t-324 212t-215 338.5t-78.5 442q0 209 52.5 400.5t145.5 345.5t222 280t280.5 210t322.5 130t346 46z
M1297 16q167 0 331.5 45t311 127t271.5 204.5t215.5 271.5t142 334t51.5 386q0 233 -76 429t-208 329t-313 207.5t-388 74.5q-167 0 -331.5 -45t-311 -127t-271.5 -204.5t-215.5 -271.5t-142 -334t-51.5 -386q0 -233 76 -429t208.5 -329t313 -207.5t387.5 -74.5z" />
    <glyph glyph-name="P" unicode="P" horiz-adv-x="2083" 
d="M1280 2440q166 0 300 -34t223.5 -92.5t150 -139.5t87 -171.5t26.5 -192.5q0 -123 -35 -237.5t-112.5 -219.5t-190.5 -183t-280.5 -124t-370.5 -46h-760l-139 -992q-2 -8 -10 -8h-24q-8 0 -6 8l340 2424q0 8 9 8h24h768zM1083 1036q197 0 358.5 44.5t268.5 118.5
t180 174.5t105 209t32 224.5q0 96 -25 181.5t-82 162.5t-142 132.5t-214 88t-289 32.5h-760l-192 -1368h760z" />
    <glyph glyph-name="Q" unicode="Q" horiz-adv-x="2813" 
d="M2661 1392q0 -211 -54 -405t-150 -349.5t-227 -281t-287 -210t-328 -127.5q10 -115 59 -206.5t122 -146t156 -82.5t168 -28q9 0 7 -8l-3 -20q-2 -8 -9 -8q-93 0 -182.5 31t-165 90t-126.5 155t-60 215q-147 -31 -289 -31q-216 0 -403.5 75.5t-324 212t-215 338.5
t-78.5 442q0 209 52.5 400.5t145.5 345.5t222 280t280.5 210t322.5 130t346 46q216 0 403.5 -75.5t324 -212t215 -338.5t78.5 -442zM1297 16q167 0 331.5 45t311 127t271.5 204.5t215.5 271.5t142 334t51.5 386q0 233 -76 429t-208 329t-313 207.5t-388 74.5
q-167 0 -331.5 -45t-311 -127t-271.5 -204.5t-215.5 -271.5t-142 -334t-51.5 -386q0 -233 76 -429t208.5 -329t313 -207.5t387.5 -74.5z" />
    <glyph glyph-name="R" unicode="R" horiz-adv-x="2228" 
d="M2030 1828q0 -109 -27.5 -211t-89 -196t-151 -168.5t-221 -127.5t-292.5 -73l539 -1036q2 -4 -1 -10t-10 -6h-20q-8 0 -14 12l-539 1035q-89 -7 -161 -7h-719l-145 -1032q-2 -8 -10 -8h-24q-8 0 -6 8l340 2424q0 8 9 8h24h728q166 0 300.5 -32.5t224.5 -88.5
t150.5 -134.5t87.5 -167t27 -189.5zM1048 1076q198 0 358.5 42t267.5 113t179 168t104 203.5t32 222.5q0 120 -41.5 221.5t-128 183t-236 128t-348.5 46.5h-720l-186 -1328h719z" />
    <glyph glyph-name="S" unicode="S" horiz-adv-x="2154" 
d="M467 1787q0 -220 201 -343q122 -74 386 -143q34 -9 105 -26q268 -67 385 -115q244 -100 323 -266q43 -91 43 -208q0 -127 -37.5 -233t-104.5 -182t-155.5 -133t-195.5 -91t-219 -50.5t-231 -16.5q-508 0 -814 277q-12 12 -5 20l9 12q8 9 18 1q151 -133 338 -203.5
t456 -70.5q97 0 190 11t183 36t168 62t144.5 90.5t114 120t74 153.5t26.5 187q0 80 -23 148t-56.5 116.5t-94.5 91.5t-114 70t-139 55t-145 44t-157 40q-79 19 -119.5 29.5t-113.5 32t-112.5 37.5t-98.5 43t-91.5 53.5t-72 64t-59 79t-33.5 94.5t-14 113q0 310 240 491.5
t662 181.5q239 0 413 -60t314 -160q9 -7 1 -17l-9 -13q-6 -10 -17 -2q-141 99 -306 157.5t-390 58.5q-405 0 -636 -173t-231 -464z" />
    <glyph glyph-name="T" unicode="T" horiz-adv-x="2340" 
d="M2372 2440q7 0 7 -8l-2 -20q-2 -8 -10 -8h-952l-336 -2396q-2 -8 -10 -8h-24q-8 0 -6 8l336 2396h-952q-8 0 -6 8l2 20q0 8 9 8h984h960z" />
    <glyph glyph-name="U" unicode="U" horiz-adv-x="2380" 
d="M2352 2440q7 0 7 -8l-201 -1432q-70 -496 -354 -768t-733 -272t-656 272t-137 768l201 1432q0 8 9 8h24q7 0 7 -8l-201 -1432q-68 -481 128 -742.5t630 -261.5t704 261.5t338 742.5l201 1432q0 8 9 8h24z" />
    <glyph glyph-name="V" unicode="V" horiz-adv-x="2286" 
d="M2428 2440q12 0 7 -9l-1375 -2463q-5 -8 -14 -8h-19q-8 0 -10 8l-706 2464v4.5t2 2.5t3.5 1h3.5h24q8 0 11 -8l687 -2424l1349 2424q4 8 13 8h24z" />
    <glyph glyph-name="W" unicode="W" horiz-adv-x="3163" 
d="M3304 2440q11 0 8 -8l-1095 -2464q-4 -8 -12 -8h-17q-8 0 -10 8l-393 2276l-1027 -2276q-4 -8 -12 -8h-18q-9 0 -10 8l-408 2463q-1 4 2 6.5t8 2.5h20q9 0 10 -8l394 -2412l1030 2292q4 8 12 8h18q8 0 9 -8l391 -2292l1069 2413q2 7 11 7h20z" />
    <glyph glyph-name="X" unicode="X" horiz-adv-x="2572" 
d="M2435 2440q14 0 2 -12l-1124 -1201l801 -1215q8 -12 -6 -12h-20q-13 0 -19 8l-784 1189l-1121 -1193q-4 -4 -12 -4h-16q-16 0 -2 16l1133 1208l-790 1200q-5 12 -2 14t12 2h12q7 0 9.5 -0.5t5.5 -3t7 -9.5l774 -1173l1099 1178q8 8 21 8h20z" />
    <glyph glyph-name="Y" unicode="Y" horiz-adv-x="2207" 
d="M2348 2440q13 0 7 -8l-1209 -1539l-124 -885q0 -8 -8 -8h-24q-8 0 -8 8l124 887l-795 1537v4.5t2 2.5t3.5 1h3.5h24q7 0 11 -8l777 -1500l1179 1500q7 8 14 8h23z" />
    <glyph glyph-name="Z" unicode="Z" horiz-adv-x="2290" 
d="M105 0q-8 0 -6 8l2 16q0 7 5 12l2138 2368h-1741q-9 0 -7 8l3 20q0 8 9 8h1784q7 0 7 -8l-2 -16q-3 -9 -6 -12l-2137 -2368h1820q7 0 7 -8l-2 -20q-2 -8 -10 -8h-1864z" />
    <glyph glyph-name="bracketleft" unicode="[" horiz-adv-x="827" 
d="M851 2524h-318l-434 -3088h318q8 0 6 -8l-2 -20q0 -8 -9 -8h-350q-8 0 -8 8l442 3144q2 8 10 8h350q8 0 6 -8l-2 -20q0 -8 -9 -8z" />
    <glyph glyph-name="backslash" unicode="\" horiz-adv-x="2176" 
d="M367 2603l1608 -2650q5 -8 -3 -10l-19 -10q-8 -4 -12 4l-1609 2650q-3 8 3 10l20 10q8 4 12 -4z" />
    <glyph glyph-name="bracketright" unicode="]" horiz-adv-x="827" 
d="M816 2560q8 0 6 -8l-441 -3144q-2 -8 -9 -8h-350q-8 0 -8 8l3 20q2 8 10 8h318l434 3088h-318q-7 0 -7 8l2 20q2 8 10 8h350z" />
    <glyph glyph-name="asciicircum" unicode="^" horiz-adv-x="1571" 
d="M1638 1857q3 -5 -0.5 -11t-10.5 -6h-25q-4 0 -6 3l-534 925l-794 -925q-2 -3 -6 -3h-25q-7 0 -9.5 6t2.5 11l811 938q3 5 7 5h38q2 0 5 -5z" />
    <glyph glyph-name="underscore" unicode="_" horiz-adv-x="1359" 
d="M7 -36q-8 0 -6 8l2 20q0 8 9 8h1340q7 0 7 -8l-2 -20q-2 -8 -10 -8h-1340z" />
    <glyph glyph-name="grave" unicode="`" horiz-adv-x="568" 
d="M531 1860l-471 464q-6 6 1 12l14 12q6 6 12 0l470 -464q5 -6 -1 -12l-14 -12q-7 -6 -11 0z" />
    <glyph glyph-name="a" unicode="a" horiz-adv-x="2039" 
d="M1756 600q-14 -104 -17.5 -187t5.5 -155t20 -121t32 -123q3 -10 -6 -14l-11 -5q-10 -5 -13 3q-95 262 -63 519q-113 -241 -339.5 -389t-494.5 -148q-146 0 -273.5 51t-220.5 142.5t-146.5 226t-53.5 292.5q0 162 50.5 308.5t139 258t205 194t253 125t277.5 42.5
q268 0 452 -162t226 -419l78 553q2 8 9 8h24q7 0 7 -8zM874 16q174 0 335.5 70t280.5 187t190.5 279.5t71.5 339.5q0 197 -81.5 354.5t-232 247.5t-343.5 90q-113 0 -222.5 -29t-207 -82.5t-180.5 -133.5t-142.5 -176.5t-93.5 -217t-34 -250.5q0 -152 50.5 -280t139 -215
t209.5 -135.5t260 -48.5z" />
    <glyph glyph-name="b" unicode="b" horiz-adv-x="2054" 
d="M1165 1620q146 0 273.5 -51t220.5 -142.5t146.5 -226t53.5 -292.5q0 -162 -50.5 -308.5t-139 -258t-204.5 -194t-252.5 -125t-277.5 -42.5q-267 0 -451.5 161.5t-227.5 417.5l-77 -551q-2 -8 -10 -8h-24q-8 0 -6 8l357 2544q2 8 9 8h24q9 0 7 -8l-207 -1475
q112 243 339.5 393t496.5 150zM940 16q112 0 222 29t207 82.5t180 133.5t142.5 176.5t93.5 217t34 250.5q0 152 -50.5 280t-138.5 215t-209.5 135.5t-260.5 48.5q-173 0 -335 -70t-281 -187t-190.5 -279.5t-71.5 -339.5q0 -147 48 -275t133 -220t208.5 -144.5t268.5 -52.5z
" />
    <glyph glyph-name="c" unicode="c" horiz-adv-x="1865" 
d="M1619 440q7 -3 2 -12q-124 -217 -307.5 -332.5t-420.5 -115.5q-200 0 -358.5 87t-249.5 249.5t-91 373.5q0 136 35 261.5t98 226.5t150 184.5t190 140t219.5 87t237.5 30.5q238 0 389 -115.5t213 -332.5q2 -9 -6 -12l-19 -8q-9 -4 -11 4q-58 209 -202.5 318.5
t-366.5 109.5q-116 0 -227.5 -29t-209.5 -83t-181 -133.5t-142.5 -176.5t-93 -217t-33.5 -251q0 -152 50.5 -279.5t139 -214.5t211 -135.5t265.5 -48.5q441 0 690 428q4 7 12 4z" />
    <glyph glyph-name="d" unicode="d" horiz-adv-x="2055" 
d="M2044 2560q7 0 7 -8l-358 -2544q0 -8 -9 -8h-24q-7 0 -7 8l72 514q-112 -242 -339.5 -392t-496.5 -150q-146 0 -273.5 51t-220.5 142.5t-146.5 226t-53.5 292.5q0 162 50.5 308.5t139 258t205 194t253 125t277.5 42.5q268 0 452 -162t226 -419l213 1513q2 8 9 8h24z
M894 16q174 0 335.5 70t280.5 187t190.5 279.5t71.5 339.5q0 197 -81.5 354.5t-232 247.5t-343.5 90q-113 0 -222.5 -29t-207 -82.5t-180.5 -133.5t-142.5 -176.5t-93.5 -217t-34 -250.5q0 -152 50.5 -280t139 -215t209.5 -135.5t260 -48.5z" />
    <glyph glyph-name="e" unicode="e" horiz-adv-x="1884" 
d="M1699 912h1l-4 -32q-1 -2 -1 -4h-1443q-17 -90 -17 -181q0 -152 50.5 -280t139 -215t209.5 -135.5t260 -48.5q443 0 690 428q4 7 13 4l17 -8q7 -3 2 -12q-255 -448 -727 -448q-146 0 -273.5 51t-220.5 142.5t-146.5 226t-53.5 292.5q0 201 74.5 376.5t199 295t289 188
t342.5 68.5q201 0 345.5 -89t210 -250t43.5 -369zM259 912h1400q32 302 -121.5 487t-442.5 185q-194 0 -368 -82t-298 -236t-170 -354z" />
    <glyph glyph-name="f" unicode="f" horiz-adv-x="1362" 
d="M1534 2438q12 -10 2 -20l-14 -12q-9 -7 -20 4q-131 134 -335 134q-115 0 -204 -38.5t-146.5 -109t-92.5 -159t-50 -197.5l-62 -440h748q7 0 7 -8l-2 -20q-2 -8 -10 -8h-748l-218 -1556q-2 -8 -10 -8h-24q-8 0 -6 8l218 1556h-352q-8 0 -6 8l2 20q0 8 9 8h352l62 440
q13 92 40 171t71.5 148t104 117.5t141.5 76t179 27.5q107 0 202 -40t162 -102z" />
    <glyph glyph-name="g" unicode="g" horiz-adv-x="1791" 
d="M1783 1660q10 0 8 -9l-3 -19q-2 -8 -9 -8q-110 0 -199.5 -57.5t-126.5 -156.5q90 -123 90 -291q0 -120 -55.5 -233.5t-148.5 -198t-223.5 -136t-272.5 -51.5h-184q-241 0 -360 -81.5t-119 -206.5q0 -37 11.5 -67.5t40.5 -58t74.5 -46t117 -29.5t165.5 -11h240
q316 0 486.5 -115t170.5 -312q0 -242 -211.5 -387.5t-580.5 -145.5q-314 0 -485.5 115t-171.5 313q0 91 41 172t112.5 142.5t163.5 107.5t200 74q-119 2 -202 21t-128 52.5t-64.5 74t-19.5 93.5q0 137 122.5 229.5t360.5 100.5q-153 54 -241.5 181.5t-88.5 284.5
q0 161 94 303.5t257 229t353 86.5q137 0 247.5 -47.5t184.5 -131.5q48 98 144.5 158.5t209.5 60.5zM844 536q135 0 258 48t210 127.5t139 185.5t52 219q0 201 -140.5 334.5t-370.5 133.5q-134 0 -257.5 -49.5t-210.5 -130t-139 -186t-52 -214.5q0 -95 35 -180t99 -149
t161.5 -101.5t215.5 -37.5zM1446 -431q0 183 -161 289t-461 106q-136 0 -268.5 -35t-239.5 -97t-173 -156.5t-66 -204.5q0 -183 161 -289t461 -106q353 0 550 134t197 359z" />
    <glyph glyph-name="h" unicode="h" horiz-adv-x="1911" 
d="M1179 1640q124 0 219 -32t156 -91t97 -143t41.5 -188t-9.5 -226l-133 -952q-2 -8 -9 -8h-24q-8 0 -8 8l134 952q15 116 10.5 214.5t-37 178t-89 135.5t-146 86t-207.5 30q-184 0 -364 -86t-309.5 -226.5t-182.5 -301.5l-138 -982q0 -8 -9 -8h-24q-8 0 -8 8l358 2544
q2 8 10 8h24q8 0 6 -8l-200 -1420q34 64 88 130.5t134.5 135t172.5 122t209 87t238 33.5z" />
    <glyph glyph-name="i" unicode="i" horiz-adv-x="621" 
d="M483 2028q-22 0 -37 16t-15 38q0 26 21.5 46t47.5 20q22 0 37 -16t15 -38q0 -26 -21 -46t-48 -20zM402 1592q0 8 9 8h24q7 0 7 -8l-222 -1584q-2 -8 -10 -8h-24q-8 0 -6 8z" />
    <glyph glyph-name="j" unicode="j" horiz-adv-x="622" 
d="M484 2028q-22 0 -37 16t-15 38q0 26 21 46t48 20q22 0 37 -16t15 -38q0 -26 -21.5 -46t-47.5 -20zM-298 -960q-8 0 -8 8l3 20q2 8 10 8q190 0 285 129.5t132 394.5l280 1992q2 8 10 8h24q8 0 6 -8l-280 -1992q-19 -133 -50 -230.5t-84 -174.5t-135 -116t-193 -39z" />
    <glyph glyph-name="k" unicode="k" horiz-adv-x="1594" 
d="M496 2552q0 8 9 8h24q7 0 7 -8l-357 -2544q-2 -8 -10 -8h-24q-8 0 -6 8zM1333 0q-9 0 -16 8l-766 872l945 716q5 4 12 4h40q3 0 4.5 -2.5t-1.5 -5.5l-945 -715l753 -865q5 -6 3 -9t-9 -3h-20z" />
    <glyph glyph-name="l" unicode="l" horiz-adv-x="541" 
d="M497 2552q0 8 9 8h24q7 0 7 -8l-358 -2544q0 -8 -9 -8h-24q-7 0 -7 8z" />
    <glyph glyph-name="m" unicode="m" horiz-adv-x="3061" 
d="M2349 1640q124 0 217 -32.5t151 -92t91 -144t36.5 -189t-11.5 -226.5l-133 -948q0 -8 -9 -8h-24q-7 0 -7 8l133 948q91 648 -449 648q-139 0 -275 -61.5t-239.5 -161.5t-175.5 -231t-91 -266l-123 -876q0 -8 -9 -8h-24q-7 0 -7 8l133 948q91 648 -449 648
q-139 0 -275 -61.5t-239.5 -161.5t-175.5 -231t-91 -266l-123 -876q0 -8 -9 -8h-24q-8 0 -8 8l223 1584q2 8 10 8h24q8 0 6 -8l-69 -488q30 65 75.5 133t116 142t152 130.5t189.5 93.5t223 37q138 0 237.5 -39.5t157.5 -114.5t82.5 -175.5t18.5 -229.5q31 75 80 150
t121 149.5t155.5 131.5t190 92.5t217.5 35.5z" />
    <glyph glyph-name="n" unicode="n" 
d="M1189 1640q124 0 219 -32t156 -91t97 -143t41.5 -188t-9.5 -226l-133 -952q-2 -8 -9 -8h-24q-8 0 -8 8l134 952q15 116 10.5 214.5t-37 178t-89 135.5t-146 86t-207.5 30q-153 0 -307 -61.5t-272.5 -161.5t-200.5 -231.5t-101 -265.5l-123 -876q0 -8 -9 -8h-24q-8 0 -8 8
l223 1584q2 8 10 8h24q8 0 6 -8l-69 -488q29 63 81.5 132.5t133.5 142.5t175.5 130.5t217 94t248.5 36.5z" />
    <glyph glyph-name="o" unicode="o" horiz-adv-x="2009" 
d="M1120 1620q146 0 273.5 -51t220.5 -142.5t146.5 -226t53.5 -292.5q0 -162 -50.5 -308.5t-139 -258t-205 -194t-253 -125t-277.5 -42.5q-146 0 -273.5 51t-220.5 142.5t-146.5 226t-53.5 292.5q0 162 50.5 308.5t139 258t205 194t253 125t277.5 42.5zM894 16
q132 0 261 40.5t240.5 119.5t196.5 185.5t133.5 247t48.5 296.5q0 152 -50.5 280t-139 215t-209.5 135.5t-260 48.5q-132 0 -261 -40.5t-240.5 -119.5t-196.5 -185.5t-133.5 -247t-48.5 -296.5q0 -152 50.5 -280t139 -215t209.5 -135.5t260 -48.5z" />
    <glyph glyph-name="p" unicode="p" horiz-adv-x="2055" 
d="M1166 1620q146 0 273.5 -51t220.5 -142.5t146.5 -226t53.5 -292.5q0 -162 -50.5 -308.5t-139 -258t-205 -194t-253 -125t-277.5 -42.5q-268 0 -452 162t-226 419l-213 -1513q-2 -8 -9 -8h-24q-7 0 -7 8l358 2544q0 8 9 8h24q7 0 7 -8l-73 -517q112 244 339.5 394.5
t497.5 150.5zM940 16q113 0 222.5 29t207 82.5t180.5 133.5t142.5 176.5t93.5 217t34 250.5q0 152 -50.5 280t-139 215t-209.5 135.5t-260 48.5q-174 0 -335.5 -70t-280.5 -187t-190.5 -279.5t-71.5 -339.5q0 -197 81.5 -354.5t232 -247.5t343.5 -90z" />
    <glyph glyph-name="q" unicode="q" horiz-adv-x="2055" 
d="M1909 1600q7 0 7 -8l-358 -2544q0 -8 -9 -8h-24q-9 0 -7 8l207 1475q-112 -243 -339.5 -393t-496.5 -150q-146 0 -273.5 51t-220.5 142.5t-146.5 226t-53.5 292.5q0 162 50.5 308.5t139 258t205 194t253 125t277.5 42.5q268 0 452.5 -162.5t225.5 -419.5l78 554q0 8 9 8
h24zM894 16q174 0 335.5 70t280.5 187t190.5 279.5t71.5 339.5q0 197 -81.5 354.5t-232 247.5t-343.5 90q-113 0 -222.5 -29t-207 -82.5t-180.5 -133.5t-142.5 -176.5t-93.5 -217t-34 -250.5q0 -152 50.5 -280t139 -215t209.5 -135.5t260 -48.5z" />
    <glyph glyph-name="r" unicode="r" horiz-adv-x="1031" 
d="M1021 1640q9 0 7 -8l-3 -20q0 -8 -9 -8q-99 0 -218 -62t-220.5 -157.5t-177.5 -220t-92 -240.5l-128 -916q-2 -8 -9 -8h-24q-8 0 -8 8l223 1584q2 8 10 8h24q8 0 6 -8l-70 -500q29 86 104.5 183.5t171 178t207.5 133.5t206 53z" />
    <glyph glyph-name="s" unicode="s" horiz-adv-x="1571" 
d="M344 1176q0 -73 33 -127.5t89.5 -88.5t129.5 -59.5t153.5 -45.5t161 -40.5t153.5 -50t129.5 -69t89.5 -103.5t33 -147q0 -107 -39 -190.5t-100.5 -134t-146 -83t-166 -45t-170.5 -12.5q-297 0 -579 180q-7 4 -2 12l11 16q6 8 14 3q253 -175 559 -175q78 0 151.5 10
t153.5 38.5t138.5 74t97 123t38.5 178.5q0 79 -33.5 139.5t-89.5 97.5t-129 65t-153.5 48t-161.5 39.5t-154 46.5t-129 63.5t-89.5 95t-33.5 135.5q0 137 79 240.5t213.5 156.5t304.5 53q151 0 276 -46t246 -135q7 -5 2 -13l-9 -14q-6 -8 -13 -4q-127 92 -246 134t-259 42
q-245 0 -399 -111.5t-154 -296.5z" />
    <glyph glyph-name="t" unicode="t" horiz-adv-x="1429" 
d="M1360 1600q7 0 7 -8l-2 -20q-2 -8 -10 -8h-748l-147 -1044q-9 -64 -9.5 -121t7 -115.5t30 -105.5t57.5 -84t91 -57.5t129 -20.5q97 0 199 38t189 109q10 8 15 0l7 -11q5 -8 -8 -19q-199 -153 -407 -153q-82 0 -145.5 21.5t-102 61t-63 89.5t-33 113t-7.5 124.5t11 130.5
h1l147 1044h-353q-8 0 -6 8l2 20q0 8 9 8h353l59 423q0 7 9 10l25 7q7 2 7 -6l-61 -434h748z" />
    <glyph glyph-name="u" unicode="u" 
d="M1775 1600q7 0 7 -8l-223 -1584q-2 -8 -9 -8h-24q-7 0 -7 8l69 488q-29 -63 -81.5 -132.5t-133.5 -142.5t-175.5 -130.5t-217 -94t-248.5 -36.5q-124 0 -219 32t-156 91t-97 143t-41.5 188t9.5 226l134 952q0 8 9 8h24q7 0 7 -8l-134 -952q-15 -116 -10.5 -214.5t37 -178
t89 -135.5t146 -86t207.5 -30q153 0 307 61.5t273 161.5t201 231.5t101 265.5l123 876q2 8 9 8h24z" />
    <glyph glyph-name="v" unicode="v" horiz-adv-x="1501" 
d="M1587 1600q12 0 2 -16l-937 -1616q-5 -8 -13 -8h-12q-8 0 -11 8l-483 1616q-6 16 6 16h20q11 0 14 -12l468 -1568l906 1568q9 12 18 12h22z" />
    <glyph glyph-name="w" unicode="w" horiz-adv-x="2517" 
d="M2603 1600q12 0 2 -16l-815 -1616q-5 -8 -13 -8h-14q-8 0 -11 8l-419 1360l-802 -1360q-5 -8 -13 -8h-11q-8 0 -11 8l-363 1616q-6 16 6 16h20q11 0 14 -12l348 -1568l796 1352q9 16 18 16h9q12 0 16 -16l417 -1352l786 1568q9 12 18 12h22z" />
    <glyph glyph-name="x" unicode="x" horiz-adv-x="1646" 
d="M1602 1600q7 0 6 -2q-1 -3 -8 -10l-763 -775l574 -801q8 -12 -2 -12h-28q-8 0 -11 4l-559 781l-752 -777q-8 -8 -21 -8h-21q-17 0 -2 16l776 797l-555 775q-8 12 2 12h23q12 0 18 -8l538 -751l735 751q6 8 17 8h33z" />
    <glyph glyph-name="y" unicode="y" horiz-adv-x="1507" 
d="M1593 1600q11 0 1 -16l-916 -1596q-85 -148 -148.5 -253.5t-132.5 -211t-125 -176t-117.5 -133t-118 -98.5t-118 -56t-126.5 -20q-8 0 -8 8l3 20q2 8 10 8q78 0 153 35.5t147.5 101t158 180.5t170.5 250.5t199 333.5l-492 1607q-6 16 7 16h20q10 0 14 -12l477 -1565
l899 1565q8 12 23 12h20z" />
    <glyph glyph-name="z" unicode="z" horiz-adv-x="1771" 
d="M57 0q-8 0 -8 8l2 12q3 9 6 12l1514 1532h-1234q-8 0 -8 8l3 20q2 8 10 8h1284q8 0 6 -8l-2 -12q0 -8 -5 -12l-1514 -1532h1315q8 0 6 -8l-2 -20q0 -8 -9 -8h-1364z" />
    <glyph glyph-name="braceleft" unicode="{" horiz-adv-x="982" 
d="M1006 2521q-86 -4 -155 -27t-128 -71t-98 -131t-55 -198q-12 -87 -17 -349t-15 -329q-26 -178 -94.5 -282t-183.5 -154q164 -82 164 -336q0 -68 -27.5 -193t-60 -240t-60 -240t-27.5 -193q0 -175 85 -254t239 -85q9 0 7 -8l-2 -12q0 -8 -9 -8q-169 0 -264.5 89.5
t-95.5 277.5q0 70 27.5 195t60 239t60 235.5t27.5 186.5q0 266 -195 325q-6 2 -6 8l4 26q2 6 8 8q51 12 96 39t88 74t74 124t45 178q9 66 14 326.5t18 351.5q33 234 159.5 344.5t320.5 110.5q9 0 7 -8l-2 -12q0 -8 -9 -8z" />
    <glyph glyph-name="bar" unicode="|" horiz-adv-x="541" 
d="M550 2932q0 8 8 8h24q8 0 8 -8l-467 -3324q-2 -8 -10 -8h-24q-8 0 -6 8z" />
    <glyph glyph-name="braceright" unicode="}" horiz-adv-x="983" 
d="M844 1001q6 -1 6 -8l-4 -26q-2 -6 -8 -8q-51 -12 -95.5 -39t-87 -74t-74 -124t-45.5 -178q-10 -67 -15.5 -327.5t-17.5 -350.5q-33 -234 -159.5 -344.5t-320.5 -110.5q-8 0 -6 8l1 12q0 8 9 8q86 4 155 27t128 71t98 131t55 198q12 87 17.5 349t15.5 329q26 178 94.5 282
t182.5 154q-164 82 -164 336q0 68 27.5 193t60 240t60 240t27.5 193q0 175 -85 254t-239 85q-8 0 -6 8l1 12q0 8 9 8q169 0 264.5 -89.5t95.5 -277.5q0 -88 -43.5 -261.5t-87 -343.5t-43.5 -251q0 -148 54.5 -226t139.5 -99z" />
    <glyph glyph-name="asciitilde" unicode="~" horiz-adv-x="2157" 
d="M1964 1163q5 -3 2 -8q-57 -121 -192 -218t-290 -97q-94 0 -176.5 33.5t-145.5 81t-124.5 95t-140.5 81t-167 33.5q-136 0 -264.5 -88t-182.5 -201q-5 -10 -15 -5l-14 7q-4 3 -2 8q27 56 74.5 110.5t109.5 101t141 75t158 28.5q94 0 176.5 -33.5t145.5 -81t124.5 -95
t140.5 -81t167 -33.5q136 0 264.5 88t182.5 201q5 10 14 5z" />
    <glyph glyph-name="exclamdown" unicode="&#xa1;" horiz-adv-x="601" 
d="M416 1620q22 0 37 -16t15 -38q0 -26 -21 -46t-48 -20q-22 0 -37 16t-15 38q0 26 21 46t48 20zM97 -832q-2 -8 -10 -8h-24q-8 0 -6 8l268 1874q2 8 9 8h14q9 0 7 -8z" />
    <glyph glyph-name="cent" unicode="&#xa2;" horiz-adv-x="1865" 
d="M1726 1172q2 -9 -6 -12l-19 -8q-9 -4 -11 4q-58 209 -202.5 318.5t-366.5 109.5q-116 0 -227.5 -29t-209.5 -83t-181 -133.5t-142.5 -176.5t-93 -217t-33.5 -251q0 -152 50.5 -279.5t139 -214.5t211 -135.5t265.5 -48.5q441 0 690 428q4 7 12 4l17 -8q7 -3 2 -12
q-123 -216 -305 -331.5t-417 -116.5l-56 -396q-2 -9 -10 -9h-18q-3 0 -6 3t-2 6l56 397q-144 5 -267.5 58t-212 144t-139 222t-50.5 285q0 159 48 303.5t132.5 255t197.5 193.5t246.5 128t275.5 50l49 348q2 7 8 7h20q9 0 7 -7l-49 -348q235 -1 385 -117t212 -331z" />
    <glyph glyph-name="sterling" unicode="&#xa3;" horiz-adv-x="2220" 
d="M2147 2076q8 -12 2 -17l-10 -9q-12 -10 -18 -2q-260 376 -683 376q-321 0 -518 -160t-234 -426q-13 -69 -10 -162t10.5 -151.5t19 -149t15.5 -155.5h900q7 0 7 -8l-3 -20q-2 -8 -9 -8h-893q4 -108 -9.5 -214t-51.5 -245.5t-118 -313.5t-200 -375q115 40 234.5 52t223.5 1
t210 -30t212 -37t211 -25.5t224 9.5t235 64q6 2 9.5 -0.5t2.5 -7.5l-2 -17q-2 -6 -6 -7q-122 -48 -243.5 -65.5t-226.5 -10.5t-210 25t-210 37t-209 30t-225.5 -0.5t-241.5 -51.5q-5 -2 -9 1l-19 17q-3 5 0 9q121 203 201 378t118 315t51 247t8 215h-410q-9 0 -7 8l3 20
q0 8 9 8h403q-4 63 -15.5 154.5t-18.5 148.5t-10 151.5t10 163.5q39 280 248 451t538 171q441 0 715 -384z" />
    <glyph glyph-name="currency" unicode="&#xa4;" horiz-adv-x="2729" 
d="M2683 2057q5 -5 -1 -12l-455 -395q103 -135 146.5 -307.5t16.5 -362.5q-27 -189 -118.5 -361.5t-233.5 -308.5l344 -395q6 -5 -1 -12l-18 -16q-6 -6 -12 0l-344 395q-158 -142 -354.5 -222t-403.5 -80q-206 0 -380 79.5t-293 221.5l-455 -394q-6 -6 -12 0l-12 16
q-5 5 1 12l455 396q-103 135 -146.5 307t-16.5 362q26 189 118 361t233 308l-343 396q-6 5 1 12l18 16q6 6 12 0l344 -395q158 142 354.5 222t403.5 80q206 0 380 -79.5t293 -221.5l455 394q6 6 12 0zM2350 980q27 192 -25.5 369.5t-163.5 307t-277.5 206.5t-358.5 77
t-380.5 -77t-336 -206.5t-249.5 -307t-129 -369.5t25.5 -369.5t163.5 -307t277.5 -206.5t358.5 -77t380.5 77t336 206.5t249.5 307t129 369.5z" />
    <glyph glyph-name="yen" unicode="&#xa5;" horiz-adv-x="2207" 
d="M2348 2440q13 0 7 -8l-1172 -1492h460q9 0 7 -8l-3 -20q-2 -8 -9 -8h-483l-9 -11l-50 -353h491q9 0 7 -8l-3 -20q-2 -8 -9 -8h-491l-69 -496q0 -8 -8 -8h-24q-8 0 -8 8l69 496h-489q-9 0 -7 8l3 20q2 8 9 8h489l50 355l-4 9h-484q-9 0 -7 8l3 20q2 8 9 8h460l-772 1492
v4.5t2 2.5t3.5 1h3.5h24q7 0 11 -8l773 -1492h10l1173 1492q7 8 14 8h23z" />
    <glyph glyph-name="brokenbar" unicode="&#xa6;" horiz-adv-x="541" 
d="M550 2932q0 8 8 8h24q8 0 8 -8l-158 -1124q-2 -8 -10 -8h-24q-8 0 -6 8zM241 732q0 8 8 8h24q8 0 8 -8l-158 -1124q-2 -8 -10 -8h-24q-8 0 -6 8z" />
    <glyph glyph-name="section" unicode="&#xa7;" horiz-adv-x="2197" 
d="M1405 2840q733 0 733 -741q0 -19 -10 -19h-23q-7 0 -7 12q0 712 -699 712q-373 0 -613 -189.5t-285 -514.5q-40 -284 161 -450q121 -99 381 -188q50 -17 152 -50q259 -82 371 -136q228 -111 300 -275q121 -277 -157 -790q162 -165 125 -431q-48 -342 -308 -541t-676 -199
q-380 0 -576.5 193t-196.5 549q0 18 10 18h23q7 0 7 -12q0 -344 186 -528.5t552 -184.5q401 0 647 188.5t292 516.5q40 284 -161 449q-121 99 -383 188q-50 17 -154 50q-261 83 -373 137q-230 111 -303 276q-123 279 159 796q-155 162 -118 424q47 340 301 540t643 200z
M1683 235q74 138 117 256.5t57.5 211t0.5 171.5t-43 137.5t-84 109.5t-112 86t-138.5 69.5t-151.5 58.5t-161 53q-107 34 -163.5 53.5t-141.5 53.5t-147.5 72t-111.5 83q-75 -138 -118 -257t-60 -210.5t0 -172t41.5 -137t85.5 -110t112 -86.5t141 -70.5t151.5 -58.5
t163.5 -54q141 -45 216 -71.5t178 -78t168 -109.5z" />
    <glyph glyph-name="dieresis" unicode="&#xa8;" horiz-adv-x="761" 
d="M52 2028q-22 0 -37 16t-15 38q0 26 21 46t48 20q22 0 37 -16t15 -38q0 -26 -21 -46t-48 -20zM692 2028q-22 0 -37 16t-15 38q0 26 21 46t48 20q22 0 37 -16t15 -38q0 -26 -21 -46t-48 -20z" />
    <glyph glyph-name="copyright" unicode="&#xa9;" horiz-adv-x="2929" 
d="M1698 2460q230 0 431.5 -86t343 -233t222.5 -349t81 -429q0 -185 -54 -363.5t-149.5 -330t-230.5 -280t-291.5 -218.5t-337 -140.5t-364.5 -50.5q-230 0 -431.5 85.5t-343 232.5t-222.5 349.5t-81 429.5q0 184 54 363t149.5 330t230.5 280t291.5 219t337 140.5
t364.5 50.5zM1352 1q179 0 356 49.5t330.5 138t285.5 215.5t225.5 275.5t147 324.5t53.5 357q0 223 -79.5 422t-218 343.5t-335.5 229t-422 84.5q-179 0 -356 -50t-330.5 -138.5t-285.5 -215t-225.5 -275.5t-147 -325t-53.5 -357q0 -223 79.5 -422t218 -343.5t335.5 -228.5
t422 -84zM2120 848q1 0 1.5 -1l1.5 -3t-1 -4q-253 -395 -666 -395q-135 0 -252 47t-202.5 132.5t-134.5 211t-49 275.5q0 156 46.5 296t128 245.5t189 183t233.5 117.5t258 40q408 0 555 -396l-3 -7l-12 -5q-5 -3 -7 2q-72 199 -206 291.5t-330 92.5q-125 0 -246.5 -39
t-226 -114.5t-183.5 -178t-124.5 -238t-45.5 -285.5q0 -145 47.5 -267.5t130 -205.5t195.5 -129.5t242 -46.5q395 0 643 383q1 2 3 3t3 1l2 -1z" />
    <glyph glyph-name="guillemotleft" unicode="&#xab;" horiz-adv-x="1741" 
d="M272 822l561 -478q2 -2 2 -7l-2 -15q-1 -6 -7 -7.5t-11 2.5l-569 490q-4 3 -4 6l2 9l1 9q0 3 5 6l708 490q6 4 11.5 2.5t4.5 -7.5l-2 -15q0 -3 -5 -7zM1558 1327q6 4 11.5 2.5t4.5 -7.5l-2 -15q0 -3 -5 -7l-695 -478l561 -478q2 -2 2 -7l-2 -15q-1 -6 -7 -7.5t-11 2.5
l-569 490q-4 3 -4 6l2 9l1 9q0 3 5 6z" />
    <glyph glyph-name="logicalnot" unicode="&#xac;" horiz-adv-x="2038" 
d="M1826 1060q9 0 7 -8l-61 -434q-2 -8 -9 -8h-24q-9 0 -7 8l57 406h-1510q-8 0 -6 8l2 20q0 8 9 8h1542z" />
    <glyph glyph-name="registered" unicode="&#xae;" horiz-adv-x="2929" 
d="M1698 2460q230 0 431.5 -86t343 -233t222.5 -349t81 -429q0 -185 -54 -363.5t-149.5 -330t-230.5 -280t-291.5 -218.5t-337 -140.5t-364.5 -50.5q-230 0 -431.5 85.5t-343 232.5t-222.5 349.5t-81 429.5q0 184 54 363t149.5 330t230.5 280t291.5 219t337 140.5
t364.5 50.5zM1352 1q179 0 356 49.5t330.5 138t285.5 215.5t225.5 275.5t147 324.5t53.5 357q0 223 -79.5 422t-218 343.5t-335.5 229t-422 84.5q-179 0 -356 -50t-330.5 -138.5t-285.5 -215t-225.5 -275.5t-147 -325t-53.5 -357q0 -223 79.5 -422t218 -343.5t335.5 -228.5
t422 -84zM1640 1981q129 0 226.5 -30.5t154.5 -84.5t85 -121t28 -146q0 -86 -28.5 -164t-85.5 -145t-153 -113.5t-221 -62.5l337 -647q1 -3 -1 -6.5t-6 -3.5h-13q-5 0 -8 7l-336 647q-55 -5 -102 -5h-449l-90 -644q-2 -5 -6 -5h-15q-6 0 -4 5l212 1514q0 5 6 5h15h454z
M1520 1129q124 0 224.5 26.5t167 70.5t111.5 105t65 127t20 139q0 75 -26 138t-80 114t-147 80t-218 29h-450l-116 -829h449z" />
    <glyph glyph-name="macron" unicode="&#xaf;" horiz-adv-x="963" 
d="M3 2088q0 8 9 8h944q7 0 7 -8l-2 -20q-2 -8 -10 -8h-944q-8 0 -6 8z" />
    <glyph glyph-name="degree" unicode="&#xb0;" horiz-adv-x="891" 
d="M577 1736q-136 0 -226.5 92t-90.5 227q0 107 59 201t156 149t204 55q136 0 226 -93.5t90 -229.5q0 -107 -59 -200t-155.5 -147t-203.5 -54zM582 1771q151 0 262.5 108t111.5 257q0 124 -79 206.5t-203 82.5q-152 0 -263.5 -108.5t-111.5 -259.5q0 -122 79.5 -204
t203.5 -82z" />
    <glyph glyph-name="plusminus" unicode="&#xb1;" horiz-adv-x="2037" 
d="M1826 1060q8 0 6 -8l-3 -20q0 -8 -8 -8h-753l-105 -752q0 -8 -9 -8h-20q-7 0 -7 8l105 752h-751q-8 0 -8 8l3 20q2 8 10 8h752l105 752q2 8 10 8h20q8 0 6 -8l-105 -752h752zM1682 36q8 0 6 -8l-2 -20q0 -8 -9 -8h-1540q-8 0 -8 8l3 20q2 8 10 8h1540z" />
    <glyph glyph-name="acute" unicode="&#xb4;" horiz-adv-x="697" 
d="M33 1860q-5 -6 -11 0l-11 12q-4 6 2 12l601 464q8 6 12 0l11 -12q6 -6 -2 -12z" />
    <glyph glyph-name="paragraph" unicode="&#xb6;" horiz-adv-x="2085" 
d="M2057 2440q7 0 7 -8l-397 -2824q-2 -8 -9 -8h-24q-9 0 -7 8l393 2796h-860l-393 -2796q-2 -8 -9 -8h-24q-9 0 -7 8l187 1332q-138 1 -258 53.5t-204.5 141.5t-133 210.5t-48.5 257.5q0 167 72 322.5t190.5 267.5t276.5 179.5t324 67.5h900h24z" />
    <glyph glyph-name="periodcentered" unicode="&#xb7;" horiz-adv-x="600" 
d="M297 780q-22 0 -37 16t-15 38q0 26 21 46t48 20q22 0 37 -16t15 -38q0 -26 -21 -46t-48 -20z" />
    <glyph glyph-name="cedilla" unicode="&#xb8;" horiz-adv-x="733" 
d="M320 -800q-98 0 -170.5 22t-142.5 62q-1 0 -1.5 1l-2 4t1.5 7l10 16q2 4 5.5 5t5.5 0l2 -1q73 -39 140 -59.5t157 -20.5q128 0 207.5 74.5t79.5 190.5q0 135 -122 180t-325 -17q-9 -3 -10 0t4 12l167 334h39l-150 -302q84 25 162.5 25t140 -24t98.5 -77t37 -128
q0 -133 -95.5 -218.5t-237.5 -85.5z" />
    <glyph glyph-name="guillemotright" unicode="&#xbb;" horiz-adv-x="1741" 
d="M902 813q0 -3 -5 -6l-707 -490q-6 -4 -12 -2.5t-5 7.5l2 15q0 3 5 7l695 478h1l-561 478q-3 3 -3 7l2 15q1 6 6.5 7.5t10.5 -2.5l571 -490q3 -3 3 -6l-2 -9zM1502 837q3 -3 3 -6l-2 -9l-1 -9q0 -3 -5 -6l-707 -490q-6 -4 -12 -2.5t-5 7.5l2 15q0 3 5 7l695 478h1
l-561 478q-3 3 -3 7l2 15q1 6 6.5 7.5t10.5 -2.5z" />
    <glyph glyph-name="onequarter" unicode="&#xbc;" horiz-adv-x="3484" 
d="M919 2397q7 0 5 -5l-224 -1594q0 -5 -6 -5h-16q-5 0 -5 5l221 1572l-375 -185q-5 -3 -7 3l-5 12q-2 5 4 7l387 188q4 2 12 2h9zM2406 2338q4 8 11 4l12 -6q7 -4 3 -10l-1608 -2650q-5 -7 -12 -4l-11 6q-7 4 -3 10zM3269 454q5 0 5 -6l-2 -13q0 -5 -6 -5h-292l-60 -425
q-2 -5 -7 -5h-15q-6 0 -4 5l59 425h-891q-6 0 -4 5l1 12q0 2 2 4l1057 1151q2 2 12 2h9q5 0 5 -5l-162 -1145h293zM2091 454h859l155 1104z" />
    <glyph glyph-name="onehalf" unicode="&#xbd;" horiz-adv-x="3555" 
d="M919 2397q7 0 5 -5l-224 -1594q0 -5 -6 -5h-16q-5 0 -5 5l221 1572l-375 -185q-5 -3 -7 3l-5 12q-2 5 4 7l387 188q4 2 12 2h9zM2429 2336q7 -4 3 -10l-1608 -2650q-5 -7 -12 -4l-11 6q-7 4 -3 10l1608 2650q4 8 11 4zM3338 1201q-14 -99 -68 -203.5t-142.5 -211.5
t-224.5 -231.5t-298 -252t-380 -285.5h1004q5 0 5 -6l-1 -13q-3 -5 -7 -5h-1041q-7 0 -4 5l1 11q0 6 3 8q550 393 822 672.5t305 511.5q25 178 -66.5 282t-300.5 104q-271 0 -518 -247q-5 -5 -11 1l-5 6q-3 3 4 11q250 252 541 252q214 0 311 -111t71 -298z" />
    <glyph glyph-name="threequarters" unicode="&#xbe;" horiz-adv-x="3724" 
d="M914 1621q214 -23 317.5 -118t103.5 -249q0 -223 -160 -348.5t-423 -125.5q-178 0 -307 70.5t-209 181.5q-4 7 0 12l6 5q8 8 11 2q75 -108 202.5 -177.5t293.5 -69.5q258 0 409 117t151 330q0 172 -134 265t-416 93q-7 0 -4 5l1 9q0 6 6 6q282 0 443.5 129t161.5 328
q0 145 -93.5 223t-282.5 78q-283 0 -517 -234q-5 -5 -11 1l-5 6q-4 4 5 11q237 239 539 239q194 0 292.5 -84t98.5 -238q0 -180 -125 -306t-354 -161zM2606 2338q4 8 11 4l12 -6q7 -4 3 -10l-1608 -2650q-5 -7 -12 -4l-11 6q-7 4 -3 10zM3469 454q5 0 5 -6l-2 -13
q0 -5 -6 -5h-292l-60 -425q-2 -5 -7 -5h-15q-6 0 -4 5l59 425h-891q-6 0 -4 5l1 12q0 2 2 4l1057 1151q2 2 12 2h9q5 0 5 -5l-162 -1145h293zM2291 454h859l155 1104z" />
    <glyph glyph-name="questiondown" unicode="&#xbf;" horiz-adv-x="1510" 
d="M899 1620q22 0 37 -16t15 -38q0 -26 -21 -46t-48 -20q-22 0 -37 16t-15 38q0 26 21 46t48 20zM-36 -362q0 -220 136.5 -341t398.5 -121q384 0 716 286q12 10 17 -2l6 -13q4 -9 -6 -17q-179 -140 -354 -215t-395 -75q-270 0 -414 131t-144 367q0 105 24.5 196.5t67 162
t98.5 134.5t121.5 123t132.5 118t134.5 128.5t126 145.5t108 178t78.5 218q2 8 9 8h24q3 0 5.5 -2t1.5 -5q-29 -117 -79 -221t-108 -181.5t-126 -148t-135 -130t-132.5 -119t-121.5 -123t-98.5 -133t-67 -158.5t-24.5 -191z" />
    <glyph glyph-name="Agrave" unicode="&#xc0;" horiz-adv-x="2370" 
d="M1514 2700l-471 464q-6 6 1 12l14 12q6 6 12 0l470 -464q5 -6 -1 -12l-14 -12q-7 -6 -11 0zM2178 8q1 -4 -0.5 -6t-3.5 -2h-5h-24q-9 0 -11 8l-273 936h-1299l-544 -936q-5 -8 -13 -8h-28q-12 0 -7 8l1439 2464q5 8 12 8h20q8 0 11 -8zM583 980h1268l-424 1452z" />
    <glyph glyph-name="Aacute" unicode="&#xc1;" horiz-adv-x="2370" 
d="M1416 2700l-11 12q-4 6 2 12l601 464q8 6 12 0l11 -12q6 -6 -2 -12l-602 -464q-5 -6 -11 0zM2178 8q1 -4 -0.5 -6t-3.5 -2h-5h-24q-9 0 -11 8l-273 936h-1299l-544 -936q-5 -8 -13 -8h-28q-12 0 -7 8l1439 2464q5 8 12 8h20q8 0 11 -8zM583 980h1268l-424 1452z" />
    <glyph glyph-name="Acircumflex" unicode="&#xc2;" horiz-adv-x="2370" 
d="M1010 2680q-12 0 -3 8l495 472q4 4 16 4h16q12 0 15 -4l362 -472q6 -8 -5 -8h-20q-12 0 -15 4l-349 452l-476 -452q-5 -4 -12 -4h-24zM2178 8q1 -4 -0.5 -6t-3.5 -2h-5h-24q-9 0 -11 8l-273 936h-1299l-544 -936q-5 -8 -13 -8h-28q-12 0 -7 8l1439 2464q5 8 12 8h20
q8 0 11 -8zM583 980h1268l-424 1452z" />
    <glyph glyph-name="Atilde" unicode="&#xc3;" horiz-adv-x="2370" 
d="M966 2736q-7 0 -7 7q0 162 91 257.5t231 95.5q49 0 88 -18t65.5 -46.5t49.5 -63t45.5 -69t47 -63t59.5 -46.5t79 -18q219 0 284 316q2 8 10 8h16q6 0 6 -10q0 -160 -92 -255t-229 -95q-56 0 -100.5 24t-71 60t-55 78t-53 78t-65 60t-90.5 24q-219 0 -284 -316
q-2 -8 -9 -8h-16zM2178 8q1 -4 -0.5 -6t-3.5 -2h-5h-24q-9 0 -11 8l-273 936h-1299l-544 -936q-5 -8 -13 -8h-28q-12 0 -7 8l1439 2464q5 8 12 8h20q8 0 11 -8zM583 980h1268l-424 1452z" />
    <glyph glyph-name="Adieresis" unicode="&#xc4;" horiz-adv-x="2370" 
d="M1168 2868q-22 0 -37 16t-15 38q0 26 21 46t48 20q22 0 37 -16t15 -38q0 -26 -21 -46t-48 -20zM1808 2868q-22 0 -37 16t-15 38q0 26 21 46t48 20q22 0 37 -16t15 -38q0 -26 -21 -46t-48 -20zM2178 8q1 -4 -0.5 -6t-3.5 -2h-5h-24q-9 0 -11 8l-273 936h-1299l-544 -936
q-5 -8 -13 -8h-28q-12 0 -7 8l1439 2464q5 8 12 8h20q8 0 11 -8zM583 980h1268l-424 1452z" />
    <glyph glyph-name="Aring" unicode="&#xc5;" horiz-adv-x="2370" 
d="M2178 8q1 -4 -0.5 -6t-3.5 -2h-5h-24q-9 0 -11 8l-273 936h-1299l-544 -936q-5 -8 -13 -8h-28q-12 0 -7 8l1433 2454q-121 15 -198 104t-77 213q0 107 59 201t156 149t204 55q136 0 226 -93.5t90 -229.5q0 -159 -123 -277.5t-285 -123.5zM1160 2780q0 -124 81 -208
t208 -84q154 0 268 110.5t114 262.5q0 126 -80.5 210.5t-207.5 84.5q-155 0 -269 -111t-114 -265zM583 980h1268l-424 1452z" />
    <glyph glyph-name="AE" unicode="&#xc6;" horiz-adv-x="3371" 
d="M3343 2440q7 0 7 -8l-3 -20q-2 -8 -9 -8h-1512l-155 -1104h1352q7 0 7 -8l-3 -20q-2 -8 -9 -8h-1352l-172 -1228h1551q7 0 7 -8l-2 -20q-2 -8 -10 -8h-1564h-20q-8 0 -6 8l131 936h-868l-694 -937q-5 -7 -13 -7h-28q-15 0 -8 9l1802 2424q5 7 13 7h10v-1q1 1 4 1h24h1520
zM740 980h846l199 1419l-2 -10z" />
    <glyph glyph-name="Ccedilla" unicode="&#xc7;" horiz-adv-x="2585" 
d="M2528 1826q1 -4 0 -6.5t-3 -3.5l-2 -2l-19 -8q-8 -4 -11 4q-114 318 -329 466t-529 148q-167 0 -331.5 -45t-311 -127t-271.5 -204.5t-215.5 -271.5t-142 -334t-51.5 -386q0 -233 76 -429t208.5 -329t313 -207.5t387.5 -74.5q634 0 1030 614q2 4 5.5 5t5.5 0l2 -1l16 -8
q1 0 1.5 -1l2 -4t-1.5 -7q-403 -629 -1057 -634l-135 -272q84 25 162.5 25t140 -24t98.5 -77t37 -128q0 -133 -95.5 -218.5t-237.5 -85.5q-98 0 -170.5 22t-142.5 62q-1 0 -1.5 1l-2 4t1.5 7l10 16q2 4 5.5 5t5.5 0l2 -1q73 -39 140 -59.5t157 -20.5q128 0 207.5 74.5
t79.5 190.5q0 135 -122.5 180t-324.5 -17q-9 -3 -10 0t4 12l152 304q-211 5 -393 83t-314.5 214.5t-208 335.5t-75.5 435q0 209 52.5 400.5t145.5 345.5t222 280t280.5 210t322.5 130t346 46q654 0 888 -634z" />
    <glyph glyph-name="Egrave" unicode="&#xc8;" horiz-adv-x="2060" 
d="M1370 2700l-471 464q-6 6 1 12l14 12q6 6 12 0l470 -464q5 -6 -1 -12l-14 -12q-7 -6 -11 0zM2032 2440q7 0 7 -8l-3 -20q-2 -8 -9 -8h-1512l-155 -1104h1352q7 0 7 -8l-3 -20q-2 -8 -9 -8h-1352l-172 -1228h1551q7 0 7 -8l-2 -20q-2 -8 -10 -8h-1564h-20q-8 0 -6 8
l340 2424q0 8 9 8h24h1520z" />
    <glyph glyph-name="Eacute" unicode="&#xc9;" horiz-adv-x="2060" 
d="M1272 2700l-11 12q-4 6 2 12l601 464q8 6 12 0l11 -12q6 -6 -2 -12l-602 -464q-5 -6 -11 0zM2032 2440q7 0 7 -8l-3 -20q-2 -8 -9 -8h-1512l-155 -1104h1352q7 0 7 -8l-3 -20q-2 -8 -9 -8h-1352l-172 -1228h1551q7 0 7 -8l-2 -20q-2 -8 -10 -8h-1564h-20q-8 0 -6 8
l340 2424q0 8 9 8h24h1520z" />
    <glyph glyph-name="Ecircumflex" unicode="&#xca;" horiz-adv-x="2060" 
d="M866 2680q-12 0 -3 8l495 472q4 4 16 4h16q12 0 15 -4l362 -472q6 -8 -5 -8h-20q-12 0 -15 4l-349 452l-476 -452q-5 -4 -12 -4h-24zM2032 2440q7 0 7 -8l-3 -20q-2 -8 -9 -8h-1512l-155 -1104h1352q7 0 7 -8l-3 -20q-2 -8 -9 -8h-1352l-172 -1228h1551q7 0 7 -8l-2 -20
q-2 -8 -10 -8h-1564h-20q-8 0 -6 8l340 2424q0 8 9 8h24h1520z" />
    <glyph glyph-name="Edieresis" unicode="&#xcb;" horiz-adv-x="2060" 
d="M1024 2868q-22 0 -37 16t-15 38q0 26 21 46t48 20q22 0 37 -16t15 -38q0 -26 -21 -46t-48 -20zM1664 2868q-22 0 -37 16t-15 38q0 26 21 46t48 20q22 0 37 -16t15 -38q0 -26 -21 -46t-48 -20zM2032 2440q7 0 7 -8l-3 -20q-2 -8 -9 -8h-1512l-155 -1104h1352q7 0 7 -8
l-3 -20q-2 -8 -9 -8h-1352l-172 -1228h1551q7 0 7 -8l-2 -20q-2 -8 -10 -8h-1564h-20q-8 0 -6 8l340 2424q0 8 9 8h24h1520z" />
    <glyph glyph-name="Igrave" unicode="&#xcc;" horiz-adv-x="540" 
d="M586 2700l-471 464q-6 6 1 12l14 12q6 6 12 0l470 -464q5 -6 -1 -12l-14 -12q-7 -6 -11 0zM479 2432q0 8 9 8h24q7 0 7 -8l-340 -2424q-2 -8 -10 -8h-24q-8 0 -6 8z" />
    <glyph glyph-name="Iacute" unicode="&#xcd;" horiz-adv-x="540" 
d="M499 2700q-5 -6 -11 0l-11 12q-4 6 2 12l601 464q8 6 12 0l11 -12q6 -6 -2 -12zM479 2432q0 8 9 8h24q7 0 7 -8l-340 -2424q-2 -8 -10 -8h-24q-8 0 -6 8z" />
    <glyph glyph-name="Icircumflex" unicode="&#xce;" horiz-adv-x="540" 
d="M943 2684l-349 452l-476 -452q-5 -4 -12 -4h-24q-12 0 -3 8l495 472q4 4 16 4h16q12 0 15 -4l362 -472q6 -8 -5 -8h-20q-12 0 -15 4zM479 2432q0 8 9 8h24q7 0 7 -8l-340 -2424q-2 -8 -10 -8h-24q-8 0 -6 8z" />
    <glyph glyph-name="Idieresis" unicode="&#xcf;" horiz-adv-x="540" 
d="M240 2868q-22 0 -37 16t-15 38q0 26 21 46t48 20q22 0 37 -16t15 -38q0 -26 -21 -46t-48 -20zM880 2868q-22 0 -37 16t-15 38q0 26 21 46t48 20q22 0 37 -16t15 -38q0 -26 -21 -46t-48 -20zM479 2432q0 8 9 8h24q7 0 7 -8l-340 -2424q-2 -8 -10 -8h-24q-8 0 -6 8z" />
    <glyph glyph-name="Eth" unicode="&#xd0;" horiz-adv-x="2437" 
d="M1220 2440q231 0 426 -70.5t337 -201.5t221.5 -329t79.5 -442q0 -216 -52 -409.5t-145.5 -345.5t-223.5 -274t-286.5 -202.5t-334 -123t-365.5 -42.5h-720h-12q-8 0 -6 8l168 1196h-320q-8 0 -6 8l2 20q0 8 9 8h320l167 1192q0 8 9 8h24h708zM882 36q216 0 418 58.5
t373 174t299 276.5t200 378t72 466q0 236 -78 429t-215.5 320.5t-326 196.5t-409.5 69h-700l-163 -1164h660q7 0 7 -8l-2 -20q-2 -8 -10 -8h-660l-164 -1168h699z" />
    <glyph glyph-name="Ntilde" unicode="&#xd1;" horiz-adv-x="2460" 
d="M1038 2736q-7 0 -7 7q0 162 91 257.5t231 95.5q49 0 88 -18t65.5 -46.5t49.5 -63t45.5 -69t47 -63t59.5 -46.5t79 -18q219 0 284 316q2 8 10 8h16q6 0 6 -10q0 -160 -92 -255t-229 -95q-56 0 -100.5 24t-71 60t-55 78t-53 78t-65 60t-90.5 24q-219 0 -284 -316
q-2 -8 -9 -8h-16zM2432 2440q7 0 7 -8l-346 -2464q-2 -8 -9 -8h-4q-10 0 -14 7l-1552 2425l-335 -2384q-2 -8 -10 -8h-24q-8 0 -6 8l346 2464q0 8 9 8h4q7 0 13 -7l1553 -2425l335 2384q0 8 9 8h24z" />
    <glyph glyph-name="Ograve" unicode="&#xd2;" horiz-adv-x="2813" 
d="M1724 2700l-471 464q-6 6 1 12l14 12q6 6 12 0l470 -464q5 -6 -1 -12l-14 -12q-7 -6 -11 0zM1640 2460q216 0 403.5 -75.5t324 -212t215 -338.5t78.5 -442q0 -209 -52.5 -400.5t-145.5 -345.5t-222 -280t-280.5 -210t-322.5 -130t-346 -46q-216 0 -403.5 75.5t-324 212
t-215 338.5t-78.5 442q0 209 52.5 400.5t145.5 345.5t222 280t280.5 210t322.5 130t346 46zM1297 16q167 0 331.5 45t311 127t271.5 204.5t215.5 271.5t142 334t51.5 386q0 233 -76 429t-208 329t-313 207.5t-388 74.5q-167 0 -331.5 -45t-311 -127t-271.5 -204.5
t-215.5 -271.5t-142 -334t-51.5 -386q0 -233 76 -429t208.5 -329t313 -207.5t387.5 -74.5z" />
    <glyph glyph-name="Oacute" unicode="&#xd3;" horiz-adv-x="2813" 
d="M1637 2700q-5 -6 -11 0l-11 12q-4 6 2 12l601 464q8 6 12 0l11 -12q6 -6 -2 -12zM1640 2460q216 0 403.5 -75.5t324 -212t215 -338.5t78.5 -442q0 -209 -52.5 -400.5t-145.5 -345.5t-222 -280t-280.5 -210t-322.5 -130t-346 -46q-216 0 -403.5 75.5t-324 212t-215 338.5
t-78.5 442q0 209 52.5 400.5t145.5 345.5t222 280t280.5 210t322.5 130t346 46zM1297 16q167 0 331.5 45t311 127t271.5 204.5t215.5 271.5t142 334t51.5 386q0 233 -76 429t-208 329t-313 207.5t-388 74.5q-167 0 -331.5 -45t-311 -127t-271.5 -204.5t-215.5 -271.5
t-142 -334t-51.5 -386q0 -233 76 -429t208.5 -329t313 -207.5t387.5 -74.5z" />
    <glyph glyph-name="Ocircumflex" unicode="&#xd4;" horiz-adv-x="2813" 
d="M2081 2684l-349 452l-476 -452q-5 -4 -12 -4h-24q-12 0 -3 8l495 472q4 4 16 4h16q12 0 15 -4l362 -472q6 -8 -5 -8h-20q-12 0 -15 4zM1640 2460q216 0 403.5 -75.5t324 -212t215 -338.5t78.5 -442q0 -209 -52.5 -400.5t-145.5 -345.5t-222 -280t-280.5 -210t-322.5 -130
t-346 -46q-216 0 -403.5 75.5t-324 212t-215 338.5t-78.5 442q0 209 52.5 400.5t145.5 345.5t222 280t280.5 210t322.5 130t346 46zM1297 16q167 0 331.5 45t311 127t271.5 204.5t215.5 271.5t142 334t51.5 386q0 233 -76 429t-208 329t-313 207.5t-388 74.5
q-167 0 -331.5 -45t-311 -127t-271.5 -204.5t-215.5 -271.5t-142 -334t-51.5 -386q0 -233 76 -429t208.5 -329t313 -207.5t387.5 -74.5z" />
    <glyph glyph-name="Otilde" unicode="&#xd5;" horiz-adv-x="2813" 
d="M1176 2736q-7 0 -7 7q0 162 91 257.5t231 95.5q49 0 88 -18t65.5 -46.5t49.5 -63t45.5 -69t47 -63t59.5 -46.5t79 -18q219 0 284 316q2 8 10 8h16q6 0 6 -10q0 -160 -92 -255t-229 -95q-56 0 -100.5 24t-71 60t-55 78t-53 78t-65 60t-90.5 24q-219 0 -284 -316
q-2 -8 -9 -8h-16zM1640 2460q216 0 403.5 -75.5t324 -212t215 -338.5t78.5 -442q0 -209 -52.5 -400.5t-145.5 -345.5t-222 -280t-280.5 -210t-322.5 -130t-346 -46q-216 0 -403.5 75.5t-324 212t-215 338.5t-78.5 442q0 209 52.5 400.5t145.5 345.5t222 280t280.5 210
t322.5 130t346 46zM1297 16q167 0 331.5 45t311 127t271.5 204.5t215.5 271.5t142 334t51.5 386q0 233 -76 429t-208 329t-313 207.5t-388 74.5q-167 0 -331.5 -45t-311 -127t-271.5 -204.5t-215.5 -271.5t-142 -334t-51.5 -386q0 -233 76 -429t208.5 -329t313 -207.5
t387.5 -74.5z" />
    <glyph glyph-name="Odieresis" unicode="&#xd6;" horiz-adv-x="2813" 
d="M1378 2868q-22 0 -37 16t-15 38q0 26 21 46t48 20q22 0 37 -16t15 -38q0 -26 -21 -46t-48 -20zM2018 2868q-22 0 -37 16t-15 38q0 26 21 46t48 20q22 0 37 -16t15 -38q0 -26 -21 -46t-48 -20zM1640 2460q216 0 403.5 -75.5t324 -212t215 -338.5t78.5 -442
q0 -209 -52.5 -400.5t-145.5 -345.5t-222 -280t-280.5 -210t-322.5 -130t-346 -46q-216 0 -403.5 75.5t-324 212t-215 338.5t-78.5 442q0 209 52.5 400.5t145.5 345.5t222 280t280.5 210t322.5 130t346 46zM1297 16q167 0 331.5 45t311 127t271.5 204.5t215.5 271.5t142 334
t51.5 386q0 233 -76 429t-208 329t-313 207.5t-388 74.5q-167 0 -331.5 -45t-311 -127t-271.5 -204.5t-215.5 -271.5t-142 -334t-51.5 -386q0 -233 76 -429t208.5 -329t313 -207.5t387.5 -74.5z" />
    <glyph glyph-name="multiply" unicode="&#xd7;" horiz-adv-x="1881" 
d="M1763 1676q1 -1 0.5 -5t-2.5 -6l-767 -673l578 -673q4 -5 -2 -11l-16 -15q-7 -5 -11 0l-579 673l-767 -673q-8 -6 -11 0l-13 15q-2 1 -1.5 5.5t2.5 5.5l768 673l-579 673q-2 1 -1 5.5t3 5.5l17 15q6 5 11 0l578 -673l768 673q5 5 11 0z" />
    <glyph glyph-name="Oslash" unicode="&#xd8;" horiz-adv-x="2813" 
d="M2680 2285q2 -1 1.5 -5t-3.5 -6l-227 -199q210 -282 210 -683q0 -209 -52.5 -400.5t-145.5 -345.5t-222 -280t-280.5 -210t-322.5 -130t-346 -46q-248 0 -456 97.5t-347 277.5l-263 -231q-6 -6 -11 0l-13 15q-3 7 2 11l265 232q-198 277 -198 666q0 209 52.5 400.5
t145.5 345.5t222 280t280.5 210t322.5 130t346 46q242 0 446.5 -93t343.5 -265l226 198q6 5 11 0zM312 1056q0 -375 190 -644l1895 1660q-135 169 -332.5 260.5t-429.5 91.5q-167 0 -331.5 -45t-311 -127t-271.5 -204.5t-215.5 -271.5t-142 -334t-51.5 -386zM2620 1384
q0 388 -203 661l-1894 -1661q134 -176 335 -272t439 -96q167 0 331.5 45t311 127t271.5 204.5t215.5 271.5t142 334t51.5 386z" />
    <glyph glyph-name="Ugrave" unicode="&#xd9;" horiz-adv-x="2380" 
d="M1506 2700l-471 464q-6 6 1 12l14 12q6 6 12 0l470 -464q5 -6 -1 -12l-14 -12q-7 -6 -11 0zM2352 2440q7 0 7 -8l-201 -1432q-70 -496 -354 -768t-733 -272t-656 272t-137 768l201 1432q0 8 9 8h24q7 0 7 -8l-201 -1432q-68 -481 128 -742.5t630 -261.5t704 261.5
t338 742.5l201 1432q0 8 9 8h24z" />
    <glyph glyph-name="Uacute" unicode="&#xda;" horiz-adv-x="2380" 
d="M1419 2700q-5 -6 -11 0l-11 12q-4 6 2 12l601 464q8 6 12 0l11 -12q6 -6 -2 -12zM2352 2440q7 0 7 -8l-201 -1432q-70 -496 -354 -768t-733 -272t-656 272t-137 768l201 1432q0 8 9 8h24q7 0 7 -8l-201 -1432q-68 -481 128 -742.5t630 -261.5t704 261.5t338 742.5
l201 1432q0 8 9 8h24z" />
    <glyph glyph-name="Ucircumflex" unicode="&#xdb;" horiz-adv-x="2380" 
d="M1863 2684l-349 452l-476 -452q-5 -4 -12 -4h-24q-12 0 -3 8l495 472q4 4 16 4h16q12 0 15 -4l362 -472q6 -8 -5 -8h-20q-12 0 -15 4zM2352 2440q7 0 7 -8l-201 -1432q-70 -496 -354 -768t-733 -272t-656 272t-137 768l201 1432q0 8 9 8h24q7 0 7 -8l-201 -1432
q-68 -481 128 -742.5t630 -261.5t704 261.5t338 742.5l201 1432q0 8 9 8h24z" />
    <glyph glyph-name="Udieresis" unicode="&#xdc;" horiz-adv-x="2380" 
d="M1160 2868q-22 0 -37 16t-15 38q0 26 21 46t48 20q22 0 37 -16t15 -38q0 -26 -21 -46t-48 -20zM1800 2868q-22 0 -37 16t-15 38q0 26 21 46t48 20q22 0 37 -16t15 -38q0 -26 -21 -46t-48 -20zM2352 2440q7 0 7 -8l-201 -1432q-70 -496 -354 -768t-733 -272t-656 272
t-137 768l201 1432q0 8 9 8h24q7 0 7 -8l-201 -1432q-68 -481 128 -742.5t630 -261.5t704 261.5t338 742.5l201 1432q0 8 9 8h24z" />
    <glyph glyph-name="Yacute" unicode="&#xdd;" horiz-adv-x="2207" 
d="M1332 2700l-11 12q-4 6 2 12l601 464q8 6 12 0l11 -12q6 -6 -2 -12l-602 -464q-5 -6 -11 0zM2348 2440q13 0 7 -8l-1209 -1539l-124 -885q0 -8 -8 -8h-24q-8 0 -8 8l124 887l-795 1537v4.5t2 2.5t3.5 1h3.5h24q7 0 11 -8l777 -1500l1179 1500q7 8 14 8h23z" />
    <glyph glyph-name="Thorn" unicode="&#xde;" horiz-adv-x="2085" 
d="M1214 1960q166 0 300 -34t223.5 -92.5t150 -139.5t87 -171.5t26.5 -192.5q0 -123 -35 -237.5t-112.5 -219.5t-190.5 -183t-280.5 -124t-370.5 -46h-760l-72 -512q0 -8 -9 -8h-24q-8 0 -8 8l341 2424q2 8 10 8h24q8 0 6 -8l-66 -472h760zM1017 556q197 0 358.5 44.5
t268.5 118.5t180 174.5t105 209t32 224.5q0 96 -25 181.5t-82 162.5t-142 132.5t-214 88t-289 32.5h-760l-192 -1368h760z" />
    <glyph glyph-name="germandbls" unicode="&#xdf;" horiz-adv-x="1855" 
d="M1111 1260q0 -79 19 -140.5t51 -102t73.5 -72.5t87.5 -56.5t91.5 -49t87 -55.5t73.5 -70t51 -98.5t19 -135.5q0 -113 -41.5 -202.5t-105 -144t-147 -90.5t-161 -49.5t-153.5 -13.5q-269 0 -459 180q-8 8 -3 14l11 14q7 7 13 2q204 -174 443 -174q47 0 95.5 5.5t104.5 20
t106.5 36.5t98 58.5t82 82.5t55 111.5t20.5 142.5q0 94 -30.5 161t-79 106t-107.5 70.5t-118 65t-107.5 77t-79 120t-30.5 182.5q0 83 19 152.5t49.5 118.5t67.5 94t73.5 91t67 98t49.5 126t19 164q0 210 -102.5 327.5t-305.5 117.5q-115 0 -212 -39t-164 -108t-109.5 -160
t-57.5 -197l-285 -2032q0 -8 -9 -8h-24q-8 0 -8 8l286 2032q16 113 63.5 210.5t121 171.5t178 116t225.5 42q216 0 329.5 -129t113.5 -353q0 -91 -19 -166t-49.5 -128t-67 -100t-73.5 -92t-67.5 -93t-49.5 -114t-19 -145z" />
    <glyph glyph-name="agrave" unicode="&#xe0;" horiz-adv-x="2039" 
d="M1185 1860l-471 464q-6 6 1 12l14 12q6 6 12 0l470 -464q5 -6 -1 -12l-14 -12q-7 -6 -11 0zM1756 600q-14 -104 -17.5 -187t5.5 -155t20 -121t32 -123q3 -10 -6 -14l-11 -5q-10 -5 -13 3q-95 262 -63 519q-113 -241 -339.5 -389t-494.5 -148q-146 0 -273.5 51
t-220.5 142.5t-146.5 226t-53.5 292.5q0 162 50.5 308.5t139 258t205 194t253 125t277.5 42.5q268 0 452 -162t226 -419l78 553q2 8 9 8h24q7 0 7 -8zM874 16q174 0 335.5 70t280.5 187t190.5 279.5t71.5 339.5q0 197 -81.5 354.5t-232 247.5t-343.5 90q-113 0 -222.5 -29
t-207 -82.5t-180.5 -133.5t-142.5 -176.5t-93.5 -217t-34 -250.5q0 -152 50.5 -280t139 -215t209.5 -135.5t260 -48.5z" />
    <glyph glyph-name="aacute" unicode="&#xe1;" horiz-adv-x="2039" 
d="M1087 1860l-11 12q-4 6 2 12l601 464q7 6 12 0l11 -12q6 -6 -2 -12l-602 -464q-6 -6 -11 0zM1756 600q-14 -104 -17.5 -187t5.5 -155t20 -121t32 -123q3 -10 -6 -14l-11 -5q-10 -5 -13 3q-95 262 -63 519q-113 -241 -339.5 -389t-494.5 -148q-146 0 -273.5 51
t-220.5 142.5t-146.5 226t-53.5 292.5q0 162 50.5 308.5t139 258t205 194t253 125t277.5 42.5q268 0 452 -162t226 -419l78 553q2 8 9 8h24q7 0 7 -8zM874 16q174 0 335.5 70t280.5 187t190.5 279.5t71.5 339.5q0 197 -81.5 354.5t-232 247.5t-343.5 90q-113 0 -222.5 -29
t-207 -82.5t-180.5 -133.5t-142.5 -176.5t-93.5 -217t-34 -250.5q0 -152 50.5 -280t139 -215t209.5 -135.5t260 -48.5z" />
    <glyph glyph-name="acircumflex" unicode="&#xe2;" horiz-adv-x="2039" 
d="M681 1840q-12 0 -3 8l495 472q4 4 16 4h16q12 0 15 -4l362 -472q6 -8 -5 -8h-20q-12 0 -15 4l-349 452l-476 -452q-5 -4 -12 -4h-24zM1756 600q-14 -104 -17.5 -187t5.5 -155t20 -121t32 -123q3 -10 -6 -14l-11 -5q-10 -5 -13 3q-95 262 -63 519q-113 -241 -339.5 -389
t-494.5 -148q-146 0 -273.5 51t-220.5 142.5t-146.5 226t-53.5 292.5q0 162 50.5 308.5t139 258t205 194t253 125t277.5 42.5q268 0 452 -162t226 -419l78 553q2 8 9 8h24q7 0 7 -8zM874 16q174 0 335.5 70t280.5 187t190.5 279.5t71.5 339.5q0 197 -81.5 354.5t-232 247.5
t-343.5 90q-113 0 -222.5 -29t-207 -82.5t-180.5 -133.5t-142.5 -176.5t-93.5 -217t-34 -250.5q0 -152 50.5 -280t139 -215t209.5 -135.5t260 -48.5z" />
    <glyph glyph-name="atilde" unicode="&#xe3;" horiz-adv-x="2039" 
d="M637 1896q-7 0 -7 7q0 162 91 257.5t231 95.5q49 0 88 -18t65.5 -46.5t49.5 -63t45.5 -69t47 -63t59.5 -46.5t79 -18q219 0 284 316q2 8 10 8h16q6 0 6 -10q0 -160 -92 -255t-229 -95q-56 0 -100.5 24t-71 60t-55 78t-53 78t-65 60t-90.5 24q-219 0 -284 -316
q-2 -8 -9 -8h-16zM1756 600q-14 -104 -17.5 -187t5.5 -155t20 -121t32 -123q3 -10 -6 -14l-11 -5q-10 -5 -13 3q-95 262 -63 519q-113 -241 -339.5 -389t-494.5 -148q-146 0 -273.5 51t-220.5 142.5t-146.5 226t-53.5 292.5q0 162 50.5 308.5t139 258t205 194t253 125
t277.5 42.5q268 0 452 -162t226 -419l78 553q2 8 9 8h24q7 0 7 -8zM874 16q174 0 335.5 70t280.5 187t190.5 279.5t71.5 339.5q0 197 -81.5 354.5t-232 247.5t-343.5 90q-113 0 -222.5 -29t-207 -82.5t-180.5 -133.5t-142.5 -176.5t-93.5 -217t-34 -250.5q0 -152 50.5 -280
t139 -215t209.5 -135.5t260 -48.5z" />
    <glyph glyph-name="adieresis" unicode="&#xe4;" horiz-adv-x="2039" 
d="M839 2028q-22 0 -37 16t-15 38q0 26 21 46t48 20q22 0 37 -16t15 -38q0 -26 -21 -46t-48 -20zM1479 2028q-22 0 -37 16t-15 38q0 26 21 46t48 20q22 0 37 -16t15 -38q0 -26 -21 -46t-48 -20zM1756 600q-14 -104 -17.5 -187t5.5 -155t20 -121t32 -123q3 -10 -6 -14l-11 -5
q-10 -5 -13 3q-95 262 -63 519q-113 -241 -339.5 -389t-494.5 -148q-146 0 -273.5 51t-220.5 142.5t-146.5 226t-53.5 292.5q0 162 50.5 308.5t139 258t205 194t253 125t277.5 42.5q268 0 452 -162t226 -419l78 553q2 8 9 8h24q7 0 7 -8zM874 16q174 0 335.5 70t280.5 187
t190.5 279.5t71.5 339.5q0 197 -81.5 354.5t-232 247.5t-343.5 90q-113 0 -222.5 -29t-207 -82.5t-180.5 -133.5t-142.5 -176.5t-93.5 -217t-34 -250.5q0 -152 50.5 -280t139 -215t209.5 -135.5t260 -48.5z" />
    <glyph glyph-name="aring" unicode="&#xe5;" horiz-adv-x="2039" 
d="M1124 1776q-136 0 -226.5 92t-90.5 227q0 107 59 201t156 149t204 55q136 0 226 -93.5t90 -229.5q0 -107 -59 -200t-155.5 -147t-203.5 -54zM1222 2472q-155 0 -269 -111t-114 -265q0 -124 81 -208t208 -84q154 0 268 110.5t114 262.5q0 126 -80.5 210.5t-207.5 84.5z
M1756 600q-14 -104 -17.5 -187t5.5 -155t20 -121t32 -123q3 -10 -6 -14l-11 -5q-10 -5 -13 3q-95 262 -63 519q-113 -241 -339.5 -389t-494.5 -148q-146 0 -273.5 51t-220.5 142.5t-146.5 226t-53.5 292.5q0 162 50.5 308.5t139 258t205 194t253 125t277.5 42.5
q268 0 452 -162t226 -419l78 553q2 8 9 8h24q7 0 7 -8zM874 16q174 0 335.5 70t280.5 187t190.5 279.5t71.5 339.5q0 197 -81.5 354.5t-232 247.5t-343.5 90q-113 0 -222.5 -29t-207 -82.5t-180.5 -133.5t-142.5 -176.5t-93.5 -217t-34 -250.5q0 -152 50.5 -280t139 -215
t209.5 -135.5t260 -48.5z" />
    <glyph glyph-name="ae" unicode="&#xe6;" horiz-adv-x="3049" 
d="M2864 912h1l-4 -32q-1 -2 -1 -4h-1443q-17 -90 -17 -181q0 -152 50.5 -280t139 -215t209.5 -135.5t260 -48.5q443 0 690 428q4 7 13 4l17 -8q7 -3 2 -12q-255 -448 -727 -448q-275 0 -467 169.5t-222 449.5q-31 -118 -109 -230.5t-183.5 -198.5t-239.5 -138t-269 -52
q-201 0 -319.5 112.5t-118.5 286.5q0 149 83 271.5t242 199.5t391 86t530 -68l23 168q11 96 13 179t-21.5 151t-69.5 116.5t-129 75t-201 26.5q-155 0 -284 -42.5t-311 -133.5q-10 -5 -13 4l-5 17q-3 7 7 12q189 94 322 136.5t291 42.5q119 0 205.5 -26.5t136 -74.5t77 -116
t29.5 -152t-8 -181q107 252 334 401t497 149q201 0 345.5 -89t210 -250t43.5 -369zM1424 912h1400q32 302 -121.5 487t-442.5 185q-194 0 -368 -82t-298 -236t-170 -354zM568 16q116 0 229.5 38.5t204.5 103.5t164.5 148t118.5 175.5t58 182.5l24 168q-288 76 -512 70.5
t-377 -77t-233 -188t-80 -262.5q0 -159 107.5 -259t295.5 -100z" />
    <glyph glyph-name="ccedilla" unicode="&#xe7;" horiz-adv-x="1865" 
d="M1726 1172q2 -9 -6 -12l-19 -8q-9 -4 -11 4q-58 209 -202.5 318.5t-366.5 109.5q-116 0 -227.5 -29t-209.5 -83t-181 -133.5t-142.5 -176.5t-93 -217t-33.5 -251q0 -152 50.5 -279.5t139 -214.5t211 -135.5t265.5 -48.5q441 0 690 428q4 7 12 4l17 -8q7 -3 2 -12
q-124 -217 -307.5 -332.5t-420.5 -115.5h-28l-135 -272q84 25 162.5 25t140 -24t98.5 -77t37 -128q0 -133 -95.5 -218.5t-237.5 -85.5q-98 0 -170.5 22t-142.5 62q-1 0 -1.5 1l-2 4t1.5 7l10 16q2 4 5.5 5t5.5 0l2 -1q73 -39 140 -59.5t157 -20.5q128 0 207.5 74.5
t79.5 190.5q0 135 -122.5 180t-324.5 -17q-9 -3 -10 0t4 12l153 307q-183 14 -326 104.5t-225 247t-82 355.5q0 136 35 261.5t98 226.5t150 184.5t190 140t219.5 87t237.5 30.5q238 0 389 -115.5t213 -332.5z" />
    <glyph glyph-name="egrave" unicode="&#xe8;" horiz-adv-x="1884" 
d="M1135 1860l-471 464q-6 6 1 12l14 12q6 6 12 0l470 -464q5 -6 -1 -12l-14 -12q-7 -6 -11 0zM1699 912h1l-4 -32q-1 -2 -1 -4h-1443q-17 -90 -17 -181q0 -152 50.5 -280t139 -215t209.5 -135.5t260 -48.5q443 0 690 428q4 7 13 4l17 -8q7 -3 2 -12q-255 -448 -727 -448
q-146 0 -273.5 51t-220.5 142.5t-146.5 226t-53.5 292.5q0 201 74.5 376.5t199 295t289 188t342.5 68.5q201 0 345.5 -89t210 -250t43.5 -369zM259 912h1400q32 302 -121.5 487t-442.5 185q-194 0 -368 -82t-298 -236t-170 -354z" />
    <glyph glyph-name="eacute" unicode="&#xe9;" horiz-adv-x="1884" 
d="M1037 1860l-11 12q-4 6 2 12l601 464q7 6 12 0l11 -12q6 -6 -2 -12l-602 -464q-6 -6 -11 0zM1699 912h1l-4 -32q-1 -2 -1 -4h-1443q-17 -90 -17 -181q0 -152 50.5 -280t139 -215t209.5 -135.5t260 -48.5q443 0 690 428q4 7 13 4l17 -8q7 -3 2 -12q-255 -448 -727 -448
q-146 0 -273.5 51t-220.5 142.5t-146.5 226t-53.5 292.5q0 201 74.5 376.5t199 295t289 188t342.5 68.5q201 0 345.5 -89t210 -250t43.5 -369zM259 912h1400q32 302 -121.5 487t-442.5 185q-194 0 -368 -82t-298 -236t-170 -354z" />
    <glyph glyph-name="ecircumflex" unicode="&#xea;" horiz-adv-x="1884" 
d="M631 1840q-12 0 -3 8l495 472q4 4 16 4h16q12 0 15 -4l362 -472q6 -8 -5 -8h-20q-12 0 -15 4l-349 452l-476 -452q-5 -4 -12 -4h-24zM1699 912h1l-4 -32q-1 -2 -1 -4h-1443q-17 -90 -17 -181q0 -152 50.5 -280t139 -215t209.5 -135.5t260 -48.5q443 0 690 428q4 7 13 4
l17 -8q7 -3 2 -12q-255 -448 -727 -448q-146 0 -273.5 51t-220.5 142.5t-146.5 226t-53.5 292.5q0 201 74.5 376.5t199 295t289 188t342.5 68.5q201 0 345.5 -89t210 -250t43.5 -369zM259 912h1400q32 302 -121.5 487t-442.5 185q-194 0 -368 -82t-298 -236t-170 -354z" />
    <glyph glyph-name="edieresis" unicode="&#xeb;" horiz-adv-x="1884" 
d="M789 2028q-22 0 -37 16t-15 38q0 26 21 46t48 20q22 0 37 -16t15 -38q0 -26 -21 -46t-48 -20zM1429 2028q-22 0 -37 16t-15 38q0 26 21 46t48 20q22 0 37 -16t15 -38q0 -26 -21 -46t-48 -20zM1699 912h1l-4 -32q-1 -2 -1 -4h-1443q-17 -90 -17 -181q0 -152 50.5 -280
t139 -215t209.5 -135.5t260 -48.5q443 0 690 428q4 7 13 4l17 -8q7 -3 2 -12q-255 -448 -727 -448q-146 0 -273.5 51t-220.5 142.5t-146.5 226t-53.5 292.5q0 201 74.5 376.5t199 295t289 188t342.5 68.5q201 0 345.5 -89t210 -250t43.5 -369zM259 912h1400
q32 302 -121.5 487t-442.5 185q-194 0 -368 -82t-298 -236t-170 -354z" />
    <glyph glyph-name="igrave" unicode="&#xec;" horiz-adv-x="541" 
d="M469 1860l-471 464q-6 6 1 12l14 12q6 6 12 0l470 -464q5 -6 -1 -12l-14 -12q-7 -6 -11 0zM362 1592q0 8 9 8h24q7 0 7 -8l-223 -1584q0 -8 -9 -8h-24q-7 0 -7 8z" />
    <glyph glyph-name="iacute" unicode="&#xed;" horiz-adv-x="541" 
d="M382 1860q-6 -6 -11 0l-11 12q-4 6 2 12l601 464q7 6 12 0l11 -12q6 -6 -2 -12zM362 1592q0 8 9 8h24q7 0 7 -8l-223 -1584q0 -8 -9 -8h-24q-7 0 -7 8z" />
    <glyph glyph-name="icircumflex" unicode="&#xee;" horiz-adv-x="541" 
d="M826 1844l-349 452l-476 -452q-5 -4 -12 -4h-24q-12 0 -3 8l495 472q4 4 16 4h16q12 0 15 -4l362 -472q6 -8 -5 -8h-20q-12 0 -15 4zM362 1592q0 8 9 8h24q7 0 7 -8l-223 -1584q0 -8 -9 -8h-24q-7 0 -7 8z" />
    <glyph glyph-name="idieresis" unicode="&#xef;" horiz-adv-x="541" 
d="M123 2028q-22 0 -37 16t-15 38q0 26 21 46t48 20q22 0 37 -16t15 -38q0 -26 -21 -46t-48 -20zM763 2028q-22 0 -37 16t-15 38q0 26 21 46t48 20q22 0 37 -16t15 -38q0 -26 -21 -46t-48 -20zM362 1592q0 8 9 8h24q7 0 7 -8l-223 -1584q0 -8 -9 -8h-24q-7 0 -7 8z" />
    <glyph glyph-name="eth" unicode="&#xf0;" horiz-adv-x="2030" 
d="M1259 2409q120 -73 215 -176t156.5 -216.5t104 -245.5t62 -257.5t25 -257.5t-0.5 -242t-21 -214q-20 -146 -79.5 -275.5t-148 -228t-198.5 -170.5t-235 -109t-254 -37q-161 0 -298.5 59t-232 164t-137 260.5t-17.5 336.5q26 181 112 336.5t210 260.5t278 164t315 59
q246 0 427.5 -130.5t241.5 -355.5q1 140 -13 272t-52 276.5t-98 268t-158 237t-225 191.5l-251 -350q-6 -8 -11 -3l-15 9q-6 4 -2 11l252 350q-163 94 -374 132q-14 3 -5 17l5 7q5 6 14 5q215 -38 380 -132l216 300q4 8 11 3l15 -9q6 -4 1 -11zM890 16q154 0 300.5 56.5
t264 156.5t199 248.5t106.5 322.5t-15.5 322.5t-130 248.5t-220 156.5t-284.5 56.5t-300.5 -56.5t-264 -156.5t-199 -248.5t-106.5 -322.5t15.5 -322.5t130 -248.5t220 -156.5t284.5 -56.5z" />
    <glyph glyph-name="ntilde" unicode="&#xf1;" 
d="M654 1896q-7 0 -7 7q0 162 91 257.5t231 95.5q49 0 88 -18t65.5 -46.5t49.5 -63t45.5 -69t47 -63t59.5 -46.5t79 -18q219 0 284 316q2 8 10 8h16q6 0 6 -10q0 -160 -92 -255t-229 -95q-56 0 -100.5 24t-71 60t-55 78t-53 78t-65 60t-90.5 24q-219 0 -284 -316
q-2 -8 -9 -8h-16zM1189 1640q124 0 219 -32t156 -91t97 -143t41.5 -188t-9.5 -226l-133 -952q-2 -8 -9 -8h-24q-8 0 -8 8l134 952q15 116 10.5 214.5t-37 178t-89 135.5t-146 86t-207.5 30q-153 0 -307 -61.5t-272.5 -161.5t-200.5 -231.5t-101 -265.5l-123 -876q0 -8 -9 -8
h-24q-8 0 -8 8l223 1584q2 8 10 8h24q8 0 6 -8l-69 -488q29 63 81.5 132.5t133.5 142.5t175.5 130.5t217 94t248.5 36.5z" />
    <glyph glyph-name="ograve" unicode="&#xf2;" horiz-adv-x="2009" 
d="M1203 1860l-471 464q-6 6 1 12l14 12q6 6 12 0l470 -464q5 -6 -1 -12l-14 -12q-7 -6 -11 0zM1120 1620q146 0 273.5 -51t220.5 -142.5t146.5 -226t53.5 -292.5q0 -162 -50.5 -308.5t-139 -258t-205 -194t-253 -125t-277.5 -42.5q-146 0 -273.5 51t-220.5 142.5
t-146.5 226t-53.5 292.5q0 162 50.5 308.5t139 258t205 194t253 125t277.5 42.5zM894 16q132 0 261 40.5t240.5 119.5t196.5 185.5t133.5 247t48.5 296.5q0 152 -50.5 280t-139 215t-209.5 135.5t-260 48.5q-132 0 -261 -40.5t-240.5 -119.5t-196.5 -185.5t-133.5 -247
t-48.5 -296.5q0 -152 50.5 -280t139 -215t209.5 -135.5t260 -48.5z" />
    <glyph glyph-name="oacute" unicode="&#xf3;" horiz-adv-x="2009" 
d="M1116 1860q-6 -6 -11 0l-11 12q-4 6 2 12l601 464q7 6 12 0l11 -12q6 -6 -2 -12zM1120 1620q146 0 273.5 -51t220.5 -142.5t146.5 -226t53.5 -292.5q0 -162 -50.5 -308.5t-139 -258t-205 -194t-253 -125t-277.5 -42.5q-146 0 -273.5 51t-220.5 142.5t-146.5 226
t-53.5 292.5q0 162 50.5 308.5t139 258t205 194t253 125t277.5 42.5zM894 16q132 0 261 40.5t240.5 119.5t196.5 185.5t133.5 247t48.5 296.5q0 152 -50.5 280t-139 215t-209.5 135.5t-260 48.5q-132 0 -261 -40.5t-240.5 -119.5t-196.5 -185.5t-133.5 -247t-48.5 -296.5
q0 -152 50.5 -280t139 -215t209.5 -135.5t260 -48.5z" />
    <glyph glyph-name="ocircumflex" unicode="&#xf4;" horiz-adv-x="2009" 
d="M1560 1844l-349 452l-476 -452q-5 -4 -12 -4h-24q-12 0 -3 8l495 472q4 4 16 4h16q12 0 15 -4l362 -472q6 -8 -5 -8h-20q-12 0 -15 4zM1120 1620q146 0 273.5 -51t220.5 -142.5t146.5 -226t53.5 -292.5q0 -162 -50.5 -308.5t-139 -258t-205 -194t-253 -125t-277.5 -42.5
q-146 0 -273.5 51t-220.5 142.5t-146.5 226t-53.5 292.5q0 162 50.5 308.5t139 258t205 194t253 125t277.5 42.5zM894 16q132 0 261 40.5t240.5 119.5t196.5 185.5t133.5 247t48.5 296.5q0 152 -50.5 280t-139 215t-209.5 135.5t-260 48.5q-132 0 -261 -40.5t-240.5 -119.5
t-196.5 -185.5t-133.5 -247t-48.5 -296.5q0 -152 50.5 -280t139 -215t209.5 -135.5t260 -48.5z" />
    <glyph glyph-name="otilde" unicode="&#xf5;" horiz-adv-x="2009" 
d="M655 1896q-7 0 -7 7q0 162 91 257.5t231 95.5q49 0 88 -18t65.5 -46.5t49.5 -63t45.5 -69t47 -63t59.5 -46.5t79 -18q219 0 284 316q2 8 10 8h16q6 0 6 -10q0 -160 -92 -255t-229 -95q-56 0 -100.5 24t-71 60t-55 78t-53 78t-65 60t-90.5 24q-219 0 -284 -316
q-2 -8 -9 -8h-16zM1120 1620q146 0 273.5 -51t220.5 -142.5t146.5 -226t53.5 -292.5q0 -162 -50.5 -308.5t-139 -258t-205 -194t-253 -125t-277.5 -42.5q-146 0 -273.5 51t-220.5 142.5t-146.5 226t-53.5 292.5q0 162 50.5 308.5t139 258t205 194t253 125t277.5 42.5z
M894 16q132 0 261 40.5t240.5 119.5t196.5 185.5t133.5 247t48.5 296.5q0 152 -50.5 280t-139 215t-209.5 135.5t-260 48.5q-132 0 -261 -40.5t-240.5 -119.5t-196.5 -185.5t-133.5 -247t-48.5 -296.5q0 -152 50.5 -280t139 -215t209.5 -135.5t260 -48.5z" />
    <glyph glyph-name="odieresis" unicode="&#xf6;" horiz-adv-x="2009" 
d="M857 2028q-22 0 -37 16t-15 38q0 26 21 46t48 20q22 0 37 -16t15 -38q0 -26 -21 -46t-48 -20zM1497 2028q-22 0 -37 16t-15 38q0 26 21 46t48 20q22 0 37 -16t15 -38q0 -26 -21 -46t-48 -20zM1120 1620q146 0 273.5 -51t220.5 -142.5t146.5 -226t53.5 -292.5
q0 -162 -50.5 -308.5t-139 -258t-205 -194t-253 -125t-277.5 -42.5q-146 0 -273.5 51t-220.5 142.5t-146.5 226t-53.5 292.5q0 162 50.5 308.5t139 258t205 194t253 125t277.5 42.5zM894 16q132 0 261 40.5t240.5 119.5t196.5 185.5t133.5 247t48.5 296.5q0 152 -50.5 280
t-139 215t-209.5 135.5t-260 48.5q-132 0 -261 -40.5t-240.5 -119.5t-196.5 -185.5t-133.5 -247t-48.5 -296.5q0 -152 50.5 -280t139 -215t209.5 -135.5t260 -48.5z" />
    <glyph glyph-name="divide" unicode="&#xf7;" horiz-adv-x="2036" 
d="M977 1460q-19 0 -32 14t-13 34q0 28 25 50t54 22q20 0 32.5 -14t12.5 -34q0 -28 -25 -50t-54 -22zM279 1024q-8 0 -6 8l2 20q0 8 9 8h1540q7 0 7 -8l-2 -20q-2 -8 -10 -8h-1540zM843 504q-19 0 -32 14t-13 34q0 28 25 50t54 22q19 0 32 -14t13 -34q0 -28 -25 -50t-54 -22
z" />
    <glyph glyph-name="oslash" unicode="&#xf8;" horiz-adv-x="2009" 
d="M1877 1547q4 -5 -2 -11l-202 -177q141 -187 141 -451q0 -162 -50.5 -308.5t-139 -258t-205 -194t-253 -125t-277.5 -42.5q-159 0 -295.5 60t-231.5 170l-213 -187q-6 -6 -10 0l-12 14q-6 6 1 11l213 187q-146 189 -146 457q0 162 50.5 308.5t139 258t205 194t253 125
t277.5 42.5q162 0 299.5 -61.5t232.5 -174.5l202 177q5 5 10 0zM235 695q0 -255 136 -434l1251 1097q-90 108 -221 167t-286 59q-113 0 -222.5 -29t-207 -82.5t-180.5 -133.5t-142.5 -176.5t-93.5 -217t-34 -250.5zM1774 905q0 251 -132 427l-1250 -1096q90 -105 220 -162.5
t282 -57.5q113 0 222.5 29t207 82.5t180.5 133.5t142.5 176.5t93.5 217t34 250.5z" />
    <glyph glyph-name="ugrave" unicode="&#xf9;" 
d="M1161 1860l-471 464q-6 6 1 12l14 12q6 6 12 0l470 -464q5 -6 -1 -12l-14 -12q-7 -6 -11 0zM1775 1600q7 0 7 -8l-223 -1584q-2 -8 -9 -8h-24q-7 0 -7 8l69 488q-29 -63 -81.5 -132.5t-133.5 -142.5t-175.5 -130.5t-217 -94t-248.5 -36.5q-124 0 -219 32t-156 91t-97 143
t-41.5 188t9.5 226l134 952q0 8 9 8h24q7 0 7 -8l-134 -952q-15 -116 -10.5 -214.5t37 -178t89 -135.5t146 -86t207.5 -30q153 0 307 61.5t273 161.5t201 231.5t101 265.5l123 876q2 8 9 8h24z" />
    <glyph glyph-name="uacute" unicode="&#xfa;" 
d="M1074 1860q-6 -6 -11 0l-11 12q-4 6 2 12l601 464q7 6 12 0l11 -12q6 -6 -2 -12zM1775 1600q7 0 7 -8l-223 -1584q-2 -8 -9 -8h-24q-7 0 -7 8l69 488q-29 -63 -81.5 -132.5t-133.5 -142.5t-175.5 -130.5t-217 -94t-248.5 -36.5q-124 0 -219 32t-156 91t-97 143t-41.5 188
t9.5 226l134 952q0 8 9 8h24q7 0 7 -8l-134 -952q-15 -116 -10.5 -214.5t37 -178t89 -135.5t146 -86t207.5 -30q153 0 307 61.5t273 161.5t201 231.5t101 265.5l123 876q2 8 9 8h24z" />
    <glyph glyph-name="ucircumflex" unicode="&#xfb;" 
d="M1518 1844l-349 452l-476 -452q-5 -4 -12 -4h-24q-12 0 -3 8l495 472q4 4 16 4h16q12 0 15 -4l362 -472q6 -8 -5 -8h-20q-12 0 -15 4zM1775 1600q7 0 7 -8l-223 -1584q-2 -8 -9 -8h-24q-7 0 -7 8l69 488q-29 -63 -81.5 -132.5t-133.5 -142.5t-175.5 -130.5t-217 -94
t-248.5 -36.5q-124 0 -219 32t-156 91t-97 143t-41.5 188t9.5 226l134 952q0 8 9 8h24q7 0 7 -8l-134 -952q-15 -116 -10.5 -214.5t37 -178t89 -135.5t146 -86t207.5 -30q153 0 307 61.5t273 161.5t201 231.5t101 265.5l123 876q2 8 9 8h24z" />
    <glyph glyph-name="udieresis" unicode="&#xfc;" 
d="M815 2028q-22 0 -37 16t-15 38q0 26 21 46t48 20q22 0 37 -16t15 -38q0 -26 -21 -46t-48 -20zM1455 2028q-22 0 -37 16t-15 38q0 26 21 46t48 20q22 0 37 -16t15 -38q0 -26 -21 -46t-48 -20zM1775 1600q7 0 7 -8l-223 -1584q-2 -8 -9 -8h-24q-7 0 -7 8l69 488
q-29 -63 -81.5 -132.5t-133.5 -142.5t-175.5 -130.5t-217 -94t-248.5 -36.5q-124 0 -219 32t-156 91t-97 143t-41.5 188t9.5 226l134 952q0 8 9 8h24q7 0 7 -8l-134 -952q-15 -116 -10.5 -214.5t37 -178t89 -135.5t146 -86t207.5 -30q153 0 307 61.5t273 161.5t201 231.5
t101 265.5l123 876q2 8 9 8h24z" />
    <glyph glyph-name="yacute" unicode="&#xfd;" horiz-adv-x="1507" 
d="M852 1860l-11 12q-4 6 2 12l601 464q8 6 12 0l11 -12q6 -6 -2 -12l-602 -464q-5 -6 -11 0zM1593 1600q11 0 1 -16l-916 -1596q-85 -148 -148.5 -253.5t-132.5 -211t-125 -176t-117.5 -133t-118 -98.5t-118 -56t-126.5 -20q-8 0 -8 8l3 20q2 8 10 8q78 0 153 35.5
t147.5 101t158 180.5t170.5 250.5t199 333.5l-492 1607q-6 16 7 16h20q10 0 14 -12l477 -1565l899 1565q8 12 23 12h20z" />
    <glyph glyph-name="thorn" unicode="&#xfe;" horiz-adv-x="2055" 
d="M1166 1620q146 0 273.5 -51t220.5 -142.5t146.5 -226t53.5 -292.5q0 -162 -50.5 -308.5t-139 -258t-205 -194t-253 -125t-277.5 -42.5q-268 0 -452 162t-226 419l-213 -1513q-2 -8 -9 -8h-24q-7 0 -7 8l493 3504q0 8 9 8h24q7 0 7 -8l-208 -1477q112 244 339.5 394.5
t497.5 150.5zM940 16q113 0 222.5 29t207 82.5t180.5 133.5t142.5 176.5t93.5 217t34 250.5q0 152 -50.5 280t-139 215t-209.5 135.5t-260 48.5q-174 0 -335.5 -70t-280.5 -187t-190.5 -279.5t-71.5 -339.5q0 -197 81.5 -354.5t232 -247.5t343.5 -90z" />
    <glyph glyph-name="ydieresis" unicode="&#xff;" horiz-adv-x="1507" 
d="M604 2028q-22 0 -37 16t-15 38q0 26 21 46t48 20q22 0 37 -16t15 -38q0 -26 -21 -46t-48 -20zM1244 2028q-22 0 -37 16t-15 38q0 26 21 46t48 20q22 0 37 -16t15 -38q0 -26 -21 -46t-48 -20zM1593 1600q11 0 1 -16l-916 -1596q-85 -148 -148.5 -253.5t-132.5 -211
t-125 -176t-117.5 -133t-118 -98.5t-118 -56t-126.5 -20q-8 0 -8 8l3 20q2 8 10 8q78 0 153 35.5t147.5 101t158 180.5t170.5 250.5t199 333.5l-492 1607q-6 16 7 16h20q10 0 14 -12l477 -1565l899 1565q8 12 23 12h20z" />
    <glyph glyph-name="Amacron" unicode="&#x100;" horiz-adv-x="2370" 
d="M1020 2900q-8 0 -6 8l2 20q0 8 9 8h944q7 0 7 -8l-2 -20q-2 -8 -10 -8h-944zM2178 8q1 -4 -0.5 -6t-3.5 -2h-5h-24q-9 0 -11 8l-273 936h-1299l-544 -936q-5 -8 -13 -8h-28q-12 0 -7 8l1439 2464q5 8 12 8h20q8 0 11 -8zM583 980h1268l-424 1452z" />
    <glyph glyph-name="amacron" unicode="&#x101;" horiz-adv-x="2039" 
d="M691 2060q-8 0 -6 8l2 20q0 8 9 8h944q7 0 7 -8l-2 -20q-2 -8 -10 -8h-944zM1756 600q-14 -104 -17.5 -187t5.5 -155t20 -121t32 -123q3 -10 -6 -14l-11 -5q-10 -5 -13 3q-95 262 -63 519q-113 -241 -339.5 -389t-494.5 -148q-146 0 -273.5 51t-220.5 142.5t-146.5 226
t-53.5 292.5q0 162 50.5 308.5t139 258t205 194t253 125t277.5 42.5q268 0 452 -162t226 -419l78 553q2 8 9 8h24q7 0 7 -8zM874 16q174 0 335.5 70t280.5 187t190.5 279.5t71.5 339.5q0 197 -81.5 354.5t-232 247.5t-343.5 90q-113 0 -222.5 -29t-207 -82.5t-180.5 -133.5
t-142.5 -176.5t-93.5 -217t-34 -250.5q0 -152 50.5 -280t139 -215t209.5 -135.5t260 -48.5z" />
    <glyph glyph-name="Abreve" unicode="&#x102;" horiz-adv-x="2370" 
d="M1462 2680q-104 0 -191 39t-142.5 119.5t-55.5 186.5q0 55 13 55h20q3 0 3 -51q0 -98 51.5 -171.5t131.5 -109.5t174 -36q158 0 289.5 97.5t165.5 262.5q2 8 9 8h20q7 0 7 -7q0 -85 -44 -160t-114.5 -125t-159 -79t-177.5 -29zM2178 8q1 -4 -0.5 -6t-3.5 -2h-5h-24
q-9 0 -11 8l-273 936h-1299l-544 -936q-5 -8 -13 -8h-28q-12 0 -7 8l1439 2464q5 8 12 8h20q8 0 11 -8zM583 980h1268l-424 1452z" />
    <glyph glyph-name="abreve" unicode="&#x103;" horiz-adv-x="2039" 
d="M1133 1840q-104 0 -191 39t-142.5 119.5t-55.5 186.5q0 55 13 55h20q3 0 3 -51q0 -98 51.5 -171.5t131.5 -109.5t174 -36q158 0 289.5 97.5t165.5 262.5q2 8 9 8h20q7 0 7 -7q0 -85 -44 -160t-114.5 -125t-159 -79t-177.5 -29zM1756 600q-14 -104 -17.5 -187t5.5 -155
t20 -121t32 -123q3 -10 -6 -14l-11 -5q-10 -5 -13 3q-95 262 -63 519q-113 -241 -339.5 -389t-494.5 -148q-146 0 -273.5 51t-220.5 142.5t-146.5 226t-53.5 292.5q0 162 50.5 308.5t139 258t205 194t253 125t277.5 42.5q268 0 452 -162t226 -419l78 553q2 8 9 8h24
q7 0 7 -8zM874 16q174 0 335.5 70t280.5 187t190.5 279.5t71.5 339.5q0 197 -81.5 354.5t-232 247.5t-343.5 90q-113 0 -222.5 -29t-207 -82.5t-180.5 -133.5t-142.5 -176.5t-93.5 -217t-34 -250.5q0 -152 50.5 -280t139 -215t209.5 -135.5t260 -48.5z" />
    <glyph glyph-name="Aogonek" unicode="&#x104;" horiz-adv-x="2370" 
d="M2178 8q1 -4 -0.5 -6t-3.5 -2h-5h-13q-225 -119 -343 -259.5t-118 -291.5q0 -101 53.5 -159t151.5 -58q121 0 227 48q7 3 11.5 2.5t3.5 -6.5l-1 -12q-1 -10 -15 -16q-108 -48 -230 -48q-111 0 -174 67.5t-63 180.5q0 152 127.5 308.5t345.5 258.5l-271 929h-1299
l-544 -936q-5 -8 -13 -8h-28q-12 0 -7 8l1439 2464q5 8 12 8h20q8 0 11 -8zM583 980h1268l-424 1452z" />
    <glyph glyph-name="aogonek" unicode="&#x105;" horiz-adv-x="2038" 
d="M1756 600q-15 -104 -18.5 -187t5.5 -155t20 -121t32 -123q3 -9 -6 -14q-483 -269 -518 -516q-36 -252 182 -252q108 0 217 48q7 3 12 2.5t4 -6.5l-2 -12q-1 -10 -14 -16q-96 -48 -221 -48q-124 0 -178.5 75t-35.5 209q37 265 525 533q-80 231 -52 510
q-112 -245 -340 -396t-499 -151q-146 0 -273.5 51t-220.5 142.5t-146.5 226t-53.5 292.5q0 162 50.5 308.5t139 258t205 194t253 125t277.5 42.5q268 0 452 -162t226 -419l78 553q2 8 9 8h24q7 0 7 -8zM874 16q138 0 271.5 46.5t241.5 129.5t191 192t128.5 240.5t45.5 267.5
q0 140 -48 266.5t-132.5 220.5t-208.5 149.5t-268 55.5q-113 0 -222.5 -29t-207 -82.5t-180.5 -133.5t-142.5 -176.5t-93.5 -217t-34 -250.5q0 -152 50.5 -280t139 -215t209.5 -135.5t260 -48.5z" />
    <glyph glyph-name="Cacute" unicode="&#x106;" horiz-adv-x="2585" 
d="M1637 2700q-5 -6 -11 0l-11 12q-4 6 2 12l601 464q8 6 12 0l11 -12q6 -6 -2 -12zM2356 626q1 0 1.5 -1l2 -4t-1.5 -7q-406 -634 -1066 -634q-216 0 -403.5 75.5t-324 212t-215 338.5t-78.5 442q0 209 52.5 400.5t145.5 345.5t222 280t280.5 210t322.5 130t346 46
q654 0 888 -634q1 -4 0 -6.5t-3 -3.5l-2 -2l-19 -8q-8 -4 -11 4q-114 318 -329 466t-529 148q-167 0 -331.5 -45t-311 -127t-271.5 -204.5t-215.5 -271.5t-142 -334t-51.5 -386q0 -233 76 -429t208.5 -329t313 -207.5t387.5 -74.5q634 0 1030 614q2 4 5.5 5t5.5 0l2 -1z" />
    <glyph glyph-name="cacute" unicode="&#x107;" horiz-adv-x="1865" 
d="M1123 1860q-5 -6 -11 0l-11 12q-4 6 2 12l601 464q8 6 12 0l11 -12q6 -6 -2 -12zM1619 440q7 -3 2 -12q-124 -217 -307.5 -332.5t-420.5 -115.5q-200 0 -358.5 87t-249.5 249.5t-91 373.5q0 136 35 261.5t98 226.5t150 184.5t190 140t219.5 87t237.5 30.5
q238 0 389 -115.5t213 -332.5q2 -9 -6 -12l-19 -8q-9 -4 -11 4q-58 209 -202.5 318.5t-366.5 109.5q-116 0 -227.5 -29t-209.5 -83t-181 -133.5t-142.5 -176.5t-93 -217t-33.5 -251q0 -152 50.5 -279.5t139 -214.5t211 -135.5t265.5 -48.5q441 0 690 428q4 7 12 4z" />
    <glyph glyph-name="Cdotaccent" unicode="&#x10a;" horiz-adv-x="2585" 
d="M1698 2868q-22 0 -37 16t-15 38q0 26 21 46t48 20q22 0 37 -16t15 -38q0 -26 -21 -46t-48 -20zM2356 626q1 0 1.5 -1l2 -4t-1.5 -7q-406 -634 -1066 -634q-216 0 -403.5 75.5t-324 212t-215 338.5t-78.5 442q0 209 52.5 400.5t145.5 345.5t222 280t280.5 210t322.5 130
t346 46q654 0 888 -634q1 -4 0 -6.5t-3 -3.5l-2 -2l-19 -8q-8 -4 -11 4q-114 318 -329 466t-529 148q-167 0 -331.5 -45t-311 -127t-271.5 -204.5t-215.5 -271.5t-142 -334t-51.5 -386q0 -233 76 -429t208.5 -329t313 -207.5t387.5 -74.5q634 0 1030 614q2 4 5.5 5t5.5 0
l2 -1z" />
    <glyph glyph-name="cdotaccent" unicode="&#x10b;" horiz-adv-x="1865" 
d="M1184 2028q-22 0 -37 16t-15 38q0 26 21 46t48 20q22 0 37 -16t15 -38q0 -26 -21 -46t-48 -20zM1619 440q7 -3 2 -12q-124 -217 -307.5 -332.5t-420.5 -115.5q-200 0 -358.5 87t-249.5 249.5t-91 373.5q0 136 35 261.5t98 226.5t150 184.5t190 140t219.5 87t237.5 30.5
q238 0 389 -115.5t213 -332.5q2 -9 -6 -12l-19 -8q-9 -4 -11 4q-58 209 -202.5 318.5t-366.5 109.5q-116 0 -227.5 -29t-209.5 -83t-181 -133.5t-142.5 -176.5t-93 -217t-33.5 -251q0 -152 50.5 -279.5t139 -214.5t211 -135.5t265.5 -48.5q441 0 690 428q4 7 12 4z" />
    <glyph glyph-name="Ccaron" unicode="&#x10c;" horiz-adv-x="2585" 
d="M2148 3156q4 4 16 4h20q11 0 3 -8l-495 -472q-5 -4 -17 -4h-16q-11 0 -14 4l-362 472q-7 8 5 8h24q7 0 11 -4l349 -452zM2356 626q1 0 1.5 -1l2 -4t-1.5 -7q-406 -634 -1066 -634q-216 0 -403.5 75.5t-324 212t-215 338.5t-78.5 442q0 209 52.5 400.5t145.5 345.5
t222 280t280.5 210t322.5 130t346 46q654 0 888 -634q1 -4 0 -6.5t-3 -3.5l-2 -2l-19 -8q-8 -4 -11 4q-114 318 -329 466t-529 148q-167 0 -331.5 -45t-311 -127t-271.5 -204.5t-215.5 -271.5t-142 -334t-51.5 -386q0 -233 76 -429t208.5 -329t313 -207.5t387.5 -74.5
q634 0 1030 614q2 4 5.5 5t5.5 0l2 -1z" />
    <glyph glyph-name="ccaron" unicode="&#x10d;" horiz-adv-x="1865" 
d="M1634 2316q4 4 16 4h20q11 0 3 -8l-495 -472q-5 -4 -17 -4h-16q-11 0 -14 4l-362 472q-7 8 5 8h24q7 0 11 -4l349 -452zM1619 440q7 -3 2 -12q-124 -217 -307.5 -332.5t-420.5 -115.5q-200 0 -358.5 87t-249.5 249.5t-91 373.5q0 136 35 261.5t98 226.5t150 184.5
t190 140t219.5 87t237.5 30.5q238 0 389 -115.5t213 -332.5q2 -9 -6 -12l-19 -8q-9 -4 -11 4q-58 209 -202.5 318.5t-366.5 109.5q-116 0 -227.5 -29t-209.5 -83t-181 -133.5t-142.5 -176.5t-93 -217t-33.5 -251q0 -152 50.5 -279.5t139 -214.5t211 -135.5t265.5 -48.5
q441 0 690 428q4 7 12 4z" />
    <glyph glyph-name="Dcaron" unicode="&#x10e;" horiz-adv-x="2437" 
d="M1347 2680l-362 472q-7 8 5 8h24q7 0 11 -4l349 -452l476 452q4 4 16 4h20q11 0 3 -8l-495 -472q-5 -4 -17 -4h-16q-11 0 -14 4zM1220 2440q231 0 426 -70.5t337 -201.5t221.5 -329t79.5 -442q0 -216 -52 -409.5t-145.5 -345.5t-223.5 -274t-286.5 -202.5t-334 -123
t-365.5 -42.5h-720h-12q-8 0 -6 8l340 2424q0 8 9 8h24h708zM882 36q216 0 418 58.5t373 174t299 276.5t200 378t72 466q0 236 -78 429t-215.5 320.5t-326 196.5t-409.5 69h-700l-332 -2368h699z" />
    <glyph glyph-name="dcaron" unicode="&#x10f;" horiz-adv-x="2367" 
d="M2351 2580q23 0 36.5 -16.5t13.5 -47.5q0 -54 -18.5 -122t-69 -154t-124.5 -152q-8 -7 -15 0l-8 8q-4 6 2 12q74 66 121.5 157t47.5 164q0 14 -5.5 21t-21.5 14q-28 13 -28 46q0 29 21 49.5t48 20.5zM2044 2560q7 0 7 -8l-358 -2544q0 -8 -9 -8h-24q-7 0 -7 8l72 514
q-112 -242 -339.5 -392t-496.5 -150q-146 0 -273.5 51t-220.5 142.5t-146.5 226t-53.5 292.5q0 162 50.5 308.5t139 258t205 194t253 125t277.5 42.5q268 0 452 -162t226 -419l213 1513q2 8 9 8h24zM894 16q174 0 335.5 70t280.5 187t190.5 279.5t71.5 339.5
q0 197 -81.5 354.5t-232 247.5t-343.5 90q-113 0 -222.5 -29t-207 -82.5t-180.5 -133.5t-142.5 -176.5t-93.5 -217t-34 -250.5q0 -152 50.5 -280t139 -215t209.5 -135.5t260 -48.5z" />
    <glyph glyph-name="Dcroat" unicode="&#x110;" horiz-adv-x="2437" 
d="M1220 2440q231 0 426 -70.5t337 -201.5t221.5 -329t79.5 -442q0 -216 -52 -409.5t-145.5 -345.5t-223.5 -274t-286.5 -202.5t-334 -123t-365.5 -42.5h-720h-12q-8 0 -6 8l168 1196h-320q-8 0 -6 8l2 20q0 8 9 8h320l167 1192q0 8 9 8h24h708zM882 36q216 0 418 58.5
t373 174t299 276.5t200 378t72 466q0 236 -78 429t-215.5 320.5t-326 196.5t-409.5 69h-700l-163 -1164h660q7 0 7 -8l-2 -20q-2 -8 -10 -8h-660l-164 -1168h699z" />
    <glyph glyph-name="dcroat" unicode="&#x111;" horiz-adv-x="2138" 
d="M2293 2100q9 0 7 -8l-3 -20q-2 -8 -9 -8h-306l-289 -2056q0 -8 -9 -8h-24q-7 0 -7 8l72 514q-112 -242 -339.5 -392t-496.5 -150q-146 0 -273.5 51t-220.5 142.5t-146.5 226t-53.5 292.5q0 162 50.5 308.5t139 258t205 194t253 125t277.5 42.5q268 0 452 -162t226 -419
l144 1025h-514q-9 0 -7 8l3 20q2 8 9 8h514l64 452q2 8 9 8h24q7 0 7 -8l-64 -452h306zM894 16q174 0 335.5 70t280.5 187t190.5 279.5t71.5 339.5q0 197 -81.5 354.5t-232 247.5t-343.5 90q-113 0 -222.5 -29t-207 -82.5t-180.5 -133.5t-142.5 -176.5t-93.5 -217
t-34 -250.5q0 -152 50.5 -280t139 -215t209.5 -135.5t260 -48.5z" />
    <glyph glyph-name="Emacron" unicode="&#x112;" horiz-adv-x="2060" 
d="M876 2900q-8 0 -6 8l2 20q0 8 9 8h944q7 0 7 -8l-2 -20q-2 -8 -10 -8h-944zM2032 2440q7 0 7 -8l-3 -20q-2 -8 -9 -8h-1512l-155 -1104h1352q7 0 7 -8l-3 -20q-2 -8 -9 -8h-1352l-172 -1228h1551q7 0 7 -8l-2 -20q-2 -8 -10 -8h-1564h-20q-8 0 -6 8l340 2424q0 8 9 8h24
h1520z" />
    <glyph glyph-name="emacron" unicode="&#x113;" horiz-adv-x="1884" 
d="M641 2060q-8 0 -6 8l2 20q0 8 9 8h944q7 0 7 -8l-2 -20q-2 -8 -10 -8h-944zM1699 912h1l-4 -32q-1 -2 -1 -4h-1443q-17 -90 -17 -181q0 -152 50.5 -280t139 -215t209.5 -135.5t260 -48.5q443 0 690 428q4 7 13 4l17 -8q7 -3 2 -12q-255 -448 -727 -448q-146 0 -273.5 51
t-220.5 142.5t-146.5 226t-53.5 292.5q0 201 74.5 376.5t199 295t289 188t342.5 68.5q201 0 345.5 -89t210 -250t43.5 -369zM259 912h1400q32 302 -121.5 487t-442.5 185q-194 0 -368 -82t-298 -236t-170 -354z" />
    <glyph glyph-name="Edotaccent" unicode="&#x116;" horiz-adv-x="2060" 
d="M1344 2868q-22 0 -37 16t-15 38q0 26 21 46t48 20q22 0 37 -16t15 -38q0 -26 -21 -46t-48 -20zM2032 2440q7 0 7 -8l-3 -20q-2 -8 -9 -8h-1512l-155 -1104h1352q7 0 7 -8l-3 -20q-2 -8 -9 -8h-1352l-172 -1228h1551q7 0 7 -8l-2 -20q-2 -8 -10 -8h-1564h-20q-8 0 -6 8
l340 2424q0 8 9 8h24h1520z" />
    <glyph glyph-name="edotaccent" unicode="&#x117;" horiz-adv-x="1884" 
d="M1109 2028q-22 0 -37 16t-15 38q0 26 21 46t48 20q22 0 37 -16t15 -38q0 -26 -21 -46t-48 -20zM1699 912h1l-4 -32q-1 -2 -1 -4h-1443q-17 -90 -17 -181q0 -152 50.5 -280t139 -215t209.5 -135.5t260 -48.5q443 0 690 428q4 7 13 4l17 -8q7 -3 2 -12q-255 -448 -727 -448
q-146 0 -273.5 51t-220.5 142.5t-146.5 226t-53.5 292.5q0 201 74.5 376.5t199 295t289 188t342.5 68.5q201 0 345.5 -89t210 -250t43.5 -369zM259 912h1400q32 302 -121.5 487t-442.5 185q-194 0 -368 -82t-298 -236t-170 -354z" />
    <glyph glyph-name="Eogonek" unicode="&#x118;" horiz-adv-x="2060" 
d="M2032 2440q7 0 7 -8l-3 -20q-2 -8 -9 -8h-1512l-155 -1104h1352q7 0 7 -8l-3 -20q-2 -8 -9 -8h-1352l-172 -1228h1551q7 0 7 -8l-2 -20q-2 -8 -10 -8h-100q-225 -119 -343 -259.5t-118 -291.5q0 -101 53.5 -159t151.5 -58q121 0 227 48q7 3 11.5 2.5t3.5 -6.5l-1 -12
q-1 -10 -15 -16q-108 -48 -230 -48q-111 0 -174 67.5t-63 180.5q0 146 119 297.5t323 254.5h-1409h-20q-8 0 -6 8l340 2424q0 8 9 8h24h1520z" />
    <glyph glyph-name="eogonek" unicode="&#x119;" horiz-adv-x="1884" 
d="M1699 912h1l-4 -32q-1 -2 -1 -4h-1443q-17 -90 -17 -181q0 -152 50.5 -280t139 -215t209.5 -135.5t260 -48.5q443 0 690 428q4 7 13 4l17 -8q7 -3 2 -12q-168 -295 -435 -397q-181 -106 -276 -234t-95 -263q0 -121 62.5 -191.5t175.5 -70.5q124 0 220 48q16 8 16 -4v-12
q0 -10 -12 -16q-95 -48 -224 -48q-125 0 -199.5 80.5t-74.5 213.5q0 120 79 245.5t221 219.5q-92 -19 -185 -19q-146 0 -273.5 51t-220.5 142.5t-146.5 226t-53.5 292.5q0 201 74.5 376.5t199 295t289 188t342.5 68.5q201 0 345.5 -89t210 -250t43.5 -369zM259 912h1400
q32 302 -121.5 487t-442.5 185q-194 0 -368 -82t-298 -236t-170 -354z" />
    <glyph glyph-name="Ecaron" unicode="&#x11a;" horiz-adv-x="2060" 
d="M1291 2680l-362 472q-7 8 5 8h24q7 0 11 -4l349 -452l476 452q4 4 16 4h20q11 0 3 -8l-495 -472q-5 -4 -17 -4h-16q-11 0 -14 4zM2032 2440q7 0 7 -8l-3 -20q-2 -8 -9 -8h-1512l-155 -1104h1352q7 0 7 -8l-3 -20q-2 -8 -9 -8h-1352l-172 -1228h1551q7 0 7 -8l-2 -20
q-2 -8 -10 -8h-1564h-20q-8 0 -6 8l340 2424q0 8 9 8h24h1520z" />
    <glyph glyph-name="ecaron" unicode="&#x11b;" horiz-adv-x="1884" 
d="M1056 1840l-362 472q-7 8 5 8h24q7 0 11 -4l349 -452l476 452q4 4 16 4h20q11 0 3 -8l-495 -472q-5 -4 -17 -4h-16q-11 0 -14 4zM1699 912h1l-4 -32q-1 -2 -1 -4h-1443q-17 -90 -17 -181q0 -152 50.5 -280t139 -215t209.5 -135.5t260 -48.5q443 0 690 428q4 7 13 4l17 -8
q7 -3 2 -12q-255 -448 -727 -448q-146 0 -273.5 51t-220.5 142.5t-146.5 226t-53.5 292.5q0 201 74.5 376.5t199 295t289 188t342.5 68.5q201 0 345.5 -89t210 -250t43.5 -369zM259 912h1400q32 302 -121.5 487t-442.5 185q-194 0 -368 -82t-298 -236t-170 -354z" />
    <glyph glyph-name="Gbreve" unicode="&#x11e;" horiz-adv-x="2629" 
d="M1652 2680q-104 0 -191 39t-142.5 119.5t-55.5 186.5q0 55 13 55h20q3 0 3 -51q0 -98 51.5 -171.5t131.5 -109.5t174 -36q158 0 289.5 97.5t165.5 262.5q2 8 9 8h20q7 0 7 -7q0 -85 -44 -160t-114.5 -125t-159 -79t-177.5 -29zM2522 1896q2 -4 0.5 -6.5t-4.5 -3.5l-2 -2
l-19 -8q-7 -4 -11 4q-137 283 -336 413.5t-515 130.5q-167 0 -331.5 -45t-311 -127t-271.5 -204.5t-215.5 -271.5t-142 -334t-51.5 -386q0 -233 76 -429t208.5 -329t313 -207.5t387.5 -74.5q264 0 487.5 60.5t481.5 209.5l108 766q0 8 10 8h24q6 0 6 -8l-110 -780
q-267 -162 -497 -227t-515 -65q-216 0 -403.5 75.5t-324 212t-215 338.5t-78.5 442q0 209 52.5 400.5t145.5 345.5t222 280t280.5 210t322.5 130t346 46q167 0 300 -35t239.5 -107t188.5 -175t154 -247z" />
    <glyph glyph-name="gbreve" unicode="&#x11f;" horiz-adv-x="1791" 
d="M1028 1840q-104 0 -191 39t-142.5 119.5t-55.5 186.5q0 55 13 55h20q3 0 3 -51q0 -98 51.5 -171.5t131.5 -109.5t174 -36q158 0 289.5 97.5t165.5 262.5q2 8 9 8h20q7 0 7 -7q0 -85 -44 -160t-114.5 -125t-159 -79t-177.5 -29zM1783 1660q10 0 8 -9l-3 -19q-2 -8 -9 -8
q-110 0 -199.5 -57.5t-126.5 -156.5q90 -123 90 -291q0 -120 -55.5 -233.5t-148.5 -198t-223.5 -136t-272.5 -51.5h-184q-241 0 -360 -81.5t-119 -206.5q0 -37 11.5 -67.5t40.5 -58t74.5 -46t117 -29.5t165.5 -11h240q316 0 486.5 -115t170.5 -312q0 -242 -211.5 -387.5
t-580.5 -145.5q-314 0 -485.5 115t-171.5 313q0 91 41 172t112.5 142.5t163.5 107.5t200 74q-119 2 -202 21t-128 52.5t-64.5 74t-19.5 93.5q0 137 122.5 229.5t360.5 100.5q-153 54 -241.5 181.5t-88.5 284.5q0 161 94 303.5t257 229t353 86.5q137 0 247.5 -47.5
t184.5 -131.5q48 98 144.5 158.5t209.5 60.5zM1503 1116q0 201 -140.5 334.5t-370.5 133.5q-134 0 -257.5 -49.5t-210.5 -130t-139 -186t-52 -214.5q0 -95 35 -180t99 -149t161.5 -101.5t215.5 -37.5q135 0 258 48t210 127.5t139 185.5t52 219zM824 -36q-136 0 -268.5 -35
t-239.5 -97t-173 -156.5t-66 -204.5q0 -183 161 -289t461 -106q353 0 550 134t197 359q0 183 -161 289t-461 106z" />
    <glyph glyph-name="Gdotaccent" unicode="&#x120;" horiz-adv-x="2629" 
d="M1678 2868q-22 0 -37 16t-15 38q0 26 21 46t48 20q22 0 37 -16t15 -38q0 -26 -21 -46t-48 -20zM2408 1060q6 0 6 -8l-110 -780q-267 -162 -497 -227t-515 -65q-216 0 -403.5 75.5t-324 212t-215 338.5t-78.5 442q0 209 52.5 400.5t145.5 345.5t222 280t280.5 210
t322.5 130t346 46q167 0 300 -35t239.5 -107t188.5 -175t154 -247q2 -4 0.5 -6.5t-4.5 -3.5l-2 -2l-19 -8q-7 -4 -11 4q-137 283 -336 413.5t-515 130.5q-167 0 -331.5 -45t-311 -127t-271.5 -204.5t-215.5 -271.5t-142 -334t-51.5 -386q0 -233 76 -429t208.5 -329
t313 -207.5t387.5 -74.5q264 0 487.5 60.5t481.5 209.5l108 766q0 8 10 8h24z" />
    <glyph glyph-name="gdotaccent" unicode="&#x121;" horiz-adv-x="1791" 
d="M1054 2028q-22 0 -37 16t-15 38q0 26 21 46t48 20q22 0 37 -16t15 -38q0 -26 -21 -46t-48 -20zM1783 1660q10 0 8 -9l-3 -19q-2 -8 -9 -8q-110 0 -199.5 -57.5t-126.5 -156.5q90 -123 90 -291q0 -120 -55.5 -233.5t-148.5 -198t-223.5 -136t-272.5 -51.5h-184
q-241 0 -360 -81.5t-119 -206.5q0 -37 11.5 -67.5t40.5 -58t74.5 -46t117 -29.5t165.5 -11h240q316 0 486.5 -115t170.5 -312q0 -242 -211.5 -387.5t-580.5 -145.5q-314 0 -485.5 115t-171.5 313q0 91 41 172t112.5 142.5t163.5 107.5t200 74q-119 2 -202 21t-128 52.5
t-64.5 74t-19.5 93.5q0 137 122.5 229.5t360.5 100.5q-153 54 -241.5 181.5t-88.5 284.5q0 161 94 303.5t257 229t353 86.5q137 0 247.5 -47.5t184.5 -131.5q48 98 144.5 158.5t209.5 60.5zM844 536q135 0 258 48t210 127.5t139 185.5t52 219q0 201 -140.5 334.5
t-370.5 133.5q-134 0 -257.5 -49.5t-210.5 -130t-139 -186t-52 -214.5q0 -95 35 -180t99 -149t161.5 -101.5t215.5 -37.5zM1446 -431q0 183 -161 289t-461 106q-136 0 -268.5 -35t-239.5 -97t-173 -156.5t-66 -204.5q0 -183 161 -289t461 -106q353 0 550 134t197 359z" />
    <glyph glyph-name="Gcommaaccent" unicode="&#x122;" horiz-adv-x="2629" 
d="M2408 1060q6 0 6 -8l-110 -780q-267 -162 -497 -227t-515 -65q-216 0 -403.5 75.5t-324 212t-215 338.5t-78.5 442q0 209 52.5 400.5t145.5 345.5t222 280t280.5 210t322.5 130t346 46q167 0 300 -35t239.5 -107t188.5 -175t154 -247q2 -4 0.5 -6.5t-4.5 -3.5l-2 -2
l-19 -8q-7 -4 -11 4q-137 283 -336 413.5t-515 130.5q-167 0 -331.5 -45t-311 -127t-271.5 -204.5t-215.5 -271.5t-142 -334t-51.5 -386q0 -233 76 -429t208.5 -329t313 -207.5t387.5 -74.5q264 0 487.5 60.5t481.5 209.5l108 766q0 8 10 8h24zM1152 -300q23 0 36.5 -16.5
t13.5 -47.5q0 -54 -18.5 -122t-69 -154t-124.5 -152q-8 -8 -16 0l-7 8q-4 6 2 12q74 66 121.5 157t47.5 164q0 14 -5.5 21t-21.5 14q-28 13 -28 46q0 29 21 49.5t48 20.5z" />
    <glyph glyph-name="gcommaaccent" unicode="&#x123;" horiz-adv-x="1791" 
d="M1057 2024q-23 0 -36.5 16.5t-13.5 47.5q0 54 18.5 122t69 154t124.5 152q8 8 16 0l7 -8q4 -6 -2 -12q-74 -66 -121.5 -157t-47.5 -164q0 -14 5.5 -21t21.5 -14q28 -13 28 -46q0 -29 -21 -49.5t-48 -20.5zM1783 1660q10 0 8 -9l-3 -19q-2 -8 -9 -8q-110 0 -199.5 -57.5
t-126.5 -156.5q90 -123 90 -291q0 -120 -55.5 -233.5t-148.5 -198t-223.5 -136t-272.5 -51.5h-184q-241 0 -360 -81.5t-119 -206.5q0 -37 11.5 -67.5t40.5 -58t74.5 -46t117 -29.5t165.5 -11h240q316 0 486.5 -115t170.5 -312q0 -242 -211.5 -387.5t-580.5 -145.5
q-314 0 -485.5 115t-171.5 313q0 91 41 172t112.5 142.5t163.5 107.5t200 74q-119 2 -202 21t-128 52.5t-64.5 74t-19.5 93.5q0 137 122.5 229.5t360.5 100.5q-153 54 -241.5 181.5t-88.5 284.5q0 161 94 303.5t257 229t353 86.5q137 0 247.5 -47.5t184.5 -131.5
q48 98 144.5 158.5t209.5 60.5zM844 536q135 0 258 48t210 127.5t139 185.5t52 219q0 201 -140.5 334.5t-370.5 133.5q-134 0 -257.5 -49.5t-210.5 -130t-139 -186t-52 -214.5q0 -95 35 -180t99 -149t161.5 -101.5t215.5 -37.5zM1446 -431q0 183 -161 289t-461 106
q-136 0 -268.5 -35t-239.5 -97t-173 -156.5t-66 -204.5q0 -183 161 -289t461 -106q353 0 550 134t197 359z" />
    <glyph glyph-name="Hbar" unicode="&#x126;" horiz-adv-x="2480" 
d="M2629 1920q9 0 7 -8l-3 -20q-2 -8 -9 -8h-272l-263 -1876q-2 -8 -10 -8h-24q-8 0 -6 8l176 1256h-1840l-176 -1256q-2 -8 -10 -8h-24q-8 0 -6 8l263 1876h-272q-9 0 -7 8l3 20q2 8 9 8h272l72 512q0 8 9 8h24q7 0 7 -8l-72 -512h1840l72 512q0 8 9 8h24q7 0 7 -8
l-72 -512h272zM2230 1300l82 584h-1840l-82 -584h1840z" />
    <glyph glyph-name="hbar" unicode="&#x127;" horiz-adv-x="2039" 
d="M1307 1640q124 0 219 -32t156 -91t97 -143t41.5 -188t-9.5 -226l-133 -952q-2 -8 -9 -8h-24q-8 0 -8 8l134 952q15 116 10.5 214.5t-37 178t-89 135.5t-146 86t-207.5 30q-184 0 -364 -86t-309.5 -226.5t-182.5 -301.5l-138 -982q0 -8 -9 -8h-24q-8 0 -8 8l289 2056h-350
q-9 0 -7 8l3 20q2 8 9 8h350l64 452q2 8 10 8h24q8 0 6 -8l-64 -452h470q9 0 7 -8l-3 -20q-2 -8 -9 -8h-470l-131 -932q34 64 88 130.5t134.5 135t172.5 122t209 87t238 33.5z" />
    <glyph glyph-name="Imacron" unicode="&#x12a;" horiz-adv-x="540" 
d="M88 2928q0 8 9 8h944q7 0 7 -8l-2 -20q-2 -8 -10 -8h-944q-8 0 -6 8zM479 2432q0 8 9 8h24q7 0 7 -8l-340 -2424q-2 -8 -10 -8h-24q-8 0 -6 8z" />
    <glyph glyph-name="imacron" unicode="&#x12b;" horiz-adv-x="541" 
d="M-29 2088q0 8 9 8h944q7 0 7 -8l-2 -20q-2 -8 -10 -8h-944q-8 0 -6 8zM362 1592q0 8 9 8h24q7 0 7 -8l-223 -1584q0 -8 -9 -8h-24q-7 0 -7 8z" />
    <glyph glyph-name="Iogonek" unicode="&#x12e;" horiz-adv-x="540" 
d="M512 2440q7 0 7 -8l-340 -2424q-2 -8 -10 -8q-225 -119 -343 -259.5t-118 -291.5q0 -101 53.5 -159t151.5 -58q121 0 227 48q7 3 11.5 2.5t3.5 -6.5l-1 -12q-1 -10 -15 -16q-108 -48 -230 -48q-111 0 -174 67.5t-63 180.5q0 150 126.5 306t341.5 259l339 2419q0 8 9 8h24
z" />
    <glyph glyph-name="iogonek" unicode="&#x12f;" horiz-adv-x="541" 
d="M460 2148q22 0 37 -16t15 -38q0 -26 -21 -46t-48 -20q-22 0 -37 16t-15 38q0 26 21 46t48 20zM395 1600q7 0 7 -8l-223 -1584q0 -8 -9 -8q-225 -119 -343 -259.5t-118 -291.5q0 -101 53.5 -159t151.5 -58q121 0 227 48q7 3 11.5 2.5t3.5 -6.5l-1 -12q-1 -10 -15 -16
q-108 -48 -230 -48q-111 0 -174 67.5t-63 180.5q0 150 126 306t341 258l222 1580q0 8 9 8h24z" />
    <glyph glyph-name="Idotaccent" unicode="&#x130;" horiz-adv-x="540" 
d="M560 2868q-22 0 -37 16t-15 38q0 26 21 46t48 20q22 0 37 -16t15 -38q0 -26 -21 -46t-48 -20zM479 2432q0 8 9 8h24q7 0 7 -8l-340 -2424q-2 -8 -10 -8h-24q-8 0 -6 8z" />
    <glyph glyph-name="dotlessi" unicode="&#x131;" horiz-adv-x="541" 
d="M362 1592q0 8 9 8h24q7 0 7 -8l-223 -1584q0 -8 -9 -8h-24q-7 0 -7 8z" />
    <glyph glyph-name="Kcommaaccent" unicode="&#x136;" horiz-adv-x="2147" 
d="M514 2440q8 0 6 -8l-340 -2424q0 -8 -9 -8h-24q-8 0 -8 8l341 2424q2 8 10 8h24zM1852 12q10 -12 -5 -12h-28q-12 0 -19 8l-1065 1234l1405 1190q10 8 22 8h28q7 0 3 -7q-1 -2 -5 -5l-1401 -1190zM864 -300q23 0 36.5 -16.5t13.5 -47.5q0 -54 -18.5 -122t-69 -154
t-124.5 -152q-8 -8 -16 0l-7 8q-4 6 2 12q74 66 121.5 157t47.5 164q0 14 -5.5 21t-21.5 14q-28 13 -28 46q0 29 21 49.5t48 20.5z" />
    <glyph glyph-name="kcommaaccent" unicode="&#x137;" horiz-adv-x="1594" 
d="M496 2552q0 8 9 8h24q7 0 7 -8l-357 -2544q-2 -8 -10 -8h-24q-8 0 -6 8zM1333 0q-9 0 -16 8l-766 872l945 716q5 4 12 4h40q3 0 4.5 -2.5t-1.5 -5.5l-945 -715l753 -865q5 -6 3 -9t-9 -3h-20zM608 -300q23 0 36.5 -16.5t13.5 -47.5q0 -54 -18.5 -122t-69 -154
t-124.5 -152q-8 -8 -16 0l-7 8q-4 6 2 12q74 66 121.5 157t47.5 164q0 14 -5.5 21t-21.5 14q-28 13 -28 46q0 29 21 49.5t48 20.5z" />
    <glyph glyph-name="Lacute" unicode="&#x139;" horiz-adv-x="1871" 
d="M501 2700q-5 -6 -11 0l-11 12q-4 6 2 12l601 464q8 6 12 0l11 -12q6 -6 -2 -12zM1646 36q8 0 6 -8l-2 -20q0 -8 -9 -8h-1494q-8 0 -8 8l341 2424q2 8 10 8h24q8 0 6 -8l-337 -2396h1463z" />
    <glyph glyph-name="lacute" unicode="&#x13a;" horiz-adv-x="541" 
d="M500 2700q-6 -6 -11 0l-11 12q-4 6 2 12l601 464q7 6 12 0l11 -12q6 -6 -2 -12zM497 2552q0 8 9 8h24q7 0 7 -8l-358 -2544q0 -8 -9 -8h-24q-7 0 -7 8z" />
    <glyph glyph-name="Lcommaaccent" unicode="&#x13b;" horiz-adv-x="1871" 
d="M1646 36q8 0 6 -8l-2 -20q0 -8 -9 -8h-1494q-8 0 -8 8l341 2424q2 8 10 8h24q8 0 6 -8l-337 -2396h1463zM796 -300q23 0 36.5 -16.5t13.5 -47.5q0 -54 -18.5 -122t-69 -154t-124.5 -152q-8 -8 -16 0l-7 8q-4 6 2 12q74 66 121.5 157t47.5 164q0 14 -5.5 21t-21.5 14
q-28 13 -28 46q0 29 21 49.5t48 20.5z" />
    <glyph glyph-name="lcommaaccent" unicode="&#x13c;" horiz-adv-x="541" 
d="M497 2552q0 8 9 8h24q7 0 7 -8l-358 -2544q0 -8 -9 -8h-24q-7 0 -7 8zM75 -300q23 0 36.5 -16.5t13.5 -47.5q0 -54 -18.5 -122t-69 -154t-124.5 -152q-8 -8 -16 0l-7 8q-4 6 2 12q74 66 121.5 157t47.5 164q0 14 -5.5 21t-21.5 14q-28 13 -28 46q0 29 21 49.5t48 20.5z
" />
    <glyph glyph-name="Lcaron" unicode="&#x13d;" horiz-adv-x="1871" 
d="M1321 2580q23 0 36.5 -16.5t13.5 -47.5q0 -54 -18.5 -122t-69 -154t-124.5 -152q-8 -7 -15 0l-8 8q-4 6 2 12q74 66 121.5 157t47.5 164q0 14 -5.5 21t-21.5 14q-28 13 -28 46q0 29 21 49.5t48 20.5zM1646 36q8 0 6 -8l-2 -20q0 -8 -9 -8h-1494q-8 0 -8 8l341 2424
q2 8 10 8h24q8 0 6 -8l-337 -2396h1463z" />
    <glyph glyph-name="lcaron" unicode="&#x13e;" horiz-adv-x="847" 
d="M831 2580q23 0 36.5 -16.5t13.5 -47.5q0 -54 -18.5 -122t-69 -154t-124.5 -152q-8 -7 -15 0l-8 8q-4 6 2 12q74 66 121.5 157t47.5 164q0 14 -5.5 21t-21.5 14q-28 13 -28 46q0 29 21 49.5t48 20.5zM497 2552q0 8 9 8h24q7 0 7 -8l-358 -2544q0 -8 -9 -8h-24q-7 0 -7 8z
" />
    <glyph glyph-name="Lslash" unicode="&#x141;" horiz-adv-x="2102" 
d="M1877 36q8 0 6 -8l-2 -20q0 -8 -9 -8h-1494q-8 0 -8 8l147 1044l-494 -274q-8 -3 -10 3l-9 18q-4 6 5 11l514 285l188 1337q2 8 10 8h24q8 0 6 -8l-185 -1313l1060 587q8 4 10 -3l9 -18q0 -8 -5 -11l-1080 -598l-146 -1040h1463z" />
    <glyph glyph-name="lslash" unicode="&#x142;" horiz-adv-x="806" 
d="M877 1454q2 -6 -5 -11l-357 -198l-174 -1237q0 -8 -9 -8h-24q-7 0 -7 8l171 1213l-380 -211q-7 -4 -9 3l-9 17q-3 6 5 11l399 222l181 1289q0 8 9 8h24q7 0 7 -8l-178 -1265l337 187q9 4 11 -3z" />
    <glyph glyph-name="Nacute" unicode="&#x143;" horiz-adv-x="2460" 
d="M1499 2700q-5 -6 -11 0l-11 12q-4 6 2 12l601 464q8 6 12 0l11 -12q6 -6 -2 -12zM2432 2440q7 0 7 -8l-346 -2464q-2 -8 -9 -8h-4q-10 0 -14 7l-1552 2425l-335 -2384q-2 -8 -10 -8h-24q-8 0 -6 8l346 2464q0 8 9 8h4q7 0 13 -7l1553 -2425l335 2384q0 8 9 8h24z" />
    <glyph glyph-name="nacute" unicode="&#x144;" 
d="M1115 1860q-5 -6 -11 0l-11 12q-4 6 2 12l601 464q8 6 12 0l11 -12q6 -6 -2 -12zM1189 1640q124 0 219 -32t156 -91t97 -143t41.5 -188t-9.5 -226l-133 -952q-2 -8 -9 -8h-24q-8 0 -8 8l134 952q15 116 10.5 214.5t-37 178t-89 135.5t-146 86t-207.5 30
q-153 0 -307 -61.5t-272.5 -161.5t-200.5 -231.5t-101 -265.5l-123 -876q0 -8 -9 -8h-24q-8 0 -8 8l223 1584q2 8 10 8h24q8 0 6 -8l-69 -488q29 63 81.5 132.5t133.5 142.5t175.5 130.5t217 94t248.5 36.5z" />
    <glyph glyph-name="Ncommaaccent" unicode="&#x145;" horiz-adv-x="2460" 
d="M2432 2440q7 0 7 -8l-346 -2464q-2 -8 -9 -8h-4q-10 0 -14 7l-1552 2425l-335 -2384q-2 -8 -10 -8h-24q-8 0 -6 8l346 2464q0 8 9 8h4q7 0 13 -7l1553 -2425l335 2384q0 8 9 8h24zM1074 -300q23 0 36.5 -16.5t13.5 -47.5q0 -54 -18.5 -122t-69 -154t-124.5 -152
q-8 -8 -16 0l-7 8q-4 6 2 12q74 66 121.5 157t47.5 164q0 14 -5.5 21t-21.5 14q-28 13 -28 46q0 29 21 49.5t48 20.5z" />
    <glyph glyph-name="ncommaaccent" unicode="&#x146;" 
d="M1189 1640q124 0 219 -32t156 -91t97 -143t41.5 -188t-9.5 -226l-133 -952q-2 -8 -9 -8h-24q-8 0 -8 8l134 952q15 116 10.5 214.5t-37 178t-89 135.5t-146 86t-207.5 30q-153 0 -307 -61.5t-272.5 -161.5t-200.5 -231.5t-101 -265.5l-123 -876q0 -8 -9 -8h-24q-8 0 -8 8
l223 1584q2 8 10 8h24q8 0 6 -8l-69 -488q29 63 81.5 132.5t133.5 142.5t175.5 130.5t217 94t248.5 36.5zM768 -300q23 0 36.5 -16.5t13.5 -47.5q0 -54 -18.5 -122t-69 -154t-124.5 -152q-8 -8 -16 0l-7 8q-4 6 2 12q74 66 121.5 157t47.5 164q0 14 -5.5 21t-21.5 14
q-28 13 -28 46q0 29 21 49.5t48 20.5z" />
    <glyph glyph-name="Ncaron" unicode="&#x147;" horiz-adv-x="2460" 
d="M2010 3156q4 4 16 4h20q11 0 3 -8l-495 -472q-5 -4 -17 -4h-16q-11 0 -14 4l-362 472q-7 8 5 8h24q7 0 11 -4l349 -452zM2432 2440q7 0 7 -8l-346 -2464q-2 -8 -9 -8h-4q-10 0 -14 7l-1552 2425l-335 -2384q-2 -8 -10 -8h-24q-8 0 -6 8l346 2464q0 8 9 8h4q7 0 13 -7
l1553 -2425l335 2384q0 8 9 8h24z" />
    <glyph glyph-name="ncaron" unicode="&#x148;" 
d="M1626 2316q4 4 16 4h20q11 0 3 -8l-495 -472q-5 -4 -17 -4h-16q-11 0 -14 4l-362 472q-7 8 5 8h24q7 0 11 -4l349 -452zM1189 1640q124 0 219 -32t156 -91t97 -143t41.5 -188t-9.5 -226l-133 -952q-2 -8 -9 -8h-24q-8 0 -8 8l134 952q15 116 10.5 214.5t-37 178
t-89 135.5t-146 86t-207.5 30q-153 0 -307 -61.5t-272.5 -161.5t-200.5 -231.5t-101 -265.5l-123 -876q0 -8 -9 -8h-24q-8 0 -8 8l223 1584q2 8 10 8h24q8 0 6 -8l-69 -488q29 63 81.5 132.5t133.5 142.5t175.5 130.5t217 94t248.5 36.5z" />
    <glyph glyph-name="Eng" unicode="&#x14a;" horiz-adv-x="2460" 
d="M2432 2440q9 0 7 -8l-393 -2800q-19 -133 -50.5 -230.5t-84.5 -174.5t-135 -116t-193 -39q-7 0 -7 8l3 20q0 8 9 8q190 0 285 129t133 395l49 352l-1541 2408l-335 -2384q-2 -8 -10 -8h-24q-8 0 -6 8l346 2464q0 8 9 8h4q8 0 11 -4l1555 -2428l335 2384q2 8 9 8h24z" />
    <glyph glyph-name="eng" unicode="&#x14b;" horiz-adv-x="1920" 
d="M1188 1640q124 0 219 -32t156 -91t97 -143t41.5 -188t-9.5 -226l-186 -1328q-19 -133 -50.5 -230.5t-84.5 -174.5t-135 -116t-193 -39q-7 0 -7 8l3 20q0 8 9 8q190 0 285 129t133 395l186 1328q15 116 10.5 214.5t-37 178t-89 135.5t-146 86t-207.5 30q-153 0 -307 -61.5
t-272.5 -161.5t-200.5 -231.5t-101 -265.5l-123 -876q-2 -8 -10 -8h-24q-8 0 -6 8l222 1584q2 8 9 8h24q9 0 7 -8l-68 -488q29 63 81.5 132.5t133 142.5t175 130.5t217 94t248.5 36.5z" />
    <glyph glyph-name="Omacron" unicode="&#x14c;" horiz-adv-x="2813" 
d="M1226 2928q0 8 9 8h944q7 0 7 -8l-2 -20q-2 -8 -10 -8h-944q-8 0 -6 8zM1640 2460q216 0 403.5 -75.5t324 -212t215 -338.5t78.5 -442q0 -209 -52.5 -400.5t-145.5 -345.5t-222 -280t-280.5 -210t-322.5 -130t-346 -46q-216 0 -403.5 75.5t-324 212t-215 338.5t-78.5 442
q0 209 52.5 400.5t145.5 345.5t222 280t280.5 210t322.5 130t346 46zM1297 16q167 0 331.5 45t311 127t271.5 204.5t215.5 271.5t142 334t51.5 386q0 233 -76 429t-208 329t-313 207.5t-388 74.5q-167 0 -331.5 -45t-311 -127t-271.5 -204.5t-215.5 -271.5t-142 -334
t-51.5 -386q0 -233 76 -429t208.5 -329t313 -207.5t387.5 -74.5z" />
    <glyph glyph-name="omacron" unicode="&#x14d;" horiz-adv-x="2009" 
d="M705 2088q0 8 9 8h944q7 0 7 -8l-2 -20q-2 -8 -10 -8h-944q-8 0 -6 8zM1120 1620q146 0 273.5 -51t220.5 -142.5t146.5 -226t53.5 -292.5q0 -162 -50.5 -308.5t-139 -258t-205 -194t-253 -125t-277.5 -42.5q-146 0 -273.5 51t-220.5 142.5t-146.5 226t-53.5 292.5
q0 162 50.5 308.5t139 258t205 194t253 125t277.5 42.5zM894 16q132 0 261 40.5t240.5 119.5t196.5 185.5t133.5 247t48.5 296.5q0 152 -50.5 280t-139 215t-209.5 135.5t-260 48.5q-132 0 -261 -40.5t-240.5 -119.5t-196.5 -185.5t-133.5 -247t-48.5 -296.5
q0 -152 50.5 -280t139 -215t209.5 -135.5t260 -48.5z" />
    <glyph glyph-name="Ohungarumlaut" unicode="&#x150;" horiz-adv-x="2813" 
d="M1424 2701q-3 -8 -11 -5l-15 6q-7 3 -4 10l381 648q5 8 12 5l15 -6q8 -3 3 -11zM1890 2700q-6 -6 -12 0l-10 12q-5 6 1 12l601 464q8 6 13 0l10 -12q6 -6 -2 -12zM1640 2460q216 0 403.5 -75.5t324 -212t215 -338.5t78.5 -442q0 -209 -52.5 -400.5t-145.5 -345.5
t-222 -280t-280.5 -210t-322.5 -130t-346 -46q-216 0 -403.5 75.5t-324 212t-215 338.5t-78.5 442q0 209 52.5 400.5t145.5 345.5t222 280t280.5 210t322.5 130t346 46zM1297 16q167 0 331.5 45t311 127t271.5 204.5t215.5 271.5t142 334t51.5 386q0 233 -76 429t-208 329
t-313 207.5t-388 74.5q-167 0 -331.5 -45t-311 -127t-271.5 -204.5t-215.5 -271.5t-142 -334t-51.5 -386q0 -233 76 -429t208.5 -329t313 -207.5t387.5 -74.5z" />
    <glyph glyph-name="ohungarumlaut" unicode="&#x151;" horiz-adv-x="2009" 
d="M903 1861q-3 -8 -11 -5l-15 6q-7 3 -4 10l381 648q5 8 12 5l15 -6q8 -3 3 -11zM1369 1860q-6 -6 -12 0l-10 12q-5 6 1 12l601 464q8 6 13 0l10 -12q6 -6 -2 -12zM1120 1620q146 0 273.5 -51t220.5 -142.5t146.5 -226t53.5 -292.5q0 -162 -50.5 -308.5t-139 -258
t-205 -194t-253 -125t-277.5 -42.5q-146 0 -273.5 51t-220.5 142.5t-146.5 226t-53.5 292.5q0 162 50.5 308.5t139 258t205 194t253 125t277.5 42.5zM894 16q132 0 261 40.5t240.5 119.5t196.5 185.5t133.5 247t48.5 296.5q0 152 -50.5 280t-139 215t-209.5 135.5t-260 48.5
q-132 0 -261 -40.5t-240.5 -119.5t-196.5 -185.5t-133.5 -247t-48.5 -296.5q0 -152 50.5 -280t139 -215t209.5 -135.5t260 -48.5z" />
    <glyph glyph-name="OE" unicode="&#x152;" horiz-adv-x="3851" 
d="M3823 2440q9 0 7 -8l-3 -20q0 -8 -9 -8h-1811q158 -54 284.5 -155t213 -239.5t125 -320.5t19.5 -389h854q7 0 7 -8l-3 -20q-2 -8 -9 -8h-853q-1 -15 -5 -40q-32 -225 -122 -423.5t-221.5 -348t-296.5 -256t-351 -160.5h1876q9 0 7 -8l-3 -20q0 -8 -9 -8h-2032
q-96 -16 -202 -16q-191 0 -360.5 55.5t-301.5 163t-220.5 256t-121.5 345.5t-2 420t120 420t219.5 345.5t292.5 256t347 163t376 55.5q126 0 241 -24h1947zM2600 1224q30 215 -2.5 405.5t-118.5 335t-213.5 250t-290.5 159.5t-346 54t-361 -54t-335 -159.5t-283.5 -250
t-213 -335t-116.5 -405.5t2.5 -405.5t118.5 -335t213.5 -250t290.5 -159.5t346 -54t361 54t335 159.5t283.5 250t213 335t116.5 405.5z" />
    <glyph glyph-name="oe" unicode="&#x153;" horiz-adv-x="3456" 
d="M3271 912h1l-4 -32q-1 -2 -1 -4h-1443q-17 -90 -17 -181q0 -152 50.5 -280t139 -215t209.5 -135.5t260 -48.5q443 0 690 428q4 7 13 4l17 -8q7 -3 2 -12q-255 -448 -727 -448q-280 0 -473.5 175.5t-217.5 463.5q-61 -191 -196.5 -337.5t-313.5 -224t-371 -77.5
q-146 0 -273.5 51t-220.5 142.5t-146.5 226t-53.5 292.5q0 162 50.5 308.5t139 258t205 194t253 125t277.5 42.5q183 0 334 -77.5t245.5 -222.5t111.5 -335q59 191 189.5 336t305 222t366.5 77q201 0 345.5 -89t210 -250t43.5 -369zM894 16q132 0 261 40.5t240.5 119.5
t196.5 185.5t133.5 247t48.5 296.5q0 152 -50.5 280t-139 215t-209.5 135.5t-260 48.5q-132 0 -261 -40.5t-240.5 -119.5t-196.5 -185.5t-133.5 -247t-48.5 -296.5q0 -152 50.5 -280t139 -215t209.5 -135.5t260 -48.5zM1831 912h1400q32 302 -121.5 487t-442.5 185
q-194 0 -368 -82t-298 -236t-170 -354z" />
    <glyph glyph-name="Racute" unicode="&#x154;" horiz-adv-x="2228" 
d="M1224 2700l-11 12q-4 6 2 12l601 464q8 6 12 0l11 -12q6 -6 -2 -12l-602 -464q-5 -6 -11 0zM2030 1828q0 -109 -27.5 -211t-89 -196t-151 -168.5t-221 -127.5t-292.5 -73l539 -1036q2 -4 -1 -10t-10 -6h-20q-8 0 -14 12l-539 1035q-89 -7 -161 -7h-719l-145 -1032
q-2 -8 -10 -8h-24q-8 0 -6 8l340 2424q0 8 9 8h24h728q166 0 300.5 -32.5t224.5 -88.5t150.5 -134.5t87.5 -167t27 -189.5zM1048 1076q198 0 358.5 42t267.5 113t179 168t104 203.5t32 222.5q0 120 -41.5 221.5t-128 183t-236 128t-348.5 46.5h-720l-186 -1328h719z" />
    <glyph glyph-name="racute" unicode="&#x155;" horiz-adv-x="1031" 
d="M635 1860q-5 -6 -11 0l-11 12q-4 6 2 12l601 464q8 6 12 0l11 -12q6 -6 -2 -12zM1021 1640q9 0 7 -8l-3 -20q0 -8 -9 -8q-99 0 -218 -62t-220.5 -157.5t-177.5 -220t-92 -240.5l-128 -916q-2 -8 -9 -8h-24q-8 0 -8 8l223 1584q2 8 10 8h24q8 0 6 -8l-70 -500
q29 86 104.5 183.5t171 178t207.5 133.5t206 53z" />
    <glyph glyph-name="Rcommaaccent" unicode="&#x156;" horiz-adv-x="2228" 
d="M2030 1828q0 -109 -27.5 -211t-89 -196t-151 -168.5t-221 -127.5t-292.5 -73l539 -1036q2 -4 -1 -10t-10 -6h-20q-8 0 -14 12l-539 1035q-89 -7 -161 -7h-719l-145 -1032q-2 -8 -10 -8h-24q-8 0 -6 8l340 2424q0 8 9 8h24h728q166 0 300.5 -32.5t224.5 -88.5
t150.5 -134.5t87.5 -167t27 -189.5zM1048 1076q198 0 358.5 42t267.5 113t179 168t104 203.5t32 222.5q0 120 -41.5 221.5t-128 183t-236 128t-348.5 46.5h-720l-186 -1328h719zM810 -300q23 0 36.5 -16.5t13.5 -47.5q0 -54 -18.5 -122t-69 -154t-124.5 -152q-8 -8 -16 0
l-7 8q-4 6 2 12q74 66 121.5 157t47.5 164q0 14 -5.5 21t-21.5 14q-28 13 -28 46q0 29 21 49.5t48 20.5z" />
    <glyph glyph-name="rcommaaccent" unicode="&#x157;" horiz-adv-x="1031" 
d="M1021 1640q9 0 7 -8l-3 -20q0 -8 -9 -8q-99 0 -218 -62t-220.5 -157.5t-177.5 -220t-92 -240.5l-128 -916q-2 -8 -9 -8h-24q-8 0 -8 8l223 1584q2 8 10 8h24q8 0 6 -8l-70 -500q29 86 104.5 183.5t171 178t207.5 133.5t206 53zM77 -292q23 0 36.5 -16.5t13.5 -47.5
q0 -54 -18.5 -122t-69 -154t-124.5 -152q-8 -8 -16 0l-7 8q-4 6 2 12q74 66 121.5 157t47.5 164q0 14 -5.5 21t-21.5 14q-28 13 -28 46q0 29 21 49.5t48 20.5z" />
    <glyph glyph-name="Rcaron" unicode="&#x158;" horiz-adv-x="2228" 
d="M1243 2680l-362 472q-7 8 5 8h24q7 0 11 -4l349 -452l476 452q4 4 16 4h20q11 0 3 -8l-495 -472q-5 -4 -17 -4h-16q-11 0 -14 4zM2030 1828q0 -109 -27.5 -211t-89 -196t-151 -168.5t-221 -127.5t-292.5 -73l539 -1036q2 -4 -1 -10t-10 -6h-20q-8 0 -14 12l-539 1035
q-89 -7 -161 -7h-719l-145 -1032q-2 -8 -10 -8h-24q-8 0 -6 8l340 2424q0 8 9 8h24h728q166 0 300.5 -32.5t224.5 -88.5t150.5 -134.5t87.5 -167t27 -189.5zM1048 1076q198 0 358.5 42t267.5 113t179 168t104 203.5t32 222.5q0 120 -41.5 221.5t-128 183t-236 128
t-348.5 46.5h-720l-186 -1328h719z" />
    <glyph glyph-name="rcaron" unicode="&#x159;" horiz-adv-x="1031" 
d="M1146 2316q4 4 16 4h20q11 0 3 -8l-495 -472q-5 -4 -17 -4h-16q-11 0 -14 4l-362 472q-7 8 5 8h24q7 0 11 -4l349 -452zM1021 1640q9 0 7 -8l-3 -20q0 -8 -9 -8q-99 0 -218 -62t-220.5 -157.5t-177.5 -220t-92 -240.5l-128 -916q-2 -8 -9 -8h-24q-8 0 -8 8l223 1584
q2 8 10 8h24q8 0 6 -8l-70 -500q29 86 104.5 183.5t171 178t207.5 133.5t206 53z" />
    <glyph glyph-name="Sacute" unicode="&#x15a;" horiz-adv-x="2154" 
d="M1324 2700q-6 -6 -11 0l-11 12q-4 6 2 12l601 464q7 6 12 0l11 -12q6 -6 -2 -12zM467 1787q0 -220 201 -343q122 -74 386 -143q34 -9 105 -26q268 -67 385 -115q244 -100 323 -266q43 -91 43 -208q0 -127 -37.5 -233t-104.5 -182t-155.5 -133t-195.5 -91t-219 -50.5
t-231 -16.5q-508 0 -814 277q-12 12 -5 20l9 12q8 9 18 1q151 -133 338 -203.5t456 -70.5q97 0 190 11t183 36t168 62t144.5 90.5t114 120t74 153.5t26.5 187q0 80 -23 148t-56.5 116.5t-94.5 91.5t-114 70t-139 55t-145 44t-157 40q-79 19 -119.5 29.5t-113.5 32
t-112.5 37.5t-98.5 43t-91.5 53.5t-72 64t-59 79t-33.5 94.5t-14 113q0 310 240 491.5t662 181.5q239 0 413 -60t314 -160q9 -7 1 -17l-9 -13q-6 -10 -17 -2q-141 99 -306 157.5t-390 58.5q-405 0 -636 -173t-231 -464z" />
    <glyph glyph-name="sacute" unicode="&#x15b;" horiz-adv-x="1571" 
d="M888 1860q-6 -6 -11 0l-11 12q-4 6 2 12l601 464q7 6 12 0l11 -12q6 -6 -2 -12zM344 1176q0 -73 33 -127.5t89.5 -88.5t129.5 -59.5t153.5 -45.5t161 -40.5t153.5 -50t129.5 -69t89.5 -103.5t33 -147q0 -107 -39 -190.5t-100.5 -134t-146 -83t-166 -45t-170.5 -12.5
q-297 0 -579 180q-7 4 -2 12l11 16q6 8 14 3q253 -175 559 -175q78 0 151.5 10t153.5 38.5t138.5 74t97 123t38.5 178.5q0 79 -33.5 139.5t-89.5 97.5t-129 65t-153.5 48t-161.5 39.5t-154 46.5t-129 63.5t-89.5 95t-33.5 135.5q0 137 79 240.5t213.5 156.5t304.5 53
q151 0 276 -46t246 -135q7 -5 2 -13l-9 -14q-6 -8 -13 -4q-127 92 -246 134t-259 42q-245 0 -399 -111.5t-154 -296.5z" />
    <glyph glyph-name="Scedilla" unicode="&#x15e;" horiz-adv-x="2154" 
d="M2055 2240q9 -7 1 -17l-9 -13q-6 -10 -17 -2q-141 99 -306 157.5t-390 58.5q-405 0 -636 -173t-231 -464q0 -220 201 -343q122 -74 386 -143q34 -9 105 -26q268 -67 385 -115q244 -100 323 -266q43 -91 43 -208q0 -127 -37.5 -233t-104.5 -182t-155.5 -133t-195.5 -91
t-219 -50.5t-231 -16.5h-19l-135 -272q84 25 162.5 25t140 -24t98.5 -77t37 -128q0 -133 -95.5 -218.5t-237.5 -85.5q-98 0 -170.5 22t-142.5 62q-1 0 -1.5 1l-2 4t1.5 7l10 16q2 4 5.5 5t5.5 0l2 -1q73 -39 140 -59.5t157 -20.5q128 0 207.5 74.5t79.5 190.5
q0 135 -122 180t-325 -17q-9 -3 -10 0t4 12l152 305q-466 14 -756 276q-12 12 -5 20l9 12q8 9 18 1q151 -133 338 -203.5t456 -70.5q97 0 190 11t183 36t168 62t144.5 90.5t114 120t74 153.5t26.5 187q0 80 -23 148t-56.5 116.5t-94.5 91.5t-114 70t-139 55t-145 44t-157 40
q-79 19 -119.5 29.5t-113.5 32t-112.5 37.5t-98.5 43t-91.5 53.5t-72 64t-59 79t-33.5 94.5t-14 113q0 310 240 491.5t662 181.5q239 0 413 -60t314 -160z" />
    <glyph glyph-name="scedilla" unicode="&#x15f;" horiz-adv-x="1571" 
d="M1422 1439q7 -5 2 -13l-9 -14q-6 -8 -13 -4q-127 92 -246 134t-259 42q-245 0 -399 -111.5t-154 -296.5q0 -73 33 -127.5t89.5 -88.5t129.5 -59.5t153.5 -45.5t161 -40.5t153.5 -50t129.5 -69t89.5 -103.5t33 -147q0 -107 -39 -190.5t-100.5 -134t-146 -83t-166 -45
t-170.5 -12.5h-23l-135 -272q84 25 162.5 25t140 -24t98.5 -77t37 -128q0 -133 -95.5 -218.5t-237.5 -85.5q-98 0 -170.5 22t-142.5 62q-1 0 -1.5 1l-2 4t1.5 7l10 16q2 4 5.5 5t5.5 0l2 -1q73 -39 140 -59.5t157 -20.5q128 0 207.5 74.5t79.5 190.5q0 135 -122.5 180
t-324.5 -17q-9 -3 -10 0t4 12l153 306q-263 15 -518 178q-7 4 -2 12l11 16q6 8 14 3q253 -175 559 -175q78 0 151.5 10t153.5 38.5t138.5 74t97 123t38.5 178.5q0 79 -33.5 139.5t-89.5 97.5t-129 65t-153.5 48t-161.5 39.5t-154 46.5t-129 63.5t-89.5 95t-33.5 135.5
q0 137 79 240.5t213.5 156.5t304.5 53q151 0 276 -46t246 -135z" />
    <glyph glyph-name="Scaron" unicode="&#x160;" horiz-adv-x="2154" 
d="M1835 3156q4 4 16 4h20q11 0 3 -8l-495 -472q-5 -4 -17 -4h-16q-11 0 -14 4l-362 472q-7 8 5 8h24q7 0 11 -4l349 -452zM467 1787q0 -220 201 -343q122 -74 386 -143q34 -9 105 -26q268 -67 385 -115q244 -100 323 -266q43 -91 43 -208q0 -127 -37.5 -233t-104.5 -182
t-155.5 -133t-195.5 -91t-219 -50.5t-231 -16.5q-508 0 -814 277q-12 12 -5 20l9 12q8 9 18 1q151 -133 338 -203.5t456 -70.5q97 0 190 11t183 36t168 62t144.5 90.5t114 120t74 153.5t26.5 187q0 80 -23 148t-56.5 116.5t-94.5 91.5t-114 70t-139 55t-145 44t-157 40
q-79 19 -119.5 29.5t-113.5 32t-112.5 37.5t-98.5 43t-91.5 53.5t-72 64t-59 79t-33.5 94.5t-14 113q0 310 240 491.5t662 181.5q239 0 413 -60t314 -160q9 -7 1 -17l-9 -13q-6 -10 -17 -2q-141 99 -306 157.5t-390 58.5q-405 0 -636 -173t-231 -464z" />
    <glyph glyph-name="scaron" unicode="&#x161;" horiz-adv-x="1571" 
d="M1399 2316q4 4 16 4h20q11 0 3 -8l-495 -472q-5 -4 -17 -4h-16q-11 0 -14 4l-362 472q-7 8 5 8h24q7 0 11 -4l349 -452zM344 1176q0 -73 33 -127.5t89.5 -88.5t129.5 -59.5t153.5 -45.5t161 -40.5t153.5 -50t129.5 -69t89.5 -103.5t33 -147q0 -107 -39 -190.5
t-100.5 -134t-146 -83t-166 -45t-170.5 -12.5q-297 0 -579 180q-7 4 -2 12l11 16q6 8 14 3q253 -175 559 -175q78 0 151.5 10t153.5 38.5t138.5 74t97 123t38.5 178.5q0 79 -33.5 139.5t-89.5 97.5t-129 65t-153.5 48t-161.5 39.5t-154 46.5t-129 63.5t-89.5 95t-33.5 135.5
q0 137 79 240.5t213.5 156.5t304.5 53q151 0 276 -46t246 -135q7 -5 2 -13l-9 -14q-6 -8 -13 -4q-127 92 -246 134t-259 42q-245 0 -399 -111.5t-154 -296.5z" />
    <glyph glyph-name="uni0162" unicode="&#x162;" horiz-adv-x="2340" 
d="M2372 2440q7 0 7 -8l-2 -20q-2 -8 -10 -8h-952l-336 -2396q-2 -5 -5 -6l-146 -294q84 25 162.5 25t140 -24t98.5 -77t37 -128q0 -133 -95.5 -218.5t-237.5 -85.5q-98 0 -170.5 22t-142.5 62q-1 0 -1.5 1l-2 4t1.5 7l10 16q2 4 5.5 5t5.5 0l2 -1q73 -39 140 -59.5
t157 -20.5q128 0 207.5 74.5t79.5 190.5q0 135 -122.5 180t-324.5 -17q-9 -3 -10 0t4 12l167 334l336 2394h-952q-8 0 -6 8l2 20q0 8 9 8h984h960z" />
    <glyph glyph-name="uni0163" unicode="&#x163;" horiz-adv-x="1429" 
d="M1360 1600q7 0 7 -8l-2 -20q-2 -8 -10 -8h-748l-147 -1044q-9 -64 -9.5 -121t7 -115.5t30 -105.5t57.5 -84t91 -57.5t129 -20.5q97 0 199 38t189 109q10 8 15 0l7 -11q5 -8 -8 -19q-199 -153 -407 -153h-3l-135 -272q84 25 162.5 25t140 -24t98.5 -77t37 -128
q0 -133 -95.5 -218.5t-237.5 -85.5q-98 0 -170.5 22t-142.5 62q-1 0 -1.5 1l-2 4t1.5 7l10 16q2 4 5.5 5t5.5 0l2 -1q73 -39 140 -59.5t157 -20.5q128 0 207.5 74.5t79.5 190.5q0 135 -122.5 180t-324.5 -17q-9 -3 -10 0t4 12l153 305q-369 27 -299 539h1l147 1044h-353
q-8 0 -6 8l2 20q0 8 9 8h353l59 423q0 7 9 10l25 7q7 2 7 -6l-61 -434h748z" />
    <glyph glyph-name="Tcaron" unicode="&#x164;" horiz-adv-x="2340" 
d="M1407 2680l-362 472q-7 8 5 8h24q7 0 11 -4l349 -452l476 452q4 4 16 4h20q11 0 3 -8l-495 -472q-5 -4 -17 -4h-16q-11 0 -14 4zM2372 2440q7 0 7 -8l-2 -20q-2 -8 -10 -8h-952l-336 -2396q-2 -8 -10 -8h-24q-8 0 -6 8l336 2396h-952q-8 0 -6 8l2 20q0 8 9 8h984h960z
" />
    <glyph glyph-name="tcaron" unicode="&#x165;" horiz-adv-x="1448" 
d="M1616 2580q23 0 36.5 -16.5t13.5 -47.5q0 -54 -18.5 -122t-69 -154t-124.5 -152q-8 -7 -15 0l-8 8q-4 6 2 12q74 66 121.5 157t47.5 164q0 14 -5.5 21t-21.5 14q-28 13 -28 46q0 29 21 49.5t48 20.5zM1360 1600q7 0 7 -8l-2 -20q-2 -8 -10 -8h-748l-147 -1044
q-9 -64 -9.5 -121t7 -115.5t30 -105.5t57.5 -84t91 -57.5t129 -20.5q97 0 199 38t189 109q10 8 15 0l7 -11q5 -8 -8 -19q-199 -153 -407 -153q-82 0 -145.5 21.5t-102 61t-63 89.5t-33 113t-7.5 124.5t11 130.5h1l147 1044h-353q-8 0 -6 8l2 20q0 8 9 8h353l59 423q0 7 9 10
l25 7q7 2 7 -6l-61 -434h748z" />
    <glyph glyph-name="Tbar" unicode="&#x166;" horiz-adv-x="2340" 
d="M2372 2440q7 0 7 -8l-2 -20q-2 -8 -10 -8h-952l-118 -844h493q7 0 7 -8l-2 -20q-2 -8 -10 -8h-493l-213 -1516q-2 -8 -10 -8h-24q-8 0 -6 8l213 1516h-487q-8 0 -6 8l2 20q0 8 9 8h487l118 844h-952q-8 0 -6 8l2 20q0 8 9 8h984h960z" />
    <glyph glyph-name="tbar" unicode="&#x167;" horiz-adv-x="1429" 
d="M1360 1600q7 0 7 -8l-2 -20q-2 -8 -10 -8h-748l-68 -484h538q9 0 7 -8l-3 -20q-2 -8 -9 -8h-538l-74 -524q-9 -64 -9.5 -121t7 -115.5t30 -105.5t57.5 -84t91 -57.5t129 -20.5q97 0 199 38t189 109q10 8 15 0l7 -11q5 -8 -8 -19q-199 -153 -407 -153q-82 0 -145.5 21.5
t-102 61t-63 89.5t-33 113t-7.5 124.5t11 130.5h1l74 524h-283q-9 0 -7 8l3 20q2 8 9 8h283l68 484h-353q-8 0 -6 8l2 20q0 8 9 8h353l59 423q0 7 9 10l25 7q7 2 7 -6l-61 -434h748z" />
    <glyph glyph-name="Umacron" unicode="&#x16a;" horiz-adv-x="2380" 
d="M1008 2928q0 8 9 8h944q7 0 7 -8l-2 -20q-2 -8 -10 -8h-944q-8 0 -6 8zM2352 2440q7 0 7 -8l-201 -1432q-70 -496 -354 -768t-733 -272t-656 272t-137 768l201 1432q0 8 9 8h24q7 0 7 -8l-201 -1432q-68 -481 128 -742.5t630 -261.5t704 261.5t338 742.5l201 1432
q0 8 9 8h24z" />
    <glyph glyph-name="umacron" unicode="&#x16b;" 
d="M663 2088q0 8 9 8h944q7 0 7 -8l-2 -20q-2 -8 -10 -8h-944q-8 0 -6 8zM1775 1600q7 0 7 -8l-223 -1584q-2 -8 -9 -8h-24q-7 0 -7 8l69 488q-29 -63 -81.5 -132.5t-133.5 -142.5t-175.5 -130.5t-217 -94t-248.5 -36.5q-124 0 -219 32t-156 91t-97 143t-41.5 188t9.5 226
l134 952q0 8 9 8h24q7 0 7 -8l-134 -952q-15 -116 -10.5 -214.5t37 -178t89 -135.5t146 -86t207.5 -30q153 0 307 61.5t273 161.5t201 231.5t101 265.5l123 876q2 8 9 8h24z" />
    <glyph glyph-name="Uring" unicode="&#x16e;" horiz-adv-x="2380" 
d="M1445 2616q-136 0 -226.5 92t-90.5 227q0 107 59 201t156 149t204 55q136 0 226 -93.5t90 -229.5q0 -107 -59 -200t-155.5 -147t-203.5 -54zM1449 2644q154 0 268 110.5t114 262.5q0 126 -80.5 210.5t-207.5 84.5q-155 0 -269 -111t-114 -265q0 -124 81 -208t208 -84z
M2352 2440q7 0 7 -8l-201 -1432q-70 -496 -354 -768t-733 -272t-656 272t-137 768l201 1432q0 8 9 8h24q7 0 7 -8l-201 -1432q-68 -481 128 -742.5t630 -261.5t704 261.5t338 742.5l201 1432q0 8 9 8h24z" />
    <glyph glyph-name="uring" unicode="&#x16f;" 
d="M1100 1776q-136 0 -226.5 92t-90.5 227q0 107 59 201t156 149t204 55q136 0 226 -93.5t90 -229.5q0 -107 -59 -200t-155.5 -147t-203.5 -54zM1104 1804q154 0 268 110.5t114 262.5q0 126 -80.5 210.5t-207.5 84.5q-155 0 -269 -111t-114 -265q0 -124 81 -208t208 -84z
M1775 1600q7 0 7 -8l-223 -1584q-2 -8 -9 -8h-24q-7 0 -7 8l69 488q-29 -63 -81.5 -132.5t-133.5 -142.5t-175.5 -130.5t-217 -94t-248.5 -36.5q-124 0 -219 32t-156 91t-97 143t-41.5 188t9.5 226l134 952q0 8 9 8h24q7 0 7 -8l-134 -952q-15 -116 -10.5 -214.5t37 -178
t89 -135.5t146 -86t207.5 -30q153 0 307 61.5t273 161.5t201 231.5t101 265.5l123 876q2 8 9 8h24z" />
    <glyph glyph-name="Uhungarumlaut" unicode="&#x170;" horiz-adv-x="2380" 
d="M1206 2701q-3 -8 -11 -5l-15 6q-7 3 -4 10l381 648q5 8 12 5l15 -6q8 -3 3 -11zM1672 2700q-6 -6 -12 0l-10 12q-5 6 1 12l601 464q8 6 13 0l10 -12q6 -6 -2 -12zM2352 2440q7 0 7 -8l-201 -1432q-70 -496 -354 -768t-733 -272t-656 272t-137 768l201 1432q0 8 9 8h24
q7 0 7 -8l-201 -1432q-68 -481 128 -742.5t630 -261.5t704 261.5t338 742.5l201 1432q0 8 9 8h24z" />
    <glyph glyph-name="uhungarumlaut" unicode="&#x171;" 
d="M861 1861q-3 -8 -11 -5l-15 6q-7 3 -4 10l381 648q5 8 12 5l15 -6q8 -3 3 -11zM1327 1860q-6 -6 -12 0l-10 12q-5 6 1 12l601 464q8 6 13 0l10 -12q6 -6 -2 -12zM1775 1600q7 0 7 -8l-223 -1584q-2 -8 -9 -8h-24q-7 0 -7 8l69 488q-29 -63 -81.5 -132.5t-133.5 -142.5
t-175.5 -130.5t-217 -94t-248.5 -36.5q-124 0 -219 32t-156 91t-97 143t-41.5 188t9.5 226l134 952q0 8 9 8h24q7 0 7 -8l-134 -952q-15 -116 -10.5 -214.5t37 -178t89 -135.5t146 -86t207.5 -30q153 0 307 61.5t273 161.5t201 231.5t101 265.5l123 876q2 8 9 8h24z" />
    <glyph glyph-name="Uogonek" unicode="&#x172;" horiz-adv-x="2380" 
d="M2352 2440q7 0 7 -8l-201 -1432q-59 -419 -273.5 -681t-555.5 -333q-213 -117 -324 -253.5t-111 -283.5q0 -101 53.5 -159t151.5 -58q121 0 227 48q7 3 11.5 2.5t3.5 -6.5l-1 -12q-1 -10 -15 -16q-108 -48 -230 -48q-111 0 -174 67.5t-63 180.5q0 136 104 278t286 246
q-86 -12 -177 -12q-449 0 -656 272t-137 768l201 1432q0 8 9 8h24q7 0 7 -8l-201 -1432q-68 -481 128 -742.5t630 -261.5t704 261.5t338 742.5l201 1432q0 8 9 8h24z" />
    <glyph glyph-name="uogonek" unicode="&#x173;" 
d="M1775 1600q7 0 7 -8l-223 -1584q-2 -8 -9 -8q-225 -119 -343 -259.5t-118 -291.5q0 -101 53.5 -159t151.5 -58q121 0 227 48q7 3 11.5 2.5t3.5 -6.5l-1 -12q-1 -10 -15 -16q-108 -48 -230 -48q-111 0 -174 67.5t-63 180.5q0 150 126 306t341 258l68 484
q-29 -63 -81.5 -132.5t-133.5 -142.5t-175.5 -130.5t-217 -94t-248.5 -36.5q-124 0 -219 32t-156 91t-97 143t-41.5 188t9.5 226l134 952q0 8 9 8h24q7 0 7 -8l-134 -952q-15 -116 -10.5 -214.5t37 -178t89 -135.5t146 -86t207.5 -30q153 0 307 61.5t273 161.5t201 231.5
t101 265.5l123 876q2 8 9 8h24z" />
    <glyph glyph-name="Wcircumflex" unicode="&#x174;" horiz-adv-x="3163" 
d="M1406 2680q-12 0 -3 8l495 472q4 4 16 4h16q12 0 15 -4l362 -472q6 -8 -5 -8h-20q-12 0 -15 4l-349 452l-476 -452q-5 -4 -12 -4h-24zM3304 2440q11 0 8 -8l-1095 -2464q-4 -8 -12 -8h-17q-8 0 -10 8l-393 2276l-1027 -2276q-4 -8 -12 -8h-18q-9 0 -10 8l-408 2463
q-1 4 2 6.5t8 2.5h20q9 0 10 -8l394 -2412l1030 2292q4 8 12 8h18q8 0 9 -8l391 -2292l1069 2413q2 7 11 7h20z" />
    <glyph glyph-name="wcircumflex" unicode="&#x175;" horiz-adv-x="2517" 
d="M953 1840q-12 0 -3 8l495 472q4 4 16 4h16q12 0 15 -4l362 -472q6 -8 -5 -8h-20q-12 0 -15 4l-349 452l-476 -452q-5 -4 -12 -4h-24zM2603 1600q12 0 2 -16l-815 -1616q-5 -8 -13 -8h-14q-8 0 -11 8l-419 1360l-802 -1360q-5 -8 -13 -8h-11q-8 0 -11 8l-363 1616
q-6 16 6 16h20q11 0 14 -12l348 -1568l796 1352q9 16 18 16h9q12 0 16 -16l417 -1352l786 1568q9 12 18 12h22z" />
    <glyph glyph-name="Ycircumflex" unicode="&#x176;" horiz-adv-x="2207" 
d="M926 2680q-12 0 -3 8l495 472q4 4 16 4h16q12 0 15 -4l362 -472q6 -8 -5 -8h-20q-12 0 -15 4l-349 452l-476 -452q-5 -4 -12 -4h-24zM2348 2440q13 0 7 -8l-1209 -1539l-124 -885q0 -8 -8 -8h-24q-8 0 -8 8l124 887l-795 1537v4.5t2 2.5t3.5 1h3.5h24q7 0 11 -8
l777 -1500l1179 1500q7 8 14 8h23z" />
    <glyph glyph-name="ycircumflex" unicode="&#x177;" horiz-adv-x="1507" 
d="M446 1840q-12 0 -3 8l495 472q4 4 16 4h16q12 0 15 -4l362 -472q6 -8 -5 -8h-20q-12 0 -15 4l-349 452l-476 -452q-5 -4 -12 -4h-24zM1593 1600q11 0 1 -16l-916 -1596q-85 -148 -148.5 -253.5t-132.5 -211t-125 -176t-117.5 -133t-118 -98.5t-118 -56t-126.5 -20
q-8 0 -8 8l3 20q2 8 10 8q78 0 153 35.5t147.5 101t158 180.5t170.5 250.5t199 333.5l-492 1607q-6 16 7 16h20q10 0 14 -12l477 -1565l899 1565q8 12 23 12h20z" />
    <glyph glyph-name="Ydieresis" unicode="&#x178;" horiz-adv-x="2207" 
d="M1084 2868q-22 0 -37 16t-15 38q0 26 21 46t48 20q22 0 37 -16t15 -38q0 -26 -21 -46t-48 -20zM1724 2868q-22 0 -37 16t-15 38q0 26 21 46t48 20q22 0 37 -16t15 -38q0 -26 -21 -46t-48 -20zM2348 2440q13 0 7 -8l-1209 -1539l-124 -885q0 -8 -8 -8h-24q-8 0 -8 8
l124 887l-795 1537v4.5t2 2.5t3.5 1h3.5h24q7 0 11 -8l777 -1500l1179 1500q7 8 14 8h23z" />
    <glyph glyph-name="Zacute" unicode="&#x179;" horiz-adv-x="2290" 
d="M1403 2700q-5 -6 -11 0l-11 12q-4 6 2 12l601 464q8 6 12 0l11 -12q6 -6 -2 -12zM105 0q-8 0 -6 8l2 16q0 7 5 12l2138 2368h-1741q-9 0 -7 8l3 20q0 8 9 8h1784q7 0 7 -8l-2 -16q-3 -9 -6 -12l-2137 -2368h1820q7 0 7 -8l-2 -20q-2 -8 -10 -8h-1864z" />
    <glyph glyph-name="zacute" unicode="&#x17a;" horiz-adv-x="1771" 
d="M993 1860q-5 -6 -11 0l-11 12q-4 6 2 12l601 464q8 6 12 0l11 -12q6 -6 -2 -12zM57 0q-8 0 -8 8l2 12q3 9 6 12l1514 1532h-1234q-8 0 -8 8l3 20q2 8 10 8h1284q8 0 6 -8l-2 -12q0 -8 -5 -12l-1514 -1532h1315q8 0 6 -8l-2 -20q0 -8 -9 -8h-1364z" />
    <glyph glyph-name="Zdotaccent" unicode="&#x17b;" horiz-adv-x="2290" 
d="M1464 2868q-22 0 -37 16t-15 38q0 26 21 46t48 20q22 0 37 -16t15 -38q0 -26 -21 -46t-48 -20zM105 0q-8 0 -6 8l2 16q0 7 5 12l2138 2368h-1741q-9 0 -7 8l3 20q0 8 9 8h1784q7 0 7 -8l-2 -16q-3 -9 -6 -12l-2137 -2368h1820q7 0 7 -8l-2 -20q-2 -8 -10 -8h-1864z" />
    <glyph glyph-name="zdotaccent" unicode="&#x17c;" horiz-adv-x="1771" 
d="M1054 2028q-22 0 -37 16t-15 38q0 26 21 46t48 20q22 0 37 -16t15 -38q0 -26 -21 -46t-48 -20zM57 0q-8 0 -8 8l2 12q3 9 6 12l1514 1532h-1234q-8 0 -8 8l3 20q2 8 10 8h1284q8 0 6 -8l-2 -12q0 -8 -5 -12l-1514 -1532h1315q8 0 6 -8l-2 -20q0 -8 -9 -8h-1364z" />
    <glyph glyph-name="Zcaron" unicode="&#x17d;" horiz-adv-x="2290" 
d="M1914 3156q4 4 16 4h20q11 0 3 -8l-495 -472q-5 -4 -17 -4h-16q-11 0 -14 4l-362 472q-7 8 5 8h24q7 0 11 -4l349 -452zM105 0q-8 0 -6 8l2 16q0 7 5 12l2138 2368h-1741q-9 0 -7 8l3 20q0 8 9 8h1784q7 0 7 -8l-2 -16q-3 -9 -6 -12l-2137 -2368h1820q7 0 7 -8l-2 -20
q-2 -8 -10 -8h-1864z" />
    <glyph glyph-name="zcaron" unicode="&#x17e;" horiz-adv-x="1771" 
d="M1504 2316q4 4 16 4h20q11 0 3 -8l-495 -472q-5 -4 -17 -4h-16q-11 0 -14 4l-362 472q-7 8 5 8h24q7 0 11 -4l349 -452zM57 0q-8 0 -8 8l2 12q3 9 6 12l1514 1532h-1234q-8 0 -8 8l3 20q2 8 10 8h1284q8 0 6 -8l-2 -12q0 -8 -5 -12l-1514 -1532h1315q8 0 6 -8l-2 -20
q0 -8 -9 -8h-1364z" />
    <glyph glyph-name="Scommaaccent" unicode="&#x218;" horiz-adv-x="2154" 
d="M467 1787q0 -220 201 -343q122 -74 386 -143q34 -9 105 -26q268 -67 385 -115q244 -100 323 -266q43 -91 43 -208q0 -127 -37.5 -233t-104.5 -182t-155.5 -133t-195.5 -91t-219 -50.5t-231 -16.5q-508 0 -814 277q-12 12 -5 20l9 12q8 9 18 1q151 -133 338 -203.5
t456 -70.5q97 0 190 11t183 36t168 62t144.5 90.5t114 120t74 153.5t26.5 187q0 80 -23 148t-56.5 116.5t-94.5 91.5t-114 70t-139 55t-145 44t-157 40q-79 19 -119.5 29.5t-113.5 32t-112.5 37.5t-98.5 43t-91.5 53.5t-72 64t-59 79t-33.5 94.5t-14 113q0 310 240 491.5
t662 181.5q239 0 413 -60t314 -160q9 -7 1 -17l-9 -13q-6 -10 -17 -2q-141 99 -306 157.5t-390 58.5q-405 0 -636 -173t-231 -464zM859 -300q23 0 36.5 -16.5t13.5 -47.5q0 -54 -18.5 -122t-69 -154t-124.5 -152q-8 -8 -16 0l-7 8q-4 6 2 12q74 66 121.5 157t47.5 164
q0 14 -5.5 21t-21.5 14q-28 13 -28 46q0 29 21 49.5t48 20.5z" />
    <glyph glyph-name="scommaaccent" unicode="&#x219;" horiz-adv-x="1571" 
d="M344 1176q0 -73 33 -127.5t89.5 -88.5t129.5 -59.5t153.5 -45.5t161 -40.5t153.5 -50t129.5 -69t89.5 -103.5t33 -147q0 -107 -39 -190.5t-100.5 -134t-146 -83t-166 -45t-170.5 -12.5q-297 0 -579 180q-7 4 -2 12l11 16q6 8 14 3q253 -175 559 -175q78 0 151.5 10
t153.5 38.5t138.5 74t97 123t38.5 178.5q0 79 -33.5 139.5t-89.5 97.5t-129 65t-153.5 48t-161.5 39.5t-154 46.5t-129 63.5t-89.5 95t-33.5 135.5q0 137 79 240.5t213.5 156.5t304.5 53q151 0 276 -46t246 -135q7 -5 2 -13l-9 -14q-6 -8 -13 -4q-127 92 -246 134t-259 42
q-245 0 -399 -111.5t-154 -296.5zM582 -300q23 0 36.5 -16.5t13.5 -47.5q0 -54 -18.5 -122t-69 -154t-124.5 -152q-8 -8 -16 0l-7 8q-4 6 2 12q74 66 121.5 157t47.5 164q0 14 -5.5 21t-21.5 14q-28 13 -28 46q0 29 21 49.5t48 20.5z" />
    <glyph glyph-name="uni021A" unicode="&#x21a;" horiz-adv-x="2340" 
d="M2372 2440q7 0 7 -8l-2 -20q-2 -8 -10 -8h-952l-336 -2396q-2 -8 -10 -8h-24q-8 0 -6 8l336 2396h-952q-8 0 -6 8l2 20q0 8 9 8h984h960zM974 -300q23 0 36.5 -16.5t13.5 -47.5q0 -54 -18.5 -122t-69 -154t-124.5 -152q-8 -8 -16 0l-7 8q-4 6 2 12q74 66 121.5 157
t47.5 164q0 14 -5.5 21t-21.5 14q-28 13 -28 46q0 29 21 49.5t48 20.5z" />
    <glyph glyph-name="uni021B" unicode="&#x21b;" horiz-adv-x="1429" 
d="M1360 1600q7 0 7 -8l-2 -20q-2 -8 -10 -8h-748l-147 -1044q-9 -64 -9.5 -121t7 -115.5t30 -105.5t57.5 -84t91 -57.5t129 -20.5q97 0 199 38t189 109q10 8 15 0l7 -11q5 -8 -8 -19q-199 -153 -407 -153q-82 0 -145.5 21.5t-102 61t-63 89.5t-33 113t-7.5 124.5t11 130.5
h1l147 1044h-353q-8 0 -6 8l2 20q0 8 9 8h353l59 423q0 7 9 10l25 7q7 2 7 -6l-61 -434h748zM668 -300q23 0 36.5 -16.5t13.5 -47.5q0 -54 -18.5 -122t-69 -154t-124.5 -152q-8 -8 -16 0l-7 8q-4 6 2 12q74 66 121.5 157t47.5 164q0 14 -5.5 21t-21.5 14q-28 13 -28 46
q0 29 21 49.5t48 20.5z" />
    <glyph glyph-name="circumflex" unicode="&#x2c6;" horiz-adv-x="911" 
d="M869 1844l-349 452l-476 -452q-5 -4 -12 -4h-24q-12 0 -3 8l495 472q4 4 16 4h16q12 0 15 -4l362 -472q6 -8 -5 -8h-20q-12 0 -15 4z" />
    <glyph glyph-name="caron" unicode="&#x2c7;" horiz-adv-x="911" 
d="M868 2316q4 4 16 4h20q11 0 3 -8l-495 -472q-5 -4 -17 -4h-16q-11 0 -14 4l-362 472q-7 8 5 8h24q7 0 11 -4l349 -452z" />
    <glyph glyph-name="breve" unicode="&#x2d8;" horiz-adv-x="2404" 
d="M957 2240q7 0 7 -7q0 -85 -44 -160t-114.5 -125t-159 -79t-177.5 -29q-104 0 -191 39t-142.5 119.5t-55.5 186.5q0 55 13 55h20q3 0 3 -51q0 -98 51.5 -171.5t131.5 -109.5t174 -36q158 0 289.5 97.5t165.5 262.5q2 8 9 8h20z" />
    <glyph glyph-name="dotaccent" unicode="&#x2d9;" horiz-adv-x="609" 
d="M300 2028q-22 0 -37 16t-15 38q0 26 21 46t48 20q22 0 37 -16t15 -38q0 -26 -21 -46t-48 -20z" />
    <glyph glyph-name="ring" unicode="&#x2da;" horiz-adv-x="807" 
d="M353 1776q-136 0 -226.5 92t-90.5 227q0 107 59 201t156 149t204 55q136 0 226 -93.5t90 -229.5q0 -107 -59 -200t-155.5 -147t-203.5 -54zM357 1804q154 0 268 110.5t114 262.5q0 126 -80.5 210.5t-207.5 84.5q-155 0 -269 -111t-114 -265q0 -124 81 -208t208 -84z" />
    <glyph glyph-name="ogonek" unicode="&#x2db;" horiz-adv-x="539" 
d="M279 -800q-111 0 -174 67.5t-63 180.5q0 152 128.5 309t346.5 259l22 -16q-225 -119 -343 -259.5t-118 -291.5q0 -101 53.5 -159t151.5 -58q121 0 227 48q7 3 11.5 2.5t3.5 -6.5l-1 -12q-1 -10 -15 -16q-108 -48 -230 -48z" />
    <glyph glyph-name="tilde" unicode="&#x2dc;" horiz-adv-x="1072" 
d="M1066 2256q6 0 6 -10q0 -160 -92 -255t-229 -95q-56 0 -100.5 24t-71 60t-55 78t-53 78t-65 60t-90.5 24q-219 0 -284 -316q-2 -8 -9 -8h-16q-7 0 -7 7q0 162 91 257.5t231 95.5q49 0 88 -18t65.5 -46.5t49.5 -63t45.5 -69t47 -63t59.5 -46.5t79 -18q219 0 284 316
q2 8 10 8h16z" />
    <glyph glyph-name="hungarumlaut" unicode="&#x2dd;" horiz-adv-x="1330" 
d="M201 1861q-3 -8 -11 -5l-15 6q-7 3 -4 10l381 648q5 8 12 5l15 -6q8 -3 3 -11zM667 1860q-6 -6 -12 0l-10 12q-5 6 1 12l601 464q8 6 13 0l10 -12q6 -6 -2 -12z" />
    <glyph glyph-name="uni0326" unicode="&#x326;" horiz-adv-x="0" 
d="M-368 -300q23 0 36.5 -16.5t13.5 -47.5q0 -54 -18.5 -122t-69 -154t-124.5 -152q-8 -8 -16 0l-7 8q-4 6 2 12q74 66 121.5 157t47.5 164q0 14 -5.5 21t-21.5 14q-28 13 -28 46q0 29 21 49.5t48 20.5z" />
    <glyph glyph-name="uni0335" unicode="&#x335;" horiz-adv-x="0" 
 />
    <glyph glyph-name="uni0336" unicode="&#x336;" horiz-adv-x="0" 
d="M-2034 1204q-8 0 -6 8l2 20q0 8 9 8h1020q7 0 7 -8l-2 -20q-2 -8 -10 -8h-1020z" />
    <glyph glyph-name="uni0337" unicode="&#x337;" horiz-adv-x="0" 
 />
    <glyph glyph-name="Wgrave" unicode="&#x1e80;" horiz-adv-x="3163" 
d="M1910 2700l-471 464q-6 6 1 12l14 12q6 6 12 0l470 -464q5 -6 -1 -12l-14 -12q-7 -6 -11 0zM3304 2440q11 0 8 -8l-1095 -2464q-4 -8 -12 -8h-17q-8 0 -10 8l-393 2276l-1027 -2276q-4 -8 -12 -8h-18q-9 0 -10 8l-408 2463q-1 4 2 6.5t8 2.5h20q9 0 10 -8l394 -2412
l1030 2292q4 8 12 8h18q8 0 9 -8l391 -2292l1069 2413q2 7 11 7h20z" />
    <glyph glyph-name="wgrave" unicode="&#x1e81;" horiz-adv-x="2517" 
d="M1457 1860l-471 464q-6 6 1 12l14 12q6 6 12 0l470 -464q5 -6 -1 -12l-14 -12q-7 -6 -11 0zM2603 1600q12 0 2 -16l-815 -1616q-5 -8 -13 -8h-14q-8 0 -11 8l-419 1360l-802 -1360q-5 -8 -13 -8h-11q-8 0 -11 8l-363 1616q-6 16 6 16h20q11 0 14 -12l348 -1568l796 1352
q9 16 18 16h9q12 0 16 -16l417 -1352l786 1568q9 12 18 12h22z" />
    <glyph glyph-name="Wacute" unicode="&#x1e82;" horiz-adv-x="3163" 
d="M1812 2700l-11 12q-4 6 2 12l601 464q8 6 12 0l11 -12q6 -6 -2 -12l-602 -464q-5 -6 -11 0zM3304 2440q11 0 8 -8l-1095 -2464q-4 -8 -12 -8h-17q-8 0 -10 8l-393 2276l-1027 -2276q-4 -8 -12 -8h-18q-9 0 -10 8l-408 2463q-1 4 2 6.5t8 2.5h20q9 0 10 -8l394 -2412
l1030 2292q4 8 12 8h18q8 0 9 -8l391 -2292l1069 2413q2 7 11 7h20z" />
    <glyph glyph-name="wacute" unicode="&#x1e83;" horiz-adv-x="2517" 
d="M1359 1860l-11 12q-4 6 2 12l601 464q7 6 12 0l11 -12q6 -6 -2 -12l-602 -464q-6 -6 -11 0zM2603 1600q12 0 2 -16l-815 -1616q-5 -8 -13 -8h-14q-8 0 -11 8l-419 1360l-802 -1360q-5 -8 -13 -8h-11q-8 0 -11 8l-363 1616q-6 16 6 16h20q11 0 14 -12l348 -1568l796 1352
q9 16 18 16h9q12 0 16 -16l417 -1352l786 1568q9 12 18 12h22z" />
    <glyph glyph-name="Wdieresis" unicode="&#x1e84;" horiz-adv-x="3163" 
d="M1564 2868q-22 0 -37 16t-15 38q0 26 21 46t48 20q22 0 37 -16t15 -38q0 -26 -21 -46t-48 -20zM2204 2868q-22 0 -37 16t-15 38q0 26 21 46t48 20q22 0 37 -16t15 -38q0 -26 -21 -46t-48 -20zM3304 2440q11 0 8 -8l-1095 -2464q-4 -8 -12 -8h-17q-8 0 -10 8l-393 2276
l-1027 -2276q-4 -8 -12 -8h-18q-9 0 -10 8l-408 2463q-1 4 2 6.5t8 2.5h20q9 0 10 -8l394 -2412l1030 2292q4 8 12 8h18q8 0 9 -8l391 -2292l1069 2413q2 7 11 7h20z" />
    <glyph glyph-name="wdieresis" unicode="&#x1e85;" horiz-adv-x="2517" 
d="M1111 2028q-22 0 -37 16t-15 38q0 26 21 46t48 20q22 0 37 -16t15 -38q0 -26 -21 -46t-48 -20zM1751 2028q-22 0 -37 16t-15 38q0 26 21 46t48 20q22 0 37 -16t15 -38q0 -26 -21 -46t-48 -20zM2603 1600q12 0 2 -16l-815 -1616q-5 -8 -13 -8h-14q-8 0 -11 8l-419 1360
l-802 -1360q-5 -8 -13 -8h-11q-8 0 -11 8l-363 1616q-6 16 6 16h20q11 0 14 -12l348 -1568l796 1352q9 16 18 16h9q12 0 16 -16l417 -1352l786 1568q9 12 18 12h22z" />
    <glyph glyph-name="Ygrave" unicode="&#x1ef2;" horiz-adv-x="2207" 
d="M1430 2700l-471 464q-6 6 1 12l14 12q6 6 12 0l470 -464q5 -6 -1 -12l-14 -12q-7 -6 -11 0zM2348 2440q13 0 7 -8l-1209 -1539l-124 -885q0 -8 -8 -8h-24q-8 0 -8 8l124 887l-795 1537v4.5t2 2.5t3.5 1h3.5h24q7 0 11 -8l777 -1500l1179 1500q7 8 14 8h23z" />
    <glyph glyph-name="ygrave" unicode="&#x1ef3;" horiz-adv-x="1507" 
d="M950 1860l-471 464q-6 6 1 12l14 12q6 6 12 0l470 -464q5 -6 -1 -12l-14 -12q-7 -6 -11 0zM1593 1600q11 0 1 -16l-916 -1596q-85 -148 -148.5 -253.5t-132.5 -211t-125 -176t-117.5 -133t-118 -98.5t-118 -56t-126.5 -20q-8 0 -8 8l3 20q2 8 10 8q78 0 153 35.5
t147.5 101t158 180.5t170.5 250.5t199 333.5l-492 1607q-6 16 7 16h20q10 0 14 -12l477 -1565l899 1565q8 12 23 12h20z" />
    <glyph glyph-name="endash" unicode="&#x2013;" horiz-adv-x="1760" 
d="M8 924q-8 0 -8 8l3 20q2 8 10 8h1740q8 0 6 -8l-2 -20q0 -8 -9 -8h-1740z" />
    <glyph glyph-name="emdash" unicode="&#x2014;" horiz-adv-x="2960" 
d="M8 924q-8 0 -8 8l3 20q2 8 10 8h2940q8 0 6 -8l-2 -20q0 -8 -9 -8h-2940z" />
    <glyph glyph-name="quoteleft" unicode="&#x2018;" horiz-adv-x="622" 
d="M488 2123q-23 0 -36.5 16.5t-13.5 47.5q0 54 18.5 122t69 154t124.5 152q8 7 15 0l8 -8q4 -6 -2 -12q-74 -66 -121.5 -157t-47.5 -164q0 -14 5.5 -21t21.5 -14q28 -13 28 -46q0 -29 -21 -49.5t-48 -20.5z" />
    <glyph glyph-name="quoteright" unicode="&#x2019;" horiz-adv-x="622" 
d="M570 2580q23 0 36.5 -16.5t13.5 -47.5q0 -54 -18.5 -122t-69 -154t-124.5 -152q-8 -7 -15 0l-8 8q-4 6 2 12q74 66 121.5 157t47.5 164q0 14 -5.5 21t-21.5 14q-28 13 -28 46q0 29 21 49.5t48 20.5z" />
    <glyph glyph-name="quotesinglbase" unicode="&#x201a;" horiz-adv-x="622" 
d="M221 100q23 0 36.5 -16.5t13.5 -47.5q0 -54 -18.5 -122t-69 -154t-124.5 -152q-8 -7 -15 0l-8 8q-4 6 2 12q74 66 121.5 157t47.5 164q0 14 -5.5 21t-21.5 14q-28 13 -28 46q0 29 21 49.5t48 20.5z" />
    <glyph glyph-name="quotedblleft" unicode="&#x201c;" horiz-adv-x="930" 
d="M488 2123q-23 0 -36.5 16.5t-13.5 47.5q0 54 18.5 122t69 154t124.5 152q8 7 15 0l8 -8q4 -6 -2 -12q-74 -66 -121.5 -157t-47.5 -164q0 -14 5.5 -21t21.5 -14q28 -13 28 -46q0 -29 -21 -49.5t-48 -20.5zM796 2123q-23 0 -36.5 16.5t-13.5 47.5q0 54 18.5 122t69 154
t124.5 152q8 7 15 0l8 -8q4 -6 -2 -12q-74 -66 -121.5 -157t-47.5 -164q0 -14 5.5 -21t21.5 -14q28 -13 28 -46q0 -29 -21 -49.5t-48 -20.5z" />
    <glyph glyph-name="quotedblright" unicode="&#x201d;" horiz-adv-x="930" 
d="M570 2580q23 0 36.5 -16.5t13.5 -47.5q0 -54 -18.5 -122t-69 -154t-124.5 -152q-8 -7 -15 0l-8 8q-4 6 2 12q74 66 121.5 157t47.5 164q0 14 -5.5 21t-21.5 14q-28 13 -28 46q0 29 21 49.5t48 20.5zM878 2580q23 0 36.5 -16.5t13.5 -47.5q0 -54 -18.5 -122t-69 -154
t-124.5 -152q-8 -7 -15 0l-8 8q-4 6 2 12q74 66 121.5 157t47.5 164q0 14 -5.5 21t-21.5 14q-28 13 -28 46q0 29 21 49.5t48 20.5z" />
    <glyph glyph-name="quotedblbase" unicode="&#x201e;" horiz-adv-x="930" 
d="M221 100q23 0 36.5 -16.5t13.5 -47.5q0 -54 -18.5 -122t-69 -154t-124.5 -152q-8 -7 -15 0l-8 8q-4 6 2 12q74 66 121.5 157t47.5 164q0 14 -5.5 21t-21.5 14q-28 13 -28 46q0 29 21 49.5t48 20.5zM529 100q23 0 36.5 -16.5t13.5 -47.5q0 -54 -18.5 -122t-69 -154
t-124.5 -152q-8 -7 -15 0l-8 8q-4 6 2 12q74 66 121.5 157t47.5 164q0 14 -5.5 21t-21.5 14q-28 13 -28 46q0 29 21 49.5t48 20.5z" />
    <glyph glyph-name="dagger" unicode="&#x2020;" horiz-adv-x="1537" 
d="M1511 2028q9 0 7 -8l-3 -20q-2 -8 -9 -8h-550l-307 -2184q0 -8 -9 -8h-24q-9 0 -7 8l307 2184h-550q-9 0 -7 8l3 20q2 8 9 8h550l102 724q0 8 9 8h24q7 0 7 -8l-102 -724h550z" />
    <glyph glyph-name="daggerdbl" unicode="&#x2021;" horiz-adv-x="1537" 
d="M1510 2028q8 0 8 -8l-3 -20q-2 -8 -10 -8h-549l-200 -1424h549q7 0 7 -8l-2 -20q-2 -8 -10 -8h-549l-102 -724q-2 -8 -10 -8h-24q-8 0 -6 8l102 724h-551q-8 0 -6 8l2 20q0 8 9 8h551l199 1424h-550q-8 0 -6 8l3 20q0 8 8 8h550l102 724q0 8 9 8h24q8 0 8 -8l-102 -724
h549z" />
    <glyph glyph-name="bullet" unicode="&#x2022;" horiz-adv-x="824" 
d="M393 667q-61 0 -104.5 45.5t-43.5 108.5q0 74 60.5 131.5t136.5 57.5q62 0 105 -46t43 -109q0 -74 -60.5 -131t-136.5 -57z" />
    <glyph glyph-name="ellipsis" unicode="&#x2026;" horiz-adv-x="1561" 
d="M185 -20q-22 0 -37 16t-15 38q0 26 21 46t48 20q22 0 37 -16t15 -38q0 -26 -21 -46t-48 -20zM665 -20q-22 0 -37 16t-15 38q0 26 21 46t48 20q22 0 37 -16t15 -38q0 -26 -21 -46t-48 -20zM1145 -20q-22 0 -37 16t-15 38q0 26 21 46t48 20q22 0 37 -16t15 -38
q0 -26 -21 -46t-48 -20z" />
    <glyph glyph-name="perthousand" unicode="&#x2030;" horiz-adv-x="4373" 
d="M2374 2497q2 -1 3 -4.5t-1 -5.5l-1514 -2550q-6 -8 -11 -4l-20 10q-5 3 -3 10l1514 2550q4 8 12 4zM1402 1699q-49 -349 -222 -555.5t-413 -206.5t-355 206.5t-66 555.5q49 348 222 554.5t413 206.5t355 -206t66 -555zM771 971q226 0 385 195t207 533q47 337 -56.5 532
t-330.5 195t-385.5 -195t-205.5 -532q-48 -337 55.5 -532.5t330.5 -195.5zM2424 1503q240 0 355 -206.5t66 -554.5q-49 -349 -222 -555.5t-413 -206.5t-355 206.5t-66 555.5t222 555t413 206zM3724 1503q240 0 355 -206.5t66 -554.5q-49 -349 -222 -555.5t-413 -206.5
t-355 206.5t-66 555.5t222 555t413 206zM2806 742q47 337 -56.5 532t-330.5 195t-385.5 -195t-205.5 -532t56.5 -532.5t330.5 -195.5t385.5 195.5t205.5 532.5zM3515 14q227 0 385.5 195.5t205.5 532.5t-56.5 532t-330.5 195t-385.5 -195t-205.5 -532t56.5 -532.5
t330.5 -195.5z" />
    <glyph glyph-name="guilsinglleft" unicode="&#x2039;" horiz-adv-x="1141" 
d="M958 1327q6 4 11.5 2.5t4.5 -7.5l-2 -15q0 -3 -5 -7l-695 -478l561 -478q2 -2 2 -7l-2 -15q-1 -6 -7 -7.5t-11 2.5l-569 490q-4 3 -4 6l2 9l1 9q0 3 5 6z" />
    <glyph glyph-name="guilsinglright" unicode="&#x203a;" horiz-adv-x="1141" 
d="M902 837q3 -3 3 -6l-2 -9l-1 -9q0 -3 -5 -6l-707 -490q-6 -4 -12 -2.5t-5 7.5l2 15q0 3 5 7l695 478h1l-561 478q-3 3 -3 7l2 15q1 6 6.5 7.5t10.5 -2.5z" />
    <glyph glyph-name="fraction" unicode="&#x2044;" horiz-adv-x="1273" 
d="M1506 2338q4 8 11 4l12 -6q7 -4 3 -10l-1608 -2650q-5 -7 -12 -4l-11 6q-7 4 -3 10z" />
    <glyph glyph-name="Euro" unicode="&#x20ac;" horiz-adv-x="3012" 
d="M2955 1826q1 -4 0 -6.5t-3 -3.5l-2 -2l-19 -8q-8 -4 -11 4q-119 318 -332.5 466t-525.5 148q-267 0 -515 -107.5t-441.5 -312t-287.5 -474.5h1379l-45 -38h-1347q-66 -206 -66 -436q0 -58 4 -102h1269l-45 -36h-1221q28 -272 163.5 -478t347 -315t467.5 -109
q316 0 573.5 147.5t456.5 466.5q2 4 5.5 5t5.5 0l2 -1l16 -8q1 0 1.5 -1l2 -4t-1.5 -7q-396 -634 -1066 -634q-269 0 -489.5 113t-359.5 327t-166 498h-497l5 36h489q-3 46 -3 94q0 232 65 444h-475l5 38h482q72 212 205 387.5t303.5 294t372 183.5t411.5 65q651 0 888 -634
z" />
    <glyph glyph-name="trademark" unicode="&#x2122;" horiz-adv-x="3357" 
d="M3336 2467q5 0 5 -5l-215 -1530q-2 -5 -6 -5h-15q-6 0 -4 5l206 1468l-849 -1133q-7 -7 -11 0l-531 1133l-206 -1468q0 -5 -6 -5h-15q-4 0 -4 5l215 1530q0 5 6 5h2q5 0 9 -8l541 -1154l865 1154q5 8 11 8h2zM1633 2442q4 0 4 -5l-1 -12q-2 -5 -6 -5h-591l-209 -1488
q-2 -5 -6 -5h-15q-6 0 -4 5l209 1488h-591q-6 0 -4 5l1 12q0 5 6 5h611h596z" />
    <glyph glyph-name="oneeighth" unicode="&#x215b;" horiz-adv-x="3863" 
d="M919 2397q7 0 5 -5l-224 -1594q0 -5 -6 -5h-16q-5 0 -5 5l221 1572l-375 -185q-5 -3 -7 3l-5 12q-2 5 4 7l387 188q4 2 12 2h9zM2429 2336q7 -4 3 -10l-1608 -2650q-5 -7 -12 -4l-11 6q-7 4 -3 10l1608 2650q4 8 11 4zM2950 839q70 -11 131.5 -37.5t114.5 -70t84 -111
t31 -150.5q0 -146 -76.5 -256.5t-211.5 -168.5t-309 -58q-220 0 -348.5 101t-128.5 276q0 89 29 164t76 126.5t111 91t129 61.5t135 32q-48 8 -92.5 25t-87 45t-73.5 64.5t-50 88t-19 110.5q0 187 155 316t393 129q200 0 317 -100.5t117 -256.5q0 -76 -26.5 -142t-69.5 -112
t-100 -81t-114 -55.5t-117 -30.5zM2422 1176q0 -146 115.5 -235t297.5 -89q140 0 257.5 50t188 143t70.5 211q0 146 -111.5 242t-299.5 96q-224 0 -371 -122t-147 -296zM2717 11q248 0 408 127t160 328q0 162 -123 261t-331 99q-248 0 -407.5 -127.5t-159.5 -327.5
q0 -163 123 -261.5t330 -98.5z" />
    <glyph glyph-name="threeeighths" unicode="&#x215c;" horiz-adv-x="3763" 
d="M1335 1254q0 -223 -160 -348.5t-423 -125.5q-178 0 -307 70.5t-209 181.5q-4 7 0 12l6 5q8 8 11 2q75 -108 202.5 -177.5t293.5 -69.5q258 0 409 117t151 330q0 172 -134 265t-416 93q-7 0 -4 5l1 9q0 6 6 6q282 0 443.5 129t161.5 328q0 145 -93.5 223t-282.5 78
q-283 0 -517 -234q-5 -5 -11 1l-5 6q-4 4 5 11q237 239 539 239q194 0 292.5 -84t98.5 -238q0 -180 -125 -306t-354 -161q214 -23 317.5 -118t103.5 -249zM2629 2336q7 -4 3 -10l-1608 -2650q-5 -7 -12 -4l-11 6q-7 4 -3 10l1608 2650q4 8 11 4zM3150 839
q70 -11 131.5 -37.5t114.5 -70t84 -111t31 -150.5q0 -146 -76.5 -256.5t-211.5 -168.5t-309 -58q-220 0 -348.5 101t-128.5 276q0 89 29 164t76 126.5t111 91t129 61.5t135 32q-48 8 -92.5 25t-87 45t-73.5 64.5t-50 88t-19 110.5q0 187 155 316t393 129q200 0 317 -100.5
t117 -256.5q0 -76 -26.5 -142t-69.5 -112t-100 -81t-114 -55.5t-117 -30.5zM2622 1176q0 -146 115.5 -235t297.5 -89q140 0 257.5 50t188 143t70.5 211q0 146 -111.5 242t-299.5 96q-224 0 -371 -122t-147 -296zM2917 11q248 0 408 127t160 328q0 162 -123 261t-331 99
q-248 0 -407.5 -127.5t-159.5 -327.5q0 -163 123 -261.5t330 -98.5z" />
    <glyph glyph-name="fiveeighths" unicode="&#x215d;" horiz-adv-x="3783" 
d="M1362 1310q0 -128 -51 -230.5t-137 -167t-196 -98.5t-232 -34q-176 0 -293 62.5t-198 176.5q-6 7 -1 11l6 6q8 8 12 2q160 -234 470 -234q96 0 183 19.5t162 60.5t130.5 100t87 142t31.5 182q0 127 -62.5 219t-167 136.5t-237.5 44.5q-204 0 -431 -118q-1 -1 -2 -1t-1 1
l-18 8q-3 3 -2 5l200 789q0 5 6 5h811q5 0 5 -5l-2 -13q-2 -5 -6 -5h-791l-192 -757q215 114 427 114q214 0 351.5 -111t137.5 -310zM2629 2336q7 -4 3 -10l-1608 -2650q-5 -7 -12 -4l-11 6q-7 4 -3 10l1608 2650q4 8 11 4zM3150 839q70 -11 131.5 -37.5t114.5 -70t84 -111
t31 -150.5q0 -146 -76.5 -256.5t-211.5 -168.5t-309 -58q-220 0 -348.5 101t-128.5 276q0 89 29 164t76 126.5t111 91t129 61.5t135 32q-48 8 -92.5 25t-87 45t-73.5 64.5t-50 88t-19 110.5q0 187 155 316t393 129q200 0 317 -100.5t117 -256.5q0 -76 -26.5 -142t-69.5 -112
t-100 -81t-114 -55.5t-117 -30.5zM2622 1176q0 -146 115.5 -235t297.5 -89q140 0 257.5 50t188 143t70.5 211q0 146 -111.5 242t-299.5 96q-224 0 -371 -122t-147 -296zM2917 11q248 0 408 127t160 328q0 162 -123 261t-331 99q-248 0 -407.5 -127.5t-159.5 -327.5
q0 -163 123 -261.5t330 -98.5z" />
    <glyph glyph-name="seveneighths" unicode="&#x215e;" horiz-adv-x="3493" 
d="M1448 2382l-4 -8l-953 -1578q-1 -3 -5 -3h-19q-3 0 -4 3t1 6l952 1572h-1030q-4 0 -4 5l2 13q0 5 6 5h1054q5 0 5 -5zM2329 2336q7 -4 3 -10l-1608 -2650q-5 -7 -12 -4l-11 6q-7 4 -3 10l1608 2650q4 8 11 4zM2850 839q70 -11 131.5 -37.5t114.5 -70t84 -111t31 -150.5
q0 -146 -76.5 -256.5t-211.5 -168.5t-309 -58q-220 0 -348.5 101t-128.5 276q0 89 29 164t76 126.5t111 91t129 61.5t135 32q-48 8 -92.5 25t-87 45t-73.5 64.5t-50 88t-19 110.5q0 187 155 316t393 129q200 0 317 -100.5t117 -256.5q0 -76 -26.5 -142t-69.5 -112t-100 -81
t-114 -55.5t-117 -30.5zM2322 1176q0 -146 115.5 -235t297.5 -89q140 0 257.5 50t188 143t70.5 211q0 146 -111.5 242t-299.5 96q-224 0 -371 -122t-147 -296zM2617 11q248 0 408 127t160 328q0 162 -123 261t-331 99q-248 0 -407.5 -127.5t-159.5 -327.5q0 -163 123 -261.5
t330 -98.5z" />
    <glyph glyph-name="partialdiff" unicode="&#x2202;" horiz-adv-x="2000" 
d="M851 2557q158 -27 291 -87t230 -140t174 -183t126.5 -213t83 -233.5t48.5 -240.5t18.5 -239t-2.5 -223t-20 -198q-21 -146 -80.5 -275.5t-148 -228t-198.5 -170.5t-235 -109t-254 -37q-161 0 -298.5 59t-232 164t-137 260.5t-16.5 336.5q20 146 79.5 275.5t148 228
t198.5 170.5t235 109t254 37q246 0 427.5 -130.5t241.5 -355.5q0 123 -11.5 240.5t-41 245.5t-76.5 241.5t-122 222.5t-171 194t-230.5 151t-294.5 99q-14 3 -5 17l5 7q5 6 14 5zM890 16q154 0 300.5 56.5t264 156.5t199 248.5t106.5 322.5t-15.5 322.5t-130 248.5
t-220 156.5t-284.5 56.5t-300.5 -56.5t-264 -156.5t-199 -248.5t-106.5 -322.5t15.5 -322.5t130 -248.5t220 -156.5t284.5 -56.5z" />
    <glyph glyph-name="emptyset" unicode="&#x2205;" horiz-adv-x="2729" 
d="M2683 2057q5 -5 -1 -12l-461 -388q106 -136 151 -310.5t18 -366.5q-23 -163 -95 -315.5t-182 -275.5t-246 -215.5t-295.5 -143t-322.5 -50.5q-204 0 -376 78t-291 217l-461 -388q-6 -6 -12 0l-12 16q-5 5 1 12l461 388q-106 136 -151 310.5t-18 366.5q23 163 95 315.5
t182 275.5t246 215.5t295.5 143t322.5 50.5q204 0 376 -78t291 -217l461 388q6 6 12 0zM430 980q-25 -182 19 -348t146 -298l1567 1320q-115 135 -279.5 210.5t-357.5 75.5q-192 0 -380.5 -77t-336 -206.5t-249.5 -307t-129 -369.5zM2350 980q25 182 -19 348t-146 298
l-1567 -1320q115 -135 279.5 -210.5t357.5 -75.5q192 0 380.5 77t336 206.5t249.5 307t129 369.5z" />
    <glyph glyph-name="product" unicode="&#x220f;" horiz-adv-x="1841" 
d="M1883 2940q9 0 7 -8l-467 -3324q0 -8 -9 -8h-24q-7 0 -7 8l463 3296h-1260l-463 -3296q0 -8 -9 -8h-24q-7 0 -7 8l467 3324q2 8 9 8h1310h14z" />
    <glyph glyph-name="summation" unicode="&#x2211;" horiz-adv-x="1966" 
d="M2052 2912q0 -8 -9 -8h-1456l731 -1630q2 -3 -1 -8l-1189 -1630h1456q7 0 7 -8l-3 -20q0 -8 -9 -8h-1500q-7 0 -7 8l2 11q0 9 6 16l1195 1635l-736 1635q-3 7 -1 16l1 11q2 8 9 8h1500q9 0 7 -8z" />
    <glyph glyph-name="minus" unicode="&#x2212;" horiz-adv-x="2036" 
d="M279 1024q-8 0 -6 8l2 20q0 8 9 8h1540q7 0 7 -8l-2 -20q-2 -8 -10 -8h-1540z" />
    <glyph glyph-name="radical" unicode="&#x221a;" horiz-adv-x="2177" 
d="M2361 2955q3 5 8 5h22q12 0 7 -12l-1443 -2943q-3 -5 -8 -5h-14q-6 0 -6 4l-401 1440h-407q-7 0 -7 8l3 20q0 8 9 8h427q6 0 6 -4l392 -1406z" />
    <glyph glyph-name="infinity" unicode="&#x221e;" horiz-adv-x="2803" 
d="M2082 1576q143 0 261 -69.5t184.5 -187.5t66.5 -259t-66.5 -259t-184.5 -187.5t-261 -69.5q-109 0 -205 34.5t-174.5 101t-142 149t-122.5 191.5q-59 -109 -122.5 -191.5t-142 -149t-174.5 -101t-205 -34.5q-143 0 -261 69.5t-184.5 187.5t-66.5 259t66.5 259
t184.5 187.5t261 69.5q109 0 205 -34.5t174.5 -101t142 -149t122.5 -191.5q59 109 122.5 191.5t142 149t174.5 101t205 34.5zM794 580q194 0 344 121t280 359q-130 238 -280 359t-344 121q-133 0 -242 -64.5t-169.5 -174.5t-60.5 -241t60.5 -241t169.5 -174.5t242 -64.5z
M2082 580q133 0 242 64.5t169.5 174.5t60.5 241t-60.5 241t-169.5 174.5t-242 64.5q-194 0 -344 -121t-280 -359q130 -238 280 -359t344 -121z" />
    <glyph glyph-name="integral" unicode="&#x222b;" horiz-adv-x="1655" 
d="M1891 2898q12 -12 1 -20l-13 -12q-9 -7 -20 4q-134 134 -335 134q-92 0 -168 -26t-130 -70.5t-94.5 -109t-64.5 -138t-36 -160.5l-410 -2920q-13 -92 -40 -171t-71.5 -148t-104 -117.5t-141.5 -76t-179 -27.5q-109 0 -205 39.5t-159 102.5q-11 11 -1 20l13 12q9 7 20 -4
q134 -134 335 -134q115 0 204 38.5t146.5 109t92.5 159t50 197.5l410 2920q13 92 40 171t71.5 148t104 117.5t141.5 76t179 27.5q109 0 205 -39.5t159 -102.5z" />
    <glyph glyph-name="approxequal" unicode="&#x2248;" horiz-adv-x="2157" 
d="M2015 1523q3 -3 2 -8q-58 -121 -193 -218t-290 -97q-94 0 -176.5 33.5t-145.5 81t-124.5 95t-140.5 81t-167 33.5q-136 0 -264.5 -88t-182.5 -201q-5 -10 -14 -5l-14 7q-5 3 -2 8q36 76 105 146t170.5 119.5t206.5 49.5q94 0 176.5 -33.5t145.5 -81t124.5 -95t140.5 -81
t167 -33.5q136 0 264.5 88t182.5 201q5 10 15 5zM1916 823q5 -3 2 -8q-57 -121 -192 -218t-290 -97q-94 0 -176.5 33.5t-145.5 81t-124.5 95t-140.5 81t-167 33.5q-136 0 -264.5 -88t-182.5 -201q-5 -10 -15 -5l-14 7q-4 3 -2 8q27 56 74.5 110.5t109.5 101t141 75t158 28.5
q94 0 176.5 -33.5t145.5 -81t124.5 -95t140.5 -81t167 -33.5q136 0 264.5 88t182.5 201q5 10 14 5z" />
    <glyph glyph-name="notequal" unicode="&#x2260;" horiz-adv-x="2037" 
d="M1874 1410q9 0 7 -8l-3 -20q0 -8 -9 -8h-607l-343 -664h857q8 0 6 -8l-2 -20q0 -8 -9 -8h-871l-277 -537q-4 -8 -11 -4l-21 9q-2 1 -2.5 5t0.5 6l269 521h-627q-8 0 -8 8l3 20q2 8 10 8h640l342 664h-889q-7 0 -7 8l3 20q2 8 9 8h903l252 489q5 7 12 4l21 -8q8 -3 3 -12
l-244 -473h593z" />
    <glyph glyph-name="lessequal" unicode="&#x2264;" horiz-adv-x="2037" 
d="M1926 1727q0 -4 -8 -8l-1601 -683l1409 -683q7 -5 6 -8l-3 -25q0 -3 -3 -6t-6 -2l-1442 700q-7 5 -7 10l4 28q1 6 10 10l1638 700q3 1 5.5 -2t1.5 -6zM136 -2q-8 0 -8 8l3 20q2 8 10 8h1540q8 0 6 -8l-2 -20q0 -8 -9 -8h-1540z" />
    <glyph glyph-name="greaterequal" unicode="&#x2265;" horiz-adv-x="2037" 
d="M370 1727l4 25q1 3 4 6t5 2l1442 -700q7 -4 6 -10l-4 -28q0 -6 -9 -10l-1638 -700q-3 -1 -5 2t-2 6l3 25q1 4 10 8l1601 683l-1409 683q-8 4 -8 8zM1676 -2h-1540q-8 0 -8 8l3 20q2 8 10 8h1540q8 0 6 -8l-2 -20q0 -8 -9 -8z" />
    <glyph glyph-name="lozenge" unicode="&#x25ca;" horiz-adv-x="2190" 
d="M1366 2786q4 4 9 4t7 -4l652 -1382q2 -5 -1 -8l-1040 -1382q-3 -4 -8.5 -4t-7.5 4l-652 1382q0 6 1 8zM993 64l1002 1336l-627 1336l-1003 -1336z" />
    <glyph glyph-name="i.loclTRK" horiz-adv-x="541" 
d="M443 2028q-22 0 -37 16t-15 38q0 26 21 46t48 20q22 0 37 -16t15 -38q0 -26 -21 -46t-48 -20zM362 1592q0 8 9 8h24q7 0 7 -8l-223 -1584q0 -8 -9 -8h-24q-7 0 -7 8z" />
    <glyph glyph-name="zero.osf" horiz-adv-x="2000" 
d="M1129 1720q162 0 298.5 -60t231 -169.5t135.5 -275.5t13 -365t-115.5 -365t-213 -275.5t-279 -169.5t-315.5 -60t-298.5 60t-231 169.5t-135 275.5t-12.5 365t115.5 365t212.5 275.5t278.5 169.5t315.5 60zM890 16q124 0 242.5 36t223.5 107t189 170t142 233t80 288
q27 192 -11.5 351.5t-128 264t-219 161.5t-284.5 57q-124 0 -242.5 -36t-223.5 -107t-189 -170t-142 -233t-80 -288q-27 -192 11.5 -351.5t128 -264t219 -161.5t284.5 -57z" />
    <glyph glyph-name="one.osf" horiz-adv-x="1294" 
d="M962 1700q9 0 7 -8l-237 -1684q0 -8 -9 -8h-24q-7 0 -7 8l232 1651l-571 -282q-7 -4 -11 4l-7 19q-2 7 6 11l588 285q8 4 19 4h14z" />
    <glyph glyph-name="two.osf" horiz-adv-x="1740" 
d="M1374 36q7 0 7 -8l-2 -20q-2 -8 -10 -8h-1314q-8 0 -6 8l2 16q0 8 5 12q219 128 377 223t303 189t242 165t181 144.5t133 133.5t84 126.5t48.5 130t13.5 137.5q0 180 -117 289.5t-353 109.5q-358 0 -670 -316q-9 -9 -17 2l-8 9q-5 5 7 17q310 324 709 324q241 0 365 -119
t124 -315q0 -77 -14 -144t-49 -135.5t-85 -131.5t-132.5 -136.5t-180 -144.5t-239 -161.5t-298 -183.5t-367.5 -213h1261z" />
    <glyph glyph-name="three.osf" horiz-adv-x="1758" 
d="M876 549q265 -35 413.5 -180t148.5 -369q0 -161 -63 -290.5t-171.5 -212.5t-250 -127t-301.5 -44q-214 0 -391 85.5t-286 238.5q-8 11 -1 17l10 9q12 10 17 2q105 -150 277.5 -233t377.5 -83q121 0 231 25.5t203.5 78t162 127t107.5 179t39 228.5q0 246 -194.5 388.5
t-563.5 142.5q-9 0 -7 8l2 14q0 8 9 8q177 0 331.5 49t265.5 135t175 210t64 268q0 207 -139.5 334t-367.5 127q-182 0 -358 -82.5t-327 -233.5q-9 -9 -17 2l-8 9q-4 6 7 17q154 154 338.5 239t374.5 85q239 0 388 -135.5t149 -358.5q0 -174 -86 -316.5t-229.5 -231.5
t-329.5 -129z" />
    <glyph glyph-name="four.osf" horiz-adv-x="2006" 
d="M1760 36q7 0 7 -8l-2 -20q-2 -8 -10 -8h-444l-91 -646q-2 -8 -10 -8h-24q-8 0 -6 8l91 646h-1256q-8 0 -6 8l3 20l1497 1668q3 4 18 4h14q7 0 7 -8l-232 -1656h444zM69 36h1207l224 1593z" />
    <glyph glyph-name="five.osf" horiz-adv-x="2008" 
d="M1769 1700q7 0 7 -8l-3 -20q-2 -8 -9 -8h-1115l-284 -1085q173 92 320 133t313 41q197 0 344.5 -70t230.5 -209t83 -331q0 -190 -69 -343.5t-188 -251.5t-274.5 -150t-333.5 -52q-243 0 -407 87.5t-284 256.5q-8 11 -1 17l10 9q12 10 17 2q231 -336 659 -336
q175 0 325 49t263.5 141.5t178 238.5t64.5 329q0 275 -169 426t-454 151q-156 0 -303 -43.5t-334 -135.5q-3 -2 -5 0l-27 13q-4 2 -3 7l295 1134q0 8 9 8h1144z" />
    <glyph glyph-name="six.osf" horiz-adv-x="2006" 
d="M1716 2350q9 0 7 -8l-3 -20q-2 -8 -9 -8q-1164 0 -1442 -1359q107 224 325 369.5t476 145.5q216 0 372 -96t225 -264.5t39 -379.5q-30 -212 -151.5 -383.5t-309 -269t-404.5 -97.5q-162 0 -295 57t-218.5 156.5t-122.5 238.5t-15 298q228 1620 1526 1620zM1065 1434
q-153 0 -300 -61t-257 -159.5t-184.5 -226t-93.5 -257.5q-21 -149 15 -281t117 -227t206.5 -150.5t277.5 -55.5t293.5 55.5t250 150.5t182 227t94.5 281q28 202 -36 362t-211.5 251t-353.5 91z" />
    <glyph glyph-name="seven.osf" horiz-adv-x="1610" 
d="M234 -654q-5 0 -7 4.5t2 9.5l1435 2304h-1515q-8 0 -6 8l2 20q0 8 9 8h1554q7 0 7 -8l-2 -16l-6 -12l-1437 -2314q-4 -4 -8 -4h-28z" />
    <glyph glyph-name="eight.osf" horiz-adv-x="1986" 
d="M1229 1218q79 -13 152.5 -39t144 -71.5t122 -104t83 -142t31.5 -181.5q0 -161 -67 -294t-185 -221.5t-280.5 -137t-352.5 -48.5q-213 0 -372 64.5t-247.5 189.5t-88.5 297q0 128 44 237t114.5 183.5t165.5 131.5t189 88.5t193 47.5q-67 13 -131.5 38.5t-127 68
t-109.5 96.5t-75.5 128.5t-28.5 160.5q0 184 104 331t288.5 229t415.5 82q295 0 470 -142t175 -373q0 -110 -40.5 -206t-104 -163.5t-148.5 -120.5t-167.5 -83t-166.5 -46zM444 1717q0 -139 79.5 -249t218.5 -170t312 -60q201 0 375 74.5t280.5 211.5t106.5 307
q0 217 -166 351t-444 134q-217 0 -391.5 -77.5t-272.5 -214.5t-98 -307zM883 15q238 0 428.5 81.5t300.5 232.5t110 344q0 235 -184.5 380t-488.5 145q-237 0 -428 -83t-301 -234t-110 -341q0 -239 183.5 -382t489.5 -143z" />
    <glyph glyph-name="nine.osf" horiz-adv-x="1916" 
d="M1089 1720q162 0 295 -57t218.5 -156.5t122.5 -238.5t15 -298q-43 -306 -125 -555.5t-210 -449.5t-299 -335.5t-396 -207.5t-496 -72q-7 0 -7 8l3 20q2 8 9 8q302 0 544.5 92.5t418.5 270.5t294.5 425.5t184.5 569.5q-107 -223 -325.5 -368.5t-475.5 -145.5
q-216 0 -372 96t-225 264.5t-39 379.5q30 212 151.5 383.5t309 269t404.5 97.5zM865 266q152 0 299 61t257.5 159.5t185 225.5t93.5 257v1q21 149 -15 281t-117 227t-206.5 150.5t-277.5 55.5t-293.5 -55.5t-250 -150.5t-182 -227t-94.5 -281q-28 -202 36 -362t211.5 -251
t353.5 -91z" />
    <glyph glyph-name="zero.dnom" horiz-adv-x="1571" 
d="M899 1610q170 0 284 -99t158 -284t9 -432q-52 -374 -237.5 -594.5t-442.5 -220.5q-169 0 -283.5 99t-158.5 284t-9 432q53 374 238 594.5t442 220.5zM674 4q243 0 421 215.5t229 575.5q34 238 -8 418t-150.5 277t-269.5 97q-243 0 -421.5 -216t-228.5 -576
q-34 -238 8 -417.5t150.5 -276.5t269.5 -97z" />
    <glyph glyph-name="one.dnom" horiz-adv-x="1201" 
d="M808 1604q7 0 5 -5l-224 -1594q0 -5 -6 -5h-16q-5 0 -5 5l221 1572l-375 -185q-5 -3 -7 3l-5 12q-2 5 4 7l387 188q4 2 12 2h9z" />
    <glyph glyph-name="two.dnom" horiz-adv-x="1482" 
d="M1265 1201q-14 -99 -68 -203.5t-142.5 -211.5t-224.5 -231.5t-298 -252t-380 -285.5h1004q5 0 5 -6l-1 -13q-2 -5 -7 -5h-1041q-6 0 -4 5l1 11q0 6 3 8q550 393 822 672.5t305 511.5q25 178 -66.5 282t-300.5 104q-271 0 -518 -247q-5 -5 -11 1l-5 6q-4 3 4 11
q250 252 541 252q214 0 311 -111t71 -298z" />
    <glyph glyph-name="three.dnom" horiz-adv-x="1477" 
d="M802 821q214 -23 317.5 -118t103.5 -249q0 -223 -160 -348.5t-423 -125.5q-178 0 -307 70.5t-209 181.5q-4 7 0 12l6 5q8 8 11 2q75 -108 202.5 -177.5t293.5 -69.5q258 0 409 117t151 330q0 172 -134 265t-416 93q-7 0 -4 5l1 9q0 6 6 6q282 0 443.5 129t161.5 328
q0 145 -93.5 223t-282.5 78q-283 0 -517 -234q-5 -5 -11 1l-5 6q-4 4 5 11q237 239 539 239q194 0 292.5 -84t98.5 -238q0 -180 -125 -306t-354 -161z" />
    <glyph glyph-name="four.dnom" horiz-adv-x="1511" 
d="M1296 454q5 0 5 -6l-2 -13q0 -5 -6 -5h-292l-60 -425q-3 -5 -7 -5h-15q-7 0 -4 5l59 425h-891q-7 0 -4 5l1 12q0 2 2 4l1057 1151q2 2 12 2h9q5 0 5 -5l-162 -1145h293zM118 454h859l155 1104z" />
    <glyph glyph-name="five.dnom" horiz-adv-x="1517" 
d="M1321 1604q5 0 5 -5l-2 -13q-2 -5 -6 -5h-791l-192 -757q215 114 427 114q214 0 351.5 -111t137.5 -310q0 -128 -51 -230.5t-137 -167t-196 -98.5t-232 -34q-176 0 -293 62.5t-198 176.5q-6 7 -1 11l6 6q8 8 12 2q160 -234 470 -234q96 0 183 19.5t162 60.5t130.5 100
t87 142t31.5 182q0 127 -62.5 219t-167 136.5t-237.5 44.5q-204 0 -431 -118q-1 -1 -2 -1t-1 1l-18 8q-3 3 -2 5l200 789q0 5 6 5h811z" />
    <glyph glyph-name="six.dnom" horiz-adv-x="1490" 
d="M784 993q226 0 350 -140t92 -360q-31 -221 -200 -363.5t-397 -142.5q-227 0 -355 142.5t-97 363.5q36 257 118 461t209 353.5t307.5 229.5t403.5 80q6 0 4 -5l-1 -13q-2 -5 -6 -5q-199 0 -364 -67.5t-286 -193.5t-204 -299t-129 -391q72 154 223.5 252t331.5 98zM633 11
q213 0 375.5 137.5t191.5 344.5q30 210 -86.5 343t-332.5 133q-141 0 -269 -68.5t-210 -177.5t-99 -230q-28 -208 94.5 -345t335.5 -137z" />
    <glyph glyph-name="seven.dnom" horiz-adv-x="1456" 
d="M356 0q-3 0 -4 3t1 6l952 1572h-1030q-4 0 -4 5l2 13q0 5 6 5h1054q5 0 5 -5l-1 -10l-4 -8l-953 -1578q-2 -3 -5 -3h-19z" />
    <glyph glyph-name="eight.dnom" horiz-adv-x="1510" 
d="M877 839q70 -11 131.5 -37.5t114.5 -70t84 -111t31 -150.5q0 -146 -76.5 -256.5t-211.5 -168.5t-309 -58q-220 0 -348.5 101t-128.5 276q0 89 29 164t76 126.5t111 91t129 61.5t135 32q-48 8 -92.5 25t-87 45t-73.5 64.5t-50 88t-19 110.5q0 187 155 316t393 129
q200 0 317 -100.5t117 -256.5q0 -76 -26.5 -142t-69.5 -112t-100 -81t-114 -55.5t-117 -30.5zM349 1176q0 -146 115.5 -235t297.5 -89q140 0 257.5 50t188 143t70.5 211q0 146 -111.5 242t-299.5 96q-224 0 -371 -122t-147 -296zM644 11q248 0 408 127t160 328
q0 162 -123 261t-331 99q-248 0 -407.5 -127.5t-159.5 -327.5q0 -163 123 -261.5t330 -98.5z" />
    <glyph glyph-name="nine.dnom" horiz-adv-x="1450" 
d="M841 1617q143 0 249 -64.5t155 -180t29 -261.5q-26 -187 -78.5 -349.5t-138 -304t-198.5 -242t-266.5 -158t-335.5 -57.5q-4 0 -4 5l2 13q0 6 6 6q161 0 299.5 47t243 130.5t188 201.5t138.5 255t89 297q-71 -151 -216.5 -247.5t-315.5 -96.5q-217 0 -336 140t-87 360
q31 221 195 363.5t382 142.5zM690 635q134 0 257.5 68t203 177.5t96.5 230.5q29 208 -88 345.5t-321 137.5q-134 0 -252.5 -62.5t-197.5 -173t-98 -247.5q-29 -210 82 -343t318 -133z" />
    <glyph glyph-name="zero.numr" horiz-adv-x="1571" 
d="M1011 2410q170 0 284 -99t158 -284t9 -432q-52 -374 -237.5 -594.5t-442.5 -220.5q-169 0 -283.5 99t-158.5 284t-9 432q53 374 238 594.5t442 220.5zM786 804q243 0 421 215.5t229 575.5q34 238 -8 418t-150.5 277t-269.5 97q-243 0 -421.5 -216t-228.5 -576
q-34 -238 8 -417.5t150.5 -276.5t269.5 -97z" />
    <glyph glyph-name="one.numr" horiz-adv-x="1200" 
d="M919 2397q7 0 5 -5l-224 -1594q0 -5 -6 -5h-16q-5 0 -5 5l221 1572l-375 -185q-5 -3 -7 3l-5 12q-2 5 4 7l387 188q4 2 12 2h9z" />
    <glyph glyph-name="two.numr" horiz-adv-x="1482" 
d="M1377 2001q-14 -99 -68 -203.5t-142.5 -211.5t-224.5 -231.5t-298 -252t-380 -285.5h1004q5 0 5 -6l-1 -13q-2 -5 -7 -5h-1041q-6 0 -4 5l1 11q0 6 3 8q550 393 822 672.5t305 511.5q25 178 -66.5 282t-300.5 104q-271 0 -518 -247q-5 -5 -11 1l-5 6q-4 3 4 11
q250 252 541 252q214 0 311 -111t71 -298z" />
    <glyph glyph-name="three.numr" horiz-adv-x="1477" 
d="M914 1621q214 -23 317.5 -118t103.5 -249q0 -223 -160 -348.5t-423 -125.5q-178 0 -307 70.5t-209 181.5q-4 7 0 12l6 5q8 8 11 2q75 -108 202.5 -177.5t293.5 -69.5q258 0 409 117t151 330q0 172 -134 265t-416 93q-7 0 -4 5l1 9q0 6 6 6q282 0 443.5 129t161.5 328
q0 145 -93.5 223t-282.5 78q-283 0 -517 -234q-5 -5 -11 1l-5 6q-4 4 5 11q237 239 539 239q194 0 292.5 -84t98.5 -238q0 -180 -125 -306t-354 -161z" />
    <glyph glyph-name="four.numr" horiz-adv-x="1511" 
d="M1408 1247q5 0 5 -6l-2 -13q0 -5 -6 -5h-292l-60 -425q-3 -5 -7 -5h-15q-7 0 -4 5l59 425h-891q-7 0 -4 5l1 12q0 2 2 4l1057 1151q2 2 12 2h9q5 0 5 -5l-162 -1145h293zM230 1247h859l155 1104z" />
    <glyph glyph-name="five.numr" horiz-adv-x="1517" 
d="M1432 2397q5 0 5 -5l-2 -13q-2 -5 -6 -5h-791l-192 -757q215 114 427 114q214 0 351.5 -111t137.5 -310q0 -128 -51 -230.5t-137 -167t-196 -98.5t-232 -34q-176 0 -293 62.5t-198 176.5q-6 7 -1 11l6 6q8 8 12 2q160 -234 470 -234q96 0 183 19.5t162 60.5t130.5 100
t87 142t31.5 182q0 127 -62.5 219t-167 136.5t-237.5 44.5q-204 0 -431 -118q-1 -1 -2 -1t-1 1l-18 8q-3 3 -2 5l200 789q0 5 6 5h811z" />
    <glyph glyph-name="six.numr" horiz-adv-x="1489" 
d="M895 1786q226 0 350 -140t92 -360q-31 -221 -200 -363.5t-397 -142.5q-227 0 -355 142.5t-97 363.5q36 257 118 461t209 353.5t307.5 229.5t403.5 80q6 0 4 -5l-1 -13q-2 -5 -6 -5q-199 0 -364 -67.5t-286 -193.5t-204 -299t-129 -391q72 154 223.5 252t331.5 98z
M744 804q213 0 375.5 137.5t191.5 344.5q30 210 -86.5 343t-332.5 133q-141 0 -269 -68.5t-210 -177.5t-99 -230q-28 -208 94.5 -345t335.5 -137z" />
    <glyph glyph-name="seven.numr" horiz-adv-x="1455" 
d="M467 793q-3 0 -4 3t1 6l952 1572h-1030q-4 0 -4 5l2 13q0 5 6 5h1054q5 0 5 -5l-1 -10l-4 -8l-953 -1578q-1 -3 -5 -3h-19z" />
    <glyph glyph-name="eight.numr" horiz-adv-x="1509" 
d="M988 1632q70 -11 131.5 -37.5t114.5 -70t84 -111t31 -150.5q0 -146 -76.5 -256.5t-211.5 -168.5t-309 -58q-220 0 -348.5 101t-128.5 276q0 89 29 164t76 126.5t111 91t129 61.5t135 32q-48 8 -92.5 25t-87 45t-73.5 64.5t-50 88t-19 110.5q0 187 155 316t393 129
q200 0 317 -100.5t117 -256.5q0 -76 -26.5 -142t-69.5 -112t-100 -81t-114 -55.5t-117 -30.5zM460 1969q0 -146 115.5 -235t297.5 -89q140 0 257.5 50t188 143t70.5 211q0 146 -111.5 242t-299.5 96q-224 0 -371 -122t-147 -296zM755 804q248 0 408 127t160 328
q0 162 -123 261t-331 99q-248 0 -407.5 -127.5t-159.5 -327.5q0 -163 123 -261.5t330 -98.5z" />
    <glyph glyph-name="nine.numr" horiz-adv-x="1450" 
d="M952 2410q143 0 249 -64.5t155 -180t29 -261.5q-26 -187 -78.5 -349.5t-138 -304t-198.5 -242t-266.5 -158t-335.5 -57.5q-4 0 -4 5l2 13q0 6 6 6q161 0 299.5 47t243 130.5t188 201.5t138.5 255t89 297q-71 -151 -216.5 -247.5t-315.5 -96.5q-217 0 -336 140t-87 360
q31 221 195 363.5t382 142.5zM801 1428q134 0 257.5 68t203 177.5t96.5 230.5q29 208 -88 345.5t-321 137.5q-134 0 -252.5 -62.5t-197.5 -173t-98 -247.5q-29 -210 82 -343t318 -133z" />
    </font>
</defs>
</svg>
