<?xml version="1.0" standalone="no"?>
<!DOCTYPE svg PUBLIC "-//W3C//DTD SVG 1.1//EN" "http://www.w3.org/Graphics/SVG/1.1/DTD/svg11.dtd" >
<svg xmlns="http://www.w3.org/2000/svg" xmlns:xlink="http://www.w3.org/1999/xlink" version="1.1">
<metadata>
Created by FontForge 20170731 at Fri Jun 24 01:06:55 2016
 By Aleksey,,,
Copyright (c) 2015 by Mateusz Machalski. All rights reserved.
</metadata>
<defs>
<font id="Migrena_Grotesque-Bold" horiz-adv-x="2327" >
  <font-face 
    font-family="Migrena_Grotesque"
    font-weight="800"
    font-stretch="normal"
    units-per-em="4000"
    panose-1="0 0 9 0 0 0 0 0 0 0"
    ascent="3200"
    descent="-800"
    x-height="1878"
    cap-height="2440"
    bbox="-2140 -1341.9 5165 3671.79"
    underline-thickness="50"
    underline-position="-200"
    unicode-range="U+0020-25CA"
  />
<missing-glyph horiz-adv-x="1593" 
d="M1306 2560v-3186h-1010v3186h1010zM1061 2347h-526v-106h207v-117h-210v-106h529v106h-210v117h210v106zM851 1936h-319v-332h529v109h-210v223zM742 1827v-114h-105v114h105zM1061 1518h-529v-105h210v-118h-210v-105h319v223h210v105zM1061 1327h-105v-210h-424v-109
h529v319zM1061 938h-319v-178h109v73h105v-150h-319v255h-105v-360h529v360zM1061 387h-529v-360h529v360zM956 282v-150h-319v150h319zM1061 -46h-529v-105h223l-223 -150v-105h529v105h-325l223 150h102v105z" />
    <glyph glyph-name=".notdef" horiz-adv-x="1593" 
d="M1306 2560v-3186h-1010v3186h1010zM1061 2347h-526v-106h207v-117h-210v-106h529v106h-210v117h210v106zM851 1936h-319v-332h529v109h-210v223zM742 1827v-114h-105v114h105zM1061 1518h-529v-105h210v-118h-210v-105h319v223h210v105zM1061 1327h-105v-210h-424v-109
h529v319zM1061 938h-319v-178h109v73h105v-150h-319v255h-105v-360h529v360zM1061 387h-529v-360h529v360zM956 282v-150h-319v150h319zM1061 -46h-529v-105h223l-223 -150v-105h529v105h-325l223 150h102v105z" />
    <glyph glyph-name=".null" horiz-adv-x="0" 
 />
    <glyph glyph-name="nonmarkingreturn" horiz-adv-x="1333" 
 />
    <glyph glyph-name="space" unicode=" " horiz-adv-x="669" 
 />
    <glyph glyph-name="exclam" unicode="!" horiz-adv-x="1068" 
d="M159 2365q-2 35 18 55t57 20h600q37 0 57 -20t18 -55l-87 -1442q-5 -75 -75 -75h-426q-70 0 -75 75zM535 -40q-156 0 -265.5 110t-109.5 265q0 156 109.5 265.5t265.5 109.5t265.5 -109.5t109.5 -265.5q0 -155 -109.5 -265t-265.5 -110z" />
    <glyph glyph-name="quotedbl" unicode="&#x22;" horiz-adv-x="1701" 
d="M134 2435q-2 35 18 55t57 20h476q37 0 57.5 -20t17.5 -55l-70 -834q-5 -75 -74 -75h-340q-69 0 -75 75zM943 2435q-2 35 18 55t57 20h476q37 0 57.5 -20t17.5 -55l-70 -834q-5 -75 -74 -75h-340q-69 0 -75 75z" />
    <glyph glyph-name="numbersign" unicode="#" horiz-adv-x="2809" 
d="M2580 1834q43 0 64 -23.5t18 -66.5l-28 -323q-4 -43 -29.5 -66.5t-68.5 -23.5h-236l-41 -402h235q43 0 64.5 -23.5t18.5 -66.5l-29 -323q-5 -43 -30 -66.5t-68 -23.5h-241l-35 -351q-8 -75 -81 -75h-527q-36 0 -54 19.5t-14 55.5l35 351h-397l-35 -351q-8 -75 -82 -75
h-526q-36 0 -54 19.5t-14 55.5l35 351h-231q-43 0 -64.5 23.5t-17.5 66.5l29 323q5 43 29.5 66.5t66.5 23.5h238l40 402h-235q-43 0 -64.5 23.5t-17.5 66.5l28 323q3 43 29 66.5t69 23.5h241l35 351q8 75 82 75h526q36 0 54 -19.5t14 -55.5l-35 -351h398l35 351q8 75 82 75
h526q36 0 54 -19.5t14 -55.5l-35 -351h230zM1583 929l41 402h-398l-40 -402h397z" />
    <glyph glyph-name="dollar" unicode="$" horiz-adv-x="2329" 
d="M2208 786q0 -159 -54.5 -292t-153.5 -227.5t-227 -159.5t-285 -102v-430q0 -31 -22 -53t-53 -22h-387q-31 0 -53 22t-22 53v389q-427 27 -783 216q-71 45 -36 122l172 381q36 78 111 43q90 -41 126.5 -57t112.5 -45t126.5 -40.5t124 -21.5t150.5 -10q319 0 319 147
q0 80 -123 139q-65 32 -270 95q-258 79 -390 147q-298 155 -372 419q-27 94 -27 204q0 306 199.5 510t559.5 262v390q0 31 22 53t53 22h387q31 0 53 -22t22 -53v-388q189 -25 345.5 -77t253.5 -107q75 -44 40 -119l-159 -346q-37 -81 -127 -40q-65 32 -107.5 50t-121.5 47
t-162.5 43.5t-167.5 14.5q-157 0 -231.5 -45t-74.5 -108q0 -34 22 -60.5t87.5 -54t102 -39t146.5 -43.5q107 -31 165.5 -49.5t165 -59.5t169 -78.5t143 -101.5t124.5 -134t75.5 -169.5t31.5 -214.5z" />
    <glyph glyph-name="percent" unicode="%" horiz-adv-x="3743" 
d="M2612 2515q28 -13 38.5 -42.5t-2.5 -57.5l-1206 -2537q-13 -28 -42.5 -38.5t-56.5 1.5l-217 102q-28 13 -39 42.5t3 57.5l1206 2537q13 28 42 38.5t58 -2.5zM1553 1712q0 -179 -56 -327.5t-153 -247.5t-227.5 -153.5t-279.5 -54.5t-279.5 54.5t-227.5 153.5t-153 247.5
t-56 327.5t56 327.5t153 247.5t227.5 153.5t279.5 54.5t279.5 -54.5t227.5 -153.5t153 -247.5t56 -327.5zM837 1380q84 0 129.5 90.5t45.5 241.5q0 152 -45.5 242.5t-129.5 90.5t-130 -91t-46 -242t46 -241.5t130 -90.5zM2906 1511q149 0 279.5 -54.5t227.5 -153.5
t153 -247.5t56 -327.5t-56 -327.5t-153 -247.5t-227.5 -153.5t-279.5 -54.5t-279.5 54.5t-227.5 153.5t-153 247.5t-56 327.5t56 327.5t153 247.5t227.5 153.5t279.5 54.5zM2906 396q85 0 130.5 90.5t45.5 241.5q0 152 -45.5 242.5t-130.5 90.5q-84 0 -129.5 -91t-45.5 -242
t45.5 -241.5t129.5 -90.5z" />
    <glyph glyph-name="ampersand" unicode="&#x26;" horiz-adv-x="2658" 
d="M2562 171q50 -53 22.5 -112t-100.5 -59h-539q-53 0 -96 46l-99 104q-327 -190 -734 -190q-189 0 -354.5 50t-290.5 142t-197.5 233t-72.5 313q0 444 452 770q-108 184 -108 368q0 135 45.5 246t124 187t187 127.5t231 75t259.5 23.5q335 0 635 -149q27 -13 36.5 -39
t-1.5 -53l-128 -341q-13 -36 -46 -47.5t-67 6.5q-168 89 -313 89q-111 0 -173 -44.5t-62 -131.5q0 -18 4.5 -37t15 -40.5t20 -39.5t28.5 -43t31.5 -41.5t37 -44t37 -41.5t39.5 -43.5t38 -41.5l346 -378q80 157 119 335q7 32 30 49t54 13l456 -60q33 -5 52 -29.5t13 -57.5
q-70 -406 -293 -720zM1075 520q130 0 264 66l-449 475q-103 -128 -103 -263q0 -125 74 -201.5t214 -76.5z" />
    <glyph glyph-name="quotesingle" unicode="'" horiz-adv-x="918" 
d="M146 2435q-2 35 18 55t57 20h476q37 0 57.5 -20t17.5 -55l-70 -834q-5 -75 -74 -75h-340q-69 0 -75 75z" />
    <glyph glyph-name="parenleft" unicode="(" horiz-adv-x="1016" 
d="M562 952q0 -820 386 -1490q20 -34 8.5 -67.5t-48.5 -46.5l-161 -59q-49 -18 -79 23q-249 354 -385.5 768.5t-136.5 871.5q0 455 136.5 868.5t385.5 771.5q29 42 79 23l161 -59q37 -13 48.5 -46t-8.5 -67q-386 -672 -386 -1491z" />
    <glyph glyph-name="parenright" unicode=")" horiz-adv-x="1016" 
d="M348 2592q249 -358 385.5 -771.5t136.5 -868.5q0 -457 -136.5 -871.5t-385.5 -768.5q-30 -41 -79 -23l-161 59q-37 13 -48.5 46.5t8.5 67.5q386 670 386 1490q0 819 -386 1491q-20 34 -8.5 67t48.5 46l161 59q50 19 79 -23z" />
    <glyph glyph-name="asterisk" unicode="*" horiz-adv-x="1764" 
d="M1628 2356q10 -30 -4 -56t-44 -37l-372 -121l230 -317q19 -26 14.5 -55t-30.5 -48l-205 -150q-26 -19 -55.5 -14t-48.5 31l-230 317l-230 -317q-19 -26 -49 -31t-55 14l-205 150q-26 19 -30.5 48t14.5 55l230 317l-372 121q-31 10 -44.5 36.5t-3.5 56.5l79 241
q9 31 35 44.5t58 3.5l372 -122v393q0 32 21 53t53 21h254q32 0 53 -21t21 -53v-393l372 122q30 10 56.5 -3.5t36.5 -44.5z" />
    <glyph glyph-name="plus" unicode="+" horiz-adv-x="2194" 
d="M1934 1358q43 0 66.5 -23t23.5 -66v-328q0 -43 -23.5 -66.5t-66.5 -23.5h-584v-583q0 -43 -23 -66.5t-66 -23.5h-328q-43 0 -66.5 23.5t-23.5 66.5v583h-583q-43 0 -66.5 23.5t-23.5 66.5v328q0 43 23.5 66t66.5 23h583v584q0 43 23.5 66.5t66.5 23.5h328q43 0 66 -23.5
t23 -66.5v-584h584z" />
    <glyph glyph-name="comma" unicode="," horiz-adv-x="1032" 
d="M498 736q71 0 138.5 -25t124 -74t91 -131t34.5 -186q0 -160 -78.5 -336t-212 -324.5t-289.5 -231.5q-24 -11 -47 -6t-37 22l-57 64q-19 22 -18 51t23 53q7 8 31.5 32t34.5 35t30 34t29.5 39t21 39t16 46.5t4.5 48.5q0 40 -16 74.5t-34.5 54t-52.5 48.5q-124 110 -124 278
t113 281.5t275 113.5z" />
    <glyph glyph-name="hyphen" unicode="-" horiz-adv-x="2068" 
d="M260 642q-43 0 -66.5 23.5t-23.5 66.5v398q0 42 23.5 65.5t66.5 23.5h1548q43 0 66.5 -23.5t23.5 -65.5v-398q0 -43 -23.5 -66.5t-66.5 -23.5h-1548z" />
    <glyph glyph-name="period" unicode="." horiz-adv-x="1068" 
d="M534 -40q-161 0 -274.5 113.5t-113.5 274.5t113.5 274.5t274.5 113.5t274.5 -113.5t113.5 -274.5t-113.5 -274.5t-274.5 -113.5z" />
    <glyph glyph-name="slash" unicode="/" horiz-adv-x="1614" 
d="M1239 2662q13 28 42 39t58 -2l217 -102q28 -13 38.5 -42.5t-2.5 -57.5l-1221 -2619q-13 -28 -43 -38.5t-57 1.5l-217 102q-28 13 -39 42.5t3 57.5z" />
    <glyph glyph-name="zero" unicode="0" horiz-adv-x="2557" 
d="M1278 2495q243 0 454.5 -88.5t368 -250t246 -403t89.5 -533.5t-89.5 -533.5t-246 -403t-368 -250t-454.5 -88.5t-454 88.5t-367.5 250t-246 403t-89.5 533.5t89.5 533.5t246 403t367.5 250t454 88.5zM1278 581q163 0 250.5 174t87.5 465t-87.5 465t-250.5 174
q-107 0 -184 -81.5t-115.5 -224.5t-38.5 -333t38.5 -333t115.5 -224.5t184 -81.5z" />
    <glyph glyph-name="one" unicode="1" horiz-adv-x="2039" 
d="M1569 2440q30 0 52 -22t22 -53v-2290q0 -31 -22 -53t-52 -22h-636q-31 0 -52.5 22t-21.5 53v1677l-354 -163q-29 -14 -58.5 -3.5t-42.5 40.5l-190 410q-14 31 -3 60t42 43l629 279q48 22 107 22h580z" />
    <glyph glyph-name="two" unicode="2" horiz-adv-x="2230" 
d="M2099 562q31 0 53 -22t22 -53v-412q0 -31 -22 -53t-53 -22h-1877q-43 0 -66.5 23.5t-23.5 66.5v157q0 83 39 111q287 207 499 383.5t338 305t202 240.5t102 188.5t26 150.5q0 270 -294 270q-81 0 -156 -19.5t-147 -59.5t-121 -74.5t-121 -91.5q-19 -14 -36 -16.5t-33.5 6
t-29 20t-28.5 30.5l-224 266q-23 28 -25.5 52.5t9 42.5t37.5 42q194 184 454 292.5t581 108.5q439 0 679 -212t240 -570q0 -308 -197 -589t-615 -562h788z" />
    <glyph glyph-name="three" unicode="3" horiz-adv-x="2366" 
d="M1792 1261q453 -187 453 -594q0 -223 -134.5 -387.5t-372 -249.5t-547.5 -85q-238 0 -438.5 54t-340 139t-264.5 208q-27 27 -37.5 43.5t-8.5 40.5t26 53l226 271q16 20 28.5 31.5t28.5 20t33.5 5.5t36.5 -17q69 -52 105.5 -77.5t103 -65t119 -58.5t126.5 -34t153 -15
q159 0 258.5 54t99.5 154q0 106 -133.5 179t-367.5 81q-33 2 -54 23t-21 52v282q0 31 21 52t54 23q222 12 332.5 83.5t110.5 178.5q0 91 -76 140.5t-214 49.5q-86 0 -166 -18t-155 -55.5t-122.5 -66t-118.5 -77.5q-19 -13 -36 -16t-32.5 4.5t-28.5 19t-30 32.5l-209 251
q-24 29 -26 54t9 41.5t37 41.5q189 180 459 284t587 104q421 0 659 -180t238 -481q0 -188 -95 -332.5t-276 -240.5z" />
    <glyph glyph-name="four" unicode="4" horiz-adv-x="2481" 
d="M2336 993q42 0 65.5 -23.5t23.5 -65.5v-324q0 -43 -23.5 -66.5t-65.5 -23.5h-273v-415q0 -31 -22 -53t-53 -22h-561q-31 0 -53 22t-22 53v415h-1202q-42 0 -65.5 23.5t-23.5 66.5v229q0 22 13 38l1218 1541q40 52 106 52h590q31 0 53 -22t22 -53v-1372h273zM826 993h526
v663z" />
    <glyph glyph-name="five" unicode="5" horiz-adv-x="2384" 
d="M1344 1553q159 -2 296.5 -33t252.5 -94.5t197 -156t127.5 -222.5t45.5 -288q0 -239 -130 -424.5t-366.5 -287.5t-542.5 -102q-352 0 -606.5 95.5t-448.5 278.5q-26 25 -37.5 42t-9 41.5t26.5 52.5l226 271q16 20 28 31t28 19.5t33.5 6t37.5 -15.5q79 -56 136.5 -91
t132.5 -68t157 -48.5t178 -15.5q157 0 257.5 69t100.5 187q0 110 -83 179.5t-263 69.5q-209 0 -375 -63q-28 -8 -50 5l-371 224q-39 21 -34 66l122 1069q8 90 89 90h1495q31 0 53 -22t22 -53v-434q0 -31 -22 -53t-53 -22h-965l-43 -357q134 54 358 54z" />
    <glyph glyph-name="six" unicode="6" horiz-adv-x="2358" 
d="M1484 1550q143 0 266 -41t211.5 -111.5t151.5 -165t93.5 -202.5t30.5 -223q0 -157 -51 -294t-143.5 -240.5t-217.5 -177.5t-277.5 -112t-319.5 -38q-230 0 -430.5 71.5t-351.5 204t-238 335.5t-87 451q0 168 30 323.5t96 304t164.5 274.5t243 233.5t324.5 183.5
t415.5 120.5t509.5 48.5q35 0 57.5 -22t22.5 -55v-409q0 -32 -21 -53t-55 -22q-430 -9 -670.5 -157t-333.5 -450q197 223 580 223zM1221 478q132 0 208.5 89t76.5 210q0 126 -76 213t-209 87q-138 0 -213 -86.5t-75 -213.5q0 -78 30.5 -144.5t98 -110.5t159.5 -44z" />
    <glyph glyph-name="seven" unicode="7" horiz-adv-x="2321" 
d="M456 0q-54 0 -79.5 40t-2.5 89l802 1675h-1045q-31 0 -53 22t-22 53v486q0 31 22 53t53 22h1975q43 0 66 -23.5t23 -66.5v-133q0 -59 -35 -135l-950 -2043q-17 -39 -60 -39h-694z" />
    <glyph glyph-name="eight" unicode="8" horiz-adv-x="2461" 
d="M1889 1294q211 -75 331 -241t120 -378q0 -121 -42.5 -229t-132 -200t-218.5 -158.5t-312 -104.5t-404 -38t-404.5 38t-312.5 104.5t-218.5 158.5t-132 200t-42.5 229q0 212 120 378t331 241q-162 69 -264.5 211.5t-102.5 330.5q0 113 41 212t125 181.5t205 141.5
t288 91.5t367 32.5q199 0 366 -32.5t288 -91.5t205 -141.5t125 -181.5t41 -212q0 -188 -102.5 -330.5t-264.5 -211.5zM1231 1998q-119 0 -194.5 -63t-75.5 -166q0 -104 75.5 -167t194.5 -63t194 63t75 167q0 103 -75 166t-194 63zM1231 499q143 0 226.5 76.5t83.5 192.5
q0 117 -83 193.5t-227 76.5t-227.5 -76.5t-83.5 -193.5q0 -116 83.5 -192.5t227.5 -76.5z" />
    <glyph glyph-name="nine" unicode="9" horiz-adv-x="2358" 
d="M1130 2495q230 0 430.5 -71.5t351.5 -204t238 -335.5t87 -451q0 -147 -23.5 -282.5t-71.5 -265t-125.5 -243.5t-181.5 -213.5t-244 -178t-308 -134.5t-378.5 -86t-450.5 -30q-35 0 -57.5 21.5t-22.5 55.5v408q0 32 21 53.5t55 22.5q429 11 666.5 140t331.5 406
q-197 -218 -574 -218q-143 0 -266 41t-211.5 111.5t-151.5 165t-93.5 203t-30.5 223.5q0 195 79 358.5t215.5 273t321 170t393.5 60.5zM1137 1363q138 0 213 86.5t75 212.5q0 123 -75.5 211.5t-212.5 88.5q-89 0 -155.5 -44t-98 -111t-31.5 -145q0 -125 76 -212t209 -87z
" />
    <glyph glyph-name="colon" unicode=":" horiz-adv-x="1068" 
d="M534 1142q-161 0 -274.5 113.5t-113.5 274.5t113.5 274.5t274.5 113.5t274.5 -113.5t113.5 -274.5t-113.5 -274.5t-274.5 -113.5zM534 -40q-161 0 -274.5 113.5t-113.5 274.5t113.5 274.5t274.5 113.5t274.5 -113.5t113.5 -274.5t-113.5 -274.5t-274.5 -113.5z" />
    <glyph glyph-name="semicolon" unicode=";" horiz-adv-x="1032" 
d="M498 1142q-161 0 -274.5 113.5t-113.5 274.5t113.5 274.5t274.5 113.5t274.5 -113.5t113.5 -274.5t-113.5 -274.5t-274.5 -113.5zM498 736q71 0 138.5 -25t124 -74t91 -131t34.5 -186q0 -160 -78.5 -336t-212 -324.5t-289.5 -231.5q-24 -11 -47 -6t-37 22l-57 64
q-19 22 -18 51t23 53q7 8 31.5 32t34.5 35t30 34t29.5 39t21 39t16 46.5t4.5 48.5q0 40 -16 74.5t-34.5 54t-52.5 48.5q-124 110 -124 278t113 281.5t275 113.5z" />
    <glyph glyph-name="less" unicode="&#x3c;" horiz-adv-x="2194" 
d="M2024 1591q0 -21 -5.5 -35t-21 -24.5t-26 -15.5t-37.5 -15l-1116 -442l1116 -442q27 -10 37.5 -15t26 -15.5t21 -24.5t5.5 -35v-383q0 -45 -26 -72.5t-64 -11.5l-1674 700q-90 36 -90 107v384q0 71 90 107l1674 700q38 16 64 -11.5t26 -72.5v-383z" />
    <glyph glyph-name="equal" unicode="=" horiz-adv-x="2194" 
d="M260 1268q-43 0 -66.5 23.5t-23.5 66.5v328q0 43 23.5 66t66.5 23h1674q43 0 66.5 -23t23.5 -66v-328q0 -43 -23.5 -66.5t-66.5 -23.5h-1674zM260 431q-43 0 -66.5 23.5t-23.5 66.5v328q0 43 23.5 66t66.5 23h1674q43 0 66.5 -23t23.5 -66v-328q0 -43 -23.5 -66.5
t-66.5 -23.5h-1674z" />
    <glyph glyph-name="greater" unicode="&#x3e;" horiz-adv-x="2194" 
d="M170 1591v383q0 45 26 72.5t64 11.5l1674 -700q90 -36 90 -107v-384q0 -71 -90 -107l-1674 -700q-38 -16 -64 11.5t-26 72.5v383q0 21 5.5 35t21 24.5t26 15.5t37.5 15l1116 442l-1116 442q-27 10 -37.5 15t-26 15.5t-21 24.5t-5.5 35z" />
    <glyph glyph-name="question" unicode="?" horiz-adv-x="1935" 
d="M1156 1709q0 209 -266 209q-69 0 -129.5 -13.5t-113.5 -41.5t-84 -48.5t-78 -56.5q-9 -7 -13 -10q-31 -24 -59 -16.5t-68 56.5l-207 256q-14 18 -17 34t6.5 32t19.5 26t31 27q119 100 241.5 169.5t295.5 116t368 46.5q144 0 269 -23.5t229.5 -73.5t179.5 -122.5
t116.5 -175.5t41.5 -228q0 -103 -30 -190t-78.5 -150t-108 -119.5t-121 -109t-114 -106.5t-91.5 -125t-49 -152q-5 -32 -19.5 -51.5t-52.5 -19.5h-422q-37 0 -52 23t-15 73q0 82 29 161.5t72 139.5t94 123t94 114.5t72 111t29 114.5zM1046 -40q-155 0 -264.5 109.5
t-109.5 265.5q0 155 109.5 264.5t264.5 109.5q156 0 265.5 -109.5t109.5 -264.5q0 -156 -109.5 -265.5t-265.5 -109.5z" />
    <glyph glyph-name="at" unicode="@" horiz-adv-x="3343" 
d="M2256 -385q-2 -23 -16.5 -40t-37.5 -21q-313 -66 -642 -66q-348 0 -625.5 96.5t-459.5 270t-278 414t-96 530.5q0 244 67.5 467.5t188.5 403.5t291 327t372 246.5t434 153t475 53.5q231 0 432 -49.5t363 -148.5t277.5 -241t178 -333.5t62.5 -419.5q0 -166 -38 -327.5
t-111 -299t-171.5 -243t-228.5 -165.5t-274 -60q-393 0 -475 264q-182 -264 -474 -264q-88 0 -168.5 23.5t-152 74.5t-123.5 124.5t-82 180.5t-30 236q0 213 70.5 397t195 315.5t302.5 206.5t385 75q229 0 524 -84q25 -7 39 -28t12 -47l-84 -955q-8 -88 25 -135t97 -47
q63 0 115.5 50t86.5 128.5t57.5 179t34 198.5t10.5 190q0 197 -50.5 349t-156 262t-276.5 168t-402 58q-291 0 -540 -93t-424 -258.5t-274 -401t-99 -511.5q0 -139 26 -262t78.5 -233t138 -197t199.5 -150t268 -97t339 -34q270 0 558 60q46 10 78 -17t27 -74zM1589 494
q131 0 234 133t126 386l38 427q-90 30 -187 30q-133 0 -232 -89.5t-147 -233t-48 -318.5q0 -168 60.5 -251.5t155.5 -83.5z" />
    <glyph glyph-name="A" unicode="A" horiz-adv-x="2803" 
d="M2778 105q19 -49 0 -77t-68 -28h-667q-74 0 -101 71l-126 331h-883l-125 -331q-28 -71 -103 -71h-616q-49 0 -68.5 28.5t-0.5 76.5l976 2278q27 67 104 67h619q77 0 104 -67zM1122 900h504l-253 665z" />
    <glyph glyph-name="B" unicode="B" horiz-adv-x="2621" 
d="M1921 1240q92 -12 176 -42t158 -79.5t128 -115t85.5 -154t31.5 -189.5q0 -308 -248.5 -484t-720.5 -176h-748h-562q-31 0 -53 22t-22 53v2290q0 31 22 53t53 22h635h571q469 0 713.5 -171t244.5 -469q0 -232 -128.5 -376t-335.5 -184zM1595 1686q0 28 -6 53t-26 54.5
t-52.5 50.5t-90 35t-133.5 14h-356v-419h341q95 0 161.5 19t100 51.5t47.5 67t14 74.5zM1392 547q89 0 152 19.5t94 53t44 67.5t13 72q0 33 -8.5 61.5t-30 57t-56 48.5t-90.5 32.5t-129 12.5h-450v-424h461z" />
    <glyph glyph-name="C" unicode="C" horiz-adv-x="2719" 
d="M2566 678q82 -40 39 -122q-81 -155 -204 -274t-269 -191.5t-305.5 -109t-327.5 -36.5q-189 0 -365.5 39.5t-329 114t-278.5 186.5t-216 251t-139.5 314t-49.5 370t49.5 370t139.5 314t216 251t278.5 186.5t329 114t365.5 39.5q168 0 327.5 -36.5t305.5 -109t269 -191.5
t204 -274q43 -82 -39 -122l-477 -227q-74 -35 -122 41q-79 135 -200.5 209t-267.5 74q-251 0 -405 -177.5t-154 -461.5t154 -461.5t405 -177.5q146 0 267.5 74t200.5 209q48 76 122 41z" />
    <glyph glyph-name="D" unicode="D" horiz-adv-x="2784" 
d="M1299 2440q226 0 431 -51.5t375 -154t294.5 -247.5t194 -341.5t69.5 -425.5t-69.5 -425.5t-194 -341.5t-294.5 -247.5t-375 -154t-431 -51.5h-780h-298q-31 0 -53 22t-22 53v2290q0 31 22 53t53 22h635h443zM1259 606q263 0 423.5 166.5t160.5 447.5t-160.5 447.5
t-423.5 166.5h-328v-1228h328z" />
    <glyph glyph-name="E" unicode="E" horiz-adv-x="2324" 
d="M2143 606q36 0 55.5 -19.5t19.5 -54.5v-457q0 -36 -19.5 -55.5t-55.5 -19.5h-1503h-419q-31 0 -53 22t-22 53v2290q0 31 22 53t53 22h635h1247q36 0 55.5 -19.5t19.5 -55.5v-457q0 -35 -19.5 -54.5t-55.5 -19.5h-1172v-325h1012q36 0 55.5 -19.5t19.5 -55.5v-398
q0 -35 -19.5 -54.5t-55.5 -19.5h-1012v-356h1212z" />
    <glyph glyph-name="F" unicode="F" horiz-adv-x="2224" 
d="M2063 2440q36 0 55.5 -19.5t19.5 -55.5v-457q0 -35 -19.5 -54.5t-55.5 -19.5h-1132v-445h1052q36 0 55.5 -19.5t19.5 -55.5v-427q0 -36 -19.5 -55.5t-55.5 -19.5h-1052v-737q0 -31 -22 -53t-53 -22h-635q-31 0 -53 22t-22 53v2290q0 31 22 53t53 22h635h1207z" />
    <glyph glyph-name="G" unicode="G" horiz-adv-x="2783" 
d="M2540 1124q97 0 97 -89v-758q-206 -147 -499.5 -239.5t-638.5 -92.5q-189 0 -365.5 39.5t-329 114t-278.5 186.5t-216 251t-139.5 314t-49.5 370t49.5 370t139.5 314t216 251t278.5 186.5t329 114t365.5 39.5q167 0 322 -33t299.5 -100t267.5 -179.5t209 -262.5
q22 -41 10.5 -72.5t-50.5 -50.5l-476 -226q-71 -33 -123 40q-172 248 -459 248q-251 0 -405 -177.5t-154 -461.5t154 -461.5t405 -177.5q240 0 422 65v389q0 43 23.5 66t66.5 23h529z" />
    <glyph glyph-name="H" unicode="H" horiz-adv-x="2828" 
d="M2607 2440q31 0 53 -22t22 -53v-2290q0 -31 -22 -53t-53 -22h-635q-31 0 -53 22t-22 53v857h-966v-857q0 -31 -22 -53t-53 -22h-635q-31 0 -53 22t-22 53v2290q0 31 22 53t53 22h635q31 0 53 -22t22 -53v-827h966v827q0 31 22 53t53 22h635z" />
    <glyph glyph-name="I" unicode="I" horiz-adv-x="1077" 
d="M146 2365q0 31 22 53t53 22h635q31 0 53 -22t22 -53v-2290q0 -31 -22 -53t-53 -22h-635q-31 0 -53 22t-22 53v2290z" />
    <glyph glyph-name="J" unicode="J" horiz-adv-x="2110" 
d="M1875 2440q43 0 66 -23.5t23 -66.5v-1520q0 -168 -54 -312.5t-148.5 -248.5t-222 -178t-276 -110t-309.5 -36q-142 0 -274.5 30.5t-229.5 77.5t-178 107.5t-130.5 118t-76.5 111.5q-42 84 40 122l441 205q42 18 66 9.5t55 -49.5q31 -42 59.5 -69t80.5 -49t117 -22
q125 0 197.5 76.5t72.5 226.5v1510q0 43 23.5 66.5t66.5 23.5h591z" />
    <glyph glyph-name="K" unicode="K" horiz-adv-x="2784" 
d="M856 2440q31 0 53 -22t22 -53v-2290q0 -31 -22 -53t-53 -22h-635q-31 0 -53 22t-22 53v2290q0 31 22 53t53 22h635zM2737 108q31 -46 14 -77t-71 -31h-695q-70 0 -107 56l-840 1184l845 1144q37 56 108 56h649q55 0 72 -31t-16 -77l-803 -1057z" />
    <glyph glyph-name="L" unicode="L" horiz-adv-x="2154" 
d="M2029 636q36 0 55.5 -19.5t19.5 -55.5v-486q0 -36 -19.5 -55.5t-55.5 -19.5h-1393h-415q-31 0 -53 22t-22 53v2290q0 31 22 53t53 22h635q31 0 53 -22t22 -53v-1729h1098z" />
    <glyph glyph-name="M" unicode="M" horiz-adv-x="3198" 
d="M2540 2402q41 48 112 48h311q43 0 66 -23t23 -66v-2271q0 -43 -23 -66.5t-66 -23.5h-606q-43 0 -66 23.5t-23 66.5v946l-605 -728q-27 -31 -64 -31t-64 31l-604 728v-946q0 -43 -23.5 -66.5t-66.5 -23.5h-605q-43 0 -66.5 23.5t-23.5 66.5v2271q0 43 23.5 66t66.5 23h284
q67 0 110 -49l969 -1140z" />
    <glyph glyph-name="N" unicode="N" horiz-adv-x="2838" 
d="M2603 2440q43 0 66 -23.5t23 -66.5v-2271q0 -43 -23 -66t-66 -23h-206q-66 0 -111 36l-1355 1131v-1067q0 -43 -23.5 -66.5t-66.5 -23.5h-605q-43 0 -66.5 23.5t-23.5 66.5v2271q0 43 23.5 66t66.5 23h205q67 0 112 -36l1355 -1137v1073q0 43 23 66.5t66 23.5h606z" />
    <glyph glyph-name="O" unicode="O" horiz-adv-x="2998" 
d="M1499 2495q227 0 434.5 -55.5t379 -165t298.5 -261.5t197 -355.5t70 -437.5t-70 -437.5t-197 -355.5t-298.5 -261.5t-379 -165t-434.5 -55.5q-189 0 -365.5 39.5t-329 114t-278.5 186.5t-216 251t-139.5 314t-49.5 370t49.5 370t139.5 314t216 251t278.5 186.5t329 114
t365.5 39.5zM1499 581q251 0 405 177.5t154 461.5t-154 461.5t-405 177.5t-405 -177.5t-154 -461.5t154 -461.5t405 -177.5z" />
    <glyph glyph-name="P" unicode="P" horiz-adv-x="2434" 
d="M1364 2440q194 0 359 -43.5t285.5 -121.5t205.5 -185.5t127 -236t42 -272.5q0 -180 -67.5 -336t-193.5 -272.5t-321 -183.5t-437 -67h-433v-647q0 -31 -22 -53t-53 -22h-635q-31 0 -53 22t-22 53v2290q0 31 22 53t53 22h635h508zM1224 1298q94 0 165 24t111 65t59 89.5
t19 104.5q0 55 -19 103.5t-59 89.5t-111 65t-165 24h-293v-565h293z" />
    <glyph glyph-name="Q" unicode="Q" horiz-adv-x="2998" 
d="M2601 -105q68 -4 68 -72v-424q0 -75 -82 -75q-306 0 -537 171.5t-319 464.5q-113 -15 -232 -15q-189 0 -365.5 39.5t-329 114t-278.5 186.5t-216 251t-139.5 314t-49.5 370t49.5 370t139.5 314t216 251t278.5 186.5t329 114t365.5 39.5q227 0 434.5 -55.5t379 -165
t298.5 -261.5t197 -355.5t70 -437.5q0 -380 -178 -666.5t-485 -444.5q63 -104 166.5 -157.5t219.5 -56.5zM940 1220q0 -284 154 -461.5t405 -177.5t405 177.5t154 461.5t-154 461.5t-405 177.5t-405 -177.5t-154 -461.5z" />
    <glyph glyph-name="R" unicode="R" horiz-adv-x="2494" 
d="M2384 164q34 -62 3.5 -113t-100.5 -51h-610q-22 0 -41 12.5t-30 32.5l-369 705h-306v-675q0 -31 -22 -53t-53 -22h-635q-31 0 -53 22t-22 53v2290q0 31 22 53t53 22h635h482q243 0 438 -65t321.5 -179t193.5 -267.5t67 -333.5q0 -220 -99 -400t-287 -292zM931 1863v-536
h253q191 0 280 68t89 200t-89 200t-280 68h-253z" />
    <glyph glyph-name="S" unicode="S" horiz-adv-x="2329" 
d="M976 1790q0 -34 22 -60.5t87.5 -54t102 -39t146.5 -43.5q107 -31 165.5 -49.5t165 -59.5t169 -78.5t143 -101.5t124.5 -134t75.5 -169.5t31.5 -214.5q0 -168 -61.5 -306.5t-167 -233.5t-250 -160.5t-308 -95.5t-343.5 -30q-260 0 -491.5 60.5t-418.5 159.5
q-71 45 -36 122l172 381q36 78 111 43q90 -41 126.5 -57t112.5 -45t126.5 -40.5t124 -21.5t150.5 -10q319 0 319 147q0 80 -123 139q-65 32 -270 95q-258 79 -390 147q-298 155 -372 419q-27 94 -27 204q0 361 274.5 576.5t753.5 215.5q274 0 504 -63t363 -139
q75 -44 40 -119l-159 -346q-37 -81 -127 -40q-65 32 -107.5 50t-121.5 47t-162.5 43.5t-167.5 14.5q-157 0 -231.5 -45t-74.5 -108z" />
    <glyph glyph-name="T" unicode="T" horiz-adv-x="2510" 
d="M2349 2440q31 0 53 -22t22 -53v-486q0 -31 -22 -53t-53 -22h-702v-1729q0 -31 -22 -53t-53 -22h-635q-31 0 -53 22t-22 53v1729h-701q-31 0 -53 22t-22 53v486q0 31 22 53t53 22h1411h777z" />
    <glyph glyph-name="U" unicode="U" horiz-adv-x="2788" 
d="M2567 2440q31 0 53 -22t22 -53v-1325q0 -217 -62 -395.5t-173 -304.5t-267.5 -212.5t-343.5 -127t-402 -40.5t-402 40.5t-343.5 127t-267.5 212.5t-173 304.5t-62 395.5v1325q0 31 22 53t53 22h635q31 0 53 -22t22 -53v-1156q0 -295 114 -454t349 -159t349 159t114 454
v1156q0 31 22 53t53 22h635z" />
    <glyph glyph-name="V" unicode="V" horiz-adv-x="2770" 
d="M2675 2440q50 0 70 -28t-1 -77l-1026 -2278q-31 -67 -103 -67h-438q-72 0 -103 67l-1052 2278q-21 49 -1.5 77t68.5 28h665q74 0 101 -71l573 -1374l535 1374q28 71 103 71h609z" />
    <glyph glyph-name="W" unicode="W" horiz-adv-x="3715" 
d="M3623 2440q48 0 66 -27.5t2 -77.5l-755 -2278q-21 -67 -103 -67h-437q-82 0 -104 67l-437 1279l-437 -1279q-22 -67 -104 -67h-437q-82 0 -103 67l-755 2278q-16 50 2 77.5t66 27.5h648q82 0 101 -71l346 -1229l372 1069q10 34 37.5 52.5t65.5 18.5h413q81 0 104 -71
l359 -1069l372 1229q22 71 100 71h618z" />
    <glyph glyph-name="X" unicode="X" horiz-adv-x="2821" 
d="M2720 108q32 -46 16.5 -77t-70.5 -31h-711q-65 0 -107 54l-480 636l-418 -636q-34 -54 -107 -54h-655q-56 0 -72.5 32.5t16.5 77.5l808 1145l-814 1077q-33 46 -17.5 77t70.5 31h711q65 0 107 -54l461 -609l432 609q38 54 107 54h657q55 0 70.5 -32.5t-17.5 -77.5
l-831 -1107z" />
    <glyph glyph-name="Y" unicode="Y" horiz-adv-x="2695" 
d="M2598 2440q50 0 71.5 -31t-2.5 -74l-922 -1558v-702q0 -31 -22 -53t-52 -22h-636q-31 0 -52.5 22t-21.5 53v701l-937 1559q-25 43 -3.5 74t71.5 31h677q63 0 101 -71l515 -932l486 932q33 71 103 71h624z" />
    <glyph glyph-name="Z" unicode="Z" horiz-adv-x="2594" 
d="M146 0q-43 0 -66.5 23.5t-23.5 66.5v157q0 64 39 111l1170 1446h-1034q-31 0 -53 22t-22 53v486q0 31 22 53t53 22h2142q43 0 66 -23.5t23 -66.5v-157q0 -66 -35 -111l-1159 -1446h1150q31 0 53 -22t22 -53v-486q0 -31 -22 -53t-53 -22h-2272z" />
    <glyph glyph-name="bracketleft" unicode="[" horiz-adv-x="1129" 
d="M983 2300h-448v-2696h448q43 0 66.5 -23t23.5 -66v-155q0 -43 -23.5 -66.5t-66.5 -23.5h-699h-63q-31 0 -53 22t-22 53v3214q0 31 22 53t53 22h239h523q43 0 66.5 -23.5t23.5 -66.5v-154q0 -43 -23.5 -66.5t-66.5 -23.5z" />
    <glyph glyph-name="backslash" unicode="\" horiz-adv-x="1614" 
d="M370 2662l1221 -2619q14 -28 3 -57.5t-39 -42.5l-217 -102q-27 -12 -57 -1.5t-43 38.5l-1221 2619q-13 28 -2.5 57.5t38.5 42.5l217 102q29 13 58 2t42 -39z" />
    <glyph glyph-name="bracketright" unicode="]" horiz-adv-x="1129" 
d="M908 2634q31 0 53 -22t22 -53v-3214q0 -31 -22 -53t-53 -22h-239h-523q-43 0 -66.5 23.5t-23.5 66.5v155q0 43 23.5 66t66.5 23h448v2696h-448q-43 0 -66.5 23.5t-23.5 66.5v154q0 43 23.5 66.5t66.5 23.5h699h63z" />
    <glyph glyph-name="asciicircum" unicode="^" horiz-adv-x="1762" 
d="M1727 1900q36 -52 9.5 -101t-89.5 -49h-328q-38 0 -56 31l-384 617l-384 -617q-18 -31 -56 -31h-329q-63 0 -89 49t9 101l591 871q18 29 54 29h408q36 0 54 -29z" />
    <glyph glyph-name="underscore" unicode="_" horiz-adv-x="1728" 
d="M90 -507q-43 0 -66.5 23.5t-23.5 65.5v328q0 43 23.5 66.5t66.5 23.5h1548q43 0 66.5 -23.5t23.5 -66.5v-328q0 -42 -23.5 -65.5t-66.5 -23.5h-1548z" />
    <glyph glyph-name="grave" unicode="`" horiz-adv-x="1095" 
d="M907 2063l-807 323q-37 14 -48.5 48.5t6.5 72.5l144 291q17 34 51 46.5t69 -5.5l745 -441q33 -19 46.5 -55t-1.5 -70l-82 -169q-17 -32 -50.5 -43.5t-72.5 2.5z" />
    <glyph glyph-name="a" unicode="a" horiz-adv-x="2081" 
d="M2007 174q31 -92 -57 -117l-433 -114q-70 -18 -112 26q-95 95 -153 222q-101 -115 -243.5 -180.5t-317.5 -65.5q-147 0 -265.5 47.5t-192.5 126.5t-113 178t-39 207q0 149 67.5 274t206.5 216.5t350 121t498 -13.5v10q0 144 -71 201.5t-242 57.5q-113 0 -207.5 -20.5
t-215.5 -63.5q-84 -28 -118 47l-142 301q-17 31 -11.5 55.5t18.5 37.5t36 26q148 79 371.5 129t446.5 50q856 0 856 -787v-502q0 -151 19 -244t64 -226zM924 428q112 0 195.5 83.5t83.5 202.5v21q-118 29 -208 29.5t-142.5 -23t-79 -62t-26.5 -90.5q0 -72 50 -116.5
t127 -44.5z" />
    <glyph glyph-name="b" unicode="b" horiz-adv-x="2378" 
d="M1407 1933q265 0 463.5 -127.5t302.5 -352t104 -514.5t-104 -514.5t-302.5 -352t-463.5 -127.5q-334 0 -511 259v-129q0 -36 -19.5 -55.5t-54.5 -19.5h-601q-36 0 -55.5 19.5t-19.5 55.5v2410q0 36 19.5 55.5t55.5 19.5h601q35 0 54.5 -19.5t19.5 -55.5v-811
q177 259 511 259zM1189 537q138 0 228 105.5t90 296.5t-90 296.5t-228 105.5q-140 0 -229 -106.5t-89 -295.5t89 -295.5t229 -106.5z" />
    <glyph glyph-name="c" unicode="c" horiz-adv-x="2134" 
d="M1989 512q43 -22 51.5 -52t-11.5 -70q-26 -53 -72 -109t-123.5 -117.5t-172 -109t-226.5 -78.5t-277 -31q-168 0 -323.5 41t-289 124t-232.5 200t-155.5 278.5t-56.5 350.5t56.5 350.5t155.5 278.5t232.5 200t289 124t323.5 41q145 0 276.5 -31t226 -78.5t172.5 -108.5
t124 -117.5t72 -109.5q20 -40 11.5 -70t-51.5 -51l-419 -206q-24 -12 -42 -14t-33 7t-24 18.5t-23 28.5q-30 43 -56.5 70t-76.5 49t-114 22q-156 0 -243 -103.5t-87 -299.5q0 -195 87 -298.5t243 -103.5q92 0 146.5 36.5t100.5 103.5q14 19 23.5 29t24 18.5t32.5 6.5t42 -14
z" />
    <glyph glyph-name="d" unicode="d" horiz-adv-x="2378" 
d="M2157 2560q36 0 55.5 -19.5t19.5 -55.5v-2410q0 -36 -19.5 -55.5t-55.5 -19.5h-601q-35 0 -54.5 19.5t-19.5 55.5v129q-177 -259 -511 -259q-265 0 -463.5 127.5t-302.5 352t-104 514.5t104 514.5t302.5 352t463.5 127.5q334 0 511 -259v811q0 36 19.5 55.5t54.5 19.5
h601zM1189 537q140 0 229 106.5t89 295.5t-89 295.5t-229 106.5q-138 0 -228 -105.5t-90 -296.5t90 -296.5t228 -105.5z" />
    <glyph glyph-name="e" unicode="e" horiz-adv-x="2268" 
d="M1990 486q45 -22 53 -53.5t-13 -68.5q-41 -83 -124.5 -158t-196 -133.5t-257.5 -93t-298 -34.5q-176 0 -334 41t-289.5 123.5t-227.5 200t-149 279t-53 350.5q0 158 38.5 297t108 247.5t167 194t216.5 141.5t254.5 85t282.5 29q165 0 311 -38.5t273 -123t218.5 -209.5
t144 -307t52.5 -405h-1361q14 -94 52 -165.5t89.5 -112.5t108.5 -60.5t118 -19.5q110 0 184.5 34.5t123.5 108.5q29 41 52 50t70 -10zM1156 1450q-114 0 -201 -67t-127 -194h621q-35 135 -112.5 198t-180.5 63z" />
    <glyph glyph-name="f" unicode="f" horiz-adv-x="1686" 
d="M1291 2172q-104 0 -156 -70t-52 -224h467q43 0 66 -23t23 -66v-398q0 -43 -23 -66t-66 -23h-467v-1212q0 -43 -23.5 -66.5t-66.5 -23.5h-571q-43 0 -66 23.5t-23 66.5v1212h-180q-43 0 -66.5 23t-23.5 66v398q0 43 23.5 66t66.5 23h180v97q0 176 58.5 317t162 232.5
t242.5 140.5t303 49q184 0 345 -54t260 -124q16 -12 25 -21.5t15.5 -23.5t4 -33.5t-14.5 -44.5l-124 -255q-37 -77 -123 -39q-108 53 -196 53z" />
    <glyph glyph-name="g" unicode="g" horiz-adv-x="2288" 
d="M2181 2062q62 0 62 -56v-440q0 -53 -52 -53q-110 0 -185 -60q19 -64 19 -136q0 -130 -64 -243t-179 -195.5t-285 -130t-372 -47.5h-268q-149 0 -149 -96t149 -96h485q412 0 636 -156t224 -429q0 -104 -33 -196t-108 -174t-188.5 -140.5t-284.5 -93t-385 -34.5
q-490 0 -744 145t-254 393q0 181 148 305q-111 60 -174 157.5t-63 219.5q0 135 79 242t226 169q-195 166 -195 400q0 130 64 243t179 195.5t284.5 130t371.5 47.5q329 0 563 -121q88 121 215.5 185.5t277.5 64.5zM1125 1131q108 0 178 50.5t70 135.5t-70 135.5t-178 50.5
q-107 0 -177 -50.5t-70 -135.5t69.5 -135.5t177.5 -50.5zM1546 -136q0 74 -87 115t-256 41t-255.5 -41t-86.5 -115q0 -158 342 -158q343 0 343 158z" />
    <glyph glyph-name="h" unicode="h" 
d="M1548 1918q633 0 633 -684v-1159q0 -36 -19.5 -55.5t-54.5 -19.5h-601q-36 0 -55.5 19.5t-19.5 55.5v915q0 172 -57 247t-174 75q-136 0 -220 -98t-84 -275v-864q0 -36 -19.5 -55.5t-55.5 -19.5h-600q-36 0 -55.5 19.5t-19.5 55.5v2410q0 36 19.5 55.5t55.5 19.5h600
q36 0 55.5 -19.5t19.5 -55.5v-887q93 148 258.5 234t393.5 86z" />
    <glyph glyph-name="i" unicode="i" horiz-adv-x="1042" 
d="M522 2038q-161 0 -274.5 113.5t-113.5 274.5t113.5 274.5t274.5 113.5t274.5 -113.5t113.5 -274.5t-113.5 -274.5t-274.5 -113.5zM146 1804q0 35 19.5 54.5t55.5 19.5h600q36 0 55.5 -19.5t19.5 -54.5v-1729q0 -36 -19.5 -55.5t-55.5 -19.5h-600q-36 0 -55.5 19.5
t-19.5 55.5v1729z" />
    <glyph glyph-name="j" unicode="j" horiz-adv-x="1044" 
d="M522 2038q-161 0 -274.5 113.5t-113.5 274.5t113.5 274.5t274.5 113.5t274.5 -113.5t113.5 -274.5t-113.5 -274.5t-274.5 -113.5zM823 1878q36 0 55.5 -19.5t19.5 -54.5v-1637q0 -849 -930 -849q-35 0 -57.5 21.5t-22.5 56.5v386q0 57 68 74q35 9 56 17.5t50 31.5
t45.5 55.5t28.5 92t12 139.5v1612q0 35 19.5 54.5t55.5 19.5h600z" />
    <glyph glyph-name="k" unicode="k" horiz-adv-x="2322" 
d="M146 2485q0 36 19.5 55.5t55.5 19.5h600q36 0 55.5 -19.5t19.5 -55.5v-2410q0 -36 -19.5 -55.5t-55.5 -19.5h-600q-36 0 -55.5 19.5t-19.5 55.5v2410zM1551 0q-78 0 -107 60l-498 930l456 830q30 58 109 58h611q53 0 67.5 -32.5t-11.5 -74.5l-464 -761l526 -902
q27 -49 11 -78.5t-69 -29.5h-631z" />
    <glyph glyph-name="l" unicode="l" horiz-adv-x="1042" 
d="M146 2485q0 36 19.5 55.5t55.5 19.5h600q36 0 55.5 -19.5t19.5 -55.5v-2410q0 -36 -19.5 -55.5t-55.5 -19.5h-600q-36 0 -55.5 19.5t-19.5 55.5v2410z" />
    <glyph glyph-name="m" unicode="m" horiz-adv-x="3512" 
d="M2754 1918q312 0 462 -184t150 -529v-1115q0 -43 -23.5 -66.5t-66.5 -23.5h-571q-43 0 -66 23.5t-23 66.5v901q0 167 -53 244t-159 77q-117 0 -195 -100t-78 -287v-835q0 -43 -23.5 -66.5t-66.5 -23.5h-571q-42 0 -65.5 23.5t-23.5 66.5v901q0 167 -53 244t-159 77
q-116 0 -194.5 -100.5t-78.5 -286.5v-850q0 -36 -19.5 -55.5t-55.5 -19.5h-600q-36 0 -55.5 19.5t-19.5 55.5v1729q0 35 19.5 54.5t55.5 19.5h600q36 0 55.5 -19.5t19.5 -54.5v-206q109 152 265.5 236t355.5 84q448 0 570 -383q124 200 298 291.5t369 91.5z" />
    <glyph glyph-name="n" unicode="n" 
d="M1548 1918q633 0 633 -684v-1159q0 -36 -19.5 -55.5t-54.5 -19.5h-601q-36 0 -55.5 19.5t-19.5 55.5v915q0 172 -57 247t-174 75q-136 0 -220 -98t-84 -275v-864q0 -36 -19.5 -55.5t-55.5 -19.5h-600q-36 0 -55.5 19.5t-19.5 55.5v1729q0 35 19.5 54.5t55.5 19.5h600
q36 0 55.5 -19.5t19.5 -54.5v-206q93 148 258.5 234t393.5 86z" />
    <glyph glyph-name="o" unicode="o" horiz-adv-x="2378" 
d="M1189 1933q222 0 417.5 -65.5t345.5 -188.5t237.5 -314t87.5 -426t-87.5 -426t-237.5 -314t-345.5 -188.5t-417.5 -65.5t-417.5 65.5t-345.5 188.5t-237.5 314t-87.5 426t87.5 426t237.5 314t345.5 188.5t417.5 65.5zM1189 537q138 0 228 105.5t90 296.5t-90 297
t-228 106t-228 -106t-90 -297t90 -296.5t228 -105.5z" />
    <glyph glyph-name="p" unicode="p" horiz-adv-x="2378" 
d="M1407 1933q265 0 463.5 -127.5t302.5 -352t104 -514.5t-104 -514.5t-302.5 -352t-463.5 -127.5q-334 0 -511 259v-811q0 -36 -19.5 -55.5t-54.5 -19.5h-601q-36 0 -55.5 19.5t-19.5 55.5v2410q0 36 19.5 55.5t55.5 19.5h601q35 0 54.5 -19.5t19.5 -55.5v-129
q177 259 511 259zM1189 537q138 0 228 105.5t90 296.5t-90 296.5t-228 105.5q-140 0 -229 -106.5t-89 -295.5t89 -295.5t229 -106.5z" />
    <glyph glyph-name="q" unicode="q" horiz-adv-x="2378" 
d="M2157 1877q36 0 55.5 -19.5t19.5 -55.5v-2410q0 -36 -19.5 -55.5t-55.5 -19.5h-601q-35 0 -54.5 19.5t-19.5 55.5v811q-177 -259 -511 -259q-265 0 -463.5 127.5t-302.5 352t-104 514.5t104 514.5t302.5 352t463.5 127.5q334 0 511 -259v129q0 36 19.5 55.5t54.5 19.5
h601zM1189 536q140 0 229 106.5t89 295.5t-89 295.5t-229 106.5q-138 0 -228 -105.5t-90 -296.5t90 -296.5t228 -105.5z" />
    <glyph glyph-name="r" unicode="r" horiz-adv-x="1492" 
d="M1344 1911q83 0 83 -74v-625q0 -35 -17 -49.5t-52 -22.5q-47 -10 -81 -19t-86 -29t-89 -42.5t-78.5 -60.5t-67.5 -83.5t-43 -111t-17 -143.5v-576q0 -36 -19.5 -55.5t-55.5 -19.5h-600q-36 0 -55.5 19.5t-19.5 55.5v1729q0 35 19.5 54.5t55.5 19.5h600q36 0 55.5 -19.5
t19.5 -54.5v-286q33 93 88.5 169.5t118 124t125 73.5t116.5 26z" />
    <glyph glyph-name="s" unicode="s" horiz-adv-x="1983" 
d="M917 1364q0 -34 33 -60.5t89 -47.5t128 -41.5t152.5 -46t160.5 -57t152 -79.5t128 -108.5t89 -148.5t33 -195q0 -158 -71 -280.5t-197 -199t-292.5 -116t-365.5 -39.5q-238 0 -460 51t-341 127q-41 26 -50.5 55t7.5 64l139 298q39 87 121 47q152 -73 262.5 -107
t247.5 -34q200 0 200 89q0 33 -32 59.5t-85.5 47t-123.5 40.5t-147 45.5t-154 57t-147 78.5t-123.5 106t-85.5 145t-32 190q0 291 232 460t625 169q221 0 425.5 -51.5t324.5 -127.5q39 -26 49.5 -51.5t-6.5 -67.5l-122 -265q-40 -87 -117 -45q-241 131 -456 131
q-95 0 -142.5 -24.5t-47.5 -67.5z" />
    <glyph glyph-name="t" unicode="t" horiz-adv-x="1849" 
d="M1783 246q33 -76 -36 -120q-153 -89 -308 -135t-358 -46q-328 0 -528 184t-200 496v677h-200q-43 0 -66.5 23t-23.5 66v398q0 43 23.5 66t66.5 23h200v245q0 77 90 105l559 163q46 14 73.5 -2.5t27.5 -58.5v-452h497q43 0 66.5 -23t23.5 -66v-398q0 -43 -23.5 -66
t-66.5 -23h-497v-489q0 -144 45.5 -217.5t155.5 -73.5q98 0 216 65q85 46 122 -39z" />
    <glyph glyph-name="u" unicode="u" 
d="M2106 1878q36 0 55.5 -19.5t19.5 -54.5v-1729q0 -36 -19.5 -55.5t-55.5 -19.5h-600q-36 0 -55.5 19.5t-19.5 55.5v205q-93 -148 -258.5 -234t-393.5 -86q-633 0 -633 684v1159q0 36 19.5 55.5t54.5 19.5h601q36 0 55.5 -19.5t19.5 -55.5v-915q0 -172 57 -247t174 -75
q136 0 220 98t84 275v865q0 35 19.5 54.5t55.5 19.5h600z" />
    <glyph glyph-name="v" unicode="v" horiz-adv-x="2323" 
d="M2206 1878q63 0 95 -48t4 -104l-825 -1676q-28 -60 -94 -60h-448q-66 0 -94 60l-827 1676q-27 56 4.5 104t95.5 48h647q26 0 46.5 -14.5t28.5 -37.5l343 -875l339 875q8 24 28.5 38t46.5 14h610z" />
    <glyph glyph-name="w" unicode="w" horiz-adv-x="3165" 
d="M3052 1878q61 0 91 -46t8 -104l-631 -1675q-25 -63 -91 -63h-359q-68 0 -93 60l-394 883l-394 -883q-24 -60 -94 -60h-358q-68 0 -91 63l-632 1675q-22 58 8.5 104t91.5 46h597q28 0 48.5 -14.5t26.5 -38.5l250 -796l267 661q22 62 97 62h366q75 0 97 -62l267 -661
l252 796q6 24 26 38.5t48 14.5h596z" />
    <glyph glyph-name="x" unicode="x" horiz-adv-x="2326" 
d="M1582 952l644 -841q34 -43 17.5 -77t-72.5 -34h-690q-68 0 -107 54l-267 358l-248 -355q-39 -57 -108 -57h-608q-55 0 -71 33t18 77l633 816l-631 845q-34 46 -18.5 76.5t71.5 30.5h661q66 0 108 -53l270 -353l248 350q38 56 108 56h637q55 0 72 -32.5t-18 -77.5z" />
    <glyph glyph-name="y" unicode="y" horiz-adv-x="2263" 
d="M2147 1878q62 0 94 -47t5 -105l-710 -1483q-85 -178 -160.5 -306.5t-164 -236.5t-182 -176.5t-212.5 -116.5t-258 -68.5t-315 -20.5q-35 0 -57.5 21.5t-22.5 56.5v386q0 66 68 74q90 11 156 34t130 70.5t122 122t125 190.5l-747 1453q-29 57 3.5 104.5t96.5 47.5h631
q52 0 76 -52l334 -731l320 731q21 52 76 52h592z" />
    <glyph glyph-name="z" unicode="z" horiz-adv-x="2153" 
d="M146 0q-43 0 -66.5 23t-23.5 65v40q0 63 36 111l780 1048h-612q-30 0 -52 22t-22 53v442q0 30 22 52t52 22h1672q43 0 66.5 -22t23.5 -64v-42q0 -57 -36 -110l-814 -1078h765q31 0 53 -22t22 -53v-412q0 -31 -22 -53t-53 -22h-1791z" />
    <glyph glyph-name="braceleft" unicode="{" horiz-adv-x="963" 
d="M845 2326q-97 -23 -135 -86t-38 -167q0 -71 44 -311t44 -344q0 -200 -77 -312.5t-229 -153.5q152 -41 229 -153t77 -313q0 -104 -44 -344t-44 -310q0 -104 38 -167t135 -86q28 -7 45 -25t17 -44v-164q0 -33 -22 -54.5t-54 -20.5q-139 5 -239.5 33.5t-178 88.5t-116 162
t-38.5 248q0 108 44 341t44 315q0 165 -60.5 247.5t-175.5 111.5q-25 6 -40 24t-15 43v134q0 25 15 43t40 25q115 27 175.5 110t60.5 249q0 82 -44 314.5t-44 340.5q0 117 26 206.5t73 149.5t119 99t158 56.5t196 20.5q32 1 54 -20.5t22 -53.5v-164q0 -26 -17 -44.5
t-45 -24.5z" />
    <glyph glyph-name="bar" unicode="|" horiz-adv-x="681" 
d="M146 2865q0 31 22 53t53 22h239q31 0 53 -22t22 -53v-3290q0 -31 -22 -53t-53 -22h-239q-31 0 -53 22t-22 53v3290z" />
    <glyph glyph-name="braceright" unicode="}" horiz-adv-x="963" 
d="M852 1087q25 -7 40 -25t15 -43v-134q0 -25 -15 -43t-40 -24q-115 -29 -175.5 -111.5t-60.5 -247.5q0 -82 44 -315t44 -341q0 -146 -38.5 -248t-116 -162t-178 -88.5t-239.5 -33.5q-32 -1 -54 20.5t-22 54.5v164q0 26 17 44t45 25q97 23 135 86t38 167q0 70 -44 310
t-44 344q0 201 77 313t229 153q-152 41 -229 153.5t-77 312.5q0 104 44 344t44 311q0 104 -38 167t-135 86q-28 6 -45 24.5t-17 44.5v164q0 32 22 53.5t54 20.5q110 -3 196 -20.5t158 -56.5t119 -99t73 -149.5t26 -206.5q0 -108 -44 -340.5t-44 -314.5q0 -166 60.5 -249
t175.5 -110z" />
    <glyph glyph-name="asciitilde" unicode="~" horiz-adv-x="2316" 
d="M2109 1344q22 -12 31 -34t2 -47q-39 -132 -105 -233.5t-145 -161.5t-163.5 -90t-170.5 -30q-111 0 -208 23t-167.5 56t-135.5 65.5t-139 55.5t-150 23q-94 0 -171 -47.5t-131 -123.5q-19 -26 -46.5 -33t-53.5 8l-150 85q-21 12 -30 34.5t-2 47.5q39 131 105 232.5
t145 161.5t163.5 90t170.5 30q111 0 208 -23t167.5 -55.5t135.5 -65t139 -55.5t150 -23q94 0 170.5 47t131.5 123q19 26 46 33t54 -8z" />
    <glyph glyph-name="exclamdown" unicode="&#xa1;" horiz-adv-x="1068" 
d="M535 1933q156 0 265.5 -110t109.5 -265q0 -156 -109.5 -265.5t-265.5 -109.5t-265.5 109.5t-109.5 265.5q0 155 109.5 265t265.5 110zM159 -472l87 1442q5 75 75 75h426q70 0 75 -75l87 -1442q2 -35 -18 -55t-57 -20h-600q-37 0 -57 20t-18 55z" />
    <glyph glyph-name="cent" unicode="&#xa2;" horiz-adv-x="2134" 
d="M1989 512q43 -22 51.5 -52t-11.5 -70q-21 -43 -55.5 -89t-91 -97t-124 -95t-160.5 -82t-195 -58v-394q0 -31 -22 -53t-53 -22h-387q-31 0 -53 22t-22 53v403q-163 39 -300.5 120t-242 199.5t-163.5 283.5t-59 358t59 358t163.5 283.5t242 199.5t300.5 120v413q0 31 22 53
t53 22h387q31 0 53 -22t22 -53v-404q102 -20 194.5 -58t160 -82t124 -95t91.5 -97t56 -89q20 -40 11.5 -70t-51.5 -51l-419 -206q-24 -12 -42 -14t-33 7t-24 18.5t-23 28.5q-30 43 -56.5 70t-76.5 49t-114 22q-156 0 -243 -103.5t-87 -299.5q0 -195 87 -298.5t243 -103.5
q92 0 146.5 36.5t100.5 103.5q14 19 23.5 29t24 18.5t32.5 6.5t42 -14z" />
    <glyph glyph-name="sterling" unicode="&#xa3;" horiz-adv-x="2323" 
d="M2126 533q46 11 79 -12.5t33 -69.5v-394q0 -26 -18.5 -46t-48.5 -26q-146 -31 -299 -38t-284 4.5t-263.5 30t-257.5 35t-244.5 24t-245 -7t-240.5 -54.5q-30 -11 -58.5 -0.5t-38.5 39.5l-102 277q-11 33 7 61q140 212 187.5 362t34.5 282h-234q-33 0 -55 22t-22 55v235
q0 33 22 55t55 22h140q-37 160 -37 321q0 175 64 320t183.5 248t297.5 160t398 57q322 0 582 -108.5t454 -292.5q26 -24 37 -42t9 -42.5t-25 -52.5l-224 -266q-16 -19 -28.5 -30.5t-29 -20t-33.5 -6t-36 16.5q-73 57 -121.5 91t-121 74.5t-147.5 60t-155 19.5
q-151 0 -235 -69.5t-84 -202.5q0 -101 22 -235h465q33 0 55 -22t22 -55v-235q0 -33 -22 -55t-55 -22h-411q-5 -120 -64.5 -234.5t-200.5 -239.5q137 41 275.5 45.5t257 -14t235.5 -38t255 -20t271 33.5z" />
    <glyph glyph-name="currency" unicode="&#xa4;" horiz-adv-x="3020" 
d="M2835 179q33 -23 36 -59t-25 -65l-247 -247q-28 -28 -64.5 -25t-59.5 35l-264 375q-310 -233 -701 -233t-701 233l-264 -375q-23 -32 -59.5 -35t-64.5 25l-247 247q-28 29 -25 65t36 59l379 266q-209 293 -209 654t209 654l-379 266q-33 23 -36 59t25 65l247 247
q28 28 64.5 25t59.5 -35l264 -375q310 233 701 233t701 -233l264 375q23 32 59.5 35t64.5 -25l247 -247q28 -29 25 -65t-36 -59l-379 -266q209 -293 209 -654t-209 -654zM1510 516q117 0 219.5 42.5t177 118t117.5 185t43 237.5t-43 237.5t-117.5 185t-177 118t-219.5 42.5
t-219.5 -42.5t-177 -118t-117.5 -185t-43 -237.5t43 -237.5t117.5 -185t177 -118t219.5 -42.5z" />
    <glyph glyph-name="yen" unicode="&#xa5;" horiz-adv-x="2695" 
d="M2598 2440q50 0 71.5 -31t-2.5 -74l-666 -1126h177q43 0 66.5 -23.5t23.5 -66.5v-182q0 -42 -23.5 -65.5t-66.5 -23.5h-391l-42 -71v-68h433q43 0 66.5 -23.5t23.5 -66.5v-182q0 -42 -23.5 -65.5t-66.5 -23.5h-433v-273q0 -31 -22 -53t-52 -22h-636q-31 0 -52.5 22
t-21.5 53v273h-449q-43 0 -66.5 23.5t-23.5 65.5v182q0 43 23.5 66.5t66.5 23.5h449v67l-43 72h-406q-43 0 -66.5 23.5t-23.5 65.5v182q0 43 23.5 66.5t66.5 23.5h189l-677 1126q-25 43 -3.5 74t71.5 31h677q63 0 101 -71l515 -932l486 932q33 71 103 71h624z" />
    <glyph glyph-name="brokenbar" unicode="&#xa6;" horiz-adv-x="681" 
d="M146 2865q0 31 22 53t53 22h239q31 0 53 -22t22 -53v-1064q0 -31 -22 -53t-53 -22h-239q-31 0 -53 22t-22 53v1064zM146 639q0 31 22 53t53 22h239q31 0 53 -22t22 -53v-1064q0 -31 -22 -53t-53 -22h-239q-31 0 -53 22t-22 53v1064z" />
    <glyph glyph-name="section" unicode="&#xa7;" horiz-adv-x="2450" 
d="M2179 297q150 -165 150 -405q0 -151 -54 -282t-154 -229.5t-237 -168.5t-306.5 -106t-360.5 -36q-461 0 -743.5 202.5t-351.5 584.5q-7 38 16 64.5t62 26.5h468q26 0 44.5 -15.5t25.5 -42.5q85 -323 479 -323q193 0 327 78.5t134 210.5q0 107 -155 194q-94 51 -345 140
q-295 104 -430 168q-341 162 -472 389q-199 345 40 898q-152 162 -152 402q0 239 133.5 419t375.5 277t559 97q450 0 731.5 -197.5t351.5 -559.5q7 -38 -16 -65t-62 -27h-468q-25 0 -43.5 15t-25.5 40q-90 296 -468 296q-188 0 -302.5 -77t-114.5 -212q0 -105 153 -185
q94 -48 346 -128q297 -93 433 -152q345 -151 478 -372q206 -344 -46 -919zM768 1381q-46 -276 150 -448q122 -106 391 -208q58 -22 180 -64q171 -61 254 -94q37 290 -170 465q-127 109 -400 208q-59 21 -181 62q-151 51 -224 79z" />
    <glyph glyph-name="dieresis" unicode="&#xa8;" horiz-adv-x="1754" 
d="M431 2097q-138 0 -235 97t-97 235t97 235t235 97t235.5 -97t97.5 -235t-97.5 -235t-235.5 -97zM1325 2097q-138 0 -235 97t-97 235t97 235t235 97t235.5 -97t97.5 -235t-97.5 -235t-235.5 -97z" />
    <glyph glyph-name="copyright" unicode="&#xa9;" horiz-adv-x="2722" 
d="M1361 2460q169 0 330 -44.5t297 -124.5t250 -194.5t194 -250.5t124.5 -296.5t44.5 -329.5q0 -253 -98 -482.5t-264 -395.5t-395.5 -264t-482.5 -98t-482.5 98t-395.5 264t-264 395.5t-98 482.5q0 169 44.5 329.5t124.5 296.5t194 250.5t250 194.5t297 124.5t330 44.5z
M1361 197q207 0 395.5 81t325 218t217.5 326.5t81 397.5t-81 397.5t-217.5 327t-325 218.5t-395.5 81t-395.5 -81t-325 -218.5t-217.5 -327t-81 -397.5t81 -397.5t217.5 -326.5t325 -218t395.5 -81zM1391 1572q-139 0 -224 -98t-85 -255t85 -255t224 -98q81 0 148 40.5
t111 115.5q27 42 67 23l264 -125q44 -23 21 -68q-59 -113 -158.5 -190.5t-213 -112t-239.5 -34.5q-157 0 -295.5 49t-242 138t-163.5 222.5t-60 294.5q0 213 103.5 375.5t275 246t382.5 83.5q125 0 239 -35t213.5 -112.5t158.5 -190.5q24 -45 -21 -67l-264 -126
q-40 -19 -67 23q-44 75 -111 115.5t-148 40.5z" />
    <glyph glyph-name="guillemotleft" unicode="&#xab;" horiz-adv-x="2117" 
d="M891 1633q53 39 102.5 13.5t49.5 -90.5v-231q0 -28 -29 -54l-390 -334l390 -334q29 -26 29 -53v-232q0 -65 -49.5 -90.5t-102.5 13.5l-695 515q-26 20 -26 51v261q0 30 26 50zM1947 1325q0 -28 -29 -54l-390 -334l390 -334q29 -26 29 -53v-232q0 -65 -49.5 -90.5
t-102.5 13.5l-695 515q-26 20 -26 51v261q0 30 26 50l695 515q53 39 102.5 13.5t49.5 -90.5v-231z" />
    <glyph glyph-name="logicalnot" unicode="&#xac;" horiz-adv-x="2194" 
d="M1934 1358q43 0 66.5 -23t23.5 -66v-328v-440q0 -36 -19.5 -55.5t-55.5 -19.5h-365q-36 0 -55.5 19.5t-19.5 55.5v350h-1249q-43 0 -66.5 23.5t-23.5 66.5v328q0 43 23.5 66t66.5 23h1674z" />
    <glyph glyph-name="registered" unicode="&#xae;" horiz-adv-x="2722" 
d="M1361 2460q169 0 330 -44.5t297 -124.5t250 -194.5t194 -250.5t124.5 -296.5t44.5 -329.5q0 -253 -98 -482.5t-264 -395.5t-395.5 -264t-482.5 -98t-482.5 98t-395.5 264t-264 395.5t-98 482.5q0 169 44.5 329.5t124.5 296.5t194 250.5t250 194.5t297 124.5t330 44.5z
M1361 197q207 0 395.5 81t325 218t217.5 326.5t81 397.5t-81 397.5t-217.5 327t-325 218.5t-395.5 81t-395.5 -81t-325 -218.5t-217.5 -327t-81 -397.5t81 -397.5t217.5 -326.5t325 -218t395.5 -81zM1799 1044l227 -408q19 -34 2 -62.5t-55 -28.5h-337q-27 0 -40 25
l-203 389h-170v-373q0 -17 -12 -29t-29 -12h-351q-17 0 -29 12t-12 29v1266q0 17 12 29t29 12h351h266q266 0 415 -131t149 -336q0 -122 -54.5 -221t-158.5 -161zM1223 1574v-296h140q204 0 204 148t-204 148h-140z" />
    <glyph glyph-name="macron" unicode="&#xaf;" horiz-adv-x="1357" 
d="M-10 2499q0 37 26 63t63 26h1199q37 0 63 -26t26 -63v-245q0 -37 -26 -63.5t-63 -26.5h-1199q-37 0 -63 26t-26 64v245z" />
    <glyph glyph-name="degree" unicode="&#xb0;" horiz-adv-x="1147" 
d="M571 1535q-111 0 -214 42.5t-179 114t-121.5 171.5t-45.5 210t45.5 211t121.5 173.5t179 115.5t214 43q148 0 277 -72t206.5 -198t77.5 -273t-77.5 -271.5t-206.5 -195.5t-277 -71zM571 1920q65 0 108 45t43 108q0 65 -43 112t-108 47t-107.5 -47t-42.5 -112
q0 -63 42.5 -108t107.5 -45z" />
    <glyph glyph-name="plusminus" unicode="&#xb1;" horiz-adv-x="2194" 
d="M1934 1787q43 0 66.5 -23t23.5 -66v-328q0 -43 -23.5 -66.5t-66.5 -23.5h-584v-583q0 -43 -23 -66.5t-66 -23.5h-328q-43 0 -66.5 23.5t-23.5 66.5v583h-583q-43 0 -66.5 23.5t-23.5 66.5v328q0 43 23.5 66t66.5 23h583v584q0 43 23.5 66.5t66.5 23.5h328q43 0 66 -23.5
t23 -66.5v-584h584zM1934 507q43 0 66.5 -23t23.5 -66v-328q0 -43 -23.5 -66.5t-66.5 -23.5h-1674q-43 0 -66.5 23.5t-23.5 66.5v328q0 43 23.5 66t66.5 23h1674z" />
    <glyph glyph-name="acute" unicode="&#xb4;" horiz-adv-x="1095" 
d="M188 2063q-39 -14 -72.5 -2.5t-50.5 43.5l-82 169q-15 34 -1.5 70t46.5 55l745 441q35 18 69 5.5t51 -46.5l144 -291q18 -38 6.5 -72.5t-48.5 -48.5z" />
    <glyph glyph-name="paragraph" unicode="&#xb6;" horiz-adv-x="2226" 
d="M2005 2440q31 0 53 -22t22 -53v-2790q0 -31 -22 -53t-53 -22h-60q-31 0 -53 22t-22 53v2658h-864v-2658q0 -31 -22 -53t-53 -22h-60q-31 0 -53 22t-22 53v1369q-140 14 -265 78t-215 162.5t-142.5 230t-52.5 275.5q0 153 59.5 291.5t160 239t239 160t291.5 59.5h1074h60z
" />
    <glyph glyph-name="periodcentered" unicode="&#xb7;" horiz-adv-x="1068" 
d="M534 556q-161 0 -274.5 113.5t-113.5 274.5t113.5 274.5t274.5 113.5t274.5 -113.5t113.5 -274.5t-113.5 -274.5t-274.5 -113.5z" />
    <glyph glyph-name="cedilla" unicode="&#xb8;" horiz-adv-x="2400" 
d="M344 -880q-179 0 -310 75q-70 44 -42 120l19 54q28 83 120 48q82 -38 149 -38q72 0 119 36t47 103q0 24 -7 43t-16.5 32t-28 22t-34 14.5t-42 7.5t-44.5 2.5t-48.5 -2t-47 -4t-47.5 -5.5q-62 -6 -85 15t-1 71l135 326h324l-84 -181q212 28 340.5 -60t128.5 -268
q0 -133 -74 -227.5t-195 -139t-276 -44.5z" />
    <glyph glyph-name="guillemotright" unicode="&#xbb;" horiz-adv-x="2117" 
d="M1017 1118q26 -20 26 -50v-261q0 -31 -26 -51l-695 -515q-52 -39 -102 -13.5t-50 90.5v232q0 27 29 53l390 334l-390 334q-29 26 -29 54v231q0 65 50 90.5t102 -13.5zM1921 1118q26 -20 26 -50v-261q0 -31 -26 -51l-695 -515q-52 -39 -102 -13.5t-50 90.5v232q0 27 29 53
l390 334l-390 334q-29 26 -29 54v231q0 65 50 90.5t102 -13.5z" />
    <glyph glyph-name="onequarter" unicode="&#xbc;" horiz-adv-x="3894" 
d="M2312 2588q13 28 42 38.5t58 -2.5l196 -92q27 -13 37.5 -42t-2.5 -57l-1221 -2620q-13 -28 -42.5 -38.5t-56.5 2.5l-196 91q-29 13 -39.5 42.5t2.5 57.5zM1103 2397q20 0 34 -14.5t14 -34.5v-1506q0 -20 -14 -34.5t-34 -14.5h-419q-20 0 -34 14.5t-14 34.5v1103
l-233 -107q-19 -9 -38.5 -2t-27.5 26l-125 270q-10 20 -2.5 39.5t27.5 27.5l414 184q32 14 70 14h382zM3780 653q28 0 43 -15.5t15 -43.5v-213q0 -28 -15 -43.5t-43 -15.5h-180v-273q0 -20 -14.5 -34.5t-34.5 -14.5h-369q-20 0 -34.5 14.5t-14.5 34.5v273h-790
q-28 0 -43.5 15.5t-15.5 43.5v151q0 14 9 25l800 1013q27 34 70 34h388q20 0 34.5 -14.5t14.5 -34.5v-902h180zM2787 653h346v436z" />
    <glyph glyph-name="onehalf" unicode="&#xbd;" horiz-adv-x="3924" 
d="M2608 2532q27 -13 37.5 -42t-2.5 -57l-1221 -2620q-13 -28 -42.5 -38.5t-56.5 2.5l-196 91q-29 13 -39.5 42.5t2.5 57.5l1222 2620q13 28 42 38.5t58 -2.5zM1151 842q0 -20 -14 -34.5t-34 -14.5h-419q-20 0 -34 14.5t-14 34.5v1103l-233 -107q-19 -9 -38.5 -2t-27.5 26
l-125 270q-10 20 -2.5 39.5t27.5 27.5l414 184q32 14 70 14h382q20 0 34 -14.5t14 -34.5v-1506zM3818 363q20 0 34.5 -15t14.5 -35v-271q0 -20 -14.5 -34.5t-34.5 -14.5h-1234q-28 0 -43.5 15.5t-15.5 43.5v103q0 56 25 73q189 136 328.5 252.5t222.5 201t133 158t67 123.5
t17 99q0 178 -194 178q-69 0 -139 -26.5t-112 -55t-107 -79.5q-12 -9 -23.5 -11t-22 3.5t-19 13t-18.5 20.5l-148 175q-15 18 -16.5 34t6 28t24.5 28q279 263 681 263q289 0 446.5 -139t157.5 -375q0 -202 -129.5 -387t-404.5 -369h518z" />
    <glyph glyph-name="threequarters" unicode="&#xbe;" horiz-adv-x="4185" 
d="M2538 2588q13 28 42 38.5t58 -2.5l196 -92q27 -13 37.5 -42t-2.5 -57l-1221 -2620q-13 -28 -42.5 -38.5t-56.5 2.5l-196 91q-29 13 -39.5 42.5t2.5 57.5zM1212 1622q298 -123 298 -390q0 -147 -88.5 -255t-244.5 -164t-360 -56q-229 0 -394 69.5t-292 193.5
q-18 19 -24.5 29.5t-5.5 26.5t17 35l149 178q11 13 18.5 20.5t18.5 13t22 3.5t24 -11q58 -43 88.5 -63.5t84 -48.5t108 -40t118.5 -12q105 0 170.5 35.5t65.5 100.5q0 70 -88 118t-242 53q-22 2 -35.5 15.5t-13.5 34.5v185q0 21 13.5 34t35.5 15q146 9 219 55.5t73 117.5
q0 60 -50 92.5t-141 32.5q-74 0 -148.5 -25t-116 -49.5t-105.5 -68.5q-28 -15 -44 -8t-39 34l-137 165q-16 19 -17.5 35.5t6 27.5t24.5 27q123 118 300.5 186.5t386.5 68.5q277 0 433.5 -118t156.5 -316q0 -248 -244 -377zM4006 653q28 0 43 -15.5t15 -43.5v-213
q0 -28 -15 -43.5t-43 -15.5h-180v-273q0 -20 -14.5 -34.5t-34.5 -14.5h-369q-20 0 -34.5 14.5t-14.5 34.5v273h-790q-28 0 -43.5 15.5t-15.5 43.5v151q0 14 9 25l800 1013q27 34 70 34h388q20 0 34.5 -14.5t14.5 -34.5v-902h180zM3013 653h346v436z" />
    <glyph glyph-name="questiondown" unicode="&#xbf;" horiz-adv-x="1824" 
d="M884 1933q155 0 264.5 -109.5t109.5 -265.5q0 -155 -109.5 -264.5t-264.5 -109.5q-156 0 -265.5 109.5t-109.5 264.5q0 156 109.5 265.5t265.5 109.5zM774 184q0 -209 266 -209q69 0 129.5 13.5t113.5 41.5t84 48.5t78 56.5q4 3 7 5.5t6 4.5q31 24 59 16.5t68 -56.5
l207 -256q14 -18 17 -34t-6.5 -32t-19.5 -26t-31 -27q-119 -100 -241.5 -169.5t-295.5 -116t-368 -46.5q-144 0 -269 23.5t-229.5 73.5t-179.5 122.5t-116.5 175.5t-41.5 228q0 103 30 190t78.5 150t108 119.5t121 109t114 106.5t91.5 125t49 152q5 32 19.5 51.5t52.5 19.5
h422q37 0 52 -23t15 -73q0 -82 -29 -161.5t-72 -139.5t-94 -123t-94 -114.5t-72 -111t-29 -114.5z" />
    <glyph glyph-name="Agrave" unicode="&#xc0;" horiz-adv-x="2803" 
d="M750 2948q-37 14 -48.5 48.5t6.5 72.5l144 291q17 34 51 46.5t69 -5.5l745 -441q33 -19 46.5 -55t-1.5 -70l-82 -169q-17 -32 -50.5 -43.5t-72.5 2.5zM2778 105q19 -49 0 -77t-68 -28h-667q-74 0 -101 71l-126 331h-883l-125 -331q-28 -71 -103 -71h-616
q-49 0 -68.5 28.5t-0.5 76.5l976 2278q27 67 104 67h619q77 0 104 -67zM1122 900h504l-253 665z" />
    <glyph glyph-name="Aacute" unicode="&#xc1;" horiz-adv-x="2803" 
d="M1081 2666l-82 169q-15 34 -1.5 70t46.5 55l745 441q35 18 69 5.5t51 -46.5l144 -291q18 -38 6.5 -72.5t-48.5 -48.5l-807 -323q-39 -14 -72.5 -2.5t-50.5 43.5zM2778 105q19 -49 0 -77t-68 -28h-667q-74 0 -101 71l-126 331h-883l-125 -331q-28 -71 -103 -71h-616
q-49 0 -68.5 28.5t-0.5 76.5l976 2278q27 67 104 67h619q77 0 104 -67zM1122 900h504l-253 665z" />
    <glyph glyph-name="Acircumflex" unicode="&#xc2;" horiz-adv-x="2803" 
d="M811 2651q-59 0 -73 33t26 77l422 462q47 47 111 47h240q64 0 111 -47l422 -462q40 -44 26 -77t-73 -33h-359q-68 0 -108 60l-139 210l-139 -210q-40 -60 -108 -60h-359zM2778 105q19 -49 0 -77t-68 -28h-667q-74 0 -101 71l-126 331h-883l-125 -331q-28 -71 -103 -71
h-616q-49 0 -68.5 28.5t-0.5 76.5l976 2278q27 67 104 67h619q77 0 104 -67zM1122 900h504l-253 665z" />
    <glyph glyph-name="Atilde" unicode="&#xc3;" horiz-adv-x="2803" 
d="M768 2655q-43 0 -67 24.5t-21 69.5q21 258 152.5 398.5t320.5 140.5q84 0 152.5 -21.5t113.5 -52t84 -61.5t84 -52.5t94 -21.5q71 0 116.5 35t63.5 93q15 42 36.5 61.5t59.5 19.5h109q44 0 68.5 -38t17.5 -106q-32 -242 -160.5 -365.5t-310.5 -123.5q-84 0 -152.5 21.5
t-113.5 52.5t-84 62t-84 52.5t-94 21.5q-68 0 -114.5 -36.5t-64.5 -92.5q-15 -42 -36.5 -61.5t-60.5 -19.5h-109zM2778 105q19 -49 0 -77t-68 -28h-667q-74 0 -101 71l-126 331h-883l-125 -331q-28 -71 -103 -71h-616q-49 0 -68.5 28.5t-0.5 76.5l976 2278q27 67 104 67h619
q77 0 104 -67zM1122 900h504l-253 665z" />
    <glyph glyph-name="Adieresis" unicode="&#xc4;" horiz-adv-x="2803" 
d="M971 2659q-138 0 -235 97t-97 235t97 235t235 97t235.5 -97t97.5 -235t-97.5 -235t-235.5 -97zM1865 2659q-138 0 -235 97t-97 235t97 235t235 97t235.5 -97t97.5 -235t-97.5 -235t-235.5 -97zM2778 105q19 -49 0 -77t-68 -28h-667q-74 0 -101 71l-126 331h-883
l-125 -331q-28 -71 -103 -71h-616q-49 0 -68.5 28.5t-0.5 76.5l976 2278q27 67 104 67h619q77 0 104 -67zM1122 900h504l-253 665z" />
    <glyph glyph-name="Aring" unicode="&#xc5;" horiz-adv-x="2776" 
d="M2778 105q19 -49 0 -77t-68 -28h-667q-74 0 -101 71l-126 331h-883l-125 -331q-28 -71 -103 -71h-616q-49 0 -68.5 28.5t-0.5 76.5l951 2219q-73 73 -114 168t-41 200q0 147 77.5 273t206.5 198t277 72q111 0 214 -43t179 -115.5t121.5 -173.5t45.5 -211
q0 -176 -110 -318zM1377 2880q-77 0 -128 -55.5t-51 -132.5q0 -75 51 -129t128 -54t128 54t51 129q0 77 -51 132.5t-128 55.5zM1122 900h504l-253 665z" />
    <glyph glyph-name="AE" unicode="&#xc6;" horiz-adv-x="3787" 
d="M3566 606q36 0 55.5 -19.5t19.5 -54.5v-457q0 -36 -19.5 -55.5t-55.5 -19.5h-1503h-419q-31 0 -53 22t-22 53v327h-617l-166 -334q-33 -68 -114 -68h-619q-49 0 -64.5 29t9.5 79l1203 2267q35 65 113 65h349h616h1247q36 0 55.5 -19.5t19.5 -55.5v-457q0 -35 -19.5 -54.5
t-55.5 -19.5h-1172v-325h1012q36 0 55.5 -19.5t19.5 -55.5v-398q0 -35 -19.5 -54.5t-55.5 -19.5h-1012v-356h1212zM1200 900h369v743z" />
    <glyph glyph-name="Ccedilla" unicode="&#xc7;" horiz-adv-x="2719" 
d="M2566 678q82 -40 39 -122q-94 -180 -246 -311t-326 -200.5t-372 -90.5l-44 -95q212 28 340.5 -60t128.5 -268q0 -133 -74 -227.5t-195 -139t-276 -44.5q-179 0 -310 75q-70 44 -42 120l19 54q28 83 120 48q82 -38 149 -38q72 0 119 36t47 103q0 24 -7 43t-16.5 32t-28 22
t-34 14.5t-42 7.5t-44.5 2.5t-48.5 -2t-47 -4t-47.5 -5.5q-62 -6 -85 15t-1 71l99 238q-205 19 -389 84.5t-336 176.5t-262.5 258.5t-171.5 339.5t-61 409q0 195 49.5 370t139.5 314t216 251t278.5 186.5t329 114t365.5 39.5q168 0 327.5 -36.5t305.5 -109t269 -191.5
t204 -274q43 -82 -39 -122l-477 -227q-74 -35 -122 41q-79 135 -200.5 209t-267.5 74q-251 0 -405 -177.5t-154 -461.5t154 -461.5t405 -177.5q146 0 267.5 74t200.5 209q48 76 122 41z" />
    <glyph glyph-name="Egrave" unicode="&#xc8;" horiz-adv-x="2324" 
d="M540 2948q-37 14 -48.5 48.5t6.5 72.5l144 291q17 34 51 46.5t69 -5.5l745 -441q33 -19 46.5 -55t-1.5 -70l-82 -169q-17 -32 -50.5 -43.5t-72.5 2.5zM2143 606q36 0 55.5 -19.5t19.5 -54.5v-457q0 -36 -19.5 -55.5t-55.5 -19.5h-1503h-419q-31 0 -53 22t-22 53v2290
q0 31 22 53t53 22h635h1247q36 0 55.5 -19.5t19.5 -55.5v-457q0 -35 -19.5 -54.5t-55.5 -19.5h-1172v-325h1012q36 0 55.5 -19.5t19.5 -55.5v-398q0 -35 -19.5 -54.5t-55.5 -19.5h-1012v-356h1212z" />
    <glyph glyph-name="Eacute" unicode="&#xc9;" horiz-adv-x="2324" 
d="M871 2666l-82 169q-15 34 -1.5 70t46.5 55l745 441q35 18 69 5.5t51 -46.5l144 -291q18 -38 6.5 -72.5t-48.5 -48.5l-807 -323q-39 -14 -72.5 -2.5t-50.5 43.5zM2143 606q36 0 55.5 -19.5t19.5 -54.5v-457q0 -36 -19.5 -55.5t-55.5 -19.5h-1503h-419q-31 0 -53 22t-22 53
v2290q0 31 22 53t53 22h635h1247q36 0 55.5 -19.5t19.5 -55.5v-457q0 -35 -19.5 -54.5t-55.5 -19.5h-1172v-325h1012q36 0 55.5 -19.5t19.5 -55.5v-398q0 -35 -19.5 -54.5t-55.5 -19.5h-1012v-356h1212z" />
    <glyph glyph-name="Ecircumflex" unicode="&#xca;" horiz-adv-x="2324" 
d="M601 2651q-59 0 -73 33t26 77l422 462q47 47 111 47h240q64 0 111 -47l422 -462q40 -44 26 -77t-73 -33h-359q-68 0 -108 60l-139 210l-139 -210q-40 -60 -108 -60h-359zM2143 606q36 0 55.5 -19.5t19.5 -54.5v-457q0 -36 -19.5 -55.5t-55.5 -19.5h-1503h-419
q-31 0 -53 22t-22 53v2290q0 31 22 53t53 22h635h1247q36 0 55.5 -19.5t19.5 -55.5v-457q0 -35 -19.5 -54.5t-55.5 -19.5h-1172v-325h1012q36 0 55.5 -19.5t19.5 -55.5v-398q0 -35 -19.5 -54.5t-55.5 -19.5h-1012v-356h1212z" />
    <glyph glyph-name="Edieresis" unicode="&#xcb;" horiz-adv-x="2324" 
d="M761 2659q-138 0 -235 97t-97 235t97 235t235 97t235.5 -97t97.5 -235t-97.5 -235t-235.5 -97zM1655 2659q-138 0 -235 97t-97 235t97 235t235 97t235.5 -97t97.5 -235t-97.5 -235t-235.5 -97zM2143 606q36 0 55.5 -19.5t19.5 -54.5v-457q0 -36 -19.5 -55.5t-55.5 -19.5
h-1503h-419q-31 0 -53 22t-22 53v2290q0 31 22 53t53 22h635h1247q36 0 55.5 -19.5t19.5 -55.5v-457q0 -35 -19.5 -54.5t-55.5 -19.5h-1172v-325h1012q36 0 55.5 -19.5t19.5 -55.5v-398q0 -35 -19.5 -54.5t-55.5 -19.5h-1012v-356h1212z" />
    <glyph glyph-name="Igrave" unicode="&#xcc;" horiz-adv-x="1077" 
d="M678 2625l-807 323q-37 14 -48.5 48.5t6.5 72.5l144 291q17 34 51 46.5t69 -5.5l745 -441q33 -19 46.5 -55t-1.5 -70l-82 -169q-17 -32 -50.5 -43.5t-72.5 2.5zM146 2365q0 31 22 53t53 22h635q31 0 53 -22t22 -53v-2290q0 -31 -22 -53t-53 -22h-635q-31 0 -53 22t-22 53
v2290z" />
    <glyph glyph-name="Iacute" unicode="&#xcd;" horiz-adv-x="1077" 
d="M325 2625q-39 -14 -72.5 -2.5t-50.5 43.5l-82 169q-15 34 -1.5 70t46.5 55l745 441q35 18 69 5.5t51 -46.5l144 -291q18 -38 6.5 -72.5t-48.5 -48.5zM146 2365q0 31 22 53t53 22h635q31 0 53 -22t22 -53v-2290q0 -31 -22 -53t-53 -22h-635q-31 0 -53 22t-22 53v2290z" />
    <glyph glyph-name="Icircumflex" unicode="&#xce;" horiz-adv-x="1077" 
d="M677 2711l-139 210l-139 -210q-40 -60 -108 -60h-359q-59 0 -73 33t26 77l422 462q47 47 111 47h240q64 0 111 -47l422 -462q40 -44 26 -77t-73 -33h-359q-68 0 -108 60zM146 2365q0 31 22 53t53 22h635q31 0 53 -22t22 -53v-2290q0 -31 -22 -53t-53 -22h-635
q-31 0 -53 22t-22 53v2290z" />
    <glyph glyph-name="Idieresis" unicode="&#xcf;" horiz-adv-x="1077" 
d="M92 2659q-138 0 -235 97t-97 235t97 235t235 97t235.5 -97t97.5 -235t-97.5 -235t-235.5 -97zM986 2659q-138 0 -235 97t-97 235t97 235t235 97t235.5 -97t97.5 -235t-97.5 -235t-235.5 -97zM146 2365q0 31 22 53t53 22h635q31 0 53 -22t22 -53v-2290q0 -31 -22 -53
t-53 -22h-635q-31 0 -53 22t-22 53v2290z" />
    <glyph glyph-name="Eth" unicode="&#xd0;" horiz-adv-x="2784" 
d="M1299 2440q226 0 431 -51.5t375 -154t294.5 -247.5t194 -341.5t69.5 -425.5t-69.5 -425.5t-194 -341.5t-294.5 -247.5t-375 -154t-431 -51.5h-780h-298q-31 0 -53 22t-22 53v905h-198q-43 0 -66.5 23.5t-23.5 65.5v269q0 43 23.5 66.5t66.5 23.5h198v937q0 31 22 53
t53 22h635h443zM1259 606q263 0 423.5 166.5t160.5 447.5t-160.5 447.5t-423.5 166.5h-328v-406h387q43 0 66.5 -23.5t23.5 -66.5v-269q0 -42 -23.5 -65.5t-66.5 -23.5h-387v-374h328z" />
    <glyph glyph-name="Ntilde" unicode="&#xd1;" horiz-adv-x="2838" 
d="M810 2655q-43 0 -67 24.5t-21 69.5q21 258 152.5 398.5t320.5 140.5q84 0 152.5 -21.5t113.5 -52t84 -61.5t84 -52.5t94 -21.5q71 0 116.5 35t63.5 93q15 42 36.5 61.5t59.5 19.5h109q44 0 68.5 -38t17.5 -106q-32 -242 -160.5 -365.5t-310.5 -123.5q-84 0 -152.5 21.5
t-113.5 52.5t-84 62t-84 52.5t-94 21.5q-68 0 -114.5 -36.5t-64.5 -92.5q-15 -42 -36.5 -61.5t-60.5 -19.5h-109zM2603 2440q43 0 66 -23.5t23 -66.5v-2271q0 -43 -23 -66t-66 -23h-206q-66 0 -111 36l-1355 1131v-1067q0 -43 -23.5 -66.5t-66.5 -23.5h-605
q-43 0 -66.5 23.5t-23.5 66.5v2271q0 43 23.5 66t66.5 23h205q67 0 112 -36l1355 -1137v1073q0 43 23 66.5t66 23.5h606z" />
    <glyph glyph-name="Ograve" unicode="&#xd2;" horiz-adv-x="2998" 
d="M1639 2625l-807 323q-37 14 -48.5 48.5t6.5 72.5l144 291q17 34 51 46.5t69 -5.5l745 -441q33 -19 46.5 -55t-1.5 -70l-82 -169q-17 -32 -50.5 -43.5t-72.5 2.5zM1499 2495q227 0 434.5 -55.5t379 -165t298.5 -261.5t197 -355.5t70 -437.5t-70 -437.5t-197 -355.5
t-298.5 -261.5t-379 -165t-434.5 -55.5q-189 0 -365.5 39.5t-329 114t-278.5 186.5t-216 251t-139.5 314t-49.5 370t49.5 370t139.5 314t216 251t278.5 186.5t329 114t365.5 39.5zM1499 581q251 0 405 177.5t154 461.5t-154 461.5t-405 177.5t-405 -177.5t-154 -461.5
t154 -461.5t405 -177.5z" />
    <glyph glyph-name="Oacute" unicode="&#xd3;" horiz-adv-x="2998" 
d="M1286 2625q-39 -14 -72.5 -2.5t-50.5 43.5l-82 169q-15 34 -1.5 70t46.5 55l745 441q35 18 69 5.5t51 -46.5l144 -291q18 -38 6.5 -72.5t-48.5 -48.5zM1499 2495q227 0 434.5 -55.5t379 -165t298.5 -261.5t197 -355.5t70 -437.5t-70 -437.5t-197 -355.5t-298.5 -261.5
t-379 -165t-434.5 -55.5q-189 0 -365.5 39.5t-329 114t-278.5 186.5t-216 251t-139.5 314t-49.5 370t49.5 370t139.5 314t216 251t278.5 186.5t329 114t365.5 39.5zM1499 581q251 0 405 177.5t154 461.5t-154 461.5t-405 177.5t-405 -177.5t-154 -461.5t154 -461.5
t405 -177.5z" />
    <glyph glyph-name="Ocircumflex" unicode="&#xd4;" horiz-adv-x="2998" 
d="M1638 2711l-139 210l-139 -210q-40 -60 -108 -60h-359q-59 0 -73 33t26 77l422 462q47 47 111 47h240q64 0 111 -47l422 -462q40 -44 26 -77t-73 -33h-359q-68 0 -108 60zM1499 2495q227 0 434.5 -55.5t379 -165t298.5 -261.5t197 -355.5t70 -437.5t-70 -437.5
t-197 -355.5t-298.5 -261.5t-379 -165t-434.5 -55.5q-189 0 -365.5 39.5t-329 114t-278.5 186.5t-216 251t-139.5 314t-49.5 370t49.5 370t139.5 314t216 251t278.5 186.5t329 114t365.5 39.5zM1499 581q251 0 405 177.5t154 461.5t-154 461.5t-405 177.5t-405 -177.5
t-154 -461.5t154 -461.5t405 -177.5z" />
    <glyph glyph-name="Otilde" unicode="&#xd5;" horiz-adv-x="2998" 
d="M850 2655q-43 0 -67 24.5t-21 69.5q21 258 152.5 398.5t320.5 140.5q84 0 152.5 -21.5t113.5 -52t84 -61.5t84 -52.5t94 -21.5q71 0 116.5 35t63.5 93q15 42 36.5 61.5t59.5 19.5h109q44 0 68.5 -38t17.5 -106q-32 -242 -160.5 -365.5t-310.5 -123.5q-84 0 -152.5 21.5
t-113.5 52.5t-84 62t-84 52.5t-94 21.5q-68 0 -114.5 -36.5t-64.5 -92.5q-15 -42 -36.5 -61.5t-60.5 -19.5h-109zM1499 2495q227 0 434.5 -55.5t379 -165t298.5 -261.5t197 -355.5t70 -437.5t-70 -437.5t-197 -355.5t-298.5 -261.5t-379 -165t-434.5 -55.5
q-189 0 -365.5 39.5t-329 114t-278.5 186.5t-216 251t-139.5 314t-49.5 370t49.5 370t139.5 314t216 251t278.5 186.5t329 114t365.5 39.5zM1499 581q251 0 405 177.5t154 461.5t-154 461.5t-405 177.5t-405 -177.5t-154 -461.5t154 -461.5t405 -177.5z" />
    <glyph glyph-name="Odieresis" unicode="&#xd6;" horiz-adv-x="2998" 
d="M1053 2659q-138 0 -235 97t-97 235t97 235t235 97t235.5 -97t97.5 -235t-97.5 -235t-235.5 -97zM1947 2659q-138 0 -235 97t-97 235t97 235t235 97t235.5 -97t97.5 -235t-97.5 -235t-235.5 -97zM1499 2495q227 0 434.5 -55.5t379 -165t298.5 -261.5t197 -355.5t70 -437.5
t-70 -437.5t-197 -355.5t-298.5 -261.5t-379 -165t-434.5 -55.5q-189 0 -365.5 39.5t-329 114t-278.5 186.5t-216 251t-139.5 314t-49.5 370t49.5 370t139.5 314t216 251t278.5 186.5t329 114t365.5 39.5zM1499 581q251 0 405 177.5t154 461.5t-154 461.5t-405 177.5
t-405 -177.5t-154 -461.5t154 -461.5t405 -177.5z" />
    <glyph glyph-name="multiply" unicode="&#xd7;" horiz-adv-x="2227" 
d="M1472 1055l554 -554q30 -30 30 -63t-30 -64l-232 -232q-30 -30 -63.5 -30t-63.5 31l-553 554l-555 -555q-30 -30 -63 -30t-63 30l-232 232q-63 65 0 127l554 554l-554 554q-31 30 -30.5 63t30.5 63l232 233q62 62 126 0l554 -554l554 554q30 29 63.5 29.5t63.5 -29.5
l232 -233q30 -30 30 -63t-30 -63z" />
    <glyph glyph-name="Oslash" unicode="&#xd8;" horiz-adv-x="2998" 
d="M2584 2044q294 -336 294 -824q0 -234 -70 -437.5t-197 -355.5t-298.5 -261.5t-379 -165t-434.5 -55.5q-455 0 -801 213l-182 -182q-63 -63 -126 -1l-128 129q-62 62 0 126l159 159q-300 337 -300 831q0 195 49.5 370t139.5 314t216 251t278.5 186.5t329 114t365.5 39.5
q461 0 811 -218l197 197q63 64 126 1l129 -129q63 -63 -1 -125zM940 1220q0 -146 43 -269l820 820q-130 88 -304 88q-251 0 -405 -177.5t-154 -461.5zM1499 581q251 0 405 177.5t154 461.5q0 140 -40 258l-815 -815q128 -82 296 -82z" />
    <glyph glyph-name="Ugrave" unicode="&#xd9;" horiz-adv-x="2788" 
d="M727 2948q-37 14 -48.5 48.5t6.5 72.5l144 291q17 34 51 46.5t69 -5.5l745 -441q33 -19 46.5 -55t-1.5 -70l-82 -169q-17 -32 -50.5 -43.5t-72.5 2.5zM2567 2440q31 0 53 -22t22 -53v-1325q0 -217 -62 -395.5t-173 -304.5t-267.5 -212.5t-343.5 -127t-402 -40.5
t-402 40.5t-343.5 127t-267.5 212.5t-173 304.5t-62 395.5v1325q0 31 22 53t53 22h635q31 0 53 -22t22 -53v-1156q0 -295 114 -454t349 -159t349 159t114 454v1156q0 31 22 53t53 22h635z" />
    <glyph glyph-name="Uacute" unicode="&#xda;" horiz-adv-x="2788" 
d="M1058 2666l-82 169q-15 34 -1.5 70t46.5 55l745 441q35 18 69 5.5t51 -46.5l144 -291q18 -38 6.5 -72.5t-48.5 -48.5l-807 -323q-39 -14 -72.5 -2.5t-50.5 43.5zM2567 2440q31 0 53 -22t22 -53v-1325q0 -217 -62 -395.5t-173 -304.5t-267.5 -212.5t-343.5 -127
t-402 -40.5t-402 40.5t-343.5 127t-267.5 212.5t-173 304.5t-62 395.5v1325q0 31 22 53t53 22h635q31 0 53 -22t22 -53v-1156q0 -295 114 -454t349 -159t349 159t114 454v1156q0 31 22 53t53 22h635z" />
    <glyph glyph-name="Ucircumflex" unicode="&#xdb;" horiz-adv-x="2788" 
d="M788 2651q-59 0 -73 33t26 77l422 462q47 47 111 47h240q64 0 111 -47l422 -462q40 -44 26 -77t-73 -33h-359q-68 0 -108 60l-139 210l-139 -210q-40 -60 -108 -60h-359zM2567 2440q31 0 53 -22t22 -53v-1325q0 -217 -62 -395.5t-173 -304.5t-267.5 -212.5t-343.5 -127
t-402 -40.5t-402 40.5t-343.5 127t-267.5 212.5t-173 304.5t-62 395.5v1325q0 31 22 53t53 22h635q31 0 53 -22t22 -53v-1156q0 -295 114 -454t349 -159t349 159t114 454v1156q0 31 22 53t53 22h635z" />
    <glyph glyph-name="Udieresis" unicode="&#xdc;" horiz-adv-x="2788" 
d="M948 2659q-138 0 -235 97t-97 235t97 235t235 97t235.5 -97t97.5 -235t-97.5 -235t-235.5 -97zM1842 2659q-138 0 -235 97t-97 235t97 235t235 97t235.5 -97t97.5 -235t-97.5 -235t-235.5 -97zM2567 2440q31 0 53 -22t22 -53v-1325q0 -217 -62 -395.5t-173 -304.5
t-267.5 -212.5t-343.5 -127t-402 -40.5t-402 40.5t-343.5 127t-267.5 212.5t-173 304.5t-62 395.5v1325q0 31 22 53t53 22h635q31 0 53 -22t22 -53v-1156q0 -295 114 -454t349 -159t349 159t114 454v1156q0 31 22 53t53 22h635z" />
    <glyph glyph-name="Yacute" unicode="&#xdd;" horiz-adv-x="2695" 
d="M1020 2666l-82 169q-15 34 -1.5 70t46.5 55l745 441q35 18 69 5.5t51 -46.5l144 -291q18 -38 6.5 -72.5t-48.5 -48.5l-807 -323q-39 -14 -72.5 -2.5t-50.5 43.5zM2598 2440q50 0 71.5 -31t-2.5 -74l-922 -1558v-702q0 -31 -22 -53t-52 -22h-636q-31 0 -52.5 22t-21.5 53
v701l-937 1559q-25 43 -3.5 74t71.5 31h677q63 0 101 -71l515 -932l486 932q33 71 103 71h624z" />
    <glyph glyph-name="Thorn" unicode="&#xde;" horiz-adv-x="2434" 
d="M1364 2079q242 0 437 -67t321 -183.5t193.5 -272.5t67.5 -336t-67.5 -336t-193.5 -272.5t-321 -183.5t-437 -67h-433v-286q0 -31 -22 -53t-53 -22h-635q-31 0 -53 22t-22 53v2290q0 31 22 53t53 22h635q31 0 53 -22t22 -53v-286h433zM1224 938q94 0 164.5 23.5t111 64.5
t59.5 89.5t19 104.5t-19 104.5t-59.5 89.5t-111 64.5t-164.5 23.5h-293v-564h293z" />
    <glyph glyph-name="germandbls" unicode="&#xdf;" horiz-adv-x="2601" 
d="M1914 1438q0 -47 22 -87t59.5 -70.5t86 -59.5t102 -60.5t107 -67t102 -84t86 -107t59.5 -141t22 -180.5q0 -134 -41 -242.5t-111.5 -181t-168.5 -121t-207.5 -70t-232.5 -21.5q-208 0 -402 58.5t-294 134.5q-35 27 -43.5 54t6.5 65l116 298q34 87 103 47q71 -39 91 -50
t77.5 -39.5t88 -37.5t77.5 -19t91 -10q77 0 121.5 27t44.5 75q0 36 -29 69t-76.5 58.5t-108 58t-123.5 65t-123.5 81.5t-108 106t-76.5 140.5t-29 181.5q0 77 18 144t43.5 117t51 97.5t43.5 105t18 120.5q0 128 -66.5 204t-171.5 76t-173.5 -77.5t-68.5 -218.5v-1801
q0 -36 -19.5 -55.5t-55.5 -19.5h-600q-36 0 -55.5 19.5t-19.5 55.5v1826q0 252 125 437t348 280.5t519 95.5q218 0 394 -54t293 -150.5t179.5 -231t62.5 -296.5q0 -98 -24 -186t-52.5 -140.5t-52.5 -112t-24 -105.5z" />
    <glyph glyph-name="agrave" unicode="&#xe0;" horiz-adv-x="2081" 
d="M380 2386q-37 14 -48.5 48.5t6.5 72.5l144 291q17 34 51 46.5t69 -5.5l745 -441q33 -19 46.5 -55t-1.5 -70l-82 -169q-17 -32 -50.5 -43.5t-72.5 2.5zM2007 174q31 -92 -57 -117l-433 -114q-70 -18 -112 26q-95 95 -153 222q-101 -115 -243.5 -180.5t-317.5 -65.5
q-147 0 -265.5 47.5t-192.5 126.5t-113 178t-39 207q0 149 67.5 274t206.5 216.5t350 121t498 -13.5v10q0 144 -71 201.5t-242 57.5q-113 0 -207.5 -20.5t-215.5 -63.5q-84 -28 -118 47l-142 301q-17 31 -11.5 55.5t18.5 37.5t36 26q148 79 371.5 129t446.5 50
q856 0 856 -787v-502q0 -151 19 -244t64 -226zM924 428q112 0 195.5 83.5t83.5 202.5v21q-118 29 -208 29.5t-142.5 -23t-79 -62t-26.5 -90.5q0 -72 50 -116.5t127 -44.5z" />
    <glyph glyph-name="aacute" unicode="&#xe1;" horiz-adv-x="2081" 
d="M711 2104l-82 169q-15 34 -1.5 70t46.5 55l745 441q35 18 69 5.5t51 -46.5l144 -291q18 -38 6.5 -72.5t-48.5 -48.5l-807 -323q-39 -14 -72.5 -2.5t-50.5 43.5zM2007 174q31 -92 -57 -117l-433 -114q-70 -18 -112 26q-95 95 -153 222q-101 -115 -243.5 -180.5
t-317.5 -65.5q-147 0 -265.5 47.5t-192.5 126.5t-113 178t-39 207q0 149 67.5 274t206.5 216.5t350 121t498 -13.5v10q0 144 -71 201.5t-242 57.5q-113 0 -207.5 -20.5t-215.5 -63.5q-84 -28 -118 47l-142 301q-17 31 -11.5 55.5t18.5 37.5t36 26q148 79 371.5 129t446.5 50
q856 0 856 -787v-502q0 -151 19 -244t64 -226zM924 428q112 0 195.5 83.5t83.5 202.5v21q-118 29 -208 29.5t-142.5 -23t-79 -62t-26.5 -90.5q0 -72 50 -116.5t127 -44.5z" />
    <glyph glyph-name="acircumflex" unicode="&#xe2;" horiz-adv-x="2081" 
d="M441 2089q-59 0 -73 33t26 77l422 462q47 47 111 47h240q64 0 111 -47l422 -462q40 -44 26 -77t-73 -33h-359q-68 0 -108 60l-139 210l-139 -210q-40 -60 -108 -60h-359zM2007 174q31 -92 -57 -117l-433 -114q-70 -18 -112 26q-95 95 -153 222q-101 -115 -243.5 -180.5
t-317.5 -65.5q-147 0 -265.5 47.5t-192.5 126.5t-113 178t-39 207q0 149 67.5 274t206.5 216.5t350 121t498 -13.5v10q0 144 -71 201.5t-242 57.5q-113 0 -207.5 -20.5t-215.5 -63.5q-84 -28 -118 47l-142 301q-17 31 -11.5 55.5t18.5 37.5t36 26q148 79 371.5 129t446.5 50
q856 0 856 -787v-502q0 -151 19 -244t64 -226zM924 428q112 0 195.5 83.5t83.5 202.5v21q-118 29 -208 29.5t-142.5 -23t-79 -62t-26.5 -90.5q0 -72 50 -116.5t127 -44.5z" />
    <glyph glyph-name="atilde" unicode="&#xe3;" horiz-adv-x="2081" 
d="M398 2093q-43 0 -67 24.5t-21 69.5q21 258 152.5 398.5t320.5 140.5q84 0 152.5 -21.5t113.5 -52t84 -61.5t84 -52.5t94 -21.5q71 0 116.5 35t63.5 93q15 42 36.5 61.5t59.5 19.5h109q44 0 68.5 -38t17.5 -106q-32 -242 -160.5 -365.5t-310.5 -123.5q-84 0 -152.5 21.5
t-113.5 52.5t-84 62t-84 52.5t-94 21.5q-68 0 -114.5 -36.5t-64.5 -92.5q-15 -42 -36.5 -61.5t-60.5 -19.5h-109zM2007 174q31 -92 -57 -117l-433 -114q-70 -18 -112 26q-95 95 -153 222q-101 -115 -243.5 -180.5t-317.5 -65.5q-147 0 -265.5 47.5t-192.5 126.5t-113 178
t-39 207q0 149 67.5 274t206.5 216.5t350 121t498 -13.5v10q0 144 -71 201.5t-242 57.5q-113 0 -207.5 -20.5t-215.5 -63.5q-84 -28 -118 47l-142 301q-17 31 -11.5 55.5t18.5 37.5t36 26q148 79 371.5 129t446.5 50q856 0 856 -787v-502q0 -151 19 -244t64 -226zM924 428
q112 0 195.5 83.5t83.5 202.5v21q-118 29 -208 29.5t-142.5 -23t-79 -62t-26.5 -90.5q0 -72 50 -116.5t127 -44.5z" />
    <glyph glyph-name="adieresis" unicode="&#xe4;" horiz-adv-x="2081" 
d="M601 2097q-138 0 -235 97t-97 235t97 235t235 97t235.5 -97t97.5 -235t-97.5 -235t-235.5 -97zM1495 2097q-138 0 -235 97t-97 235t97 235t235 97t235.5 -97t97.5 -235t-97.5 -235t-235.5 -97zM2007 174q31 -92 -57 -117l-433 -114q-70 -18 -112 26q-95 95 -153 222
q-101 -115 -243.5 -180.5t-317.5 -65.5q-147 0 -265.5 47.5t-192.5 126.5t-113 178t-39 207q0 149 67.5 274t206.5 216.5t350 121t498 -13.5v10q0 144 -71 201.5t-242 57.5q-113 0 -207.5 -20.5t-215.5 -63.5q-84 -28 -118 47l-142 301q-17 31 -11.5 55.5t18.5 37.5t36 26
q148 79 371.5 129t446.5 50q856 0 856 -787v-502q0 -151 19 -244t64 -226zM924 428q112 0 195.5 83.5t83.5 202.5v21q-118 29 -208 29.5t-142.5 -23t-79 -62t-26.5 -90.5q0 -72 50 -116.5t127 -44.5z" />
    <glyph glyph-name="aring" unicode="&#xe5;" horiz-adv-x="2081" 
d="M2007 174q31 -92 -57 -117l-433 -114q-70 -18 -112 26q-95 95 -153 222q-101 -115 -243.5 -180.5t-317.5 -65.5q-147 0 -265.5 47.5t-192.5 126.5t-113 178t-39 207q0 149 67.5 274t206.5 216.5t350 121t498 -13.5v10q0 144 -71 201.5t-242 57.5q-113 0 -207.5 -20.5
t-215.5 -63.5q-84 -28 -118 47l-142 301q-17 31 -11.5 55.5t18.5 37.5t36 26q125 66 305.5 113t371.5 61q-188 41 -314.5 187.5t-126.5 337.5q0 147 77.5 273t206.5 198t277 72q111 0 214 -43t179 -115.5t121.5 -173.5t45.5 -211q0 -189 -123.5 -334.5t-308.5 -188.5
q749 -48 749 -784v-502q0 -151 19 -244t64 -226zM868 2453q0 -75 51 -129t128 -54t128 54t51 129q0 77 -51 132.5t-128 55.5t-128 -55.5t-51 -132.5zM924 428q112 0 195.5 83.5t83.5 202.5v21q-118 29 -208 29.5t-142.5 -23t-79 -62t-26.5 -90.5q0 -72 50 -116.5t127 -44.5z
" />
    <glyph glyph-name="ae" unicode="&#xe6;" horiz-adv-x="3371" 
d="M3093 486q45 -22 53 -53.5t-13 -68.5q-41 -83 -124.5 -158t-196 -133.5t-257.5 -93t-298 -34.5q-265 0 -485 92.5t-362 268.5q-113 -164 -300 -262.5t-424 -98.5q-118 0 -216 31t-165 84.5t-114 125t-68.5 152t-21.5 166.5q0 119 41.5 223t127 190.5t217 139t311 68
t408.5 -22.5v10q0 143 -74 201t-247 58q-112 0 -202.5 -20.5t-212.5 -63.5q-83 -28 -119 47l-141 301q-17 31 -12 55.5t18 37.5t37 26q148 79 371 129t447 50q358 0 538 -186q275 186 662 186q165 0 311 -38.5t273 -123t218.5 -209.5t144 -307t52.5 -405h-1361
q14 -94 52 -165.5t89.5 -112.5t108.5 -60.5t118 -19.5q110 0 184.5 34.5t123.5 108.5q29 41 52 50t70 -10zM2259 1450q-114 0 -201 -67t-127 -194h621q-35 135 -112.5 198t-180.5 63zM927 428q111 0 195 83.5t84 202.5v21q-118 29 -207.5 29.5t-142 -23t-78.5 -62t-26 -90.5
q0 -72 48.5 -116.5t126.5 -44.5z" />
    <glyph glyph-name="ccedilla" unicode="&#xe7;" horiz-adv-x="2134" 
d="M1989 512q43 -22 51.5 -52t-11.5 -70q-22 -46 -61 -95.5t-102 -104.5t-139.5 -100.5t-181.5 -82t-221 -51.5l-45 -97q212 28 340.5 -60t128.5 -268q0 -133 -74 -227.5t-195 -139t-276 -44.5q-179 0 -310 75q-70 44 -42 120l19 54q28 83 120 48q82 -38 149 -38
q72 0 119 36t47 103q0 24 -7 43t-16.5 32t-28 22t-34 14.5t-42 7.5t-44.5 2.5t-48.5 -2t-47 -4t-47.5 -5.5q-62 -6 -85 15t-1 71l99 240q-187 22 -348.5 97.5t-286 197t-196 299.5t-71.5 391q0 189 56.5 350.5t155.5 278.5t232.5 200t289 124t323.5 41q145 0 276.5 -31
t226 -78.5t172.5 -108.5t124 -117.5t72 -109.5q20 -40 11.5 -70t-51.5 -51l-419 -206q-24 -12 -42 -14t-33 7t-24 18.5t-23 28.5q-30 43 -56.5 70t-76.5 49t-114 22q-156 0 -243 -103.5t-87 -299.5q0 -195 87 -298.5t243 -103.5q92 0 146.5 36.5t100.5 103.5q14 19 23.5 29
t24 18.5t32.5 6.5t42 -14z" />
    <glyph glyph-name="egrave" unicode="&#xe8;" horiz-adv-x="2268" 
d="M459 2386q-37 14 -48.5 48.5t6.5 72.5l144 291q17 34 51 46.5t69 -5.5l745 -441q33 -19 46.5 -55t-1.5 -70l-82 -169q-17 -32 -50.5 -43.5t-72.5 2.5zM1990 486q45 -22 53 -53.5t-13 -68.5q-41 -83 -124.5 -158t-196 -133.5t-257.5 -93t-298 -34.5q-176 0 -334 41
t-289.5 123.5t-227.5 200t-149 279t-53 350.5q0 158 38.5 297t108 247.5t167 194t216.5 141.5t254.5 85t282.5 29q165 0 311 -38.5t273 -123t218.5 -209.5t144 -307t52.5 -405h-1361q14 -94 52 -165.5t89.5 -112.5t108.5 -60.5t118 -19.5q110 0 184.5 34.5t123.5 108.5
q29 41 52 50t70 -10zM1156 1450q-114 0 -201 -67t-127 -194h621q-35 135 -112.5 198t-180.5 63z" />
    <glyph glyph-name="eacute" unicode="&#xe9;" horiz-adv-x="2268" 
d="M790 2104l-82 169q-15 34 -1.5 70t46.5 55l745 441q35 18 69 5.5t51 -46.5l144 -291q18 -38 6.5 -72.5t-48.5 -48.5l-807 -323q-39 -14 -72.5 -2.5t-50.5 43.5zM1990 486q45 -22 53 -53.5t-13 -68.5q-41 -83 -124.5 -158t-196 -133.5t-257.5 -93t-298 -34.5
q-176 0 -334 41t-289.5 123.5t-227.5 200t-149 279t-53 350.5q0 158 38.5 297t108 247.5t167 194t216.5 141.5t254.5 85t282.5 29q165 0 311 -38.5t273 -123t218.5 -209.5t144 -307t52.5 -405h-1361q14 -94 52 -165.5t89.5 -112.5t108.5 -60.5t118 -19.5q110 0 184.5 34.5
t123.5 108.5q29 41 52 50t70 -10zM1156 1450q-114 0 -201 -67t-127 -194h621q-35 135 -112.5 198t-180.5 63z" />
    <glyph glyph-name="ecircumflex" unicode="&#xea;" horiz-adv-x="2268" 
d="M520 2089q-59 0 -73 33t26 77l422 462q47 47 111 47h240q64 0 111 -47l422 -462q40 -44 26 -77t-73 -33h-359q-68 0 -108 60l-139 210l-139 -210q-40 -60 -108 -60h-359zM1990 486q45 -22 53 -53.5t-13 -68.5q-41 -83 -124.5 -158t-196 -133.5t-257.5 -93t-298 -34.5
q-176 0 -334 41t-289.5 123.5t-227.5 200t-149 279t-53 350.5q0 158 38.5 297t108 247.5t167 194t216.5 141.5t254.5 85t282.5 29q165 0 311 -38.5t273 -123t218.5 -209.5t144 -307t52.5 -405h-1361q14 -94 52 -165.5t89.5 -112.5t108.5 -60.5t118 -19.5q110 0 184.5 34.5
t123.5 108.5q29 41 52 50t70 -10zM1156 1450q-114 0 -201 -67t-127 -194h621q-35 135 -112.5 198t-180.5 63z" />
    <glyph glyph-name="edieresis" unicode="&#xeb;" horiz-adv-x="2268" 
d="M680 2097q-138 0 -235 97t-97 235t97 235t235 97t235.5 -97t97.5 -235t-97.5 -235t-235.5 -97zM1574 2097q-138 0 -235 97t-97 235t97 235t235 97t235.5 -97t97.5 -235t-97.5 -235t-235.5 -97zM1990 486q45 -22 53 -53.5t-13 -68.5q-41 -83 -124.5 -158t-196 -133.5
t-257.5 -93t-298 -34.5q-176 0 -334 41t-289.5 123.5t-227.5 200t-149 279t-53 350.5q0 158 38.5 297t108 247.5t167 194t216.5 141.5t254.5 85t282.5 29q165 0 311 -38.5t273 -123t218.5 -209.5t144 -307t52.5 -405h-1361q14 -94 52 -165.5t89.5 -112.5t108.5 -60.5
t118 -19.5q110 0 184.5 34.5t123.5 108.5q29 41 52 50t70 -10zM1156 1450q-114 0 -201 -67t-127 -194h621q-35 135 -112.5 198t-180.5 63z" />
    <glyph glyph-name="igrave" unicode="&#xec;" horiz-adv-x="1042" 
d="M662 2063l-807 323q-37 14 -48.5 48.5t6.5 72.5l144 291q17 34 51 46.5t69 -5.5l745 -441q33 -19 46.5 -55t-1.5 -70l-82 -169q-17 -32 -50.5 -43.5t-72.5 2.5zM146 1804q0 35 19.5 54.5t55.5 19.5h600q36 0 55.5 -19.5t19.5 -54.5v-1729q0 -36 -19.5 -55.5t-55.5 -19.5
h-600q-36 0 -55.5 19.5t-19.5 55.5v1729z" />
    <glyph glyph-name="iacute" unicode="&#xed;" horiz-adv-x="1042" 
d="M309 2063q-39 -14 -72.5 -2.5t-50.5 43.5l-82 169q-15 34 -1.5 70t46.5 55l745 441q35 18 69 5.5t51 -46.5l144 -291q18 -38 6.5 -72.5t-48.5 -48.5zM146 1804q0 35 19.5 54.5t55.5 19.5h600q36 0 55.5 -19.5t19.5 -54.5v-1729q0 -36 -19.5 -55.5t-55.5 -19.5h-600
q-36 0 -55.5 19.5t-19.5 55.5v1729z" />
    <glyph glyph-name="icircumflex" unicode="&#xee;" horiz-adv-x="1042" 
d="M661 2149l-139 210l-139 -210q-40 -60 -108 -60h-359q-59 0 -73 33t26 77l422 462q47 47 111 47h240q64 0 111 -47l422 -462q40 -44 26 -77t-73 -33h-359q-68 0 -108 60zM146 1804q0 35 19.5 54.5t55.5 19.5h600q36 0 55.5 -19.5t19.5 -54.5v-1729q0 -36 -19.5 -55.5
t-55.5 -19.5h-600q-36 0 -55.5 19.5t-19.5 55.5v1729z" />
    <glyph glyph-name="idieresis" unicode="&#xef;" horiz-adv-x="1042" 
d="M76 2097q-138 0 -235 97t-97 235t97 235t235 97t235.5 -97t97.5 -235t-97.5 -235t-235.5 -97zM970 2097q-138 0 -235 97t-97 235t97 235t235 97t235.5 -97t97.5 -235t-97.5 -235t-235.5 -97zM146 1804q0 35 19.5 54.5t55.5 19.5h600q36 0 55.5 -19.5t19.5 -54.5v-1729
q0 -36 -19.5 -55.5t-55.5 -19.5h-600q-36 0 -55.5 19.5t-19.5 55.5v1729z" />
    <glyph glyph-name="eth" unicode="&#xf0;" horiz-adv-x="2258" 
d="M1194 2509q176 -82 321 -193.5t243.5 -227t173.5 -249t117.5 -253t69 -247.5t35 -223.5t8.5 -188.5q0 -187 -50.5 -345.5t-142.5 -275t-218 -198.5t-278.5 -122.5t-323.5 -40.5q-305 0 -542.5 109t-371.5 313t-134 473q0 200 74.5 369t203.5 283.5t305.5 178.5t377.5 64
q143 0 269 -51q-131 227 -381 383l-111 -200q-17 -31 -44.5 -38t-58.5 11l-92 53q-64 38 -28 102l105 189q-77 32 -162 60q-39 13 -54 47t3 69l126 270q26 52 93 36q113 -25 226 -62l99 179q37 63 102 27l93 -54q64 -35 27 -102zM1149 537q121 0 199.5 88.5t78.5 214.5
t-78.5 214.5t-199.5 88.5q-122 0 -200 -88t-78 -215t78 -215t200 -88z" />
    <glyph glyph-name="ntilde" unicode="&#xf1;" 
d="M584 2093q-43 0 -67 24.5t-21 69.5q21 258 152.5 398.5t320.5 140.5q84 0 152.5 -21.5t113.5 -52t84 -61.5t84 -52.5t94 -21.5q71 0 116.5 35t63.5 93q15 42 36.5 61.5t59.5 19.5h109q44 0 68.5 -38t17.5 -106q-32 -242 -160.5 -365.5t-310.5 -123.5q-84 0 -152.5 21.5
t-113.5 52.5t-84 62t-84 52.5t-94 21.5q-68 0 -114.5 -36.5t-64.5 -92.5q-15 -42 -36.5 -61.5t-60.5 -19.5h-109zM1548 1918q633 0 633 -684v-1159q0 -36 -19.5 -55.5t-54.5 -19.5h-601q-36 0 -55.5 19.5t-19.5 55.5v915q0 172 -57 247t-174 75q-136 0 -220 -98t-84 -275
v-864q0 -36 -19.5 -55.5t-55.5 -19.5h-600q-36 0 -55.5 19.5t-19.5 55.5v1729q0 35 19.5 54.5t55.5 19.5h600q36 0 55.5 -19.5t19.5 -54.5v-206q93 148 258.5 234t393.5 86z" />
    <glyph glyph-name="ograve" unicode="&#xf2;" horiz-adv-x="2378" 
d="M1329 2063l-807 323q-37 14 -48.5 48.5t6.5 72.5l144 291q17 34 51 46.5t69 -5.5l745 -441q33 -19 46.5 -55t-1.5 -70l-82 -169q-17 -32 -50.5 -43.5t-72.5 2.5zM1189 1933q222 0 417.5 -65.5t345.5 -188.5t237.5 -314t87.5 -426t-87.5 -426t-237.5 -314t-345.5 -188.5
t-417.5 -65.5t-417.5 65.5t-345.5 188.5t-237.5 314t-87.5 426t87.5 426t237.5 314t345.5 188.5t417.5 65.5zM1189 537q138 0 228 105.5t90 296.5t-90 297t-228 106t-228 -106t-90 -297t90 -296.5t228 -105.5z" />
    <glyph glyph-name="oacute" unicode="&#xf3;" horiz-adv-x="2378" 
d="M976 2063q-39 -14 -72.5 -2.5t-50.5 43.5l-82 169q-15 34 -1.5 70t46.5 55l745 441q35 18 69 5.5t51 -46.5l144 -291q18 -38 6.5 -72.5t-48.5 -48.5zM1189 1933q222 0 417.5 -65.5t345.5 -188.5t237.5 -314t87.5 -426t-87.5 -426t-237.5 -314t-345.5 -188.5t-417.5 -65.5
t-417.5 65.5t-345.5 188.5t-237.5 314t-87.5 426t87.5 426t237.5 314t345.5 188.5t417.5 65.5zM1189 537q138 0 228 105.5t90 296.5t-90 297t-228 106t-228 -106t-90 -297t90 -296.5t228 -105.5z" />
    <glyph glyph-name="ocircumflex" unicode="&#xf4;" horiz-adv-x="2378" 
d="M1328 2149l-139 210l-139 -210q-40 -60 -108 -60h-359q-59 0 -73 33t26 77l422 462q47 47 111 47h240q64 0 111 -47l422 -462q40 -44 26 -77t-73 -33h-359q-68 0 -108 60zM1189 1933q222 0 417.5 -65.5t345.5 -188.5t237.5 -314t87.5 -426t-87.5 -426t-237.5 -314
t-345.5 -188.5t-417.5 -65.5t-417.5 65.5t-345.5 188.5t-237.5 314t-87.5 426t87.5 426t237.5 314t345.5 188.5t417.5 65.5zM1189 537q138 0 228 105.5t90 296.5t-90 297t-228 106t-228 -106t-90 -297t90 -296.5t228 -105.5z" />
    <glyph glyph-name="otilde" unicode="&#xf5;" horiz-adv-x="2378" 
d="M540 2093q-43 0 -67 24.5t-21 69.5q21 258 152.5 398.5t320.5 140.5q84 0 152.5 -21.5t113.5 -52t84 -61.5t84 -52.5t94 -21.5q71 0 116.5 35t63.5 93q15 42 36.5 61.5t59.5 19.5h109q44 0 68.5 -38t17.5 -106q-32 -242 -160.5 -365.5t-310.5 -123.5q-84 0 -152.5 21.5
t-113.5 52.5t-84 62t-84 52.5t-94 21.5q-68 0 -114.5 -36.5t-64.5 -92.5q-15 -42 -36.5 -61.5t-60.5 -19.5h-109zM1189 1933q222 0 417.5 -65.5t345.5 -188.5t237.5 -314t87.5 -426t-87.5 -426t-237.5 -314t-345.5 -188.5t-417.5 -65.5t-417.5 65.5t-345.5 188.5t-237.5 314
t-87.5 426t87.5 426t237.5 314t345.5 188.5t417.5 65.5zM1189 537q138 0 228 105.5t90 296.5t-90 297t-228 106t-228 -106t-90 -297t90 -296.5t228 -105.5z" />
    <glyph glyph-name="odieresis" unicode="&#xf6;" horiz-adv-x="2378" 
d="M743 2097q-138 0 -235 97t-97 235t97 235t235 97t235.5 -97t97.5 -235t-97.5 -235t-235.5 -97zM1637 2097q-138 0 -235 97t-97 235t97 235t235 97t235.5 -97t97.5 -235t-97.5 -235t-235.5 -97zM1189 1933q222 0 417.5 -65.5t345.5 -188.5t237.5 -314t87.5 -426
t-87.5 -426t-237.5 -314t-345.5 -188.5t-417.5 -65.5t-417.5 65.5t-345.5 188.5t-237.5 314t-87.5 426t87.5 426t237.5 314t345.5 188.5t417.5 65.5zM1189 537q138 0 228 105.5t90 296.5t-90 297t-228 106t-228 -106t-90 -297t90 -296.5t228 -105.5z" />
    <glyph glyph-name="divide" unicode="&#xf7;" horiz-adv-x="2194" 
d="M1934 1358q43 0 66.5 -23t23.5 -66v-328q0 -43 -23.5 -66.5t-66.5 -23.5h-560q28 -61 28 -128q0 -125 -88 -213t-213 -88t-213.5 88t-88.5 213q0 67 28 128h-567q-43 0 -66.5 23.5t-23.5 66.5v328q0 43 23.5 66t66.5 23h572q-33 64 -33 137q0 125 88.5 213.5t213.5 88.5
t213 -88.5t88 -213.5q0 -73 -33 -137h565z" />
    <glyph glyph-name="oslash" unicode="&#xf8;" horiz-adv-x="2392" 
d="M2066 1572q218 -256 218 -633q0 -235 -87.5 -426t-237.5 -314t-345.5 -188.5t-417.5 -65.5q-343 0 -609 149l-202 -202q-30 -31 -63 -31t-62 30l-129 129q-63 61 1 125l179 179q-203 253 -203 615q0 235 87.5 426t237.5 314t345.5 188.5t417.5 65.5q329 0 587 -136
l151 151q64 62 126 0l129 -129q62 -62 -1 -125zM804 939q0 -58 8 -114l555 556q-76 35 -171 35q-82 0 -151 -27.5t-124 -83t-86 -149.5t-31 -217zM1196 463q82 0 151.5 27.5t124 83t85.5 149t31 216.5q0 79 -12 143l-573 -572q84 -47 193 -47z" />
    <glyph glyph-name="ugrave" unicode="&#xf9;" 
d="M497 2386q-37 14 -48.5 48.5t6.5 72.5l144 291q17 34 51 46.5t69 -5.5l745 -441q33 -19 46.5 -55t-1.5 -70l-82 -169q-17 -32 -50.5 -43.5t-72.5 2.5zM2106 1878q36 0 55.5 -19.5t19.5 -54.5v-1729q0 -36 -19.5 -55.5t-55.5 -19.5h-600q-36 0 -55.5 19.5t-19.5 55.5v205
q-93 -148 -258.5 -234t-393.5 -86q-633 0 -633 684v1159q0 36 19.5 55.5t54.5 19.5h601q36 0 55.5 -19.5t19.5 -55.5v-915q0 -172 57 -247t174 -75q136 0 220 98t84 275v865q0 35 19.5 54.5t55.5 19.5h600z" />
    <glyph glyph-name="uacute" unicode="&#xfa;" 
d="M828 2104l-82 169q-15 34 -1.5 70t46.5 55l745 441q35 18 69 5.5t51 -46.5l144 -291q18 -38 6.5 -72.5t-48.5 -48.5l-807 -323q-39 -14 -72.5 -2.5t-50.5 43.5zM2106 1878q36 0 55.5 -19.5t19.5 -54.5v-1729q0 -36 -19.5 -55.5t-55.5 -19.5h-600q-36 0 -55.5 19.5
t-19.5 55.5v205q-93 -148 -258.5 -234t-393.5 -86q-633 0 -633 684v1159q0 36 19.5 55.5t54.5 19.5h601q36 0 55.5 -19.5t19.5 -55.5v-915q0 -172 57 -247t174 -75q136 0 220 98t84 275v865q0 35 19.5 54.5t55.5 19.5h600z" />
    <glyph glyph-name="ucircumflex" unicode="&#xfb;" 
d="M558 2089q-59 0 -73 33t26 77l422 462q47 47 111 47h240q64 0 111 -47l422 -462q40 -44 26 -77t-73 -33h-359q-68 0 -108 60l-139 210l-139 -210q-40 -60 -108 -60h-359zM2106 1878q36 0 55.5 -19.5t19.5 -54.5v-1729q0 -36 -19.5 -55.5t-55.5 -19.5h-600
q-36 0 -55.5 19.5t-19.5 55.5v205q-93 -148 -258.5 -234t-393.5 -86q-633 0 -633 684v1159q0 36 19.5 55.5t54.5 19.5h601q36 0 55.5 -19.5t19.5 -55.5v-915q0 -172 57 -247t174 -75q136 0 220 98t84 275v865q0 35 19.5 54.5t55.5 19.5h600z" />
    <glyph glyph-name="udieresis" unicode="&#xfc;" 
d="M718 2097q-138 0 -235 97t-97 235t97 235t235 97t235.5 -97t97.5 -235t-97.5 -235t-235.5 -97zM1612 2097q-138 0 -235 97t-97 235t97 235t235 97t235.5 -97t97.5 -235t-97.5 -235t-235.5 -97zM2106 1878q36 0 55.5 -19.5t19.5 -54.5v-1729q0 -36 -19.5 -55.5
t-55.5 -19.5h-600q-36 0 -55.5 19.5t-19.5 55.5v205q-93 -148 -258.5 -234t-393.5 -86q-633 0 -633 684v1159q0 36 19.5 55.5t54.5 19.5h601q36 0 55.5 -19.5t19.5 -55.5v-915q0 -172 57 -247t174 -75q136 0 220 98t84 275v865q0 35 19.5 54.5t55.5 19.5h600z" />
    <glyph glyph-name="yacute" unicode="&#xfd;" horiz-adv-x="2263" 
d="M767 2104l-82 169q-15 34 -1.5 70t46.5 55l745 441q35 18 69 5.5t51 -46.5l144 -291q18 -38 6.5 -72.5t-48.5 -48.5l-807 -323q-39 -14 -72.5 -2.5t-50.5 43.5zM2147 1878q62 0 94 -47t5 -105l-710 -1483q-85 -178 -160.5 -306.5t-164 -236.5t-182 -176.5t-212.5 -116.5
t-258 -68.5t-315 -20.5q-35 0 -57.5 21.5t-22.5 56.5v386q0 66 68 74q90 11 156 34t130 70.5t122 122t125 190.5l-747 1453q-29 57 3.5 104.5t96.5 47.5h631q52 0 76 -52l334 -731l320 731q21 52 76 52h592z" />
    <glyph glyph-name="thorn" unicode="&#xfe;" horiz-adv-x="2378" 
d="M1407 1933q265 0 463.5 -127.5t302.5 -352t104 -514.5t-104 -514.5t-302.5 -352t-463.5 -127.5q-334 0 -511 259v-811q0 -36 -19.5 -55.5t-54.5 -19.5h-601q-36 0 -55.5 19.5t-19.5 55.5v2410v682q0 36 19.5 55.5t55.5 19.5h600q36 0 55.5 -19.5t19.5 -55.5v-811
q177 259 511 259zM1189 537q138 0 228 105.5t90 296.5t-90 296.5t-228 105.5q-140 0 -229 -106.5t-89 -295.5t89 -295.5t229 -106.5z" />
    <glyph glyph-name="ydieresis" unicode="&#xff;" horiz-adv-x="2263" 
d="M657 2097q-138 0 -235 97t-97 235t97 235t235 97t235.5 -97t97.5 -235t-97.5 -235t-235.5 -97zM1551 2097q-138 0 -235 97t-97 235t97 235t235 97t235.5 -97t97.5 -235t-97.5 -235t-235.5 -97zM2147 1878q62 0 94 -47t5 -105l-710 -1483q-85 -178 -160.5 -306.5
t-164 -236.5t-182 -176.5t-212.5 -116.5t-258 -68.5t-315 -20.5q-35 0 -57.5 21.5t-22.5 56.5v386q0 66 68 74q90 11 156 34t130 70.5t122 122t125 190.5l-747 1453q-29 57 3.5 104.5t96.5 47.5h631q52 0 76 -52l334 -731l320 731q21 52 76 52h592z" />
    <glyph glyph-name="Amacron" unicode="&#x100;" horiz-adv-x="2803" 
d="M818 2726q-37 0 -63 26t-26 64v245q0 37 25.5 63t63.5 26h1199q37 0 63 -26t26 -63v-245q0 -37 -26 -63.5t-63 -26.5h-1199zM2778 105q19 -49 0 -77t-68 -28h-667q-74 0 -101 71l-126 331h-883l-125 -331q-28 -71 -103 -71h-616q-49 0 -68.5 28.5t-0.5 76.5l976 2278
q27 67 104 67h619q77 0 104 -67zM1122 900h504l-253 665z" />
    <glyph glyph-name="amacron" unicode="&#x101;" horiz-adv-x="2081" 
d="M448 2164q-37 0 -63 26t-26 64v245q0 37 25.5 63t63.5 26h1199q37 0 63 -26t26 -63v-245q0 -37 -26 -63.5t-63 -26.5h-1199zM2007 174q31 -92 -57 -117l-433 -114q-70 -18 -112 26q-95 95 -153 222q-101 -115 -243.5 -180.5t-317.5 -65.5q-147 0 -265.5 47.5
t-192.5 126.5t-113 178t-39 207q0 149 67.5 274t206.5 216.5t350 121t498 -13.5v10q0 144 -71 201.5t-242 57.5q-113 0 -207.5 -20.5t-215.5 -63.5q-84 -28 -118 47l-142 301q-17 31 -11.5 55.5t18.5 37.5t36 26q148 79 371.5 129t446.5 50q856 0 856 -787v-502
q0 -151 19 -244t64 -226zM924 428q112 0 195.5 83.5t83.5 202.5v21q-118 29 -208 29.5t-142.5 -23t-79 -62t-26.5 -90.5q0 -72 50 -116.5t127 -44.5z" />
    <glyph glyph-name="Abreve" unicode="&#x102;" horiz-adv-x="2803" 
d="M1417 2611q-148 0 -279 48.5t-223 130t-145 192t-53 231.5q0 97 83 97h226q86 0 103 -69q27 -118 99.5 -169.5t188.5 -51.5q117 0 189 51t99 170q18 69 103 69h227q85 0 85 -85q0 -123 -53 -235t-145 -196t-224 -133.5t-281 -49.5zM2778 105q19 -49 0 -77t-68 -28h-667
q-74 0 -101 71l-126 331h-883l-125 -331q-28 -71 -103 -71h-616q-49 0 -68.5 28.5t-0.5 76.5l976 2278q27 67 104 67h619q77 0 104 -67zM1122 900h504l-253 665z" />
    <glyph glyph-name="abreve" unicode="&#x103;" horiz-adv-x="2081" 
d="M1047 2049q-148 0 -279 48.5t-223 130t-145 192t-53 231.5q0 97 83 97h226q86 0 103 -69q27 -118 99.5 -169.5t188.5 -51.5q117 0 189 51t99 170q18 69 103 69h227q85 0 85 -85q0 -123 -53 -235t-145 -196t-224 -133.5t-281 -49.5zM2007 174q31 -92 -57 -117l-433 -114
q-70 -18 -112 26q-95 95 -153 222q-101 -115 -243.5 -180.5t-317.5 -65.5q-147 0 -265.5 47.5t-192.5 126.5t-113 178t-39 207q0 149 67.5 274t206.5 216.5t350 121t498 -13.5v10q0 144 -71 201.5t-242 57.5q-113 0 -207.5 -20.5t-215.5 -63.5q-84 -28 -118 47l-142 301
q-17 31 -11.5 55.5t18.5 37.5t36 26q148 79 371.5 129t446.5 50q856 0 856 -787v-502q0 -151 19 -244t64 -226zM924 428q112 0 195.5 83.5t83.5 202.5v21q-118 29 -208 29.5t-142.5 -23t-79 -62t-26.5 -90.5q0 -72 50 -116.5t127 -44.5z" />
    <glyph glyph-name="Aogonek" unicode="&#x104;" horiz-adv-x="2803" 
d="M2778 105q19 -49 0 -77t-68 -28h-363q-77 -60 -125.5 -139.5t-48.5 -156.5q0 -64 36 -98t105 -34q40 0 87 12q40 9 61.5 -7t21.5 -56v-227q0 -62 -61 -90q-124 -54 -290 -54q-204 0 -338.5 115t-134.5 297q0 154 75.5 287.5t206.5 222.5l-126 330h-883l-125 -331
q-28 -71 -103 -71h-616q-49 0 -68.5 28.5t-0.5 76.5l976 2278q27 67 104 67h619q77 0 104 -67zM1122 900h504l-253 665z" />
    <glyph glyph-name="aogonek" unicode="&#x105;" horiz-adv-x="2123" 
d="M1954 58q-269 -179 -269 -380q0 -132 138 -132q34 0 87 12q40 9 61.5 -7t21.5 -56v-226q0 -64 -61 -91q-124 -54 -290 -54q-204 0 -337.5 115t-133.5 297q0 129 59.5 245t161.5 206q-92 101 -139 205q-102 -115 -246.5 -181t-320.5 -66q-118 0 -216 31t-165 84.5
t-114 125t-68.5 152t-21.5 166.5q0 119 41.5 223t127 190.5t217 139t311 68t408.5 -22.5v10q0 143 -74 201t-247 58q-112 0 -202.5 -20.5t-212.5 -63.5q-83 -28 -119 47l-141 301q-17 31 -12 55.5t18 37.5t37 26q148 79 371 129t447 50q855 0 855 -787v-502
q0 -151 19 -244.5t65 -225.5q6 -19 6 -34.5t-3 -25.5t-14 -21t-19 -17t-26 -18zM927 428q111 0 195 83.5t84 202.5v21q-118 29 -207.5 29.5t-142 -23t-78.5 -62t-26 -90.5q0 -72 48.5 -116.5t126.5 -44.5z" />
    <glyph glyph-name="Cacute" unicode="&#x106;" horiz-adv-x="2719" 
d="M1163 2666l-82 169q-15 34 -1.5 70t46.5 55l745 441q35 18 69 5.5t51 -46.5l144 -291q18 -38 6.5 -72.5t-48.5 -48.5l-807 -323q-39 -14 -72.5 -2.5t-50.5 43.5zM2566 678q82 -40 39 -122q-81 -155 -204 -274t-269 -191.5t-305.5 -109t-327.5 -36.5q-189 0 -365.5 39.5
t-329 114t-278.5 186.5t-216 251t-139.5 314t-49.5 370t49.5 370t139.5 314t216 251t278.5 186.5t329 114t365.5 39.5q168 0 327.5 -36.5t305.5 -109t269 -191.5t204 -274q43 -82 -39 -122l-477 -227q-74 -35 -122 41q-79 135 -200.5 209t-267.5 74q-251 0 -405 -177.5
t-154 -461.5t154 -461.5t405 -177.5q146 0 267.5 74t200.5 209q48 76 122 41z" />
    <glyph glyph-name="cacute" unicode="&#x107;" horiz-adv-x="2134" 
d="M825 2104l-82 169q-15 34 -1.5 70t46.5 55l745 441q35 18 69 5.5t51 -46.5l144 -291q18 -38 6.5 -72.5t-48.5 -48.5l-807 -323q-39 -14 -72.5 -2.5t-50.5 43.5zM1989 512q43 -22 51.5 -52t-11.5 -70q-26 -53 -72 -109t-123.5 -117.5t-172 -109t-226.5 -78.5t-277 -31
q-168 0 -323.5 41t-289 124t-232.5 200t-155.5 278.5t-56.5 350.5t56.5 350.5t155.5 278.5t232.5 200t289 124t323.5 41q145 0 276.5 -31t226 -78.5t172.5 -108.5t124 -117.5t72 -109.5q20 -40 11.5 -70t-51.5 -51l-419 -206q-24 -12 -42 -14t-33 7t-24 18.5t-23 28.5
q-30 43 -56.5 70t-76.5 49t-114 22q-156 0 -243 -103.5t-87 -299.5q0 -195 87 -298.5t243 -103.5q92 0 146.5 36.5t100.5 103.5q14 19 23.5 29t24 18.5t32.5 6.5t42 -14z" />
    <glyph glyph-name="Cdotaccent" unicode="&#x10a;" horiz-adv-x="2719" 
d="M1499 2600q-161 0 -274.5 113.5t-113.5 274.5t113.5 274.5t274.5 113.5t274.5 -113.5t113.5 -274.5t-113.5 -274.5t-274.5 -113.5zM2566 678q82 -40 39 -122q-81 -155 -204 -274t-269 -191.5t-305.5 -109t-327.5 -36.5q-189 0 -365.5 39.5t-329 114t-278.5 186.5
t-216 251t-139.5 314t-49.5 370t49.5 370t139.5 314t216 251t278.5 186.5t329 114t365.5 39.5q168 0 327.5 -36.5t305.5 -109t269 -191.5t204 -274q43 -82 -39 -122l-477 -227q-74 -35 -122 41q-79 135 -200.5 209t-267.5 74q-251 0 -405 -177.5t-154 -461.5t154 -461.5
t405 -177.5q146 0 267.5 74t200.5 209q48 76 122 41z" />
    <glyph glyph-name="cdotaccent" unicode="&#x10b;" horiz-adv-x="2134" 
d="M1161 2038q-161 0 -274.5 113.5t-113.5 274.5t113.5 274.5t274.5 113.5t274.5 -113.5t113.5 -274.5t-113.5 -274.5t-274.5 -113.5zM1989 512q43 -22 51.5 -52t-11.5 -70q-26 -53 -72 -109t-123.5 -117.5t-172 -109t-226.5 -78.5t-277 -31q-168 0 -323.5 41t-289 124
t-232.5 200t-155.5 278.5t-56.5 350.5t56.5 350.5t155.5 278.5t232.5 200t289 124t323.5 41q145 0 276.5 -31t226 -78.5t172.5 -108.5t124 -117.5t72 -109.5q20 -40 11.5 -70t-51.5 -51l-419 -206q-24 -12 -42 -14t-33 7t-24 18.5t-23 28.5q-30 43 -56.5 70t-76.5 49
t-114 22q-156 0 -243 -103.5t-87 -299.5q0 -195 87 -298.5t243 -103.5q92 0 146.5 36.5t100.5 103.5q14 19 23.5 29t24 18.5t32.5 6.5t42 -14z" />
    <glyph glyph-name="Ccaron" unicode="&#x10c;" horiz-adv-x="2719" 
d="M1268 2698l-422 462q-40 44 -26 77t73 33h359q68 0 108 -60l139 -210l139 210q40 60 108 60h359q59 0 73 -33t-26 -77l-422 -462q-47 -47 -111 -47h-240q-64 0 -111 47zM2566 678q82 -40 39 -122q-81 -155 -204 -274t-269 -191.5t-305.5 -109t-327.5 -36.5
q-189 0 -365.5 39.5t-329 114t-278.5 186.5t-216 251t-139.5 314t-49.5 370t49.5 370t139.5 314t216 251t278.5 186.5t329 114t365.5 39.5q168 0 327.5 -36.5t305.5 -109t269 -191.5t204 -274q43 -82 -39 -122l-477 -227q-74 -35 -122 41q-79 135 -200.5 209t-267.5 74
q-251 0 -405 -177.5t-154 -461.5t154 -461.5t405 -177.5q146 0 267.5 74t200.5 209q48 76 122 41z" />
    <glyph glyph-name="ccaron" unicode="&#x10d;" horiz-adv-x="2134" 
d="M930 2136l-422 462q-40 44 -26 77t73 33h359q68 0 108 -60l139 -210l139 210q40 60 108 60h359q59 0 73 -33t-26 -77l-422 -462q-47 -47 -111 -47h-240q-64 0 -111 47zM1989 512q43 -22 51.5 -52t-11.5 -70q-26 -53 -72 -109t-123.5 -117.5t-172 -109t-226.5 -78.5
t-277 -31q-168 0 -323.5 41t-289 124t-232.5 200t-155.5 278.5t-56.5 350.5t56.5 350.5t155.5 278.5t232.5 200t289 124t323.5 41q145 0 276.5 -31t226 -78.5t172.5 -108.5t124 -117.5t72 -109.5q20 -40 11.5 -70t-51.5 -51l-419 -206q-24 -12 -42 -14t-33 7t-24 18.5
t-23 28.5q-30 43 -56.5 70t-76.5 49t-114 22q-156 0 -243 -103.5t-87 -299.5q0 -195 87 -298.5t243 -103.5q92 0 146.5 36.5t100.5 103.5q14 19 23.5 29t24 18.5t32.5 6.5t42 -14z" />
    <glyph glyph-name="Dcaron" unicode="&#x10e;" horiz-adv-x="2784" 
d="M1057 2698l-422 462q-40 44 -26 77t73 33h359q68 0 108 -60l139 -210l139 210q40 60 108 60h359q59 0 73 -33t-26 -77l-422 -462q-47 -47 -111 -47h-240q-64 0 -111 47zM1299 2440q226 0 431 -51.5t375 -154t294.5 -247.5t194 -341.5t69.5 -425.5t-69.5 -425.5
t-194 -341.5t-294.5 -247.5t-375 -154t-431 -51.5h-780h-298q-31 0 -53 22t-22 53v2290q0 31 22 53t53 22h635h443zM1259 606q263 0 423.5 166.5t160.5 447.5t-160.5 447.5t-423.5 166.5h-328v-1228h328z" />
    <glyph glyph-name="dcaron" unicode="&#x10f;" horiz-adv-x="3056" 
d="M2689 2620q61 0 118 -21.5t105 -62.5t77 -111t29 -158q0 -206 -145 -427t-347 -329q-20 -10 -39.5 -5.5t-31.5 19.5l-48 54q-16 18 -15 42.5t19 45.5l27 27t29.5 30t25 28.5t25 33.5t17.5 33t14 39.5t4 40.5q0 49 -22 81.5t-66 68.5q-105 94 -105 236t96 238.5t233 96.5z
M2157 2560q36 0 55.5 -19.5t19.5 -55.5v-2410q0 -36 -19.5 -55.5t-55.5 -19.5h-601q-35 0 -54.5 19.5t-19.5 55.5v129q-177 -259 -511 -259q-265 0 -463.5 127.5t-302.5 352t-104 514.5t104 514.5t302.5 352t463.5 127.5q334 0 511 -259v811q0 36 19.5 55.5t54.5 19.5h601z
M1189 537q140 0 229 106.5t89 295.5t-89 295.5t-229 106.5q-138 0 -228 -105.5t-90 -296.5t90 -296.5t228 -105.5z" />
    <glyph glyph-name="Dcroat" unicode="&#x110;" horiz-adv-x="2784" 
d="M1299 2440q226 0 431 -51.5t375 -154t294.5 -247.5t194 -341.5t69.5 -425.5t-69.5 -425.5t-194 -341.5t-294.5 -247.5t-375 -154t-431 -51.5h-780h-298q-31 0 -53 22t-22 53v905h-198q-43 0 -66.5 23.5t-23.5 65.5v269q0 43 23.5 66.5t66.5 23.5h198v937q0 31 22 53
t53 22h635h443zM1259 606q263 0 423.5 166.5t160.5 447.5t-160.5 447.5t-423.5 166.5h-328v-406h387q43 0 66.5 -23.5t23.5 -66.5v-269q0 -42 -23.5 -65.5t-66.5 -23.5h-387v-374h328z" />
    <glyph glyph-name="dcroat" unicode="&#x111;" horiz-adv-x="2533" 
d="M2438 2318q43 0 66.5 -23.5t23.5 -66.5v-100q0 -43 -23.5 -66.5t-66.5 -23.5h-206v-1963q0 -36 -19.5 -55.5t-55.5 -19.5h-601q-35 0 -54.5 19.5t-19.5 55.5v129q-177 -259 -511 -259q-265 0 -463.5 127.5t-302.5 352t-104 514.5t104 514.5t302.5 352t463.5 127.5
q334 0 511 -259v364h-373q-43 0 -66 23.5t-23 66.5v100q0 43 23 66.5t66 23.5h373v167q0 36 19.5 55.5t54.5 19.5h601q36 0 55.5 -19.5t19.5 -55.5v-167h206zM1189 537q140 0 229 106.5t89 295.5t-89 295.5t-229 106.5q-138 0 -228 -105.5t-90 -296.5t90 -296.5t228 -105.5z
" />
    <glyph glyph-name="Emacron" unicode="&#x112;" horiz-adv-x="2324" 
d="M608 2726q-37 0 -63 26t-26 64v245q0 37 25.5 63t63.5 26h1199q37 0 63 -26t26 -63v-245q0 -37 -26 -63.5t-63 -26.5h-1199zM2143 606q36 0 55.5 -19.5t19.5 -54.5v-457q0 -36 -19.5 -55.5t-55.5 -19.5h-1503h-419q-31 0 -53 22t-22 53v2290q0 31 22 53t53 22h635h1247
q36 0 55.5 -19.5t19.5 -55.5v-457q0 -35 -19.5 -54.5t-55.5 -19.5h-1172v-325h1012q36 0 55.5 -19.5t19.5 -55.5v-398q0 -35 -19.5 -54.5t-55.5 -19.5h-1012v-356h1212z" />
    <glyph glyph-name="emacron" unicode="&#x113;" horiz-adv-x="2268" 
d="M527 2164q-37 0 -63 26t-26 64v245q0 37 26 63t63 26h1199q37 0 63 -26t26 -63v-245q0 -37 -26 -63.5t-63 -26.5h-1199zM1990 486q45 -22 53 -53.5t-13 -68.5q-41 -83 -124.5 -158t-196 -133.5t-257.5 -93t-298 -34.5q-176 0 -334 41t-289.5 123.5t-227.5 200t-149 279
t-53 350.5q0 158 38.5 297t108 247.5t167 194t216.5 141.5t254.5 85t282.5 29q165 0 311 -38.5t273 -123t218.5 -209.5t144 -307t52.5 -405h-1361q14 -94 52 -165.5t89.5 -112.5t108.5 -60.5t118 -19.5q110 0 184.5 34.5t123.5 108.5q29 41 52 50t70 -10zM1156 1450
q-114 0 -201 -67t-127 -194h621q-35 135 -112.5 198t-180.5 63z" />
    <glyph glyph-name="Edotaccent" unicode="&#x116;" horiz-adv-x="2324" 
d="M1207 2600q-161 0 -274.5 113.5t-113.5 274.5t113.5 274.5t274.5 113.5t274.5 -113.5t113.5 -274.5t-113.5 -274.5t-274.5 -113.5zM2143 606q36 0 55.5 -19.5t19.5 -54.5v-457q0 -36 -19.5 -55.5t-55.5 -19.5h-1503h-419q-31 0 -53 22t-22 53v2290q0 31 22 53t53 22h635
h1247q36 0 55.5 -19.5t19.5 -55.5v-457q0 -35 -19.5 -54.5t-55.5 -19.5h-1172v-325h1012q36 0 55.5 -19.5t19.5 -55.5v-398q0 -35 -19.5 -54.5t-55.5 -19.5h-1012v-356h1212z" />
    <glyph glyph-name="edotaccent" unicode="&#x117;" horiz-adv-x="2268" 
d="M1126 2038q-161 0 -274.5 113.5t-113.5 274.5t113.5 274.5t274.5 113.5t274.5 -113.5t113.5 -274.5t-113.5 -274.5t-274.5 -113.5zM1990 486q45 -22 53 -53.5t-13 -68.5q-41 -83 -124.5 -158t-196 -133.5t-257.5 -93t-298 -34.5q-176 0 -334 41t-289.5 123.5t-227.5 200
t-149 279t-53 350.5q0 158 38.5 297t108 247.5t167 194t216.5 141.5t254.5 85t282.5 29q165 0 311 -38.5t273 -123t218.5 -209.5t144 -307t52.5 -405h-1361q14 -94 52 -165.5t89.5 -112.5t108.5 -60.5t118 -19.5q110 0 184.5 34.5t123.5 108.5q29 41 52 50t70 -10z
M1156 1450q-114 0 -201 -67t-127 -194h621q-35 135 -112.5 198t-180.5 63z" />
    <glyph glyph-name="Eogonek" unicode="&#x118;" horiz-adv-x="2324" 
d="M2143 606q36 0 55.5 -19.5t19.5 -54.5v-457q0 -36 -19.5 -55.5t-55.5 -19.5h-110q-93 -59 -154.5 -149t-61.5 -177q0 -64 36 -98t105 -34q40 0 87 12q40 9 61.5 -7t21.5 -56v-227q0 -62 -61 -90q-124 -54 -290 -54q-204 0 -338.5 115t-134.5 297q0 137 59.5 257.5
t166.5 210.5h-890h-419q-31 0 -53 22t-22 53v2290q0 31 22 53t53 22h635h1247q36 0 55.5 -19.5t19.5 -55.5v-457q0 -35 -19.5 -54.5t-55.5 -19.5h-1172v-325h1012q36 0 55.5 -19.5t19.5 -55.5v-398q0 -35 -19.5 -54.5t-55.5 -19.5h-1012v-356h1212z" />
    <glyph glyph-name="eogonek" unicode="&#x119;" horiz-adv-x="2268" 
d="M1990 486q45 -22 53 -53.5t-13 -68.5q-50 -100 -159.5 -188t-258.5 -147q-119 -99 -162.5 -181t-43.5 -174q0 -63 39 -97.5t109 -34.5q40 0 87 12q40 9 61.5 -7t21.5 -56v-227q0 -63 -61 -90q-124 -54 -290 -54q-205 0 -342.5 115.5t-137.5 296.5q0 235 175 416
q-164 10 -309.5 56t-266 130.5t-208 199.5t-135.5 270t-48 335q0 158 38.5 297t108 247.5t167 194t216.5 141.5t254.5 85t282.5 29q165 0 311 -38.5t273 -123t218.5 -209.5t144 -307t52.5 -405h-1361q14 -94 52 -165.5t89.5 -112.5t108.5 -60.5t118 -19.5q110 0 184.5 34.5
t123.5 108.5q29 41 52 50t70 -10zM1156 1450q-114 0 -201 -67t-127 -194h621q-35 135 -112.5 198t-180.5 63z" />
    <glyph glyph-name="Ecaron" unicode="&#x11a;" horiz-adv-x="2324" 
d="M976 2698l-422 462q-40 44 -26 77t73 33h359q68 0 108 -60l139 -210l139 210q40 60 108 60h359q59 0 73 -33t-26 -77l-422 -462q-47 -47 -111 -47h-240q-64 0 -111 47zM2143 606q36 0 55.5 -19.5t19.5 -54.5v-457q0 -36 -19.5 -55.5t-55.5 -19.5h-1503h-419q-31 0 -53 22
t-22 53v2290q0 31 22 53t53 22h635h1247q36 0 55.5 -19.5t19.5 -55.5v-457q0 -35 -19.5 -54.5t-55.5 -19.5h-1172v-325h1012q36 0 55.5 -19.5t19.5 -55.5v-398q0 -35 -19.5 -54.5t-55.5 -19.5h-1012v-356h1212z" />
    <glyph glyph-name="ecaron" unicode="&#x11b;" horiz-adv-x="2268" 
d="M895 2136l-422 462q-40 44 -26 77t73 33h359q68 0 108 -60l139 -210l139 210q40 60 108 60h359q59 0 73 -33t-26 -77l-422 -462q-47 -47 -111 -47h-240q-64 0 -111 47zM1990 486q45 -22 53 -53.5t-13 -68.5q-41 -83 -124.5 -158t-196 -133.5t-257.5 -93t-298 -34.5
q-176 0 -334 41t-289.5 123.5t-227.5 200t-149 279t-53 350.5q0 158 38.5 297t108 247.5t167 194t216.5 141.5t254.5 85t282.5 29q165 0 311 -38.5t273 -123t218.5 -209.5t144 -307t52.5 -405h-1361q14 -94 52 -165.5t89.5 -112.5t108.5 -60.5t118 -19.5q110 0 184.5 34.5
t123.5 108.5q29 41 52 50t70 -10zM1156 1450q-114 0 -201 -67t-127 -194h621q-35 135 -112.5 198t-180.5 63z" />
    <glyph glyph-name="Gbreve" unicode="&#x11e;" horiz-adv-x="2783" 
d="M1457 2611q-148 0 -279 48.5t-223 130t-145 192t-53 231.5q0 97 83 97h226q86 0 103 -69q27 -118 99.5 -169.5t188.5 -51.5q117 0 189 51t99 170q18 69 103 69h227q85 0 85 -85q0 -123 -53 -235t-145 -196t-224 -133.5t-281 -49.5zM2540 1124q97 0 97 -89v-758
q-206 -147 -499.5 -239.5t-638.5 -92.5q-189 0 -365.5 39.5t-329 114t-278.5 186.5t-216 251t-139.5 314t-49.5 370t49.5 370t139.5 314t216 251t278.5 186.5t329 114t365.5 39.5q167 0 322 -33t299.5 -100t267.5 -179.5t209 -262.5q22 -41 10.5 -72.5t-50.5 -50.5
l-476 -226q-71 -33 -123 40q-172 248 -459 248q-251 0 -405 -177.5t-154 -461.5t154 -461.5t405 -177.5q240 0 422 65v389q0 43 23.5 66t66.5 23h529z" />
    <glyph glyph-name="gbreve" unicode="&#x11f;" horiz-adv-x="2288" 
d="M1155 2049q-148 0 -279 48.5t-223 130t-145 192t-53 231.5q0 97 83 97h226q86 0 103 -69q27 -118 99.5 -169.5t188.5 -51.5q117 0 189 51t99 170q18 69 103 69h227q85 0 85 -85q0 -123 -53 -235t-145 -196t-224 -133.5t-281 -49.5zM2181 2062q62 0 62 -56v-440
q0 -53 -52 -53q-110 0 -185 -60q19 -64 19 -136q0 -130 -64 -243t-179 -195.5t-285 -130t-372 -47.5h-268q-149 0 -149 -96t149 -96h485q412 0 636 -156t224 -429q0 -104 -33 -196t-108 -174t-188.5 -140.5t-284.5 -93t-385 -34.5q-490 0 -744 145t-254 393q0 181 148 305
q-111 60 -174 157.5t-63 219.5q0 135 79 242t226 169q-195 166 -195 400q0 130 64 243t179 195.5t284.5 130t371.5 47.5q329 0 563 -121q88 121 215.5 185.5t277.5 64.5zM1125 1131q108 0 178 50.5t70 135.5t-70 135.5t-178 50.5q-107 0 -177 -50.5t-70 -135.5t69.5 -135.5
t177.5 -50.5zM1546 -136q0 74 -87 115t-256 41t-255.5 -41t-86.5 -115q0 -158 342 -158q343 0 343 158z" />
    <glyph glyph-name="Gdotaccent" unicode="&#x120;" horiz-adv-x="2783" 
d="M1457 2600q-161 0 -274.5 113.5t-113.5 274.5t113.5 274.5t274.5 113.5t274.5 -113.5t113.5 -274.5t-113.5 -274.5t-274.5 -113.5zM2540 1124q97 0 97 -89v-758q-206 -147 -499.5 -239.5t-638.5 -92.5q-189 0 -365.5 39.5t-329 114t-278.5 186.5t-216 251t-139.5 314
t-49.5 370t49.5 370t139.5 314t216 251t278.5 186.5t329 114t365.5 39.5q167 0 322 -33t299.5 -100t267.5 -179.5t209 -262.5q22 -41 10.5 -72.5t-50.5 -50.5l-476 -226q-71 -33 -123 40q-172 248 -459 248q-251 0 -405 -177.5t-154 -461.5t154 -461.5t405 -177.5
q240 0 422 65v389q0 43 23.5 66t66.5 23h529z" />
    <glyph glyph-name="gdotaccent" unicode="&#x121;" horiz-adv-x="2288" 
d="M1155 2038q-161 0 -274.5 113.5t-113.5 274.5t113.5 274.5t274.5 113.5t274.5 -113.5t113.5 -274.5t-113.5 -274.5t-274.5 -113.5zM2181 2062q62 0 62 -56v-440q0 -53 -52 -53q-110 0 -185 -60q19 -64 19 -136q0 -130 -64 -243t-179 -195.5t-285 -130t-372 -47.5h-268
q-149 0 -149 -96t149 -96h485q412 0 636 -156t224 -429q0 -104 -33 -196t-108 -174t-188.5 -140.5t-284.5 -93t-385 -34.5q-490 0 -744 145t-254 393q0 181 148 305q-111 60 -174 157.5t-63 219.5q0 135 79 242t226 169q-195 166 -195 400q0 130 64 243t179 195.5t284.5 130
t371.5 47.5q329 0 563 -121q88 121 215.5 185.5t277.5 64.5zM1125 1131q108 0 178 50.5t70 135.5t-70 135.5t-178 50.5q-107 0 -177 -50.5t-70 -135.5t69.5 -135.5t177.5 -50.5zM1546 -136q0 74 -87 115t-256 41t-255.5 -41t-86.5 -115q0 -158 342 -158q343 0 343 158z" />
    <glyph glyph-name="Gcommaaccent" unicode="&#x122;" horiz-adv-x="2783" 
d="M2540 1124q97 0 97 -89v-758q-206 -147 -499.5 -239.5t-638.5 -92.5q-189 0 -365.5 39.5t-329 114t-278.5 186.5t-216 251t-139.5 314t-49.5 370t49.5 370t139.5 314t216 251t278.5 186.5t329 114t365.5 39.5q167 0 322 -33t299.5 -100t267.5 -179.5t209 -262.5
q22 -41 10.5 -72.5t-50.5 -50.5l-476 -226q-71 -33 -123 40q-172 248 -459 248q-251 0 -405 -177.5t-154 -461.5t154 -461.5t405 -177.5q240 0 422 65v389q0 43 23.5 66t66.5 23h529zM1419 -226q61 0 118 -21.5t105 -62.5t77 -111t29 -158q0 -206 -145 -427t-347 -329
q-20 -10 -39.5 -5.5t-31.5 19.5l-48 54q-16 18 -15 42.5t19 45.5l27 27t29.5 30t25 28.5t25 33.5t17.5 33t14 39.5t4 40.5q0 49 -22 81.5t-66 68.5q-105 94 -105 236t96 238.5t233 96.5z" />
    <glyph glyph-name="gcommaaccent" unicode="&#x123;" horiz-adv-x="2246" 
d="M1166 2033q-61 0 -118 21.5t-105 62.5t-77 111t-29 158q0 206 145 427t347 329q20 10 39.5 5.5t31.5 -19.5l48 -54q16 -18 15 -42.5t-19 -45.5l-27 -27t-29.5 -30t-25 -28.5t-25 -33.5t-17.5 -33t-14 -39.5t-4 -40.5q0 -49 22 -81.5t66 -68.5q105 -94 105 -236
t-96 -238.5t-233 -96.5zM2181 2062q62 0 62 -56v-440q0 -53 -52 -53q-110 0 -185 -60q19 -64 19 -136q0 -130 -64 -243t-179 -195.5t-285 -130t-372 -47.5h-268q-149 0 -149 -96t149 -96h485q412 0 636 -156t224 -429q0 -104 -33 -196t-108 -174t-188.5 -140.5t-284.5 -93
t-385 -34.5q-490 0 -744 145t-254 393q0 181 148 305q-111 60 -174 157.5t-63 219.5q0 135 79 242t226 169q-195 166 -195 400q0 130 64 243t179 195.5t284.5 130t371.5 47.5q329 0 563 -121q88 121 215.5 185.5t277.5 64.5zM1125 1131q108 0 178 50.5t70 135.5t-70 135.5
t-178 50.5q-107 0 -177 -50.5t-70 -135.5t69.5 -135.5t177.5 -50.5zM1546 -136q0 74 -87 115t-256 41t-255.5 -41t-86.5 -115q0 -158 342 -158q343 0 343 158z" />
    <glyph glyph-name="Hbar" unicode="&#x126;" horiz-adv-x="2908" 
d="M2878 2193q42 0 65.5 -23.5t23.5 -65.5v-210q0 -43 -23.5 -66.5t-65.5 -23.5h-156v-1729q0 -31 -22 -53t-53 -22h-635q-31 0 -53 22t-22 53v857h-966v-857q0 -31 -22 -53t-53 -22h-635q-31 0 -53 22t-22 53v1729h-156q-42 0 -65.5 23.5t-23.5 66.5v210q0 42 23.5 65.5
t65.5 23.5h156v172q0 31 22 53t53 22h635q31 0 53 -22t22 -53v-172h966v172q0 31 22 53t53 22h635q31 0 53 -22t22 -53v-172h156zM1937 1538v266h-966v-266h966z" />
    <glyph glyph-name="hbar" unicode="&#x127;" horiz-adv-x="2484" 
d="M1705 1918q633 0 633 -684v-1159q0 -36 -19.5 -55.5t-54.5 -19.5h-601q-36 0 -55.5 19.5t-19.5 55.5v915q0 172 -57 247t-174 75q-136 0 -220 -98t-84 -275v-864q0 -36 -19.5 -55.5t-55.5 -19.5h-600q-36 0 -55.5 19.5t-19.5 55.5v1963h-208q-43 0 -66.5 23.5t-23.5 66.5
v100q0 43 23.5 66.5t66.5 23.5h208v167q0 36 19.5 55.5t55.5 19.5h600q36 0 55.5 -19.5t19.5 -55.5v-167h371q42 0 65.5 -23.5t23.5 -66.5v-100q0 -43 -23.5 -66.5t-65.5 -23.5h-371v-440q93 148 258.5 234t393.5 86z" />
    <glyph glyph-name="Imacron" unicode="&#x12a;" horiz-adv-x="1077" 
d="M-150 3061q0 37 26 63t63 26h1199q37 0 63 -26t26 -63v-245q0 -37 -26 -63.5t-63 -26.5h-1199q-37 0 -63 26t-26 64v245zM146 2365q0 31 22 53t53 22h635q31 0 53 -22t22 -53v-2290q0 -31 -22 -53t-53 -22h-635q-31 0 -53 22t-22 53v2290z" />
    <glyph glyph-name="imacron" unicode="&#x12b;" horiz-adv-x="1042" 
d="M-166 2499q0 37 26 63t63 26h1199q37 0 63 -26t26 -63v-245q0 -37 -26 -63.5t-63 -26.5h-1199q-37 0 -63 26t-26 64v245zM146 1804q0 35 19.5 54.5t55.5 19.5h600q36 0 55.5 -19.5t19.5 -54.5v-1729q0 -36 -19.5 -55.5t-55.5 -19.5h-600q-36 0 -55.5 19.5t-19.5 55.5
v1729z" />
    <glyph glyph-name="Iogonek" unicode="&#x12e;" horiz-adv-x="1077" 
d="M856 2440q31 0 53 -22t22 -53v-2290q0 -31 -22 -53t-53 -22h-348q-93 -59 -154.5 -149t-61.5 -177q0 -64 36 -98t105 -34q41 0 87 12q40 9 61.5 -7t21.5 -56v-227q0 -62 -61 -90q-124 -54 -290 -54q-204 0 -338.5 115t-134.5 297q0 178 99.5 327t267.5 234v2272
q0 31 22 53t53 22h635z" />
    <glyph glyph-name="iogonek" unicode="&#x12f;" horiz-adv-x="1042" 
d="M522 2038q-161 0 -274.5 113.5t-113.5 274.5t113.5 274.5t274.5 113.5t274.5 -113.5t113.5 -274.5t-113.5 -274.5t-274.5 -113.5zM821 1878q36 0 55.5 -19.5t19.5 -54.5v-1729q0 -36 -19.5 -55.5t-55.5 -19.5h-293q-93 -59 -154.5 -149t-61.5 -177q0 -64 36 -98t105 -34
q41 0 87 12q40 9 61.5 -7t21.5 -56v-227q0 -62 -61 -90q-124 -54 -290 -54q-204 0 -338.5 115t-134.5 297q0 173 94 318t253 232v1722q0 35 19.5 54.5t55.5 19.5h600z" />
    <glyph glyph-name="Idotaccent" unicode="&#x130;" horiz-adv-x="1077" 
d="M538 2600q-161 0 -274.5 113.5t-113.5 274.5t113.5 274.5t274.5 113.5t274.5 -113.5t113.5 -274.5t-113.5 -274.5t-274.5 -113.5zM146 2365q0 31 22 53t53 22h635q31 0 53 -22t22 -53v-2290q0 -31 -22 -53t-53 -22h-635q-31 0 -53 22t-22 53v2290z" />
    <glyph glyph-name="dotlessi" unicode="&#x131;" horiz-adv-x="1042" 
d="M146 1804q0 35 19.5 54.5t55.5 19.5h600q36 0 55.5 -19.5t19.5 -54.5v-1729q0 -36 -19.5 -55.5t-55.5 -19.5h-600q-36 0 -55.5 19.5t-19.5 55.5v1729z" />
    <glyph glyph-name="Kcommaaccent" unicode="&#x136;" horiz-adv-x="2784" 
d="M856 2440q31 0 53 -22t22 -53v-2290q0 -31 -22 -53t-53 -22h-635q-31 0 -53 22t-22 53v2290q0 31 22 53t53 22h635zM2737 108q31 -46 14 -77t-71 -31h-695q-70 0 -107 56l-840 1184l845 1144q37 56 108 56h649q55 0 72 -31t-16 -77l-803 -1057zM1370 -226q61 0 118 -21.5
t105 -62.5t77 -111t29 -158q0 -206 -145 -427t-347 -329q-20 -10 -39.5 -5.5t-31.5 19.5l-48 54q-16 18 -15 42.5t19 45.5l27 27t29.5 30t25 28.5t25 33.5t17.5 33t14 39.5t4 40.5q0 49 -22 81.5t-66 68.5q-105 94 -105 236t96 238.5t233 96.5z" />
    <glyph glyph-name="kcommaaccent" unicode="&#x137;" horiz-adv-x="2322" 
d="M146 2485q0 36 19.5 55.5t55.5 19.5h600q36 0 55.5 -19.5t19.5 -55.5v-2410q0 -36 -19.5 -55.5t-55.5 -19.5h-600q-36 0 -55.5 19.5t-19.5 55.5v2410zM1551 0q-78 0 -107 60l-498 930l456 830q30 58 109 58h611q53 0 67.5 -32.5t-11.5 -74.5l-464 -761l526 -902
q27 -49 11 -78.5t-69 -29.5h-631zM1159 -226q61 0 118 -21.5t105 -62.5t77 -111t29 -158q0 -206 -145 -427t-347 -329q-20 -10 -39.5 -5.5t-31.5 19.5l-48 54q-16 18 -15 42.5t19 45.5l27 27t29.5 30t25 28.5t25 33.5t17.5 33t14 39.5t4 40.5q0 49 -22 81.5t-66 68.5
q-105 94 -105 236t96 238.5t233 96.5z" />
    <glyph glyph-name="Lacute" unicode="&#x139;" horiz-adv-x="2154" 
d="M325 2625q-39 -14 -72.5 -2.5t-50.5 43.5l-82 169q-15 34 -1.5 70t46.5 55l745 441q35 18 69 5.5t51 -46.5l144 -291q18 -38 6.5 -72.5t-48.5 -48.5zM2029 636q36 0 55.5 -19.5t19.5 -55.5v-486q0 -36 -19.5 -55.5t-55.5 -19.5h-1393h-415q-31 0 -53 22t-22 53v2290
q0 31 22 53t53 22h635q31 0 53 -22t22 -53v-1729h1098z" />
    <glyph glyph-name="lacute" unicode="&#x13a;" horiz-adv-x="1042" 
d="M309 2745q-39 -14 -72.5 -2.5t-50.5 43.5l-82 169q-15 34 -1.5 70t46.5 55l745 441q35 18 69 5.5t51 -46.5l144 -291q18 -38 6.5 -72.5t-48.5 -48.5zM146 2485q0 36 19.5 55.5t55.5 19.5h600q36 0 55.5 -19.5t19.5 -55.5v-2410q0 -36 -19.5 -55.5t-55.5 -19.5h-600
q-36 0 -55.5 19.5t-19.5 55.5v2410z" />
    <glyph glyph-name="Lcommaaccent" unicode="&#x13b;" horiz-adv-x="2154" 
d="M2029 636q36 0 55.5 -19.5t19.5 -55.5v-486q0 -36 -19.5 -55.5t-55.5 -19.5h-1393h-415q-31 0 -53 22t-22 53v2290q0 31 22 53t53 22h635q31 0 53 -22t22 -53v-1729h1098zM1113 -226q61 0 118 -21.5t105 -62.5t77 -111t29 -158q0 -206 -145 -427t-347 -329
q-20 -10 -39.5 -5.5t-31.5 19.5l-48 54q-16 18 -15 42.5t19 45.5l27 27t29.5 30t25 28.5t25 33.5t17.5 33t14 39.5t4 40.5q0 49 -22 81.5t-66 68.5q-105 94 -105 236t96 238.5t233 96.5z" />
    <glyph glyph-name="lcommaaccent" unicode="&#x13c;" horiz-adv-x="1042" 
d="M146 2485q0 36 19.5 55.5t55.5 19.5h600q36 0 55.5 -19.5t19.5 -55.5v-2410q0 -36 -19.5 -55.5t-55.5 -19.5h-600q-36 0 -55.5 19.5t-19.5 55.5v2410zM520 -226q61 0 118 -21.5t105 -62.5t77 -111t29 -158q0 -206 -145 -427t-347 -329q-20 -10 -39.5 -5.5t-31.5 19.5
l-48 54q-16 18 -15 42.5t19 45.5l27 27t29.5 30t25 28.5t25 33.5t17.5 33t14 39.5t4 40.5q0 49 -22 81.5t-66 68.5q-105 94 -105 236t96 238.5t233 96.5z" />
    <glyph glyph-name="Lcaron" unicode="&#x13d;" horiz-adv-x="2232" 
d="M1596 2049q-105 94 -105 236t96 238.5t233 96.5q61 0 118 -21.5t105 -62.5t77 -111t29 -158q0 -206 -145 -427t-347 -329q-20 -10 -39.5 -5.5t-31.5 19.5l-48 54q-16 18 -15 42.5t19 45.5l27 27t29.5 30t25 28.5t25 33.5t17.5 33t14 39.5t4 40.5q0 49 -22 81.5t-66 68.5z
M2029 636q36 0 55.5 -19.5t19.5 -55.5v-486q0 -36 -19.5 -55.5t-55.5 -19.5h-1393h-415q-31 0 -53 22t-22 53v2290q0 31 22 53t53 22h635q31 0 53 -22t22 -53v-1729h1098z" />
    <glyph glyph-name="lcaron" unicode="&#x13e;" horiz-adv-x="1726" 
d="M1366 2620q61 0 118 -21.5t105 -62.5t77 -111t29 -158q0 -206 -145 -427t-347 -329q-20 -10 -39.5 -5.5t-31.5 19.5l-48 54q-16 18 -15 42.5t19 45.5l27 27t29.5 30t25 28.5t25 33.5t17.5 33t14 39.5t4 40.5q0 49 -22 81.5t-66 68.5q-105 94 -105 236t96 238.5t233 96.5z
M146 2485q0 36 19.5 55.5t55.5 19.5h600q36 0 55.5 -19.5t19.5 -55.5v-2410q0 -36 -19.5 -55.5t-55.5 -19.5h-600q-36 0 -55.5 19.5t-19.5 55.5v2410z" />
    <glyph glyph-name="Lslash" unicode="&#x141;" horiz-adv-x="2460" 
d="M2335 636q36 0 55.5 -19.5t19.5 -55.5v-486q0 -36 -19.5 -55.5t-55.5 -19.5h-1393h-415q-31 0 -53 22t-22 53v664l-182 -86q-39 -19 -70 -7.5t-50 50.5l-139 297q-18 38 -6.5 69t49.5 49l398 188v1066q0 31 22 53t53 22h635q31 0 53 -22t22 -53v-696l579 273
q81 38 120 -43l139 -297q18 -38 6.5 -69t-49.5 -49l-795 -375v-473h1098z" />
    <glyph glyph-name="lslash" unicode="&#x142;" horiz-adv-x="1538" 
d="M1525 1468q36 -80 -44 -118l-338 -159v-1116q0 -36 -19.5 -55.5t-55.5 -19.5h-600q-36 0 -55.5 19.5t-19.5 55.5v763l-108 -51q-39 -19 -70 -7.5t-50 50.5l-139 296q-18 38 -6.5 69.5t49.5 49.5l324 153v1087q0 36 19.5 55.5t55.5 19.5h600q36 0 55.5 -19.5t19.5 -55.5
v-734l122 57q39 19 70.5 8t49.5 -50z" />
    <glyph glyph-name="Nacute" unicode="&#x143;" horiz-adv-x="2838" 
d="M1246 2625q-39 -14 -72.5 -2.5t-50.5 43.5l-82 169q-15 34 -1.5 70t46.5 55l745 441q35 18 69 5.5t51 -46.5l144 -291q18 -38 6.5 -72.5t-48.5 -48.5zM2603 2440q43 0 66 -23.5t23 -66.5v-2271q0 -43 -23 -66t-66 -23h-206q-66 0 -111 36l-1355 1131v-1067
q0 -43 -23.5 -66.5t-66.5 -23.5h-605q-43 0 -66.5 23.5t-23.5 66.5v2271q0 43 23.5 66t66.5 23h205q67 0 112 -36l1355 -1137v1073q0 43 23 66.5t66 23.5h606z" />
    <glyph glyph-name="nacute" unicode="&#x144;" 
d="M897 2104l-82 169q-15 34 -1.5 70t46.5 55l745 441q35 18 69 5.5t51 -46.5l144 -291q18 -38 6.5 -72.5t-48.5 -48.5l-807 -323q-39 -14 -72.5 -2.5t-50.5 43.5zM1548 1918q633 0 633 -684v-1159q0 -36 -19.5 -55.5t-54.5 -19.5h-601q-36 0 -55.5 19.5t-19.5 55.5v915
q0 172 -57 247t-174 75q-136 0 -220 -98t-84 -275v-864q0 -36 -19.5 -55.5t-55.5 -19.5h-600q-36 0 -55.5 19.5t-19.5 55.5v1729q0 35 19.5 54.5t55.5 19.5h600q36 0 55.5 -19.5t19.5 -54.5v-206q93 148 258.5 234t393.5 86z" />
    <glyph glyph-name="Ncommaaccent" unicode="&#x145;" horiz-adv-x="2838" 
d="M2603 2440q43 0 66 -23.5t23 -66.5v-2271q0 -43 -23 -66t-66 -23h-206q-66 0 -111 36l-1355 1131v-1067q0 -43 -23.5 -66.5t-66.5 -23.5h-605q-43 0 -66.5 23.5t-23.5 66.5v2271q0 43 23.5 66t66.5 23h205q67 0 112 -36l1355 -1137v1073q0 43 23 66.5t66 23.5h606z
M1457 -226q61 0 118 -21.5t105 -62.5t77 -111t29 -158q0 -206 -145 -427t-347 -329q-20 -10 -39.5 -5.5t-31.5 19.5l-48 54q-16 18 -15 42.5t19 45.5l27 27t29.5 30t25 28.5t25 33.5t17.5 33t14 39.5t4 40.5q0 49 -22 81.5t-66 68.5q-105 94 -105 236t96 238.5t233 96.5z
" />
    <glyph glyph-name="ncommaaccent" unicode="&#x146;" 
d="M1548 1918q633 0 633 -684v-1159q0 -36 -19.5 -55.5t-54.5 -19.5h-601q-36 0 -55.5 19.5t-19.5 55.5v915q0 172 -57 247t-174 75q-136 0 -220 -98t-84 -275v-864q0 -36 -19.5 -55.5t-55.5 -19.5h-600q-36 0 -55.5 19.5t-19.5 55.5v1729q0 35 19.5 54.5t55.5 19.5h600
q36 0 55.5 -19.5t19.5 -54.5v-206q93 148 258.5 234t393.5 86zM1162 -226q61 0 118 -21.5t105 -62.5t77 -111t29 -158q0 -206 -145 -427t-347 -329q-20 -10 -39.5 -5.5t-31.5 19.5l-48 54q-16 18 -15 42.5t19 45.5l27 27t29.5 30t25 28.5t25 33.5t17.5 33t14 39.5t4 40.5
q0 49 -22 81.5t-66 68.5q-105 94 -105 236t96 238.5t233 96.5z" />
    <glyph glyph-name="Ncaron" unicode="&#x147;" horiz-adv-x="2838" 
d="M1598 3210q40 60 108 60h359q59 0 73 -33t-26 -77l-422 -462q-47 -47 -111 -47h-240q-64 0 -111 47l-422 462q-40 44 -26 77t73 33h359q68 0 108 -60l139 -210zM2603 2440q43 0 66 -23.5t23 -66.5v-2271q0 -43 -23 -66t-66 -23h-206q-66 0 -111 36l-1355 1131v-1067
q0 -43 -23.5 -66.5t-66.5 -23.5h-605q-43 0 -66.5 23.5t-23.5 66.5v2271q0 43 23.5 66t66.5 23h205q67 0 112 -36l1355 -1137v1073q0 43 23 66.5t66 23.5h606z" />
    <glyph glyph-name="ncaron" unicode="&#x148;" 
d="M1002 2136l-422 462q-40 44 -26 77t73 33h359q68 0 108 -60l139 -210l139 210q40 60 108 60h359q59 0 73 -33t-26 -77l-422 -462q-47 -47 -111 -47h-240q-64 0 -111 47zM1548 1918q633 0 633 -684v-1159q0 -36 -19.5 -55.5t-54.5 -19.5h-601q-36 0 -55.5 19.5t-19.5 55.5
v915q0 172 -57 247t-174 75q-136 0 -220 -98t-84 -275v-864q0 -36 -19.5 -55.5t-55.5 -19.5h-600q-36 0 -55.5 19.5t-19.5 55.5v1729q0 35 19.5 54.5t55.5 19.5h600q36 0 55.5 -19.5t19.5 -54.5v-206q93 148 258.5 234t393.5 86z" />
    <glyph glyph-name="Eng" unicode="&#x14a;" horiz-adv-x="2838" 
d="M2603 2440q43 0 66 -23.5t23 -66.5v-2172q0 -153 -32.5 -280.5t-105 -234t-183 -180t-272.5 -114t-368 -40.5q-34 0 -56 22t-22 56v331q0 28 18.5 48.5t48.5 25.5q222 36 222 336v165l-1011 844v-1067q0 -43 -23.5 -66.5t-66.5 -23.5h-605q-43 0 -66.5 23.5t-23.5 66.5
v2271q0 43 23.5 66t66.5 23h205q67 0 112 -36l1355 -1137v1073q0 43 23 66.5t66 23.5h606z" />
    <glyph glyph-name="eng" unicode="&#x14b;" 
d="M1548 1918q633 0 633 -684v-1056q0 -153 -32.5 -280.5t-105 -234t-183 -180t-272.5 -114t-368 -40.5q-34 0 -56.5 22t-22.5 56v331q0 28 18.5 48.5t49.5 25.5q222 36 222 336v842q0 172 -57.5 247t-173.5 75q-136 0 -220 -98t-84 -275v-864q0 -36 -19.5 -55.5
t-55.5 -19.5h-600q-36 0 -55.5 19.5t-19.5 55.5v1729q0 35 19.5 54.5t55.5 19.5h600q36 0 55.5 -19.5t19.5 -54.5v-206q94 149 259 234.5t393 85.5z" />
    <glyph glyph-name="Omacron" unicode="&#x14c;" horiz-adv-x="2998" 
d="M811 3061q0 37 25.5 63t63.5 26h1199q37 0 63 -26t26 -63v-245q0 -37 -26 -63.5t-63 -26.5h-1199q-37 0 -63 26t-26 64v245zM1499 2495q227 0 434.5 -55.5t379 -165t298.5 -261.5t197 -355.5t70 -437.5t-70 -437.5t-197 -355.5t-298.5 -261.5t-379 -165t-434.5 -55.5
q-189 0 -365.5 39.5t-329 114t-278.5 186.5t-216 251t-139.5 314t-49.5 370t49.5 370t139.5 314t216 251t278.5 186.5t329 114t365.5 39.5zM1499 581q251 0 405 177.5t154 461.5t-154 461.5t-405 177.5t-405 -177.5t-154 -461.5t154 -461.5t405 -177.5z" />
    <glyph glyph-name="omacron" unicode="&#x14d;" horiz-adv-x="2378" 
d="M501 2499q0 37 25.5 63t63.5 26h1199q37 0 63 -26t26 -63v-245q0 -37 -26 -63.5t-63 -26.5h-1199q-37 0 -63 26t-26 64v245zM1189 1933q222 0 417.5 -65.5t345.5 -188.5t237.5 -314t87.5 -426t-87.5 -426t-237.5 -314t-345.5 -188.5t-417.5 -65.5t-417.5 65.5
t-345.5 188.5t-237.5 314t-87.5 426t87.5 426t237.5 314t345.5 188.5t417.5 65.5zM1189 537q138 0 228 105.5t90 296.5t-90 297t-228 106t-228 -106t-90 -297t90 -296.5t228 -105.5z" />
    <glyph glyph-name="Ohungarumlaut" unicode="&#x150;" horiz-adv-x="2998" 
d="M1236 2656q-24 -33 -59 -42t-66 8l-161 95q-32 19 -40.5 57.5t8.5 71.5l375 780q18 34 54 43t68 -11l281 -162q36 -22 45.5 -56.5t-13.5 -67.5zM1821 2625q-39 -14 -72.5 -2.5t-50.5 43.5l-82 169q-15 34 -1.5 70t46.5 55l745 441q35 18 69 5.5t51 -46.5l144 -291
q18 -38 6.5 -72.5t-48.5 -48.5zM1499 2495q227 0 434.5 -55.5t379 -165t298.5 -261.5t197 -355.5t70 -437.5t-70 -437.5t-197 -355.5t-298.5 -261.5t-379 -165t-434.5 -55.5q-189 0 -365.5 39.5t-329 114t-278.5 186.5t-216 251t-139.5 314t-49.5 370t49.5 370t139.5 314
t216 251t278.5 186.5t329 114t365.5 39.5zM1499 581q251 0 405 177.5t154 461.5t-154 461.5t-405 177.5t-405 -177.5t-154 -461.5t154 -461.5t405 -177.5z" />
    <glyph glyph-name="ohungarumlaut" unicode="&#x151;" horiz-adv-x="2378" 
d="M926 2094q-24 -33 -59 -42t-66 8l-161 95q-32 19 -40.5 57.5t8.5 71.5l375 780q18 34 54 43t68 -11l281 -162q36 -22 45.5 -56.5t-13.5 -67.5zM1511 2063q-39 -14 -72.5 -2.5t-50.5 43.5l-82 169q-15 34 -1.5 70t46.5 55l745 441q35 18 69 5.5t51 -46.5l144 -291
q18 -38 6.5 -72.5t-48.5 -48.5zM1189 1933q222 0 417.5 -65.5t345.5 -188.5t237.5 -314t87.5 -426t-87.5 -426t-237.5 -314t-345.5 -188.5t-417.5 -65.5t-417.5 65.5t-345.5 188.5t-237.5 314t-87.5 426t87.5 426t237.5 314t345.5 188.5t417.5 65.5zM1189 537
q138 0 228 105.5t90 296.5t-90 297t-228 106t-228 -106t-90 -297t90 -296.5t228 -105.5z" />
    <glyph glyph-name="OE" unicode="&#x152;" horiz-adv-x="3858" 
d="M3727 606q36 0 55.5 -19.5t19.5 -54.5v-457q0 -36 -19.5 -55.5t-55.5 -19.5h-1825q-186 -51 -403 -51q-189 0 -365.5 39.5t-329 114t-278.5 186.5t-216 251t-139.5 314t-49.5 370t49.5 370t139.5 314t216 251t278.5 186.5t329 114t365.5 39.5q233 0 431 -59h1757
q36 0 55.5 -19.5t19.5 -55.5v-457q0 -35 -19.5 -54.5t-55.5 -19.5h-1053q68 -152 97 -325h796q36 0 55.5 -19.5t19.5 -55.5v-398q0 -35 -19.5 -54.5t-55.5 -19.5h-792q-29 -191 -105 -356h1097zM940 1224q0 -284 154 -461.5t405 -177.5t405 177.5t154 461.5t-154 461.5
t-405 177.5t-405 -177.5t-154 -461.5z" />
    <glyph glyph-name="oe" unicode="&#x153;" horiz-adv-x="3750" 
d="M3472 486q45 -22 53 -53.5t-13 -68.5q-41 -83 -124.5 -158t-196 -133.5t-257.5 -93t-298 -34.5q-209 0 -392.5 58t-322.5 171q-146 -112 -334 -170.5t-398 -58.5q-222 0 -417.5 65.5t-345.5 188.5t-237.5 314t-87.5 426t87.5 426t237.5 314t345.5 188.5t417.5 65.5
q211 0 400.5 -59t334.5 -173q142 114 328.5 173t397.5 59q165 0 311 -38.5t273 -123t218.5 -209.5t144 -307t52.5 -405h-1361q14 -94 52 -165.5t89.5 -112.5t108.5 -60.5t118 -19.5q110 0 184.5 34.5t123.5 108.5q29 41 52 50t70 -10zM2638 1450q-114 0 -201 -67t-127 -194
h621q-35 135 -112.5 198t-180.5 63zM1189 537q138 0 228 105.5t90 296.5t-90 297t-228 106t-228 -106t-90 -297t90 -296.5t228 -105.5z" />
    <glyph glyph-name="Racute" unicode="&#x154;" horiz-adv-x="2494" 
d="M873 2666l-82 169q-15 34 -1.5 70t46.5 55l745 441q35 18 69 5.5t51 -46.5l144 -291q18 -38 6.5 -72.5t-48.5 -48.5l-807 -323q-39 -14 -72.5 -2.5t-50.5 43.5zM2384 164q34 -62 3.5 -113t-100.5 -51h-610q-22 0 -41 12.5t-30 32.5l-369 705h-306v-675q0 -31 -22 -53
t-53 -22h-635q-31 0 -53 22t-22 53v2290q0 31 22 53t53 22h635h482q243 0 438 -65t321.5 -179t193.5 -267.5t67 -333.5q0 -220 -99 -400t-287 -292zM931 1863v-536h253q191 0 280 68t89 200t-89 200t-280 68h-253z" />
    <glyph glyph-name="racute" unicode="&#x155;" horiz-adv-x="1492" 
d="M411 2104l-82 169q-15 34 -1.5 70t46.5 55l745 441q35 18 69 5.5t51 -46.5l144 -291q18 -38 6.5 -72.5t-48.5 -48.5l-807 -323q-39 -14 -72.5 -2.5t-50.5 43.5zM1344 1911q83 0 83 -74v-625q0 -35 -17 -49.5t-52 -22.5q-47 -10 -81 -19t-86 -29t-89 -42.5t-78.5 -60.5
t-67.5 -83.5t-43 -111t-17 -143.5v-576q0 -36 -19.5 -55.5t-55.5 -19.5h-600q-36 0 -55.5 19.5t-19.5 55.5v1729q0 35 19.5 54.5t55.5 19.5h600q36 0 55.5 -19.5t19.5 -54.5v-286q33 93 88.5 169.5t118 124t125 73.5t116.5 26z" />
    <glyph glyph-name="Rcommaaccent" unicode="&#x156;" horiz-adv-x="2494" 
d="M2384 164q34 -62 3.5 -113t-100.5 -51h-610q-22 0 -41 12.5t-30 32.5l-369 705h-306v-675q0 -31 -22 -53t-53 -22h-635q-31 0 -53 22t-22 53v2290q0 31 22 53t53 22h635h482q243 0 438 -65t321.5 -179t193.5 -267.5t67 -333.5q0 -220 -99 -400t-287 -292zM931 1863v-536
h253q191 0 280 68t89 200t-89 200t-280 68h-253zM1207 -226q61 0 118 -21.5t105 -62.5t77 -111t29 -158q0 -206 -145 -427t-347 -329q-20 -10 -39.5 -5.5t-31.5 19.5l-48 54q-16 18 -15 42.5t19 45.5l27 27t29.5 30t25 28.5t25 33.5t17.5 33t14 39.5t4 40.5q0 49 -22 81.5
t-66 68.5q-105 94 -105 236t96 238.5t233 96.5z" />
    <glyph glyph-name="rcommaaccent" unicode="&#x157;" horiz-adv-x="1492" 
d="M1344 1911q83 0 83 -74v-625q0 -35 -17 -49.5t-52 -22.5q-47 -10 -81 -19t-86 -29t-89 -42.5t-78.5 -60.5t-67.5 -83.5t-43 -111t-17 -143.5v-576q0 -36 -19.5 -55.5t-55.5 -19.5h-600q-36 0 -55.5 19.5t-19.5 55.5v1729q0 35 19.5 54.5t55.5 19.5h600q36 0 55.5 -19.5
t19.5 -54.5v-286q33 93 88.5 169.5t118 124t125 73.5t116.5 26zM484 -226q61 0 118 -21.5t105 -62.5t77 -111t29 -158q0 -206 -145 -427t-347 -329q-20 -10 -39.5 -5.5t-31.5 19.5l-48 54q-16 18 -15 42.5t19 45.5l27 27t29.5 30t25 28.5t25 33.5t17.5 33t14 39.5t4 40.5
q0 49 -22 81.5t-66 68.5q-105 94 -105 236t96 238.5t233 96.5z" />
    <glyph glyph-name="Rcaron" unicode="&#x158;" horiz-adv-x="2494" 
d="M978 2698l-422 462q-40 44 -26 77t73 33h359q68 0 108 -60l139 -210l139 210q40 60 108 60h359q59 0 73 -33t-26 -77l-422 -462q-47 -47 -111 -47h-240q-64 0 -111 47zM2384 164q34 -62 3.5 -113t-100.5 -51h-610q-22 0 -41 12.5t-30 32.5l-369 705h-306v-675
q0 -31 -22 -53t-53 -22h-635q-31 0 -53 22t-22 53v2290q0 31 22 53t53 22h635h482q243 0 438 -65t321.5 -179t193.5 -267.5t67 -333.5q0 -220 -99 -400t-287 -292zM931 1863v-536h253q191 0 280 68t89 200t-89 200t-280 68h-253z" />
    <glyph glyph-name="rcaron" unicode="&#x159;" horiz-adv-x="1492" 
d="M627 2089q-64 0 -111 47l-422 462q-40 44 -26 77t73 33h359q68 0 108 -60l139 -210l139 210q40 60 108 60h359q59 0 73 -33t-26 -77l-422 -462q-47 -47 -111 -47h-240zM1344 1911q83 0 83 -74v-625q0 -35 -17 -49.5t-52 -22.5q-47 -10 -81 -19t-86 -29t-89 -42.5
t-78.5 -60.5t-67.5 -83.5t-43 -111t-17 -143.5v-576q0 -36 -19.5 -55.5t-55.5 -19.5h-600q-36 0 -55.5 19.5t-19.5 55.5v1729q0 35 19.5 54.5t55.5 19.5h600q36 0 55.5 -19.5t19.5 -54.5v-286q33 93 88.5 169.5t118 124t125 73.5t116.5 26z" />
    <glyph glyph-name="Sacute" unicode="&#x15a;" horiz-adv-x="2329" 
d="M973 2625q-39 -14 -72.5 -2.5t-50.5 43.5l-82 169q-15 34 -1.5 70t46.5 55l745 441q35 18 69 5.5t51 -46.5l144 -291q18 -38 6.5 -72.5t-48.5 -48.5zM976 1790q0 -34 22 -60.5t87.5 -54t102 -39t146.5 -43.5q107 -31 165.5 -49.5t165 -59.5t169 -78.5t143 -101.5
t124.5 -134t75.5 -169.5t31.5 -214.5q0 -168 -61.5 -306.5t-167 -233.5t-250 -160.5t-308 -95.5t-343.5 -30q-260 0 -491.5 60.5t-418.5 159.5q-71 45 -36 122l172 381q36 78 111 43q90 -41 126.5 -57t112.5 -45t126.5 -40.5t124 -21.5t150.5 -10q319 0 319 147
q0 80 -123 139q-65 32 -270 95q-258 79 -390 147q-298 155 -372 419q-27 94 -27 204q0 361 274.5 576.5t753.5 215.5q274 0 504 -63t363 -139q75 -44 40 -119l-159 -346q-37 -81 -127 -40q-65 32 -107.5 50t-121.5 47t-162.5 43.5t-167.5 14.5q-157 0 -231.5 -45t-74.5 -108
z" />
    <glyph glyph-name="sacute" unicode="&#x15b;" horiz-adv-x="1983" 
d="M770 2063q-39 -14 -72.5 -2.5t-50.5 43.5l-82 169q-15 34 -1.5 70t46.5 55l745 441q35 18 69 5.5t51 -46.5l144 -291q18 -38 6.5 -72.5t-48.5 -48.5zM917 1364q0 -34 33 -60.5t89 -47.5t128 -41.5t152.5 -46t160.5 -57t152 -79.5t128 -108.5t89 -148.5t33 -195
q0 -158 -71 -280.5t-197 -199t-292.5 -116t-365.5 -39.5q-238 0 -460 51t-341 127q-41 26 -50.5 55t7.5 64l139 298q39 87 121 47q152 -73 262.5 -107t247.5 -34q200 0 200 89q0 33 -32 59.5t-85.5 47t-123.5 40.5t-147 45.5t-154 57t-147 78.5t-123.5 106t-85.5 145
t-32 190q0 291 232 460t625 169q221 0 425.5 -51.5t324.5 -127.5q39 -26 49.5 -51.5t-6.5 -67.5l-122 -265q-40 -87 -117 -45q-241 131 -456 131q-95 0 -142.5 -24.5t-47.5 -67.5z" />
    <glyph glyph-name="Scedilla" unicode="&#x15e;" horiz-adv-x="2329" 
d="M2208 786q0 -145 -46 -268.5t-127 -214.5t-194 -159.5t-243.5 -109.5t-279.5 -59l-54 -116q212 28 340.5 -60t128.5 -268q0 -133 -74 -227.5t-195 -139t-276 -44.5q-179 0 -310 75q-70 44 -42 120l19 54q28 83 120 48q82 -38 149 -38q72 0 119 36t47 103q0 24 -7 43
t-16.5 32t-28 22t-34 14.5t-42 7.5t-44.5 2.5t-48.5 -2t-47 -4t-47.5 -5.5q-62 -6 -85 15t-1 71l103 248q-449 19 -824 218q-71 45 -36 122l172 381q36 78 111 43q90 -41 126.5 -57t112.5 -45t126.5 -40.5t124 -21.5t150.5 -10q319 0 319 147q0 80 -123 139q-65 32 -270 95
q-258 79 -390 147q-298 155 -372 419q-27 94 -27 204q0 361 274.5 576.5t753.5 215.5q274 0 504 -63t363 -139q75 -44 40 -119l-159 -346q-37 -81 -127 -40q-65 32 -107.5 50t-121.5 47t-162.5 43.5t-167.5 14.5q-157 0 -231.5 -45t-74.5 -108q0 -34 22 -60.5t87.5 -54
t102 -39t146.5 -43.5q107 -31 165.5 -49.5t165 -59.5t169 -78.5t143 -101.5t124.5 -134t75.5 -169.5t31.5 -214.5z" />
    <glyph glyph-name="scedilla" unicode="&#x15f;" horiz-adv-x="1983" 
d="M1882 580q0 -138 -54.5 -250t-154 -188t-232.5 -123t-296 -64l-44 -96q212 28 340.5 -60t128.5 -268q0 -133 -74 -227.5t-195 -139t-276 -44.5q-179 0 -310 75q-70 44 -42 120l19 54q28 83 120 48q82 -38 149 -38q72 0 119 36t47 103q0 24 -7 43t-16.5 32t-28 22
t-34 14.5t-42 7.5t-44.5 2.5t-48.5 -2t-47 -4t-47.5 -5.5q-62 -6 -85 15t-1 71l97 235q-205 13 -385.5 61t-282.5 113q-41 26 -50.5 55t7.5 64l139 298q39 87 121 47q152 -73 262.5 -107t247.5 -34q200 0 200 89q0 33 -32 59.5t-85.5 47t-123.5 40.5t-147 45.5t-154 57
t-147 78.5t-123.5 106t-85.5 145t-32 190q0 291 232 460t625 169q221 0 425.5 -51.5t324.5 -127.5q39 -26 49.5 -51.5t-6.5 -67.5l-122 -265q-40 -87 -117 -45q-241 131 -456 131q-95 0 -142.5 -24.5t-47.5 -67.5q0 -34 33 -60.5t89 -47.5t128 -41.5t152.5 -46t160.5 -57
t152 -79.5t128 -108.5t89 -148.5t33 -195z" />
    <glyph glyph-name="Scaron" unicode="&#x160;" horiz-adv-x="2329" 
d="M1325 3210q40 60 108 60h359q59 0 73 -33t-26 -77l-422 -462q-47 -47 -111 -47h-240q-64 0 -111 47l-422 462q-40 44 -26 77t73 33h359q68 0 108 -60l139 -210zM976 1790q0 -34 22 -60.5t87.5 -54t102 -39t146.5 -43.5q107 -31 165.5 -49.5t165 -59.5t169 -78.5
t143 -101.5t124.5 -134t75.5 -169.5t31.5 -214.5q0 -168 -61.5 -306.5t-167 -233.5t-250 -160.5t-308 -95.5t-343.5 -30q-260 0 -491.5 60.5t-418.5 159.5q-71 45 -36 122l172 381q36 78 111 43q90 -41 126.5 -57t112.5 -45t126.5 -40.5t124 -21.5t150.5 -10q319 0 319 147
q0 80 -123 139q-65 32 -270 95q-258 79 -390 147q-298 155 -372 419q-27 94 -27 204q0 361 274.5 576.5t753.5 215.5q274 0 504 -63t363 -139q75 -44 40 -119l-159 -346q-37 -81 -127 -40q-65 32 -107.5 50t-121.5 47t-162.5 43.5t-167.5 14.5q-157 0 -231.5 -45t-74.5 -108
z" />
    <glyph glyph-name="scaron" unicode="&#x161;" horiz-adv-x="1983" 
d="M1122 2648q40 60 108 60h359q59 0 73 -33t-26 -77l-422 -462q-47 -47 -111 -47h-240q-64 0 -111 47l-422 462q-40 44 -26 77t73 33h359q68 0 108 -60l139 -210zM917 1364q0 -34 33 -60.5t89 -47.5t128 -41.5t152.5 -46t160.5 -57t152 -79.5t128 -108.5t89 -148.5t33 -195
q0 -158 -71 -280.5t-197 -199t-292.5 -116t-365.5 -39.5q-238 0 -460 51t-341 127q-41 26 -50.5 55t7.5 64l139 298q39 87 121 47q152 -73 262.5 -107t247.5 -34q200 0 200 89q0 33 -32 59.5t-85.5 47t-123.5 40.5t-147 45.5t-154 57t-147 78.5t-123.5 106t-85.5 145
t-32 190q0 291 232 460t625 169q221 0 425.5 -51.5t324.5 -127.5q39 -26 49.5 -51.5t-6.5 -67.5l-122 -265q-40 -87 -117 -45q-241 131 -456 131q-95 0 -142.5 -24.5t-47.5 -67.5z" />
    <glyph glyph-name="uni0162" unicode="&#x162;" horiz-adv-x="2510" 
d="M2349 2440q31 0 53 -22t22 -53v-486q0 -31 -22 -53t-53 -22h-702v-1729q0 -31 -22 -53t-53 -22h-134l-65 -141q212 28 340.5 -60t128.5 -268q0 -133 -74 -227.5t-195 -139t-276 -44.5q-179 0 -310 75q-70 44 -42 120l19 54q28 83 120 48q82 -38 149 -38q72 0 119 36
t47 103q0 24 -7 43t-16.5 32t-28 22t-34 14.5t-42 7.5t-44.5 2.5t-48.5 -2t-47 -4t-47.5 -5.5q-62 -6 -85 15t-1 71l118 286h-179q-31 0 -53 22t-22 53v1729h-701q-31 0 -53 22t-22 53v486q0 31 22 53t53 22h1411h777z" />
    <glyph glyph-name="uni0163" unicode="&#x163;" horiz-adv-x="1849" 
d="M1783 246q33 -76 -36 -120q-132 -77 -263.5 -121.5t-293.5 -55.5l-42 -90q212 28 340.5 -60t128.5 -268q0 -133 -74 -227.5t-195 -139t-276 -44.5q-179 0 -310 75q-70 44 -42 120l19 54q28 83 120 48q82 -38 149 -38q72 0 119 36t47 103q0 24 -7 43t-16.5 32t-28 22
t-34 14.5t-42 7.5t-44.5 2.5t-48.5 -2t-47 -4t-47.5 -5.5q-62 -6 -85 15t-1 71l104 252q-243 53 -383.5 226.5t-140.5 432.5v677h-200q-43 0 -66.5 23t-23.5 66v398q0 43 23.5 66t66.5 23h200v245q0 77 90 105l559 163q46 14 73.5 -2.5t27.5 -58.5v-452h497q43 0 66.5 -23
t23.5 -66v-398q0 -43 -23.5 -66t-66.5 -23h-497v-489q0 -144 45.5 -217.5t155.5 -73.5q98 0 216 65q85 46 122 -39z" />
    <glyph glyph-name="Tcaron" unicode="&#x164;" horiz-adv-x="2510" 
d="M1024 2698l-422 462q-40 44 -26 77t73 33h359q68 0 108 -60l139 -210l139 210q40 60 108 60h359q59 0 73 -33t-26 -77l-422 -462q-47 -47 -111 -47h-240q-64 0 -111 47zM2349 2440q31 0 53 -22t22 -53v-486q0 -31 -22 -53t-53 -22h-702v-1729q0 -31 -22 -53t-53 -22h-635
q-31 0 -53 22t-22 53v1729h-701q-31 0 -53 22t-22 53v486q0 31 22 53t53 22h1411h777z" />
    <glyph glyph-name="tcaron" unicode="&#x165;" horiz-adv-x="2421" 
d="M2091 2620q61 0 118 -21.5t105 -62.5t77 -111t29 -158q0 -206 -145 -427t-347 -329q-20 -10 -39.5 -5.5t-31.5 19.5l-48 54q-16 18 -15 42.5t19 45.5l27 27t29.5 30t25 28.5t25 33.5t17.5 33t14 39.5t4 40.5q0 49 -22 81.5t-66 68.5q-105 94 -105 236t96 238.5t233 96.5z
M1642 548l141 -302q33 -76 -36 -120q-153 -89 -308 -135t-358 -46q-328 0 -528 184t-200 496v677h-200q-43 0 -66.5 23t-23.5 66v398q0 43 23.5 66t66.5 23h200v245q0 77 90 105l559 163q46 14 73.5 -2.5t27.5 -58.5v-452h497q43 0 66.5 -23t23.5 -66v-398q0 -43 -23.5 -66
t-66.5 -23h-497v-489q0 -144 45.5 -217.5t155.5 -73.5q98 0 216 65q85 46 122 -39z" />
    <glyph glyph-name="Tbar" unicode="&#x166;" horiz-adv-x="2410" 
d="M2349 2440q31 0 53 -22t22 -53v-486q0 -31 -22 -53t-53 -22h-702v-303h243q43 0 66.5 -23.5t23.5 -66.5v-269q0 -42 -23.5 -65.5t-66.5 -23.5h-243v-978q0 -31 -22 -53t-53 -22h-635q-31 0 -53 22t-22 53v978h-342q-43 0 -66.5 23.5t-23.5 65.5v269q0 43 23.5 66.5
t66.5 23.5h342v303h-701q-31 0 -53 22t-22 53v486q0 31 22 53t53 22h1411h777z" />
    <glyph glyph-name="tbar" unicode="&#x167;" horiz-adv-x="1849" 
d="M1783 246q33 -76 -36 -120q-153 -89 -308 -135t-358 -46q-328 0 -528 184t-200 496v250h-200q-43 0 -66.5 23.5t-23.5 65.5v100q0 43 23.5 66.5t66.5 23.5h200v148h-200q-43 0 -66.5 23t-23.5 66v398q0 43 23.5 66t66.5 23h200v245q0 77 90 105l559 163q46 14 73.5 -2.5
t27.5 -58.5v-452h497q43 0 66.5 -23t23.5 -66v-398q0 -43 -23.5 -66t-66.5 -23h-497v-148h379q43 0 66 -23.5t23 -66.5v-100q0 -42 -23 -65.5t-66 -23.5h-379v-62q0 -144 45.5 -217.5t155.5 -73.5q98 0 216 65q85 46 122 -39z" />
    <glyph glyph-name="Umacron" unicode="&#x16a;" horiz-adv-x="2788" 
d="M795 2726q-37 0 -63 26t-26 64v245q0 37 26 63t63 26h1199q37 0 63 -26t26 -63v-245q0 -37 -26 -63.5t-63 -26.5h-1199zM2567 2440q31 0 53 -22t22 -53v-1325q0 -217 -62 -395.5t-173 -304.5t-267.5 -212.5t-343.5 -127t-402 -40.5t-402 40.5t-343.5 127t-267.5 212.5
t-173 304.5t-62 395.5v1325q0 31 22 53t53 22h635q31 0 53 -22t22 -53v-1156q0 -295 114 -454t349 -159t349 159t114 454v1156q0 31 22 53t53 22h635z" />
    <glyph glyph-name="umacron" unicode="&#x16b;" 
d="M565 2164q-37 0 -63 26t-26 64v245q0 37 26 63t63 26h1199q37 0 63 -26t26 -63v-245q0 -37 -26 -63.5t-63 -26.5h-1199zM2106 1878q36 0 55.5 -19.5t19.5 -54.5v-1729q0 -36 -19.5 -55.5t-55.5 -19.5h-600q-36 0 -55.5 19.5t-19.5 55.5v205q-93 -148 -258.5 -234
t-393.5 -86q-633 0 -633 684v1159q0 36 19.5 55.5t54.5 19.5h601q36 0 55.5 -19.5t19.5 -55.5v-915q0 -172 57 -247t174 -75q136 0 220 98t84 275v865q0 35 19.5 54.5t55.5 19.5h600z" />
    <glyph glyph-name="Uring" unicode="&#x16e;" horiz-adv-x="2788" 
d="M1394 2477q-148 0 -277 71t-206.5 195.5t-77.5 271.5t77.5 273t206.5 198t277 72q111 0 214 -43t179 -115.5t121.5 -173.5t45.5 -211t-45.5 -210t-121.5 -171.5t-179 -114t-214 -42.5zM1394 3203q-77 0 -128 -55.5t-51 -132.5q0 -75 51 -129t128 -54t128 54t51 129
q0 77 -51 132.5t-128 55.5zM2567 2440q31 0 53 -22t22 -53v-1325q0 -217 -62 -395.5t-173 -304.5t-267.5 -212.5t-343.5 -127t-402 -40.5t-402 40.5t-343.5 127t-267.5 212.5t-173 304.5t-62 395.5v1325q0 31 22 53t53 22h635q31 0 53 -22t22 -53v-1156q0 -295 114 -454
t349 -159t349 159t114 454v1156q0 31 22 53t53 22h635z" />
    <glyph glyph-name="uring" unicode="&#x16f;" 
d="M1164 1915q-148 0 -277 71t-206.5 195.5t-77.5 271.5t77.5 273t206.5 198t277 72q111 0 214 -43t179 -115.5t121.5 -173.5t45.5 -211t-45.5 -210t-121.5 -171.5t-179 -114t-214 -42.5zM1164 2641q-77 0 -128 -55.5t-51 -132.5q0 -75 51 -129t128 -54t128 54t51 129
q0 77 -51 132.5t-128 55.5zM2106 1878q36 0 55.5 -19.5t19.5 -54.5v-1729q0 -36 -19.5 -55.5t-55.5 -19.5h-600q-36 0 -55.5 19.5t-19.5 55.5v205q-93 -148 -258.5 -234t-393.5 -86q-633 0 -633 684v1159q0 36 19.5 55.5t54.5 19.5h601q36 0 55.5 -19.5t19.5 -55.5v-915
q0 -172 57 -247t174 -75q136 0 220 98t84 275v865q0 35 19.5 54.5t55.5 19.5h600z" />
    <glyph glyph-name="Uhungarumlaut" unicode="&#x170;" horiz-adv-x="2788" 
d="M845 2717q-32 19 -40.5 57.5t8.5 71.5l375 780q18 34 54 43t68 -11l281 -162q36 -22 45.5 -56.5t-13.5 -67.5l-492 -716q-24 -33 -59 -42t-66 8zM1511 2835q-15 34 -1.5 70t46.5 55l745 441q35 18 69 5.5t51 -46.5l144 -291q18 -38 6.5 -72.5t-48.5 -48.5l-807 -323
q-39 -14 -72.5 -2.5t-50.5 43.5zM2567 2440q31 0 53 -22t22 -53v-1325q0 -217 -62 -395.5t-173 -304.5t-267.5 -212.5t-343.5 -127t-402 -40.5t-402 40.5t-343.5 127t-267.5 212.5t-173 304.5t-62 395.5v1325q0 31 22 53t53 22h635q31 0 53 -22t22 -53v-1156
q0 -295 114 -454t349 -159t349 159t114 454v1156q0 31 22 53t53 22h635z" />
    <glyph glyph-name="uhungarumlaut" unicode="&#x171;" 
d="M615 2155q-32 19 -40.5 57.5t8.5 71.5l375 780q18 34 54 43t68 -11l281 -162q36 -22 45.5 -56.5t-13.5 -67.5l-492 -716q-24 -33 -59 -42t-66 8zM2335 2507q18 -38 6.5 -72.5t-48.5 -48.5l-807 -323q-39 -14 -72.5 -2.5t-50.5 43.5l-82 169q-15 34 -1.5 70t46.5 55
l745 441q35 18 69 5.5t51 -46.5zM2106 1878q36 0 55.5 -19.5t19.5 -54.5v-1729q0 -36 -19.5 -55.5t-55.5 -19.5h-600q-36 0 -55.5 19.5t-19.5 55.5v205q-93 -148 -258.5 -234t-393.5 -86q-633 0 -633 684v1159q0 36 19.5 55.5t54.5 19.5h601q36 0 55.5 -19.5t19.5 -55.5
v-915q0 -172 57 -247t174 -75q136 0 220 98t84 275v865q0 35 19.5 54.5t55.5 19.5h600z" />
    <glyph glyph-name="Uogonek" unicode="&#x172;" horiz-adv-x="2788" 
d="M2567 2440q31 0 53 -22t22 -53v-1325q0 -226 -66 -409t-187 -311t-284.5 -210.5t-366.5 -119.5q-88 -61 -144.5 -147t-56.5 -169q0 -64 36 -98t105 -34q40 0 87 12q40 9 61.5 -7t21.5 -56v-227q0 -62 -61 -90q-124 -54 -290 -54q-204 0 -338.5 115t-134.5 297
q0 124 50 236t140 200q-236 21 -428.5 96.5t-336.5 205.5t-223.5 326t-79.5 444v1325q0 31 22 53t53 22h635q31 0 53 -22t22 -53v-1156q0 -295 114 -454t349 -159t349 159t114 454v1156q0 31 22 53t53 22h635z" />
    <glyph glyph-name="uogonek" unicode="&#x173;" 
d="M2106 1878q36 0 55.5 -19.5t19.5 -54.5v-1729q0 -36 -19.5 -55.5t-55.5 -19.5h-266q-93 -59 -154.5 -149t-61.5 -177q0 -64 36 -98t105 -34q41 0 87 12q40 9 61.5 -7t21.5 -56v-227q0 -62 -61 -90q-124 -54 -290 -54q-204 0 -338.5 115t-134.5 297q0 165 86 305.5
t234 229.5v8v205q-93 -148 -258.5 -234t-393.5 -86q-633 0 -633 684v1159q0 36 19.5 55.5t54.5 19.5h601q36 0 55.5 -19.5t19.5 -55.5v-915q0 -172 57 -247t174 -75q136 0 220 98t84 275v865q0 35 19.5 54.5t55.5 19.5h600z" />
    <glyph glyph-name="Wcircumflex" unicode="&#x174;" horiz-adv-x="3715" 
d="M1261 2651q-59 0 -73 33t26 77l422 462q47 47 111 47h240q64 0 111 -47l422 -462q40 -44 26 -77t-73 -33h-359q-68 0 -108 60l-139 210l-139 -210q-40 -60 -108 -60h-359zM3623 2440q48 0 66 -27.5t2 -77.5l-755 -2278q-21 -67 -103 -67h-437q-82 0 -104 67l-437 1279
l-437 -1279q-22 -67 -104 -67h-437q-82 0 -103 67l-755 2278q-16 50 2 77.5t66 27.5h648q82 0 101 -71l346 -1229l372 1069q10 34 37.5 52.5t65.5 18.5h413q81 0 104 -71l359 -1069l372 1229q22 71 100 71h618z" />
    <glyph glyph-name="wcircumflex" unicode="&#x175;" horiz-adv-x="3165" 
d="M978 2089q-59 0 -73 33t26 77l422 462q47 47 111 47h240q64 0 111 -47l422 -462q40 -44 26 -77t-73 -33h-359q-68 0 -108 60l-139 210l-139 -210q-40 -60 -108 -60h-359zM3052 1878q61 0 91 -46t8 -104l-631 -1675q-25 -63 -91 -63h-359q-68 0 -93 60l-394 883l-394 -883
q-24 -60 -94 -60h-358q-68 0 -91 63l-632 1675q-22 58 8.5 104t91.5 46h597q28 0 48.5 -14.5t26.5 -38.5l250 -796l267 661q22 62 97 62h366q75 0 97 -62l267 -661l252 796q6 24 26 38.5t48 14.5h596z" />
    <glyph glyph-name="Ycircumflex" unicode="&#x176;" horiz-adv-x="2695" 
d="M750 2651q-59 0 -73 33t26 77l422 462q47 47 111 47h240q64 0 111 -47l422 -462q40 -44 26 -77t-73 -33h-359q-68 0 -108 60l-139 210l-139 -210q-40 -60 -108 -60h-359zM2598 2440q50 0 71.5 -31t-2.5 -74l-922 -1558v-702q0 -31 -22 -53t-52 -22h-636q-31 0 -52.5 22
t-21.5 53v701l-937 1559q-25 43 -3.5 74t71.5 31h677q63 0 101 -71l515 -932l486 932q33 71 103 71h624z" />
    <glyph glyph-name="ycircumflex" unicode="&#x177;" horiz-adv-x="2263" 
d="M497 2089q-59 0 -73 33t26 77l422 462q47 47 111 47h240q64 0 111 -47l422 -462q40 -44 26 -77t-73 -33h-359q-68 0 -108 60l-139 210l-139 -210q-40 -60 -108 -60h-359zM2147 1878q62 0 94 -47t5 -105l-710 -1483q-85 -178 -160.5 -306.5t-164 -236.5t-182 -176.5
t-212.5 -116.5t-258 -68.5t-315 -20.5q-35 0 -57.5 21.5t-22.5 56.5v386q0 66 68 74q90 11 156 34t130 70.5t122 122t125 190.5l-747 1453q-29 57 3.5 104.5t96.5 47.5h631q52 0 76 -52l334 -731l320 731q21 52 76 52h592z" />
    <glyph glyph-name="Ydieresis" unicode="&#x178;" horiz-adv-x="2695" 
d="M910 2659q-138 0 -235 97t-97 235t97 235t235 97t235.5 -97t97.5 -235t-97.5 -235t-235.5 -97zM1804 2659q-138 0 -235 97t-97 235t97 235t235 97t235.5 -97t97.5 -235t-97.5 -235t-235.5 -97zM2598 2440q50 0 71.5 -31t-2.5 -74l-922 -1558v-702q0 -31 -22 -53t-52 -22
h-636q-31 0 -52.5 22t-21.5 53v701l-937 1559q-25 43 -3.5 74t71.5 31h677q63 0 101 -71l515 -932l486 932q33 71 103 71h624z" />
    <glyph glyph-name="Zacute" unicode="&#x179;" horiz-adv-x="2594" 
d="M1114 2625q-39 -14 -72.5 -2.5t-50.5 43.5l-82 169q-15 34 -1.5 70t46.5 55l745 441q35 18 69 5.5t51 -46.5l144 -291q18 -38 6.5 -72.5t-48.5 -48.5zM146 0q-43 0 -66.5 23.5t-23.5 66.5v157q0 64 39 111l1170 1446h-1034q-31 0 -53 22t-22 53v486q0 31 22 53t53 22
h2142q43 0 66 -23.5t23 -66.5v-157q0 -66 -35 -111l-1159 -1446h1150q31 0 53 -22t22 -53v-486q0 -31 -22 -53t-53 -22h-2272z" />
    <glyph glyph-name="zacute" unicode="&#x17a;" horiz-adv-x="2153" 
d="M889 2063q-39 -14 -72.5 -2.5t-50.5 43.5l-82 169q-15 34 -1.5 70t46.5 55l745 441q35 18 69 5.5t51 -46.5l144 -291q18 -38 6.5 -72.5t-48.5 -48.5zM146 0q-43 0 -66.5 23t-23.5 65v40q0 63 36 111l780 1048h-612q-30 0 -52 22t-22 53v442q0 30 22 52t52 22h1672
q43 0 66.5 -22t23.5 -64v-42q0 -57 -36 -110l-814 -1078h765q31 0 53 -22t22 -53v-412q0 -31 -22 -53t-53 -22h-1791z" />
    <glyph glyph-name="Zdotaccent" unicode="&#x17b;" horiz-adv-x="2594" 
d="M1327 2600q-161 0 -274.5 113.5t-113.5 274.5t113.5 274.5t274.5 113.5t274.5 -113.5t113.5 -274.5t-113.5 -274.5t-274.5 -113.5zM146 0q-43 0 -66.5 23.5t-23.5 66.5v157q0 64 39 111l1170 1446h-1034q-31 0 -53 22t-22 53v486q0 31 22 53t53 22h2142q43 0 66 -23.5
t23 -66.5v-157q0 -66 -35 -111l-1159 -1446h1150q31 0 53 -22t22 -53v-486q0 -31 -22 -53t-53 -22h-2272z" />
    <glyph glyph-name="zdotaccent" unicode="&#x17c;" horiz-adv-x="2153" 
d="M1102 2038q-161 0 -274.5 113.5t-113.5 274.5t113.5 274.5t274.5 113.5t274.5 -113.5t113.5 -274.5t-113.5 -274.5t-274.5 -113.5zM146 0q-43 0 -66.5 23t-23.5 65v40q0 63 36 111l780 1048h-612q-30 0 -52 22t-22 53v442q0 30 22 52t52 22h1672q43 0 66.5 -22t23.5 -64
v-42q0 -57 -36 -110l-814 -1078h765q31 0 53 -22t22 -53v-412q0 -31 -22 -53t-53 -22h-1791z" />
    <glyph glyph-name="Zcaron" unicode="&#x17d;" horiz-adv-x="2594" 
d="M1466 3210q40 60 108 60h359q59 0 73 -33t-26 -77l-422 -462q-47 -47 -111 -47h-240q-64 0 -111 47l-422 462q-40 44 -26 77t73 33h359q68 0 108 -60l139 -210zM146 0q-43 0 -66.5 23.5t-23.5 66.5v157q0 64 39 111l1170 1446h-1034q-31 0 -53 22t-22 53v486q0 31 22 53
t53 22h2142q43 0 66 -23.5t23 -66.5v-157q0 -66 -35 -111l-1159 -1446h1150q31 0 53 -22t22 -53v-486q0 -31 -22 -53t-53 -22h-2272z" />
    <glyph glyph-name="zcaron" unicode="&#x17e;" horiz-adv-x="2153" 
d="M1241 2648q40 60 108 60h359q59 0 73 -33t-26 -77l-422 -462q-47 -47 -111 -47h-240q-64 0 -111 47l-422 462q-40 44 -26 77t73 33h359q68 0 108 -60l139 -210zM146 0q-43 0 -66.5 23t-23.5 65v40q0 63 36 111l780 1048h-612q-30 0 -52 22t-22 53v442q0 30 22 52t52 22
h1672q43 0 66.5 -22t23.5 -64v-42q0 -57 -36 -110l-814 -1078h765q31 0 53 -22t22 -53v-412q0 -31 -22 -53t-53 -22h-1791z" />
    <glyph glyph-name="Scommaaccent" unicode="&#x218;" horiz-adv-x="2329" 
d="M976 1790q0 -34 22 -60.5t87.5 -54t102 -39t146.5 -43.5q107 -31 165.5 -49.5t165 -59.5t169 -78.5t143 -101.5t124.5 -134t75.5 -169.5t31.5 -214.5q0 -168 -61.5 -306.5t-167 -233.5t-250 -160.5t-308 -95.5t-343.5 -30q-260 0 -491.5 60.5t-418.5 159.5
q-71 45 -36 122l172 381q36 78 111 43q90 -41 126.5 -57t112.5 -45t126.5 -40.5t124 -21.5t150.5 -10q319 0 319 147q0 80 -123 139q-65 32 -270 95q-258 79 -390 147q-298 155 -372 419q-27 94 -27 204q0 361 274.5 576.5t753.5 215.5q274 0 504 -63t363 -139
q75 -44 40 -119l-159 -346q-37 -81 -127 -40q-65 32 -107.5 50t-121.5 47t-162.5 43.5t-167.5 14.5q-157 0 -231.5 -45t-74.5 -108zM1144 -226q61 0 118 -21.5t105 -62.5t77 -111t29 -158q0 -206 -145 -427t-347 -329q-20 -10 -39.5 -5.5t-31.5 19.5l-48 54q-16 18 -15 42.5
t19 45.5l27 27t29.5 30t25 28.5t25 33.5t17.5 33t14 39.5t4 40.5q0 49 -22 81.5t-66 68.5q-105 94 -105 236t96 238.5t233 96.5z" />
    <glyph glyph-name="scommaaccent" unicode="&#x219;" horiz-adv-x="1983" 
d="M917 1364q0 -34 33 -60.5t89 -47.5t128 -41.5t152.5 -46t160.5 -57t152 -79.5t128 -108.5t89 -148.5t33 -195q0 -158 -71 -280.5t-197 -199t-292.5 -116t-365.5 -39.5q-238 0 -460 51t-341 127q-41 26 -50.5 55t7.5 64l139 298q39 87 121 47q152 -73 262.5 -107
t247.5 -34q200 0 200 89q0 33 -32 59.5t-85.5 47t-123.5 40.5t-147 45.5t-154 57t-147 78.5t-123.5 106t-85.5 145t-32 190q0 291 232 460t625 169q221 0 425.5 -51.5t324.5 -127.5q39 -26 49.5 -51.5t-6.5 -67.5l-122 -265q-40 -87 -117 -45q-241 131 -456 131
q-95 0 -142.5 -24.5t-47.5 -67.5zM981 -226q61 0 118 -21.5t105 -62.5t77 -111t29 -158q0 -206 -145 -427t-347 -329q-20 -10 -39.5 -5.5t-31.5 19.5l-48 54q-16 18 -15 42.5t19 45.5l27 27t29.5 30t25 28.5t25 33.5t17.5 33t14 39.5t4 40.5q0 49 -22 81.5t-66 68.5
q-105 94 -105 236t96 238.5t233 96.5z" />
    <glyph glyph-name="uni021A" unicode="&#x21a;" horiz-adv-x="2510" 
d="M2349 2440q31 0 53 -22t22 -53v-486q0 -31 -22 -53t-53 -22h-702v-1729q0 -31 -22 -53t-53 -22h-635q-31 0 -53 22t-22 53v1729h-701q-31 0 -53 22t-22 53v486q0 31 22 53t53 22h1411h777zM1253 -226q61 0 118 -21.5t105 -62.5t77 -111t29 -158q0 -206 -145 -427
t-347 -329q-20 -10 -39.5 -5.5t-31.5 19.5l-48 54q-16 18 -15 42.5t19 45.5l27 27t29.5 30t25 28.5t25 33.5t17.5 33t14 39.5t4 40.5q0 49 -22 81.5t-66 68.5q-105 94 -105 236t96 238.5t233 96.5z" />
    <glyph glyph-name="uni021B" unicode="&#x21b;" horiz-adv-x="1849" 
d="M1783 246q33 -76 -36 -120q-153 -89 -308 -135t-358 -46q-328 0 -528 184t-200 496v677h-200q-43 0 -66.5 23t-23.5 66v398q0 43 23.5 66t66.5 23h200v245q0 77 90 105l559 163q46 14 73.5 -2.5t27.5 -58.5v-452h497q43 0 66.5 -23t23.5 -66v-398q0 -43 -23.5 -66
t-66.5 -23h-497v-489q0 -144 45.5 -217.5t155.5 -73.5q98 0 216 65q85 46 122 -39zM1028 -226q61 0 118 -21.5t105 -62.5t77 -111t29 -158q0 -206 -145 -427t-347 -329q-20 -10 -39.5 -5.5t-31.5 19.5l-48 54q-16 18 -15 42.5t19 45.5l27 27t29.5 30t25 28.5t25 33.5
t17.5 33t14 39.5t4 40.5q0 49 -22 81.5t-66 68.5q-105 94 -105 236t96 238.5t233 96.5z" />
    <glyph glyph-name="circumflex" unicode="&#x2c6;" horiz-adv-x="1370" 
d="M824 2149l-139 210l-139 -210q-40 -60 -108 -60h-359q-59 0 -73 33t26 77l422 462q47 47 111 47h240q64 0 111 -47l422 -462q40 -44 26 -77t-73 -33h-359q-68 0 -108 60z" />
    <glyph glyph-name="caron" unicode="&#x2c7;" horiz-adv-x="1370" 
d="M824 2648q40 60 108 60h359q59 0 73 -33t-26 -77l-422 -462q-47 -47 -111 -47h-240q-64 0 -111 47l-422 462q-40 44 -26 77t73 33h359q68 0 108 -60l139 -210z" />
    <glyph glyph-name="breve" unicode="&#x2d8;" horiz-adv-x="2400" 
d="M1317 2748q85 0 85 -85q0 -123 -53 -235t-145 -196t-224 -133.5t-281 -49.5q-148 0 -279 48.5t-223 130t-145 192t-53 231.5q0 97 83 97h226q86 0 103 -69q27 -118 99.5 -169.5t188.5 -51.5q117 0 189 51t99 170q18 69 103 69h227z" />
    <glyph glyph-name="dotaccent" unicode="&#x2d9;" horiz-adv-x="1068" 
d="M534 2038q-161 0 -274.5 113.5t-113.5 274.5t113.5 274.5t274.5 113.5t274.5 -113.5t113.5 -274.5t-113.5 -274.5t-274.5 -113.5z" />
    <glyph glyph-name="ring" unicode="&#x2da;" horiz-adv-x="1052" 
d="M526 1915q-148 0 -277 71t-206.5 195.5t-77.5 271.5t77.5 273t206.5 198t277 72q111 0 214 -43t179 -115.5t121.5 -173.5t45.5 -211t-45.5 -210t-121.5 -171.5t-179 -114t-214 -42.5zM526 2270q77 0 128 54t51 129q0 77 -51 132.5t-128 55.5t-128 -55.5t-51 -132.5
q0 -75 51 -129t128 -54z" />
    <glyph glyph-name="ogonek" unicode="&#x2db;" horiz-adv-x="1213" 
d="M474 -880q-204 0 -338.5 115t-134.5 297q0 190 112 345.5t298 235.5l321 -112q-94 -59 -156 -149t-62 -178q0 -64 36 -98t105 -34q41 0 87 12q40 9 61.5 -7t21.5 -56v-227q0 -62 -61 -90q-124 -54 -290 -54z" />
    <glyph glyph-name="tilde" unicode="&#x2dc;" horiz-adv-x="2400" 
d="M1448 2726q44 0 68.5 -38t17.5 -106q-32 -242 -160.5 -365.5t-310.5 -123.5q-84 0 -152.5 21.5t-113.5 52.5t-84 62t-84 52.5t-94 21.5q-68 0 -114.5 -36.5t-64.5 -92.5q-15 -42 -36.5 -61.5t-60.5 -19.5h-109q-43 0 -67 24.5t-21 69.5q21 258 152.5 398.5t320.5 140.5
q84 0 152.5 -21.5t113.5 -52t84 -61.5t84 -52.5t94 -21.5q71 0 116.5 35t63.5 93q15 42 36.5 61.5t59.5 19.5h109z" />
    <glyph glyph-name="hungarumlaut" unicode="&#x2dd;" horiz-adv-x="1770" 
d="M327 2094q-24 -33 -59 -42t-66 8l-161 95q-32 19 -40.5 57.5t8.5 71.5l375 780q18 34 54 43t68 -11l281 -162q36 -22 45.5 -56.5t-13.5 -67.5zM912 2063q-39 -14 -72.5 -2.5t-50.5 43.5l-82 169q-15 34 -1.5 70t46.5 55l745 441q35 18 69 5.5t51 -46.5l144 -291
q18 -38 6.5 -72.5t-48.5 -48.5z" />
    <glyph glyph-name="uni0326" unicode="&#x326;" horiz-adv-x="0" 
d="M-1811 -226q61 0 118 -21.5t105 -62.5t77 -111t29 -158q0 -206 -145 -427t-347 -329q-20 -10 -39.5 -5.5t-31.5 19.5l-48 54q-16 18 -15 42.5t19 45.5l27 27t29.5 30t25 28.5t25 33.5t17.5 33t14 39.5t4 40.5q0 49 -22 81.5t-66 68.5q-105 94 -105 236t96 238.5t233 96.5
z" />
    <glyph glyph-name="uni0335" unicode="&#x335;" horiz-adv-x="0" 
 />
    <glyph glyph-name="uni0336" unicode="&#x336;" horiz-adv-x="0" 
d="M-1962 1187q-43 0 -66.5 23.5t-23.5 65.5v269q0 43 23.5 66.5t66.5 23.5h1370q43 0 66.5 -23.5t23.5 -66.5v-269q0 -42 -23.5 -65.5t-66.5 -23.5h-1370z" />
    <glyph glyph-name="uni0337" unicode="&#x337;" horiz-adv-x="0" 
 />
    <glyph glyph-name="Wgrave" unicode="&#x1e80;" horiz-adv-x="3715" 
d="M1200 2948q-37 14 -48.5 48.5t6.5 72.5l144 291q17 34 51 46.5t69 -5.5l745 -441q33 -19 46.5 -55t-1.5 -70l-82 -169q-17 -32 -50.5 -43.5t-72.5 2.5zM3623 2440q48 0 66 -27.5t2 -77.5l-755 -2278q-21 -67 -103 -67h-437q-82 0 -104 67l-437 1279l-437 -1279
q-22 -67 -104 -67h-437q-82 0 -103 67l-755 2278q-16 50 2 77.5t66 27.5h648q82 0 101 -71l346 -1229l372 1069q10 34 37.5 52.5t65.5 18.5h413q81 0 104 -71l359 -1069l372 1229q22 71 100 71h618z" />
    <glyph glyph-name="wgrave" unicode="&#x1e81;" horiz-adv-x="3165" 
d="M917 2386q-37 14 -48.5 48.5t6.5 72.5l144 291q17 34 51 46.5t69 -5.5l745 -441q33 -19 46.5 -55t-1.5 -70l-82 -169q-17 -32 -50.5 -43.5t-72.5 2.5zM3052 1878q61 0 91 -46t8 -104l-631 -1675q-25 -63 -91 -63h-359q-68 0 -93 60l-394 883l-394 -883q-24 -60 -94 -60
h-358q-68 0 -91 63l-632 1675q-22 58 8.5 104t91.5 46h597q28 0 48.5 -14.5t26.5 -38.5l250 -796l267 661q22 62 97 62h366q75 0 97 -62l267 -661l252 796q6 24 26 38.5t48 14.5h596z" />
    <glyph glyph-name="Wacute" unicode="&#x1e82;" horiz-adv-x="3715" 
d="M1531 2666l-82 169q-15 34 -1.5 70t46.5 55l745 441q35 18 69 5.5t51 -46.5l144 -291q18 -38 6.5 -72.5t-48.5 -48.5l-807 -323q-39 -14 -72.5 -2.5t-50.5 43.5zM3623 2440q48 0 66 -27.5t2 -77.5l-755 -2278q-21 -67 -103 -67h-437q-82 0 -104 67l-437 1279l-437 -1279
q-22 -67 -104 -67h-437q-82 0 -103 67l-755 2278q-16 50 2 77.5t66 27.5h648q82 0 101 -71l346 -1229l372 1069q10 34 37.5 52.5t65.5 18.5h413q81 0 104 -71l359 -1069l372 1229q22 71 100 71h618z" />
    <glyph glyph-name="wacute" unicode="&#x1e83;" horiz-adv-x="3165" 
d="M1248 2104l-82 169q-15 34 -1.5 70t46.5 55l745 441q35 18 69 5.5t51 -46.5l144 -291q18 -38 6.5 -72.5t-48.5 -48.5l-807 -323q-39 -14 -72.5 -2.5t-50.5 43.5zM3052 1878q61 0 91 -46t8 -104l-631 -1675q-25 -63 -91 -63h-359q-68 0 -93 60l-394 883l-394 -883
q-24 -60 -94 -60h-358q-68 0 -91 63l-632 1675q-22 58 8.5 104t91.5 46h597q28 0 48.5 -14.5t26.5 -38.5l250 -796l267 661q22 62 97 62h366q75 0 97 -62l267 -661l252 796q6 24 26 38.5t48 14.5h596z" />
    <glyph glyph-name="Wdieresis" unicode="&#x1e84;" horiz-adv-x="3715" 
d="M1421 2659q-138 0 -235 97t-97 235t97 235t235 97t235.5 -97t97.5 -235t-97.5 -235t-235.5 -97zM2315 2659q-138 0 -235 97t-97 235t97 235t235 97t235.5 -97t97.5 -235t-97.5 -235t-235.5 -97zM3623 2440q48 0 66 -27.5t2 -77.5l-755 -2278q-21 -67 -103 -67h-437
q-82 0 -104 67l-437 1279l-437 -1279q-22 -67 -104 -67h-437q-82 0 -103 67l-755 2278q-16 50 2 77.5t66 27.5h648q82 0 101 -71l346 -1229l372 1069q10 34 37.5 52.5t65.5 18.5h413q81 0 104 -71l359 -1069l372 1229q22 71 100 71h618z" />
    <glyph glyph-name="wdieresis" unicode="&#x1e85;" horiz-adv-x="3165" 
d="M1138 2097q-138 0 -235 97t-97 235t97 235t235 97t235.5 -97t97.5 -235t-97.5 -235t-235.5 -97zM2032 2097q-138 0 -235 97t-97 235t97 235t235 97t235.5 -97t97.5 -235t-97.5 -235t-235.5 -97zM3052 1878q61 0 91 -46t8 -104l-631 -1675q-25 -63 -91 -63h-359
q-68 0 -93 60l-394 883l-394 -883q-24 -60 -94 -60h-358q-68 0 -91 63l-632 1675q-22 58 8.5 104t91.5 46h597q28 0 48.5 -14.5t26.5 -38.5l250 -796l267 661q22 62 97 62h366q75 0 97 -62l267 -661l252 796q6 24 26 38.5t48 14.5h596z" />
    <glyph glyph-name="Ygrave" unicode="&#x1ef2;" horiz-adv-x="2695" 
d="M689 2948q-37 14 -48.5 48.5t6.5 72.5l144 291q17 34 51 46.5t69 -5.5l745 -441q33 -19 46.5 -55t-1.5 -70l-82 -169q-17 -32 -50.5 -43.5t-72.5 2.5zM2598 2440q50 0 71.5 -31t-2.5 -74l-922 -1558v-702q0 -31 -22 -53t-52 -22h-636q-31 0 -52.5 22t-21.5 53v701
l-937 1559q-25 43 -3.5 74t71.5 31h677q63 0 101 -71l515 -932l486 932q33 71 103 71h624z" />
    <glyph glyph-name="ygrave" unicode="&#x1ef3;" horiz-adv-x="2263" 
d="M436 2386q-37 14 -48.5 48.5t6.5 72.5l144 291q17 34 51 46.5t69 -5.5l745 -441q33 -19 46.5 -55t-1.5 -70l-82 -169q-17 -32 -50.5 -43.5t-72.5 2.5zM2147 1878q62 0 94 -47t5 -105l-710 -1483q-85 -178 -160.5 -306.5t-164 -236.5t-182 -176.5t-212.5 -116.5
t-258 -68.5t-315 -20.5q-35 0 -57.5 21.5t-22.5 56.5v386q0 66 68 74q90 11 156 34t130 70.5t122 122t125 190.5l-747 1453q-29 57 3.5 104.5t96.5 47.5h631q52 0 76 -52l334 -731l320 731q21 52 76 52h592z" />
    <glyph glyph-name="endash" unicode="&#x2013;" horiz-adv-x="2169" 
d="M110 677q-42 0 -65.5 23.5t-23.5 66.5v328q0 43 23.5 66t65.5 23h1949q43 0 66 -23t23 -66v-328q0 -43 -23 -66.5t-66 -23.5h-1949z" />
    <glyph glyph-name="emdash" unicode="&#x2014;" horiz-adv-x="3369" 
d="M110 677q-42 0 -65.5 23.5t-23.5 66.5v328q0 43 23.5 66t65.5 23h3149q43 0 66 -23t23 -66v-328q0 -43 -23 -66.5t-66 -23.5h-3149z" />
    <glyph glyph-name="quoteleft" unicode="&#x2018;" horiz-adv-x="1032" 
d="M534 1374q-71 0 -138.5 25t-124 74t-91 131t-34.5 186q0 160 78.5 336t212 324.5t289.5 231.5q24 11 47 6t37 -22l57 -64q19 -22 18 -51t-23 -53q-7 -8 -31.5 -32t-34.5 -35t-30 -34t-29.5 -39t-21 -39t-16 -46.5t-4.5 -48.5q0 -40 16 -74.5t34.5 -54t52.5 -48.5
q124 -110 124 -278t-113 -281.5t-275 -113.5z" />
    <glyph glyph-name="quoteright" unicode="&#x2019;" horiz-adv-x="1032" 
d="M498 2614q71 0 138.5 -25t124 -74t91 -131t34.5 -186q0 -160 -78.5 -336t-212 -324.5t-289.5 -231.5q-24 -11 -47 -6t-37 22l-57 64q-19 22 -18 51t23 53q7 8 31.5 32t34.5 35t30 34t29.5 39t21 39t16 46.5t4.5 48.5q0 40 -16 74.5t-34.5 54t-52.5 48.5
q-124 110 -124 278t113 281.5t275 113.5z" />
    <glyph glyph-name="quotesinglbase" unicode="&#x201a;" horiz-adv-x="1032" 
d="M498 736q71 0 138.5 -25t124 -74t91 -131t34.5 -186q0 -160 -78.5 -336t-212 -324.5t-289.5 -231.5q-24 -11 -47 -6t-37 22l-57 64q-19 22 -18 51t23 53q7 8 31.5 32t34.5 35t30 34t29.5 39t21 39t16 46.5t4.5 48.5q0 40 -16 74.5t-34.5 54t-52.5 48.5q-124 110 -124 278
t113 281.5t275 113.5z" />
    <glyph glyph-name="quotedblleft" unicode="&#x201c;" horiz-adv-x="1928" 
d="M534 1374q-71 0 -138.5 25t-124 74t-91 131t-34.5 186q0 160 78.5 336t212 324.5t289.5 231.5q24 11 47 6t37 -22l57 -64q19 -22 18 -51t-23 -53q-7 -8 -31.5 -32t-34.5 -35t-30 -34t-29.5 -39t-21 -39t-16 -46.5t-4.5 -48.5q0 -40 16 -74.5t34.5 -54t52.5 -48.5
q124 -110 124 -278t-113 -281.5t-275 -113.5zM1430 1374q-71 0 -138.5 25t-124 74t-91 131t-34.5 186q0 160 78.5 336t212 324.5t289.5 231.5q24 11 47 6t37 -22l57 -64q19 -22 18 -51t-23 -53q-7 -8 -31.5 -32t-34.5 -35t-30 -34t-29.5 -39t-21 -39t-16 -46.5t-4.5 -48.5
q0 -40 16 -74.5t34.5 -54t52.5 -48.5q124 -110 124 -278t-113 -281.5t-275 -113.5z" />
    <glyph glyph-name="quotedblright" unicode="&#x201d;" horiz-adv-x="1928" 
d="M498 2614q71 0 138.5 -25t124 -74t91 -131t34.5 -186q0 -160 -78.5 -336t-212 -324.5t-289.5 -231.5q-24 -11 -47 -6t-37 22l-57 64q-19 22 -18 51t23 53q7 8 31.5 32t34.5 35t30 34t29.5 39t21 39t16 46.5t4.5 48.5q0 40 -16 74.5t-34.5 54t-52.5 48.5
q-124 110 -124 278t113 281.5t275 113.5zM1394 2614q71 0 138.5 -25t124 -74t91 -131t34.5 -186q0 -160 -78.5 -336t-212 -324.5t-289.5 -231.5q-24 -11 -47 -6t-37 22l-57 64q-19 22 -18 51t23 53q7 8 31.5 32t34.5 35t30 34t29.5 39t21 39t16 46.5t4.5 48.5q0 40 -16 74.5
t-34.5 54t-52.5 48.5q-124 110 -124 278t113 281.5t275 113.5z" />
    <glyph glyph-name="quotedblbase" unicode="&#x201e;" horiz-adv-x="1928" 
d="M498 736q71 0 138.5 -25t124 -74t91 -131t34.5 -186q0 -160 -78.5 -336t-212 -324.5t-289.5 -231.5q-24 -11 -47 -6t-37 22l-57 64q-19 22 -18 51t23 53q7 8 31.5 32t34.5 35t30 34t29.5 39t21 39t16 46.5t4.5 48.5q0 40 -16 74.5t-34.5 54t-52.5 48.5q-124 110 -124 278
t113 281.5t275 113.5zM1394 736q71 0 138.5 -25t124 -74t91 -131t34.5 -186q0 -160 -78.5 -336t-212 -324.5t-289.5 -231.5q-24 -11 -47 -6t-37 22l-57 64q-19 22 -18 51t23 53q7 8 31.5 32t34.5 35t30 34t29.5 39t21 39t16 46.5t4.5 48.5q0 40 -16 74.5t-34.5 54
t-52.5 48.5q-124 110 -124 278t113 281.5t275 113.5z" />
    <glyph glyph-name="dagger" unicode="&#x2020;" horiz-adv-x="1800" 
d="M1674 2077q43 0 66.5 -23.5t23.5 -66.5v-308q0 -43 -23.5 -66.5t-66.5 -23.5h-481v-1714q0 -36 -19.5 -55.5t-55.5 -19.5h-437q-35 0 -54.5 19.5t-19.5 55.5v1714h-481q-43 0 -66.5 23.5t-23.5 66.5v308q0 43 23.5 66.5t66.5 23.5h481v608q0 36 19.5 55.5t54.5 19.5h437
q36 0 55.5 -19.5t19.5 -55.5v-608h481z" />
    <glyph glyph-name="daggerdbl" unicode="&#x2021;" horiz-adv-x="1800" 
d="M1674 1589h-481v-618h481q43 0 66.5 -23.5t23.5 -66.5v-308q0 -43 -23.5 -66.5t-66.5 -23.5h-481v-608q0 -36 -19.5 -55.5t-55.5 -19.5h-437q-35 0 -54.5 19.5t-19.5 55.5v608h-481q-43 0 -66.5 23.5t-23.5 66.5v308q0 43 23.5 66.5t66.5 23.5h481v618h-481
q-43 0 -66.5 23.5t-23.5 66.5v308q0 43 23.5 66.5t66.5 23.5h481v608q0 36 19.5 55.5t54.5 19.5h437q36 0 55.5 -19.5t19.5 -55.5v-608h481q43 0 66.5 -23.5t23.5 -66.5v-308q0 -43 -23.5 -66.5t-66.5 -23.5z" />
    <glyph glyph-name="bullet" unicode="&#x2022;" horiz-adv-x="1393" 
d="M699 394q-113 0 -216 44t-177.5 118.5t-118.5 177.5t-44 216t44 216t118.5 177.5t177.5 118.5t216 44t216 -44t177.5 -118.5t118.5 -177.5t44 -216t-44 -216t-118.5 -177.5t-177.5 -118.5t-216 -44z" />
    <glyph glyph-name="ellipsis" unicode="&#x2026;" horiz-adv-x="2954" 
d="M534 -40q-161 0 -274.5 113.5t-113.5 274.5t113.5 274.5t274.5 113.5t274.5 -113.5t113.5 -274.5t-113.5 -274.5t-274.5 -113.5zM1477 -40q-161 0 -274.5 113.5t-113.5 274.5t113.5 274.5t274.5 113.5t274.5 -113.5t113.5 -274.5t-113.5 -274.5t-274.5 -113.5zM2420 -40
q-161 0 -274.5 113.5t-113.5 274.5t113.5 274.5t274.5 113.5t274.5 -113.5t113.5 -274.5t-113.5 -274.5t-274.5 -113.5z" />
    <glyph glyph-name="perthousand" unicode="&#x2030;" horiz-adv-x="5286" 
d="M2612 2515q28 -13 38.5 -42.5t-2.5 -57.5l-1206 -2537q-13 -28 -42.5 -38.5t-56.5 1.5l-217 102q-28 13 -39 42.5t3 57.5l1206 2537q13 28 42 38.5t58 -2.5zM1553 1712q0 -179 -56 -327.5t-153 -247.5t-227.5 -153.5t-279.5 -54.5t-279.5 54.5t-227.5 153.5t-153 247.5
t-56 327.5t56 327.5t153 247.5t227.5 153.5t279.5 54.5t279.5 -54.5t227.5 -153.5t153 -247.5t56 -327.5zM837 1380q84 0 129.5 90.5t45.5 241.5q0 152 -45.5 242.5t-129.5 90.5t-130 -91t-46 -242t46 -241.5t130 -90.5zM2906 1511q149 0 279.5 -54.5t227.5 -153.5
t153 -247.5t56 -327.5t-56 -327.5t-153 -247.5t-227.5 -153.5t-279.5 -54.5t-279.5 54.5t-227.5 153.5t-153 247.5t-56 327.5t56 327.5t153 247.5t227.5 153.5t279.5 54.5zM4449 1511q149 0 279.5 -54.5t227.5 -153.5t153 -247.5t56 -327.5t-56 -327.5t-153 -247.5
t-227.5 -153.5t-279.5 -54.5t-279.5 54.5t-227.5 153.5t-153 247.5t-56 327.5t56 327.5t153 247.5t227.5 153.5t279.5 54.5zM2906 396q85 0 130.5 90.5t45.5 241.5q0 152 -45.5 242.5t-130.5 90.5q-84 0 -129.5 -91t-45.5 -242t45.5 -241.5t129.5 -90.5zM4449 396
q85 0 130.5 90.5t45.5 241.5q0 152 -45.5 242.5t-130.5 90.5q-84 0 -130 -91t-46 -242t46 -241.5t130 -90.5z" />
    <glyph glyph-name="guilsinglleft" unicode="&#x2039;" horiz-adv-x="1214" 
d="M1043 1325q0 -28 -29 -54l-390 -334l390 -334q29 -26 29 -53v-232q0 -65 -49.5 -90.5t-102.5 13.5l-695 515q-26 20 -26 51v261q0 30 26 50l695 515q53 39 102.5 13.5t49.5 -90.5v-231z" />
    <glyph glyph-name="guilsinglright" unicode="&#x203a;" horiz-adv-x="1214" 
d="M1018 1118q26 -20 26 -50v-261q0 -31 -26 -51l-695 -515q-53 -39 -102.5 -13.5t-49.5 90.5v232q0 27 29 53l390 334l-390 334q-29 26 -29 54v231q0 65 49.5 90.5t102.5 -13.5z" />
    <glyph glyph-name="fraction" unicode="&#x2044;" horiz-adv-x="1588" 
d="M1264 2562q13 28 42 38.5t58 -2.5l196 -92q27 -13 37.5 -42t-2.5 -57l-1221 -2620q-13 -28 -42.5 -38.5t-56.5 2.5l-196 91q-29 13 -39.5 42.5t2.5 57.5z" />
    <glyph glyph-name="Euro" unicode="&#x20ac;" horiz-adv-x="2885" 
d="M2732 678q82 -40 39 -122q-81 -155 -204 -274t-269 -191.5t-305.5 -109t-327.5 -36.5q-234 0 -447.5 60.5t-387 173t-301 281t-188.5 375.5h-255v287h204q-3 48 -3 98t3 96h-204v287h254q61 208 188.5 376.5t301 281.5t387 173.5t448.5 60.5q168 0 327.5 -36.5
t305.5 -109t269 -191.5t204 -274q43 -82 -39 -122l-477 -227q-74 -35 -122 41q-79 135 -200.5 209t-267.5 74q-151 0 -270 -67t-192 -189h667l-168 -287h-591q-5 -52 -5 -96q0 -45 5 -98h655l-164 -287h-398q73 -121 192 -187.5t269 -66.5q146 0 267.5 74t200.5 209
q48 76 122 41z" />
    <glyph glyph-name="trademark" unicode="&#x2122;" horiz-adv-x="3652" 
d="M3451 2448q55 0 55 -55v-1410q0 -56 -55 -56h-377q-55 0 -55 56v587l-375 -452q-17 -19 -40 -19t-40 19l-375 452v-587q0 -56 -56 -56h-375q-56 0 -56 56v1410q0 55 56 55h176q42 0 68 -30l602 -708l584 708q26 30 70 30h193zM1472 2442q20 0 33.5 -14t13.5 -33v-301
q0 -20 -13.5 -33.5t-33.5 -13.5h-435v-1073q0 -20 -13.5 -33.5t-33.5 -13.5h-394q-20 0 -33.5 13.5t-13.5 33.5v1073h-435q-19 0 -33 14t-14 33v301q0 19 14 33t33 14h876h482z" />
    <glyph glyph-name="oneeighth" unicode="&#x215b;" horiz-adv-x="4299" 
d="M2608 2532q27 -13 37.5 -42t-2.5 -57l-1221 -2620q-13 -28 -42.5 -38.5t-56.5 2.5l-196 91q-29 13 -39.5 42.5t2.5 57.5l1222 2620q13 28 42 38.5t58 -2.5zM1151 842q0 -20 -14 -34.5t-34 -14.5h-419q-20 0 -34 14.5t-14 34.5v1103l-233 -107q-19 -9 -38.5 -2t-27.5 26
l-125 270q-10 20 -2.5 39.5t27.5 27.5l414 184q32 14 70 14h382q20 0 34 -14.5t14 -34.5v-1506zM3606 851q138 -49 217.5 -158.5t79.5 -248.5q0 -100 -45.5 -186t-133 -152t-229.5 -104t-322 -38t-321.5 38t-229.5 104t-133 152t-45 186q0 139 79 248.5t217 158.5
q-106 45 -173.5 138.5t-67.5 217.5q0 192 175.5 312.5t498.5 120.5t498.5 -120.5t175.5 -312.5q0 -124 -67 -217.5t-174 -138.5zM3173 1314q-78 0 -127.5 -41.5t-49.5 -109.5t49.5 -109.5t127.5 -41.5q79 0 128 41.5t49 109.5t-49 109.5t-128 41.5zM3173 328
q95 0 149.5 50.5t54.5 126.5q0 77 -54.5 127t-149.5 50t-149.5 -50t-54.5 -127q0 -76 54.5 -126.5t149.5 -50.5z" />
    <glyph glyph-name="threeeighths" unicode="&#x215c;" horiz-adv-x="4257" 
d="M2841 2532q27 -13 37.5 -42t-2.5 -57l-1221 -2620q-13 -28 -42.5 -38.5t-56.5 2.5l-196 91q-29 13 -39.5 42.5t2.5 57.5l1222 2620q13 28 42 38.5t58 -2.5zM1510 1232q0 -147 -88.5 -255t-244.5 -164t-360 -56q-229 0 -394 69.5t-292 193.5q-18 19 -24.5 29.5t-5.5 26.5
t17 35l149 178q11 13 18.5 20.5t18.5 13t22 3.5t24 -11q58 -43 88.5 -63.5t84 -48.5t108 -40t118.5 -12q105 0 170.5 35.5t65.5 100.5q0 70 -88 118t-242 53q-22 2 -35.5 15.5t-13.5 34.5v185q0 21 13.5 34t35.5 15q146 9 219 55.5t73 117.5q0 60 -50 92.5t-141 32.5
q-74 0 -148.5 -25t-116 -49.5t-105.5 -68.5q-28 -15 -44 -8t-39 34l-137 165q-16 19 -17.5 35.5t6 27.5t24.5 27q123 118 300.5 186.5t386.5 68.5q277 0 433.5 -118t156.5 -316q0 -248 -244 -377q298 -123 298 -390zM3840 851q138 -49 217.5 -158.5t79.5 -248.5
q0 -100 -45.5 -186t-133 -152t-229.5 -104t-322 -38t-321.5 38t-229.5 104t-133 152t-45 186q0 139 79 248.5t217 158.5q-106 45 -173.5 138.5t-67.5 217.5q0 192 175.5 312.5t498.5 120.5t498.5 -120.5t175.5 -312.5q0 -124 -67 -217.5t-174 -138.5zM3407 1314
q-78 0 -127.5 -41.5t-49.5 -109.5t49.5 -109.5t127.5 -41.5q79 0 128 41.5t49 109.5t-49 109.5t-128 41.5zM3407 328q95 0 149.5 50.5t54.5 126.5q0 77 -54.5 127t-149.5 50t-149.5 -50t-54.5 -127q0 -76 54.5 -126.5t149.5 -50.5z" />
    <glyph glyph-name="fiveeighths" unicode="&#x215d;" horiz-adv-x="4258" 
d="M2841 2532q27 -13 37.5 -42t-2.5 -57l-1221 -2620q-13 -28 -42.5 -38.5t-56.5 2.5l-196 91q-29 13 -39.5 42.5t2.5 57.5l1222 2620q13 28 42 38.5t58 -2.5zM1529 1292q0 -157 -85.5 -279t-241 -189t-356.5 -67q-231 0 -398.5 62.5t-295.5 183.5q-17 17 -24.5 28t-6 26.5
t17.5 34.5l149 178q14 18 24 26t26.5 11.5t32.5 -10.5q106 -75 192 -110.5t205 -35.5q104 0 170 45.5t66 122.5q0 73 -55 118.5t-173 45.5q-139 0 -246 -42q-19 -5 -33 4l-244 147q-27 13 -23 43l81 703q5 59 58 59h983q20 0 34.5 -14.5t14.5 -34.5v-285q0 -20 -14.5 -35
t-34.5 -15h-634l-29 -234q89 35 236 35q131 -1 240 -33.5t191 -95.5t127.5 -163.5t45.5 -229.5zM3840 851q138 -49 217.5 -158.5t79.5 -248.5q0 -100 -45.5 -186t-133 -152t-229.5 -104t-322 -38t-321.5 38t-229.5 104t-133 152t-45 186q0 139 79 248.5t217 158.5
q-106 45 -173.5 138.5t-67.5 217.5q0 192 175.5 312.5t498.5 120.5t498.5 -120.5t175.5 -312.5q0 -124 -67 -217.5t-174 -138.5zM3407 1314q-78 0 -127.5 -41.5t-49.5 -109.5t49.5 -109.5t127.5 -41.5q79 0 128 41.5t49 109.5t-49 109.5t-128 41.5zM3407 328
q95 0 149.5 50.5t54.5 126.5q0 77 -54.5 127t-149.5 50t-149.5 -50t-54.5 -127q0 -76 54.5 -126.5t149.5 -50.5z" />
    <glyph glyph-name="seveneighths" unicode="&#x215e;" horiz-adv-x="3988" 
d="M2567 2532q27 -13 37.5 -42t-2.5 -57l-1221 -2620q-13 -28 -42.5 -38.5t-56.5 2.5l-196 91q-29 13 -39.5 42.5t2.5 57.5l1222 2620q13 28 42 38.5t58 -2.5zM1462 2251q0 -41 -23 -89l-624 -1343q-12 -26 -40 -26h-456q-36 0 -52.5 26.5t-1.5 58.5l527 1101h-687
q-20 0 -34.5 14.5t-14.5 34.5v320q0 20 14.5 34.5t34.5 14.5h1299q58 0 58 -59v-87zM3566 851q138 -49 217.5 -158.5t79.5 -248.5q0 -100 -45.5 -186t-133 -152t-229.5 -104t-322 -38t-321.5 38t-229.5 104t-133 152t-45 186q0 139 79 248.5t217 158.5q-106 45 -173.5 138.5
t-67.5 217.5q0 192 175.5 312.5t498.5 120.5t498.5 -120.5t175.5 -312.5q0 -124 -67 -217.5t-174 -138.5zM3133 1314q-78 0 -127.5 -41.5t-49.5 -109.5t49.5 -109.5t127.5 -41.5q79 0 128 41.5t49 109.5t-49 109.5t-128 41.5zM3133 328q95 0 149.5 50.5t54.5 126.5
q0 77 -54.5 127t-149.5 50t-149.5 -50t-54.5 -127q0 -76 54.5 -126.5t149.5 -50.5z" />
    <glyph glyph-name="partialdiff" unicode="&#x2202;" horiz-adv-x="2263" 
d="M727 2666q207 -47 385.5 -121.5t311.5 -163t243 -196.5t185 -216t132 -229t90 -227.5t53.5 -219.5t27.5 -198t7 -168q0 -187 -50.5 -345.5t-142.5 -275t-218 -198.5t-278.5 -122.5t-323.5 -40.5q-305 0 -542.5 109t-371.5 313t-134 473q0 200 74.5 369t203.5 283.5
t305.5 178.5t377.5 64q143 0 269 -51q-218 378 -772 560q-39 13 -54 47t3 69l126 270q26 52 93 36zM1149 537q121 0 199.5 88.5t78.5 214.5t-78.5 214.5t-199.5 88.5q-122 0 -200 -88t-78 -215t78 -215t200 -88z" />
    <glyph glyph-name="emptyset" unicode="&#x2205;" horiz-adv-x="2945" 
d="M2801 2158q27 -30 23 -62.5t-34 -60.5l-334 -325q180 -279 180 -611q0 -155 -41.5 -302.5t-115.5 -272.5t-180.5 -230t-233 -178.5t-276.5 -114.5t-308 -41q-344 0 -632 185l-334 -326q-30 -29 -62 -33t-61 22l-247 248q-27 30 -23.5 62t33.5 61l338 329
q-167 273 -167 591q0 232 91 442.5t245.5 363.5t368.5 243t450 90q332 0 611 -172l338 329q31 29 63 33.5t61 -21.5zM923 1099q0 -79 17 -155l727 708q-87 30 -186 30q-117 0 -220 -42.5t-177.5 -118t-117.5 -185t-43 -237.5zM2038 1099q0 97 -24 180l-743 -724
q97 -38 210 -38q117 0 219.5 42.5t177 117.5t117.5 184.5t43 237.5z" />
    <glyph glyph-name="product" unicode="&#x220f;" horiz-adv-x="2237" 
d="M2016 2940q31 0 53 -22t22 -53v-3290q0 -31 -22 -53t-53 -22h-313q-31 0 -53 22t-22 53v2930h-1019v-2930q0 -31 -22 -53t-53 -22h-313q-31 0 -53 22t-22 53v3290q0 31 22 53t53 22h313h1326h156z" />
    <glyph glyph-name="summation" unicode="&#x2211;" horiz-adv-x="2041" 
d="M1985 2587q0 -43 -23.5 -66.5t-66.5 -23.5h-1117l832 -1239q25 -38 0 -76l-832 -1247h1117q43 0 66.5 -23t23.5 -66v-256q0 -43 -23.5 -66.5t-66.5 -23.5h-1702q-42 0 -65.5 23.5t-23.5 66.5v119q0 88 39 146l931 1365l-931 1357q-39 59 -39 147v119q0 43 23.5 66.5
t65.5 23.5h1702q43 0 66.5 -23.5t23.5 -66.5v-256z" />
    <glyph glyph-name="minus" unicode="&#x2212;" horiz-adv-x="2194" 
d="M260 851q-43 0 -66.5 23.5t-23.5 66.5v328q0 43 23.5 66t66.5 23h1674q43 0 66.5 -23t23.5 -66v-328q0 -43 -23.5 -66.5t-66.5 -23.5h-1674z" />
    <glyph glyph-name="radical" unicode="&#x221a;" horiz-adv-x="2590" 
d="M1891 2911q16 49 67 49h529q48 0 72.5 -35t8.5 -81l-1006 -2798q-16 -46 -65 -46h-547q-45 0 -63 41l-520 1240h-286q-32 0 -54 21.5t-22 54.5v325q0 33 22 54.5t54 21.5h772q23 0 40.5 -12.5t25.5 -33.5l315 -916z" />
    <glyph glyph-name="infinity" unicode="&#x221e;" horiz-adv-x="3050" 
d="M2164 1835q150 0 280 -48t227 -136.5t152.5 -223t55.5 -298.5t-55.5 -298.5t-152.5 -223t-227 -136.5t-280 -48q-376 0 -639 367q-263 -367 -639 -367q-150 0 -280 48t-227 136.5t-152.5 223t-55.5 298.5t55.5 298.5t152.5 223t227 136.5t280 48q376 0 639 -367
q263 367 639 367zM905 875q48 0 89 19.5t76 58t60 74.5t59 90q2 4 3.5 6.5t3.5 5.5q-76 123 -116 166q-80 88 -175 88q-88 0 -141.5 -72.5t-53.5 -181.5t53.5 -181.5t141.5 -72.5zM2145 875q88 0 141.5 72.5t53.5 181.5t-53.5 181.5t-141.5 72.5q-48 0 -89 -19.5t-76 -58
t-60 -74.5t-59 -90q-2 -4 -3.5 -6.5t-3.5 -5.5q76 -123 116 -166q80 -87 175 -88z" />
    <glyph glyph-name="integral" unicode="&#x222b;" horiz-adv-x="1877" 
d="M1894 2862q17 -12 26 -21.5t15.5 -23.5t3.5 -33.5t-15 -44.5l-124 -255q-35 -76 -122 -39q-110 53 -196 53q-104 0 -156.5 -71t-52.5 -225l1 -2144q0 -176 -58.5 -317.5t-162 -233t-243 -140.5t-303.5 -49q-185 0 -345.5 54t-258.5 125q-16 12 -25 21t-16 23.5t-4 33.5
t15 44l124 255q36 76 122 39q114 -53 197 -53q104 0 156 71t52 226l-1 2144q0 176 58.5 317t162 232.5t243 140.5t303.5 49q185 0 346 -54t258 -124z" />
    <glyph glyph-name="approxequal" unicode="&#x2248;" horiz-adv-x="2316" 
d="M206 1274q-21 12 -30 34.5t-2 47.5q39 131 105 232.5t145 161.5t163.5 90t170.5 30q111 0 208 -23t167.5 -55.5t135.5 -65t139 -55.5t150 -23q94 0 170.5 47t131.5 123q19 26 46 33t54 -8l149 -85q22 -12 31 -34t2 -47q-39 -132 -105 -233.5t-145 -161.5t-163.5 -90
t-170.5 -30q-111 0 -208 23t-167.5 56t-135.5 65.5t-139 55.5t-150 23q-94 0 -171 -47.5t-131 -123.5q-19 -26 -46.5 -33t-53.5 8zM2109 930q22 -12 31 -34t2 -47q-39 -132 -105 -233.5t-145 -161.5t-163.5 -90t-170.5 -30q-111 0 -208 23t-167.5 56t-135.5 65.5t-139 55.5
t-150 23q-94 0 -171 -47.5t-131 -123.5q-19 -26 -46.5 -33t-53.5 8l-150 85q-21 12 -30 34.5t-2 47.5q39 131 105 232.5t145 161.5t163.5 90t170.5 30q111 0 208 -23t167.5 -55.5t135.5 -65t139 -55.5t150 -23q94 0 170.5 47t131.5 123q19 26 46 33t54 -8z" />
    <glyph glyph-name="notequal" unicode="&#x2260;" horiz-adv-x="2194" 
d="M1934 1268h-542l-153 -330h695q43 0 66.5 -23t23.5 -66v-328q0 -43 -23.5 -66.5t-66.5 -23.5h-929l-234 -505q-13 -28 -43 -38.5t-57 2.5l-217 101q-28 13 -39 42.5t3 57.5l157 340h-315q-43 0 -66.5 23.5t-23.5 66.5v328q0 43 23.5 66t66.5 23h550l153 330h-703
q-43 0 -66.5 23.5t-23.5 66.5v328q0 43 23.5 66t66.5 23h938l220 476q13 27 42 38t58 -2l216 -101q28 -14 38.5 -43t-2.5 -57l-144 -311h308q43 0 66.5 -23t23.5 -66v-328q0 -43 -23.5 -66.5t-66.5 -23.5z" />
    <glyph glyph-name="lessequal" unicode="&#x2264;" horiz-adv-x="2194" 
d="M2024 1966q0 -21 -5.5 -35t-21 -24.5t-26 -15.5t-37.5 -15l-1116 -442l1116 -442q27 -10 37.5 -15t26 -15.5t21 -24.5t5.5 -35v-383q0 -45 -26 -72.5t-64 -11.5l-1674 700q-90 36 -90 107v384q0 71 90 107l1674 700q38 16 64 -11.5t26 -72.5v-383zM260 -174
q-43 0 -66.5 23.5t-23.5 66.5v328q0 43 23.5 66t66.5 23h1674q43 0 66.5 -23t23.5 -66v-328q0 -43 -23.5 -66.5t-66.5 -23.5h-1674z" />
    <glyph glyph-name="greaterequal" unicode="&#x2265;" horiz-adv-x="2194" 
d="M170 1966v383q0 45 26 72.5t64 11.5l1674 -700q90 -36 90 -107v-384q0 -71 -90 -107l-1674 -700q-38 -16 -64 11.5t-26 72.5v383q0 21 5.5 35t21 24.5t26 15.5t37.5 15l1116 442l-1116 442q-27 10 -37.5 15t-26 15.5t-21 24.5t-5.5 35zM1934 -174h-1674q-43 0 -66.5 23.5
t-23.5 66.5v328q0 43 23.5 66t66.5 23h1674q43 0 66.5 -23t23.5 -66v-328q0 -43 -23.5 -66.5t-66.5 -23.5z" />
    <glyph glyph-name="lozenge" unicode="&#x25ca;" horiz-adv-x="2400" 
d="M1133 2710q27 36 67 36t67 -36l947 -1267q32 -43 0 -86l-947 -1267q-27 -36 -67 -36t-67 36l-948 1267q-30 43 0 86zM1200 830l387 570l-387 570l-388 -570z" />
    <glyph glyph-name="i.loclTRK" horiz-adv-x="1042" 
d="M522 2038q-161 0 -274.5 113.5t-113.5 274.5t113.5 274.5t274.5 113.5t274.5 -113.5t113.5 -274.5t-113.5 -274.5t-274.5 -113.5zM146 1804q0 35 19.5 54.5t55.5 19.5h600q36 0 55.5 -19.5t19.5 -54.5v-1729q0 -36 -19.5 -55.5t-55.5 -19.5h-600q-36 0 -55.5 19.5
t-19.5 55.5v1729z" />
    <glyph glyph-name="zero.osf" horiz-adv-x="2378" 
d="M1189 2033q177 0 338 -41t298 -126.5t237.5 -208t157.5 -294t57 -374.5t-57 -374.5t-157.5 -294t-237.5 -208t-298 -126.5t-338 -41t-338 41t-298 126.5t-237.5 208t-157.5 294t-57 374.5t57 374.5t157.5 294t237.5 208t298 126.5t338 41zM1189 537q140 0 229 114t89 338
q0 225 -89 339t-229 114q-141 0 -229.5 -114t-88.5 -339q0 -224 88.5 -338t229.5 -114z" />
    <glyph glyph-name="one.osf" horiz-adv-x="1868" 
d="M1461 1978q30 0 52 -22t22 -52v-1829q0 -31 -22 -53t-52 -22h-601q-31 0 -53 22t-22 53v1215l-353 -163q-29 -14 -58.5 -3t-42.5 41l-190 410q-14 30 -3 59.5t42 42.5l629 279q51 22 107 22h545z" />
    <glyph glyph-name="two.osf" horiz-adv-x="2172" 
d="M1951 510q31 0 53 -22t22 -53v-360q0 -31 -22 -53t-53 -22h-1781q-42 0 -65.5 23.5t-23.5 66.5v128q0 74 68 118q456 303 614 420q285 212 372 356q48 80 48 153q0 177 -232 177q-74 0 -143.5 -17t-138 -53t-116 -67t-118.5 -83q-22 -19 -45 -16.5t-40.5 15.5t-41.5 41
l-224 266q-24 30 -26.5 55t9 41.5t38.5 40.5q192 176 452 272t553 96q185 0 340.5 -40.5t273.5 -119.5t184.5 -207t66.5 -292q0 -248 -165.5 -462.5t-534.5 -401.5h676z" />
    <glyph glyph-name="three.osf" horiz-adv-x="2217" 
d="M1655 812q221 -91 341 -241.5t120 -352.5q0 -213 -133 -374t-365.5 -245t-528.5 -84q-614 0 -1009 393q-28 28 -39 45t-9 40.5t27 50.5l226 256q18 21 30 31.5t28 19.5t33 6t36 -17q71 -52 110.5 -79t102.5 -63.5t112 -54.5t114.5 -31.5t134.5 -13.5q148 0 243 53.5
t95 154.5q0 46 -21.5 83.5t-60 62t-83 42.5t-99 29t-99.5 17.5t-91 11.5q-26 3 -37 4q-75 8 -75 75v281q0 32 21 52.5t55 23.5q145 15 214 34q210 62 211 214q0 92 -73 145t-199 53q-75 0 -149.5 -18t-142.5 -51.5t-114 -61.5t-105 -67q-4 -3 -6.5 -4.5t-6 -4t-6.5 -4.5
q-19 -13 -35.5 -16t-32 4t-29 19t-30.5 33l-207 251q-24 29 -25.5 54t9.5 41t37 41q187 179 449.5 281t562.5 102q401 0 635.5 -180.5t234.5 -479.5q0 -365 -371 -561z" />
    <glyph glyph-name="four.osf" horiz-adv-x="2347" 
d="M2192 510q42 0 65.5 -23.5t23.5 -65.5v-331q0 -43 -23 -66.5t-66 -23.5h-273v-371q0 -31 -22 -53t-53 -22h-526q-31 0 -53 22t-22 53v371h-1088q-43 0 -66.5 23.5t-23.5 66.5v249l1168 1588q38 51 107 51h504q31 0 52.5 -22t21.5 -52l1 -1394h273zM780 510h462v634z" />
    <glyph glyph-name="five.osf" horiz-adv-x="2390" 
d="M1347 1102q154 -2 288 -33t246.5 -94.5t192.5 -156t125 -222.5t45 -288q0 -230 -128 -410.5t-360 -282t-529 -101.5q-341 0 -587.5 92.5t-444.5 266.5q-27 24 -38.5 42t-8.5 42t27 52l226 271q16 20 28 31t28 19.5t33.5 6t37.5 -15.5q69 -48 108 -73.5t100.5 -59.5
t111.5 -50t118 -28t143 -12q154 0 252 68.5t98 182.5q0 111 -80 180t-258 69q-201 0 -367 -63q-28 -8 -50 5l-356 223q-39 24 -34 67l122 1059q8 89 89 89h1467q31 0 52.5 -22t21.5 -52v-435q0 -31 -22 -53t-52 -22h-952l-43 -347q137 55 350 55z" />
    <glyph glyph-name="six.osf" horiz-adv-x="2325" 
d="M1429 1510q140 0 258 -39.5t202 -107.5t143.5 -160t88 -197.5t28.5 -218.5q0 -155 -49 -289.5t-137.5 -235t-210 -172.5t-269 -108.5t-310.5 -36.5q-179 0 -340 43t-294.5 130t-231 210.5t-152 292t-54.5 366.5q0 166 30.5 319t96 296.5t164 265.5t241 224.5t319 175
t404.5 115t493 46.5q35 1 57.5 -21t22.5 -55v-409q0 -32 -21.5 -53.5t-54.5 -22.5q-432 -10 -665.5 -146t-322.5 -427q191 215 564 215zM1166 463q83 0 145.5 43.5t92 109.5t29.5 141q0 121 -71.5 208t-195.5 87q-127 0 -197.5 -86.5t-70.5 -208.5q0 -76 29 -141t91.5 -109
t147.5 -44z" />
    <glyph glyph-name="seven.osf" horiz-adv-x="2088" 
d="M416 -446q-54 0 -79.5 40t-2.5 89l780 1704h-1034q-31 0 -53 22t-22 53v442q0 30 22 52t53 22h1913q42 0 65.5 -23.5t23.5 -65.5v-158q0 -8 -1 -16t-2 -14t-3.5 -14.5t-4 -12.5t-5.5 -13.5t-5.5 -12.5l-7 -14l-6.5 -13l-950 -2028q-19 -39 -61 -39h-620z" />
    <glyph glyph-name="eight.osf" horiz-adv-x="2342" 
d="M1790 1281q211 -74 331 -236.5t120 -372.5q0 -120 -42 -227.5t-129.5 -199t-213 -158.5t-301 -104.5t-384.5 -37.5t-384.5 37.5t-301 104.5t-213 158.5t-129.5 199t-42 227.5q0 210 120 372.5t331 236.5q-161 69 -264 210.5t-103 326.5q0 136 65 253.5t187.5 205
t311 137.5t422.5 50t422.5 -50t311 -137.5t187.5 -205t65 -253.5q0 -185 -103 -326.5t-264 -210.5zM1171 1975q-112 0 -185.5 -62.5t-73.5 -161.5q0 -100 73.5 -162.5t185.5 -62.5t185.5 62.5t73.5 162.5q0 99 -73.5 161.5t-185.5 62.5zM1171 499q137 0 218.5 76.5
t81.5 190.5q0 115 -81.5 191t-218.5 76t-218.5 -76t-81.5 -191q0 -114 81.5 -190.5t218.5 -76.5z" />
    <glyph glyph-name="nine.osf" horiz-adv-x="2274" 
d="M1087 2033q182 0 344.5 -43t298 -130.5t234.5 -211t154 -293.5t55 -369q0 -167 -30.5 -320.5t-97 -297.5t-166 -265.5t-242.5 -223.5t-321 -174.5t-408 -114.5t-497 -46q-34 -1 -56.5 21t-22.5 55v409q0 32 21 53.5t55 22.5q432 10 669 145.5t328 423.5
q-195 -216 -573 -216q-141 0 -261 39.5t-205.5 108t-146 160.5t-89.5 198.5t-29 221.5q0 196 76.5 357t210 267.5t313 164.5t386.5 58zM1095 916q132 0 206 87.5t74 212.5q0 122 -74.5 211t-205.5 89q-128 0 -203 -89.5t-75 -210.5q0 -124 74.5 -212t203.5 -88z" />
    <glyph glyph-name="zero.dnom" horiz-adv-x="1764" 
d="M881 1633q160 0 299 -58t242 -164t162 -265t59 -351t-59 -351t-162 -265t-242 -164t-299 -58t-298.5 58t-241 164t-161.5 265t-59 351t59 351t161.5 265t241 164t298.5 58zM881 375q108 0 165.5 114.5t57.5 305.5t-57.5 305.5t-165.5 114.5q-106 0 -164 -114.5
t-58 -305.5t58 -305.5t164 -114.5z" />
    <glyph glyph-name="one.dnom" horiz-adv-x="1547" 
d="M1103 1604q20 0 34 -14.5t14 -34.5v-1506q0 -20 -14 -34.5t-34 -14.5h-419q-20 0 -34 14.5t-14 34.5v1103l-233 -107q-19 -9 -38.5 -2t-27.5 26l-125 270q-10 20 -2.5 39.5t27.5 27.5l414 184q32 14 70 14h382z" />
    <glyph glyph-name="two.dnom" horiz-adv-x="1526" 
d="M1421 363q20 0 34.5 -15t14.5 -35v-271q0 -20 -14.5 -34.5t-34.5 -14.5h-1234q-28 0 -43.5 15.5t-15.5 43.5v103q0 56 25 73q189 136 328.5 252.5t222.5 201t133 158t67 123.5t17 99q0 178 -194 178q-69 0 -139 -26.5t-112 -55t-107 -79.5q-12 -9 -23.5 -11t-22 3.5
t-19 13t-18.5 20.5l-148 175q-15 18 -16.5 34t6 28t24.5 28q279 263 681 263q289 0 446.5 -139t157.5 -375q0 -202 -129.5 -387t-404.5 -369h518z" />
    <glyph glyph-name="three.dnom" horiz-adv-x="1631" 
d="M1212 822q298 -123 298 -390q0 -147 -88.5 -255t-244.5 -164t-360 -56q-229 0 -394 69.5t-292 193.5q-18 19 -24.5 29.5t-5.5 26.5t17 35l149 178q11 13 18.5 20.5t18.5 13t22 3.5t24 -11q58 -43 88.5 -63.5t84 -48.5t108 -40t118.5 -12q105 0 170.5 35.5t65.5 100.5
q0 70 -88 118t-242 53q-22 2 -35.5 15.5t-13.5 34.5v185q0 21 13.5 34t35.5 15q146 9 219 55.5t73 117.5q0 60 -50 92.5t-141 32.5q-74 0 -148.5 -25t-116 -49.5t-105.5 -68.5q-28 -15 -44 -8t-39 34l-137 165q-16 19 -17.5 35.5t6 27.5t24.5 27q123 118 300.5 186.5
t386.5 68.5q277 0 433.5 -118t156.5 -316q0 -248 -244 -377z" />
    <glyph glyph-name="four.dnom" horiz-adv-x="1671" 
d="M1557 653q28 0 43 -15.5t15 -43.5v-213q0 -28 -15 -43.5t-43 -15.5h-180v-273q0 -20 -14.5 -34.5t-34.5 -14.5h-369q-20 0 -34.5 14.5t-14.5 34.5v273h-790q-28 0 -43.5 15.5t-15.5 43.5v151q0 14 9 25l800 1013q27 34 70 34h388q20 0 34.5 -14.5t14.5 -34.5v-902h180z
M564 653h346v436z" />
    <glyph glyph-name="five.dnom" horiz-adv-x="1650" 
d="M925 1021q131 -1 240 -33.5t191 -95.5t127.5 -163.5t45.5 -229.5q0 -157 -85.5 -279t-241 -189t-356.5 -67q-231 0 -398.5 62.5t-295.5 183.5q-17 17 -24.5 28t-6 26.5t17.5 34.5l149 178q14 18 24 26t26.5 11.5t32.5 -10.5q106 -75 192 -110.5t205 -35.5q104 0 170 45.5
t66 122.5q0 72 -55 118t-173 46q-139 0 -246 -42q-19 -5 -33 4l-244 147q-27 13 -23 43l81 703q5 59 58 59h983q20 0 34.5 -14.5t14.5 -34.5v-285q0 -20 -14.5 -35t-34.5 -15h-634l-29 -234q89 35 236 35z" />
    <glyph glyph-name="six.dnom" horiz-adv-x="1633" 
d="M1017 1019q117 0 213 -41t156.5 -110t93 -155.5t32.5 -181.5q0 -171 -89.5 -301.5t-239.5 -198t-335 -67.5q-151 0 -283 47t-231 134t-156 220.5t-57 296.5q0 156 38.5 294.5t127.5 263.5t222 216t333.5 145.5t450.5 58.5q23 0 37.5 -14t14.5 -36v-269q0 -21 -13.5 -35
t-35.5 -14q-283 -7 -441 -104t-219 -295q130 146 381 146zM844 314q87 0 137 58.5t50 138.5q0 83 -49.5 140t-137.5 57q-91 0 -140.5 -57t-49.5 -140q0 -80 50 -138.5t140 -58.5z" />
    <glyph glyph-name="seven.dnom" horiz-adv-x="1588" 
d="M319 0q-36 0 -52.5 26.5t-1.5 58.5l527 1101h-687q-20 0 -34.5 14.5t-14.5 34.5v320q0 20 14.5 34.5t34.5 14.5h1299q58 0 58 -59v-87q0 -41 -23 -89l-624 -1343q-12 -26 -40 -26h-456z" />
    <glyph glyph-name="eight.dnom" horiz-adv-x="1701" 
d="M1283 851q138 -49 217.5 -158.5t79.5 -248.5q0 -100 -45.5 -186t-133 -152t-229.5 -104t-322 -38t-321.5 38t-229.5 104t-133 152t-45 186q0 139 79 248.5t217 158.5q-106 45 -173.5 138.5t-67.5 217.5q0 192 175.5 312.5t498.5 120.5t498.5 -120.5t175.5 -312.5
q0 -124 -67 -217.5t-174 -138.5zM850 1314q-78 0 -127.5 -41.5t-49.5 -109.5t49.5 -109.5t127.5 -41.5q79 0 128 41.5t49 109.5t-49 109.5t-128 41.5zM850 328q95 0 149.5 50.5t54.5 126.5q0 77 -54.5 127t-149.5 50t-149.5 -50t-54.5 -127q0 -76 54.5 -126.5t149.5 -50.5z
" />
    <glyph glyph-name="nine.dnom" horiz-adv-x="1633" 
d="M784 1640q151 0 283 -47t231.5 -134t156.5 -220.5t57 -296.5q0 -129 -27.5 -245.5t-85 -223t-152 -192t-221.5 -149t-301.5 -98t-384.5 -34.5q-23 0 -38 14.5t-15 36.5v268q0 21 14 35t36 15q283 7 439 92t218 268q-130 -144 -378 -144q-117 0 -213 41t-156.5 110
t-93 156t-32.5 182q0 171 89.5 301t239 197.5t334.5 67.5zM789 896q90 0 139.5 57t49.5 140q0 81 -50 139t-139 58q-88 0 -138 -58.5t-50 -138.5q0 -82 50 -139.5t138 -57.5z" />
    <glyph glyph-name="zero.numr" horiz-adv-x="1764" 
d="M881 2433q160 0 299 -58t242 -164t162 -265t59 -351t-59 -351t-162 -265t-242 -164t-299 -58t-298.5 58t-241 164t-161.5 265t-59 351t59 351t161.5 265t241 164t298.5 58zM881 1175q108 0 165.5 114.5t57.5 305.5t-57.5 305.5t-165.5 114.5q-106 0 -164 -114.5
t-58 -305.5t58 -305.5t164 -114.5z" />
    <glyph glyph-name="one.numr" horiz-adv-x="1547" 
d="M1103 2397q20 0 34 -14.5t14 -34.5v-1506q0 -20 -14 -34.5t-34 -14.5h-419q-20 0 -34 14.5t-14 34.5v1103l-233 -107q-19 -9 -38.5 -2t-27.5 26l-125 270q-10 20 -2.5 39.5t27.5 27.5l414 184q32 14 70 14h382z" />
    <glyph glyph-name="two.numr" horiz-adv-x="1526" 
d="M1421 1163q20 0 34.5 -15t14.5 -35v-271q0 -20 -14.5 -34.5t-34.5 -14.5h-1234q-28 0 -43.5 15.5t-15.5 43.5v103q0 56 25 73q189 136 328.5 252.5t222.5 201t133 158t67 123.5t17 99q0 178 -194 178q-69 0 -139 -26.5t-112 -55t-107 -79.5q-12 -9 -23.5 -11t-22 3.5
t-19 13t-18.5 20.5l-148 175q-15 18 -16.5 34t6 28t24.5 28q279 263 681 263q289 0 446.5 -139t157.5 -375q0 -202 -129.5 -387t-404.5 -369h518z" />
    <glyph glyph-name="three.numr" horiz-adv-x="1631" 
d="M1212 1622q298 -123 298 -390q0 -147 -88.5 -255t-244.5 -164t-360 -56q-229 0 -394 69.5t-292 193.5q-18 19 -24.5 29.5t-5.5 26.5t17 35l149 178q11 13 18.5 20.5t18.5 13t22 3.5t24 -11q58 -43 88.5 -63.5t84 -48.5t108 -40t118.5 -12q105 0 170.5 35.5t65.5 100.5
q0 70 -88 118t-242 53q-22 2 -35.5 15.5t-13.5 34.5v185q0 21 13.5 34t35.5 15q146 9 219 55.5t73 117.5q0 60 -50 92.5t-141 32.5q-74 0 -148.5 -25t-116 -49.5t-105.5 -68.5q-28 -15 -44 -8t-39 34l-137 165q-16 19 -17.5 35.5t6 27.5t24.5 27q123 118 300.5 186.5
t386.5 68.5q277 0 433.5 -118t156.5 -316q0 -248 -244 -377z" />
    <glyph glyph-name="four.numr" horiz-adv-x="1671" 
d="M1557 1446q28 0 43 -15.5t15 -43.5v-213q0 -28 -15 -43.5t-43 -15.5h-180v-273q0 -20 -14.5 -34.5t-34.5 -14.5h-369q-20 0 -34.5 14.5t-14.5 34.5v273h-790q-28 0 -43.5 15.5t-15.5 43.5v151q0 15 9 25l800 1013q27 34 70 34h388q20 0 34.5 -14.5t14.5 -34.5v-902h180z
M564 1446h346v436z" />
    <glyph glyph-name="five.numr" horiz-adv-x="1650" 
d="M925 1814q131 -1 240 -33.5t191 -95.5t127.5 -163.5t45.5 -229.5q0 -157 -85.5 -279t-241 -189t-356.5 -67q-231 0 -398.5 62.5t-295.5 183.5q-17 17 -24.5 28t-6 26.5t17.5 34.5l149 178q14 18 24 26t26.5 11.5t32.5 -10.5q106 -75 192 -110.5t205 -35.5q104 0 170 45.5
t66 122.5q0 73 -55 118.5t-173 45.5q-139 0 -246 -42q-19 -5 -33 4l-244 147q-27 13 -23 43l81 703q5 59 58 59h983q20 0 34.5 -14.5t14.5 -34.5v-285q0 -20 -14.5 -35t-34.5 -15h-634l-29 -234q89 35 236 35z" />
    <glyph glyph-name="six.numr" horiz-adv-x="1633" 
d="M1017 1812q117 0 213 -41t156.5 -110t93 -155.5t32.5 -181.5q0 -171 -89.5 -301.5t-239.5 -198t-335 -67.5q-151 0 -283 47t-231 134t-156 220.5t-57 296.5q0 156 38.5 294.5t127.5 263.5t222 216t333.5 145.5t450.5 58.5q23 0 37.5 -14t14.5 -36v-269q0 -21 -13.5 -35
t-35.5 -14q-283 -7 -441 -104t-219 -295q130 146 381 146zM844 1107q87 0 137 58.5t50 138.5q0 83 -49.5 140t-137.5 57q-91 0 -140.5 -57t-49.5 -140q0 -80 50 -138.5t140 -58.5z" />
    <glyph glyph-name="seven.numr" horiz-adv-x="1588" 
d="M319 793q-36 0 -52.5 26.5t-1.5 58.5l527 1101h-687q-20 0 -34.5 14.5t-14.5 34.5v320q0 20 14.5 34.5t34.5 14.5h1299q58 0 58 -59v-87q0 -41 -23 -89l-624 -1343q-12 -26 -40 -26h-456z" />
    <glyph glyph-name="eight.numr" horiz-adv-x="1701" 
d="M1283 1644q138 -49 217.5 -158.5t79.5 -248.5q0 -100 -45.5 -186t-133 -152t-229.5 -104t-322 -38t-321.5 38t-229.5 104t-133 152t-45 186q0 139 79 248.5t217 158.5q-106 45 -173.5 138.5t-67.5 217.5q0 192 175.5 312.5t498.5 120.5t498.5 -120.5t175.5 -312.5
q0 -124 -67 -217.5t-174 -138.5zM850 2107q-78 0 -127.5 -41.5t-49.5 -109.5t49.5 -109.5t127.5 -41.5q79 0 128 41.5t49 109.5t-49 109.5t-128 41.5zM850 1121q95 0 149.5 50.5t54.5 126.5q0 77 -54.5 127t-149.5 50t-149.5 -50t-54.5 -127q0 -76 54.5 -126.5t149.5 -50.5z
" />
    <glyph glyph-name="nine.numr" horiz-adv-x="1633" 
d="M784 2433q151 0 283 -47t231.5 -134t156.5 -220.5t57 -296.5q0 -129 -27.5 -245.5t-85 -223t-152 -192t-221.5 -149t-301.5 -98t-384.5 -34.5q-23 0 -38 14.5t-15 36.5v268q0 21 14 35t36 15q283 7 439 92t218 268q-130 -144 -378 -144q-117 0 -213 41t-156.5 110
t-93 156t-32.5 182q0 171 89.5 301t239 197.5t334.5 67.5zM789 1689q90 0 139.5 57t49.5 140q0 81 -50 139t-139 58q-88 0 -138 -58.5t-50 -138.5q0 -82 50 -139.5t138 -57.5z" />
    <glyph glyph-name="com_I" horiz-adv-x="1118" 
d="M167 2365q0 36 19.5 55.5t55.5 19.5h635q36 0 55.5 -19.5t19.5 -55.5v-2290q0 -36 -19.5 -55.5t-55.5 -19.5h-635q-36 0 -55.5 19.5t-19.5 55.5v2290z" />
    <glyph glyph-name="com_o" horiz-adv-x="2400" 
d="M340 880q0 235 87.5 426t237.5 314t345.5 188.5t417.5 65.5v-592q-138 0 -228 -105.5t-90 -296.5h-770z" />
    <glyph glyph-name="com_n" horiz-adv-x="2301" 
d="M1237 1918q633 0 633 -684v-1159q0 -36 -19.5 -55.5t-54.5 -19.5h-601q-36 0 -55.5 19.5t-19.5 55.5v915q0 172 -57 247t-174 75q-136 0 -220 -98t-84 -275v659q93 148 258.5 234t393.5 86z" />
    <glyph glyph-name="com_c" 
d="M1070 1268v591q287 0 513.5 -112t345.5 -333q45 -82 -40 -121l-441 -206q-71 -35 -122 40q-93 141 -256 141z" />
    <glyph glyph-name="com_C" horiz-adv-x="2400" 
d="M2068 1680q-74 -35 -122 41q-79 135 -200.5 209t-267.5 74v636q168 0 327.5 -36.5t305.5 -109t269 -191.5t204 -274q43 -82 -39 -122z" />
    <glyph glyph-name="com_O" horiz-adv-x="2400" 
 />
    <glyph glyph-name="com_i_base" horiz-adv-x="1190" 
d="M220 1804q0 35 19.5 54.5t55.5 19.5h600q36 0 55.5 -19.5t19.5 -54.5v-1729q0 -36 -19.5 -55.5t-55.5 -19.5h-600q-36 0 -55.5 19.5t-19.5 55.5v1729z" />
    <glyph glyph-name="com_d" horiz-adv-x="2343" 
d="M951 1874q172 0 300 -66t213.5 -197t136 -309.5t75.5 -421.5h-189q0 189 -89 295.5t-229 106.5q-138 0 -228 -105.5t-90 -296.5h-770q0 290 104 514.5t302.5 352t463.5 127.5z" />
    <glyph glyph-name="com_g_gora" horiz-adv-x="2358" 
d="M82 1286q0 129 64 242.5t179.5 196t285 130t371.5 47.5v-430q-107 0 -177 -50.5t-70 -135.5h-653z" />
    <glyph glyph-name="newGlyph" horiz-adv-x="2400" 
 />
    <glyph glyph-name="com_duze_I" horiz-adv-x="785" 
d="M0 2365q0 31 22 53t53 22h635q31 0 53 -22t22 -53v-2290q0 -31 -22 -53t-53 -22h-635q-31 0 -53 22t-22 53v2290z" />
    <glyph glyph-name="com_duze_I_bok" horiz-adv-x="785" 
d="M0 2365q0 31 22 53t53 22h635q31 0 53 -22t22 -53v-2290q0 -31 -22 -53t-53 -22h-635q-31 0 -53 22t-22 53v2290z" />
    <glyph glyph-name="com_currency" horiz-adv-x="2400" 
d="M241 1295q310 233 701 233v-556q-117 0 -219.5 -42.5t-177 -118t-117.5 -185t-43 -237.5h-598q0 361 209 654l-379 266q-33 23 -36 59t25 65l247 247q28 28 64.5 25t59.5 -35z" />
    <glyph glyph-name="com_infinity" horiz-adv-x="2400" 
d="M-23 1129q0 164 55.5 298.5t152.5 223t227 136.5t280 48q376 0 639 -367v-339h-329q-76 123 -116 166q-80 88 -175 88q-88 0 -141.5 -72.5t-53.5 -181.5h-539z" />
    </font>
</defs>
</svg>
