<?xml version="1.0" standalone="no"?>
<!DOCTYPE svg PUBLIC "-//W3C//DTD SVG 1.1//EN" "http://www.w3.org/Graphics/SVG/1.1/DTD/svg11.dtd" >
<svg xmlns="http://www.w3.org/2000/svg" xmlns:xlink="http://www.w3.org/1999/xlink" version="1.1">
<metadata>
Created by FontForge 20170731 at Fri Jun 24 01:06:57 2016
 By Aleksey,,,
Copyright (c) 2015 by Mateusz Machalski. All rights reserved.
</metadata>
<defs>
<font id="Migrena_Grotesque-Black" horiz-adv-x="2400" >
  <font-face 
    font-family="Migrena_Grotesque Black"
    font-weight="900"
    font-stretch="normal"
    units-per-em="4000"
    panose-1="0 0 10 0 0 0 0 0 0 0"
    ascent="3200"
    descent="-800"
    x-height="1920"
    cap-height="2440"
    bbox="-2194 -1425.23 5313 3699.12"
    underline-thickness="50"
    underline-position="-200"
    unicode-range="U+0020-25CA"
  />
<missing-glyph horiz-adv-x="1580" 
d="M1296 2560v-3160h-1002v3160h1002zM1052 2348h-521v-104h205v-117h-208v-104h524v104h-208v117h208v104zM844 1941h-316v-329h524v107h-208v222zM736 1833v-114h-104v114h104zM1052 1527h-524v-105h208v-117h-208v-104h316v221h208v105zM1052 1337h-104v-208h-420v-108
h524v316zM1052 952h-316v-177h108v72h104v-148h-316v253h-104v-358h524v358zM1052 405h-524v-357h524v357zM948 301v-149h-316v149h316zM1052 -25h-524v-104h221l-221 -149v-104h524v104h-322l221 149h101v104z" />
    <glyph glyph-name=".notdef" horiz-adv-x="1580" 
d="M1296 2560v-3160h-1002v3160h1002zM1052 2348h-521v-104h205v-117h-208v-104h524v104h-208v117h208v104zM844 1941h-316v-329h524v107h-208v222zM736 1833v-114h-104v114h104zM1052 1527h-524v-105h208v-117h-208v-104h316v221h208v105zM1052 1337h-104v-208h-420v-108
h524v316zM1052 952h-316v-177h108v72h104v-148h-316v253h-104v-358h524v358zM1052 405h-524v-357h524v357zM948 301v-149h-316v149h316zM1052 -25h-524v-104h221l-221 -149v-104h524v104h-322l221 149h101v104z" />
    <glyph glyph-name=".null" horiz-adv-x="0" 
 />
    <glyph glyph-name="nonmarkingreturn" horiz-adv-x="1333" 
 />
    <glyph glyph-name="space" unicode=" " horiz-adv-x="640" 
 />
    <glyph glyph-name="exclam" unicode="!" horiz-adv-x="1120" 
d="M120 2360q-3 38 18.5 59t61.5 21h720q40 0 61.5 -21t18.5 -59l-100 -1380q-6 -80 -80 -80h-520q-74 0 -80 80zM560 -40q-175 0 -297.5 122.5t-122.5 297.5t122.5 297.5t297.5 122.5q174 0 297 -122.5t123 -297.5t-123 -297.5t-297 -122.5z" />
    <glyph glyph-name="quotedbl" unicode="&#x22;" horiz-adv-x="1870" 
d="M120 2430q-3 38 18.5 59t61.5 21h570q40 0 62 -21t18 -59l-80 -850q-6 -80 -80 -80h-410q-72 0 -80 80zM1020 2430q-3 38 18.5 59t61.5 21h570q40 0 62 -21t18 -59l-80 -850q-6 -80 -80 -80h-410q-72 0 -80 80z" />
    <glyph glyph-name="numbersign" unicode="#" horiz-adv-x="2832" 
d="M2620 1860q48 0 71.5 -26t19.5 -74l-31 -360q-5 -48 -33 -74t-76 -26h-198l-35 -340h203q48 0 72 -26t20 -74l-32 -360q-5 -48 -32.5 -74t-76.5 -26h-210l-32 -320q-8 -80 -87 -80h-620q-39 0 -58 20.5t-15 59.5l32 320h-319l-32 -320q-8 -80 -87 -80h-620
q-39 0 -58 20.5t-15 59.5l32 320h-190q-48 0 -72 26t-20 74l33 360q5 48 32 74t75 26h198l34 340h-202q-48 0 -71.5 26t-19.5 74l31 360q4 48 32.5 74t76.5 26h209l32 320q8 80 87 80h620q39 0 58 -20.5t15 -59.5l-32 -320h320l32 320q8 80 87 80h620q39 0 58 -20.5
t15 -59.5l-32 -320h191zM1558 960l35 340h-320l-34 -340h319z" />
    <glyph glyph-name="dollar" unicode="$" horiz-adv-x="2356" 
d="M2256 822q0 -162 -54 -297.5t-152.5 -233.5t-225.5 -166.5t-284 -108.5v-436q0 -33 -23.5 -56.5t-56.5 -23.5h-460q-33 0 -56.5 23.5t-23.5 56.5v385q-437 32 -768 203q-79 48 -40 136l200 440q38 85 121 50q135 -57 206 -83.5t177 -48.5t218 -22q242 0 242 83
q0 28 -31 52.5t-84 43t-123.5 41t-150 45t-163.5 57.5t-163.5 76.5t-150 103.5t-123.5 136t-84 177.5t-31 225.5q0 314 197 521t551 271v387q0 33 23.5 56.5t56.5 23.5h460q33 0 56.5 -23.5t23.5 -56.5v-382q189 -26 346 -76t238 -98q82 -48 44 -132l-178 -388
q-20 -44 -57.5 -56.5t-82.5 7.5q-67 29 -109 45t-117.5 41t-152 37t-153.5 12q-117 0 -171.5 -23.5t-54.5 -58.5q0 -27 40 -50.5t107 -43.5t154.5 -42.5t184 -55.5t193 -74.5t184 -106t154.5 -144.5t107 -195.5t40 -253.5z" />
    <glyph glyph-name="percent" unicode="%" horiz-adv-x="3813" 
d="M2657 2523q30 -14 41.5 -45.5t-2.5 -61.5l-1207 -2540q-14 -30 -46 -41.5t-60 2.5l-236 110q-31 14 -42 45.5t3 61.5l1207 2540q14 30 45 41.5t62 -2.5zM1598 1714q0 -180 -58.5 -329.5t-159.5 -248.5t-238 -153.5t-293 -54.5t-293 54.5t-238 153.5t-159.5 248.5
t-58.5 329.5t58.5 329.5t159.5 248.5t238 153.5t293 54.5t293 -54.5t238 -153.5t159.5 -248.5t58.5 -329.5zM849 1428q63 0 100.5 79t37.5 207q0 129 -37.5 208t-100.5 79t-100.5 -79t-37.5 -208q0 -128 37.5 -207t100.5 -79zM2964 1512q156 0 293 -54.5t238 -153.5
t159.5 -248.5t58.5 -329.5t-58.5 -329.5t-159.5 -248.5t-238 -153.5t-293 -54.5t-293 54.5t-238 153.5t-159.5 248.5t-58.5 329.5t58.5 329.5t159.5 248.5t238 153.5t293 54.5zM2964 440q63 0 100.5 79t37.5 207q0 129 -37.5 208t-100.5 79t-100.5 -79t-37.5 -208
q0 -128 37.5 -207t100.5 -79z" />
    <glyph glyph-name="ampersand" unicode="&#x26;" horiz-adv-x="2759" 
d="M2666 182q53 -57 23.5 -119.5t-107.5 -62.5h-642q-31 0 -54 10.5t-50 38.5l-76 80q-329 -169 -726 -169q-152 0 -292.5 30.5t-261 94t-209.5 152.5t-140 213t-51 269q0 445 441 774q-86 162 -86 332q0 142 47 256.5t128.5 191.5t195 129t241.5 75t272 23q362 0 676 -153
q27 -13 37.5 -40.5t-0.5 -55.5l-142 -394q-14 -40 -49.5 -53t-72.5 7q-153 80 -289 80q-199 0 -199 -140q0 -17 6.5 -37t24 -46t30 -44.5t42.5 -53t43.5 -49.5t51 -55t46.5 -50l268 -290q65 129 101 279q8 32 32 50.5t56 14.5l535 -62q36 -5 57 -31t15 -62
q-67 -409 -297 -728zM1100 595q86 0 179 36l-368 383q-51 -87 -51 -176q0 -108 62.5 -175.5t177.5 -67.5z" />
    <glyph glyph-name="quotesingle" unicode="'" horiz-adv-x="970" 
d="M120 2430q-3 38 18.5 59t61.5 21h570q40 0 62 -21t18 -59l-80 -850q-6 -80 -80 -80h-410q-72 0 -80 80z" />
    <glyph glyph-name="parenleft" unicode="(" horiz-adv-x="1006" 
d="M570 960q0 -388 89 -756.5t303 -740.5q22 -39 8.5 -76.5t-54.5 -51.5l-173 -57q-54 -17 -85 26q-538 754 -538 1656t538 1656q31 43 85 26l173 -57q41 -14 54.5 -51.5t-8.5 -76.5q-214 -372 -303 -740.5t-89 -756.5z" />
    <glyph glyph-name="parenright" unicode=")" horiz-adv-x="1006" 
d="M348 2616q538 -754 538 -1656t-538 -1656q-31 -43 -85 -26l-173 57q-41 14 -54.5 51.5t8.5 76.5q214 372 303 740.5t89 756.5t-89 756.5t-303 740.5q-22 39 -8.5 76.5t54.5 51.5l173 57q54 17 85 -26z" />
    <glyph glyph-name="asterisk" unicode="*" horiz-adv-x="1791" 
d="M1667 2338q10 -34 -5 -63t-48 -40l-359 -117l222 -305q21 -29 16 -61.5t-34 -53.5l-226 -165q-29 -21 -61.5 -15.5t-53.5 34.5l-222 305l-222 -305q-22 -29 -54 -34.5t-61 15.5l-226 165q-29 21 -34.5 53.5t16.5 61.5l222 305l-359 117q-34 11 -49 40t-4 63l87 266
q11 34 40 49t63 4l359 -117v378q0 35 23.5 58.5t58.5 23.5h280q35 0 58.5 -23.5t23.5 -58.5v-378l359 117q33 11 62.5 -4t40.5 -49z" />
    <glyph glyph-name="plus" unicode="+" horiz-adv-x="2236" 
d="M1976 1400q48 0 74 -26t26 -74v-380q0 -48 -26 -74t-74 -26h-568v-568q0 -48 -26 -74t-74 -26h-380q-48 0 -74 26t-26 74v568h-568q-48 0 -74 26t-26 74v380q0 48 26 74t74 26h568v568q0 48 26 74t74 26h380q48 0 74 -26t26 -74v-568h568z" />
    <glyph glyph-name="comma" unicode="," horiz-adv-x="1080" 
d="M520 840q83 0 160 -29.5t140.5 -85.5t101.5 -147.5t38 -205.5q0 -175 -86.5 -363.5t-234 -346t-323.5 -246.5q-24 -12 -48.5 -7t-39.5 23l-72 80q-21 24 -20.5 54.5t24.5 57.5q12 13 43.5 43.5t47.5 49t37 47.5t30.5 59.5t9.5 64.5q0 43 -18 81t-38.5 59.5t-55.5 51.5
q-136 120 -136 312q0 191 128 319.5t312 128.5z" />
    <glyph glyph-name="hyphen" unicode="-" horiz-adv-x="2136" 
d="M260 580q-48 0 -74 26t-26 74v460q0 48 26 74t74 26h1616q48 0 74 -26t26 -74v-460q0 -48 -26 -74t-74 -26h-1616z" />
    <glyph glyph-name="period" unicode="." horiz-adv-x="1120" 
d="M560 -40q-183 0 -311.5 128.5t-128.5 311.5t128.5 311.5t311.5 128.5t311.5 -128.5t128.5 -311.5t-128.5 -311.5t-311.5 -128.5z" />
    <glyph glyph-name="slash" unicode="/" horiz-adv-x="1613" 
d="M1225 2664q14 30 45 41.5t62 -2.5l235 -110q30 -14 41.5 -45.5t-2.5 -61.5l-1217 -2610q-14 -30 -46 -41.5t-60 2.5l-236 110q-31 14 -42 45.5t3 61.5z" />
    <glyph glyph-name="zero" unicode="0" horiz-adv-x="2640" 
d="M1320 2500q204 0 388 -55.5t335.5 -165t262.5 -262.5t172.5 -357.5t61.5 -439.5t-61.5 -439.5t-172.5 -357.5t-262.5 -262.5t-335.5 -165t-388 -55.5t-388 55.5t-335.5 165t-262.5 262.5t-172.5 357.5t-61.5 439.5t61.5 439.5t172.5 357.5t262.5 262.5t335.5 165
t388 55.5zM1320 680q119 0 189.5 149t70.5 391t-70.5 391t-189.5 149t-189.5 -149t-70.5 -391t70.5 -391t189.5 -149z" />
    <glyph glyph-name="one" unicode="1" horiz-adv-x="2147" 
d="M1697 2440q33 0 56.5 -23.5t23.5 -56.5v-2280q0 -33 -23.5 -56.5t-56.5 -23.5h-760q-33 0 -56.5 23.5t-23.5 56.5v1574l-335 -149q-31 -14 -62 -2.5t-45 42.5l-226 488q-16 33 -3.5 65t46.5 46l648 272q55 24 119 24h698z" />
    <glyph glyph-name="two" unicode="2" horiz-adv-x="2275" 
d="M2165 640q33 0 56.5 -23.5t23.5 -56.5v-480q0 -33 -23.5 -56.5t-56.5 -23.5h-1950q-48 0 -74 26t-26 74v192q0 93 44 124q277 193 483.5 360.5t326 287t191.5 223.5t95.5 171.5t23.5 129.5q0 114 -60 168t-186 54q-43 0 -87.5 -8t-77.5 -17t-79.5 -32t-68.5 -34
t-71.5 -44.5t-62.5 -42.5t-65 -47q-19 -14 -38 -16t-37 7.5t-32.5 23t-32.5 34.5l-248 298q-27 32 -31.5 59.5t8 48t41.5 48.5q199 188 477.5 300t609.5 112q453 0 707 -217t254 -592q0 -289 -181.5 -556t-562.5 -495h710z" />
    <glyph glyph-name="three" unicode="3" horiz-adv-x="2409" 
d="M1876 1263q433 -200 433 -593q0 -228 -143.5 -395t-389.5 -251t-563 -84q-673 0 -1082 412q-30 30 -41.5 49t-8 46t31.5 61l248 298q17 21 31 33.5t32 23t37.5 8.5t39.5 -16q81 -57 129.5 -87t124 -67.5t153 -54t165.5 -16.5q133 0 214.5 39.5t81.5 114.5
q0 46 -34.5 82.5t-94 60.5t-133.5 38t-158 17q-35 2 -57 24t-22 56v324q0 34 22 56t58 25q170 13 264.5 67.5t94.5 142.5q0 66 -60 99.5t-169 33.5q-66 0 -134 -14.5t-118 -32.5t-111.5 -51t-93 -52.5t-83.5 -54.5q-20 -13 -38.5 -15.5t-36 6.5t-32 22t-33.5 36l-232 278
q-28 34 -31.5 62t8.5 46.5t41 47.5q188 188 476.5 300t629.5 112q281 0 489.5 -77.5t323 -229.5t114.5 -362q0 -369 -343 -568z" />
    <glyph glyph-name="four" unicode="4" horiz-adv-x="2546" 
d="M2416 1040q48 0 74 -26t26 -74v-360q0 -48 -26 -74t-74 -26h-259v-400q0 -33 -23.5 -56.5t-56.5 -23.5h-660q-33 0 -56.5 23.5t-23.5 56.5v400h-1187q-48 0 -74 26t-26 74v238q0 23 14 40l1186 1525q44 57 119 57h708q33 0 56.5 -23.5t23.5 -56.5v-1320h259zM915 1040
h422v544z" />
    <glyph glyph-name="five" unicode="5" horiz-adv-x="2430" 
d="M1394 1559q205 0 374.5 -50t295.5 -147t196 -250.5t70 -351.5q0 -180 -80 -333t-221.5 -260t-341 -167t-433.5 -60q-367 0 -636.5 97t-465.5 285q-30 29 -42 48.5t-8 46.5t32 61l248 298q17 21 30.5 33.5t31 23t37 8.5t41.5 -16q153 -101 277.5 -148t294.5 -47
q129 0 212.5 50t83.5 134q0 82 -61.5 128.5t-214.5 46.5q-156 0 -312 -35q-29 -6 -51 8l-434 274q-39 24 -34 69l118 1035q11 100 100 100h1540q33 0 56.5 -23.5t23.5 -56.5v-510q0 -33 -23.5 -56.5t-56.5 -23.5h-920l-32 -253q112 42 305 42z" />
    <glyph glyph-name="six" unicode="6" horiz-adv-x="2410" 
d="M1580 1540q144 0 265 -40.5t205.5 -109.5t144 -161.5t87.5 -196t28 -212.5q0 -167 -54.5 -310t-150.5 -246.5t-227 -177t-285 -110t-323 -36.5q-190 0 -363.5 44.5t-320.5 134.5t-255.5 217.5t-169.5 303t-61 380.5q0 153 27 297t91.5 291.5t162.5 274t248.5 239
t341 193.5t449.5 130t564 55q37 1 61.5 -22.5t24.5 -59.5v-476q0 -35 -23 -57.5t-59 -23.5q-212 -4 -375 -39t-279 -102t-192.5 -159.5t-122.5 -217.5q184 197 561 197zM1260 540q97 0 153.5 71.5t56.5 168.5q0 101 -56 170.5t-154 69.5q-104 0 -157 -68.5t-53 -171.5
q0 -99 53.5 -169.5t156.5 -70.5z" />
    <glyph glyph-name="seven" unicode="7" horiz-adv-x="2350" 
d="M389 0q-57 0 -84.5 42.5t-2.5 94.5l748 1563h-940q-33 0 -56.5 23.5t-23.5 56.5v580q0 33 23.5 56.5t56.5 23.5h2040q48 0 74 -26t26 -74v-162q0 -67 -40 -154l-909 -1982q-19 -42 -65 -42h-847z" />
    <glyph glyph-name="eight" unicode="8" horiz-adv-x="2548" 
d="M2003 1292q213 -70 329 -236.5t116 -375.5q0 -121 -43 -229.5t-136.5 -202.5t-229 -162t-331.5 -107t-434 -39t-434 39t-331.5 107t-229 162t-136.5 202.5t-43 229.5q0 209 116 375.5t329 236.5q-157 67 -256.5 211t-99.5 329q0 147 68.5 268.5t201 211t341 139
t474.5 49.5t474.5 -49.5t341 -139t201 -211t68.5 -268.5q0 -185 -99.5 -329t-256.5 -211zM1274 1939q-89 0 -144.5 -49t-55.5 -136t55.5 -136.5t144.5 -49.5t144.5 49.5t55.5 136.5t-55.5 136t-144.5 49zM1274 569q108 0 171 63.5t63 156.5t-63 156.5t-171 63.5t-171 -63.5
t-63 -156.5t63 -156.5t171 -63.5z" />
    <glyph glyph-name="nine" unicode="9" horiz-adv-x="2410" 
d="M1140 2500q190 0 363.5 -44.5t320.5 -134.5t255.5 -217.5t169.5 -303t61 -380.5q0 -153 -27 -295t-91.5 -286t-162.5 -266.5t-248.5 -229.5t-341 -182t-449.5 -118t-564 -43q-37 0 -61.5 23.5t-24.5 58.5v476q0 35 23 57.5t59 23.5q275 6 467 57.5t309.5 146.5t181.5 243
q-183 -186 -550 -186q-144 0 -265 40.5t-205.5 109.5t-144 161.5t-87.5 196t-28 212.5q0 167 54.5 310t150.5 246.5t227 177t285 110t323 36.5zM1150 1420q104 0 157 68.5t53 171.5q0 99 -53.5 169.5t-156.5 70.5q-97 0 -153.5 -71.5t-56.5 -168.5q0 -101 56 -170.5
t154 -69.5z" />
    <glyph glyph-name="colon" unicode=":" horiz-adv-x="1120" 
d="M560 1080q-183 0 -311.5 128.5t-128.5 311.5t128.5 311.5t311.5 128.5t311.5 -128.5t128.5 -311.5t-128.5 -311.5t-311.5 -128.5zM560 -40q-183 0 -311.5 128.5t-128.5 311.5t128.5 311.5t311.5 128.5t311.5 -128.5t128.5 -311.5t-128.5 -311.5t-311.5 -128.5z" />
    <glyph glyph-name="semicolon" unicode=";" horiz-adv-x="1080" 
d="M520 1080q-183 0 -311.5 128.5t-128.5 311.5t128.5 311.5t311.5 128.5t311.5 -128.5t128.5 -311.5t-128.5 -311.5t-311.5 -128.5zM520 840q83 0 160 -29.5t140.5 -85.5t101.5 -147.5t38 -205.5q0 -175 -86.5 -363.5t-234 -346t-323.5 -246.5q-24 -12 -48.5 -7t-39.5 23
l-72 80q-21 24 -20.5 54.5t24.5 57.5q12 13 43.5 43.5t47.5 49t37 47.5t30.5 59.5t9.5 64.5q0 43 -18 81t-38.5 59.5t-55.5 51.5q-136 120 -136 312q0 191 128 319.5t312 128.5z" />
    <glyph glyph-name="less" unicode="&#x3c;" horiz-adv-x="2236" 
d="M2076 1570q0 -19 -5.5 -33.5t-12 -23t-23 -17.5t-25.5 -13t-34 -13l-1069 -405l1069 -405q25 -9 34 -13t25.5 -13t23 -17.5t12 -23t5.5 -33.5v-430q0 -51 -29 -84t-71 -16l-1716 700q-49 20 -74.5 47.5t-25.5 72.5v430q0 45 25.5 72.5t74.5 47.5l1716 700q42 17 71 -16
t29 -84v-430z" />
    <glyph glyph-name="equal" unicode="=" horiz-adv-x="2236" 
d="M260 1250q-48 0 -74 26t-26 74v380q0 48 26 74t74 26h1716q48 0 74 -26t26 -74v-380q0 -48 -26 -74t-74 -26h-1716zM260 390q-48 0 -74 26t-26 74v380q0 48 26 74t74 26h1716q48 0 74 -26t26 -74v-380q0 -48 -26 -74t-74 -26h-1716z" />
    <glyph glyph-name="greater" unicode="&#x3e;" horiz-adv-x="2236" 
d="M160 1570v430q0 51 29 84t71 16l1716 -700q49 -20 74.5 -47.5t25.5 -72.5v-430q0 -45 -25.5 -72.5t-74.5 -47.5l-1716 -700q-42 -17 -71 16t-29 84v430q0 19 5.5 33.5t12 23t23 17.5t25.5 13t34 13l1069 405l-1069 405q-25 9 -34 13t-25.5 13t-23 17.5t-12 23t-5.5 33.5z
" />
    <glyph glyph-name="question" unicode="?" horiz-adv-x="1966" 
d="M1076 1679q0 161 -219 161q-54 0 -101.5 -9t-89.5 -29t-66.5 -33.5t-63.5 -40.5t-48 -33q-24 -15 -41 -18t-42 12t-57 55l-228 288q-16 21 -20 38.5t6.5 34.5t22.5 28.5t35 30.5q94 76 187 132.5t208.5 105t253 73.5t292.5 25q144 0 270.5 -23t235.5 -72.5t187.5 -122
t123 -177.5t44.5 -234q0 -95 -27.5 -176t-72.5 -140t-100 -111.5t-113 -102.5t-108.5 -100.5t-89.5 -117.5t-53 -143q-3 -18 -6 -28t-11 -24t-24 -20.5t-39 -6.5h-507q-41 0 -57 24t-16 80q0 84 34.5 167.5t83.5 149t98 125.5t83.5 120.5t34.5 111.5zM1070 -40
q-174 0 -296.5 122.5t-122.5 296.5t122.5 296.5t296.5 122.5q175 0 297 -122.5t122 -296.5t-122 -296.5t-297 -122.5z" />
    <glyph glyph-name="at" unicode="@" horiz-adv-x="3360" 
d="M2303 -308q-2 -25 -17.5 -42.5t-39.5 -22.5q-335 -75 -690 -75q-343 0 -619.5 90.5t-465 258t-290 409.5t-101.5 540q0 247 70 472.5t195 406.5t299.5 329t381.5 247.5t443.5 153t483.5 53.5q228 0 428.5 -47.5t365.5 -145.5t283.5 -238t184 -333.5t65.5 -424.5
q0 -167 -40.5 -329.5t-117 -301t-179.5 -244.5t-236 -166.5t-278 -60.5q-398 0 -491 258q-91 -135 -201 -196.5t-253 -61.5q-112 0 -209.5 38.5t-175.5 114t-123 201t-45 286.5q0 171 45 324t130 274.5t201 210.5t264.5 136.5t315.5 47.5q216 0 536 -91q28 -8 42.5 -30
t12.5 -51l-82 -930q-7 -77 18.5 -122t83.5 -45q70 0 125 75.5t86 191.5t46.5 236t15.5 228q0 185 -48.5 329t-149 249.5t-265.5 161.5t-388 56q-290 0 -537.5 -92.5t-421 -255.5t-271 -393.5t-97.5 -498.5q0 -165 38 -305.5t119 -256.5t200 -197.5t288 -126.5t377 -45
q297 0 594 67q50 11 84.5 -18.5t29.5 -79.5zM1625 585q112 0 199.5 127.5t110.5 370.5l36 389q-81 25 -160 25q-112 0 -197 -79t-129.5 -216.5t-44.5 -311.5q0 -152 52 -228.5t133 -76.5z" />
    <glyph glyph-name="A" unicode="A" horiz-adv-x="2884" 
d="M2874 116q21 -53 0 -84.5t-76 -31.5h-784q-81 0 -112 80l-93 260h-791l-88 -260q-31 -80 -116 -80h-728q-55 0 -76 31.5t0 84.5l920 2248q29 76 116 76h804q87 0 116 -76zM1206 900h403l-207 580z" />
    <glyph glyph-name="B" unicode="B" horiz-adv-x="2670" 
d="M1970 1240q120 -15 226 -59t190.5 -114.5t134 -175.5t49.5 -231q0 -324 -250 -492t-750 -168h-680h-690q-33 0 -56.5 23.5t-23.5 56.5v2280q0 33 23.5 56.5t56.5 23.5h760h490q498 0 749 -165t251 -475q0 -237 -133.5 -383t-346.5 -177zM1530 1660q0 27 -9 51t-32 50.5
t-74.5 42.5t-124.5 16h-250v-320h250q73 0 124.5 16t74.5 42.5t32 50.5t9 51zM1410 620q66 0 113 16t68.5 42.5t30 51t8.5 50.5t-8.5 50.5t-30 51t-68.5 42.5t-113 16h-370v-320h370z" />
    <glyph glyph-name="C" unicode="C" horiz-adv-x="2747" 
d="M2608 678q43 -21 55 -56t-11 -80q-80 -149 -206.5 -266t-277.5 -189.5t-315.5 -109.5t-332.5 -37q-239 0 -454.5 55.5t-391.5 165t-304.5 262.5t-199 357t-70.5 440t70.5 440t199 357t304.5 262.5t391.5 165t454.5 55.5q168 0 332.5 -37t315.5 -109.5t277.5 -189.5
t206.5 -266q23 -45 11 -80t-55 -56l-568 -270q-79 -38 -136 44q-66 101 -166 162.5t-218 61.5q-209 0 -334.5 -149t-125.5 -391t125.5 -391t334.5 -149q118 0 218 61.5t166 162.5q57 82 136 44z" />
    <glyph glyph-name="D" unicode="D" horiz-adv-x="2820" 
d="M1320 2440q234 0 445 -51.5t385 -154t301.5 -247.5t198 -341.5t70.5 -425.5t-70.5 -425.5t-198 -341.5t-301.5 -247.5t-385 -154t-445 -51.5h-780h-340q-33 0 -56.5 23.5t-23.5 56.5v2280q0 33 23.5 56.5t56.5 23.5h760h360zM1280 700q213 0 346.5 141.5t133.5 378.5
t-133.5 378.5t-346.5 141.5h-240v-1040h240z" />
    <glyph glyph-name="E" unicode="E" horiz-adv-x="2325" 
d="M2165 700q80 0 80 -80v-540q0 -80 -80 -80h-1456h-509q-33 0 -56.5 23.5t-23.5 56.5v2280q0 33 23.5 56.5t56.5 23.5h760h1165q80 0 80 -80v-540q0 -80 -80 -80h-1085v-200h925q80 0 80 -80v-460q0 -80 -80 -80h-925v-220h1125z" />
    <glyph glyph-name="F" unicode="F" horiz-adv-x="2225" 
d="M2085 2440q80 0 80 -80v-540q0 -80 -80 -80h-1045v-320h965q80 0 80 -80v-500q0 -80 -80 -80h-965v-680q0 -33 -23.5 -56.5t-56.5 -23.5h-760q-33 0 -56.5 23.5t-23.5 56.5v2280q0 33 23.5 56.5t56.5 23.5h760h1125z" />
    <glyph glyph-name="G" unicode="G" horiz-adv-x="2808" 
d="M2578 1140q110 0 110 -100v-768q-205 -146 -508.5 -239t-659.5 -93q-239 0 -454.5 55.5t-391.5 165t-304.5 262.5t-199 357t-70.5 440t70.5 440t199 357t304.5 262.5t391.5 165t454.5 55.5q166 0 326 -34t309.5 -102.5t276.5 -182.5t210 -263q24 -45 12 -80t-56 -56
l-568 -270q-76 -36 -136 44q-150 204 -374 204q-209 0 -334.5 -149t-125.5 -391t125.5 -391t334.5 -149q188 0 328 39v321q0 48 26 74t74 26h630z" />
    <glyph glyph-name="H" unicode="H" horiz-adv-x="2880" 
d="M2680 2440q33 0 56.5 -23.5t23.5 -56.5v-2280q0 -33 -23.5 -56.5t-56.5 -23.5h-760q-33 0 -56.5 23.5t-23.5 56.5v800h-800v-800q0 -33 -23.5 -56.5t-56.5 -23.5h-760q-33 0 -56.5 23.5t-23.5 56.5v2280q0 33 23.5 56.5t56.5 23.5h760q33 0 56.5 -23.5t23.5 -56.5v-780
h800v780q0 33 23.5 56.5t56.5 23.5h760z" />
    <glyph glyph-name="I" unicode="I" horiz-adv-x="1160" 
d="M120 2360q0 33 23.5 56.5t56.5 23.5h760q33 0 56.5 -23.5t23.5 -56.5v-2280q0 -33 -23.5 -56.5t-56.5 -23.5h-760q-33 0 -56.5 23.5t-23.5 56.5v2280z" />
    <glyph glyph-name="J" unicode="J" horiz-adv-x="2164" 
d="M1944 2440q48 0 74 -26t26 -74v-1500q0 -174 -59 -322t-161 -253t-237 -179.5t-288.5 -110t-314.5 -35.5q-153 0 -294.5 33t-243.5 83t-186 112.5t-132 117.5t-72 102q-47 94 44 136l516 240q49 20 74 11t62 -55q38 -48 82 -74t110 -26q86 0 143 57t57 163v1500
q0 48 26 74t74 26h700z" />
    <glyph glyph-name="K" unicode="K" horiz-adv-x="2880" 
d="M960 2440q33 0 56.5 -23.5t23.5 -56.5v-2280q0 -33 -23.5 -56.5t-56.5 -23.5h-760q-33 0 -56.5 23.5t-23.5 56.5v2280q0 33 23.5 56.5t56.5 23.5h760zM2857 120q34 -52 14.5 -86t-79.5 -34h-812q-79 0 -120 64l-760 1176l771 1136q42 64 121 64h760q61 0 80 -34.5
t-16 -85.5l-736 -1040z" />
    <glyph glyph-name="L" unicode="L" horiz-adv-x="2180" 
d="M2060 740q80 0 80 -80v-580q0 -80 -80 -80h-1356h-504q-33 0 -56.5 23.5t-23.5 56.5v2280q0 33 23.5 56.5t56.5 23.5h760q33 0 56.5 -23.5t23.5 -56.5v-1620h1020z" />
    <glyph glyph-name="M" unicode="M" horiz-adv-x="3240" 
d="M2507 2388q44 52 125 52h388q48 0 74 -26t26 -74v-2240q0 -48 -26 -74t-74 -26h-720q-48 0 -74 26t-26 74v744l-508 -556q-30 -33 -72 -33t-72 33l-508 556v-744q0 -48 -26 -74t-74 -26h-720q-48 0 -74 26t-26 74v2240q0 48 26 74t74 26h352q74 0 123 -53l925 -1027z" />
    <glyph glyph-name="N" unicode="N" horiz-adv-x="2880" 
d="M2660 2440q48 0 74 -26t26 -74v-2240q0 -48 -26 -74t-74 -26h-272q-74 0 -124 40l-1224 940v-880q0 -48 -26 -74t-74 -26h-720q-48 0 -74 26t-26 74v2240q0 48 26 74t74 26h272q74 0 124 -40l1224 -948v888q0 48 26 74t74 26h720z" />
    <glyph glyph-name="O" unicode="O" horiz-adv-x="3040" 
d="M1520 2500q239 0 454.5 -55.5t391.5 -165t304.5 -262.5t199 -357t70.5 -440t-70.5 -440t-199 -357t-304.5 -262.5t-391.5 -165t-454.5 -55.5t-454.5 55.5t-391.5 165t-304.5 262.5t-199 357t-70.5 440t70.5 440t199 357t304.5 262.5t391.5 165t454.5 55.5zM1520 680
q209 0 334.5 149t125.5 391t-125.5 391t-334.5 149t-334.5 -149t-125.5 -391t125.5 -391t334.5 -149z" />
    <glyph glyph-name="P" unicode="P" horiz-adv-x="2470" 
d="M1400 2440q197 0 365.5 -44.5t291.5 -124.5t210 -190t130 -242t43 -279t-43 -279t-130 -242t-210 -190t-291.5 -124.5t-365.5 -44.5h-360v-600q0 -33 -23.5 -56.5t-56.5 -23.5h-760q-33 0 -56.5 23.5t-23.5 56.5v2280q0 33 23.5 56.5t56.5 23.5h760h440zM1240 1340
q67 0 119 20t82 53t44.5 70.5t14.5 76.5t-14.5 76.5t-44.5 70.5t-82 53t-119 20h-200v-440h200z" />
    <glyph glyph-name="Q" unicode="Q" horiz-adv-x="3040" 
d="M2665 -74q72 -4 72 -76v-480q0 -80 -89 -80q-328 0 -569.5 181.5t-327.5 482.5q-117 -14 -231 -14q-239 0 -454.5 55.5t-391.5 165t-304.5 262.5t-199 357t-70.5 440t70.5 440t199 357t304.5 262.5t391.5 165t454.5 55.5t454.5 -55.5t391.5 -165t304.5 -262.5t199 -357
t70.5 -440q0 -373 -170.5 -655.5t-471.5 -442.5q42 -67 110 -112t131 -63t126 -21zM1060 1220q0 -242 125.5 -391t334.5 -149t334.5 149t125.5 391t-125.5 391t-334.5 149t-334.5 -149t-125.5 -391z" />
    <glyph glyph-name="R" unicode="R" horiz-adv-x="2541" 
d="M2464 180q35 -68 1.5 -124t-109.5 -56h-724q-24 0 -46.5 14t-33.5 38l-307 652h-205v-624q0 -33 -23.5 -56.5t-56.5 -23.5h-760q-33 0 -56.5 23.5t-23.5 56.5v2280q0 33 23.5 56.5t56.5 23.5h760h420q246 0 445 -67t328 -184.5t198 -275t69 -341.5q0 -204 -84 -375.5
t-243 -289.5zM1040 1780v-416h160q280 0 280 208t-280 208h-160z" />
    <glyph glyph-name="S" unicode="S" horiz-adv-x="2356" 
d="M1092 1788q0 -27 40 -50.5t107 -43.5t154.5 -42.5t184 -55.5t193 -74.5t184 -106t154.5 -144.5t107 -195.5t40 -253.5q0 -147 -45 -273t-126.5 -219.5t-191 -165t-243 -115.5t-278 -66.5t-299.5 -22.5q-261 0 -501 57.5t-420 150.5q-79 48 -40 136l200 440q38 85 121 50
q135 -57 206 -83.5t177 -48.5t218 -22q242 0 242 83q0 28 -31 52.5t-84 43t-123.5 41t-150 45t-163.5 57.5t-163.5 76.5t-150 103.5t-123.5 136t-84 177.5t-31 225.5q0 380 284 599.5t777 219.5q278 0 525.5 -63t365.5 -133q82 -48 44 -132l-178 -388q-20 -44 -57.5 -56.5
t-82.5 7.5q-67 29 -109 45t-117.5 41t-152 37t-153.5 12q-117 0 -171.5 -23.5t-54.5 -58.5z" />
    <glyph glyph-name="T" unicode="T" horiz-adv-x="2520" 
d="M2380 2440q33 0 56.5 -23.5t23.5 -56.5v-580q0 -33 -23.5 -56.5t-56.5 -23.5h-660v-1620q0 -33 -23.5 -56.5t-56.5 -23.5h-760q-33 0 -56.5 23.5t-23.5 56.5v1620h-660q-33 0 -56.5 23.5t-23.5 56.5v580q0 33 23.5 56.5t56.5 23.5h1500h740z" />
    <glyph glyph-name="U" unicode="U" horiz-adv-x="2840" 
d="M2640 2440q33 0 56.5 -23.5t23.5 -56.5v-1320q0 -218 -64.5 -396t-180 -304t-278.5 -212t-357.5 -127t-419.5 -41t-419.5 41t-357.5 127t-278.5 212t-180 304t-64.5 396v1320q0 33 23.5 56.5t56.5 23.5h760q33 0 56.5 -23.5t23.5 -56.5v-1120q0 -261 94.5 -400.5
t285.5 -139.5t285.5 139.5t94.5 400.5v1120q0 33 23.5 56.5t56.5 23.5h760z" />
    <glyph glyph-name="V" unicode="V" horiz-adv-x="2868" 
d="M2780 2440q55 0 77 -31t-1 -85l-1004 -2248q-35 -76 -116 -76h-564q-81 0 -116 76l-1044 2248q-23 54 -1 85t77 31h776q81 0 112 -80l516 -1240l456 1240q31 80 116 80h716z" />
    <glyph glyph-name="W" unicode="W" horiz-adv-x="3794" 
d="M3709 2440q54 0 74 -30.5t2 -85.5l-716 -2248q-23 -76 -116 -76h-564q-93 0 -116 76l-376 1192l-376 -1192q-23 -76 -116 -76h-564q-93 0 -116 76l-716 2248q-18 55 2 85.5t74 30.5h764q92 0 112 -80l268 -1080l296 920q12 38 42.5 59t73.5 21h536q43 0 73.5 -21
t42.5 -59l272 -920l308 1080q24 80 112 80h724z" />
    <glyph glyph-name="X" unicode="X" horiz-adv-x="2940" 
d="M2836 120q36 -51 19.5 -85.5t-79.5 -34.5h-832q-72 0 -120 60l-398 533l-330 -533q-37 -60 -120 -60h-768q-63 0 -81.5 36.5t17.5 87.5l775 1147l-783 1049q-36 51 -19.5 85.5t79.5 34.5h832q72 0 120 -60l380 -509l348 509q44 60 120 60h772q62 0 79.5 -36.5
t-19.5 -87.5l-809 -1102z" />
    <glyph glyph-name="Y" unicode="Y" horiz-adv-x="2793" 
d="M2703 2440q55 0 78.5 -34t-2.5 -82l-912 -1573v-671q0 -33 -23.5 -56.5t-56.5 -23.5h-760q-33 0 -56.5 23.5t-23.5 56.5v676l-932 1568q-28 48 -4 82t80 34h796q68 0 112 -80l448 -840l404 840q16 35 46 57.5t70 22.5h736z" />
    <glyph glyph-name="Z" unicode="Z" horiz-adv-x="2630" 
d="M130 0q-48 0 -74 26t-26 74v192q0 70 44 124l1056 1284h-920q-33 0 -56.5 23.5t-23.5 56.5v580q0 33 23.5 56.5t56.5 23.5h2220q48 0 74 -26t26 -74v-192q0 -74 -40 -124l-1040 -1284h1020q33 0 56.5 -23.5t23.5 -56.5v-580q0 -33 -23.5 -56.5t-56.5 -23.5h-2340z" />
    <glyph glyph-name="bracketleft" unicode="[" horiz-adv-x="1116" 
d="M986 2300h-446v-2680h446q48 0 74 -26t26 -74v-160q0 -48 -26 -74t-74 -26h-736h-50q-33 0 -56.5 23.5t-23.5 56.5v3240q0 33 23.5 56.5t56.5 23.5h260h526q48 0 74 -26t26 -74v-160q0 -48 -26 -74t-74 -26z" />
    <glyph glyph-name="backslash" unicode="\" horiz-adv-x="1613" 
d="M388 2664l1217 -2610q14 -30 3 -61.5t-42 -45.5l-236 -110q-28 -14 -60 -2.5t-46 41.5l-1217 2610q-14 30 -2.5 61.5t41.5 45.5l235 110q31 14 62 2.5t45 -41.5z" />
    <glyph glyph-name="bracketright" unicode="]" horiz-adv-x="1116" 
d="M916 2660q33 0 56.5 -23.5t23.5 -56.5v-3240q0 -33 -23.5 -56.5t-56.5 -23.5h-260h-526q-48 0 -74 26t-26 74v160q0 48 26 74t74 26h446v2680h-446q-48 0 -74 26t-26 74v160q0 48 26 74t74 26h736h50z" />
    <glyph glyph-name="asciicircum" unicode="^" horiz-adv-x="1732" 
d="M1712 1919q37 -56 9 -107.5t-95 -51.5h-389q-41 0 -61 35l-310 537l-310 -537q-20 -35 -61 -35h-389q-67 0 -95 51.5t9 107.5l555 849q20 32 59 32h464q39 0 59 -32z" />
    <glyph glyph-name="underscore" unicode="_" horiz-adv-x="1816" 
d="M100 -580q-48 0 -74 26t-26 74v380q0 48 26 74t74 26h1616q48 0 74 -26t26 -74v-380q0 -48 -26 -74t-74 -26h-1616z" />
    <glyph glyph-name="grave" unicode="`" horiz-adv-x="1148" 
d="M952 2096l-828 300q-42 15 -55.5 53t7.5 83l152 320q18 40 55.5 54t76.5 -6l760 -436q37 -22 53 -61t-1 -79l-84 -180q-18 -36 -54.5 -49.5t-81.5 1.5z" />
    <glyph glyph-name="a" unicode="a" horiz-adv-x="2159" 
d="M2100 200q35 -103 -64 -128l-520 -132q-84 -21 -132 32q-94 97 -149 210q-103 -113 -245.5 -177.5t-316.5 -64.5q-121 0 -223 32.5t-173 88t-120.5 128.5t-73 154t-23.5 166q0 96 28 184.5t86 169.5t148 141t214.5 100t284.5 46t359 -22q0 115 -66.5 163.5t-229.5 48.5
q-110 0 -199 -18.5t-209 -57.5q-93 -31 -132 52l-160 340q-13 27 -14.5 48.5t8.5 37t22 25.5t32 21q144 81 390 136.5t489 55.5q452 0 680.5 -209.5t228.5 -614.5v-496q0 -148 18 -239.5t62 -220.5zM952 480q87 0 157.5 71t70.5 173q-124 32 -204 24t-118 -43t-38 -93
q0 -56 35.5 -94t96.5 -38z" />
    <glyph glyph-name="b" unicode="b" horiz-adv-x="2440" 
d="M1500 1980q207 0 371.5 -76.5t270.5 -213.5t162 -322.5t56 -407.5t-56 -407.5t-162 -322.5t-270.5 -213.5t-371.5 -76.5q-329 0 -500 259v-119q0 -80 -80 -80h-720q-80 0 -80 80v2400q0 80 80 80h720q80 0 80 -80v-759q171 259 500 259zM980 960q0 -165 66.5 -252.5
t173.5 -87.5t173.5 87.5t66.5 252.5t-66.5 252.5t-173.5 87.5t-173.5 -87.5t-66.5 -252.5z" />
    <glyph glyph-name="c" unicode="c" horiz-adv-x="2164" 
d="M2034 524q48 -23 57.5 -56.5t-13.5 -79.5q-22 -48 -67.5 -102.5t-125.5 -117.5t-178.5 -112.5t-237.5 -82.5t-291 -33q-172 0 -332.5 40.5t-300 124.5t-243 203t-163 287t-59.5 365t59.5 365t163 287t243 203t300 124.5t332.5 40.5q152 0 291 -33t237 -82.5t178.5 -112.5
t125.5 -117.5t68 -102.5q23 -46 13.5 -79.5t-57.5 -56.5l-486 -240q-27 -13 -47.5 -15.5t-37 7.5t-26 20.5t-25.5 31.5q-37 50 -76 75t-108 25q-121 0 -184.5 -85.5t-63.5 -254.5t63.5 -254.5t184.5 -85.5q69 0 108 25t76 75q16 22 25.5 32t26 20t37 7.5t47.5 -15.5z" />
    <glyph glyph-name="d" unicode="d" horiz-adv-x="2440" 
d="M2240 2560q80 0 80 -80v-2400q0 -80 -80 -80h-720q-80 0 -80 80v119q-171 -259 -500 -259q-207 0 -371.5 76.5t-270.5 213.5t-162 322.5t-56 407.5t56 407.5t162 322.5t270.5 213.5t371.5 76.5q329 0 500 -259v759q0 80 80 80h720zM1220 620q107 0 173.5 87.5t66.5 252.5
t-66.5 252.5t-173.5 87.5t-173.5 -87.5t-66.5 -252.5t66.5 -252.5t173.5 -87.5z" />
    <glyph glyph-name="e" unicode="e" horiz-adv-x="2320" 
d="M2040 496q51 -25 59.5 -60.5t-15.5 -75.5q-36 -74 -119.5 -148t-199 -135t-270 -99t-315.5 -38q-185 0 -349.5 40.5t-302 124.5t-237.5 203.5t-155.5 286.5t-55.5 365t57.5 365t160.5 286.5t243.5 203.5t307 124.5t351.5 40.5q171 0 323.5 -41t284.5 -129.5t227.5 -217.5
t150 -316.5t54.5 -415.5h-1348q15 -84 49 -145t78 -93.5t89 -47t92 -14.5q95 0 157 25.5t105 84.5q18 24 30 36t27.5 19.5t34 4.5t44.5 -16zM1184 1440q-96 0 -167.5 -55.5t-106.5 -164.5h516q-63 220 -242 220z" />
    <glyph glyph-name="f" unicode="f" horiz-adv-x="1802" 
d="M1385 2120q-77 0 -120.5 -45t-52.5 -155h434q48 0 74 -26t26 -74v-460q0 -48 -26 -74t-74 -26h-436v-1160q0 -48 -26 -74t-74 -26h-680q-48 0 -74 26t-26 74v1160h-180q-48 0 -74 26t-26 74v460q0 48 26 74t74 26h180v60q0 183 61.5 329t170.5 239.5t256 142.5t321 49
q206 0 379 -59.5t284 -136.5q17 -12 26.5 -21t17.5 -25t5 -38.5t-17 -51.5l-138 -287q-40 -86 -136 -44q-101 43 -175 43z" />
    <glyph glyph-name="g" unicode="g" horiz-adv-x="2372" 
d="M2266 2140q66 0 66 -59v-507q0 -56 -54 -56q-97 0 -169 -47q13 -53 13 -113q0 -131 -67.5 -245t-189.5 -197.5t-302.5 -131.5t-396.5 -48h-264q-70 0 -101 -20t-31 -60t31 -60t101 -20h536q403 0 627.5 -160t224.5 -434q0 -107 -33.5 -200.5t-111 -177.5t-195 -144
t-296.5 -95t-404 -35q-509 0 -774.5 144.5t-265.5 399.5q0 157 115 269q-109 67 -172 168.5t-63 224.5q0 139 81 252t229 179q-190 164 -190 391q0 131 67.5 245t189.5 197.5t302.5 131.5t396.5 48q327 0 566 -107q94 129 231 198t303 69zM1166 1212q94 0 151 39.5t57 106.5
t-57 106.5t-151 39.5t-151 -39.5t-57 -106.5t57 -106.5t151 -39.5zM1530 -90q0 58 -70 84t-210 26t-210 -26t-70 -84t70 -84t210 -26t210 26t70 84z" />
    <glyph glyph-name="h" unicode="h" 
d="M1656 1960q325 0 474.5 -173.5t149.5 -510.5v-1196q0 -80 -80 -80h-720q-80 0 -80 80v920q0 140 -42.5 200t-129.5 60q-103 0 -165.5 -77.5t-62.5 -222.5v-880q0 -80 -80 -80h-720q-80 0 -80 80v2400q0 80 80 80h720q80 0 80 -80v-840q89 146 255 233t401 87z" />
    <glyph glyph-name="i" unicode="i" horiz-adv-x="1120" 
d="M560 2048q-183 0 -311.5 128.5t-128.5 311.5t128.5 311.5t311.5 128.5t311.5 -128.5t128.5 -311.5t-128.5 -311.5t-311.5 -128.5zM120 1840q0 80 80 80h720q80 0 80 -80v-1760q0 -80 -80 -80h-720q-80 0 -80 80v1760z" />
    <glyph glyph-name="j" unicode="j" horiz-adv-x="1123" 
d="M560 2048q-183 0 -311.5 128.5t-128.5 311.5t128.5 311.5t311.5 128.5t311.5 -128.5t128.5 -311.5t-128.5 -311.5t-311.5 -128.5zM923 1920q80 0 80 -80v-1600q0 -163 -29.5 -292t-102 -241.5t-188 -187t-293 -117t-411.5 -42.5q-36 0 -60 24t-24 60v454q0 60 72 80
q29 8 47.5 16t41.5 28t36 49t22 79.5t9 119.5v1570q0 80 80 80h720z" />
    <glyph glyph-name="k" unicode="k" horiz-adv-x="2464" 
d="M120 2480q0 80 80 80h720q80 0 80 -80v-2400q0 -80 -80 -80h-720q-80 0 -80 80v2400zM1576 0q-90 0 -120 68l-416 932l376 852q15 32 47.5 50t72.5 18h720q58 0 74 -36.5t-10 -83.5l-404 -780l471 -900q29 -55 11 -87.5t-78 -32.5h-744z" />
    <glyph glyph-name="l" unicode="l" horiz-adv-x="1120" 
d="M120 2480q0 80 80 80h720q80 0 80 -80v-2400q0 -80 -80 -80h-720q-80 0 -80 80v2400z" />
    <glyph glyph-name="m" unicode="m" horiz-adv-x="3600" 
d="M2872 1960q314 0 461 -183.5t147 -540.5v-1136q0 -48 -26 -74t-74 -26h-680q-48 0 -74 26t-26 74v900q0 140 -39.5 200t-120.5 60q-89 0 -144.5 -80t-55.5 -240v-840q0 -48 -26 -74t-74 -26h-680q-48 0 -74 26t-26 74v900q0 140 -39.5 200t-120.5 60q-89 0 -144.5 -80
t-55.5 -240v-860q0 -80 -80 -80h-720q-80 0 -80 80v1760q0 80 80 80h720q80 0 80 -80v-200q110 151 268 235.5t360 84.5q449 0 568 -382q244 382 676 382z" />
    <glyph glyph-name="n" unicode="n" 
d="M1656 1960q325 0 474.5 -173.5t149.5 -510.5v-1196q0 -80 -80 -80h-720q-80 0 -80 80v920q0 140 -42.5 200t-129.5 60q-103 0 -165.5 -77.5t-62.5 -222.5v-880q0 -80 -80 -80h-720q-80 0 -80 80v1760q0 80 80 80h720q80 0 80 -80v-200q89 146 255 233t401 87z" />
    <glyph glyph-name="o" unicode="o" horiz-adv-x="2440" 
d="M1220 1980q185 0 353.5 -40.5t312 -124.5t249 -203.5t165.5 -286.5t60 -365t-60 -365t-165.5 -286.5t-249 -203.5t-312 -124.5t-353.5 -40.5t-353.5 40.5t-312 124.5t-249 203.5t-165.5 286.5t-60 365t60 365t165.5 286.5t249 203.5t312 124.5t353.5 40.5zM1220 620
q107 0 173.5 87.5t66.5 252.5t-66.5 252.5t-173.5 87.5t-173.5 -87.5t-66.5 -252.5t66.5 -252.5t173.5 -87.5z" />
    <glyph glyph-name="p" unicode="p" horiz-adv-x="2440" 
d="M1500 1980q207 0 371.5 -76.5t270.5 -213.5t162 -322.5t56 -407.5t-56 -407.5t-162 -322.5t-270.5 -213.5t-371.5 -76.5q-329 0 -500 259v-759q0 -80 -80 -80h-720q-80 0 -80 80v2400q0 80 80 80h720q80 0 80 -80v-119q171 259 500 259zM980 960q0 -165 66.5 -252.5
t173.5 -87.5t173.5 87.5t66.5 252.5t-66.5 252.5t-173.5 87.5t-173.5 -87.5t-66.5 -252.5z" />
    <glyph glyph-name="q" unicode="q" horiz-adv-x="2440" 
d="M2240 1921q80 0 80 -80v-2400q0 -80 -80 -80h-720q-80 0 -80 80v759q-171 -259 -500 -259q-207 0 -371.5 76.5t-270.5 213.5t-162 322.5t-56 407.5t56 407.5t162 322.5t270.5 213.5t371.5 76.5q329 0 500 -259v119q0 80 80 80h720zM1220 621q107 0 173.5 87.5t66.5 252.5
t-66.5 252.5t-173.5 87.5t-173.5 -87.5t-66.5 -252.5t66.5 -252.5t173.5 -87.5z" />
    <glyph glyph-name="r" unicode="r" horiz-adv-x="1560" 
d="M1411 1952q89 0 89 -80v-740q0 -20 -5.5 -34t-17 -22t-22 -12t-27.5 -8q-35 -8 -55 -13.5t-59 -18t-64.5 -24.5t-61.5 -32.5t-60 -43t-50 -56t-41.5 -71t-26 -87t-10.5 -106.5v-524q0 -80 -80 -80h-720q-80 0 -80 80v1760q0 80 80 80h720q80 0 80 -80v-280
q26 92 75.5 168.5t107 124t117 73.5t111.5 26z" />
    <glyph glyph-name="s" unicode="s" horiz-adv-x="2057" 
d="M1033 1393q0 -24 26.5 -44.5t71.5 -36t105.5 -34.5t128.5 -38t140 -48.5t140 -63t128.5 -84.5t105.5 -111t71.5 -143.5t26.5 -181.5q0 -166 -74.5 -294.5t-208.5 -209.5t-313 -122.5t-396 -41.5q-258 0 -497.5 52t-346.5 120q-47 30 -57.5 62t9.5 70l156 336
q13 28 29.5 44.5t34.5 19.5t35 0t37 -12q148 -67 256.5 -97.5t239.5 -30.5q156 0 156 59q0 25 -31 46.5t-83 40t-120 38t-143 45.5t-150 58.5t-143 82t-120 110t-83 148t-31 192.5q0 201 110 349.5t314 227.5t478 79q243 0 473 -57t345 -135q45 -30 56 -57.5t-8 -74.5
l-132 -288q-45 -98 -132 -52q-46 24 -75.5 37.5t-96.5 40t-141.5 40.5t-150.5 14q-140 0 -140 -55z" />
    <glyph glyph-name="t" unicode="t" horiz-adv-x="1928" 
d="M1886 272q36 -85 -40 -132q-170 -100 -338 -150t-398 -50q-220 0 -396.5 81.5t-280 237.5t-103.5 361v640h-180q-48 0 -74 26t-26 74v460q0 48 26 74t74 26h180v220q0 90 100 120l668 196q48 14 80 -3t32 -63v-470h476q48 0 74 -26t26 -74v-460q0 -48 -26 -74t-74 -26
h-476v-400q0 -260 180 -260q93 0 200 60q95 50 136 -44z" />
    <glyph glyph-name="u" unicode="u" 
d="M2200 1920q80 0 80 -80v-1760q0 -80 -80 -80h-720q-80 0 -80 80v200q-89 -146 -255 -233t-401 -87q-325 0 -474.5 173.5t-149.5 510.5v1196q0 80 80 80h720q80 0 80 -80v-920q0 -140 42.5 -200t129.5 -60q103 0 165.5 77.5t62.5 222.5v880q0 80 80 80h720z" />
    <glyph glyph-name="v" unicode="v" horiz-adv-x="2482" 
d="M2357 1920q70 0 106 -53.5t6 -114.5l-816 -1676q-36 -76 -116 -76h-592q-80 0 -116 76l-816 1676q-30 61 6 114.5t106 53.5h772q30 0 52.5 -16.5t31.5 -43.5l280 -800l280 800q9 27 31.5 43.5t52.5 16.5h732z" />
    <glyph glyph-name="w" unicode="w" horiz-adv-x="3332" 
d="M3210 1920q68 0 102 -51.5t10 -116.5l-620 -1672q-31 -80 -112 -80h-472q-84 0 -114 76l-338 836l-336 -836q-29 -76 -116 -76h-472q-81 0 -112 80l-620 1672q-24 65 10 116.5t102 51.5h708q33 0 55.5 -16.5t28.5 -43.5l204 -716l188 572q24 76 120 76h480q96 0 120 -76
l188 -572l204 716q6 27 28.5 43.5t55.5 16.5h708z" />
    <glyph glyph-name="x" unicode="x" horiz-adv-x="2462" 
d="M1717 968l644 -843q38 -47 20 -86t-81 -39h-812q-74 0 -119 60l-206 279l-187 -275q-43 -64 -120 -64h-708q-62 0 -80.5 37t19.5 87l631 818l-633 858q-37 50 -21 85t80 35h772q73 0 120 -60l217 -284l194 280q44 64 121 64h748q62 0 80.5 -37t-20.5 -87z" />
    <glyph glyph-name="y" unicode="y" horiz-adv-x="2402" 
d="M2278 1920q69 0 105 -52t6 -116l-679 -1426q-90 -190 -170.5 -325.5t-176.5 -248.5t-198.5 -183.5t-236 -119.5t-289.5 -69t-358 -20q-36 0 -60 24t-24 60v454q0 71 72 80q172 22 275 84t207 219l-737 1471q-31 62 5.5 115t106.5 53h752q59 0 85 -60l261 -608l258 608
q25 60 84 60h712z" />
    <glyph glyph-name="z" unicode="z" horiz-adv-x="2210" 
d="M130 0q-48 0 -74 26t-26 74v52q0 69 40 124l716 964h-536q-33 0 -56.5 23.5t-23.5 56.5v520q0 33 23.5 56.5t56.5 23.5h1760q48 0 74 -26t26 -74v-52q0 -67 -40 -124l-760 -1004h700q33 0 56.5 -23.5t23.5 -56.5v-480q0 -33 -23.5 -56.5t-56.5 -23.5h-1880z" />
    <glyph glyph-name="braceleft" unicode="{" horiz-adv-x="955" 
d="M859 2329q-97 -25 -135.5 -92.5t-38.5 -172.5q0 -72 45.5 -309t45.5 -335q0 -200 -80 -309.5t-236 -150.5q156 -41 236 -150.5t80 -309.5q0 -98 -45.5 -335t-45.5 -309q0 -105 38.5 -172.5t135.5 -92.5q30 -8 48 -27.5t18 -48.5v-172q0 -36 -24 -59.5t-60 -22.5
q-117 5 -205.5 22.5t-167 56.5t-127.5 101t-77.5 158.5t-28.5 226.5q0 121 45.5 345.5t45.5 293.5q0 156 -61 236t-177 113q-58 17 -58 73v146q0 56 58 73q116 33 177 113t61 236q0 69 -45.5 293.5t-45.5 345.5q0 130 28 227t78 160t127.5 102.5t167 56t205.5 19.5
q36 1 60 -22.5t24 -59.5v-172q0 -29 -18 -48.5t-48 -27.5z" />
    <glyph glyph-name="bar" unicode="|" horiz-adv-x="660" 
d="M120 2860q0 33 23.5 56.5t56.5 23.5h260q33 0 56.5 -23.5t23.5 -56.5v-3280q0 -33 -23.5 -56.5t-56.5 -23.5h-260q-33 0 -56.5 23.5t-23.5 56.5v3280z" />
    <glyph glyph-name="braceright" unicode="}" horiz-adv-x="955" 
d="M867 1106q58 -17 58 -73v-146q0 -56 -58 -73q-116 -33 -177 -113t-61 -236q0 -69 45.5 -293.5t45.5 -345.5q0 -130 -28.5 -226.5t-77.5 -158.5t-127.5 -101t-167 -56.5t-205.5 -22.5q-36 -1 -60 22.5t-24 59.5v172q0 29 18 48.5t48 27.5q97 25 135.5 92.5t38.5 172.5
q0 72 -45.5 309t-45.5 335q0 200 80 309.5t236 150.5q-156 41 -236 150.5t-80 309.5q0 98 45.5 335t45.5 309q0 105 -38.5 172.5t-135.5 92.5q-30 8 -48 27.5t-18 48.5v172q0 36 24 59.5t60 22.5q116 -3 205.5 -19.5t167 -56t127.5 -102.5t78 -160t28 -227
q0 -121 -45.5 -345.5t-45.5 -293.5q0 -156 61 -236t177 -113z" />
    <glyph glyph-name="asciitilde" unicode="~" horiz-adv-x="2336" 
d="M2138 1359q23 -13 32.5 -36.5t2.5 -49.5q-39 -139 -107 -246t-150 -170t-170 -95t-178 -32q-111 0 -208 22.5t-167.5 55t-135.5 65t-139 55t-150 22.5q-172 0 -299 -160q-21 -26 -49 -32.5t-56 8.5l-166 95q-23 13 -32.5 36.5t-2.5 49.5q39 139 107 246t150 170t170 95
t178 32q111 0 208 -22.5t167.5 -55t135.5 -65t139 -55t150 -22.5q172 0 299 160q21 26 49 32.5t56 -8.5z" />
    <glyph glyph-name="exclamdown" unicode="&#xa1;" horiz-adv-x="1120" 
d="M560 1980q174 0 297 -122.5t123 -297.5t-123 -297.5t-297 -122.5q-175 0 -297.5 122.5t-122.5 297.5t122.5 297.5t297.5 122.5zM120 -420l100 1380q6 80 80 80h520q74 0 80 -80l100 -1380q3 -38 -18.5 -59t-61.5 -21h-720q-40 0 -61.5 21t-18.5 59z" />
    <glyph glyph-name="cent" unicode="&#xa2;" horiz-adv-x="2164" 
d="M2034 524q48 -23 57.5 -56.5t-13.5 -79.5q-18 -38 -50.5 -81t-88 -93.5t-123 -95t-160.5 -85t-196 -63.5v-390q0 -33 -23.5 -56.5t-56.5 -23.5h-460q-33 0 -56.5 23.5t-23.5 56.5v403q-162 43 -298 125t-240.5 202t-163 286.5t-58.5 363.5t58.5 363.5t163 286.5
t240.5 202t298 125v423q0 33 23.5 56.5t56.5 23.5h460q33 0 56.5 -23.5t23.5 -56.5v-410q103 -23 196 -63.5t160.5 -85t122.5 -95t88 -93.5t51 -81q23 -46 13.5 -79.5t-57.5 -56.5l-486 -240q-27 -13 -47.5 -15.5t-37 7.5t-26 20.5t-25.5 31.5q-37 50 -76 75t-108 25
q-121 0 -184.5 -85.5t-63.5 -254.5t63.5 -254.5t184.5 -85.5q69 0 108 25t76 75q16 22 25.5 32t26 20t37 7.5t47.5 -15.5z" />
    <glyph glyph-name="sterling" unicode="&#xa3;" horiz-adv-x="2345" 
d="M1382 1810q-129 0 -197.5 -55t-68.5 -167q0 -75 12 -168h380q35 0 58.5 -23.5t23.5 -58.5v-256q0 -35 -23.5 -58.5t-58.5 -23.5h-348q-15 -102 -72 -199.5t-172 -200.5q104 30 203.5 40.5t182 4.5t163.5 -19t161.5 -27t160.5 -22.5t176 -2.5t194 30q49 12 84 -13.5
t35 -73.5v-456q0 -27 -19 -48.5t-51 -28.5q-146 -30 -300 -36.5t-287.5 5.5t-269.5 30.5t-265 35.5t-253 24t-254 -8t-249 -56q-32 -12 -62 -0.5t-42 42.5l-113 306q-13 35 5 66q118 194 164 339t41 268h-209q-35 0 -58.5 23.5t-23.5 58.5v256q0 35 23.5 58.5t58.5 23.5h116
q-32 140 -32 271q0 247 118 429.5t340 281t523 98.5q331 0 609.5 -112t477.5 -300q29 -28 41.5 -48.5t8 -48t-31.5 -59.5l-248 -298q-18 -21 -32.5 -34.5t-32.5 -23t-37 -7.5t-38 16q-52 38 -65 47t-62.5 42.5t-71.5 44.5t-68.5 34t-79.5 32t-77.5 17t-87.5 8z" />
    <glyph glyph-name="currency" unicode="&#xa4;" horiz-adv-x="3074" 
d="M2908 211q35 -24 39 -63t-27 -70l-280 -280q-30 -30 -69.5 -26.5t-63.5 38.5l-262 379q-312 -229 -708 -229t-708 229l-262 -379q-24 -35 -63.5 -38.5t-69.5 26.5l-280 280q-31 31 -27 70t39 63l386 265q-196 292 -196 644t196 644l-386 265q-35 24 -39 63t27 70l280 280
q30 30 69.5 26.5t63.5 -38.5l262 -379q312 229 708 229t708 -229l262 379q24 35 63.5 38.5t69.5 -26.5l280 -280q31 -31 27 -70t-39 -63l-386 -265q196 -292 196 -644t-196 -644zM1537 600q214 0 357 145t143 375t-143 375t-357 145t-357 -145t-143 -375t143 -375t357 -145z
" />
    <glyph glyph-name="yen" unicode="&#xa5;" horiz-adv-x="2793" 
d="M2703 2440q55 0 78.5 -34t-2.5 -82l-628 -1084h133q48 0 74 -26t26 -74v-200q0 -48 -26 -74t-74 -26h-365l-52 -89v-11h417q48 0 74 -26t26 -74v-200q0 -48 -26 -74t-74 -26h-417v-260q0 -33 -23.5 -56.5t-56.5 -23.5h-760q-33 0 -56.5 23.5t-23.5 56.5v260h-439
q-48 0 -74 26t-26 74v200q0 48 26 74t74 26h439v16l-50 84h-389q-48 0 -74 26t-26 74v200q0 48 26 74t74 26h151l-644 1084q-28 48 -4 82t80 34h796q68 0 112 -80l448 -840l404 840q16 35 46 57.5t70 22.5h736z" />
    <glyph glyph-name="brokenbar" unicode="&#xa6;" horiz-adv-x="660" 
d="M120 2860q0 33 23.5 56.5t56.5 23.5h260q33 0 56.5 -23.5t23.5 -56.5v-1080q0 -33 -23.5 -56.5t-56.5 -23.5h-260q-33 0 -56.5 23.5t-23.5 56.5v1080zM120 660q0 33 23.5 56.5t56.5 23.5h260q33 0 56.5 -23.5t23.5 -56.5v-1080q0 -33 -23.5 -56.5t-56.5 -23.5h-260
q-33 0 -56.5 23.5t-23.5 56.5v1080z" />
    <glyph glyph-name="section" unicode="&#xa7;" horiz-adv-x="2528" 
d="M2296 310q132 -161 132 -390q0 -255 -153.5 -447t-420 -292.5t-606.5 -100.5q-484 0 -780 211t-367 612q-7 40 18 68.5t66 28.5h540q28 0 48 -17t28 -46q77 -297 447 -297q112 0 210 25.5t164 79.5t66 127q0 89 -145 163q-87 44 -338 127q-310 103 -463 175
q-369 174 -502 429q-182 349 41 890q-133 155 -133 384q0 238 137.5 419.5t392 281t590.5 99.5q479 0 776 -203.5t369 -578.5q8 -41 -17 -69.5t-67 -28.5h-541q-27 0 -46 16t-27 43q-22 71 -66 122.5t-104 81t-128.5 43.5t-148.5 14q-168 0 -274 -61t-106 -171
q0 -87 142 -152q86 -39 337 -108q311 -86 466 -151q374 -155 509 -407q188 -348 -46 -920zM807 1357q-7 -79 6 -146.5t47 -122t77 -99t108 -83t126 -68t145.5 -60t153 -53t162 -53.5t158.5 -55q3 73 -11 138t-38.5 116t-67 97t-86.5 80.5t-108 68t-119 56.5t-132.5 50
t-137 45t-143 44t-140.5 45z" />
    <glyph glyph-name="dieresis" unicode="&#xa8;" horiz-adv-x="1920" 
d="M489 2127q-151 0 -256.5 105.5t-105.5 256.5t105.5 256.5t256.5 105.5q150 0 256 -105.5t106 -256.5t-106 -256.5t-256 -105.5zM1429 2127q-151 0 -256.5 105.5t-105.5 256.5t105.5 256.5t256.5 105.5q150 0 256 -105.5t106 -256.5t-106 -256.5t-256 -105.5z" />
    <glyph glyph-name="copyright" unicode="&#xa9;" horiz-adv-x="2680" 
d="M1340 2460q169 0 330 -44.5t297 -124.5t250 -194.5t194 -250.5t124.5 -296.5t44.5 -329.5q0 -253 -98 -482.5t-264 -395.5t-395.5 -264t-482.5 -98t-482.5 98t-395.5 264t-264 395.5t-98 482.5q0 169 44.5 329.5t124.5 296.5t194 250.5t250 194.5t297 124.5t330 44.5z
M1340 223q202 0 386 79t317 212.5t211.5 318t78.5 387.5q0 163 -50 315t-142 275t-214 215t-273.5 142.5t-313.5 50.5t-313.5 -50.5t-273.5 -142.5t-214 -215t-142 -275t-50 -315q0 -203 78.5 -387.5t211.5 -318t317 -212.5t386 -79zM1373 1510q-112 0 -180 -80.5
t-68 -210.5t67.5 -210t180.5 -80q63 0 117 33t89 87q31 44 73 24l306 -145q50 -24 24 -73q-57 -106 -157.5 -181t-215 -109t-236.5 -34q-161 0 -301 47.5t-242.5 134.5t-161.5 217.5t-59 288.5t59 289t161.5 218t242.5 134.5t301 47.5q188 0 356.5 -83.5t252.5 -240.5
q13 -24 6 -43t-30 -30l-306 -145q-42 -21 -73 23q-36 55 -89.5 88t-116.5 33z" />
    <glyph glyph-name="guillemotleft" unicode="&#xab;" horiz-adv-x="2146" 
d="M877 1654q58 43 113.5 15t55.5 -100v-258q0 -30 -34 -60l-346 -306l346 -306q34 -30 34 -60v-258q0 -72 -55.5 -100t-113.5 15l-689 513q-28 22 -28 56v280q0 34 28 56zM1986 1311q0 -30 -34 -60l-346 -306l346 -306q34 -30 34 -60v-258q0 -72 -55.5 -100t-113.5 15
l-689 513q-28 22 -28 56v280q0 34 28 56l689 513q58 43 113.5 15t55.5 -100v-258z" />
    <glyph glyph-name="logicalnot" unicode="&#xac;" horiz-adv-x="2236" 
d="M1976 1400q48 0 74 -26t26 -74v-380v-440q0 -80 -80 -80h-420q-80 0 -80 80v340h-1236q-48 0 -74 26t-26 74v380q0 48 26 74t74 26h1716z" />
    <glyph glyph-name="registered" unicode="&#xae;" horiz-adv-x="2680" 
d="M1340 2460q169 0 330 -44.5t297 -124.5t250 -194.5t194 -250.5t124.5 -296.5t44.5 -329.5q0 -253 -98 -482.5t-264 -395.5t-395.5 -264t-482.5 -98t-482.5 98t-395.5 264t-264 395.5t-98 482.5q0 169 44.5 329.5t124.5 296.5t194 250.5t250 194.5t297 124.5t330 44.5z
M1340 223q202 0 386 79t317 212.5t211.5 318t78.5 387.5q0 163 -50 315t-142 275t-214 215t-273.5 142.5t-313.5 50.5t-313.5 -50.5t-273.5 -142.5t-214 -215t-142 -275t-50 -315q0 -203 78.5 -387.5t211.5 -318t317 -212.5t386 -79zM1813 1051l199 -391q19 -37 1 -67
t-59 -30h-389q-30 0 -43 28l-166 351h-110v-336q0 -18 -12.5 -30.5t-30.5 -12.5h-408q-18 0 -30.5 12.5t-12.5 30.5v1226q0 18 12.5 30.5t30.5 12.5h408h226q263 0 411.5 -131t148.5 -335q0 -109 -45 -202t-131 -156zM1246 1520v-223h86q151 0 151 112q0 111 -151 111h-86z
" />
    <glyph glyph-name="macron" unicode="&#xaf;" horiz-adv-x="1440" 
d="M0 2556q0 42 29 71t71 29h1240q42 0 71 -29t29 -71v-276q0 -42 -29 -71t-71 -29h-1240q-42 0 -71 29t-29 71v276z" />
    <glyph glyph-name="degree" unicode="&#xb0;" horiz-adv-x="1220" 
d="M610 1456q-160 0 -300.5 76.5t-225 211t-84.5 292.5q0 159 84.5 294.5t225 213.5t300.5 78t300.5 -78t225 -213.5t84.5 -294.5q0 -158 -84.5 -292.5t-225 -211t-300.5 -76.5zM610 1882q65 0 108 45.5t43 108.5q0 65 -43 112t-108 47t-107.5 -47t-42.5 -112
q0 -64 42.5 -109t107.5 -45z" />
    <glyph glyph-name="plusminus" unicode="&#xb1;" horiz-adv-x="2236" 
d="M1976 1928q48 0 74 -26t26 -74v-380q0 -48 -26 -74t-74 -26h-568v-568q0 -48 -26 -74t-74 -26h-380q-48 0 -74 26t-26 74v568h-568q-48 0 -74 26t-26 74v380q0 48 26 74t74 26h568v568q0 48 26 74t74 26h380q48 0 74 -26t26 -74v-568h568zM1976 580q48 0 74 -26t26 -74
v-380q0 -48 -26 -74t-74 -26h-1716q-48 0 -74 26t-26 74v380q0 48 26 74t74 26h1716z" />
    <glyph glyph-name="acute" unicode="&#xb4;" horiz-adv-x="1148" 
d="M196 2096q-45 -15 -81.5 -1.5t-54.5 49.5l-84 180q-17 40 -1 79t53 61l760 436q39 20 76.5 6t55.5 -54l152 -320q21 -45 7.5 -83t-55.5 -53z" />
    <glyph glyph-name="paragraph" unicode="&#xb6;" horiz-adv-x="2210" 
d="M2010 2440q33 0 56.5 -23.5t23.5 -56.5v-2780q0 -33 -23.5 -56.5t-56.5 -23.5h-60q-33 0 -56.5 23.5t-23.5 56.5v2640h-880v-2640q0 -33 -23.5 -56.5t-56.5 -23.5h-60q-33 0 -56.5 23.5t-23.5 56.5v1364q-139 15 -263 79.5t-213.5 162.5t-141.5 229.5t-52 274.5
q0 153 59.5 291.5t160 239t239 160t291.5 59.5h1100h60z" />
    <glyph glyph-name="periodcentered" unicode="&#xb7;" horiz-adv-x="1120" 
d="M560 520q-183 0 -311.5 128.5t-128.5 311.5t128.5 311.5t311.5 128.5t311.5 -128.5t128.5 -311.5t-128.5 -311.5t-311.5 -128.5z" />
    <glyph glyph-name="cedilla" unicode="&#xb8;" 
d="M348 -880q-93 0 -165 16.5t-147 55.5q-76 47 -48 132l16 52q30 94 132 56q70 -32 132 -32q66 0 109 33.5t43 94.5q0 32 -11.5 54.5t-34.5 34.5t-46.5 19t-60.5 7t-62 -1.5t-65 -5.5q-70 -6 -95 17.5t-1 78.5l136 308h360l-84 -160q211 24 337.5 -67t126.5 -273
q0 -138 -76.5 -234t-203 -141t-292.5 -45z" />
    <glyph glyph-name="guillemotright" unicode="&#xbb;" horiz-adv-x="2146" 
d="M1018 1141q28 -22 28 -56v-280q0 -34 -28 -56l-689 -513q-58 -43 -113.5 -15t-55.5 100v258q0 30 34 60l346 306l-346 306q-34 30 -34 60v258q0 72 55.5 100t113.5 -15zM1958 1141q28 -22 28 -56v-280q0 -34 -28 -56l-689 -513q-58 -43 -113.5 -15t-55.5 100v258
q0 30 34 60l346 306l-346 306q-34 30 -34 60v258q0 72 55.5 100t113.5 -15z" />
    <glyph glyph-name="onequarter" unicode="&#xbc;" horiz-adv-x="3984" 
d="M2358 2592q14 30 45 41.5t62 -2.5l217 -102q29 -14 40.5 -45t-2.5 -61l-1217 -2610q-14 -30 -45.5 -41.5t-59.5 2.5l-218 101q-31 15 -42 46t3 61zM1178 2397q22 0 37 -15t15 -37v-1499q0 -22 -15 -37.5t-37 -15.5h-500q-22 0 -37.5 15.5t-15.5 37.5v1035l-220 -98
q-20 -10 -40.5 -2.5t-29.5 28.5l-149 321q-10 22 -2 42.5t31 30.5l426 179q34 15 78 15h459zM3889 684q65 0 65 -66v-237q0 -65 -65 -65h-171v-263q0 -22 -15 -37.5t-37 -15.5h-434q-22 0 -37.5 15.5t-15.5 37.5v263h-780q-66 0 -66 65v157q0 16 9 26l780 1003q29 37 78 37
h466q22 0 37 -15t15 -37v-868h171zM2902 684h277v357z" />
    <glyph glyph-name="onehalf" unicode="&#xbd;" horiz-adv-x="4023" 
d="M2682 2529q29 -14 40.5 -45t-2.5 -61l-1217 -2610q-14 -30 -45.5 -41.5t-59.5 2.5l-218 101q-31 15 -42 46t3 61l1217 2610q14 30 45 41.5t62 -2.5zM1230 846q0 -22 -15 -37.5t-37 -15.5h-500q-22 0 -37.5 15.5t-15.5 37.5v1035l-220 -98q-20 -10 -40.5 -2.5t-29.5 28.5
l-149 321q-10 22 -2 42.5t31 30.5l426 179q34 15 78 15h459q22 0 37 -15t15 -37v-1499zM3940 414q22 0 37.5 -15.5t15.5 -37.5v-315q0 -22 -15.5 -37.5t-37.5 -15.5h-1282q-65 0 -65 66v126q0 61 29 82q182 127 318 237t214 188.5t125.5 147t63 112.5t15.5 85
q0 75 -39.5 110.5t-122.5 35.5q-39 0 -80 -10t-67.5 -20.5t-69.5 -37t-58.5 -37t-60.5 -43.5q-13 -9 -25.5 -10.5t-24 4.5t-21.5 15t-21 23l-164 196q-25 35 -21 55.5t33 47.5q132 124 315 197.5t400 73.5q298 0 465 -142.5t167 -389.5q0 -190 -119.5 -365.5t-369.5 -325.5
h466z" />
    <glyph glyph-name="threequarters" unicode="&#xbe;" horiz-adv-x="4254" 
d="M2558 2592q14 30 45 41.5t62 -2.5l217 -102q29 -14 40.5 -45t-2.5 -61l-1217 -2610q-14 -30 -45.5 -41.5t-59.5 2.5l-218 101q-31 15 -42 46t3 61zM1260 1623q285 -130 285 -389q0 -150 -94 -260t-255.5 -165t-370.5 -55q-444 0 -712 270q-20 20 -27.5 32.5t-5 30.5
t20.5 40l163 196q11 14 20.5 22t21 15t24.5 5.5t26 -10.5q56 -38 86.5 -57t80.5 -44.5t100.5 -36t108.5 -10.5q88 0 141.5 26t53.5 75q0 40 -40 69.5t-100.5 44t-135.5 17.5q-23 1 -37.5 15.5t-14.5 36.5v213q0 22 14.5 37t38.5 17q112 8 174 43.5t62 94.5q0 43 -40 65
t-111 22q-70 0 -144 -25t-113.5 -48t-97.5 -62q-13 -9 -25 -10.5t-23.5 4.5t-21 15t-22.5 24l-153 182q-18 23 -20.5 41t5.5 30.5t27 31.5q124 123 314 197t413 74q281 0 445.5 -116t164.5 -324q0 -242 -226 -374zM4089 684q65 0 65 -66v-237q0 -65 -65 -65h-171v-263
q0 -22 -15 -37.5t-37 -15.5h-434q-22 0 -37.5 15.5t-15.5 37.5v263h-780q-66 0 -66 65v157q0 16 9 26l780 1003q29 37 78 37h466q22 0 37 -15t15 -37v-868h171zM3102 684h277v357z" />
    <glyph glyph-name="questiondown" unicode="&#xbf;" horiz-adv-x="1866" 
d="M896 1980q174 0 296.5 -122.5t122.5 -296.5t-122.5 -296.5t-296.5 -122.5q-175 0 -297 122.5t-122 296.5t122 296.5t297 122.5zM890 261q0 -161 219 -161q54 0 101.5 9t89.5 29t66.5 33.5t63.5 40.5t48 33q24 15 41 18t42 -12t57 -55l228 -288q16 -21 20 -38.5
t-6.5 -34.5t-22.5 -28.5t-35 -30.5q-94 -76 -187 -132.5t-208.5 -105t-253 -73.5t-292.5 -25q-144 0 -270.5 23t-235.5 72.5t-187.5 122t-123 177.5t-44.5 234q0 95 27.5 176t72.5 140t100 111.5t113 102.5t108.5 100.5t89.5 117.5t53 143q3 18 6 28t11 24t24 20.5t39 6.5
h507q41 0 57 -24t16 -80q0 -84 -34.5 -167.5t-83.5 -149t-98 -125.5t-83.5 -120.5t-34.5 -111.5z" />
    <glyph glyph-name="Agrave" unicode="&#xc0;" horiz-adv-x="2884" 
d="M798 2916q-42 15 -55.5 53t7.5 83l152 320q18 40 55.5 54t76.5 -6l760 -436q37 -22 53 -61t-1 -79l-84 -180q-18 -36 -54.5 -49.5t-81.5 1.5zM2874 116q21 -53 0 -84.5t-76 -31.5h-784q-81 0 -112 80l-93 260h-791l-88 -260q-31 -80 -116 -80h-728q-55 0 -76 31.5t0 84.5
l920 2248q29 76 116 76h804q87 0 116 -76zM1206 900h403l-207 580z" />
    <glyph glyph-name="Aacute" unicode="&#xc1;" horiz-adv-x="2884" 
d="M1094 2664l-84 180q-17 40 -1 79t53 61l760 436q39 20 76.5 6t55.5 -54l152 -320q21 -45 7.5 -83t-55.5 -53l-828 -300q-45 -15 -81.5 -1.5t-54.5 49.5zM2874 116q21 -53 0 -84.5t-76 -31.5h-784q-81 0 -112 80l-93 260h-791l-88 -260q-31 -80 -116 -80h-728
q-55 0 -76 31.5t0 84.5l920 2248q29 76 116 76h804q87 0 116 -76zM1206 900h403l-207 580z" />
    <glyph glyph-name="Acircumflex" unicode="&#xc2;" horiz-adv-x="2884" 
d="M838 2640q-66 0 -81.5 36.5t29.5 87.5l424 464q52 52 124 52h256q72 0 124 -52l424 -464q45 -51 29.5 -87.5t-81.5 -36.5h-384q-77 0 -120 68l-120 200l-120 -200q-43 -68 -120 -68h-384zM2874 116q21 -53 0 -84.5t-76 -31.5h-784q-81 0 -112 80l-93 260h-791l-88 -260
q-31 -80 -116 -80h-728q-55 0 -76 31.5t0 84.5l920 2248q29 76 116 76h804q87 0 116 -76zM1206 900h403l-207 580z" />
    <glyph glyph-name="Atilde" unicode="&#xc3;" horiz-adv-x="2884" 
d="M786 2636q-49 0 -76 27t-24 77q12 138 56.5 249t112.5 182.5t154.5 110t184.5 38.5q85 0 155 -21.5t115 -52t85 -61t85.5 -52t95.5 -21.5q69 0 117.5 33t70.5 87q20 46 43 67t65 21h112q50 0 77.5 -42.5t18.5 -117.5q-35 -257 -172 -390.5t-332 -133.5q-85 0 -155 21.5
t-115 52t-85 61t-85.5 52t-95.5 21.5q-66 0 -116 -34.5t-72 -85.5q-20 -46 -43 -67t-65 -21h-112zM2874 116q21 -53 0 -84.5t-76 -31.5h-784q-81 0 -112 80l-93 260h-791l-88 -260q-31 -80 -116 -80h-728q-55 0 -76 31.5t0 84.5l920 2248q29 76 116 76h804q87 0 116 -76z
M1206 900h403l-207 580z" />
    <glyph glyph-name="Adieresis" unicode="&#xc4;" horiz-adv-x="2884" 
d="M991 2647q-151 0 -256.5 105.5t-105.5 256.5t105.5 256.5t256.5 105.5q150 0 256 -105.5t106 -256.5t-106 -256.5t-256 -105.5zM1931 2647q-151 0 -256.5 105.5t-105.5 256.5t105.5 256.5t256.5 105.5q150 0 256 -105.5t106 -256.5t-106 -256.5t-256 -105.5zM2874 116
q21 -53 0 -84.5t-76 -31.5h-784q-81 0 -112 80l-93 260h-791l-88 -260q-31 -80 -116 -80h-728q-55 0 -76 31.5t0 84.5l920 2248q29 76 116 76h804q87 0 116 -76zM1206 900h403l-207 580z" />
    <glyph glyph-name="Aring" unicode="&#xc5;" horiz-adv-x="2848" 
d="M2874 116q21 -53 0 -84.5t-76 -31.5h-784q-81 0 -112 80l-93 260h-791l-88 -260q-31 -80 -116 -80h-728q-55 0 -76 31.5t0 84.5l904 2208q-120 154 -120 342q0 159 84.5 294.5t225 213.5t300.5 78t300.5 -78t225 -213.5t84.5 -294.5q0 -141 -69 -265q13 -17 21 -37z
M1404 2850q-75 0 -124.5 -54.5t-49.5 -129.5q0 -74 49.5 -126.5t124.5 -52.5t124.5 52.5t49.5 126.5q0 75 -49.5 129.5t-124.5 54.5zM1206 900h403l-207 580z" />
    <glyph glyph-name="AE" unicode="&#xc6;" horiz-adv-x="3836" 
d="M3636 700q80 0 80 -80v-540q0 -80 -80 -80h-1456h-509q-33 0 -56.5 23.5t-23.5 56.5v260h-575l-122 -260q-37 -80 -130 -80h-728q-54 0 -69 30t13 86l1157 2248q40 76 129 76h426h739h1165q80 0 80 -80v-540q0 -80 -80 -80h-1085v-200h925q80 0 80 -80v-460
q0 -80 -80 -80h-925v-220h1125zM1278 900h313v669z" />
    <glyph glyph-name="Ccedilla" unicode="&#xc7;" horiz-adv-x="2747" 
d="M2608 678q43 -21 55 -56t-11 -80q-91 -171 -245 -299t-331.5 -198.5t-374.5 -93.5l-37 -71q211 24 337.5 -67t126.5 -273q0 -138 -76.5 -234t-203 -141t-292.5 -45q-93 0 -165 16.5t-147 55.5q-76 47 -48 132l16 52q30 94 132 56q70 -32 132 -32q66 0 109 33.5t43 94.5
q0 32 -11.5 54.5t-34.5 34.5t-46.5 19t-60.5 7t-62 -1.5t-65 -5.5q-70 -6 -95 17.5t-1 78.5l95 216q-214 19 -404 85t-344 177.5t-265.5 259.5t-172.5 340t-61 410q0 236 70.5 440t199 357t304.5 262.5t391.5 165t454.5 55.5q168 0 332.5 -37t315.5 -109.5t277.5 -189.5
t206.5 -266q23 -45 11 -80t-55 -56l-568 -270q-79 -38 -136 44q-66 101 -166 162.5t-218 61.5q-209 0 -334.5 -149t-125.5 -391t125.5 -391t334.5 -149q118 0 218 61.5t166 162.5q57 82 136 44z" />
    <glyph glyph-name="Egrave" unicode="&#xc8;" horiz-adv-x="2325" 
d="M553 2916q-42 15 -55.5 53t7.5 83l152 320q18 40 55.5 54t76.5 -6l760 -436q37 -22 53 -61t-1 -79l-84 -180q-18 -36 -54.5 -49.5t-81.5 1.5zM2165 700q80 0 80 -80v-540q0 -80 -80 -80h-1456h-509q-33 0 -56.5 23.5t-23.5 56.5v2280q0 33 23.5 56.5t56.5 23.5h760h1165
q80 0 80 -80v-540q0 -80 -80 -80h-1085v-200h925q80 0 80 -80v-460q0 -80 -80 -80h-925v-220h1125z" />
    <glyph glyph-name="Eacute" unicode="&#xc9;" horiz-adv-x="2325" 
d="M849 2664l-84 180q-17 40 -1 79t53 61l760 436q39 20 76.5 6t55.5 -54l152 -320q21 -45 7.5 -83t-55.5 -53l-828 -300q-45 -15 -81.5 -1.5t-54.5 49.5zM2165 700q80 0 80 -80v-540q0 -80 -80 -80h-1456h-509q-33 0 -56.5 23.5t-23.5 56.5v2280q0 33 23.5 56.5t56.5 23.5
h760h1165q80 0 80 -80v-540q0 -80 -80 -80h-1085v-200h925q80 0 80 -80v-460q0 -80 -80 -80h-925v-220h1125z" />
    <glyph glyph-name="Ecircumflex" unicode="&#xca;" horiz-adv-x="2325" 
d="M593 2640q-66 0 -81.5 36.5t29.5 87.5l424 464q52 52 124 52h256q72 0 124 -52l424 -464q45 -51 29.5 -87.5t-81.5 -36.5h-384q-77 0 -120 68l-120 200l-120 -200q-43 -68 -120 -68h-384zM2165 700q80 0 80 -80v-540q0 -80 -80 -80h-1456h-509q-33 0 -56.5 23.5
t-23.5 56.5v2280q0 33 23.5 56.5t56.5 23.5h760h1165q80 0 80 -80v-540q0 -80 -80 -80h-1085v-200h925q80 0 80 -80v-460q0 -80 -80 -80h-925v-220h1125z" />
    <glyph glyph-name="Edieresis" unicode="&#xcb;" horiz-adv-x="2325" 
d="M746 2647q-151 0 -256.5 105.5t-105.5 256.5t105.5 256.5t256.5 105.5q150 0 256 -105.5t106 -256.5t-106 -256.5t-256 -105.5zM1686 2647q-151 0 -256.5 105.5t-105.5 256.5t105.5 256.5t256.5 105.5q150 0 256 -105.5t106 -256.5t-106 -256.5t-256 -105.5zM2165 700
q80 0 80 -80v-540q0 -80 -80 -80h-1456h-509q-33 0 -56.5 23.5t-23.5 56.5v2280q0 33 23.5 56.5t56.5 23.5h760h1165q80 0 80 -80v-540q0 -80 -80 -80h-1085v-200h925q80 0 80 -80v-460q0 -80 -80 -80h-925v-220h1125z" />
    <glyph glyph-name="Igrave" unicode="&#xcc;" horiz-adv-x="1160" 
d="M744 2616l-828 300q-42 15 -55.5 53t7.5 83l152 320q18 40 55.5 54t76.5 -6l760 -436q37 -22 53 -61t-1 -79l-84 -180q-18 -36 -54.5 -49.5t-81.5 1.5zM120 2360q0 33 23.5 56.5t56.5 23.5h760q33 0 56.5 -23.5t23.5 -56.5v-2280q0 -33 -23.5 -56.5t-56.5 -23.5h-760
q-33 0 -56.5 23.5t-23.5 56.5v2280z" />
    <glyph glyph-name="Iacute" unicode="&#xcd;" horiz-adv-x="1160" 
d="M348 2616q-45 -15 -81.5 -1.5t-54.5 49.5l-84 180q-17 40 -1 79t53 61l760 436q39 20 76.5 6t55.5 -54l152 -320q21 -45 7.5 -83t-55.5 -53zM120 2360q0 33 23.5 56.5t56.5 23.5h760q33 0 56.5 -23.5t23.5 -56.5v-2280q0 -33 -23.5 -56.5t-56.5 -23.5h-760
q-33 0 -56.5 23.5t-23.5 56.5v2280z" />
    <glyph glyph-name="Icircumflex" unicode="&#xce;" horiz-adv-x="1160" 
d="M700 2708l-120 200l-120 -200q-43 -68 -120 -68h-384q-66 0 -81.5 36.5t29.5 87.5l424 464q52 52 124 52h256q72 0 124 -52l424 -464q45 -51 29.5 -87.5t-81.5 -36.5h-384q-77 0 -120 68zM120 2360q0 33 23.5 56.5t56.5 23.5h760q33 0 56.5 -23.5t23.5 -56.5v-2280
q0 -33 -23.5 -56.5t-56.5 -23.5h-760q-33 0 -56.5 23.5t-23.5 56.5v2280z" />
    <glyph glyph-name="Idieresis" unicode="&#xcf;" horiz-adv-x="1160" 
d="M109 2647q-151 0 -256.5 105.5t-105.5 256.5t105.5 256.5t256.5 105.5q150 0 256 -105.5t106 -256.5t-106 -256.5t-256 -105.5zM1049 2647q-151 0 -256.5 105.5t-105.5 256.5t105.5 256.5t256.5 105.5q150 0 256 -105.5t106 -256.5t-106 -256.5t-256 -105.5zM120 2360
q0 33 23.5 56.5t56.5 23.5h760q33 0 56.5 -23.5t23.5 -56.5v-2280q0 -33 -23.5 -56.5t-56.5 -23.5h-760q-33 0 -56.5 23.5t-23.5 56.5v2280z" />
    <glyph glyph-name="Eth" unicode="&#xd0;" horiz-adv-x="2820" 
d="M1320 2440q234 0 445 -51.5t385 -154t301.5 -247.5t198 -341.5t70.5 -425.5t-70.5 -425.5t-198 -341.5t-301.5 -247.5t-385 -154t-445 -51.5h-780h-340q-33 0 -56.5 23.5t-23.5 56.5v872h-168q-48 0 -74 26t-26 74v300q0 48 26 74t74 26h168v908q0 33 23.5 56.5
t56.5 23.5h760h360zM1280 700q213 0 346.5 141.5t133.5 378.5t-133.5 378.5t-346.5 141.5h-240v-288h288q48 0 74 -26t26 -74v-300q0 -48 -26 -74t-74 -26h-288v-252h240z" />
    <glyph glyph-name="Ntilde" unicode="&#xd1;" horiz-adv-x="2880" 
d="M804 2636q-49 0 -76 27t-24 77q12 138 56.5 249t112.5 182.5t154.5 110t184.5 38.5q85 0 155 -21.5t115 -52t85 -61t85.5 -52t95.5 -21.5q69 0 117.5 33t70.5 87q20 46 43 67t65 21h112q50 0 77.5 -42.5t18.5 -117.5q-35 -257 -172 -390.5t-332 -133.5q-85 0 -155 21.5
t-115 52t-85 61t-85.5 52t-95.5 21.5q-66 0 -116 -34.5t-72 -85.5q-20 -46 -43 -67t-65 -21h-112zM2660 2440q48 0 74 -26t26 -74v-2240q0 -48 -26 -74t-74 -26h-272q-74 0 -124 40l-1224 940v-880q0 -48 -26 -74t-74 -26h-720q-48 0 -74 26t-26 74v2240q0 48 26 74t74 26
h272q74 0 124 -40l1224 -948v888q0 48 26 74t74 26h720z" />
    <glyph glyph-name="Ograve" unicode="&#xd2;" horiz-adv-x="3040" 
d="M1684 2616l-828 300q-42 15 -55.5 53t7.5 83l152 320q18 40 55.5 54t76.5 -6l760 -436q37 -22 53 -61t-1 -79l-84 -180q-18 -36 -54.5 -49.5t-81.5 1.5zM1520 2500q239 0 454.5 -55.5t391.5 -165t304.5 -262.5t199 -357t70.5 -440t-70.5 -440t-199 -357t-304.5 -262.5
t-391.5 -165t-454.5 -55.5t-454.5 55.5t-391.5 165t-304.5 262.5t-199 357t-70.5 440t70.5 440t199 357t304.5 262.5t391.5 165t454.5 55.5zM1520 680q209 0 334.5 149t125.5 391t-125.5 391t-334.5 149t-334.5 -149t-125.5 -391t125.5 -391t334.5 -149z" />
    <glyph glyph-name="Oacute" unicode="&#xd3;" horiz-adv-x="3040" 
d="M1288 2616q-45 -15 -81.5 -1.5t-54.5 49.5l-84 180q-17 40 -1 79t53 61l760 436q39 20 76.5 6t55.5 -54l152 -320q21 -45 7.5 -83t-55.5 -53zM1520 2500q239 0 454.5 -55.5t391.5 -165t304.5 -262.5t199 -357t70.5 -440t-70.5 -440t-199 -357t-304.5 -262.5t-391.5 -165
t-454.5 -55.5t-454.5 55.5t-391.5 165t-304.5 262.5t-199 357t-70.5 440t70.5 440t199 357t304.5 262.5t391.5 165t454.5 55.5zM1520 680q209 0 334.5 149t125.5 391t-125.5 391t-334.5 149t-334.5 -149t-125.5 -391t125.5 -391t334.5 -149z" />
    <glyph glyph-name="Ocircumflex" unicode="&#xd4;" horiz-adv-x="3040" 
d="M1640 2708l-120 200l-120 -200q-43 -68 -120 -68h-384q-66 0 -81.5 36.5t29.5 87.5l424 464q52 52 124 52h256q72 0 124 -52l424 -464q45 -51 29.5 -87.5t-81.5 -36.5h-384q-77 0 -120 68zM1520 2500q239 0 454.5 -55.5t391.5 -165t304.5 -262.5t199 -357t70.5 -440
t-70.5 -440t-199 -357t-304.5 -262.5t-391.5 -165t-454.5 -55.5t-454.5 55.5t-391.5 165t-304.5 262.5t-199 357t-70.5 440t70.5 440t199 357t304.5 262.5t391.5 165t454.5 55.5zM1520 680q209 0 334.5 149t125.5 391t-125.5 391t-334.5 149t-334.5 -149t-125.5 -391
t125.5 -391t334.5 -149z" />
    <glyph glyph-name="Otilde" unicode="&#xd5;" horiz-adv-x="3040" 
d="M844 2636q-49 0 -76 27t-24 77q12 138 56.5 249t112.5 182.5t154.5 110t184.5 38.5q85 0 155 -21.5t115 -52t85 -61t85.5 -52t95.5 -21.5q69 0 117.5 33t70.5 87q20 46 43 67t65 21h112q50 0 77.5 -42.5t18.5 -117.5q-35 -257 -172 -390.5t-332 -133.5q-85 0 -155 21.5
t-115 52t-85 61t-85.5 52t-95.5 21.5q-66 0 -116 -34.5t-72 -85.5q-20 -46 -43 -67t-65 -21h-112zM1520 2500q239 0 454.5 -55.5t391.5 -165t304.5 -262.5t199 -357t70.5 -440t-70.5 -440t-199 -357t-304.5 -262.5t-391.5 -165t-454.5 -55.5t-454.5 55.5t-391.5 165
t-304.5 262.5t-199 357t-70.5 440t70.5 440t199 357t304.5 262.5t391.5 165t454.5 55.5zM1520 680q209 0 334.5 149t125.5 391t-125.5 391t-334.5 149t-334.5 -149t-125.5 -391t125.5 -391t334.5 -149z" />
    <glyph glyph-name="Odieresis" unicode="&#xd6;" horiz-adv-x="3040" 
d="M1049 2647q-151 0 -256.5 105.5t-105.5 256.5t105.5 256.5t256.5 105.5q150 0 256 -105.5t106 -256.5t-106 -256.5t-256 -105.5zM1989 2647q-151 0 -256.5 105.5t-105.5 256.5t105.5 256.5t256.5 105.5q150 0 256 -105.5t106 -256.5t-106 -256.5t-256 -105.5zM1520 2500
q239 0 454.5 -55.5t391.5 -165t304.5 -262.5t199 -357t70.5 -440t-70.5 -440t-199 -357t-304.5 -262.5t-391.5 -165t-454.5 -55.5t-454.5 55.5t-391.5 165t-304.5 262.5t-199 357t-70.5 440t70.5 440t199 357t304.5 262.5t391.5 165t454.5 55.5zM1520 680q209 0 334.5 149
t125.5 391t-125.5 391t-334.5 149t-334.5 -149t-125.5 -391t125.5 -391t334.5 -149z" />
    <glyph glyph-name="multiply" unicode="&#xd7;" horiz-adv-x="2294" 
d="M1557 1060l543 -543q70 -71 0 -141l-269 -269q-34 -34 -71 -33.5t-71 34.5l-542 542l-543 -543q-34 -34 -70.5 -34t-70.5 34l-269 269q-70 70 0 141l543 543l-543 543q-70 71 0 141l269 269q34 34 70.5 34t70.5 -34l543 -543l543 543q71 71 141 1l269 -270q70 -70 0 -141
z" />
    <glyph glyph-name="Oslash" unicode="&#xd8;" horiz-adv-x="3040" 
d="M2637 2055q303 -336 303 -835q0 -236 -70.5 -440t-199 -357t-304.5 -262.5t-391.5 -165t-454.5 -55.5q-454 0 -803 195l-186 -186q-71 -71 -140 -1l-129 129q-70 69 1 140l153 153q-316 342 -316 850q0 236 70.5 440t199 357t304.5 262.5t391.5 165t454.5 55.5
q466 0 821 -205l196 196q71 71 140 1l129 -129q70 -69 -1 -140zM1060 1220q0 -94 22 -184l665 665q-101 59 -227 59q-209 0 -334.5 -149t-125.5 -391zM1520 680q209 0 334.5 149t125.5 391q0 84 -17 161l-652 -652q93 -49 209 -49z" />
    <glyph glyph-name="Ugrave" unicode="&#xd9;" horiz-adv-x="2840" 
d="M756 2916q-42 15 -55.5 53t7.5 83l152 320q18 40 55.5 54t76.5 -6l760 -436q37 -22 53 -61t-1 -79l-84 -180q-18 -36 -54.5 -49.5t-81.5 1.5zM2640 2440q33 0 56.5 -23.5t23.5 -56.5v-1320q0 -218 -64.5 -396t-180 -304t-278.5 -212t-357.5 -127t-419.5 -41t-419.5 41
t-357.5 127t-278.5 212t-180 304t-64.5 396v1320q0 33 23.5 56.5t56.5 23.5h760q33 0 56.5 -23.5t23.5 -56.5v-1120q0 -261 94.5 -400.5t285.5 -139.5t285.5 139.5t94.5 400.5v1120q0 33 23.5 56.5t56.5 23.5h760z" />
    <glyph glyph-name="Uacute" unicode="&#xda;" horiz-adv-x="2840" 
d="M1052 2664l-84 180q-17 40 -1 79t53 61l760 436q39 20 76.5 6t55.5 -54l152 -320q21 -45 7.5 -83t-55.5 -53l-828 -300q-45 -15 -81.5 -1.5t-54.5 49.5zM2640 2440q33 0 56.5 -23.5t23.5 -56.5v-1320q0 -218 -64.5 -396t-180 -304t-278.5 -212t-357.5 -127t-419.5 -41
t-419.5 41t-357.5 127t-278.5 212t-180 304t-64.5 396v1320q0 33 23.5 56.5t56.5 23.5h760q33 0 56.5 -23.5t23.5 -56.5v-1120q0 -261 94.5 -400.5t285.5 -139.5t285.5 139.5t94.5 400.5v1120q0 33 23.5 56.5t56.5 23.5h760z" />
    <glyph glyph-name="Ucircumflex" unicode="&#xdb;" horiz-adv-x="2840" 
d="M796 2640q-66 0 -81.5 36.5t29.5 87.5l424 464q52 52 124 52h256q72 0 124 -52l424 -464q45 -51 29.5 -87.5t-81.5 -36.5h-384q-77 0 -120 68l-120 200l-120 -200q-43 -68 -120 -68h-384zM2640 2440q33 0 56.5 -23.5t23.5 -56.5v-1320q0 -218 -64.5 -396t-180 -304
t-278.5 -212t-357.5 -127t-419.5 -41t-419.5 41t-357.5 127t-278.5 212t-180 304t-64.5 396v1320q0 33 23.5 56.5t56.5 23.5h760q33 0 56.5 -23.5t23.5 -56.5v-1120q0 -261 94.5 -400.5t285.5 -139.5t285.5 139.5t94.5 400.5v1120q0 33 23.5 56.5t56.5 23.5h760z" />
    <glyph glyph-name="Udieresis" unicode="&#xdc;" horiz-adv-x="2840" 
d="M949 2647q-151 0 -256.5 105.5t-105.5 256.5t105.5 256.5t256.5 105.5q150 0 256 -105.5t106 -256.5t-106 -256.5t-256 -105.5zM1889 2647q-151 0 -256.5 105.5t-105.5 256.5t105.5 256.5t256.5 105.5q150 0 256 -105.5t106 -256.5t-106 -256.5t-256 -105.5zM2640 2440
q33 0 56.5 -23.5t23.5 -56.5v-1320q0 -218 -64.5 -396t-180 -304t-278.5 -212t-357.5 -127t-419.5 -41t-419.5 41t-357.5 127t-278.5 212t-180 304t-64.5 396v1320q0 33 23.5 56.5t56.5 23.5h760q33 0 56.5 -23.5t23.5 -56.5v-1120q0 -261 94.5 -400.5t285.5 -139.5
t285.5 139.5t94.5 400.5v1120q0 33 23.5 56.5t56.5 23.5h760z" />
    <glyph glyph-name="Yacute" unicode="&#xdd;" horiz-adv-x="2793" 
d="M1039 2664l-84 180q-17 40 -1 79t53 61l760 436q39 20 76.5 6t55.5 -54l152 -320q21 -45 7.5 -83t-55.5 -53l-828 -300q-45 -15 -81.5 -1.5t-54.5 49.5zM2703 2440q55 0 78.5 -34t-2.5 -82l-912 -1573v-671q0 -33 -23.5 -56.5t-56.5 -23.5h-760q-33 0 -56.5 23.5
t-23.5 56.5v676l-932 1568q-28 48 -4 82t80 34h796q68 0 112 -80l448 -840l404 840q16 35 46 57.5t70 22.5h736z" />
    <glyph glyph-name="Thorn" unicode="&#xde;" horiz-adv-x="2470" 
d="M1400 2100q197 0 365.5 -44.5t291.5 -124.5t210 -190t130 -242t43 -279t-43 -279t-130 -242t-210 -190t-291.5 -124.5t-365.5 -44.5h-360v-260q0 -33 -23.5 -56.5t-56.5 -23.5h-760q-33 0 -56.5 23.5t-23.5 56.5v2280q0 33 23.5 56.5t56.5 23.5h760q33 0 56.5 -23.5
t23.5 -56.5v-260h360zM1240 1000q67 0 119 20t82 53t44.5 70.5t14.5 76.5t-14.5 76.5t-44.5 70.5t-82 53t-119 20h-200v-440h200z" />
    <glyph glyph-name="germandbls" unicode="&#xdf;" horiz-adv-x="2722" 
d="M2062 1476q0 -56 35.5 -103t91.5 -84t124.5 -76.5t137 -92.5t124.5 -119.5t91.5 -170t35.5 -231.5q0 -141 -43 -253.5t-116.5 -187.5t-176 -125t-217 -71.5t-244.5 -21.5q-225 0 -425.5 59t-294.5 133q-40 32 -48 63t8 69l129 336q36 94 113 52q166 -89 230 -114
q91 -34 173 -34q116 0 116 60q0 26 -23 50.5t-61.5 47t-88.5 47.5t-105.5 55.5t-111 66.5t-105.5 85.5t-88.5 107t-61.5 136.5t-23 169q0 93 25.5 174.5t55.5 130t55.5 115t25.5 133.5q0 109 -56.5 173.5t-141.5 64.5t-143.5 -66t-58.5 -194v-1780q0 -80 -80 -80h-720
q-80 0 -80 80v1800q0 271 134 466t377 294.5t572 99.5q196 0 358.5 -36.5t280 -102.5t198.5 -159t120.5 -206t39.5 -243q0 -94 -21.5 -179t-47.5 -135.5t-47.5 -105.5t-21.5 -97z" />
    <glyph glyph-name="agrave" unicode="&#xe0;" horiz-adv-x="2159" 
d="M420 2396q-42 15 -55.5 53t7.5 83l152 320q18 40 55.5 54t76.5 -6l760 -436q37 -22 53 -61t-1 -79l-84 -180q-18 -36 -54.5 -49.5t-81.5 1.5zM2100 200q35 -103 -64 -128l-520 -132q-84 -21 -132 32q-94 97 -149 210q-103 -113 -245.5 -177.5t-316.5 -64.5
q-121 0 -223 32.5t-173 88t-120.5 128.5t-73 154t-23.5 166q0 96 28 184.5t86 169.5t148 141t214.5 100t284.5 46t359 -22q0 115 -66.5 163.5t-229.5 48.5q-110 0 -199 -18.5t-209 -57.5q-93 -31 -132 52l-160 340q-13 27 -14.5 48.5t8.5 37t22 25.5t32 21q144 81 390 136.5
t489 55.5q452 0 680.5 -209.5t228.5 -614.5v-496q0 -148 18 -239.5t62 -220.5zM952 480q87 0 157.5 71t70.5 173q-124 32 -204 24t-118 -43t-38 -93q0 -56 35.5 -94t96.5 -38z" />
    <glyph glyph-name="aacute" unicode="&#xe1;" horiz-adv-x="2159" 
d="M716 2144l-84 180q-17 40 -1 79t53 61l760 436q39 20 76.5 6t55.5 -54l152 -320q21 -45 7.5 -83t-55.5 -53l-828 -300q-45 -15 -81.5 -1.5t-54.5 49.5zM2100 200q35 -103 -64 -128l-520 -132q-84 -21 -132 32q-94 97 -149 210q-103 -113 -245.5 -177.5t-316.5 -64.5
q-121 0 -223 32.5t-173 88t-120.5 128.5t-73 154t-23.5 166q0 96 28 184.5t86 169.5t148 141t214.5 100t284.5 46t359 -22q0 115 -66.5 163.5t-229.5 48.5q-110 0 -199 -18.5t-209 -57.5q-93 -31 -132 52l-160 340q-13 27 -14.5 48.5t8.5 37t22 25.5t32 21q144 81 390 136.5
t489 55.5q452 0 680.5 -209.5t228.5 -614.5v-496q0 -148 18 -239.5t62 -220.5zM952 480q87 0 157.5 71t70.5 173q-124 32 -204 24t-118 -43t-38 -93q0 -56 35.5 -94t96.5 -38z" />
    <glyph glyph-name="acircumflex" unicode="&#xe2;" horiz-adv-x="2159" 
d="M460 2120q-66 0 -81.5 36.5t29.5 87.5l424 464q52 52 124 52h256q72 0 124 -52l424 -464q45 -51 29.5 -87.5t-81.5 -36.5h-384q-77 0 -120 68l-120 200l-120 -200q-43 -68 -120 -68h-384zM2100 200q35 -103 -64 -128l-520 -132q-84 -21 -132 32q-94 97 -149 210
q-103 -113 -245.5 -177.5t-316.5 -64.5q-121 0 -223 32.5t-173 88t-120.5 128.5t-73 154t-23.5 166q0 96 28 184.5t86 169.5t148 141t214.5 100t284.5 46t359 -22q0 115 -66.5 163.5t-229.5 48.5q-110 0 -199 -18.5t-209 -57.5q-93 -31 -132 52l-160 340q-13 27 -14.5 48.5
t8.5 37t22 25.5t32 21q144 81 390 136.5t489 55.5q452 0 680.5 -209.5t228.5 -614.5v-496q0 -148 18 -239.5t62 -220.5zM952 480q87 0 157.5 71t70.5 173q-124 32 -204 24t-118 -43t-38 -93q0 -56 35.5 -94t96.5 -38z" />
    <glyph glyph-name="atilde" unicode="&#xe3;" horiz-adv-x="2159" 
d="M408 2116q-49 0 -76 27t-24 77q12 138 56.5 249t112.5 182.5t154.5 110t184.5 38.5q85 0 155 -21.5t115 -52t85 -61t85.5 -52t95.5 -21.5q69 0 117.5 33t70.5 87q20 46 43 67t65 21h112q50 0 77.5 -42.5t18.5 -117.5q-35 -257 -172 -390.5t-332 -133.5q-85 0 -155 21.5
t-115 52t-85 61t-85.5 52t-95.5 21.5q-66 0 -116 -34.5t-72 -85.5q-20 -46 -43 -67t-65 -21h-112zM2100 200q35 -103 -64 -128l-520 -132q-84 -21 -132 32q-94 97 -149 210q-103 -113 -245.5 -177.5t-316.5 -64.5q-121 0 -223 32.5t-173 88t-120.5 128.5t-73 154t-23.5 166
q0 96 28 184.5t86 169.5t148 141t214.5 100t284.5 46t359 -22q0 115 -66.5 163.5t-229.5 48.5q-110 0 -199 -18.5t-209 -57.5q-93 -31 -132 52l-160 340q-13 27 -14.5 48.5t8.5 37t22 25.5t32 21q144 81 390 136.5t489 55.5q452 0 680.5 -209.5t228.5 -614.5v-496
q0 -148 18 -239.5t62 -220.5zM952 480q87 0 157.5 71t70.5 173q-124 32 -204 24t-118 -43t-38 -93q0 -56 35.5 -94t96.5 -38z" />
    <glyph glyph-name="adieresis" unicode="&#xe4;" horiz-adv-x="2159" 
d="M613 2127q-151 0 -256.5 105.5t-105.5 256.5t105.5 256.5t256.5 105.5q150 0 256 -105.5t106 -256.5t-106 -256.5t-256 -105.5zM1553 2127q-151 0 -256.5 105.5t-105.5 256.5t105.5 256.5t256.5 105.5q150 0 256 -105.5t106 -256.5t-106 -256.5t-256 -105.5zM2100 200
q35 -103 -64 -128l-520 -132q-84 -21 -132 32q-94 97 -149 210q-103 -113 -245.5 -177.5t-316.5 -64.5q-121 0 -223 32.5t-173 88t-120.5 128.5t-73 154t-23.5 166q0 96 28 184.5t86 169.5t148 141t214.5 100t284.5 46t359 -22q0 115 -66.5 163.5t-229.5 48.5
q-110 0 -199 -18.5t-209 -57.5q-93 -31 -132 52l-160 340q-13 27 -14.5 48.5t8.5 37t22 25.5t32 21q144 81 390 136.5t489 55.5q452 0 680.5 -209.5t228.5 -614.5v-496q0 -148 18 -239.5t62 -220.5zM952 480q87 0 157.5 71t70.5 173q-124 32 -204 24t-118 -43t-38 -93
q0 -56 35.5 -94t96.5 -38z" />
    <glyph glyph-name="aring" unicode="&#xe5;" horiz-adv-x="2159" 
d="M1084 2056q-160 0 -300.5 76.5t-225 211t-84.5 292.5q0 159 84.5 294.5t225 213.5t300.5 78t300.5 -78t225 -213.5t84.5 -294.5q0 -158 -84.5 -292.5t-225 -211t-300.5 -76.5zM1084 2820q-75 0 -124.5 -54.5t-49.5 -129.5q0 -74 49.5 -126.5t124.5 -52.5t124.5 52.5
t49.5 126.5q0 75 -49.5 129.5t-124.5 54.5zM2100 200q35 -103 -64 -128l-520 -132q-84 -21 -132 32q-94 97 -149 210q-103 -113 -245.5 -177.5t-316.5 -64.5q-121 0 -223 32.5t-173 88t-120.5 128.5t-73 154t-23.5 166q0 96 28 184.5t86 169.5t148 141t214.5 100t284.5 46
t359 -22q0 115 -66.5 163.5t-229.5 48.5q-110 0 -199 -18.5t-209 -57.5q-93 -31 -132 52l-160 340q-13 27 -14.5 48.5t8.5 37t22 25.5t32 21q144 81 390 136.5t489 55.5q452 0 680.5 -209.5t228.5 -614.5v-496q0 -148 18 -239.5t62 -220.5zM952 480q87 0 157.5 71t70.5 173
q-124 32 -204 24t-118 -43t-38 -93q0 -56 35.5 -94t96.5 -38z" />
    <glyph glyph-name="ae" unicode="&#xe6;" horiz-adv-x="3418" 
d="M3138 496q51 -25 59.5 -60.5t-15.5 -75.5q-36 -74 -119.5 -148t-199 -135t-270 -99t-315.5 -38q-274 0 -502 90.5t-376 264.5q-114 -162 -304 -258.5t-433 -96.5q-121 0 -220 32.5t-165.5 87.5t-112 129t-65.5 154t-20 166q0 96 26.5 184.5t82 169.5t143 141t210 100
t281 45.5t357.5 -21.5q0 114 -71 163t-235 49q-76 0 -148 -11t-119 -24.5t-131 -40.5q-93 -31 -132 52l-160 340q-13 27 -14.5 48.5t8.5 37t22 25.5t32 21q144 81 390 136.5t489 55.5q336 0 522 -168q281 168 665 168q171 0 323.5 -41t284.5 -129.5t227.5 -217.5t150 -316.5
t54.5 -415.5h-1348q15 -84 49 -145t78 -93.5t89 -47t92 -14.5q95 0 157 25.5t105 84.5q18 24 30 36t27.5 19.5t34 4.5t44.5 -16zM2282 1440q-96 0 -167.5 -55.5t-106.5 -164.5h516q-63 220 -242 220zM952 480q87 0 157.5 71t70.5 173q-124 32 -204 24t-118 -43t-38 -93
q0 -56 35.5 -94t96.5 -38z" />
    <glyph glyph-name="ccedilla" unicode="&#xe7;" horiz-adv-x="2164" 
d="M2034 524q48 -23 57.5 -56.5t-13.5 -79.5q-19 -41 -56.5 -88.5t-101.5 -102.5t-142 -102.5t-187 -86t-229 -55.5l-38 -73q211 24 337.5 -67t126.5 -273q0 -138 -76.5 -234t-203 -141t-292.5 -45q-93 0 -165 16.5t-147 55.5q-76 47 -48 132l16 52q30 94 132 56
q70 -32 132 -32q66 0 109 33.5t43 94.5q0 32 -11.5 54.5t-34.5 34.5t-46.5 19t-60.5 7t-62 -1.5t-65 -5.5q-70 -6 -95 17.5t-1 78.5l96 218q-152 19 -288.5 70t-254 137.5t-203 201.5t-134 269t-48.5 332q0 197 59.5 365t163 287t243 203t300 124.5t332.5 40.5
q152 0 291 -33t237 -82.5t178.5 -112.5t125.5 -117.5t68 -102.5q23 -46 13.5 -79.5t-57.5 -56.5l-486 -240q-27 -13 -47.5 -15.5t-37 7.5t-26 20.5t-25.5 31.5q-37 50 -76 75t-108 25q-121 0 -184.5 -85.5t-63.5 -254.5t63.5 -254.5t184.5 -85.5q69 0 108 25t76 75
q16 22 25.5 32t26 20t37 7.5t47.5 -15.5z" />
    <glyph glyph-name="egrave" unicode="&#xe8;" horiz-adv-x="2320" 
d="M488 2396q-42 15 -55.5 53t7.5 83l152 320q18 40 55.5 54t76.5 -6l760 -436q37 -22 53 -61t-1 -79l-84 -180q-18 -36 -54.5 -49.5t-81.5 1.5zM2040 496q51 -25 59.5 -60.5t-15.5 -75.5q-36 -74 -119.5 -148t-199 -135t-270 -99t-315.5 -38q-185 0 -349.5 40.5t-302 124.5
t-237.5 203.5t-155.5 286.5t-55.5 365t57.5 365t160.5 286.5t243.5 203.5t307 124.5t351.5 40.5q171 0 323.5 -41t284.5 -129.5t227.5 -217.5t150 -316.5t54.5 -415.5h-1348q15 -84 49 -145t78 -93.5t89 -47t92 -14.5q95 0 157 25.5t105 84.5q18 24 30 36t27.5 19.5t34 4.5
t44.5 -16zM1184 1440q-96 0 -167.5 -55.5t-106.5 -164.5h516q-63 220 -242 220z" />
    <glyph glyph-name="eacute" unicode="&#xe9;" horiz-adv-x="2320" 
d="M784 2144l-84 180q-17 40 -1 79t53 61l760 436q39 20 76.5 6t55.5 -54l152 -320q21 -45 7.5 -83t-55.5 -53l-828 -300q-45 -15 -81.5 -1.5t-54.5 49.5zM2040 496q51 -25 59.5 -60.5t-15.5 -75.5q-36 -74 -119.5 -148t-199 -135t-270 -99t-315.5 -38q-185 0 -349.5 40.5
t-302 124.5t-237.5 203.5t-155.5 286.5t-55.5 365t57.5 365t160.5 286.5t243.5 203.5t307 124.5t351.5 40.5q171 0 323.5 -41t284.5 -129.5t227.5 -217.5t150 -316.5t54.5 -415.5h-1348q15 -84 49 -145t78 -93.5t89 -47t92 -14.5q95 0 157 25.5t105 84.5q18 24 30 36
t27.5 19.5t34 4.5t44.5 -16zM1184 1440q-96 0 -167.5 -55.5t-106.5 -164.5h516q-63 220 -242 220z" />
    <glyph glyph-name="ecircumflex" unicode="&#xea;" horiz-adv-x="2320" 
d="M528 2120q-66 0 -81.5 36.5t29.5 87.5l424 464q52 52 124 52h256q72 0 124 -52l424 -464q45 -51 29.5 -87.5t-81.5 -36.5h-384q-77 0 -120 68l-120 200l-120 -200q-43 -68 -120 -68h-384zM2040 496q51 -25 59.5 -60.5t-15.5 -75.5q-36 -74 -119.5 -148t-199 -135
t-270 -99t-315.5 -38q-185 0 -349.5 40.5t-302 124.5t-237.5 203.5t-155.5 286.5t-55.5 365t57.5 365t160.5 286.5t243.5 203.5t307 124.5t351.5 40.5q171 0 323.5 -41t284.5 -129.5t227.5 -217.5t150 -316.5t54.5 -415.5h-1348q15 -84 49 -145t78 -93.5t89 -47t92 -14.5
q95 0 157 25.5t105 84.5q18 24 30 36t27.5 19.5t34 4.5t44.5 -16zM1184 1440q-96 0 -167.5 -55.5t-106.5 -164.5h516q-63 220 -242 220z" />
    <glyph glyph-name="edieresis" unicode="&#xeb;" horiz-adv-x="2320" 
d="M681 2127q-151 0 -256.5 105.5t-105.5 256.5t105.5 256.5t256.5 105.5q150 0 256 -105.5t106 -256.5t-106 -256.5t-256 -105.5zM1621 2127q-151 0 -256.5 105.5t-105.5 256.5t105.5 256.5t256.5 105.5q150 0 256 -105.5t106 -256.5t-106 -256.5t-256 -105.5zM2040 496
q51 -25 59.5 -60.5t-15.5 -75.5q-36 -74 -119.5 -148t-199 -135t-270 -99t-315.5 -38q-185 0 -349.5 40.5t-302 124.5t-237.5 203.5t-155.5 286.5t-55.5 365t57.5 365t160.5 286.5t243.5 203.5t307 124.5t351.5 40.5q171 0 323.5 -41t284.5 -129.5t227.5 -217.5t150 -316.5
t54.5 -415.5h-1348q15 -84 49 -145t78 -93.5t89 -47t92 -14.5q95 0 157 25.5t105 84.5q18 24 30 36t27.5 19.5t34 4.5t44.5 -16zM1184 1440q-96 0 -167.5 -55.5t-106.5 -164.5h516q-63 220 -242 220z" />
    <glyph glyph-name="igrave" unicode="&#xec;" horiz-adv-x="1120" 
d="M724 2096l-828 300q-42 15 -55.5 53t7.5 83l152 320q18 40 55.5 54t76.5 -6l760 -436q37 -22 53 -61t-1 -79l-84 -180q-18 -36 -54.5 -49.5t-81.5 1.5zM120 1840q0 80 80 80h720q80 0 80 -80v-1760q0 -80 -80 -80h-720q-80 0 -80 80v1760z" />
    <glyph glyph-name="iacute" unicode="&#xed;" horiz-adv-x="1120" 
d="M328 2096q-45 -15 -81.5 -1.5t-54.5 49.5l-84 180q-17 40 -1 79t53 61l760 436q39 20 76.5 6t55.5 -54l152 -320q21 -45 7.5 -83t-55.5 -53zM120 1840q0 80 80 80h720q80 0 80 -80v-1760q0 -80 -80 -80h-720q-80 0 -80 80v1760z" />
    <glyph glyph-name="icircumflex" unicode="&#xee;" horiz-adv-x="1120" 
d="M680 2188l-120 200l-120 -200q-43 -68 -120 -68h-384q-66 0 -81.5 36.5t29.5 87.5l424 464q52 52 124 52h256q72 0 124 -52l424 -464q45 -51 29.5 -87.5t-81.5 -36.5h-384q-77 0 -120 68zM120 1840q0 80 80 80h720q80 0 80 -80v-1760q0 -80 -80 -80h-720q-80 0 -80 80
v1760z" />
    <glyph glyph-name="idieresis" unicode="&#xef;" horiz-adv-x="1120" 
d="M89 2127q-151 0 -256.5 105.5t-105.5 256.5t105.5 256.5t256.5 105.5q150 0 256 -105.5t106 -256.5t-106 -256.5t-256 -105.5zM1029 2127q-151 0 -256.5 105.5t-105.5 256.5t105.5 256.5t256.5 105.5q150 0 256 -105.5t106 -256.5t-106 -256.5t-256 -105.5zM120 1840
q0 80 80 80h720q80 0 80 -80v-1760q0 -80 -80 -80h-720q-80 0 -80 80v1760z" />
    <glyph glyph-name="eth" unicode="&#xf0;" horiz-adv-x="2315" 
d="M1210 2535q187 -85 341.5 -198t258.5 -230.5t184 -252.5t125.5 -255.5t74 -248.5t37.5 -223t9 -187q0 -193 -52.5 -355.5t-147.5 -280.5t-227 -200.5t-292 -123t-341 -40.5q-329 0 -578 108.5t-385.5 312.5t-136.5 479q0 204 77.5 374.5t212 285t317.5 177.5t393 63
q100 0 196 -27q-124 180 -342 318l-111 -202q-18 -34 -47 -42t-63 12l-103 60q-68 40 -30 109l105 191q-85 36 -148 58q-42 15 -57 51.5t4 73.5l148 313q26 54 102 37q113 -26 212 -57l94 172q39 70 109 29l104 -60q67 -38 29 -109zM1180 620q90 0 145 66.5t55 153.5
t-55 153.5t-145 66.5t-145 -66.5t-55 -153.5t55 -153.5t145 -66.5z" />
    <glyph glyph-name="ntilde" unicode="&#xf1;" 
d="M604 2116q-49 0 -76 27t-24 77q12 138 56.5 249t112.5 182.5t154.5 110t184.5 38.5q85 0 155 -21.5t115 -52t85 -61t85.5 -52t95.5 -21.5q69 0 117.5 33t70.5 87q20 46 43 67t65 21h112q50 0 77.5 -42.5t18.5 -117.5q-35 -257 -172 -390.5t-332 -133.5q-85 0 -155 21.5
t-115 52t-85 61t-85.5 52t-95.5 21.5q-66 0 -116 -34.5t-72 -85.5q-20 -46 -43 -67t-65 -21h-112zM1656 1960q325 0 474.5 -173.5t149.5 -510.5v-1196q0 -80 -80 -80h-720q-80 0 -80 80v920q0 140 -42.5 200t-129.5 60q-103 0 -165.5 -77.5t-62.5 -222.5v-880q0 -80 -80 -80
h-720q-80 0 -80 80v1760q0 80 80 80h720q80 0 80 -80v-200q89 146 255 233t401 87z" />
    <glyph glyph-name="ograve" unicode="&#xf2;" horiz-adv-x="2440" 
d="M1384 2096l-828 300q-42 15 -55.5 53t7.5 83l152 320q18 40 55.5 54t76.5 -6l760 -436q37 -22 53 -61t-1 -79l-84 -180q-18 -36 -54.5 -49.5t-81.5 1.5zM1220 1980q185 0 353.5 -40.5t312 -124.5t249 -203.5t165.5 -286.5t60 -365t-60 -365t-165.5 -286.5t-249 -203.5
t-312 -124.5t-353.5 -40.5t-353.5 40.5t-312 124.5t-249 203.5t-165.5 286.5t-60 365t60 365t165.5 286.5t249 203.5t312 124.5t353.5 40.5zM1220 620q107 0 173.5 87.5t66.5 252.5t-66.5 252.5t-173.5 87.5t-173.5 -87.5t-66.5 -252.5t66.5 -252.5t173.5 -87.5z" />
    <glyph glyph-name="oacute" unicode="&#xf3;" horiz-adv-x="2440" 
d="M988 2096q-45 -15 -81.5 -1.5t-54.5 49.5l-84 180q-17 40 -1 79t53 61l760 436q39 20 76.5 6t55.5 -54l152 -320q21 -45 7.5 -83t-55.5 -53zM1220 1980q185 0 353.5 -40.5t312 -124.5t249 -203.5t165.5 -286.5t60 -365t-60 -365t-165.5 -286.5t-249 -203.5t-312 -124.5
t-353.5 -40.5t-353.5 40.5t-312 124.5t-249 203.5t-165.5 286.5t-60 365t60 365t165.5 286.5t249 203.5t312 124.5t353.5 40.5zM1220 620q107 0 173.5 87.5t66.5 252.5t-66.5 252.5t-173.5 87.5t-173.5 -87.5t-66.5 -252.5t66.5 -252.5t173.5 -87.5z" />
    <glyph glyph-name="ocircumflex" unicode="&#xf4;" horiz-adv-x="2440" 
d="M1340 2188l-120 200l-120 -200q-43 -68 -120 -68h-384q-66 0 -81.5 36.5t29.5 87.5l424 464q52 52 124 52h256q72 0 124 -52l424 -464q45 -51 29.5 -87.5t-81.5 -36.5h-384q-77 0 -120 68zM1220 1980q185 0 353.5 -40.5t312 -124.5t249 -203.5t165.5 -286.5t60 -365
t-60 -365t-165.5 -286.5t-249 -203.5t-312 -124.5t-353.5 -40.5t-353.5 40.5t-312 124.5t-249 203.5t-165.5 286.5t-60 365t60 365t165.5 286.5t249 203.5t312 124.5t353.5 40.5zM1220 620q107 0 173.5 87.5t66.5 252.5t-66.5 252.5t-173.5 87.5t-173.5 -87.5t-66.5 -252.5
t66.5 -252.5t173.5 -87.5z" />
    <glyph glyph-name="otilde" unicode="&#xf5;" horiz-adv-x="2440" 
d="M544 2116q-49 0 -76 27t-24 77q12 138 56.5 249t112.5 182.5t154.5 110t184.5 38.5q85 0 155 -21.5t115 -52t85 -61t85.5 -52t95.5 -21.5q69 0 117.5 33t70.5 87q20 46 43 67t65 21h112q50 0 77.5 -42.5t18.5 -117.5q-35 -257 -172 -390.5t-332 -133.5q-85 0 -155 21.5
t-115 52t-85 61t-85.5 52t-95.5 21.5q-66 0 -116 -34.5t-72 -85.5q-20 -46 -43 -67t-65 -21h-112zM1220 1980q185 0 353.5 -40.5t312 -124.5t249 -203.5t165.5 -286.5t60 -365t-60 -365t-165.5 -286.5t-249 -203.5t-312 -124.5t-353.5 -40.5t-353.5 40.5t-312 124.5
t-249 203.5t-165.5 286.5t-60 365t60 365t165.5 286.5t249 203.5t312 124.5t353.5 40.5zM1220 620q107 0 173.5 87.5t66.5 252.5t-66.5 252.5t-173.5 87.5t-173.5 -87.5t-66.5 -252.5t66.5 -252.5t173.5 -87.5z" />
    <glyph glyph-name="odieresis" unicode="&#xf6;" horiz-adv-x="2440" 
d="M749 2127q-151 0 -256.5 105.5t-105.5 256.5t105.5 256.5t256.5 105.5q150 0 256 -105.5t106 -256.5t-106 -256.5t-256 -105.5zM1689 2127q-151 0 -256.5 105.5t-105.5 256.5t105.5 256.5t256.5 105.5q150 0 256 -105.5t106 -256.5t-106 -256.5t-256 -105.5zM1220 1980
q185 0 353.5 -40.5t312 -124.5t249 -203.5t165.5 -286.5t60 -365t-60 -365t-165.5 -286.5t-249 -203.5t-312 -124.5t-353.5 -40.5t-353.5 40.5t-312 124.5t-249 203.5t-165.5 286.5t-60 365t60 365t165.5 286.5t249 203.5t312 124.5t353.5 40.5zM1220 620q107 0 173.5 87.5
t66.5 252.5t-66.5 252.5t-173.5 87.5t-173.5 -87.5t-66.5 -252.5t66.5 -252.5t173.5 -87.5z" />
    <glyph glyph-name="divide" unicode="&#xf7;" horiz-adv-x="2236" 
d="M1118 1499q-136 0 -232 95.5t-96 232.5t95.5 233t232.5 96t232.5 -96t95.5 -233t-96 -232.5t-232 -95.5zM260 820q-48 0 -74 26t-26 74v380q0 48 26 74t74 26h1716q48 0 74 -26t26 -74v-380q0 -48 -26 -74t-74 -26h-1716zM1118 63q-136 0 -232 95.5t-96 232.5t95.5 233
t232.5 96t232.5 -96t95.5 -233t-96 -232.5t-232 -95.5z" />
    <glyph glyph-name="oslash" unicode="&#xf8;" horiz-adv-x="2446" 
d="M2133 1621q233 -265 233 -661q0 -198 -60 -365t-165.5 -286.5t-249 -203.5t-312 -124.5t-353.5 -40.5q-356 0 -630 144l-213 -213q-71 -71 -140 -1l-129 129q-70 69 1 140l184 184q-213 259 -213 637q0 198 60 365t165.5 286.5t249 203.5t312 124.5t353.5 40.5
q337 0 600 -130l139 139q71 71 140 1l129 -129q70 -69 -1 -140zM886 960q0 -33 1 -49l468 468q-60 21 -129 21q-58 0 -107 -14t-92.5 -46.5t-74.5 -82.5t-48.5 -125.5t-17.5 -171.5zM1226 520q58 0 107 14t92.5 46.5t74.5 82.5t48.5 125.5t17.5 171.5q0 53 -4 90l-495 -495
q70 -35 159 -35z" />
    <glyph glyph-name="ugrave" unicode="&#xf9;" 
d="M536 2396q-42 15 -55.5 53t7.5 83l152 320q18 40 55.5 54t76.5 -6l760 -436q37 -22 53 -61t-1 -79l-84 -180q-18 -36 -54.5 -49.5t-81.5 1.5zM2200 1920q80 0 80 -80v-1760q0 -80 -80 -80h-720q-80 0 -80 80v200q-89 -146 -255 -233t-401 -87q-325 0 -474.5 173.5
t-149.5 510.5v1196q0 80 80 80h720q80 0 80 -80v-920q0 -140 42.5 -200t129.5 -60q103 0 165.5 77.5t62.5 222.5v880q0 80 80 80h720z" />
    <glyph glyph-name="uacute" unicode="&#xfa;" 
d="M832 2144l-84 180q-17 40 -1 79t53 61l760 436q39 20 76.5 6t55.5 -54l152 -320q21 -45 7.5 -83t-55.5 -53l-828 -300q-45 -15 -81.5 -1.5t-54.5 49.5zM2200 1920q80 0 80 -80v-1760q0 -80 -80 -80h-720q-80 0 -80 80v200q-89 -146 -255 -233t-401 -87
q-325 0 -474.5 173.5t-149.5 510.5v1196q0 80 80 80h720q80 0 80 -80v-920q0 -140 42.5 -200t129.5 -60q103 0 165.5 77.5t62.5 222.5v880q0 80 80 80h720z" />
    <glyph glyph-name="ucircumflex" unicode="&#xfb;" 
d="M576 2120q-66 0 -81.5 36.5t29.5 87.5l424 464q52 52 124 52h256q72 0 124 -52l424 -464q45 -51 29.5 -87.5t-81.5 -36.5h-384q-77 0 -120 68l-120 200l-120 -200q-43 -68 -120 -68h-384zM2200 1920q80 0 80 -80v-1760q0 -80 -80 -80h-720q-80 0 -80 80v200
q-89 -146 -255 -233t-401 -87q-325 0 -474.5 173.5t-149.5 510.5v1196q0 80 80 80h720q80 0 80 -80v-920q0 -140 42.5 -200t129.5 -60q103 0 165.5 77.5t62.5 222.5v880q0 80 80 80h720z" />
    <glyph glyph-name="udieresis" unicode="&#xfc;" 
d="M729 2127q-151 0 -256.5 105.5t-105.5 256.5t105.5 256.5t256.5 105.5q150 0 256 -105.5t106 -256.5t-106 -256.5t-256 -105.5zM1669 2127q-151 0 -256.5 105.5t-105.5 256.5t105.5 256.5t256.5 105.5q150 0 256 -105.5t106 -256.5t-106 -256.5t-256 -105.5zM2200 1920
q80 0 80 -80v-1760q0 -80 -80 -80h-720q-80 0 -80 80v200q-89 -146 -255 -233t-401 -87q-325 0 -474.5 173.5t-149.5 510.5v1196q0 80 80 80h720q80 0 80 -80v-920q0 -140 42.5 -200t129.5 -60q103 0 165.5 77.5t62.5 222.5v880q0 80 80 80h720z" />
    <glyph glyph-name="yacute" unicode="&#xfd;" horiz-adv-x="2402" 
d="M794 2144l-84 180q-17 40 -1 79t53 61l760 436q39 20 76.5 6t55.5 -54l152 -320q21 -45 7.5 -83t-55.5 -53l-828 -300q-45 -15 -81.5 -1.5t-54.5 49.5zM2278 1920q69 0 105 -52t6 -116l-679 -1426q-90 -190 -170.5 -325.5t-176.5 -248.5t-198.5 -183.5t-236 -119.5
t-289.5 -69t-358 -20q-36 0 -60 24t-24 60v454q0 71 72 80q172 22 275 84t207 219l-737 1471q-31 62 5.5 115t106.5 53h752q59 0 85 -60l261 -608l258 608q25 60 84 60h712z" />
    <glyph glyph-name="thorn" unicode="&#xfe;" horiz-adv-x="2440" 
d="M1500 1980q207 0 371.5 -76.5t270.5 -213.5t162 -322.5t56 -407.5t-56 -407.5t-162 -322.5t-270.5 -213.5t-371.5 -76.5q-329 0 -500 259v-759q0 -80 -80 -80h-720q-80 0 -80 80v2400v640q0 80 80 80h720q80 0 80 -80v-759q171 259 500 259zM980 960q0 -165 66.5 -252.5
t173.5 -87.5t173.5 87.5t66.5 252.5t-66.5 252.5t-173.5 87.5t-173.5 -87.5t-66.5 -252.5z" />
    <glyph glyph-name="ydieresis" unicode="&#xff;" horiz-adv-x="2402" 
d="M691 2127q-151 0 -256.5 105.5t-105.5 256.5t105.5 256.5t256.5 105.5q150 0 256 -105.5t106 -256.5t-106 -256.5t-256 -105.5zM1631 2127q-151 0 -256.5 105.5t-105.5 256.5t105.5 256.5t256.5 105.5q150 0 256 -105.5t106 -256.5t-106 -256.5t-256 -105.5zM2278 1920
q69 0 105 -52t6 -116l-679 -1426q-90 -190 -170.5 -325.5t-176.5 -248.5t-198.5 -183.5t-236 -119.5t-289.5 -69t-358 -20q-36 0 -60 24t-24 60v454q0 71 72 80q172 22 275 84t207 219l-737 1471q-31 62 5.5 115t106.5 53h752q59 0 85 -60l261 -608l258 608q25 60 84 60h712
z" />
    <glyph glyph-name="Amacron" unicode="&#x100;" horiz-adv-x="2884" 
d="M842 2700q-42 0 -71 29t-29 71v276q0 42 29 71t71 29h1240q42 0 71 -29t29 -71v-276q0 -42 -29 -71t-71 -29h-1240zM2874 116q21 -53 0 -84.5t-76 -31.5h-784q-81 0 -112 80l-93 260h-791l-88 -260q-31 -80 -116 -80h-728q-55 0 -76 31.5t0 84.5l920 2248q29 76 116 76
h804q87 0 116 -76zM1206 900h403l-207 580z" />
    <glyph glyph-name="amacron" unicode="&#x101;" horiz-adv-x="2159" 
d="M464 2180q-42 0 -71 29t-29 71v276q0 42 29 71t71 29h1240q42 0 71 -29t29 -71v-276q0 -42 -29 -71t-71 -29h-1240zM2100 200q35 -103 -64 -128l-520 -132q-84 -21 -132 32q-94 97 -149 210q-103 -113 -245.5 -177.5t-316.5 -64.5q-121 0 -223 32.5t-173 88t-120.5 128.5
t-73 154t-23.5 166q0 96 28 184.5t86 169.5t148 141t214.5 100t284.5 46t359 -22q0 115 -66.5 163.5t-229.5 48.5q-110 0 -199 -18.5t-209 -57.5q-93 -31 -132 52l-160 340q-13 27 -14.5 48.5t8.5 37t22 25.5t32 21q144 81 390 136.5t489 55.5q452 0 680.5 -209.5
t228.5 -614.5v-496q0 -148 18 -239.5t62 -220.5zM952 480q87 0 157.5 71t70.5 173q-124 32 -204 24t-118 -43t-38 -93q0 -56 35.5 -94t96.5 -38z" />
    <glyph glyph-name="Abreve" unicode="&#x102;" horiz-adv-x="2884" 
d="M1462 2600q-123 0 -236 32.5t-200.5 90t-153 134t-100 168t-34.5 187.5q0 108 92 108h248q94 0 116 -76q32 -111 96 -157.5t172 -46.5q109 0 172.5 45.5t95.5 158.5q22 76 116 76h248q96 0 96 -92q0 -122 -55 -236.5t-149.5 -201t-231.5 -138.5t-292 -52zM2874 116
q21 -53 0 -84.5t-76 -31.5h-784q-81 0 -112 80l-93 260h-791l-88 -260q-31 -80 -116 -80h-728q-55 0 -76 31.5t0 84.5l920 2248q29 76 116 76h804q87 0 116 -76zM1206 900h403l-207 580z" />
    <glyph glyph-name="abreve" unicode="&#x103;" horiz-adv-x="2159" 
d="M1084 2080q-123 0 -236 32.5t-200.5 90t-153 134t-100 168t-34.5 187.5q0 108 92 108h248q94 0 116 -76q32 -111 96 -157.5t172 -46.5q109 0 172.5 45.5t95.5 158.5q22 76 116 76h248q96 0 96 -92q0 -122 -55 -236.5t-149.5 -201t-231.5 -138.5t-292 -52zM2100 200
q35 -103 -64 -128l-520 -132q-84 -21 -132 32q-94 97 -149 210q-103 -113 -245.5 -177.5t-316.5 -64.5q-121 0 -223 32.5t-173 88t-120.5 128.5t-73 154t-23.5 166q0 96 28 184.5t86 169.5t148 141t214.5 100t284.5 46t359 -22q0 115 -66.5 163.5t-229.5 48.5
q-110 0 -199 -18.5t-209 -57.5q-93 -31 -132 52l-160 340q-13 27 -14.5 48.5t8.5 37t22 25.5t32 21q144 81 390 136.5t489 55.5q452 0 680.5 -209.5t228.5 -614.5v-496q0 -148 18 -239.5t62 -220.5zM952 480q87 0 157.5 71t70.5 173q-124 32 -204 24t-118 -43t-38 -93
q0 -56 35.5 -94t96.5 -38z" />
    <glyph glyph-name="Aogonek" unicode="&#x104;" horiz-adv-x="2884" 
d="M2874 116q21 -53 0 -84.5t-76 -31.5h-445q-60 -53 -97.5 -123t-37.5 -129q0 -108 116 -108q36 0 84 12q42 9 65 -8.5t23 -59.5v-264q0 -69 -68 -100q-66 -29 -136 -44.5t-184 -15.5q-129 0 -239.5 51t-179.5 149t-69 224q0 150 72 279.5t199 218.5l-92 258h-791l-88 -260
q-31 -80 -116 -80h-728q-55 0 -76 31.5t0 84.5l920 2248q29 76 116 76h804q87 0 116 -76zM1206 900h403l-207 580z" />
    <glyph glyph-name="aogonek" unicode="&#x105;" horiz-adv-x="2188" 
d="M2036 72q-248 -167 -248 -364q0 -108 116 -108q29 0 84 12q42 9 65 -8.5t23 -59.5v-264q0 -70 -68 -100q-66 -29 -136 -44.5t-184 -15.5q-129 0 -239.5 51t-179.5 149t-69 224q0 243 188 423q-101 91 -159 214q-105 -112 -248.5 -176.5t-317.5 -64.5q-121 0 -220 32.5
t-165.5 87.5t-112 129t-65.5 154t-20 166q0 96 26.5 184.5t82 169.5t143 141t210 100t281 45.5t357.5 -21.5q0 114 -71 163t-235 49q-76 0 -148 -11t-119 -24.5t-131 -40.5q-93 -31 -132 52l-160 340q-13 27 -14.5 48.5t8.5 37t22 25.5t32 21q144 81 390 136.5t489 55.5
q452 0 680.5 -209.5t228.5 -614.5v-496q0 -148 18 -239.5t62 -220.5q7 -21 7 -37.5t-3 -27.5t-16 -23.5t-21.5 -18.5t-30.5 -21zM952 480q87 0 157.5 71t70.5 173q-124 32 -204 24t-118 -43t-38 -93q0 -56 35.5 -94t96.5 -38z" />
    <glyph glyph-name="Cacute" unicode="&#x106;" horiz-adv-x="2747" 
d="M1152 2664l-84 180q-17 40 -1 79t53 61l760 436q39 20 76.5 6t55.5 -54l152 -320q21 -45 7.5 -83t-55.5 -53l-828 -300q-45 -15 -81.5 -1.5t-54.5 49.5zM2608 678q43 -21 55 -56t-11 -80q-80 -149 -206.5 -266t-277.5 -189.5t-315.5 -109.5t-332.5 -37
q-239 0 -454.5 55.5t-391.5 165t-304.5 262.5t-199 357t-70.5 440t70.5 440t199 357t304.5 262.5t391.5 165t454.5 55.5q168 0 332.5 -37t315.5 -109.5t277.5 -189.5t206.5 -266q23 -45 11 -80t-55 -56l-568 -270q-79 -38 -136 44q-66 101 -166 162.5t-218 61.5
q-209 0 -334.5 -149t-125.5 -391t125.5 -391t334.5 -149q118 0 218 61.5t166 162.5q57 82 136 44z" />
    <glyph glyph-name="cacute" unicode="&#x107;" horiz-adv-x="2164" 
d="M812 2144l-84 180q-17 40 -1 79t53 61l760 436q39 20 76.5 6t55.5 -54l152 -320q21 -45 7.5 -83t-55.5 -53l-828 -300q-45 -15 -81.5 -1.5t-54.5 49.5zM2034 524q48 -23 57.5 -56.5t-13.5 -79.5q-22 -48 -67.5 -102.5t-125.5 -117.5t-178.5 -112.5t-237.5 -82.5t-291 -33
q-172 0 -332.5 40.5t-300 124.5t-243 203t-163 287t-59.5 365t59.5 365t163 287t243 203t300 124.5t332.5 40.5q152 0 291 -33t237 -82.5t178.5 -112.5t125.5 -117.5t68 -102.5q23 -46 13.5 -79.5t-57.5 -56.5l-486 -240q-27 -13 -47.5 -15.5t-37 7.5t-26 20.5t-25.5 31.5
q-37 50 -76 75t-108 25q-121 0 -184.5 -85.5t-63.5 -254.5t63.5 -254.5t184.5 -85.5q69 0 108 25t76 75q16 22 25.5 32t26 20t37 7.5t47.5 -15.5z" />
    <glyph glyph-name="Cdotaccent" unicode="&#x10a;" horiz-adv-x="2747" 
d="M1520 2568q-183 0 -311.5 128.5t-128.5 311.5t128.5 311.5t311.5 128.5t311.5 -128.5t128.5 -311.5t-128.5 -311.5t-311.5 -128.5zM2608 678q43 -21 55 -56t-11 -80q-80 -149 -206.5 -266t-277.5 -189.5t-315.5 -109.5t-332.5 -37q-239 0 -454.5 55.5t-391.5 165
t-304.5 262.5t-199 357t-70.5 440t70.5 440t199 357t304.5 262.5t391.5 165t454.5 55.5q168 0 332.5 -37t315.5 -109.5t277.5 -189.5t206.5 -266q23 -45 11 -80t-55 -56l-568 -270q-79 -38 -136 44q-66 101 -166 162.5t-218 61.5q-209 0 -334.5 -149t-125.5 -391t125.5 -391
t334.5 -149q118 0 218 61.5t166 162.5q57 82 136 44z" />
    <glyph glyph-name="cdotaccent" unicode="&#x10b;" horiz-adv-x="2164" 
d="M1180 2048q-183 0 -311.5 128.5t-128.5 311.5t128.5 311.5t311.5 128.5t311.5 -128.5t128.5 -311.5t-128.5 -311.5t-311.5 -128.5zM2034 524q48 -23 57.5 -56.5t-13.5 -79.5q-22 -48 -67.5 -102.5t-125.5 -117.5t-178.5 -112.5t-237.5 -82.5t-291 -33q-172 0 -332.5 40.5
t-300 124.5t-243 203t-163 287t-59.5 365t59.5 365t163 287t243 203t300 124.5t332.5 40.5q152 0 291 -33t237 -82.5t178.5 -112.5t125.5 -117.5t68 -102.5q23 -46 13.5 -79.5t-57.5 -56.5l-486 -240q-27 -13 -47.5 -15.5t-37 7.5t-26 20.5t-25.5 31.5q-37 50 -76 75
t-108 25q-121 0 -184.5 -85.5t-63.5 -254.5t63.5 -254.5t184.5 -85.5q69 0 108 25t76 75q16 22 25.5 32t26 20t37 7.5t47.5 -15.5z" />
    <glyph glyph-name="Ccaron" unicode="&#x10c;" horiz-adv-x="2747" 
d="M1268 2692l-424 464q-45 51 -29.5 87.5t81.5 36.5h384q77 0 120 -68l120 -200l120 200q43 68 120 68h384q66 0 81.5 -36.5t-29.5 -87.5l-424 -464q-52 -52 -124 -52h-256q-72 0 -124 52zM2608 678q43 -21 55 -56t-11 -80q-80 -149 -206.5 -266t-277.5 -189.5
t-315.5 -109.5t-332.5 -37q-239 0 -454.5 55.5t-391.5 165t-304.5 262.5t-199 357t-70.5 440t70.5 440t199 357t304.5 262.5t391.5 165t454.5 55.5q168 0 332.5 -37t315.5 -109.5t277.5 -189.5t206.5 -266q23 -45 11 -80t-55 -56l-568 -270q-79 -38 -136 44
q-66 101 -166 162.5t-218 61.5q-209 0 -334.5 -149t-125.5 -391t125.5 -391t334.5 -149q118 0 218 61.5t166 162.5q57 82 136 44z" />
    <glyph glyph-name="ccaron" unicode="&#x10d;" horiz-adv-x="2164" 
d="M928 2172l-424 464q-45 51 -29.5 87.5t81.5 36.5h384q77 0 120 -68l120 -200l120 200q43 68 120 68h384q66 0 81.5 -36.5t-29.5 -87.5l-424 -464q-52 -52 -124 -52h-256q-72 0 -124 52zM2034 524q48 -23 57.5 -56.5t-13.5 -79.5q-22 -48 -67.5 -102.5t-125.5 -117.5
t-178.5 -112.5t-237.5 -82.5t-291 -33q-172 0 -332.5 40.5t-300 124.5t-243 203t-163 287t-59.5 365t59.5 365t163 287t243 203t300 124.5t332.5 40.5q152 0 291 -33t237 -82.5t178.5 -112.5t125.5 -117.5t68 -102.5q23 -46 13.5 -79.5t-57.5 -56.5l-486 -240
q-27 -13 -47.5 -15.5t-37 7.5t-26 20.5t-25.5 31.5q-37 50 -76 75t-108 25q-121 0 -184.5 -85.5t-63.5 -254.5t63.5 -254.5t184.5 -85.5q69 0 108 25t76 75q16 22 25.5 32t26 20t37 7.5t47.5 -15.5z" />
    <glyph glyph-name="Dcaron" unicode="&#x10e;" horiz-adv-x="2820" 
d="M1056 2692l-424 464q-45 51 -29.5 87.5t81.5 36.5h384q77 0 120 -68l120 -200l120 200q43 68 120 68h384q66 0 81.5 -36.5t-29.5 -87.5l-424 -464q-52 -52 -124 -52h-256q-72 0 -124 52zM1320 2440q234 0 445 -51.5t385 -154t301.5 -247.5t198 -341.5t70.5 -425.5
t-70.5 -425.5t-198 -341.5t-301.5 -247.5t-385 -154t-445 -51.5h-780h-340q-33 0 -56.5 23.5t-23.5 56.5v2280q0 33 23.5 56.5t56.5 23.5h760h360zM1280 700q213 0 346.5 141.5t133.5 378.5t-133.5 378.5t-346.5 141.5h-240v-1040h240z" />
    <glyph glyph-name="dcaron" unicode="&#x10f;" horiz-adv-x="3188" 
d="M2790 2618q69 0 132.5 -24t115.5 -70.5t83.5 -122t31.5 -170.5q0 -144 -71.5 -300t-193.5 -286t-267 -204q-20 -9 -40 -5t-33 19l-59 66q-17 19 -16.5 44.5t19.5 47.5q10 11 36.5 36.5t39.5 40t30.5 38.5t25 49.5t7.5 53.5q0 36 -15 67t-31.5 49t-45.5 43
q-113 99 -113 258q0 158 105.5 264t258.5 106zM2240 2560q80 0 80 -80v-2400q0 -80 -80 -80h-720q-80 0 -80 80v119q-171 -259 -500 -259q-207 0 -371.5 76.5t-270.5 213.5t-162 322.5t-56 407.5t56 407.5t162 322.5t270.5 213.5t371.5 76.5q329 0 500 -259v759q0 80 80 80
h720zM1220 620q107 0 173.5 87.5t66.5 252.5t-66.5 252.5t-173.5 87.5t-173.5 -87.5t-66.5 -252.5t66.5 -252.5t173.5 -87.5z" />
    <glyph glyph-name="Dcroat" unicode="&#x110;" horiz-adv-x="2820" 
d="M1320 2440q234 0 445 -51.5t385 -154t301.5 -247.5t198 -341.5t70.5 -425.5t-70.5 -425.5t-198 -341.5t-301.5 -247.5t-385 -154t-445 -51.5h-780h-340q-33 0 -56.5 23.5t-23.5 56.5v872h-168q-48 0 -74 26t-26 74v300q0 48 26 74t74 26h168v908q0 33 23.5 56.5
t56.5 23.5h760h360zM1280 700q213 0 346.5 141.5t133.5 378.5t-133.5 378.5t-346.5 141.5h-240v-288h288q48 0 74 -26t26 -74v-300q0 -48 -26 -74t-74 -26h-288v-252h240z" />
    <glyph glyph-name="dcroat" unicode="&#x111;" horiz-adv-x="2580" 
d="M2480 2352q48 0 74 -26t26 -74v-100q0 -48 -26 -74t-74 -26h-160v-1972q0 -80 -80 -80h-720q-80 0 -80 80v119q-171 -259 -500 -259q-207 0 -371.5 76.5t-270.5 213.5t-162 322.5t-56 407.5t56 407.5t162 322.5t270.5 213.5t371.5 76.5q329 0 500 -259v331h-336
q-48 0 -74 26t-26 74v100q0 48 26 74t74 26h336v128q0 80 80 80h720q80 0 80 -80v-128h160zM1220 620q107 0 173.5 87.5t66.5 252.5t-66.5 252.5t-173.5 87.5t-173.5 -87.5t-66.5 -252.5t66.5 -252.5t173.5 -87.5z" />
    <glyph glyph-name="Emacron" unicode="&#x112;" horiz-adv-x="2325" 
d="M597 2700q-42 0 -71 29t-29 71v276q0 42 29 71t71 29h1240q42 0 71 -29t29 -71v-276q0 -42 -29 -71t-71 -29h-1240zM2165 700q80 0 80 -80v-540q0 -80 -80 -80h-1456h-509q-33 0 -56.5 23.5t-23.5 56.5v2280q0 33 23.5 56.5t56.5 23.5h760h1165q80 0 80 -80v-540
q0 -80 -80 -80h-1085v-200h925q80 0 80 -80v-460q0 -80 -80 -80h-925v-220h1125z" />
    <glyph glyph-name="emacron" unicode="&#x113;" horiz-adv-x="2320" 
d="M532 2180q-42 0 -71 29t-29 71v276q0 42 29 71t71 29h1240q42 0 71 -29t29 -71v-276q0 -42 -29 -71t-71 -29h-1240zM2040 496q51 -25 59.5 -60.5t-15.5 -75.5q-36 -74 -119.5 -148t-199 -135t-270 -99t-315.5 -38q-185 0 -349.5 40.5t-302 124.5t-237.5 203.5
t-155.5 286.5t-55.5 365t57.5 365t160.5 286.5t243.5 203.5t307 124.5t351.5 40.5q171 0 323.5 -41t284.5 -129.5t227.5 -217.5t150 -316.5t54.5 -415.5h-1348q15 -84 49 -145t78 -93.5t89 -47t92 -14.5q95 0 157 25.5t105 84.5q18 24 30 36t27.5 19.5t34 4.5t44.5 -16z
M1184 1440q-96 0 -167.5 -55.5t-106.5 -164.5h516q-63 220 -242 220z" />
    <glyph glyph-name="Edotaccent" unicode="&#x116;" horiz-adv-x="2325" 
d="M1217 2568q-183 0 -311.5 128.5t-128.5 311.5t128.5 311.5t311.5 128.5t311.5 -128.5t128.5 -311.5t-128.5 -311.5t-311.5 -128.5zM2165 700q80 0 80 -80v-540q0 -80 -80 -80h-1456h-509q-33 0 -56.5 23.5t-23.5 56.5v2280q0 33 23.5 56.5t56.5 23.5h760h1165
q80 0 80 -80v-540q0 -80 -80 -80h-1085v-200h925q80 0 80 -80v-460q0 -80 -80 -80h-925v-220h1125z" />
    <glyph glyph-name="edotaccent" unicode="&#x117;" horiz-adv-x="2320" 
d="M1152 2048q-183 0 -311.5 128.5t-128.5 311.5t128.5 311.5t311.5 128.5t311.5 -128.5t128.5 -311.5t-128.5 -311.5t-311.5 -128.5zM2040 496q51 -25 59.5 -60.5t-15.5 -75.5q-36 -74 -119.5 -148t-199 -135t-270 -99t-315.5 -38q-185 0 -349.5 40.5t-302 124.5
t-237.5 203.5t-155.5 286.5t-55.5 365t57.5 365t160.5 286.5t243.5 203.5t307 124.5t351.5 40.5q171 0 323.5 -41t284.5 -129.5t227.5 -217.5t150 -316.5t54.5 -415.5h-1348q15 -84 49 -145t78 -93.5t89 -47t92 -14.5q95 0 157 25.5t105 84.5q18 24 30 36t27.5 19.5t34 4.5
t44.5 -16zM1184 1440q-96 0 -167.5 -55.5t-106.5 -164.5h516q-63 220 -242 220z" />
    <glyph glyph-name="Eogonek" unicode="&#x118;" horiz-adv-x="2325" 
d="M2165 700q80 0 80 -80v-540q0 -80 -80 -80h-120q-80 -51 -134 -135t-54 -157q0 -108 116 -108q36 0 84 12q42 9 65 -8.5t23 -59.5v-264q0 -69 -68 -100q-66 -29 -136 -44.5t-184 -15.5q-129 0 -239.5 51t-179.5 149t-69 224q0 133 57 250t160 206h-777h-509
q-33 0 -56.5 23.5t-23.5 56.5v2280q0 33 23.5 56.5t56.5 23.5h760h1165q80 0 80 -80v-540q0 -80 -80 -80h-1085v-200h925q80 0 80 -80v-460q0 -80 -80 -80h-925v-220h1125z" />
    <glyph glyph-name="eogonek" unicode="&#x119;" horiz-adv-x="2320" 
d="M2040 496q51 -25 59.5 -60.5t-15.5 -75.5q-43 -89 -151 -175.5t-257 -147.5q-60 -52 -99 -99t-56.5 -88.5t-23 -72.5t-5.5 -69q0 -53 34 -80.5t92 -27.5q29 0 84 12q42 9 65 -8.5t23 -59.5v-264q0 -70 -68 -100q-66 -29 -136 -44.5t-184 -15.5q-96 0 -186 30t-159 84
t-111 134.5t-42 175.5q0 225 165 400q-212 15 -390.5 87t-313 196.5t-210 312.5t-75.5 420q0 198 57.5 365t160.5 286.5t243.5 203.5t307 124.5t351.5 40.5q171 0 323.5 -41t284.5 -129.5t227.5 -217.5t150 -316.5t54.5 -415.5h-1348q15 -84 49 -145t78 -93.5t89 -47
t92 -14.5q95 0 157 25.5t105 84.5q18 24 30 36t27.5 19.5t34 4.5t44.5 -16zM1184 1440q-96 0 -167.5 -55.5t-106.5 -164.5h516q-63 220 -242 220z" />
    <glyph glyph-name="Ecaron" unicode="&#x11a;" horiz-adv-x="2325" 
d="M965 2692l-424 464q-45 51 -29.5 87.5t81.5 36.5h384q77 0 120 -68l120 -200l120 200q43 68 120 68h384q66 0 81.5 -36.5t-29.5 -87.5l-424 -464q-52 -52 -124 -52h-256q-72 0 -124 52zM2165 700q80 0 80 -80v-540q0 -80 -80 -80h-1456h-509q-33 0 -56.5 23.5t-23.5 56.5
v2280q0 33 23.5 56.5t56.5 23.5h760h1165q80 0 80 -80v-540q0 -80 -80 -80h-1085v-200h925q80 0 80 -80v-460q0 -80 -80 -80h-925v-220h1125z" />
    <glyph glyph-name="ecaron" unicode="&#x11b;" horiz-adv-x="2320" 
d="M900 2172l-424 464q-45 51 -29.5 87.5t81.5 36.5h384q77 0 120 -68l120 -200l120 200q43 68 120 68h384q66 0 81.5 -36.5t-29.5 -87.5l-424 -464q-52 -52 -124 -52h-256q-72 0 -124 52zM2040 496q51 -25 59.5 -60.5t-15.5 -75.5q-36 -74 -119.5 -148t-199 -135t-270 -99
t-315.5 -38q-185 0 -349.5 40.5t-302 124.5t-237.5 203.5t-155.5 286.5t-55.5 365t57.5 365t160.5 286.5t243.5 203.5t307 124.5t351.5 40.5q171 0 323.5 -41t284.5 -129.5t227.5 -217.5t150 -316.5t54.5 -415.5h-1348q15 -84 49 -145t78 -93.5t89 -47t92 -14.5
q95 0 157 25.5t105 84.5q18 24 30 36t27.5 19.5t34 4.5t44.5 -16zM1184 1440q-96 0 -167.5 -55.5t-106.5 -164.5h516q-63 220 -242 220z" />
    <glyph glyph-name="Gbreve" unicode="&#x11e;" horiz-adv-x="2808" 
d="M1466 2600q-123 0 -236 32.5t-200.5 90t-153 134t-100 168t-34.5 187.5q0 108 92 108h248q94 0 116 -76q32 -111 96 -157.5t172 -46.5q109 0 172.5 45.5t95.5 158.5q22 76 116 76h248q96 0 96 -92q0 -122 -55 -236.5t-149.5 -201t-231.5 -138.5t-292 -52zM2578 1140
q110 0 110 -100v-768q-205 -146 -508.5 -239t-659.5 -93q-239 0 -454.5 55.5t-391.5 165t-304.5 262.5t-199 357t-70.5 440t70.5 440t199 357t304.5 262.5t391.5 165t454.5 55.5q166 0 326 -34t309.5 -102.5t276.5 -182.5t210 -263q24 -45 12 -80t-56 -56l-568 -270
q-76 -36 -136 44q-150 204 -374 204q-209 0 -334.5 -149t-125.5 -391t125.5 -391t334.5 -149q188 0 328 39v321q0 48 26 74t74 26h630z" />
    <glyph glyph-name="gbreve" unicode="&#x11f;" horiz-adv-x="2372" 
d="M1202 2080q-123 0 -236 32.5t-200.5 90t-153 134t-100 168t-34.5 187.5q0 108 92 108h248q94 0 116 -76q32 -111 96 -157.5t172 -46.5q109 0 172.5 45.5t95.5 158.5q22 76 116 76h248q96 0 96 -92q0 -122 -55 -236.5t-149.5 -201t-231.5 -138.5t-292 -52zM2266 2140
q66 0 66 -59v-507q0 -56 -54 -56q-97 0 -169 -47q13 -53 13 -113q0 -131 -67.5 -245t-189.5 -197.5t-302.5 -131.5t-396.5 -48h-264q-70 0 -101 -20t-31 -60t31 -60t101 -20h536q403 0 627.5 -160t224.5 -434q0 -107 -33.5 -200.5t-111 -177.5t-195 -144t-296.5 -95
t-404 -35q-509 0 -774.5 144.5t-265.5 399.5q0 157 115 269q-109 67 -172 168.5t-63 224.5q0 139 81 252t229 179q-190 164 -190 391q0 131 67.5 245t189.5 197.5t302.5 131.5t396.5 48q327 0 566 -107q94 129 231 198t303 69zM1166 1212q94 0 151 39.5t57 106.5t-57 106.5
t-151 39.5t-151 -39.5t-57 -106.5t57 -106.5t151 -39.5zM1530 -90q0 58 -70 84t-210 26t-210 -26t-70 -84t70 -84t210 -26t210 26t70 84z" />
    <glyph glyph-name="Gdotaccent" unicode="&#x120;" horiz-adv-x="2808" 
d="M1466 2568q-183 0 -311.5 128.5t-128.5 311.5t128.5 311.5t311.5 128.5t311.5 -128.5t128.5 -311.5t-128.5 -311.5t-311.5 -128.5zM2578 1140q110 0 110 -100v-768q-205 -146 -508.5 -239t-659.5 -93q-239 0 -454.5 55.5t-391.5 165t-304.5 262.5t-199 357t-70.5 440
t70.5 440t199 357t304.5 262.5t391.5 165t454.5 55.5q166 0 326 -34t309.5 -102.5t276.5 -182.5t210 -263q24 -45 12 -80t-56 -56l-568 -270q-76 -36 -136 44q-150 204 -374 204q-209 0 -334.5 -149t-125.5 -391t125.5 -391t334.5 -149q188 0 328 39v321q0 48 26 74t74 26
h630z" />
    <glyph glyph-name="gdotaccent" unicode="&#x121;" horiz-adv-x="2372" 
d="M1202 2048q-183 0 -311.5 128.5t-128.5 311.5t128.5 311.5t311.5 128.5t311.5 -128.5t128.5 -311.5t-128.5 -311.5t-311.5 -128.5zM2266 2140q66 0 66 -59v-507q0 -56 -54 -56q-97 0 -169 -47q13 -53 13 -113q0 -131 -67.5 -245t-189.5 -197.5t-302.5 -131.5t-396.5 -48
h-264q-70 0 -101 -20t-31 -60t31 -60t101 -20h536q403 0 627.5 -160t224.5 -434q0 -107 -33.5 -200.5t-111 -177.5t-195 -144t-296.5 -95t-404 -35q-509 0 -774.5 144.5t-265.5 399.5q0 157 115 269q-109 67 -172 168.5t-63 224.5q0 139 81 252t229 179q-190 164 -190 391
q0 131 67.5 245t189.5 197.5t302.5 131.5t396.5 48q327 0 566 -107q94 129 231 198t303 69zM1166 1212q94 0 151 39.5t57 106.5t-57 106.5t-151 39.5t-151 -39.5t-57 -106.5t57 -106.5t151 -39.5zM1530 -90q0 58 -70 84t-210 26t-210 -26t-70 -84t70 -84t210 -26t210 26
t70 84z" />
    <glyph glyph-name="Gcommaaccent" unicode="&#x122;" horiz-adv-x="2808" 
d="M2578 1140q110 0 110 -100v-768q-205 -146 -508.5 -239t-659.5 -93q-239 0 -454.5 55.5t-391.5 165t-304.5 262.5t-199 357t-70.5 440t70.5 440t199 357t304.5 262.5t391.5 165t454.5 55.5q166 0 326 -34t309.5 -102.5t276.5 -182.5t210 -263q24 -45 12 -80t-56 -56
l-568 -270q-76 -36 -136 44q-150 204 -374 204q-209 0 -334.5 -149t-125.5 -391t125.5 -391t334.5 -149q188 0 328 39v321q0 48 26 74t74 26h630zM1446 -242q69 0 132.5 -24t115.5 -70.5t83.5 -122t31.5 -170.5q0 -144 -71.5 -300t-193.5 -286t-267 -204q-20 -9 -40 -5
t-33 19l-59 66q-17 19 -16.5 44.5t19.5 47.5q10 11 36.5 36.5t39.5 40t30.5 38.5t25 49.5t7.5 53.5q0 36 -15 67t-31.5 49t-45.5 43q-113 99 -113 258q0 158 105.5 264t258.5 106z" />
    <glyph glyph-name="gcommaaccent" unicode="&#x123;" horiz-adv-x="2340" 
d="M1206 2050q-69 0 -132.5 24t-115.5 70.5t-83.5 122t-31.5 170.5q0 144 71.5 300t193.5 286t267 204q20 9 40 5t33 -19l59 -66q17 -19 16.5 -44.5t-19.5 -47.5q-10 -11 -36.5 -36.5t-39.5 -40t-30.5 -38.5t-25 -49.5t-7.5 -53.5q0 -36 15 -67t31.5 -49t45.5 -43
q113 -99 113 -258q0 -158 -105.5 -264t-258.5 -106zM2266 2140q66 0 66 -59v-507q0 -56 -54 -56q-97 0 -169 -47q13 -53 13 -113q0 -131 -67.5 -245t-189.5 -197.5t-302.5 -131.5t-396.5 -48h-264q-70 0 -101 -20t-31 -60t31 -60t101 -20h536q403 0 627.5 -160t224.5 -434
q0 -107 -33.5 -200.5t-111 -177.5t-195 -144t-296.5 -95t-404 -35q-509 0 -774.5 144.5t-265.5 399.5q0 157 115 269q-109 67 -172 168.5t-63 224.5q0 139 81 252t229 179q-190 164 -190 391q0 131 67.5 245t189.5 197.5t302.5 131.5t396.5 48q327 0 566 -107
q94 129 231 198t303 69zM1166 1212q94 0 151 39.5t57 106.5t-57 106.5t-151 39.5t-151 -39.5t-57 -106.5t57 -106.5t151 -39.5zM1530 -90q0 58 -70 84t-210 26t-210 -26t-70 -84t70 -84t210 -26t210 26t70 84z" />
    <glyph glyph-name="Hbar" unicode="&#x126;" horiz-adv-x="2960" 
d="M2940 2240q48 0 74 -26t26 -74v-220q0 -48 -26 -74t-74 -26h-140v-1740q0 -33 -23.5 -56.5t-56.5 -23.5h-760q-33 0 -56.5 23.5t-23.5 56.5v800h-800v-800q0 -33 -23.5 -56.5t-56.5 -23.5h-760q-33 0 -56.5 23.5t-23.5 56.5v1740h-140q-48 0 -74 26t-26 74v220
q0 48 26 74t74 26h140v120q0 33 23.5 56.5t56.5 23.5h760q33 0 56.5 -23.5t23.5 -56.5v-120h800v120q0 33 23.5 56.5t56.5 23.5h760q33 0 56.5 -23.5t23.5 -56.5v-120h140zM1880 1580v240h-800v-240h800z" />
    <glyph glyph-name="hbar" unicode="&#x127;" horiz-adv-x="2556" 
d="M1812 1960q325 0 474.5 -173.5t149.5 -510.5v-1196q0 -80 -80 -80h-720q-80 0 -80 80v920q0 140 -42.5 200t-129.5 60q-103 0 -165.5 -77.5t-62.5 -222.5v-880q0 -80 -80 -80h-720q-80 0 -80 80v1972h-176q-48 0 -74 26t-26 74v100q0 48 26 74t74 26h176v128q0 80 80 80
h720q80 0 80 -80v-128h320q48 0 74 -26t26 -74v-100q0 -48 -26 -74t-74 -26h-320v-412q89 146 255 233t401 87z" />
    <glyph glyph-name="Imacron" unicode="&#x12a;" horiz-adv-x="1160" 
d="M-140 3076q0 42 29 71t71 29h1240q42 0 71 -29t29 -71v-276q0 -42 -29 -71t-71 -29h-1240q-42 0 -71 29t-29 71v276zM120 2360q0 33 23.5 56.5t56.5 23.5h760q33 0 56.5 -23.5t23.5 -56.5v-2280q0 -33 -23.5 -56.5t-56.5 -23.5h-760q-33 0 -56.5 23.5t-23.5 56.5v2280z
" />
    <glyph glyph-name="imacron" unicode="&#x12b;" horiz-adv-x="1120" 
d="M-160 2556q0 42 29 71t71 29h1240q42 0 71 -29t29 -71v-276q0 -42 -29 -71t-71 -29h-1240q-42 0 -71 29t-29 71v276zM120 1840q0 80 80 80h720q80 0 80 -80v-1760q0 -80 -80 -80h-720q-80 0 -80 80v1760z" />
    <glyph glyph-name="Iogonek" unicode="&#x12e;" horiz-adv-x="1160" 
d="M960 2440q33 0 56.5 -23.5t23.5 -56.5v-2280q0 -33 -23.5 -56.5t-56.5 -23.5h-435q-80 -51 -134 -135t-54 -157q0 -108 116 -108q36 0 84 12q42 9 65 -8.5t23 -59.5v-264q0 -69 -68 -100q-66 -29 -136 -44.5t-184 -15.5q-129 0 -239.5 51t-179.5 149t-69 224
q0 178 100 325t271 232v2259q0 33 23.5 56.5t56.5 23.5h760z" />
    <glyph glyph-name="iogonek" unicode="&#x12f;" horiz-adv-x="1120" 
d="M560 2048q-183 0 -311.5 128.5t-128.5 311.5t128.5 311.5t311.5 128.5t311.5 -128.5t128.5 -311.5t-128.5 -311.5t-311.5 -128.5zM920 1920q80 0 80 -80v-1760q0 -80 -80 -80h-370q-80 -51 -134 -135t-54 -157q0 -108 116 -108q36 0 84 12q42 9 65 -8.5t23 -59.5v-264
q0 -69 -68 -100q-66 -29 -136 -44.5t-184 -15.5q-129 0 -239.5 51t-179.5 149t-69 224q0 171 92.5 314t253.5 230v1752q0 80 80 80h720z" />
    <glyph glyph-name="Idotaccent" unicode="&#x130;" horiz-adv-x="1160" 
d="M580 2568q-183 0 -311.5 128.5t-128.5 311.5t128.5 311.5t311.5 128.5t311.5 -128.5t128.5 -311.5t-128.5 -311.5t-311.5 -128.5zM120 2360q0 33 23.5 56.5t56.5 23.5h760q33 0 56.5 -23.5t23.5 -56.5v-2280q0 -33 -23.5 -56.5t-56.5 -23.5h-760q-33 0 -56.5 23.5
t-23.5 56.5v2280z" />
    <glyph glyph-name="dotlessi" unicode="&#x131;" horiz-adv-x="1120" 
d="M120 1840q0 80 80 80h720q80 0 80 -80v-1760q0 -80 -80 -80h-720q-80 0 -80 80v1760z" />
    <glyph glyph-name="Kcommaaccent" unicode="&#x136;" horiz-adv-x="2880" 
d="M960 2440q33 0 56.5 -23.5t23.5 -56.5v-2280q0 -33 -23.5 -56.5t-56.5 -23.5h-760q-33 0 -56.5 23.5t-23.5 56.5v2280q0 33 23.5 56.5t56.5 23.5h760zM2857 120q34 -52 14.5 -86t-79.5 -34h-812q-79 0 -120 64l-760 1176l771 1136q42 64 121 64h760q61 0 80 -34.5
t-16 -85.5l-736 -1040zM1430 -242q69 0 132.5 -24t115.5 -70.5t83.5 -122t31.5 -170.5q0 -144 -71.5 -300t-193.5 -286t-267 -204q-20 -9 -40 -5t-33 19l-59 66q-17 19 -16.5 44.5t19.5 47.5q10 11 36.5 36.5t39.5 40t30.5 38.5t25 49.5t7.5 53.5q0 36 -15 67t-31.5 49
t-45.5 43q-113 99 -113 258q0 158 105.5 264t258.5 106z" />
    <glyph glyph-name="kcommaaccent" unicode="&#x137;" horiz-adv-x="2464" 
d="M120 2480q0 80 80 80h720q80 0 80 -80v-2400q0 -80 -80 -80h-720q-80 0 -80 80v2400zM1576 0q-90 0 -120 68l-416 932l376 852q15 32 47.5 50t72.5 18h720q58 0 74 -36.5t-10 -83.5l-404 -780l471 -900q29 -55 11 -87.5t-78 -32.5h-744zM1242 -242q69 0 132.5 -24
t115.5 -70.5t83.5 -122t31.5 -170.5q0 -144 -71.5 -300t-193.5 -286t-267 -204q-20 -9 -40 -5t-33 19l-59 66q-17 19 -16.5 44.5t19.5 47.5q10 11 36.5 36.5t39.5 40t30.5 38.5t25 49.5t7.5 53.5q0 36 -15 67t-31.5 49t-45.5 43q-113 99 -113 258q0 158 105.5 264t258.5 106
z" />
    <glyph glyph-name="Lacute" unicode="&#x139;" horiz-adv-x="2180" 
d="M212 2664l-84 180q-17 40 -1 79t53 61l760 436q39 20 76.5 6t55.5 -54l152 -320q21 -45 7.5 -83t-55.5 -53l-828 -300q-45 -15 -81.5 -1.5t-54.5 49.5zM2060 740q80 0 80 -80v-580q0 -80 -80 -80h-1356h-504q-33 0 -56.5 23.5t-23.5 56.5v2280q0 33 23.5 56.5t56.5 23.5
h760q33 0 56.5 -23.5t23.5 -56.5v-1620h1020z" />
    <glyph glyph-name="lacute" unicode="&#x13a;" horiz-adv-x="1120" 
d="M328 2736q-45 -15 -81.5 -1.5t-54.5 49.5l-84 180q-17 40 -1 79t53 61l760 436q39 20 76.5 6t55.5 -54l152 -320q21 -45 7.5 -83t-55.5 -53zM120 2480q0 80 80 80h720q80 0 80 -80v-2400q0 -80 -80 -80h-720q-80 0 -80 80v2400z" />
    <glyph glyph-name="Lcommaaccent" unicode="&#x13b;" horiz-adv-x="2180" 
d="M2060 740q80 0 80 -80v-580q0 -80 -80 -80h-1356h-504q-33 0 -56.5 23.5t-23.5 56.5v2280q0 33 23.5 56.5t56.5 23.5h760q33 0 56.5 -23.5t23.5 -56.5v-1620h1020zM1130 -242q69 0 132.5 -24t115.5 -70.5t83.5 -122t31.5 -170.5q0 -144 -71.5 -300t-193.5 -286t-267 -204
q-20 -9 -40 -5t-33 19l-59 66q-17 19 -16.5 44.5t19.5 47.5q10 11 36.5 36.5t39.5 40t30.5 38.5t25 49.5t7.5 53.5q0 36 -15 67t-31.5 49t-45.5 43q-113 99 -113 258q0 158 105.5 264t258.5 106z" />
    <glyph glyph-name="lcommaaccent" unicode="&#x13c;" horiz-adv-x="1120" 
d="M120 2480q0 80 80 80h720q80 0 80 -80v-2400q0 -80 -80 -80h-720q-80 0 -80 80v2400zM570 -242q69 0 132.5 -24t115.5 -70.5t83.5 -122t31.5 -170.5q0 -144 -71.5 -300t-193.5 -286t-267 -204q-20 -9 -40 -5t-33 19l-59 66q-17 19 -16.5 44.5t19.5 47.5q10 11 36.5 36.5
t39.5 40t30.5 38.5t25 49.5t7.5 53.5q0 36 -15 67t-31.5 49t-45.5 43q-113 99 -113 258q0 158 105.5 264t258.5 106z" />
    <glyph glyph-name="Lcaron" unicode="&#x13d;" horiz-adv-x="2285" 
d="M1631 1990q-113 99 -113 258q0 158 105.5 264t258.5 106q69 0 132.5 -24t115.5 -70.5t83.5 -122t31.5 -170.5q0 -144 -71.5 -300t-193.5 -286t-267 -204q-20 -9 -40 -5t-33 19l-59 66q-17 19 -16.5 44.5t19.5 47.5q10 11 36.5 36.5t39.5 40t30.5 38.5t25 49.5t7.5 53.5
q0 36 -15 67t-31.5 49t-45.5 43zM2060 740q80 0 80 -80v-580q0 -80 -80 -80h-1356h-504q-33 0 -56.5 23.5t-23.5 56.5v2280q0 33 23.5 56.5t56.5 23.5h760q33 0 56.5 -23.5t23.5 -56.5v-1620h1020z" />
    <glyph glyph-name="lcaron" unicode="&#x13e;" horiz-adv-x="1884" 
d="M1486 2618q69 0 132.5 -24t115.5 -70.5t83.5 -122t31.5 -170.5q0 -144 -71.5 -300t-193.5 -286t-267 -204q-20 -9 -40 -5t-33 19l-59 66q-17 19 -16.5 44.5t19.5 47.5q10 11 36.5 36.5t39.5 40t30.5 38.5t25 49.5t7.5 53.5q0 36 -15 67t-31.5 49t-45.5 43
q-113 99 -113 258q0 158 105.5 264t258.5 106zM120 2480q0 80 80 80h720q80 0 80 -80v-2400q0 -80 -80 -80h-720q-80 0 -80 80v2400z" />
    <glyph glyph-name="Lslash" unicode="&#x141;" horiz-adv-x="2509" 
d="M2389 740q80 0 80 -80v-580q0 -80 -80 -80h-1356h-504q-33 0 -56.5 23.5t-23.5 56.5v598l-143 -67q-90 -42 -133 49l-161 344q-41 89 49 132l388 181v1043q0 33 23.5 56.5t56.5 23.5h760q33 0 56.5 -23.5t23.5 -56.5v-613l519 242q90 42 133 -49l161 -344
q41 -89 -49 -132l-764 -357v-367h1020z" />
    <glyph glyph-name="lslash" unicode="&#x142;" horiz-adv-x="1660" 
d="M1648 1469q41 -89 -49 -132l-334 -156v-1101q0 -80 -80 -80h-720q-80 0 -80 80v690l-69 -32q-90 -42 -133 49l-161 344q-41 89 49 132l314 147v1070q0 80 80 80h720q80 0 80 -80v-660l89 42q43 21 78 8.5t55 -56.5z" />
    <glyph glyph-name="Nacute" unicode="&#x143;" horiz-adv-x="2880" 
d="M1248 2616q-45 -15 -81.5 -1.5t-54.5 49.5l-84 180q-17 40 -1 79t53 61l760 436q39 20 76.5 6t55.5 -54l152 -320q21 -45 7.5 -83t-55.5 -53zM2660 2440q48 0 74 -26t26 -74v-2240q0 -48 -26 -74t-74 -26h-272q-74 0 -124 40l-1224 940v-880q0 -48 -26 -74t-74 -26h-720
q-48 0 -74 26t-26 74v2240q0 48 26 74t74 26h272q74 0 124 -40l1224 -948v888q0 48 26 74t74 26h720z" />
    <glyph glyph-name="nacute" unicode="&#x144;" 
d="M912 2144l-84 180q-17 40 -1 79t53 61l760 436q39 20 76.5 6t55.5 -54l152 -320q21 -45 7.5 -83t-55.5 -53l-828 -300q-45 -15 -81.5 -1.5t-54.5 49.5zM1656 1960q325 0 474.5 -173.5t149.5 -510.5v-1196q0 -80 -80 -80h-720q-80 0 -80 80v920q0 140 -42.5 200t-129.5 60
q-103 0 -165.5 -77.5t-62.5 -222.5v-880q0 -80 -80 -80h-720q-80 0 -80 80v1760q0 80 80 80h720q80 0 80 -80v-200q89 146 255 233t401 87z" />
    <glyph glyph-name="Ncommaaccent" unicode="&#x145;" horiz-adv-x="2880" 
d="M2660 2440q48 0 74 -26t26 -74v-2240q0 -48 -26 -74t-74 -26h-272q-74 0 -124 40l-1224 940v-880q0 -48 -26 -74t-74 -26h-720q-48 0 -74 26t-26 74v2240q0 48 26 74t74 26h272q74 0 124 -40l1224 -948v888q0 48 26 74t74 26h720zM1490 -242q69 0 132.5 -24t115.5 -70.5
t83.5 -122t31.5 -170.5q0 -144 -71.5 -300t-193.5 -286t-267 -204q-20 -9 -40 -5t-33 19l-59 66q-17 19 -16.5 44.5t19.5 47.5q10 11 36.5 36.5t39.5 40t30.5 38.5t25 49.5t7.5 53.5q0 36 -15 67t-31.5 49t-45.5 43q-113 99 -113 258q0 158 105.5 264t258.5 106z" />
    <glyph glyph-name="ncommaaccent" unicode="&#x146;" 
d="M1656 1960q325 0 474.5 -173.5t149.5 -510.5v-1196q0 -80 -80 -80h-720q-80 0 -80 80v920q0 140 -42.5 200t-129.5 60q-103 0 -165.5 -77.5t-62.5 -222.5v-880q0 -80 -80 -80h-720q-80 0 -80 80v1760q0 80 80 80h720q80 0 80 -80v-200q89 146 255 233t401 87zM1210 -242
q69 0 132.5 -24t115.5 -70.5t83.5 -122t31.5 -170.5q0 -144 -71.5 -300t-193.5 -286t-267 -204q-20 -9 -40 -5t-33 19l-59 66q-17 19 -16.5 44.5t19.5 47.5q10 11 36.5 36.5t39.5 40t30.5 38.5t25 49.5t7.5 53.5q0 36 -15 67t-31.5 49t-45.5 43q-113 99 -113 258
q0 158 105.5 264t258.5 106z" />
    <glyph glyph-name="Ncaron" unicode="&#x147;" horiz-adv-x="2880" 
d="M1600 3212q43 68 120 68h384q66 0 81.5 -36.5t-29.5 -87.5l-424 -464q-52 -52 -124 -52h-256q-72 0 -124 52l-424 464q-45 51 -29.5 87.5t81.5 36.5h384q77 0 120 -68l120 -200zM2660 2440q48 0 74 -26t26 -74v-2240q0 -48 -26 -74t-74 -26h-272q-74 0 -124 40l-1224 940
v-880q0 -48 -26 -74t-74 -26h-720q-48 0 -74 26t-26 74v2240q0 48 26 74t74 26h272q74 0 124 -40l1224 -948v888q0 48 26 74t74 26h720z" />
    <glyph glyph-name="ncaron" unicode="&#x148;" 
d="M1028 2172l-424 464q-45 51 -29.5 87.5t81.5 36.5h384q77 0 120 -68l120 -200l120 200q43 68 120 68h384q66 0 81.5 -36.5t-29.5 -87.5l-424 -464q-52 -52 -124 -52h-256q-72 0 -124 52zM1656 1960q325 0 474.5 -173.5t149.5 -510.5v-1196q0 -80 -80 -80h-720
q-80 0 -80 80v920q0 140 -42.5 200t-129.5 60q-103 0 -165.5 -77.5t-62.5 -222.5v-880q0 -80 -80 -80h-720q-80 0 -80 80v1760q0 80 80 80h720q80 0 80 -80v-200q89 146 255 233t401 87z" />
    <glyph glyph-name="Eng" unicode="&#x14a;" horiz-adv-x="2880" 
d="M2660 2440q48 0 74 -26t26 -74v-2100q0 -161 -34 -292t-112 -242t-199 -186.5t-303 -117.5t-416 -42q-36 0 -60 24t-24 60v384q0 30 19.5 52t52.5 28q196 36 196 292v135l-840 645v-880q0 -48 -26 -74t-74 -26h-720q-48 0 -74 26t-26 74v2240q0 48 26 74t74 26h272
q74 0 124 -40l1224 -948v888q0 48 26 74t74 26h720z" />
    <glyph glyph-name="eng" unicode="&#x14b;" 
d="M1656 1960q325 0 474.5 -173.5t149.5 -510.5v-1036q0 -161 -34 -292t-112 -242t-199 -186.5t-303 -117.5t-416 -42q-36 0 -60 24t-24 60v384q0 30 19.5 52t52.5 28q196 36 196 292v800q0 140 -42.5 200t-129.5 60q-103 0 -165.5 -77.5t-62.5 -222.5v-880q0 -80 -80 -80
h-720q-80 0 -80 80v1760q0 80 80 80h720q80 0 80 -80v-200q89 146 255 233t401 87z" />
    <glyph glyph-name="Omacron" unicode="&#x14c;" horiz-adv-x="3040" 
d="M800 3076q0 42 29 71t71 29h1240q42 0 71 -29t29 -71v-276q0 -42 -29 -71t-71 -29h-1240q-42 0 -71 29t-29 71v276zM1520 2500q239 0 454.5 -55.5t391.5 -165t304.5 -262.5t199 -357t70.5 -440t-70.5 -440t-199 -357t-304.5 -262.5t-391.5 -165t-454.5 -55.5t-454.5 55.5
t-391.5 165t-304.5 262.5t-199 357t-70.5 440t70.5 440t199 357t304.5 262.5t391.5 165t454.5 55.5zM1520 680q209 0 334.5 149t125.5 391t-125.5 391t-334.5 149t-334.5 -149t-125.5 -391t125.5 -391t334.5 -149z" />
    <glyph glyph-name="omacron" unicode="&#x14d;" horiz-adv-x="2440" 
d="M500 2556q0 42 29 71t71 29h1240q42 0 71 -29t29 -71v-276q0 -42 -29 -71t-71 -29h-1240q-42 0 -71 29t-29 71v276zM1220 1980q185 0 353.5 -40.5t312 -124.5t249 -203.5t165.5 -286.5t60 -365t-60 -365t-165.5 -286.5t-249 -203.5t-312 -124.5t-353.5 -40.5t-353.5 40.5
t-312 124.5t-249 203.5t-165.5 286.5t-60 365t60 365t165.5 286.5t249 203.5t312 124.5t353.5 40.5zM1220 620q107 0 173.5 87.5t66.5 252.5t-66.5 252.5t-173.5 87.5t-173.5 -87.5t-66.5 -252.5t66.5 -252.5t173.5 -87.5z" />
    <glyph glyph-name="Ohungarumlaut" unicode="&#x150;" horiz-adv-x="3040" 
d="M1246 2649q-28 -37 -65.5 -47.5t-73.5 9.5l-172 99q-36 21 -46 64t9 81l372 793q20 38 59.5 48t76.5 -12l308 -175q43 -25 53.5 -63.5t-14.5 -75.5zM1840 2616q-45 -15 -81.5 -1.5t-54.5 49.5l-84 180q-17 40 -1 79t53 61l760 436q39 20 76.5 6t55.5 -54l152 -320
q21 -45 7.5 -83t-55.5 -53zM1520 2500q239 0 454.5 -55.5t391.5 -165t304.5 -262.5t199 -357t70.5 -440t-70.5 -440t-199 -357t-304.5 -262.5t-391.5 -165t-454.5 -55.5t-454.5 55.5t-391.5 165t-304.5 262.5t-199 357t-70.5 440t70.5 440t199 357t304.5 262.5t391.5 165
t454.5 55.5zM1520 680q209 0 334.5 149t125.5 391t-125.5 391t-334.5 149t-334.5 -149t-125.5 -391t125.5 -391t334.5 -149z" />
    <glyph glyph-name="ohungarumlaut" unicode="&#x151;" horiz-adv-x="2440" 
d="M946 2129q-28 -37 -65.5 -47.5t-73.5 9.5l-172 99q-36 21 -46 64t9 81l372 793q20 38 59.5 48t76.5 -12l308 -175q43 -25 53.5 -63.5t-14.5 -75.5zM1540 2096q-45 -15 -81.5 -1.5t-54.5 49.5l-84 180q-17 40 -1 79t53 61l760 436q39 20 76.5 6t55.5 -54l152 -320
q21 -45 7.5 -83t-55.5 -53zM1220 1980q185 0 353.5 -40.5t312 -124.5t249 -203.5t165.5 -286.5t60 -365t-60 -365t-165.5 -286.5t-249 -203.5t-312 -124.5t-353.5 -40.5t-353.5 40.5t-312 124.5t-249 203.5t-165.5 286.5t-60 365t60 365t165.5 286.5t249 203.5t312 124.5
t353.5 40.5zM1220 620q107 0 173.5 87.5t66.5 252.5t-66.5 252.5t-173.5 87.5t-173.5 -87.5t-66.5 -252.5t66.5 -252.5t173.5 -87.5z" />
    <glyph glyph-name="OE" unicode="&#x152;" horiz-adv-x="3875" 
d="M3765 700q80 0 80 -80v-540q0 -80 -80 -80h-1807q-200 -56 -438 -56q-239 0 -454.5 55.5t-391.5 165t-304.5 262.5t-199 357t-70.5 440t70.5 440t199 357t304.5 262.5t391.5 165t454.5 55.5q253 0 466 -64h1739q80 0 80 -80v-540q0 -80 -80 -80h-1013q31 -94 51 -200h802
q80 0 80 -80v-460q0 -80 -80 -80h-800q-19 -115 -56 -220h1056zM1060 1224q0 -242 125.5 -391t334.5 -149t334.5 149t125.5 391t-125.5 391t-334.5 149t-334.5 -149t-125.5 -391z" />
    <glyph glyph-name="oe" unicode="&#x153;" horiz-adv-x="3800" 
d="M3520 496q51 -25 59.5 -60.5t-15.5 -75.5q-36 -74 -119.5 -148t-199 -135t-270 -99t-315.5 -38q-424 0 -712 204q-300 -204 -728 -204q-185 0 -353.5 40.5t-312 124.5t-249 203.5t-165.5 286.5t-60 365t60 365t165.5 286.5t249 203.5t312 124.5t353.5 40.5
q431 0 734 -208q297 208 726 208q171 0 323.5 -41t284.5 -129.5t227.5 -217.5t150 -316.5t54.5 -415.5h-1348q15 -84 49 -145t78 -93.5t89 -47t92 -14.5q95 0 157 25.5t105 84.5q18 24 30 36t27.5 19.5t34 4.5t44.5 -16zM2664 1440q-96 0 -167.5 -55.5t-106.5 -164.5h516
q-63 220 -242 220zM1220 620q107 0 173.5 87.5t66.5 252.5t-66.5 252.5t-173.5 87.5t-173.5 -87.5t-66.5 -252.5t66.5 -252.5t173.5 -87.5z" />
    <glyph glyph-name="Racute" unicode="&#x154;" horiz-adv-x="2541" 
d="M872 2664l-84 180q-17 40 -1 79t53 61l760 436q39 20 76.5 6t55.5 -54l152 -320q21 -45 7.5 -83t-55.5 -53l-828 -300q-45 -15 -81.5 -1.5t-54.5 49.5zM2464 180q35 -68 1.5 -124t-109.5 -56h-724q-24 0 -46.5 14t-33.5 38l-307 652h-205v-624q0 -33 -23.5 -56.5
t-56.5 -23.5h-760q-33 0 -56.5 23.5t-23.5 56.5v2280q0 33 23.5 56.5t56.5 23.5h760h420q246 0 445 -67t328 -184.5t198 -275t69 -341.5q0 -204 -84 -375.5t-243 -289.5zM1040 1780v-416h160q280 0 280 208t-280 208h-160z" />
    <glyph glyph-name="racute" unicode="&#x155;" horiz-adv-x="1560" 
d="M412 2144l-84 180q-17 40 -1 79t53 61l760 436q39 20 76.5 6t55.5 -54l152 -320q21 -45 7.5 -83t-55.5 -53l-828 -300q-45 -15 -81.5 -1.5t-54.5 49.5zM1411 1952q89 0 89 -80v-740q0 -20 -5.5 -34t-17 -22t-22 -12t-27.5 -8q-35 -8 -55 -13.5t-59 -18t-64.5 -24.5
t-61.5 -32.5t-60 -43t-50 -56t-41.5 -71t-26 -87t-10.5 -106.5v-524q0 -80 -80 -80h-720q-80 0 -80 80v1760q0 80 80 80h720q80 0 80 -80v-280q26 92 75.5 168.5t107 124t117 73.5t111.5 26z" />
    <glyph glyph-name="Rcommaaccent" unicode="&#x156;" horiz-adv-x="2541" 
d="M2464 180q35 -68 1.5 -124t-109.5 -56h-724q-24 0 -46.5 14t-33.5 38l-307 652h-205v-624q0 -33 -23.5 -56.5t-56.5 -23.5h-760q-33 0 -56.5 23.5t-23.5 56.5v2280q0 33 23.5 56.5t56.5 23.5h760h420q246 0 445 -67t328 -184.5t198 -275t69 -341.5q0 -204 -84 -375.5
t-243 -289.5zM1040 1780v-416h160q280 0 280 208t-280 208h-160zM1250 -242q69 0 132.5 -24t115.5 -70.5t83.5 -122t31.5 -170.5q0 -144 -71.5 -300t-193.5 -286t-267 -204q-20 -9 -40 -5t-33 19l-59 66q-17 19 -16.5 44.5t19.5 47.5q10 11 36.5 36.5t39.5 40t30.5 38.5
t25 49.5t7.5 53.5q0 36 -15 67t-31.5 49t-45.5 43q-113 99 -113 258q0 158 105.5 264t258.5 106z" />
    <glyph glyph-name="rcommaaccent" unicode="&#x157;" horiz-adv-x="1560" 
d="M1411 1952q89 0 89 -80v-740q0 -20 -5.5 -34t-17 -22t-22 -12t-27.5 -8q-35 -8 -55 -13.5t-59 -18t-64.5 -24.5t-61.5 -32.5t-60 -43t-50 -56t-41.5 -71t-26 -87t-10.5 -106.5v-524q0 -80 -80 -80h-720q-80 0 -80 80v1760q0 80 80 80h720q80 0 80 -80v-280
q26 92 75.5 168.5t107 124t117 73.5t111.5 26zM518 -242q69 0 132.5 -24t115.5 -70.5t83.5 -122t31.5 -170.5q0 -144 -71.5 -300t-193.5 -286t-267 -204q-20 -9 -40 -5t-33 19l-59 66q-17 19 -16.5 44.5t19.5 47.5q10 11 36.5 36.5t39.5 40t30.5 38.5t25 49.5t7.5 53.5
q0 36 -15 67t-31.5 49t-45.5 43q-113 99 -113 258q0 158 105.5 264t258.5 106z" />
    <glyph glyph-name="Rcaron" unicode="&#x158;" horiz-adv-x="2541" 
d="M988 2692l-424 464q-45 51 -29.5 87.5t81.5 36.5h384q77 0 120 -68l120 -200l120 200q43 68 120 68h384q66 0 81.5 -36.5t-29.5 -87.5l-424 -464q-52 -52 -124 -52h-256q-72 0 -124 52zM2464 180q35 -68 1.5 -124t-109.5 -56h-724q-24 0 -46.5 14t-33.5 38l-307 652h-205
v-624q0 -33 -23.5 -56.5t-56.5 -23.5h-760q-33 0 -56.5 23.5t-23.5 56.5v2280q0 33 23.5 56.5t56.5 23.5h760h420q246 0 445 -67t328 -184.5t198 -275t69 -341.5q0 -204 -84 -375.5t-243 -289.5zM1040 1780v-416h160q280 0 280 208t-280 208h-160z" />
    <glyph glyph-name="rcaron" unicode="&#x159;" horiz-adv-x="1560" 
d="M652 2120q-72 0 -124 52l-424 464q-45 51 -29.5 87.5t81.5 36.5h384q77 0 120 -68l120 -200l120 200q43 68 120 68h384q66 0 81.5 -36.5t-29.5 -87.5l-424 -464q-52 -52 -124 -52h-256zM1411 1952q89 0 89 -80v-740q0 -20 -5.5 -34t-17 -22t-22 -12t-27.5 -8
q-35 -8 -55 -13.5t-59 -18t-64.5 -24.5t-61.5 -32.5t-60 -43t-50 -56t-41.5 -71t-26 -87t-10.5 -106.5v-524q0 -80 -80 -80h-720q-80 0 -80 80v1760q0 80 80 80h720q80 0 80 -80v-280q26 92 75.5 168.5t107 124t117 73.5t111.5 26z" />
    <glyph glyph-name="Sacute" unicode="&#x15a;" horiz-adv-x="2356" 
d="M968 2616q-45 -15 -81.5 -1.5t-54.5 49.5l-84 180q-17 40 -1 79t53 61l760 436q39 20 76.5 6t55.5 -54l152 -320q21 -45 7.5 -83t-55.5 -53zM1092 1788q0 -27 40 -50.5t107 -43.5t154.5 -42.5t184 -55.5t193 -74.5t184 -106t154.5 -144.5t107 -195.5t40 -253.5
q0 -147 -45 -273t-126.5 -219.5t-191 -165t-243 -115.5t-278 -66.5t-299.5 -22.5q-261 0 -501 57.5t-420 150.5q-79 48 -40 136l200 440q38 85 121 50q135 -57 206 -83.5t177 -48.5t218 -22q242 0 242 83q0 28 -31 52.5t-84 43t-123.5 41t-150 45t-163.5 57.5t-163.5 76.5
t-150 103.5t-123.5 136t-84 177.5t-31 225.5q0 380 284 599.5t777 219.5q278 0 525.5 -63t365.5 -133q82 -48 44 -132l-178 -388q-20 -44 -57.5 -56.5t-82.5 7.5q-67 29 -109 45t-117.5 41t-152 37t-153.5 12q-117 0 -171.5 -23.5t-54.5 -58.5z" />
    <glyph glyph-name="sacute" unicode="&#x15b;" horiz-adv-x="2057" 
d="M789 2096q-45 -15 -81.5 -1.5t-54.5 49.5l-84 180q-17 40 -1 79t53 61l760 436q39 20 76.5 6t55.5 -54l152 -320q21 -45 7.5 -83t-55.5 -53zM1033 1393q0 -24 26.5 -44.5t71.5 -36t105.5 -34.5t128.5 -38t140 -48.5t140 -63t128.5 -84.5t105.5 -111t71.5 -143.5
t26.5 -181.5q0 -166 -74.5 -294.5t-208.5 -209.5t-313 -122.5t-396 -41.5q-258 0 -497.5 52t-346.5 120q-47 30 -57.5 62t9.5 70l156 336q13 28 29.5 44.5t34.5 19.5t35 0t37 -12q148 -67 256.5 -97.5t239.5 -30.5q156 0 156 59q0 25 -31 46.5t-83 40t-120 38t-143 45.5
t-150 58.5t-143 82t-120 110t-83 148t-31 192.5q0 201 110 349.5t314 227.5t478 79q243 0 473 -57t345 -135q45 -30 56 -57.5t-8 -74.5l-132 -288q-45 -98 -132 -52q-46 24 -75.5 37.5t-96.5 40t-141.5 40.5t-150.5 14q-140 0 -140 -55z" />
    <glyph glyph-name="Scedilla" unicode="&#x15e;" horiz-adv-x="2356" 
d="M2256 822q0 -149 -46.5 -276t-128 -220.5t-196 -165t-246.5 -115.5t-283 -65l-52 -100q211 24 337.5 -67t126.5 -273q0 -138 -76.5 -234t-203 -141t-292.5 -45q-93 0 -165 16.5t-147 55.5q-76 47 -48 132l16 52q30 94 132 56q70 -32 132 -32q66 0 109 33.5t43 94.5
q0 32 -11.5 54.5t-34.5 34.5t-46.5 19t-60.5 7t-62 -1.5t-65 -5.5q-70 -6 -95 17.5t-1 78.5l101 229q-238 9 -456.5 65.5t-384.5 141.5q-79 48 -40 136l200 440q38 85 121 50q135 -57 206 -83.5t177 -48.5t218 -22q242 0 242 83q0 28 -31 52.5t-84 43t-123.5 41t-150 45
t-163.5 57.5t-163.5 76.5t-150 103.5t-123.5 136t-84 177.5t-31 225.5q0 380 284 599.5t777 219.5q278 0 525.5 -63t365.5 -133q82 -48 44 -132l-178 -388q-20 -44 -57.5 -56.5t-82.5 7.5q-67 29 -109 45t-117.5 41t-152 37t-153.5 12q-117 0 -171.5 -23.5t-54.5 -58.5
q0 -27 40 -50.5t107 -43.5t154.5 -42.5t184 -55.5t193 -74.5t184 -106t154.5 -144.5t107 -195.5t40 -253.5z" />
    <glyph glyph-name="scedilla" unicode="&#x15f;" horiz-adv-x="2057" 
d="M1977 608q0 -144 -56.5 -260.5t-160 -197t-244 -130.5t-314.5 -69l-37 -71q211 24 337.5 -67t126.5 -273q0 -138 -76.5 -234t-203 -141t-292.5 -45q-93 0 -165 16.5t-147 55.5q-76 47 -48 132l16 52q30 94 132 56q70 -32 132 -32q66 0 109 33.5t43 94.5q0 32 -11.5 54.5
t-34.5 34.5t-46.5 19t-60.5 7t-62 -1.5t-65 -5.5q-70 -6 -95 17.5t-1 78.5l94 212q-224 13 -419 61t-287 107q-47 30 -57.5 62t9.5 70l156 336q13 28 29.5 44.5t34.5 19.5t35 0t37 -12q148 -67 256.5 -97.5t239.5 -30.5q156 0 156 59q0 25 -31 46.5t-83 40t-120 38
t-143 45.5t-150 58.5t-143 82t-120 110t-83 148t-31 192.5q0 201 110 349.5t314 227.5t478 79q243 0 473 -57t345 -135q45 -30 56 -57.5t-8 -74.5l-132 -288q-45 -98 -132 -52q-46 24 -75.5 37.5t-96.5 40t-141.5 40.5t-150.5 14q-140 0 -140 -55q0 -24 26.5 -44.5t71.5 -36
t105.5 -34.5t128.5 -38t140 -48.5t140 -63t128.5 -84.5t105.5 -111t71.5 -143.5t26.5 -181.5z" />
    <glyph glyph-name="Scaron" unicode="&#x160;" horiz-adv-x="2356" 
d="M1320 3212q43 68 120 68h384q66 0 81.5 -36.5t-29.5 -87.5l-424 -464q-52 -52 -124 -52h-256q-72 0 -124 52l-424 464q-45 51 -29.5 87.5t81.5 36.5h384q77 0 120 -68l120 -200zM1092 1788q0 -27 40 -50.5t107 -43.5t154.5 -42.5t184 -55.5t193 -74.5t184 -106
t154.5 -144.5t107 -195.5t40 -253.5q0 -147 -45 -273t-126.5 -219.5t-191 -165t-243 -115.5t-278 -66.5t-299.5 -22.5q-261 0 -501 57.5t-420 150.5q-79 48 -40 136l200 440q38 85 121 50q135 -57 206 -83.5t177 -48.5t218 -22q242 0 242 83q0 28 -31 52.5t-84 43t-123.5 41
t-150 45t-163.5 57.5t-163.5 76.5t-150 103.5t-123.5 136t-84 177.5t-31 225.5q0 380 284 599.5t777 219.5q278 0 525.5 -63t365.5 -133q82 -48 44 -132l-178 -388q-20 -44 -57.5 -56.5t-82.5 7.5q-67 29 -109 45t-117.5 41t-152 37t-153.5 12q-117 0 -171.5 -23.5
t-54.5 -58.5z" />
    <glyph glyph-name="scaron" unicode="&#x161;" horiz-adv-x="2057" 
d="M1141 2692q43 68 120 68h384q66 0 81.5 -36.5t-29.5 -87.5l-424 -464q-52 -52 -124 -52h-256q-72 0 -124 52l-424 464q-45 51 -29.5 87.5t81.5 36.5h384q77 0 120 -68l120 -200zM1033 1393q0 -24 26.5 -44.5t71.5 -36t105.5 -34.5t128.5 -38t140 -48.5t140 -63
t128.5 -84.5t105.5 -111t71.5 -143.5t26.5 -181.5q0 -166 -74.5 -294.5t-208.5 -209.5t-313 -122.5t-396 -41.5q-258 0 -497.5 52t-346.5 120q-47 30 -57.5 62t9.5 70l156 336q13 28 29.5 44.5t34.5 19.5t35 0t37 -12q148 -67 256.5 -97.5t239.5 -30.5q156 0 156 59
q0 25 -31 46.5t-83 40t-120 38t-143 45.5t-150 58.5t-143 82t-120 110t-83 148t-31 192.5q0 201 110 349.5t314 227.5t478 79q243 0 473 -57t345 -135q45 -30 56 -57.5t-8 -74.5l-132 -288q-45 -98 -132 -52q-46 24 -75.5 37.5t-96.5 40t-141.5 40.5t-150.5 14
q-140 0 -140 -55z" />
    <glyph glyph-name="uni0162" unicode="&#x162;" horiz-adv-x="2520" 
d="M2380 2440q33 0 56.5 -23.5t23.5 -56.5v-580q0 -33 -23.5 -56.5t-56.5 -23.5h-660v-1620q0 -33 -23.5 -56.5t-56.5 -23.5h-173l-63 -120q211 24 337.5 -67t126.5 -273q0 -138 -76.5 -234t-203 -141t-292.5 -45q-93 0 -165 16.5t-147 55.5q-76 47 -48 132l16 52
q30 94 132 56q70 -32 132 -32q66 0 109 33.5t43 94.5q0 32 -11.5 54.5t-34.5 34.5t-46.5 19t-60.5 7t-62 -1.5t-65 -5.5q-70 -6 -95 17.5t-1 78.5l118 268h-230q-33 0 -56.5 23.5t-23.5 56.5v1620h-660q-33 0 -56.5 23.5t-23.5 56.5v580q0 33 23.5 56.5t56.5 23.5h1500h740z
" />
    <glyph glyph-name="uni0163" unicode="&#x163;" horiz-adv-x="1928" 
d="M1886 272q36 -85 -40 -132q-148 -87 -290.5 -135.5t-323.5 -60.5l-34 -64q211 24 337.5 -67t126.5 -273q0 -138 -76.5 -234t-203 -141t-292.5 -45q-93 0 -165 16.5t-147 55.5q-76 47 -48 132l16 52q30 94 132 56q70 -32 132 -32q66 0 109 33.5t43 94.5q0 32 -11.5 54.5
t-34.5 34.5t-46.5 19t-60.5 7t-62 -1.5t-65 -5.5q-70 -6 -95 17.5t-1 78.5l102 232q-252 55 -405 228.5t-153 427.5v640h-180q-48 0 -74 26t-26 74v460q0 48 26 74t74 26h180v220q0 90 100 120l668 196q48 14 80 -3t32 -63v-470h476q48 0 74 -26t26 -74v-460q0 -48 -26 -74
t-74 -26h-476v-400q0 -260 180 -260q93 0 200 60q95 50 136 -44z" />
    <glyph glyph-name="Tcaron" unicode="&#x164;" horiz-adv-x="2520" 
d="M1008 2692l-424 464q-45 51 -29.5 87.5t81.5 36.5h384q77 0 120 -68l120 -200l120 200q43 68 120 68h384q66 0 81.5 -36.5t-29.5 -87.5l-424 -464q-52 -52 -124 -52h-256q-72 0 -124 52zM2380 2440q33 0 56.5 -23.5t23.5 -56.5v-580q0 -33 -23.5 -56.5t-56.5 -23.5h-660
v-1620q0 -33 -23.5 -56.5t-56.5 -23.5h-760q-33 0 -56.5 23.5t-23.5 56.5v1620h-660q-33 0 -56.5 23.5t-23.5 56.5v580q0 33 23.5 56.5t56.5 23.5h1500h740z" />
    <glyph glyph-name="tcaron" unicode="&#x165;" horiz-adv-x="2569" 
d="M2206 2618q69 0 132.5 -24t115.5 -70.5t83.5 -122t31.5 -170.5q0 -144 -71.5 -300t-193.5 -286t-267 -204q-20 -9 -40 -5t-33 19l-59 66q-17 19 -16.5 44.5t19.5 47.5q10 11 36.5 36.5t39.5 40t30.5 38.5t25 49.5t7.5 53.5q0 36 -15 67t-31.5 49t-45.5 43
q-113 99 -113 258q0 158 105.5 264t258.5 106zM1726 616l160 -344q36 -85 -40 -132q-170 -100 -338 -150t-398 -50q-220 0 -396.5 81.5t-280 237.5t-103.5 361v640h-180q-48 0 -74 26t-26 74v460q0 48 26 74t74 26h180v220q0 90 100 120l668 196q48 14 80 -3t32 -63v-470
h476q48 0 74 -26t26 -74v-460q0 -48 -26 -74t-74 -26h-476v-400q0 -260 180 -260q93 0 200 60q95 50 136 -44z" />
    <glyph glyph-name="Tbar" unicode="&#x166;" horiz-adv-x="2420" 
d="M2380 2440q33 0 56.5 -23.5t23.5 -56.5v-580q0 -33 -23.5 -56.5t-56.5 -23.5h-660v-220h178q48 0 74 -26t26 -74v-300q0 -48 -26 -74t-74 -26h-178v-900q0 -33 -23.5 -56.5t-56.5 -23.5h-760q-33 0 -56.5 23.5t-23.5 56.5v900h-278q-48 0 -74 26t-26 74v300q0 48 26 74
t74 26h278v220h-660q-33 0 -56.5 23.5t-23.5 56.5v580q0 33 23.5 56.5t56.5 23.5h1500h740z" />
    <glyph glyph-name="tbar" unicode="&#x167;" horiz-adv-x="1928" 
d="M1886 272q36 -85 -40 -132q-170 -100 -338 -150t-398 -50q-220 0 -396.5 81.5t-280 237.5t-103.5 361v232h-180q-48 0 -74 26t-26 74v100q0 48 26 74t74 26h180v108h-180q-48 0 -74 26t-26 74v460q0 48 26 74t74 26h180v220q0 90 100 120l668 196q48 14 80 -3t32 -63
v-470h476q48 0 74 -26t26 -74v-460q0 -48 -26 -74t-74 -26h-476v-108h316q48 0 74 -26t26 -74v-100q0 -48 -26 -74t-74 -26h-316q3 -252 180 -252q93 0 200 60q95 50 136 -44z" />
    <glyph glyph-name="Umacron" unicode="&#x16a;" horiz-adv-x="2840" 
d="M800 2700q-42 0 -71 29t-29 71v276q0 42 29 71t71 29h1240q42 0 71 -29t29 -71v-276q0 -42 -29 -71t-71 -29h-1240zM2640 2440q33 0 56.5 -23.5t23.5 -56.5v-1320q0 -218 -64.5 -396t-180 -304t-278.5 -212t-357.5 -127t-419.5 -41t-419.5 41t-357.5 127t-278.5 212
t-180 304t-64.5 396v1320q0 33 23.5 56.5t56.5 23.5h760q33 0 56.5 -23.5t23.5 -56.5v-1120q0 -261 94.5 -400.5t285.5 -139.5t285.5 139.5t94.5 400.5v1120q0 33 23.5 56.5t56.5 23.5h760z" />
    <glyph glyph-name="umacron" unicode="&#x16b;" 
d="M580 2180q-42 0 -71 29t-29 71v276q0 42 29 71t71 29h1240q42 0 71 -29t29 -71v-276q0 -42 -29 -71t-71 -29h-1240zM2200 1920q80 0 80 -80v-1760q0 -80 -80 -80h-720q-80 0 -80 80v200q-89 -146 -255 -233t-401 -87q-325 0 -474.5 173.5t-149.5 510.5v1196q0 80 80 80
h720q80 0 80 -80v-920q0 -140 42.5 -200t129.5 -60q103 0 165.5 77.5t62.5 222.5v880q0 80 80 80h720z" />
    <glyph glyph-name="Uring" unicode="&#x16e;" horiz-adv-x="2840" 
d="M1420 2426q-160 0 -300.5 76.5t-225 211t-84.5 292.5q0 159 84.5 294.5t225 213.5t300.5 78t300.5 -78t225 -213.5t84.5 -294.5q0 -158 -84.5 -292.5t-225 -211t-300.5 -76.5zM1420 3190q-75 0 -124.5 -54.5t-49.5 -129.5q0 -74 49.5 -126.5t124.5 -52.5t124.5 52.5
t49.5 126.5q0 75 -49.5 129.5t-124.5 54.5zM2640 2440q33 0 56.5 -23.5t23.5 -56.5v-1320q0 -218 -64.5 -396t-180 -304t-278.5 -212t-357.5 -127t-419.5 -41t-419.5 41t-357.5 127t-278.5 212t-180 304t-64.5 396v1320q0 33 23.5 56.5t56.5 23.5h760q33 0 56.5 -23.5
t23.5 -56.5v-1120q0 -261 94.5 -400.5t285.5 -139.5t285.5 139.5t94.5 400.5v1120q0 33 23.5 56.5t56.5 23.5h760z" />
    <glyph glyph-name="uring" unicode="&#x16f;" 
d="M1200 1906q-160 0 -300.5 76.5t-225 211t-84.5 292.5q0 159 84.5 294.5t225 213.5t300.5 78t300.5 -78t225 -213.5t84.5 -294.5q0 -158 -84.5 -292.5t-225 -211t-300.5 -76.5zM1200 2670q-75 0 -124.5 -54.5t-49.5 -129.5q0 -74 49.5 -126.5t124.5 -52.5t124.5 52.5
t49.5 126.5q0 75 -49.5 129.5t-124.5 54.5zM2200 1920q80 0 80 -80v-1760q0 -80 -80 -80h-720q-80 0 -80 80v200q-89 -146 -255 -233t-401 -87q-325 0 -474.5 173.5t-149.5 510.5v1196q0 80 80 80h720q80 0 80 -80v-920q0 -140 42.5 -200t129.5 -60q103 0 165.5 77.5
t62.5 222.5v880q0 80 80 80h720z" />
    <glyph glyph-name="Uhungarumlaut" unicode="&#x170;" horiz-adv-x="2840" 
d="M835 2710q-36 21 -46 64t9 81l372 793q20 38 59.5 48t76.5 -12l308 -175q43 -25 53.5 -63.5t-14.5 -75.5l-507 -721q-28 -37 -65.5 -47.5t-73.5 9.5zM1520 2844q-17 40 -1 79t53 61l760 436q39 20 76.5 6t55.5 -54l152 -320q21 -45 7.5 -83t-55.5 -53l-828 -300
q-45 -15 -81.5 -1.5t-54.5 49.5zM2640 2440q33 0 56.5 -23.5t23.5 -56.5v-1320q0 -218 -64.5 -396t-180 -304t-278.5 -212t-357.5 -127t-419.5 -41t-419.5 41t-357.5 127t-278.5 212t-180 304t-64.5 396v1320q0 33 23.5 56.5t56.5 23.5h760q33 0 56.5 -23.5t23.5 -56.5
v-1120q0 -261 94.5 -400.5t285.5 -139.5t285.5 139.5t94.5 400.5v1120q0 33 23.5 56.5t56.5 23.5h760z" />
    <glyph glyph-name="uhungarumlaut" unicode="&#x171;" 
d="M615 2190q-36 21 -46 64t9 81l372 793q20 38 59.5 48t76.5 -12l308 -175q43 -25 53.5 -63.5t-14.5 -75.5l-507 -721q-28 -37 -65.5 -47.5t-73.5 9.5zM2396 2532q21 -45 7.5 -83t-55.5 -53l-828 -300q-45 -15 -81.5 -1.5t-54.5 49.5l-84 180q-17 40 -1 79t53 61l760 436
q39 20 76.5 6t55.5 -54zM2200 1920q80 0 80 -80v-1760q0 -80 -80 -80h-720q-80 0 -80 80v200q-89 -146 -255 -233t-401 -87q-325 0 -474.5 173.5t-149.5 510.5v1196q0 80 80 80h720q80 0 80 -80v-920q0 -140 42.5 -200t129.5 -60q103 0 165.5 77.5t62.5 222.5v880
q0 80 80 80h720z" />
    <glyph glyph-name="Uogonek" unicode="&#x172;" horiz-adv-x="2840" 
d="M2640 2440q33 0 56.5 -23.5t23.5 -56.5v-1320q0 -227 -69 -411t-196.5 -312t-299 -210.5t-385.5 -118.5q-74 -52 -122 -131.5t-48 -148.5q0 -108 116 -108q36 0 84 12q42 9 65 -8.5t23 -59.5v-264q0 -69 -68 -100q-66 -29 -136 -44.5t-184 -15.5q-129 0 -239.5 51
t-179.5 149t-69 224q0 247 185 427q-190 19 -352.5 71t-297 141.5t-229 211t-146.5 285.5t-52 360v1320q0 33 23.5 56.5t56.5 23.5h760q33 0 56.5 -23.5t23.5 -56.5v-1120q0 -261 94.5 -400.5t285.5 -139.5t285.5 139.5t94.5 400.5v1120q0 33 23.5 56.5t56.5 23.5h760z" />
    <glyph glyph-name="uogonek" unicode="&#x173;" 
d="M2200 1920q80 0 80 -80v-1760q0 -80 -80 -80h-339q-80 -51 -134 -135t-54 -157q0 -108 116 -108q36 0 84 12q42 9 65 -8.5t23 -59.5v-264q0 -69 -68 -100q-66 -29 -136 -44.5t-184 -15.5q-129 0 -239.5 51t-179.5 149t-69 224q0 163 84 301t231 226v9v200
q-89 -146 -255 -233t-401 -87q-325 0 -474.5 173.5t-149.5 510.5v1196q0 80 80 80h720q80 0 80 -80v-920q0 -140 42.5 -200t129.5 -60q103 0 165.5 77.5t62.5 222.5v880q0 80 80 80h720z" />
    <glyph glyph-name="Wcircumflex" unicode="&#x174;" horiz-adv-x="3794" 
d="M1285 2640q-66 0 -81.5 36.5t29.5 87.5l424 464q52 52 124 52h256q72 0 124 -52l424 -464q45 -51 29.5 -87.5t-81.5 -36.5h-384q-77 0 -120 68l-120 200l-120 -200q-43 -68 -120 -68h-384zM3709 2440q54 0 74 -30.5t2 -85.5l-716 -2248q-23 -76 -116 -76h-564
q-93 0 -116 76l-376 1192l-376 -1192q-23 -76 -116 -76h-564q-93 0 -116 76l-716 2248q-18 55 2 85.5t74 30.5h764q92 0 112 -80l268 -1080l296 920q12 38 42.5 59t73.5 21h536q43 0 73.5 -21t42.5 -59l272 -920l308 1080q24 80 112 80h724z" />
    <glyph glyph-name="wcircumflex" unicode="&#x175;" horiz-adv-x="3332" 
d="M1042 2120q-66 0 -81.5 36.5t29.5 87.5l424 464q52 52 124 52h256q72 0 124 -52l424 -464q45 -51 29.5 -87.5t-81.5 -36.5h-384q-77 0 -120 68l-120 200l-120 -200q-43 -68 -120 -68h-384zM3210 1920q68 0 102 -51.5t10 -116.5l-620 -1672q-31 -80 -112 -80h-472
q-84 0 -114 76l-338 836l-336 -836q-29 -76 -116 -76h-472q-81 0 -112 80l-620 1672q-24 65 10 116.5t102 51.5h708q33 0 55.5 -16.5t28.5 -43.5l204 -716l188 572q24 76 120 76h480q96 0 120 -76l188 -572l204 716q6 27 28.5 43.5t55.5 16.5h708z" />
    <glyph glyph-name="Ycircumflex" unicode="&#x176;" horiz-adv-x="2793" 
d="M783 2640q-66 0 -81.5 36.5t29.5 87.5l424 464q52 52 124 52h256q72 0 124 -52l424 -464q45 -51 29.5 -87.5t-81.5 -36.5h-384q-77 0 -120 68l-120 200l-120 -200q-43 -68 -120 -68h-384zM2703 2440q55 0 78.5 -34t-2.5 -82l-912 -1573v-671q0 -33 -23.5 -56.5
t-56.5 -23.5h-760q-33 0 -56.5 23.5t-23.5 56.5v676l-932 1568q-28 48 -4 82t80 34h796q68 0 112 -80l448 -840l404 840q16 35 46 57.5t70 22.5h736z" />
    <glyph glyph-name="ycircumflex" unicode="&#x177;" horiz-adv-x="2402" 
d="M538 2120q-66 0 -81.5 36.5t29.5 87.5l424 464q52 52 124 52h256q72 0 124 -52l424 -464q45 -51 29.5 -87.5t-81.5 -36.5h-384q-77 0 -120 68l-120 200l-120 -200q-43 -68 -120 -68h-384zM2278 1920q69 0 105 -52t6 -116l-679 -1426q-90 -190 -170.5 -325.5
t-176.5 -248.5t-198.5 -183.5t-236 -119.5t-289.5 -69t-358 -20q-36 0 -60 24t-24 60v454q0 71 72 80q172 22 275 84t207 219l-737 1471q-31 62 5.5 115t106.5 53h752q59 0 85 -60l261 -608l258 608q25 60 84 60h712z" />
    <glyph glyph-name="Ydieresis" unicode="&#x178;" horiz-adv-x="2793" 
d="M936 2647q-151 0 -256.5 105.5t-105.5 256.5t105.5 256.5t256.5 105.5q150 0 256 -105.5t106 -256.5t-106 -256.5t-256 -105.5zM1876 2647q-151 0 -256.5 105.5t-105.5 256.5t105.5 256.5t256.5 105.5q150 0 256 -105.5t106 -256.5t-106 -256.5t-256 -105.5zM2703 2440
q55 0 78.5 -34t-2.5 -82l-912 -1573v-671q0 -33 -23.5 -56.5t-56.5 -23.5h-760q-33 0 -56.5 23.5t-23.5 56.5v676l-932 1568q-28 48 -4 82t80 34h796q68 0 112 -80l448 -840l404 840q16 35 46 57.5t70 22.5h736z" />
    <glyph glyph-name="Zacute" unicode="&#x179;" horiz-adv-x="2630" 
d="M1118 2616q-45 -15 -81.5 -1.5t-54.5 49.5l-84 180q-17 40 -1 79t53 61l760 436q39 20 76.5 6t55.5 -54l152 -320q21 -45 7.5 -83t-55.5 -53zM130 0q-48 0 -74 26t-26 74v192q0 70 44 124l1056 1284h-920q-33 0 -56.5 23.5t-23.5 56.5v580q0 33 23.5 56.5t56.5 23.5h2220
q48 0 74 -26t26 -74v-192q0 -74 -40 -124l-1040 -1284h1020q33 0 56.5 -23.5t23.5 -56.5v-580q0 -33 -23.5 -56.5t-56.5 -23.5h-2340z" />
    <glyph glyph-name="zacute" unicode="&#x17a;" horiz-adv-x="2210" 
d="M910 2096q-45 -15 -81.5 -1.5t-54.5 49.5l-84 180q-17 40 -1 79t53 61l760 436q39 20 76.5 6t55.5 -54l152 -320q21 -45 7.5 -83t-55.5 -53zM130 0q-48 0 -74 26t-26 74v52q0 69 40 124l716 964h-536q-33 0 -56.5 23.5t-23.5 56.5v520q0 33 23.5 56.5t56.5 23.5h1760
q48 0 74 -26t26 -74v-52q0 -67 -40 -124l-760 -1004h700q33 0 56.5 -23.5t23.5 -56.5v-480q0 -33 -23.5 -56.5t-56.5 -23.5h-1880z" />
    <glyph glyph-name="Zdotaccent" unicode="&#x17b;" horiz-adv-x="2630" 
d="M1350 2568q-183 0 -311.5 128.5t-128.5 311.5t128.5 311.5t311.5 128.5t311.5 -128.5t128.5 -311.5t-128.5 -311.5t-311.5 -128.5zM130 0q-48 0 -74 26t-26 74v192q0 70 44 124l1056 1284h-920q-33 0 -56.5 23.5t-23.5 56.5v580q0 33 23.5 56.5t56.5 23.5h2220
q48 0 74 -26t26 -74v-192q0 -74 -40 -124l-1040 -1284h1020q33 0 56.5 -23.5t23.5 -56.5v-580q0 -33 -23.5 -56.5t-56.5 -23.5h-2340z" />
    <glyph glyph-name="zdotaccent" unicode="&#x17c;" horiz-adv-x="2210" 
d="M1142 2048q-183 0 -311.5 128.5t-128.5 311.5t128.5 311.5t311.5 128.5t311.5 -128.5t128.5 -311.5t-128.5 -311.5t-311.5 -128.5zM130 0q-48 0 -74 26t-26 74v52q0 69 40 124l716 964h-536q-33 0 -56.5 23.5t-23.5 56.5v520q0 33 23.5 56.5t56.5 23.5h1760q48 0 74 -26
t26 -74v-52q0 -67 -40 -124l-760 -1004h700q33 0 56.5 -23.5t23.5 -56.5v-480q0 -33 -23.5 -56.5t-56.5 -23.5h-1880z" />
    <glyph glyph-name="Zcaron" unicode="&#x17d;" horiz-adv-x="2630" 
d="M1470 3212q43 68 120 68h384q66 0 81.5 -36.5t-29.5 -87.5l-424 -464q-52 -52 -124 -52h-256q-72 0 -124 52l-424 464q-45 51 -29.5 87.5t81.5 36.5h384q77 0 120 -68l120 -200zM130 0q-48 0 -74 26t-26 74v192q0 70 44 124l1056 1284h-920q-33 0 -56.5 23.5t-23.5 56.5
v580q0 33 23.5 56.5t56.5 23.5h2220q48 0 74 -26t26 -74v-192q0 -74 -40 -124l-1040 -1284h1020q33 0 56.5 -23.5t23.5 -56.5v-580q0 -33 -23.5 -56.5t-56.5 -23.5h-2340z" />
    <glyph glyph-name="zcaron" unicode="&#x17e;" horiz-adv-x="2210" 
d="M1262 2692q43 68 120 68h384q66 0 81.5 -36.5t-29.5 -87.5l-424 -464q-52 -52 -124 -52h-256q-72 0 -124 52l-424 464q-45 51 -29.5 87.5t81.5 36.5h384q77 0 120 -68l120 -200zM130 0q-48 0 -74 26t-26 74v52q0 69 40 124l716 964h-536q-33 0 -56.5 23.5t-23.5 56.5v520
q0 33 23.5 56.5t56.5 23.5h1760q48 0 74 -26t26 -74v-52q0 -67 -40 -124l-760 -1004h700q33 0 56.5 -23.5t23.5 -56.5v-480q0 -33 -23.5 -56.5t-56.5 -23.5h-1880z" />
    <glyph glyph-name="Scommaaccent" unicode="&#x218;" horiz-adv-x="2356" 
d="M1092 1788q0 -27 40 -50.5t107 -43.5t154.5 -42.5t184 -55.5t193 -74.5t184 -106t154.5 -144.5t107 -195.5t40 -253.5q0 -147 -45 -273t-126.5 -219.5t-191 -165t-243 -115.5t-278 -66.5t-299.5 -22.5q-261 0 -501 57.5t-420 150.5q-79 48 -40 136l200 440q38 85 121 50
q135 -57 206 -83.5t177 -48.5t218 -22q242 0 242 83q0 28 -31 52.5t-84 43t-123.5 41t-150 45t-163.5 57.5t-163.5 76.5t-150 103.5t-123.5 136t-84 177.5t-31 225.5q0 380 284 599.5t777 219.5q278 0 525.5 -63t365.5 -133q82 -48 44 -132l-178 -388q-20 -44 -57.5 -56.5
t-82.5 7.5q-67 29 -109 45t-117.5 41t-152 37t-153.5 12q-117 0 -171.5 -23.5t-54.5 -58.5zM1170 -242q69 0 132.5 -24t115.5 -70.5t83.5 -122t31.5 -170.5q0 -144 -71.5 -300t-193.5 -286t-267 -204q-20 -9 -40 -5t-33 19l-59 66q-17 19 -16.5 44.5t19.5 47.5
q10 11 36.5 36.5t39.5 40t30.5 38.5t25 49.5t7.5 53.5q0 36 -15 67t-31.5 49t-45.5 43q-113 99 -113 258q0 158 105.5 264t258.5 106z" />
    <glyph glyph-name="scommaaccent" unicode="&#x219;" horiz-adv-x="2057" 
d="M1033 1393q0 -24 26.5 -44.5t71.5 -36t105.5 -34.5t128.5 -38t140 -48.5t140 -63t128.5 -84.5t105.5 -111t71.5 -143.5t26.5 -181.5q0 -166 -74.5 -294.5t-208.5 -209.5t-313 -122.5t-396 -41.5q-258 0 -497.5 52t-346.5 120q-47 30 -57.5 62t9.5 70l156 336
q13 28 29.5 44.5t34.5 19.5t35 0t37 -12q148 -67 256.5 -97.5t239.5 -30.5q156 0 156 59q0 25 -31 46.5t-83 40t-120 38t-143 45.5t-150 58.5t-143 82t-120 110t-83 148t-31 192.5q0 201 110 349.5t314 227.5t478 79q243 0 473 -57t345 -135q45 -30 56 -57.5t-8 -74.5
l-132 -288q-45 -98 -132 -52q-46 24 -75.5 37.5t-96.5 40t-141.5 40.5t-150.5 14q-140 0 -140 -55zM1031 -242q69 0 132.5 -24t115.5 -70.5t83.5 -122t31.5 -170.5q0 -144 -71.5 -300t-193.5 -286t-267 -204q-20 -9 -40 -5t-33 19l-59 66q-17 19 -16.5 44.5t19.5 47.5
q10 11 36.5 36.5t39.5 40t30.5 38.5t25 49.5t7.5 53.5q0 36 -15 67t-31.5 49t-45.5 43q-113 99 -113 258q0 158 105.5 264t258.5 106z" />
    <glyph glyph-name="uni021A" unicode="&#x21a;" horiz-adv-x="2520" 
d="M2380 2440q33 0 56.5 -23.5t23.5 -56.5v-580q0 -33 -23.5 -56.5t-56.5 -23.5h-660v-1620q0 -33 -23.5 -56.5t-56.5 -23.5h-760q-33 0 -56.5 23.5t-23.5 56.5v1620h-660q-33 0 -56.5 23.5t-23.5 56.5v580q0 33 23.5 56.5t56.5 23.5h1500h740zM1270 -242q69 0 132.5 -24
t115.5 -70.5t83.5 -122t31.5 -170.5q0 -144 -71.5 -300t-193.5 -286t-267 -204q-20 -9 -40 -5t-33 19l-59 66q-17 19 -16.5 44.5t19.5 47.5q10 11 36.5 36.5t39.5 40t30.5 38.5t25 49.5t7.5 53.5q0 36 -15 67t-31.5 49t-45.5 43q-113 99 -113 258q0 158 105.5 264t258.5 106
z" />
    <glyph glyph-name="uni021B" unicode="&#x21b;" horiz-adv-x="1928" 
d="M1886 272q36 -85 -40 -132q-170 -100 -338 -150t-398 -50q-220 0 -396.5 81.5t-280 237.5t-103.5 361v640h-180q-48 0 -74 26t-26 74v460q0 48 26 74t74 26h180v220q0 90 100 120l668 196q48 14 80 -3t32 -63v-470h476q48 0 74 -26t26 -74v-460q0 -48 -26 -74t-74 -26
h-476v-400q0 -260 180 -260q93 0 200 60q95 50 136 -44zM1064 -242q69 0 132.5 -24t115.5 -70.5t83.5 -122t31.5 -170.5q0 -144 -71.5 -300t-193.5 -286t-267 -204q-20 -9 -40 -5t-33 19l-59 66q-17 19 -16.5 44.5t19.5 47.5q10 11 36.5 36.5t39.5 40t30.5 38.5t25 49.5
t7.5 53.5q0 36 -15 67t-31.5 49t-45.5 43q-113 99 -113 258q0 158 105.5 264t258.5 106z" />
    <glyph glyph-name="circumflex" unicode="&#x2c6;" horiz-adv-x="1424" 
d="M832 2188l-120 200l-120 -200q-43 -68 -120 -68h-384q-66 0 -81.5 36.5t29.5 87.5l424 464q52 52 124 52h256q72 0 124 -52l424 -464q45 -51 29.5 -87.5t-81.5 -36.5h-384q-77 0 -120 68z" />
    <glyph glyph-name="caron" unicode="&#x2c7;" horiz-adv-x="1424" 
d="M832 2692q43 68 120 68h384q66 0 81.5 -36.5t-29.5 -87.5l-424 -464q-52 -52 -124 -52h-256q-72 0 -124 52l-424 464q-45 51 -29.5 87.5t81.5 36.5h384q77 0 120 -68l120 -200z" />
    <glyph glyph-name="breve" unicode="&#x2d8;" 
d="M1352 2800q96 0 96 -92q0 -122 -55 -236.5t-149.5 -201t-231.5 -138.5t-292 -52q-123 0 -236 32.5t-200.5 90t-153 134t-100 168t-34.5 187.5q0 108 92 108h248q94 0 116 -76q32 -111 96 -157.5t172 -46.5q109 0 172.5 45.5t95.5 158.5q22 76 116 76h248z" />
    <glyph glyph-name="dotaccent" unicode="&#x2d9;" horiz-adv-x="1120" 
d="M560 2048q-183 0 -311.5 128.5t-128.5 311.5t128.5 311.5t311.5 128.5t311.5 -128.5t128.5 -311.5t-128.5 -311.5t-311.5 -128.5z" />
    <glyph glyph-name="ring" unicode="&#x2da;" horiz-adv-x="1112" 
d="M556 1906q-160 0 -300.5 76.5t-225 211t-84.5 292.5q0 159 84.5 294.5t225 213.5t300.5 78t300.5 -78t225 -213.5t84.5 -294.5q0 -158 -84.5 -292.5t-225 -211t-300.5 -76.5zM556 2307q75 0 124.5 52.5t49.5 126.5q0 75 -49.5 129.5t-124.5 54.5t-124.5 -54.5
t-49.5 -129.5q0 -74 49.5 -126.5t124.5 -52.5z" />
    <glyph glyph-name="ogonek" unicode="&#x2db;" horiz-adv-x="796" 
d="M488 -880q-129 0 -239.5 51t-179.5 149t-69 224q0 192 115.5 347.5t310.5 234.5l350 -126q-80 -51 -134 -135t-54 -157q0 -108 116 -108q36 0 84 12q42 9 65 -8.5t23 -59.5v-264q0 -69 -68 -100q-66 -29 -136 -44.5t-184 -15.5z" />
    <glyph glyph-name="tilde" unicode="&#x2dc;" 
d="M1496 2800q50 0 77.5 -42.5t18.5 -117.5q-35 -257 -172 -390.5t-332 -133.5q-85 0 -155 21.5t-115 52t-85 61t-85.5 52t-95.5 21.5q-66 0 -116 -34.5t-72 -85.5q-20 -46 -43 -67t-65 -21h-112q-49 0 -76 27t-24 77q12 138 56.5 249t112.5 182.5t154.5 110t184.5 38.5
q85 0 155 -21.5t115 -52t85 -61t85.5 -52t95.5 -21.5q69 0 117.5 33t70.5 87q20 46 43 67t65 21h112z" />
    <glyph glyph-name="hungarumlaut" unicode="&#x2dd;" horiz-adv-x="1840" 
d="M358 2129q-28 -37 -65.5 -47.5t-73.5 9.5l-172 99q-36 21 -46 64t9 81l372 793q20 38 59.5 48t76.5 -12l308 -175q43 -25 53.5 -63.5t-14.5 -75.5zM952 2096q-45 -15 -81.5 -1.5t-54.5 49.5l-84 180q-17 40 -1 79t53 61l760 436q39 20 76.5 6t55.5 -54l152 -320
q21 -45 7.5 -83t-55.5 -53z" />
    <glyph glyph-name="uni0326" unicode="&#x326;" horiz-adv-x="0" 
d="M-1830 -242q69 0 132.5 -24t115.5 -70.5t83.5 -122t31.5 -170.5q0 -144 -71.5 -300t-193.5 -286t-267 -204q-20 -9 -40 -5t-33 19l-59 66q-17 19 -16.5 44.5t19.5 47.5q10 11 36.5 36.5t39.5 40t30.5 38.5t25 49.5t7.5 53.5q0 36 -15 67t-31.5 49t-45.5 43
q-113 99 -113 258q0 158 105.5 264t258.5 106z" />
    <glyph glyph-name="uni0335" unicode="&#x335;" horiz-adv-x="0" 
 />
    <glyph glyph-name="uni0336" unicode="&#x336;" horiz-adv-x="0" 
d="M-1900 1140q-48 0 -74 26t-26 74v300q0 48 26 74t74 26h1376q48 0 74 -26t26 -74v-300q0 -48 -26 -74t-74 -26h-1376z" />
    <glyph glyph-name="uni0337" unicode="&#x337;" horiz-adv-x="0" 
 />
    <glyph glyph-name="Wgrave" unicode="&#x1e80;" horiz-adv-x="3794" 
d="M1245 2916q-42 15 -55.5 53t7.5 83l152 320q18 40 55.5 54t76.5 -6l760 -436q37 -22 53 -61t-1 -79l-84 -180q-18 -36 -54.5 -49.5t-81.5 1.5zM3709 2440q54 0 74 -30.5t2 -85.5l-716 -2248q-23 -76 -116 -76h-564q-93 0 -116 76l-376 1192l-376 -1192q-23 -76 -116 -76
h-564q-93 0 -116 76l-716 2248q-18 55 2 85.5t74 30.5h764q92 0 112 -80l268 -1080l296 920q12 38 42.5 59t73.5 21h536q43 0 73.5 -21t42.5 -59l272 -920l308 1080q24 80 112 80h724z" />
    <glyph glyph-name="wgrave" unicode="&#x1e81;" horiz-adv-x="3332" 
d="M1002 2396q-42 15 -55.5 53t7.5 83l152 320q18 40 55.5 54t76.5 -6l760 -436q37 -22 53 -61t-1 -79l-84 -180q-18 -36 -54.5 -49.5t-81.5 1.5zM3210 1920q68 0 102 -51.5t10 -116.5l-620 -1672q-31 -80 -112 -80h-472q-84 0 -114 76l-338 836l-336 -836q-29 -76 -116 -76
h-472q-81 0 -112 80l-620 1672q-24 65 10 116.5t102 51.5h708q33 0 55.5 -16.5t28.5 -43.5l204 -716l188 572q24 76 120 76h480q96 0 120 -76l188 -572l204 716q6 27 28.5 43.5t55.5 16.5h708z" />
    <glyph glyph-name="Wacute" unicode="&#x1e82;" horiz-adv-x="3794" 
d="M1541 2664l-84 180q-17 40 -1 79t53 61l760 436q39 20 76.5 6t55.5 -54l152 -320q21 -45 7.5 -83t-55.5 -53l-828 -300q-45 -15 -81.5 -1.5t-54.5 49.5zM3709 2440q54 0 74 -30.5t2 -85.5l-716 -2248q-23 -76 -116 -76h-564q-93 0 -116 76l-376 1192l-376 -1192
q-23 -76 -116 -76h-564q-93 0 -116 76l-716 2248q-18 55 2 85.5t74 30.5h764q92 0 112 -80l268 -1080l296 920q12 38 42.5 59t73.5 21h536q43 0 73.5 -21t42.5 -59l272 -920l308 1080q24 80 112 80h724z" />
    <glyph glyph-name="wacute" unicode="&#x1e83;" horiz-adv-x="3332" 
d="M1298 2144l-84 180q-17 40 -1 79t53 61l760 436q39 20 76.5 6t55.5 -54l152 -320q21 -45 7.5 -83t-55.5 -53l-828 -300q-45 -15 -81.5 -1.5t-54.5 49.5zM3210 1920q68 0 102 -51.5t10 -116.5l-620 -1672q-31 -80 -112 -80h-472q-84 0 -114 76l-338 836l-336 -836
q-29 -76 -116 -76h-472q-81 0 -112 80l-620 1672q-24 65 10 116.5t102 51.5h708q33 0 55.5 -16.5t28.5 -43.5l204 -716l188 572q24 76 120 76h480q96 0 120 -76l188 -572l204 716q6 27 28.5 43.5t55.5 16.5h708z" />
    <glyph glyph-name="Wdieresis" unicode="&#x1e84;" horiz-adv-x="3794" 
d="M1438 2647q-151 0 -256.5 105.5t-105.5 256.5t105.5 256.5t256.5 105.5q150 0 256 -105.5t106 -256.5t-106 -256.5t-256 -105.5zM2378 2647q-151 0 -256.5 105.5t-105.5 256.5t105.5 256.5t256.5 105.5q150 0 256 -105.5t106 -256.5t-106 -256.5t-256 -105.5zM3709 2440
q54 0 74 -30.5t2 -85.5l-716 -2248q-23 -76 -116 -76h-564q-93 0 -116 76l-376 1192l-376 -1192q-23 -76 -116 -76h-564q-93 0 -116 76l-716 2248q-18 55 2 85.5t74 30.5h764q92 0 112 -80l268 -1080l296 920q12 38 42.5 59t73.5 21h536q43 0 73.5 -21t42.5 -59l272 -920
l308 1080q24 80 112 80h724z" />
    <glyph glyph-name="wdieresis" unicode="&#x1e85;" horiz-adv-x="3332" 
d="M1195 2127q-151 0 -256.5 105.5t-105.5 256.5t105.5 256.5t256.5 105.5q150 0 256 -105.5t106 -256.5t-106 -256.5t-256 -105.5zM2135 2127q-151 0 -256.5 105.5t-105.5 256.5t105.5 256.5t256.5 105.5q150 0 256 -105.5t106 -256.5t-106 -256.5t-256 -105.5zM3210 1920
q68 0 102 -51.5t10 -116.5l-620 -1672q-31 -80 -112 -80h-472q-84 0 -114 76l-338 836l-336 -836q-29 -76 -116 -76h-472q-81 0 -112 80l-620 1672q-24 65 10 116.5t102 51.5h708q33 0 55.5 -16.5t28.5 -43.5l204 -716l188 572q24 76 120 76h480q96 0 120 -76l188 -572
l204 716q6 27 28.5 43.5t55.5 16.5h708z" />
    <glyph glyph-name="Ygrave" unicode="&#x1ef2;" horiz-adv-x="2793" 
d="M743 2916q-42 15 -55.5 53t7.5 83l152 320q18 40 55.5 54t76.5 -6l760 -436q37 -22 53 -61t-1 -79l-84 -180q-18 -36 -54.5 -49.5t-81.5 1.5zM2703 2440q55 0 78.5 -34t-2.5 -82l-912 -1573v-671q0 -33 -23.5 -56.5t-56.5 -23.5h-760q-33 0 -56.5 23.5t-23.5 56.5v676
l-932 1568q-28 48 -4 82t80 34h796q68 0 112 -80l448 -840l404 840q16 35 46 57.5t70 22.5h736z" />
    <glyph glyph-name="ygrave" unicode="&#x1ef3;" horiz-adv-x="2402" 
d="M498 2396q-42 15 -55.5 53t7.5 83l152 320q18 40 55.5 54t76.5 -6l760 -436q37 -22 53 -61t-1 -79l-84 -180q-18 -36 -54.5 -49.5t-81.5 1.5zM2278 1920q69 0 105 -52t6 -116l-679 -1426q-90 -190 -170.5 -325.5t-176.5 -248.5t-198.5 -183.5t-236 -119.5t-289.5 -69
t-358 -20q-36 0 -60 24t-24 60v454q0 71 72 80q172 22 275 84t207 219l-737 1471q-31 62 5.5 115t106.5 53h752q59 0 85 -60l261 -608l258 608q25 60 84 60h712z" />
    <glyph glyph-name="endash" unicode="&#x2013;" horiz-adv-x="2216" 
d="M100 620q-48 0 -74 26t-26 74v380q0 48 26 74t74 26h2016q48 0 74 -26t26 -74v-380q0 -48 -26 -74t-74 -26h-2016z" />
    <glyph glyph-name="emdash" unicode="&#x2014;" horiz-adv-x="3416" 
d="M100 620q-48 0 -74 26t-26 74v380q0 48 26 74t74 26h3216q48 0 74 -26t26 -74v-380q0 -48 -26 -74t-74 -26h-3216z" />
    <glyph glyph-name="quoteleft" unicode="&#x2018;" horiz-adv-x="1080" 
d="M560 1267q-83 0 -160 29.5t-140.5 85.5t-101.5 147.5t-38 205.5q0 175 86.5 363.5t234 346t323.5 246.5q24 12 48.5 7t39.5 -23l72 -80q21 -24 20.5 -54.5t-24.5 -57.5q-12 -13 -43.5 -43.5t-47.5 -49t-37 -47.5t-30.5 -59.5t-9.5 -64.5q0 -43 18 -81t38.5 -59.5
t55.5 -51.5q136 -120 136 -312q0 -191 -128 -319.5t-312 -128.5z" />
    <glyph glyph-name="quoteright" unicode="&#x2019;" horiz-adv-x="1080" 
d="M520 2619q83 0 160 -29.5t140.5 -85.5t101.5 -147.5t38 -205.5q0 -175 -86.5 -363.5t-234 -346t-323.5 -246.5q-24 -12 -48.5 -7t-39.5 23l-72 80q-21 24 -20.5 54.5t24.5 57.5q12 13 43.5 43.5t47.5 49t37 47.5t30.5 59.5t9.5 64.5q0 43 -18 81t-38.5 59.5t-55.5 51.5
q-136 120 -136 312q0 191 128 319.5t312 128.5z" />
    <glyph glyph-name="quotesinglbase" unicode="&#x201a;" horiz-adv-x="1080" 
d="M520 840q83 0 160 -29.5t140.5 -85.5t101.5 -147.5t38 -205.5q0 -175 -86.5 -363.5t-234 -346t-323.5 -246.5q-24 -12 -48.5 -7t-39.5 23l-72 80q-21 24 -20.5 54.5t24.5 57.5q12 13 43.5 43.5t47.5 49t37 47.5t30.5 59.5t9.5 64.5q0 43 -18 81t-38.5 59.5t-55.5 51.5
q-136 120 -136 312q0 191 128 319.5t312 128.5z" />
    <glyph glyph-name="quotedblleft" unicode="&#x201c;" horiz-adv-x="2080" 
d="M560 1267q-83 0 -160 29.5t-140.5 85.5t-101.5 147.5t-38 205.5q0 175 86.5 363.5t234 346t323.5 246.5q24 12 48.5 7t39.5 -23l72 -80q21 -24 20.5 -54.5t-24.5 -57.5q-12 -13 -43.5 -43.5t-47.5 -49t-37 -47.5t-30.5 -59.5t-9.5 -64.5q0 -43 18 -81t38.5 -59.5
t55.5 -51.5q136 -120 136 -312q0 -191 -128 -319.5t-312 -128.5zM1560 1267q-83 0 -160 29.5t-140.5 85.5t-101.5 147.5t-38 205.5q0 175 86.5 363.5t234 346t323.5 246.5q24 12 48.5 7t39.5 -23l72 -80q21 -24 20.5 -54.5t-24.5 -57.5q-12 -13 -43.5 -43.5t-47.5 -49
t-37 -47.5t-30.5 -59.5t-9.5 -64.5q0 -43 18 -81t38.5 -59.5t55.5 -51.5q136 -120 136 -312q0 -191 -128 -319.5t-312 -128.5z" />
    <glyph glyph-name="quotedblright" unicode="&#x201d;" horiz-adv-x="2080" 
d="M520 2619q83 0 160 -29.5t140.5 -85.5t101.5 -147.5t38 -205.5q0 -175 -86.5 -363.5t-234 -346t-323.5 -246.5q-24 -12 -48.5 -7t-39.5 23l-72 80q-21 24 -20.5 54.5t24.5 57.5q12 13 43.5 43.5t47.5 49t37 47.5t30.5 59.5t9.5 64.5q0 43 -18 81t-38.5 59.5t-55.5 51.5
q-136 120 -136 312q0 191 128 319.5t312 128.5zM1520 2619q83 0 160 -29.5t140.5 -85.5t101.5 -147.5t38 -205.5q0 -175 -86.5 -363.5t-234 -346t-323.5 -246.5q-24 -12 -48.5 -7t-39.5 23l-72 80q-21 24 -20.5 54.5t24.5 57.5q12 13 43.5 43.5t47.5 49t37 47.5t30.5 59.5
t9.5 64.5q0 43 -18 81t-38.5 59.5t-55.5 51.5q-136 120 -136 312q0 191 128 319.5t312 128.5z" />
    <glyph glyph-name="quotedblbase" unicode="&#x201e;" horiz-adv-x="2080" 
d="M520 840q83 0 160 -29.5t140.5 -85.5t101.5 -147.5t38 -205.5q0 -175 -86.5 -363.5t-234 -346t-323.5 -246.5q-24 -12 -48.5 -7t-39.5 23l-72 80q-21 24 -20.5 54.5t24.5 57.5q12 13 43.5 43.5t47.5 49t37 47.5t30.5 59.5t9.5 64.5q0 43 -18 81t-38.5 59.5t-55.5 51.5
q-136 120 -136 312q0 191 128 319.5t312 128.5zM1520 840q83 0 160 -29.5t140.5 -85.5t101.5 -147.5t38 -205.5q0 -175 -86.5 -363.5t-234 -346t-323.5 -246.5q-24 -12 -48.5 -7t-39.5 23l-72 80q-21 24 -20.5 54.5t24.5 57.5q12 13 43.5 43.5t47.5 49t37 47.5t30.5 59.5
t9.5 64.5q0 43 -18 81t-38.5 59.5t-55.5 51.5q-136 120 -136 312q0 191 128 319.5t312 128.5z" />
    <glyph glyph-name="dagger" unicode="&#x2020;" horiz-adv-x="1836" 
d="M1726 2100q48 0 74 -26t26 -74v-360q0 -48 -26 -74t-74 -26h-468v-1660q0 -80 -80 -80h-520q-80 0 -80 80v1660h-468q-48 0 -74 26t-26 74v360q0 48 26 74t74 26h468v580q0 80 80 80h520q80 0 80 -80v-580h468z" />
    <glyph glyph-name="daggerdbl" unicode="&#x2021;" horiz-adv-x="1836" 
d="M1726 1540h-468v-520h468q48 0 74 -26t26 -74v-360q0 -48 -26 -74t-74 -26h-468v-580q0 -80 -80 -80h-520q-80 0 -80 80v580h-468q-48 0 -74 26t-26 74v360q0 48 26 74t74 26h468v520h-468q-48 0 -74 26t-26 74v360q0 48 26 74t74 26h468v580q0 80 80 80h520q80 0 80 -80
v-580h468q48 0 74 -26t26 -74v-360q0 -48 -26 -74t-74 -26z" />
    <glyph glyph-name="bullet" unicode="&#x2022;" horiz-adv-x="1469" 
d="M734 344q-168 0 -309 82t-223 223.5t-82 309.5q0 167 82 308.5t223 223.5t309 82t309.5 -82t223.5 -223.5t82 -308.5q0 -126 -48.5 -240t-130.5 -196t-196 -130.5t-240 -48.5z" />
    <glyph glyph-name="ellipsis" unicode="&#x2026;" horiz-adv-x="3120" 
d="M560 -40q-183 0 -311.5 128.5t-128.5 311.5t128.5 311.5t311.5 128.5t311.5 -128.5t128.5 -311.5t-128.5 -311.5t-311.5 -128.5zM1560 -40q-183 0 -311.5 128.5t-128.5 311.5t128.5 311.5t311.5 128.5t311.5 -128.5t128.5 -311.5t-128.5 -311.5t-311.5 -128.5zM2560 -40
q-183 0 -311.5 128.5t-128.5 311.5t128.5 311.5t311.5 128.5t311.5 -128.5t128.5 -311.5t-128.5 -311.5t-311.5 -128.5z" />
    <glyph glyph-name="perthousand" unicode="&#x2030;" horiz-adv-x="5413" 
d="M2657 2523q30 -14 41.5 -45.5t-2.5 -61.5l-1207 -2540q-14 -30 -46 -41.5t-60 2.5l-236 110q-31 14 -42 45.5t3 61.5l1207 2540q14 30 45 41.5t62 -2.5zM1598 1714q0 -180 -58.5 -329.5t-159.5 -248.5t-238 -153.5t-293 -54.5t-293 54.5t-238 153.5t-159.5 248.5
t-58.5 329.5t58.5 329.5t159.5 248.5t238 153.5t293 54.5t293 -54.5t238 -153.5t159.5 -248.5t58.5 -329.5zM849 1428q63 0 100.5 79t37.5 207q0 129 -37.5 208t-100.5 79t-100.5 -79t-37.5 -208q0 -128 37.5 -207t100.5 -79zM2964 1512q156 0 293 -54.5t238 -153.5
t159.5 -248.5t58.5 -329.5t-58.5 -329.5t-159.5 -248.5t-238 -153.5t-293 -54.5t-293 54.5t-238 153.5t-159.5 248.5t-58.5 329.5t58.5 329.5t159.5 248.5t238 153.5t293 54.5zM4564 1512q156 0 293 -54.5t238 -153.5t159.5 -248.5t58.5 -329.5t-58.5 -329.5t-159.5 -248.5
t-238 -153.5t-293 -54.5t-293 54.5t-238 153.5t-159.5 248.5t-58.5 329.5t58.5 329.5t159.5 248.5t238 153.5t293 54.5zM2964 440q63 0 100.5 79t37.5 207q0 129 -37.5 208t-100.5 79t-100.5 -79t-37.5 -208q0 -128 37.5 -207t100.5 -79zM4564 440q63 0 100.5 79t37.5 207
q0 129 -37.5 208t-100.5 79t-100.5 -79t-37.5 -208q0 -128 37.5 -207t100.5 -79z" />
    <glyph glyph-name="guilsinglleft" unicode="&#x2039;" horiz-adv-x="1206" 
d="M1046 1311q0 -30 -34 -60l-346 -306l346 -306q34 -30 34 -60v-258q0 -72 -55.5 -100t-113.5 15l-689 513q-28 22 -28 56v280q0 34 28 56l689 513q58 43 113.5 15t55.5 -100v-258z" />
    <glyph glyph-name="guilsinglright" unicode="&#x203a;" horiz-adv-x="1206" 
d="M1018 1141q28 -22 28 -56v-280q0 -34 -28 -56l-689 -513q-58 -43 -113.5 -15t-55.5 100v258q0 30 34 60l346 306l-346 306q-34 30 -34 60v258q0 72 55.5 100t113.5 -15z" />
    <glyph glyph-name="fraction" unicode="&#x2044;" horiz-adv-x="1613" 
d="M1258 2592q14 30 45 41.5t62 -2.5l217 -102q29 -14 40.5 -45t-2.5 -61l-1217 -2610q-14 -30 -45.5 -41.5t-59.5 2.5l-218 101q-31 15 -42 46t3 61z" />
    <glyph glyph-name="Euro" unicode="&#x20ac;" horiz-adv-x="2887" 
d="M2748 678q43 -21 55 -56t-11 -80q-80 -149 -206.5 -266t-277.5 -189.5t-315.5 -109.5t-332.5 -37q-332 0 -612 105t-477.5 310t-278.5 485h-232v300h182q-2 52 -2 80t2 80h-182v300h232q81 280 278.5 485t477.5 310t612 105q168 0 332.5 -37t315.5 -109.5t277.5 -189.5
t206.5 -266q23 -45 11 -80t-55 -56l-568 -270q-79 -38 -136 44q-66 101 -166 162.5t-218 61.5q-216 0 -343 -160h527l-168 -300h-472q-4 -35 -4 -80t4 -80h536l-164 -300h-259q127 -160 343 -160q118 0 218 61.5t166 162.5q57 82 136 44z" />
    <glyph glyph-name="trademark" unicode="&#x2122;" horiz-adv-x="3700" 
d="M1482 2442q20 0 34.5 -14.5t14.5 -35.5v-360q0 -20 -14.5 -34.5t-34.5 -14.5h-410v-1006q0 -21 -14.5 -35.5t-35.5 -14.5h-472q-20 0 -34.5 14.5t-14.5 35.5v1006h-410q-20 0 -35 14.5t-15 34.5v360q0 21 15 35.5t35 14.5h931h460zM3518 2442q62 0 62 -62v-1391
q0 -62 -62 -62h-447q-62 0 -62 62v462l-315 -345q-19 -21 -45 -21t-45 21l-315 345v-462q0 -30 -16.5 -46t-45.5 -16h-447q-62 0 -62 62v1391q0 62 62 62h218q47 0 77 -33l574 -638l551 639q27 32 77 32h241z" />
    <glyph glyph-name="oneeighth" unicode="&#x215b;" horiz-adv-x="4396" 
d="M2682 2529q29 -14 40.5 -45t-2.5 -61l-1217 -2610q-14 -30 -45.5 -41.5t-59.5 2.5l-218 101q-31 15 -42 46t3 61l1217 2610q14 30 45 41.5t62 -2.5zM1230 846q0 -22 -15 -37.5t-37 -15.5h-500q-22 0 -37.5 15.5t-15.5 37.5v1035l-220 -98q-20 -10 -40.5 -2.5t-29.5 28.5
l-149 321q-10 22 -2 42.5t31 30.5l426 179q34 15 78 15h459q22 0 37 -15t15 -37v-1499zM3734 849q140 -46 216.5 -155.5t76.5 -246.5q0 -101 -46.5 -187t-138 -154t-242 -106.5t-345.5 -38.5q-157 0 -286 25.5t-218 70t-150 106.5t-89.5 133t-28.5 151q0 138 76 247t216 155
q-103 45 -168.5 139.5t-65.5 216.5q0 198 183.5 318.5t530.5 120.5q346 0 529.5 -120.5t183.5 -318.5q0 -122 -65.5 -216.5t-168.5 -139.5zM3255 1275q-59 0 -95.5 -32.5t-36.5 -89.5t36.5 -89.5t95.5 -32.5q58 0 94.5 32.5t36.5 89.5t-36.5 89.5t-94.5 32.5zM3255 374
q71 0 112.5 42t41.5 103t-41.5 102.5t-112.5 41.5q-72 0 -113 -41.5t-41 -102.5t41.5 -103t112.5 -42z" />
    <glyph glyph-name="threeeighths" unicode="&#x215c;" horiz-adv-x="4336" 
d="M2892 2529q29 -14 40.5 -45t-2.5 -61l-1217 -2610q-14 -30 -45.5 -41.5t-59.5 2.5l-218 101q-31 15 -42 46t3 61l1217 2610q14 30 45 41.5t62 -2.5zM1545 1234q0 -150 -94 -260t-255.5 -165t-370.5 -55q-444 0 -712 270q-20 20 -27.5 32.5t-5 30.5t20.5 40l163 196
q11 14 20.5 22t21 15t24.5 5.5t26 -10.5q56 -38 86.5 -57t80.5 -44.5t100.5 -36t108.5 -10.5q88 0 141.5 26t53.5 75q0 40 -40 69.5t-100.5 44t-135.5 17.5q-23 1 -37.5 15.5t-14.5 36.5v213q0 22 14.5 37t38.5 17q112 8 174 43.5t62 94.5q0 43 -40 65t-111 22
q-70 0 -144 -25t-113.5 -48t-97.5 -62q-13 -9 -25 -10.5t-23.5 4.5t-21 15t-22.5 24l-153 182q-18 23 -20.5 41t5.5 30.5t27 31.5q124 123 314 197t413 74q281 0 445.5 -116t164.5 -324q0 -242 -226 -374q285 -130 285 -389zM3944 849q140 -46 216.5 -155.5t76.5 -246.5
q0 -101 -46.5 -187t-138 -154t-242 -106.5t-345.5 -38.5q-157 0 -286 25.5t-218 70t-150 106.5t-89.5 133t-28.5 151q0 138 76 247t216 155q-103 45 -168.5 139.5t-65.5 216.5q0 198 183.5 318.5t530.5 120.5q346 0 529.5 -120.5t183.5 -318.5q0 -122 -65.5 -216.5
t-168.5 -139.5zM3465 1275q-59 0 -95.5 -32.5t-36.5 -89.5t36.5 -89.5t95.5 -32.5q58 0 94.5 32.5t36.5 89.5t-36.5 89.5t-94.5 32.5zM3465 374q71 0 112.5 42t41.5 103t-41.5 102.5t-112.5 41.5q-72 0 -113 -41.5t-41 -102.5t41.5 -103t112.5 -42z" />
    <glyph glyph-name="fiveeighths" unicode="&#x215d;" horiz-adv-x="4337" 
d="M2892 2529q29 -14 40.5 -45t-2.5 -61l-1217 -2610q-14 -30 -45.5 -41.5t-59.5 2.5l-218 101q-31 15 -42 46t3 61l1217 2610q14 30 45 41.5t62 -2.5zM1566 1293q0 -158 -90 -281t-251 -190.5t-366 -67.5q-465 0 -725 251q-20 19 -28 31.5t-5 30.5t21 40l163 196
q12 14 20.5 22t20.5 15t24.5 5.5t26.5 -10.5q102 -66 183.5 -97t192.5 -31q85 0 140 33t55 88q0 54 -40.5 84.5t-141.5 30.5t-205 -23q-20 -3 -33 6l-286 180q-25 17 -22 45l78 681q6 65 65 65h1013q22 0 37.5 -15t15.5 -37v-336q0 -22 -15.5 -37t-37.5 -15h-605l-21 -167
q74 28 201 28q181 0 317.5 -56.5t217 -176.5t80.5 -292zM3944 849q140 -46 216.5 -155.5t76.5 -246.5q0 -101 -46.5 -187t-138 -154t-242 -106.5t-345.5 -38.5q-157 0 -286 25.5t-218 70t-150 106.5t-89.5 133t-28.5 151q0 138 76 247t216 155q-103 45 -168.5 139.5
t-65.5 216.5q0 198 183.5 318.5t530.5 120.5q346 0 529.5 -120.5t183.5 -318.5q0 -122 -65.5 -216.5t-168.5 -139.5zM3465 1275q-59 0 -95.5 -32.5t-36.5 -89.5t36.5 -89.5t95.5 -32.5q58 0 94.5 32.5t36.5 89.5t-36.5 89.5t-94.5 32.5zM3465 374q71 0 112.5 42t41.5 103
t-41.5 102.5t-112.5 41.5q-72 0 -113 -41.5t-41 -102.5t41.5 -103t112.5 -42z" />
    <glyph glyph-name="seveneighths" unicode="&#x215e;" horiz-adv-x="4036" 
d="M2592 2529q29 -14 40.5 -45t-2.5 -61l-1217 -2610q-14 -30 -45.5 -41.5t-59.5 2.5l-218 101q-31 15 -42 46t3 61l1217 2610q14 30 45 41.5t62 -2.5zM1489 2225q0 -46 -26 -101l-598 -1303q-11 -28 -42 -28h-557q-38 0 -55.5 28t-1.5 62l491 1028h-618q-22 0 -37 15
t-15 37v382q0 22 15 37t37 15h1342q65 0 65 -65v-107zM3644 849q140 -46 216.5 -155.5t76.5 -246.5q0 -101 -46.5 -187t-138 -154t-242 -106.5t-345.5 -38.5q-157 0 -286 25.5t-218 70t-150 106.5t-89.5 133t-28.5 151q0 138 76 247t216 155q-103 45 -168.5 139.5
t-65.5 216.5q0 198 183.5 318.5t530.5 120.5q346 0 529.5 -120.5t183.5 -318.5q0 -122 -65.5 -216.5t-168.5 -139.5zM3165 1275q-59 0 -95.5 -32.5t-36.5 -89.5t36.5 -89.5t95.5 -32.5q58 0 94.5 32.5t36.5 89.5t-36.5 89.5t-94.5 32.5zM3165 374q71 0 112.5 42t41.5 103
t-41.5 102.5t-112.5 41.5q-72 0 -113 -41.5t-41 -102.5t41.5 -103t112.5 -42z" />
    <glyph glyph-name="partialdiff" unicode="&#x2202;" horiz-adv-x="2320" 
d="M734 2692q217 -50 404 -127t326 -167t254.5 -200t194.5 -219t139 -230t95 -228t57 -219t29 -196.5t7 -165.5q0 -193 -52.5 -355.5t-147.5 -280.5t-227 -200.5t-292 -123t-341 -40.5q-329 0 -578 108.5t-385.5 312.5t-136.5 479q0 204 77.5 374.5t212 285t317.5 177.5
t393 63q100 0 196 -27q-222 321 -739 504q-42 15 -57 51.5t4 73.5l148 313q26 54 102 37zM1180 620q90 0 145 66.5t55 153.5t-55 153.5t-145 66.5t-145 -66.5t-55 -153.5t55 -153.5t145 -66.5z" />
    <glyph glyph-name="emptyset" unicode="&#x2205;" horiz-adv-x="2996" 
d="M2871 2183q29 -32 24.5 -67t-36.5 -66l-339 -327q170 -277 170 -603q0 -236 -92.5 -450.5t-250 -370t-376.5 -247.5t-462 -92q-343 0 -631 177l-339 -327q-33 -31 -67 -35.5t-66 23.5l-280 280q-29 32 -25 67t37 66l344 333q-154 266 -154 576q0 236 92.5 450.5t250 370
t376.5 247.5t462 92q327 0 605 -161l344 332q33 31 67 36t66 -23zM1009 1120q0 -34 3 -65l597 576q-50 9 -100 9q-214 0 -357 -145t-143 -375zM2009 1120q0 50 -8 101l-626 -604q65 -17 134 -17q214 0 357 145t143 375z" />
    <glyph glyph-name="product" unicode="&#x220f;" horiz-adv-x="2260" 
d="M2060 2940q33 0 56.5 -23.5t23.5 -56.5v-3280q0 -33 -23.5 -56.5t-56.5 -23.5h-360q-33 0 -56.5 23.5t-23.5 56.5v2870h-980v-2870q0 -33 -23.5 -56.5t-56.5 -23.5h-360q-33 0 -56.5 23.5t-23.5 56.5v3280q0 33 23.5 56.5t56.5 23.5h360h1326h174z" />
    <glyph glyph-name="summation" unicode="&#x2211;" horiz-adv-x="2078" 
d="M2048 2540q0 -48 -26 -74t-74 -26h-1049l827 -1178q14 -19 14 -42t-14 -42l-827 -1188h1049q48 0 74 -26t26 -74v-290q0 -48 -26 -74t-74 -26h-1736q-48 0 -74 26t-26 74v104q0 97 44 160l960 1356l-960 1346q-44 63 -44 160v104q0 48 26 74t74 26h1736q48 0 74 -26
t26 -74v-290z" />
    <glyph glyph-name="minus" unicode="&#x2212;" horiz-adv-x="2236" 
d="M260 820q-48 0 -74 26t-26 74v380q0 48 26 74t74 26h1716q48 0 74 -26t26 -74v-380q0 -48 -26 -74t-74 -26h-1716z" />
    <glyph glyph-name="radical" unicode="&#x221a;" horiz-adv-x="2702" 
d="M1914 2907q16 53 71 53h623q52 0 78 -37.5t9 -86.5l-1013 -2787q-17 -49 -70 -49h-660q-47 0 -67 44l-516 1216h-287q-35 0 -58.5 23.5t-23.5 58.5v376q0 35 23.5 58.5t58.5 23.5h855q25 0 44 -13.5t26 -36.5l287 -850z" />
    <glyph glyph-name="infinity" unicode="&#x221e;" horiz-adv-x="3140" 
d="M2224 1900q160 0 297 -49t239.5 -140.5t161 -233t58.5 -317.5t-58.5 -317.5t-161 -233t-239.5 -140.5t-297 -49q-194 0 -362 91.5t-292 260.5q-124 -169 -292 -260.5t-362 -91.5q-160 0 -297 49t-239.5 140.5t-161 233t-58.5 317.5t58.5 317.5t161 233t239.5 140.5
t297 49q194 0 362 -91.5t292 -260.5q124 169 292 260.5t362 91.5zM946 928q35 0 66.5 14.5t53.5 33.5t47 55t38.5 60.5t36.5 68.5q-23 44 -36.5 68.5t-38.5 60.5t-47 55t-53.5 33.5t-66.5 14.5q-79 0 -125.5 -65.5t-46.5 -166.5t46.5 -166.5t125.5 -65.5zM2194 928
q79 0 125.5 65.5t46.5 166.5t-46.5 166.5t-125.5 65.5q-35 0 -66.5 -14.5t-53.5 -33.5t-47 -55t-38.5 -60.5t-36.5 -68.5q23 -44 36.5 -68.5t38.5 -60.5t47 -55t53.5 -33.5t66.5 -14.5z" />
    <glyph glyph-name="integral" unicode="&#x222b;" horiz-adv-x="1967" 
d="M1967 2844q18 -12 27 -21t17.5 -25t5 -38.5t-17.5 -51.5l-138 -287q-40 -84 -136 -44q-101 43 -175 43q-86 0 -130.5 -58t-44.5 -202l1 -2040q0 -183 -61.5 -329t-170.5 -239.5t-256 -142.5t-321 -49q-206 0 -379.5 59.5t-283.5 136.5q-17 12 -26.5 21t-17.5 25t-5 38.5
t17 51.5l138 287q41 84 136 44q101 -43 175 -43q86 0 130.5 58t44.5 202l-1 2040q0 183 61.5 329t170.5 239.5t256 142.5t321 49q207 0 380.5 -59.5t282.5 -136.5z" />
    <glyph glyph-name="approxequal" unicode="&#x2248;" horiz-adv-x="2336" 
d="M198 1291q-23 13 -32.5 36.5t-2.5 49.5q39 139 107 246t150 170t170 95t178 32q111 0 208 -22.5t167.5 -55t135.5 -65t139 -55t150 -22.5q172 0 299 160q21 26 49 32.5t56 -8.5l166 -95q23 -13 32.5 -36.5t2.5 -49.5q-39 -139 -107 -246t-150 -170t-170 -95t-178 -32
q-111 0 -208 22.5t-167.5 55t-135.5 65t-139 55t-150 22.5q-172 0 -299 -160q-21 -26 -49 -32.5t-56 8.5zM2138 929q23 -13 32.5 -36.5t2.5 -49.5q-39 -139 -107 -246t-150 -170t-170 -95t-178 -32q-111 0 -208 22.5t-167.5 55t-135.5 65t-139 55t-150 22.5
q-172 0 -299 -160q-21 -26 -49 -32.5t-56 8.5l-166 95q-23 13 -32.5 36.5t-2.5 49.5q39 139 107 246t150 170t170 95t178 32q111 0 208 -22.5t167.5 -55t135.5 -65t139 -55t150 -22.5q172 0 299 160q21 26 49 32.5t56 -8.5z" />
    <glyph glyph-name="notequal" unicode="&#x2260;" horiz-adv-x="2236" 
d="M1976 1250h-567l-129 -280h696q48 0 74 -26t26 -74v-380q0 -48 -26 -74t-74 -26h-964l-223 -484q-14 -30 -46 -41.5t-60 2.5l-236 110q-31 14 -42 45.5t3 61.5l141 306h-289q-48 0 -74 26t-26 74v380q0 48 26 74t74 26h557l129 280h-686q-48 0 -74 26t-26 74v380
q0 48 26 74t74 26h954l206 446q14 30 45 41.5t62 -2.5l235 -110q30 -14 41.5 -45.5t-2.5 -61.5l-124 -268h299q48 0 74 -26t26 -74v-380q0 -48 -26 -74t-74 -26z" />
    <glyph glyph-name="lessequal" unicode="&#x2264;" horiz-adv-x="2236" 
d="M2076 2020q0 -19 -5.5 -33.5t-12 -23t-23 -17.5t-25.5 -13t-34 -13l-1069 -405l1069 -405q25 -9 34 -13t25.5 -13t23 -17.5t12 -23t5.5 -33.5v-430q0 -51 -29 -84t-71 -16l-1716 700q-49 20 -74.5 47.5t-25.5 72.5v430q0 45 25.5 72.5t74.5 47.5l1716 700q42 17 71 -16
t29 -84v-430zM260 -200q-48 0 -74 26t-26 74v380q0 48 26 74t74 26h1716q48 0 74 -26t26 -74v-380q0 -48 -26 -74t-74 -26h-1716z" />
    <glyph glyph-name="greaterequal" unicode="&#x2265;" horiz-adv-x="2236" 
d="M160 2020v430q0 51 29 84t71 16l1716 -700q49 -20 74.5 -47.5t25.5 -72.5v-430q0 -45 -25.5 -72.5t-74.5 -47.5l-1716 -700q-42 -17 -71 16t-29 84v430q0 19 5.5 33.5t12 23t23 17.5t25.5 13t34 13l1069 405l-1069 405q-25 9 -34 13t-25.5 13t-23 17.5t-12 23t-5.5 33.5z
M1976 -200h-1716q-48 0 -74 26t-26 74v380q0 48 26 74t74 26h1716q48 0 74 -26t26 -74v-380q0 -48 -26 -74t-74 -26z" />
    <glyph glyph-name="lozenge" unicode="&#x25ca;" horiz-adv-x="2458" 
d="M1159 2710q29 37 70 37t70 -37l982 -1263q17 -22 17 -47t-17 -47l-982 -1263q-29 -37 -70 -37t-70 37l-982 1263q-17 22 -17 47t17 47zM1229 944l324 456l-324 456l-324 -456z" />
    <glyph glyph-name="i.loclTRK" horiz-adv-x="1120" 
d="M560 2048q-183 0 -311.5 128.5t-128.5 311.5t128.5 311.5t311.5 128.5t311.5 -128.5t128.5 -311.5t-128.5 -311.5t-311.5 -128.5zM120 1840q0 80 80 80h720q80 0 80 -80v-1760q0 -80 -80 -80h-720q-80 0 -80 80v1760z" />
    <glyph glyph-name="zero.osf" horiz-adv-x="2440" 
d="M1220 2080q186 0 353.5 -41t312 -127.5t249.5 -211t165 -301.5t60 -389t-60 -389t-165 -301.5t-249.5 -211t-312 -127.5t-353.5 -41t-353.5 41t-312 127.5t-249.5 211t-165 301.5t-60 389t60 389t165 301.5t249.5 211t312 127.5t353.5 41zM1220 620q109 0 174.5 95.5
t65.5 294.5t-65.5 294.5t-174.5 95.5t-174.5 -95.5t-65.5 -294.5t65.5 -294.5t174.5 -95.5z" />
    <glyph glyph-name="one.osf" horiz-adv-x="1996" 
d="M1596 2020q33 0 56.5 -23.5t23.5 -56.5v-1860q0 -33 -23.5 -56.5t-56.5 -23.5h-720q-33 0 -56.5 23.5t-23.5 56.5v1154l-335 -149q-31 -14 -62 -2.5t-45 42.5l-226 488q-15 33 -3 65t46 46l648 272q59 24 119 24h658z" />
    <glyph glyph-name="two.osf" horiz-adv-x="2246" 
d="M2046 570q33 0 56.5 -23.5t23.5 -56.5v-410q0 -33 -23.5 -56.5t-56.5 -23.5h-1890q-48 0 -74 26t-26 74v152q0 80 84 134q132 85 201.5 130.5t183.5 121.5t176 122.5t146 111t129 110.5t90.5 99t64.5 99t19 88q0 132 -198 132q-70 0 -136 -15.5t-134 -50t-111.5 -61.5
t-118.5 -78q-20 -13 -38 -15.5t-35.5 6t-32.5 22.5t-34 36l-248 298q-29 35 -32.5 63.5t9 47.5t41.5 45q198 180 477.5 281t598.5 101q153 0 287.5 -24t252 -76.5t201.5 -130.5t132.5 -193.5t48.5 -257.5q0 -117 -33.5 -221.5t-109.5 -209t-209 -205t-322 -192.5h640z" />
    <glyph glyph-name="three.osf" horiz-adv-x="2281" 
d="M1768 853q206 -95 319.5 -248.5t113.5 -350.5q0 -165 -82.5 -300.5t-227.5 -225.5t-341 -138.5t-424 -48.5q-656 0 -1063 412q-31 32 -43 50.5t-8 45.5t33 60l248 277q20 22 32.5 33.5t31 23t37.5 9t39 -16.5q71 -49 109.5 -74.5t99.5 -59.5t107 -50.5t107.5 -28.5
t125.5 -12q127 0 208 40t81 116q0 31 -16 57.5t-38 44.5t-61 33t-70.5 24t-81.5 17t-78 11.5t-75 8.5q-37 4 -58 24.5t-21 55.5v324q0 34 22 55.5t58 25.5q41 4 68 8t75.5 13t81 22.5t66 33.5t51 50t17.5 68q0 70 -60 109t-165 39q-73 0 -144.5 -17.5t-144 -54.5t-115 -62.5
t-110.5 -70.5q-20 -13 -38.5 -15.5t-36 6.5t-32 22t-33.5 36l-232 278q-28 34 -31.5 62t8.5 46.5t41 47.5q191 190 469 301t609 111q274 0 479.5 -77.5t320.5 -230.5t115 -364q0 -356 -343 -555z" />
    <glyph glyph-name="four.osf" horiz-adv-x="2445" 
d="M2295 570q48 0 74 -26t26 -74v-370q0 -48 -25.5 -74t-74.5 -26h-259v-340q0 -33 -23.5 -56.5t-56.5 -23.5h-620q-33 0 -56.5 23.5t-23.5 56.5v340h-1096q-48 0 -74 26t-26 74v260l1160 1603q41 57 119 57h617q34 0 57 -23.5t23 -56.5v-1370h259zM874 570h382v544z" />
    <glyph glyph-name="five.osf" horiz-adv-x="2431" 
d="M1394 1139q158 0 295.5 -31t252 -95.5t196.5 -158t127.5 -225t45.5 -289.5q0 -230 -136 -413t-377.5 -285t-543.5 -102q-360 0 -619.5 92.5t-461.5 269.5q-31 27 -43.5 47.5t-7.5 47.5t33 61l248 298q17 21 30.5 33.5t31 23t37 8.5t41.5 -16q84 -54 131 -81.5t116.5 -58
t142 -43t161.5 -12.5q129 0 212.5 50t83.5 134q0 82 -61.5 128.5t-214.5 46.5q-156 0 -312 -35q-28 -6 -51 8l-413 274q-39 26 -34 69l118 1035q11 100 100 100h1519q34 0 57 -23.5t23 -56.5v-510q0 -33 -23.5 -56.5t-56.5 -23.5h-920l-32 -253q112 42 305 42z" />
    <glyph glyph-name="six.osf" horiz-adv-x="2330" 
d="M1530 1500q141 0 258 -38.5t198 -104.5t136.5 -156t81.5 -191t26 -210q0 -167 -52 -308t-145 -241.5t-220 -171.5t-277 -105t-316 -34q-187 0 -356.5 42.5t-312.5 129.5t-248 211.5t-164 298t-59 378.5q0 152 28 294.5t93 285.5t163.5 266t247.5 231t336.5 185.5
t439 124.5t546.5 53q37 1 61.5 -22.5t24.5 -59.5v-476q0 -35 -23 -57.5t-59 -23.5q-283 -6 -478 -63.5t-309.5 -162t-174.5 -265.5q181 190 554 190zM1210 520q90 0 145 72t55 168q0 100 -54.5 170t-145.5 70q-97 0 -148.5 -68.5t-51.5 -171.5q0 -98 52 -169t148 -71z" />
    <glyph glyph-name="seven.osf" horiz-adv-x="2171" 
d="M409 -420q-57 0 -83.5 42.5t-3.5 94.5l718 1623h-960q-33 0 -56.5 23.5t-23.5 56.5v520q0 33 23.5 56.5t56.5 23.5h1991q47 0 73.5 -26t26.5 -74v-192q0 -14 -2 -26.5t-7 -26t-8 -21.5t-11.5 -25.5t-11.5 -24.5l-909 -1982q-19 -42 -65 -42h-748z" />
    <glyph glyph-name="eight.osf" horiz-adv-x="2408" 
d="M1883 1282q143 -47 244 -138t151 -209t50 -255q0 -121 -43 -230t-133.5 -202.5t-221 -161.5t-316.5 -107t-410 -39t-410 39t-316.5 107t-221 161.5t-133.5 202.5t-43 230q0 137 50 255t151 209t244 138q-157 67 -256.5 211t-99.5 329q0 143 67.5 262.5t196 208t326 138
t445.5 49.5t445.5 -49.5t326 -138t196 -208t67.5 -262.5q0 -185 -99.5 -329t-256.5 -211zM1204 1929q-82 0 -136 -49.5t-54 -135.5q0 -87 54 -136.5t136 -49.5t136 49.5t54 136.5q0 86 -54 135.5t-136 49.5zM1204 569q102 0 163 64t61 156q0 93 -61 156.5t-163 63.5
t-163 -63.5t-61 -156.5q0 -92 61 -156t163 -64z" />
    <glyph glyph-name="nine.osf" horiz-adv-x="2310" 
d="M1090 2080q187 0 356.5 -42.5t312.5 -129.5t248 -211.5t164 -298t59 -378.5q0 -152 -28 -294.5t-93 -285.5t-163.5 -266t-247.5 -231t-336.5 -185.5t-439 -124.5t-546.5 -53q-37 -1 -61.5 22.5t-24.5 59.5v476q0 35 23 57.5t59 23.5q283 6 478 63.5t309.5 162
t174.5 265.5q-181 -190 -554 -190q-141 0 -258 38.5t-198 104.5t-136.5 156t-81.5 191t-26 210q0 167 52 308t145 241.5t220 171.5t277 105t316 34zM1100 1020q97 0 148.5 68.5t51.5 171.5q0 98 -52 169t-148 71q-90 0 -145 -72t-55 -168q0 -100 54.5 -170t145.5 -70z" />
    <glyph glyph-name="zero.dnom" horiz-adv-x="1804" 
d="M902 1637q168 0 314 -58.5t254.5 -164.5t171 -266t62.5 -353t-62.5 -352.5t-171 -266t-254.5 -164.5t-314 -58t-314 58t-254.5 164.5t-171 266t-62.5 352.5t62.5 353t171 266t254.5 164.5t314 58.5zM902 440q78 0 124.5 98t46.5 257q0 160 -46.5 257.5t-124.5 97.5
t-124.5 -97.5t-46.5 -257.5q0 -159 46.5 -257t124.5 -98z" />
    <glyph glyph-name="one.dnom" horiz-adv-x="1600" 
d="M1178 1604q22 0 37 -15t15 -37v-1499q0 -22 -15 -37.5t-37 -15.5h-500q-22 0 -37.5 15.5t-15.5 37.5v1035l-220 -98q-20 -10 -40.5 -2.5t-29.5 28.5l-149 321q-10 22 -2 42.5t31 30.5l426 179q34 15 78 15h459z" />
    <glyph glyph-name="two.dnom" horiz-adv-x="1540" 
d="M1457 414q22 0 37.5 -15.5t15.5 -37.5v-315q0 -22 -15.5 -37.5t-37.5 -15.5h-1282q-65 0 -65 66v126q0 61 29 82q182 127 318 237t214 188.5t125.5 147t63 112.5t15.5 85q0 75 -39.5 110.5t-122.5 35.5q-39 0 -80 -10t-67.5 -20.5t-69.5 -37t-58.5 -37t-60.5 -43.5
q-13 -9 -25.5 -10.5t-24 4.5t-21.5 15t-21 23l-164 196q-25 35 -21 55.5t33 47.5q132 124 315 197.5t400 73.5q298 0 465 -142.5t167 -389.5q0 -190 -119.5 -365.5t-369.5 -325.5h466z" />
    <glyph glyph-name="three.dnom" horiz-adv-x="1645" 
d="M1260 823q285 -130 285 -389q0 -150 -94 -260t-255.5 -165t-370.5 -55q-444 0 -712 270q-20 20 -27.5 32.5t-5 30.5t20.5 40l163 196q11 14 20.5 22t21 15t24.5 5.5t26 -10.5q56 -38 86.5 -57t80.5 -44.5t100.5 -36t108.5 -10.5q88 0 141.5 26t53.5 75q0 40 -40 69.5
t-100.5 44t-135.5 17.5q-23 1 -37.5 15.5t-14.5 36.5v213q0 22 14.5 37t38.5 17q112 8 174 43.5t62 94.5q0 43 -40 65t-111 22q-70 0 -144 -25t-113.5 -48t-97.5 -62q-13 -9 -25 -10.5t-23.5 4.5t-21 15t-22.5 24l-153 182q-18 23 -20.5 41t5.5 30.5t27 31.5
q124 123 314 197t413 74q281 0 445.5 -116t164.5 -324q0 -242 -226 -374z" />
    <glyph glyph-name="four.dnom" horiz-adv-x="1701" 
d="M1606 684q65 0 65 -66v-237q0 -65 -65 -65h-171v-263q0 -22 -15 -37.5t-37 -15.5h-434q-22 0 -37.5 15.5t-15.5 37.5v263h-780q-66 0 -66 65v157q0 16 9 26l780 1003q29 37 78 37h466q22 0 37 -15t15 -37v-868h171zM619 684h277v357z" />
    <glyph glyph-name="five.dnom" horiz-adv-x="1666" 
d="M951 1025q181 0 317.5 -56.5t217 -176.5t80.5 -292q0 -158 -90 -281t-251 -190.5t-366 -67.5q-465 0 -725 251q-20 19 -28 31.5t-5 30.5t21 40l163 196q12 14 20.5 22t20.5 15t24.5 5.5t26.5 -10.5q102 -66 183.5 -97t192.5 -31q85 0 140 33t55 88q0 54 -40.5 84.5
t-141.5 30.5t-205 -23q-20 -3 -33 6l-286 180q-25 17 -22 45l78 681q6 65 65 65h1013q22 0 37.5 -15t15.5 -37v-336q0 -22 -15.5 -37t-37.5 -15h-605l-21 -167q74 28 201 28z" />
    <glyph glyph-name="six.dnom" horiz-adv-x="1653" 
d="M1073 1013q117 0 211 -40.5t151.5 -108.5t87.5 -151t30 -174q0 -137 -55 -248t-149.5 -182.5t-217.5 -109.5t-262 -38q-157 0 -295 47t-244.5 134.5t-168 224t-61.5 304.5q0 101 18 195.5t60 191.5t106.5 180t163.5 157t224 127t295 85.5t371 36.5q25 0 41 -15.5
t16 -38.5v-313q0 -23 -15 -38t-39 -15q-273 -5 -424.5 -90t-212.5 -251q121 130 369 130zM862 355q64 0 101.5 47t37.5 111q0 66 -37 112t-102 46q-68 0 -103 -45t-35 -113q0 -65 35 -111.5t103 -46.5z" />
    <glyph glyph-name="seven.dnom" horiz-adv-x="1589" 
d="M266 0q-38 0 -55.5 28t-1.5 62l491 1028h-618q-22 0 -37 15t-15 37v382q0 22 15 37t37 15h1342q65 0 65 -65v-107q0 -46 -26 -101l-598 -1303q-11 -28 -42 -28h-557z" />
    <glyph glyph-name="eight.dnom" horiz-adv-x="1744" 
d="M1351 849q140 -46 216.5 -155.5t76.5 -246.5q0 -101 -46.5 -187t-138 -154t-242 -106.5t-345.5 -38.5q-157 0 -286 25.5t-218 70t-150 106.5t-89.5 133t-28.5 151q0 138 76 247t216 155q-103 45 -168.5 139.5t-65.5 216.5q0 198 183.5 318.5t530.5 120.5
q346 0 529.5 -120.5t183.5 -318.5q0 -122 -65.5 -216.5t-168.5 -139.5zM872 1275q-59 0 -95.5 -32.5t-36.5 -89.5t36.5 -89.5t95.5 -32.5q58 0 94.5 32.5t36.5 89.5t-36.5 89.5t-94.5 32.5zM872 374q71 0 112.5 42t41.5 103t-41.5 102.5t-112.5 41.5q-72 0 -113 -41.5
t-41 -102.5t41.5 -103t112.5 -42z" />
    <glyph glyph-name="nine.dnom" horiz-adv-x="1653" 
d="M784 1644q125 0 239 -29.5t210.5 -88.5t168 -143t111.5 -199t40 -250q0 -100 -18 -194t-60 -188.5t-106.5 -175t-163.5 -151t-224.5 -119.5t-295.5 -77.5t-371 -28.5q-25 0 -40.5 15.5t-15.5 38.5v313q0 23 15 37.5t38 15.5q269 6 418.5 77.5t212.5 217.5
q-120 -123 -362 -123q-117 0 -211 40.5t-151.5 108.5t-87.5 151t-30 173q0 137 55 248t149 182.5t217 110t263 38.5zM790 934q68 0 103 44.5t35 112.5q0 65 -35 111.5t-103 46.5q-63 0 -100.5 -47.5t-37.5 -110.5q0 -66 37 -111.5t101 -45.5z" />
    <glyph glyph-name="zero.numr" horiz-adv-x="1804" 
d="M902 2437q168 0 314 -58.5t254.5 -164.5t171 -266t62.5 -353t-62.5 -352.5t-171 -266t-254.5 -164.5t-314 -58t-314 58t-254.5 164.5t-171 266t-62.5 352.5t62.5 353t171 266t254.5 164.5t314 58.5zM902 1240q78 0 124.5 98t46.5 257q0 160 -46.5 257.5t-124.5 97.5
t-124.5 -97.5t-46.5 -257.5q0 -159 46.5 -257t124.5 -98z" />
    <glyph glyph-name="one.numr" horiz-adv-x="1600" 
d="M1178 2397q22 0 37 -15t15 -37v-1499q0 -22 -15 -37.5t-37 -15.5h-500q-22 0 -37.5 15.5t-15.5 37.5v1035l-220 -98q-20 -10 -40.5 -2.5t-29.5 28.5l-149 321q-10 22 -2 42.5t31 30.5l426 179q34 15 78 15h459z" />
    <glyph glyph-name="two.numr" horiz-adv-x="1540" 
d="M1457 1214q22 0 37.5 -15.5t15.5 -37.5v-315q0 -22 -15.5 -37.5t-37.5 -15.5h-1282q-65 0 -65 66v126q0 61 29 82q182 127 318 237t214 188.5t125.5 147t63 112.5t15.5 85q0 75 -39.5 110.5t-122.5 35.5q-39 0 -80 -10t-67.5 -20.5t-69.5 -37t-58.5 -37t-60.5 -43.5
q-13 -9 -25.5 -10.5t-24 4.5t-21.5 15t-21 23l-164 196q-25 35 -21 55.5t33 47.5q132 124 315 197.5t400 73.5q298 0 465 -142.5t167 -389.5q0 -190 -119.5 -365.5t-369.5 -325.5h466z" />
    <glyph glyph-name="three.numr" horiz-adv-x="1645" 
d="M1260 1623q285 -130 285 -389q0 -150 -94 -260t-255.5 -165t-370.5 -55q-444 0 -712 270q-20 20 -27.5 32.5t-5 30.5t20.5 40l163 196q11 14 20.5 22t21 15t24.5 5.5t26 -10.5q56 -38 86.5 -57t80.5 -44.5t100.5 -36t108.5 -10.5q88 0 141.5 26t53.5 75q0 40 -40 69.5
t-100.5 44t-135.5 17.5q-23 1 -37.5 15.5t-14.5 36.5v213q0 22 14.5 37t38.5 17q112 8 174 43.5t62 94.5q0 43 -40 65t-111 22q-70 0 -144 -25t-113.5 -48t-97.5 -62q-13 -9 -25 -10.5t-23.5 4.5t-21 15t-22.5 24l-153 182q-18 23 -20.5 41t5.5 30.5t27 31.5
q124 123 314 197t413 74q281 0 445.5 -116t164.5 -324q0 -242 -226 -374z" />
    <glyph glyph-name="four.numr" horiz-adv-x="1701" 
d="M1606 1477q65 0 65 -66v-237q0 -65 -65 -65h-171v-263q0 -22 -15 -37.5t-37 -15.5h-434q-22 0 -37.5 15.5t-15.5 37.5v263h-780q-66 0 -66 65v157q0 15 9 26l780 1003q29 37 78 37h466q22 0 37 -15t15 -37v-868h171zM619 1477h277v357z" />
    <glyph glyph-name="five.numr" horiz-adv-x="1666" 
d="M951 1818q181 0 317.5 -56.5t217 -176.5t80.5 -292q0 -158 -90 -281t-251 -190.5t-366 -67.5q-465 0 -725 251q-20 19 -28 31.5t-5 30.5t21 40l163 196q12 14 20.5 22t20.5 15t24.5 5.5t26.5 -10.5q102 -66 183.5 -97t192.5 -31q85 0 140 33t55 88q0 54 -40.5 84.5
t-141.5 30.5t-205 -23q-20 -3 -33 6l-286 180q-25 17 -22 45l78 681q6 65 65 65h1013q22 0 37.5 -15t15.5 -37v-336q0 -22 -15.5 -37t-37.5 -15h-605l-21 -167q74 28 201 28z" />
    <glyph glyph-name="six.numr" horiz-adv-x="1653" 
d="M1073 1806q117 0 211 -40.5t151.5 -108.5t87.5 -151t30 -174q0 -137 -55 -248t-149.5 -182.5t-217.5 -109.5t-262 -38q-157 0 -295 47t-244.5 134.5t-168 224t-61.5 304.5q0 101 18 195.5t60 191.5t106.5 180t163.5 157t224 127t295 85.5t371 36.5q25 0 41 -15.5
t16 -38.5v-313q0 -23 -15 -38t-39 -15q-273 -5 -424.5 -90t-212.5 -251q121 130 369 130zM862 1148q64 0 101.5 47t37.5 111q0 66 -37 112t-102 46q-68 0 -103 -45t-35 -113q0 -65 35 -111.5t103 -46.5z" />
    <glyph glyph-name="seven.numr" horiz-adv-x="1589" 
d="M266 793q-38 0 -55.5 28t-1.5 62l491 1028h-618q-22 0 -37 15t-15 37v382q0 22 15 37t37 15h1342q65 0 65 -65v-107q0 -46 -26 -101l-598 -1303q-11 -28 -42 -28h-557z" />
    <glyph glyph-name="eight.numr" horiz-adv-x="1744" 
d="M1351 1642q140 -46 216.5 -155.5t76.5 -246.5q0 -101 -46.5 -187t-138 -154t-242 -106.5t-345.5 -38.5q-157 0 -286 25.5t-218 70t-150 106.5t-89.5 133t-28.5 151q0 138 76 247t216 155q-103 45 -168.5 139.5t-65.5 216.5q0 198 183.5 318.5t530.5 120.5
q346 0 529.5 -120.5t183.5 -318.5q0 -122 -65.5 -216.5t-168.5 -139.5zM872 2068q-59 0 -95.5 -32.5t-36.5 -89.5t36.5 -89.5t95.5 -32.5q58 0 94.5 32.5t36.5 89.5t-36.5 89.5t-94.5 32.5zM872 1167q71 0 112.5 42t41.5 103t-41.5 102.5t-112.5 41.5q-72 0 -113 -41.5
t-41 -102.5t41.5 -103t112.5 -42z" />
    <glyph glyph-name="nine.numr" horiz-adv-x="1653" 
d="M784 2437q125 0 239 -29.5t210.5 -88.5t168 -143t111.5 -199t40 -250q0 -100 -18 -194t-60 -188.5t-106.5 -175t-163.5 -151t-224.5 -119.5t-295.5 -77.5t-371 -28.5q-25 0 -40.5 15.5t-15.5 38.5v313q0 22 15 37t38 16q269 6 418.5 77.5t212.5 217.5
q-120 -123 -362 -123q-117 0 -211 40.5t-151.5 108.5t-87.5 151t-30 173q0 137 55 248t149 182.5t217 110t263 38.5zM790 1727q68 0 103 44.5t35 112.5q0 65 -35 111.5t-103 46.5q-63 0 -100.5 -47.5t-37.5 -110.5q0 -66 37 -111.5t101 -45.5z" />
    <glyph glyph-name="com_I" horiz-adv-x="1160" 
d="M120 2360q0 80 80 80h760q80 0 80 -80v-2280q0 -80 -80 -80h-760q-80 0 -80 80v2280z" />
    <glyph glyph-name="com_o" 
d="M304 880q0 198 60 365t165.5 286.5t249 203.5t312 124.5t353.5 40.5v-680q-107 0 -173.5 -87.5t-66.5 -252.5h-900z" />
    <glyph glyph-name="com_n" 
d="M1236 1960q325 0 474.5 -173.5t149.5 -510.5v-1196q0 -80 -80 -80h-720q-80 0 -80 80v920q0 140 -42.5 200t-129.5 60q-103 0 -165.5 -77.5t-62.5 -222.5v680q89 146 255 233t401 87z" />
    <glyph glyph-name="com_c" 
d="M1076 1200v680q298 0 533.5 -112.5t354.5 -335.5q49 -92 -44 -136l-516 -240q-78 -39 -136 44q-37 52 -82 76t-110 24z" />
    <glyph glyph-name="com_C" 
d="M1988 1632q-79 -38 -136 44q-66 101 -166 162.5t-218 61.5v740q168 0 332.5 -37t315.5 -109.5t277.5 -189.5t206.5 -266q23 -45 11 -80t-55 -56z" />
    <glyph glyph-name="com_O" 
 />
    <glyph glyph-name="com_i_base" horiz-adv-x="1320" 
d="M220 1840q0 80 80 80h720q80 0 80 -80v-1760q0 -80 -80 -80h-720q-80 0 -80 80v1760z" />
    <glyph glyph-name="com_d" 
d="M920 1900q137 0 244 -43.5t185 -124.5t135.5 -208.5t94 -283t61.5 -360.5h-200q0 165 -66.5 252.5t-173.5 87.5t-173.5 -87.5t-66.5 -252.5h-900q0 222 56 407.5t162 322.5t270.5 213.5t371.5 76.5z" />
    <glyph glyph-name="com_g_gora" 
d="M20 1316q0 131 67.5 245t189.5 197.5t302.5 131.5t396.5 48v-476q-94 0 -151 -39.5t-57 -106.5h-748z" />
    <glyph glyph-name="newGlyph" 
 />
    <glyph glyph-name="com_duze_I" horiz-adv-x="920" 
d="M0 2360q0 33 23.5 56.5t56.5 23.5h760q33 0 56.5 -23.5t23.5 -56.5v-2280q0 -33 -23.5 -56.5t-56.5 -23.5h-760q-33 0 -56.5 23.5t-23.5 56.5v2280z" />
    <glyph glyph-name="com_duze_I_bok" horiz-adv-x="920" 
d="M0 2360q0 33 23.5 56.5t56.5 23.5h760q33 0 56.5 -23.5t23.5 -56.5v-2280q0 -33 -23.5 -56.5t-56.5 -23.5h-760q-33 0 -56.5 23.5t-23.5 56.5v2280z" />
    <glyph glyph-name="com_currency" 
d="M167 1171q312 229 708 229v-640q-214 0 -357 -145t-143 -375h-681q0 352 196 644l-386 265q-35 24 -39 63t27 70l280 280q30 30 69.5 26.5t63.5 -38.5z" />
    <glyph glyph-name="com_infinity" 
d="M-102 1160q0 176 58.5 317.5t161 233t239.5 140.5t297 49q194 0 362 -91.5t292 -260.5v-388h-382q-23 44 -36.5 68.5t-38.5 60.5t-47 55t-53.5 33.5t-66.5 14.5q-79 0 -125.5 -65.5t-46.5 -166.5h-614z" />
    </font>
</defs>
</svg>
