<svg width="24" height="24" version="1.1" viewBox="0 0 24 24" xmlns="http://www.w3.org/2000/svg">
 <path d="M0 0h24v24H0z" fill="none"/>
 <g transform="translate(-.48305 .17797)" fill="#2a2a2a">
  <path d="m15.61 8.3936h-12v2h12zm0-4h-12v2h12zm-12 10h8v-2h-8z" clip-path="url(#b)"/>
  <g transform="matrix(.086814 0 0 .086814 13.027 12.04)">
   <g fill="#2a2a2a">
    <path d="m62.819 47.97 32.533-32.534c0.781-0.781 0.781-2.047 0-2.828l-12.019-12.022c-0.375-0.375-0.885-0.586-1.414-0.586-0.53 0-1.039 0.211-1.414 0.586l-32.535 32.535-32.535-32.535c-0.75-0.75-2.078-0.75-2.828 0l-12.02 12.022c-0.781 0.781-0.781 2.047 0 2.828l32.534 32.534-32.534 32.534c-0.781 0.781-0.781 2.047 0 2.828l12.02 12.021c0.375 0.375 0.884 0.586 1.414 0.586s1.039-0.211 1.414-0.586l32.535-32.535 32.535 32.535c0.375 0.375 0.884 0.586 1.414 0.586 0.529 0 1.039-0.211 1.414-0.586l12.02-12.021c0.781-0.781 0.781-2.048 0-2.828z" fill="#2a2a2a"/>
   </g>
  </g>
 </g>
</svg>
