<svg xmlns="http://www.w3.org/2000/svg" width="568.9" height="118.249" viewBox="0 0 568.9 118.249"><g transform="translate(-68.254 -190.094)"><path d="M212.024,273.525a30.834,30.834,0,0,1-16.533,4.569c-11.57,0-18.945-8.7-18.945-20.692V216.649c0-1.369.853-2.057,2.187-2.456l12.213-3.6c1.7-.514,2.557.171,2.557,1.57v11.029h17.3a2.043,2.043,0,0,1,2.216,2.2v9.25a2.043,2.043,0,0,1-2.216,2.2H193.5v18.207c0,5.851,1.369,9.365,6.391,9.365a13.1,13.1,0,0,0,6.648-2.056,1.923,1.923,0,0,1,3.01.942l3.352,7.252a2.124,2.124,0,0,1-.88,2.973Z" transform="translate(26.515 4.978)" fill="#575756"/><path d="M266.755,248.491c0,17.359-13.407,27.524-29.172,27.524s-29.172-10.164-29.172-27.524,13.407-27.5,29.172-27.5S266.755,231.131,266.755,248.491Zm-17.525,0c0-8.766-5.34-13.591-11.647-13.591s-11.647,4.825-11.647,13.591c0,8.794,5.34,13.59,11.647,13.59s11.644-4.8,11.644-13.59Z" transform="translate(34.317 7.566)" fill="#575756"/><path d="M311.755,223.038v50.349a1.811,1.811,0,0,1-1.959,1.971H296.759a1.811,1.811,0,0,1-1.959-1.971v-9.521c-2.886,6.936-9.5,12.487-18.379,11.866-9.428-.659-18.322-7.594-18.322-19.529V223.065a1.811,1.811,0,0,1,1.959-1.971H273.13a1.79,1.79,0,0,1,1.932,1.971V246.73c0,8.281,2.786,12.36,8.55,13.661,6.291,1.42,11.192-3.529,11.192-11.895V223.038a1.789,1.789,0,0,1,1.959-1.942H309.8a1.79,1.79,0,0,1,1.953,1.942Z" transform="translate(46.481 7.589)" fill="#575756"/><path d="M340.071,223.344V236.31c0,1.256-.711,1.656-1.875,1.913-3.144.274-14.113,5.74-14.26,16.213v18.95a1.811,1.811,0,0,1-1.959,1.971H308.939a1.811,1.811,0,0,1-1.959-1.971V223.038a1.79,1.79,0,0,1,1.959-1.942h13.039a1.789,1.789,0,0,1,1.959,1.942v13.015c1.992-8.66,9.834-14.679,13.976-14.679C339.418,221.372,340.071,221.915,340.071,223.344Z" transform="translate(58.449 7.589)" fill="#575756"/><path d="M137.67,227.748a8.327,8.327,0,0,1-5.92-2.461,8.366,8.366,0,1,1,5.92,2.461Zm0-14.067a5.6,5.6,0,0,0-3.984,1.656,5.626,5.626,0,1,0,3.984-1.654Z" transform="translate(14.947 5.108)" fill="#33d9f7"/><path d="M122.372,197.322a49.979,49.979,0,0,1,29.349,9.336,2.588,2.588,0,0,0,3.372-.269l1.407-1.414a2.614,2.614,0,0,0-.312-3.96,57.811,57.811,0,0,0-67.63,0,2.614,2.614,0,0,0-.314,3.961l1.465,1.473a2.583,2.583,0,0,0,3.321.3,52.714,52.714,0,0,1,29.342-9.422Z" transform="translate(4.707 0)" fill="#33d9f7"/><path d="M139.672,224.871a12.324,12.324,0,0,0-12.719-3.024L84.936,235.889a3.318,3.318,0,0,0-1.737,4.947l.154.237,45.034-14.893a7.824,7.824,0,0,1,8.072,1.922,7.922,7.922,0,0,1,1.912,8.111l-15.05,45.072.2.162a3.258,3.258,0,0,0,2.049.72,3.517,3.517,0,0,0,.769-.086,3.309,3.309,0,0,0,2.373-2.187l13.968-42.238h0a12.513,12.513,0,0,0-3.008-12.785Z" transform="translate(3.529 7.616)" fill="#33d9f7"/><path d="M133.8,234.049a4.515,4.515,0,0,0-1.09-4.606,4.442,4.442,0,0,0-4.579-1.087L85.613,242.4l2.258,2.269a3.3,3.3,0,0,0,3.387.81l38.2-12.763-12.706,38.39a3.335,3.335,0,0,0,.807,3.4l2.029,2.04,14.216-42.5Z" transform="translate(4.25 9.311)" fill="#33d9f7"/><path d="M75.45,244.813a50.578,50.578,0,0,1,9.282-29.5,2.62,2.62,0,0,0-.266-3.388l-1.407-1.414a2.583,2.583,0,0,0-3.94.314,58.6,58.6,0,0,0,0,67.98,2.583,2.583,0,0,0,3.94.315l1.465-1.473a2.614,2.614,0,0,0,.293-3.337,53.344,53.344,0,0,1-9.366-29.493Z" transform="translate(0 4.81)" fill="#33d9f7"/><path d="M122.371,281.219a49.984,49.984,0,0,1-29.35-9.33,2.588,2.588,0,0,0-3.371.269l-1.407,1.414a2.614,2.614,0,0,0,.312,3.96,57.812,57.812,0,0,0,67.63,0,2.614,2.614,0,0,0,.314-3.961l-1.465-1.473a2.583,2.583,0,0,0-3.321-.3A52.714,52.714,0,0,1,122.371,281.219Z" transform="translate(4.707 19.891)" fill="#33d9f7"/><path d="M158.916,244.813a50.573,50.573,0,0,1-9.283,29.5,2.622,2.622,0,0,0,.268,3.39l1.407,1.414a2.583,2.583,0,0,0,3.94-.314,58.6,58.6,0,0,0,0-67.98,2.583,2.583,0,0,0-3.94-.315l-1.465,1.473a2.614,2.614,0,0,0-.293,3.339A53.344,53.344,0,0,1,158.916,244.813Z" transform="translate(19.79 4.811)" fill="#33d9f7"/><path d="M360.566,276.138H349.474a2.2,2.2,0,0,1-2.188-2.213V219.336a2.2,2.2,0,0,1,2.188-2.212h40.707a2.063,2.063,0,0,1,2.186,2.212v8.248a2.052,2.052,0,0,1-2.188,2.19H362.754V242.12h25.609a2.063,2.063,0,0,1,2.188,2.212v7.835a2.063,2.063,0,0,1-2.188,2.212H362.754v19.544A2.23,2.23,0,0,1,360.566,276.138Zm-11.092-57.761a.954.954,0,0,0-.949.959v54.587a.955.955,0,0,0,.949.958h11.092a.966.966,0,0,0,.947-.958V253.129h26.85a.838.838,0,0,0,.949-.959v-7.835a.838.838,0,0,0-.949-.959h-26.85V228.523h28.669c.646,0,.949-.3.949-.935v-8.252a.838.838,0,0,0-.949-.958Z" transform="translate(68.32 6.617)" fill="#575756"/><path d="M453.6,276.432a31.441,31.441,0,0,1-21.338-7.906,30.374,30.374,0,0,1,0-43.494,31.442,31.442,0,0,1,21.338-7.906c11.2,0,19.988,5.165,24.726,14.545a2.475,2.475,0,0,1,.22,1.944,2.365,2.365,0,0,1-1.295,1.354l-8.3,4a2.294,2.294,0,0,1-3.173-1.089,14.508,14.508,0,0,0-12.98-7.749,16.654,16.654,0,0,0,0,33.293,14.5,14.5,0,0,0,12.966-7.727,2.3,2.3,0,0,1,3.183-1.12l8.3,4a2.365,2.365,0,0,1,1.291,1.353,2.472,2.472,0,0,1-.22,1.943h0C473.6,271.268,464.813,276.432,453.6,276.432Zm0-58.057c-14.55,0-29.279,9.756-29.279,28.4,0,14.114,10.057,28.4,29.279,28.4,10.724,0,19.117-4.925,23.633-13.865a1.271,1.271,0,0,0,.152-.968,1.2,1.2,0,0,0-.651-.63l-8.3-4c-.5-.238-1.044-.329-1.595.6a15.841,15.841,0,0,1-14.032,8.355,17.9,17.9,0,0,1,0-35.791,15.854,15.854,0,0,1,14.046,8.378c.538.911,1.083.818,1.586.579l8.3-4a1.2,1.2,0,0,0,.655-.63,1.27,1.27,0,0,0-.152-.969C472.722,223.3,464.331,218.375,453.6,218.375Z" transform="translate(86.881 6.618)" fill="#575756"/><path d="M485.988,276.137H474.873a2.192,2.192,0,0,1-2.166-2.213V219.335a2.192,2.192,0,0,1,2.166-2.212h11.115a2.191,2.191,0,0,1,2.165,2.212v54.587a2.191,2.191,0,0,1-2.165,2.216Zm-11.115-57.761a.955.955,0,0,0-.925.958v54.587a.955.955,0,0,0,.925.959h11.115a.955.955,0,0,0,.924-.959V219.335a.954.954,0,0,0-.924-.959Z" transform="translate(99.029 6.618)" fill="#575756"/><path d="M531.731,276.137H492.046a2.2,2.2,0,0,1-2.189-2.213V219.335a2.2,2.2,0,0,1,2.188-2.212h11.092a2.231,2.231,0,0,1,2.188,2.212v42.926h26.4a2.061,2.061,0,0,1,2.188,2.212v9.447a2.063,2.063,0,0,1-2.189,2.217Zm-39.684-57.761a.954.954,0,0,0-.947.959v54.586a.954.954,0,0,0,.947.959h39.684a.838.838,0,0,0,.947-.958v-9.447a.838.838,0,0,0-.947-.959H504.085V219.335a.966.966,0,0,0-.947-.958Z" transform="translate(103.229 6.618)" fill="#575756"/><path d="M436.43,276.321H424.279a2.577,2.577,0,0,1-2.557-1.8L407.743,239.5l-13.719,35.028a2.669,2.669,0,0,1-2.6,1.789H380.431a2.155,2.155,0,0,1-1.917-.893,2.223,2.223,0,0,1-.015-2.116l23.915-54.631A2.721,2.721,0,0,1,405,216.96h3.7l-.249.82a12.047,12.047,0,0,0-.509,3.468,11.724,11.724,0,0,0,11.577,11.836c.142,0,.281-.01.421-.02l.634-.037,17.735,40.285a2.176,2.176,0,0,1,0,2.135,2.116,2.116,0,0,1-1.887.874Zm-28.7-40.133,15.14,37.86a1.348,1.348,0,0,0,1.405,1.006h12.151a.981.981,0,0,0,.839-.3,1.069,1.069,0,0,0-.086-.925l-17.363-39.488c-.093,0-.187.009-.281.009a12.98,12.98,0,0,1-12.822-13.1,13.352,13.352,0,0,1,.346-3.019h-2.053a1.48,1.48,0,0,0-1.464.986l-23.909,54.618a.756.756,0,0,0,.8,1.22h10.99a1.442,1.442,0,0,0,1.45-1Z" transform="translate(75.899 6.578)" fill="#575756"/><path d="M415.759,231.883a9.618,9.618,0,1,1,9.514-9.616,9.618,9.618,0,0,1-9.514,9.616Zm0-17.979a8.363,8.363,0,1,0,8.273,8.363,8.363,8.363,0,0,0-8.273-8.363Z" transform="translate(82.705 5.522)" fill="#575756"/></g></svg>