<?xml version="1.0" encoding="UTF-8" standalone="no"?>
<!-- Created with Inkscape (http://www.inkscape.org/) -->

<svg
   xmlns:dc="http://purl.org/dc/elements/1.1/"
   xmlns:cc="http://creativecommons.org/ns#"
   xmlns:rdf="http://www.w3.org/1999/02/22-rdf-syntax-ns#"
   xmlns:svg="http://www.w3.org/2000/svg"
   xmlns="http://www.w3.org/2000/svg"
   xmlns:sodipodi="http://sodipodi.sourceforge.net/DTD/sodipodi-0.dtd"
   xmlns:inkscape="http://www.inkscape.org/namespaces/inkscape"
   width="46.524349mm"
   height="11.699496mm"
   viewBox="0 0 46.524349 11.699496"
   version="1.1"
   id="svg922"
   inkscape:version="0.92.3 (2405546, 2018-03-11)"
   sodipodi:docname="logo_navbar.svg">
  <defs
     id="defs916">
	

		
	
			
			
		</defs>
  <sodipodi:namedview
     id="base"
     pagecolor="#ffffff"
     bordercolor="#666666"
     borderopacity="1.0"
     inkscape:pageopacity="0.0"
     inkscape:pageshadow="2"
     inkscape:zoom="3.959798"
     inkscape:cx="123.52538"
     inkscape:cy="-10.477541"
     inkscape:document-units="mm"
     inkscape:current-layer="layer1"
     showgrid="false"
     inkscape:pagecheckerboard="true"
     fit-margin-top="1"
     fit-margin-left="1"
     fit-margin-bottom="1"
     fit-margin-right="1"
     showborder="true"
     inkscape:window-width="1920"
     inkscape:window-height="1017"
     inkscape:window-x="-8"
     inkscape:window-y="-8"
     inkscape:window-maximized="1" />
  <metadata
     id="metadata919">
    <rdf:RDF>
      <cc:Work
         rdf:about="">
        <dc:format>image/svg+xml</dc:format>
        <dc:type
           rdf:resource="http://purl.org/dc/dcmitype/StillImage" />
        <dc:title></dc:title>
      </cc:Work>
    </rdf:RDF>
  </metadata>
  <g
     inkscape:label="Camada 1"
     inkscape:groupmode="layer"
     id="layer1"
     transform="translate(135.87414,-70.354606)">
    <g
       aria-label="Ecommerce"
       transform="matrix(1.0112537,0,0,0.98887154,-0.52916663,-1.1439513)"
       style="font-style:normal;font-variant:normal;font-weight:normal;font-stretch:normal;font-size:8.37418556px;line-height:1.25;font-family:sans-serif;-inkscape-font-specification:'Malgun Gothic Semilight, Light';font-variant-ligatures:normal;font-variant-caps:normal;font-variant-numeric:normal;font-feature-settings:normal;text-align:start;letter-spacing:0px;word-spacing:0px;writing-mode:lr-tb;text-anchor:start;fill:#2e334d;fill-opacity:1;stroke:none;stroke-width:0.04480452"
       id="text842">
      <text
         xml:space="preserve"
         style="font-style:normal;font-variant:normal;font-weight:300;font-stretch:normal;font-size:8.21558094px;line-height:1.25;font-family:'Malgun Gothic Semilight';-inkscape-font-specification:'Malgun Gothic Semilight, Light';font-variant-ligatures:normal;font-variant-caps:normal;font-variant-numeric:normal;font-feature-settings:normal;text-align:start;letter-spacing:0px;word-spacing:0px;writing-mode:lr-tb;text-anchor:start;fill:#2d334c;fill-opacity:0.92941176;stroke:none;stroke-width:0.00920228"
         x="-123.048"
         y="80.415108"
         id="text5355"
         transform="scale(0.98887154,1.0112537)"><tspan
           sodipodi:role="line"
           id="tspan5353"
           x="-123.048"
           y="80.415108"
           style="font-style:normal;font-variant:normal;font-weight:300;font-stretch:normal;font-size:8.21558094px;font-family:'Malgun Gothic Semilight';-inkscape-font-specification:'Malgun Gothic Semilight, Light';font-variant-ligatures:normal;font-variant-caps:normal;font-variant-numeric:normal;font-feature-settings:normal;text-align:start;writing-mode:lr-tb;text-anchor:start;fill:#2d334c;fill-opacity:0.92941176;stroke-width:0.00920228">Gramado</tspan></text>
    </g>
    <path
       id="path5255"
       d="m -125.17464,79.976383 c 0,0.595183 -0.48256,1.077719 -1.07772,1.077719 h -7.54406 c -0.59516,0 -1.07772,-0.482559 -1.07772,-1.077719 v -7.544058 c 0,-0.595159 0.48256,-1.077719 1.07772,-1.077719 h 7.54406 c 0.59516,0 1.07772,0.48256 1.07772,1.077719 z"
       style="fill:#2e334d;fill-opacity:0.92941176;stroke-width:0.02368041"
       inkscape:connector-curvature="0" />
    <path
       id="path5257"
       d="m -130.71738,76.093885 h 0.85195 c 0.52647,0 0.86057,-0.384215 0.86057,-0.885624 0,-0.501148 -0.33408,-0.885339 -0.86057,-0.885339 h -0.85195 z m -1.25312,-2.222264 c 0,-0.39255 0.23387,-0.651472 0.65176,-0.651472 h 1.47837 c 1.22832,0 2.13874,0.802103 2.13874,1.996472 0,1.219707 -0.94409,1.980037 -2.08863,1.980037 h -0.92712 v 1.370054 c 0,0.417888 -0.26728,0.651472 -0.6267,0.651472 -0.35916,0 -0.62642,-0.233608 -0.62642,-0.651472 z"
       style="fill:#ffffff;stroke-width:0.02368041"
       inkscape:connector-curvature="0" />
    <g
       id="g5265"
       transform="matrix(0.01894433,0,0,0.01894433,-134.87414,71.354606)">
</g>
    <g
       id="g5267"
       transform="matrix(0.01894433,0,0,0.01894433,-134.87414,71.354606)">
</g>
    <g
       id="g5269"
       transform="matrix(0.01894433,0,0,0.01894433,-134.87414,71.354606)">
</g>
    <g
       id="g5271"
       transform="matrix(0.01894433,0,0,0.01894433,-134.87414,71.354606)">
</g>
    <g
       id="g5273"
       transform="matrix(0.01894433,0,0,0.01894433,-134.87414,71.354606)">
</g>
    <g
       id="g5275"
       transform="matrix(0.01894433,0,0,0.01894433,-134.87414,71.354606)">
</g>
    <g
       id="g5277"
       transform="matrix(0.01894433,0,0,0.01894433,-134.87414,71.354606)">
</g>
    <g
       id="g5279"
       transform="matrix(0.01894433,0,0,0.01894433,-134.87414,71.354606)">
</g>
    <g
       id="g5281"
       transform="matrix(0.01894433,0,0,0.01894433,-134.87414,71.354606)">
</g>
    <g
       id="g5283"
       transform="matrix(0.01894433,0,0,0.01894433,-134.87414,71.354606)">
</g>
    <g
       id="g5285"
       transform="matrix(0.01894433,0,0,0.01894433,-134.87414,71.354606)">
</g>
    <g
       id="g5287"
       transform="matrix(0.01894433,0,0,0.01894433,-134.87414,71.354606)">
</g>
    <g
       id="g5289"
       transform="matrix(0.01894433,0,0,0.01894433,-134.87414,71.354606)">
</g>
    <g
       id="g5291"
       transform="matrix(0.01894433,0,0,0.01894433,-134.87414,71.354606)">
</g>
    <g
       id="g5293"
       transform="matrix(0.01894433,0,0,0.01894433,-134.87414,71.354606)">
</g>
  </g>
</svg>
