<?xml version="1.0" encoding="utf-8"?>
<!-- Generator: Adobe Illustrator 26.0.2, SVG Export Plug-In . SVG Version: 6.00 Build 0)  -->
<svg version="1.1" id="Camada_1" xmlns="http://www.w3.org/2000/svg" xmlns:xlink="http://www.w3.org/1999/xlink" x="0px" y="0px"
	 viewBox="0 0 457 95" style="enable-background:new 0 0 457 95;" xml:space="preserve">
<style type="text/css">
	.st0{fill:#3DBDED;}
	.st1{fill:#482777;}
	.st2{fill:#F8D700;}
	.st3{fill:#E73577;}
	.st4{fill:#E99500;}
</style>
<g>
	<path class="st0" d="M27.45,3.34c0,0-13.26,3.21-14.18,26.19C13,36.28,13.86,43.05,16,49.46C20.31,62.33,27.96,67.6,27.96,67.6
		s-1.3,28.85,30.83,25.86s7.18-64.59,7.18-64.59L27.45,3.34z"/>
	<g>
		<path class="st1" d="M97.97,47.83c3.39,12.79-16.63,18.64-34.39,20.54c-9.45,1.01-23.07,0.34-30.07-3.68
			c-2.01,7.97,0.75,14.21,0.75,14.21c1.97,4.56,15.25,25.33,43.57,7.54C104.12,69.93,100.73,53.69,97.97,47.83z"/>
		<path class="st2" d="M50.43,45.07c24.91-14.11,43.52-5.18,47.34,2.35c0.07,0.13,0.13,0.27,0.2,0.42c-0.64-2.43-1.8-4.43-2.46-5.64
			C93.12,37.86,81,16.88,55.06,5.63C41.16-1.62,16.75-0.7,15.8,20.22c-0.61,13.45,2.25,27.5,7.94,34.49c0,0,3.2,5.25,9.77,9.97
			C35.08,58.49,39.53,51.24,50.43,45.07z"/>
		<path class="st3" d="M65.81,68.92c33.47-5.54,34.06-13.89,32.17-21.08c-0.07-0.14-0.14-0.28-0.2-0.42
			c-3.82-7.53-22.44-16.46-47.34-2.35c-10.9,6.17-15.35,13.42-16.92,19.62C38.85,68.47,56.98,70.38,65.81,68.92z"/>
	</g>
	<g>
		<path class="st4" d="M97.76,47.42c0.07,0.13,0.13,0.27,0.2,0.42c0.15,0.55,0.28,1.11,0.38,1.68c-0.58-3.81-3.09-9.44-9.46-17.75
			C70.79,8.21,47.26,1.83,41.59,1.71C76.05,17.18,87.26,35.84,80.15,35.4c-11.25-0.37-20.24,5.24-20.24,5.24l0,0
			C79.97,33.29,94.45,40.88,97.76,47.42z"/>
	</g>
</g>
<g>
	<path class="st3" d="M132.01,62.41c0,2.09,0.76,2.66,3.42,2.85h2.09v10.08h-9.6c-5.9-0.19-8.08-2.57-7.99-8.37V41.3h-5.04V31.13
		h5.04V19.33h12.08v11.79h5.52V41.3h-5.52V62.41z"/>
	<path class="st3" d="M189.06,53.76c0,12.93-10.56,23.11-24.06,23.11c-13.88,0-23.87-9.79-23.87-23.49
		c0-13.98,9.79-23.58,24.06-23.58C179.08,29.79,189.06,39.87,189.06,53.76z M153.31,53.38c0,7.61,4.75,12.74,11.79,12.74
		c6.94,0,11.79-5.23,11.79-12.55c0-7.99-4.47-12.93-11.7-12.93C158.06,40.63,153.31,45.67,153.31,53.38z"/>
	<path class="st3" d="M233.85,31.32v27.86c0,6.47-1.33,10.08-4.95,13.12c-3.52,2.95-8.46,4.56-14.26,4.56
		c-6.09,0-11.32-1.71-14.74-4.85c-3.14-2.85-4.66-7.04-4.66-12.84V31.32h12.08v27.1c0,4.95,2.95,8.27,7.32,8.27
		c4.47,0,7.13-2.85,7.13-7.51V31.32H233.85z"/>
	<path class="st3" d="M255.15,31.32v6.47c1.24-3.23,2.09-4.56,3.9-5.9c1.9-1.33,4.47-2.09,7.13-2.09c0.29,0,0.76,0,1.43,0.1v12.36
		c-0.95-0.1-1.9-0.19-2.57-0.19c-3.33,0-6.37,1.52-8.08,3.99c-1.43,2-1.81,3.9-1.81,8.08v21.21h-12.08V31.32H255.15z"/>
	<path class="st3" d="M287.19,75.34h-12.08V41.49h-4.85V31.32h4.85v-2.47c0-11.79,5.8-17.31,17.88-16.93v11.13
		c-4.18,0.48-5.8,2.09-5.8,5.8v2.47h5.8v10.17h-5.8V75.34z"/>
	<path class="st3" d="M332.55,31.32h12.08v44.03h-12.08v-6.09c-4.09,5.23-8.84,7.61-15.31,7.61c-12.36,0-21.21-9.6-21.21-23.01
		c0-13.88,9.32-24.06,22.16-24.06c5.99,0,10.08,2.09,14.36,7.13V31.32z M308.97,53.66c0,7.7,5.04,13.5,11.6,13.5
		c6.75,0,12.17-6.28,12.17-13.88c0-7.8-4.95-13.31-12.08-13.31C313.82,39.97,308.97,45.58,308.97,53.66z M336.16,11.44l-12.55,13.22
		h-7.51l7.89-13.22H336.16z"/>
	<path class="st3" d="M391.98,70.3c-5.04,4.56-10.27,6.56-16.93,6.56c-13.41,0-23.3-9.89-23.3-23.3c0-13.88,9.7-23.77,23.39-23.77
		c6.56,0,11.98,2.28,17.59,7.32l-8.08,7.32c-2.66-2.66-5.52-3.9-9.03-3.9c-6.66,0-11.6,5.42-11.6,12.65
		c0,7.51,5.04,12.93,12.08,12.93c3.14,0,5.42-0.95,8.56-3.71L391.98,70.3z"/>
	<path class="st3" d="M409.95,18.86c0,3.71-2.85,6.56-6.66,6.56c-3.9,0-6.75-2.85-6.75-6.66c0-3.9,2.85-6.75,6.75-6.75
		C407.19,12.01,409.95,14.86,409.95,18.86z M409.29,75.34h-12.08V31.32h12.08V75.34z"/>
	<path class="st3" d="M419.36,75.34V11.92h12.08v63.43H419.36z"/>
</g>
</svg>
