<?xml version="1.0" encoding="UTF-8"?>
<!-- Created with Inkscape (http://www.inkscape.org/) -->
<svg width="800" height="600" version="1.1" viewBox="0 0 211.67 158.75" xmlns="http://www.w3.org/2000/svg" xmlns:cc="http://creativecommons.org/ns#" xmlns:dc="http://purl.org/dc/elements/1.1/" xmlns:rdf="http://www.w3.org/1999/02/22-rdf-syntax-ns#">
 <metadata>
  <rdf:RDF>
   <cc:Work rdf:about="">
    <dc:format>image/svg+xml</dc:format>
    <dc:type rdf:resource="http://purl.org/dc/dcmitype/StillImage"/>
    <dc:title/>
   </cc:Work>
  </rdf:RDF>
 </metadata>
 <g transform="translate(-.37798 -138.78)">
  <rect x=".37798" y="138.78" width="211.67" height="158.75" fill="#fafafa"/>
  <g transform="matrix(.90972 0 0 .90972 79.83 191.77)" fill="#a5a5a5">
   <g fill="#a5a5a5">
    <path d="m57 6h-56c-0.552 0-1 0.447-1 1v44c0 0.553 0.448 1 1 1h56c0.552 0 1-0.447 1-1v-44c0-0.553-0.448-1-1-1zm-1 44h-54v-42h54z"/>
    <path d="m16 28.138c3.071 0 5.569-2.498 5.569-5.568 0-3.072-2.498-5.57-5.569-5.57s-5.569 2.498-5.569 5.569 2.498 5.569 5.569 5.569zm0-9.138c1.968 0 3.569 1.602 3.569 3.569s-1.601 3.569-3.569 3.569-3.569-1.601-3.569-3.568 1.601-3.57 3.569-3.57z"/>
    <path d="m7 46c0.234 0 0.47-0.082 0.66-0.249l16.313-14.362 10.302 10.301c0.391 0.391 1.023 0.391 1.414 0s0.391-1.023 0-1.414l-4.807-4.807 9.181-10.054 11.261 10.323c0.407 0.373 1.04 0.345 1.413-0.062s0.346-1.04-0.062-1.413l-12-11c-0.196-0.179-0.457-0.268-0.72-0.262-0.265 0.012-0.515 0.129-0.694 0.325l-9.794 10.727-4.743-4.743c-0.374-0.373-0.972-0.392-1.368-0.044l-17.017 14.983c-0.415 0.365-0.455 0.997-0.09 1.412 0.198 0.225 0.474 0.339 0.751 0.339z"/>
   </g>
  </g>
 </g>
</svg>
