<?xml version="1.0" encoding="UTF-8" standalone="no"?>
<svg
   xmlns:dc="http://purl.org/dc/elements/1.1/"
   xmlns:cc="http://creativecommons.org/ns#"
   xmlns:rdf="http://www.w3.org/1999/02/22-rdf-syntax-ns#"
   xmlns:svg="http://www.w3.org/2000/svg"
   xmlns="http://www.w3.org/2000/svg"
   height="21"
   width="32"
   id="svg45"
   xml:space="preserve"
   viewBox="0 0 32 21"
   version="1.1"
   enable-background="new 0 0 40 40"><metadata
     id="metadata51"><rdf:RDF><cc:Work
         rdf:about=""><dc:format>image/svg+xml</dc:format><dc:type
           rdf:resource="http://purl.org/dc/dcmitype/StillImage" /><dc:title></dc:title></cc:Work></rdf:RDF></metadata><defs
     id="defs49" /><g
     transform="translate(-4,-9.5)"
     id="E-Com"><g
       id="CVC_5_" /><g
       id="Mastercard_5_" /><g
       id="Visa_6_" /><g
       id="Discover" /><g
       id="Amex_3_"><g
         id="Amex"><g
           id="g8"><path
             style="clip-rule:evenodd;fill:#3498d8;fill-rule:evenodd"
             id="path6"
             d="M 34,9.5 H 6 c -1.1,0 -2,0.9 -2,2 v 17 c 0,1.1 0.9,2 2,2 h 28 c 1.1,0 2,-0.9 2,-2 v -17 c 0,-1.1 -0.9,-2 -2,-2 z" /></g></g><g
         id="Amex_1_"><g
           id="g13"><path
             style="clip-rule:evenodd;fill:#ffffff;fill-rule:evenodd"
             id="path11"
             d="m 10.7,20.3 h 1.6 l -0.8,-2 z M 33,16.5 h -4.1 l -1,1.1 -0.9,-1.1 h -8.7 l -0.8,1.8 -0.8,-1.8 h -3.5 v 0.8 l -0.4,-0.8 h -3 l -2.9,7 h 3.5 l 0.4,-1.1 h 1 l 0.4,1.1 h 3.9 v -0.8 l 0.3,0.8 h 2 l 0.3,-0.9 v 0.9 h 8 l 1,-1.1 0.9,1.1 h 4.1 L 30.1,20 Z m -12.1,6 h -1.1 v -3.9 l -1.7,3.9 h -1 l -1.7,-3.9 v 3.9 H 13.1 L 12.7,21.4 H 10.3 L 9.9,22.5 H 8.6 l 2.1,-5 h 1.7 l 1.9,4.7 v -4.7 h 1.9 l 1.5,3.4 1.4,-3.4 H 21 v 5 z m 9.9,0 H 29.3 L 28,20.8 26.5,22.5 H 22 v -5 h 4.6 l 1.4,1.6 1.5,-1.6 h 1.4 L 28.7,20 Z m -7.7,-4 v 0.9 h 2.5 v 1 h -2.5 v 1 h 2.8 L 27.2,19.9 26,18.5 Z" /></g></g></g><g
       id="Bitcoin_3_" /><g
       id="Google_Wallet_5_" /><g
       id="PayPal_3_" /><g
       id="Square_Payment_1_" /><g
       id="Shop_5_" /><g
       id="Postage" /><g
       id="Package_7_" /><g
       id="Discount_3_" /><g
       id="Earth_3_" /><g
       id="Barcode_3_" /><g
       id="Cart_Plus_6_" /><g
       id="Cart_Minus_6_" /><g
       id="Cart_4_" /><g
       id="Receipt_5_" /><g
       id="Truck_9_" /><g
       id="Calculator_6_" /><g
       id="Euro_Symbol" /><g
       id="Cent_Symbol" /><g
       id="Dollar_Symbol" /><g
       id="Pound_Symbol" /><g
       id="Bank_5_" /><g
       id="Wallet_3_" /><g
       id="Coins_6_" /><g
       id="Bills_6_" /><g
       id="Dollar_Alt" /><g
       id="Dollar" /></g><g
     transform="translate(-4,-9.5)"
     id="Lockup" /></svg>