<svg width="59.573mm" height="5.5563mm" version="1.1" viewBox="0 0 59.573 5.5563" xmlns="http://www.w3.org/2000/svg">
  <defs>
    <style>.cls-1 {
            fill: #b82126;
            }

            .cls-2 {
            fill: #fff;
            }</style>
  </defs>
  <g transform="translate(-112.25 -157.7)">
    <g transform="matrix(.042738 0 0 .042738 112.25 157.7)">
      <path d="m0 0h160v128h-160z" fill="#f6f6f6"/>
      <path class="st1" d="m148 0h-140c-4 0-8 4-8 8v12h160v-8c0-8-4-12-12-12z" fill="#265697"/>
      <path id="Rectangle-1_1_" class="st2" d="m0 110v8c0 8 4 12 12 12h136c8 0 12-4 12-12v-8z" fill="#d97b16"/>
      <g fill="#265697">
        <path id="Shape" class="st1" d="m111.6 44.8c-2.2-0.9-5.8-1.8-10.1-1.8-11.2 0-19.1 5.8-19.1 14-0.1 6.1 5.6 9.5 9.9 11.5 4.4 2.1 5.9 3.4 5.9 5.3 0 2.8-3.5 4.1-6.8 4.1-4.5 0-6.9-0.6-10.7-2.2l-1.5-0.7-1.6 9.5c2.6 1.2 7.5 2.2 12.6 2.3 11.9 0 19.6-5.7 19.7-14.5 0-4.8-3-8.5-9.5-11.5-4-2-6.4-3.3-6.4-5.3 0-1.8 2.1-3.6 6.5-3.6 3.7-0.1 6.4 0.8 8.5 1.6l1 0.5 1.6-9.2"/>
        <path id="Shape_1_" class="st1" d="m140.6 43.8h-8.7c-2.7 0-4.7 0.8-5.9 3.5l-16.8 38.9h11.8s1.9-5.2 2.4-6.4h14.5c0.3 1.5 1.4 6.4 1.4 6.4h10.5zm-13.9 27.3c0.9-2.4 4.5-11.9 4.5-11.9-0.1 0.1 0.9-2.5 1.5-4l0.8 3.7s2.2 10.1 2.6 12.3z"/>
        <path id="Shape_2_" class="st1" d="m59.2 86.2 7.1-42.4h11.3l-7.1 42.4z"/>
        <path id="Shape_3_" class="st1" d="m49.8 43.8-11.1 28.9-1.2-5.9c-2.1-6.8-8.5-14.1-15.7-17.8l10.2 37.1h12l17.8-42.3h-12"/>
      </g>
      <path id="Shape_4_" class="st2" d="m28.4 43.7h-18.3l-0.1 0.9c14.2 3.5 23.6 12 27.5 22.2l-4-19.5c-0.7-2.7-2.6-3.5-5.1-3.6" fill="#d97b16"/>
    </g>
    <g transform="matrix(.26458 0 0 .26458 141.19 157.7)">
      <g id="E-Com" transform="translate(-4,-9.5)">
        <g id="Amex_3_">
          <g id="Amex">
            <path d="m34 9.5h-28c-1.1 0-2 0.9-2 2v17c0 1.1 0.9 2 2 2h28c1.1 0 2-0.9 2-2v-17c0-1.1-0.9-2-2-2z" clip-rule="evenodd" fill="#3498d8" fill-rule="evenodd"/>
          </g>
          <g id="Amex_1_">
            <path d="m10.7 20.3h1.6l-0.8-2zm22.3-3.8h-4.1l-1 1.1-0.9-1.1h-8.7l-0.8 1.8-0.8-1.8h-3.5v0.8l-0.4-0.8h-3l-2.9 7h3.5l0.4-1.1h1l0.4 1.1h3.9v-0.8l0.3 0.8h2l0.3-0.9v0.9h8l1-1.1 0.9 1.1h4.1l-2.6-3.5zm-12.1 6h-1.1v-3.9l-1.7 3.9h-1l-1.7-3.9v3.9h-2.3l-0.4-1.1h-2.4l-0.4 1.1h-1.3l2.1-5h1.7l1.9 4.7v-4.7h1.9l1.5 3.4 1.4-3.4h1.9v5zm9.9 0h-1.5l-1.3-1.7-1.5 1.7h-4.5v-5h4.6l1.4 1.6 1.5-1.6h1.4l-2.2 2.5zm-7.7-4v0.9h2.5v1h-2.5v1h2.8l1.3-1.5-1.2-1.4z" clip-rule="evenodd" fill="#fff" fill-rule="evenodd"/>
          </g>
        </g>
      </g>
    </g>
    <g id="Artboard" transform="matrix(.1389 0 0 .1389 163.48 157.7)" fill="none" fill-rule="evenodd">
      <g id="diners-club-international">
        <path id="Path" d="m60 35c0 2.75-2.25 5-5 5h-50c-2.75 0-5-2.25-5-5v-30c0-2.75 2.25-5 5-5h50c2.75 0 5 2.25 5 5z" fill="#074c95"/>
        <g id="Group" transform="translate(18,10)" fill="#fff">
          <path d="m18.11 9.99c0.038-4.499-3.602-8.355-8.295-8.41-4.682-0.054-8.508 3.678-8.509 8.397-1e-3 4.727 3.788 8.367 8.32 8.411 4.775 0.046 8.518-3.848 8.484-8.398zm-8.183 9.166c-0.068-0.015-0.842-0.04-0.911-0.044-0.72-0.038-1.421-0.176-2.107-0.393-1.687-0.532-3.108-1.471-4.259-2.813-1.189-1.386-1.903-2.984-2.115-4.802-0.024-0.203-0.054-0.406-0.081-0.609v-0.884c0.015-0.062 0.035-0.124 0.043-0.187 0.05-0.402 0.077-0.807 0.149-1.205 0.319-1.753 1.081-3.29 2.32-4.572 1.544-1.597 3.443-2.48 5.646-2.723 0.203-0.022 1.147-0.053 1.349-0.079 1.756 0 4.659 0.038 4.727 0.045 0.269 0.029 0.54 0.04 0.806 0.083 1.899 0.303 3.599 1.051 5.029 2.343 2.192 1.98 3.186 4.461 3.002 7.41-0.064 1.028-0.322 2.013-0.79 2.925-1.611 3.142-4.189 4.934-7.679 5.424-0.189 0.028-3.373 0.081-5.129 0.081z" fill-rule="nonzero"/>
          <path d="m11.645 14.88v-9.785c1.448 0.464 3.239 2.143 3.352 4.644 0.117 2.611-1.629 4.538-3.352 5.141z"/>
          <path d="m7.78 14.883c-1.597-0.559-3.496-2.414-3.348-5.212 0.123-2.321 1.766-4.047 3.348-4.581z"/>
        </g>
      </g>
    </g>
    <g transform="translate(-4.168)">
      <path d="m143.59 162.56c0 0.38197-0.31253 0.6945-0.6945 0.6945h-6.945c-0.38198 0-0.6945-0.31253-0.6945-0.6945v-4.167c0-0.38198 0.31252-0.6945 0.6945-0.6945h6.945c0.38197 0 0.6945 0.31252 0.6945 0.6945z" fill-rule="evenodd"/>
      <path d="m142.1 160.7c-0.0361 0.17682-0.19252 0.30989-0.37989 0.30989-0.0418 0-0.0833-7e-3 -0.12307-0.02l-0.0861 0.25725c0.0674 0.0225 0.13807 0.034 0.20919 0.0339 0.3185 0 0.58435-0.22613 0.64574-0.52671zm-0.81646 0.41587 0.1796-0.20321c-0.0803-0.071-0.1307-0.17474-0.1307-0.29044 0-0.11557 0.0506-0.21919 0.1307-0.29017l-0.17973-0.20321c-0.13627 0.12071-0.22224 0.29711-0.22224 0.49338-1.4e-4 0.1964 0.086 0.37294 0.22237 0.49365zm0.31364-0.86132c0.0386-0.0129 0.0799-0.0199 0.12293-0.0199 0.18751 0 0.34405 0.1332 0.37989 0.3103l0.26585-0.0542c-0.061-0.30086-0.32697-0.52727-0.64574-0.52727-0.071-1.4e-4 -0.14154 0.0114-0.20877 0.0338-1.4e-4 -1.4e-4 0.0858 0.25724 0.0858 0.25724zm-0.79576-0.58783v1.272l0.22071 0.0915-0.10445 0.25086-0.21835-0.0907c-0.049-0.0213-0.0822-0.0538-0.10751-0.0903-0.0242-0.0375-0.0422-0.0888-0.0422-0.15779v-1.2755zm-1.0056 0.29697c-0.3635-6e-3 -0.66297 0.28489-0.66853 0.64853-2e-3 0.1364 0.0372 0.26377 0.10654 0.36975l1.1932-0.51004c-0.0671-0.28739-0.32267-0.50352-0.63116-0.50824zm-0.39531 0.6995c-2e-3 -0.0153-3e-3 -0.0308-2e-3 -0.0467 3e-3 -0.21432 0.17973-0.38531 0.39392-0.38183 0.11653 2e-3 0.22001 0.055 0.29002 0.13751zm0.65644 0.23613c-0.072 0.07-0.16946 0.11251-0.27711 0.11098-0.0738-1e-3 -0.14223-0.0233-0.20029-0.0601l-0.14418 0.22974c0.10195 0.0646 0.21988 0.0996 0.34058 0.10126 0.18266 3e-3 0.3492-0.069 0.47018-0.18752z" fill="#fff"/>
      <g fill-rule="evenodd">
        <path d="m138.18 160.6c-0.059 0.28975-0.31516 0.50768-0.62227 0.50768-0.0685 0-0.13654-0.011-0.20155-0.0326l-0.14112 0.42156c0.11043 0.0369 0.22613 0.0557 0.34267 0.0556 0.52198 0 0.95743-0.37045 1.0577-0.86285z" fill="#ed412f"/>
        <path d="m136.84 161.28 0.29447-0.33295c-0.1314-0.11639-0.21432-0.28627-0.21432-0.47573 0-0.18932 0.0829-0.35919 0.21432-0.47545l-0.29461-0.33281c-0.22321 0.1978-0.36391 0.48657-0.36391 0.8084-1.4e-4 0.32183 0.1407 0.61074 0.36405 0.80854" fill="#1aa5df"/>
        <path d="m137.35 159.87c0.0649-0.0217 0.13293-0.0326 0.20141-0.0326 0.30738 0 0.56365 0.21835 0.62255 0.50824l0.43545-0.0888c-0.0999-0.49282-0.5356-0.86382-1.058-0.86382-0.11626-1.4e-4 -0.23183 0.0186-0.34225 0.0554z" fill="#ffca32"/>
      </g>
    </g>
    <g id="logo-hipercard" transform="matrix(.25724 0 0 .22224 -113.79 -273.89)">
      <path transform="translate(1031,1942)" d="m2 0h36c1.108 0 2 0.892 2 2v21c0 1.108-0.892 2-2 2h-36c-1.108 0-2-0.892-2-2v-21c0-1.108 0.892-2 2-2z" fill="#b82126"/>
      <g id="hipercard-seeklogo.com" transform="translate(1031,1946)">
        <path class="cls-1" d="m10.981 0h-4.146c-1.835 0.087-3.329 0.824-3.761 2.346-0.225 0.793-0.349 1.665-0.526 2.487-0.896 4.182-1.691 8.48-2.548 12.579h32.275c2.5 0 4.208-0.527 4.671-2.508 0.215-0.92 0.421-1.962 0.627-2.973 0.802-3.941 1.605-7.881 2.427-11.931h-29.019" fill="#b82126" data-name="Path 764"/>
        <path class="cls-2" transform="translate(-41.474,-61.255)" d="m69.107 71.658c-0.448 0.438-1.7 0.563-1.576-0.485 0.107-0.87 1.054-1.055 2.08-0.929a2.584 2.584 0 0 1-0.504 1.414zm-1.414-3.393c-0.043 0.24-0.108 0.457-0.162 0.687 0.513-0.128 2.109-0.522 2.262 0.162a1.2 1.2 0 0 1-0.1 0.646c-1.443-0.137-2.62 0.1-2.929 1.131a1.276 1.276 0 0 0 0.465 1.555 1.932 1.932 0 0 0 2.242-0.626 2.638 2.638 0 0 0-0.061 0.646h0.747a11.592 11.592 0 0 1 0.222-1.939 7.658 7.658 0 0 0 0.242-1.576c-0.063-1.108-1.9-0.716-2.928-0.686zm7.494 3.735c-0.585 0.013-0.875-0.349-0.889-0.949-0.023-1.051 0.438-2.218 1.374-2.323a2.278 2.278 0 0 1 1.071 0.162c-0.294 1.181-0.188 3.082-1.556 3.11zm1.939-5.555c-0.074 0.653-0.174 1.28-0.3 1.879-2.131-0.674-3.437 0.893-3.414 2.828a1.521 1.521 0 0 0 0.3 1.01 1.965 1.965 0 0 0 2.141 0.182 1.509 1.509 0 0 0 0.3-0.3c0.056-0.071 0.145-0.255 0.161-0.2a4.521 4.521 0 0 0-0.081 0.626h0.788a55.017 55.017 0 0 1 0.97-6.019zm-22.24 5.232c-0.465 0.492-1.607 0.485-1.7-0.343a4.115 4.115 0 0 1 0.162-1.111c0.067-0.377 0.115-0.739 0.182-1.071 0.458-0.559 1.8-0.626 1.939 0.3a3.082 3.082 0 0 1-0.583 2.226zm0.687-3.414a2.293 2.293 0 0 0-2.02 0.367c0 0.014-9e-3 0.016-0.021 0.017l0.021-0.017c7e-3 -0.135 0.054-0.229 0.061-0.364h-0.747c-0.311 2.072-0.681 4.086-1.071 6.08h0.869c0.126-0.777 0.209-1.6 0.384-2.323 0.2 0.765 1.494 0.619 2.04 0.323 1.127-0.611 1.997-3.513 0.484-4.081zm4.121 1.454h-2.04a1.2 1.2 0 0 1 1.151-1.01c0.626-0.022 1.074 0.232 0.889 1.012zm-0.828-1.535a2.268 2.268 0 0 0-1.535 0.626 3.509 3.509 0 0 0-0.727 2.545c0.157 1.4 1.9 1.349 3.293 1.01 0.024-0.246 0.083-0.456 0.121-0.687a2.77 2.77 0 0 1-2.161 0.141c-0.446-0.282-0.448-1-0.3-1.616 0.937-0.03 1.91-0.024 2.848 0a2.986 2.986 0 0 0 0.081-1.353c-0.201-0.571-0.904-0.719-1.62-0.664zm-7.635 0.081c-0.024 0-0.022 0.032-0.02 0.061-0.191 1.431-0.45 2.8-0.727 4.141h0.869c0.209-1.441 0.448-2.851 0.747-4.2zm22.664 0.02a1.327 1.327 0 0 0-1.656 0.646c0.071-0.2 0.075-0.463 0.141-0.667h-0.768q-0.31 2.164-0.747 4.2h0.889a9.51 9.51 0 0 1 0.2-1.515c0.186-1.166 0.458-2.445 1.818-2.06 0.046-0.194 0.065-0.417 0.122-0.602zm-9.756 3.192a2.114 2.114 0 0 1-0.081-0.808 2.824 2.824 0 0 1 0.586-1.616 2.129 2.129 0 0 1 2.06-0.121c0.022-0.24 0.07-0.455 0.1-0.687a3.283 3.283 0 0 0-2.868 0.545 3.45 3.45 0 0 0-0.687 2.868c0.313 1.023 1.714 1.079 2.848 0.687 0.05-0.206 0.077-0.435 0.121-0.646-0.618 0.324-1.805 0.491-2.08-0.221zm-0.485-3.212a1.333 1.333 0 0 0-1.654 0.709c0.064-0.219 0.09-0.476 0.141-0.707h-0.771c-0.188 1.455-0.464 2.822-0.727 4.2h0.869a16.514 16.514 0 0 1 0.444-2.707 1.211 1.211 0 0 1 1.6-0.869c7e-3 -0.229 0.074-0.406 0.097-0.624zm-14-1.7c-0.124 0.805-0.264 1.595-0.4 2.384-0.9 9e-3 -1.819 0.044-2.687-0.02 0.164-0.772 0.281-1.59 0.444-2.363h-0.969c-0.347 1.969-0.663 3.97-1.05 5.9h0.99c0.155-0.989 0.3-1.989 0.5-2.929a24.126 24.126 0 0 1 2.666 0.02c-0.167 0.977-0.369 1.92-0.525 2.909h0.99c0.318-2 0.653-3.979 1.05-5.9zm2.464 0.889c0.173-0.119 0.4-0.663 0.141-0.889a0.481 0.481 0 0 0-0.4-0.061 0.488 0.488 0 0 0-0.343 0.182c-0.11 0.149-0.21 0.6-0.04 0.768s0.536 0.076 0.646 0z" fill="#fff" data-name="Path 765"/>
      </g>
    </g>
    <g transform="matrix(.26457 0 0 .26457 120.85 157.7)">
      <g transform="translate(-4,-9.5)">
        <g id="Mastercard">
          <path d="m34 9.5h-28c-1.1 0-2 0.9-2 2v17c0 1.1 0.9 2 2 2h28c1.1 0 2-0.9 2-2v-17c0-1.1-0.9-2-2-2z" clip-rule="evenodd" fill="#34495e" fill-rule="evenodd"/>
        </g>
        <g id="Mastercard_1_">
          <path d="m23 20a7 7 0 0 1-7 7 7 7 0 0 1-7-7 7 7 0 0 1 7-7 7 7 0 0 1 7 7z" clip-rule="evenodd" fill="#e74c3c" fill-rule="evenodd"/>
        </g>
        <g id="Mastercard_2_">
          <path d="m31 20a7 7 0 0 1-7 7 7 7 0 0 1-7-7 7 7 0 0 1 7-7 7 7 0 0 1 7 7z" clip-rule="evenodd" fill="#f1c40f" fill-rule="evenodd"/>
        </g>
        <g id="Mastercard_3_">
          <path d="m21.8 16.5h-5.6c-0.2 0.3-0.4 0.6-0.6 1h6.8c-0.2-0.4-0.4-0.7-0.6-1zm-1.6-2h-2.3c-0.3 0.3-0.6 0.6-0.9 1h4.2c-0.4-0.4-0.8-0.7-1-1zm2.6 4h-7.5c-0.1 0.3-0.2 0.7-0.2 1h7.9c-0.1-0.3-0.1-0.7-0.2-1zm-6.6 5h5.6c0.2-0.3 0.4-0.6 0.6-1h-6.8c0.2 0.4 0.4 0.7 0.6 1zm-1-2h7.5c0.1-0.3 0.2-0.7 0.2-1h-7.9c0.1 0.3 0.1 0.7 0.2 1zm2.6 4h2.3c0.3-0.3 0.6-0.6 0.9-1h-4.2c0.4 0.4 0.8 0.7 1 1z" clip-rule="evenodd" fill="#e74c3c" fill-rule="evenodd"/>
        </g>
      </g>
    </g>
  </g>
  <style type="text/css">.st0{fill:#F6F6F6;}
	.st1{fill:#265697;}
	.st2{fill:#D97B16;}</style>
</svg>
