<?xml version="1.0" encoding="UTF-8" standalone="no"?>
<svg
   xmlns:dc="http://purl.org/dc/elements/1.1/"
   xmlns:cc="http://creativecommons.org/ns#"
   xmlns:rdf="http://www.w3.org/1999/02/22-rdf-syntax-ns#"
   xmlns:svg="http://www.w3.org/2000/svg"
   xmlns="http://www.w3.org/2000/svg"
   height="21"
   width="32"
   id="svg55"
   xml:space="preserve"
   viewBox="0 0 32 21"
   version="1.1"
   enable-background="new 0 0 40 40"><metadata
     id="metadata61"><rdf:RDF><cc:Work
         rdf:about=""><dc:format>image/svg+xml</dc:format><dc:type
           rdf:resource="http://purl.org/dc/dcmitype/StillImage" /><dc:title></dc:title></cc:Work></rdf:RDF></metadata><defs
     id="defs59" /><g
     transform="translate(-4,-9.5)"
     id="E-Com"><g
       id="CVC_5_" /><g
       id="Mastercard_5_"><g
         id="Mastercard"><g
           id="g5"><path
             style="clip-rule:evenodd;fill:#34495e;fill-rule:evenodd"
             id="path3"
             d="M 34,9.5 H 6 c -1.1,0 -2,0.9 -2,2 v 17 c 0,1.1 0.9,2 2,2 h 28 c 1.1,0 2,-0.9 2,-2 v -17 c 0,-1.1 -0.9,-2 -2,-2 z" /></g></g><g
         id="Mastercard_1_"><g
           id="g10"><circle
             style="clip-rule:evenodd;fill:#e74c3c;fill-rule:evenodd"
             id="circle8"
             r="7"
             cy="20"
             cx="16" /></g></g><g
         id="Mastercard_2_"><g
           id="g15"><circle
             style="clip-rule:evenodd;fill:#f1c40f;fill-rule:evenodd"
             id="circle13"
             r="7"
             cy="20"
             cx="24" /></g></g><g
         id="Mastercard_3_"><g
           id="g20"><path
             style="clip-rule:evenodd;fill:#e74c3c;fill-rule:evenodd"
             id="path18"
             d="m 21.8,16.5 h -5.6 c -0.2,0.3 -0.4,0.6 -0.6,1 h 6.8 c -0.2,-0.4 -0.4,-0.7 -0.6,-1 z m -1.6,-2 h -2.3 c -0.3,0.3 -0.6,0.6 -0.9,1 h 4.2 c -0.4,-0.4 -0.8,-0.7 -1,-1 z m 2.6,4 h -7.5 c -0.1,0.3 -0.2,0.7 -0.2,1 H 23 c -0.1,-0.3 -0.1,-0.7 -0.2,-1 z m -6.6,5 h 5.6 c 0.2,-0.3 0.4,-0.6 0.6,-1 h -6.8 c 0.2,0.4 0.4,0.7 0.6,1 z m -1,-2 h 7.5 c 0.1,-0.3 0.2,-0.7 0.2,-1 H 15 c 0.1,0.3 0.1,0.7 0.2,1 z m 2.6,4 h 2.3 c 0.3,-0.3 0.6,-0.6 0.9,-1 h -4.2 c 0.4,0.4 0.8,0.7 1,1 z" /></g></g></g><g
       id="Visa_6_" /><g
       id="Discover" /><g
       id="Amex_3_" /><g
       id="Bitcoin_3_" /><g
       id="Google_Wallet_5_" /><g
       id="PayPal_3_" /><g
       id="Square_Payment_1_" /><g
       id="Shop_5_" /><g
       id="Postage" /><g
       id="Package_7_" /><g
       id="Discount_3_" /><g
       id="Earth_3_" /><g
       id="Barcode_3_" /><g
       id="Cart_Plus_6_" /><g
       id="Cart_Minus_6_" /><g
       id="Cart_4_" /><g
       id="Receipt_5_" /><g
       id="Truck_9_" /><g
       id="Calculator_6_" /><g
       id="Euro_Symbol" /><g
       id="Cent_Symbol" /><g
       id="Dollar_Symbol" /><g
       id="Pound_Symbol" /><g
       id="Bank_5_" /><g
       id="Wallet_3_" /><g
       id="Coins_6_" /><g
       id="Bills_6_" /><g
       id="Dollar_Alt" /><g
       id="Dollar" /></g><g
     transform="translate(-0.1862104,-0.0393437)"
     id="Lockup" /></svg>